<?xml version="1.0" encoding="UTF-8"?>
<svg xmlns="http://www.w3.org/2000/svg" xmlns:xlink="http://www.w3.org/1999/xlink" width="285.464567pt" height="228.771654pt" viewBox="0 0 285.464567 228.771654" version="1.1">
<defs>
<clipPath id="clip1">
  <path d="M 18.082031 215.628906 L 277.414062 215.628906 L 277.414062 5.582031 L 18.082031 5.582031 Z M 18.082031 5.582031 "/>
</clipPath>
</defs>
<g id="surface1">
<g clip-path="url(#clip1)" clip-rule="nonzero">
<path style=" stroke:none;fill-rule:nonzero;fill:rgb(39.215686%,58.431373%,92.941176%);fill-opacity:0.2;" d="M 18.082031 215.628906 L 20.699219 215.414062 L 23.320312 215.023438 L 25.9375 214.519531 L 28.558594 213.921875 L 31.179688 213.242188 L 33.796875 212.492188 L 36.417969 211.679688 L 39.035156 210.804688 L 41.65625 209.871094 L 44.277344 208.886719 L 46.894531 207.847656 L 49.515625 206.765625 L 52.132812 205.632812 L 54.753906 204.457031 L 57.375 203.238281 L 59.992188 201.980469 L 62.613281 200.683594 L 65.230469 199.34375 L 67.851562 197.96875 L 70.472656 196.554688 L 73.089844 195.109375 L 75.710938 193.625 L 78.328125 192.105469 L 80.949219 190.558594 L 83.566406 188.972656 L 86.1875 187.359375 L 88.808594 185.710938 L 91.425781 184.035156 L 94.046875 182.328125 L 96.664062 180.589844 L 99.285156 178.824219 L 101.90625 177.027344 L 104.523438 175.203125 L 107.144531 173.355469 L 109.761719 171.476562 L 112.382812 169.570312 L 115.003906 167.636719 L 117.621094 165.679688 L 120.242188 163.695312 L 122.859375 161.683594 L 125.480469 159.648438 L 128.101562 157.585938 L 130.71875 155.503906 L 133.339844 153.394531 L 135.957031 151.257812 L 138.578125 149.101562 L 141.199219 146.921875 L 143.816406 144.714844 L 146.4375 142.488281 L 149.054688 140.238281 L 151.675781 137.964844 L 154.296875 135.667969 L 156.914062 133.351562 L 159.535156 131.011719 L 162.152344 128.652344 L 164.773438 126.269531 L 167.394531 123.863281 L 170.011719 121.4375 L 172.632812 118.992188 L 175.25 116.527344 L 177.871094 114.039062 L 180.492188 111.527344 L 183.109375 109 L 185.730469 106.453125 L 188.347656 103.882812 L 190.96875 101.292969 L 193.589844 98.6875 L 196.207031 96.058594 L 198.828125 93.410156 L 201.445312 90.746094 L 204.066406 88.058594 L 206.6875 85.355469 L 209.304688 82.628906 L 211.925781 79.886719 L 214.542969 77.128906 L 217.164062 74.347656 L 219.78125 71.550781 L 222.402344 68.734375 L 225.023438 65.902344 L 227.640625 63.050781 L 230.261719 60.179688 L 232.878906 57.292969 L 235.5 54.386719 L 238.121094 51.464844 L 240.738281 48.523438 L 243.359375 45.566406 L 245.976562 42.589844 L 248.597656 39.601562 L 251.21875 36.589844 L 253.835938 33.566406 L 256.457031 30.523438 L 259.074219 27.460938 L 261.695312 24.386719 L 264.316406 21.292969 L 266.933594 18.183594 L 269.554688 15.058594 L 272.171875 11.917969 L 274.792969 8.757812 L 277.414062 5.582031 L 274.792969 15.980469 L 272.171875 25.960938 L 269.554688 35.539062 L 266.933594 44.722656 L 264.316406 53.53125 L 261.695312 61.972656 L 259.074219 70.058594 L 256.457031 77.796875 L 253.835938 85.207031 L 251.21875 92.292969 L 248.597656 99.066406 L 245.976562 105.542969 L 243.359375 111.726562 L 240.738281 117.628906 L 238.121094 123.257812 L 235.5 128.625 L 232.878906 133.742188 L 230.261719 138.617188 L 227.640625 143.253906 L 225.023438 147.664062 L 222.402344 151.859375 L 219.78125 155.84375 L 217.164062 159.625 L 214.542969 163.214844 L 211.925781 166.617188 L 209.304688 169.839844 L 206.6875 172.890625 L 204.066406 175.777344 L 201.445312 178.507812 L 198.828125 181.082031 L 196.207031 183.515625 L 193.589844 185.808594 L 190.96875 187.96875 L 188.347656 190 L 185.730469 191.914062 L 183.109375 193.707031 L 180.492188 195.394531 L 177.871094 196.972656 L 175.25 198.453125 L 172.632812 199.835938 L 170.011719 201.132812 L 167.394531 202.339844 L 164.773438 203.464844 L 162.152344 204.511719 L 159.535156 205.488281 L 156.914062 206.390625 L 154.296875 207.230469 L 151.675781 208.007812 L 149.054688 208.726562 L 146.4375 209.390625 L 143.816406 210 L 141.199219 210.5625 L 138.578125 211.078125 L 135.957031 211.550781 L 133.339844 211.984375 L 130.71875 212.382812 L 128.101562 212.742188 L 125.480469 213.070312 L 122.859375 213.367188 L 120.242188 213.636719 L 117.621094 213.878906 L 115.003906 214.097656 L 112.382812 214.292969 L 109.761719 214.46875 L 107.144531 214.625 L 104.523438 214.761719 L 101.90625 214.886719 L 99.285156 214.996094 L 96.664062 215.089844 L 94.046875 215.175781 L 91.425781 215.246094 L 88.808594 215.3125 L 86.1875 215.367188 L 83.566406 215.414062 L 80.949219 215.453125 L 78.328125 215.484375 L 75.710938 215.515625 L 73.089844 215.539062 L 70.472656 215.558594 L 67.851562 215.574219 L 65.230469 215.585938 L 62.613281 215.597656 L 59.992188 215.605469 L 57.375 215.609375 L 54.753906 215.617188 L 52.132812 215.621094 L 49.515625 215.621094 L 46.894531 215.625 L 41.65625 215.625 L 39.035156 215.628906 Z M 18.082031 215.628906 "/>
<path style=" stroke:none;fill-rule:nonzero;fill:rgb(18.039216%,54.509804%,34.117647%);fill-opacity:0.2;" d="M 18.082031 215.628906 L 20.699219 131.839844 L 23.320312 119.378906 L 25.9375 111.25 L 28.558594 105.070312 L 31.179688 100.023438 L 33.796875 95.730469 L 36.417969 91.976562 L 39.035156 88.628906 L 41.65625 85.601562 L 44.277344 82.832031 L 46.894531 80.277344 L 49.515625 77.902344 L 52.132812 75.679688 L 54.753906 73.589844 L 57.375 71.613281 L 59.992188 69.742188 L 62.613281 67.964844 L 65.230469 66.265625 L 67.851562 64.644531 L 70.472656 63.085938 L 73.089844 61.589844 L 75.710938 60.148438 L 78.328125 58.761719 L 80.949219 57.421875 L 83.566406 56.125 L 86.1875 54.867188 L 88.808594 53.648438 L 91.425781 52.46875 L 94.046875 51.316406 L 96.664062 50.199219 L 99.285156 49.113281 L 101.90625 48.050781 L 104.523438 47.015625 L 107.144531 46.007812 L 109.761719 45.019531 L 112.382812 44.058594 L 115.003906 43.113281 L 117.621094 42.191406 L 120.242188 41.289062 L 122.859375 40.402344 L 125.480469 39.535156 L 128.101562 38.683594 L 130.71875 37.851562 L 133.339844 37.03125 L 135.957031 36.226562 L 138.578125 35.4375 L 141.199219 34.660156 L 143.816406 33.894531 L 146.4375 33.144531 L 149.054688 32.40625 L 151.675781 31.679688 L 154.296875 30.964844 L 156.914062 30.257812 L 159.535156 29.5625 L 162.152344 28.878906 L 164.773438 28.207031 L 167.394531 27.539062 L 170.011719 26.886719 L 172.632812 26.238281 L 175.25 25.601562 L 177.871094 24.972656 L 180.492188 24.351562 L 183.109375 23.738281 L 185.730469 23.132812 L 188.347656 22.535156 L 190.96875 21.945312 L 193.589844 21.359375 L 196.207031 20.785156 L 198.828125 20.214844 L 201.445312 19.652344 L 204.066406 19.09375 L 206.6875 18.542969 L 209.304688 18 L 211.925781 17.460938 L 214.542969 16.929688 L 217.164062 16.402344 L 219.78125 15.878906 L 222.402344 15.363281 L 225.023438 14.851562 L 227.640625 14.347656 L 230.261719 13.847656 L 232.878906 13.351562 L 235.5 12.859375 L 238.121094 12.375 L 240.738281 11.890625 L 243.359375 11.414062 L 245.976562 10.941406 L 248.597656 10.472656 L 251.21875 10.007812 L 253.835938 9.550781 L 256.457031 9.09375 L 259.074219 8.640625 L 264.316406 7.75 L 266.933594 7.308594 L 269.554688 6.871094 L 272.171875 6.4375 L 274.792969 6.007812 L 277.414062 5.582031 L 274.792969 7 L 272.171875 8.421875 L 269.554688 9.847656 L 266.933594 11.28125 L 264.316406 12.714844 L 259.074219 15.605469 L 256.457031 17.058594 L 253.835938 18.515625 L 251.21875 19.976562 L 248.597656 21.445312 L 245.976562 22.917969 L 243.359375 24.398438 L 240.738281 25.882812 L 238.121094 27.375 L 235.5 28.871094 L 232.878906 30.375 L 230.261719 31.886719 L 227.640625 33.398438 L 225.023438 34.921875 L 222.402344 36.449219 L 219.78125 37.984375 L 217.164062 39.527344 L 214.542969 41.074219 L 211.925781 42.628906 L 209.304688 44.191406 L 206.6875 45.761719 L 204.066406 47.335938 L 201.445312 48.921875 L 198.828125 50.511719 L 196.207031 52.113281 L 193.589844 53.71875 L 190.96875 55.335938 L 188.347656 56.957031 L 185.730469 58.589844 L 183.109375 60.230469 L 180.492188 61.878906 L 177.871094 63.535156 L 175.25 65.203125 L 172.632812 66.878906 L 170.011719 68.5625 L 167.394531 70.257812 L 164.773438 71.964844 L 162.152344 73.679688 L 159.535156 75.40625 L 156.914062 77.140625 L 154.296875 78.890625 L 151.675781 80.648438 L 149.054688 82.417969 L 146.4375 84.199219 L 143.816406 85.996094 L 141.199219 87.800781 L 138.578125 89.621094 L 135.957031 91.453125 L 133.339844 93.300781 L 130.71875 95.160156 L 128.101562 97.035156 L 125.480469 98.925781 L 122.859375 100.832031 L 120.242188 102.753906 L 117.621094 104.691406 L 115.003906 106.644531 L 112.382812 108.617188 L 109.761719 110.609375 L 107.144531 112.621094 L 104.523438 114.648438 L 101.90625 116.699219 L 99.285156 118.773438 L 96.664062 120.867188 L 94.046875 122.984375 L 91.425781 125.125 L 88.808594 127.292969 L 86.1875 129.488281 L 83.566406 131.710938 L 80.949219 133.964844 L 78.328125 136.25 L 75.710938 138.566406 L 73.089844 140.921875 L 70.472656 143.3125 L 67.851562 145.742188 L 65.230469 148.214844 L 62.613281 150.738281 L 59.992188 153.308594 L 57.375 155.929688 L 54.753906 158.613281 L 52.132812 161.363281 L 49.515625 164.183594 L 46.894531 167.082031 L 44.277344 170.070312 L 41.65625 173.160156 L 39.035156 176.367188 L 36.417969 179.710938 L 33.796875 183.21875 L 31.179688 186.929688 L 28.558594 190.894531 L 25.9375 195.210938 L 23.320312 200.046875 L 20.699219 205.8125 Z M 18.082031 215.628906 "/>
<path style=" stroke:none;fill-rule:nonzero;fill:rgb(100%,0%,0%);fill-opacity:0.2;" d="M 18.082031 215.628906 L 20.699219 213.507812 L 23.320312 211.382812 L 25.9375 209.261719 L 31.179688 205.019531 L 33.796875 202.898438 L 36.417969 200.777344 L 39.035156 198.65625 L 41.65625 196.53125 L 44.277344 194.410156 L 46.894531 192.289062 L 49.515625 190.167969 L 52.132812 188.046875 L 57.375 183.804688 L 59.992188 181.679688 L 62.613281 179.558594 L 65.230469 177.4375 L 70.472656 173.195312 L 73.089844 171.074219 L 75.710938 168.953125 L 78.328125 166.828125 L 80.949219 164.707031 L 83.566406 162.585938 L 88.808594 158.34375 L 91.425781 156.222656 L 94.046875 154.101562 L 96.664062 151.976562 L 101.90625 147.734375 L 104.523438 145.613281 L 107.144531 143.492188 L 109.761719 141.371094 L 112.382812 139.25 L 115.003906 137.125 L 117.621094 135.003906 L 120.242188 132.882812 L 122.859375 130.761719 L 128.101562 126.519531 L 130.71875 124.398438 L 133.339844 122.273438 L 135.957031 120.152344 L 141.199219 115.910156 L 143.816406 113.789062 L 146.4375 111.667969 L 149.054688 109.546875 L 151.675781 107.421875 L 154.296875 105.300781 L 156.914062 103.179688 L 159.535156 101.058594 L 162.152344 98.9375 L 167.394531 94.695312 L 170.011719 92.570312 L 172.632812 90.449219 L 175.25 88.328125 L 180.492188 84.085938 L 183.109375 81.964844 L 185.730469 79.839844 L 188.347656 77.71875 L 193.589844 73.476562 L 196.207031 71.355469 L 198.828125 69.234375 L 201.445312 67.113281 L 204.066406 64.988281 L 206.6875 62.867188 L 209.304688 60.746094 L 211.925781 58.625 L 214.542969 56.503906 L 217.164062 54.382812 L 219.78125 52.261719 L 222.402344 50.136719 L 225.023438 48.015625 L 227.640625 45.894531 L 230.261719 43.773438 L 232.878906 41.652344 L 238.121094 37.410156 L 240.738281 35.285156 L 243.359375 33.164062 L 245.976562 31.042969 L 251.21875 26.800781 L 253.835938 24.679688 L 256.457031 22.558594 L 259.074219 20.433594 L 264.316406 16.191406 L 266.933594 14.070312 L 269.554688 11.949219 L 272.171875 9.828125 L 274.792969 7.707031 L 277.414062 5.582031 L 274.792969 11.882812 L 272.171875 18.058594 L 269.554688 24.105469 L 266.933594 30.027344 L 264.316406 35.828125 L 261.695312 41.503906 L 259.074219 47.0625 L 256.457031 52.5 L 253.835938 57.820312 L 251.21875 63.019531 L 248.597656 68.105469 L 245.976562 73.078125 L 243.359375 77.9375 L 240.738281 82.6875 L 238.121094 87.324219 L 235.5 91.851562 L 232.878906 96.269531 L 230.261719 100.585938 L 227.640625 104.792969 L 225.023438 108.898438 L 222.402344 112.898438 L 219.78125 116.800781 L 217.164062 120.601562 L 214.542969 124.304688 L 211.925781 127.90625 L 209.304688 131.414062 L 206.6875 134.828125 L 204.066406 138.148438 L 201.445312 141.378906 L 198.828125 144.515625 L 196.207031 147.5625 L 193.589844 150.519531 L 190.96875 153.394531 L 188.347656 156.179688 L 185.730469 158.878906 L 183.109375 161.5 L 180.492188 164.035156 L 177.871094 166.492188 L 175.25 168.871094 L 172.632812 171.167969 L 170.011719 173.390625 L 167.394531 175.539062 L 164.773438 177.613281 L 162.152344 179.613281 L 159.535156 181.542969 L 156.914062 183.398438 L 154.296875 185.191406 L 151.675781 186.914062 L 149.054688 188.570312 L 146.4375 190.160156 L 143.816406 191.6875 L 141.199219 193.152344 L 138.578125 194.558594 L 135.957031 195.902344 L 133.339844 197.1875 L 130.71875 198.417969 L 128.101562 199.589844 L 125.480469 200.707031 L 122.859375 201.773438 L 120.242188 202.785156 L 117.621094 203.75 L 115.003906 204.664062 L 112.382812 205.527344 L 109.761719 206.347656 L 107.144531 207.121094 L 104.523438 207.847656 L 101.90625 208.535156 L 99.285156 209.179688 L 96.664062 209.785156 L 94.046875 210.347656 L 91.425781 210.875 L 88.808594 211.367188 L 86.1875 211.824219 L 83.566406 212.246094 L 80.949219 212.636719 L 78.328125 212.996094 L 75.710938 213.324219 L 73.089844 213.625 L 70.472656 213.894531 L 67.851562 214.144531 L 65.230469 214.367188 L 62.613281 214.566406 L 59.992188 214.742188 L 57.375 214.898438 L 54.753906 215.035156 L 52.132812 215.152344 L 49.515625 215.253906 L 46.894531 215.339844 L 44.277344 215.410156 L 41.65625 215.46875 L 39.035156 215.515625 L 36.417969 215.554688 L 33.796875 215.582031 L 31.179688 215.601562 L 28.558594 215.613281 L 25.9375 215.621094 L 23.320312 215.625 L 20.699219 215.628906 Z M 18.082031 215.628906 "/>
<path style=" stroke:none;fill-rule:nonzero;fill:rgb(100%,64.705882%,0%);fill-opacity:0.2;" d="M 18.082031 215.628906 L 20.699219 213.507812 L 23.320312 211.382812 L 25.9375 209.261719 L 31.179688 205.019531 L 33.796875 202.898438 L 36.417969 200.777344 L 39.035156 198.65625 L 41.65625 196.53125 L 44.277344 194.410156 L 46.894531 192.289062 L 49.515625 190.167969 L 52.132812 188.046875 L 57.375 183.804688 L 59.992188 181.679688 L 62.613281 179.558594 L 65.230469 177.4375 L 70.472656 173.195312 L 73.089844 171.074219 L 75.710938 168.953125 L 78.328125 166.828125 L 80.949219 164.707031 L 83.566406 162.585938 L 88.808594 158.34375 L 91.425781 156.222656 L 94.046875 154.101562 L 96.664062 151.976562 L 101.90625 147.734375 L 104.523438 145.613281 L 107.144531 143.492188 L 109.761719 141.371094 L 112.382812 139.25 L 115.003906 137.125 L 117.621094 135.003906 L 120.242188 132.882812 L 122.859375 130.761719 L 128.101562 126.519531 L 130.71875 124.398438 L 133.339844 122.273438 L 135.957031 120.152344 L 141.199219 115.910156 L 143.816406 113.789062 L 146.4375 111.667969 L 149.054688 109.546875 L 151.675781 107.421875 L 154.296875 105.300781 L 156.914062 103.179688 L 159.535156 101.058594 L 162.152344 98.9375 L 167.394531 94.695312 L 170.011719 92.570312 L 172.632812 90.449219 L 175.25 88.328125 L 180.492188 84.085938 L 183.109375 81.964844 L 185.730469 79.839844 L 188.347656 77.71875 L 193.589844 73.476562 L 196.207031 71.355469 L 198.828125 69.234375 L 201.445312 67.113281 L 204.066406 64.988281 L 206.6875 62.867188 L 209.304688 60.746094 L 211.925781 58.625 L 214.542969 56.503906 L 217.164062 54.382812 L 219.78125 52.261719 L 222.402344 50.136719 L 225.023438 48.015625 L 227.640625 45.894531 L 230.261719 43.773438 L 232.878906 41.652344 L 238.121094 37.410156 L 240.738281 35.285156 L 243.359375 33.164062 L 245.976562 31.042969 L 251.21875 26.800781 L 253.835938 24.679688 L 256.457031 22.558594 L 259.074219 20.433594 L 264.316406 16.191406 L 266.933594 14.070312 L 269.554688 11.949219 L 272.171875 9.828125 L 274.792969 7.707031 L 277.414062 5.582031 L 274.792969 6.292969 L 272.171875 7.007812 L 269.554688 7.726562 L 266.933594 8.453125 L 264.316406 9.179688 L 261.695312 9.914062 L 259.074219 10.65625 L 256.457031 11.402344 L 253.835938 12.152344 L 251.21875 12.910156 L 248.597656 13.671875 L 245.976562 14.4375 L 243.359375 15.210938 L 240.738281 15.992188 L 238.121094 16.777344 L 235.5 17.570312 L 232.878906 18.367188 L 230.261719 19.175781 L 227.640625 19.984375 L 225.023438 20.804688 L 222.402344 21.628906 L 219.78125 22.460938 L 217.164062 23.300781 L 214.542969 24.148438 L 211.925781 25.003906 L 209.304688 25.867188 L 206.6875 26.738281 L 204.066406 27.617188 L 201.445312 28.503906 L 198.828125 29.398438 L 196.207031 30.300781 L 193.589844 31.214844 L 190.96875 32.136719 L 188.347656 33.070312 L 185.730469 34.011719 L 183.109375 34.960938 L 180.492188 35.921875 L 177.871094 36.894531 L 175.25 37.875 L 172.632812 38.867188 L 170.011719 39.871094 L 167.394531 40.886719 L 164.773438 41.917969 L 162.152344 42.957031 L 159.535156 44.007812 L 156.914062 45.074219 L 154.296875 46.15625 L 151.675781 47.25 L 149.054688 48.355469 L 146.4375 49.480469 L 143.816406 50.617188 L 141.199219 51.769531 L 138.578125 52.941406 L 135.957031 54.128906 L 133.339844 55.335938 L 130.71875 56.558594 L 128.101562 57.800781 L 125.480469 59.0625 L 122.859375 60.347656 L 120.242188 61.652344 L 117.621094 62.980469 L 115.003906 64.328125 L 112.382812 65.707031 L 109.761719 67.105469 L 107.144531 68.535156 L 104.523438 69.992188 L 101.90625 71.476562 L 99.285156 72.996094 L 96.664062 74.546875 L 94.046875 76.132812 L 91.425781 77.753906 L 88.808594 79.414062 L 86.1875 81.117188 L 83.566406 82.863281 L 80.949219 84.660156 L 78.328125 86.503906 L 75.710938 88.402344 L 73.089844 90.359375 L 70.472656 92.382812 L 67.851562 94.46875 L 65.230469 96.632812 L 62.613281 98.878906 L 59.992188 101.214844 L 57.375 103.652344 L 54.753906 106.195312 L 52.132812 108.867188 L 49.515625 111.675781 L 46.894531 114.648438 L 44.277344 117.808594 L 41.65625 121.183594 L 39.035156 124.820312 L 36.417969 128.773438 L 33.796875 133.121094 L 31.179688 137.988281 L 28.558594 143.554688 L 25.9375 150.144531 L 23.320312 158.421875 L 20.699219 170.222656 Z M 18.082031 215.628906 "/>
</g>
<path style="fill:none;stroke-width:0.02;stroke-linecap:butt;stroke-linejoin:miter;stroke:rgb(0%,0%,0%);stroke-opacity:1;stroke-miterlimit:10;" d="M 0.602616 1.16934 L 0.707623 1.16934 " transform="matrix(28.346457,0,0,-28.346457,1,227.771654)"/>
<path style="fill:none;stroke-width:0.02;stroke-linecap:butt;stroke-linejoin:miter;stroke:rgb(0%,0%,0%);stroke-opacity:1;stroke-miterlimit:10;" d="M 0.602616 1.910311 L 0.707623 1.910311 " transform="matrix(28.346457,0,0,-28.346457,1,227.771654)"/>
<path style="fill:none;stroke-width:0.02;stroke-linecap:butt;stroke-linejoin:miter;stroke:rgb(0%,0%,0%);stroke-opacity:1;stroke-miterlimit:10;" d="M 0.602616 2.65142 L 0.707623 2.65142 " transform="matrix(28.346457,0,0,-28.346457,1,227.771654)"/>
<path style="fill:none;stroke-width:0.02;stroke-linecap:butt;stroke-linejoin:miter;stroke:rgb(0%,0%,0%);stroke-opacity:1;stroke-miterlimit:10;" d="M 0.602616 3.392391 L 0.707623 3.392391 " transform="matrix(28.346457,0,0,-28.346457,1,227.771654)"/>
<path style="fill:none;stroke-width:0.02;stroke-linecap:butt;stroke-linejoin:miter;stroke:rgb(0%,0%,0%);stroke-opacity:1;stroke-miterlimit:10;" d="M 0.602616 4.133363 L 0.707623 4.133363 " transform="matrix(28.346457,0,0,-28.346457,1,227.771654)"/>
<path style="fill:none;stroke-width:0.02;stroke-linecap:butt;stroke-linejoin:miter;stroke:rgb(0%,0%,0%);stroke-opacity:1;stroke-miterlimit:10;" d="M 0.602616 4.874334 L 0.707623 4.874334 " transform="matrix(28.346457,0,0,-28.346457,1,227.771654)"/>
<path style="fill:none;stroke-width:0.02;stroke-linecap:butt;stroke-linejoin:miter;stroke:rgb(0%,0%,0%);stroke-opacity:1;stroke-miterlimit:10;" d="M 0.602616 5.615305 L 0.707623 5.615305 " transform="matrix(28.346457,0,0,-28.346457,1,227.771654)"/>
<path style="fill:none;stroke-width:0.02;stroke-linecap:butt;stroke-linejoin:miter;stroke:rgb(0%,0%,0%);stroke-opacity:1;stroke-miterlimit:10;" d="M 0.602616 6.356276 L 0.707623 6.356276 " transform="matrix(28.346457,0,0,-28.346457,1,227.771654)"/>
<path style="fill:none;stroke-width:0.02;stroke-linecap:butt;stroke-linejoin:miter;stroke:rgb(0%,0%,0%);stroke-opacity:1;stroke-miterlimit:10;" d="M 0.602616 7.097247 L 0.707623 7.097247 " transform="matrix(28.346457,0,0,-28.346457,1,227.771654)"/>
<path style="fill:none;stroke-width:0.02;stroke-linecap:round;stroke-linejoin:miter;stroke:rgb(0%,0%,0%);stroke-opacity:1;stroke-miterlimit:10;" d="M 0.602616 0.428369 L 0.602616 7.838356 " transform="matrix(28.346457,0,0,-28.346457,1,227.771654)"/>
<path style=" stroke:none;fill-rule:nonzero;fill:rgb(0%,0%,0%);fill-opacity:1;" d="M 5.101562 212.886719 C 5.859375 212.941406 6.359375 213.632812 6.492188 214.332031 C 6.5625 214.648438 6.578125 214.949219 6.613281 215.265625 L 6.613281 216.078125 C 6.570312 216.902344 6.375 217.988281 5.476562 218.324219 C 4.699219 218.632812 3.785156 218.148438 3.554688 217.355469 C 3.382812 216.933594 3.363281 216.503906 3.324219 216.078125 L 3.324219 215.265625 C 3.363281 214.441406 3.539062 213.347656 4.429688 212.980469 L 4.46875 212.964844 L 4.5 212.957031 L 4.539062 212.941406 L 4.660156 212.910156 L 4.730469 212.894531 L 4.816406 212.894531 L 4.832031 212.886719 Z M 5.101562 212.886719 Z M 4.855469 213.371094 C 4.191406 213.449219 3.992188 214.25 3.945312 214.789062 L 3.945312 215.003906 L 3.929688 215.019531 L 3.929688 216.125 C 3.976562 216.695312 4.015625 217.433594 4.539062 217.816406 C 5.023438 218.148438 5.667969 217.773438 5.800781 217.257812 C 5.945312 216.878906 5.976562 216.503906 6.007812 216.125 L 6.007812 215.019531 C 5.960938 214.441406 5.882812 213.632812 5.214844 213.402344 L 5.160156 213.386719 L 5.144531 213.371094 L 5.070312 213.371094 L 5.054688 213.355469 L 4.875 213.355469 Z M 4.855469 213.371094 Z M 4.855469 213.371094 "/>
<path style=" stroke:none;fill-rule:nonzero;fill:rgb(0%,0%,0%);fill-opacity:1;" d="M 8.382812 217.601562 L 8.382812 218.234375 L 7.738281 218.234375 L 7.738281 217.601562 Z M 8.382812 217.601562 Z M 8.382812 217.601562 "/>
<path style=" stroke:none;fill-rule:nonzero;fill:rgb(0%,0%,0%);fill-opacity:1;" d="M 11.269531 212.886719 C 12.023438 212.941406 12.523438 213.632812 12.660156 214.332031 C 12.730469 214.648438 12.746094 214.949219 12.777344 215.265625 L 12.777344 216.078125 C 12.738281 216.902344 12.539062 217.988281 11.644531 218.324219 C 10.867188 218.632812 9.953125 218.148438 9.722656 217.355469 C 9.546875 216.933594 9.53125 216.503906 9.492188 216.078125 L 9.492188 215.265625 C 9.53125 214.441406 9.707031 213.347656 10.597656 212.980469 L 10.636719 212.964844 L 10.667969 212.957031 L 10.707031 212.941406 L 10.824219 212.910156 L 10.898438 212.894531 L 10.984375 212.894531 L 11 212.886719 Z M 11.269531 212.886719 Z M 11.023438 213.371094 C 10.359375 213.449219 10.160156 214.25 10.113281 214.789062 L 10.113281 215.003906 L 10.097656 215.019531 L 10.097656 216.125 C 10.144531 216.695312 10.183594 217.433594 10.707031 217.816406 C 11.191406 218.148438 11.835938 217.773438 11.96875 217.257812 C 12.113281 216.878906 12.144531 216.503906 12.175781 216.125 L 12.175781 215.019531 C 12.128906 214.441406 12.046875 213.632812 11.382812 213.402344 L 11.324219 213.386719 L 11.308594 213.371094 L 11.238281 213.371094 L 11.222656 213.355469 L 11.039062 213.355469 Z M 11.023438 213.371094 Z M 11.023438 213.371094 "/>
<path style=" stroke:none;fill-rule:nonzero;fill:rgb(0%,0%,0%);fill-opacity:1;" d="M 5.101562 191.882812 C 5.859375 191.9375 6.359375 192.628906 6.492188 193.324219 C 6.5625 193.644531 6.578125 193.945312 6.613281 194.261719 L 6.613281 195.070312 C 6.570312 195.898438 6.375 196.984375 5.476562 197.316406 C 4.699219 197.628906 3.785156 197.144531 3.554688 196.351562 C 3.382812 195.929688 3.363281 195.5 3.324219 195.070312 L 3.324219 194.261719 C 3.363281 193.4375 3.539062 192.339844 4.429688 191.976562 L 4.46875 191.960938 L 4.5 191.953125 L 4.539062 191.9375 L 4.660156 191.90625 L 4.730469 191.890625 L 4.816406 191.890625 L 4.832031 191.882812 Z M 5.101562 191.882812 Z M 4.855469 192.367188 C 4.191406 192.445312 3.992188 193.246094 3.945312 193.785156 L 3.945312 194 L 3.929688 194.015625 L 3.929688 195.121094 C 3.976562 195.691406 4.015625 196.429688 4.539062 196.808594 C 5.023438 197.144531 5.667969 196.769531 5.800781 196.253906 C 5.945312 195.875 5.976562 195.5 6.007812 195.121094 L 6.007812 194.015625 C 5.960938 193.4375 5.882812 192.628906 5.214844 192.398438 L 5.160156 192.382812 L 5.144531 192.367188 L 5.070312 192.367188 L 5.054688 192.351562 L 4.875 192.351562 Z M 4.855469 192.367188 Z M 4.855469 192.367188 "/>
<path style=" stroke:none;fill-rule:nonzero;fill:rgb(0%,0%,0%);fill-opacity:1;" d="M 8.382812 196.597656 L 8.382812 197.230469 L 7.738281 197.230469 L 7.738281 196.597656 Z M 8.382812 196.597656 Z M 8.382812 196.597656 "/>
<path style=" stroke:none;fill-rule:nonzero;fill:rgb(0%,0%,0%);fill-opacity:1;" d="M 11.515625 191.882812 L 11.515625 196.777344 L 11.523438 196.792969 L 12.5 196.792969 L 12.5 197.230469 L 9.921875 197.230469 L 9.921875 196.792969 L 10.898438 196.792969 L 10.914062 196.777344 L 10.914062 192.667969 C 10.578125 192.777344 10.230469 192.851562 9.882812 192.839844 L 9.882812 192.398438 C 10.40625 192.40625 10.976562 192.261719 11.375 191.882812 Z M 11.515625 191.882812 Z M 11.515625 191.882812 "/>
<path style=" stroke:none;fill-rule:nonzero;fill:rgb(0%,0%,0%);fill-opacity:1;" d="M 5.101562 170.875 C 5.859375 170.933594 6.359375 171.621094 6.492188 172.320312 C 6.5625 172.640625 6.578125 172.941406 6.613281 173.257812 L 6.613281 174.066406 C 6.570312 174.894531 6.375 175.980469 5.476562 176.3125 C 4.699219 176.625 3.785156 176.140625 3.554688 175.34375 C 3.382812 174.925781 3.363281 174.496094 3.324219 174.066406 L 3.324219 173.257812 C 3.363281 172.433594 3.539062 171.335938 4.429688 170.972656 L 4.46875 170.957031 L 4.5 170.949219 L 4.539062 170.933594 L 4.660156 170.902344 L 4.730469 170.886719 L 4.816406 170.886719 L 4.832031 170.875 Z M 5.101562 170.875 Z M 4.855469 171.359375 C 4.191406 171.441406 3.992188 172.242188 3.945312 172.78125 L 3.945312 172.996094 L 3.929688 173.011719 L 3.929688 174.113281 C 3.976562 174.6875 4.015625 175.425781 4.539062 175.804688 C 5.023438 176.140625 5.667969 175.765625 5.800781 175.25 C 5.945312 174.871094 5.976562 174.496094 6.007812 174.113281 L 6.007812 173.011719 C 5.960938 172.433594 5.882812 171.621094 5.214844 171.394531 L 5.160156 171.375 L 5.144531 171.359375 L 5.070312 171.359375 L 5.054688 171.34375 L 4.875 171.34375 Z M 4.855469 171.359375 Z M 4.855469 171.359375 "/>
<path style=" stroke:none;fill-rule:nonzero;fill:rgb(0%,0%,0%);fill-opacity:1;" d="M 8.382812 175.589844 L 8.382812 176.226562 L 7.738281 176.226562 L 7.738281 175.589844 Z M 8.382812 175.589844 Z M 8.382812 175.589844 "/>
<path style=" stroke:none;fill-rule:nonzero;fill:rgb(0%,0%,0%);fill-opacity:1;" d="M 11.183594 170.875 C 12.105469 170.902344 12.835938 171.84375 12.691406 172.734375 C 12.597656 173.625 11.761719 174.132812 11.167969 174.6875 L 10.914062 174.949219 L 10.882812 174.964844 L 10.5625 175.273438 L 10.539062 175.289062 L 10.222656 175.605469 L 10.191406 175.625 L 10.121094 175.695312 L 10.136719 175.703125 L 12.707031 175.703125 L 12.707031 176.226562 L 9.5625 176.226562 L 9.5625 175.75 L 10.84375 174.472656 C 11.453125 173.941406 12.167969 173.25 12.054688 172.378906 C 11.992188 171.867188 11.5625 171.402344 11.039062 171.359375 C 10.507812 171.28125 10.039062 171.703125 9.921875 172.210938 L 9.90625 172.234375 L 9.890625 172.289062 L 9.867188 172.378906 L 9.816406 172.550781 L 9.808594 172.589844 C 9.699219 172.457031 9.578125 172.3125 9.492188 172.164062 C 9.652344 171.511719 10.175781 170.902344 10.867188 170.875 Z M 11.183594 170.875 Z M 11.183594 170.875 "/>
<path style=" stroke:none;fill-rule:nonzero;fill:rgb(0%,0%,0%);fill-opacity:1;" d="M 5.101562 149.871094 C 5.859375 149.929688 6.359375 150.617188 6.492188 151.316406 C 6.5625 151.632812 6.578125 151.9375 6.613281 152.253906 L 6.613281 153.0625 C 6.570312 153.886719 6.375 154.976562 5.476562 155.308594 C 4.699219 155.617188 3.785156 155.132812 3.554688 154.339844 C 3.382812 153.921875 3.363281 153.492188 3.324219 153.0625 L 3.324219 152.253906 C 3.363281 151.429688 3.539062 150.332031 4.429688 149.96875 L 4.46875 149.953125 L 4.5 149.945312 L 4.539062 149.929688 L 4.660156 149.894531 L 4.730469 149.878906 L 4.816406 149.878906 L 4.832031 149.871094 Z M 5.101562 149.871094 Z M 4.855469 150.355469 C 4.191406 150.4375 3.992188 151.238281 3.945312 151.777344 L 3.945312 151.992188 L 3.929688 152.007812 L 3.929688 153.109375 C 3.976562 153.683594 4.015625 154.421875 4.539062 154.800781 C 5.023438 155.132812 5.667969 154.761719 5.800781 154.246094 C 5.945312 153.863281 5.976562 153.492188 6.007812 153.109375 L 6.007812 152.007812 C 5.960938 151.429688 5.882812 150.617188 5.214844 150.386719 L 5.160156 150.371094 L 5.144531 150.355469 L 5.070312 150.355469 L 5.054688 150.339844 L 4.875 150.339844 Z M 4.855469 150.355469 Z M 4.855469 150.355469 "/>
<path style=" stroke:none;fill-rule:nonzero;fill:rgb(0%,0%,0%);fill-opacity:1;" d="M 8.382812 154.585938 L 8.382812 155.222656 L 7.738281 155.222656 L 7.738281 154.585938 Z M 8.382812 154.585938 Z M 8.382812 154.585938 "/>
<path style=" stroke:none;fill-rule:nonzero;fill:rgb(0%,0%,0%);fill-opacity:1;" d="M 11.285156 149.871094 C 11.984375 149.902344 12.714844 150.546875 12.546875 151.285156 C 12.46875 151.785156 12.121094 152.199219 11.683594 152.421875 C 12.390625 152.640625 12.9375 153.386719 12.746094 154.125 C 12.554688 155.085938 11.453125 155.617188 10.5625 155.324219 C 10.136719 155.199219 9.699219 154.929688 9.492188 154.53125 C 9.539062 154.414062 9.523438 154.207031 9.578125 154.125 C 10 154.746094 10.890625 155.167969 11.589844 154.816406 C 12.351562 154.332031 12.230469 152.921875 11.308594 152.683594 L 11.238281 152.683594 L 11.222656 152.667969 L 10.484375 152.667969 L 10.484375 152.191406 C 10.9375 152.183594 11.5 152.125 11.753906 151.660156 C 12.023438 151.253906 12 150.585938 11.484375 150.386719 C 10.875 150.148438 10.121094 150.539062 9.890625 151.160156 C 9.792969 151.023438 9.699219 150.886719 9.605469 150.746094 C 9.929688 150.160156 10.621094 149.808594 11.285156 149.871094 Z M 11.285156 149.871094 Z M 11.285156 149.871094 "/>
<path style=" stroke:none;fill-rule:nonzero;fill:rgb(0%,0%,0%);fill-opacity:1;" d="M 5.101562 128.867188 C 5.859375 128.921875 6.359375 129.613281 6.492188 130.3125 C 6.5625 130.628906 6.578125 130.933594 6.613281 131.25 L 6.613281 132.058594 C 6.570312 132.882812 6.375 133.972656 5.476562 134.304688 C 4.699219 134.613281 3.785156 134.128906 3.554688 133.335938 C 3.382812 132.914062 3.363281 132.488281 3.324219 132.058594 L 3.324219 131.25 C 3.363281 130.421875 3.539062 129.328125 4.429688 128.964844 L 4.46875 128.949219 L 4.5 128.941406 L 4.539062 128.921875 L 4.660156 128.890625 L 4.730469 128.875 L 4.816406 128.875 L 4.832031 128.867188 Z M 5.101562 128.867188 Z M 4.855469 129.351562 C 4.191406 129.429688 3.992188 130.234375 3.945312 130.773438 L 3.945312 130.988281 L 3.929688 131.003906 L 3.929688 132.105469 C 3.976562 132.679688 4.015625 133.414062 4.539062 133.796875 C 5.023438 134.128906 5.667969 133.757812 5.800781 133.242188 C 5.945312 132.859375 5.976562 132.488281 6.007812 132.105469 L 6.007812 131.003906 C 5.960938 130.421875 5.882812 129.613281 5.214844 129.382812 L 5.160156 129.367188 L 5.144531 129.351562 L 5.070312 129.351562 L 5.054688 129.335938 L 4.875 129.335938 Z M 4.855469 129.351562 Z M 4.855469 129.351562 "/>
<path style=" stroke:none;fill-rule:nonzero;fill:rgb(0%,0%,0%);fill-opacity:1;" d="M 8.382812 133.582031 L 8.382812 134.21875 L 7.738281 134.21875 L 7.738281 133.582031 Z M 8.382812 133.582031 Z M 8.382812 133.582031 "/>
<path style=" stroke:none;fill-rule:nonzero;fill:rgb(0%,0%,0%);fill-opacity:1;" d="M 12.089844 129.035156 L 12.089844 132.375 L 12.105469 132.390625 L 12.890625 132.390625 L 12.890625 132.867188 L 12.105469 132.867188 L 12.089844 132.875 L 12.089844 134.21875 L 11.484375 134.21875 L 11.484375 132.875 L 11.46875 132.867188 L 9.375 132.867188 L 9.375 132.375 C 10.039062 131.265625 10.707031 130.144531 11.375 129.035156 Z M 12.089844 129.035156 Z M 11.5 129.335938 C 11.34375 130.160156 10.832031 130.867188 10.453125 131.589844 C 10.300781 131.851562 10.105469 132.136719 9.992188 132.390625 L 11.515625 132.390625 L 11.523438 132.375 L 11.523438 129.335938 L 11.515625 129.320312 Z M 11.5 129.335938 Z M 11.5 129.335938 "/>
<path style=" stroke:none;fill-rule:nonzero;fill:rgb(0%,0%,0%);fill-opacity:1;" d="M 5.101562 107.863281 C 5.859375 107.917969 6.359375 108.609375 6.492188 109.308594 C 6.5625 109.625 6.578125 109.925781 6.613281 110.246094 L 6.613281 111.054688 C 6.570312 111.878906 6.375 112.96875 5.476562 113.300781 C 4.699219 113.609375 3.785156 113.125 3.554688 112.332031 C 3.382812 111.910156 3.363281 111.484375 3.324219 111.054688 L 3.324219 110.246094 C 3.363281 109.417969 3.539062 108.324219 4.429688 107.957031 L 4.46875 107.941406 L 4.5 107.933594 L 4.539062 107.917969 L 4.660156 107.886719 L 4.730469 107.871094 L 4.816406 107.871094 L 4.832031 107.863281 Z M 5.101562 107.863281 Z M 4.855469 108.347656 C 4.191406 108.425781 3.992188 109.230469 3.945312 109.769531 L 3.945312 109.984375 L 3.929688 110 L 3.929688 111.101562 C 3.976562 111.671875 4.015625 112.410156 4.539062 112.792969 C 5.023438 113.125 5.667969 112.753906 5.800781 112.238281 C 5.945312 111.855469 5.976562 111.484375 6.007812 111.101562 L 6.007812 110 C 5.960938 109.417969 5.882812 108.609375 5.214844 108.378906 L 5.160156 108.363281 L 5.144531 108.347656 L 5.070312 108.347656 L 5.054688 108.332031 L 4.875 108.332031 Z M 4.855469 108.347656 Z M 4.855469 108.347656 "/>
<path style=" stroke:none;fill-rule:nonzero;fill:rgb(0%,0%,0%);fill-opacity:1;" d="M 8.382812 112.578125 L 8.382812 113.214844 L 7.738281 113.214844 L 7.738281 112.578125 Z M 8.382812 112.578125 Z M 8.382812 112.578125 "/>
<path style=" stroke:none;fill-rule:nonzero;fill:rgb(0%,0%,0%);fill-opacity:1;" d="M 12.445312 108.03125 L 12.445312 108.523438 L 10.382812 108.523438 L 10.367188 108.53125 L 10.367188 110.15625 C 10.554688 110.03125 10.824219 109.863281 11.078125 109.855469 C 11.976562 109.761719 12.667969 110.640625 12.707031 111.460938 C 12.835938 112.5 11.859375 113.53125 10.808594 113.371094 C 10.285156 113.355469 9.777344 113.046875 9.476562 112.617188 C 9.5625 112.5 9.636719 112.292969 9.738281 112.222656 C 10.113281 112.953125 11.316406 113.246094 11.800781 112.476562 C 12.113281 111.894531 12.105469 111.15625 11.746094 110.601562 C 11.332031 110.070312 10.515625 110.394531 10.324219 110.960938 L 9.808594 110.960938 L 9.808594 108.03125 Z M 12.445312 108.03125 Z M 12.445312 108.03125 "/>
<path style=" stroke:none;fill-rule:nonzero;fill:rgb(0%,0%,0%);fill-opacity:1;" d="M 5.101562 86.859375 C 5.859375 86.914062 6.359375 87.605469 6.492188 88.304688 C 6.5625 88.621094 6.578125 88.921875 6.613281 89.242188 L 6.613281 90.050781 C 6.570312 90.875 6.375 91.960938 5.476562 92.296875 C 4.699219 92.605469 3.785156 92.121094 3.554688 91.328125 C 3.382812 90.90625 3.363281 90.476562 3.324219 90.050781 L 3.324219 89.242188 C 3.363281 88.414062 3.539062 87.320312 4.429688 86.953125 L 4.46875 86.9375 L 4.5 86.929688 L 4.539062 86.914062 L 4.660156 86.882812 L 4.730469 86.867188 L 4.816406 86.867188 L 4.832031 86.859375 Z M 5.101562 86.859375 Z M 4.855469 87.34375 C 4.191406 87.421875 3.992188 88.222656 3.945312 88.765625 L 3.945312 88.976562 L 3.929688 88.996094 L 3.929688 90.097656 C 3.976562 90.667969 4.015625 91.40625 4.539062 91.789062 C 5.023438 92.121094 5.667969 91.75 5.800781 91.234375 C 5.945312 90.851562 5.976562 90.476562 6.007812 90.097656 L 6.007812 88.996094 C 5.960938 88.414062 5.882812 87.605469 5.214844 87.375 L 5.160156 87.359375 L 5.144531 87.34375 L 5.070312 87.34375 L 5.054688 87.328125 L 4.875 87.328125 Z M 4.855469 87.34375 Z M 4.855469 87.34375 "/>
<path style=" stroke:none;fill-rule:nonzero;fill:rgb(0%,0%,0%);fill-opacity:1;" d="M 8.382812 91.574219 L 8.382812 92.207031 L 7.738281 92.207031 L 7.738281 91.574219 Z M 8.382812 91.574219 Z M 8.382812 91.574219 "/>
<path style=" stroke:none;fill-rule:nonzero;fill:rgb(0%,0%,0%);fill-opacity:1;" d="M 11.785156 86.859375 C 11.992188 86.890625 12.230469 86.914062 12.429688 87.011719 L 12.429688 87.46875 C 11.882812 87.230469 11.167969 87.199219 10.738281 87.683594 C 10.359375 88.089844 10.183594 88.691406 10.167969 89.222656 C 10.628906 88.613281 11.667969 88.273438 12.230469 88.90625 C 12.792969 89.558594 12.890625 90.496094 12.636719 91.289062 C 12.359375 91.921875 11.714844 92.503906 11 92.367188 C 10.03125 92.289062 9.597656 91.207031 9.546875 90.382812 C 9.367188 89.214844 9.644531 87.75 10.753906 87.082031 L 10.769531 87.074219 L 10.9375 86.984375 L 10.984375 86.96875 L 11.007812 86.953125 L 11.253906 86.882812 L 11.324219 86.867188 L 11.414062 86.867188 L 11.429688 86.859375 Z M 11.785156 86.859375 Z M 11.007812 89.066406 C 10.316406 89.183594 10.097656 90.019531 10.183594 90.582031 C 10.222656 91.113281 10.429688 91.820312 11.039062 91.929688 C 11.691406 92.019531 12.113281 91.320312 12.128906 90.757812 C 12.160156 90.183594 12.128906 89.535156 11.628906 89.160156 L 11.515625 89.105469 L 11.429688 89.082031 L 11.359375 89.066406 L 11.34375 89.050781 L 11.023438 89.050781 Z M 11.007812 89.066406 Z M 11.007812 89.066406 "/>
<path style=" stroke:none;fill-rule:nonzero;fill:rgb(0%,0%,0%);fill-opacity:1;" d="M 5.101562 65.855469 C 5.859375 65.910156 6.359375 66.601562 6.492188 67.300781 C 6.5625 67.617188 6.578125 67.917969 6.613281 68.234375 L 6.613281 69.046875 C 6.570312 69.871094 6.375 70.957031 5.476562 71.292969 C 4.699219 71.601562 3.785156 71.117188 3.554688 70.324219 C 3.382812 69.902344 3.363281 69.472656 3.324219 69.046875 L 3.324219 68.234375 C 3.363281 67.410156 3.539062 66.316406 4.429688 65.949219 L 4.46875 65.933594 L 4.5 65.925781 L 4.539062 65.910156 L 4.660156 65.878906 L 4.730469 65.863281 L 4.816406 65.863281 L 4.832031 65.855469 Z M 5.101562 65.855469 Z M 4.855469 66.339844 C 4.191406 66.417969 3.992188 67.21875 3.945312 67.757812 L 3.945312 67.972656 L 3.929688 67.988281 L 3.929688 69.09375 C 3.976562 69.664062 4.015625 70.402344 4.539062 70.785156 C 5.023438 71.117188 5.667969 70.742188 5.800781 70.226562 C 5.945312 69.847656 5.976562 69.472656 6.007812 69.09375 L 6.007812 67.988281 C 5.960938 67.410156 5.882812 66.601562 5.214844 66.371094 L 5.160156 66.355469 L 5.144531 66.339844 L 5.070312 66.339844 L 5.054688 66.324219 L 4.875 66.324219 Z M 4.855469 66.339844 Z M 4.855469 66.339844 "/>
<path style=" stroke:none;fill-rule:nonzero;fill:rgb(0%,0%,0%);fill-opacity:1;" d="M 8.382812 70.570312 L 8.382812 71.203125 L 7.738281 71.203125 L 7.738281 70.570312 Z M 8.382812 70.570312 Z M 8.382812 70.570312 "/>
<path style=" stroke:none;fill-rule:nonzero;fill:rgb(0%,0%,0%);fill-opacity:1;" d="M 12.777344 66.019531 L 12.777344 66.519531 C 11.652344 67.839844 11.015625 69.617188 11.023438 71.292969 L 10.382812 71.292969 C 10.367188 69.601562 11.054688 67.816406 12.261719 66.570312 L 12.246094 66.554688 L 9.492188 66.554688 L 9.492188 66.019531 L 12.777344 66.019531 L 12.777344 66.519531 Z M 12.777344 66.019531 Z M 12.777344 66.019531 "/>
<path style=" stroke:none;fill-rule:nonzero;fill:rgb(0%,0%,0%);fill-opacity:1;" d="M 5.101562 44.851562 C 5.859375 44.90625 6.359375 45.597656 6.492188 46.292969 C 6.5625 46.613281 6.578125 46.914062 6.613281 47.230469 L 6.613281 48.039062 C 6.570312 48.867188 6.375 49.953125 5.476562 50.289062 C 4.699219 50.597656 3.785156 50.113281 3.554688 49.320312 C 3.382812 48.898438 3.363281 48.46875 3.324219 48.039062 L 3.324219 47.230469 C 3.363281 46.40625 3.539062 45.3125 4.429688 44.945312 L 4.46875 44.929688 L 4.5 44.921875 L 4.539062 44.90625 L 4.660156 44.875 L 4.730469 44.859375 L 4.816406 44.859375 L 4.832031 44.851562 Z M 5.101562 44.851562 Z M 4.855469 45.335938 C 4.191406 45.414062 3.992188 46.214844 3.945312 46.753906 L 3.945312 46.96875 L 3.929688 46.984375 L 3.929688 48.089844 C 3.976562 48.660156 4.015625 49.398438 4.539062 49.777344 C 5.023438 50.113281 5.667969 49.738281 5.800781 49.222656 C 5.945312 48.84375 5.976562 48.46875 6.007812 48.089844 L 6.007812 46.984375 C 5.960938 46.40625 5.882812 45.597656 5.214844 45.367188 L 5.160156 45.351562 L 5.144531 45.335938 L 5.070312 45.335938 L 5.054688 45.320312 L 4.875 45.320312 Z M 4.855469 45.335938 Z M 4.855469 45.335938 "/>
<path style=" stroke:none;fill-rule:nonzero;fill:rgb(0%,0%,0%);fill-opacity:1;" d="M 8.382812 49.566406 L 8.382812 50.199219 L 7.738281 50.199219 L 7.738281 49.566406 Z M 8.382812 49.566406 Z M 8.382812 49.566406 "/>
<path style=" stroke:none;fill-rule:nonzero;fill:rgb(0%,0%,0%);fill-opacity:1;" d="M 11.285156 44.851562 C 12.128906 44.882812 12.921875 45.785156 12.589844 46.628906 C 12.445312 47.015625 12.046875 47.253906 11.722656 47.421875 C 12.53125 47.660156 13.023438 48.605469 12.660156 49.382812 C 12.277344 50.390625 10.832031 50.707031 10.039062 49.976562 C 9.316406 49.40625 9.292969 48.167969 10.097656 47.660156 C 10.214844 47.53125 10.4375 47.492188 10.539062 47.398438 C 9.851562 47.199219 9.382812 46.398438 9.707031 45.722656 C 9.96875 45.121094 10.644531 44.785156 11.285156 44.851562 Z M 11.285156 44.851562 Z M 10.984375 45.300781 C 10.398438 45.320312 9.984375 45.984375 10.183594 46.507812 C 10.414062 47.414062 11.929688 47.382812 12.105469 46.453125 C 12.261719 45.9375 11.851562 45.320312 11.285156 45.300781 L 11.269531 45.292969 L 11 45.292969 Z M 10.984375 45.300781 Z M 11 47.660156 C 10.308594 47.707031 9.96875 48.53125 10.152344 49.121094 C 10.269531 49.953125 11.460938 50.199219 11.929688 49.53125 C 12.382812 48.921875 12.160156 47.828125 11.34375 47.660156 L 11.269531 47.660156 L 11.253906 47.644531 L 11.007812 47.644531 Z M 11 47.660156 Z M 11 47.660156 "/>
<path style=" stroke:none;fill-rule:nonzero;fill:rgb(0%,0%,0%);fill-opacity:1;" d="M 5.101562 23.847656 C 5.859375 23.902344 6.359375 24.59375 6.492188 25.289062 C 6.5625 25.609375 6.578125 25.910156 6.613281 26.226562 L 6.613281 27.035156 C 6.570312 27.863281 6.375 28.949219 5.476562 29.28125 C 4.699219 29.59375 3.785156 29.109375 3.554688 28.3125 C 3.382812 27.894531 3.363281 27.464844 3.324219 27.035156 L 3.324219 26.226562 C 3.363281 25.402344 3.539062 24.304688 4.429688 23.941406 L 4.46875 23.925781 L 4.5 23.917969 L 4.539062 23.902344 L 4.660156 23.871094 L 4.730469 23.855469 L 4.816406 23.855469 L 4.832031 23.847656 Z M 5.101562 23.847656 Z M 4.855469 24.328125 C 4.191406 24.410156 3.992188 25.210938 3.945312 25.75 L 3.945312 25.964844 L 3.929688 25.980469 L 3.929688 27.085938 C 3.976562 27.65625 4.015625 28.394531 4.539062 28.773438 C 5.023438 29.109375 5.667969 28.734375 5.800781 28.21875 C 5.945312 27.839844 5.976562 27.464844 6.007812 27.085938 L 6.007812 25.980469 C 5.960938 25.402344 5.882812 24.59375 5.214844 24.363281 L 5.160156 24.347656 L 5.144531 24.328125 L 5.070312 24.328125 L 5.054688 24.3125 L 4.875 24.3125 Z M 4.855469 24.328125 Z M 4.855469 24.328125 "/>
<path style=" stroke:none;fill-rule:nonzero;fill:rgb(0%,0%,0%);fill-opacity:1;" d="M 8.382812 28.558594 L 8.382812 29.195312 L 7.738281 29.195312 L 7.738281 28.558594 Z M 8.382812 28.558594 Z M 8.382812 28.558594 "/>
<path style=" stroke:none;fill-rule:nonzero;fill:rgb(0%,0%,0%);fill-opacity:1;" d="M 11.300781 23.847656 C 12.253906 23.949219 12.667969 25.027344 12.730469 25.855469 C 12.84375 26.925781 12.714844 28.179688 11.84375 28.949219 C 11.292969 29.496094 10.324219 29.511719 9.738281 29.019531 C 9.808594 28.886719 9.890625 28.726562 9.976562 28.617188 C 10.492188 29.117188 11.398438 28.972656 11.730469 28.332031 C 11.96875 27.941406 12.113281 27.441406 12.105469 27.011719 C 11.636719 27.617188 10.605469 27.964844 10.039062 27.332031 C 9.46875 26.671875 9.367188 25.710938 9.652344 24.917969 C 9.945312 24.289062 10.570312 23.75 11.300781 23.847656 Z M 11.300781 23.847656 Z M 11.039062 24.296875 C 10.46875 24.347656 10.175781 24.980469 10.136719 25.480469 C 10.113281 26.042969 10.136719 26.703125 10.636719 27.066406 C 11.191406 27.410156 11.90625 26.996094 12.03125 26.394531 C 12.183594 25.804688 12.089844 25.179688 11.785156 24.632812 C 11.621094 24.402344 11.316406 24.234375 11.039062 24.296875 Z M 11.039062 24.296875 Z M 11.039062 24.296875 "/>
<path style=" stroke:none;fill-rule:nonzero;fill:rgb(0%,0%,0%);fill-opacity:1;" d="M 5.347656 2.839844 L 5.347656 7.738281 L 5.355469 7.753906 L 6.332031 7.753906 L 6.332031 8.191406 L 3.753906 8.191406 L 3.753906 7.753906 L 4.730469 7.753906 L 4.746094 7.738281 L 4.746094 3.628906 C 4.414062 3.738281 4.0625 3.808594 3.714844 3.800781 L 3.714844 3.355469 C 4.238281 3.363281 4.808594 3.222656 5.207031 2.839844 Z M 5.347656 2.839844 Z M 5.347656 2.839844 "/>
<path style=" stroke:none;fill-rule:nonzero;fill:rgb(0%,0%,0%);fill-opacity:1;" d="M 8.382812 7.554688 L 8.382812 8.191406 L 7.738281 8.191406 L 7.738281 7.554688 Z M 8.382812 7.554688 Z M 8.382812 7.554688 "/>
<path style=" stroke:none;fill-rule:nonzero;fill:rgb(0%,0%,0%);fill-opacity:1;" d="M 11.269531 2.839844 C 12.023438 2.898438 12.523438 3.585938 12.660156 4.285156 C 12.730469 4.601562 12.746094 4.90625 12.777344 5.222656 L 12.777344 6.03125 C 12.738281 6.859375 12.539062 7.945312 11.644531 8.277344 C 10.867188 8.585938 9.953125 8.105469 9.722656 7.308594 C 9.546875 6.890625 9.53125 6.460938 9.492188 6.03125 L 9.492188 5.222656 C 9.53125 4.398438 9.707031 3.300781 10.597656 2.9375 L 10.636719 2.921875 L 10.667969 2.914062 L 10.707031 2.898438 L 10.824219 2.863281 L 10.898438 2.847656 L 10.984375 2.847656 L 11 2.839844 Z M 11.269531 2.839844 Z M 11.023438 3.324219 C 10.359375 3.40625 10.160156 4.207031 10.113281 4.746094 L 10.113281 4.960938 L 10.097656 4.976562 L 10.097656 6.078125 C 10.144531 6.652344 10.183594 7.390625 10.707031 7.769531 C 11.191406 8.105469 11.835938 7.730469 11.96875 7.214844 C 12.113281 6.832031 12.144531 6.460938 12.175781 6.078125 L 12.175781 4.976562 C 12.128906 4.398438 12.046875 3.585938 11.382812 3.355469 L 11.324219 3.339844 L 11.308594 3.324219 L 11.238281 3.324219 L 11.222656 3.308594 L 11.039062 3.308594 Z M 11.023438 3.324219 Z M 11.023438 3.324219 "/>
<path style="fill:none;stroke-width:0.02;stroke-linecap:butt;stroke-linejoin:miter;stroke:rgb(0%,0%,0%);stroke-opacity:1;stroke-miterlimit:10;" d="M 9.751274 1.16934 L 9.646267 1.16934 " transform="matrix(28.346457,0,0,-28.346457,1,227.771654)"/>
<path style="fill:none;stroke-width:0.02;stroke-linecap:butt;stroke-linejoin:miter;stroke:rgb(0%,0%,0%);stroke-opacity:1;stroke-miterlimit:10;" d="M 9.751274 1.910311 L 9.646267 1.910311 " transform="matrix(28.346457,0,0,-28.346457,1,227.771654)"/>
<path style="fill:none;stroke-width:0.02;stroke-linecap:butt;stroke-linejoin:miter;stroke:rgb(0%,0%,0%);stroke-opacity:1;stroke-miterlimit:10;" d="M 9.751274 2.65142 L 9.646267 2.65142 " transform="matrix(28.346457,0,0,-28.346457,1,227.771654)"/>
<path style="fill:none;stroke-width:0.02;stroke-linecap:butt;stroke-linejoin:miter;stroke:rgb(0%,0%,0%);stroke-opacity:1;stroke-miterlimit:10;" d="M 9.751274 3.392391 L 9.646267 3.392391 " transform="matrix(28.346457,0,0,-28.346457,1,227.771654)"/>
<path style="fill:none;stroke-width:0.02;stroke-linecap:butt;stroke-linejoin:miter;stroke:rgb(0%,0%,0%);stroke-opacity:1;stroke-miterlimit:10;" d="M 9.751274 4.133363 L 9.646267 4.133363 " transform="matrix(28.346457,0,0,-28.346457,1,227.771654)"/>
<path style="fill:none;stroke-width:0.02;stroke-linecap:butt;stroke-linejoin:miter;stroke:rgb(0%,0%,0%);stroke-opacity:1;stroke-miterlimit:10;" d="M 9.751274 4.874334 L 9.646267 4.874334 " transform="matrix(28.346457,0,0,-28.346457,1,227.771654)"/>
<path style="fill:none;stroke-width:0.02;stroke-linecap:butt;stroke-linejoin:miter;stroke:rgb(0%,0%,0%);stroke-opacity:1;stroke-miterlimit:10;" d="M 9.751274 5.615305 L 9.646267 5.615305 " transform="matrix(28.346457,0,0,-28.346457,1,227.771654)"/>
<path style="fill:none;stroke-width:0.02;stroke-linecap:butt;stroke-linejoin:miter;stroke:rgb(0%,0%,0%);stroke-opacity:1;stroke-miterlimit:10;" d="M 9.751274 6.356276 L 9.646267 6.356276 " transform="matrix(28.346457,0,0,-28.346457,1,227.771654)"/>
<path style="fill:none;stroke-width:0.02;stroke-linecap:butt;stroke-linejoin:miter;stroke:rgb(0%,0%,0%);stroke-opacity:1;stroke-miterlimit:10;" d="M 9.751274 7.097247 L 9.646267 7.097247 " transform="matrix(28.346457,0,0,-28.346457,1,227.771654)"/>
<path style="fill:none;stroke-width:0.02;stroke-linecap:round;stroke-linejoin:miter;stroke:rgb(0%,0%,0%);stroke-opacity:1;stroke-miterlimit:10;" d="M 9.751274 0.428369 L 9.751274 7.838356 " transform="matrix(28.346457,0,0,-28.346457,1,227.771654)"/>
<path style="fill:none;stroke-width:0.02;stroke-linecap:butt;stroke-linejoin:miter;stroke:rgb(0%,0%,0%);stroke-opacity:1;stroke-miterlimit:10;" d="M 1.517358 0.428369 L 1.517358 0.533376 " transform="matrix(28.346457,0,0,-28.346457,1,227.771654)"/>
<path style="fill:none;stroke-width:0.02;stroke-linecap:butt;stroke-linejoin:miter;stroke:rgb(0%,0%,0%);stroke-opacity:1;stroke-miterlimit:10;" d="M 2.432237 0.428369 L 2.432237 0.533376 " transform="matrix(28.346457,0,0,-28.346457,1,227.771654)"/>
<path style="fill:none;stroke-width:0.02;stroke-linecap:butt;stroke-linejoin:miter;stroke:rgb(0%,0%,0%);stroke-opacity:1;stroke-miterlimit:10;" d="M 3.347117 0.428369 L 3.347117 0.533376 " transform="matrix(28.346457,0,0,-28.346457,1,227.771654)"/>
<path style="fill:none;stroke-width:0.02;stroke-linecap:butt;stroke-linejoin:miter;stroke:rgb(0%,0%,0%);stroke-opacity:1;stroke-miterlimit:10;" d="M 4.261997 0.428369 L 4.261997 0.533376 " transform="matrix(28.346457,0,0,-28.346457,1,227.771654)"/>
<path style="fill:none;stroke-width:0.02;stroke-linecap:butt;stroke-linejoin:miter;stroke:rgb(0%,0%,0%);stroke-opacity:1;stroke-miterlimit:10;" d="M 5.176876 0.428369 L 5.176876 0.533376 " transform="matrix(28.346457,0,0,-28.346457,1,227.771654)"/>
<path style="fill:none;stroke-width:0.02;stroke-linecap:butt;stroke-linejoin:miter;stroke:rgb(0%,0%,0%);stroke-opacity:1;stroke-miterlimit:10;" d="M 6.091756 0.428369 L 6.091756 0.533376 " transform="matrix(28.346457,0,0,-28.346457,1,227.771654)"/>
<path style="fill:none;stroke-width:0.02;stroke-linecap:butt;stroke-linejoin:miter;stroke:rgb(0%,0%,0%);stroke-opacity:1;stroke-miterlimit:10;" d="M 7.006635 0.428369 L 7.006635 0.533376 " transform="matrix(28.346457,0,0,-28.346457,1,227.771654)"/>
<path style="fill:none;stroke-width:0.02;stroke-linecap:butt;stroke-linejoin:miter;stroke:rgb(0%,0%,0%);stroke-opacity:1;stroke-miterlimit:10;" d="M 7.921515 0.428369 L 7.921515 0.533376 " transform="matrix(28.346457,0,0,-28.346457,1,227.771654)"/>
<path style="fill:none;stroke-width:0.02;stroke-linecap:butt;stroke-linejoin:miter;stroke:rgb(0%,0%,0%);stroke-opacity:1;stroke-miterlimit:10;" d="M 8.836394 0.428369 L 8.836394 0.533376 " transform="matrix(28.346457,0,0,-28.346457,1,227.771654)"/>
<path style="fill:none;stroke-width:0.02;stroke-linecap:round;stroke-linejoin:miter;stroke:rgb(0%,0%,0%);stroke-opacity:1;stroke-miterlimit:10;" d="M 0.602616 0.428369 L 9.751274 0.428369 " transform="matrix(28.346457,0,0,-28.346457,1,227.771654)"/>
<path style=" stroke:none;fill-rule:nonzero;fill:rgb(0%,0%,0%);fill-opacity:1;" d="M 15.132812 220.445312 C 15.886719 220.5 16.386719 221.191406 16.519531 221.890625 C 16.59375 222.207031 16.609375 222.507812 16.640625 222.828125 L 16.640625 223.636719 C 16.601562 224.460938 16.402344 225.550781 15.503906 225.882812 C 14.726562 226.191406 13.8125 225.707031 13.585938 224.914062 C 13.410156 224.492188 13.394531 224.066406 13.355469 223.636719 L 13.355469 222.828125 C 13.394531 222 13.566406 220.90625 14.457031 220.542969 L 14.496094 220.523438 L 14.527344 220.515625 L 14.566406 220.5 L 14.6875 220.46875 L 14.757812 220.453125 L 14.847656 220.453125 L 14.863281 220.445312 Z M 15.132812 220.445312 Z M 14.886719 220.929688 C 14.21875 221.007812 14.019531 221.8125 13.972656 222.351562 L 13.972656 222.566406 L 13.957031 222.582031 L 13.957031 223.683594 C 14.003906 224.253906 14.042969 224.992188 14.566406 225.375 C 15.050781 225.707031 15.695312 225.335938 15.832031 224.820312 C 15.972656 224.4375 16.003906 224.066406 16.035156 223.683594 L 16.035156 222.582031 C 15.988281 222 15.910156 221.191406 15.242188 220.960938 L 15.1875 220.945312 L 15.171875 220.929688 L 15.101562 220.929688 L 15.085938 220.914062 L 14.902344 220.914062 Z M 14.886719 220.929688 Z M 14.886719 220.929688 "/>
<path style=" stroke:none;fill-rule:nonzero;fill:rgb(0%,0%,0%);fill-opacity:1;" d="M 18.410156 225.160156 L 18.410156 225.796875 L 17.765625 225.796875 L 17.765625 225.160156 Z M 18.410156 225.160156 Z M 18.410156 225.160156 "/>
<path style=" stroke:none;fill-rule:nonzero;fill:rgb(0%,0%,0%);fill-opacity:1;" d="M 21.300781 220.445312 C 22.054688 220.5 22.554688 221.191406 22.6875 221.890625 C 22.757812 222.207031 22.773438 222.507812 22.808594 222.828125 L 22.808594 223.636719 C 22.765625 224.460938 22.570312 225.550781 21.671875 225.882812 C 20.894531 226.191406 19.980469 225.707031 19.75 224.914062 C 19.578125 224.492188 19.5625 224.066406 19.519531 223.636719 L 19.519531 222.828125 C 19.5625 222 19.734375 220.90625 20.625 220.542969 L 20.664062 220.523438 L 20.695312 220.515625 L 20.734375 220.5 L 20.855469 220.46875 L 20.925781 220.453125 L 21.011719 220.453125 L 21.027344 220.445312 Z M 21.300781 220.445312 Z M 21.054688 220.929688 C 20.386719 221.007812 20.1875 221.8125 20.140625 222.351562 L 20.140625 222.566406 L 20.125 222.582031 L 20.125 223.683594 C 20.171875 224.253906 20.210938 224.992188 20.734375 225.375 C 21.21875 225.707031 21.863281 225.335938 21.996094 224.820312 C 22.140625 224.4375 22.171875 224.066406 22.203125 223.683594 L 22.203125 222.582031 C 22.15625 222 22.078125 221.191406 21.410156 220.960938 L 21.355469 220.945312 L 21.339844 220.929688 L 21.265625 220.929688 L 21.25 220.914062 L 21.070312 220.914062 Z M 21.054688 220.929688 Z M 21.054688 220.929688 "/>
<path style=" stroke:none;fill-rule:nonzero;fill:rgb(0%,0%,0%);fill-opacity:1;" d="M 41.066406 220.445312 C 41.820312 220.5 42.320312 221.191406 42.453125 221.890625 C 42.527344 222.207031 42.542969 222.507812 42.574219 222.828125 L 42.574219 223.636719 C 42.535156 224.460938 42.335938 225.550781 41.4375 225.882812 C 40.660156 226.191406 39.746094 225.707031 39.515625 224.914062 C 39.34375 224.492188 39.328125 224.066406 39.289062 223.636719 L 39.289062 222.828125 C 39.328125 222 39.5 220.90625 40.390625 220.542969 L 40.429688 220.523438 L 40.460938 220.515625 L 40.5 220.5 L 40.621094 220.46875 L 40.691406 220.453125 L 40.78125 220.453125 L 40.796875 220.445312 Z M 41.066406 220.445312 Z M 40.820312 220.929688 C 40.152344 221.007812 39.953125 221.8125 39.90625 222.351562 L 39.90625 222.566406 L 39.890625 222.582031 L 39.890625 223.683594 C 39.9375 224.253906 39.976562 224.992188 40.5 225.375 C 40.984375 225.707031 41.628906 225.335938 41.761719 224.820312 C 41.90625 224.4375 41.9375 224.066406 41.96875 223.683594 L 41.96875 222.582031 C 41.921875 222 41.84375 221.191406 41.175781 220.960938 L 41.121094 220.945312 L 41.105469 220.929688 L 41.035156 220.929688 L 41.015625 220.914062 L 40.835938 220.914062 Z M 40.820312 220.929688 Z M 40.820312 220.929688 "/>
<path style=" stroke:none;fill-rule:nonzero;fill:rgb(0%,0%,0%);fill-opacity:1;" d="M 44.34375 225.160156 L 44.34375 225.796875 L 43.699219 225.796875 L 43.699219 225.160156 Z M 44.34375 225.160156 Z M 44.34375 225.160156 "/>
<path style=" stroke:none;fill-rule:nonzero;fill:rgb(0%,0%,0%);fill-opacity:1;" d="M 47.476562 220.445312 L 47.476562 225.34375 L 47.484375 225.359375 L 48.460938 225.359375 L 48.460938 225.796875 L 45.882812 225.796875 L 45.882812 225.359375 L 46.859375 225.359375 L 46.875 225.34375 L 46.875 221.230469 C 46.542969 221.34375 46.191406 221.414062 45.84375 221.40625 L 45.84375 220.960938 C 46.367188 220.96875 46.9375 220.828125 47.335938 220.445312 Z M 47.476562 220.445312 Z M 47.476562 220.445312 "/>
<path style=" stroke:none;fill-rule:nonzero;fill:rgb(0%,0%,0%);fill-opacity:1;" d="M 67 220.445312 C 67.753906 220.5 68.253906 221.191406 68.386719 221.890625 C 68.457031 222.207031 68.472656 222.507812 68.507812 222.828125 L 68.507812 223.636719 C 68.464844 224.460938 68.269531 225.550781 67.371094 225.882812 C 66.59375 226.191406 65.679688 225.707031 65.449219 224.914062 C 65.277344 224.492188 65.261719 224.066406 65.21875 223.636719 L 65.21875 222.828125 C 65.261719 222 65.433594 220.90625 66.324219 220.542969 L 66.363281 220.523438 L 66.394531 220.515625 L 66.433594 220.5 L 66.554688 220.46875 L 66.625 220.453125 L 66.710938 220.453125 L 66.726562 220.445312 Z M 67 220.445312 Z M 66.753906 220.929688 C 66.085938 221.007812 65.886719 221.8125 65.839844 222.351562 L 65.839844 222.566406 L 65.824219 222.582031 L 65.824219 223.683594 C 65.871094 224.253906 65.910156 224.992188 66.433594 225.375 C 66.917969 225.707031 67.5625 225.335938 67.695312 224.820312 C 67.839844 224.4375 67.871094 224.066406 67.902344 223.683594 L 67.902344 222.582031 C 67.855469 222 67.777344 221.191406 67.109375 220.960938 L 67.054688 220.945312 L 67.039062 220.929688 L 66.964844 220.929688 L 66.949219 220.914062 L 66.769531 220.914062 Z M 66.753906 220.929688 Z M 66.753906 220.929688 "/>
<path style=" stroke:none;fill-rule:nonzero;fill:rgb(0%,0%,0%);fill-opacity:1;" d="M 70.277344 225.160156 L 70.277344 225.796875 L 69.632812 225.796875 L 69.632812 225.160156 Z M 70.277344 225.160156 Z M 70.277344 225.160156 "/>
<path style=" stroke:none;fill-rule:nonzero;fill:rgb(0%,0%,0%);fill-opacity:1;" d="M 73.078125 220.445312 C 74 220.46875 74.730469 221.414062 74.585938 222.304688 C 74.492188 223.191406 73.65625 223.699219 73.0625 224.253906 L 72.808594 224.515625 L 72.777344 224.535156 L 72.457031 224.84375 L 72.433594 224.859375 L 72.117188 225.175781 L 72.085938 225.191406 L 72.015625 225.261719 L 72.03125 225.273438 L 74.601562 225.273438 L 74.601562 225.796875 L 71.457031 225.796875 L 71.457031 225.320312 L 72.738281 224.042969 C 73.347656 223.507812 74.0625 222.820312 73.949219 221.945312 C 73.886719 221.4375 73.460938 220.96875 72.933594 220.929688 C 72.402344 220.851562 71.933594 221.269531 71.816406 221.777344 L 71.800781 221.804688 L 71.785156 221.859375 L 71.761719 221.945312 L 71.710938 222.121094 L 71.703125 222.160156 C 71.59375 222.023438 71.476562 221.882812 71.386719 221.730469 C 71.546875 221.082031 72.070312 220.46875 72.761719 220.445312 Z M 73.078125 220.445312 Z M 73.078125 220.445312 "/>
<path style=" stroke:none;fill-rule:nonzero;fill:rgb(0%,0%,0%);fill-opacity:1;" d="M 92.929688 220.445312 C 93.683594 220.5 94.183594 221.191406 94.320312 221.890625 C 94.390625 222.207031 94.40625 222.507812 94.441406 222.828125 L 94.441406 223.636719 C 94.398438 224.460938 94.203125 225.550781 93.304688 225.882812 C 92.527344 226.191406 91.613281 225.707031 91.382812 224.914062 C 91.210938 224.492188 91.191406 224.066406 91.152344 223.636719 L 91.152344 222.828125 C 91.191406 222 91.367188 220.90625 92.257812 220.542969 L 92.296875 220.523438 L 92.328125 220.515625 L 92.367188 220.5 L 92.488281 220.46875 L 92.558594 220.453125 L 92.644531 220.453125 L 92.660156 220.445312 Z M 92.929688 220.445312 Z M 92.683594 220.929688 C 92.019531 221.007812 91.820312 221.8125 91.773438 222.351562 L 91.773438 222.566406 L 91.757812 222.582031 L 91.757812 223.683594 C 91.804688 224.253906 91.84375 224.992188 92.367188 225.375 C 92.851562 225.707031 93.496094 225.335938 93.628906 224.820312 C 93.773438 224.4375 93.804688 224.066406 93.835938 223.683594 L 93.835938 222.582031 C 93.789062 222 93.710938 221.191406 93.042969 220.960938 L 92.988281 220.945312 L 92.972656 220.929688 L 92.898438 220.929688 L 92.882812 220.914062 L 92.703125 220.914062 Z M 92.683594 220.929688 Z M 92.683594 220.929688 "/>
<path style=" stroke:none;fill-rule:nonzero;fill:rgb(0%,0%,0%);fill-opacity:1;" d="M 96.210938 225.160156 L 96.210938 225.796875 L 95.566406 225.796875 L 95.566406 225.160156 Z M 96.210938 225.160156 Z M 96.210938 225.160156 "/>
<path style=" stroke:none;fill-rule:nonzero;fill:rgb(0%,0%,0%);fill-opacity:1;" d="M 99.113281 220.445312 C 99.8125 220.476562 100.542969 221.121094 100.375 221.859375 C 100.296875 222.359375 99.949219 222.769531 99.511719 222.992188 C 100.21875 223.214844 100.765625 223.960938 100.574219 224.699219 C 100.382812 225.660156 99.28125 226.191406 98.390625 225.898438 C 97.964844 225.773438 97.527344 225.5 97.320312 225.105469 C 97.367188 224.984375 97.351562 224.78125 97.40625 224.699219 C 97.828125 225.320312 98.71875 225.738281 99.414062 225.390625 C 100.179688 224.90625 100.058594 223.492188 99.136719 223.253906 L 99.066406 223.253906 L 99.050781 223.238281 L 98.3125 223.238281 L 98.3125 222.761719 C 98.765625 222.753906 99.328125 222.699219 99.582031 222.230469 C 99.851562 221.828125 99.828125 221.160156 99.3125 220.960938 C 98.703125 220.722656 97.949219 221.113281 97.71875 221.730469 C 97.621094 221.597656 97.527344 221.460938 97.433594 221.320312 C 97.757812 220.730469 98.449219 220.382812 99.113281 220.445312 Z M 99.113281 220.445312 Z M 99.113281 220.445312 "/>
<path style=" stroke:none;fill-rule:nonzero;fill:rgb(0%,0%,0%);fill-opacity:1;" d="M 118.863281 220.445312 C 119.617188 220.5 120.117188 221.191406 120.253906 221.890625 C 120.324219 222.207031 120.339844 222.507812 120.371094 222.828125 L 120.371094 223.636719 C 120.332031 224.460938 120.132812 225.550781 119.238281 225.882812 C 118.460938 226.191406 117.546875 225.707031 117.316406 224.914062 C 117.140625 224.492188 117.125 224.066406 117.085938 223.636719 L 117.085938 222.828125 C 117.125 222 117.300781 220.90625 118.191406 220.542969 L 118.230469 220.523438 L 118.261719 220.515625 L 118.300781 220.5 L 118.421875 220.46875 L 118.492188 220.453125 L 118.578125 220.453125 L 118.59375 220.445312 Z M 118.863281 220.445312 Z M 118.617188 220.929688 C 117.953125 221.007812 117.753906 221.8125 117.707031 222.351562 L 117.707031 222.566406 L 117.691406 222.582031 L 117.691406 223.683594 C 117.738281 224.253906 117.777344 224.992188 118.300781 225.375 C 118.785156 225.707031 119.429688 225.335938 119.5625 224.820312 C 119.707031 224.4375 119.738281 224.066406 119.769531 223.683594 L 119.769531 222.582031 C 119.722656 222 119.640625 221.191406 118.976562 220.960938 L 118.921875 220.945312 L 118.90625 220.929688 L 118.832031 220.929688 L 118.816406 220.914062 L 118.632812 220.914062 Z M 118.617188 220.929688 Z M 118.617188 220.929688 "/>
<path style=" stroke:none;fill-rule:nonzero;fill:rgb(0%,0%,0%);fill-opacity:1;" d="M 122.144531 225.160156 L 122.144531 225.796875 L 121.5 225.796875 L 121.5 225.160156 Z M 122.144531 225.160156 Z M 122.144531 225.160156 "/>
<path style=" stroke:none;fill-rule:nonzero;fill:rgb(0%,0%,0%);fill-opacity:1;" d="M 125.847656 220.613281 L 125.847656 223.953125 L 125.863281 223.96875 L 126.652344 223.96875 L 126.652344 224.445312 L 125.863281 224.445312 L 125.847656 224.453125 L 125.847656 225.796875 L 125.246094 225.796875 L 125.246094 224.453125 L 125.230469 224.445312 L 123.136719 224.445312 L 123.136719 223.953125 C 123.800781 222.84375 124.46875 221.722656 125.136719 220.613281 Z M 125.847656 220.613281 Z M 125.261719 220.914062 C 125.101562 221.738281 124.59375 222.445312 124.214844 223.167969 C 124.0625 223.429688 123.863281 223.714844 123.753906 223.96875 L 125.277344 223.96875 L 125.285156 223.953125 L 125.285156 220.914062 L 125.277344 220.898438 Z M 125.261719 220.914062 Z M 125.261719 220.914062 "/>
<path style=" stroke:none;fill-rule:nonzero;fill:rgb(0%,0%,0%);fill-opacity:1;" d="M 144.796875 220.445312 C 145.550781 220.5 146.050781 221.191406 146.1875 221.890625 C 146.257812 222.207031 146.273438 222.507812 146.304688 222.828125 L 146.304688 223.636719 C 146.265625 224.460938 146.066406 225.550781 145.171875 225.882812 C 144.394531 226.191406 143.480469 225.707031 143.25 224.914062 C 143.074219 224.492188 143.058594 224.066406 143.019531 223.636719 L 143.019531 222.828125 C 143.058594 222 143.234375 220.90625 144.125 220.542969 L 144.164062 220.523438 L 144.195312 220.515625 L 144.234375 220.5 L 144.351562 220.46875 L 144.425781 220.453125 L 144.511719 220.453125 L 144.527344 220.445312 Z M 144.796875 220.445312 Z M 144.550781 220.929688 C 143.886719 221.007812 143.6875 221.8125 143.640625 222.351562 L 143.640625 222.566406 L 143.625 222.582031 L 143.625 223.683594 C 143.671875 224.253906 143.710938 224.992188 144.234375 225.375 C 144.71875 225.707031 145.363281 225.335938 145.496094 224.820312 C 145.640625 224.4375 145.671875 224.066406 145.703125 223.683594 L 145.703125 222.582031 C 145.65625 222 145.574219 221.191406 144.910156 220.960938 L 144.851562 220.945312 L 144.835938 220.929688 L 144.765625 220.929688 L 144.75 220.914062 L 144.566406 220.914062 Z M 144.550781 220.929688 Z M 144.550781 220.929688 "/>
<path style=" stroke:none;fill-rule:nonzero;fill:rgb(0%,0%,0%);fill-opacity:1;" d="M 148.074219 225.160156 L 148.074219 225.796875 L 147.433594 225.796875 L 147.433594 225.160156 Z M 148.074219 225.160156 Z M 148.074219 225.160156 "/>
<path style=" stroke:none;fill-rule:nonzero;fill:rgb(0%,0%,0%);fill-opacity:1;" d="M 152.140625 220.613281 L 152.140625 221.105469 L 150.074219 221.105469 L 150.058594 221.113281 L 150.058594 222.738281 C 150.25 222.613281 150.519531 222.445312 150.773438 222.4375 C 151.671875 222.34375 152.363281 223.222656 152.402344 224.042969 C 152.527344 225.082031 151.550781 226.113281 150.503906 225.953125 C 149.980469 225.9375 149.472656 225.628906 149.171875 225.199219 C 149.257812 225.082031 149.328125 224.875 149.433594 224.804688 C 149.804688 225.535156 151.011719 225.828125 151.496094 225.058594 C 151.804688 224.476562 151.796875 223.738281 151.441406 223.183594 C 151.027344 222.652344 150.210938 222.976562 150.019531 223.542969 L 149.503906 223.542969 L 149.503906 220.613281 Z M 152.140625 220.613281 Z M 152.140625 220.613281 "/>
<path style=" stroke:none;fill-rule:nonzero;fill:rgb(0%,0%,0%);fill-opacity:1;" d="M 170.730469 220.445312 C 171.484375 220.5 171.984375 221.191406 172.121094 221.890625 C 172.191406 222.207031 172.207031 222.507812 172.238281 222.828125 L 172.238281 223.636719 C 172.199219 224.460938 172 225.550781 171.105469 225.882812 C 170.328125 226.191406 169.414062 225.707031 169.183594 224.914062 C 169.007812 224.492188 168.992188 224.066406 168.953125 223.636719 L 168.953125 222.828125 C 168.992188 222 169.167969 220.90625 170.054688 220.542969 L 170.097656 220.523438 L 170.128906 220.515625 L 170.167969 220.5 L 170.285156 220.46875 L 170.359375 220.453125 L 170.445312 220.453125 L 170.460938 220.445312 Z M 170.730469 220.445312 Z M 170.484375 220.929688 C 169.816406 221.007812 169.621094 221.8125 169.574219 222.351562 L 169.574219 222.566406 L 169.554688 222.582031 L 169.554688 223.683594 C 169.605469 224.253906 169.644531 224.992188 170.167969 225.375 C 170.652344 225.707031 171.292969 225.335938 171.429688 224.820312 C 171.574219 224.4375 171.605469 224.066406 171.636719 223.683594 L 171.636719 222.582031 C 171.589844 222 171.507812 221.191406 170.84375 220.960938 L 170.785156 220.945312 L 170.769531 220.929688 L 170.699219 220.929688 L 170.683594 220.914062 L 170.5 220.914062 Z M 170.484375 220.929688 Z M 170.484375 220.929688 "/>
<path style=" stroke:none;fill-rule:nonzero;fill:rgb(0%,0%,0%);fill-opacity:1;" d="M 174.007812 225.160156 L 174.007812 225.796875 L 173.367188 225.796875 L 173.367188 225.160156 Z M 174.007812 225.160156 Z M 174.007812 225.160156 "/>
<path style=" stroke:none;fill-rule:nonzero;fill:rgb(0%,0%,0%);fill-opacity:1;" d="M 177.414062 220.445312 C 177.621094 220.476562 177.859375 220.5 178.058594 220.597656 L 178.058594 221.058594 C 177.507812 220.820312 176.796875 220.785156 176.367188 221.269531 C 175.984375 221.675781 175.8125 222.277344 175.792969 222.8125 C 176.253906 222.199219 177.296875 221.859375 177.859375 222.492188 C 178.421875 223.144531 178.515625 224.082031 178.261719 224.875 C 177.984375 225.507812 177.34375 226.089844 176.628906 225.953125 C 175.660156 225.875 175.222656 224.796875 175.175781 223.96875 C 174.992188 222.804688 175.269531 221.335938 176.382812 220.667969 L 176.398438 220.660156 L 176.566406 220.574219 L 176.613281 220.558594 L 176.636719 220.542969 L 176.769531 220.5 L 176.882812 220.46875 L 176.953125 220.453125 L 177.042969 220.453125 L 177.058594 220.445312 Z M 177.414062 220.445312 Z M 176.636719 222.652344 C 175.945312 222.769531 175.722656 223.605469 175.8125 224.167969 C 175.851562 224.699219 176.058594 225.40625 176.667969 225.515625 C 177.320312 225.605469 177.738281 224.90625 177.753906 224.34375 C 177.785156 223.769531 177.753906 223.121094 177.253906 222.746094 L 177.144531 222.691406 L 177.058594 222.667969 L 176.984375 222.652344 L 176.96875 222.636719 L 176.652344 222.636719 Z M 176.636719 222.652344 Z M 176.636719 222.652344 "/>
<path style=" stroke:none;fill-rule:nonzero;fill:rgb(0%,0%,0%);fill-opacity:1;" d="M 196.664062 220.445312 C 197.417969 220.5 197.917969 221.191406 198.054688 221.890625 C 198.125 222.207031 198.140625 222.507812 198.171875 222.828125 L 198.171875 223.636719 C 198.132812 224.460938 197.933594 225.550781 197.039062 225.882812 C 196.257812 226.191406 195.347656 225.707031 195.117188 224.914062 C 194.941406 224.492188 194.925781 224.066406 194.886719 223.636719 L 194.886719 222.828125 C 194.925781 222 195.101562 220.90625 195.988281 220.542969 L 196.03125 220.523438 L 196.0625 220.515625 L 196.101562 220.5 L 196.21875 220.46875 L 196.292969 220.453125 L 196.378906 220.453125 L 196.394531 220.445312 Z M 196.664062 220.445312 Z M 196.417969 220.929688 C 195.75 221.007812 195.554688 221.8125 195.503906 222.351562 L 195.503906 222.566406 L 195.488281 222.582031 L 195.488281 223.683594 C 195.539062 224.253906 195.578125 224.992188 196.101562 225.375 C 196.585938 225.707031 197.226562 225.335938 197.363281 224.820312 C 197.503906 224.4375 197.539062 224.066406 197.570312 223.683594 L 197.570312 222.582031 C 197.523438 222 197.441406 221.191406 196.777344 220.960938 L 196.71875 220.945312 L 196.703125 220.929688 L 196.632812 220.929688 L 196.617188 220.914062 L 196.433594 220.914062 Z M 196.417969 220.929688 Z M 196.417969 220.929688 "/>
<path style=" stroke:none;fill-rule:nonzero;fill:rgb(0%,0%,0%);fill-opacity:1;" d="M 199.941406 225.160156 L 199.941406 225.796875 L 199.300781 225.796875 L 199.300781 225.160156 Z M 199.941406 225.160156 Z M 199.941406 225.160156 "/>
<path style=" stroke:none;fill-rule:nonzero;fill:rgb(0%,0%,0%);fill-opacity:1;" d="M 204.339844 220.613281 L 204.339844 221.113281 C 203.210938 222.429688 202.578125 224.207031 202.585938 225.882812 L 201.941406 225.882812 C 201.925781 224.191406 202.617188 222.40625 203.824219 221.160156 L 203.808594 221.144531 L 201.054688 221.144531 L 201.054688 220.613281 L 204.339844 220.613281 L 204.339844 221.113281 Z M 204.339844 220.613281 Z M 204.339844 220.613281 "/>
<path style=" stroke:none;fill-rule:nonzero;fill:rgb(0%,0%,0%);fill-opacity:1;" d="M 222.597656 220.445312 C 223.351562 220.5 223.851562 221.191406 223.988281 221.890625 C 224.058594 222.207031 224.074219 222.507812 224.105469 222.828125 L 224.105469 223.636719 C 224.066406 224.460938 223.867188 225.550781 222.96875 225.882812 C 222.191406 226.191406 221.28125 225.707031 221.050781 224.914062 C 220.875 224.492188 220.859375 224.066406 220.820312 223.636719 L 220.820312 222.828125 C 220.859375 222 221.035156 220.90625 221.921875 220.542969 L 221.960938 220.523438 L 221.996094 220.515625 L 222.035156 220.5 L 222.152344 220.46875 L 222.222656 220.453125 L 222.3125 220.453125 L 222.328125 220.445312 Z M 222.597656 220.445312 Z M 222.351562 220.929688 C 221.683594 221.007812 221.488281 221.8125 221.4375 222.351562 L 221.4375 222.566406 L 221.421875 222.582031 L 221.421875 223.683594 C 221.46875 224.253906 221.511719 224.992188 222.035156 225.375 C 222.519531 225.707031 223.160156 225.335938 223.296875 224.820312 C 223.4375 224.4375 223.46875 224.066406 223.503906 223.683594 L 223.503906 222.582031 C 223.453125 222 223.375 221.191406 222.707031 220.960938 L 222.652344 220.945312 L 222.636719 220.929688 L 222.566406 220.929688 L 222.550781 220.914062 L 222.367188 220.914062 Z M 222.351562 220.929688 Z M 222.351562 220.929688 "/>
<path style=" stroke:none;fill-rule:nonzero;fill:rgb(0%,0%,0%);fill-opacity:1;" d="M 225.875 225.160156 L 225.875 225.796875 L 225.234375 225.796875 L 225.234375 225.160156 Z M 225.875 225.160156 Z M 225.875 225.160156 "/>
<path style=" stroke:none;fill-rule:nonzero;fill:rgb(0%,0%,0%);fill-opacity:1;" d="M 228.78125 220.445312 C 229.621094 220.476562 230.414062 221.382812 230.082031 222.222656 C 229.9375 222.613281 229.542969 222.851562 229.21875 223.015625 C 230.027344 223.253906 230.519531 224.199219 230.152344 224.976562 C 229.773438 225.984375 228.328125 226.304688 227.535156 225.574219 C 226.8125 225 226.789062 223.761719 227.589844 223.253906 C 227.707031 223.128906 227.929688 223.089844 228.035156 222.992188 C 227.34375 222.796875 226.875 221.992188 227.199219 221.320312 C 227.464844 220.714844 228.136719 220.382812 228.78125 220.445312 Z M 228.78125 220.445312 Z M 228.480469 220.898438 C 227.890625 220.914062 227.480469 221.582031 227.675781 222.105469 C 227.90625 223.007812 229.421875 222.976562 229.597656 222.050781 C 229.757812 221.53125 229.34375 220.914062 228.78125 220.898438 L 228.765625 220.890625 L 228.496094 220.890625 Z M 228.480469 220.898438 Z M 228.496094 223.253906 C 227.804688 223.304688 227.464844 224.128906 227.644531 224.714844 C 227.765625 225.550781 228.953125 225.796875 229.421875 225.128906 C 229.875 224.515625 229.652344 223.421875 228.835938 223.253906 L 228.765625 223.253906 L 228.75 223.238281 L 228.503906 223.238281 Z M 228.496094 223.253906 Z M 228.496094 223.253906 "/>
<path style=" stroke:none;fill-rule:nonzero;fill:rgb(0%,0%,0%);fill-opacity:1;" d="M 248.53125 220.445312 C 249.285156 220.5 249.785156 221.191406 249.917969 221.890625 C 249.992188 222.207031 250.007812 222.507812 250.039062 222.828125 L 250.039062 223.636719 C 250 224.460938 249.800781 225.550781 248.902344 225.882812 C 248.125 226.191406 247.214844 225.707031 246.984375 224.914062 C 246.808594 224.492188 246.792969 224.066406 246.753906 223.636719 L 246.753906 222.828125 C 246.792969 222 246.96875 220.90625 247.855469 220.542969 L 247.894531 220.523438 L 247.925781 220.515625 L 247.96875 220.5 L 248.085938 220.46875 L 248.15625 220.453125 L 248.246094 220.453125 L 248.261719 220.445312 Z M 248.53125 220.445312 Z M 248.285156 220.929688 C 247.617188 221.007812 247.417969 221.8125 247.371094 222.351562 L 247.371094 222.566406 L 247.355469 222.582031 L 247.355469 223.683594 C 247.402344 224.253906 247.441406 224.992188 247.96875 225.375 C 248.453125 225.707031 249.09375 225.335938 249.230469 224.820312 C 249.371094 224.4375 249.402344 224.066406 249.433594 223.683594 L 249.433594 222.582031 C 249.386719 222 249.308594 221.191406 248.640625 220.960938 L 248.585938 220.945312 L 248.570312 220.929688 L 248.5 220.929688 L 248.484375 220.914062 L 248.300781 220.914062 Z M 248.285156 220.929688 Z M 248.285156 220.929688 "/>
<path style=" stroke:none;fill-rule:nonzero;fill:rgb(0%,0%,0%);fill-opacity:1;" d="M 251.808594 225.160156 L 251.808594 225.796875 L 251.164062 225.796875 L 251.164062 225.160156 Z M 251.808594 225.160156 Z M 251.808594 225.160156 "/>
<path style=" stroke:none;fill-rule:nonzero;fill:rgb(0%,0%,0%);fill-opacity:1;" d="M 254.730469 220.445312 C 255.683594 220.550781 256.09375 221.628906 256.15625 222.453125 C 256.269531 223.523438 256.140625 224.78125 255.269531 225.550781 C 254.722656 226.097656 253.753906 226.113281 253.164062 225.621094 C 253.238281 225.484375 253.316406 225.328125 253.402344 225.214844 C 253.921875 225.714844 254.824219 225.574219 255.15625 224.929688 C 255.394531 224.542969 255.539062 224.042969 255.53125 223.613281 C 255.0625 224.214844 254.03125 224.566406 253.46875 223.929688 C 252.894531 223.269531 252.792969 222.3125 253.078125 221.515625 C 253.371094 220.890625 254 220.351562 254.730469 220.445312 Z M 254.730469 220.445312 Z M 254.46875 220.898438 C 253.894531 220.945312 253.601562 221.582031 253.5625 222.082031 C 253.539062 222.644531 253.5625 223.304688 254.0625 223.667969 C 254.617188 224.007812 255.332031 223.597656 255.460938 222.992188 C 255.609375 222.40625 255.515625 221.777344 255.214844 221.230469 C 255.046875 221 254.746094 220.835938 254.46875 220.898438 Z M 254.46875 220.898438 Z M 254.46875 220.898438 "/>
<path style=" stroke:none;fill-rule:nonzero;fill:rgb(0%,0%,0%);fill-opacity:1;" d="M 274.710938 220.445312 L 274.710938 225.34375 L 274.71875 225.359375 L 275.695312 225.359375 L 275.695312 225.796875 L 273.113281 225.796875 L 273.113281 225.359375 L 274.089844 225.359375 L 274.105469 225.34375 L 274.105469 221.230469 C 273.773438 221.34375 273.425781 221.414062 273.074219 221.40625 L 273.074219 220.960938 C 273.597656 220.96875 274.171875 220.828125 274.566406 220.445312 Z M 274.710938 220.445312 Z M 274.710938 220.445312 "/>
<path style=" stroke:none;fill-rule:nonzero;fill:rgb(0%,0%,0%);fill-opacity:1;" d="M 277.742188 225.160156 L 277.742188 225.796875 L 277.097656 225.796875 L 277.097656 225.160156 Z M 277.742188 225.160156 Z M 277.742188 225.160156 "/>
<path style=" stroke:none;fill-rule:nonzero;fill:rgb(0%,0%,0%);fill-opacity:1;" d="M 280.632812 220.445312 C 281.386719 220.5 281.886719 221.191406 282.019531 221.890625 C 282.089844 222.207031 282.105469 222.507812 282.140625 222.828125 L 282.140625 223.636719 C 282.097656 224.460938 281.902344 225.550781 281.003906 225.882812 C 280.226562 226.191406 279.3125 225.707031 279.082031 224.914062 C 278.910156 224.492188 278.894531 224.066406 278.851562 223.636719 L 278.851562 222.828125 C 278.894531 222 279.066406 220.90625 279.957031 220.542969 L 279.996094 220.523438 L 280.027344 220.515625 L 280.066406 220.5 L 280.1875 220.46875 L 280.257812 220.453125 L 280.34375 220.453125 L 280.359375 220.445312 Z M 280.632812 220.445312 Z M 280.386719 220.929688 C 279.71875 221.007812 279.519531 221.8125 279.472656 222.351562 L 279.472656 222.566406 L 279.457031 222.582031 L 279.457031 223.683594 C 279.503906 224.253906 279.542969 224.992188 280.066406 225.375 C 280.550781 225.707031 281.195312 225.335938 281.328125 224.820312 C 281.472656 224.4375 281.503906 224.066406 281.535156 223.683594 L 281.535156 222.582031 C 281.488281 222 281.410156 221.191406 280.742188 220.960938 L 280.6875 220.945312 L 280.671875 220.929688 L 280.597656 220.929688 L 280.582031 220.914062 L 280.402344 220.914062 Z M 280.386719 220.929688 Z M 280.386719 220.929688 "/>
<path style="fill:none;stroke-width:0.02;stroke-linecap:butt;stroke-linejoin:miter;stroke:rgb(0%,0%,0%);stroke-opacity:1;stroke-miterlimit:10;" d="M 1.517358 7.838356 L 1.517358 7.73335 " transform="matrix(28.346457,0,0,-28.346457,1,227.771654)"/>
<path style="fill:none;stroke-width:0.02;stroke-linecap:butt;stroke-linejoin:miter;stroke:rgb(0%,0%,0%);stroke-opacity:1;stroke-miterlimit:10;" d="M 2.432237 7.838356 L 2.432237 7.73335 " transform="matrix(28.346457,0,0,-28.346457,1,227.771654)"/>
<path style="fill:none;stroke-width:0.02;stroke-linecap:butt;stroke-linejoin:miter;stroke:rgb(0%,0%,0%);stroke-opacity:1;stroke-miterlimit:10;" d="M 3.347117 7.838356 L 3.347117 7.73335 " transform="matrix(28.346457,0,0,-28.346457,1,227.771654)"/>
<path style="fill:none;stroke-width:0.02;stroke-linecap:butt;stroke-linejoin:miter;stroke:rgb(0%,0%,0%);stroke-opacity:1;stroke-miterlimit:10;" d="M 4.261997 7.838356 L 4.261997 7.73335 " transform="matrix(28.346457,0,0,-28.346457,1,227.771654)"/>
<path style="fill:none;stroke-width:0.02;stroke-linecap:butt;stroke-linejoin:miter;stroke:rgb(0%,0%,0%);stroke-opacity:1;stroke-miterlimit:10;" d="M 5.176876 7.838356 L 5.176876 7.73335 " transform="matrix(28.346457,0,0,-28.346457,1,227.771654)"/>
<path style="fill:none;stroke-width:0.02;stroke-linecap:butt;stroke-linejoin:miter;stroke:rgb(0%,0%,0%);stroke-opacity:1;stroke-miterlimit:10;" d="M 6.091756 7.838356 L 6.091756 7.73335 " transform="matrix(28.346457,0,0,-28.346457,1,227.771654)"/>
<path style="fill:none;stroke-width:0.02;stroke-linecap:butt;stroke-linejoin:miter;stroke:rgb(0%,0%,0%);stroke-opacity:1;stroke-miterlimit:10;" d="M 7.006635 7.838356 L 7.006635 7.73335 " transform="matrix(28.346457,0,0,-28.346457,1,227.771654)"/>
<path style="fill:none;stroke-width:0.02;stroke-linecap:butt;stroke-linejoin:miter;stroke:rgb(0%,0%,0%);stroke-opacity:1;stroke-miterlimit:10;" d="M 7.921515 7.838356 L 7.921515 7.73335 " transform="matrix(28.346457,0,0,-28.346457,1,227.771654)"/>
<path style="fill:none;stroke-width:0.02;stroke-linecap:butt;stroke-linejoin:miter;stroke:rgb(0%,0%,0%);stroke-opacity:1;stroke-miterlimit:10;" d="M 8.836394 7.838356 L 8.836394 7.73335 " transform="matrix(28.346457,0,0,-28.346457,1,227.771654)"/>
<path style="fill:none;stroke-width:0.02;stroke-linecap:round;stroke-linejoin:miter;stroke:rgb(0%,0%,0%);stroke-opacity:1;stroke-miterlimit:10;" d="M 0.602616 7.838356 L 9.751274 7.838356 " transform="matrix(28.346457,0,0,-28.346457,1,227.771654)"/>
<path style="fill:none;stroke-width:0.05;stroke-linecap:butt;stroke-linejoin:miter;stroke:rgb(39.215686%,58.431373%,92.941176%);stroke-opacity:1;stroke-miterlimit:10;" d="M 0.602616 0.428369 L 0.694945 0.428369 L 0.787411 0.428507 L 0.87974 0.428645 L 0.972206 0.42892 L 1.064672 0.429334 L 1.157001 0.430023 L 1.249467 0.430987 L 1.341796 0.432365 L 1.434262 0.434019 L 1.526729 0.436086 L 1.619057 0.438567 L 1.711523 0.441598 L 1.803852 0.445181 L 1.896318 0.449315 L 1.988785 0.454138 L 2.081113 0.459651 L 2.17358 0.465852 L 2.265908 0.47288 L 2.358375 0.480735 L 2.450841 0.489554 L 2.543169 0.499063 L 2.635636 0.509673 L 2.727964 0.521249 L 2.820431 0.533927 L 2.912759 0.547707 L 3.005226 0.56259 L 3.097692 0.578713 L 3.190021 0.596076 L 3.282487 0.61468 L 3.374816 0.634524 L 3.467282 0.655883 L 3.559748 0.678621 L 3.652077 0.702874 L 3.744543 0.728506 L 3.836872 0.755791 L 3.929338 0.78473 L 4.021804 0.815184 L 4.114133 0.847431 L 4.206599 0.881468 L 4.298928 0.917159 L 4.391394 0.95478 L 4.483861 0.994192 L 4.576189 1.035533 L 4.668656 1.078941 L 4.760984 1.124278 L 4.853451 1.171683 L 4.945917 1.221292 L 5.038245 1.272969 L 5.130712 1.32685 L 5.22304 1.382936 L 5.315507 1.441365 L 5.407973 1.502137 L 5.500302 1.565388 L 5.592768 1.630845 L 5.685097 1.69892 L 5.777563 1.769476 L 5.870029 1.84265 L 5.962358 1.918442 L 6.054824 1.996852 L 6.147153 2.077881 L 6.239619 2.161803 L 6.332086 2.248482 L 6.424414 2.337917 L 6.51688 2.430383 L 6.609209 2.525605 L 6.701675 2.62386 L 6.794142 2.725283 L 6.88647 2.829601 L 6.978937 2.937088 L 7.071265 3.047744 L 7.163732 3.161708 L 7.256198 3.278841 L 7.348526 3.399282 L 7.440993 3.52303 L 7.533321 3.650085 L 7.625788 3.780723 L 7.718116 3.914806 L 7.810583 4.052472 L 7.903049 4.193583 L 7.995378 4.338415 L 8.087844 4.486829 L 8.180173 4.639103 L 8.272639 4.794959 L 8.365105 4.954673 L 8.457434 5.118247 L 8.5499 5.285816 L 8.642229 5.457244 L 8.734695 5.632668 L 8.827161 5.812089 L 8.91949 5.995506 L 9.011956 6.183194 L 9.104285 6.375017 L 9.196751 6.571112 L 9.289218 6.771341 L 9.381546 6.97598 L 9.474013 7.18489 L 9.566341 7.398211 L 9.658808 7.616079 L 9.751274 7.838356 " transform="matrix(28.346457,0,0,-28.346457,1,227.771654)"/>
<path style="fill:none;stroke-width:0.05;stroke-linecap:butt;stroke-linejoin:miter;stroke:rgb(18.039216%,54.509804%,34.117647%);stroke-opacity:1;stroke-miterlimit:10;" d="M 0.602616 0.428369 L 0.694945 2.030201 L 0.787411 2.446506 L 0.87974 2.738512 L 0.972206 2.970987 L 1.064672 3.167358 L 1.157001 3.339061 L 1.249467 3.492437 L 1.341796 3.631895 L 1.434262 3.76019 L 1.526729 3.879252 L 1.619057 3.990736 L 1.711523 4.095604 L 1.803852 4.194685 L 1.896318 4.288943 L 1.988785 4.378653 L 2.081113 4.464643 L 2.17358 4.54705 L 2.265908 4.626287 L 2.358375 4.70263 L 2.450841 4.776217 L 2.543169 4.8476 L 2.635636 4.91664 L 2.727964 4.983612 L 2.820431 5.048656 L 2.912759 5.112045 L 3.005226 5.173644 L 3.097692 5.233726 L 3.190021 5.292293 L 3.282487 5.349481 L 3.374816 5.40543 L 3.467282 5.460138 L 3.559748 5.513743 L 3.652077 5.566109 L 3.744543 5.61751 L 3.836872 5.667946 L 3.929338 5.71728 L 4.021804 5.765924 L 4.114133 5.813467 L 4.206599 5.86032 L 4.298928 5.906347 L 4.391394 5.951684 L 4.483861 5.996195 L 4.576189 6.040016 L 4.668656 6.083149 L 4.760984 6.12573 L 4.853451 6.167623 L 4.945917 6.208964 L 5.038245 6.249616 L 5.130712 6.289717 L 5.22304 6.329404 L 5.315507 6.368403 L 5.407973 6.406988 L 5.500302 6.44516 L 5.592768 6.48278 L 5.685097 6.519849 L 5.777563 6.556505 L 5.870029 6.592885 L 5.962358 6.628714 L 6.054824 6.66413 L 6.147153 6.699132 L 6.239619 6.733721 L 6.332086 6.768034 L 6.424414 6.801934 L 6.51688 6.83542 L 6.609209 6.868631 L 6.701675 6.901566 L 6.794142 6.934087 L 6.88647 6.966334 L 6.978937 6.998166 L 7.071265 7.029723 L 7.163732 7.061005 L 7.256198 7.092011 L 7.348526 7.122741 L 7.440993 7.153196 L 7.533321 7.183375 L 7.625788 7.213278 L 7.718116 7.242906 L 7.810583 7.272258 L 7.903049 7.301335 L 7.995378 7.330273 L 8.087844 7.358799 L 8.180173 7.387324 L 8.272639 7.415436 L 8.365105 7.44341 L 8.457434 7.471109 L 8.5499 7.49867 L 8.642229 7.525955 L 8.734695 7.552964 L 8.827161 7.579836 L 8.91949 7.60657 L 9.011956 7.633028 L 9.104285 7.659349 L 9.196751 7.685532 L 9.289218 7.711439 L 9.381546 7.73707 L 9.474013 7.762702 L 9.566341 7.788058 L 9.658808 7.813276 L 9.751274 7.838356 " transform="matrix(28.346457,0,0,-28.346457,1,227.771654)"/>
<path style="fill:none;stroke-width:0.02;stroke-linecap:butt;stroke-linejoin:miter;stroke:rgb(0%,0%,0%);stroke-opacity:1;stroke-miterlimit:10;" d="M 0.602616 0.428369 L 0.694945 0.503197 L 0.787411 0.578162 L 0.87974 0.652989 L 1.064672 0.802644 L 1.157001 0.877472 L 1.249467 0.952299 L 1.341796 1.027127 L 1.434262 1.102092 L 1.526729 1.176919 L 1.619057 1.251747 L 1.711523 1.326574 L 1.803852 1.401402 L 1.988785 1.551057 L 2.081113 1.626022 L 2.17358 1.70085 L 2.265908 1.775677 L 2.450841 1.925332 L 2.543169 2.00016 L 2.635636 2.074987 L 2.727964 2.149952 L 2.820431 2.22478 L 2.912759 2.299607 L 3.097692 2.449262 L 3.190021 2.52409 L 3.282487 2.598917 L 3.374816 2.673882 L 3.559748 2.823537 L 3.652077 2.898365 L 3.744543 2.973192 L 3.836872 3.04802 L 3.929338 3.122847 L 4.021804 3.197813 L 4.114133 3.27264 L 4.206599 3.347467 L 4.298928 3.422295 L 4.483861 3.57195 L 4.576189 3.646777 L 4.668656 3.721743 L 4.760984 3.79657 L 4.945917 3.946225 L 5.038245 4.021053 L 5.130712 4.09588 L 5.22304 4.170707 L 5.315507 4.245673 L 5.407973 4.3205 L 5.500302 4.395328 L 5.592768 4.470155 L 5.685097 4.544983 L 5.870029 4.694638 L 5.962358 4.769603 L 6.054824 4.84443 L 6.147153 4.919258 L 6.332086 5.068913 L 6.424414 5.14374 L 6.51688 5.218706 L 6.609209 5.293533 L 6.794142 5.443188 L 6.88647 5.518015 L 6.978937 5.592843 L 7.071265 5.66767 L 7.163732 5.742636 L 7.256198 5.817463 L 7.348526 5.892291 L 7.440993 5.967118 L 7.533321 6.041946 L 7.625788 6.116773 L 7.718116 6.1916 L 7.810583 6.266566 L 7.903049 6.341393 L 7.995378 6.416221 L 8.087844 6.491048 L 8.180173 6.565876 L 8.365105 6.715531 L 8.457434 6.790496 L 8.5499 6.865323 L 8.642229 6.940151 L 8.827161 7.089806 L 8.91949 7.164633 L 9.011956 7.239461 L 9.104285 7.314426 L 9.289218 7.464081 L 9.381546 7.538908 L 9.474013 7.613736 L 9.566341 7.688563 L 9.658808 7.763391 L 9.751274 7.838356 " transform="matrix(28.346457,0,0,-28.346457,1,227.771654)"/>
<path style="fill:none;stroke-width:0.02;stroke-linecap:butt;stroke-linejoin:miter;stroke:rgb(100%,64.705882%,0%);stroke-opacity:1;stroke-dasharray:0.2,0.16;stroke-miterlimit:10;" d="M 0.602616 0.428369 L 0.694945 0.77467 L 0.787411 0.978069 L 0.87974 1.14867 L 0.972206 1.300943 L 1.064672 1.440814 L 1.157001 1.571727 L 1.249467 1.695475 L 1.341796 1.813435 L 1.434262 1.926572 L 1.526729 2.035575 L 1.619057 2.140995 L 1.711523 2.243245 L 1.803852 2.34274 L 1.896318 2.439754 L 1.988785 2.534425 L 2.081113 2.626891 L 2.17358 2.717566 L 2.265908 2.806587 L 2.358375 2.893817 L 2.450841 2.979531 L 2.543169 3.063867 L 2.635636 3.146963 L 2.727964 3.228681 L 2.820431 3.309296 L 2.912759 3.388809 L 3.005226 3.467219 L 3.097692 3.544665 L 3.190021 3.621146 L 3.282487 3.696662 L 3.374816 3.771352 L 3.467282 3.845215 L 3.559748 3.918389 L 3.652077 3.990736 L 3.744543 4.062256 L 3.836872 4.133225 L 3.929338 4.203505 L 4.021804 4.273096 L 4.114133 4.341998 L 4.206599 4.410348 L 4.298928 4.478148 L 4.391394 4.545396 L 4.483861 4.612093 L 4.576189 4.678239 L 4.668656 4.743834 L 4.760984 4.809015 L 4.853451 4.873645 L 4.945917 4.937861 L 5.038245 5.001527 L 5.130712 5.064916 L 5.22304 5.127755 L 5.315507 5.19018 L 5.407973 5.252192 L 5.500302 5.313928 L 5.592768 5.375113 L 5.685097 5.436022 L 5.777563 5.496518 L 5.870029 5.556738 L 5.962358 5.616545 L 6.054824 5.675939 L 6.147153 5.735056 L 6.239619 5.793899 L 6.332086 5.852327 L 6.424414 5.910481 L 6.51688 5.968358 L 6.609209 6.02596 L 6.701675 6.083149 L 6.794142 6.1402 L 6.88647 6.196837 L 6.978937 6.253337 L 7.071265 6.309423 L 7.163732 6.365371 L 7.256198 6.420906 L 7.348526 6.476303 L 7.440993 6.531425 L 7.533321 6.586271 L 7.625788 6.640841 L 7.718116 6.695273 L 7.810583 6.74943 L 7.903049 6.803312 L 7.995378 6.857055 L 8.087844 6.910385 L 8.180173 6.963715 L 8.272639 7.01677 L 8.365105 7.069549 L 8.457434 7.12219 L 8.5499 7.174555 L 8.642229 7.226783 L 8.734695 7.278735 L 8.827161 7.330549 L 8.91949 7.382088 L 9.011956 7.433488 L 9.104285 7.484752 L 9.289218 7.586726 L 9.381546 7.6373 L 9.474013 7.687874 L 9.566341 7.738173 L 9.658808 7.788333 L 9.751274 7.838356 " transform="matrix(28.346457,0,0,-28.346457,1,227.771654)"/>
<path style="fill:none;stroke-width:0.02;stroke-linecap:butt;stroke-linejoin:miter;stroke:rgb(100%,0%,0%);stroke-opacity:1;stroke-dasharray:0.2,0.16;stroke-miterlimit:10;" d="M 0.602616 0.428369 L 0.694945 0.435948 L 0.787411 0.449729 L 0.87974 0.467505 L 0.972206 0.488589 L 1.064672 0.512567 L 1.157001 0.539026 L 1.249467 0.567689 L 1.341796 0.598557 L 1.434262 0.631492 L 1.526729 0.666219 L 1.619057 0.702874 L 1.711523 0.741046 L 1.803852 0.781009 L 1.896318 0.822488 L 1.988785 0.865483 L 2.081113 0.909856 L 2.17358 0.955607 L 2.265908 1.002873 L 2.358375 1.05138 L 2.450841 1.101265 L 2.543169 1.152253 L 2.635636 1.204618 L 2.727964 1.258224 L 2.820431 1.312794 L 2.912759 1.368742 L 3.005226 1.425655 L 3.097692 1.483809 L 3.190021 1.542926 L 3.282487 1.603147 L 3.374816 1.664469 L 3.467282 1.726757 L 3.559748 1.790146 L 3.652077 1.854501 L 3.744543 1.919682 L 3.836872 1.985966 L 3.929338 2.053214 L 4.021804 2.121427 L 4.114133 2.190467 L 4.206599 2.260471 L 4.298928 2.33144 L 4.391394 2.403236 L 4.483861 2.475996 L 4.576189 2.549446 L 4.668656 2.62386 L 4.760984 2.699238 L 4.853451 2.775306 L 4.945917 2.852201 L 5.038245 2.93006 L 5.130712 3.008608 L 5.22304 3.087983 L 5.315507 3.168185 L 5.407973 3.249213 L 5.500302 3.330931 L 5.592768 3.413475 L 5.685097 3.496709 L 5.777563 3.580769 L 5.870029 3.665656 L 5.962358 3.751233 L 6.054824 3.837498 L 6.147153 3.924452 L 6.239619 4.012233 L 6.332086 4.100841 L 6.424414 4.19 L 6.51688 4.279848 L 6.609209 4.370523 L 6.701675 4.461887 L 6.794142 4.553802 L 6.88647 4.646544 L 6.978937 4.739975 L 7.071265 4.833957 L 7.163732 4.928766 L 7.256198 5.024127 L 7.348526 5.120314 L 7.440993 5.217052 L 7.533321 5.314341 L 7.625788 5.412458 L 7.718116 5.511125 L 7.810583 5.610482 L 7.903049 5.71039 L 7.995378 5.810986 L 8.087844 5.912272 L 8.180173 6.014109 L 8.272639 6.116635 L 8.365105 6.219712 L 8.457434 6.323479 L 8.5499 6.427796 L 8.642229 6.532803 L 8.734695 6.638223 L 8.827161 6.744469 L 8.91949 6.85113 L 9.011956 6.958479 L 9.104285 7.066517 L 9.196751 7.174969 L 9.289218 7.284109 L 9.381546 7.393801 L 9.474013 7.504044 L 9.566341 7.614838 L 9.658808 7.726322 L 9.751274 7.838356 " transform="matrix(28.346457,0,0,-28.346457,1,227.771654)"/>
</g>
</svg>
