<?xml version="1.0" encoding="UTF-8"?>
<svg xmlns="http://www.w3.org/2000/svg" xmlns:xlink="http://www.w3.org/1999/xlink" width="285.464567pt" height="228.771654pt" viewBox="0 0 285.464567 228.771654" version="1.1">
<g id="surface1">
<path style="fill-rule:nonzero;fill:rgb(100%,98.039216%,80.392157%);fill-opacity:1;stroke-width:0.02;stroke-linecap:butt;stroke-linejoin:miter;stroke:rgb(0%,0%,50.196078%);stroke-opacity:1;stroke-miterlimit:10;" d="M 0.606888 0.428369 L 0.909643 0.428369 L 0.909643 6.25127 L 0.606888 6.25127 Z M 0.606888 0.428369 " transform="matrix(28.346457,0,0,-28.346457,1,227.771654)"/>
<path style="fill-rule:nonzero;fill:rgb(100%,98.039216%,80.392157%);fill-opacity:1;stroke-width:0.02;stroke-linecap:butt;stroke-linejoin:miter;stroke:rgb(0%,0%,50.196078%);stroke-opacity:1;stroke-miterlimit:10;" d="M 0.909643 0.428369 L 1.21226 0.428369 L 1.21226 4.599966 L 0.909643 4.599966 Z M 0.909643 0.428369 " transform="matrix(28.346457,0,0,-28.346457,1,227.771654)"/>
<path style="fill-rule:nonzero;fill:rgb(100%,98.039216%,80.392157%);fill-opacity:1;stroke-width:0.02;stroke-linecap:butt;stroke-linejoin:miter;stroke:rgb(0%,0%,50.196078%);stroke-opacity:1;stroke-miterlimit:10;" d="M 1.21226 0.428369 L 1.514877 0.428369 L 1.514877 3.817792 L 1.21226 3.817792 Z M 1.21226 0.428369 " transform="matrix(28.346457,0,0,-28.346457,1,227.771654)"/>
<path style="fill-rule:nonzero;fill:rgb(100%,98.039216%,80.392157%);fill-opacity:1;stroke-width:0.02;stroke-linecap:butt;stroke-linejoin:miter;stroke:rgb(0%,0%,50.196078%);stroke-opacity:1;stroke-miterlimit:10;" d="M 1.514877 0.428369 L 1.817632 0.428369 L 1.817632 3.122572 L 1.514877 3.122572 Z M 1.514877 0.428369 " transform="matrix(28.346457,0,0,-28.346457,1,227.771654)"/>
<path style="fill-rule:nonzero;fill:rgb(100%,98.039216%,80.392157%);fill-opacity:1;stroke-width:0.02;stroke-linecap:butt;stroke-linejoin:miter;stroke:rgb(0%,0%,50.196078%);stroke-opacity:1;stroke-miterlimit:10;" d="M 1.817632 0.428369 L 2.12025 0.428369 L 2.12025 2.948801 L 1.817632 2.948801 Z M 1.817632 0.428369 " transform="matrix(28.346457,0,0,-28.346457,1,227.771654)"/>
<path style="fill-rule:nonzero;fill:rgb(100%,98.039216%,80.392157%);fill-opacity:1;stroke-width:0.02;stroke-linecap:butt;stroke-linejoin:miter;stroke:rgb(0%,0%,50.196078%);stroke-opacity:1;stroke-miterlimit:10;" d="M 2.12025 0.428369 L 2.423005 0.428369 L 2.423005 1.905902 L 2.12025 1.905902 Z M 2.12025 0.428369 " transform="matrix(28.346457,0,0,-28.346457,1,227.771654)"/>
<path style="fill-rule:nonzero;fill:rgb(100%,98.039216%,80.392157%);fill-opacity:1;stroke-width:0.02;stroke-linecap:butt;stroke-linejoin:miter;stroke:rgb(0%,0%,50.196078%);stroke-opacity:1;stroke-miterlimit:10;" d="M 2.423005 0.428369 L 2.725622 0.428369 L 2.725622 1.731993 L 2.423005 1.731993 Z M 2.423005 0.428369 " transform="matrix(28.346457,0,0,-28.346457,1,227.771654)"/>
<path style="fill-rule:nonzero;fill:rgb(100%,98.039216%,80.392157%);fill-opacity:1;stroke-width:0.02;stroke-linecap:butt;stroke-linejoin:miter;stroke:rgb(0%,0%,50.196078%);stroke-opacity:1;stroke-miterlimit:10;" d="M 2.725622 0.428369 L 3.028377 0.428369 L 3.028377 1.297498 L 2.725622 1.297498 Z M 2.725622 0.428369 " transform="matrix(28.346457,0,0,-28.346457,1,227.771654)"/>
<path style="fill-rule:nonzero;fill:rgb(100%,98.039216%,80.392157%);fill-opacity:1;stroke-width:0.02;stroke-linecap:butt;stroke-linejoin:miter;stroke:rgb(0%,0%,50.196078%);stroke-opacity:1;stroke-miterlimit:10;" d="M 3.028377 0.428369 L 3.330994 0.428369 L 3.330994 1.210544 L 3.028377 1.210544 Z M 3.028377 0.428369 " transform="matrix(28.346457,0,0,-28.346457,1,227.771654)"/>
<path style="fill-rule:nonzero;fill:rgb(100%,98.039216%,80.392157%);fill-opacity:1;stroke-width:0.02;stroke-linecap:butt;stroke-linejoin:miter;stroke:rgb(0%,0%,50.196078%);stroke-opacity:1;stroke-miterlimit:10;" d="M 3.330994 0.428369 L 3.633611 0.428369 L 3.633611 0.949819 L 3.330994 0.949819 Z M 3.330994 0.428369 " transform="matrix(28.346457,0,0,-28.346457,1,227.771654)"/>
<path style="fill-rule:nonzero;fill:rgb(100%,98.039216%,80.392157%);fill-opacity:1;stroke-width:0.02;stroke-linecap:butt;stroke-linejoin:miter;stroke:rgb(0%,0%,50.196078%);stroke-opacity:1;stroke-miterlimit:10;" d="M 3.633611 0.428369 L 3.936366 0.428369 L 3.936366 1.210544 L 3.633611 1.210544 Z M 3.633611 0.428369 " transform="matrix(28.346457,0,0,-28.346457,1,227.771654)"/>
<path style="fill-rule:nonzero;fill:rgb(100%,98.039216%,80.392157%);fill-opacity:1;stroke-width:0.02;stroke-linecap:butt;stroke-linejoin:miter;stroke:rgb(0%,0%,50.196078%);stroke-opacity:1;stroke-miterlimit:10;" d="M 3.936366 0.428369 L 4.238983 0.428369 L 4.238983 0.689094 L 3.936366 0.689094 Z M 3.936366 0.428369 " transform="matrix(28.346457,0,0,-28.346457,1,227.771654)"/>
<path style="fill-rule:nonzero;fill:rgb(100%,98.039216%,80.392157%);fill-opacity:1;stroke-width:0.02;stroke-linecap:butt;stroke-linejoin:miter;stroke:rgb(0%,0%,50.196078%);stroke-opacity:1;stroke-miterlimit:10;" d="M 4.238983 0.428369 L 4.541738 0.428369 L 4.541738 0.863002 L 4.238983 0.863002 Z M 4.238983 0.428369 " transform="matrix(28.346457,0,0,-28.346457,1,227.771654)"/>
<path style="fill-rule:nonzero;fill:rgb(100%,98.039216%,80.392157%);fill-opacity:1;stroke-width:0.02;stroke-linecap:butt;stroke-linejoin:miter;stroke:rgb(0%,0%,50.196078%);stroke-opacity:1;stroke-miterlimit:10;" d="M 4.541738 0.428369 L 4.844355 0.428369 L 4.844355 0.602278 L 4.541738 0.602278 Z M 4.541738 0.428369 " transform="matrix(28.346457,0,0,-28.346457,1,227.771654)"/>
<path style="fill-rule:nonzero;fill:rgb(100%,98.039216%,80.392157%);fill-opacity:1;stroke-width:0.02;stroke-linecap:butt;stroke-linejoin:miter;stroke:rgb(0%,0%,50.196078%);stroke-opacity:1;stroke-miterlimit:10;" d="M 4.844355 0.428369 L 5.14711 0.428369 L 5.14711 0.515323 L 4.844355 0.515323 Z M 4.844355 0.428369 " transform="matrix(28.346457,0,0,-28.346457,1,227.771654)"/>
<path style="fill-rule:nonzero;fill:rgb(100%,98.039216%,80.392157%);fill-opacity:1;stroke-width:0.02;stroke-linecap:butt;stroke-linejoin:miter;stroke:rgb(0%,0%,50.196078%);stroke-opacity:1;stroke-miterlimit:10;" d="M 5.14711 0.428369 L 5.449728 0.428369 L 5.449728 0.602278 L 5.14711 0.602278 Z M 5.14711 0.428369 " transform="matrix(28.346457,0,0,-28.346457,1,227.771654)"/>
<path style="fill-rule:nonzero;fill:rgb(100%,98.039216%,80.392157%);fill-opacity:1;stroke-width:0.02;stroke-linecap:butt;stroke-linejoin:miter;stroke:rgb(0%,0%,50.196078%);stroke-opacity:1;stroke-miterlimit:10;" d="M 5.449728 0.428369 L 5.752345 0.428369 L 5.752345 0.515323 L 5.449728 0.515323 Z M 5.449728 0.428369 " transform="matrix(28.346457,0,0,-28.346457,1,227.771654)"/>
<path style="fill-rule:nonzero;fill:rgb(100%,98.039216%,80.392157%);fill-opacity:1;stroke-width:0.02;stroke-linecap:butt;stroke-linejoin:miter;stroke:rgb(0%,0%,50.196078%);stroke-opacity:1;stroke-miterlimit:10;" d="M 5.752345 0.428369 L 6.0551 0.428369 L 6.0551 0.689094 L 5.752345 0.689094 Z M 5.752345 0.428369 " transform="matrix(28.346457,0,0,-28.346457,1,227.771654)"/>
<path style="fill-rule:nonzero;fill:rgb(100%,98.039216%,80.392157%);fill-opacity:1;stroke-width:0.02;stroke-linecap:butt;stroke-linejoin:miter;stroke:rgb(0%,0%,50.196078%);stroke-opacity:1;stroke-miterlimit:10;" d="M 7.265844 0.428369 L 7.568461 0.428369 L 7.568461 0.602278 L 7.265844 0.602278 Z M 7.265844 0.428369 " transform="matrix(28.346457,0,0,-28.346457,1,227.771654)"/>
<path style="fill-rule:nonzero;fill:rgb(100%,98.039216%,80.392157%);fill-opacity:1;stroke-width:0.02;stroke-linecap:butt;stroke-linejoin:miter;stroke:rgb(0%,0%,50.196078%);stroke-opacity:1;stroke-miterlimit:10;" d="M 9.384578 0.428369 L 9.687195 0.428369 L 9.687195 0.515323 L 9.384578 0.515323 Z M 9.384578 0.428369 " transform="matrix(28.346457,0,0,-28.346457,1,227.771654)"/>
<path style="fill:none;stroke-width:0.02;stroke-linecap:butt;stroke-linejoin:miter;stroke:rgb(0%,0%,0%);stroke-opacity:1;stroke-miterlimit:10;" d="M 0.602616 1.792351 L 0.707623 1.792351 " transform="matrix(28.346457,0,0,-28.346457,1,227.771654)"/>
<path style="fill:none;stroke-width:0.02;stroke-linecap:butt;stroke-linejoin:miter;stroke:rgb(0%,0%,0%);stroke-opacity:1;stroke-miterlimit:10;" d="M 0.602616 3.156196 L 0.707623 3.156196 " transform="matrix(28.346457,0,0,-28.346457,1,227.771654)"/>
<path style="fill:none;stroke-width:0.02;stroke-linecap:butt;stroke-linejoin:miter;stroke:rgb(0%,0%,0%);stroke-opacity:1;stroke-miterlimit:10;" d="M 0.602616 4.520178 L 0.707623 4.520178 " transform="matrix(28.346457,0,0,-28.346457,1,227.771654)"/>
<path style="fill:none;stroke-width:0.02;stroke-linecap:butt;stroke-linejoin:miter;stroke:rgb(0%,0%,0%);stroke-opacity:1;stroke-miterlimit:10;" d="M 0.602616 5.88416 L 0.707623 5.88416 " transform="matrix(28.346457,0,0,-28.346457,1,227.771654)"/>
<path style="fill:none;stroke-width:0.02;stroke-linecap:butt;stroke-linejoin:miter;stroke:rgb(0%,0%,0%);stroke-opacity:1;stroke-miterlimit:10;" d="M 0.602616 7.248005 L 0.707623 7.248005 " transform="matrix(28.346457,0,0,-28.346457,1,227.771654)"/>
<path style="fill:none;stroke-width:0.02;stroke-linecap:round;stroke-linejoin:miter;stroke:rgb(0%,0%,0%);stroke-opacity:1;stroke-miterlimit:10;" d="M 0.602616 0.428369 L 0.602616 7.929996 " transform="matrix(28.346457,0,0,-28.346457,1,227.771654)"/>
<path style=" stroke:none;fill-rule:nonzero;fill:rgb(0%,0%,0%);fill-opacity:1;" d="M 5.101562 212.886719 C 5.859375 212.941406 6.359375 213.632812 6.492188 214.332031 C 6.5625 214.648438 6.578125 214.949219 6.613281 215.265625 L 6.613281 216.078125 C 6.570312 216.902344 6.375 217.988281 5.476562 218.324219 C 4.699219 218.632812 3.785156 218.148438 3.554688 217.355469 C 3.382812 216.933594 3.363281 216.503906 3.324219 216.078125 L 3.324219 215.265625 C 3.363281 214.441406 3.539062 213.347656 4.429688 212.980469 L 4.46875 212.964844 L 4.5 212.957031 L 4.539062 212.941406 L 4.660156 212.910156 L 4.730469 212.894531 L 4.816406 212.894531 L 4.832031 212.886719 Z M 5.101562 212.886719 Z M 4.855469 213.371094 C 4.191406 213.449219 3.992188 214.25 3.945312 214.789062 L 3.945312 215.003906 L 3.929688 215.019531 L 3.929688 216.125 C 3.976562 216.695312 4.015625 217.433594 4.539062 217.816406 C 5.023438 218.148438 5.667969 217.773438 5.800781 217.257812 C 5.945312 216.878906 5.976562 216.503906 6.007812 216.125 L 6.007812 215.019531 C 5.960938 214.441406 5.882812 213.632812 5.214844 213.402344 L 5.160156 213.386719 L 5.144531 213.371094 L 5.070312 213.371094 L 5.054688 213.355469 L 4.875 213.355469 Z M 4.855469 213.371094 Z M 4.855469 213.371094 "/>
<path style=" stroke:none;fill-rule:nonzero;fill:rgb(0%,0%,0%);fill-opacity:1;" d="M 8.382812 217.601562 L 8.382812 218.234375 L 7.738281 218.234375 L 7.738281 217.601562 Z M 8.382812 217.601562 Z M 8.382812 217.601562 "/>
<path style=" stroke:none;fill-rule:nonzero;fill:rgb(0%,0%,0%);fill-opacity:1;" d="M 11.269531 212.886719 C 12.023438 212.941406 12.523438 213.632812 12.660156 214.332031 C 12.730469 214.648438 12.746094 214.949219 12.777344 215.265625 L 12.777344 216.078125 C 12.738281 216.902344 12.539062 217.988281 11.644531 218.324219 C 10.867188 218.632812 9.953125 218.148438 9.722656 217.355469 C 9.546875 216.933594 9.53125 216.503906 9.492188 216.078125 L 9.492188 215.265625 C 9.53125 214.441406 9.707031 213.347656 10.597656 212.980469 L 10.636719 212.964844 L 10.667969 212.957031 L 10.707031 212.941406 L 10.824219 212.910156 L 10.898438 212.894531 L 10.984375 212.894531 L 11 212.886719 Z M 11.269531 212.886719 Z M 11.023438 213.371094 C 10.359375 213.449219 10.160156 214.25 10.113281 214.789062 L 10.113281 215.003906 L 10.097656 215.019531 L 10.097656 216.125 C 10.144531 216.695312 10.183594 217.433594 10.707031 217.816406 C 11.191406 218.148438 11.835938 217.773438 11.96875 217.257812 C 12.113281 216.878906 12.144531 216.503906 12.175781 216.125 L 12.175781 215.019531 C 12.128906 214.441406 12.046875 213.632812 11.382812 213.402344 L 11.324219 213.386719 L 11.308594 213.371094 L 11.238281 213.371094 L 11.222656 213.355469 L 11.039062 213.355469 Z M 11.023438 213.371094 Z M 11.023438 213.371094 "/>
<path style=" stroke:none;fill-rule:nonzero;fill:rgb(0%,0%,0%);fill-opacity:1;" d="M 5.101562 174.222656 C 5.859375 174.277344 6.359375 174.96875 6.492188 175.667969 C 6.5625 175.984375 6.578125 176.285156 6.613281 176.605469 L 6.613281 177.414062 C 6.570312 178.238281 6.375 179.328125 5.476562 179.660156 C 4.699219 179.96875 3.785156 179.484375 3.554688 178.691406 C 3.382812 178.269531 3.363281 177.84375 3.324219 177.414062 L 3.324219 176.605469 C 3.363281 175.777344 3.539062 174.683594 4.429688 174.320312 L 4.46875 174.300781 L 4.5 174.292969 L 4.539062 174.277344 L 4.660156 174.246094 L 4.730469 174.230469 L 4.816406 174.230469 L 4.832031 174.222656 Z M 5.101562 174.222656 Z M 4.855469 174.707031 C 4.191406 174.785156 3.992188 175.589844 3.945312 176.128906 L 3.945312 176.34375 L 3.929688 176.359375 L 3.929688 177.460938 C 3.976562 178.03125 4.015625 178.769531 4.539062 179.152344 C 5.023438 179.484375 5.667969 179.113281 5.800781 178.597656 C 5.945312 178.214844 5.976562 177.84375 6.007812 177.460938 L 6.007812 176.359375 C 5.960938 175.777344 5.882812 174.96875 5.214844 174.738281 L 5.160156 174.722656 L 5.144531 174.707031 L 5.070312 174.707031 L 5.054688 174.691406 L 4.875 174.691406 Z M 4.855469 174.707031 Z M 4.855469 174.707031 "/>
<path style=" stroke:none;fill-rule:nonzero;fill:rgb(0%,0%,0%);fill-opacity:1;" d="M 8.382812 178.9375 L 8.382812 179.574219 L 7.738281 179.574219 L 7.738281 178.9375 Z M 8.382812 178.9375 Z M 8.382812 178.9375 "/>
<path style=" stroke:none;fill-rule:nonzero;fill:rgb(0%,0%,0%);fill-opacity:1;" d="M 11.183594 174.222656 C 12.105469 174.246094 12.835938 175.191406 12.691406 176.082031 C 12.597656 176.96875 11.761719 177.476562 11.167969 178.03125 L 10.914062 178.296875 L 10.882812 178.3125 L 10.5625 178.621094 L 10.539062 178.636719 L 10.222656 178.953125 L 10.191406 178.96875 L 10.121094 179.042969 L 10.136719 179.050781 L 12.707031 179.050781 L 12.707031 179.574219 L 9.5625 179.574219 L 9.5625 179.097656 L 10.84375 177.820312 C 11.453125 177.285156 12.167969 176.597656 12.054688 175.722656 C 11.992188 175.214844 11.5625 174.746094 11.039062 174.707031 C 10.507812 174.628906 10.039062 175.046875 9.921875 175.558594 L 9.90625 175.582031 L 9.890625 175.636719 L 9.867188 175.722656 L 9.816406 175.898438 L 9.808594 175.9375 C 9.699219 175.804688 9.578125 175.660156 9.492188 175.507812 C 9.652344 174.859375 10.175781 174.246094 10.867188 174.222656 Z M 11.183594 174.222656 Z M 11.183594 174.222656 "/>
<path style=" stroke:none;fill-rule:nonzero;fill:rgb(0%,0%,0%);fill-opacity:1;" d="M 5.101562 135.5625 C 5.859375 135.617188 6.359375 136.308594 6.492188 137.003906 C 6.5625 137.324219 6.578125 137.625 6.613281 137.941406 L 6.613281 138.75 C 6.570312 139.578125 6.375 140.664062 5.476562 140.996094 C 4.699219 141.308594 3.785156 140.824219 3.554688 140.03125 C 3.382812 139.609375 3.363281 139.179688 3.324219 138.75 L 3.324219 137.941406 C 3.363281 137.117188 3.539062 136.019531 4.429688 135.65625 L 4.46875 135.640625 L 4.5 135.632812 L 4.539062 135.617188 L 4.660156 135.585938 L 4.730469 135.570312 L 4.816406 135.570312 L 4.832031 135.5625 Z M 5.101562 135.5625 Z M 4.855469 136.046875 C 4.191406 136.125 3.992188 136.925781 3.945312 137.464844 L 3.945312 137.679688 L 3.929688 137.695312 L 3.929688 138.800781 C 3.976562 139.371094 4.015625 140.109375 4.539062 140.488281 C 5.023438 140.824219 5.667969 140.449219 5.800781 139.933594 C 5.945312 139.554688 5.976562 139.179688 6.007812 138.800781 L 6.007812 137.695312 C 5.960938 137.117188 5.882812 136.308594 5.214844 136.078125 L 5.160156 136.0625 L 5.144531 136.046875 L 5.070312 136.046875 L 5.054688 136.027344 L 4.875 136.027344 Z M 4.855469 136.046875 Z M 4.855469 136.046875 "/>
<path style=" stroke:none;fill-rule:nonzero;fill:rgb(0%,0%,0%);fill-opacity:1;" d="M 8.382812 140.273438 L 8.382812 140.910156 L 7.738281 140.910156 L 7.738281 140.273438 Z M 8.382812 140.273438 Z M 8.382812 140.273438 "/>
<path style=" stroke:none;fill-rule:nonzero;fill:rgb(0%,0%,0%);fill-opacity:1;" d="M 12.089844 135.726562 L 12.089844 139.070312 L 12.105469 139.085938 L 12.890625 139.085938 L 12.890625 139.5625 L 12.105469 139.5625 L 12.089844 139.570312 L 12.089844 140.910156 L 11.484375 140.910156 L 11.484375 139.570312 L 11.46875 139.5625 L 9.375 139.5625 L 9.375 139.070312 C 10.039062 137.957031 10.707031 136.839844 11.375 135.726562 Z M 12.089844 135.726562 Z M 11.5 136.027344 C 11.34375 136.855469 10.832031 137.5625 10.453125 138.28125 C 10.300781 138.546875 10.105469 138.832031 9.992188 139.085938 L 11.515625 139.085938 L 11.523438 139.070312 L 11.523438 136.027344 L 11.515625 136.011719 Z M 11.5 136.027344 Z M 11.5 136.027344 "/>
<path style=" stroke:none;fill-rule:nonzero;fill:rgb(0%,0%,0%);fill-opacity:1;" d="M 5.101562 96.898438 C 5.859375 96.953125 6.359375 97.644531 6.492188 98.34375 C 6.5625 98.660156 6.578125 98.960938 6.613281 99.28125 L 6.613281 100.089844 C 6.570312 100.914062 6.375 102 5.476562 102.335938 C 4.699219 102.644531 3.785156 102.160156 3.554688 101.367188 C 3.382812 100.945312 3.363281 100.515625 3.324219 100.089844 L 3.324219 99.28125 C 3.363281 98.453125 3.539062 97.359375 4.429688 96.992188 L 4.46875 96.976562 L 4.5 96.96875 L 4.539062 96.953125 L 4.660156 96.921875 L 4.730469 96.90625 L 4.816406 96.90625 L 4.832031 96.898438 Z M 5.101562 96.898438 Z M 4.855469 97.382812 C 4.191406 97.460938 3.992188 98.261719 3.945312 98.804688 L 3.945312 99.015625 L 3.929688 99.035156 L 3.929688 100.136719 C 3.976562 100.707031 4.015625 101.445312 4.539062 101.828125 C 5.023438 102.160156 5.667969 101.789062 5.800781 101.273438 C 5.945312 100.890625 5.976562 100.515625 6.007812 100.136719 L 6.007812 99.035156 C 5.960938 98.453125 5.882812 97.644531 5.214844 97.414062 L 5.160156 97.398438 L 5.144531 97.382812 L 5.070312 97.382812 L 5.054688 97.367188 L 4.875 97.367188 Z M 4.855469 97.382812 Z M 4.855469 97.382812 "/>
<path style=" stroke:none;fill-rule:nonzero;fill:rgb(0%,0%,0%);fill-opacity:1;" d="M 8.382812 101.613281 L 8.382812 102.246094 L 7.738281 102.246094 L 7.738281 101.613281 Z M 8.382812 101.613281 Z M 8.382812 101.613281 "/>
<path style=" stroke:none;fill-rule:nonzero;fill:rgb(0%,0%,0%);fill-opacity:1;" d="M 11.785156 96.898438 C 11.992188 96.929688 12.230469 96.953125 12.429688 97.050781 L 12.429688 97.507812 C 11.882812 97.269531 11.167969 97.238281 10.738281 97.722656 C 10.359375 98.128906 10.183594 98.730469 10.167969 99.261719 C 10.628906 98.652344 11.667969 98.3125 12.230469 98.945312 C 12.792969 99.597656 12.890625 100.535156 12.636719 101.328125 C 12.359375 101.960938 11.714844 102.542969 11 102.40625 C 10.03125 102.328125 9.597656 101.246094 9.546875 100.421875 C 9.367188 99.253906 9.644531 97.789062 10.753906 97.121094 L 10.769531 97.113281 L 10.9375 97.023438 L 10.984375 97.007812 L 11.007812 96.992188 L 11.253906 96.921875 L 11.324219 96.90625 L 11.414062 96.90625 L 11.429688 96.898438 Z M 11.785156 96.898438 Z M 11.007812 99.105469 C 10.316406 99.222656 10.097656 100.058594 10.183594 100.621094 C 10.222656 101.152344 10.429688 101.859375 11.039062 101.96875 C 11.691406 102.058594 12.113281 101.359375 12.128906 100.796875 C 12.160156 100.222656 12.128906 99.574219 11.628906 99.199219 L 11.515625 99.144531 L 11.429688 99.121094 L 11.359375 99.105469 L 11.34375 99.089844 L 11.023438 99.089844 Z M 11.007812 99.105469 Z M 11.007812 99.105469 "/>
<path style=" stroke:none;fill-rule:nonzero;fill:rgb(0%,0%,0%);fill-opacity:1;" d="M 5.101562 58.234375 C 5.859375 58.292969 6.359375 58.980469 6.492188 59.679688 C 6.5625 59.996094 6.578125 60.300781 6.613281 60.617188 L 6.613281 61.425781 C 6.570312 62.25 6.375 63.339844 5.476562 63.671875 C 4.699219 63.980469 3.785156 63.496094 3.554688 62.703125 C 3.382812 62.285156 3.363281 61.855469 3.324219 61.425781 L 3.324219 60.617188 C 3.363281 59.792969 3.539062 58.695312 4.429688 58.332031 L 4.46875 58.316406 L 4.5 58.308594 L 4.539062 58.292969 L 4.660156 58.257812 L 4.730469 58.242188 L 4.816406 58.242188 L 4.832031 58.234375 Z M 5.101562 58.234375 Z M 4.855469 58.71875 C 4.191406 58.800781 3.992188 59.601562 3.945312 60.140625 L 3.945312 60.355469 L 3.929688 60.371094 L 3.929688 61.472656 C 3.976562 62.046875 4.015625 62.785156 4.539062 63.164062 C 5.023438 63.496094 5.667969 63.125 5.800781 62.609375 C 5.945312 62.226562 5.976562 61.855469 6.007812 61.472656 L 6.007812 60.371094 C 5.960938 59.792969 5.882812 58.980469 5.214844 58.75 L 5.160156 58.734375 L 5.144531 58.71875 L 5.070312 58.71875 L 5.054688 58.703125 L 4.875 58.703125 Z M 4.855469 58.71875 Z M 4.855469 58.71875 "/>
<path style=" stroke:none;fill-rule:nonzero;fill:rgb(0%,0%,0%);fill-opacity:1;" d="M 8.382812 62.949219 L 8.382812 63.585938 L 7.738281 63.585938 L 7.738281 62.949219 Z M 8.382812 62.949219 Z M 8.382812 62.949219 "/>
<path style=" stroke:none;fill-rule:nonzero;fill:rgb(0%,0%,0%);fill-opacity:1;" d="M 11.285156 58.234375 C 12.128906 58.265625 12.921875 59.171875 12.589844 60.011719 C 12.445312 60.402344 12.046875 60.640625 11.722656 60.808594 C 12.53125 61.046875 13.023438 61.988281 12.660156 62.769531 C 12.277344 63.777344 10.832031 64.09375 10.039062 63.363281 C 9.316406 62.792969 9.292969 61.554688 10.097656 61.046875 C 10.214844 60.917969 10.4375 60.878906 10.539062 60.785156 C 9.851562 60.585938 9.382812 59.785156 9.707031 59.109375 C 9.96875 58.503906 10.644531 58.171875 11.285156 58.234375 Z M 11.285156 58.234375 Z M 10.984375 58.6875 C 10.398438 58.703125 9.984375 59.371094 10.183594 59.894531 C 10.414062 60.800781 11.929688 60.769531 12.105469 59.839844 C 12.261719 59.324219 11.851562 58.703125 11.285156 58.6875 L 11.269531 58.679688 L 11 58.679688 Z M 10.984375 58.6875 Z M 11 61.046875 C 10.308594 61.09375 9.96875 61.917969 10.152344 62.507812 C 10.269531 63.339844 11.460938 63.585938 11.929688 62.917969 C 12.382812 62.308594 12.160156 61.210938 11.34375 61.046875 L 11.269531 61.046875 L 11.253906 61.03125 L 11.007812 61.03125 Z M 11 61.046875 Z M 11 61.046875 "/>
<path style=" stroke:none;fill-rule:nonzero;fill:rgb(0%,0%,0%);fill-opacity:1;" d="M 5.347656 19.574219 L 5.347656 24.46875 L 5.355469 24.484375 L 6.332031 24.484375 L 6.332031 24.921875 L 3.753906 24.921875 L 3.753906 24.484375 L 4.730469 24.484375 L 4.746094 24.46875 L 4.746094 20.359375 C 4.414062 20.46875 4.0625 20.542969 3.714844 20.535156 L 3.714844 20.089844 C 4.238281 20.097656 4.808594 19.953125 5.207031 19.574219 Z M 5.347656 19.574219 Z M 5.347656 19.574219 "/>
<path style=" stroke:none;fill-rule:nonzero;fill:rgb(0%,0%,0%);fill-opacity:1;" d="M 8.382812 24.289062 L 8.382812 24.921875 L 7.738281 24.921875 L 7.738281 24.289062 Z M 8.382812 24.289062 Z M 8.382812 24.289062 "/>
<path style=" stroke:none;fill-rule:nonzero;fill:rgb(0%,0%,0%);fill-opacity:1;" d="M 11.269531 19.574219 C 12.023438 19.628906 12.523438 20.320312 12.660156 21.019531 C 12.730469 21.335938 12.746094 21.636719 12.777344 21.953125 L 12.777344 22.765625 C 12.738281 23.589844 12.539062 24.675781 11.644531 25.011719 C 10.867188 25.320312 9.953125 24.835938 9.722656 24.042969 C 9.546875 23.621094 9.53125 23.191406 9.492188 22.765625 L 9.492188 21.953125 C 9.53125 21.128906 9.707031 20.035156 10.597656 19.667969 L 10.636719 19.652344 L 10.667969 19.644531 L 10.707031 19.628906 L 10.824219 19.597656 L 10.898438 19.582031 L 10.984375 19.582031 L 11 19.574219 Z M 11.269531 19.574219 Z M 11.023438 20.058594 C 10.359375 20.136719 10.160156 20.9375 10.113281 21.476562 L 10.113281 21.691406 L 10.097656 21.707031 L 10.097656 22.8125 C 10.144531 23.382812 10.183594 24.121094 10.707031 24.503906 C 11.191406 24.835938 11.835938 24.460938 11.96875 23.945312 C 12.113281 23.566406 12.144531 23.191406 12.175781 22.8125 L 12.175781 21.707031 C 12.128906 21.128906 12.046875 20.320312 11.382812 20.089844 L 11.324219 20.074219 L 11.308594 20.058594 L 11.238281 20.058594 L 11.222656 20.042969 L 11.039062 20.042969 Z M 11.023438 20.058594 Z M 11.023438 20.058594 "/>
<path style="fill:none;stroke-width:0.02;stroke-linecap:butt;stroke-linejoin:miter;stroke:rgb(0%,0%,0%);stroke-opacity:1;stroke-miterlimit:10;" d="M 9.860001 1.792351 L 9.754995 1.792351 " transform="matrix(28.346457,0,0,-28.346457,1,227.771654)"/>
<path style="fill:none;stroke-width:0.02;stroke-linecap:butt;stroke-linejoin:miter;stroke:rgb(0%,0%,0%);stroke-opacity:1;stroke-miterlimit:10;" d="M 9.860001 3.156196 L 9.754995 3.156196 " transform="matrix(28.346457,0,0,-28.346457,1,227.771654)"/>
<path style="fill:none;stroke-width:0.02;stroke-linecap:butt;stroke-linejoin:miter;stroke:rgb(0%,0%,0%);stroke-opacity:1;stroke-miterlimit:10;" d="M 9.860001 4.520178 L 9.754995 4.520178 " transform="matrix(28.346457,0,0,-28.346457,1,227.771654)"/>
<path style="fill:none;stroke-width:0.02;stroke-linecap:butt;stroke-linejoin:miter;stroke:rgb(0%,0%,0%);stroke-opacity:1;stroke-miterlimit:10;" d="M 9.860001 5.88416 L 9.754995 5.88416 " transform="matrix(28.346457,0,0,-28.346457,1,227.771654)"/>
<path style="fill:none;stroke-width:0.02;stroke-linecap:butt;stroke-linejoin:miter;stroke:rgb(0%,0%,0%);stroke-opacity:1;stroke-miterlimit:10;" d="M 9.860001 7.248005 L 9.754995 7.248005 " transform="matrix(28.346457,0,0,-28.346457,1,227.771654)"/>
<path style="fill:none;stroke-width:0.02;stroke-linecap:round;stroke-linejoin:miter;stroke:rgb(0%,0%,0%);stroke-opacity:1;stroke-miterlimit:10;" d="M 9.860001 0.428369 L 9.860001 7.929996 " transform="matrix(28.346457,0,0,-28.346457,1,227.771654)"/>
<path style="fill:none;stroke-width:0.02;stroke-linecap:butt;stroke-linejoin:miter;stroke:rgb(0%,0%,0%);stroke-opacity:1;stroke-miterlimit:10;" d="M 1.759755 0.428369 L 1.759755 0.533376 " transform="matrix(28.346457,0,0,-28.346457,1,227.771654)"/>
<path style="fill:none;stroke-width:0.02;stroke-linecap:butt;stroke-linejoin:miter;stroke:rgb(0%,0%,0%);stroke-opacity:1;stroke-miterlimit:10;" d="M 2.916893 0.428369 L 2.916893 0.533376 " transform="matrix(28.346457,0,0,-28.346457,1,227.771654)"/>
<path style="fill:none;stroke-width:0.02;stroke-linecap:butt;stroke-linejoin:miter;stroke:rgb(0%,0%,0%);stroke-opacity:1;stroke-miterlimit:10;" d="M 4.074032 0.428369 L 4.074032 0.533376 " transform="matrix(28.346457,0,0,-28.346457,1,227.771654)"/>
<path style="fill:none;stroke-width:0.02;stroke-linecap:butt;stroke-linejoin:miter;stroke:rgb(0%,0%,0%);stroke-opacity:1;stroke-miterlimit:10;" d="M 5.231309 0.428369 L 5.231309 0.533376 " transform="matrix(28.346457,0,0,-28.346457,1,227.771654)"/>
<path style="fill:none;stroke-width:0.02;stroke-linecap:butt;stroke-linejoin:miter;stroke:rgb(0%,0%,0%);stroke-opacity:1;stroke-miterlimit:10;" d="M 6.388447 0.428369 L 6.388447 0.533376 " transform="matrix(28.346457,0,0,-28.346457,1,227.771654)"/>
<path style="fill:none;stroke-width:0.02;stroke-linecap:butt;stroke-linejoin:miter;stroke:rgb(0%,0%,0%);stroke-opacity:1;stroke-miterlimit:10;" d="M 7.545586 0.428369 L 7.545586 0.533376 " transform="matrix(28.346457,0,0,-28.346457,1,227.771654)"/>
<path style="fill:none;stroke-width:0.02;stroke-linecap:butt;stroke-linejoin:miter;stroke:rgb(0%,0%,0%);stroke-opacity:1;stroke-miterlimit:10;" d="M 8.702862 0.428369 L 8.702862 0.533376 " transform="matrix(28.346457,0,0,-28.346457,1,227.771654)"/>
<path style="fill:none;stroke-width:0.02;stroke-linecap:round;stroke-linejoin:miter;stroke:rgb(0%,0%,0%);stroke-opacity:1;stroke-miterlimit:10;" d="M 0.602616 0.428369 L 9.860001 0.428369 " transform="matrix(28.346457,0,0,-28.346457,1,227.771654)"/>
<path style=" stroke:none;fill-rule:nonzero;fill:rgb(0%,0%,0%);fill-opacity:1;" d="M 18.214844 220.445312 C 18.96875 220.5 19.46875 221.191406 19.605469 221.890625 C 19.675781 222.207031 19.691406 222.507812 19.722656 222.828125 L 19.722656 223.636719 C 19.683594 224.460938 19.484375 225.550781 18.589844 225.882812 C 17.8125 226.191406 16.898438 225.707031 16.667969 224.914062 C 16.492188 224.492188 16.476562 224.066406 16.4375 223.636719 L 16.4375 222.828125 C 16.476562 222 16.652344 220.90625 17.539062 220.542969 L 17.582031 220.523438 L 17.613281 220.515625 L 17.652344 220.5 L 17.769531 220.46875 L 17.84375 220.453125 L 17.929688 220.453125 L 17.945312 220.445312 Z M 18.214844 220.445312 Z M 17.96875 220.929688 C 17.300781 221.007812 17.105469 221.8125 17.054688 222.351562 L 17.054688 222.566406 L 17.039062 222.582031 L 17.039062 223.683594 C 17.089844 224.253906 17.128906 224.992188 17.652344 225.375 C 18.136719 225.707031 18.777344 225.335938 18.914062 224.820312 C 19.058594 224.4375 19.089844 224.066406 19.121094 223.683594 L 19.121094 222.582031 C 19.074219 222 18.992188 221.191406 18.328125 220.960938 L 18.269531 220.945312 L 18.253906 220.929688 L 18.183594 220.929688 L 18.167969 220.914062 L 17.984375 220.914062 Z M 17.96875 220.929688 Z M 17.96875 220.929688 "/>
<path style=" stroke:none;fill-rule:nonzero;fill:rgb(0%,0%,0%);fill-opacity:1;" d="M 51.261719 220.445312 L 51.261719 225.34375 L 51.269531 225.359375 L 52.246094 225.359375 L 52.246094 225.796875 L 49.667969 225.796875 L 49.667969 225.359375 L 50.644531 225.359375 L 50.660156 225.34375 L 50.660156 221.230469 C 50.328125 221.34375 49.976562 221.414062 49.628906 221.40625 L 49.628906 220.960938 C 50.152344 220.96875 50.722656 220.828125 51.121094 220.445312 Z M 51.261719 220.445312 Z M 51.261719 220.445312 "/>
<path style=" stroke:none;fill-rule:nonzero;fill:rgb(0%,0%,0%);fill-opacity:1;" d="M 83.730469 220.445312 C 84.652344 220.46875 85.382812 221.414062 85.238281 222.304688 C 85.144531 223.191406 84.3125 223.699219 83.714844 224.253906 L 83.460938 224.515625 L 83.429688 224.535156 L 83.113281 224.84375 L 83.089844 224.859375 L 82.773438 225.175781 L 82.738281 225.191406 L 82.667969 225.261719 L 82.683594 225.273438 L 85.257812 225.273438 L 85.257812 225.796875 L 82.113281 225.796875 L 82.113281 225.320312 L 83.390625 224.042969 C 84 223.507812 84.714844 222.820312 84.605469 221.945312 C 84.542969 221.4375 84.113281 220.96875 83.589844 220.929688 C 83.058594 220.851562 82.589844 221.269531 82.46875 221.777344 L 82.453125 221.804688 L 82.4375 221.859375 L 82.414062 221.945312 L 82.367188 222.121094 L 82.359375 222.160156 C 82.246094 222.023438 82.128906 221.882812 82.042969 221.730469 C 82.199219 221.082031 82.722656 220.46875 83.414062 220.445312 Z M 83.730469 220.445312 Z M 83.730469 220.445312 "/>
<path style=" stroke:none;fill-rule:nonzero;fill:rgb(0%,0%,0%);fill-opacity:1;" d="M 116.636719 220.445312 C 117.335938 220.476562 118.066406 221.121094 117.898438 221.859375 C 117.820312 222.359375 117.46875 222.769531 117.035156 222.992188 C 117.742188 223.214844 118.289062 223.960938 118.097656 224.699219 C 117.90625 225.660156 116.804688 226.191406 115.914062 225.898438 C 115.484375 225.773438 115.050781 225.5 114.84375 225.105469 C 114.890625 224.984375 114.875 224.78125 114.929688 224.699219 C 115.351562 225.320312 116.242188 225.738281 116.9375 225.390625 C 117.699219 224.90625 117.582031 223.492188 116.660156 223.253906 L 116.589844 223.253906 L 116.574219 223.238281 L 115.835938 223.238281 L 115.835938 222.761719 C 116.289062 222.753906 116.851562 222.699219 117.105469 222.230469 C 117.375 221.828125 117.351562 221.160156 116.835938 220.960938 C 116.222656 220.722656 115.46875 221.113281 115.238281 221.730469 C 115.144531 221.597656 115.050781 221.460938 114.953125 221.320312 C 115.28125 220.730469 115.96875 220.382812 116.636719 220.445312 Z M 116.636719 220.445312 Z M 116.636719 220.445312 "/>
<path style=" stroke:none;fill-rule:nonzero;fill:rgb(0%,0%,0%);fill-opacity:1;" d="M 150.242188 220.613281 L 150.242188 223.953125 L 150.257812 223.96875 L 151.042969 223.96875 L 151.042969 224.445312 L 150.257812 224.445312 L 150.242188 224.453125 L 150.242188 225.796875 L 149.636719 225.796875 L 149.636719 224.453125 L 149.621094 224.445312 L 147.527344 224.445312 L 147.527344 223.953125 C 148.191406 222.84375 148.859375 221.722656 149.527344 220.613281 Z M 150.242188 220.613281 Z M 149.652344 220.914062 C 149.496094 221.738281 148.988281 222.445312 148.605469 223.167969 C 148.453125 223.429688 148.257812 223.714844 148.144531 223.96875 L 149.667969 223.96875 L 149.675781 223.953125 L 149.675781 220.914062 L 149.667969 220.898438 Z M 149.652344 220.914062 Z M 149.652344 220.914062 "/>
<path style=" stroke:none;fill-rule:nonzero;fill:rgb(0%,0%,0%);fill-opacity:1;" d="M 183.398438 220.613281 L 183.398438 221.105469 L 181.335938 221.105469 L 181.320312 221.113281 L 181.320312 222.738281 C 181.511719 222.613281 181.78125 222.445312 182.035156 222.4375 C 182.929688 222.34375 183.621094 223.222656 183.660156 224.042969 C 183.789062 225.082031 182.8125 226.113281 181.765625 225.953125 C 181.242188 225.9375 180.734375 225.628906 180.429688 225.199219 C 180.519531 225.082031 180.589844 224.875 180.691406 224.804688 C 181.066406 225.535156 182.273438 225.828125 182.757812 225.058594 C 183.066406 224.476562 183.058594 223.738281 182.703125 223.183594 C 182.289062 222.652344 181.472656 222.976562 181.28125 223.542969 L 180.765625 223.542969 L 180.765625 220.613281 Z M 183.398438 220.613281 Z M 183.398438 220.613281 "/>
<path style=" stroke:none;fill-rule:nonzero;fill:rgb(0%,0%,0%);fill-opacity:1;" d="M 215.542969 220.445312 C 215.75 220.476562 215.988281 220.5 216.1875 220.597656 L 216.1875 221.058594 C 215.636719 220.820312 214.925781 220.785156 214.496094 221.269531 C 214.113281 221.675781 213.941406 222.277344 213.925781 222.8125 C 214.382812 222.199219 215.425781 221.859375 215.988281 222.492188 C 216.550781 223.144531 216.644531 224.082031 216.390625 224.875 C 216.113281 225.507812 215.472656 226.089844 214.757812 225.953125 C 213.789062 225.875 213.351562 224.796875 213.304688 223.96875 C 213.121094 222.804688 213.398438 221.335938 214.511719 220.667969 L 214.527344 220.660156 L 214.695312 220.574219 L 214.742188 220.558594 L 214.765625 220.542969 L 214.898438 220.5 L 215.011719 220.46875 L 215.082031 220.453125 L 215.171875 220.453125 L 215.1875 220.445312 Z M 215.542969 220.445312 Z M 214.765625 222.652344 C 214.074219 222.769531 213.851562 223.605469 213.941406 224.167969 C 213.980469 224.699219 214.1875 225.40625 214.796875 225.515625 C 215.449219 225.605469 215.867188 224.90625 215.882812 224.34375 C 215.917969 223.769531 215.882812 223.121094 215.382812 222.746094 L 215.273438 222.691406 L 215.1875 222.667969 L 215.113281 222.652344 L 215.097656 222.636719 L 214.78125 222.636719 Z M 214.765625 222.652344 Z M 214.765625 222.652344 "/>
<path style=" stroke:none;fill-rule:nonzero;fill:rgb(0%,0%,0%);fill-opacity:1;" d="M 249.335938 220.613281 L 249.335938 221.113281 C 248.210938 222.429688 247.574219 224.207031 247.582031 225.882812 L 246.941406 225.882812 C 246.925781 224.191406 247.613281 222.40625 248.820312 221.160156 L 248.804688 221.144531 L 246.050781 221.144531 L 246.050781 220.613281 L 249.335938 220.613281 L 249.335938 221.113281 Z M 249.335938 220.613281 Z M 249.335938 220.613281 "/>
<path style=" stroke:none;fill-rule:nonzero;fill:rgb(0%,0%,0%);fill-opacity:1;" d="M 280.648438 220.445312 C 281.488281 220.476562 282.28125 221.382812 281.949219 222.222656 C 281.804688 222.613281 281.410156 222.851562 281.082031 223.015625 C 281.894531 223.253906 282.386719 224.199219 282.019531 224.976562 C 281.640625 225.984375 280.195312 226.304688 279.402344 225.574219 C 278.679688 225 278.65625 223.761719 279.457031 223.253906 C 279.574219 223.128906 279.796875 223.089844 279.902344 222.992188 C 279.210938 222.796875 278.742188 221.992188 279.066406 221.320312 C 279.328125 220.714844 280.003906 220.382812 280.648438 220.445312 Z M 280.648438 220.445312 Z M 280.34375 220.898438 C 279.757812 220.914062 279.34375 221.582031 279.542969 222.105469 C 279.773438 223.007812 281.289062 222.976562 281.464844 222.050781 C 281.625 221.53125 281.210938 220.914062 280.648438 220.898438 L 280.632812 220.890625 L 280.359375 220.890625 Z M 280.34375 220.898438 Z M 280.359375 223.253906 C 279.671875 223.304688 279.328125 224.128906 279.511719 224.714844 C 279.632812 225.550781 280.820312 225.796875 281.289062 225.128906 C 281.742188 224.515625 281.519531 223.421875 280.703125 223.253906 L 280.632812 223.253906 L 280.613281 223.238281 L 280.367188 223.238281 Z M 280.359375 223.253906 Z M 280.359375 223.253906 "/>
<path style="fill:none;stroke-width:0.02;stroke-linecap:butt;stroke-linejoin:miter;stroke:rgb(0%,0%,0%);stroke-opacity:1;stroke-miterlimit:10;" d="M 1.759755 7.929996 L 1.759755 7.824989 " transform="matrix(28.346457,0,0,-28.346457,1,227.771654)"/>
<path style="fill:none;stroke-width:0.02;stroke-linecap:butt;stroke-linejoin:miter;stroke:rgb(0%,0%,0%);stroke-opacity:1;stroke-miterlimit:10;" d="M 2.916893 7.929996 L 2.916893 7.824989 " transform="matrix(28.346457,0,0,-28.346457,1,227.771654)"/>
<path style="fill:none;stroke-width:0.02;stroke-linecap:butt;stroke-linejoin:miter;stroke:rgb(0%,0%,0%);stroke-opacity:1;stroke-miterlimit:10;" d="M 4.074032 7.929996 L 4.074032 7.824989 " transform="matrix(28.346457,0,0,-28.346457,1,227.771654)"/>
<path style="fill:none;stroke-width:0.02;stroke-linecap:butt;stroke-linejoin:miter;stroke:rgb(0%,0%,0%);stroke-opacity:1;stroke-miterlimit:10;" d="M 5.231309 7.929996 L 5.231309 7.824989 " transform="matrix(28.346457,0,0,-28.346457,1,227.771654)"/>
<path style="fill:none;stroke-width:0.02;stroke-linecap:butt;stroke-linejoin:miter;stroke:rgb(0%,0%,0%);stroke-opacity:1;stroke-miterlimit:10;" d="M 6.388447 7.929996 L 6.388447 7.824989 " transform="matrix(28.346457,0,0,-28.346457,1,227.771654)"/>
<path style="fill:none;stroke-width:0.02;stroke-linecap:butt;stroke-linejoin:miter;stroke:rgb(0%,0%,0%);stroke-opacity:1;stroke-miterlimit:10;" d="M 7.545586 7.929996 L 7.545586 7.824989 " transform="matrix(28.346457,0,0,-28.346457,1,227.771654)"/>
<path style="fill:none;stroke-width:0.02;stroke-linecap:butt;stroke-linejoin:miter;stroke:rgb(0%,0%,0%);stroke-opacity:1;stroke-miterlimit:10;" d="M 8.702862 7.929996 L 8.702862 7.824989 " transform="matrix(28.346457,0,0,-28.346457,1,227.771654)"/>
<path style="fill:none;stroke-width:0.02;stroke-linecap:round;stroke-linejoin:miter;stroke:rgb(0%,0%,0%);stroke-opacity:1;stroke-miterlimit:10;" d="M 0.602616 7.929996 L 9.860001 7.929996 " transform="matrix(28.346457,0,0,-28.346457,1,227.771654)"/>
<path style="fill:none;stroke-width:0.05;stroke-linecap:butt;stroke-linejoin:miter;stroke:rgb(81.960784%,36.862745%,36.078431%);stroke-opacity:1;stroke-miterlimit:10;" d="M 0.602616 7.248005 L 0.694256 6.728071 L 0.786033 6.247824 L 0.87781 5.804234 L 0.969588 5.394405 L 1.061365 5.01572 L 1.153142 4.666112 L 1.24492 4.342962 L 1.336697 4.044479 L 1.428474 3.768872 L 1.520252 3.51421 L 1.612029 3.278979 L 1.703669 3.061662 L 1.795446 2.860882 L 1.887223 2.675398 L 1.979001 2.504108 L 2.070778 2.345909 L 2.162555 2.199699 L 2.254333 2.064652 L 2.34611 1.939939 L 2.437887 1.824735 L 2.529665 1.718213 L 2.621304 1.619959 L 2.713082 1.529008 L 2.804859 1.445086 L 2.896636 1.36764 L 2.988414 1.295982 L 3.080191 1.229836 L 3.171968 1.168789 L 3.263746 1.112289 L 3.355523 1.0602 L 3.4473 1.011968 L 3.53894 0.967595 L 3.630717 0.926392 L 3.722495 0.888496 L 3.814272 0.853356 L 3.906049 0.820972 L 3.997827 0.791069 L 4.089604 0.76337 L 4.181381 0.737877 L 4.273159 0.714312 L 4.364936 0.692539 L 4.456713 0.67242 L 4.548353 0.653816 L 4.64013 0.636591 L 4.731908 0.620743 L 4.823685 0.605998 L 4.915462 0.592493 L 5.00724 0.579953 L 5.099017 0.568378 L 5.190794 0.557767 L 5.282572 0.547845 L 5.374349 0.53875 L 5.465988 0.530344 L 5.557766 0.522627 L 5.649543 0.515461 L 5.741321 0.508847 L 5.833098 0.502645 L 5.924875 0.496995 L 6.016653 0.491759 L 6.10843 0.486936 L 6.200207 0.482526 L 6.291985 0.478392 L 6.383624 0.474533 L 6.475401 0.471088 L 6.567179 0.467781 L 6.658956 0.464749 L 6.750734 0.461993 L 6.842511 0.459375 L 6.934288 0.457032 L 7.026066 0.454827 L 7.20962 0.450969 L 7.30126 0.449315 L 7.393037 0.447662 L 7.576592 0.444906 L 7.760146 0.442425 L 7.851924 0.441323 L 7.943701 0.440358 L 8.035479 0.439531 L 8.127256 0.438567 L 8.219033 0.437878 L 8.310673 0.437189 L 8.494227 0.435811 L 8.677782 0.434708 L 9.136669 0.432641 L 9.228308 0.432365 L 9.687195 0.430987 " transform="matrix(28.346457,0,0,-28.346457,1,227.771654)"/>
</g>
</svg>
