<?xml version="1.0" encoding="UTF-8"?>
<svg xmlns="http://www.w3.org/2000/svg" xmlns:xlink="http://www.w3.org/1999/xlink" width="285.464567pt" height="228.771654pt" viewBox="0 0 285.464567 228.771654" version="1.1">
<g id="surface1">
<path style="fill-rule:nonzero;fill:rgb(100%,98.039216%,80.392157%);fill-opacity:1;stroke-width:0.02;stroke-linecap:butt;stroke-linejoin:miter;stroke:rgb(0%,0%,50.196078%);stroke-opacity:1;stroke-miterlimit:10;" d="M 0.613916 0.428369 L 0.919703 0.428369 L 0.919703 6.736063 L 0.613916 6.736063 Z M 0.613916 0.428369 " transform="matrix(28.346457,0,0,-28.346457,1,227.771654)"/>
<path style="fill-rule:nonzero;fill:rgb(100%,98.039216%,80.392157%);fill-opacity:1;stroke-width:0.02;stroke-linecap:butt;stroke-linejoin:miter;stroke:rgb(0%,0%,50.196078%);stroke-opacity:1;stroke-miterlimit:10;" d="M 0.919703 0.428369 L 1.225489 0.428369 L 1.225489 6.506758 L 0.919703 6.506758 Z M 0.919703 0.428369 " transform="matrix(28.346457,0,0,-28.346457,1,227.771654)"/>
<path style="fill-rule:nonzero;fill:rgb(100%,98.039216%,80.392157%);fill-opacity:1;stroke-width:0.02;stroke-linecap:butt;stroke-linejoin:miter;stroke:rgb(0%,0%,50.196078%);stroke-opacity:1;stroke-miterlimit:10;" d="M 1.225489 0.428369 L 1.531276 0.428369 L 1.531276 5.245164 L 1.225489 5.245164 Z M 1.225489 0.428369 " transform="matrix(28.346457,0,0,-28.346457,1,227.771654)"/>
<path style="fill-rule:nonzero;fill:rgb(100%,98.039216%,80.392157%);fill-opacity:1;stroke-width:0.02;stroke-linecap:butt;stroke-linejoin:miter;stroke:rgb(0%,0%,50.196078%);stroke-opacity:1;stroke-miterlimit:10;" d="M 1.531276 0.428369 L 1.837201 0.428369 L 1.837201 3.180863 L 1.531276 3.180863 Z M 1.531276 0.428369 " transform="matrix(28.346457,0,0,-28.346457,1,227.771654)"/>
<path style="fill-rule:nonzero;fill:rgb(100%,98.039216%,80.392157%);fill-opacity:1;stroke-width:0.02;stroke-linecap:butt;stroke-linejoin:miter;stroke:rgb(0%,0%,50.196078%);stroke-opacity:1;stroke-miterlimit:10;" d="M 1.837201 0.428369 L 2.142987 0.428369 L 2.142987 3.295515 L 1.837201 3.295515 Z M 1.837201 0.428369 " transform="matrix(28.346457,0,0,-28.346457,1,227.771654)"/>
<path style="fill-rule:nonzero;fill:rgb(100%,98.039216%,80.392157%);fill-opacity:1;stroke-width:0.02;stroke-linecap:butt;stroke-linejoin:miter;stroke:rgb(0%,0%,50.196078%);stroke-opacity:1;stroke-miterlimit:10;" d="M 2.142987 0.428369 L 2.448774 0.428369 L 2.448774 3.983708 L 2.142987 3.983708 Z M 2.142987 0.428369 " transform="matrix(28.346457,0,0,-28.346457,1,227.771654)"/>
<path style="fill-rule:nonzero;fill:rgb(100%,98.039216%,80.392157%);fill-opacity:1;stroke-width:0.02;stroke-linecap:butt;stroke-linejoin:miter;stroke:rgb(0%,0%,50.196078%);stroke-opacity:1;stroke-miterlimit:10;" d="M 2.448774 0.428369 L 2.754561 0.428369 L 2.754561 2.148712 L 2.448774 2.148712 Z M 2.448774 0.428369 " transform="matrix(28.346457,0,0,-28.346457,1,227.771654)"/>
<path style="fill-rule:nonzero;fill:rgb(100%,98.039216%,80.392157%);fill-opacity:1;stroke-width:0.02;stroke-linecap:butt;stroke-linejoin:miter;stroke:rgb(0%,0%,50.196078%);stroke-opacity:1;stroke-miterlimit:10;" d="M 2.754561 0.428369 L 3.060485 0.428369 L 3.060485 1.57531 L 2.754561 1.57531 Z M 2.754561 0.428369 " transform="matrix(28.346457,0,0,-28.346457,1,227.771654)"/>
<path style="fill-rule:nonzero;fill:rgb(100%,98.039216%,80.392157%);fill-opacity:1;stroke-width:0.02;stroke-linecap:butt;stroke-linejoin:miter;stroke:rgb(0%,0%,50.196078%);stroke-opacity:1;stroke-miterlimit:10;" d="M 3.060485 0.428369 L 3.366272 0.428369 L 3.366272 1.46052 L 3.060485 1.46052 Z M 3.060485 0.428369 " transform="matrix(28.346457,0,0,-28.346457,1,227.771654)"/>
<path style="fill-rule:nonzero;fill:rgb(100%,98.039216%,80.392157%);fill-opacity:1;stroke-width:0.02;stroke-linecap:butt;stroke-linejoin:miter;stroke:rgb(0%,0%,50.196078%);stroke-opacity:1;stroke-miterlimit:10;" d="M 3.366272 0.428369 L 3.672058 0.428369 L 3.672058 1.57531 L 3.366272 1.57531 Z M 3.366272 0.428369 " transform="matrix(28.346457,0,0,-28.346457,1,227.771654)"/>
<path style="fill-rule:nonzero;fill:rgb(100%,98.039216%,80.392157%);fill-opacity:1;stroke-width:0.02;stroke-linecap:butt;stroke-linejoin:miter;stroke:rgb(0%,0%,50.196078%);stroke-opacity:1;stroke-miterlimit:10;" d="M 3.672058 0.428369 L 3.977983 0.428369 L 3.977983 1.231214 L 3.672058 1.231214 Z M 3.672058 0.428369 " transform="matrix(28.346457,0,0,-28.346457,1,227.771654)"/>
<path style="fill-rule:nonzero;fill:rgb(100%,98.039216%,80.392157%);fill-opacity:1;stroke-width:0.02;stroke-linecap:butt;stroke-linejoin:miter;stroke:rgb(0%,0%,50.196078%);stroke-opacity:1;stroke-miterlimit:10;" d="M 3.977983 0.428369 L 4.28377 0.428369 L 4.28377 0.657813 L 3.977983 0.657813 Z M 3.977983 0.428369 " transform="matrix(28.346457,0,0,-28.346457,1,227.771654)"/>
<path style="fill-rule:nonzero;fill:rgb(100%,98.039216%,80.392157%);fill-opacity:1;stroke-width:0.02;stroke-linecap:butt;stroke-linejoin:miter;stroke:rgb(0%,0%,50.196078%);stroke-opacity:1;stroke-miterlimit:10;" d="M 4.28377 0.428369 L 4.589556 0.428369 L 4.589556 0.657813 L 4.28377 0.657813 Z M 4.28377 0.428369 " transform="matrix(28.346457,0,0,-28.346457,1,227.771654)"/>
<path style="fill-rule:nonzero;fill:rgb(100%,98.039216%,80.392157%);fill-opacity:1;stroke-width:0.02;stroke-linecap:butt;stroke-linejoin:miter;stroke:rgb(0%,0%,50.196078%);stroke-opacity:1;stroke-miterlimit:10;" d="M 4.589556 0.428369 L 4.895343 0.428369 L 4.895343 0.772465 L 4.589556 0.772465 Z M 4.589556 0.428369 " transform="matrix(28.346457,0,0,-28.346457,1,227.771654)"/>
<path style="fill-rule:nonzero;fill:rgb(100%,98.039216%,80.392157%);fill-opacity:1;stroke-width:0.02;stroke-linecap:butt;stroke-linejoin:miter;stroke:rgb(0%,0%,50.196078%);stroke-opacity:1;stroke-miterlimit:10;" d="M 4.895343 0.428369 L 5.201267 0.428369 L 5.201267 0.657813 L 4.895343 0.657813 Z M 4.895343 0.428369 " transform="matrix(28.346457,0,0,-28.346457,1,227.771654)"/>
<path style="fill-rule:nonzero;fill:rgb(100%,98.039216%,80.392157%);fill-opacity:1;stroke-width:0.02;stroke-linecap:butt;stroke-linejoin:miter;stroke:rgb(0%,0%,50.196078%);stroke-opacity:1;stroke-miterlimit:10;" d="M 5.201267 0.428369 L 5.507054 0.428369 L 5.507054 0.543022 L 5.201267 0.543022 Z M 5.201267 0.428369 " transform="matrix(28.346457,0,0,-28.346457,1,227.771654)"/>
<path style="fill-rule:nonzero;fill:rgb(100%,98.039216%,80.392157%);fill-opacity:1;stroke-width:0.02;stroke-linecap:butt;stroke-linejoin:miter;stroke:rgb(0%,0%,50.196078%);stroke-opacity:1;stroke-miterlimit:10;" d="M 5.507054 0.428369 L 5.812841 0.428369 L 5.812841 0.543022 L 5.507054 0.543022 Z M 5.507054 0.428369 " transform="matrix(28.346457,0,0,-28.346457,1,227.771654)"/>
<path style="fill-rule:nonzero;fill:rgb(100%,98.039216%,80.392157%);fill-opacity:1;stroke-width:0.02;stroke-linecap:butt;stroke-linejoin:miter;stroke:rgb(0%,0%,50.196078%);stroke-opacity:1;stroke-miterlimit:10;" d="M 5.812841 0.428369 L 6.118627 0.428369 L 6.118627 0.543022 L 5.812841 0.543022 Z M 5.812841 0.428369 " transform="matrix(28.346457,0,0,-28.346457,1,227.771654)"/>
<path style="fill-rule:nonzero;fill:rgb(100%,98.039216%,80.392157%);fill-opacity:1;stroke-width:0.02;stroke-linecap:butt;stroke-linejoin:miter;stroke:rgb(0%,0%,50.196078%);stroke-opacity:1;stroke-miterlimit:10;" d="M 6.118627 0.428369 L 6.424552 0.428369 L 6.424552 0.543022 L 6.118627 0.543022 Z M 6.118627 0.428369 " transform="matrix(28.346457,0,0,-28.346457,1,227.771654)"/>
<path style="fill-rule:nonzero;fill:rgb(100%,98.039216%,80.392157%);fill-opacity:1;stroke-width:0.02;stroke-linecap:butt;stroke-linejoin:miter;stroke:rgb(0%,0%,50.196078%);stroke-opacity:1;stroke-miterlimit:10;" d="M 6.424552 0.428369 L 6.730339 0.428369 L 6.730339 0.657813 L 6.424552 0.657813 Z M 6.424552 0.428369 " transform="matrix(28.346457,0,0,-28.346457,1,227.771654)"/>
<path style="fill-rule:nonzero;fill:rgb(100%,98.039216%,80.392157%);fill-opacity:1;stroke-width:0.02;stroke-linecap:butt;stroke-linejoin:miter;stroke:rgb(0%,0%,50.196078%);stroke-opacity:1;stroke-miterlimit:10;" d="M 6.730339 0.428369 L 7.036125 0.428369 L 7.036125 0.543022 L 6.730339 0.543022 Z M 6.730339 0.428369 " transform="matrix(28.346457,0,0,-28.346457,1,227.771654)"/>
<path style="fill-rule:nonzero;fill:rgb(100%,98.039216%,80.392157%);fill-opacity:1;stroke-width:0.02;stroke-linecap:butt;stroke-linejoin:miter;stroke:rgb(0%,0%,50.196078%);stroke-opacity:1;stroke-miterlimit:10;" d="M 7.341912 0.428369 L 7.647836 0.428369 L 7.647836 0.543022 L 7.341912 0.543022 Z M 7.341912 0.428369 " transform="matrix(28.346457,0,0,-28.346457,1,227.771654)"/>
<path style="fill-rule:nonzero;fill:rgb(100%,98.039216%,80.392157%);fill-opacity:1;stroke-width:0.02;stroke-linecap:butt;stroke-linejoin:miter;stroke:rgb(0%,0%,50.196078%);stroke-opacity:1;stroke-miterlimit:10;" d="M 9.176908 0.428369 L 9.482694 0.428369 L 9.482694 0.543022 L 9.176908 0.543022 Z M 9.176908 0.428369 " transform="matrix(28.346457,0,0,-28.346457,1,227.771654)"/>
<path style="fill-rule:nonzero;fill:rgb(100%,98.039216%,80.392157%);fill-opacity:1;stroke-width:0.02;stroke-linecap:butt;stroke-linejoin:miter;stroke:rgb(0%,0%,50.196078%);stroke-opacity:1;stroke-miterlimit:10;" d="M 9.482694 0.428369 L 9.788481 0.428369 L 9.788481 0.543022 L 9.482694 0.543022 Z M 9.482694 0.428369 " transform="matrix(28.346457,0,0,-28.346457,1,227.771654)"/>
<path style="fill:none;stroke-width:0.02;stroke-linecap:butt;stroke-linejoin:miter;stroke:rgb(0%,0%,0%);stroke-opacity:1;stroke-miterlimit:10;" d="M 0.602616 1.792351 L 0.707623 1.792351 " transform="matrix(28.346457,0,0,-28.346457,1,227.771654)"/>
<path style="fill:none;stroke-width:0.02;stroke-linecap:butt;stroke-linejoin:miter;stroke:rgb(0%,0%,0%);stroke-opacity:1;stroke-miterlimit:10;" d="M 0.602616 3.156196 L 0.707623 3.156196 " transform="matrix(28.346457,0,0,-28.346457,1,227.771654)"/>
<path style="fill:none;stroke-width:0.02;stroke-linecap:butt;stroke-linejoin:miter;stroke:rgb(0%,0%,0%);stroke-opacity:1;stroke-miterlimit:10;" d="M 0.602616 4.520178 L 0.707623 4.520178 " transform="matrix(28.346457,0,0,-28.346457,1,227.771654)"/>
<path style="fill:none;stroke-width:0.02;stroke-linecap:butt;stroke-linejoin:miter;stroke:rgb(0%,0%,0%);stroke-opacity:1;stroke-miterlimit:10;" d="M 0.602616 5.88416 L 0.707623 5.88416 " transform="matrix(28.346457,0,0,-28.346457,1,227.771654)"/>
<path style="fill:none;stroke-width:0.02;stroke-linecap:butt;stroke-linejoin:miter;stroke:rgb(0%,0%,0%);stroke-opacity:1;stroke-miterlimit:10;" d="M 0.602616 7.248005 L 0.707623 7.248005 " transform="matrix(28.346457,0,0,-28.346457,1,227.771654)"/>
<path style="fill:none;stroke-width:0.02;stroke-linecap:round;stroke-linejoin:miter;stroke:rgb(0%,0%,0%);stroke-opacity:1;stroke-miterlimit:10;" d="M 0.602616 0.428369 L 0.602616 7.929996 " transform="matrix(28.346457,0,0,-28.346457,1,227.771654)"/>
<path style=" stroke:none;fill-rule:nonzero;fill:rgb(0%,0%,0%);fill-opacity:1;" d="M 5.101562 212.886719 C 5.859375 212.941406 6.359375 213.632812 6.492188 214.332031 C 6.5625 214.648438 6.578125 214.949219 6.613281 215.265625 L 6.613281 216.078125 C 6.570312 216.902344 6.375 217.988281 5.476562 218.324219 C 4.699219 218.632812 3.785156 218.148438 3.554688 217.355469 C 3.382812 216.933594 3.363281 216.503906 3.324219 216.078125 L 3.324219 215.265625 C 3.363281 214.441406 3.539062 213.347656 4.429688 212.980469 L 4.46875 212.964844 L 4.5 212.957031 L 4.539062 212.941406 L 4.660156 212.910156 L 4.730469 212.894531 L 4.816406 212.894531 L 4.832031 212.886719 Z M 5.101562 212.886719 Z M 4.855469 213.371094 C 4.191406 213.449219 3.992188 214.25 3.945312 214.789062 L 3.945312 215.003906 L 3.929688 215.019531 L 3.929688 216.125 C 3.976562 216.695312 4.015625 217.433594 4.539062 217.816406 C 5.023438 218.148438 5.667969 217.773438 5.800781 217.257812 C 5.945312 216.878906 5.976562 216.503906 6.007812 216.125 L 6.007812 215.019531 C 5.960938 214.441406 5.882812 213.632812 5.214844 213.402344 L 5.160156 213.386719 L 5.144531 213.371094 L 5.070312 213.371094 L 5.054688 213.355469 L 4.875 213.355469 Z M 4.855469 213.371094 Z M 4.855469 213.371094 "/>
<path style=" stroke:none;fill-rule:nonzero;fill:rgb(0%,0%,0%);fill-opacity:1;" d="M 8.382812 217.601562 L 8.382812 218.234375 L 7.738281 218.234375 L 7.738281 217.601562 Z M 8.382812 217.601562 Z M 8.382812 217.601562 "/>
<path style=" stroke:none;fill-rule:nonzero;fill:rgb(0%,0%,0%);fill-opacity:1;" d="M 11.269531 212.886719 C 12.023438 212.941406 12.523438 213.632812 12.660156 214.332031 C 12.730469 214.648438 12.746094 214.949219 12.777344 215.265625 L 12.777344 216.078125 C 12.738281 216.902344 12.539062 217.988281 11.644531 218.324219 C 10.867188 218.632812 9.953125 218.148438 9.722656 217.355469 C 9.546875 216.933594 9.53125 216.503906 9.492188 216.078125 L 9.492188 215.265625 C 9.53125 214.441406 9.707031 213.347656 10.597656 212.980469 L 10.636719 212.964844 L 10.667969 212.957031 L 10.707031 212.941406 L 10.824219 212.910156 L 10.898438 212.894531 L 10.984375 212.894531 L 11 212.886719 Z M 11.269531 212.886719 Z M 11.023438 213.371094 C 10.359375 213.449219 10.160156 214.25 10.113281 214.789062 L 10.113281 215.003906 L 10.097656 215.019531 L 10.097656 216.125 C 10.144531 216.695312 10.183594 217.433594 10.707031 217.816406 C 11.191406 218.148438 11.835938 217.773438 11.96875 217.257812 C 12.113281 216.878906 12.144531 216.503906 12.175781 216.125 L 12.175781 215.019531 C 12.128906 214.441406 12.046875 213.632812 11.382812 213.402344 L 11.324219 213.386719 L 11.308594 213.371094 L 11.238281 213.371094 L 11.222656 213.355469 L 11.039062 213.355469 Z M 11.023438 213.371094 Z M 11.023438 213.371094 "/>
<path style=" stroke:none;fill-rule:nonzero;fill:rgb(0%,0%,0%);fill-opacity:1;" d="M 5.101562 174.222656 C 5.859375 174.277344 6.359375 174.96875 6.492188 175.667969 C 6.5625 175.984375 6.578125 176.285156 6.613281 176.605469 L 6.613281 177.414062 C 6.570312 178.238281 6.375 179.328125 5.476562 179.660156 C 4.699219 179.96875 3.785156 179.484375 3.554688 178.691406 C 3.382812 178.269531 3.363281 177.84375 3.324219 177.414062 L 3.324219 176.605469 C 3.363281 175.777344 3.539062 174.683594 4.429688 174.320312 L 4.46875 174.300781 L 4.5 174.292969 L 4.539062 174.277344 L 4.660156 174.246094 L 4.730469 174.230469 L 4.816406 174.230469 L 4.832031 174.222656 Z M 5.101562 174.222656 Z M 4.855469 174.707031 C 4.191406 174.785156 3.992188 175.589844 3.945312 176.128906 L 3.945312 176.34375 L 3.929688 176.359375 L 3.929688 177.460938 C 3.976562 178.03125 4.015625 178.769531 4.539062 179.152344 C 5.023438 179.484375 5.667969 179.113281 5.800781 178.597656 C 5.945312 178.214844 5.976562 177.84375 6.007812 177.460938 L 6.007812 176.359375 C 5.960938 175.777344 5.882812 174.96875 5.214844 174.738281 L 5.160156 174.722656 L 5.144531 174.707031 L 5.070312 174.707031 L 5.054688 174.691406 L 4.875 174.691406 Z M 4.855469 174.707031 Z M 4.855469 174.707031 "/>
<path style=" stroke:none;fill-rule:nonzero;fill:rgb(0%,0%,0%);fill-opacity:1;" d="M 8.382812 178.9375 L 8.382812 179.574219 L 7.738281 179.574219 L 7.738281 178.9375 Z M 8.382812 178.9375 Z M 8.382812 178.9375 "/>
<path style=" stroke:none;fill-rule:nonzero;fill:rgb(0%,0%,0%);fill-opacity:1;" d="M 11.183594 174.222656 C 12.105469 174.246094 12.835938 175.191406 12.691406 176.082031 C 12.597656 176.96875 11.761719 177.476562 11.167969 178.03125 L 10.914062 178.296875 L 10.882812 178.3125 L 10.5625 178.621094 L 10.539062 178.636719 L 10.222656 178.953125 L 10.191406 178.96875 L 10.121094 179.042969 L 10.136719 179.050781 L 12.707031 179.050781 L 12.707031 179.574219 L 9.5625 179.574219 L 9.5625 179.097656 L 10.84375 177.820312 C 11.453125 177.285156 12.167969 176.597656 12.054688 175.722656 C 11.992188 175.214844 11.5625 174.746094 11.039062 174.707031 C 10.507812 174.628906 10.039062 175.046875 9.921875 175.558594 L 9.90625 175.582031 L 9.890625 175.636719 L 9.867188 175.722656 L 9.816406 175.898438 L 9.808594 175.9375 C 9.699219 175.804688 9.578125 175.660156 9.492188 175.507812 C 9.652344 174.859375 10.175781 174.246094 10.867188 174.222656 Z M 11.183594 174.222656 Z M 11.183594 174.222656 "/>
<path style=" stroke:none;fill-rule:nonzero;fill:rgb(0%,0%,0%);fill-opacity:1;" d="M 5.101562 135.5625 C 5.859375 135.617188 6.359375 136.308594 6.492188 137.003906 C 6.5625 137.324219 6.578125 137.625 6.613281 137.941406 L 6.613281 138.75 C 6.570312 139.578125 6.375 140.664062 5.476562 140.996094 C 4.699219 141.308594 3.785156 140.824219 3.554688 140.03125 C 3.382812 139.609375 3.363281 139.179688 3.324219 138.75 L 3.324219 137.941406 C 3.363281 137.117188 3.539062 136.019531 4.429688 135.65625 L 4.46875 135.640625 L 4.5 135.632812 L 4.539062 135.617188 L 4.660156 135.585938 L 4.730469 135.570312 L 4.816406 135.570312 L 4.832031 135.5625 Z M 5.101562 135.5625 Z M 4.855469 136.046875 C 4.191406 136.125 3.992188 136.925781 3.945312 137.464844 L 3.945312 137.679688 L 3.929688 137.695312 L 3.929688 138.800781 C 3.976562 139.371094 4.015625 140.109375 4.539062 140.488281 C 5.023438 140.824219 5.667969 140.449219 5.800781 139.933594 C 5.945312 139.554688 5.976562 139.179688 6.007812 138.800781 L 6.007812 137.695312 C 5.960938 137.117188 5.882812 136.308594 5.214844 136.078125 L 5.160156 136.0625 L 5.144531 136.046875 L 5.070312 136.046875 L 5.054688 136.027344 L 4.875 136.027344 Z M 4.855469 136.046875 Z M 4.855469 136.046875 "/>
<path style=" stroke:none;fill-rule:nonzero;fill:rgb(0%,0%,0%);fill-opacity:1;" d="M 8.382812 140.273438 L 8.382812 140.910156 L 7.738281 140.910156 L 7.738281 140.273438 Z M 8.382812 140.273438 Z M 8.382812 140.273438 "/>
<path style=" stroke:none;fill-rule:nonzero;fill:rgb(0%,0%,0%);fill-opacity:1;" d="M 12.089844 135.726562 L 12.089844 139.070312 L 12.105469 139.085938 L 12.890625 139.085938 L 12.890625 139.5625 L 12.105469 139.5625 L 12.089844 139.570312 L 12.089844 140.910156 L 11.484375 140.910156 L 11.484375 139.570312 L 11.46875 139.5625 L 9.375 139.5625 L 9.375 139.070312 C 10.039062 137.957031 10.707031 136.839844 11.375 135.726562 Z M 12.089844 135.726562 Z M 11.5 136.027344 C 11.34375 136.855469 10.832031 137.5625 10.453125 138.28125 C 10.300781 138.546875 10.105469 138.832031 9.992188 139.085938 L 11.515625 139.085938 L 11.523438 139.070312 L 11.523438 136.027344 L 11.515625 136.011719 Z M 11.5 136.027344 Z M 11.5 136.027344 "/>
<path style=" stroke:none;fill-rule:nonzero;fill:rgb(0%,0%,0%);fill-opacity:1;" d="M 5.101562 96.898438 C 5.859375 96.953125 6.359375 97.644531 6.492188 98.34375 C 6.5625 98.660156 6.578125 98.960938 6.613281 99.28125 L 6.613281 100.089844 C 6.570312 100.914062 6.375 102 5.476562 102.335938 C 4.699219 102.644531 3.785156 102.160156 3.554688 101.367188 C 3.382812 100.945312 3.363281 100.515625 3.324219 100.089844 L 3.324219 99.28125 C 3.363281 98.453125 3.539062 97.359375 4.429688 96.992188 L 4.46875 96.976562 L 4.5 96.96875 L 4.539062 96.953125 L 4.660156 96.921875 L 4.730469 96.90625 L 4.816406 96.90625 L 4.832031 96.898438 Z M 5.101562 96.898438 Z M 4.855469 97.382812 C 4.191406 97.460938 3.992188 98.261719 3.945312 98.804688 L 3.945312 99.015625 L 3.929688 99.035156 L 3.929688 100.136719 C 3.976562 100.707031 4.015625 101.445312 4.539062 101.828125 C 5.023438 102.160156 5.667969 101.789062 5.800781 101.273438 C 5.945312 100.890625 5.976562 100.515625 6.007812 100.136719 L 6.007812 99.035156 C 5.960938 98.453125 5.882812 97.644531 5.214844 97.414062 L 5.160156 97.398438 L 5.144531 97.382812 L 5.070312 97.382812 L 5.054688 97.367188 L 4.875 97.367188 Z M 4.855469 97.382812 Z M 4.855469 97.382812 "/>
<path style=" stroke:none;fill-rule:nonzero;fill:rgb(0%,0%,0%);fill-opacity:1;" d="M 8.382812 101.613281 L 8.382812 102.246094 L 7.738281 102.246094 L 7.738281 101.613281 Z M 8.382812 101.613281 Z M 8.382812 101.613281 "/>
<path style=" stroke:none;fill-rule:nonzero;fill:rgb(0%,0%,0%);fill-opacity:1;" d="M 11.785156 96.898438 C 11.992188 96.929688 12.230469 96.953125 12.429688 97.050781 L 12.429688 97.507812 C 11.882812 97.269531 11.167969 97.238281 10.738281 97.722656 C 10.359375 98.128906 10.183594 98.730469 10.167969 99.261719 C 10.628906 98.652344 11.667969 98.3125 12.230469 98.945312 C 12.792969 99.597656 12.890625 100.535156 12.636719 101.328125 C 12.359375 101.960938 11.714844 102.542969 11 102.40625 C 10.03125 102.328125 9.597656 101.246094 9.546875 100.421875 C 9.367188 99.253906 9.644531 97.789062 10.753906 97.121094 L 10.769531 97.113281 L 10.9375 97.023438 L 10.984375 97.007812 L 11.007812 96.992188 L 11.253906 96.921875 L 11.324219 96.90625 L 11.414062 96.90625 L 11.429688 96.898438 Z M 11.785156 96.898438 Z M 11.007812 99.105469 C 10.316406 99.222656 10.097656 100.058594 10.183594 100.621094 C 10.222656 101.152344 10.429688 101.859375 11.039062 101.96875 C 11.691406 102.058594 12.113281 101.359375 12.128906 100.796875 C 12.160156 100.222656 12.128906 99.574219 11.628906 99.199219 L 11.515625 99.144531 L 11.429688 99.121094 L 11.359375 99.105469 L 11.34375 99.089844 L 11.023438 99.089844 Z M 11.007812 99.105469 Z M 11.007812 99.105469 "/>
<path style=" stroke:none;fill-rule:nonzero;fill:rgb(0%,0%,0%);fill-opacity:1;" d="M 5.101562 58.234375 C 5.859375 58.292969 6.359375 58.980469 6.492188 59.679688 C 6.5625 59.996094 6.578125 60.300781 6.613281 60.617188 L 6.613281 61.425781 C 6.570312 62.25 6.375 63.339844 5.476562 63.671875 C 4.699219 63.980469 3.785156 63.496094 3.554688 62.703125 C 3.382812 62.285156 3.363281 61.855469 3.324219 61.425781 L 3.324219 60.617188 C 3.363281 59.792969 3.539062 58.695312 4.429688 58.332031 L 4.46875 58.316406 L 4.5 58.308594 L 4.539062 58.292969 L 4.660156 58.257812 L 4.730469 58.242188 L 4.816406 58.242188 L 4.832031 58.234375 Z M 5.101562 58.234375 Z M 4.855469 58.71875 C 4.191406 58.800781 3.992188 59.601562 3.945312 60.140625 L 3.945312 60.355469 L 3.929688 60.371094 L 3.929688 61.472656 C 3.976562 62.046875 4.015625 62.785156 4.539062 63.164062 C 5.023438 63.496094 5.667969 63.125 5.800781 62.609375 C 5.945312 62.226562 5.976562 61.855469 6.007812 61.472656 L 6.007812 60.371094 C 5.960938 59.792969 5.882812 58.980469 5.214844 58.75 L 5.160156 58.734375 L 5.144531 58.71875 L 5.070312 58.71875 L 5.054688 58.703125 L 4.875 58.703125 Z M 4.855469 58.71875 Z M 4.855469 58.71875 "/>
<path style=" stroke:none;fill-rule:nonzero;fill:rgb(0%,0%,0%);fill-opacity:1;" d="M 8.382812 62.949219 L 8.382812 63.585938 L 7.738281 63.585938 L 7.738281 62.949219 Z M 8.382812 62.949219 Z M 8.382812 62.949219 "/>
<path style=" stroke:none;fill-rule:nonzero;fill:rgb(0%,0%,0%);fill-opacity:1;" d="M 11.285156 58.234375 C 12.128906 58.265625 12.921875 59.171875 12.589844 60.011719 C 12.445312 60.402344 12.046875 60.640625 11.722656 60.808594 C 12.53125 61.046875 13.023438 61.988281 12.660156 62.769531 C 12.277344 63.777344 10.832031 64.09375 10.039062 63.363281 C 9.316406 62.792969 9.292969 61.554688 10.097656 61.046875 C 10.214844 60.917969 10.4375 60.878906 10.539062 60.785156 C 9.851562 60.585938 9.382812 59.785156 9.707031 59.109375 C 9.96875 58.503906 10.644531 58.171875 11.285156 58.234375 Z M 11.285156 58.234375 Z M 10.984375 58.6875 C 10.398438 58.703125 9.984375 59.371094 10.183594 59.894531 C 10.414062 60.800781 11.929688 60.769531 12.105469 59.839844 C 12.261719 59.324219 11.851562 58.703125 11.285156 58.6875 L 11.269531 58.679688 L 11 58.679688 Z M 10.984375 58.6875 Z M 11 61.046875 C 10.308594 61.09375 9.96875 61.917969 10.152344 62.507812 C 10.269531 63.339844 11.460938 63.585938 11.929688 62.917969 C 12.382812 62.308594 12.160156 61.210938 11.34375 61.046875 L 11.269531 61.046875 L 11.253906 61.03125 L 11.007812 61.03125 Z M 11 61.046875 Z M 11 61.046875 "/>
<path style=" stroke:none;fill-rule:nonzero;fill:rgb(0%,0%,0%);fill-opacity:1;" d="M 5.347656 19.574219 L 5.347656 24.46875 L 5.355469 24.484375 L 6.332031 24.484375 L 6.332031 24.921875 L 3.753906 24.921875 L 3.753906 24.484375 L 4.730469 24.484375 L 4.746094 24.46875 L 4.746094 20.359375 C 4.414062 20.46875 4.0625 20.542969 3.714844 20.535156 L 3.714844 20.089844 C 4.238281 20.097656 4.808594 19.953125 5.207031 19.574219 Z M 5.347656 19.574219 Z M 5.347656 19.574219 "/>
<path style=" stroke:none;fill-rule:nonzero;fill:rgb(0%,0%,0%);fill-opacity:1;" d="M 8.382812 24.289062 L 8.382812 24.921875 L 7.738281 24.921875 L 7.738281 24.289062 Z M 8.382812 24.289062 Z M 8.382812 24.289062 "/>
<path style=" stroke:none;fill-rule:nonzero;fill:rgb(0%,0%,0%);fill-opacity:1;" d="M 11.269531 19.574219 C 12.023438 19.628906 12.523438 20.320312 12.660156 21.019531 C 12.730469 21.335938 12.746094 21.636719 12.777344 21.953125 L 12.777344 22.765625 C 12.738281 23.589844 12.539062 24.675781 11.644531 25.011719 C 10.867188 25.320312 9.953125 24.835938 9.722656 24.042969 C 9.546875 23.621094 9.53125 23.191406 9.492188 22.765625 L 9.492188 21.953125 C 9.53125 21.128906 9.707031 20.035156 10.597656 19.667969 L 10.636719 19.652344 L 10.667969 19.644531 L 10.707031 19.628906 L 10.824219 19.597656 L 10.898438 19.582031 L 10.984375 19.582031 L 11 19.574219 Z M 11.269531 19.574219 Z M 11.023438 20.058594 C 10.359375 20.136719 10.160156 20.9375 10.113281 21.476562 L 10.113281 21.691406 L 10.097656 21.707031 L 10.097656 22.8125 C 10.144531 23.382812 10.183594 24.121094 10.707031 24.503906 C 11.191406 24.835938 11.835938 24.460938 11.96875 23.945312 C 12.113281 23.566406 12.144531 23.191406 12.175781 22.8125 L 12.175781 21.707031 C 12.128906 21.128906 12.046875 20.320312 11.382812 20.089844 L 11.324219 20.074219 L 11.308594 20.058594 L 11.238281 20.058594 L 11.222656 20.042969 L 11.039062 20.042969 Z M 11.023438 20.058594 Z M 11.023438 20.058594 "/>
<path style="fill:none;stroke-width:0.02;stroke-linecap:butt;stroke-linejoin:miter;stroke:rgb(0%,0%,0%);stroke-opacity:1;stroke-miterlimit:10;" d="M 9.860001 1.792351 L 9.754995 1.792351 " transform="matrix(28.346457,0,0,-28.346457,1,227.771654)"/>
<path style="fill:none;stroke-width:0.02;stroke-linecap:butt;stroke-linejoin:miter;stroke:rgb(0%,0%,0%);stroke-opacity:1;stroke-miterlimit:10;" d="M 9.860001 3.156196 L 9.754995 3.156196 " transform="matrix(28.346457,0,0,-28.346457,1,227.771654)"/>
<path style="fill:none;stroke-width:0.02;stroke-linecap:butt;stroke-linejoin:miter;stroke:rgb(0%,0%,0%);stroke-opacity:1;stroke-miterlimit:10;" d="M 9.860001 4.520178 L 9.754995 4.520178 " transform="matrix(28.346457,0,0,-28.346457,1,227.771654)"/>
<path style="fill:none;stroke-width:0.02;stroke-linecap:butt;stroke-linejoin:miter;stroke:rgb(0%,0%,0%);stroke-opacity:1;stroke-miterlimit:10;" d="M 9.860001 5.88416 L 9.754995 5.88416 " transform="matrix(28.346457,0,0,-28.346457,1,227.771654)"/>
<path style="fill:none;stroke-width:0.02;stroke-linecap:butt;stroke-linejoin:miter;stroke:rgb(0%,0%,0%);stroke-opacity:1;stroke-miterlimit:10;" d="M 9.860001 7.248005 L 9.754995 7.248005 " transform="matrix(28.346457,0,0,-28.346457,1,227.771654)"/>
<path style="fill:none;stroke-width:0.02;stroke-linecap:round;stroke-linejoin:miter;stroke:rgb(0%,0%,0%);stroke-opacity:1;stroke-miterlimit:10;" d="M 9.860001 0.428369 L 9.860001 7.929996 " transform="matrix(28.346457,0,0,-28.346457,1,227.771654)"/>
<path style="fill:none;stroke-width:0.02;stroke-linecap:butt;stroke-linejoin:miter;stroke:rgb(0%,0%,0%);stroke-opacity:1;stroke-miterlimit:10;" d="M 2.145468 0.428369 L 2.145468 0.533376 " transform="matrix(28.346457,0,0,-28.346457,1,227.771654)"/>
<path style="fill:none;stroke-width:0.02;stroke-linecap:butt;stroke-linejoin:miter;stroke:rgb(0%,0%,0%);stroke-opacity:1;stroke-miterlimit:10;" d="M 3.688319 0.428369 L 3.688319 0.533376 " transform="matrix(28.346457,0,0,-28.346457,1,227.771654)"/>
<path style="fill:none;stroke-width:0.02;stroke-linecap:butt;stroke-linejoin:miter;stroke:rgb(0%,0%,0%);stroke-opacity:1;stroke-miterlimit:10;" d="M 5.231309 0.428369 L 5.231309 0.533376 " transform="matrix(28.346457,0,0,-28.346457,1,227.771654)"/>
<path style="fill:none;stroke-width:0.02;stroke-linecap:butt;stroke-linejoin:miter;stroke:rgb(0%,0%,0%);stroke-opacity:1;stroke-miterlimit:10;" d="M 6.77416 0.428369 L 6.77416 0.533376 " transform="matrix(28.346457,0,0,-28.346457,1,227.771654)"/>
<path style="fill:none;stroke-width:0.02;stroke-linecap:butt;stroke-linejoin:miter;stroke:rgb(0%,0%,0%);stroke-opacity:1;stroke-miterlimit:10;" d="M 8.31715 0.428369 L 8.31715 0.533376 " transform="matrix(28.346457,0,0,-28.346457,1,227.771654)"/>
<path style="fill:none;stroke-width:0.02;stroke-linecap:round;stroke-linejoin:miter;stroke:rgb(0%,0%,0%);stroke-opacity:1;stroke-miterlimit:10;" d="M 0.602616 0.428369 L 9.860001 0.428369 " transform="matrix(28.346457,0,0,-28.346457,1,227.771654)"/>
<path style=" stroke:none;fill-rule:nonzero;fill:rgb(0%,0%,0%);fill-opacity:1;" d="M 18.214844 220.445312 C 18.96875 220.5 19.46875 221.191406 19.605469 221.890625 C 19.675781 222.207031 19.691406 222.507812 19.722656 222.828125 L 19.722656 223.636719 C 19.683594 224.460938 19.484375 225.550781 18.589844 225.882812 C 17.8125 226.191406 16.898438 225.707031 16.667969 224.914062 C 16.492188 224.492188 16.476562 224.066406 16.4375 223.636719 L 16.4375 222.828125 C 16.476562 222 16.652344 220.90625 17.539062 220.542969 L 17.582031 220.523438 L 17.613281 220.515625 L 17.652344 220.5 L 17.769531 220.46875 L 17.84375 220.453125 L 17.929688 220.453125 L 17.945312 220.445312 Z M 18.214844 220.445312 Z M 17.96875 220.929688 C 17.300781 221.007812 17.105469 221.8125 17.054688 222.351562 L 17.054688 222.566406 L 17.039062 222.582031 L 17.039062 223.683594 C 17.089844 224.253906 17.128906 224.992188 17.652344 225.375 C 18.136719 225.707031 18.777344 225.335938 18.914062 224.820312 C 19.058594 224.4375 19.089844 224.066406 19.121094 223.683594 L 19.121094 222.582031 C 19.074219 222 18.992188 221.191406 18.328125 220.960938 L 18.269531 220.945312 L 18.253906 220.929688 L 18.183594 220.929688 L 18.167969 220.914062 L 17.984375 220.914062 Z M 17.96875 220.929688 Z M 17.96875 220.929688 "/>
<path style=" stroke:none;fill-rule:nonzero;fill:rgb(0%,0%,0%);fill-opacity:1;" d="M 62.199219 220.445312 L 62.199219 225.34375 L 62.207031 225.359375 L 63.179688 225.359375 L 63.179688 225.796875 L 60.601562 225.796875 L 60.601562 225.359375 L 61.578125 225.359375 L 61.59375 225.34375 L 61.59375 221.230469 C 61.261719 221.34375 60.910156 221.414062 60.5625 221.40625 L 60.5625 220.960938 C 61.085938 220.96875 61.65625 220.828125 62.054688 220.445312 Z M 62.199219 220.445312 Z M 62.199219 220.445312 "/>
<path style=" stroke:none;fill-rule:nonzero;fill:rgb(0%,0%,0%);fill-opacity:1;" d="M 105.601562 220.445312 C 106.519531 220.46875 107.25 221.414062 107.109375 222.304688 C 107.011719 223.191406 106.179688 223.699219 105.585938 224.253906 L 105.332031 224.515625 L 105.296875 224.535156 L 104.980469 224.84375 L 104.957031 224.859375 L 104.640625 225.175781 L 104.609375 225.191406 L 104.535156 225.261719 L 104.550781 225.273438 L 107.125 225.273438 L 107.125 225.796875 L 103.980469 225.796875 L 103.980469 225.320312 L 105.257812 224.042969 C 105.871094 223.507812 106.585938 222.820312 106.472656 221.945312 C 106.410156 221.4375 105.980469 220.96875 105.457031 220.929688 C 104.925781 220.851562 104.457031 221.269531 104.339844 221.777344 L 104.320312 221.804688 L 104.304688 221.859375 L 104.28125 221.945312 L 104.234375 222.121094 L 104.226562 222.160156 C 104.117188 222.023438 103.996094 221.882812 103.910156 221.730469 C 104.066406 221.082031 104.59375 220.46875 105.28125 220.445312 Z M 105.601562 220.445312 Z M 105.601562 220.445312 "/>
<path style=" stroke:none;fill-rule:nonzero;fill:rgb(0%,0%,0%);fill-opacity:1;" d="M 149.4375 220.445312 C 150.136719 220.476562 150.867188 221.121094 150.699219 221.859375 C 150.621094 222.359375 150.273438 222.769531 149.835938 222.992188 C 150.542969 223.214844 151.089844 223.960938 150.898438 224.699219 C 150.707031 225.660156 149.605469 226.191406 148.714844 225.898438 C 148.289062 225.773438 147.851562 225.5 147.644531 225.105469 C 147.691406 224.984375 147.675781 224.78125 147.734375 224.699219 C 148.152344 225.320312 149.042969 225.738281 149.742188 225.390625 C 150.503906 224.90625 150.382812 223.492188 149.460938 223.253906 L 149.390625 223.253906 L 149.375 223.238281 L 148.636719 223.238281 L 148.636719 222.761719 C 149.089844 222.753906 149.652344 222.699219 149.90625 222.230469 C 150.175781 221.828125 150.152344 221.160156 149.636719 220.960938 C 149.027344 220.722656 148.273438 221.113281 148.042969 221.730469 C 147.945312 221.597656 147.851562 221.460938 147.757812 221.320312 C 148.082031 220.730469 148.773438 220.382812 149.4375 220.445312 Z M 149.4375 220.445312 Z M 149.4375 220.445312 "/>
<path style=" stroke:none;fill-rule:nonzero;fill:rgb(0%,0%,0%);fill-opacity:1;" d="M 193.976562 220.613281 L 193.976562 223.953125 L 193.992188 223.96875 L 194.777344 223.96875 L 194.777344 224.445312 L 193.992188 224.445312 L 193.976562 224.453125 L 193.976562 225.796875 L 193.375 225.796875 L 193.375 224.453125 L 193.359375 224.445312 L 191.261719 224.445312 L 191.261719 223.953125 C 191.929688 222.84375 192.59375 221.722656 193.261719 220.613281 Z M 193.976562 220.613281 Z M 193.390625 220.914062 C 193.230469 221.738281 192.722656 222.445312 192.339844 223.167969 C 192.191406 223.429688 191.992188 223.714844 191.882812 223.96875 L 193.40625 223.96875 L 193.414062 223.953125 L 193.414062 220.914062 L 193.40625 220.898438 Z M 193.390625 220.914062 Z M 193.390625 220.914062 "/>
<path style=" stroke:none;fill-rule:nonzero;fill:rgb(0%,0%,0%);fill-opacity:1;" d="M 238.070312 220.613281 L 238.070312 221.105469 L 236.007812 221.105469 L 235.992188 221.113281 L 235.992188 222.738281 C 236.179688 222.613281 236.449219 222.445312 236.703125 222.4375 C 237.601562 222.34375 238.292969 223.222656 238.332031 224.042969 C 238.457031 225.082031 237.480469 226.113281 236.433594 225.953125 C 235.910156 225.9375 235.402344 225.628906 235.101562 225.199219 C 235.1875 225.082031 235.261719 224.875 235.363281 224.804688 C 235.734375 225.535156 236.941406 225.828125 237.425781 225.058594 C 237.738281 224.476562 237.726562 223.738281 237.371094 223.183594 C 236.957031 222.652344 236.140625 222.976562 235.949219 223.542969 L 235.433594 223.542969 L 235.433594 220.613281 Z M 238.070312 220.613281 Z M 238.070312 220.613281 "/>
<path style=" stroke:none;fill-rule:nonzero;fill:rgb(0%,0%,0%);fill-opacity:1;" d="M 281.148438 220.445312 C 281.351562 220.476562 281.589844 220.5 281.789062 220.597656 L 281.789062 221.058594 C 281.242188 220.820312 280.527344 220.785156 280.097656 221.269531 C 279.71875 221.675781 279.542969 222.277344 279.527344 222.8125 C 279.988281 222.199219 281.027344 221.859375 281.589844 222.492188 C 282.15625 223.144531 282.25 224.082031 281.996094 224.875 C 281.71875 225.507812 281.074219 226.089844 280.359375 225.953125 C 279.394531 225.875 278.957031 224.796875 278.910156 223.96875 C 278.726562 222.804688 279.003906 221.335938 280.113281 220.667969 L 280.132812 220.660156 L 280.296875 220.574219 L 280.34375 220.558594 L 280.367188 220.542969 L 280.503906 220.5 L 280.613281 220.46875 L 280.6875 220.453125 L 280.773438 220.453125 L 280.789062 220.445312 Z M 281.148438 220.445312 Z M 280.367188 222.652344 C 279.679688 222.769531 279.457031 223.605469 279.542969 224.167969 C 279.582031 224.699219 279.789062 225.40625 280.402344 225.515625 C 281.050781 225.605469 281.472656 224.90625 281.488281 224.34375 C 281.519531 223.769531 281.488281 223.121094 280.988281 222.746094 L 280.878906 222.691406 L 280.789062 222.667969 L 280.71875 222.652344 L 280.703125 222.636719 L 280.386719 222.636719 Z M 280.367188 222.652344 Z M 280.367188 222.652344 "/>
<path style="fill:none;stroke-width:0.02;stroke-linecap:butt;stroke-linejoin:miter;stroke:rgb(0%,0%,0%);stroke-opacity:1;stroke-miterlimit:10;" d="M 2.145468 7.929996 L 2.145468 7.824989 " transform="matrix(28.346457,0,0,-28.346457,1,227.771654)"/>
<path style="fill:none;stroke-width:0.02;stroke-linecap:butt;stroke-linejoin:miter;stroke:rgb(0%,0%,0%);stroke-opacity:1;stroke-miterlimit:10;" d="M 3.688319 7.929996 L 3.688319 7.824989 " transform="matrix(28.346457,0,0,-28.346457,1,227.771654)"/>
<path style="fill:none;stroke-width:0.02;stroke-linecap:butt;stroke-linejoin:miter;stroke:rgb(0%,0%,0%);stroke-opacity:1;stroke-miterlimit:10;" d="M 5.231309 7.929996 L 5.231309 7.824989 " transform="matrix(28.346457,0,0,-28.346457,1,227.771654)"/>
<path style="fill:none;stroke-width:0.02;stroke-linecap:butt;stroke-linejoin:miter;stroke:rgb(0%,0%,0%);stroke-opacity:1;stroke-miterlimit:10;" d="M 6.77416 7.929996 L 6.77416 7.824989 " transform="matrix(28.346457,0,0,-28.346457,1,227.771654)"/>
<path style="fill:none;stroke-width:0.02;stroke-linecap:butt;stroke-linejoin:miter;stroke:rgb(0%,0%,0%);stroke-opacity:1;stroke-miterlimit:10;" d="M 8.31715 7.929996 L 8.31715 7.824989 " transform="matrix(28.346457,0,0,-28.346457,1,227.771654)"/>
<path style="fill:none;stroke-width:0.02;stroke-linecap:round;stroke-linejoin:miter;stroke:rgb(0%,0%,0%);stroke-opacity:1;stroke-miterlimit:10;" d="M 0.602616 7.929996 L 9.860001 7.929996 " transform="matrix(28.346457,0,0,-28.346457,1,227.771654)"/>
<path style="fill:none;stroke-width:0.05;stroke-linecap:butt;stroke-linejoin:miter;stroke:rgb(81.960784%,36.862745%,36.078431%);stroke-opacity:1;stroke-miterlimit:10;" d="M 0.602616 7.248005 L 0.695358 6.850027 L 0.7881 6.475201 L 0.88098 6.122285 L 0.973722 5.789902 L 1.066464 5.477088 L 1.159344 5.182325 L 1.252086 4.904926 L 1.344827 4.64365 L 1.437707 4.397533 L 1.530449 4.165884 L 1.623191 3.947741 L 1.716071 3.742413 L 1.808813 3.548937 L 1.901555 3.36676 L 1.994435 3.195332 L 2.087177 3.033826 L 2.179919 2.881691 L 2.272798 2.738512 L 2.36554 2.60374 L 2.458282 2.476823 L 2.551162 2.357209 L 2.643904 2.244623 L 2.736646 2.138652 L 2.829526 2.038745 L 2.922268 1.944762 L 3.01501 1.856292 L 3.10789 1.772921 L 3.200632 1.694511 L 3.293373 1.620648 L 3.386253 1.551057 L 3.478995 1.485462 L 3.571737 1.423726 L 3.664617 1.365711 L 3.757359 1.311003 L 3.850101 1.259464 L 3.942981 1.210957 L 4.035723 1.165344 L 4.128465 1.122349 L 4.221344 1.081835 L 4.314086 1.043663 L 4.406828 1.007696 L 4.499708 0.973934 L 4.59245 0.942102 L 4.685192 0.912061 L 4.778072 0.883811 L 4.870814 0.857352 L 4.963556 0.832272 L 5.056436 0.808708 L 5.149178 0.786521 L 5.241919 0.765575 L 5.334799 0.745869 L 5.427541 0.727403 L 5.520283 0.709902 L 5.613163 0.693504 L 5.705905 0.67807 L 5.798647 0.663462 L 5.891527 0.649682 L 5.984269 0.636866 L 6.077011 0.624602 L 6.16989 0.613164 L 6.262632 0.602415 L 6.355374 0.592218 L 6.448254 0.582709 L 6.540996 0.573752 L 6.633738 0.565208 L 6.726618 0.557216 L 6.81936 0.549637 L 6.912102 0.542609 L 7.004982 0.535994 L 7.097724 0.529655 L 7.190465 0.523729 L 7.283345 0.518217 L 7.376087 0.512981 L 7.468829 0.50802 L 7.561571 0.503334 L 7.654451 0.499063 L 7.747193 0.494928 L 7.839935 0.490932 L 7.932815 0.487349 L 8.025557 0.483904 L 8.118299 0.480735 L 8.211178 0.477565 L 8.396662 0.472053 L 8.489542 0.469435 L 8.582284 0.467092 L 8.675026 0.464887 L 8.767906 0.462682 L 8.95339 0.458824 L 9.04627 0.457032 L 9.139012 0.455379 L 9.231753 0.453863 L 9.324633 0.452347 L 9.510117 0.449591 L 9.602997 0.448351 L 9.788481 0.446146 " transform="matrix(28.346457,0,0,-28.346457,1,227.771654)"/>
</g>
</svg>
