<?xml version="1.0" encoding="UTF-8"?>
<svg xmlns="http://www.w3.org/2000/svg" xmlns:xlink="http://www.w3.org/1999/xlink" width="285.464567pt" height="228.771654pt" viewBox="0 0 285.464567 228.771654" version="1.1">
<g id="surface1">
<path style="fill-rule:nonzero;fill:rgb(96.078431%,87.058824%,70.196078%);fill-opacity:1;stroke-width:0.02;stroke-linecap:butt;stroke-linejoin:miter;stroke:rgb(100%,0%,0%);stroke-opacity:1;stroke-miterlimit:10;" d="M 0.929625 0.428369 L 1.964531 0.428369 L 1.964531 0.724785 L 0.929625 0.724785 Z M 0.929625 0.428369 " transform="matrix(28.346457,0,0,-28.346457,1,227.771654)"/>
<path style="fill-rule:nonzero;fill:rgb(96.078431%,87.058824%,70.196078%);fill-opacity:1;stroke-width:0.02;stroke-linecap:butt;stroke-linejoin:miter;stroke:rgb(100%,0%,0%);stroke-opacity:1;stroke-miterlimit:10;" d="M 1.964531 0.428369 L 2.9993 0.428369 L 2.9993 1.614033 L 1.964531 1.614033 Z M 1.964531 0.428369 " transform="matrix(28.346457,0,0,-28.346457,1,227.771654)"/>
<path style="fill-rule:nonzero;fill:rgb(96.078431%,87.058824%,70.196078%);fill-opacity:1;stroke-width:0.02;stroke-linecap:butt;stroke-linejoin:miter;stroke:rgb(100%,0%,0%);stroke-opacity:1;stroke-miterlimit:10;" d="M 2.9993 0.428369 L 4.034069 0.428369 L 4.034069 1.910311 L 2.9993 1.910311 Z M 2.9993 0.428369 " transform="matrix(28.346457,0,0,-28.346457,1,227.771654)"/>
<path style="fill-rule:nonzero;fill:rgb(96.078431%,87.058824%,70.196078%);fill-opacity:1;stroke-width:0.02;stroke-linecap:butt;stroke-linejoin:miter;stroke:rgb(100%,0%,0%);stroke-opacity:1;stroke-miterlimit:10;" d="M 4.034069 0.428369 L 5.068838 0.428369 L 5.068838 6.949108 L 4.034069 6.949108 Z M 4.034069 0.428369 " transform="matrix(28.346457,0,0,-28.346457,1,227.771654)"/>
<path style="fill-rule:nonzero;fill:rgb(96.078431%,87.058824%,70.196078%);fill-opacity:1;stroke-width:0.02;stroke-linecap:butt;stroke-linejoin:miter;stroke:rgb(100%,0%,0%);stroke-opacity:1;stroke-miterlimit:10;" d="M 5.068838 0.428369 L 6.103607 0.428369 L 6.103607 6.05986 L 5.068838 6.05986 Z M 5.068838 0.428369 " transform="matrix(28.346457,0,0,-28.346457,1,227.771654)"/>
<path style="fill-rule:nonzero;fill:rgb(96.078431%,87.058824%,70.196078%);fill-opacity:1;stroke-width:0.02;stroke-linecap:butt;stroke-linejoin:miter;stroke:rgb(100%,0%,0%);stroke-opacity:1;stroke-miterlimit:10;" d="M 6.103607 0.428369 L 7.138513 0.428369 L 7.138513 7.245524 L 6.103607 7.245524 Z M 6.103607 0.428369 " transform="matrix(28.346457,0,0,-28.346457,1,227.771654)"/>
<path style="fill-rule:nonzero;fill:rgb(96.078431%,87.058824%,70.196078%);fill-opacity:1;stroke-width:0.02;stroke-linecap:butt;stroke-linejoin:miter;stroke:rgb(100%,0%,0%);stroke-opacity:1;stroke-miterlimit:10;" d="M 7.138513 0.428369 L 8.173282 0.428369 L 8.173282 3.688808 L 7.138513 3.688808 Z M 7.138513 0.428369 " transform="matrix(28.346457,0,0,-28.346457,1,227.771654)"/>
<path style="fill-rule:nonzero;fill:rgb(96.078431%,87.058824%,70.196078%);fill-opacity:1;stroke-width:0.02;stroke-linecap:butt;stroke-linejoin:miter;stroke:rgb(100%,0%,0%);stroke-opacity:1;stroke-miterlimit:10;" d="M 8.173282 0.428369 L 9.208051 0.428369 L 9.208051 4.874334 L 8.173282 4.874334 Z M 8.173282 0.428369 " transform="matrix(28.346457,0,0,-28.346457,1,227.771654)"/>
<path style="fill:none;stroke-width:0.02;stroke-linecap:butt;stroke-linejoin:miter;stroke:rgb(0%,0%,0%);stroke-opacity:1;stroke-miterlimit:10;" d="M 0.525033 1.910311 L 0.630039 1.910311 " transform="matrix(28.346457,0,0,-28.346457,1,227.771654)"/>
<path style="fill:none;stroke-width:0.02;stroke-linecap:butt;stroke-linejoin:miter;stroke:rgb(0%,0%,0%);stroke-opacity:1;stroke-miterlimit:10;" d="M 0.525033 3.392391 L 0.630039 3.392391 " transform="matrix(28.346457,0,0,-28.346457,1,227.771654)"/>
<path style="fill:none;stroke-width:0.02;stroke-linecap:butt;stroke-linejoin:miter;stroke:rgb(0%,0%,0%);stroke-opacity:1;stroke-miterlimit:10;" d="M 0.525033 4.874334 L 0.630039 4.874334 " transform="matrix(28.346457,0,0,-28.346457,1,227.771654)"/>
<path style="fill:none;stroke-width:0.02;stroke-linecap:butt;stroke-linejoin:miter;stroke:rgb(0%,0%,0%);stroke-opacity:1;stroke-miterlimit:10;" d="M 0.525033 6.356276 L 0.630039 6.356276 " transform="matrix(28.346457,0,0,-28.346457,1,227.771654)"/>
<path style="fill:none;stroke-width:0.02;stroke-linecap:round;stroke-linejoin:miter;stroke:rgb(0%,0%,0%);stroke-opacity:1;stroke-miterlimit:10;" d="M 0.525033 0.428369 L 0.525033 7.838356 " transform="matrix(28.346457,0,0,-28.346457,1,227.771654)"/>
<path style=" stroke:none;fill-rule:nonzero;fill:rgb(0%,0%,0%);fill-opacity:1;" d="M 9.070312 212.886719 C 9.824219 212.941406 10.324219 213.632812 10.460938 214.332031 C 10.53125 214.648438 10.546875 214.949219 10.578125 215.265625 L 10.578125 216.078125 C 10.539062 216.902344 10.34375 217.988281 9.445312 218.324219 C 8.667969 218.632812 7.753906 218.148438 7.523438 217.355469 C 7.347656 216.933594 7.332031 216.503906 7.292969 216.078125 L 7.292969 215.265625 C 7.332031 214.441406 7.507812 213.347656 8.398438 212.980469 L 8.4375 212.964844 L 8.46875 212.957031 L 8.507812 212.941406 L 8.628906 212.910156 L 8.699219 212.894531 L 8.785156 212.894531 L 8.800781 212.886719 Z M 9.070312 212.886719 Z M 8.824219 213.371094 C 8.160156 213.449219 7.960938 214.25 7.914062 214.789062 L 7.914062 215.003906 L 7.898438 215.019531 L 7.898438 216.125 C 7.945312 216.695312 7.984375 217.433594 8.507812 217.816406 C 8.992188 218.148438 9.636719 217.773438 9.769531 217.257812 C 9.914062 216.878906 9.945312 216.503906 9.976562 216.125 L 9.976562 215.019531 C 9.929688 214.441406 9.851562 213.632812 9.183594 213.402344 L 9.128906 213.386719 L 9.113281 213.371094 L 9.039062 213.371094 L 9.023438 213.355469 L 8.839844 213.355469 Z M 8.824219 213.371094 Z M 8.824219 213.371094 "/>
<path style=" stroke:none;fill-rule:nonzero;fill:rgb(0%,0%,0%);fill-opacity:1;" d="M 10.246094 171.042969 L 10.246094 171.535156 L 8.183594 171.535156 L 8.167969 171.542969 L 8.167969 173.171875 C 8.359375 173.042969 8.628906 172.878906 8.882812 172.867188 C 9.777344 172.773438 10.46875 173.65625 10.507812 174.472656 C 10.636719 175.511719 9.660156 176.542969 8.613281 176.386719 C 8.085938 176.371094 7.578125 176.058594 7.277344 175.632812 C 7.367188 175.511719 7.4375 175.304688 7.539062 175.234375 C 7.914062 175.964844 9.121094 176.257812 9.605469 175.488281 C 9.914062 174.910156 9.90625 174.171875 9.546875 173.613281 C 9.136719 173.082031 8.316406 173.410156 8.128906 173.972656 L 7.613281 173.972656 L 7.613281 171.042969 Z M 10.246094 171.042969 Z M 10.246094 171.042969 "/>
<path style=" stroke:none;fill-rule:nonzero;fill:rgb(0%,0%,0%);fill-opacity:1;" d="M 5.347656 128.867188 L 5.347656 133.765625 L 5.355469 133.78125 L 6.332031 133.78125 L 6.332031 134.21875 L 3.753906 134.21875 L 3.753906 133.78125 L 4.730469 133.78125 L 4.746094 133.765625 L 4.746094 129.652344 C 4.414062 129.765625 4.0625 129.835938 3.714844 129.828125 L 3.714844 129.382812 C 4.238281 129.390625 4.808594 129.25 5.207031 128.867188 Z M 5.347656 128.867188 Z M 5.347656 128.867188 "/>
<path style=" stroke:none;fill-rule:nonzero;fill:rgb(0%,0%,0%);fill-opacity:1;" d="M 9.070312 128.867188 C 9.824219 128.921875 10.324219 129.613281 10.460938 130.3125 C 10.53125 130.628906 10.546875 130.933594 10.578125 131.25 L 10.578125 132.058594 C 10.539062 132.882812 10.34375 133.972656 9.445312 134.304688 C 8.667969 134.613281 7.753906 134.128906 7.523438 133.335938 C 7.347656 132.914062 7.332031 132.488281 7.292969 132.058594 L 7.292969 131.25 C 7.332031 130.421875 7.507812 129.328125 8.398438 128.964844 L 8.4375 128.949219 L 8.46875 128.941406 L 8.507812 128.921875 L 8.628906 128.890625 L 8.699219 128.875 L 8.785156 128.875 L 8.800781 128.867188 Z M 9.070312 128.867188 Z M 8.824219 129.351562 C 8.160156 129.429688 7.960938 130.234375 7.914062 130.773438 L 7.914062 130.988281 L 7.898438 131.003906 L 7.898438 132.105469 C 7.945312 132.679688 7.984375 133.414062 8.507812 133.796875 C 8.992188 134.128906 9.636719 133.757812 9.769531 133.242188 C 9.914062 132.859375 9.945312 132.488281 9.976562 132.105469 L 9.976562 131.003906 C 9.929688 130.421875 9.851562 129.613281 9.183594 129.382812 L 9.128906 129.367188 L 9.113281 129.351562 L 9.039062 129.351562 L 9.023438 129.335938 L 8.839844 129.335938 Z M 8.824219 129.351562 Z M 8.824219 129.351562 "/>
<path style=" stroke:none;fill-rule:nonzero;fill:rgb(0%,0%,0%);fill-opacity:1;" d="M 5.347656 86.859375 L 5.347656 91.757812 L 5.355469 91.773438 L 6.332031 91.773438 L 6.332031 92.207031 L 3.753906 92.207031 L 3.753906 91.773438 L 4.730469 91.773438 L 4.746094 91.757812 L 4.746094 87.644531 C 4.414062 87.757812 4.0625 87.828125 3.714844 87.820312 L 3.714844 87.375 C 4.238281 87.382812 4.808594 87.238281 5.207031 86.859375 Z M 5.347656 86.859375 Z M 5.347656 86.859375 "/>
<path style=" stroke:none;fill-rule:nonzero;fill:rgb(0%,0%,0%);fill-opacity:1;" d="M 10.246094 87.027344 L 10.246094 87.519531 L 8.183594 87.519531 L 8.167969 87.527344 L 8.167969 89.152344 C 8.359375 89.027344 8.628906 88.859375 8.882812 88.851562 C 9.777344 88.757812 10.46875 89.636719 10.507812 90.453125 C 10.636719 91.496094 9.660156 92.527344 8.613281 92.367188 C 8.085938 92.351562 7.578125 92.042969 7.277344 91.613281 C 7.367188 91.496094 7.4375 91.289062 7.539062 91.214844 C 7.914062 91.945312 9.121094 92.242188 9.605469 91.46875 C 9.914062 90.890625 9.90625 90.152344 9.546875 89.597656 C 9.136719 89.066406 8.316406 89.390625 8.128906 89.953125 L 7.613281 89.953125 L 7.613281 87.027344 Z M 10.246094 87.027344 Z M 10.246094 87.027344 "/>
<path style=" stroke:none;fill-rule:nonzero;fill:rgb(0%,0%,0%);fill-opacity:1;" d="M 5.015625 44.851562 C 5.9375 44.875 6.667969 45.820312 6.523438 46.707031 C 6.429688 47.597656 5.59375 48.105469 5 48.660156 L 4.746094 48.921875 L 4.714844 48.9375 L 4.398438 49.246094 L 4.375 49.261719 L 4.054688 49.582031 L 4.023438 49.597656 L 3.953125 49.667969 L 3.96875 49.675781 L 6.539062 49.675781 L 6.539062 50.199219 L 3.398438 50.199219 L 3.398438 49.722656 L 4.675781 48.445312 C 5.285156 47.914062 6 47.222656 5.890625 46.351562 C 5.824219 45.84375 5.398438 45.375 4.875 45.335938 C 4.339844 45.253906 3.875 45.675781 3.753906 46.183594 L 3.738281 46.207031 L 3.722656 46.261719 L 3.699219 46.351562 L 3.652344 46.523438 L 3.644531 46.566406 C 3.53125 46.429688 3.414062 46.285156 3.324219 46.136719 C 3.484375 45.484375 4.007812 44.875 4.699219 44.851562 Z M 5.015625 44.851562 Z M 5.015625 44.851562 "/>
<path style=" stroke:none;fill-rule:nonzero;fill:rgb(0%,0%,0%);fill-opacity:1;" d="M 9.070312 44.851562 C 9.824219 44.90625 10.324219 45.597656 10.460938 46.292969 C 10.53125 46.613281 10.546875 46.914062 10.578125 47.230469 L 10.578125 48.039062 C 10.539062 48.867188 10.34375 49.953125 9.445312 50.289062 C 8.667969 50.597656 7.753906 50.113281 7.523438 49.320312 C 7.347656 48.898438 7.332031 48.46875 7.292969 48.039062 L 7.292969 47.230469 C 7.332031 46.40625 7.507812 45.3125 8.398438 44.945312 L 8.4375 44.929688 L 8.46875 44.921875 L 8.507812 44.90625 L 8.628906 44.875 L 8.699219 44.859375 L 8.785156 44.859375 L 8.800781 44.851562 Z M 9.070312 44.851562 Z M 8.824219 45.335938 C 8.160156 45.414062 7.960938 46.214844 7.914062 46.753906 L 7.914062 46.96875 L 7.898438 46.984375 L 7.898438 48.089844 C 7.945312 48.660156 7.984375 49.398438 8.507812 49.777344 C 8.992188 50.113281 9.636719 49.738281 9.769531 49.222656 C 9.914062 48.84375 9.945312 48.46875 9.976562 48.089844 L 9.976562 46.984375 C 9.929688 46.40625 9.851562 45.597656 9.183594 45.367188 L 9.128906 45.351562 L 9.113281 45.335938 L 9.039062 45.335938 L 9.023438 45.320312 L 8.839844 45.320312 Z M 8.824219 45.335938 Z M 8.824219 45.335938 "/>
<path style=" stroke:none;fill-rule:nonzero;fill:rgb(0%,0%,0%);fill-opacity:1;" d="M 5.015625 2.839844 C 5.9375 2.863281 6.667969 3.808594 6.523438 4.699219 C 6.429688 5.585938 5.59375 6.09375 5 6.652344 L 4.746094 6.914062 L 4.714844 6.929688 L 4.398438 7.238281 L 4.375 7.253906 L 4.054688 7.570312 L 4.023438 7.585938 L 3.953125 7.660156 L 3.96875 7.667969 L 6.539062 7.667969 L 6.539062 8.191406 L 3.398438 8.191406 L 3.398438 7.714844 L 4.675781 6.4375 C 5.285156 5.90625 6 5.214844 5.890625 4.339844 C 5.824219 3.832031 5.398438 3.363281 4.875 3.324219 C 4.339844 3.246094 3.875 3.667969 3.753906 4.175781 L 3.738281 4.199219 L 3.722656 4.253906 L 3.699219 4.339844 L 3.652344 4.515625 L 3.644531 4.554688 C 3.53125 4.421875 3.414062 4.277344 3.324219 4.128906 C 3.484375 3.476562 4.007812 2.863281 4.699219 2.839844 Z M 5.015625 2.839844 Z M 5.015625 2.839844 "/>
<path style=" stroke:none;fill-rule:nonzero;fill:rgb(0%,0%,0%);fill-opacity:1;" d="M 10.246094 3.007812 L 10.246094 3.5 L 8.183594 3.5 L 8.167969 3.507812 L 8.167969 5.136719 C 8.359375 5.007812 8.628906 4.839844 8.882812 4.832031 C 9.777344 4.738281 10.46875 5.621094 10.507812 6.4375 C 10.636719 7.476562 9.660156 8.507812 8.613281 8.351562 C 8.085938 8.332031 7.578125 8.023438 7.277344 7.59375 C 7.367188 7.476562 7.4375 7.269531 7.539062 7.199219 C 7.914062 7.929688 9.121094 8.222656 9.605469 7.453125 C 9.914062 6.875 9.90625 6.136719 9.546875 5.578125 C 9.136719 5.046875 8.316406 5.375 8.128906 5.9375 L 7.613281 5.9375 L 7.613281 3.007812 Z M 10.246094 3.007812 Z M 10.246094 3.007812 "/>
<path style="fill:none;stroke-width:0.02;stroke-linecap:butt;stroke-linejoin:miter;stroke:rgb(0%,0%,0%);stroke-opacity:1;stroke-miterlimit:10;" d="M 9.751274 1.910311 L 9.646267 1.910311 " transform="matrix(28.346457,0,0,-28.346457,1,227.771654)"/>
<path style="fill:none;stroke-width:0.02;stroke-linecap:butt;stroke-linejoin:miter;stroke:rgb(0%,0%,0%);stroke-opacity:1;stroke-miterlimit:10;" d="M 9.751274 3.392391 L 9.646267 3.392391 " transform="matrix(28.346457,0,0,-28.346457,1,227.771654)"/>
<path style="fill:none;stroke-width:0.02;stroke-linecap:butt;stroke-linejoin:miter;stroke:rgb(0%,0%,0%);stroke-opacity:1;stroke-miterlimit:10;" d="M 9.751274 4.874334 L 9.646267 4.874334 " transform="matrix(28.346457,0,0,-28.346457,1,227.771654)"/>
<path style="fill:none;stroke-width:0.02;stroke-linecap:butt;stroke-linejoin:miter;stroke:rgb(0%,0%,0%);stroke-opacity:1;stroke-miterlimit:10;" d="M 9.751274 6.356276 L 9.646267 6.356276 " transform="matrix(28.346457,0,0,-28.346457,1,227.771654)"/>
<path style="fill:none;stroke-width:0.02;stroke-linecap:round;stroke-linejoin:miter;stroke:rgb(0%,0%,0%);stroke-opacity:1;stroke-miterlimit:10;" d="M 9.751274 0.428369 L 9.751274 7.838356 " transform="matrix(28.346457,0,0,-28.346457,1,227.771654)"/>
<path style="fill:none;stroke-width:0.02;stroke-linecap:butt;stroke-linejoin:miter;stroke:rgb(0%,0%,0%);stroke-opacity:1;stroke-miterlimit:10;" d="M 1.447629 0.428369 L 1.447629 0.533376 " transform="matrix(28.346457,0,0,-28.346457,1,227.771654)"/>
<path style="fill:none;stroke-width:0.02;stroke-linecap:butt;stroke-linejoin:miter;stroke:rgb(0%,0%,0%);stroke-opacity:1;stroke-miterlimit:10;" d="M 2.370226 0.428369 L 2.370226 0.533376 " transform="matrix(28.346457,0,0,-28.346457,1,227.771654)"/>
<path style="fill:none;stroke-width:0.02;stroke-linecap:butt;stroke-linejoin:miter;stroke:rgb(0%,0%,0%);stroke-opacity:1;stroke-miterlimit:10;" d="M 3.292822 0.428369 L 3.292822 0.533376 " transform="matrix(28.346457,0,0,-28.346457,1,227.771654)"/>
<path style="fill:none;stroke-width:0.02;stroke-linecap:butt;stroke-linejoin:miter;stroke:rgb(0%,0%,0%);stroke-opacity:1;stroke-miterlimit:10;" d="M 4.215557 0.428369 L 4.215557 0.533376 " transform="matrix(28.346457,0,0,-28.346457,1,227.771654)"/>
<path style="fill:none;stroke-width:0.02;stroke-linecap:butt;stroke-linejoin:miter;stroke:rgb(0%,0%,0%);stroke-opacity:1;stroke-miterlimit:10;" d="M 5.138153 0.428369 L 5.138153 0.533376 " transform="matrix(28.346457,0,0,-28.346457,1,227.771654)"/>
<path style="fill:none;stroke-width:0.02;stroke-linecap:butt;stroke-linejoin:miter;stroke:rgb(0%,0%,0%);stroke-opacity:1;stroke-miterlimit:10;" d="M 6.06075 0.428369 L 6.06075 0.533376 " transform="matrix(28.346457,0,0,-28.346457,1,227.771654)"/>
<path style="fill:none;stroke-width:0.02;stroke-linecap:butt;stroke-linejoin:miter;stroke:rgb(0%,0%,0%);stroke-opacity:1;stroke-miterlimit:10;" d="M 6.983346 0.428369 L 6.983346 0.533376 " transform="matrix(28.346457,0,0,-28.346457,1,227.771654)"/>
<path style="fill:none;stroke-width:0.02;stroke-linecap:butt;stroke-linejoin:miter;stroke:rgb(0%,0%,0%);stroke-opacity:1;stroke-miterlimit:10;" d="M 7.905943 0.428369 L 7.905943 0.533376 " transform="matrix(28.346457,0,0,-28.346457,1,227.771654)"/>
<path style="fill:none;stroke-width:0.02;stroke-linecap:butt;stroke-linejoin:miter;stroke:rgb(0%,0%,0%);stroke-opacity:1;stroke-miterlimit:10;" d="M 8.828539 0.428369 L 8.828539 0.533376 " transform="matrix(28.346457,0,0,-28.346457,1,227.771654)"/>
<path style="fill:none;stroke-width:0.02;stroke-linecap:round;stroke-linejoin:miter;stroke:rgb(0%,0%,0%);stroke-opacity:1;stroke-miterlimit:10;" d="M 0.525033 0.428369 L 9.751274 0.428369 " transform="matrix(28.346457,0,0,-28.346457,1,227.771654)"/>
<path style=" stroke:none;fill-rule:nonzero;fill:rgb(0%,0%,0%);fill-opacity:1;" d="M 11.667969 223.828125 L 11.667969 224.269531 L 9.585938 224.269531 L 9.585938 223.828125 Z M 11.667969 223.828125 Z M 11.667969 223.828125 "/>
<path style=" stroke:none;fill-rule:nonzero;fill:rgb(0%,0%,0%);fill-opacity:1;" d="M 14.269531 220.445312 C 14.96875 220.476562 15.699219 221.121094 15.53125 221.859375 C 15.453125 222.359375 15.105469 222.769531 14.667969 222.992188 C 15.375 223.214844 15.921875 223.960938 15.730469 224.699219 C 15.539062 225.660156 14.4375 226.191406 13.546875 225.898438 C 13.121094 225.773438 12.683594 225.5 12.476562 225.105469 C 12.523438 224.984375 12.507812 224.78125 12.5625 224.699219 C 12.984375 225.320312 13.875 225.738281 14.574219 225.390625 C 15.335938 224.90625 15.214844 223.492188 14.292969 223.253906 L 14.222656 223.253906 L 14.207031 223.238281 L 13.46875 223.238281 L 13.46875 222.761719 C 13.921875 222.753906 14.484375 222.699219 14.738281 222.230469 C 15.007812 221.828125 14.984375 221.160156 14.46875 220.960938 C 13.859375 220.722656 13.105469 221.113281 12.875 221.730469 C 12.777344 221.597656 12.683594 221.460938 12.589844 221.320312 C 12.914062 220.730469 13.605469 220.382812 14.269531 220.445312 Z M 14.269531 220.445312 Z M 14.269531 220.445312 "/>
<path style=" stroke:none;fill-rule:nonzero;fill:rgb(0%,0%,0%);fill-opacity:1;" d="M 17.53125 225.160156 L 17.53125 225.796875 L 16.890625 225.796875 L 16.890625 225.160156 Z M 17.53125 225.160156 Z M 17.53125 225.160156 "/>
<path style=" stroke:none;fill-rule:nonzero;fill:rgb(0%,0%,0%);fill-opacity:1;" d="M 20.421875 220.445312 C 21.175781 220.5 21.675781 221.191406 21.8125 221.890625 C 21.882812 222.207031 21.898438 222.507812 21.929688 222.828125 L 21.929688 223.636719 C 21.890625 224.460938 21.691406 225.550781 20.792969 225.882812 C 20.015625 226.191406 19.105469 225.707031 18.875 224.914062 C 18.699219 224.492188 18.683594 224.066406 18.644531 223.636719 L 18.644531 222.828125 C 18.683594 222 18.859375 220.90625 19.746094 220.542969 L 19.785156 220.523438 L 19.820312 220.515625 L 19.859375 220.5 L 19.976562 220.46875 L 20.046875 220.453125 L 20.136719 220.453125 L 20.152344 220.445312 Z M 20.421875 220.445312 Z M 20.175781 220.929688 C 19.507812 221.007812 19.3125 221.8125 19.261719 222.351562 L 19.261719 222.566406 L 19.246094 222.582031 L 19.246094 223.683594 C 19.292969 224.253906 19.335938 224.992188 19.859375 225.375 C 20.34375 225.707031 20.984375 225.335938 21.121094 224.820312 C 21.261719 224.4375 21.296875 224.066406 21.328125 223.683594 L 21.328125 222.582031 C 21.277344 222 21.199219 221.191406 20.53125 220.960938 L 20.476562 220.945312 L 20.460938 220.929688 L 20.390625 220.929688 L 20.375 220.914062 L 20.191406 220.914062 Z M 20.175781 220.929688 Z M 20.175781 220.929688 "/>
<path style=" stroke:none;fill-rule:nonzero;fill:rgb(0%,0%,0%);fill-opacity:1;" d="M 37.820312 223.828125 L 37.820312 224.269531 L 35.742188 224.269531 L 35.742188 223.828125 Z M 37.820312 223.828125 Z M 37.820312 223.828125 "/>
<path style=" stroke:none;fill-rule:nonzero;fill:rgb(0%,0%,0%);fill-opacity:1;" d="M 40.320312 220.445312 C 41.242188 220.46875 41.972656 221.414062 41.828125 222.304688 C 41.734375 223.191406 40.898438 223.699219 40.304688 224.253906 L 40.050781 224.515625 L 40.019531 224.535156 L 39.703125 224.84375 L 39.675781 224.859375 L 39.359375 225.175781 L 39.328125 225.191406 L 39.257812 225.261719 L 39.273438 225.273438 L 41.84375 225.273438 L 41.84375 225.796875 L 38.703125 225.796875 L 38.703125 225.320312 L 39.980469 224.042969 C 40.589844 223.507812 41.304688 222.820312 41.195312 221.945312 C 41.128906 221.4375 40.703125 220.96875 40.175781 220.929688 C 39.644531 220.851562 39.175781 221.269531 39.058594 221.777344 L 39.042969 221.804688 L 39.027344 221.859375 L 39.003906 221.945312 L 38.957031 222.121094 L 38.949219 222.160156 C 38.835938 222.023438 38.71875 221.882812 38.628906 221.730469 C 38.789062 221.082031 39.3125 220.46875 40.003906 220.445312 Z M 40.320312 220.445312 Z M 40.320312 220.445312 "/>
<path style=" stroke:none;fill-rule:nonzero;fill:rgb(0%,0%,0%);fill-opacity:1;" d="M 43.6875 225.160156 L 43.6875 225.796875 L 43.042969 225.796875 L 43.042969 225.160156 Z M 43.6875 225.160156 Z M 43.6875 225.160156 "/>
<path style=" stroke:none;fill-rule:nonzero;fill:rgb(0%,0%,0%);fill-opacity:1;" d="M 47.75 220.613281 L 47.75 221.105469 L 45.6875 221.105469 L 45.671875 221.113281 L 45.671875 222.738281 C 45.859375 222.613281 46.128906 222.445312 46.382812 222.4375 C 47.28125 222.34375 47.972656 223.222656 48.011719 224.042969 C 48.136719 225.082031 47.164062 226.113281 46.113281 225.953125 C 45.589844 225.9375 45.082031 225.628906 44.78125 225.199219 C 44.867188 225.082031 44.941406 224.875 45.042969 224.804688 C 45.417969 225.535156 46.621094 225.828125 47.105469 225.058594 C 47.417969 224.476562 47.410156 223.738281 47.050781 223.183594 C 46.636719 222.652344 45.820312 222.976562 45.628906 223.542969 L 45.113281 223.542969 L 45.113281 220.613281 Z M 47.75 220.613281 Z M 47.75 220.613281 "/>
<path style=" stroke:none;fill-rule:nonzero;fill:rgb(0%,0%,0%);fill-opacity:1;" d="M 63.972656 223.828125 L 63.972656 224.269531 L 61.894531 224.269531 L 61.894531 223.828125 Z M 63.972656 223.828125 Z M 63.972656 223.828125 "/>
<path style=" stroke:none;fill-rule:nonzero;fill:rgb(0%,0%,0%);fill-opacity:1;" d="M 66.472656 220.445312 C 67.394531 220.46875 68.125 221.414062 67.980469 222.304688 C 67.886719 223.191406 67.054688 223.699219 66.457031 224.253906 L 66.203125 224.515625 L 66.171875 224.535156 L 65.855469 224.84375 L 65.832031 224.859375 L 65.511719 225.175781 L 65.480469 225.191406 L 65.410156 225.261719 L 65.425781 225.273438 L 67.996094 225.273438 L 67.996094 225.796875 L 64.855469 225.796875 L 64.855469 225.320312 L 66.132812 224.042969 C 66.742188 223.507812 67.457031 222.820312 67.347656 221.945312 C 67.28125 221.4375 66.855469 220.96875 66.332031 220.929688 C 65.800781 220.851562 65.332031 221.269531 65.210938 221.777344 L 65.195312 221.804688 L 65.179688 221.859375 L 65.15625 221.945312 L 65.109375 222.121094 L 65.101562 222.160156 C 64.988281 222.023438 64.871094 221.882812 64.78125 221.730469 C 64.941406 221.082031 65.464844 220.46875 66.15625 220.445312 Z M 66.472656 220.445312 Z M 66.472656 220.445312 "/>
<path style=" stroke:none;fill-rule:nonzero;fill:rgb(0%,0%,0%);fill-opacity:1;" d="M 69.839844 225.160156 L 69.839844 225.796875 L 69.195312 225.796875 L 69.195312 225.160156 Z M 69.839844 225.160156 Z M 69.839844 225.160156 "/>
<path style=" stroke:none;fill-rule:nonzero;fill:rgb(0%,0%,0%);fill-opacity:1;" d="M 72.726562 220.445312 C 73.480469 220.5 73.980469 221.191406 74.117188 221.890625 C 74.1875 222.207031 74.203125 222.507812 74.234375 222.828125 L 74.234375 223.636719 C 74.195312 224.460938 73.996094 225.550781 73.101562 225.882812 C 72.324219 226.191406 71.410156 225.707031 71.179688 224.914062 C 71.003906 224.492188 70.988281 224.066406 70.949219 223.636719 L 70.949219 222.828125 C 70.988281 222 71.164062 220.90625 72.054688 220.542969 L 72.09375 220.523438 L 72.125 220.515625 L 72.164062 220.5 L 72.285156 220.46875 L 72.355469 220.453125 L 72.441406 220.453125 L 72.457031 220.445312 Z M 72.726562 220.445312 Z M 72.480469 220.929688 C 71.816406 221.007812 71.617188 221.8125 71.570312 222.351562 L 71.570312 222.566406 L 71.554688 222.582031 L 71.554688 223.683594 C 71.601562 224.253906 71.640625 224.992188 72.164062 225.375 C 72.648438 225.707031 73.292969 225.335938 73.425781 224.820312 C 73.570312 224.4375 73.601562 224.066406 73.632812 223.683594 L 73.632812 222.582031 C 73.585938 222 73.503906 221.191406 72.839844 220.960938 L 72.785156 220.945312 L 72.769531 220.929688 L 72.695312 220.929688 L 72.679688 220.914062 L 72.496094 220.914062 Z M 72.480469 220.929688 Z M 72.480469 220.929688 "/>
<path style=" stroke:none;fill-rule:nonzero;fill:rgb(0%,0%,0%);fill-opacity:1;" d="M 90.125 223.828125 L 90.125 224.269531 L 88.046875 224.269531 L 88.046875 223.828125 Z M 90.125 223.828125 Z M 90.125 223.828125 "/>
<path style=" stroke:none;fill-rule:nonzero;fill:rgb(0%,0%,0%);fill-opacity:1;" d="M 92.960938 220.445312 L 92.960938 225.34375 L 92.96875 225.359375 L 93.945312 225.359375 L 93.945312 225.796875 L 91.363281 225.796875 L 91.363281 225.359375 L 92.339844 225.359375 L 92.355469 225.34375 L 92.355469 221.230469 C 92.023438 221.34375 91.675781 221.414062 91.324219 221.40625 L 91.324219 220.960938 C 91.847656 220.96875 92.421875 220.828125 92.816406 220.445312 Z M 92.960938 220.445312 Z M 92.960938 220.445312 "/>
<path style=" stroke:none;fill-rule:nonzero;fill:rgb(0%,0%,0%);fill-opacity:1;" d="M 95.992188 225.160156 L 95.992188 225.796875 L 95.347656 225.796875 L 95.347656 225.160156 Z M 95.992188 225.160156 Z M 95.992188 225.160156 "/>
<path style=" stroke:none;fill-rule:nonzero;fill:rgb(0%,0%,0%);fill-opacity:1;" d="M 100.054688 220.613281 L 100.054688 221.105469 L 97.992188 221.105469 L 97.976562 221.113281 L 97.976562 222.738281 C 98.167969 222.613281 98.4375 222.445312 98.691406 222.4375 C 99.585938 222.34375 100.277344 223.222656 100.316406 224.042969 C 100.445312 225.082031 99.46875 226.113281 98.421875 225.953125 C 97.898438 225.9375 97.390625 225.628906 97.085938 225.199219 C 97.175781 225.082031 97.246094 224.875 97.347656 224.804688 C 97.722656 225.535156 98.929688 225.828125 99.414062 225.058594 C 99.722656 224.476562 99.714844 223.738281 99.355469 223.183594 C 98.945312 222.652344 98.128906 222.976562 97.9375 223.542969 L 97.421875 223.542969 L 97.421875 220.613281 Z M 100.054688 220.613281 Z M 100.054688 220.613281 "/>
<path style=" stroke:none;fill-rule:nonzero;fill:rgb(0%,0%,0%);fill-opacity:1;" d="M 116.28125 223.828125 L 116.28125 224.269531 L 114.199219 224.269531 L 114.199219 223.828125 Z M 116.28125 223.828125 Z M 116.28125 223.828125 "/>
<path style=" stroke:none;fill-rule:nonzero;fill:rgb(0%,0%,0%);fill-opacity:1;" d="M 119.113281 220.445312 L 119.113281 225.34375 L 119.121094 225.359375 L 120.097656 225.359375 L 120.097656 225.796875 L 117.519531 225.796875 L 117.519531 225.359375 L 118.492188 225.359375 L 118.511719 225.34375 L 118.511719 221.230469 C 118.175781 221.34375 117.828125 221.414062 117.476562 221.40625 L 117.476562 220.960938 C 118 220.96875 118.574219 220.828125 118.96875 220.445312 Z M 119.113281 220.445312 Z M 119.113281 220.445312 "/>
<path style=" stroke:none;fill-rule:nonzero;fill:rgb(0%,0%,0%);fill-opacity:1;" d="M 122.144531 225.160156 L 122.144531 225.796875 L 121.503906 225.796875 L 121.503906 225.160156 Z M 122.144531 225.160156 Z M 122.144531 225.160156 "/>
<path style=" stroke:none;fill-rule:nonzero;fill:rgb(0%,0%,0%);fill-opacity:1;" d="M 125.035156 220.445312 C 125.789062 220.5 126.289062 221.191406 126.421875 221.890625 C 126.496094 222.207031 126.511719 222.507812 126.542969 222.828125 L 126.542969 223.636719 C 126.503906 224.460938 126.304688 225.550781 125.40625 225.882812 C 124.628906 226.191406 123.714844 225.707031 123.488281 224.914062 C 123.3125 224.492188 123.296875 224.066406 123.257812 223.636719 L 123.257812 222.828125 C 123.296875 222 123.46875 220.90625 124.359375 220.542969 L 124.398438 220.523438 L 124.429688 220.515625 L 124.46875 220.5 L 124.589844 220.46875 L 124.660156 220.453125 L 124.75 220.453125 L 124.765625 220.445312 Z M 125.035156 220.445312 Z M 124.789062 220.929688 C 124.121094 221.007812 123.921875 221.8125 123.875 222.351562 L 123.875 222.566406 L 123.859375 222.582031 L 123.859375 223.683594 C 123.90625 224.253906 123.945312 224.992188 124.46875 225.375 C 124.953125 225.707031 125.597656 225.335938 125.734375 224.820312 C 125.875 224.4375 125.90625 224.066406 125.9375 223.683594 L 125.9375 222.582031 C 125.890625 222 125.8125 221.191406 125.144531 220.960938 L 125.089844 220.945312 L 125.074219 220.929688 L 125.003906 220.929688 L 124.988281 220.914062 L 124.804688 220.914062 Z M 124.789062 220.929688 Z M 124.789062 220.929688 "/>
<path style=" stroke:none;fill-rule:nonzero;fill:rgb(0%,0%,0%);fill-opacity:1;" d="M 142.433594 223.828125 L 142.433594 224.269531 L 140.351562 224.269531 L 140.351562 223.828125 Z M 142.433594 223.828125 Z M 142.433594 223.828125 "/>
<path style=" stroke:none;fill-rule:nonzero;fill:rgb(0%,0%,0%);fill-opacity:1;" d="M 145.019531 220.445312 C 145.773438 220.5 146.273438 221.191406 146.410156 221.890625 C 146.480469 222.207031 146.496094 222.507812 146.527344 222.828125 L 146.527344 223.636719 C 146.488281 224.460938 146.289062 225.550781 145.394531 225.882812 C 144.617188 226.191406 143.703125 225.707031 143.472656 224.914062 C 143.296875 224.492188 143.28125 224.066406 143.242188 223.636719 L 143.242188 222.828125 C 143.28125 222 143.457031 220.90625 144.34375 220.542969 L 144.386719 220.523438 L 144.417969 220.515625 L 144.457031 220.5 L 144.574219 220.46875 L 144.648438 220.453125 L 144.734375 220.453125 L 144.75 220.445312 Z M 145.019531 220.445312 Z M 144.773438 220.929688 C 144.105469 221.007812 143.910156 221.8125 143.859375 222.351562 L 143.859375 222.566406 L 143.84375 222.582031 L 143.84375 223.683594 C 143.894531 224.253906 143.933594 224.992188 144.457031 225.375 C 144.941406 225.707031 145.582031 225.335938 145.71875 224.820312 C 145.863281 224.4375 145.894531 224.066406 145.925781 223.683594 L 145.925781 222.582031 C 145.878906 222 145.796875 221.191406 145.132812 220.960938 L 145.074219 220.945312 L 145.058594 220.929688 L 144.988281 220.929688 L 144.972656 220.914062 L 144.789062 220.914062 Z M 144.773438 220.929688 Z M 144.773438 220.929688 "/>
<path style=" stroke:none;fill-rule:nonzero;fill:rgb(0%,0%,0%);fill-opacity:1;" d="M 148.296875 225.160156 L 148.296875 225.796875 L 147.65625 225.796875 L 147.65625 225.160156 Z M 148.296875 225.160156 Z M 148.296875 225.160156 "/>
<path style=" stroke:none;fill-rule:nonzero;fill:rgb(0%,0%,0%);fill-opacity:1;" d="M 152.363281 220.613281 L 152.363281 221.105469 L 150.296875 221.105469 L 150.28125 221.113281 L 150.28125 222.738281 C 150.472656 222.613281 150.742188 222.445312 150.996094 222.4375 C 151.894531 222.34375 152.585938 223.222656 152.625 224.042969 C 152.75 225.082031 151.773438 226.113281 150.726562 225.953125 C 150.203125 225.9375 149.695312 225.628906 149.394531 225.199219 C 149.480469 225.082031 149.550781 224.875 149.65625 224.804688 C 150.027344 225.535156 151.234375 225.828125 151.71875 225.058594 C 152.027344 224.476562 152.019531 223.738281 151.664062 223.183594 C 151.25 222.652344 150.433594 222.976562 150.242188 223.542969 L 149.726562 223.542969 L 149.726562 220.613281 Z M 152.363281 220.613281 Z M 152.363281 220.613281 "/>
<path style=" stroke:none;fill-rule:nonzero;fill:rgb(0%,0%,0%);fill-opacity:1;" d="M 169.851562 220.445312 C 170.605469 220.5 171.105469 221.191406 171.242188 221.890625 C 171.3125 222.207031 171.328125 222.507812 171.359375 222.828125 L 171.359375 223.636719 C 171.320312 224.460938 171.121094 225.550781 170.226562 225.882812 C 169.445312 226.191406 168.535156 225.707031 168.304688 224.914062 C 168.128906 224.492188 168.113281 224.066406 168.074219 223.636719 L 168.074219 222.828125 C 168.113281 222 168.289062 220.90625 169.175781 220.542969 L 169.214844 220.523438 L 169.25 220.515625 L 169.289062 220.5 L 169.40625 220.46875 L 169.480469 220.453125 L 169.566406 220.453125 L 169.582031 220.445312 Z M 169.851562 220.445312 Z M 169.605469 220.929688 C 168.9375 221.007812 168.742188 221.8125 168.691406 222.351562 L 168.691406 222.566406 L 168.675781 222.582031 L 168.675781 223.683594 C 168.726562 224.253906 168.765625 224.992188 169.289062 225.375 C 169.773438 225.707031 170.414062 225.335938 170.550781 224.820312 C 170.691406 224.4375 170.726562 224.066406 170.757812 223.683594 L 170.757812 222.582031 C 170.707031 222 170.628906 221.191406 169.960938 220.960938 L 169.90625 220.945312 L 169.890625 220.929688 L 169.820312 220.929688 L 169.804688 220.914062 L 169.621094 220.914062 Z M 169.605469 220.929688 Z M 169.605469 220.929688 "/>
<path style=" stroke:none;fill-rule:nonzero;fill:rgb(0%,0%,0%);fill-opacity:1;" d="M 173.128906 225.160156 L 173.128906 225.796875 L 172.488281 225.796875 L 172.488281 225.160156 Z M 173.128906 225.160156 Z M 173.128906 225.160156 "/>
<path style=" stroke:none;fill-rule:nonzero;fill:rgb(0%,0%,0%);fill-opacity:1;" d="M 176.019531 220.445312 C 176.773438 220.5 177.273438 221.191406 177.40625 221.890625 C 177.480469 222.207031 177.496094 222.507812 177.527344 222.828125 L 177.527344 223.636719 C 177.488281 224.460938 177.289062 225.550781 176.390625 225.882812 C 175.613281 226.191406 174.703125 225.707031 174.472656 224.914062 C 174.296875 224.492188 174.28125 224.066406 174.242188 223.636719 L 174.242188 222.828125 C 174.28125 222 174.457031 220.90625 175.34375 220.542969 L 175.382812 220.523438 L 175.414062 220.515625 L 175.457031 220.5 L 175.574219 220.46875 L 175.644531 220.453125 L 175.734375 220.453125 L 175.75 220.445312 Z M 176.019531 220.445312 Z M 175.773438 220.929688 C 175.105469 221.007812 174.90625 221.8125 174.859375 222.351562 L 174.859375 222.566406 L 174.84375 222.582031 L 174.84375 223.683594 C 174.890625 224.253906 174.929688 224.992188 175.457031 225.375 C 175.9375 225.707031 176.582031 225.335938 176.71875 224.820312 C 176.859375 224.4375 176.890625 224.066406 176.921875 223.683594 L 176.921875 222.582031 C 176.875 222 176.796875 221.191406 176.128906 220.960938 L 176.074219 220.945312 L 176.058594 220.929688 L 175.988281 220.929688 L 175.972656 220.914062 L 175.789062 220.914062 Z M 175.773438 220.929688 Z M 175.773438 220.929688 "/>
<path style=" stroke:none;fill-rule:nonzero;fill:rgb(0%,0%,0%);fill-opacity:1;" d="M 196.003906 220.445312 C 196.757812 220.5 197.257812 221.191406 197.394531 221.890625 C 197.464844 222.207031 197.480469 222.507812 197.511719 222.828125 L 197.511719 223.636719 C 197.472656 224.460938 197.273438 225.550781 196.378906 225.882812 C 195.601562 226.191406 194.6875 225.707031 194.457031 224.914062 C 194.28125 224.492188 194.265625 224.066406 194.226562 223.636719 L 194.226562 222.828125 C 194.265625 222 194.441406 220.90625 195.332031 220.542969 L 195.371094 220.523438 L 195.402344 220.515625 L 195.441406 220.5 L 195.558594 220.46875 L 195.632812 220.453125 L 195.71875 220.453125 L 195.734375 220.445312 Z M 196.003906 220.445312 Z M 195.757812 220.929688 C 195.09375 221.007812 194.894531 221.8125 194.847656 222.351562 L 194.847656 222.566406 L 194.828125 222.582031 L 194.828125 223.683594 C 194.878906 224.253906 194.917969 224.992188 195.441406 225.375 C 195.925781 225.707031 196.566406 225.335938 196.703125 224.820312 C 196.847656 224.4375 196.878906 224.066406 196.910156 223.683594 L 196.910156 222.582031 C 196.863281 222 196.78125 221.191406 196.117188 220.960938 L 196.058594 220.945312 L 196.042969 220.929688 L 195.972656 220.929688 L 195.957031 220.914062 L 195.773438 220.914062 Z M 195.757812 220.929688 Z M 195.757812 220.929688 "/>
<path style=" stroke:none;fill-rule:nonzero;fill:rgb(0%,0%,0%);fill-opacity:1;" d="M 199.28125 225.160156 L 199.28125 225.796875 L 198.640625 225.796875 L 198.640625 225.160156 Z M 199.28125 225.160156 Z M 199.28125 225.160156 "/>
<path style=" stroke:none;fill-rule:nonzero;fill:rgb(0%,0%,0%);fill-opacity:1;" d="M 203.347656 220.613281 L 203.347656 221.105469 L 201.28125 221.105469 L 201.265625 221.113281 L 201.265625 222.738281 C 201.457031 222.613281 201.726562 222.445312 201.980469 222.4375 C 202.878906 222.34375 203.570312 223.222656 203.609375 224.042969 C 203.734375 225.082031 202.757812 226.113281 201.710938 225.953125 C 201.1875 225.9375 200.679688 225.628906 200.378906 225.199219 C 200.464844 225.082031 200.535156 224.875 200.640625 224.804688 C 201.011719 225.535156 202.21875 225.828125 202.703125 225.058594 C 203.011719 224.476562 203.003906 223.738281 202.648438 223.183594 C 202.234375 222.652344 201.417969 222.976562 201.226562 223.542969 L 200.710938 223.542969 L 200.710938 220.613281 Z M 203.347656 220.613281 Z M 203.347656 220.613281 "/>
<path style=" stroke:none;fill-rule:nonzero;fill:rgb(0%,0%,0%);fill-opacity:1;" d="M 222.402344 220.445312 L 222.402344 225.34375 L 222.410156 225.359375 L 223.386719 225.359375 L 223.386719 225.796875 L 220.808594 225.796875 L 220.808594 225.359375 L 221.785156 225.359375 L 221.800781 225.34375 L 221.800781 221.230469 C 221.46875 221.34375 221.117188 221.414062 220.769531 221.40625 L 220.769531 220.960938 C 221.292969 220.96875 221.863281 220.828125 222.261719 220.445312 Z M 222.402344 220.445312 Z M 222.402344 220.445312 "/>
<path style=" stroke:none;fill-rule:nonzero;fill:rgb(0%,0%,0%);fill-opacity:1;" d="M 225.4375 225.160156 L 225.4375 225.796875 L 224.792969 225.796875 L 224.792969 225.160156 Z M 225.4375 225.160156 Z M 225.4375 225.160156 "/>
<path style=" stroke:none;fill-rule:nonzero;fill:rgb(0%,0%,0%);fill-opacity:1;" d="M 228.324219 220.445312 C 229.078125 220.5 229.578125 221.191406 229.714844 221.890625 C 229.785156 222.207031 229.800781 222.507812 229.832031 222.828125 L 229.832031 223.636719 C 229.792969 224.460938 229.59375 225.550781 228.699219 225.882812 C 227.921875 226.191406 227.007812 225.707031 226.777344 224.914062 C 226.601562 224.492188 226.585938 224.066406 226.546875 223.636719 L 226.546875 222.828125 C 226.585938 222 226.761719 220.90625 227.648438 220.542969 L 227.691406 220.523438 L 227.722656 220.515625 L 227.761719 220.5 L 227.878906 220.46875 L 227.953125 220.453125 L 228.039062 220.453125 L 228.054688 220.445312 Z M 228.324219 220.445312 Z M 228.078125 220.929688 C 227.410156 221.007812 227.214844 221.8125 227.167969 222.351562 L 227.167969 222.566406 L 227.148438 222.582031 L 227.148438 223.683594 C 227.199219 224.253906 227.238281 224.992188 227.761719 225.375 C 228.246094 225.707031 228.886719 225.335938 229.023438 224.820312 C 229.167969 224.4375 229.199219 224.066406 229.230469 223.683594 L 229.230469 222.582031 C 229.183594 222 229.101562 221.191406 228.4375 220.960938 L 228.378906 220.945312 L 228.363281 220.929688 L 228.292969 220.929688 L 228.277344 220.914062 L 228.09375 220.914062 Z M 228.078125 220.929688 Z M 228.078125 220.929688 "/>
<path style=" stroke:none;fill-rule:nonzero;fill:rgb(0%,0%,0%);fill-opacity:1;" d="M 248.558594 220.445312 L 248.558594 225.34375 L 248.566406 225.359375 L 249.542969 225.359375 L 249.542969 225.796875 L 246.960938 225.796875 L 246.960938 225.359375 L 247.9375 225.359375 L 247.953125 225.34375 L 247.953125 221.230469 C 247.621094 221.34375 247.269531 221.414062 246.921875 221.40625 L 246.921875 220.960938 C 247.445312 220.96875 248.015625 220.828125 248.414062 220.445312 Z M 248.558594 220.445312 Z M 248.558594 220.445312 "/>
<path style=" stroke:none;fill-rule:nonzero;fill:rgb(0%,0%,0%);fill-opacity:1;" d="M 251.589844 225.160156 L 251.589844 225.796875 L 250.945312 225.796875 L 250.945312 225.160156 Z M 251.589844 225.160156 Z M 251.589844 225.160156 "/>
<path style=" stroke:none;fill-rule:nonzero;fill:rgb(0%,0%,0%);fill-opacity:1;" d="M 255.652344 220.613281 L 255.652344 221.105469 L 253.589844 221.105469 L 253.574219 221.113281 L 253.574219 222.738281 C 253.761719 222.613281 254.035156 222.445312 254.289062 222.4375 C 255.183594 222.34375 255.875 223.222656 255.914062 224.042969 C 256.042969 225.082031 255.066406 226.113281 254.019531 225.953125 C 253.492188 225.9375 252.984375 225.628906 252.683594 225.199219 C 252.769531 225.082031 252.84375 224.875 252.945312 224.804688 C 253.320312 225.535156 254.527344 225.828125 255.007812 225.058594 C 255.320312 224.476562 255.3125 223.738281 254.953125 223.183594 C 254.542969 222.652344 253.722656 222.976562 253.535156 223.542969 L 253.015625 223.542969 L 253.015625 220.613281 Z M 255.652344 220.613281 Z M 255.652344 220.613281 "/>
<path style=" stroke:none;fill-rule:nonzero;fill:rgb(0%,0%,0%);fill-opacity:1;" d="M 274.375 220.445312 C 275.296875 220.46875 276.027344 221.414062 275.882812 222.304688 C 275.789062 223.191406 274.957031 223.699219 274.359375 224.253906 L 274.105469 224.515625 L 274.074219 224.535156 L 273.757812 224.84375 L 273.734375 224.859375 L 273.417969 225.175781 L 273.382812 225.191406 L 273.3125 225.261719 L 273.328125 225.273438 L 275.902344 225.273438 L 275.902344 225.796875 L 272.757812 225.796875 L 272.757812 225.320312 L 274.035156 224.042969 C 274.648438 223.507812 275.359375 222.820312 275.25 221.945312 C 275.1875 221.4375 274.757812 220.96875 274.234375 220.929688 C 273.703125 220.851562 273.234375 221.269531 273.113281 221.777344 L 273.097656 221.804688 L 273.082031 221.859375 L 273.058594 221.945312 L 273.011719 222.121094 L 273.003906 222.160156 C 272.890625 222.023438 272.773438 221.882812 272.6875 221.730469 C 272.84375 221.082031 273.367188 220.46875 274.058594 220.445312 Z M 274.375 220.445312 Z M 274.375 220.445312 "/>
<path style=" stroke:none;fill-rule:nonzero;fill:rgb(0%,0%,0%);fill-opacity:1;" d="M 277.742188 225.160156 L 277.742188 225.796875 L 277.097656 225.796875 L 277.097656 225.160156 Z M 277.742188 225.160156 Z M 277.742188 225.160156 "/>
<path style=" stroke:none;fill-rule:nonzero;fill:rgb(0%,0%,0%);fill-opacity:1;" d="M 280.632812 220.445312 C 281.386719 220.5 281.886719 221.191406 282.019531 221.890625 C 282.089844 222.207031 282.105469 222.507812 282.140625 222.828125 L 282.140625 223.636719 C 282.097656 224.460938 281.902344 225.550781 281.003906 225.882812 C 280.226562 226.191406 279.3125 225.707031 279.082031 224.914062 C 278.910156 224.492188 278.894531 224.066406 278.851562 223.636719 L 278.851562 222.828125 C 278.894531 222 279.066406 220.90625 279.957031 220.542969 L 279.996094 220.523438 L 280.027344 220.515625 L 280.066406 220.5 L 280.1875 220.46875 L 280.257812 220.453125 L 280.34375 220.453125 L 280.359375 220.445312 Z M 280.632812 220.445312 Z M 280.386719 220.929688 C 279.71875 221.007812 279.519531 221.8125 279.472656 222.351562 L 279.472656 222.566406 L 279.457031 222.582031 L 279.457031 223.683594 C 279.503906 224.253906 279.542969 224.992188 280.066406 225.375 C 280.550781 225.707031 281.195312 225.335938 281.328125 224.820312 C 281.472656 224.4375 281.503906 224.066406 281.535156 223.683594 L 281.535156 222.582031 C 281.488281 222 281.410156 221.191406 280.742188 220.960938 L 280.6875 220.945312 L 280.671875 220.929688 L 280.597656 220.929688 L 280.582031 220.914062 L 280.402344 220.914062 Z M 280.386719 220.929688 Z M 280.386719 220.929688 "/>
<path style="fill:none;stroke-width:0.02;stroke-linecap:butt;stroke-linejoin:miter;stroke:rgb(0%,0%,0%);stroke-opacity:1;stroke-miterlimit:10;" d="M 1.447629 7.838356 L 1.447629 7.73335 " transform="matrix(28.346457,0,0,-28.346457,1,227.771654)"/>
<path style="fill:none;stroke-width:0.02;stroke-linecap:butt;stroke-linejoin:miter;stroke:rgb(0%,0%,0%);stroke-opacity:1;stroke-miterlimit:10;" d="M 2.370226 7.838356 L 2.370226 7.73335 " transform="matrix(28.346457,0,0,-28.346457,1,227.771654)"/>
<path style="fill:none;stroke-width:0.02;stroke-linecap:butt;stroke-linejoin:miter;stroke:rgb(0%,0%,0%);stroke-opacity:1;stroke-miterlimit:10;" d="M 3.292822 7.838356 L 3.292822 7.73335 " transform="matrix(28.346457,0,0,-28.346457,1,227.771654)"/>
<path style="fill:none;stroke-width:0.02;stroke-linecap:butt;stroke-linejoin:miter;stroke:rgb(0%,0%,0%);stroke-opacity:1;stroke-miterlimit:10;" d="M 4.215557 7.838356 L 4.215557 7.73335 " transform="matrix(28.346457,0,0,-28.346457,1,227.771654)"/>
<path style="fill:none;stroke-width:0.02;stroke-linecap:butt;stroke-linejoin:miter;stroke:rgb(0%,0%,0%);stroke-opacity:1;stroke-miterlimit:10;" d="M 5.138153 7.838356 L 5.138153 7.73335 " transform="matrix(28.346457,0,0,-28.346457,1,227.771654)"/>
<path style="fill:none;stroke-width:0.02;stroke-linecap:butt;stroke-linejoin:miter;stroke:rgb(0%,0%,0%);stroke-opacity:1;stroke-miterlimit:10;" d="M 6.06075 7.838356 L 6.06075 7.73335 " transform="matrix(28.346457,0,0,-28.346457,1,227.771654)"/>
<path style="fill:none;stroke-width:0.02;stroke-linecap:butt;stroke-linejoin:miter;stroke:rgb(0%,0%,0%);stroke-opacity:1;stroke-miterlimit:10;" d="M 6.983346 7.838356 L 6.983346 7.73335 " transform="matrix(28.346457,0,0,-28.346457,1,227.771654)"/>
<path style="fill:none;stroke-width:0.02;stroke-linecap:butt;stroke-linejoin:miter;stroke:rgb(0%,0%,0%);stroke-opacity:1;stroke-miterlimit:10;" d="M 7.905943 7.838356 L 7.905943 7.73335 " transform="matrix(28.346457,0,0,-28.346457,1,227.771654)"/>
<path style="fill:none;stroke-width:0.02;stroke-linecap:butt;stroke-linejoin:miter;stroke:rgb(0%,0%,0%);stroke-opacity:1;stroke-miterlimit:10;" d="M 8.828539 7.838356 L 8.828539 7.73335 " transform="matrix(28.346457,0,0,-28.346457,1,227.771654)"/>
<path style="fill:none;stroke-width:0.02;stroke-linecap:round;stroke-linejoin:miter;stroke:rgb(0%,0%,0%);stroke-opacity:1;stroke-miterlimit:10;" d="M 0.525033 7.838356 L 9.751274 7.838356 " transform="matrix(28.346457,0,0,-28.346457,1,227.771654)"/>
</g>
</svg>
