<?xml version="1.0" encoding="UTF-8"?>
<svg xmlns="http://www.w3.org/2000/svg" xmlns:xlink="http://www.w3.org/1999/xlink" width="285.464567pt" height="228.771654pt" viewBox="0 0 285.464567 228.771654" version="1.1">
<g id="surface1">
<path style="fill-rule:nonzero;fill:rgb(100%,100%,100%);fill-opacity:1;stroke-width:0.02;stroke-linecap:butt;stroke-linejoin:miter;stroke:rgb(32.941176%,47.058824%,63.921569%);stroke-opacity:1;stroke-miterlimit:10;" d="M 0.478179 1.222119 L 2.650932 1.222119 L 2.650932 1.942558 L 0.478179 1.942558 Z M 0.478179 1.222119 " transform="matrix(28.346457,0,0,-28.346457,1,227.771654)"/>
<path style="fill-rule:nonzero;fill:rgb(100%,100%,100%);fill-opacity:1;stroke-width:0.02;stroke-linecap:butt;stroke-linejoin:miter;stroke:rgb(32.941176%,47.058824%,63.921569%);stroke-opacity:1;stroke-miterlimit:10;" d="M 0.478179 1.942558 L 3.892544 1.942558 L 3.892544 2.662858 L 0.478179 2.662858 Z M 0.478179 1.942558 " transform="matrix(28.346457,0,0,-28.346457,1,227.771654)"/>
<path style="fill-rule:nonzero;fill:rgb(100%,100%,100%);fill-opacity:1;stroke-width:0.02;stroke-linecap:butt;stroke-linejoin:miter;stroke:rgb(32.941176%,47.058824%,63.921569%);stroke-opacity:1;stroke-miterlimit:10;" d="M 0.478179 2.662858 L 7.617244 2.662858 L 7.617244 3.383296 L 0.478179 3.383296 Z M 0.478179 2.662858 " transform="matrix(28.346457,0,0,-28.346457,1,227.771654)"/>
<path style="fill-rule:nonzero;fill:rgb(100%,100%,100%);fill-opacity:1;stroke-width:0.02;stroke-linecap:butt;stroke-linejoin:miter;stroke:rgb(32.941176%,47.058824%,63.921569%);stroke-opacity:1;stroke-miterlimit:10;" d="M 0.478179 3.383296 L 8.548384 3.383296 L 8.548384 4.103597 L 0.478179 4.103597 Z M 0.478179 3.383296 " transform="matrix(28.346457,0,0,-28.346457,1,227.771654)"/>
<path style="fill-rule:nonzero;fill:rgb(100%,100%,100%);fill-opacity:1;stroke-width:0.02;stroke-linecap:butt;stroke-linejoin:miter;stroke:rgb(32.941176%,47.058824%,63.921569%);stroke-opacity:1;stroke-miterlimit:10;" d="M 0.478179 4.103597 L 6.375632 4.103597 L 6.375632 4.824035 L 0.478179 4.824035 Z M 0.478179 4.103597 " transform="matrix(28.346457,0,0,-28.346457,1,227.771654)"/>
<path style="fill-rule:nonzero;fill:rgb(100%,100%,100%);fill-opacity:1;stroke-width:0.02;stroke-linecap:butt;stroke-linejoin:miter;stroke:rgb(32.941176%,47.058824%,63.921569%);stroke-opacity:1;stroke-miterlimit:10;" d="M 0.478179 4.824035 L 2.650932 4.824035 L 2.650932 5.544336 L 0.478179 5.544336 Z M 0.478179 4.824035 " transform="matrix(28.346457,0,0,-28.346457,1,227.771654)"/>
<path style="fill-rule:nonzero;fill:rgb(100%,100%,100%);fill-opacity:1;stroke-width:0.02;stroke-linecap:butt;stroke-linejoin:miter;stroke:rgb(32.941176%,47.058824%,63.921569%);stroke-opacity:1;stroke-miterlimit:10;" d="M 0.478179 5.544336 L 1.719792 5.544336 L 1.719792 6.264637 L 0.478179 6.264637 Z M 0.478179 5.544336 " transform="matrix(28.346457,0,0,-28.346457,1,227.771654)"/>
<path style="fill-rule:nonzero;fill:rgb(100%,100%,100%);fill-opacity:1;stroke-width:0.02;stroke-linecap:butt;stroke-linejoin:miter;stroke:rgb(32.941176%,47.058824%,63.921569%);stroke-opacity:1;stroke-miterlimit:10;" d="M 0.478179 6.264637 L 1.409457 6.264637 L 1.409457 6.985075 L 0.478179 6.985075 Z M 0.478179 6.264637 " transform="matrix(28.346457,0,0,-28.346457,1,227.771654)"/>
<path style="fill:none;stroke-width:0.02;stroke-linecap:butt;stroke-linejoin:miter;stroke:rgb(0%,0%,0%);stroke-opacity:1;stroke-miterlimit:10;" d="M 0.478179 1.486978 L 0.583186 1.486978 " transform="matrix(28.346457,0,0,-28.346457,1,227.771654)"/>
<path style="fill:none;stroke-width:0.02;stroke-linecap:butt;stroke-linejoin:miter;stroke:rgb(0%,0%,0%);stroke-opacity:1;stroke-miterlimit:10;" d="M 0.478179 2.545449 L 0.583186 2.545449 " transform="matrix(28.346457,0,0,-28.346457,1,227.771654)"/>
<path style="fill:none;stroke-width:0.02;stroke-linecap:butt;stroke-linejoin:miter;stroke:rgb(0%,0%,0%);stroke-opacity:1;stroke-miterlimit:10;" d="M 0.478179 3.604058 L 0.583186 3.604058 " transform="matrix(28.346457,0,0,-28.346457,1,227.771654)"/>
<path style="fill:none;stroke-width:0.02;stroke-linecap:butt;stroke-linejoin:miter;stroke:rgb(0%,0%,0%);stroke-opacity:1;stroke-miterlimit:10;" d="M 0.478179 4.662667 L 0.583186 4.662667 " transform="matrix(28.346457,0,0,-28.346457,1,227.771654)"/>
<path style="fill:none;stroke-width:0.02;stroke-linecap:butt;stroke-linejoin:miter;stroke:rgb(0%,0%,0%);stroke-opacity:1;stroke-miterlimit:10;" d="M 0.478179 5.721138 L 0.583186 5.721138 " transform="matrix(28.346457,0,0,-28.346457,1,227.771654)"/>
<path style="fill:none;stroke-width:0.02;stroke-linecap:butt;stroke-linejoin:miter;stroke:rgb(0%,0%,0%);stroke-opacity:1;stroke-miterlimit:10;" d="M 0.478179 6.779747 L 0.583186 6.779747 " transform="matrix(28.346457,0,0,-28.346457,1,227.771654)"/>
<path style="fill:none;stroke-width:0.02;stroke-linecap:round;stroke-linejoin:miter;stroke:rgb(0%,0%,0%);stroke-opacity:1;stroke-miterlimit:10;" d="M 0.478179 0.428369 L 0.478179 7.838356 " transform="matrix(28.346457,0,0,-28.346457,1,227.771654)"/>
<path style=" stroke:none;fill-rule:nonzero;fill:rgb(0%,0%,0%);fill-opacity:1;" d="M 5.160156 216.265625 L 5.160156 216.710938 L 3.078125 216.710938 L 3.078125 216.265625 Z M 5.160156 216.265625 Z M 5.160156 216.265625 "/>
<path style=" stroke:none;fill-rule:nonzero;fill:rgb(0%,0%,0%);fill-opacity:1;" d="M 7.761719 212.886719 C 8.460938 212.917969 9.191406 213.558594 9.023438 214.296875 C 8.945312 214.796875 8.597656 215.210938 8.160156 215.433594 C 8.867188 215.65625 9.414062 216.402344 9.222656 217.140625 C 9.03125 218.101562 7.929688 218.632812 7.039062 218.339844 C 6.613281 218.210938 6.175781 217.941406 5.96875 217.542969 C 6.015625 217.425781 6 217.21875 6.054688 217.140625 C 6.476562 217.757812 7.367188 218.179688 8.0625 217.832031 C 8.824219 217.347656 8.707031 215.933594 7.785156 215.695312 L 7.714844 215.695312 L 7.699219 215.679688 L 6.960938 215.679688 L 6.960938 215.203125 C 7.414062 215.195312 7.976562 215.140625 8.230469 214.671875 C 8.5 214.265625 8.476562 213.601562 7.960938 213.402344 C 7.347656 213.164062 6.59375 213.550781 6.367188 214.171875 C 6.269531 214.035156 6.175781 213.902344 6.078125 213.757812 C 6.40625 213.171875 7.09375 212.824219 7.761719 212.886719 Z M 7.761719 212.886719 Z M 7.761719 212.886719 "/>
<path style=" stroke:none;fill-rule:nonzero;fill:rgb(0%,0%,0%);fill-opacity:1;" d="M 5.160156 186.261719 L 5.160156 186.707031 L 3.078125 186.707031 L 3.078125 186.261719 Z M 5.160156 186.261719 Z M 5.160156 186.261719 "/>
<path style=" stroke:none;fill-rule:nonzero;fill:rgb(0%,0%,0%);fill-opacity:1;" d="M 7.660156 182.878906 C 8.578125 182.902344 9.308594 183.847656 9.167969 184.738281 C 9.070312 185.625 8.238281 186.132812 7.644531 186.6875 L 7.390625 186.949219 L 7.359375 186.96875 L 7.039062 187.277344 L 7.015625 187.292969 L 6.699219 187.609375 L 6.667969 187.625 L 6.59375 187.695312 L 6.613281 187.707031 L 9.183594 187.707031 L 9.183594 188.230469 L 6.039062 188.230469 L 6.039062 187.753906 L 7.316406 186.476562 C 7.929688 185.941406 8.644531 185.253906 8.53125 184.378906 C 8.46875 183.871094 8.039062 183.402344 7.515625 183.363281 C 6.984375 183.285156 6.515625 183.703125 6.398438 184.210938 L 6.382812 184.238281 L 6.367188 184.292969 L 6.339844 184.378906 L 6.292969 184.554688 L 6.285156 184.59375 C 6.175781 184.457031 6.054688 184.316406 5.96875 184.164062 C 6.128906 183.515625 6.652344 182.902344 7.339844 182.878906 Z M 7.660156 182.878906 Z M 7.660156 182.878906 "/>
<path style=" stroke:none;fill-rule:nonzero;fill:rgb(0%,0%,0%);fill-opacity:1;" d="M 5.160156 156.253906 L 5.160156 156.699219 L 3.078125 156.699219 L 3.078125 156.253906 Z M 5.160156 156.253906 Z M 5.160156 156.253906 "/>
<path style=" stroke:none;fill-rule:nonzero;fill:rgb(0%,0%,0%);fill-opacity:1;" d="M 7.992188 152.875 L 7.992188 157.769531 L 8 157.785156 L 8.976562 157.785156 L 8.976562 158.222656 L 6.398438 158.222656 L 6.398438 157.785156 L 7.375 157.785156 L 7.390625 157.769531 L 7.390625 153.660156 C 7.054688 153.769531 6.707031 153.839844 6.359375 153.832031 L 6.359375 153.390625 C 6.882812 153.398438 7.453125 153.253906 7.851562 152.875 Z M 7.992188 152.875 Z M 7.992188 152.875 "/>
<path style=" stroke:none;fill-rule:nonzero;fill:rgb(0%,0%,0%);fill-opacity:1;" d="M 7.746094 122.867188 C 8.5 122.921875 9 123.613281 9.136719 124.3125 C 9.207031 124.628906 9.222656 124.929688 9.253906 125.246094 L 9.253906 126.058594 C 9.214844 126.882812 9.015625 127.96875 8.121094 128.304688 C 7.339844 128.613281 6.429688 128.128906 6.199219 127.335938 C 6.023438 126.914062 6.007812 126.484375 5.96875 126.058594 L 5.96875 125.246094 C 6.007812 124.421875 6.183594 123.328125 7.070312 122.960938 L 7.113281 122.945312 L 7.144531 122.9375 L 7.183594 122.921875 L 7.300781 122.890625 L 7.375 122.875 L 7.460938 122.875 L 7.476562 122.867188 Z M 7.746094 122.867188 Z M 7.5 123.351562 C 6.832031 123.429688 6.636719 124.230469 6.585938 124.773438 L 6.585938 124.984375 L 6.570312 125 L 6.570312 126.105469 C 6.621094 126.675781 6.660156 127.414062 7.183594 127.796875 C 7.667969 128.128906 8.308594 127.757812 8.445312 127.238281 C 8.585938 126.859375 8.621094 126.484375 8.652344 126.105469 L 8.652344 125 C 8.605469 124.421875 8.523438 123.613281 7.859375 123.382812 L 7.800781 123.367188 L 7.785156 123.351562 L 7.714844 123.351562 L 7.699219 123.335938 L 7.515625 123.335938 Z M 7.5 123.351562 Z M 7.5 123.351562 "/>
<path style=" stroke:none;fill-rule:nonzero;fill:rgb(0%,0%,0%);fill-opacity:1;" d="M 7.992188 92.859375 L 7.992188 97.757812 L 8 97.773438 L 8.976562 97.773438 L 8.976562 98.210938 L 6.398438 98.210938 L 6.398438 97.773438 L 7.375 97.773438 L 7.390625 97.757812 L 7.390625 93.644531 C 7.054688 93.757812 6.707031 93.828125 6.359375 93.820312 L 6.359375 93.375 C 6.882812 93.382812 7.453125 93.242188 7.851562 92.859375 Z M 7.992188 92.859375 Z M 7.992188 92.859375 "/>
<path style=" stroke:none;fill-rule:nonzero;fill:rgb(0%,0%,0%);fill-opacity:1;" d="M 7.660156 62.855469 C 8.578125 62.878906 9.308594 63.824219 9.167969 64.710938 C 9.070312 65.601562 8.238281 66.109375 7.644531 66.664062 L 7.390625 66.925781 L 7.359375 66.941406 L 7.039062 67.25 L 7.015625 67.265625 L 6.699219 67.585938 L 6.667969 67.601562 L 6.59375 67.671875 L 6.613281 67.679688 L 9.183594 67.679688 L 9.183594 68.203125 L 6.039062 68.203125 L 6.039062 67.726562 L 7.316406 66.449219 C 7.929688 65.917969 8.644531 65.226562 8.53125 64.355469 C 8.46875 63.847656 8.039062 63.378906 7.515625 63.339844 C 6.984375 63.257812 6.515625 63.679688 6.398438 64.1875 L 6.382812 64.210938 L 6.367188 64.265625 L 6.339844 64.355469 L 6.292969 64.527344 L 6.285156 64.570312 C 6.175781 64.433594 6.054688 64.289062 5.96875 64.140625 C 6.128906 63.488281 6.652344 62.878906 7.339844 62.855469 Z M 7.660156 62.855469 Z M 7.660156 62.855469 "/>
<path style=" stroke:none;fill-rule:nonzero;fill:rgb(0%,0%,0%);fill-opacity:1;" d="M 7.761719 32.847656 C 8.460938 32.878906 9.191406 33.523438 9.023438 34.261719 C 8.945312 34.761719 8.597656 35.171875 8.160156 35.394531 C 8.867188 35.617188 9.414062 36.363281 9.222656 37.101562 C 9.03125 38.0625 7.929688 38.59375 7.039062 38.300781 C 6.613281 38.171875 6.175781 37.902344 5.96875 37.507812 C 6.015625 37.386719 6 37.179688 6.054688 37.101562 C 6.476562 37.722656 7.367188 38.140625 8.0625 37.792969 C 8.824219 37.308594 8.707031 35.894531 7.785156 35.65625 L 7.714844 35.65625 L 7.699219 35.640625 L 6.960938 35.640625 L 6.960938 35.164062 C 7.414062 35.15625 7.976562 35.101562 8.230469 34.632812 C 8.5 34.230469 8.476562 33.5625 7.960938 33.363281 C 7.347656 33.125 6.59375 33.515625 6.367188 34.132812 C 6.269531 34 6.175781 33.863281 6.078125 33.722656 C 6.40625 33.132812 7.09375 32.785156 7.761719 32.847656 Z M 7.761719 32.847656 Z M 7.761719 32.847656 "/>
<path style=" stroke:none;fill-rule:nonzero;fill:rgb(0%,0%,0%);fill-opacity:1;" d="M 8.5625 3.007812 L 8.5625 6.347656 L 8.578125 6.367188 L 9.367188 6.367188 L 9.367188 6.839844 L 8.578125 6.839844 L 8.5625 6.847656 L 8.5625 8.191406 L 7.960938 8.191406 L 7.960938 6.847656 L 7.945312 6.839844 L 5.847656 6.839844 L 5.847656 6.347656 C 6.515625 5.238281 7.183594 4.121094 7.851562 3.007812 Z M 8.5625 3.007812 Z M 7.976562 3.308594 C 7.816406 4.136719 7.308594 4.839844 6.929688 5.5625 C 6.777344 5.824219 6.578125 6.113281 6.46875 6.367188 L 7.992188 6.367188 L 8 6.347656 L 8 3.308594 L 7.992188 3.292969 Z M 7.976562 3.308594 Z M 7.976562 3.308594 "/>
<path style="fill:none;stroke-width:0.02;stroke-linecap:butt;stroke-linejoin:miter;stroke:rgb(0%,0%,0%);stroke-opacity:1;stroke-miterlimit:10;" d="M 9.789997 1.486978 L 9.68499 1.486978 " transform="matrix(28.346457,0,0,-28.346457,1,227.771654)"/>
<path style="fill:none;stroke-width:0.02;stroke-linecap:butt;stroke-linejoin:miter;stroke:rgb(0%,0%,0%);stroke-opacity:1;stroke-miterlimit:10;" d="M 9.789997 2.545449 L 9.68499 2.545449 " transform="matrix(28.346457,0,0,-28.346457,1,227.771654)"/>
<path style="fill:none;stroke-width:0.02;stroke-linecap:butt;stroke-linejoin:miter;stroke:rgb(0%,0%,0%);stroke-opacity:1;stroke-miterlimit:10;" d="M 9.789997 3.604058 L 9.68499 3.604058 " transform="matrix(28.346457,0,0,-28.346457,1,227.771654)"/>
<path style="fill:none;stroke-width:0.02;stroke-linecap:butt;stroke-linejoin:miter;stroke:rgb(0%,0%,0%);stroke-opacity:1;stroke-miterlimit:10;" d="M 9.789997 4.662667 L 9.68499 4.662667 " transform="matrix(28.346457,0,0,-28.346457,1,227.771654)"/>
<path style="fill:none;stroke-width:0.02;stroke-linecap:butt;stroke-linejoin:miter;stroke:rgb(0%,0%,0%);stroke-opacity:1;stroke-miterlimit:10;" d="M 9.789997 5.721138 L 9.68499 5.721138 " transform="matrix(28.346457,0,0,-28.346457,1,227.771654)"/>
<path style="fill:none;stroke-width:0.02;stroke-linecap:butt;stroke-linejoin:miter;stroke:rgb(0%,0%,0%);stroke-opacity:1;stroke-miterlimit:10;" d="M 9.789997 6.779747 L 9.68499 6.779747 " transform="matrix(28.346457,0,0,-28.346457,1,227.771654)"/>
<path style="fill:none;stroke-width:0.02;stroke-linecap:round;stroke-linejoin:miter;stroke:rgb(0%,0%,0%);stroke-opacity:1;stroke-miterlimit:10;" d="M 9.789997 0.428369 L 9.789997 7.838356 " transform="matrix(28.346457,0,0,-28.346457,1,227.771654)"/>
<path style="fill:none;stroke-width:0.02;stroke-linecap:butt;stroke-linejoin:miter;stroke:rgb(0%,0%,0%);stroke-opacity:1;stroke-miterlimit:10;" d="M 2.030264 0.428369 L 2.030264 0.533376 " transform="matrix(28.346457,0,0,-28.346457,1,227.771654)"/>
<path style="fill:none;stroke-width:0.02;stroke-linecap:butt;stroke-linejoin:miter;stroke:rgb(0%,0%,0%);stroke-opacity:1;stroke-miterlimit:10;" d="M 3.58221 0.428369 L 3.58221 0.533376 " transform="matrix(28.346457,0,0,-28.346457,1,227.771654)"/>
<path style="fill:none;stroke-width:0.02;stroke-linecap:butt;stroke-linejoin:miter;stroke:rgb(0%,0%,0%);stroke-opacity:1;stroke-miterlimit:10;" d="M 5.134157 0.428369 L 5.134157 0.533376 " transform="matrix(28.346457,0,0,-28.346457,1,227.771654)"/>
<path style="fill:none;stroke-width:0.02;stroke-linecap:butt;stroke-linejoin:miter;stroke:rgb(0%,0%,0%);stroke-opacity:1;stroke-miterlimit:10;" d="M 6.686104 0.428369 L 6.686104 0.533376 " transform="matrix(28.346457,0,0,-28.346457,1,227.771654)"/>
<path style="fill:none;stroke-width:0.02;stroke-linecap:butt;stroke-linejoin:miter;stroke:rgb(0%,0%,0%);stroke-opacity:1;stroke-miterlimit:10;" d="M 8.23805 0.428369 L 8.23805 0.533376 " transform="matrix(28.346457,0,0,-28.346457,1,227.771654)"/>
<path style="fill:none;stroke-width:0.02;stroke-linecap:round;stroke-linejoin:miter;stroke:rgb(0%,0%,0%);stroke-opacity:1;stroke-miterlimit:10;" d="M 0.478179 0.428369 L 9.789997 0.428369 " transform="matrix(28.346457,0,0,-28.346457,1,227.771654)"/>
<path style=" stroke:none;fill-rule:nonzero;fill:rgb(0%,0%,0%);fill-opacity:1;" d="M 14.691406 220.445312 C 15.445312 220.5 15.945312 221.191406 16.082031 221.890625 C 16.152344 222.207031 16.167969 222.507812 16.199219 222.828125 L 16.199219 223.636719 C 16.160156 224.460938 15.960938 225.550781 15.0625 225.882812 C 14.285156 226.191406 13.375 225.707031 13.144531 224.914062 C 12.96875 224.492188 12.953125 224.066406 12.914062 223.636719 L 12.914062 222.828125 C 12.953125 222 13.128906 220.90625 14.015625 220.542969 L 14.054688 220.523438 L 14.089844 220.515625 L 14.128906 220.5 L 14.246094 220.46875 L 14.316406 220.453125 L 14.40625 220.453125 L 14.421875 220.445312 Z M 14.691406 220.445312 Z M 14.445312 220.929688 C 13.777344 221.007812 13.582031 221.8125 13.53125 222.351562 L 13.53125 222.566406 L 13.515625 222.582031 L 13.515625 223.683594 C 13.5625 224.253906 13.605469 224.992188 14.128906 225.375 C 14.613281 225.707031 15.253906 225.335938 15.390625 224.820312 C 15.53125 224.4375 15.5625 224.066406 15.597656 223.683594 L 15.597656 222.582031 C 15.546875 222 15.46875 221.191406 14.800781 220.960938 L 14.746094 220.945312 L 14.730469 220.929688 L 14.660156 220.929688 L 14.644531 220.914062 L 14.460938 220.914062 Z M 14.445312 220.929688 Z M 14.445312 220.929688 "/>
<path style=" stroke:none;fill-rule:nonzero;fill:rgb(0%,0%,0%);fill-opacity:1;" d="M 59.859375 220.613281 L 59.859375 221.105469 L 57.796875 221.105469 L 57.777344 221.113281 L 57.777344 222.738281 C 57.96875 222.613281 58.238281 222.445312 58.492188 222.4375 C 59.390625 222.34375 60.082031 223.222656 60.121094 224.042969 C 60.246094 225.082031 59.269531 226.113281 58.222656 225.953125 C 57.699219 225.9375 57.191406 225.628906 56.890625 225.199219 C 56.976562 225.082031 57.050781 224.875 57.152344 224.804688 C 57.523438 225.535156 58.730469 225.828125 59.214844 225.058594 C 59.523438 224.476562 59.515625 223.738281 59.160156 223.183594 C 58.746094 222.652344 57.929688 222.976562 57.738281 223.542969 L 57.222656 223.542969 L 57.222656 220.613281 Z M 59.859375 220.613281 Z M 59.859375 220.613281 "/>
<path style=" stroke:none;fill-rule:nonzero;fill:rgb(0%,0%,0%);fill-opacity:1;" d="M 100.9375 220.445312 L 100.9375 225.34375 L 100.945312 225.359375 L 101.921875 225.359375 L 101.921875 225.796875 L 99.34375 225.796875 L 99.34375 225.359375 L 100.320312 225.359375 L 100.335938 225.34375 L 100.335938 221.230469 C 100 221.34375 99.652344 221.414062 99.304688 221.40625 L 99.304688 220.960938 C 99.828125 220.96875 100.398438 220.828125 100.796875 220.445312 Z M 100.9375 220.445312 Z M 100.9375 220.445312 "/>
<path style=" stroke:none;fill-rule:nonzero;fill:rgb(0%,0%,0%);fill-opacity:1;" d="M 104.660156 220.445312 C 105.414062 220.5 105.914062 221.191406 106.050781 221.890625 C 106.121094 222.207031 106.136719 222.507812 106.167969 222.828125 L 106.167969 223.636719 C 106.128906 224.460938 105.929688 225.550781 105.035156 225.882812 C 104.257812 226.191406 103.34375 225.707031 103.113281 224.914062 C 102.9375 224.492188 102.921875 224.066406 102.882812 223.636719 L 102.882812 222.828125 C 102.921875 222 103.097656 220.90625 103.984375 220.542969 L 104.027344 220.523438 L 104.058594 220.515625 L 104.097656 220.5 L 104.214844 220.46875 L 104.289062 220.453125 L 104.375 220.453125 L 104.390625 220.445312 Z M 104.660156 220.445312 Z M 104.414062 220.929688 C 103.746094 221.007812 103.550781 221.8125 103.5 222.351562 L 103.5 222.566406 L 103.484375 222.582031 L 103.484375 223.683594 C 103.535156 224.253906 103.574219 224.992188 104.097656 225.375 C 104.582031 225.707031 105.222656 225.335938 105.359375 224.820312 C 105.503906 224.4375 105.535156 224.066406 105.566406 223.683594 L 105.566406 222.582031 C 105.519531 222 105.4375 221.191406 104.773438 220.960938 L 104.714844 220.945312 L 104.699219 220.929688 L 104.628906 220.929688 L 104.613281 220.914062 L 104.429688 220.914062 Z M 104.414062 220.929688 Z M 104.414062 220.929688 "/>
<path style=" stroke:none;fill-rule:nonzero;fill:rgb(0%,0%,0%);fill-opacity:1;" d="M 144.929688 220.445312 L 144.929688 225.34375 L 144.9375 225.359375 L 145.914062 225.359375 L 145.914062 225.796875 L 143.335938 225.796875 L 143.335938 225.359375 L 144.3125 225.359375 L 144.328125 225.34375 L 144.328125 221.230469 C 143.996094 221.34375 143.644531 221.414062 143.296875 221.40625 L 143.296875 220.960938 C 143.820312 220.96875 144.390625 220.828125 144.789062 220.445312 Z M 144.929688 220.445312 Z M 144.929688 220.445312 "/>
<path style=" stroke:none;fill-rule:nonzero;fill:rgb(0%,0%,0%);fill-opacity:1;" d="M 149.828125 220.613281 L 149.828125 221.105469 L 147.765625 221.105469 L 147.75 221.113281 L 147.75 222.738281 C 147.9375 222.613281 148.207031 222.445312 148.460938 222.4375 C 149.359375 222.34375 150.050781 223.222656 150.089844 224.042969 C 150.21875 225.082031 149.242188 226.113281 148.191406 225.953125 C 147.667969 225.9375 147.160156 225.628906 146.859375 225.199219 C 146.945312 225.082031 147.019531 224.875 147.121094 224.804688 C 147.496094 225.535156 148.699219 225.828125 149.183594 225.058594 C 149.496094 224.476562 149.488281 223.738281 149.128906 223.183594 C 148.714844 222.652344 147.898438 222.976562 147.707031 223.542969 L 147.191406 223.542969 L 147.191406 220.613281 Z M 149.828125 220.613281 Z M 149.828125 220.613281 "/>
<path style=" stroke:none;fill-rule:nonzero;fill:rgb(0%,0%,0%);fill-opacity:1;" d="M 188.589844 220.445312 C 189.511719 220.46875 190.242188 221.414062 190.097656 222.304688 C 190.003906 223.191406 189.167969 223.699219 188.574219 224.253906 L 188.320312 224.515625 L 188.289062 224.535156 L 187.972656 224.84375 L 187.945312 224.859375 L 187.628906 225.175781 L 187.597656 225.191406 L 187.527344 225.261719 L 187.542969 225.273438 L 190.113281 225.273438 L 190.113281 225.796875 L 186.972656 225.796875 L 186.972656 225.320312 L 188.25 224.042969 C 188.859375 223.507812 189.574219 222.820312 189.464844 221.945312 C 189.398438 221.4375 188.972656 220.96875 188.445312 220.929688 C 187.914062 220.851562 187.445312 221.269531 187.328125 221.777344 L 187.3125 221.804688 L 187.296875 221.859375 L 187.273438 221.945312 L 187.226562 222.121094 L 187.21875 222.160156 C 187.105469 222.023438 186.988281 221.882812 186.898438 221.730469 C 187.058594 221.082031 187.582031 220.46875 188.273438 220.445312 Z M 188.589844 220.445312 Z M 188.589844 220.445312 "/>
<path style=" stroke:none;fill-rule:nonzero;fill:rgb(0%,0%,0%);fill-opacity:1;" d="M 192.644531 220.445312 C 193.398438 220.5 193.898438 221.191406 194.035156 221.890625 C 194.105469 222.207031 194.121094 222.507812 194.152344 222.828125 L 194.152344 223.636719 C 194.113281 224.460938 193.914062 225.550781 193.019531 225.882812 C 192.242188 226.191406 191.328125 225.707031 191.097656 224.914062 C 190.921875 224.492188 190.90625 224.066406 190.867188 223.636719 L 190.867188 222.828125 C 190.90625 222 191.082031 220.90625 191.972656 220.542969 L 192.011719 220.523438 L 192.042969 220.515625 L 192.082031 220.5 L 192.203125 220.46875 L 192.273438 220.453125 L 192.359375 220.453125 L 192.375 220.445312 Z M 192.644531 220.445312 Z M 192.398438 220.929688 C 191.734375 221.007812 191.535156 221.8125 191.488281 222.351562 L 191.488281 222.566406 L 191.472656 222.582031 L 191.472656 223.683594 C 191.519531 224.253906 191.558594 224.992188 192.082031 225.375 C 192.566406 225.707031 193.210938 225.335938 193.34375 224.820312 C 193.488281 224.4375 193.519531 224.066406 193.550781 223.683594 L 193.550781 222.582031 C 193.503906 222 193.421875 221.191406 192.757812 220.960938 L 192.703125 220.945312 L 192.683594 220.929688 L 192.613281 220.929688 L 192.597656 220.914062 L 192.414062 220.914062 Z M 192.398438 220.929688 Z M 192.398438 220.929688 "/>
<path style=" stroke:none;fill-rule:nonzero;fill:rgb(0%,0%,0%);fill-opacity:1;" d="M 232.582031 220.445312 C 233.503906 220.46875 234.234375 221.414062 234.089844 222.304688 C 233.996094 223.191406 233.160156 223.699219 232.566406 224.253906 L 232.3125 224.515625 L 232.28125 224.535156 L 231.964844 224.84375 L 231.941406 224.859375 L 231.621094 225.175781 L 231.589844 225.191406 L 231.519531 225.261719 L 231.535156 225.273438 L 234.105469 225.273438 L 234.105469 225.796875 L 230.964844 225.796875 L 230.964844 225.320312 L 232.242188 224.042969 C 232.851562 223.507812 233.566406 222.820312 233.457031 221.945312 C 233.390625 221.4375 232.964844 220.96875 232.441406 220.929688 C 231.90625 220.851562 231.441406 221.269531 231.320312 221.777344 L 231.304688 221.804688 L 231.289062 221.859375 L 231.265625 221.945312 L 231.21875 222.121094 L 231.210938 222.160156 C 231.097656 222.023438 230.980469 221.882812 230.890625 221.730469 C 231.050781 221.082031 231.574219 220.46875 232.265625 220.445312 Z M 232.582031 220.445312 Z M 232.582031 220.445312 "/>
<path style=" stroke:none;fill-rule:nonzero;fill:rgb(0%,0%,0%);fill-opacity:1;" d="M 237.8125 220.613281 L 237.8125 221.105469 L 235.75 221.105469 L 235.734375 221.113281 L 235.734375 222.738281 C 235.925781 222.613281 236.195312 222.445312 236.449219 222.4375 C 237.34375 222.34375 238.035156 223.222656 238.074219 224.042969 C 238.203125 225.082031 237.226562 226.113281 236.179688 225.953125 C 235.652344 225.9375 235.144531 225.628906 234.84375 225.199219 C 234.933594 225.082031 235.003906 224.875 235.105469 224.804688 C 235.480469 225.535156 236.6875 225.828125 237.171875 225.058594 C 237.480469 224.476562 237.472656 223.738281 237.113281 223.183594 C 236.703125 222.652344 235.882812 222.976562 235.695312 223.542969 L 235.179688 223.542969 L 235.179688 220.613281 Z M 237.8125 220.613281 Z M 237.8125 220.613281 "/>
<path style=" stroke:none;fill-rule:nonzero;fill:rgb(0%,0%,0%);fill-opacity:1;" d="M 276.679688 220.445312 C 277.375 220.476562 278.105469 221.121094 277.941406 221.859375 C 277.859375 222.359375 277.511719 222.769531 277.074219 222.992188 C 277.78125 223.214844 278.328125 223.960938 278.140625 224.699219 C 277.949219 225.660156 276.84375 226.191406 275.957031 225.898438 C 275.527344 225.773438 275.089844 225.5 274.882812 225.105469 C 274.933594 224.984375 274.917969 224.78125 274.972656 224.699219 C 275.390625 225.320312 276.28125 225.738281 276.980469 225.390625 C 277.742188 224.90625 277.621094 223.492188 276.703125 223.253906 L 276.628906 223.253906 L 276.613281 223.238281 L 275.875 223.238281 L 275.875 222.761719 C 276.328125 222.753906 276.894531 222.699219 277.148438 222.230469 C 277.417969 221.828125 277.394531 221.160156 276.875 220.960938 C 276.265625 220.722656 275.511719 221.113281 275.28125 221.730469 C 275.1875 221.597656 275.089844 221.460938 274.996094 221.320312 C 275.320312 220.730469 276.011719 220.382812 276.679688 220.445312 Z M 276.679688 220.445312 Z M 276.679688 220.445312 "/>
<path style=" stroke:none;fill-rule:nonzero;fill:rgb(0%,0%,0%);fill-opacity:1;" d="M 280.632812 220.445312 C 281.386719 220.5 281.886719 221.191406 282.019531 221.890625 C 282.089844 222.207031 282.105469 222.507812 282.140625 222.828125 L 282.140625 223.636719 C 282.097656 224.460938 281.902344 225.550781 281.003906 225.882812 C 280.226562 226.191406 279.3125 225.707031 279.082031 224.914062 C 278.910156 224.492188 278.894531 224.066406 278.851562 223.636719 L 278.851562 222.828125 C 278.894531 222 279.066406 220.90625 279.957031 220.542969 L 279.996094 220.523438 L 280.027344 220.515625 L 280.066406 220.5 L 280.1875 220.46875 L 280.257812 220.453125 L 280.34375 220.453125 L 280.359375 220.445312 Z M 280.632812 220.445312 Z M 280.386719 220.929688 C 279.71875 221.007812 279.519531 221.8125 279.472656 222.351562 L 279.472656 222.566406 L 279.457031 222.582031 L 279.457031 223.683594 C 279.503906 224.253906 279.542969 224.992188 280.066406 225.375 C 280.550781 225.707031 281.195312 225.335938 281.328125 224.820312 C 281.472656 224.4375 281.503906 224.066406 281.535156 223.683594 L 281.535156 222.582031 C 281.488281 222 281.410156 221.191406 280.742188 220.960938 L 280.6875 220.945312 L 280.671875 220.929688 L 280.597656 220.929688 L 280.582031 220.914062 L 280.402344 220.914062 Z M 280.386719 220.929688 Z M 280.386719 220.929688 "/>
<path style="fill:none;stroke-width:0.02;stroke-linecap:butt;stroke-linejoin:miter;stroke:rgb(0%,0%,0%);stroke-opacity:1;stroke-miterlimit:10;" d="M 2.030264 7.838356 L 2.030264 7.73335 " transform="matrix(28.346457,0,0,-28.346457,1,227.771654)"/>
<path style="fill:none;stroke-width:0.02;stroke-linecap:butt;stroke-linejoin:miter;stroke:rgb(0%,0%,0%);stroke-opacity:1;stroke-miterlimit:10;" d="M 3.58221 7.838356 L 3.58221 7.73335 " transform="matrix(28.346457,0,0,-28.346457,1,227.771654)"/>
<path style="fill:none;stroke-width:0.02;stroke-linecap:butt;stroke-linejoin:miter;stroke:rgb(0%,0%,0%);stroke-opacity:1;stroke-miterlimit:10;" d="M 5.134157 7.838356 L 5.134157 7.73335 " transform="matrix(28.346457,0,0,-28.346457,1,227.771654)"/>
<path style="fill:none;stroke-width:0.02;stroke-linecap:butt;stroke-linejoin:miter;stroke:rgb(0%,0%,0%);stroke-opacity:1;stroke-miterlimit:10;" d="M 6.686104 7.838356 L 6.686104 7.73335 " transform="matrix(28.346457,0,0,-28.346457,1,227.771654)"/>
<path style="fill:none;stroke-width:0.02;stroke-linecap:butt;stroke-linejoin:miter;stroke:rgb(0%,0%,0%);stroke-opacity:1;stroke-miterlimit:10;" d="M 8.23805 7.838356 L 8.23805 7.73335 " transform="matrix(28.346457,0,0,-28.346457,1,227.771654)"/>
<path style="fill:none;stroke-width:0.02;stroke-linecap:round;stroke-linejoin:miter;stroke:rgb(0%,0%,0%);stroke-opacity:1;stroke-miterlimit:10;" d="M 0.478179 7.838356 L 9.789997 7.838356 " transform="matrix(28.346457,0,0,-28.346457,1,227.771654)"/>
</g>
</svg>
