<?xml version="1.0" encoding="UTF-8"?>
<svg xmlns="http://www.w3.org/2000/svg" xmlns:xlink="http://www.w3.org/1999/xlink" width="285.464567pt" height="228.771654pt" viewBox="0 0 285.464567 228.771654" version="1.1">
<g id="surface1">
<path style="fill-rule:nonzero;fill:rgb(100%,100%,100%);fill-opacity:1;stroke-width:0.02;stroke-linecap:butt;stroke-linejoin:miter;stroke:rgb(32.941176%,47.058824%,63.921569%);stroke-opacity:1;stroke-miterlimit:10;" d="M 0.591316 0.428369 L 1.002385 0.428369 L 1.002385 0.85184 L 0.591316 0.85184 Z M 0.591316 0.428369 " transform="matrix(28.346457,0,0,-28.346457,1,227.771654)"/>
<path style="fill-rule:nonzero;fill:rgb(100%,100%,100%);fill-opacity:1;stroke-width:0.02;stroke-linecap:butt;stroke-linejoin:miter;stroke:rgb(32.941176%,47.058824%,63.921569%);stroke-opacity:1;stroke-miterlimit:10;" d="M 1.002385 0.428369 L 1.413454 0.428369 L 1.413454 1.275311 L 1.002385 1.275311 Z M 1.002385 0.428369 " transform="matrix(28.346457,0,0,-28.346457,1,227.771654)"/>
<path style="fill-rule:nonzero;fill:rgb(100%,100%,100%);fill-opacity:1;stroke-width:0.02;stroke-linecap:butt;stroke-linejoin:miter;stroke:rgb(32.941176%,47.058824%,63.921569%);stroke-opacity:1;stroke-miterlimit:10;" d="M 1.413454 0.428369 L 1.824523 0.428369 L 1.824523 2.96892 L 1.413454 2.96892 Z M 1.413454 0.428369 " transform="matrix(28.346457,0,0,-28.346457,1,227.771654)"/>
<path style="fill-rule:nonzero;fill:rgb(100%,100%,100%);fill-opacity:1;stroke-width:0.02;stroke-linecap:butt;stroke-linejoin:miter;stroke:rgb(32.941176%,47.058824%,63.921569%);stroke-opacity:1;stroke-miterlimit:10;" d="M 1.824523 0.428369 L 2.235591 0.428369 L 2.235591 2.96892 L 1.824523 2.96892 Z M 1.824523 0.428369 " transform="matrix(28.346457,0,0,-28.346457,1,227.771654)"/>
<path style="fill-rule:nonzero;fill:rgb(100%,100%,100%);fill-opacity:1;stroke-width:0.02;stroke-linecap:butt;stroke-linejoin:miter;stroke:rgb(32.941176%,47.058824%,63.921569%);stroke-opacity:1;stroke-miterlimit:10;" d="M 2.235591 0.428369 L 2.64666 0.428369 L 2.64666 3.815725 L 2.235591 3.815725 Z M 2.235591 0.428369 " transform="matrix(28.346457,0,0,-28.346457,1,227.771654)"/>
<path style="fill-rule:nonzero;fill:rgb(100%,100%,100%);fill-opacity:1;stroke-width:0.02;stroke-linecap:butt;stroke-linejoin:miter;stroke:rgb(32.941176%,47.058824%,63.921569%);stroke-opacity:1;stroke-miterlimit:10;" d="M 2.64666 0.428369 L 3.057729 0.428369 L 3.057729 4.662667 L 2.64666 4.662667 Z M 2.64666 0.428369 " transform="matrix(28.346457,0,0,-28.346457,1,227.771654)"/>
<path style="fill-rule:nonzero;fill:rgb(100%,100%,100%);fill-opacity:1;stroke-width:0.02;stroke-linecap:butt;stroke-linejoin:miter;stroke:rgb(32.941176%,47.058824%,63.921569%);stroke-opacity:1;stroke-miterlimit:10;" d="M 3.057729 0.428369 L 3.468798 0.428369 L 3.468798 3.815725 L 3.057729 3.815725 Z M 3.057729 0.428369 " transform="matrix(28.346457,0,0,-28.346457,1,227.771654)"/>
<path style="fill-rule:nonzero;fill:rgb(100%,100%,100%);fill-opacity:1;stroke-width:0.02;stroke-linecap:butt;stroke-linejoin:miter;stroke:rgb(32.941176%,47.058824%,63.921569%);stroke-opacity:1;stroke-miterlimit:10;" d="M 3.468798 0.428369 L 3.879867 0.428369 L 3.879867 6.779747 L 3.468798 6.779747 Z M 3.468798 0.428369 " transform="matrix(28.346457,0,0,-28.346457,1,227.771654)"/>
<path style="fill-rule:nonzero;fill:rgb(100%,100%,100%);fill-opacity:1;stroke-width:0.02;stroke-linecap:butt;stroke-linejoin:miter;stroke:rgb(32.941176%,47.058824%,63.921569%);stroke-opacity:1;stroke-miterlimit:10;" d="M 3.879867 0.428369 L 4.290935 0.428369 L 4.290935 3.604058 L 3.879867 3.604058 Z M 3.879867 0.428369 " transform="matrix(28.346457,0,0,-28.346457,1,227.771654)"/>
<path style="fill-rule:nonzero;fill:rgb(100%,100%,100%);fill-opacity:1;stroke-width:0.02;stroke-linecap:butt;stroke-linejoin:miter;stroke:rgb(32.941176%,47.058824%,63.921569%);stroke-opacity:1;stroke-miterlimit:10;" d="M 4.290935 0.428369 L 4.702004 0.428369 L 4.702004 4.450863 L 4.290935 4.450863 Z M 4.290935 0.428369 " transform="matrix(28.346457,0,0,-28.346457,1,227.771654)"/>
<path style="fill-rule:nonzero;fill:rgb(100%,100%,100%);fill-opacity:1;stroke-width:0.02;stroke-linecap:butt;stroke-linejoin:miter;stroke:rgb(32.941176%,47.058824%,63.921569%);stroke-opacity:1;stroke-miterlimit:10;" d="M 4.702004 0.428369 L 5.112935 0.428369 L 5.112935 3.180587 L 4.702004 3.180587 Z M 4.702004 0.428369 " transform="matrix(28.346457,0,0,-28.346457,1,227.771654)"/>
<path style="fill-rule:nonzero;fill:rgb(100%,100%,100%);fill-opacity:1;stroke-width:0.02;stroke-linecap:butt;stroke-linejoin:miter;stroke:rgb(32.941176%,47.058824%,63.921569%);stroke-opacity:1;stroke-miterlimit:10;" d="M 5.112935 0.428369 L 5.524004 0.428369 L 5.524004 1.698645 L 5.112935 1.698645 Z M 5.112935 0.428369 " transform="matrix(28.346457,0,0,-28.346457,1,227.771654)"/>
<path style="fill-rule:nonzero;fill:rgb(100%,100%,100%);fill-opacity:1;stroke-width:0.02;stroke-linecap:butt;stroke-linejoin:miter;stroke:rgb(32.941176%,47.058824%,63.921569%);stroke-opacity:1;stroke-miterlimit:10;" d="M 5.524004 0.428369 L 5.935073 0.428369 L 5.935073 2.96892 L 5.524004 2.96892 Z M 5.524004 0.428369 " transform="matrix(28.346457,0,0,-28.346457,1,227.771654)"/>
<path style="fill-rule:nonzero;fill:rgb(100%,100%,100%);fill-opacity:1;stroke-width:0.02;stroke-linecap:butt;stroke-linejoin:miter;stroke:rgb(32.941176%,47.058824%,63.921569%);stroke-opacity:1;stroke-miterlimit:10;" d="M 5.935073 0.428369 L 6.346141 0.428369 L 6.346141 1.698645 L 5.935073 1.698645 Z M 5.935073 0.428369 " transform="matrix(28.346457,0,0,-28.346457,1,227.771654)"/>
<path style="fill-rule:nonzero;fill:rgb(100%,100%,100%);fill-opacity:1;stroke-width:0.02;stroke-linecap:butt;stroke-linejoin:miter;stroke:rgb(32.941176%,47.058824%,63.921569%);stroke-opacity:1;stroke-miterlimit:10;" d="M 6.346141 0.428369 L 6.75721 0.428369 L 6.75721 1.063507 L 6.346141 1.063507 Z M 6.346141 0.428369 " transform="matrix(28.346457,0,0,-28.346457,1,227.771654)"/>
<path style="fill-rule:nonzero;fill:rgb(100%,100%,100%);fill-opacity:1;stroke-width:0.02;stroke-linecap:butt;stroke-linejoin:miter;stroke:rgb(32.941176%,47.058824%,63.921569%);stroke-opacity:1;stroke-miterlimit:10;" d="M 6.75721 0.428369 L 7.168279 0.428369 L 7.168279 1.063507 L 6.75721 1.063507 Z M 6.75721 0.428369 " transform="matrix(28.346457,0,0,-28.346457,1,227.771654)"/>
<path style="fill-rule:nonzero;fill:rgb(100%,100%,100%);fill-opacity:1;stroke-width:0.02;stroke-linecap:butt;stroke-linejoin:miter;stroke:rgb(32.941176%,47.058824%,63.921569%);stroke-opacity:1;stroke-miterlimit:10;" d="M 7.168279 0.428369 L 7.579348 0.428369 L 7.579348 1.698645 L 7.168279 1.698645 Z M 7.168279 0.428369 " transform="matrix(28.346457,0,0,-28.346457,1,227.771654)"/>
<path style="fill-rule:nonzero;fill:rgb(100%,100%,100%);fill-opacity:1;stroke-width:0.02;stroke-linecap:butt;stroke-linejoin:miter;stroke:rgb(32.941176%,47.058824%,63.921569%);stroke-opacity:1;stroke-miterlimit:10;" d="M 7.579348 0.428369 L 7.990417 0.428369 L 7.990417 0.640174 L 7.579348 0.640174 Z M 7.579348 0.428369 " transform="matrix(28.346457,0,0,-28.346457,1,227.771654)"/>
<path style="fill-rule:nonzero;fill:rgb(100%,100%,100%);fill-opacity:1;stroke-width:0.02;stroke-linecap:butt;stroke-linejoin:miter;stroke:rgb(32.941176%,47.058824%,63.921569%);stroke-opacity:1;stroke-miterlimit:10;" d="M 7.990417 0.428369 L 8.401485 0.428369 L 8.401485 0.85184 L 7.990417 0.85184 Z M 7.990417 0.428369 " transform="matrix(28.346457,0,0,-28.346457,1,227.771654)"/>
<path style="fill-rule:nonzero;fill:rgb(100%,100%,100%);fill-opacity:1;stroke-width:0.02;stroke-linecap:butt;stroke-linejoin:miter;stroke:rgb(32.941176%,47.058824%,63.921569%);stroke-opacity:1;stroke-miterlimit:10;" d="M 8.401485 0.428369 L 8.812554 0.428369 L 8.812554 0.85184 L 8.401485 0.85184 Z M 8.401485 0.428369 " transform="matrix(28.346457,0,0,-28.346457,1,227.771654)"/>
<path style="fill:none;stroke-width:0.02;stroke-linecap:butt;stroke-linejoin:miter;stroke:rgb(0%,0%,0%);stroke-opacity:1;stroke-miterlimit:10;" d="M 0.525033 1.486978 L 0.630039 1.486978 " transform="matrix(28.346457,0,0,-28.346457,1,227.771654)"/>
<path style="fill:none;stroke-width:0.02;stroke-linecap:butt;stroke-linejoin:miter;stroke:rgb(0%,0%,0%);stroke-opacity:1;stroke-miterlimit:10;" d="M 0.525033 2.545449 L 0.630039 2.545449 " transform="matrix(28.346457,0,0,-28.346457,1,227.771654)"/>
<path style="fill:none;stroke-width:0.02;stroke-linecap:butt;stroke-linejoin:miter;stroke:rgb(0%,0%,0%);stroke-opacity:1;stroke-miterlimit:10;" d="M 0.525033 3.604058 L 0.630039 3.604058 " transform="matrix(28.346457,0,0,-28.346457,1,227.771654)"/>
<path style="fill:none;stroke-width:0.02;stroke-linecap:butt;stroke-linejoin:miter;stroke:rgb(0%,0%,0%);stroke-opacity:1;stroke-miterlimit:10;" d="M 0.525033 4.662667 L 0.630039 4.662667 " transform="matrix(28.346457,0,0,-28.346457,1,227.771654)"/>
<path style="fill:none;stroke-width:0.02;stroke-linecap:butt;stroke-linejoin:miter;stroke:rgb(0%,0%,0%);stroke-opacity:1;stroke-miterlimit:10;" d="M 0.525033 5.721138 L 0.630039 5.721138 " transform="matrix(28.346457,0,0,-28.346457,1,227.771654)"/>
<path style="fill:none;stroke-width:0.02;stroke-linecap:butt;stroke-linejoin:miter;stroke:rgb(0%,0%,0%);stroke-opacity:1;stroke-miterlimit:10;" d="M 0.525033 6.779747 L 0.630039 6.779747 " transform="matrix(28.346457,0,0,-28.346457,1,227.771654)"/>
<path style="fill:none;stroke-width:0.02;stroke-linecap:round;stroke-linejoin:miter;stroke:rgb(0%,0%,0%);stroke-opacity:1;stroke-miterlimit:10;" d="M 0.525033 0.428369 L 0.525033 7.838356 " transform="matrix(28.346457,0,0,-28.346457,1,227.771654)"/>
<path style=" stroke:none;fill-rule:nonzero;fill:rgb(0%,0%,0%);fill-opacity:1;" d="M 9.070312 212.886719 C 9.824219 212.941406 10.324219 213.632812 10.460938 214.332031 C 10.53125 214.648438 10.546875 214.949219 10.578125 215.265625 L 10.578125 216.078125 C 10.539062 216.902344 10.34375 217.988281 9.445312 218.324219 C 8.667969 218.632812 7.753906 218.148438 7.523438 217.355469 C 7.347656 216.933594 7.332031 216.503906 7.292969 216.078125 L 7.292969 215.265625 C 7.332031 214.441406 7.507812 213.347656 8.398438 212.980469 L 8.4375 212.964844 L 8.46875 212.957031 L 8.507812 212.941406 L 8.628906 212.910156 L 8.699219 212.894531 L 8.785156 212.894531 L 8.800781 212.886719 Z M 9.070312 212.886719 Z M 8.824219 213.371094 C 8.160156 213.449219 7.960938 214.25 7.914062 214.789062 L 7.914062 215.003906 L 7.898438 215.019531 L 7.898438 216.125 C 7.945312 216.695312 7.984375 217.433594 8.507812 217.816406 C 8.992188 218.148438 9.636719 217.773438 9.769531 217.257812 C 9.914062 216.878906 9.945312 216.503906 9.976562 216.125 L 9.976562 215.019531 C 9.929688 214.441406 9.851562 213.632812 9.183594 213.402344 L 9.128906 213.386719 L 9.113281 213.371094 L 9.039062 213.371094 L 9.023438 213.355469 L 8.839844 213.355469 Z M 8.824219 213.371094 Z M 8.824219 213.371094 "/>
<path style=" stroke:none;fill-rule:nonzero;fill:rgb(0%,0%,0%);fill-opacity:1;" d="M 10.246094 183.046875 L 10.246094 183.539062 L 8.183594 183.539062 L 8.167969 183.546875 L 8.167969 185.171875 C 8.359375 185.046875 8.628906 184.878906 8.882812 184.871094 C 9.777344 184.777344 10.46875 185.65625 10.507812 186.476562 C 10.636719 187.515625 9.660156 188.546875 8.613281 188.386719 C 8.085938 188.371094 7.578125 188.0625 7.277344 187.632812 C 7.367188 187.515625 7.4375 187.308594 7.539062 187.238281 C 7.914062 187.96875 9.121094 188.261719 9.605469 187.492188 C 9.914062 186.910156 9.90625 186.171875 9.546875 185.617188 C 9.136719 185.085938 8.316406 185.410156 8.128906 185.976562 L 7.613281 185.976562 L 7.613281 183.046875 Z M 10.246094 183.046875 Z M 10.246094 183.046875 "/>
<path style=" stroke:none;fill-rule:nonzero;fill:rgb(0%,0%,0%);fill-opacity:1;" d="M 5.347656 152.875 L 5.347656 157.769531 L 5.355469 157.785156 L 6.332031 157.785156 L 6.332031 158.222656 L 3.753906 158.222656 L 3.753906 157.785156 L 4.730469 157.785156 L 4.746094 157.769531 L 4.746094 153.660156 C 4.414062 153.769531 4.0625 153.839844 3.714844 153.832031 L 3.714844 153.390625 C 4.238281 153.398438 4.808594 153.253906 5.207031 152.875 Z M 5.347656 152.875 Z M 5.347656 152.875 "/>
<path style=" stroke:none;fill-rule:nonzero;fill:rgb(0%,0%,0%);fill-opacity:1;" d="M 9.070312 152.875 C 9.824219 152.929688 10.324219 153.621094 10.460938 154.316406 C 10.53125 154.636719 10.546875 154.9375 10.578125 155.253906 L 10.578125 156.0625 C 10.539062 156.890625 10.34375 157.976562 9.445312 158.308594 C 8.667969 158.621094 7.753906 158.136719 7.523438 157.339844 C 7.347656 156.921875 7.332031 156.492188 7.292969 156.0625 L 7.292969 155.253906 C 7.332031 154.429688 7.507812 153.332031 8.398438 152.96875 L 8.4375 152.953125 L 8.46875 152.945312 L 8.507812 152.929688 L 8.628906 152.898438 L 8.699219 152.882812 L 8.785156 152.882812 L 8.800781 152.875 Z M 9.070312 152.875 Z M 8.824219 153.355469 C 8.160156 153.4375 7.960938 154.238281 7.914062 154.777344 L 7.914062 154.992188 L 7.898438 155.007812 L 7.898438 156.113281 C 7.945312 156.683594 7.984375 157.421875 8.507812 157.800781 C 8.992188 158.136719 9.636719 157.761719 9.769531 157.246094 C 9.914062 156.867188 9.945312 156.492188 9.976562 156.113281 L 9.976562 155.007812 C 9.929688 154.429688 9.851562 153.621094 9.183594 153.390625 L 9.128906 153.375 L 9.113281 153.355469 L 9.039062 153.355469 L 9.023438 153.339844 L 8.839844 153.339844 Z M 8.824219 153.355469 Z M 8.824219 153.355469 "/>
<path style=" stroke:none;fill-rule:nonzero;fill:rgb(0%,0%,0%);fill-opacity:1;" d="M 5.347656 122.867188 L 5.347656 127.765625 L 5.355469 127.78125 L 6.332031 127.78125 L 6.332031 128.214844 L 3.753906 128.214844 L 3.753906 127.78125 L 4.730469 127.78125 L 4.746094 127.765625 L 4.746094 123.652344 C 4.414062 123.761719 4.0625 123.835938 3.714844 123.828125 L 3.714844 123.382812 C 4.238281 123.390625 4.808594 123.246094 5.207031 122.867188 Z M 5.347656 122.867188 Z M 5.347656 122.867188 "/>
<path style=" stroke:none;fill-rule:nonzero;fill:rgb(0%,0%,0%);fill-opacity:1;" d="M 10.246094 123.035156 L 10.246094 123.527344 L 8.183594 123.527344 L 8.167969 123.535156 L 8.167969 125.160156 C 8.359375 125.035156 8.628906 124.867188 8.882812 124.859375 C 9.777344 124.765625 10.46875 125.644531 10.507812 126.460938 C 10.636719 127.503906 9.660156 128.535156 8.613281 128.375 C 8.085938 128.359375 7.578125 128.050781 7.277344 127.621094 C 7.367188 127.503906 7.4375 127.296875 7.539062 127.222656 C 7.914062 127.953125 9.121094 128.25 9.605469 127.476562 C 9.914062 126.898438 9.90625 126.160156 9.546875 125.605469 C 9.136719 125.074219 8.316406 125.398438 8.128906 125.960938 L 7.613281 125.960938 L 7.613281 123.035156 Z M 10.246094 123.035156 Z M 10.246094 123.035156 "/>
<path style=" stroke:none;fill-rule:nonzero;fill:rgb(0%,0%,0%);fill-opacity:1;" d="M 5.015625 92.859375 C 5.9375 92.882812 6.667969 93.828125 6.523438 94.71875 C 6.429688 95.605469 5.59375 96.113281 5 96.671875 L 4.746094 96.933594 L 4.714844 96.949219 L 4.398438 97.257812 L 4.375 97.273438 L 4.054688 97.589844 L 4.023438 97.605469 L 3.953125 97.679688 L 3.96875 97.6875 L 6.539062 97.6875 L 6.539062 98.210938 L 3.398438 98.210938 L 3.398438 97.734375 L 4.675781 96.457031 C 5.285156 95.925781 6 95.234375 5.890625 94.359375 C 5.824219 93.851562 5.398438 93.382812 4.875 93.34375 C 4.339844 93.265625 3.875 93.6875 3.753906 94.195312 L 3.738281 94.21875 L 3.722656 94.273438 L 3.699219 94.359375 L 3.652344 94.535156 L 3.644531 94.574219 C 3.53125 94.441406 3.414062 94.296875 3.324219 94.144531 C 3.484375 93.496094 4.007812 92.882812 4.699219 92.859375 Z M 5.015625 92.859375 Z M 5.015625 92.859375 "/>
<path style=" stroke:none;fill-rule:nonzero;fill:rgb(0%,0%,0%);fill-opacity:1;" d="M 9.070312 92.859375 C 9.824219 92.914062 10.324219 93.605469 10.460938 94.304688 C 10.53125 94.621094 10.546875 94.925781 10.578125 95.242188 L 10.578125 96.050781 C 10.539062 96.875 10.34375 97.964844 9.445312 98.296875 C 8.667969 98.605469 7.753906 98.121094 7.523438 97.328125 C 7.347656 96.910156 7.332031 96.480469 7.292969 96.050781 L 7.292969 95.242188 C 7.332031 94.417969 7.507812 93.320312 8.398438 92.957031 L 8.4375 92.941406 L 8.46875 92.933594 L 8.507812 92.914062 L 8.628906 92.882812 L 8.699219 92.867188 L 8.785156 92.867188 L 8.800781 92.859375 Z M 9.070312 92.859375 Z M 8.824219 93.34375 C 8.160156 93.425781 7.960938 94.226562 7.914062 94.765625 L 7.914062 94.980469 L 7.898438 94.996094 L 7.898438 96.097656 C 7.945312 96.671875 7.984375 97.410156 8.507812 97.789062 C 8.992188 98.121094 9.636719 97.75 9.769531 97.234375 C 9.914062 96.851562 9.945312 96.480469 9.976562 96.097656 L 9.976562 94.996094 C 9.929688 94.417969 9.851562 93.605469 9.183594 93.375 L 9.128906 93.359375 L 9.113281 93.34375 L 9.039062 93.34375 L 9.023438 93.328125 L 8.839844 93.328125 Z M 8.824219 93.34375 Z M 8.824219 93.34375 "/>
<path style=" stroke:none;fill-rule:nonzero;fill:rgb(0%,0%,0%);fill-opacity:1;" d="M 5.015625 62.855469 C 5.9375 62.878906 6.667969 63.824219 6.523438 64.710938 C 6.429688 65.601562 5.59375 66.109375 5 66.664062 L 4.746094 66.925781 L 4.714844 66.941406 L 4.398438 67.25 L 4.375 67.265625 L 4.054688 67.585938 L 4.023438 67.601562 L 3.953125 67.671875 L 3.96875 67.679688 L 6.539062 67.679688 L 6.539062 68.203125 L 3.398438 68.203125 L 3.398438 67.726562 L 4.675781 66.449219 C 5.285156 65.917969 6 65.226562 5.890625 64.355469 C 5.824219 63.847656 5.398438 63.378906 4.875 63.339844 C 4.339844 63.257812 3.875 63.679688 3.753906 64.1875 L 3.738281 64.210938 L 3.722656 64.265625 L 3.699219 64.355469 L 3.652344 64.527344 L 3.644531 64.570312 C 3.53125 64.433594 3.414062 64.289062 3.324219 64.140625 C 3.484375 63.488281 4.007812 62.878906 4.699219 62.855469 Z M 5.015625 62.855469 Z M 5.015625 62.855469 "/>
<path style=" stroke:none;fill-rule:nonzero;fill:rgb(0%,0%,0%);fill-opacity:1;" d="M 10.246094 63.019531 L 10.246094 63.511719 L 8.183594 63.511719 L 8.167969 63.519531 L 8.167969 65.148438 C 8.359375 65.019531 8.628906 64.855469 8.882812 64.847656 C 9.777344 64.75 10.46875 65.632812 10.507812 66.449219 C 10.636719 67.488281 9.660156 68.519531 8.613281 68.363281 C 8.085938 68.347656 7.578125 68.035156 7.277344 67.609375 C 7.367188 67.488281 7.4375 67.28125 7.539062 67.210938 C 7.914062 67.941406 9.121094 68.234375 9.605469 67.464844 C 9.914062 66.886719 9.90625 66.148438 9.546875 65.59375 C 9.136719 65.0625 8.316406 65.386719 8.128906 65.949219 L 7.613281 65.949219 L 7.613281 63.019531 Z M 10.246094 63.019531 Z M 10.246094 63.019531 "/>
<path style=" stroke:none;fill-rule:nonzero;fill:rgb(0%,0%,0%);fill-opacity:1;" d="M 5.121094 32.847656 C 5.816406 32.878906 6.546875 33.523438 6.382812 34.261719 C 6.300781 34.761719 5.953125 35.171875 5.515625 35.394531 C 6.222656 35.617188 6.769531 36.363281 6.578125 37.101562 C 6.390625 38.0625 5.285156 38.59375 4.398438 38.300781 C 3.96875 38.171875 3.53125 37.902344 3.324219 37.507812 C 3.375 37.386719 3.355469 37.179688 3.414062 37.101562 C 3.832031 37.722656 4.722656 38.140625 5.421875 37.792969 C 6.183594 37.308594 6.0625 35.894531 5.144531 35.65625 L 5.070312 35.65625 L 5.054688 35.640625 L 4.316406 35.640625 L 4.316406 35.164062 C 4.769531 35.15625 5.332031 35.101562 5.585938 34.632812 C 5.859375 34.230469 5.832031 33.5625 5.316406 33.363281 C 4.707031 33.125 3.953125 33.515625 3.722656 34.132812 C 3.628906 34 3.53125 33.863281 3.4375 33.722656 C 3.761719 33.132812 4.453125 32.785156 5.121094 32.847656 Z M 5.121094 32.847656 Z M 5.121094 32.847656 "/>
<path style=" stroke:none;fill-rule:nonzero;fill:rgb(0%,0%,0%);fill-opacity:1;" d="M 9.070312 32.847656 C 9.824219 32.902344 10.324219 33.59375 10.460938 34.292969 C 10.53125 34.609375 10.546875 34.910156 10.578125 35.230469 L 10.578125 36.039062 C 10.539062 36.863281 10.34375 37.953125 9.445312 38.285156 C 8.667969 38.59375 7.753906 38.109375 7.523438 37.316406 C 7.347656 36.894531 7.332031 36.46875 7.292969 36.039062 L 7.292969 35.230469 C 7.332031 34.402344 7.507812 33.308594 8.398438 32.941406 L 8.4375 32.925781 L 8.46875 32.917969 L 8.507812 32.902344 L 8.628906 32.871094 L 8.699219 32.855469 L 8.785156 32.855469 L 8.800781 32.847656 Z M 9.070312 32.847656 Z M 8.824219 33.332031 C 8.160156 33.410156 7.960938 34.214844 7.914062 34.753906 L 7.914062 34.96875 L 7.898438 34.984375 L 7.898438 36.085938 C 7.945312 36.65625 7.984375 37.394531 8.507812 37.777344 C 8.992188 38.109375 9.636719 37.738281 9.769531 37.222656 C 9.914062 36.839844 9.945312 36.46875 9.976562 36.085938 L 9.976562 34.984375 C 9.929688 34.402344 9.851562 33.59375 9.183594 33.363281 L 9.128906 33.347656 L 9.113281 33.332031 L 9.039062 33.332031 L 9.023438 33.316406 L 8.839844 33.316406 Z M 8.824219 33.332031 Z M 8.824219 33.332031 "/>
<path style=" stroke:none;fill-rule:nonzero;fill:rgb(0%,0%,0%);fill-opacity:1;" d="M 5.121094 2.839844 C 5.816406 2.875 6.546875 3.515625 6.382812 4.253906 C 6.300781 4.753906 5.953125 5.167969 5.515625 5.390625 C 6.222656 5.613281 6.769531 6.359375 6.578125 7.09375 C 6.390625 8.054688 5.285156 8.585938 4.398438 8.292969 C 3.96875 8.167969 3.53125 7.898438 3.324219 7.5 C 3.375 7.382812 3.355469 7.175781 3.414062 7.09375 C 3.832031 7.714844 4.722656 8.136719 5.421875 7.785156 C 6.183594 7.300781 6.0625 5.890625 5.144531 5.652344 L 5.070312 5.652344 L 5.054688 5.636719 L 4.316406 5.636719 L 4.316406 5.160156 C 4.769531 5.152344 5.332031 5.09375 5.585938 4.628906 C 5.859375 4.222656 5.832031 3.554688 5.316406 3.355469 C 4.707031 3.121094 3.953125 3.507812 3.722656 4.128906 C 3.628906 3.992188 3.53125 3.855469 3.4375 3.714844 C 3.761719 3.128906 4.453125 2.777344 5.121094 2.839844 Z M 5.121094 2.839844 Z M 5.121094 2.839844 "/>
<path style=" stroke:none;fill-rule:nonzero;fill:rgb(0%,0%,0%);fill-opacity:1;" d="M 10.246094 3.007812 L 10.246094 3.5 L 8.183594 3.5 L 8.167969 3.507812 L 8.167969 5.136719 C 8.359375 5.007812 8.628906 4.839844 8.882812 4.832031 C 9.777344 4.738281 10.46875 5.621094 10.507812 6.4375 C 10.636719 7.476562 9.660156 8.507812 8.613281 8.351562 C 8.085938 8.332031 7.578125 8.023438 7.277344 7.59375 C 7.367188 7.476562 7.4375 7.269531 7.539062 7.199219 C 7.914062 7.929688 9.121094 8.222656 9.605469 7.453125 C 9.914062 6.875 9.90625 6.136719 9.546875 5.578125 C 9.136719 5.046875 8.316406 5.375 8.128906 5.9375 L 7.613281 5.9375 L 7.613281 3.007812 Z M 10.246094 3.007812 Z M 10.246094 3.007812 "/>
<path style="fill:none;stroke-width:0.02;stroke-linecap:butt;stroke-linejoin:miter;stroke:rgb(0%,0%,0%);stroke-opacity:1;stroke-miterlimit:10;" d="M 9.751274 1.486978 L 9.646267 1.486978 " transform="matrix(28.346457,0,0,-28.346457,1,227.771654)"/>
<path style="fill:none;stroke-width:0.02;stroke-linecap:butt;stroke-linejoin:miter;stroke:rgb(0%,0%,0%);stroke-opacity:1;stroke-miterlimit:10;" d="M 9.751274 2.545449 L 9.646267 2.545449 " transform="matrix(28.346457,0,0,-28.346457,1,227.771654)"/>
<path style="fill:none;stroke-width:0.02;stroke-linecap:butt;stroke-linejoin:miter;stroke:rgb(0%,0%,0%);stroke-opacity:1;stroke-miterlimit:10;" d="M 9.751274 3.604058 L 9.646267 3.604058 " transform="matrix(28.346457,0,0,-28.346457,1,227.771654)"/>
<path style="fill:none;stroke-width:0.02;stroke-linecap:butt;stroke-linejoin:miter;stroke:rgb(0%,0%,0%);stroke-opacity:1;stroke-miterlimit:10;" d="M 9.751274 4.662667 L 9.646267 4.662667 " transform="matrix(28.346457,0,0,-28.346457,1,227.771654)"/>
<path style="fill:none;stroke-width:0.02;stroke-linecap:butt;stroke-linejoin:miter;stroke:rgb(0%,0%,0%);stroke-opacity:1;stroke-miterlimit:10;" d="M 9.751274 5.721138 L 9.646267 5.721138 " transform="matrix(28.346457,0,0,-28.346457,1,227.771654)"/>
<path style="fill:none;stroke-width:0.02;stroke-linecap:butt;stroke-linejoin:miter;stroke:rgb(0%,0%,0%);stroke-opacity:1;stroke-miterlimit:10;" d="M 9.751274 6.779747 L 9.646267 6.779747 " transform="matrix(28.346457,0,0,-28.346457,1,227.771654)"/>
<path style="fill:none;stroke-width:0.02;stroke-linecap:round;stroke-linejoin:miter;stroke:rgb(0%,0%,0%);stroke-opacity:1;stroke-miterlimit:10;" d="M 9.751274 0.428369 L 9.751274 7.838356 " transform="matrix(28.346457,0,0,-28.346457,1,227.771654)"/>
<path style="fill:none;stroke-width:0.02;stroke-linecap:butt;stroke-linejoin:miter;stroke:rgb(0%,0%,0%);stroke-opacity:1;stroke-miterlimit:10;" d="M 2.062648 0.428369 L 2.062648 0.533376 " transform="matrix(28.346457,0,0,-28.346457,1,227.771654)"/>
<path style="fill:none;stroke-width:0.02;stroke-linecap:butt;stroke-linejoin:miter;stroke:rgb(0%,0%,0%);stroke-opacity:1;stroke-miterlimit:10;" d="M 3.6004 0.428369 L 3.6004 0.533376 " transform="matrix(28.346457,0,0,-28.346457,1,227.771654)"/>
<path style="fill:none;stroke-width:0.02;stroke-linecap:butt;stroke-linejoin:miter;stroke:rgb(0%,0%,0%);stroke-opacity:1;stroke-miterlimit:10;" d="M 5.138153 0.428369 L 5.138153 0.533376 " transform="matrix(28.346457,0,0,-28.346457,1,227.771654)"/>
<path style="fill:none;stroke-width:0.02;stroke-linecap:butt;stroke-linejoin:miter;stroke:rgb(0%,0%,0%);stroke-opacity:1;stroke-miterlimit:10;" d="M 6.675768 0.428369 L 6.675768 0.533376 " transform="matrix(28.346457,0,0,-28.346457,1,227.771654)"/>
<path style="fill:none;stroke-width:0.02;stroke-linecap:butt;stroke-linejoin:miter;stroke:rgb(0%,0%,0%);stroke-opacity:1;stroke-miterlimit:10;" d="M 8.213521 0.428369 L 8.213521 0.533376 " transform="matrix(28.346457,0,0,-28.346457,1,227.771654)"/>
<path style="fill:none;stroke-width:0.02;stroke-linecap:round;stroke-linejoin:miter;stroke:rgb(0%,0%,0%);stroke-opacity:1;stroke-miterlimit:10;" d="M 0.525033 0.428369 L 9.751274 0.428369 " transform="matrix(28.346457,0,0,-28.346457,1,227.771654)"/>
<path style=" stroke:none;fill-rule:nonzero;fill:rgb(0%,0%,0%);fill-opacity:1;" d="M 12.933594 220.445312 C 13.6875 220.5 14.1875 221.191406 14.324219 221.890625 C 14.394531 222.207031 14.410156 222.507812 14.441406 222.828125 L 14.441406 223.636719 C 14.402344 224.460938 14.203125 225.550781 13.304688 225.882812 C 12.527344 226.191406 11.617188 225.707031 11.386719 224.914062 C 11.210938 224.492188 11.195312 224.066406 11.15625 223.636719 L 11.15625 222.828125 C 11.195312 222 11.371094 220.90625 12.257812 220.542969 L 12.296875 220.523438 L 12.332031 220.515625 L 12.371094 220.5 L 12.488281 220.46875 L 12.558594 220.453125 L 12.648438 220.453125 L 12.664062 220.445312 Z M 12.933594 220.445312 Z M 12.6875 220.929688 C 12.019531 221.007812 11.820312 221.8125 11.773438 222.351562 L 11.773438 222.566406 L 11.757812 222.582031 L 11.757812 223.683594 C 11.804688 224.253906 11.847656 224.992188 12.371094 225.375 C 12.855469 225.707031 13.496094 225.335938 13.632812 224.820312 C 13.773438 224.4375 13.804688 224.066406 13.839844 223.683594 L 13.839844 222.582031 C 13.789062 222 13.710938 221.191406 13.042969 220.960938 L 12.988281 220.945312 L 12.972656 220.929688 L 12.902344 220.929688 L 12.886719 220.914062 L 12.703125 220.914062 Z M 12.6875 220.929688 Z M 12.6875 220.929688 "/>
<path style=" stroke:none;fill-rule:nonzero;fill:rgb(0%,0%,0%);fill-opacity:1;" d="M 16.210938 225.160156 L 16.210938 225.796875 L 15.570312 225.796875 L 15.570312 225.160156 Z M 16.210938 225.160156 Z M 16.210938 225.160156 "/>
<path style=" stroke:none;fill-rule:nonzero;fill:rgb(0%,0%,0%);fill-opacity:1;" d="M 19.617188 220.445312 C 19.824219 220.476562 20.0625 220.5 20.257812 220.597656 L 20.257812 221.058594 C 19.710938 220.820312 18.996094 220.785156 18.570312 221.269531 C 18.1875 221.675781 18.011719 222.277344 17.996094 222.8125 C 18.457031 222.199219 19.496094 221.859375 20.0625 222.492188 C 20.625 223.144531 20.71875 224.082031 20.464844 224.875 C 20.1875 225.507812 19.542969 226.089844 18.832031 225.953125 C 17.863281 225.875 17.425781 224.796875 17.378906 223.96875 C 17.195312 222.804688 17.472656 221.335938 18.585938 220.667969 L 18.601562 220.660156 L 18.765625 220.574219 L 18.816406 220.558594 L 18.839844 220.542969 L 18.972656 220.5 L 19.085938 220.46875 L 19.15625 220.453125 L 19.242188 220.453125 L 19.257812 220.445312 Z M 19.617188 220.445312 Z M 18.839844 222.652344 C 18.148438 222.769531 17.925781 223.605469 18.011719 224.167969 C 18.050781 224.699219 18.257812 225.40625 18.871094 225.515625 C 19.519531 225.605469 19.941406 224.90625 19.957031 224.34375 C 19.988281 223.769531 19.957031 223.121094 19.457031 222.746094 L 19.347656 222.691406 L 19.257812 222.667969 L 19.1875 222.652344 L 19.171875 222.636719 L 18.855469 222.636719 Z M 18.839844 222.652344 Z M 18.839844 222.652344 "/>
<path style=" stroke:none;fill-rule:nonzero;fill:rgb(0%,0%,0%);fill-opacity:1;" d="M 56.523438 220.445312 C 57.277344 220.5 57.777344 221.191406 57.910156 221.890625 C 57.980469 222.207031 57.996094 222.507812 58.03125 222.828125 L 58.03125 223.636719 C 57.988281 224.460938 57.792969 225.550781 56.894531 225.882812 C 56.117188 226.191406 55.203125 225.707031 54.972656 224.914062 C 54.800781 224.492188 54.785156 224.066406 54.742188 223.636719 L 54.742188 222.828125 C 54.785156 222 54.957031 220.90625 55.847656 220.542969 L 55.886719 220.523438 L 55.917969 220.515625 L 55.957031 220.5 L 56.078125 220.46875 L 56.148438 220.453125 L 56.234375 220.453125 L 56.25 220.445312 Z M 56.523438 220.445312 Z M 56.277344 220.929688 C 55.609375 221.007812 55.410156 221.8125 55.363281 222.351562 L 55.363281 222.566406 L 55.347656 222.582031 L 55.347656 223.683594 C 55.394531 224.253906 55.433594 224.992188 55.957031 225.375 C 56.441406 225.707031 57.085938 225.335938 57.21875 224.820312 C 57.363281 224.4375 57.394531 224.066406 57.425781 223.683594 L 57.425781 222.582031 C 57.378906 222 57.300781 221.191406 56.632812 220.960938 L 56.578125 220.945312 L 56.5625 220.929688 L 56.488281 220.929688 L 56.472656 220.914062 L 56.292969 220.914062 Z M 56.277344 220.929688 Z M 56.277344 220.929688 "/>
<path style=" stroke:none;fill-rule:nonzero;fill:rgb(0%,0%,0%);fill-opacity:1;" d="M 59.800781 225.160156 L 59.800781 225.796875 L 59.15625 225.796875 L 59.15625 225.160156 Z M 59.800781 225.160156 Z M 59.800781 225.160156 "/>
<path style=" stroke:none;fill-rule:nonzero;fill:rgb(0%,0%,0%);fill-opacity:1;" d="M 62.703125 220.445312 C 63.546875 220.476562 64.339844 221.382812 64.007812 222.222656 C 63.863281 222.613281 63.464844 222.851562 63.140625 223.015625 C 63.949219 223.253906 64.441406 224.199219 64.078125 224.976562 C 63.695312 225.984375 62.253906 226.304688 61.457031 225.574219 C 60.734375 225 60.710938 223.761719 61.515625 223.253906 C 61.632812 223.128906 61.855469 223.089844 61.957031 222.992188 C 61.269531 222.796875 60.800781 221.992188 61.125 221.320312 C 61.386719 220.714844 62.0625 220.382812 62.703125 220.445312 Z M 62.703125 220.445312 Z M 62.402344 220.898438 C 61.816406 220.914062 61.402344 221.582031 61.601562 222.105469 C 61.832031 223.007812 63.347656 222.976562 63.523438 222.050781 C 63.679688 221.53125 63.269531 220.914062 62.703125 220.898438 L 62.6875 220.890625 L 62.417969 220.890625 Z M 62.402344 220.898438 Z M 62.417969 223.253906 C 61.726562 223.304688 61.386719 224.128906 61.570312 224.714844 C 61.6875 225.550781 62.878906 225.796875 63.347656 225.128906 C 63.800781 224.515625 63.578125 223.421875 62.761719 223.253906 L 62.6875 223.253906 L 62.671875 223.238281 L 62.425781 223.238281 Z M 62.417969 223.253906 Z M 62.417969 223.253906 "/>
<path style=" stroke:none;fill-rule:nonzero;fill:rgb(0%,0%,0%);fill-opacity:1;" d="M 100.355469 220.445312 L 100.355469 225.34375 L 100.363281 225.359375 L 101.339844 225.359375 L 101.339844 225.796875 L 98.761719 225.796875 L 98.761719 225.359375 L 99.738281 225.359375 L 99.753906 225.34375 L 99.753906 221.230469 C 99.417969 221.34375 99.070312 221.414062 98.722656 221.40625 L 98.722656 220.960938 C 99.246094 220.96875 99.816406 220.828125 100.214844 220.445312 Z M 100.355469 220.445312 Z M 100.355469 220.445312 "/>
<path style=" stroke:none;fill-rule:nonzero;fill:rgb(0%,0%,0%);fill-opacity:1;" d="M 103.386719 225.160156 L 103.386719 225.796875 L 102.746094 225.796875 L 102.746094 225.160156 Z M 103.386719 225.160156 Z M 103.386719 225.160156 "/>
<path style=" stroke:none;fill-rule:nonzero;fill:rgb(0%,0%,0%);fill-opacity:1;" d="M 106.277344 220.445312 C 107.03125 220.5 107.53125 221.191406 107.667969 221.890625 C 107.738281 222.207031 107.753906 222.507812 107.785156 222.828125 L 107.785156 223.636719 C 107.746094 224.460938 107.546875 225.550781 106.648438 225.882812 C 105.871094 226.191406 104.960938 225.707031 104.730469 224.914062 C 104.554688 224.492188 104.539062 224.066406 104.5 223.636719 L 104.5 222.828125 C 104.539062 222 104.714844 220.90625 105.601562 220.542969 L 105.640625 220.523438 L 105.675781 220.515625 L 105.714844 220.5 L 105.832031 220.46875 L 105.902344 220.453125 L 105.992188 220.453125 L 106.007812 220.445312 Z M 106.277344 220.445312 Z M 106.03125 220.929688 C 105.363281 221.007812 105.167969 221.8125 105.117188 222.351562 L 105.117188 222.566406 L 105.101562 222.582031 L 105.101562 223.683594 C 105.148438 224.253906 105.191406 224.992188 105.714844 225.375 C 106.199219 225.707031 106.839844 225.335938 106.976562 224.820312 C 107.117188 224.4375 107.148438 224.066406 107.183594 223.683594 L 107.183594 222.582031 C 107.132812 222 107.054688 221.191406 106.386719 220.960938 L 106.332031 220.945312 L 106.316406 220.929688 L 106.246094 220.929688 L 106.230469 220.914062 L 106.046875 220.914062 Z M 106.03125 220.929688 Z M 106.03125 220.929688 "/>
<path style=" stroke:none;fill-rule:nonzero;fill:rgb(0%,0%,0%);fill-opacity:1;" d="M 143.945312 220.445312 L 143.945312 225.34375 L 143.953125 225.359375 L 144.929688 225.359375 L 144.929688 225.796875 L 142.347656 225.796875 L 142.347656 225.359375 L 143.324219 225.359375 L 143.339844 225.34375 L 143.339844 221.230469 C 143.007812 221.34375 142.660156 221.414062 142.308594 221.40625 L 142.308594 220.960938 C 142.832031 220.96875 143.40625 220.828125 143.800781 220.445312 Z M 143.945312 220.445312 Z M 143.945312 220.445312 "/>
<path style=" stroke:none;fill-rule:nonzero;fill:rgb(0%,0%,0%);fill-opacity:1;" d="M 146.976562 225.160156 L 146.976562 225.796875 L 146.332031 225.796875 L 146.332031 225.160156 Z M 146.976562 225.160156 Z M 146.976562 225.160156 "/>
<path style=" stroke:none;fill-rule:nonzero;fill:rgb(0%,0%,0%);fill-opacity:1;" d="M 149.777344 220.445312 C 150.699219 220.46875 151.429688 221.414062 151.285156 222.304688 C 151.191406 223.191406 150.359375 223.699219 149.761719 224.253906 L 149.507812 224.515625 L 149.476562 224.535156 L 149.160156 224.84375 L 149.136719 224.859375 L 148.816406 225.175781 L 148.785156 225.191406 L 148.714844 225.261719 L 148.730469 225.273438 L 151.300781 225.273438 L 151.300781 225.796875 L 148.160156 225.796875 L 148.160156 225.320312 L 149.4375 224.042969 C 150.046875 223.507812 150.761719 222.820312 150.652344 221.945312 C 150.589844 221.4375 150.160156 220.96875 149.636719 220.929688 C 149.105469 220.851562 148.636719 221.269531 148.515625 221.777344 L 148.5 221.804688 L 148.484375 221.859375 L 148.460938 221.945312 L 148.414062 222.121094 L 148.40625 222.160156 C 148.292969 222.023438 148.175781 221.882812 148.085938 221.730469 C 148.246094 221.082031 148.769531 220.46875 149.460938 220.445312 Z M 149.777344 220.445312 Z M 149.777344 220.445312 "/>
<path style=" stroke:none;fill-rule:nonzero;fill:rgb(0%,0%,0%);fill-opacity:1;" d="M 187.53125 220.445312 L 187.53125 225.34375 L 187.542969 225.359375 L 188.515625 225.359375 L 188.515625 225.796875 L 185.9375 225.796875 L 185.9375 225.359375 L 186.914062 225.359375 L 186.929688 225.34375 L 186.929688 221.230469 C 186.597656 221.34375 186.246094 221.414062 185.898438 221.40625 L 185.898438 220.960938 C 186.421875 220.96875 186.992188 220.828125 187.390625 220.445312 Z M 187.53125 220.445312 Z M 187.53125 220.445312 "/>
<path style=" stroke:none;fill-rule:nonzero;fill:rgb(0%,0%,0%);fill-opacity:1;" d="M 190.566406 225.160156 L 190.566406 225.796875 L 189.921875 225.796875 L 189.921875 225.160156 Z M 190.566406 225.160156 Z M 190.566406 225.160156 "/>
<path style=" stroke:none;fill-rule:nonzero;fill:rgb(0%,0%,0%);fill-opacity:1;" d="M 194.273438 220.613281 L 194.273438 223.953125 L 194.289062 223.96875 L 195.074219 223.96875 L 195.074219 224.445312 L 194.289062 224.445312 L 194.273438 224.453125 L 194.273438 225.796875 L 193.667969 225.796875 L 193.667969 224.453125 L 193.652344 224.445312 L 191.558594 224.445312 L 191.558594 223.953125 C 192.222656 222.84375 192.890625 221.722656 193.558594 220.613281 Z M 194.273438 220.613281 Z M 193.683594 220.914062 C 193.527344 221.738281 193.015625 222.445312 192.636719 223.167969 C 192.484375 223.429688 192.289062 223.714844 192.175781 223.96875 L 193.699219 223.96875 L 193.707031 223.953125 L 193.707031 220.914062 L 193.699219 220.898438 Z M 193.683594 220.914062 Z M 193.683594 220.914062 "/>
<path style=" stroke:none;fill-rule:nonzero;fill:rgb(0%,0%,0%);fill-opacity:1;" d="M 231.121094 220.445312 L 231.121094 225.34375 L 231.128906 225.359375 L 232.105469 225.359375 L 232.105469 225.796875 L 229.527344 225.796875 L 229.527344 225.359375 L 230.503906 225.359375 L 230.519531 225.34375 L 230.519531 221.230469 C 230.183594 221.34375 229.835938 221.414062 229.488281 221.40625 L 229.488281 220.960938 C 230.011719 220.96875 230.582031 220.828125 230.980469 220.445312 Z M 231.121094 220.445312 Z M 231.121094 220.445312 "/>
<path style=" stroke:none;fill-rule:nonzero;fill:rgb(0%,0%,0%);fill-opacity:1;" d="M 234.152344 225.160156 L 234.152344 225.796875 L 233.511719 225.796875 L 233.511719 225.160156 Z M 234.152344 225.160156 Z M 234.152344 225.160156 "/>
<path style=" stroke:none;fill-rule:nonzero;fill:rgb(0%,0%,0%);fill-opacity:1;" d="M 237.558594 220.445312 C 237.765625 220.476562 238.003906 220.5 238.203125 220.597656 L 238.203125 221.058594 C 237.652344 220.820312 236.9375 220.785156 236.511719 221.269531 C 236.128906 221.675781 235.957031 222.277344 235.9375 222.8125 C 236.398438 222.199219 237.4375 221.859375 238.003906 222.492188 C 238.566406 223.144531 238.660156 224.082031 238.40625 224.875 C 238.128906 225.507812 237.488281 226.089844 236.773438 225.953125 C 235.804688 225.875 235.367188 224.796875 235.320312 223.96875 C 235.136719 222.804688 235.414062 221.335938 236.527344 220.667969 L 236.542969 220.660156 L 236.710938 220.574219 L 236.757812 220.558594 L 236.78125 220.542969 L 236.914062 220.5 L 237.027344 220.46875 L 237.097656 220.453125 L 237.183594 220.453125 L 237.203125 220.445312 Z M 237.558594 220.445312 Z M 236.78125 222.652344 C 236.089844 222.769531 235.867188 223.605469 235.957031 224.167969 C 235.996094 224.699219 236.203125 225.40625 236.8125 225.515625 C 237.464844 225.605469 237.882812 224.90625 237.898438 224.34375 C 237.929688 223.769531 237.898438 223.121094 237.398438 222.746094 L 237.289062 222.691406 L 237.203125 222.667969 L 237.128906 222.652344 L 237.113281 222.636719 L 236.796875 222.636719 Z M 236.78125 222.652344 Z M 236.78125 222.652344 "/>
<path style=" stroke:none;fill-rule:nonzero;fill:rgb(0%,0%,0%);fill-opacity:1;" d="M 274.710938 220.445312 L 274.710938 225.34375 L 274.71875 225.359375 L 275.695312 225.359375 L 275.695312 225.796875 L 273.113281 225.796875 L 273.113281 225.359375 L 274.089844 225.359375 L 274.105469 225.34375 L 274.105469 221.230469 C 273.773438 221.34375 273.425781 221.414062 273.074219 221.40625 L 273.074219 220.960938 C 273.597656 220.96875 274.171875 220.828125 274.566406 220.445312 Z M 274.710938 220.445312 Z M 274.710938 220.445312 "/>
<path style=" stroke:none;fill-rule:nonzero;fill:rgb(0%,0%,0%);fill-opacity:1;" d="M 277.742188 225.160156 L 277.742188 225.796875 L 277.097656 225.796875 L 277.097656 225.160156 Z M 277.742188 225.160156 Z M 277.742188 225.160156 "/>
<path style=" stroke:none;fill-rule:nonzero;fill:rgb(0%,0%,0%);fill-opacity:1;" d="M 280.648438 220.445312 C 281.488281 220.476562 282.28125 221.382812 281.949219 222.222656 C 281.804688 222.613281 281.410156 222.851562 281.082031 223.015625 C 281.894531 223.253906 282.386719 224.199219 282.019531 224.976562 C 281.640625 225.984375 280.195312 226.304688 279.402344 225.574219 C 278.679688 225 278.65625 223.761719 279.457031 223.253906 C 279.574219 223.128906 279.796875 223.089844 279.902344 222.992188 C 279.210938 222.796875 278.742188 221.992188 279.066406 221.320312 C 279.328125 220.714844 280.003906 220.382812 280.648438 220.445312 Z M 280.648438 220.445312 Z M 280.34375 220.898438 C 279.757812 220.914062 279.34375 221.582031 279.542969 222.105469 C 279.773438 223.007812 281.289062 222.976562 281.464844 222.050781 C 281.625 221.53125 281.210938 220.914062 280.648438 220.898438 L 280.632812 220.890625 L 280.359375 220.890625 Z M 280.34375 220.898438 Z M 280.359375 223.253906 C 279.671875 223.304688 279.328125 224.128906 279.511719 224.714844 C 279.632812 225.550781 280.820312 225.796875 281.289062 225.128906 C 281.742188 224.515625 281.519531 223.421875 280.703125 223.253906 L 280.632812 223.253906 L 280.613281 223.238281 L 280.367188 223.238281 Z M 280.359375 223.253906 Z M 280.359375 223.253906 "/>
<path style="fill:none;stroke-width:0.02;stroke-linecap:butt;stroke-linejoin:miter;stroke:rgb(0%,0%,0%);stroke-opacity:1;stroke-miterlimit:10;" d="M 2.062648 7.838356 L 2.062648 7.73335 " transform="matrix(28.346457,0,0,-28.346457,1,227.771654)"/>
<path style="fill:none;stroke-width:0.02;stroke-linecap:butt;stroke-linejoin:miter;stroke:rgb(0%,0%,0%);stroke-opacity:1;stroke-miterlimit:10;" d="M 3.6004 7.838356 L 3.6004 7.73335 " transform="matrix(28.346457,0,0,-28.346457,1,227.771654)"/>
<path style="fill:none;stroke-width:0.02;stroke-linecap:butt;stroke-linejoin:miter;stroke:rgb(0%,0%,0%);stroke-opacity:1;stroke-miterlimit:10;" d="M 5.138153 7.838356 L 5.138153 7.73335 " transform="matrix(28.346457,0,0,-28.346457,1,227.771654)"/>
<path style="fill:none;stroke-width:0.02;stroke-linecap:butt;stroke-linejoin:miter;stroke:rgb(0%,0%,0%);stroke-opacity:1;stroke-miterlimit:10;" d="M 6.675768 7.838356 L 6.675768 7.73335 " transform="matrix(28.346457,0,0,-28.346457,1,227.771654)"/>
<path style="fill:none;stroke-width:0.02;stroke-linecap:butt;stroke-linejoin:miter;stroke:rgb(0%,0%,0%);stroke-opacity:1;stroke-miterlimit:10;" d="M 8.213521 7.838356 L 8.213521 7.73335 " transform="matrix(28.346457,0,0,-28.346457,1,227.771654)"/>
<path style="fill:none;stroke-width:0.02;stroke-linecap:round;stroke-linejoin:miter;stroke:rgb(0%,0%,0%);stroke-opacity:1;stroke-miterlimit:10;" d="M 0.525033 7.838356 L 9.751274 7.838356 " transform="matrix(28.346457,0,0,-28.346457,1,227.771654)"/>
</g>
</svg>
