<?xml version="1.0" encoding="UTF-8"?>
<svg xmlns="http://www.w3.org/2000/svg" xmlns:xlink="http://www.w3.org/1999/xlink" width="285.464567pt" height="228.771654pt" viewBox="0 0 285.464567 228.771654" version="1.1">
<g id="surface1">
<path style="fill-rule:nonzero;fill:rgb(100%,100%,100%);fill-opacity:1;stroke-width:0.02;stroke-linecap:butt;stroke-linejoin:miter;stroke:rgb(32.941176%,47.058824%,63.921569%);stroke-opacity:1;stroke-miterlimit:10;" d="M 0.853281 0.428369 L 1.438672 0.428369 L 1.438672 1.354686 L 0.853281 1.354686 Z M 0.853281 0.428369 " transform="matrix(28.346457,0,0,-28.346457,1,227.771654)"/>
<path style="fill-rule:nonzero;fill:rgb(100%,100%,100%);fill-opacity:1;stroke-width:0.02;stroke-linecap:butt;stroke-linejoin:miter;stroke:rgb(32.941176%,47.058824%,63.921569%);stroke-opacity:1;stroke-miterlimit:10;" d="M 3.194844 0.428369 L 3.780234 0.428369 L 3.780234 1.354686 L 3.194844 1.354686 Z M 3.194844 0.428369 " transform="matrix(28.346457,0,0,-28.346457,1,227.771654)"/>
<path style="fill-rule:nonzero;fill:rgb(100%,100%,100%);fill-opacity:1;stroke-width:0.02;stroke-linecap:butt;stroke-linejoin:miter;stroke:rgb(32.941176%,47.058824%,63.921569%);stroke-opacity:1;stroke-miterlimit:10;" d="M 5.536406 0.428369 L 6.121797 0.428369 L 6.121797 5.059542 L 5.536406 5.059542 Z M 5.536406 0.428369 " transform="matrix(28.346457,0,0,-28.346457,1,227.771654)"/>
<path style="fill-rule:nonzero;fill:rgb(100%,100%,100%);fill-opacity:1;stroke-width:0.02;stroke-linecap:butt;stroke-linejoin:miter;stroke:rgb(32.941176%,47.058824%,63.921569%);stroke-opacity:1;stroke-miterlimit:10;" d="M 7.877969 0.428369 L 8.463359 0.428369 L 8.463359 2.280866 L 7.877969 2.280866 Z M 7.877969 0.428369 " transform="matrix(28.346457,0,0,-28.346457,1,227.771654)"/>
<path style="fill-rule:nonzero;fill:rgb(100%,100%,100%);fill-opacity:1;stroke-width:0.02;stroke-linecap:butt;stroke-linejoin:miter;stroke:rgb(90.196078%,56.862745%,25.882353%);stroke-opacity:1;stroke-miterlimit:10;" d="M 1.672801 0.428369 L 2.258191 0.428369 L 2.258191 2.280866 L 1.672801 2.280866 Z M 1.672801 0.428369 " transform="matrix(28.346457,0,0,-28.346457,1,227.771654)"/>
<path style="fill-rule:nonzero;fill:rgb(100%,100%,100%);fill-opacity:1;stroke-width:0.02;stroke-linecap:butt;stroke-linejoin:miter;stroke:rgb(90.196078%,56.862745%,25.882353%);stroke-opacity:1;stroke-miterlimit:10;" d="M 4.014363 0.428369 L 4.599754 0.428369 L 4.599754 2.280866 L 4.014363 2.280866 Z M 4.014363 0.428369 " transform="matrix(28.346457,0,0,-28.346457,1,227.771654)"/>
<path style="fill-rule:nonzero;fill:rgb(100%,100%,100%);fill-opacity:1;stroke-width:0.02;stroke-linecap:butt;stroke-linejoin:miter;stroke:rgb(90.196078%,56.862745%,25.882353%);stroke-opacity:1;stroke-miterlimit:10;" d="M 6.355926 0.428369 L 6.941316 0.428369 L 6.941316 6.912039 L 6.355926 6.912039 Z M 6.355926 0.428369 " transform="matrix(28.346457,0,0,-28.346457,1,227.771654)"/>
<path style="fill-rule:nonzero;fill:rgb(100%,100%,100%);fill-opacity:1;stroke-width:0.02;stroke-linecap:butt;stroke-linejoin:miter;stroke:rgb(90.196078%,56.862745%,25.882353%);stroke-opacity:1;stroke-miterlimit:10;" d="M 8.697488 0.428369 L 9.282879 0.428369 L 9.282879 3.207045 L 8.697488 3.207045 Z M 8.697488 0.428369 " transform="matrix(28.346457,0,0,-28.346457,1,227.771654)"/>
<path style="fill:none;stroke-width:0.02;stroke-linecap:butt;stroke-linejoin:miter;stroke:rgb(0%,0%,0%);stroke-opacity:1;stroke-miterlimit:10;" d="M 0.385024 1.354686 L 0.49003 1.354686 " transform="matrix(28.346457,0,0,-28.346457,1,227.771654)"/>
<path style="fill:none;stroke-width:0.02;stroke-linecap:butt;stroke-linejoin:miter;stroke:rgb(0%,0%,0%);stroke-opacity:1;stroke-miterlimit:10;" d="M 0.385024 2.280866 L 0.49003 2.280866 " transform="matrix(28.346457,0,0,-28.346457,1,227.771654)"/>
<path style="fill:none;stroke-width:0.02;stroke-linecap:butt;stroke-linejoin:miter;stroke:rgb(0%,0%,0%);stroke-opacity:1;stroke-miterlimit:10;" d="M 0.385024 3.207045 L 0.49003 3.207045 " transform="matrix(28.346457,0,0,-28.346457,1,227.771654)"/>
<path style="fill:none;stroke-width:0.02;stroke-linecap:butt;stroke-linejoin:miter;stroke:rgb(0%,0%,0%);stroke-opacity:1;stroke-miterlimit:10;" d="M 0.385024 4.133363 L 0.49003 4.133363 " transform="matrix(28.346457,0,0,-28.346457,1,227.771654)"/>
<path style="fill:none;stroke-width:0.02;stroke-linecap:butt;stroke-linejoin:miter;stroke:rgb(0%,0%,0%);stroke-opacity:1;stroke-miterlimit:10;" d="M 0.385024 5.059542 L 0.49003 5.059542 " transform="matrix(28.346457,0,0,-28.346457,1,227.771654)"/>
<path style="fill:none;stroke-width:0.02;stroke-linecap:butt;stroke-linejoin:miter;stroke:rgb(0%,0%,0%);stroke-opacity:1;stroke-miterlimit:10;" d="M 0.385024 5.985859 L 0.49003 5.985859 " transform="matrix(28.346457,0,0,-28.346457,1,227.771654)"/>
<path style="fill:none;stroke-width:0.02;stroke-linecap:butt;stroke-linejoin:miter;stroke:rgb(0%,0%,0%);stroke-opacity:1;stroke-miterlimit:10;" d="M 0.385024 6.912039 L 0.49003 6.912039 " transform="matrix(28.346457,0,0,-28.346457,1,227.771654)"/>
<path style="fill:none;stroke-width:0.02;stroke-linecap:round;stroke-linejoin:miter;stroke:rgb(0%,0%,0%);stroke-opacity:1;stroke-miterlimit:10;" d="M 0.385024 0.428369 L 0.385024 7.838356 " transform="matrix(28.346457,0,0,-28.346457,1,227.771654)"/>
<path style=" stroke:none;fill-rule:nonzero;fill:rgb(0%,0%,0%);fill-opacity:1;" d="M 5.101562 212.886719 C 5.859375 212.941406 6.359375 213.632812 6.492188 214.332031 C 6.5625 214.648438 6.578125 214.949219 6.613281 215.265625 L 6.613281 216.078125 C 6.570312 216.902344 6.375 217.988281 5.476562 218.324219 C 4.699219 218.632812 3.785156 218.148438 3.554688 217.355469 C 3.382812 216.933594 3.363281 216.503906 3.324219 216.078125 L 3.324219 215.265625 C 3.363281 214.441406 3.539062 213.347656 4.429688 212.980469 L 4.46875 212.964844 L 4.5 212.957031 L 4.539062 212.941406 L 4.660156 212.910156 L 4.730469 212.894531 L 4.816406 212.894531 L 4.832031 212.886719 Z M 5.101562 212.886719 Z M 4.855469 213.371094 C 4.191406 213.449219 3.992188 214.25 3.945312 214.789062 L 3.945312 215.003906 L 3.929688 215.019531 L 3.929688 216.125 C 3.976562 216.695312 4.015625 217.433594 4.539062 217.816406 C 5.023438 218.148438 5.667969 217.773438 5.800781 217.257812 C 5.945312 216.878906 5.976562 216.503906 6.007812 216.125 L 6.007812 215.019531 C 5.960938 214.441406 5.882812 213.632812 5.214844 213.402344 L 5.160156 213.386719 L 5.144531 213.371094 L 5.070312 213.371094 L 5.054688 213.355469 L 4.875 213.355469 Z M 4.855469 213.371094 Z M 4.855469 213.371094 "/>
<path style=" stroke:none;fill-rule:nonzero;fill:rgb(0%,0%,0%);fill-opacity:1;" d="M 5.347656 186.628906 L 5.347656 191.527344 L 5.355469 191.542969 L 6.332031 191.542969 L 6.332031 191.980469 L 3.753906 191.980469 L 3.753906 191.542969 L 4.730469 191.542969 L 4.746094 191.527344 L 4.746094 187.414062 C 4.414062 187.527344 4.0625 187.597656 3.714844 187.589844 L 3.714844 187.144531 C 4.238281 187.152344 4.808594 187.011719 5.207031 186.628906 Z M 5.347656 186.628906 Z M 5.347656 186.628906 "/>
<path style=" stroke:none;fill-rule:nonzero;fill:rgb(0%,0%,0%);fill-opacity:1;" d="M 5.015625 160.375 C 5.9375 160.398438 6.667969 161.34375 6.523438 162.230469 C 6.429688 163.121094 5.59375 163.628906 5 164.183594 L 4.746094 164.445312 L 4.714844 164.460938 L 4.398438 164.773438 L 4.375 164.789062 L 4.054688 165.105469 L 4.023438 165.121094 L 3.953125 165.191406 L 3.96875 165.199219 L 6.539062 165.199219 L 6.539062 165.722656 L 3.398438 165.722656 L 3.398438 165.246094 L 4.675781 163.96875 C 5.285156 163.4375 6 162.746094 5.890625 161.875 C 5.824219 161.367188 5.398438 160.898438 4.875 160.859375 C 4.339844 160.78125 3.875 161.199219 3.753906 161.707031 L 3.738281 161.730469 L 3.722656 161.789062 L 3.699219 161.875 L 3.652344 162.050781 L 3.644531 162.089844 C 3.53125 161.953125 3.414062 161.8125 3.324219 161.660156 C 3.484375 161.007812 4.007812 160.398438 4.699219 160.375 Z M 5.015625 160.375 Z M 5.015625 160.375 "/>
<path style=" stroke:none;fill-rule:nonzero;fill:rgb(0%,0%,0%);fill-opacity:1;" d="M 5.121094 134.121094 C 5.816406 134.152344 6.546875 134.792969 6.382812 135.53125 C 6.300781 136.03125 5.953125 136.445312 5.515625 136.667969 C 6.222656 136.890625 6.769531 137.636719 6.578125 138.375 C 6.390625 139.332031 5.285156 139.867188 4.398438 139.570312 C 3.96875 139.445312 3.53125 139.175781 3.324219 138.777344 C 3.375 138.660156 3.355469 138.453125 3.414062 138.375 C 3.832031 138.992188 4.722656 139.414062 5.421875 139.0625 C 6.183594 138.578125 6.0625 137.167969 5.144531 136.929688 L 5.070312 136.929688 L 5.054688 136.914062 L 4.316406 136.914062 L 4.316406 136.4375 C 4.769531 136.429688 5.332031 136.375 5.585938 135.90625 C 5.859375 135.5 5.832031 134.832031 5.316406 134.636719 C 4.707031 134.398438 3.953125 134.785156 3.722656 135.40625 C 3.628906 135.269531 3.53125 135.136719 3.4375 134.992188 C 3.761719 134.40625 4.453125 134.054688 5.121094 134.121094 Z M 5.121094 134.121094 Z M 5.121094 134.121094 "/>
<path style=" stroke:none;fill-rule:nonzero;fill:rgb(0%,0%,0%);fill-opacity:1;" d="M 5.921875 108.03125 L 5.921875 111.371094 L 5.9375 111.386719 L 6.722656 111.386719 L 6.722656 111.863281 L 5.9375 111.863281 L 5.921875 111.871094 L 5.921875 113.214844 L 5.316406 113.214844 L 5.316406 111.871094 L 5.300781 111.863281 L 3.207031 111.863281 L 3.207031 111.371094 C 3.875 110.261719 4.539062 109.140625 5.207031 108.03125 Z M 5.921875 108.03125 Z M 5.332031 108.332031 C 5.175781 109.15625 4.667969 109.863281 4.285156 110.585938 C 4.136719 110.847656 3.9375 111.132812 3.824219 111.386719 L 5.347656 111.386719 L 5.355469 111.371094 L 5.355469 108.332031 L 5.347656 108.316406 Z M 5.332031 108.332031 Z M 5.332031 108.332031 "/>
<path style=" stroke:none;fill-rule:nonzero;fill:rgb(0%,0%,0%);fill-opacity:1;" d="M 6.277344 81.773438 L 6.277344 82.265625 L 4.214844 82.265625 L 4.199219 82.273438 L 4.199219 83.902344 C 4.390625 83.773438 4.660156 83.609375 4.914062 83.601562 C 5.808594 83.503906 6.5 84.386719 6.539062 85.203125 C 6.667969 86.242188 5.691406 87.273438 4.644531 87.117188 C 4.121094 87.101562 3.609375 86.789062 3.308594 86.363281 C 3.398438 86.242188 3.46875 86.035156 3.570312 85.964844 C 3.945312 86.695312 5.152344 86.988281 5.636719 86.21875 C 5.945312 85.640625 5.9375 84.902344 5.578125 84.347656 C 5.167969 83.816406 4.347656 84.140625 4.160156 84.703125 L 3.644531 84.703125 L 3.644531 81.773438 Z M 6.277344 81.773438 Z M 6.277344 81.773438 "/>
<path style=" stroke:none;fill-rule:nonzero;fill:rgb(0%,0%,0%);fill-opacity:1;" d="M 5.621094 55.351562 C 5.824219 55.382812 6.0625 55.40625 6.261719 55.503906 L 6.261719 55.964844 C 5.714844 55.726562 5 55.695312 4.570312 56.179688 C 4.191406 56.582031 4.015625 57.1875 4 57.71875 C 4.460938 57.105469 5.5 56.765625 6.0625 57.398438 C 6.628906 58.050781 6.722656 58.988281 6.46875 59.78125 C 6.191406 60.417969 5.546875 60.996094 4.832031 60.859375 C 3.867188 60.78125 3.429688 59.703125 3.382812 58.875 C 3.199219 57.710938 3.476562 56.242188 4.585938 55.574219 L 4.601562 55.566406 L 4.769531 55.480469 L 4.816406 55.464844 L 4.839844 55.449219 L 4.976562 55.40625 L 5.085938 55.375 L 5.160156 55.359375 L 5.246094 55.359375 L 5.261719 55.351562 Z M 5.621094 55.351562 Z M 4.839844 57.558594 C 4.152344 57.679688 3.929688 58.511719 4.015625 59.074219 C 4.054688 59.605469 4.261719 60.3125 4.875 60.425781 C 5.523438 60.511719 5.945312 59.8125 5.960938 59.25 C 5.992188 58.679688 5.960938 58.027344 5.460938 57.652344 L 5.347656 57.597656 L 5.261719 57.574219 L 5.191406 57.558594 L 5.175781 57.542969 L 4.855469 57.542969 Z M 4.839844 57.558594 Z M 4.839844 57.558594 "/>
<path style=" stroke:none;fill-rule:nonzero;fill:rgb(0%,0%,0%);fill-opacity:1;" d="M 6.613281 29.261719 L 6.613281 29.761719 C 5.484375 31.082031 4.847656 32.859375 4.855469 34.535156 L 4.214844 34.535156 C 4.199219 32.84375 4.890625 31.058594 6.09375 29.8125 L 6.078125 29.796875 L 3.324219 29.796875 L 3.324219 29.261719 L 6.613281 29.261719 L 6.613281 29.761719 Z M 6.613281 29.261719 Z M 6.613281 29.261719 "/>
<path style=" stroke:none;fill-rule:nonzero;fill:rgb(0%,0%,0%);fill-opacity:1;" d="M 5.121094 2.839844 C 5.960938 2.875 6.753906 3.777344 6.421875 4.621094 C 6.277344 5.007812 5.882812 5.246094 5.554688 5.414062 C 6.367188 5.652344 6.859375 6.59375 6.492188 7.375 C 6.113281 8.382812 4.667969 8.699219 3.875 7.96875 C 3.152344 7.398438 3.128906 6.160156 3.929688 5.652344 C 4.046875 5.523438 4.269531 5.484375 4.375 5.390625 C 3.683594 5.191406 3.214844 4.390625 3.539062 3.714844 C 3.800781 3.109375 4.476562 2.777344 5.121094 2.839844 Z M 5.121094 2.839844 Z M 4.816406 3.292969 C 4.230469 3.308594 3.816406 3.976562 4.015625 4.5 C 4.246094 5.40625 5.761719 5.375 5.9375 4.445312 C 6.09375 3.929688 5.683594 3.308594 5.121094 3.292969 L 5.101562 3.285156 L 4.832031 3.285156 Z M 4.816406 3.292969 Z M 4.832031 5.652344 C 4.144531 5.699219 3.800781 6.523438 3.984375 7.113281 C 4.101562 7.945312 5.292969 8.191406 5.761719 7.523438 C 6.214844 6.914062 5.992188 5.816406 5.175781 5.652344 L 5.101562 5.652344 L 5.085938 5.636719 L 4.839844 5.636719 Z M 4.832031 5.652344 Z M 4.832031 5.652344 "/>
<path style="fill:none;stroke-width:0.02;stroke-linecap:butt;stroke-linejoin:miter;stroke:rgb(0%,0%,0%);stroke-opacity:1;stroke-miterlimit:10;" d="M 9.751274 1.354686 L 9.646267 1.354686 " transform="matrix(28.346457,0,0,-28.346457,1,227.771654)"/>
<path style="fill:none;stroke-width:0.02;stroke-linecap:butt;stroke-linejoin:miter;stroke:rgb(0%,0%,0%);stroke-opacity:1;stroke-miterlimit:10;" d="M 9.751274 2.280866 L 9.646267 2.280866 " transform="matrix(28.346457,0,0,-28.346457,1,227.771654)"/>
<path style="fill:none;stroke-width:0.02;stroke-linecap:butt;stroke-linejoin:miter;stroke:rgb(0%,0%,0%);stroke-opacity:1;stroke-miterlimit:10;" d="M 9.751274 3.207045 L 9.646267 3.207045 " transform="matrix(28.346457,0,0,-28.346457,1,227.771654)"/>
<path style="fill:none;stroke-width:0.02;stroke-linecap:butt;stroke-linejoin:miter;stroke:rgb(0%,0%,0%);stroke-opacity:1;stroke-miterlimit:10;" d="M 9.751274 4.133363 L 9.646267 4.133363 " transform="matrix(28.346457,0,0,-28.346457,1,227.771654)"/>
<path style="fill:none;stroke-width:0.02;stroke-linecap:butt;stroke-linejoin:miter;stroke:rgb(0%,0%,0%);stroke-opacity:1;stroke-miterlimit:10;" d="M 9.751274 5.059542 L 9.646267 5.059542 " transform="matrix(28.346457,0,0,-28.346457,1,227.771654)"/>
<path style="fill:none;stroke-width:0.02;stroke-linecap:butt;stroke-linejoin:miter;stroke:rgb(0%,0%,0%);stroke-opacity:1;stroke-miterlimit:10;" d="M 9.751274 5.985859 L 9.646267 5.985859 " transform="matrix(28.346457,0,0,-28.346457,1,227.771654)"/>
<path style="fill:none;stroke-width:0.02;stroke-linecap:butt;stroke-linejoin:miter;stroke:rgb(0%,0%,0%);stroke-opacity:1;stroke-miterlimit:10;" d="M 9.751274 6.912039 L 9.646267 6.912039 " transform="matrix(28.346457,0,0,-28.346457,1,227.771654)"/>
<path style="fill:none;stroke-width:0.02;stroke-linecap:round;stroke-linejoin:miter;stroke:rgb(0%,0%,0%);stroke-opacity:1;stroke-miterlimit:10;" d="M 9.751274 0.428369 L 9.751274 7.838356 " transform="matrix(28.346457,0,0,-28.346457,1,227.771654)"/>
<path style="fill:none;stroke-width:0.02;stroke-linecap:butt;stroke-linejoin:miter;stroke:rgb(0%,0%,0%);stroke-opacity:1;stroke-miterlimit:10;" d="M 1.555805 0.428369 L 1.555805 0.533376 " transform="matrix(28.346457,0,0,-28.346457,1,227.771654)"/>
<path style="fill:none;stroke-width:0.02;stroke-linecap:butt;stroke-linejoin:miter;stroke:rgb(0%,0%,0%);stroke-opacity:1;stroke-miterlimit:10;" d="M 2.726586 0.428369 L 2.726586 0.533376 " transform="matrix(28.346457,0,0,-28.346457,1,227.771654)"/>
<path style="fill:none;stroke-width:0.02;stroke-linecap:butt;stroke-linejoin:miter;stroke:rgb(0%,0%,0%);stroke-opacity:1;stroke-miterlimit:10;" d="M 3.897368 0.428369 L 3.897368 0.533376 " transform="matrix(28.346457,0,0,-28.346457,1,227.771654)"/>
<path style="fill:none;stroke-width:0.02;stroke-linecap:butt;stroke-linejoin:miter;stroke:rgb(0%,0%,0%);stroke-opacity:1;stroke-miterlimit:10;" d="M 5.068149 0.428369 L 5.068149 0.533376 " transform="matrix(28.346457,0,0,-28.346457,1,227.771654)"/>
<path style="fill:none;stroke-width:0.02;stroke-linecap:butt;stroke-linejoin:miter;stroke:rgb(0%,0%,0%);stroke-opacity:1;stroke-miterlimit:10;" d="M 6.23893 0.428369 L 6.23893 0.533376 " transform="matrix(28.346457,0,0,-28.346457,1,227.771654)"/>
<path style="fill:none;stroke-width:0.02;stroke-linecap:butt;stroke-linejoin:miter;stroke:rgb(0%,0%,0%);stroke-opacity:1;stroke-miterlimit:10;" d="M 7.409711 0.428369 L 7.409711 0.533376 " transform="matrix(28.346457,0,0,-28.346457,1,227.771654)"/>
<path style="fill:none;stroke-width:0.02;stroke-linecap:butt;stroke-linejoin:miter;stroke:rgb(0%,0%,0%);stroke-opacity:1;stroke-miterlimit:10;" d="M 8.580493 0.428369 L 8.580493 0.533376 " transform="matrix(28.346457,0,0,-28.346457,1,227.771654)"/>
<path style="fill:none;stroke-width:0.02;stroke-linecap:round;stroke-linejoin:miter;stroke:rgb(0%,0%,0%);stroke-opacity:1;stroke-miterlimit:10;" d="M 0.385024 0.428369 L 9.751274 0.428369 " transform="matrix(28.346457,0,0,-28.346457,1,227.771654)"/>
<path style=" stroke:none;fill-rule:nonzero;fill:rgb(0%,0%,0%);fill-opacity:1;" d="M 8.964844 220.445312 C 9.71875 220.5 10.21875 221.191406 10.355469 221.890625 C 10.425781 222.207031 10.441406 222.507812 10.472656 222.828125 L 10.472656 223.636719 C 10.433594 224.460938 10.234375 225.550781 9.335938 225.882812 C 8.558594 226.191406 7.648438 225.707031 7.417969 224.914062 C 7.242188 224.492188 7.226562 224.066406 7.1875 223.636719 L 7.1875 222.828125 C 7.226562 222 7.402344 220.90625 8.289062 220.542969 L 8.328125 220.523438 L 8.363281 220.515625 L 8.402344 220.5 L 8.519531 220.46875 L 8.589844 220.453125 L 8.679688 220.453125 L 8.695312 220.445312 Z M 8.964844 220.445312 Z M 8.71875 220.929688 C 8.050781 221.007812 7.855469 221.8125 7.804688 222.351562 L 7.804688 222.566406 L 7.789062 222.582031 L 7.789062 223.683594 C 7.835938 224.253906 7.878906 224.992188 8.402344 225.375 C 8.886719 225.707031 9.527344 225.335938 9.664062 224.820312 C 9.804688 224.4375 9.835938 224.066406 9.871094 223.683594 L 9.871094 222.582031 C 9.820312 222 9.742188 221.191406 9.074219 220.960938 L 9.019531 220.945312 L 9.003906 220.929688 L 8.933594 220.929688 L 8.917969 220.914062 L 8.734375 220.914062 Z M 8.71875 220.929688 Z M 8.71875 220.929688 "/>
<path style=" stroke:none;fill-rule:nonzero;fill:rgb(0%,0%,0%);fill-opacity:1;" d="M 12.242188 225.160156 L 12.242188 225.796875 L 11.601562 225.796875 L 11.601562 225.160156 Z M 12.242188 225.160156 Z M 12.242188 225.160156 "/>
<path style=" stroke:none;fill-rule:nonzero;fill:rgb(0%,0%,0%);fill-opacity:1;" d="M 16.304688 220.613281 L 16.304688 221.105469 L 14.242188 221.105469 L 14.226562 221.113281 L 14.226562 222.738281 C 14.417969 222.613281 14.6875 222.445312 14.941406 222.4375 C 15.839844 222.34375 16.527344 223.222656 16.570312 224.042969 C 16.695312 225.082031 15.71875 226.113281 14.671875 225.953125 C 14.148438 225.9375 13.640625 225.628906 13.339844 225.199219 C 13.425781 225.082031 13.496094 224.875 13.601562 224.804688 C 13.972656 225.535156 15.179688 225.828125 15.664062 225.058594 C 15.972656 224.476562 15.964844 223.738281 15.609375 223.183594 C 15.195312 222.652344 14.378906 222.976562 14.1875 223.542969 L 13.671875 223.542969 L 13.671875 220.613281 Z M 16.304688 220.613281 Z M 16.304688 220.613281 "/>
<path style=" stroke:none;fill-rule:nonzero;fill:rgb(0%,0%,0%);fill-opacity:1;" d="M 42.398438 220.445312 L 42.398438 225.34375 L 42.40625 225.359375 L 43.382812 225.359375 L 43.382812 225.796875 L 40.804688 225.796875 L 40.804688 225.359375 L 41.777344 225.359375 L 41.796875 225.34375 L 41.796875 221.230469 C 41.460938 221.34375 41.113281 221.414062 40.761719 221.40625 L 40.761719 220.960938 C 41.285156 220.96875 41.859375 220.828125 42.253906 220.445312 Z M 42.398438 220.445312 Z M 42.398438 220.445312 "/>
<path style=" stroke:none;fill-rule:nonzero;fill:rgb(0%,0%,0%);fill-opacity:1;" d="M 45.429688 225.160156 L 45.429688 225.796875 L 44.789062 225.796875 L 44.789062 225.160156 Z M 45.429688 225.160156 Z M 45.429688 225.160156 "/>
<path style=" stroke:none;fill-rule:nonzero;fill:rgb(0%,0%,0%);fill-opacity:1;" d="M 48.320312 220.445312 C 49.074219 220.5 49.574219 221.191406 49.707031 221.890625 C 49.78125 222.207031 49.796875 222.507812 49.828125 222.828125 L 49.828125 223.636719 C 49.789062 224.460938 49.589844 225.550781 48.691406 225.882812 C 47.914062 226.191406 47 225.707031 46.773438 224.914062 C 46.597656 224.492188 46.582031 224.066406 46.542969 223.636719 L 46.542969 222.828125 C 46.582031 222 46.753906 220.90625 47.644531 220.542969 L 47.683594 220.523438 L 47.714844 220.515625 L 47.753906 220.5 L 47.875 220.46875 L 47.945312 220.453125 L 48.035156 220.453125 L 48.050781 220.445312 Z M 48.320312 220.445312 Z M 48.074219 220.929688 C 47.40625 221.007812 47.207031 221.8125 47.160156 222.351562 L 47.160156 222.566406 L 47.144531 222.582031 L 47.144531 223.683594 C 47.191406 224.253906 47.230469 224.992188 47.753906 225.375 C 48.238281 225.707031 48.882812 225.335938 49.019531 224.820312 C 49.160156 224.4375 49.191406 224.066406 49.222656 223.683594 L 49.222656 222.582031 C 49.175781 222 49.097656 221.191406 48.429688 220.960938 L 48.375 220.945312 L 48.359375 220.929688 L 48.289062 220.929688 L 48.273438 220.914062 L 48.089844 220.914062 Z M 48.074219 220.929688 Z M 48.074219 220.929688 "/>
<path style=" stroke:none;fill-rule:nonzero;fill:rgb(0%,0%,0%);fill-opacity:1;" d="M 75.585938 220.445312 L 75.585938 225.34375 L 75.59375 225.359375 L 76.570312 225.359375 L 76.570312 225.796875 L 73.992188 225.796875 L 73.992188 225.359375 L 74.964844 225.359375 L 74.980469 225.34375 L 74.980469 221.230469 C 74.648438 221.34375 74.300781 221.414062 73.949219 221.40625 L 73.949219 220.960938 C 74.472656 220.96875 75.046875 220.828125 75.441406 220.445312 Z M 75.585938 220.445312 Z M 75.585938 220.445312 "/>
<path style=" stroke:none;fill-rule:nonzero;fill:rgb(0%,0%,0%);fill-opacity:1;" d="M 78.617188 225.160156 L 78.617188 225.796875 L 77.976562 225.796875 L 77.976562 225.160156 Z M 78.617188 225.160156 Z M 78.617188 225.160156 "/>
<path style=" stroke:none;fill-rule:nonzero;fill:rgb(0%,0%,0%);fill-opacity:1;" d="M 82.679688 220.613281 L 82.679688 221.105469 L 80.617188 221.105469 L 80.601562 221.113281 L 80.601562 222.738281 C 80.792969 222.613281 81.0625 222.445312 81.316406 222.4375 C 82.214844 222.34375 82.902344 223.222656 82.941406 224.042969 C 83.070312 225.082031 82.09375 226.113281 81.046875 225.953125 C 80.523438 225.9375 80.015625 225.628906 79.710938 225.199219 C 79.800781 225.082031 79.871094 224.875 79.976562 224.804688 C 80.347656 225.535156 81.554688 225.828125 82.039062 225.058594 C 82.347656 224.476562 82.339844 223.738281 81.984375 223.183594 C 81.570312 222.652344 80.753906 222.976562 80.5625 223.542969 L 80.046875 223.542969 L 80.046875 220.613281 Z M 82.679688 220.613281 Z M 82.679688 220.613281 "/>
<path style=" stroke:none;fill-rule:nonzero;fill:rgb(0%,0%,0%);fill-opacity:1;" d="M 108.441406 220.445312 C 109.359375 220.46875 110.089844 221.414062 109.949219 222.304688 C 109.851562 223.191406 109.019531 223.699219 108.421875 224.253906 L 108.167969 224.515625 L 108.136719 224.535156 L 107.820312 224.84375 L 107.796875 224.859375 L 107.480469 225.175781 L 107.449219 225.191406 L 107.375 225.261719 L 107.390625 225.273438 L 109.964844 225.273438 L 109.964844 225.796875 L 106.820312 225.796875 L 106.820312 225.320312 L 108.097656 224.042969 C 108.710938 223.507812 109.425781 222.820312 109.3125 221.945312 C 109.25 221.4375 108.820312 220.96875 108.296875 220.929688 C 107.765625 220.851562 107.296875 221.269531 107.175781 221.777344 L 107.160156 221.804688 L 107.144531 221.859375 L 107.121094 221.945312 L 107.074219 222.121094 L 107.066406 222.160156 C 106.957031 222.023438 106.835938 221.882812 106.75 221.730469 C 106.90625 221.082031 107.433594 220.46875 108.121094 220.445312 Z M 108.441406 220.445312 Z M 108.441406 220.445312 "/>
<path style=" stroke:none;fill-rule:nonzero;fill:rgb(0%,0%,0%);fill-opacity:1;" d="M 111.804688 225.160156 L 111.804688 225.796875 L 111.160156 225.796875 L 111.160156 225.160156 Z M 111.804688 225.160156 Z M 111.804688 225.160156 "/>
<path style=" stroke:none;fill-rule:nonzero;fill:rgb(0%,0%,0%);fill-opacity:1;" d="M 114.695312 220.445312 C 115.449219 220.5 115.949219 221.191406 116.082031 221.890625 C 116.15625 222.207031 116.171875 222.507812 116.203125 222.828125 L 116.203125 223.636719 C 116.164062 224.460938 115.964844 225.550781 115.066406 225.882812 C 114.289062 226.191406 113.375 225.707031 113.144531 224.914062 C 112.972656 224.492188 112.957031 224.066406 112.917969 223.636719 L 112.917969 222.828125 C 112.957031 222 113.128906 220.90625 114.019531 220.542969 L 114.058594 220.523438 L 114.089844 220.515625 L 114.128906 220.5 L 114.25 220.46875 L 114.320312 220.453125 L 114.410156 220.453125 L 114.425781 220.445312 Z M 114.695312 220.445312 Z M 114.449219 220.929688 C 113.78125 221.007812 113.582031 221.8125 113.535156 222.351562 L 113.535156 222.566406 L 113.519531 222.582031 L 113.519531 223.683594 C 113.566406 224.253906 113.605469 224.992188 114.128906 225.375 C 114.613281 225.707031 115.257812 225.335938 115.390625 224.820312 C 115.535156 224.4375 115.566406 224.066406 115.597656 223.683594 L 115.597656 222.582031 C 115.550781 222 115.472656 221.191406 114.804688 220.960938 L 114.75 220.945312 L 114.734375 220.929688 L 114.664062 220.929688 L 114.644531 220.914062 L 114.464844 220.914062 Z M 114.449219 220.929688 Z M 114.449219 220.929688 "/>
<path style=" stroke:none;fill-rule:nonzero;fill:rgb(0%,0%,0%);fill-opacity:1;" d="M 141.628906 220.445312 C 142.546875 220.46875 143.277344 221.414062 143.136719 222.304688 C 143.039062 223.191406 142.207031 223.699219 141.609375 224.253906 L 141.355469 224.515625 L 141.324219 224.535156 L 141.007812 224.84375 L 140.984375 224.859375 L 140.667969 225.175781 L 140.636719 225.191406 L 140.5625 225.261719 L 140.578125 225.273438 L 143.152344 225.273438 L 143.152344 225.796875 L 140.007812 225.796875 L 140.007812 225.320312 L 141.285156 224.042969 C 141.898438 223.507812 142.609375 222.820312 142.5 221.945312 C 142.4375 221.4375 142.007812 220.96875 141.484375 220.929688 C 140.953125 220.851562 140.484375 221.269531 140.363281 221.777344 L 140.347656 221.804688 L 140.332031 221.859375 L 140.308594 221.945312 L 140.261719 222.121094 L 140.253906 222.160156 C 140.144531 222.023438 140.023438 221.882812 139.9375 221.730469 C 140.09375 221.082031 140.617188 220.46875 141.308594 220.445312 Z M 141.628906 220.445312 Z M 141.628906 220.445312 "/>
<path style=" stroke:none;fill-rule:nonzero;fill:rgb(0%,0%,0%);fill-opacity:1;" d="M 144.992188 225.160156 L 144.992188 225.796875 L 144.347656 225.796875 L 144.347656 225.160156 Z M 144.992188 225.160156 Z M 144.992188 225.160156 "/>
<path style=" stroke:none;fill-rule:nonzero;fill:rgb(0%,0%,0%);fill-opacity:1;" d="M 149.054688 220.613281 L 149.054688 221.105469 L 146.992188 221.105469 L 146.976562 221.113281 L 146.976562 222.738281 C 147.167969 222.613281 147.4375 222.445312 147.691406 222.4375 C 148.585938 222.34375 149.277344 223.222656 149.316406 224.042969 C 149.445312 225.082031 148.46875 226.113281 147.421875 225.953125 C 146.898438 225.9375 146.390625 225.628906 146.085938 225.199219 C 146.175781 225.082031 146.246094 224.875 146.347656 224.804688 C 146.722656 225.535156 147.929688 225.828125 148.414062 225.058594 C 148.722656 224.476562 148.714844 223.738281 148.359375 223.183594 C 147.945312 222.652344 147.128906 222.976562 146.9375 223.542969 L 146.421875 223.542969 L 146.421875 220.613281 Z M 149.054688 220.613281 Z M 149.054688 220.613281 "/>
<path style=" stroke:none;fill-rule:nonzero;fill:rgb(0%,0%,0%);fill-opacity:1;" d="M 174.917969 220.445312 C 175.617188 220.476562 176.347656 221.121094 176.179688 221.859375 C 176.101562 222.359375 175.75 222.769531 175.316406 222.992188 C 176.019531 223.214844 176.570312 223.960938 176.378906 224.699219 C 176.1875 225.660156 175.085938 226.191406 174.195312 225.898438 C 173.765625 225.773438 173.332031 225.5 173.125 225.105469 C 173.171875 224.984375 173.15625 224.78125 173.210938 224.699219 C 173.632812 225.320312 174.519531 225.738281 175.21875 225.390625 C 175.980469 224.90625 175.863281 223.492188 174.941406 223.253906 L 174.871094 223.253906 L 174.855469 223.238281 L 174.117188 223.238281 L 174.117188 222.761719 C 174.570312 222.753906 175.132812 222.699219 175.386719 222.230469 C 175.65625 221.828125 175.632812 221.160156 175.117188 220.960938 C 174.503906 220.722656 173.75 221.113281 173.519531 221.730469 C 173.425781 221.597656 173.332031 221.460938 173.234375 221.320312 C 173.558594 220.730469 174.25 220.382812 174.917969 220.445312 Z M 174.917969 220.445312 Z M 174.917969 220.445312 "/>
<path style=" stroke:none;fill-rule:nonzero;fill:rgb(0%,0%,0%);fill-opacity:1;" d="M 178.179688 225.160156 L 178.179688 225.796875 L 177.535156 225.796875 L 177.535156 225.160156 Z M 178.179688 225.160156 Z M 178.179688 225.160156 "/>
<path style=" stroke:none;fill-rule:nonzero;fill:rgb(0%,0%,0%);fill-opacity:1;" d="M 181.070312 220.445312 C 181.824219 220.5 182.324219 221.191406 182.457031 221.890625 C 182.527344 222.207031 182.546875 222.507812 182.578125 222.828125 L 182.578125 223.636719 C 182.539062 224.460938 182.339844 225.550781 181.441406 225.882812 C 180.664062 226.191406 179.75 225.707031 179.519531 224.914062 C 179.347656 224.492188 179.332031 224.066406 179.289062 223.636719 L 179.289062 222.828125 C 179.332031 222 179.503906 220.90625 180.394531 220.542969 L 180.433594 220.523438 L 180.464844 220.515625 L 180.503906 220.5 L 180.625 220.46875 L 180.695312 220.453125 L 180.78125 220.453125 L 180.800781 220.445312 Z M 181.070312 220.445312 Z M 180.824219 220.929688 C 180.15625 221.007812 179.957031 221.8125 179.910156 222.351562 L 179.910156 222.566406 L 179.894531 222.582031 L 179.894531 223.683594 C 179.941406 224.253906 179.980469 224.992188 180.503906 225.375 C 180.988281 225.707031 181.632812 225.335938 181.765625 224.820312 C 181.910156 224.4375 181.941406 224.066406 181.972656 223.683594 L 181.972656 222.582031 C 181.925781 222 181.847656 221.191406 181.179688 220.960938 L 181.125 220.945312 L 181.109375 220.929688 L 181.035156 220.929688 L 181.019531 220.914062 L 180.839844 220.914062 Z M 180.824219 220.929688 Z M 180.824219 220.929688 "/>
<path style=" stroke:none;fill-rule:nonzero;fill:rgb(0%,0%,0%);fill-opacity:1;" d="M 208.105469 220.445312 C 208.804688 220.476562 209.535156 221.121094 209.367188 221.859375 C 209.289062 222.359375 208.9375 222.769531 208.5 222.992188 C 209.207031 223.214844 209.757812 223.960938 209.566406 224.699219 C 209.375 225.660156 208.273438 226.191406 207.382812 225.898438 C 206.953125 225.773438 206.519531 225.5 206.3125 225.105469 C 206.359375 224.984375 206.34375 224.78125 206.398438 224.699219 C 206.820312 225.320312 207.707031 225.738281 208.40625 225.390625 C 209.167969 224.90625 209.050781 223.492188 208.128906 223.253906 L 208.058594 223.253906 L 208.042969 223.238281 L 207.304688 223.238281 L 207.304688 222.761719 C 207.753906 222.753906 208.320312 222.699219 208.574219 222.230469 C 208.84375 221.828125 208.820312 221.160156 208.304688 220.960938 C 207.691406 220.722656 206.9375 221.113281 206.707031 221.730469 C 206.613281 221.597656 206.519531 221.460938 206.421875 221.320312 C 206.746094 220.730469 207.4375 220.382812 208.105469 220.445312 Z M 208.105469 220.445312 Z M 208.105469 220.445312 "/>
<path style=" stroke:none;fill-rule:nonzero;fill:rgb(0%,0%,0%);fill-opacity:1;" d="M 211.367188 225.160156 L 211.367188 225.796875 L 210.722656 225.796875 L 210.722656 225.160156 Z M 211.367188 225.160156 Z M 211.367188 225.160156 "/>
<path style=" stroke:none;fill-rule:nonzero;fill:rgb(0%,0%,0%);fill-opacity:1;" d="M 215.429688 220.613281 L 215.429688 221.105469 L 213.367188 221.105469 L 213.351562 221.113281 L 213.351562 222.738281 C 213.542969 222.613281 213.8125 222.445312 214.066406 222.4375 C 214.960938 222.34375 215.652344 223.222656 215.691406 224.042969 C 215.820312 225.082031 214.84375 226.113281 213.796875 225.953125 C 213.273438 225.9375 212.765625 225.628906 212.460938 225.199219 C 212.550781 225.082031 212.621094 224.875 212.722656 224.804688 C 213.097656 225.535156 214.304688 225.828125 214.789062 225.058594 C 215.097656 224.476562 215.089844 223.738281 214.734375 223.183594 C 214.320312 222.652344 213.503906 222.976562 213.3125 223.542969 L 212.796875 223.542969 L 212.796875 220.613281 Z M 215.429688 220.613281 Z M 215.429688 220.613281 "/>
<path style=" stroke:none;fill-rule:nonzero;fill:rgb(0%,0%,0%);fill-opacity:1;" d="M 242.09375 220.613281 L 242.09375 223.953125 L 242.109375 223.96875 L 242.894531 223.96875 L 242.894531 224.445312 L 242.109375 224.445312 L 242.09375 224.453125 L 242.09375 225.796875 L 241.492188 225.796875 L 241.492188 224.453125 L 241.476562 224.445312 L 239.378906 224.445312 L 239.378906 223.953125 C 240.046875 222.84375 240.714844 221.722656 241.378906 220.613281 Z M 242.09375 220.613281 Z M 241.507812 220.914062 C 241.347656 221.738281 240.839844 222.445312 240.460938 223.167969 C 240.308594 223.429688 240.109375 223.714844 240 223.96875 L 241.523438 223.96875 L 241.53125 223.953125 L 241.53125 220.914062 L 241.523438 220.898438 Z M 241.507812 220.914062 Z M 241.507812 220.914062 "/>
<path style=" stroke:none;fill-rule:nonzero;fill:rgb(0%,0%,0%);fill-opacity:1;" d="M 244.554688 225.160156 L 244.554688 225.796875 L 243.910156 225.796875 L 243.910156 225.160156 Z M 244.554688 225.160156 Z M 244.554688 225.160156 "/>
<path style=" stroke:none;fill-rule:nonzero;fill:rgb(0%,0%,0%);fill-opacity:1;" d="M 247.445312 220.445312 C 248.199219 220.5 248.699219 221.191406 248.832031 221.890625 C 248.902344 222.207031 248.917969 222.507812 248.953125 222.828125 L 248.953125 223.636719 C 248.910156 224.460938 248.714844 225.550781 247.816406 225.882812 C 247.039062 226.191406 246.125 225.707031 245.894531 224.914062 C 245.722656 224.492188 245.707031 224.066406 245.664062 223.636719 L 245.664062 222.828125 C 245.707031 222 245.878906 220.90625 246.769531 220.542969 L 246.808594 220.523438 L 246.839844 220.515625 L 246.878906 220.5 L 247 220.46875 L 247.070312 220.453125 L 247.15625 220.453125 L 247.171875 220.445312 Z M 247.445312 220.445312 Z M 247.199219 220.929688 C 246.53125 221.007812 246.332031 221.8125 246.285156 222.351562 L 246.285156 222.566406 L 246.269531 222.582031 L 246.269531 223.683594 C 246.316406 224.253906 246.355469 224.992188 246.878906 225.375 C 247.363281 225.707031 248.007812 225.335938 248.140625 224.820312 C 248.285156 224.4375 248.316406 224.066406 248.347656 223.683594 L 248.347656 222.582031 C 248.300781 222 248.222656 221.191406 247.554688 220.960938 L 247.5 220.945312 L 247.484375 220.929688 L 247.410156 220.929688 L 247.394531 220.914062 L 247.214844 220.914062 Z M 247.199219 220.929688 Z M 247.199219 220.929688 "/>
<path style=" stroke:none;fill-rule:nonzero;fill:rgb(0%,0%,0%);fill-opacity:1;" d="M 275.28125 220.613281 L 275.28125 223.953125 L 275.296875 223.96875 L 276.082031 223.96875 L 276.082031 224.445312 L 275.296875 224.445312 L 275.28125 224.453125 L 275.28125 225.796875 L 274.679688 225.796875 L 274.679688 224.453125 L 274.664062 224.445312 L 272.566406 224.445312 L 272.566406 223.953125 C 273.234375 222.84375 273.902344 221.722656 274.566406 220.613281 Z M 275.28125 220.613281 Z M 274.695312 220.914062 C 274.535156 221.738281 274.027344 222.445312 273.644531 223.167969 C 273.496094 223.429688 273.296875 223.714844 273.1875 223.96875 L 274.710938 223.96875 L 274.71875 223.953125 L 274.71875 220.914062 L 274.710938 220.898438 Z M 274.695312 220.914062 Z M 274.695312 220.914062 "/>
<path style=" stroke:none;fill-rule:nonzero;fill:rgb(0%,0%,0%);fill-opacity:1;" d="M 277.742188 225.160156 L 277.742188 225.796875 L 277.097656 225.796875 L 277.097656 225.160156 Z M 277.742188 225.160156 Z M 277.742188 225.160156 "/>
<path style=" stroke:none;fill-rule:nonzero;fill:rgb(0%,0%,0%);fill-opacity:1;" d="M 281.804688 220.613281 L 281.804688 221.105469 L 279.742188 221.105469 L 279.726562 221.113281 L 279.726562 222.738281 C 279.917969 222.613281 280.1875 222.445312 280.441406 222.4375 C 281.335938 222.34375 282.027344 223.222656 282.066406 224.042969 C 282.195312 225.082031 281.21875 226.113281 280.171875 225.953125 C 279.648438 225.9375 279.140625 225.628906 278.835938 225.199219 C 278.925781 225.082031 278.996094 224.875 279.097656 224.804688 C 279.472656 225.535156 280.679688 225.828125 281.164062 225.058594 C 281.472656 224.476562 281.464844 223.738281 281.105469 223.183594 C 280.695312 222.652344 279.878906 222.976562 279.6875 223.542969 L 279.171875 223.542969 L 279.171875 220.613281 Z M 281.804688 220.613281 Z M 281.804688 220.613281 "/>
<path style="fill:none;stroke-width:0.02;stroke-linecap:butt;stroke-linejoin:miter;stroke:rgb(0%,0%,0%);stroke-opacity:1;stroke-miterlimit:10;" d="M 1.555805 7.838356 L 1.555805 7.73335 " transform="matrix(28.346457,0,0,-28.346457,1,227.771654)"/>
<path style="fill:none;stroke-width:0.02;stroke-linecap:butt;stroke-linejoin:miter;stroke:rgb(0%,0%,0%);stroke-opacity:1;stroke-miterlimit:10;" d="M 2.726586 7.838356 L 2.726586 7.73335 " transform="matrix(28.346457,0,0,-28.346457,1,227.771654)"/>
<path style="fill:none;stroke-width:0.02;stroke-linecap:butt;stroke-linejoin:miter;stroke:rgb(0%,0%,0%);stroke-opacity:1;stroke-miterlimit:10;" d="M 3.897368 7.838356 L 3.897368 7.73335 " transform="matrix(28.346457,0,0,-28.346457,1,227.771654)"/>
<path style="fill:none;stroke-width:0.02;stroke-linecap:butt;stroke-linejoin:miter;stroke:rgb(0%,0%,0%);stroke-opacity:1;stroke-miterlimit:10;" d="M 5.068149 7.838356 L 5.068149 7.73335 " transform="matrix(28.346457,0,0,-28.346457,1,227.771654)"/>
<path style="fill:none;stroke-width:0.02;stroke-linecap:butt;stroke-linejoin:miter;stroke:rgb(0%,0%,0%);stroke-opacity:1;stroke-miterlimit:10;" d="M 6.23893 7.838356 L 6.23893 7.73335 " transform="matrix(28.346457,0,0,-28.346457,1,227.771654)"/>
<path style="fill:none;stroke-width:0.02;stroke-linecap:butt;stroke-linejoin:miter;stroke:rgb(0%,0%,0%);stroke-opacity:1;stroke-miterlimit:10;" d="M 7.409711 7.838356 L 7.409711 7.73335 " transform="matrix(28.346457,0,0,-28.346457,1,227.771654)"/>
<path style="fill:none;stroke-width:0.02;stroke-linecap:butt;stroke-linejoin:miter;stroke:rgb(0%,0%,0%);stroke-opacity:1;stroke-miterlimit:10;" d="M 8.580493 7.838356 L 8.580493 7.73335 " transform="matrix(28.346457,0,0,-28.346457,1,227.771654)"/>
<path style="fill:none;stroke-width:0.02;stroke-linecap:round;stroke-linejoin:miter;stroke:rgb(0%,0%,0%);stroke-opacity:1;stroke-miterlimit:10;" d="M 0.385024 7.838356 L 9.751274 7.838356 " transform="matrix(28.346457,0,0,-28.346457,1,227.771654)"/>
</g>
</svg>
