<?xml version="1.0" encoding="UTF-8"?>
<svg xmlns="http://www.w3.org/2000/svg" xmlns:xlink="http://www.w3.org/1999/xlink" width="285.464567pt" height="228.771654pt" viewBox="0 0 285.464567 228.771654" version="1.1">
<g id="surface1">
<path style="fill-rule:nonzero;fill:rgb(100%,100%,100%);fill-opacity:1;stroke-width:0.02;stroke-linecap:butt;stroke-linejoin:miter;stroke:rgb(32.941176%,47.058824%,63.921569%);stroke-opacity:1;stroke-miterlimit:10;" d="M 1.385342 0.428369 L 1.532516 0.428369 L 1.532516 0.622535 L 1.385342 0.622535 Z M 1.385342 0.428369 " transform="matrix(28.346457,0,0,-28.346457,1,227.771654)"/>
<path style="fill-rule:nonzero;fill:rgb(100%,100%,100%);fill-opacity:1;stroke-width:0.02;stroke-linecap:butt;stroke-linejoin:miter;stroke:rgb(32.941176%,47.058824%,63.921569%);stroke-opacity:1;stroke-miterlimit:10;" d="M 1.974178 0.428369 L 2.12149 0.428369 L 2.12149 0.8167 L 1.974178 0.8167 Z M 1.974178 0.428369 " transform="matrix(28.346457,0,0,-28.346457,1,227.771654)"/>
<path style="fill-rule:nonzero;fill:rgb(100%,100%,100%);fill-opacity:1;stroke-width:0.02;stroke-linecap:butt;stroke-linejoin:miter;stroke:rgb(32.941176%,47.058824%,63.921569%);stroke-opacity:1;stroke-miterlimit:10;" d="M 2.268664 0.428369 L 2.415977 0.428369 L 2.415977 0.622535 L 2.268664 0.622535 Z M 2.268664 0.428369 " transform="matrix(28.346457,0,0,-28.346457,1,227.771654)"/>
<path style="fill-rule:nonzero;fill:rgb(100%,100%,100%);fill-opacity:1;stroke-width:0.02;stroke-linecap:butt;stroke-linejoin:miter;stroke:rgb(32.941176%,47.058824%,63.921569%);stroke-opacity:1;stroke-miterlimit:10;" d="M 2.415977 0.428369 L 2.563151 0.428369 L 2.563151 0.8167 L 2.415977 0.8167 Z M 2.415977 0.428369 " transform="matrix(28.346457,0,0,-28.346457,1,227.771654)"/>
<path style="fill-rule:nonzero;fill:rgb(100%,100%,100%);fill-opacity:1;stroke-width:0.02;stroke-linecap:butt;stroke-linejoin:miter;stroke:rgb(32.941176%,47.058824%,63.921569%);stroke-opacity:1;stroke-miterlimit:10;" d="M 2.563151 0.428369 L 2.710326 0.428369 L 2.710326 0.8167 L 2.563151 0.8167 Z M 2.563151 0.428369 " transform="matrix(28.346457,0,0,-28.346457,1,227.771654)"/>
<path style="fill-rule:nonzero;fill:rgb(100%,100%,100%);fill-opacity:1;stroke-width:0.02;stroke-linecap:butt;stroke-linejoin:miter;stroke:rgb(32.941176%,47.058824%,63.921569%);stroke-opacity:1;stroke-miterlimit:10;" d="M 2.710326 0.428369 L 2.857638 0.428369 L 2.857638 1.204894 L 2.710326 1.204894 Z M 2.710326 0.428369 " transform="matrix(28.346457,0,0,-28.346457,1,227.771654)"/>
<path style="fill-rule:nonzero;fill:rgb(100%,100%,100%);fill-opacity:1;stroke-width:0.02;stroke-linecap:butt;stroke-linejoin:miter;stroke:rgb(32.941176%,47.058824%,63.921569%);stroke-opacity:1;stroke-miterlimit:10;" d="M 3.004812 0.428369 L 3.152125 0.428369 L 3.152125 1.399059 L 3.004812 1.399059 Z M 3.004812 0.428369 " transform="matrix(28.346457,0,0,-28.346457,1,227.771654)"/>
<path style="fill-rule:nonzero;fill:rgb(100%,100%,100%);fill-opacity:1;stroke-width:0.02;stroke-linecap:butt;stroke-linejoin:miter;stroke:rgb(32.941176%,47.058824%,63.921569%);stroke-opacity:1;stroke-miterlimit:10;" d="M 3.152125 0.428369 L 3.299299 0.428369 L 3.299299 1.78739 L 3.152125 1.78739 Z M 3.152125 0.428369 " transform="matrix(28.346457,0,0,-28.346457,1,227.771654)"/>
<path style="fill-rule:nonzero;fill:rgb(100%,100%,100%);fill-opacity:1;stroke-width:0.02;stroke-linecap:butt;stroke-linejoin:miter;stroke:rgb(32.941176%,47.058824%,63.921569%);stroke-opacity:1;stroke-miterlimit:10;" d="M 3.299299 0.428369 L 3.446474 0.428369 L 3.446474 0.8167 L 3.299299 0.8167 Z M 3.299299 0.428369 " transform="matrix(28.346457,0,0,-28.346457,1,227.771654)"/>
<path style="fill-rule:nonzero;fill:rgb(100%,100%,100%);fill-opacity:1;stroke-width:0.02;stroke-linecap:butt;stroke-linejoin:miter;stroke:rgb(32.941176%,47.058824%,63.921569%);stroke-opacity:1;stroke-miterlimit:10;" d="M 3.446474 0.428369 L 3.593786 0.428369 L 3.593786 2.175584 L 3.446474 2.175584 Z M 3.446474 0.428369 " transform="matrix(28.346457,0,0,-28.346457,1,227.771654)"/>
<path style="fill-rule:nonzero;fill:rgb(100%,100%,100%);fill-opacity:1;stroke-width:0.02;stroke-linecap:butt;stroke-linejoin:miter;stroke:rgb(32.941176%,47.058824%,63.921569%);stroke-opacity:1;stroke-miterlimit:10;" d="M 3.593786 0.428369 L 3.74096 0.428369 L 3.74096 1.78739 L 3.593786 1.78739 Z M 3.593786 0.428369 " transform="matrix(28.346457,0,0,-28.346457,1,227.771654)"/>
<path style="fill-rule:nonzero;fill:rgb(100%,100%,100%);fill-opacity:1;stroke-width:0.02;stroke-linecap:butt;stroke-linejoin:miter;stroke:rgb(32.941176%,47.058824%,63.921569%);stroke-opacity:1;stroke-miterlimit:10;" d="M 3.74096 0.428369 L 3.888273 0.428369 L 3.888273 2.369749 L 3.74096 2.369749 Z M 3.74096 0.428369 " transform="matrix(28.346457,0,0,-28.346457,1,227.771654)"/>
<path style="fill-rule:nonzero;fill:rgb(100%,100%,100%);fill-opacity:1;stroke-width:0.02;stroke-linecap:butt;stroke-linejoin:miter;stroke:rgb(32.941176%,47.058824%,63.921569%);stroke-opacity:1;stroke-miterlimit:10;" d="M 3.888273 0.428369 L 4.035447 0.428369 L 4.035447 4.310992 L 3.888273 4.310992 Z M 3.888273 0.428369 " transform="matrix(28.346457,0,0,-28.346457,1,227.771654)"/>
<path style="fill-rule:nonzero;fill:rgb(100%,100%,100%);fill-opacity:1;stroke-width:0.02;stroke-linecap:butt;stroke-linejoin:miter;stroke:rgb(32.941176%,47.058824%,63.921569%);stroke-opacity:1;stroke-miterlimit:10;" d="M 4.035447 0.428369 L 4.182622 0.428369 L 4.182622 3.922798 L 4.035447 3.922798 Z M 4.035447 0.428369 " transform="matrix(28.346457,0,0,-28.346457,1,227.771654)"/>
<path style="fill-rule:nonzero;fill:rgb(100%,100%,100%);fill-opacity:1;stroke-width:0.02;stroke-linecap:butt;stroke-linejoin:miter;stroke:rgb(32.941176%,47.058824%,63.921569%);stroke-opacity:1;stroke-miterlimit:10;" d="M 4.182622 0.428369 L 4.329934 0.428369 L 4.329934 4.116964 L 4.182622 4.116964 Z M 4.182622 0.428369 " transform="matrix(28.346457,0,0,-28.346457,1,227.771654)"/>
<path style="fill-rule:nonzero;fill:rgb(100%,100%,100%);fill-opacity:1;stroke-width:0.02;stroke-linecap:butt;stroke-linejoin:miter;stroke:rgb(32.941176%,47.058824%,63.921569%);stroke-opacity:1;stroke-miterlimit:10;" d="M 4.329934 0.428369 L 4.477108 0.428369 L 4.477108 3.340439 L 4.329934 3.340439 Z M 4.329934 0.428369 " transform="matrix(28.346457,0,0,-28.346457,1,227.771654)"/>
<path style="fill-rule:nonzero;fill:rgb(100%,100%,100%);fill-opacity:1;stroke-width:0.02;stroke-linecap:butt;stroke-linejoin:miter;stroke:rgb(32.941176%,47.058824%,63.921569%);stroke-opacity:1;stroke-miterlimit:10;" d="M 4.477108 0.428369 L 4.624421 0.428369 L 4.624421 3.146274 L 4.477108 3.146274 Z M 4.477108 0.428369 " transform="matrix(28.346457,0,0,-28.346457,1,227.771654)"/>
<path style="fill-rule:nonzero;fill:rgb(100%,100%,100%);fill-opacity:1;stroke-width:0.02;stroke-linecap:butt;stroke-linejoin:miter;stroke:rgb(32.941176%,47.058824%,63.921569%);stroke-opacity:1;stroke-miterlimit:10;" d="M 4.624421 0.428369 L 4.771595 0.428369 L 4.771595 6.640565 L 4.624421 6.640565 Z M 4.624421 0.428369 " transform="matrix(28.346457,0,0,-28.346457,1,227.771654)"/>
<path style="fill-rule:nonzero;fill:rgb(100%,100%,100%);fill-opacity:1;stroke-width:0.02;stroke-linecap:butt;stroke-linejoin:miter;stroke:rgb(32.941176%,47.058824%,63.921569%);stroke-opacity:1;stroke-miterlimit:10;" d="M 4.771595 0.428369 L 4.91877 0.428369 L 4.91877 5.281682 L 4.771595 5.281682 Z M 4.771595 0.428369 " transform="matrix(28.346457,0,0,-28.346457,1,227.771654)"/>
<path style="fill-rule:nonzero;fill:rgb(100%,100%,100%);fill-opacity:1;stroke-width:0.02;stroke-linecap:butt;stroke-linejoin:miter;stroke:rgb(32.941176%,47.058824%,63.921569%);stroke-opacity:1;stroke-miterlimit:10;" d="M 4.91877 0.428369 L 5.066082 0.428369 L 5.066082 4.699323 L 4.91877 4.699323 Z M 4.91877 0.428369 " transform="matrix(28.346457,0,0,-28.346457,1,227.771654)"/>
<path style="fill-rule:nonzero;fill:rgb(100%,100%,100%);fill-opacity:1;stroke-width:0.02;stroke-linecap:butt;stroke-linejoin:miter;stroke:rgb(32.941176%,47.058824%,63.921569%);stroke-opacity:1;stroke-miterlimit:10;" d="M 5.066082 0.428369 L 5.213256 0.428369 L 5.213256 5.087516 L 5.066082 5.087516 Z M 5.066082 0.428369 " transform="matrix(28.346457,0,0,-28.346457,1,227.771654)"/>
<path style="fill-rule:nonzero;fill:rgb(100%,100%,100%);fill-opacity:1;stroke-width:0.02;stroke-linecap:butt;stroke-linejoin:miter;stroke:rgb(32.941176%,47.058824%,63.921569%);stroke-opacity:1;stroke-miterlimit:10;" d="M 5.213256 0.428369 L 5.360569 0.428369 L 5.360569 7.611255 L 5.213256 7.611255 Z M 5.213256 0.428369 " transform="matrix(28.346457,0,0,-28.346457,1,227.771654)"/>
<path style="fill-rule:nonzero;fill:rgb(100%,100%,100%);fill-opacity:1;stroke-width:0.02;stroke-linecap:butt;stroke-linejoin:miter;stroke:rgb(32.941176%,47.058824%,63.921569%);stroke-opacity:1;stroke-miterlimit:10;" d="M 5.360569 0.428369 L 5.507743 0.428369 L 5.507743 5.087516 L 5.360569 5.087516 Z M 5.360569 0.428369 " transform="matrix(28.346457,0,0,-28.346457,1,227.771654)"/>
<path style="fill-rule:nonzero;fill:rgb(100%,100%,100%);fill-opacity:1;stroke-width:0.02;stroke-linecap:butt;stroke-linejoin:miter;stroke:rgb(32.941176%,47.058824%,63.921569%);stroke-opacity:1;stroke-miterlimit:10;" d="M 5.507743 0.428369 L 5.654918 0.428369 L 5.654918 3.922798 L 5.507743 3.922798 Z M 5.507743 0.428369 " transform="matrix(28.346457,0,0,-28.346457,1,227.771654)"/>
<path style="fill-rule:nonzero;fill:rgb(100%,100%,100%);fill-opacity:1;stroke-width:0.02;stroke-linecap:butt;stroke-linejoin:miter;stroke:rgb(32.941176%,47.058824%,63.921569%);stroke-opacity:1;stroke-miterlimit:10;" d="M 5.654918 0.428369 L 5.80223 0.428369 L 5.80223 4.699323 L 5.654918 4.699323 Z M 5.654918 0.428369 " transform="matrix(28.346457,0,0,-28.346457,1,227.771654)"/>
<path style="fill-rule:nonzero;fill:rgb(100%,100%,100%);fill-opacity:1;stroke-width:0.02;stroke-linecap:butt;stroke-linejoin:miter;stroke:rgb(32.941176%,47.058824%,63.921569%);stroke-opacity:1;stroke-miterlimit:10;" d="M 5.80223 0.428369 L 5.949404 0.428369 L 5.949404 3.728633 L 5.80223 3.728633 Z M 5.80223 0.428369 " transform="matrix(28.346457,0,0,-28.346457,1,227.771654)"/>
<path style="fill-rule:nonzero;fill:rgb(100%,100%,100%);fill-opacity:1;stroke-width:0.02;stroke-linecap:butt;stroke-linejoin:miter;stroke:rgb(32.941176%,47.058824%,63.921569%);stroke-opacity:1;stroke-miterlimit:10;" d="M 5.949404 0.428369 L 6.096717 0.428369 L 6.096717 3.922798 L 5.949404 3.922798 Z M 5.949404 0.428369 " transform="matrix(28.346457,0,0,-28.346457,1,227.771654)"/>
<path style="fill-rule:nonzero;fill:rgb(100%,100%,100%);fill-opacity:1;stroke-width:0.02;stroke-linecap:butt;stroke-linejoin:miter;stroke:rgb(32.941176%,47.058824%,63.921569%);stroke-opacity:1;stroke-miterlimit:10;" d="M 6.096717 0.428369 L 6.243891 0.428369 L 6.243891 3.922798 L 6.096717 3.922798 Z M 6.096717 0.428369 " transform="matrix(28.346457,0,0,-28.346457,1,227.771654)"/>
<path style="fill-rule:nonzero;fill:rgb(100%,100%,100%);fill-opacity:1;stroke-width:0.02;stroke-linecap:butt;stroke-linejoin:miter;stroke:rgb(32.941176%,47.058824%,63.921569%);stroke-opacity:1;stroke-miterlimit:10;" d="M 6.243891 0.428369 L 6.391066 0.428369 L 6.391066 4.116964 L 6.243891 4.116964 Z M 6.243891 0.428369 " transform="matrix(28.346457,0,0,-28.346457,1,227.771654)"/>
<path style="fill-rule:nonzero;fill:rgb(100%,100%,100%);fill-opacity:1;stroke-width:0.02;stroke-linecap:butt;stroke-linejoin:miter;stroke:rgb(32.941176%,47.058824%,63.921569%);stroke-opacity:1;stroke-miterlimit:10;" d="M 6.391066 0.428369 L 6.538378 0.428369 L 6.538378 3.146274 L 6.391066 3.146274 Z M 6.391066 0.428369 " transform="matrix(28.346457,0,0,-28.346457,1,227.771654)"/>
<path style="fill-rule:nonzero;fill:rgb(100%,100%,100%);fill-opacity:1;stroke-width:0.02;stroke-linecap:butt;stroke-linejoin:miter;stroke:rgb(32.941176%,47.058824%,63.921569%);stroke-opacity:1;stroke-miterlimit:10;" d="M 6.538378 0.428369 L 6.685552 0.428369 L 6.685552 3.922798 L 6.538378 3.922798 Z M 6.538378 0.428369 " transform="matrix(28.346457,0,0,-28.346457,1,227.771654)"/>
<path style="fill-rule:nonzero;fill:rgb(100%,100%,100%);fill-opacity:1;stroke-width:0.02;stroke-linecap:butt;stroke-linejoin:miter;stroke:rgb(32.941176%,47.058824%,63.921569%);stroke-opacity:1;stroke-miterlimit:10;" d="M 6.685552 0.428369 L 6.832865 0.428369 L 6.832865 3.340439 L 6.685552 3.340439 Z M 6.685552 0.428369 " transform="matrix(28.346457,0,0,-28.346457,1,227.771654)"/>
<path style="fill-rule:nonzero;fill:rgb(100%,100%,100%);fill-opacity:1;stroke-width:0.02;stroke-linecap:butt;stroke-linejoin:miter;stroke:rgb(32.941176%,47.058824%,63.921569%);stroke-opacity:1;stroke-miterlimit:10;" d="M 6.832865 0.428369 L 6.980039 0.428369 L 6.980039 1.981418 L 6.832865 1.981418 Z M 6.832865 0.428369 " transform="matrix(28.346457,0,0,-28.346457,1,227.771654)"/>
<path style="fill-rule:nonzero;fill:rgb(100%,100%,100%);fill-opacity:1;stroke-width:0.02;stroke-linecap:butt;stroke-linejoin:miter;stroke:rgb(32.941176%,47.058824%,63.921569%);stroke-opacity:1;stroke-miterlimit:10;" d="M 6.980039 0.428369 L 7.127214 0.428369 L 7.127214 1.981418 L 6.980039 1.981418 Z M 6.980039 0.428369 " transform="matrix(28.346457,0,0,-28.346457,1,227.771654)"/>
<path style="fill-rule:nonzero;fill:rgb(100%,100%,100%);fill-opacity:1;stroke-width:0.02;stroke-linecap:butt;stroke-linejoin:miter;stroke:rgb(32.941176%,47.058824%,63.921569%);stroke-opacity:1;stroke-miterlimit:10;" d="M 7.127214 0.428369 L 7.274526 0.428369 L 7.274526 1.204894 L 7.127214 1.204894 Z M 7.127214 0.428369 " transform="matrix(28.346457,0,0,-28.346457,1,227.771654)"/>
<path style="fill-rule:nonzero;fill:rgb(100%,100%,100%);fill-opacity:1;stroke-width:0.02;stroke-linecap:butt;stroke-linejoin:miter;stroke:rgb(32.941176%,47.058824%,63.921569%);stroke-opacity:1;stroke-miterlimit:10;" d="M 7.274526 0.428369 L 7.4217 0.428369 L 7.4217 1.399059 L 7.274526 1.399059 Z M 7.274526 0.428369 " transform="matrix(28.346457,0,0,-28.346457,1,227.771654)"/>
<path style="fill-rule:nonzero;fill:rgb(100%,100%,100%);fill-opacity:1;stroke-width:0.02;stroke-linecap:butt;stroke-linejoin:miter;stroke:rgb(32.941176%,47.058824%,63.921569%);stroke-opacity:1;stroke-miterlimit:10;" d="M 7.4217 0.428369 L 7.569013 0.428369 L 7.569013 1.204894 L 7.4217 1.204894 Z M 7.4217 0.428369 " transform="matrix(28.346457,0,0,-28.346457,1,227.771654)"/>
<path style="fill-rule:nonzero;fill:rgb(100%,100%,100%);fill-opacity:1;stroke-width:0.02;stroke-linecap:butt;stroke-linejoin:miter;stroke:rgb(32.941176%,47.058824%,63.921569%);stroke-opacity:1;stroke-miterlimit:10;" d="M 7.569013 0.428369 L 7.716187 0.428369 L 7.716187 1.204894 L 7.569013 1.204894 Z M 7.569013 0.428369 " transform="matrix(28.346457,0,0,-28.346457,1,227.771654)"/>
<path style="fill-rule:nonzero;fill:rgb(100%,100%,100%);fill-opacity:1;stroke-width:0.02;stroke-linecap:butt;stroke-linejoin:miter;stroke:rgb(32.941176%,47.058824%,63.921569%);stroke-opacity:1;stroke-miterlimit:10;" d="M 7.716187 0.428369 L 7.863362 0.428369 L 7.863362 1.010728 L 7.716187 1.010728 Z M 7.716187 0.428369 " transform="matrix(28.346457,0,0,-28.346457,1,227.771654)"/>
<path style="fill-rule:nonzero;fill:rgb(100%,100%,100%);fill-opacity:1;stroke-width:0.02;stroke-linecap:butt;stroke-linejoin:miter;stroke:rgb(32.941176%,47.058824%,63.921569%);stroke-opacity:1;stroke-miterlimit:10;" d="M 7.863362 0.428369 L 8.010674 0.428369 L 8.010674 0.8167 L 7.863362 0.8167 Z M 7.863362 0.428369 " transform="matrix(28.346457,0,0,-28.346457,1,227.771654)"/>
<path style="fill-rule:nonzero;fill:rgb(100%,100%,100%);fill-opacity:1;stroke-width:0.02;stroke-linecap:butt;stroke-linejoin:miter;stroke:rgb(32.941176%,47.058824%,63.921569%);stroke-opacity:1;stroke-miterlimit:10;" d="M 8.59951 0.428369 L 8.746822 0.428369 L 8.746822 0.622535 L 8.59951 0.622535 Z M 8.59951 0.428369 " transform="matrix(28.346457,0,0,-28.346457,1,227.771654)"/>
<path style="fill:none;stroke-width:0.02;stroke-linecap:butt;stroke-linejoin:miter;stroke:rgb(0%,0%,0%);stroke-opacity:1;stroke-miterlimit:10;" d="M 0.602616 1.663367 L 0.707623 1.663367 " transform="matrix(28.346457,0,0,-28.346457,1,227.771654)"/>
<path style="fill:none;stroke-width:0.02;stroke-linecap:butt;stroke-linejoin:miter;stroke:rgb(0%,0%,0%);stroke-opacity:1;stroke-miterlimit:10;" d="M 0.602616 2.898365 L 0.707623 2.898365 " transform="matrix(28.346457,0,0,-28.346457,1,227.771654)"/>
<path style="fill:none;stroke-width:0.02;stroke-linecap:butt;stroke-linejoin:miter;stroke:rgb(0%,0%,0%);stroke-opacity:1;stroke-miterlimit:10;" d="M 0.602616 4.133363 L 0.707623 4.133363 " transform="matrix(28.346457,0,0,-28.346457,1,227.771654)"/>
<path style="fill:none;stroke-width:0.02;stroke-linecap:butt;stroke-linejoin:miter;stroke:rgb(0%,0%,0%);stroke-opacity:1;stroke-miterlimit:10;" d="M 0.602616 5.36836 L 0.707623 5.36836 " transform="matrix(28.346457,0,0,-28.346457,1,227.771654)"/>
<path style="fill:none;stroke-width:0.02;stroke-linecap:butt;stroke-linejoin:miter;stroke:rgb(0%,0%,0%);stroke-opacity:1;stroke-miterlimit:10;" d="M 0.602616 6.603358 L 0.707623 6.603358 " transform="matrix(28.346457,0,0,-28.346457,1,227.771654)"/>
<path style="fill:none;stroke-width:0.02;stroke-linecap:round;stroke-linejoin:miter;stroke:rgb(0%,0%,0%);stroke-opacity:1;stroke-miterlimit:10;" d="M 0.602616 0.428369 L 0.602616 7.838356 " transform="matrix(28.346457,0,0,-28.346457,1,227.771654)"/>
<path style=" stroke:none;fill-rule:nonzero;fill:rgb(0%,0%,0%);fill-opacity:1;" d="M 5.101562 212.886719 C 5.859375 212.941406 6.359375 213.632812 6.492188 214.332031 C 6.5625 214.648438 6.578125 214.949219 6.613281 215.265625 L 6.613281 216.078125 C 6.570312 216.902344 6.375 217.988281 5.476562 218.324219 C 4.699219 218.632812 3.785156 218.148438 3.554688 217.355469 C 3.382812 216.933594 3.363281 216.503906 3.324219 216.078125 L 3.324219 215.265625 C 3.363281 214.441406 3.539062 213.347656 4.429688 212.980469 L 4.46875 212.964844 L 4.5 212.957031 L 4.539062 212.941406 L 4.660156 212.910156 L 4.730469 212.894531 L 4.816406 212.894531 L 4.832031 212.886719 Z M 5.101562 212.886719 Z M 4.855469 213.371094 C 4.191406 213.449219 3.992188 214.25 3.945312 214.789062 L 3.945312 215.003906 L 3.929688 215.019531 L 3.929688 216.125 C 3.976562 216.695312 4.015625 217.433594 4.539062 217.816406 C 5.023438 218.148438 5.667969 217.773438 5.800781 217.257812 C 5.945312 216.878906 5.976562 216.503906 6.007812 216.125 L 6.007812 215.019531 C 5.960938 214.441406 5.882812 213.632812 5.214844 213.402344 L 5.160156 213.386719 L 5.144531 213.371094 L 5.070312 213.371094 L 5.054688 213.355469 L 4.875 213.355469 Z M 4.855469 213.371094 Z M 4.855469 213.371094 "/>
<path style=" stroke:none;fill-rule:nonzero;fill:rgb(0%,0%,0%);fill-opacity:1;" d="M 8.382812 217.601562 L 8.382812 218.234375 L 7.738281 218.234375 L 7.738281 217.601562 Z M 8.382812 217.601562 Z M 8.382812 217.601562 "/>
<path style=" stroke:none;fill-rule:nonzero;fill:rgb(0%,0%,0%);fill-opacity:1;" d="M 11.269531 212.886719 C 12.023438 212.941406 12.523438 213.632812 12.660156 214.332031 C 12.730469 214.648438 12.746094 214.949219 12.777344 215.265625 L 12.777344 216.078125 C 12.738281 216.902344 12.539062 217.988281 11.644531 218.324219 C 10.867188 218.632812 9.953125 218.148438 9.722656 217.355469 C 9.546875 216.933594 9.53125 216.503906 9.492188 216.078125 L 9.492188 215.265625 C 9.53125 214.441406 9.707031 213.347656 10.597656 212.980469 L 10.636719 212.964844 L 10.667969 212.957031 L 10.707031 212.941406 L 10.824219 212.910156 L 10.898438 212.894531 L 10.984375 212.894531 L 11 212.886719 Z M 11.269531 212.886719 Z M 11.023438 213.371094 C 10.359375 213.449219 10.160156 214.25 10.113281 214.789062 L 10.113281 215.003906 L 10.097656 215.019531 L 10.097656 216.125 C 10.144531 216.695312 10.183594 217.433594 10.707031 217.816406 C 11.191406 218.148438 11.835938 217.773438 11.96875 217.257812 C 12.113281 216.878906 12.144531 216.503906 12.175781 216.125 L 12.175781 215.019531 C 12.128906 214.441406 12.046875 213.632812 11.382812 213.402344 L 11.324219 213.386719 L 11.308594 213.371094 L 11.238281 213.371094 L 11.222656 213.355469 L 11.039062 213.355469 Z M 11.023438 213.371094 Z M 11.023438 213.371094 "/>
<path style=" stroke:none;fill-rule:nonzero;fill:rgb(0%,0%,0%);fill-opacity:1;" d="M 5.101562 177.878906 C 5.859375 177.933594 6.359375 178.625 6.492188 179.324219 C 6.5625 179.640625 6.578125 179.941406 6.613281 180.257812 L 6.613281 181.070312 C 6.570312 181.894531 6.375 182.980469 5.476562 183.316406 C 4.699219 183.625 3.785156 183.140625 3.554688 182.347656 C 3.382812 181.925781 3.363281 181.496094 3.324219 181.070312 L 3.324219 180.257812 C 3.363281 179.433594 3.539062 178.339844 4.429688 177.972656 L 4.46875 177.957031 L 4.5 177.949219 L 4.539062 177.933594 L 4.660156 177.902344 L 4.730469 177.886719 L 4.816406 177.886719 L 4.832031 177.878906 Z M 5.101562 177.878906 Z M 4.855469 178.363281 C 4.191406 178.441406 3.992188 179.242188 3.945312 179.785156 L 3.945312 179.996094 L 3.929688 180.011719 L 3.929688 181.117188 C 3.976562 181.6875 4.015625 182.425781 4.539062 182.808594 C 5.023438 183.140625 5.667969 182.769531 5.800781 182.25 C 5.945312 181.871094 5.976562 181.496094 6.007812 181.117188 L 6.007812 180.011719 C 5.960938 179.433594 5.882812 178.625 5.214844 178.394531 L 5.160156 178.378906 L 5.144531 178.363281 L 5.070312 178.363281 L 5.054688 178.347656 L 4.875 178.347656 Z M 4.855469 178.363281 Z M 4.855469 178.363281 "/>
<path style=" stroke:none;fill-rule:nonzero;fill:rgb(0%,0%,0%);fill-opacity:1;" d="M 8.382812 182.59375 L 8.382812 183.226562 L 7.738281 183.226562 L 7.738281 182.59375 Z M 8.382812 182.59375 Z M 8.382812 182.59375 "/>
<path style=" stroke:none;fill-rule:nonzero;fill:rgb(0%,0%,0%);fill-opacity:1;" d="M 11.515625 177.878906 L 11.515625 182.777344 L 11.523438 182.792969 L 12.5 182.792969 L 12.5 183.226562 L 9.921875 183.226562 L 9.921875 182.792969 L 10.898438 182.792969 L 10.914062 182.777344 L 10.914062 178.664062 C 10.578125 178.773438 10.230469 178.847656 9.882812 178.839844 L 9.882812 178.394531 C 10.40625 178.402344 10.976562 178.257812 11.375 177.878906 Z M 11.515625 177.878906 Z M 11.515625 177.878906 "/>
<path style=" stroke:none;fill-rule:nonzero;fill:rgb(0%,0%,0%);fill-opacity:1;" d="M 5.101562 142.871094 C 5.859375 142.925781 6.359375 143.617188 6.492188 144.316406 C 6.5625 144.632812 6.578125 144.933594 6.613281 145.253906 L 6.613281 146.0625 C 6.570312 146.886719 6.375 147.972656 5.476562 148.308594 C 4.699219 148.617188 3.785156 148.132812 3.554688 147.339844 C 3.382812 146.917969 3.363281 146.492188 3.324219 146.0625 L 3.324219 145.253906 C 3.363281 144.425781 3.539062 143.332031 4.429688 142.964844 L 4.46875 142.949219 L 4.5 142.941406 L 4.539062 142.925781 L 4.660156 142.894531 L 4.730469 142.878906 L 4.816406 142.878906 L 4.832031 142.871094 Z M 5.101562 142.871094 Z M 4.855469 143.355469 C 4.191406 143.433594 3.992188 144.234375 3.945312 144.777344 L 3.945312 144.988281 L 3.929688 145.007812 L 3.929688 146.109375 C 3.976562 146.679688 4.015625 147.417969 4.539062 147.800781 C 5.023438 148.132812 5.667969 147.761719 5.800781 147.246094 C 5.945312 146.863281 5.976562 146.492188 6.007812 146.109375 L 6.007812 145.007812 C 5.960938 144.425781 5.882812 143.617188 5.214844 143.386719 L 5.160156 143.371094 L 5.144531 143.355469 L 5.070312 143.355469 L 5.054688 143.339844 L 4.875 143.339844 Z M 4.855469 143.355469 Z M 4.855469 143.355469 "/>
<path style=" stroke:none;fill-rule:nonzero;fill:rgb(0%,0%,0%);fill-opacity:1;" d="M 8.382812 147.585938 L 8.382812 148.21875 L 7.738281 148.21875 L 7.738281 147.585938 Z M 8.382812 147.585938 Z M 8.382812 147.585938 "/>
<path style=" stroke:none;fill-rule:nonzero;fill:rgb(0%,0%,0%);fill-opacity:1;" d="M 11.183594 142.871094 C 12.105469 142.894531 12.835938 143.839844 12.691406 144.726562 C 12.597656 145.617188 11.761719 146.125 11.167969 146.679688 L 10.914062 146.941406 L 10.882812 146.957031 L 10.5625 147.269531 L 10.539062 147.285156 L 10.222656 147.601562 L 10.191406 147.617188 L 10.121094 147.6875 L 10.136719 147.695312 L 12.707031 147.695312 L 12.707031 148.21875 L 9.5625 148.21875 L 9.5625 147.746094 L 10.84375 146.464844 C 11.453125 145.933594 12.167969 145.246094 12.054688 144.371094 C 11.992188 143.863281 11.5625 143.394531 11.039062 143.355469 C 10.507812 143.277344 10.039062 143.695312 9.921875 144.203125 L 9.90625 144.226562 L 9.890625 144.285156 L 9.867188 144.371094 L 9.816406 144.546875 L 9.808594 144.585938 C 9.699219 144.449219 9.578125 144.308594 9.492188 144.15625 C 9.652344 143.507812 10.175781 142.894531 10.867188 142.871094 Z M 11.183594 142.871094 Z M 11.183594 142.871094 "/>
<path style=" stroke:none;fill-rule:nonzero;fill:rgb(0%,0%,0%);fill-opacity:1;" d="M 5.101562 107.863281 C 5.859375 107.917969 6.359375 108.609375 6.492188 109.308594 C 6.5625 109.625 6.578125 109.925781 6.613281 110.246094 L 6.613281 111.054688 C 6.570312 111.878906 6.375 112.96875 5.476562 113.300781 C 4.699219 113.609375 3.785156 113.125 3.554688 112.332031 C 3.382812 111.910156 3.363281 111.484375 3.324219 111.054688 L 3.324219 110.246094 C 3.363281 109.417969 3.539062 108.324219 4.429688 107.957031 L 4.46875 107.941406 L 4.5 107.933594 L 4.539062 107.917969 L 4.660156 107.886719 L 4.730469 107.871094 L 4.816406 107.871094 L 4.832031 107.863281 Z M 5.101562 107.863281 Z M 4.855469 108.347656 C 4.191406 108.425781 3.992188 109.230469 3.945312 109.769531 L 3.945312 109.984375 L 3.929688 110 L 3.929688 111.101562 C 3.976562 111.671875 4.015625 112.410156 4.539062 112.792969 C 5.023438 113.125 5.667969 112.753906 5.800781 112.238281 C 5.945312 111.855469 5.976562 111.484375 6.007812 111.101562 L 6.007812 110 C 5.960938 109.417969 5.882812 108.609375 5.214844 108.378906 L 5.160156 108.363281 L 5.144531 108.347656 L 5.070312 108.347656 L 5.054688 108.332031 L 4.875 108.332031 Z M 4.855469 108.347656 Z M 4.855469 108.347656 "/>
<path style=" stroke:none;fill-rule:nonzero;fill:rgb(0%,0%,0%);fill-opacity:1;" d="M 8.382812 112.578125 L 8.382812 113.214844 L 7.738281 113.214844 L 7.738281 112.578125 Z M 8.382812 112.578125 Z M 8.382812 112.578125 "/>
<path style=" stroke:none;fill-rule:nonzero;fill:rgb(0%,0%,0%);fill-opacity:1;" d="M 11.285156 107.863281 C 11.984375 107.894531 12.714844 108.539062 12.546875 109.277344 C 12.46875 109.777344 12.121094 110.1875 11.683594 110.410156 C 12.390625 110.632812 12.9375 111.378906 12.746094 112.117188 C 12.554688 113.078125 11.453125 113.609375 10.5625 113.316406 C 10.136719 113.1875 9.699219 112.917969 9.492188 112.523438 C 9.539062 112.402344 9.523438 112.195312 9.578125 112.117188 C 10 112.738281 10.890625 113.15625 11.589844 112.808594 C 12.351562 112.324219 12.230469 110.910156 11.308594 110.671875 L 11.238281 110.671875 L 11.222656 110.65625 L 10.484375 110.65625 L 10.484375 110.179688 C 10.9375 110.171875 11.5 110.117188 11.753906 109.648438 C 12.023438 109.246094 12 108.578125 11.484375 108.378906 C 10.875 108.140625 10.121094 108.53125 9.890625 109.148438 C 9.792969 109.015625 9.699219 108.878906 9.605469 108.738281 C 9.929688 108.148438 10.621094 107.800781 11.285156 107.863281 Z M 11.285156 107.863281 Z M 11.285156 107.863281 "/>
<path style=" stroke:none;fill-rule:nonzero;fill:rgb(0%,0%,0%);fill-opacity:1;" d="M 5.101562 72.855469 C 5.859375 72.910156 6.359375 73.601562 6.492188 74.300781 C 6.5625 74.617188 6.578125 74.917969 6.613281 75.238281 L 6.613281 76.046875 C 6.570312 76.871094 6.375 77.960938 5.476562 78.292969 C 4.699219 78.601562 3.785156 78.117188 3.554688 77.324219 C 3.382812 76.902344 3.363281 76.476562 3.324219 76.046875 L 3.324219 75.238281 C 3.363281 74.410156 3.539062 73.316406 4.429688 72.953125 L 4.46875 72.9375 L 4.5 72.925781 L 4.539062 72.910156 L 4.660156 72.878906 L 4.730469 72.863281 L 4.816406 72.863281 L 4.832031 72.855469 Z M 5.101562 72.855469 Z M 4.855469 73.339844 C 4.191406 73.417969 3.992188 74.222656 3.945312 74.761719 L 3.945312 74.976562 L 3.929688 74.992188 L 3.929688 76.09375 C 3.976562 76.664062 4.015625 77.402344 4.539062 77.785156 C 5.023438 78.117188 5.667969 77.746094 5.800781 77.230469 C 5.945312 76.847656 5.976562 76.476562 6.007812 76.09375 L 6.007812 74.992188 C 5.960938 74.410156 5.882812 73.601562 5.214844 73.371094 L 5.160156 73.355469 L 5.144531 73.339844 L 5.070312 73.339844 L 5.054688 73.324219 L 4.875 73.324219 Z M 4.855469 73.339844 Z M 4.855469 73.339844 "/>
<path style=" stroke:none;fill-rule:nonzero;fill:rgb(0%,0%,0%);fill-opacity:1;" d="M 8.382812 77.570312 L 8.382812 78.207031 L 7.738281 78.207031 L 7.738281 77.570312 Z M 8.382812 77.570312 Z M 8.382812 77.570312 "/>
<path style=" stroke:none;fill-rule:nonzero;fill:rgb(0%,0%,0%);fill-opacity:1;" d="M 12.089844 73.023438 L 12.089844 76.363281 L 12.105469 76.378906 L 12.890625 76.378906 L 12.890625 76.855469 L 12.105469 76.855469 L 12.089844 76.863281 L 12.089844 78.207031 L 11.484375 78.207031 L 11.484375 76.863281 L 11.46875 76.855469 L 9.375 76.855469 L 9.375 76.363281 C 10.039062 75.253906 10.707031 74.132812 11.375 73.023438 Z M 12.089844 73.023438 Z M 11.5 73.324219 C 11.34375 74.148438 10.832031 74.855469 10.453125 75.578125 C 10.300781 75.839844 10.105469 76.125 9.992188 76.378906 L 11.515625 76.378906 L 11.523438 76.363281 L 11.523438 73.324219 L 11.515625 73.308594 Z M 11.5 73.324219 Z M 11.5 73.324219 "/>
<path style=" stroke:none;fill-rule:nonzero;fill:rgb(0%,0%,0%);fill-opacity:1;" d="M 5.101562 37.847656 C 5.859375 37.90625 6.359375 38.59375 6.492188 39.292969 C 6.5625 39.609375 6.578125 39.914062 6.613281 40.230469 L 6.613281 41.039062 C 6.570312 41.863281 6.375 42.953125 5.476562 43.285156 C 4.699219 43.59375 3.785156 43.109375 3.554688 42.316406 C 3.382812 41.898438 3.363281 41.46875 3.324219 41.039062 L 3.324219 40.230469 C 3.363281 39.40625 3.539062 38.308594 4.429688 37.945312 L 4.46875 37.929688 L 4.5 37.921875 L 4.539062 37.90625 L 4.660156 37.871094 L 4.730469 37.855469 L 4.816406 37.855469 L 4.832031 37.847656 Z M 5.101562 37.847656 Z M 4.855469 38.332031 C 4.191406 38.414062 3.992188 39.214844 3.945312 39.753906 L 3.945312 39.96875 L 3.929688 39.984375 L 3.929688 41.085938 C 3.976562 41.660156 4.015625 42.398438 4.539062 42.777344 C 5.023438 43.109375 5.667969 42.738281 5.800781 42.222656 C 5.945312 41.839844 5.976562 41.46875 6.007812 41.085938 L 6.007812 39.984375 C 5.960938 39.40625 5.882812 38.59375 5.214844 38.363281 L 5.160156 38.347656 L 5.144531 38.332031 L 5.070312 38.332031 L 5.054688 38.316406 L 4.875 38.316406 Z M 4.855469 38.332031 Z M 4.855469 38.332031 "/>
<path style=" stroke:none;fill-rule:nonzero;fill:rgb(0%,0%,0%);fill-opacity:1;" d="M 8.382812 42.5625 L 8.382812 43.199219 L 7.738281 43.199219 L 7.738281 42.5625 Z M 8.382812 42.5625 Z M 8.382812 42.5625 "/>
<path style=" stroke:none;fill-rule:nonzero;fill:rgb(0%,0%,0%);fill-opacity:1;" d="M 12.445312 38.015625 L 12.445312 38.507812 L 10.382812 38.507812 L 10.367188 38.515625 L 10.367188 40.144531 C 10.554688 40.015625 10.824219 39.847656 11.078125 39.839844 C 11.976562 39.746094 12.667969 40.625 12.707031 41.445312 C 12.835938 42.484375 11.859375 43.515625 10.808594 43.355469 C 10.285156 43.339844 9.777344 43.03125 9.476562 42.601562 C 9.5625 42.484375 9.636719 42.277344 9.738281 42.207031 C 10.113281 42.9375 11.316406 43.230469 11.800781 42.460938 C 12.113281 41.878906 12.105469 41.144531 11.746094 40.585938 C 11.332031 40.054688 10.515625 40.378906 10.324219 40.945312 L 9.808594 40.945312 L 9.808594 38.015625 Z M 12.445312 38.015625 Z M 12.445312 38.015625 "/>
<path style=" stroke:none;fill-rule:nonzero;fill:rgb(0%,0%,0%);fill-opacity:1;" d="M 5.101562 2.839844 C 5.859375 2.898438 6.359375 3.585938 6.492188 4.285156 C 6.5625 4.601562 6.578125 4.90625 6.613281 5.222656 L 6.613281 6.03125 C 6.570312 6.859375 6.375 7.945312 5.476562 8.277344 C 4.699219 8.585938 3.785156 8.105469 3.554688 7.308594 C 3.382812 6.890625 3.363281 6.460938 3.324219 6.03125 L 3.324219 5.222656 C 3.363281 4.398438 3.539062 3.300781 4.429688 2.9375 L 4.46875 2.921875 L 4.5 2.914062 L 4.539062 2.898438 L 4.660156 2.863281 L 4.730469 2.847656 L 4.816406 2.847656 L 4.832031 2.839844 Z M 5.101562 2.839844 Z M 4.855469 3.324219 C 4.191406 3.40625 3.992188 4.207031 3.945312 4.746094 L 3.945312 4.960938 L 3.929688 4.976562 L 3.929688 6.078125 C 3.976562 6.652344 4.015625 7.390625 4.539062 7.769531 C 5.023438 8.105469 5.667969 7.730469 5.800781 7.214844 C 5.945312 6.832031 5.976562 6.460938 6.007812 6.078125 L 6.007812 4.976562 C 5.960938 4.398438 5.882812 3.585938 5.214844 3.355469 L 5.160156 3.339844 L 5.144531 3.324219 L 5.070312 3.324219 L 5.054688 3.308594 L 4.875 3.308594 Z M 4.855469 3.324219 Z M 4.855469 3.324219 "/>
<path style=" stroke:none;fill-rule:nonzero;fill:rgb(0%,0%,0%);fill-opacity:1;" d="M 8.382812 7.554688 L 8.382812 8.191406 L 7.738281 8.191406 L 7.738281 7.554688 Z M 8.382812 7.554688 Z M 8.382812 7.554688 "/>
<path style=" stroke:none;fill-rule:nonzero;fill:rgb(0%,0%,0%);fill-opacity:1;" d="M 11.785156 2.839844 C 11.992188 2.875 12.230469 2.898438 12.429688 2.992188 L 12.429688 3.453125 C 11.882812 3.214844 11.167969 3.183594 10.738281 3.667969 C 10.359375 4.070312 10.183594 4.675781 10.167969 5.207031 C 10.628906 4.59375 11.667969 4.253906 12.230469 4.890625 C 12.792969 5.539062 12.890625 6.476562 12.636719 7.269531 C 12.359375 7.90625 11.714844 8.484375 11 8.351562 C 10.03125 8.269531 9.597656 7.191406 9.546875 6.367188 C 9.367188 5.199219 9.644531 3.730469 10.753906 3.0625 L 10.769531 3.054688 L 10.9375 2.96875 L 10.984375 2.953125 L 11.007812 2.9375 L 11.144531 2.898438 L 11.253906 2.863281 L 11.324219 2.847656 L 11.414062 2.847656 L 11.429688 2.839844 Z M 11.785156 2.839844 Z M 11.007812 5.046875 C 10.316406 5.167969 10.097656 6 10.183594 6.5625 C 10.222656 7.09375 10.429688 7.800781 11.039062 7.914062 C 11.691406 8 12.113281 7.300781 12.128906 6.738281 C 12.160156 6.167969 12.128906 5.515625 11.628906 5.144531 L 11.515625 5.085938 L 11.429688 5.0625 L 11.359375 5.046875 L 11.34375 5.03125 L 11.023438 5.03125 Z M 11.007812 5.046875 Z M 11.007812 5.046875 "/>
<path style="fill:none;stroke-width:0.02;stroke-linecap:butt;stroke-linejoin:miter;stroke:rgb(0%,0%,0%);stroke-opacity:1;stroke-miterlimit:10;" d="M 9.860001 1.663367 L 9.754995 1.663367 " transform="matrix(28.346457,0,0,-28.346457,1,227.771654)"/>
<path style="fill:none;stroke-width:0.02;stroke-linecap:butt;stroke-linejoin:miter;stroke:rgb(0%,0%,0%);stroke-opacity:1;stroke-miterlimit:10;" d="M 9.860001 2.898365 L 9.754995 2.898365 " transform="matrix(28.346457,0,0,-28.346457,1,227.771654)"/>
<path style="fill:none;stroke-width:0.02;stroke-linecap:butt;stroke-linejoin:miter;stroke:rgb(0%,0%,0%);stroke-opacity:1;stroke-miterlimit:10;" d="M 9.860001 4.133363 L 9.754995 4.133363 " transform="matrix(28.346457,0,0,-28.346457,1,227.771654)"/>
<path style="fill:none;stroke-width:0.02;stroke-linecap:butt;stroke-linejoin:miter;stroke:rgb(0%,0%,0%);stroke-opacity:1;stroke-miterlimit:10;" d="M 9.860001 5.36836 L 9.754995 5.36836 " transform="matrix(28.346457,0,0,-28.346457,1,227.771654)"/>
<path style="fill:none;stroke-width:0.02;stroke-linecap:butt;stroke-linejoin:miter;stroke:rgb(0%,0%,0%);stroke-opacity:1;stroke-miterlimit:10;" d="M 9.860001 6.603358 L 9.754995 6.603358 " transform="matrix(28.346457,0,0,-28.346457,1,227.771654)"/>
<path style="fill:none;stroke-width:0.02;stroke-linecap:round;stroke-linejoin:miter;stroke:rgb(0%,0%,0%);stroke-opacity:1;stroke-miterlimit:10;" d="M 9.860001 0.428369 L 9.860001 7.838356 " transform="matrix(28.346457,0,0,-28.346457,1,227.771654)"/>
<path style="fill:none;stroke-width:0.02;stroke-linecap:butt;stroke-linejoin:miter;stroke:rgb(0%,0%,0%);stroke-opacity:1;stroke-miterlimit:10;" d="M 1.759755 0.428369 L 1.759755 0.533376 " transform="matrix(28.346457,0,0,-28.346457,1,227.771654)"/>
<path style="fill:none;stroke-width:0.02;stroke-linecap:butt;stroke-linejoin:miter;stroke:rgb(0%,0%,0%);stroke-opacity:1;stroke-miterlimit:10;" d="M 2.916893 0.428369 L 2.916893 0.533376 " transform="matrix(28.346457,0,0,-28.346457,1,227.771654)"/>
<path style="fill:none;stroke-width:0.02;stroke-linecap:butt;stroke-linejoin:miter;stroke:rgb(0%,0%,0%);stroke-opacity:1;stroke-miterlimit:10;" d="M 4.074032 0.428369 L 4.074032 0.533376 " transform="matrix(28.346457,0,0,-28.346457,1,227.771654)"/>
<path style="fill:none;stroke-width:0.02;stroke-linecap:butt;stroke-linejoin:miter;stroke:rgb(0%,0%,0%);stroke-opacity:1;stroke-miterlimit:10;" d="M 5.231309 0.428369 L 5.231309 0.533376 " transform="matrix(28.346457,0,0,-28.346457,1,227.771654)"/>
<path style="fill:none;stroke-width:0.02;stroke-linecap:butt;stroke-linejoin:miter;stroke:rgb(0%,0%,0%);stroke-opacity:1;stroke-miterlimit:10;" d="M 6.388447 0.428369 L 6.388447 0.533376 " transform="matrix(28.346457,0,0,-28.346457,1,227.771654)"/>
<path style="fill:none;stroke-width:0.02;stroke-linecap:butt;stroke-linejoin:miter;stroke:rgb(0%,0%,0%);stroke-opacity:1;stroke-miterlimit:10;" d="M 7.545586 0.428369 L 7.545586 0.533376 " transform="matrix(28.346457,0,0,-28.346457,1,227.771654)"/>
<path style="fill:none;stroke-width:0.02;stroke-linecap:butt;stroke-linejoin:miter;stroke:rgb(0%,0%,0%);stroke-opacity:1;stroke-miterlimit:10;" d="M 8.702862 0.428369 L 8.702862 0.533376 " transform="matrix(28.346457,0,0,-28.346457,1,227.771654)"/>
<path style="fill:none;stroke-width:0.02;stroke-linecap:round;stroke-linejoin:miter;stroke:rgb(0%,0%,0%);stroke-opacity:1;stroke-miterlimit:10;" d="M 0.602616 0.428369 L 9.860001 0.428369 " transform="matrix(28.346457,0,0,-28.346457,1,227.771654)"/>
<path style=" stroke:none;fill-rule:nonzero;fill:rgb(0%,0%,0%);fill-opacity:1;" d="M 16.949219 223.828125 L 16.949219 224.269531 L 14.871094 224.269531 L 14.871094 223.828125 Z M 16.949219 223.828125 Z M 16.949219 223.828125 "/>
<path style=" stroke:none;fill-rule:nonzero;fill:rgb(0%,0%,0%);fill-opacity:1;" d="M 20.355469 220.613281 L 20.355469 223.953125 L 20.371094 223.96875 L 21.15625 223.96875 L 21.15625 224.445312 L 20.371094 224.445312 L 20.355469 224.453125 L 20.355469 225.796875 L 19.75 225.796875 L 19.75 224.453125 L 19.734375 224.445312 L 17.640625 224.445312 L 17.640625 223.953125 C 18.308594 222.84375 18.972656 221.722656 19.640625 220.613281 Z M 20.355469 220.613281 Z M 19.765625 220.914062 C 19.609375 221.738281 19.101562 222.445312 18.71875 223.167969 C 18.570312 223.429688 18.371094 223.714844 18.257812 223.96875 L 19.78125 223.96875 L 19.789062 223.953125 L 19.789062 220.914062 L 19.78125 220.898438 Z M 19.765625 220.914062 Z M 19.765625 220.914062 "/>
<path style=" stroke:none;fill-rule:nonzero;fill:rgb(0%,0%,0%);fill-opacity:1;" d="M 49.75 223.828125 L 49.75 224.269531 L 47.671875 224.269531 L 47.671875 223.828125 Z M 49.75 223.828125 Z M 49.75 223.828125 "/>
<path style=" stroke:none;fill-rule:nonzero;fill:rgb(0%,0%,0%);fill-opacity:1;" d="M 52.355469 220.445312 C 53.054688 220.476562 53.785156 221.121094 53.617188 221.859375 C 53.539062 222.359375 53.1875 222.769531 52.75 222.992188 C 53.457031 223.214844 54.003906 223.960938 53.816406 224.699219 C 53.625 225.660156 52.519531 226.191406 51.632812 225.898438 C 51.203125 225.773438 50.765625 225.5 50.5625 225.105469 C 50.609375 224.984375 50.59375 224.78125 50.648438 224.699219 C 51.070312 225.320312 51.957031 225.738281 52.65625 225.390625 C 53.417969 224.90625 53.300781 223.492188 52.378906 223.253906 L 52.308594 223.253906 L 52.292969 223.238281 L 51.554688 223.238281 L 51.554688 222.761719 C 52.003906 222.753906 52.570312 222.699219 52.824219 222.230469 C 53.09375 221.828125 53.070312 221.160156 52.554688 220.960938 C 51.941406 220.722656 51.1875 221.113281 50.957031 221.730469 C 50.863281 221.597656 50.765625 221.460938 50.671875 221.320312 C 50.996094 220.730469 51.6875 220.382812 52.355469 220.445312 Z M 52.355469 220.445312 Z M 52.355469 220.445312 "/>
<path style=" stroke:none;fill-rule:nonzero;fill:rgb(0%,0%,0%);fill-opacity:1;" d="M 82.554688 223.828125 L 82.554688 224.269531 L 80.472656 224.269531 L 80.472656 223.828125 Z M 82.554688 223.828125 Z M 82.554688 223.828125 "/>
<path style=" stroke:none;fill-rule:nonzero;fill:rgb(0%,0%,0%);fill-opacity:1;" d="M 85.054688 220.445312 C 85.972656 220.46875 86.703125 221.414062 86.5625 222.304688 C 86.464844 223.191406 85.632812 223.699219 85.039062 224.253906 L 84.785156 224.515625 L 84.75 224.535156 L 84.433594 224.84375 L 84.410156 224.859375 L 84.09375 225.175781 L 84.0625 225.191406 L 83.988281 225.261719 L 84.003906 225.273438 L 86.578125 225.273438 L 86.578125 225.796875 L 83.433594 225.796875 L 83.433594 225.320312 L 84.710938 224.042969 C 85.324219 223.507812 86.039062 222.820312 85.925781 221.945312 C 85.863281 221.4375 85.433594 220.96875 84.910156 220.929688 C 84.378906 220.851562 83.910156 221.269531 83.792969 221.777344 L 83.777344 221.804688 L 83.757812 221.859375 L 83.734375 221.945312 L 83.6875 222.121094 L 83.679688 222.160156 C 83.570312 222.023438 83.449219 221.882812 83.363281 221.730469 C 83.523438 221.082031 84.046875 220.46875 84.734375 220.445312 Z M 85.054688 220.445312 Z M 85.054688 220.445312 "/>
<path style=" stroke:none;fill-rule:nonzero;fill:rgb(0%,0%,0%);fill-opacity:1;" d="M 115.355469 223.828125 L 115.355469 224.269531 L 113.277344 224.269531 L 113.277344 223.828125 Z M 115.355469 223.828125 Z M 115.355469 223.828125 "/>
<path style=" stroke:none;fill-rule:nonzero;fill:rgb(0%,0%,0%);fill-opacity:1;" d="M 118.1875 220.445312 L 118.1875 225.34375 L 118.195312 225.359375 L 119.171875 225.359375 L 119.171875 225.796875 L 116.59375 225.796875 L 116.59375 225.359375 L 117.570312 225.359375 L 117.585938 225.34375 L 117.585938 221.230469 C 117.253906 221.34375 116.902344 221.414062 116.554688 221.40625 L 116.554688 220.960938 C 117.078125 220.96875 117.648438 220.828125 118.046875 220.445312 Z M 118.1875 220.445312 Z M 118.1875 220.445312 "/>
<path style=" stroke:none;fill-rule:nonzero;fill:rgb(0%,0%,0%);fill-opacity:1;" d="M 149.421875 220.445312 C 150.175781 220.5 150.675781 221.191406 150.8125 221.890625 C 150.882812 222.207031 150.898438 222.507812 150.929688 222.828125 L 150.929688 223.636719 C 150.890625 224.460938 150.691406 225.550781 149.796875 225.882812 C 149.019531 226.191406 148.105469 225.707031 147.875 224.914062 C 147.699219 224.492188 147.683594 224.066406 147.644531 223.636719 L 147.644531 222.828125 C 147.683594 222 147.859375 220.90625 148.75 220.542969 L 148.789062 220.523438 L 148.820312 220.515625 L 148.859375 220.5 L 148.980469 220.46875 L 149.050781 220.453125 L 149.136719 220.453125 L 149.152344 220.445312 Z M 149.421875 220.445312 Z M 149.175781 220.929688 C 148.511719 221.007812 148.3125 221.8125 148.265625 222.351562 L 148.265625 222.566406 L 148.25 222.582031 L 148.25 223.683594 C 148.296875 224.253906 148.335938 224.992188 148.859375 225.375 C 149.34375 225.707031 149.988281 225.335938 150.121094 224.820312 C 150.265625 224.4375 150.296875 224.066406 150.328125 223.683594 L 150.328125 222.582031 C 150.28125 222 150.199219 221.191406 149.535156 220.960938 L 149.480469 220.945312 L 149.460938 220.929688 L 149.390625 220.929688 L 149.375 220.914062 L 149.191406 220.914062 Z M 149.175781 220.929688 Z M 149.175781 220.929688 "/>
<path style=" stroke:none;fill-rule:nonzero;fill:rgb(0%,0%,0%);fill-opacity:1;" d="M 182.472656 220.445312 L 182.472656 225.34375 L 182.480469 225.359375 L 183.457031 225.359375 L 183.457031 225.796875 L 180.875 225.796875 L 180.875 225.359375 L 181.851562 225.359375 L 181.867188 225.34375 L 181.867188 221.230469 C 181.535156 221.34375 181.183594 221.414062 180.835938 221.40625 L 180.835938 220.960938 C 181.359375 220.96875 181.929688 220.828125 182.328125 220.445312 Z M 182.472656 220.445312 Z M 182.472656 220.445312 "/>
<path style=" stroke:none;fill-rule:nonzero;fill:rgb(0%,0%,0%);fill-opacity:1;" d="M 214.941406 220.445312 C 215.859375 220.46875 216.589844 221.414062 216.449219 222.304688 C 216.351562 223.191406 215.519531 223.699219 214.925781 224.253906 L 214.667969 224.515625 L 214.636719 224.535156 L 214.320312 224.84375 L 214.296875 224.859375 L 213.980469 225.175781 L 213.949219 225.191406 L 213.875 225.261719 L 213.890625 225.273438 L 216.464844 225.273438 L 216.464844 225.796875 L 213.320312 225.796875 L 213.320312 225.320312 L 214.597656 224.042969 C 215.210938 223.507812 215.925781 222.820312 215.8125 221.945312 C 215.75 221.4375 215.320312 220.96875 214.796875 220.929688 C 214.265625 220.851562 213.796875 221.269531 213.679688 221.777344 L 213.660156 221.804688 L 213.644531 221.859375 L 213.621094 221.945312 L 213.574219 222.121094 L 213.566406 222.160156 C 213.457031 222.023438 213.335938 221.882812 213.25 221.730469 C 213.40625 221.082031 213.933594 220.46875 214.621094 220.445312 Z M 214.941406 220.445312 Z M 214.941406 220.445312 "/>
<path style=" stroke:none;fill-rule:nonzero;fill:rgb(0%,0%,0%);fill-opacity:1;" d="M 247.84375 220.445312 C 248.542969 220.476562 249.273438 221.121094 249.105469 221.859375 C 249.027344 222.359375 248.679688 222.769531 248.242188 222.992188 C 248.949219 223.214844 249.496094 223.960938 249.304688 224.699219 C 249.113281 225.660156 248.011719 226.191406 247.121094 225.898438 C 246.695312 225.773438 246.257812 225.5 246.050781 225.105469 C 246.097656 224.984375 246.082031 224.78125 246.136719 224.699219 C 246.558594 225.320312 247.449219 225.738281 248.148438 225.390625 C 248.910156 224.90625 248.789062 223.492188 247.867188 223.253906 L 247.796875 223.253906 L 247.78125 223.238281 L 247.042969 223.238281 L 247.042969 222.761719 C 247.496094 222.753906 248.058594 222.699219 248.3125 222.230469 C 248.582031 221.828125 248.558594 221.160156 248.042969 220.960938 C 247.433594 220.722656 246.679688 221.113281 246.449219 221.730469 C 246.351562 221.597656 246.257812 221.460938 246.164062 221.320312 C 246.488281 220.730469 247.179688 220.382812 247.84375 220.445312 Z M 247.84375 220.445312 Z M 247.84375 220.445312 "/>
<path style=" stroke:none;fill-rule:nonzero;fill:rgb(0%,0%,0%);fill-opacity:1;" d="M 281.449219 220.613281 L 281.449219 223.953125 L 281.464844 223.96875 L 282.25 223.96875 L 282.25 224.445312 L 281.464844 224.445312 L 281.449219 224.453125 L 281.449219 225.796875 L 280.84375 225.796875 L 280.84375 224.453125 L 280.828125 224.445312 L 278.734375 224.445312 L 278.734375 223.953125 C 279.402344 222.84375 280.066406 221.722656 280.734375 220.613281 Z M 281.449219 220.613281 Z M 280.859375 220.914062 C 280.703125 221.738281 280.195312 222.445312 279.8125 223.167969 C 279.664062 223.429688 279.464844 223.714844 279.351562 223.96875 L 280.878906 223.96875 L 280.886719 223.953125 L 280.886719 220.914062 L 280.878906 220.898438 Z M 280.859375 220.914062 Z M 280.859375 220.914062 "/>
<path style="fill:none;stroke-width:0.02;stroke-linecap:butt;stroke-linejoin:miter;stroke:rgb(0%,0%,0%);stroke-opacity:1;stroke-miterlimit:10;" d="M 1.759755 7.838356 L 1.759755 7.73335 " transform="matrix(28.346457,0,0,-28.346457,1,227.771654)"/>
<path style="fill:none;stroke-width:0.02;stroke-linecap:butt;stroke-linejoin:miter;stroke:rgb(0%,0%,0%);stroke-opacity:1;stroke-miterlimit:10;" d="M 2.916893 7.838356 L 2.916893 7.73335 " transform="matrix(28.346457,0,0,-28.346457,1,227.771654)"/>
<path style="fill:none;stroke-width:0.02;stroke-linecap:butt;stroke-linejoin:miter;stroke:rgb(0%,0%,0%);stroke-opacity:1;stroke-miterlimit:10;" d="M 4.074032 7.838356 L 4.074032 7.73335 " transform="matrix(28.346457,0,0,-28.346457,1,227.771654)"/>
<path style="fill:none;stroke-width:0.02;stroke-linecap:butt;stroke-linejoin:miter;stroke:rgb(0%,0%,0%);stroke-opacity:1;stroke-miterlimit:10;" d="M 5.231309 7.838356 L 5.231309 7.73335 " transform="matrix(28.346457,0,0,-28.346457,1,227.771654)"/>
<path style="fill:none;stroke-width:0.02;stroke-linecap:butt;stroke-linejoin:miter;stroke:rgb(0%,0%,0%);stroke-opacity:1;stroke-miterlimit:10;" d="M 6.388447 7.838356 L 6.388447 7.73335 " transform="matrix(28.346457,0,0,-28.346457,1,227.771654)"/>
<path style="fill:none;stroke-width:0.02;stroke-linecap:butt;stroke-linejoin:miter;stroke:rgb(0%,0%,0%);stroke-opacity:1;stroke-miterlimit:10;" d="M 7.545586 7.838356 L 7.545586 7.73335 " transform="matrix(28.346457,0,0,-28.346457,1,227.771654)"/>
<path style="fill:none;stroke-width:0.02;stroke-linecap:butt;stroke-linejoin:miter;stroke:rgb(0%,0%,0%);stroke-opacity:1;stroke-miterlimit:10;" d="M 8.702862 7.838356 L 8.702862 7.73335 " transform="matrix(28.346457,0,0,-28.346457,1,227.771654)"/>
<path style="fill:none;stroke-width:0.02;stroke-linecap:round;stroke-linejoin:miter;stroke:rgb(0%,0%,0%);stroke-opacity:1;stroke-miterlimit:10;" d="M 0.602616 7.838356 L 9.860001 7.838356 " transform="matrix(28.346457,0,0,-28.346457,1,227.771654)"/>
<path style="fill:none;stroke-width:0.02;stroke-linecap:butt;stroke-linejoin:miter;stroke:rgb(81.960784%,36.862745%,36.078431%);stroke-opacity:1;stroke-miterlimit:10;" d="M 1.759755 0.483077 L 1.829897 0.493964 L 1.900039 0.506504 L 1.970181 0.521249 L 2.040323 0.538337 L 2.110465 0.55818 L 2.18047 0.580918 L 2.250612 0.606963 L 2.320754 0.636866 L 2.390896 0.670628 L 2.461038 0.709076 L 2.531181 0.752208 L 2.601323 0.800715 L 2.671465 0.85501 L 2.741607 0.91523 L 2.811749 0.982065 L 2.881891 1.055652 L 2.952033 1.136543 L 3.022176 1.224875 L 3.092318 1.320924 L 3.162322 1.424829 L 3.232464 1.536863 L 3.302606 1.65689 L 3.372748 1.785048 L 3.442891 1.920922 L 3.513033 2.064514 L 3.583175 2.215271 L 3.653317 2.372781 L 3.723459 2.536492 L 3.793601 2.705439 L 3.863743 2.879072 L 3.933886 3.05615 L 4.004028 3.235846 L 4.074032 3.416645 L 4.144174 3.597581 L 4.214316 3.77714 L 4.284459 3.953804 L 4.354601 4.126197 L 4.424743 4.292802 L 4.494885 4.452241 L 4.565027 4.602722 L 4.635169 4.743007 L 4.705311 4.871715 L 4.775454 4.987471 L 4.845596 5.089032 L 4.915738 5.175435 L 4.98588 5.245715 L 5.055884 5.299045 L 5.126026 5.335012 L 5.196169 5.353064 L 5.266311 5.353064 L 5.336453 5.335012 L 5.406595 5.299045 L 5.476737 5.245715 L 5.546879 5.175435 L 5.617021 5.089032 L 5.687164 4.987471 L 5.757306 4.871715 L 5.827448 4.743007 L 5.89759 4.602722 L 5.967732 4.452241 L 6.037737 4.292802 L 6.107879 4.126197 L 6.178021 3.953804 L 6.248163 3.77714 L 6.318305 3.597581 L 6.388447 3.416645 L 6.458589 3.235846 L 6.528732 3.05615 L 6.598874 2.879072 L 6.669016 2.705439 L 6.739158 2.536492 L 6.8093 2.372781 L 6.879442 2.215271 L 6.949584 2.064514 L 7.019589 1.920922 L 7.089731 1.785048 L 7.159873 1.65689 L 7.230015 1.536863 L 7.300157 1.424829 L 7.370299 1.320924 L 7.440442 1.224875 L 7.510584 1.136543 L 7.580726 1.055652 L 7.650868 0.982065 L 7.72101 0.91523 L 7.791152 0.85501 L 7.861294 0.800715 L 7.931299 0.752208 L 8.001441 0.709076 L 8.071583 0.670628 L 8.141725 0.636866 L 8.211867 0.606963 L 8.28201 0.580918 L 8.352152 0.55818 L 8.422294 0.538337 L 8.492436 0.521249 L 8.562578 0.506504 L 8.63272 0.493964 L 8.702862 0.483077 " transform="matrix(28.346457,0,0,-28.346457,1,227.771654)"/>
</g>
</svg>
