<?xml version="1.0" encoding="UTF-8"?>
<svg xmlns="http://www.w3.org/2000/svg" xmlns:xlink="http://www.w3.org/1999/xlink" width="285.464567pt" height="228.771654pt" viewBox="0 0 285.464567 228.771654" version="1.1">
<g id="surface1">
<path style="fill-rule:nonzero;fill:rgb(9.803922%,9.803922%,43.921569%);fill-opacity:1;stroke-width:0.02;stroke-linecap:butt;stroke-linejoin:miter;stroke:rgb(100%,100%,100%);stroke-opacity:1;stroke-miterlimit:10;" d="M 1.232931 0.428369 L 2.36871 0.428369 L 2.36871 2.474342 L 1.232931 2.474342 Z M 1.232931 0.428369 " transform="matrix(28.346457,0,0,-28.346457,1,227.771654)"/>
<path style="fill-rule:nonzero;fill:rgb(9.803922%,9.803922%,43.921569%);fill-opacity:1;stroke-width:0.02;stroke-linecap:butt;stroke-linejoin:miter;stroke:rgb(100%,100%,100%);stroke-opacity:1;stroke-miterlimit:10;" d="M 3.504489 0.428369 L 4.640268 0.428369 L 4.640268 3.838187 L 3.504489 3.838187 Z M 3.504489 0.428369 " transform="matrix(28.346457,0,0,-28.346457,1,227.771654)"/>
<path style="fill-rule:nonzero;fill:rgb(9.803922%,9.803922%,43.921569%);fill-opacity:1;stroke-width:0.02;stroke-linecap:butt;stroke-linejoin:miter;stroke:rgb(100%,100%,100%);stroke-opacity:1;stroke-miterlimit:10;" d="M 5.776047 0.428369 L 6.911826 0.428369 L 6.911826 2.474342 L 5.776047 2.474342 Z M 5.776047 0.428369 " transform="matrix(28.346457,0,0,-28.346457,1,227.771654)"/>
<path style="fill-rule:nonzero;fill:rgb(9.803922%,9.803922%,43.921569%);fill-opacity:1;stroke-width:0.02;stroke-linecap:butt;stroke-linejoin:miter;stroke:rgb(100%,100%,100%);stroke-opacity:1;stroke-miterlimit:10;" d="M 8.047605 0.428369 L 9.183384 0.428369 L 9.183384 1.11036 L 8.047605 1.11036 Z M 8.047605 0.428369 " transform="matrix(28.346457,0,0,-28.346457,1,227.771654)"/>
<path style="fill-rule:nonzero;fill:rgb(12.54902%,69.803922%,66.666667%);fill-opacity:1;stroke-width:0.02;stroke-linecap:butt;stroke-linejoin:miter;stroke:rgb(100%,100%,100%);stroke-opacity:1;stroke-miterlimit:10;" d="M 1.232931 2.474342 L 2.36871 2.474342 L 2.36871 5.202169 L 1.232931 5.202169 Z M 1.232931 2.474342 " transform="matrix(28.346457,0,0,-28.346457,1,227.771654)"/>
<path style="fill-rule:nonzero;fill:rgb(12.54902%,69.803922%,66.666667%);fill-opacity:1;stroke-width:0.02;stroke-linecap:butt;stroke-linejoin:miter;stroke:rgb(100%,100%,100%);stroke-opacity:1;stroke-miterlimit:10;" d="M 3.504489 3.838187 L 4.640268 3.838187 L 4.640268 5.543096 L 3.504489 5.543096 Z M 3.504489 3.838187 " transform="matrix(28.346457,0,0,-28.346457,1,227.771654)"/>
<path style="fill-rule:nonzero;fill:rgb(12.54902%,69.803922%,66.666667%);fill-opacity:1;stroke-width:0.02;stroke-linecap:butt;stroke-linejoin:miter;stroke:rgb(100%,100%,100%);stroke-opacity:1;stroke-miterlimit:10;" d="M 5.776047 2.474342 L 6.911826 2.474342 L 6.911826 4.520178 L 5.776047 4.520178 Z M 5.776047 2.474342 " transform="matrix(28.346457,0,0,-28.346457,1,227.771654)"/>
<path style="fill-rule:nonzero;fill:rgb(12.54902%,69.803922%,66.666667%);fill-opacity:1;stroke-width:0.02;stroke-linecap:butt;stroke-linejoin:miter;stroke:rgb(100%,100%,100%);stroke-opacity:1;stroke-miterlimit:10;" d="M 8.047605 1.11036 L 9.183384 1.11036 L 9.183384 4.520178 L 8.047605 4.520178 Z M 8.047605 1.11036 " transform="matrix(28.346457,0,0,-28.346457,1,227.771654)"/>
<path style="fill-rule:nonzero;fill:rgb(100%,62.745098%,47.843137%);fill-opacity:1;stroke-width:0.02;stroke-linecap:butt;stroke-linejoin:miter;stroke:rgb(100%,100%,100%);stroke-opacity:1;stroke-miterlimit:10;" d="M 1.232931 5.202169 L 2.36871 5.202169 L 2.36871 7.248005 L 1.232931 7.248005 Z M 1.232931 5.202169 " transform="matrix(28.346457,0,0,-28.346457,1,227.771654)"/>
<path style="fill-rule:nonzero;fill:rgb(100%,62.745098%,47.843137%);fill-opacity:1;stroke-width:0.02;stroke-linecap:butt;stroke-linejoin:miter;stroke:rgb(100%,100%,100%);stroke-opacity:1;stroke-miterlimit:10;" d="M 3.504489 5.543096 L 4.640268 5.543096 L 4.640268 7.248005 L 3.504489 7.248005 Z M 3.504489 5.543096 " transform="matrix(28.346457,0,0,-28.346457,1,227.771654)"/>
<path style="fill-rule:nonzero;fill:rgb(100%,62.745098%,47.843137%);fill-opacity:1;stroke-width:0.02;stroke-linecap:butt;stroke-linejoin:miter;stroke:rgb(100%,100%,100%);stroke-opacity:1;stroke-miterlimit:10;" d="M 5.776047 4.520178 L 6.911826 4.520178 L 6.911826 7.248005 L 5.776047 7.248005 Z M 5.776047 4.520178 " transform="matrix(28.346457,0,0,-28.346457,1,227.771654)"/>
<path style="fill-rule:nonzero;fill:rgb(100%,62.745098%,47.843137%);fill-opacity:1;stroke-width:0.02;stroke-linecap:butt;stroke-linejoin:miter;stroke:rgb(100%,100%,100%);stroke-opacity:1;stroke-miterlimit:10;" d="M 8.047605 4.520178 L 9.183384 4.520178 L 9.183384 7.248005 L 8.047605 7.248005 Z M 8.047605 4.520178 " transform="matrix(28.346457,0,0,-28.346457,1,227.771654)"/>
<path style="fill:none;stroke-width:0.02;stroke-linecap:butt;stroke-linejoin:miter;stroke:rgb(0%,0%,0%);stroke-opacity:1;stroke-miterlimit:10;" d="M 0.665041 1.792351 L 0.770048 1.792351 " transform="matrix(28.346457,0,0,-28.346457,1,227.771654)"/>
<path style="fill:none;stroke-width:0.02;stroke-linecap:butt;stroke-linejoin:miter;stroke:rgb(0%,0%,0%);stroke-opacity:1;stroke-miterlimit:10;" d="M 0.665041 3.156196 L 0.770048 3.156196 " transform="matrix(28.346457,0,0,-28.346457,1,227.771654)"/>
<path style="fill:none;stroke-width:0.02;stroke-linecap:butt;stroke-linejoin:miter;stroke:rgb(0%,0%,0%);stroke-opacity:1;stroke-miterlimit:10;" d="M 0.665041 4.520178 L 0.770048 4.520178 " transform="matrix(28.346457,0,0,-28.346457,1,227.771654)"/>
<path style="fill:none;stroke-width:0.02;stroke-linecap:butt;stroke-linejoin:miter;stroke:rgb(0%,0%,0%);stroke-opacity:1;stroke-miterlimit:10;" d="M 0.665041 5.88416 L 0.770048 5.88416 " transform="matrix(28.346457,0,0,-28.346457,1,227.771654)"/>
<path style="fill:none;stroke-width:0.02;stroke-linecap:butt;stroke-linejoin:miter;stroke:rgb(0%,0%,0%);stroke-opacity:1;stroke-miterlimit:10;" d="M 0.665041 7.248005 L 0.770048 7.248005 " transform="matrix(28.346457,0,0,-28.346457,1,227.771654)"/>
<path style="fill:none;stroke-width:0.02;stroke-linecap:round;stroke-linejoin:miter;stroke:rgb(0%,0%,0%);stroke-opacity:1;stroke-miterlimit:10;" d="M 0.665041 0.428369 L 0.665041 7.929996 " transform="matrix(28.346457,0,0,-28.346457,1,227.771654)"/>
<path style=" stroke:none;fill-rule:nonzero;fill:rgb(0%,0%,0%);fill-opacity:1;" d="M 13.039062 212.886719 C 13.792969 212.941406 14.292969 213.632812 14.429688 214.332031 C 14.5 214.648438 14.515625 214.949219 14.546875 215.265625 L 14.546875 216.078125 C 14.507812 216.902344 14.308594 217.988281 13.414062 218.324219 C 12.636719 218.632812 11.722656 218.148438 11.492188 217.355469 C 11.316406 216.933594 11.300781 216.503906 11.261719 216.078125 L 11.261719 215.265625 C 11.300781 214.441406 11.476562 213.347656 12.367188 212.980469 L 12.40625 212.964844 L 12.4375 212.957031 L 12.476562 212.941406 L 12.597656 212.910156 L 12.667969 212.894531 L 12.753906 212.894531 L 12.769531 212.886719 Z M 13.039062 212.886719 Z M 12.792969 213.371094 C 12.128906 213.449219 11.929688 214.25 11.882812 214.789062 L 11.882812 215.003906 L 11.867188 215.019531 L 11.867188 216.125 C 11.914062 216.695312 11.953125 217.433594 12.476562 217.816406 C 12.960938 218.148438 13.605469 217.773438 13.738281 217.257812 C 13.882812 216.878906 13.914062 216.503906 13.945312 216.125 L 13.945312 215.019531 C 13.898438 214.441406 13.816406 213.632812 13.152344 213.402344 L 13.097656 213.386719 L 13.082031 213.371094 L 13.007812 213.371094 L 12.992188 213.355469 L 12.808594 213.355469 Z M 12.792969 213.371094 Z M 12.792969 213.371094 "/>
<path style=" stroke:none;fill-rule:nonzero;fill:rgb(0%,0%,0%);fill-opacity:1;" d="M 8.984375 174.222656 C 9.90625 174.246094 10.636719 175.191406 10.492188 176.082031 C 10.398438 176.96875 9.5625 177.476562 8.96875 178.03125 L 8.714844 178.296875 L 8.683594 178.3125 L 8.367188 178.621094 L 8.339844 178.636719 L 8.023438 178.953125 L 7.992188 178.96875 L 7.921875 179.042969 L 7.9375 179.050781 L 10.507812 179.050781 L 10.507812 179.574219 L 7.367188 179.574219 L 7.367188 179.097656 L 8.644531 177.820312 C 9.253906 177.285156 9.96875 176.597656 9.859375 175.722656 C 9.792969 175.214844 9.367188 174.746094 8.839844 174.707031 C 8.308594 174.628906 7.839844 175.046875 7.722656 175.558594 L 7.707031 175.582031 L 7.691406 175.636719 L 7.667969 175.722656 L 7.621094 175.898438 L 7.613281 175.9375 C 7.5 175.804688 7.382812 175.660156 7.292969 175.507812 C 7.453125 174.859375 7.976562 174.246094 8.667969 174.222656 Z M 8.984375 174.222656 Z M 8.984375 174.222656 "/>
<path style=" stroke:none;fill-rule:nonzero;fill:rgb(0%,0%,0%);fill-opacity:1;" d="M 13.039062 174.222656 C 13.792969 174.277344 14.292969 174.96875 14.429688 175.667969 C 14.5 175.984375 14.515625 176.285156 14.546875 176.605469 L 14.546875 177.414062 C 14.507812 178.238281 14.308594 179.328125 13.414062 179.660156 C 12.636719 179.96875 11.722656 179.484375 11.492188 178.691406 C 11.316406 178.269531 11.300781 177.84375 11.261719 177.414062 L 11.261719 176.605469 C 11.300781 175.777344 11.476562 174.683594 12.367188 174.320312 L 12.40625 174.300781 L 12.4375 174.292969 L 12.476562 174.277344 L 12.597656 174.246094 L 12.667969 174.230469 L 12.753906 174.230469 L 12.769531 174.222656 Z M 13.039062 174.222656 Z M 12.792969 174.707031 C 12.128906 174.785156 11.929688 175.589844 11.882812 176.128906 L 11.882812 176.34375 L 11.867188 176.359375 L 11.867188 177.460938 C 11.914062 178.03125 11.953125 178.769531 12.476562 179.152344 C 12.960938 179.484375 13.605469 179.113281 13.738281 178.597656 C 13.882812 178.214844 13.914062 177.84375 13.945312 177.460938 L 13.945312 176.359375 C 13.898438 175.777344 13.816406 174.96875 13.152344 174.738281 L 13.097656 174.722656 L 13.082031 174.707031 L 13.007812 174.707031 L 12.992188 174.691406 L 12.808594 174.691406 Z M 12.792969 174.707031 Z M 12.792969 174.707031 "/>
<path style=" stroke:none;fill-rule:nonzero;fill:rgb(0%,0%,0%);fill-opacity:1;" d="M 9.890625 135.726562 L 9.890625 139.070312 L 9.90625 139.085938 L 10.691406 139.085938 L 10.691406 139.5625 L 9.90625 139.5625 L 9.890625 139.570312 L 9.890625 140.910156 L 9.285156 140.910156 L 9.285156 139.570312 L 9.269531 139.5625 L 7.175781 139.5625 L 7.175781 139.070312 C 7.839844 137.957031 8.507812 136.839844 9.175781 135.726562 Z M 9.890625 135.726562 Z M 9.300781 136.027344 C 9.144531 136.855469 8.636719 137.5625 8.253906 138.28125 C 8.105469 138.546875 7.90625 138.832031 7.792969 139.085938 L 9.316406 139.085938 L 9.324219 139.070312 L 9.324219 136.027344 L 9.316406 136.011719 Z M 9.300781 136.027344 Z M 9.300781 136.027344 "/>
<path style=" stroke:none;fill-rule:nonzero;fill:rgb(0%,0%,0%);fill-opacity:1;" d="M 13.039062 135.5625 C 13.792969 135.617188 14.292969 136.308594 14.429688 137.003906 C 14.5 137.324219 14.515625 137.625 14.546875 137.941406 L 14.546875 138.75 C 14.507812 139.578125 14.308594 140.664062 13.414062 140.996094 C 12.636719 141.308594 11.722656 140.824219 11.492188 140.03125 C 11.316406 139.609375 11.300781 139.179688 11.261719 138.75 L 11.261719 137.941406 C 11.300781 137.117188 11.476562 136.019531 12.367188 135.65625 L 12.40625 135.640625 L 12.4375 135.632812 L 12.476562 135.617188 L 12.597656 135.585938 L 12.667969 135.570312 L 12.753906 135.570312 L 12.769531 135.5625 Z M 13.039062 135.5625 Z M 12.792969 136.046875 C 12.128906 136.125 11.929688 136.925781 11.882812 137.464844 L 11.882812 137.679688 L 11.867188 137.695312 L 11.867188 138.800781 C 11.914062 139.371094 11.953125 140.109375 12.476562 140.488281 C 12.960938 140.824219 13.605469 140.449219 13.738281 139.933594 C 13.882812 139.554688 13.914062 139.179688 13.945312 138.800781 L 13.945312 137.695312 C 13.898438 137.117188 13.816406 136.308594 13.152344 136.078125 L 13.097656 136.0625 L 13.082031 136.046875 L 13.007812 136.046875 L 12.992188 136.027344 L 12.808594 136.027344 Z M 12.792969 136.046875 Z M 12.792969 136.046875 "/>
<path style=" stroke:none;fill-rule:nonzero;fill:rgb(0%,0%,0%);fill-opacity:1;" d="M 9.585938 96.898438 C 9.792969 96.929688 10.03125 96.953125 10.230469 97.050781 L 10.230469 97.507812 C 9.683594 97.269531 8.96875 97.238281 8.539062 97.722656 C 8.160156 98.128906 7.984375 98.730469 7.96875 99.261719 C 8.429688 98.652344 9.46875 98.3125 10.03125 98.945312 C 10.597656 99.597656 10.691406 100.535156 10.4375 101.328125 C 10.160156 101.960938 9.515625 102.542969 8.800781 102.40625 C 7.832031 102.328125 7.398438 101.246094 7.347656 100.421875 C 7.167969 99.253906 7.445312 97.789062 8.554688 97.121094 L 8.570312 97.113281 L 8.738281 97.023438 L 8.785156 97.007812 L 8.808594 96.992188 L 9.054688 96.921875 L 9.128906 96.90625 L 9.214844 96.90625 L 9.230469 96.898438 Z M 9.585938 96.898438 Z M 8.808594 99.105469 C 8.121094 99.222656 7.898438 100.058594 7.984375 100.621094 C 8.023438 101.152344 8.230469 101.859375 8.839844 101.96875 C 9.492188 102.058594 9.914062 101.359375 9.929688 100.796875 C 9.960938 100.222656 9.929688 99.574219 9.429688 99.199219 L 9.316406 99.144531 L 9.230469 99.121094 L 9.160156 99.105469 L 9.144531 99.089844 L 8.824219 99.089844 Z M 8.808594 99.105469 Z M 8.808594 99.105469 "/>
<path style=" stroke:none;fill-rule:nonzero;fill:rgb(0%,0%,0%);fill-opacity:1;" d="M 13.039062 96.898438 C 13.792969 96.953125 14.292969 97.644531 14.429688 98.34375 C 14.5 98.660156 14.515625 98.960938 14.546875 99.28125 L 14.546875 100.089844 C 14.507812 100.914062 14.308594 102 13.414062 102.335938 C 12.636719 102.644531 11.722656 102.160156 11.492188 101.367188 C 11.316406 100.945312 11.300781 100.515625 11.261719 100.089844 L 11.261719 99.28125 C 11.300781 98.453125 11.476562 97.359375 12.367188 96.992188 L 12.40625 96.976562 L 12.4375 96.96875 L 12.476562 96.953125 L 12.597656 96.921875 L 12.667969 96.90625 L 12.753906 96.90625 L 12.769531 96.898438 Z M 13.039062 96.898438 Z M 12.792969 97.382812 C 12.128906 97.460938 11.929688 98.261719 11.882812 98.804688 L 11.882812 99.015625 L 11.867188 99.035156 L 11.867188 100.136719 C 11.914062 100.707031 11.953125 101.445312 12.476562 101.828125 C 12.960938 102.160156 13.605469 101.789062 13.738281 101.273438 C 13.882812 100.890625 13.914062 100.515625 13.945312 100.136719 L 13.945312 99.035156 C 13.898438 98.453125 13.816406 97.644531 13.152344 97.414062 L 13.097656 97.398438 L 13.082031 97.382812 L 13.007812 97.382812 L 12.992188 97.367188 L 12.808594 97.367188 Z M 12.792969 97.382812 Z M 12.792969 97.382812 "/>
<path style=" stroke:none;fill-rule:nonzero;fill:rgb(0%,0%,0%);fill-opacity:1;" d="M 9.085938 58.234375 C 9.929688 58.265625 10.722656 59.171875 10.390625 60.011719 C 10.246094 60.402344 9.851562 60.640625 9.523438 60.808594 C 10.332031 61.046875 10.824219 61.988281 10.460938 62.769531 C 10.078125 63.777344 8.636719 64.09375 7.839844 63.363281 C 7.121094 62.792969 7.09375 61.554688 7.898438 61.046875 C 8.015625 60.917969 8.238281 60.878906 8.339844 60.785156 C 7.652344 60.585938 7.183594 59.785156 7.507812 59.109375 C 7.769531 58.503906 8.445312 58.171875 9.085938 58.234375 Z M 9.085938 58.234375 Z M 8.785156 58.6875 C 8.199219 58.703125 7.785156 59.371094 7.984375 59.894531 C 8.214844 60.800781 9.730469 60.769531 9.90625 59.839844 C 10.0625 59.324219 9.652344 58.703125 9.085938 58.6875 L 9.070312 58.679688 L 8.800781 58.679688 Z M 8.785156 58.6875 Z M 8.800781 61.046875 C 8.113281 61.09375 7.769531 61.917969 7.953125 62.507812 C 8.070312 63.339844 9.261719 63.585938 9.730469 62.917969 C 10.183594 62.308594 9.960938 61.210938 9.144531 61.046875 L 9.070312 61.046875 L 9.054688 61.03125 L 8.808594 61.03125 Z M 8.800781 61.046875 Z M 8.800781 61.046875 "/>
<path style=" stroke:none;fill-rule:nonzero;fill:rgb(0%,0%,0%);fill-opacity:1;" d="M 13.039062 58.234375 C 13.792969 58.292969 14.292969 58.980469 14.429688 59.679688 C 14.5 59.996094 14.515625 60.300781 14.546875 60.617188 L 14.546875 61.425781 C 14.507812 62.25 14.308594 63.339844 13.414062 63.671875 C 12.636719 63.980469 11.722656 63.496094 11.492188 62.703125 C 11.316406 62.285156 11.300781 61.855469 11.261719 61.425781 L 11.261719 60.617188 C 11.300781 59.792969 11.476562 58.695312 12.367188 58.332031 L 12.40625 58.316406 L 12.4375 58.308594 L 12.476562 58.292969 L 12.597656 58.257812 L 12.667969 58.242188 L 12.753906 58.242188 L 12.769531 58.234375 Z M 13.039062 58.234375 Z M 12.792969 58.71875 C 12.128906 58.800781 11.929688 59.601562 11.882812 60.140625 L 11.882812 60.355469 L 11.867188 60.371094 L 11.867188 61.472656 C 11.914062 62.046875 11.953125 62.785156 12.476562 63.164062 C 12.960938 63.496094 13.605469 63.125 13.738281 62.609375 C 13.882812 62.226562 13.914062 61.855469 13.945312 61.472656 L 13.945312 60.371094 C 13.898438 59.792969 13.816406 58.980469 13.152344 58.75 L 13.097656 58.734375 L 13.082031 58.71875 L 13.007812 58.71875 L 12.992188 58.703125 L 12.808594 58.703125 Z M 12.792969 58.71875 Z M 12.792969 58.71875 "/>
<path style=" stroke:none;fill-rule:nonzero;fill:rgb(0%,0%,0%);fill-opacity:1;" d="M 5.347656 19.574219 L 5.347656 24.46875 L 5.355469 24.484375 L 6.332031 24.484375 L 6.332031 24.921875 L 3.753906 24.921875 L 3.753906 24.484375 L 4.730469 24.484375 L 4.746094 24.46875 L 4.746094 20.359375 C 4.414062 20.46875 4.0625 20.542969 3.714844 20.535156 L 3.714844 20.089844 C 4.238281 20.097656 4.808594 19.953125 5.207031 19.574219 Z M 5.347656 19.574219 Z M 5.347656 19.574219 "/>
<path style=" stroke:none;fill-rule:nonzero;fill:rgb(0%,0%,0%);fill-opacity:1;" d="M 9.070312 19.574219 C 9.824219 19.628906 10.324219 20.320312 10.460938 21.019531 C 10.53125 21.335938 10.546875 21.636719 10.578125 21.953125 L 10.578125 22.765625 C 10.539062 23.589844 10.34375 24.675781 9.445312 25.011719 C 8.667969 25.320312 7.753906 24.835938 7.523438 24.042969 C 7.347656 23.621094 7.332031 23.191406 7.292969 22.765625 L 7.292969 21.953125 C 7.332031 21.128906 7.507812 20.035156 8.398438 19.667969 L 8.4375 19.652344 L 8.46875 19.644531 L 8.507812 19.628906 L 8.628906 19.597656 L 8.699219 19.582031 L 8.785156 19.582031 L 8.800781 19.574219 Z M 9.070312 19.574219 Z M 8.824219 20.058594 C 8.160156 20.136719 7.960938 20.9375 7.914062 21.476562 L 7.914062 21.691406 L 7.898438 21.707031 L 7.898438 22.8125 C 7.945312 23.382812 7.984375 24.121094 8.507812 24.503906 C 8.992188 24.835938 9.636719 24.460938 9.769531 23.945312 C 9.914062 23.566406 9.945312 23.191406 9.976562 22.8125 L 9.976562 21.707031 C 9.929688 21.128906 9.851562 20.320312 9.183594 20.089844 L 9.128906 20.074219 L 9.113281 20.058594 L 9.039062 20.058594 L 9.023438 20.042969 L 8.839844 20.042969 Z M 8.824219 20.058594 Z M 8.824219 20.058594 "/>
<path style=" stroke:none;fill-rule:nonzero;fill:rgb(0%,0%,0%);fill-opacity:1;" d="M 13.039062 19.574219 C 13.792969 19.628906 14.292969 20.320312 14.429688 21.019531 C 14.5 21.335938 14.515625 21.636719 14.546875 21.953125 L 14.546875 22.765625 C 14.507812 23.589844 14.308594 24.675781 13.414062 25.011719 C 12.636719 25.320312 11.722656 24.835938 11.492188 24.042969 C 11.316406 23.621094 11.300781 23.191406 11.261719 22.765625 L 11.261719 21.953125 C 11.300781 21.128906 11.476562 20.035156 12.367188 19.667969 L 12.40625 19.652344 L 12.4375 19.644531 L 12.476562 19.628906 L 12.597656 19.597656 L 12.667969 19.582031 L 12.753906 19.582031 L 12.769531 19.574219 Z M 13.039062 19.574219 Z M 12.792969 20.058594 C 12.128906 20.136719 11.929688 20.9375 11.882812 21.476562 L 11.882812 21.691406 L 11.867188 21.707031 L 11.867188 22.8125 C 11.914062 23.382812 11.953125 24.121094 12.476562 24.503906 C 12.960938 24.835938 13.605469 24.460938 13.738281 23.945312 C 13.882812 23.566406 13.914062 23.191406 13.945312 22.8125 L 13.945312 21.707031 C 13.898438 21.128906 13.816406 20.320312 13.152344 20.089844 L 13.097656 20.074219 L 13.082031 20.058594 L 13.007812 20.058594 L 12.992188 20.042969 L 12.808594 20.042969 Z M 12.792969 20.058594 Z M 12.792969 20.058594 "/>
<path style="fill:none;stroke-width:0.02;stroke-linecap:butt;stroke-linejoin:miter;stroke:rgb(0%,0%,0%);stroke-opacity:1;stroke-miterlimit:10;" d="M 9.751274 1.792351 L 9.646267 1.792351 " transform="matrix(28.346457,0,0,-28.346457,1,227.771654)"/>
<path style="fill:none;stroke-width:0.02;stroke-linecap:butt;stroke-linejoin:miter;stroke:rgb(0%,0%,0%);stroke-opacity:1;stroke-miterlimit:10;" d="M 9.751274 3.156196 L 9.646267 3.156196 " transform="matrix(28.346457,0,0,-28.346457,1,227.771654)"/>
<path style="fill:none;stroke-width:0.02;stroke-linecap:butt;stroke-linejoin:miter;stroke:rgb(0%,0%,0%);stroke-opacity:1;stroke-miterlimit:10;" d="M 9.751274 4.520178 L 9.646267 4.520178 " transform="matrix(28.346457,0,0,-28.346457,1,227.771654)"/>
<path style="fill:none;stroke-width:0.02;stroke-linecap:butt;stroke-linejoin:miter;stroke:rgb(0%,0%,0%);stroke-opacity:1;stroke-miterlimit:10;" d="M 9.751274 5.88416 L 9.646267 5.88416 " transform="matrix(28.346457,0,0,-28.346457,1,227.771654)"/>
<path style="fill:none;stroke-width:0.02;stroke-linecap:butt;stroke-linejoin:miter;stroke:rgb(0%,0%,0%);stroke-opacity:1;stroke-miterlimit:10;" d="M 9.751274 7.248005 L 9.646267 7.248005 " transform="matrix(28.346457,0,0,-28.346457,1,227.771654)"/>
<path style="fill:none;stroke-width:0.02;stroke-linecap:round;stroke-linejoin:miter;stroke:rgb(0%,0%,0%);stroke-opacity:1;stroke-miterlimit:10;" d="M 9.751274 0.428369 L 9.751274 7.929996 " transform="matrix(28.346457,0,0,-28.346457,1,227.771654)"/>
<path style="fill:none;stroke-width:0.02;stroke-linecap:butt;stroke-linejoin:miter;stroke:rgb(0%,0%,0%);stroke-opacity:1;stroke-miterlimit:10;" d="M 1.80082 0.428369 L 1.80082 0.533376 " transform="matrix(28.346457,0,0,-28.346457,1,227.771654)"/>
<path style="fill:none;stroke-width:0.02;stroke-linecap:butt;stroke-linejoin:miter;stroke:rgb(0%,0%,0%);stroke-opacity:1;stroke-miterlimit:10;" d="M 2.936599 0.428369 L 2.936599 0.533376 " transform="matrix(28.346457,0,0,-28.346457,1,227.771654)"/>
<path style="fill:none;stroke-width:0.02;stroke-linecap:butt;stroke-linejoin:miter;stroke:rgb(0%,0%,0%);stroke-opacity:1;stroke-miterlimit:10;" d="M 4.072378 0.428369 L 4.072378 0.533376 " transform="matrix(28.346457,0,0,-28.346457,1,227.771654)"/>
<path style="fill:none;stroke-width:0.02;stroke-linecap:butt;stroke-linejoin:miter;stroke:rgb(0%,0%,0%);stroke-opacity:1;stroke-miterlimit:10;" d="M 5.208158 0.428369 L 5.208158 0.533376 " transform="matrix(28.346457,0,0,-28.346457,1,227.771654)"/>
<path style="fill:none;stroke-width:0.02;stroke-linecap:butt;stroke-linejoin:miter;stroke:rgb(0%,0%,0%);stroke-opacity:1;stroke-miterlimit:10;" d="M 6.343937 0.428369 L 6.343937 0.533376 " transform="matrix(28.346457,0,0,-28.346457,1,227.771654)"/>
<path style="fill:none;stroke-width:0.02;stroke-linecap:butt;stroke-linejoin:miter;stroke:rgb(0%,0%,0%);stroke-opacity:1;stroke-miterlimit:10;" d="M 7.479716 0.428369 L 7.479716 0.533376 " transform="matrix(28.346457,0,0,-28.346457,1,227.771654)"/>
<path style="fill:none;stroke-width:0.02;stroke-linecap:butt;stroke-linejoin:miter;stroke:rgb(0%,0%,0%);stroke-opacity:1;stroke-miterlimit:10;" d="M 8.615495 0.428369 L 8.615495 0.533376 " transform="matrix(28.346457,0,0,-28.346457,1,227.771654)"/>
<path style="fill:none;stroke-width:0.02;stroke-linecap:round;stroke-linejoin:miter;stroke:rgb(0%,0%,0%);stroke-opacity:1;stroke-miterlimit:10;" d="M 0.665041 0.428369 L 9.751274 0.428369 " transform="matrix(28.346457,0,0,-28.346457,1,227.771654)"/>
<path style=" stroke:none;fill-rule:nonzero;fill:rgb(0%,0%,0%);fill-opacity:1;" d="M 16.902344 220.445312 C 17.65625 220.5 18.15625 221.191406 18.289062 221.890625 C 18.363281 222.207031 18.378906 222.507812 18.410156 222.828125 L 18.410156 223.636719 C 18.371094 224.460938 18.171875 225.550781 17.273438 225.882812 C 16.496094 226.191406 15.585938 225.707031 15.355469 224.914062 C 15.179688 224.492188 15.164062 224.066406 15.125 223.636719 L 15.125 222.828125 C 15.164062 222 15.339844 220.90625 16.226562 220.542969 L 16.265625 220.523438 L 16.296875 220.515625 L 16.339844 220.5 L 16.457031 220.46875 L 16.527344 220.453125 L 16.617188 220.453125 L 16.632812 220.445312 Z M 16.902344 220.445312 Z M 16.65625 220.929688 C 15.988281 221.007812 15.789062 221.8125 15.742188 222.351562 L 15.742188 222.566406 L 15.726562 222.582031 L 15.726562 223.683594 C 15.773438 224.253906 15.8125 224.992188 16.339844 225.375 C 16.824219 225.707031 17.464844 225.335938 17.601562 224.820312 C 17.742188 224.4375 17.773438 224.066406 17.804688 223.683594 L 17.804688 222.582031 C 17.757812 222 17.679688 221.191406 17.011719 220.960938 L 16.957031 220.945312 L 16.941406 220.929688 L 16.871094 220.929688 L 16.855469 220.914062 L 16.671875 220.914062 Z M 16.65625 220.929688 Z M 16.65625 220.929688 "/>
<path style=" stroke:none;fill-rule:nonzero;fill:rgb(0%,0%,0%);fill-opacity:1;" d="M 20.179688 225.160156 L 20.179688 225.796875 L 19.535156 225.796875 L 19.535156 225.160156 Z M 20.179688 225.160156 Z M 20.179688 225.160156 "/>
<path style=" stroke:none;fill-rule:nonzero;fill:rgb(0%,0%,0%);fill-opacity:1;" d="M 24.242188 220.613281 L 24.242188 221.105469 L 22.179688 221.105469 L 22.164062 221.113281 L 22.164062 222.738281 C 22.355469 222.613281 22.625 222.445312 22.878906 222.4375 C 23.773438 222.34375 24.464844 223.222656 24.503906 224.042969 C 24.632812 225.082031 23.65625 226.113281 22.609375 225.953125 C 22.085938 225.9375 21.578125 225.628906 21.273438 225.199219 C 21.363281 225.082031 21.433594 224.875 21.535156 224.804688 C 21.910156 225.535156 23.117188 225.828125 23.601562 225.058594 C 23.910156 224.476562 23.902344 223.738281 23.546875 223.183594 C 23.132812 222.652344 22.316406 222.976562 22.125 223.542969 L 21.609375 223.542969 L 21.609375 220.613281 Z M 24.242188 220.613281 Z M 24.242188 220.613281 "/>
<path style=" stroke:none;fill-rule:nonzero;fill:rgb(0%,0%,0%);fill-opacity:1;" d="M 49.34375 220.445312 L 49.34375 225.34375 L 49.351562 225.359375 L 50.328125 225.359375 L 50.328125 225.796875 L 47.746094 225.796875 L 47.746094 225.359375 L 48.722656 225.359375 L 48.738281 225.34375 L 48.738281 221.230469 C 48.40625 221.34375 48.058594 221.414062 47.707031 221.40625 L 47.707031 220.960938 C 48.230469 220.96875 48.804688 220.828125 49.199219 220.445312 Z M 49.34375 220.445312 Z M 49.34375 220.445312 "/>
<path style=" stroke:none;fill-rule:nonzero;fill:rgb(0%,0%,0%);fill-opacity:1;" d="M 52.375 225.160156 L 52.375 225.796875 L 51.730469 225.796875 L 51.730469 225.160156 Z M 52.375 225.160156 Z M 52.375 225.160156 "/>
<path style=" stroke:none;fill-rule:nonzero;fill:rgb(0%,0%,0%);fill-opacity:1;" d="M 55.265625 220.445312 C 56.019531 220.5 56.519531 221.191406 56.652344 221.890625 C 56.722656 222.207031 56.742188 222.507812 56.773438 222.828125 L 56.773438 223.636719 C 56.734375 224.460938 56.535156 225.550781 55.636719 225.882812 C 54.859375 226.191406 53.945312 225.707031 53.714844 224.914062 C 53.542969 224.492188 53.527344 224.066406 53.484375 223.636719 L 53.484375 222.828125 C 53.527344 222 53.699219 220.90625 54.589844 220.542969 L 54.628906 220.523438 L 54.660156 220.515625 L 54.699219 220.5 L 54.820312 220.46875 L 54.890625 220.453125 L 54.976562 220.453125 L 54.996094 220.445312 Z M 55.265625 220.445312 Z M 55.019531 220.929688 C 54.351562 221.007812 54.152344 221.8125 54.105469 222.351562 L 54.105469 222.566406 L 54.089844 222.582031 L 54.089844 223.683594 C 54.136719 224.253906 54.175781 224.992188 54.699219 225.375 C 55.183594 225.707031 55.828125 225.335938 55.960938 224.820312 C 56.105469 224.4375 56.136719 224.066406 56.167969 223.683594 L 56.167969 222.582031 C 56.121094 222 56.042969 221.191406 55.375 220.960938 L 55.320312 220.945312 L 55.304688 220.929688 L 55.230469 220.929688 L 55.214844 220.914062 L 55.035156 220.914062 Z M 55.019531 220.929688 Z M 55.019531 220.929688 "/>
<path style=" stroke:none;fill-rule:nonzero;fill:rgb(0%,0%,0%);fill-opacity:1;" d="M 81.539062 220.445312 L 81.539062 225.34375 L 81.546875 225.359375 L 82.523438 225.359375 L 82.523438 225.796875 L 79.941406 225.796875 L 79.941406 225.359375 L 80.917969 225.359375 L 80.933594 225.34375 L 80.933594 221.230469 C 80.601562 221.34375 80.253906 221.414062 79.902344 221.40625 L 79.902344 220.960938 C 80.425781 220.96875 81 220.828125 81.394531 220.445312 Z M 81.539062 220.445312 Z M 81.539062 220.445312 "/>
<path style=" stroke:none;fill-rule:nonzero;fill:rgb(0%,0%,0%);fill-opacity:1;" d="M 84.570312 225.160156 L 84.570312 225.796875 L 83.925781 225.796875 L 83.925781 225.160156 Z M 84.570312 225.160156 Z M 84.570312 225.160156 "/>
<path style=" stroke:none;fill-rule:nonzero;fill:rgb(0%,0%,0%);fill-opacity:1;" d="M 88.632812 220.613281 L 88.632812 221.105469 L 86.570312 221.105469 L 86.554688 221.113281 L 86.554688 222.738281 C 86.746094 222.613281 87.015625 222.445312 87.269531 222.4375 C 88.164062 222.34375 88.855469 223.222656 88.894531 224.042969 C 89.023438 225.082031 88.046875 226.113281 87 225.953125 C 86.476562 225.9375 85.96875 225.628906 85.664062 225.199219 C 85.753906 225.082031 85.824219 224.875 85.925781 224.804688 C 86.300781 225.535156 87.507812 225.828125 87.992188 225.058594 C 88.300781 224.476562 88.292969 223.738281 87.9375 223.183594 C 87.523438 222.652344 86.707031 222.976562 86.515625 223.542969 L 86 223.542969 L 86 220.613281 Z M 88.632812 220.613281 Z M 88.632812 220.613281 "/>
<path style=" stroke:none;fill-rule:nonzero;fill:rgb(0%,0%,0%);fill-opacity:1;" d="M 113.398438 220.445312 C 114.320312 220.46875 115.050781 221.414062 114.910156 222.304688 C 114.8125 223.191406 113.980469 223.699219 113.382812 224.253906 L 113.128906 224.515625 L 113.097656 224.535156 L 112.78125 224.84375 L 112.757812 224.859375 L 112.441406 225.175781 L 112.40625 225.191406 L 112.335938 225.261719 L 112.351562 225.273438 L 114.925781 225.273438 L 114.925781 225.796875 L 111.78125 225.796875 L 111.78125 225.320312 L 113.058594 224.042969 C 113.671875 223.507812 114.382812 222.820312 114.273438 221.945312 C 114.210938 221.4375 113.78125 220.96875 113.257812 220.929688 C 112.726562 220.851562 112.257812 221.269531 112.136719 221.777344 L 112.121094 221.804688 L 112.105469 221.859375 L 112.082031 221.945312 L 112.035156 222.121094 L 112.027344 222.160156 C 111.917969 222.023438 111.796875 221.882812 111.710938 221.730469 C 111.867188 221.082031 112.390625 220.46875 113.082031 220.445312 Z M 113.398438 220.445312 Z M 113.398438 220.445312 "/>
<path style=" stroke:none;fill-rule:nonzero;fill:rgb(0%,0%,0%);fill-opacity:1;" d="M 116.765625 225.160156 L 116.765625 225.796875 L 116.121094 225.796875 L 116.121094 225.160156 Z M 116.765625 225.160156 Z M 116.765625 225.160156 "/>
<path style=" stroke:none;fill-rule:nonzero;fill:rgb(0%,0%,0%);fill-opacity:1;" d="M 119.65625 220.445312 C 120.410156 220.5 120.910156 221.191406 121.042969 221.890625 C 121.113281 222.207031 121.132812 222.507812 121.164062 222.828125 L 121.164062 223.636719 C 121.121094 224.460938 120.925781 225.550781 120.027344 225.882812 C 119.25 226.191406 118.335938 225.707031 118.105469 224.914062 C 117.933594 224.492188 117.917969 224.066406 117.875 223.636719 L 117.875 222.828125 C 117.917969 222 118.089844 220.90625 118.980469 220.542969 L 119.019531 220.523438 L 119.050781 220.515625 L 119.089844 220.5 L 119.210938 220.46875 L 119.28125 220.453125 L 119.367188 220.453125 L 119.386719 220.445312 Z M 119.65625 220.445312 Z M 119.410156 220.929688 C 118.742188 221.007812 118.542969 221.8125 118.496094 222.351562 L 118.496094 222.566406 L 118.480469 222.582031 L 118.480469 223.683594 C 118.527344 224.253906 118.566406 224.992188 119.089844 225.375 C 119.574219 225.707031 120.21875 225.335938 120.351562 224.820312 C 120.496094 224.4375 120.527344 224.066406 120.558594 223.683594 L 120.558594 222.582031 C 120.511719 222 120.433594 221.191406 119.765625 220.960938 L 119.710938 220.945312 L 119.695312 220.929688 L 119.621094 220.929688 L 119.605469 220.914062 L 119.425781 220.914062 Z M 119.410156 220.929688 Z M 119.410156 220.929688 "/>
<path style=" stroke:none;fill-rule:nonzero;fill:rgb(0%,0%,0%);fill-opacity:1;" d="M 145.59375 220.445312 C 146.515625 220.46875 147.246094 221.414062 147.105469 222.304688 C 147.007812 223.191406 146.175781 223.699219 145.578125 224.253906 L 145.324219 224.515625 L 145.292969 224.535156 L 144.976562 224.84375 L 144.953125 224.859375 L 144.636719 225.175781 L 144.601562 225.191406 L 144.53125 225.261719 L 144.546875 225.273438 L 147.121094 225.273438 L 147.121094 225.796875 L 143.976562 225.796875 L 143.976562 225.320312 L 145.253906 224.042969 C 145.867188 223.507812 146.578125 222.820312 146.46875 221.945312 C 146.40625 221.4375 145.976562 220.96875 145.453125 220.929688 C 144.921875 220.851562 144.453125 221.269531 144.332031 221.777344 L 144.316406 221.804688 L 144.300781 221.859375 L 144.277344 221.945312 L 144.230469 222.121094 L 144.222656 222.160156 C 144.113281 222.023438 143.992188 221.882812 143.90625 221.730469 C 144.0625 221.082031 144.585938 220.46875 145.277344 220.445312 Z M 145.59375 220.445312 Z M 145.59375 220.445312 "/>
<path style=" stroke:none;fill-rule:nonzero;fill:rgb(0%,0%,0%);fill-opacity:1;" d="M 148.960938 225.160156 L 148.960938 225.796875 L 148.316406 225.796875 L 148.316406 225.160156 Z M 148.960938 225.160156 Z M 148.960938 225.160156 "/>
<path style=" stroke:none;fill-rule:nonzero;fill:rgb(0%,0%,0%);fill-opacity:1;" d="M 153.023438 220.613281 L 153.023438 221.105469 L 150.960938 221.105469 L 150.945312 221.113281 L 150.945312 222.738281 C 151.136719 222.613281 151.40625 222.445312 151.660156 222.4375 C 152.554688 222.34375 153.246094 223.222656 153.285156 224.042969 C 153.414062 225.082031 152.4375 226.113281 151.390625 225.953125 C 150.867188 225.9375 150.359375 225.628906 150.054688 225.199219 C 150.144531 225.082031 150.214844 224.875 150.316406 224.804688 C 150.691406 225.535156 151.898438 225.828125 152.382812 225.058594 C 152.691406 224.476562 152.683594 223.738281 152.324219 223.183594 C 151.914062 222.652344 151.097656 222.976562 150.90625 223.542969 L 150.390625 223.542969 L 150.390625 220.613281 Z M 153.023438 220.613281 Z M 153.023438 220.613281 "/>
<path style=" stroke:none;fill-rule:nonzero;fill:rgb(0%,0%,0%);fill-opacity:1;" d="M 177.894531 220.445312 C 178.59375 220.476562 179.324219 221.121094 179.15625 221.859375 C 179.078125 222.359375 178.726562 222.769531 178.289062 222.992188 C 178.996094 223.214844 179.542969 223.960938 179.355469 224.699219 C 179.164062 225.660156 178.0625 226.191406 177.171875 225.898438 C 176.742188 225.773438 176.304688 225.5 176.101562 225.105469 C 176.148438 224.984375 176.132812 224.78125 176.1875 224.699219 C 176.609375 225.320312 177.496094 225.738281 178.195312 225.390625 C 178.957031 224.90625 178.839844 223.492188 177.917969 223.253906 L 177.847656 223.253906 L 177.832031 223.238281 L 177.09375 223.238281 L 177.09375 222.761719 C 177.542969 222.753906 178.109375 222.699219 178.363281 222.230469 C 178.632812 221.828125 178.609375 221.160156 178.09375 220.960938 C 177.480469 220.722656 176.726562 221.113281 176.496094 221.730469 C 176.402344 221.597656 176.304688 221.460938 176.210938 221.320312 C 176.535156 220.730469 177.226562 220.382812 177.894531 220.445312 Z M 177.894531 220.445312 Z M 177.894531 220.445312 "/>
<path style=" stroke:none;fill-rule:nonzero;fill:rgb(0%,0%,0%);fill-opacity:1;" d="M 181.15625 225.160156 L 181.15625 225.796875 L 180.511719 225.796875 L 180.511719 225.160156 Z M 181.15625 225.160156 Z M 181.15625 225.160156 "/>
<path style=" stroke:none;fill-rule:nonzero;fill:rgb(0%,0%,0%);fill-opacity:1;" d="M 184.046875 220.445312 C 184.800781 220.5 185.300781 221.191406 185.433594 221.890625 C 185.503906 222.207031 185.519531 222.507812 185.554688 222.828125 L 185.554688 223.636719 C 185.511719 224.460938 185.316406 225.550781 184.417969 225.882812 C 183.640625 226.191406 182.726562 225.707031 182.496094 224.914062 C 182.324219 224.492188 182.308594 224.066406 182.265625 223.636719 L 182.265625 222.828125 C 182.308594 222 182.480469 220.90625 183.371094 220.542969 L 183.410156 220.523438 L 183.441406 220.515625 L 183.480469 220.5 L 183.601562 220.46875 L 183.671875 220.453125 L 183.757812 220.453125 L 183.773438 220.445312 Z M 184.046875 220.445312 Z M 183.800781 220.929688 C 183.132812 221.007812 182.933594 221.8125 182.886719 222.351562 L 182.886719 222.566406 L 182.871094 222.582031 L 182.871094 223.683594 C 182.917969 224.253906 182.957031 224.992188 183.480469 225.375 C 183.964844 225.707031 184.609375 225.335938 184.742188 224.820312 C 184.886719 224.4375 184.917969 224.066406 184.949219 223.683594 L 184.949219 222.582031 C 184.902344 222 184.824219 221.191406 184.15625 220.960938 L 184.101562 220.945312 L 184.085938 220.929688 L 184.011719 220.929688 L 183.996094 220.914062 L 183.816406 220.914062 Z M 183.800781 220.929688 Z M 183.800781 220.929688 "/>
<path style=" stroke:none;fill-rule:nonzero;fill:rgb(0%,0%,0%);fill-opacity:1;" d="M 210.089844 220.445312 C 210.789062 220.476562 211.519531 221.121094 211.351562 221.859375 C 211.273438 222.359375 210.921875 222.769531 210.484375 222.992188 C 211.191406 223.214844 211.738281 223.960938 211.550781 224.699219 C 211.359375 225.660156 210.257812 226.191406 209.367188 225.898438 C 208.9375 225.773438 208.5 225.5 208.296875 225.105469 C 208.34375 224.984375 208.328125 224.78125 208.382812 224.699219 C 208.804688 225.320312 209.691406 225.738281 210.390625 225.390625 C 211.152344 224.90625 211.035156 223.492188 210.113281 223.253906 L 210.042969 223.253906 L 210.027344 223.238281 L 209.289062 223.238281 L 209.289062 222.761719 C 209.738281 222.753906 210.304688 222.699219 210.558594 222.230469 C 210.828125 221.828125 210.804688 221.160156 210.289062 220.960938 C 209.675781 220.722656 208.921875 221.113281 208.691406 221.730469 C 208.597656 221.597656 208.5 221.460938 208.40625 221.320312 C 208.730469 220.730469 209.421875 220.382812 210.089844 220.445312 Z M 210.089844 220.445312 Z M 210.089844 220.445312 "/>
<path style=" stroke:none;fill-rule:nonzero;fill:rgb(0%,0%,0%);fill-opacity:1;" d="M 213.351562 225.160156 L 213.351562 225.796875 L 212.707031 225.796875 L 212.707031 225.160156 Z M 213.351562 225.160156 Z M 213.351562 225.160156 "/>
<path style=" stroke:none;fill-rule:nonzero;fill:rgb(0%,0%,0%);fill-opacity:1;" d="M 217.414062 220.613281 L 217.414062 221.105469 L 215.351562 221.105469 L 215.335938 221.113281 L 215.335938 222.738281 C 215.527344 222.613281 215.796875 222.445312 216.050781 222.4375 C 216.945312 222.34375 217.636719 223.222656 217.675781 224.042969 C 217.804688 225.082031 216.828125 226.113281 215.78125 225.953125 C 215.257812 225.9375 214.75 225.628906 214.445312 225.199219 C 214.535156 225.082031 214.605469 224.875 214.707031 224.804688 C 215.082031 225.535156 216.289062 225.828125 216.773438 225.058594 C 217.082031 224.476562 217.074219 223.738281 216.714844 223.183594 C 216.304688 222.652344 215.488281 222.976562 215.296875 223.542969 L 214.78125 223.542969 L 214.78125 220.613281 Z M 217.414062 220.613281 Z M 217.414062 220.613281 "/>
<path style=" stroke:none;fill-rule:nonzero;fill:rgb(0%,0%,0%);fill-opacity:1;" d="M 243.085938 220.613281 L 243.085938 223.953125 L 243.101562 223.96875 L 243.886719 223.96875 L 243.886719 224.445312 L 243.101562 224.445312 L 243.085938 224.453125 L 243.085938 225.796875 L 242.484375 225.796875 L 242.484375 224.453125 L 242.46875 224.445312 L 240.371094 224.445312 L 240.371094 223.953125 C 241.039062 222.84375 241.707031 221.722656 242.371094 220.613281 Z M 243.085938 220.613281 Z M 242.5 220.914062 C 242.339844 221.738281 241.832031 222.445312 241.449219 223.167969 C 241.300781 223.429688 241.101562 223.714844 240.992188 223.96875 L 242.515625 223.96875 L 242.523438 223.953125 L 242.523438 220.914062 L 242.515625 220.898438 Z M 242.5 220.914062 Z M 242.5 220.914062 "/>
<path style=" stroke:none;fill-rule:nonzero;fill:rgb(0%,0%,0%);fill-opacity:1;" d="M 245.546875 225.160156 L 245.546875 225.796875 L 244.902344 225.796875 L 244.902344 225.160156 Z M 245.546875 225.160156 Z M 245.546875 225.160156 "/>
<path style=" stroke:none;fill-rule:nonzero;fill:rgb(0%,0%,0%);fill-opacity:1;" d="M 248.4375 220.445312 C 249.191406 220.5 249.691406 221.191406 249.824219 221.890625 C 249.894531 222.207031 249.910156 222.507812 249.945312 222.828125 L 249.945312 223.636719 C 249.902344 224.460938 249.707031 225.550781 248.808594 225.882812 C 248.03125 226.191406 247.117188 225.707031 246.886719 224.914062 C 246.714844 224.492188 246.699219 224.066406 246.65625 223.636719 L 246.65625 222.828125 C 246.699219 222 246.871094 220.90625 247.761719 220.542969 L 247.800781 220.523438 L 247.832031 220.515625 L 247.871094 220.5 L 247.992188 220.46875 L 248.0625 220.453125 L 248.148438 220.453125 L 248.164062 220.445312 Z M 248.4375 220.445312 Z M 248.191406 220.929688 C 247.523438 221.007812 247.324219 221.8125 247.277344 222.351562 L 247.277344 222.566406 L 247.261719 222.582031 L 247.261719 223.683594 C 247.308594 224.253906 247.347656 224.992188 247.871094 225.375 C 248.355469 225.707031 249 225.335938 249.132812 224.820312 C 249.277344 224.4375 249.308594 224.066406 249.339844 223.683594 L 249.339844 222.582031 C 249.292969 222 249.214844 221.191406 248.546875 220.960938 L 248.492188 220.945312 L 248.476562 220.929688 L 248.402344 220.929688 L 248.386719 220.914062 L 248.207031 220.914062 Z M 248.191406 220.929688 Z M 248.191406 220.929688 "/>
<path style=" stroke:none;fill-rule:nonzero;fill:rgb(0%,0%,0%);fill-opacity:1;" d="M 275.28125 220.613281 L 275.28125 223.953125 L 275.296875 223.96875 L 276.082031 223.96875 L 276.082031 224.445312 L 275.296875 224.445312 L 275.28125 224.453125 L 275.28125 225.796875 L 274.679688 225.796875 L 274.679688 224.453125 L 274.664062 224.445312 L 272.566406 224.445312 L 272.566406 223.953125 C 273.234375 222.84375 273.902344 221.722656 274.566406 220.613281 Z M 275.28125 220.613281 Z M 274.695312 220.914062 C 274.535156 221.738281 274.027344 222.445312 273.644531 223.167969 C 273.496094 223.429688 273.296875 223.714844 273.1875 223.96875 L 274.710938 223.96875 L 274.71875 223.953125 L 274.71875 220.914062 L 274.710938 220.898438 Z M 274.695312 220.914062 Z M 274.695312 220.914062 "/>
<path style=" stroke:none;fill-rule:nonzero;fill:rgb(0%,0%,0%);fill-opacity:1;" d="M 277.742188 225.160156 L 277.742188 225.796875 L 277.097656 225.796875 L 277.097656 225.160156 Z M 277.742188 225.160156 Z M 277.742188 225.160156 "/>
<path style=" stroke:none;fill-rule:nonzero;fill:rgb(0%,0%,0%);fill-opacity:1;" d="M 281.804688 220.613281 L 281.804688 221.105469 L 279.742188 221.105469 L 279.726562 221.113281 L 279.726562 222.738281 C 279.917969 222.613281 280.1875 222.445312 280.441406 222.4375 C 281.335938 222.34375 282.027344 223.222656 282.066406 224.042969 C 282.195312 225.082031 281.21875 226.113281 280.171875 225.953125 C 279.648438 225.9375 279.140625 225.628906 278.835938 225.199219 C 278.925781 225.082031 278.996094 224.875 279.097656 224.804688 C 279.472656 225.535156 280.679688 225.828125 281.164062 225.058594 C 281.472656 224.476562 281.464844 223.738281 281.105469 223.183594 C 280.695312 222.652344 279.878906 222.976562 279.6875 223.542969 L 279.171875 223.542969 L 279.171875 220.613281 Z M 281.804688 220.613281 Z M 281.804688 220.613281 "/>
<path style="fill:none;stroke-width:0.02;stroke-linecap:butt;stroke-linejoin:miter;stroke:rgb(0%,0%,0%);stroke-opacity:1;stroke-miterlimit:10;" d="M 1.80082 7.929996 L 1.80082 7.824989 " transform="matrix(28.346457,0,0,-28.346457,1,227.771654)"/>
<path style="fill:none;stroke-width:0.02;stroke-linecap:butt;stroke-linejoin:miter;stroke:rgb(0%,0%,0%);stroke-opacity:1;stroke-miterlimit:10;" d="M 2.936599 7.929996 L 2.936599 7.824989 " transform="matrix(28.346457,0,0,-28.346457,1,227.771654)"/>
<path style="fill:none;stroke-width:0.02;stroke-linecap:butt;stroke-linejoin:miter;stroke:rgb(0%,0%,0%);stroke-opacity:1;stroke-miterlimit:10;" d="M 4.072378 7.929996 L 4.072378 7.824989 " transform="matrix(28.346457,0,0,-28.346457,1,227.771654)"/>
<path style="fill:none;stroke-width:0.02;stroke-linecap:butt;stroke-linejoin:miter;stroke:rgb(0%,0%,0%);stroke-opacity:1;stroke-miterlimit:10;" d="M 5.208158 7.929996 L 5.208158 7.824989 " transform="matrix(28.346457,0,0,-28.346457,1,227.771654)"/>
<path style="fill:none;stroke-width:0.02;stroke-linecap:butt;stroke-linejoin:miter;stroke:rgb(0%,0%,0%);stroke-opacity:1;stroke-miterlimit:10;" d="M 6.343937 7.929996 L 6.343937 7.824989 " transform="matrix(28.346457,0,0,-28.346457,1,227.771654)"/>
<path style="fill:none;stroke-width:0.02;stroke-linecap:butt;stroke-linejoin:miter;stroke:rgb(0%,0%,0%);stroke-opacity:1;stroke-miterlimit:10;" d="M 7.479716 7.929996 L 7.479716 7.824989 " transform="matrix(28.346457,0,0,-28.346457,1,227.771654)"/>
<path style="fill:none;stroke-width:0.02;stroke-linecap:butt;stroke-linejoin:miter;stroke:rgb(0%,0%,0%);stroke-opacity:1;stroke-miterlimit:10;" d="M 8.615495 7.929996 L 8.615495 7.824989 " transform="matrix(28.346457,0,0,-28.346457,1,227.771654)"/>
<path style="fill:none;stroke-width:0.02;stroke-linecap:round;stroke-linejoin:miter;stroke:rgb(0%,0%,0%);stroke-opacity:1;stroke-miterlimit:10;" d="M 0.665041 7.929996 L 9.751274 7.929996 " transform="matrix(28.346457,0,0,-28.346457,1,227.771654)"/>
</g>
</svg>
