<?xml version="1.0" encoding="UTF-8"?>
<svg xmlns="http://www.w3.org/2000/svg" xmlns:xlink="http://www.w3.org/1999/xlink" width="285.464567pt" height="228.771654pt" viewBox="0 0 285.464567 228.771654" version="1.1">
<g id="surface1">
<path style="fill-rule:nonzero;fill:rgb(69.019608%,87.843137%,90.196078%);fill-opacity:1;stroke-width:0.02;stroke-linecap:butt;stroke-linejoin:miter;stroke:rgb(100%,100%,100%);stroke-opacity:1;stroke-miterlimit:10;" d="M 0.901926 0.428369 L 1.980792 0.428369 L 1.980792 0.798924 L 0.901926 0.798924 Z M 0.901926 0.428369 " transform="matrix(28.346457,0,0,-28.346457,1,227.771654)"/>
<path style="fill-rule:nonzero;fill:rgb(69.019608%,87.843137%,90.196078%);fill-opacity:1;stroke-width:0.02;stroke-linecap:butt;stroke-linejoin:miter;stroke:rgb(100%,100%,100%);stroke-opacity:1;stroke-miterlimit:10;" d="M 1.980792 0.428369 L 3.05952 0.428369 L 3.05952 1.16934 L 1.980792 1.16934 Z M 1.980792 0.428369 " transform="matrix(28.346457,0,0,-28.346457,1,227.771654)"/>
<path style="fill-rule:nonzero;fill:rgb(69.019608%,87.843137%,90.196078%);fill-opacity:1;stroke-width:0.02;stroke-linecap:butt;stroke-linejoin:miter;stroke:rgb(100%,100%,100%);stroke-opacity:1;stroke-miterlimit:10;" d="M 3.05952 0.428369 L 4.138387 0.428369 L 4.138387 5.244888 L 3.05952 5.244888 Z M 3.05952 0.428369 " transform="matrix(28.346457,0,0,-28.346457,1,227.771654)"/>
<path style="fill-rule:nonzero;fill:rgb(69.019608%,87.843137%,90.196078%);fill-opacity:1;stroke-width:0.02;stroke-linecap:butt;stroke-linejoin:miter;stroke:rgb(100%,100%,100%);stroke-opacity:1;stroke-miterlimit:10;" d="M 4.138387 0.428369 L 5.217253 0.428369 L 5.217253 2.65142 L 4.138387 2.65142 Z M 4.138387 0.428369 " transform="matrix(28.346457,0,0,-28.346457,1,227.771654)"/>
<path style="fill-rule:nonzero;fill:rgb(69.019608%,87.843137%,90.196078%);fill-opacity:1;stroke-width:0.02;stroke-linecap:butt;stroke-linejoin:miter;stroke:rgb(100%,100%,100%);stroke-opacity:1;stroke-miterlimit:10;" d="M 5.217253 0.428369 L 6.296119 0.428369 L 6.296119 6.726831 L 5.217253 6.726831 Z M 5.217253 0.428369 " transform="matrix(28.346457,0,0,-28.346457,1,227.771654)"/>
<path style="fill-rule:nonzero;fill:rgb(69.019608%,87.843137%,90.196078%);fill-opacity:1;stroke-width:0.02;stroke-linecap:butt;stroke-linejoin:miter;stroke:rgb(100%,100%,100%);stroke-opacity:1;stroke-miterlimit:10;" d="M 6.296119 0.428369 L 7.374985 0.428369 L 7.374985 7.467802 L 6.296119 7.467802 Z M 6.296119 0.428369 " transform="matrix(28.346457,0,0,-28.346457,1,227.771654)"/>
<path style="fill-rule:nonzero;fill:rgb(69.019608%,87.843137%,90.196078%);fill-opacity:1;stroke-width:0.02;stroke-linecap:butt;stroke-linejoin:miter;stroke:rgb(100%,100%,100%);stroke-opacity:1;stroke-miterlimit:10;" d="M 7.374985 0.428369 L 8.453713 0.428369 L 8.453713 3.392391 L 7.374985 3.392391 Z M 7.374985 0.428369 " transform="matrix(28.346457,0,0,-28.346457,1,227.771654)"/>
<path style="fill-rule:nonzero;fill:rgb(69.019608%,87.843137%,90.196078%);fill-opacity:1;stroke-width:0.02;stroke-linecap:butt;stroke-linejoin:miter;stroke:rgb(100%,100%,100%);stroke-opacity:1;stroke-miterlimit:10;" d="M 8.453713 0.428369 L 9.532579 0.428369 L 9.532579 1.16934 L 8.453713 1.16934 Z M 8.453713 0.428369 " transform="matrix(28.346457,0,0,-28.346457,1,227.771654)"/>
<path style="fill:none;stroke-width:0.02;stroke-linecap:butt;stroke-linejoin:miter;stroke:rgb(0%,0%,0%);stroke-opacity:1;stroke-miterlimit:10;" d="M 0.525033 1.16934 L 0.630039 1.16934 " transform="matrix(28.346457,0,0,-28.346457,1,227.771654)"/>
<path style="fill:none;stroke-width:0.02;stroke-linecap:butt;stroke-linejoin:miter;stroke:rgb(0%,0%,0%);stroke-opacity:1;stroke-miterlimit:10;" d="M 0.525033 1.910311 L 0.630039 1.910311 " transform="matrix(28.346457,0,0,-28.346457,1,227.771654)"/>
<path style="fill:none;stroke-width:0.02;stroke-linecap:butt;stroke-linejoin:miter;stroke:rgb(0%,0%,0%);stroke-opacity:1;stroke-miterlimit:10;" d="M 0.525033 2.65142 L 0.630039 2.65142 " transform="matrix(28.346457,0,0,-28.346457,1,227.771654)"/>
<path style="fill:none;stroke-width:0.02;stroke-linecap:butt;stroke-linejoin:miter;stroke:rgb(0%,0%,0%);stroke-opacity:1;stroke-miterlimit:10;" d="M 0.525033 3.392391 L 0.630039 3.392391 " transform="matrix(28.346457,0,0,-28.346457,1,227.771654)"/>
<path style="fill:none;stroke-width:0.02;stroke-linecap:butt;stroke-linejoin:miter;stroke:rgb(0%,0%,0%);stroke-opacity:1;stroke-miterlimit:10;" d="M 0.525033 4.133363 L 0.630039 4.133363 " transform="matrix(28.346457,0,0,-28.346457,1,227.771654)"/>
<path style="fill:none;stroke-width:0.02;stroke-linecap:butt;stroke-linejoin:miter;stroke:rgb(0%,0%,0%);stroke-opacity:1;stroke-miterlimit:10;" d="M 0.525033 4.874334 L 0.630039 4.874334 " transform="matrix(28.346457,0,0,-28.346457,1,227.771654)"/>
<path style="fill:none;stroke-width:0.02;stroke-linecap:butt;stroke-linejoin:miter;stroke:rgb(0%,0%,0%);stroke-opacity:1;stroke-miterlimit:10;" d="M 0.525033 5.615305 L 0.630039 5.615305 " transform="matrix(28.346457,0,0,-28.346457,1,227.771654)"/>
<path style="fill:none;stroke-width:0.02;stroke-linecap:butt;stroke-linejoin:miter;stroke:rgb(0%,0%,0%);stroke-opacity:1;stroke-miterlimit:10;" d="M 0.525033 6.356276 L 0.630039 6.356276 " transform="matrix(28.346457,0,0,-28.346457,1,227.771654)"/>
<path style="fill:none;stroke-width:0.02;stroke-linecap:butt;stroke-linejoin:miter;stroke:rgb(0%,0%,0%);stroke-opacity:1;stroke-miterlimit:10;" d="M 0.525033 7.097247 L 0.630039 7.097247 " transform="matrix(28.346457,0,0,-28.346457,1,227.771654)"/>
<path style="fill:none;stroke-width:0.02;stroke-linecap:round;stroke-linejoin:miter;stroke:rgb(0%,0%,0%);stroke-opacity:1;stroke-miterlimit:10;" d="M 0.525033 0.428369 L 0.525033 7.838356 " transform="matrix(28.346457,0,0,-28.346457,1,227.771654)"/>
<path style=" stroke:none;fill-rule:nonzero;fill:rgb(0%,0%,0%);fill-opacity:1;" d="M 9.890625 213.050781 L 9.890625 216.394531 L 9.90625 216.410156 L 10.691406 216.410156 L 10.691406 216.886719 L 9.90625 216.886719 L 9.890625 216.894531 L 9.890625 218.234375 L 9.285156 218.234375 L 9.285156 216.894531 L 9.269531 216.886719 L 7.175781 216.886719 L 7.175781 216.394531 C 7.839844 215.28125 8.507812 214.164062 9.175781 213.050781 Z M 9.890625 213.050781 Z M 9.300781 213.355469 C 9.144531 214.179688 8.636719 214.886719 8.253906 215.609375 C 8.105469 215.871094 7.90625 216.15625 7.792969 216.410156 L 9.316406 216.410156 L 9.324219 216.394531 L 9.324219 213.355469 L 9.316406 213.339844 Z M 9.300781 213.355469 Z M 9.300781 213.355469 "/>
<path style=" stroke:none;fill-rule:nonzero;fill:rgb(0%,0%,0%);fill-opacity:1;" d="M 9.585938 191.882812 C 9.792969 191.914062 10.03125 191.9375 10.230469 192.03125 L 10.230469 192.492188 C 9.683594 192.253906 8.96875 192.222656 8.539062 192.707031 C 8.160156 193.113281 7.984375 193.714844 7.96875 194.246094 C 8.429688 193.636719 9.46875 193.292969 10.03125 193.929688 C 10.597656 194.578125 10.691406 195.515625 10.4375 196.308594 C 10.160156 196.945312 9.515625 197.523438 8.800781 197.390625 C 7.832031 197.308594 7.398438 196.230469 7.347656 195.40625 C 7.167969 194.238281 7.445312 192.769531 8.554688 192.105469 L 8.570312 192.09375 L 8.738281 192.007812 L 8.785156 191.992188 L 8.808594 191.976562 L 9.054688 191.90625 L 9.128906 191.890625 L 9.214844 191.890625 L 9.230469 191.882812 Z M 9.585938 191.882812 Z M 8.808594 194.085938 C 8.121094 194.207031 7.898438 195.039062 7.984375 195.605469 C 8.023438 196.136719 8.230469 196.84375 8.839844 196.953125 C 9.492188 197.039062 9.914062 196.34375 9.929688 195.777344 C 9.960938 195.207031 9.929688 194.554688 9.429688 194.183594 L 9.316406 194.128906 L 9.230469 194.105469 L 9.160156 194.085938 L 9.144531 194.070312 L 8.824219 194.070312 Z M 8.808594 194.085938 Z M 8.808594 194.085938 "/>
<path style=" stroke:none;fill-rule:nonzero;fill:rgb(0%,0%,0%);fill-opacity:1;" d="M 9.085938 170.875 C 9.929688 170.910156 10.722656 171.8125 10.390625 172.65625 C 10.246094 173.042969 9.851562 173.28125 9.523438 173.449219 C 10.332031 173.6875 10.824219 174.632812 10.460938 175.410156 C 10.078125 176.417969 8.636719 176.734375 7.839844 176.003906 C 7.121094 175.433594 7.09375 174.195312 7.898438 173.6875 C 8.015625 173.558594 8.238281 173.519531 8.339844 173.425781 C 7.652344 173.226562 7.183594 172.425781 7.507812 171.75 C 7.769531 171.148438 8.445312 170.8125 9.085938 170.875 Z M 9.085938 170.875 Z M 8.785156 171.328125 C 8.199219 171.34375 7.785156 172.011719 7.984375 172.535156 C 8.214844 173.441406 9.730469 173.410156 9.90625 172.480469 C 10.0625 171.964844 9.652344 171.34375 9.085938 171.328125 L 9.070312 171.320312 L 8.800781 171.320312 Z M 8.785156 171.328125 Z M 8.800781 173.6875 C 8.113281 173.734375 7.769531 174.558594 7.953125 175.148438 C 8.070312 175.980469 9.261719 176.226562 9.730469 175.558594 C 10.183594 174.949219 9.960938 173.851562 9.144531 173.6875 L 9.070312 173.6875 L 9.054688 173.671875 L 8.808594 173.671875 Z M 8.800781 173.6875 Z M 8.800781 173.6875 "/>
<path style=" stroke:none;fill-rule:nonzero;fill:rgb(0%,0%,0%);fill-opacity:1;" d="M 5.347656 149.871094 L 5.347656 154.769531 L 5.355469 154.785156 L 6.332031 154.785156 L 6.332031 155.222656 L 3.753906 155.222656 L 3.753906 154.785156 L 4.730469 154.785156 L 4.746094 154.769531 L 4.746094 150.660156 C 4.414062 150.769531 4.0625 150.839844 3.714844 150.832031 L 3.714844 150.386719 C 4.238281 150.394531 4.808594 150.253906 5.207031 149.871094 Z M 5.347656 149.871094 Z M 5.347656 149.871094 "/>
<path style=" stroke:none;fill-rule:nonzero;fill:rgb(0%,0%,0%);fill-opacity:1;" d="M 9.070312 149.871094 C 9.824219 149.929688 10.324219 150.617188 10.460938 151.316406 C 10.53125 151.632812 10.546875 151.9375 10.578125 152.253906 L 10.578125 153.0625 C 10.539062 153.886719 10.34375 154.976562 9.445312 155.308594 C 8.667969 155.617188 7.753906 155.132812 7.523438 154.339844 C 7.347656 153.921875 7.332031 153.492188 7.292969 153.0625 L 7.292969 152.253906 C 7.332031 151.429688 7.507812 150.332031 8.398438 149.96875 L 8.4375 149.953125 L 8.46875 149.945312 L 8.507812 149.929688 L 8.628906 149.894531 L 8.699219 149.878906 L 8.785156 149.878906 L 8.800781 149.871094 Z M 9.070312 149.871094 Z M 8.824219 150.355469 C 8.160156 150.4375 7.960938 151.238281 7.914062 151.777344 L 7.914062 151.992188 L 7.898438 152.007812 L 7.898438 153.109375 C 7.945312 153.683594 7.984375 154.421875 8.507812 154.800781 C 8.992188 155.132812 9.636719 154.761719 9.769531 154.246094 C 9.914062 153.863281 9.945312 153.492188 9.976562 153.109375 L 9.976562 152.007812 C 9.929688 151.429688 9.851562 150.617188 9.183594 150.386719 L 9.128906 150.371094 L 9.113281 150.355469 L 9.039062 150.355469 L 9.023438 150.339844 L 8.839844 150.339844 Z M 8.824219 150.355469 Z M 8.824219 150.355469 "/>
<path style=" stroke:none;fill-rule:nonzero;fill:rgb(0%,0%,0%);fill-opacity:1;" d="M 5.347656 128.867188 L 5.347656 133.765625 L 5.355469 133.78125 L 6.332031 133.78125 L 6.332031 134.21875 L 3.753906 134.21875 L 3.753906 133.78125 L 4.730469 133.78125 L 4.746094 133.765625 L 4.746094 129.652344 C 4.414062 129.765625 4.0625 129.835938 3.714844 129.828125 L 3.714844 129.382812 C 4.238281 129.390625 4.808594 129.25 5.207031 128.867188 Z M 5.347656 128.867188 Z M 5.347656 128.867188 "/>
<path style=" stroke:none;fill-rule:nonzero;fill:rgb(0%,0%,0%);fill-opacity:1;" d="M 8.984375 128.867188 C 9.90625 128.890625 10.636719 129.835938 10.492188 130.726562 C 10.398438 131.613281 9.5625 132.121094 8.96875 132.679688 L 8.714844 132.941406 L 8.683594 132.957031 L 8.367188 133.265625 L 8.339844 133.28125 L 8.023438 133.597656 L 7.992188 133.613281 L 7.921875 133.6875 L 7.9375 133.695312 L 10.507812 133.695312 L 10.507812 134.21875 L 7.367188 134.21875 L 7.367188 133.742188 L 8.644531 132.464844 C 9.253906 131.933594 9.96875 131.242188 9.859375 130.367188 C 9.792969 129.859375 9.367188 129.390625 8.839844 129.351562 C 8.308594 129.273438 7.839844 129.695312 7.722656 130.203125 L 7.707031 130.226562 L 7.691406 130.28125 L 7.667969 130.367188 L 7.621094 130.542969 L 7.613281 130.582031 C 7.5 130.449219 7.382812 130.304688 7.292969 130.152344 C 7.453125 129.503906 7.976562 128.890625 8.667969 128.867188 Z M 8.984375 128.867188 Z M 8.984375 128.867188 "/>
<path style=" stroke:none;fill-rule:nonzero;fill:rgb(0%,0%,0%);fill-opacity:1;" d="M 5.347656 107.863281 L 5.347656 112.761719 L 5.355469 112.777344 L 6.332031 112.777344 L 6.332031 113.214844 L 3.753906 113.214844 L 3.753906 112.777344 L 4.730469 112.777344 L 4.746094 112.761719 L 4.746094 108.648438 C 4.414062 108.761719 4.0625 108.832031 3.714844 108.824219 L 3.714844 108.378906 C 4.238281 108.386719 4.808594 108.246094 5.207031 107.863281 Z M 5.347656 107.863281 Z M 5.347656 107.863281 "/>
<path style=" stroke:none;fill-rule:nonzero;fill:rgb(0%,0%,0%);fill-opacity:1;" d="M 9.890625 108.03125 L 9.890625 111.371094 L 9.90625 111.386719 L 10.691406 111.386719 L 10.691406 111.863281 L 9.90625 111.863281 L 9.890625 111.871094 L 9.890625 113.214844 L 9.285156 113.214844 L 9.285156 111.871094 L 9.269531 111.863281 L 7.175781 111.863281 L 7.175781 111.371094 C 7.839844 110.261719 8.507812 109.140625 9.175781 108.03125 Z M 9.890625 108.03125 Z M 9.300781 108.332031 C 9.144531 109.15625 8.636719 109.863281 8.253906 110.585938 C 8.105469 110.847656 7.90625 111.132812 7.792969 111.386719 L 9.316406 111.386719 L 9.324219 111.371094 L 9.324219 108.332031 L 9.316406 108.316406 Z M 9.300781 108.332031 Z M 9.300781 108.332031 "/>
<path style=" stroke:none;fill-rule:nonzero;fill:rgb(0%,0%,0%);fill-opacity:1;" d="M 5.347656 86.859375 L 5.347656 91.757812 L 5.355469 91.773438 L 6.332031 91.773438 L 6.332031 92.207031 L 3.753906 92.207031 L 3.753906 91.773438 L 4.730469 91.773438 L 4.746094 91.757812 L 4.746094 87.644531 C 4.414062 87.757812 4.0625 87.828125 3.714844 87.820312 L 3.714844 87.375 C 4.238281 87.382812 4.808594 87.238281 5.207031 86.859375 Z M 5.347656 86.859375 Z M 5.347656 86.859375 "/>
<path style=" stroke:none;fill-rule:nonzero;fill:rgb(0%,0%,0%);fill-opacity:1;" d="M 9.585938 86.859375 C 9.792969 86.890625 10.03125 86.914062 10.230469 87.011719 L 10.230469 87.46875 C 9.683594 87.230469 8.96875 87.199219 8.539062 87.683594 C 8.160156 88.089844 7.984375 88.691406 7.96875 89.222656 C 8.429688 88.613281 9.46875 88.273438 10.03125 88.90625 C 10.597656 89.558594 10.691406 90.496094 10.4375 91.289062 C 10.160156 91.921875 9.515625 92.503906 8.800781 92.367188 C 7.832031 92.289062 7.398438 91.207031 7.347656 90.382812 C 7.167969 89.214844 7.445312 87.75 8.554688 87.082031 L 8.570312 87.074219 L 8.738281 86.984375 L 8.785156 86.96875 L 8.808594 86.953125 L 9.054688 86.882812 L 9.128906 86.867188 L 9.214844 86.867188 L 9.230469 86.859375 Z M 9.585938 86.859375 Z M 8.808594 89.066406 C 8.121094 89.183594 7.898438 90.019531 7.984375 90.582031 C 8.023438 91.113281 8.230469 91.820312 8.839844 91.929688 C 9.492188 92.019531 9.914062 91.320312 9.929688 90.757812 C 9.960938 90.183594 9.929688 89.535156 9.429688 89.160156 L 9.316406 89.105469 L 9.230469 89.082031 L 9.160156 89.066406 L 9.144531 89.050781 L 8.824219 89.050781 Z M 8.808594 89.066406 Z M 8.808594 89.066406 "/>
<path style=" stroke:none;fill-rule:nonzero;fill:rgb(0%,0%,0%);fill-opacity:1;" d="M 5.347656 65.855469 L 5.347656 70.75 L 5.355469 70.769531 L 6.332031 70.769531 L 6.332031 71.203125 L 3.753906 71.203125 L 3.753906 70.769531 L 4.730469 70.769531 L 4.746094 70.75 L 4.746094 66.640625 C 4.414062 66.75 4.0625 66.824219 3.714844 66.816406 L 3.714844 66.371094 C 4.238281 66.378906 4.808594 66.234375 5.207031 65.855469 Z M 5.347656 65.855469 Z M 5.347656 65.855469 "/>
<path style=" stroke:none;fill-rule:nonzero;fill:rgb(0%,0%,0%);fill-opacity:1;" d="M 9.085938 65.855469 C 9.929688 65.886719 10.722656 66.792969 10.390625 67.632812 C 10.246094 68.023438 9.851562 68.257812 9.523438 68.425781 C 10.332031 68.664062 10.824219 69.609375 10.460938 70.386719 C 10.078125 71.394531 8.636719 71.710938 7.839844 70.980469 C 7.121094 70.410156 7.09375 69.171875 7.898438 68.664062 C 8.015625 68.539062 8.238281 68.496094 8.339844 68.402344 C 7.652344 68.203125 7.183594 67.402344 7.507812 66.726562 C 7.769531 66.125 8.445312 65.792969 9.085938 65.855469 Z M 9.085938 65.855469 Z M 8.785156 66.308594 C 8.199219 66.324219 7.785156 66.988281 7.984375 67.511719 C 8.214844 68.417969 9.730469 68.386719 9.90625 67.457031 C 10.0625 66.941406 9.652344 66.324219 9.085938 66.308594 L 9.070312 66.300781 L 8.800781 66.300781 Z M 8.785156 66.308594 Z M 8.800781 68.664062 C 8.113281 68.710938 7.769531 69.539062 7.953125 70.125 C 8.070312 70.957031 9.261719 71.203125 9.730469 70.539062 C 10.183594 69.925781 9.960938 68.832031 9.144531 68.664062 L 9.070312 68.664062 L 9.054688 68.648438 L 8.808594 68.648438 Z M 8.800781 68.664062 Z M 8.800781 68.664062 "/>
<path style=" stroke:none;fill-rule:nonzero;fill:rgb(0%,0%,0%);fill-opacity:1;" d="M 5.015625 44.851562 C 5.9375 44.875 6.667969 45.820312 6.523438 46.707031 C 6.429688 47.597656 5.59375 48.105469 5 48.660156 L 4.746094 48.921875 L 4.714844 48.9375 L 4.398438 49.246094 L 4.375 49.261719 L 4.054688 49.582031 L 4.023438 49.597656 L 3.953125 49.667969 L 3.96875 49.675781 L 6.539062 49.675781 L 6.539062 50.199219 L 3.398438 50.199219 L 3.398438 49.722656 L 4.675781 48.445312 C 5.285156 47.914062 6 47.222656 5.890625 46.351562 C 5.824219 45.84375 5.398438 45.375 4.875 45.335938 C 4.339844 45.253906 3.875 45.675781 3.753906 46.183594 L 3.738281 46.207031 L 3.722656 46.261719 L 3.699219 46.351562 L 3.652344 46.523438 L 3.644531 46.566406 C 3.53125 46.429688 3.414062 46.285156 3.324219 46.136719 C 3.484375 45.484375 4.007812 44.875 4.699219 44.851562 Z M 5.015625 44.851562 Z M 5.015625 44.851562 "/>
<path style=" stroke:none;fill-rule:nonzero;fill:rgb(0%,0%,0%);fill-opacity:1;" d="M 9.070312 44.851562 C 9.824219 44.90625 10.324219 45.597656 10.460938 46.292969 C 10.53125 46.613281 10.546875 46.914062 10.578125 47.230469 L 10.578125 48.039062 C 10.539062 48.867188 10.34375 49.953125 9.445312 50.289062 C 8.667969 50.597656 7.753906 50.113281 7.523438 49.320312 C 7.347656 48.898438 7.332031 48.46875 7.292969 48.039062 L 7.292969 47.230469 C 7.332031 46.40625 7.507812 45.3125 8.398438 44.945312 L 8.4375 44.929688 L 8.46875 44.921875 L 8.507812 44.90625 L 8.628906 44.875 L 8.699219 44.859375 L 8.785156 44.859375 L 8.800781 44.851562 Z M 9.070312 44.851562 Z M 8.824219 45.335938 C 8.160156 45.414062 7.960938 46.214844 7.914062 46.753906 L 7.914062 46.96875 L 7.898438 46.984375 L 7.898438 48.089844 C 7.945312 48.660156 7.984375 49.398438 8.507812 49.777344 C 8.992188 50.113281 9.636719 49.738281 9.769531 49.222656 C 9.914062 48.84375 9.945312 48.46875 9.976562 48.089844 L 9.976562 46.984375 C 9.929688 46.40625 9.851562 45.597656 9.183594 45.367188 L 9.128906 45.351562 L 9.113281 45.335938 L 9.039062 45.335938 L 9.023438 45.320312 L 8.839844 45.320312 Z M 8.824219 45.335938 Z M 8.824219 45.335938 "/>
<path style=" stroke:none;fill-rule:nonzero;fill:rgb(0%,0%,0%);fill-opacity:1;" d="M 5.015625 23.847656 C 5.9375 23.871094 6.667969 24.8125 6.523438 25.703125 C 6.429688 26.59375 5.59375 27.101562 5 27.65625 L 4.746094 27.917969 L 4.714844 27.933594 L 4.398438 28.242188 L 4.375 28.257812 L 4.054688 28.578125 L 4.023438 28.59375 L 3.953125 28.664062 L 3.96875 28.671875 L 6.539062 28.671875 L 6.539062 29.195312 L 3.398438 29.195312 L 3.398438 28.71875 L 4.675781 27.441406 C 5.285156 26.910156 6 26.21875 5.890625 25.347656 C 5.824219 24.839844 5.398438 24.371094 4.875 24.328125 C 4.339844 24.25 3.875 24.671875 3.753906 25.179688 L 3.738281 25.203125 L 3.722656 25.257812 L 3.699219 25.347656 L 3.652344 25.519531 L 3.644531 25.558594 C 3.53125 25.425781 3.414062 25.28125 3.324219 25.132812 C 3.484375 24.480469 4.007812 23.871094 4.699219 23.847656 Z M 5.015625 23.847656 Z M 5.015625 23.847656 "/>
<path style=" stroke:none;fill-rule:nonzero;fill:rgb(0%,0%,0%);fill-opacity:1;" d="M 8.984375 23.847656 C 9.90625 23.871094 10.636719 24.8125 10.492188 25.703125 C 10.398438 26.59375 9.5625 27.101562 8.96875 27.65625 L 8.714844 27.917969 L 8.683594 27.933594 L 8.367188 28.242188 L 8.339844 28.257812 L 8.023438 28.578125 L 7.992188 28.59375 L 7.921875 28.664062 L 7.9375 28.671875 L 10.507812 28.671875 L 10.507812 29.195312 L 7.367188 29.195312 L 7.367188 28.71875 L 8.644531 27.441406 C 9.253906 26.910156 9.96875 26.21875 9.859375 25.347656 C 9.792969 24.839844 9.367188 24.371094 8.839844 24.328125 C 8.308594 24.25 7.839844 24.671875 7.722656 25.179688 L 7.707031 25.203125 L 7.691406 25.257812 L 7.667969 25.347656 L 7.621094 25.519531 L 7.613281 25.558594 C 7.5 25.425781 7.382812 25.28125 7.292969 25.132812 C 7.453125 24.480469 7.976562 23.871094 8.667969 23.847656 Z M 8.984375 23.847656 Z M 8.984375 23.847656 "/>
<path style=" stroke:none;fill-rule:nonzero;fill:rgb(0%,0%,0%);fill-opacity:1;" d="M 5.015625 2.839844 C 5.9375 2.863281 6.667969 3.808594 6.523438 4.699219 C 6.429688 5.585938 5.59375 6.09375 5 6.652344 L 4.746094 6.914062 L 4.714844 6.929688 L 4.398438 7.238281 L 4.375 7.253906 L 4.054688 7.570312 L 4.023438 7.585938 L 3.953125 7.660156 L 3.96875 7.667969 L 6.539062 7.667969 L 6.539062 8.191406 L 3.398438 8.191406 L 3.398438 7.714844 L 4.675781 6.4375 C 5.285156 5.90625 6 5.214844 5.890625 4.339844 C 5.824219 3.832031 5.398438 3.363281 4.875 3.324219 C 4.339844 3.246094 3.875 3.667969 3.753906 4.175781 L 3.738281 4.199219 L 3.722656 4.253906 L 3.699219 4.339844 L 3.652344 4.515625 L 3.644531 4.554688 C 3.53125 4.421875 3.414062 4.277344 3.324219 4.128906 C 3.484375 3.476562 4.007812 2.863281 4.699219 2.839844 Z M 5.015625 2.839844 Z M 5.015625 2.839844 "/>
<path style=" stroke:none;fill-rule:nonzero;fill:rgb(0%,0%,0%);fill-opacity:1;" d="M 9.890625 3.007812 L 9.890625 6.347656 L 9.90625 6.367188 L 10.691406 6.367188 L 10.691406 6.839844 L 9.90625 6.839844 L 9.890625 6.847656 L 9.890625 8.191406 L 9.285156 8.191406 L 9.285156 6.847656 L 9.269531 6.839844 L 7.175781 6.839844 L 7.175781 6.347656 C 7.839844 5.238281 8.507812 4.121094 9.175781 3.007812 Z M 9.890625 3.007812 Z M 9.300781 3.308594 C 9.144531 4.136719 8.636719 4.839844 8.253906 5.5625 C 8.105469 5.824219 7.90625 6.113281 7.792969 6.367188 L 9.316406 6.367188 L 9.324219 6.347656 L 9.324219 3.308594 L 9.316406 3.292969 Z M 9.300781 3.308594 Z M 9.300781 3.308594 "/>
<path style="fill:none;stroke-width:0.02;stroke-linecap:butt;stroke-linejoin:miter;stroke:rgb(0%,0%,0%);stroke-opacity:1;stroke-miterlimit:10;" d="M 9.751274 1.16934 L 9.646267 1.16934 " transform="matrix(28.346457,0,0,-28.346457,1,227.771654)"/>
<path style="fill:none;stroke-width:0.02;stroke-linecap:butt;stroke-linejoin:miter;stroke:rgb(0%,0%,0%);stroke-opacity:1;stroke-miterlimit:10;" d="M 9.751274 1.910311 L 9.646267 1.910311 " transform="matrix(28.346457,0,0,-28.346457,1,227.771654)"/>
<path style="fill:none;stroke-width:0.02;stroke-linecap:butt;stroke-linejoin:miter;stroke:rgb(0%,0%,0%);stroke-opacity:1;stroke-miterlimit:10;" d="M 9.751274 2.65142 L 9.646267 2.65142 " transform="matrix(28.346457,0,0,-28.346457,1,227.771654)"/>
<path style="fill:none;stroke-width:0.02;stroke-linecap:butt;stroke-linejoin:miter;stroke:rgb(0%,0%,0%);stroke-opacity:1;stroke-miterlimit:10;" d="M 9.751274 3.392391 L 9.646267 3.392391 " transform="matrix(28.346457,0,0,-28.346457,1,227.771654)"/>
<path style="fill:none;stroke-width:0.02;stroke-linecap:butt;stroke-linejoin:miter;stroke:rgb(0%,0%,0%);stroke-opacity:1;stroke-miterlimit:10;" d="M 9.751274 4.133363 L 9.646267 4.133363 " transform="matrix(28.346457,0,0,-28.346457,1,227.771654)"/>
<path style="fill:none;stroke-width:0.02;stroke-linecap:butt;stroke-linejoin:miter;stroke:rgb(0%,0%,0%);stroke-opacity:1;stroke-miterlimit:10;" d="M 9.751274 4.874334 L 9.646267 4.874334 " transform="matrix(28.346457,0,0,-28.346457,1,227.771654)"/>
<path style="fill:none;stroke-width:0.02;stroke-linecap:butt;stroke-linejoin:miter;stroke:rgb(0%,0%,0%);stroke-opacity:1;stroke-miterlimit:10;" d="M 9.751274 5.615305 L 9.646267 5.615305 " transform="matrix(28.346457,0,0,-28.346457,1,227.771654)"/>
<path style="fill:none;stroke-width:0.02;stroke-linecap:butt;stroke-linejoin:miter;stroke:rgb(0%,0%,0%);stroke-opacity:1;stroke-miterlimit:10;" d="M 9.751274 6.356276 L 9.646267 6.356276 " transform="matrix(28.346457,0,0,-28.346457,1,227.771654)"/>
<path style="fill:none;stroke-width:0.02;stroke-linecap:butt;stroke-linejoin:miter;stroke:rgb(0%,0%,0%);stroke-opacity:1;stroke-miterlimit:10;" d="M 9.751274 7.097247 L 9.646267 7.097247 " transform="matrix(28.346457,0,0,-28.346457,1,227.771654)"/>
<path style="fill:none;stroke-width:0.02;stroke-linecap:round;stroke-linejoin:miter;stroke:rgb(0%,0%,0%);stroke-opacity:1;stroke-miterlimit:10;" d="M 9.751274 0.428369 L 9.751274 7.838356 " transform="matrix(28.346457,0,0,-28.346457,1,227.771654)"/>
<path style="fill:none;stroke-width:0.02;stroke-linecap:butt;stroke-linejoin:miter;stroke:rgb(0%,0%,0%);stroke-opacity:1;stroke-miterlimit:10;" d="M 1.550155 0.428369 L 1.550155 0.533376 " transform="matrix(28.346457,0,0,-28.346457,1,227.771654)"/>
<path style="fill:none;stroke-width:0.02;stroke-linecap:butt;stroke-linejoin:miter;stroke:rgb(0%,0%,0%);stroke-opacity:1;stroke-miterlimit:10;" d="M 2.575278 0.428369 L 2.575278 0.533376 " transform="matrix(28.346457,0,0,-28.346457,1,227.771654)"/>
<path style="fill:none;stroke-width:0.02;stroke-linecap:butt;stroke-linejoin:miter;stroke:rgb(0%,0%,0%);stroke-opacity:1;stroke-miterlimit:10;" d="M 3.6004 0.428369 L 3.6004 0.533376 " transform="matrix(28.346457,0,0,-28.346457,1,227.771654)"/>
<path style="fill:none;stroke-width:0.02;stroke-linecap:butt;stroke-linejoin:miter;stroke:rgb(0%,0%,0%);stroke-opacity:1;stroke-miterlimit:10;" d="M 4.625523 0.428369 L 4.625523 0.533376 " transform="matrix(28.346457,0,0,-28.346457,1,227.771654)"/>
<path style="fill:none;stroke-width:0.02;stroke-linecap:butt;stroke-linejoin:miter;stroke:rgb(0%,0%,0%);stroke-opacity:1;stroke-miterlimit:10;" d="M 5.650646 0.428369 L 5.650646 0.533376 " transform="matrix(28.346457,0,0,-28.346457,1,227.771654)"/>
<path style="fill:none;stroke-width:0.02;stroke-linecap:butt;stroke-linejoin:miter;stroke:rgb(0%,0%,0%);stroke-opacity:1;stroke-miterlimit:10;" d="M 6.675768 0.428369 L 6.675768 0.533376 " transform="matrix(28.346457,0,0,-28.346457,1,227.771654)"/>
<path style="fill:none;stroke-width:0.02;stroke-linecap:butt;stroke-linejoin:miter;stroke:rgb(0%,0%,0%);stroke-opacity:1;stroke-miterlimit:10;" d="M 7.700891 0.428369 L 7.700891 0.533376 " transform="matrix(28.346457,0,0,-28.346457,1,227.771654)"/>
<path style="fill:none;stroke-width:0.02;stroke-linecap:butt;stroke-linejoin:miter;stroke:rgb(0%,0%,0%);stroke-opacity:1;stroke-miterlimit:10;" d="M 8.726151 0.428369 L 8.726151 0.533376 " transform="matrix(28.346457,0,0,-28.346457,1,227.771654)"/>
<path style="fill:none;stroke-width:0.02;stroke-linecap:round;stroke-linejoin:miter;stroke:rgb(0%,0%,0%);stroke-opacity:1;stroke-miterlimit:10;" d="M 0.525033 0.428369 L 9.751274 0.428369 " transform="matrix(28.346457,0,0,-28.346457,1,227.771654)"/>
<path style=" stroke:none;fill-rule:nonzero;fill:rgb(0%,0%,0%);fill-opacity:1;" d="M 11.667969 223.828125 L 11.667969 224.269531 L 9.585938 224.269531 L 9.585938 223.828125 Z M 11.667969 223.828125 Z M 11.667969 223.828125 "/>
<path style=" stroke:none;fill-rule:nonzero;fill:rgb(0%,0%,0%);fill-opacity:1;" d="M 14.167969 220.445312 C 15.089844 220.46875 15.820312 221.414062 15.675781 222.304688 C 15.582031 223.191406 14.746094 223.699219 14.152344 224.253906 L 13.898438 224.515625 L 13.867188 224.535156 L 13.546875 224.84375 L 13.523438 224.859375 L 13.207031 225.175781 L 13.175781 225.191406 L 13.105469 225.261719 L 13.121094 225.273438 L 15.691406 225.273438 L 15.691406 225.796875 L 12.546875 225.796875 L 12.546875 225.320312 L 13.828125 224.042969 C 14.4375 223.507812 15.152344 222.820312 15.039062 221.945312 C 14.976562 221.4375 14.546875 220.96875 14.023438 220.929688 C 13.492188 220.851562 13.023438 221.269531 12.90625 221.777344 L 12.890625 221.804688 L 12.875 221.859375 L 12.851562 221.945312 L 12.800781 222.121094 L 12.792969 222.160156 C 12.683594 222.023438 12.5625 221.882812 12.476562 221.730469 C 12.636719 221.082031 13.160156 220.46875 13.851562 220.445312 Z M 14.167969 220.445312 Z M 14.167969 220.445312 "/>
<path style=" stroke:none;fill-rule:nonzero;fill:rgb(0%,0%,0%);fill-opacity:1;" d="M 17.53125 225.160156 L 17.53125 225.796875 L 16.890625 225.796875 L 16.890625 225.160156 Z M 17.53125 225.160156 Z M 17.53125 225.160156 "/>
<path style=" stroke:none;fill-rule:nonzero;fill:rgb(0%,0%,0%);fill-opacity:1;" d="M 21.597656 220.613281 L 21.597656 221.105469 L 19.53125 221.105469 L 19.515625 221.113281 L 19.515625 222.738281 C 19.707031 222.613281 19.976562 222.445312 20.230469 222.4375 C 21.128906 222.34375 21.820312 223.222656 21.859375 224.042969 C 21.984375 225.082031 21.007812 226.113281 19.960938 225.953125 C 19.4375 225.9375 18.929688 225.628906 18.628906 225.199219 C 18.714844 225.082031 18.785156 224.875 18.890625 224.804688 C 19.261719 225.535156 20.46875 225.828125 20.953125 225.058594 C 21.261719 224.476562 21.253906 223.738281 20.898438 223.183594 C 20.484375 222.652344 19.667969 222.976562 19.476562 223.542969 L 18.960938 223.542969 L 18.960938 220.613281 Z M 21.597656 220.613281 Z M 21.597656 220.613281 "/>
<path style=" stroke:none;fill-rule:nonzero;fill:rgb(0%,0%,0%);fill-opacity:1;" d="M 40.726562 223.828125 L 40.726562 224.269531 L 38.648438 224.269531 L 38.648438 223.828125 Z M 40.726562 223.828125 Z M 40.726562 223.828125 "/>
<path style=" stroke:none;fill-rule:nonzero;fill:rgb(0%,0%,0%);fill-opacity:1;" d="M 43.226562 220.445312 C 44.148438 220.46875 44.878906 221.414062 44.734375 222.304688 C 44.640625 223.191406 43.804688 223.699219 43.210938 224.253906 L 42.957031 224.515625 L 42.925781 224.535156 L 42.605469 224.84375 L 42.582031 224.859375 L 42.265625 225.175781 L 42.234375 225.191406 L 42.164062 225.261719 L 42.179688 225.273438 L 44.75 225.273438 L 44.75 225.796875 L 41.605469 225.796875 L 41.605469 225.320312 L 42.886719 224.042969 C 43.496094 223.507812 44.210938 222.820312 44.097656 221.945312 C 44.035156 221.4375 43.609375 220.96875 43.082031 220.929688 C 42.550781 220.851562 42.082031 221.269531 41.964844 221.777344 L 41.949219 221.804688 L 41.933594 221.859375 L 41.910156 221.945312 L 41.859375 222.121094 L 41.851562 222.160156 C 41.742188 222.023438 41.625 221.882812 41.535156 221.730469 C 41.695312 221.082031 42.21875 220.46875 42.910156 220.445312 Z M 43.226562 220.445312 Z M 43.226562 220.445312 "/>
<path style=" stroke:none;fill-rule:nonzero;fill:rgb(0%,0%,0%);fill-opacity:1;" d="M 46.589844 225.160156 L 46.589844 225.796875 L 45.949219 225.796875 L 45.949219 225.160156 Z M 46.589844 225.160156 Z M 46.589844 225.160156 "/>
<path style=" stroke:none;fill-rule:nonzero;fill:rgb(0%,0%,0%);fill-opacity:1;" d="M 49.480469 220.445312 C 50.234375 220.5 50.734375 221.191406 50.871094 221.890625 C 50.941406 222.207031 50.957031 222.507812 50.988281 222.828125 L 50.988281 223.636719 C 50.949219 224.460938 50.75 225.550781 49.855469 225.882812 C 49.074219 226.191406 48.164062 225.707031 47.933594 224.914062 C 47.757812 224.492188 47.742188 224.066406 47.703125 223.636719 L 47.703125 222.828125 C 47.742188 222 47.917969 220.90625 48.804688 220.542969 L 48.847656 220.523438 L 48.878906 220.515625 L 48.917969 220.5 L 49.035156 220.46875 L 49.109375 220.453125 L 49.195312 220.453125 L 49.210938 220.445312 Z M 49.480469 220.445312 Z M 49.234375 220.929688 C 48.566406 221.007812 48.371094 221.8125 48.320312 222.351562 L 48.320312 222.566406 L 48.304688 222.582031 L 48.304688 223.683594 C 48.355469 224.253906 48.394531 224.992188 48.917969 225.375 C 49.402344 225.707031 50.042969 225.335938 50.179688 224.820312 C 50.320312 224.4375 50.355469 224.066406 50.386719 223.683594 L 50.386719 222.582031 C 50.339844 222 50.257812 221.191406 49.59375 220.960938 L 49.535156 220.945312 L 49.519531 220.929688 L 49.449219 220.929688 L 49.433594 220.914062 L 49.25 220.914062 Z M 49.234375 220.929688 Z M 49.234375 220.929688 "/>
<path style=" stroke:none;fill-rule:nonzero;fill:rgb(0%,0%,0%);fill-opacity:1;" d="M 69.785156 223.828125 L 69.785156 224.269531 L 67.707031 224.269531 L 67.707031 223.828125 Z M 69.785156 223.828125 Z M 69.785156 223.828125 "/>
<path style=" stroke:none;fill-rule:nonzero;fill:rgb(0%,0%,0%);fill-opacity:1;" d="M 72.617188 220.445312 L 72.617188 225.34375 L 72.625 225.359375 L 73.601562 225.359375 L 73.601562 225.796875 L 71.023438 225.796875 L 71.023438 225.359375 L 72 225.359375 L 72.015625 225.34375 L 72.015625 221.230469 C 71.683594 221.34375 71.332031 221.414062 70.984375 221.40625 L 70.984375 220.960938 C 71.507812 220.96875 72.078125 220.828125 72.476562 220.445312 Z M 72.617188 220.445312 Z M 72.617188 220.445312 "/>
<path style=" stroke:none;fill-rule:nonzero;fill:rgb(0%,0%,0%);fill-opacity:1;" d="M 75.652344 225.160156 L 75.652344 225.796875 L 75.007812 225.796875 L 75.007812 225.160156 Z M 75.652344 225.160156 Z M 75.652344 225.160156 "/>
<path style=" stroke:none;fill-rule:nonzero;fill:rgb(0%,0%,0%);fill-opacity:1;" d="M 79.714844 220.613281 L 79.714844 221.105469 L 77.652344 221.105469 L 77.636719 221.113281 L 77.636719 222.738281 C 77.824219 222.613281 78.09375 222.445312 78.347656 222.4375 C 79.246094 222.34375 79.9375 223.222656 79.976562 224.042969 C 80.101562 225.082031 79.128906 226.113281 78.078125 225.953125 C 77.554688 225.9375 77.046875 225.628906 76.746094 225.199219 C 76.832031 225.082031 76.90625 224.875 77.007812 224.804688 C 77.382812 225.535156 78.585938 225.828125 79.070312 225.058594 C 79.382812 224.476562 79.375 223.738281 79.015625 223.183594 C 78.601562 222.652344 77.785156 222.976562 77.59375 223.542969 L 77.078125 223.542969 L 77.078125 220.613281 Z M 79.714844 220.613281 Z M 79.714844 220.613281 "/>
<path style=" stroke:none;fill-rule:nonzero;fill:rgb(0%,0%,0%);fill-opacity:1;" d="M 98.84375 223.828125 L 98.84375 224.269531 L 96.765625 224.269531 L 96.765625 223.828125 Z M 98.84375 223.828125 Z M 98.84375 223.828125 "/>
<path style=" stroke:none;fill-rule:nonzero;fill:rgb(0%,0%,0%);fill-opacity:1;" d="M 101.675781 220.445312 L 101.675781 225.34375 L 101.6875 225.359375 L 102.660156 225.359375 L 102.660156 225.796875 L 100.082031 225.796875 L 100.082031 225.359375 L 101.058594 225.359375 L 101.074219 225.34375 L 101.074219 221.230469 C 100.742188 221.34375 100.390625 221.414062 100.042969 221.40625 L 100.042969 220.960938 C 100.566406 220.96875 101.136719 220.828125 101.535156 220.445312 Z M 101.675781 220.445312 Z M 101.675781 220.445312 "/>
<path style=" stroke:none;fill-rule:nonzero;fill:rgb(0%,0%,0%);fill-opacity:1;" d="M 104.710938 225.160156 L 104.710938 225.796875 L 104.066406 225.796875 L 104.066406 225.160156 Z M 104.710938 225.160156 Z M 104.710938 225.160156 "/>
<path style=" stroke:none;fill-rule:nonzero;fill:rgb(0%,0%,0%);fill-opacity:1;" d="M 107.597656 220.445312 C 108.351562 220.5 108.851562 221.191406 108.988281 221.890625 C 109.058594 222.207031 109.074219 222.507812 109.105469 222.828125 L 109.105469 223.636719 C 109.066406 224.460938 108.867188 225.550781 107.972656 225.882812 C 107.195312 226.191406 106.28125 225.707031 106.050781 224.914062 C 105.875 224.492188 105.859375 224.066406 105.820312 223.636719 L 105.820312 222.828125 C 105.859375 222 106.035156 220.90625 106.925781 220.542969 L 106.964844 220.523438 L 106.996094 220.515625 L 107.035156 220.5 L 107.152344 220.46875 L 107.226562 220.453125 L 107.3125 220.453125 L 107.328125 220.445312 Z M 107.597656 220.445312 Z M 107.351562 220.929688 C 106.6875 221.007812 106.488281 221.8125 106.441406 222.351562 L 106.441406 222.566406 L 106.425781 222.582031 L 106.425781 223.683594 C 106.472656 224.253906 106.511719 224.992188 107.035156 225.375 C 107.519531 225.707031 108.164062 225.335938 108.296875 224.820312 C 108.441406 224.4375 108.472656 224.066406 108.503906 223.683594 L 108.503906 222.582031 C 108.457031 222 108.375 221.191406 107.710938 220.960938 L 107.65625 220.945312 L 107.636719 220.929688 L 107.566406 220.929688 L 107.550781 220.914062 L 107.367188 220.914062 Z M 107.351562 220.929688 Z M 107.351562 220.929688 "/>
<path style=" stroke:none;fill-rule:nonzero;fill:rgb(0%,0%,0%);fill-opacity:1;" d="M 127.902344 223.828125 L 127.902344 224.269531 L 125.824219 224.269531 L 125.824219 223.828125 Z M 127.902344 223.828125 Z M 127.902344 223.828125 "/>
<path style=" stroke:none;fill-rule:nonzero;fill:rgb(0%,0%,0%);fill-opacity:1;" d="M 130.492188 220.445312 C 131.246094 220.5 131.746094 221.191406 131.878906 221.890625 C 131.949219 222.207031 131.96875 222.507812 132 222.828125 L 132 223.636719 C 131.960938 224.460938 131.761719 225.550781 130.863281 225.882812 C 130.085938 226.191406 129.171875 225.707031 128.941406 224.914062 C 128.769531 224.492188 128.753906 224.066406 128.710938 223.636719 L 128.710938 222.828125 C 128.753906 222 128.925781 220.90625 129.816406 220.542969 L 129.855469 220.523438 L 129.886719 220.515625 L 129.925781 220.5 L 130.046875 220.46875 L 130.117188 220.453125 L 130.203125 220.453125 L 130.222656 220.445312 Z M 130.492188 220.445312 Z M 130.246094 220.929688 C 129.578125 221.007812 129.378906 221.8125 129.332031 222.351562 L 129.332031 222.566406 L 129.316406 222.582031 L 129.316406 223.683594 C 129.363281 224.253906 129.402344 224.992188 129.925781 225.375 C 130.410156 225.707031 131.054688 225.335938 131.1875 224.820312 C 131.332031 224.4375 131.363281 224.066406 131.394531 223.683594 L 131.394531 222.582031 C 131.347656 222 131.269531 221.191406 130.601562 220.960938 L 130.546875 220.945312 L 130.53125 220.929688 L 130.457031 220.929688 L 130.441406 220.914062 L 130.261719 220.914062 Z M 130.246094 220.929688 Z M 130.246094 220.929688 "/>
<path style=" stroke:none;fill-rule:nonzero;fill:rgb(0%,0%,0%);fill-opacity:1;" d="M 133.769531 225.160156 L 133.769531 225.796875 L 133.125 225.796875 L 133.125 225.160156 Z M 133.769531 225.160156 Z M 133.769531 225.160156 "/>
<path style=" stroke:none;fill-rule:nonzero;fill:rgb(0%,0%,0%);fill-opacity:1;" d="M 137.832031 220.613281 L 137.832031 221.105469 L 135.769531 221.105469 L 135.753906 221.113281 L 135.753906 222.738281 C 135.945312 222.613281 136.214844 222.445312 136.46875 222.4375 C 137.363281 222.34375 138.054688 223.222656 138.09375 224.042969 C 138.222656 225.082031 137.246094 226.113281 136.199219 225.953125 C 135.671875 225.9375 135.164062 225.628906 134.863281 225.199219 C 134.953125 225.082031 135.023438 224.875 135.125 224.804688 C 135.5 225.535156 136.707031 225.828125 137.191406 225.058594 C 137.5 224.476562 137.492188 223.738281 137.132812 223.183594 C 136.722656 222.652344 135.902344 222.976562 135.714844 223.542969 L 135.199219 223.542969 L 135.199219 220.613281 Z M 137.832031 220.613281 Z M 137.832031 220.613281 "/>
<path style=" stroke:none;fill-rule:nonzero;fill:rgb(0%,0%,0%);fill-opacity:1;" d="M 158.226562 220.445312 C 158.980469 220.5 159.480469 221.191406 159.617188 221.890625 C 159.6875 222.207031 159.703125 222.507812 159.734375 222.828125 L 159.734375 223.636719 C 159.695312 224.460938 159.496094 225.550781 158.601562 225.882812 C 157.824219 226.191406 156.910156 225.707031 156.679688 224.914062 C 156.503906 224.492188 156.488281 224.066406 156.449219 223.636719 L 156.449219 222.828125 C 156.488281 222 156.664062 220.90625 157.554688 220.542969 L 157.59375 220.523438 L 157.625 220.515625 L 157.664062 220.5 L 157.785156 220.46875 L 157.855469 220.453125 L 157.941406 220.453125 L 157.957031 220.445312 Z M 158.226562 220.445312 Z M 157.980469 220.929688 C 157.316406 221.007812 157.117188 221.8125 157.070312 222.351562 L 157.070312 222.566406 L 157.054688 222.582031 L 157.054688 223.683594 C 157.101562 224.253906 157.140625 224.992188 157.664062 225.375 C 158.148438 225.707031 158.792969 225.335938 158.925781 224.820312 C 159.070312 224.4375 159.101562 224.066406 159.132812 223.683594 L 159.132812 222.582031 C 159.085938 222 159.007812 221.191406 158.339844 220.960938 L 158.285156 220.945312 L 158.269531 220.929688 L 158.195312 220.929688 L 158.179688 220.914062 L 157.996094 220.914062 Z M 157.980469 220.929688 Z M 157.980469 220.929688 "/>
<path style=" stroke:none;fill-rule:nonzero;fill:rgb(0%,0%,0%);fill-opacity:1;" d="M 161.507812 225.160156 L 161.507812 225.796875 L 160.863281 225.796875 L 160.863281 225.160156 Z M 161.507812 225.160156 Z M 161.507812 225.160156 "/>
<path style=" stroke:none;fill-rule:nonzero;fill:rgb(0%,0%,0%);fill-opacity:1;" d="M 164.394531 220.445312 C 165.148438 220.5 165.648438 221.191406 165.785156 221.890625 C 165.855469 222.207031 165.871094 222.507812 165.902344 222.828125 L 165.902344 223.636719 C 165.863281 224.460938 165.664062 225.550781 164.769531 225.882812 C 163.992188 226.191406 163.078125 225.707031 162.847656 224.914062 C 162.671875 224.492188 162.65625 224.066406 162.617188 223.636719 L 162.617188 222.828125 C 162.65625 222 162.832031 220.90625 163.71875 220.542969 L 163.761719 220.523438 L 163.792969 220.515625 L 163.832031 220.5 L 163.949219 220.46875 L 164.023438 220.453125 L 164.109375 220.453125 L 164.125 220.445312 Z M 164.394531 220.445312 Z M 164.148438 220.929688 C 163.480469 221.007812 163.285156 221.8125 163.238281 222.351562 L 163.238281 222.566406 L 163.21875 222.582031 L 163.21875 223.683594 C 163.269531 224.253906 163.308594 224.992188 163.832031 225.375 C 164.316406 225.707031 164.957031 225.335938 165.09375 224.820312 C 165.238281 224.4375 165.269531 224.066406 165.300781 223.683594 L 165.300781 222.582031 C 165.253906 222 165.171875 221.191406 164.507812 220.960938 L 164.449219 220.945312 L 164.433594 220.929688 L 164.363281 220.929688 L 164.347656 220.914062 L 164.164062 220.914062 Z M 164.148438 220.929688 Z M 164.148438 220.929688 "/>
<path style=" stroke:none;fill-rule:nonzero;fill:rgb(0%,0%,0%);fill-opacity:1;" d="M 187.285156 220.445312 C 188.042969 220.5 188.542969 221.191406 188.675781 221.890625 C 188.746094 222.207031 188.761719 222.507812 188.796875 222.828125 L 188.796875 223.636719 C 188.753906 224.460938 188.558594 225.550781 187.660156 225.882812 C 186.882812 226.191406 185.96875 225.707031 185.738281 224.914062 C 185.566406 224.492188 185.550781 224.066406 185.507812 223.636719 L 185.507812 222.828125 C 185.550781 222 185.722656 220.90625 186.613281 220.542969 L 186.652344 220.523438 L 186.683594 220.515625 L 186.722656 220.5 L 186.84375 220.46875 L 186.914062 220.453125 L 187 220.453125 L 187.015625 220.445312 Z M 187.285156 220.445312 Z M 187.039062 220.929688 C 186.375 221.007812 186.175781 221.8125 186.128906 222.351562 L 186.128906 222.566406 L 186.113281 222.582031 L 186.113281 223.683594 C 186.160156 224.253906 186.199219 224.992188 186.722656 225.375 C 187.207031 225.707031 187.851562 225.335938 187.984375 224.820312 C 188.128906 224.4375 188.160156 224.066406 188.191406 223.683594 L 188.191406 222.582031 C 188.144531 222 188.066406 221.191406 187.398438 220.960938 L 187.34375 220.945312 L 187.328125 220.929688 L 187.253906 220.929688 L 187.238281 220.914062 L 187.058594 220.914062 Z M 187.039062 220.929688 Z M 187.039062 220.929688 "/>
<path style=" stroke:none;fill-rule:nonzero;fill:rgb(0%,0%,0%);fill-opacity:1;" d="M 190.566406 225.160156 L 190.566406 225.796875 L 189.921875 225.796875 L 189.921875 225.160156 Z M 190.566406 225.160156 Z M 190.566406 225.160156 "/>
<path style=" stroke:none;fill-rule:nonzero;fill:rgb(0%,0%,0%);fill-opacity:1;" d="M 194.628906 220.613281 L 194.628906 221.105469 L 192.566406 221.105469 L 192.550781 221.113281 L 192.550781 222.738281 C 192.738281 222.613281 193.007812 222.445312 193.261719 222.4375 C 194.160156 222.34375 194.851562 223.222656 194.890625 224.042969 C 195.019531 225.082031 194.042969 226.113281 192.992188 225.953125 C 192.46875 225.9375 191.960938 225.628906 191.660156 225.199219 C 191.746094 225.082031 191.820312 224.875 191.921875 224.804688 C 192.296875 225.535156 193.5 225.828125 193.984375 225.058594 C 194.296875 224.476562 194.289062 223.738281 193.929688 223.183594 C 193.519531 222.652344 192.699219 222.976562 192.507812 223.542969 L 191.992188 223.542969 L 191.992188 220.613281 Z M 194.628906 220.613281 Z M 194.628906 220.613281 "/>
<path style=" stroke:none;fill-rule:nonzero;fill:rgb(0%,0%,0%);fill-opacity:1;" d="M 216.59375 220.445312 L 216.59375 225.34375 L 216.601562 225.359375 L 217.578125 225.359375 L 217.578125 225.796875 L 214.996094 225.796875 L 214.996094 225.359375 L 215.972656 225.359375 L 215.988281 225.34375 L 215.988281 221.230469 C 215.65625 221.34375 215.304688 221.414062 214.957031 221.40625 L 214.957031 220.960938 C 215.480469 220.96875 216.050781 220.828125 216.449219 220.445312 Z M 216.59375 220.445312 Z M 216.59375 220.445312 "/>
<path style=" stroke:none;fill-rule:nonzero;fill:rgb(0%,0%,0%);fill-opacity:1;" d="M 219.625 225.160156 L 219.625 225.796875 L 218.980469 225.796875 L 218.980469 225.160156 Z M 219.625 225.160156 Z M 219.625 225.160156 "/>
<path style=" stroke:none;fill-rule:nonzero;fill:rgb(0%,0%,0%);fill-opacity:1;" d="M 222.511719 220.445312 C 223.265625 220.5 223.765625 221.191406 223.902344 221.890625 C 223.972656 222.207031 223.988281 222.507812 224.019531 222.828125 L 224.019531 223.636719 C 223.980469 224.460938 223.78125 225.550781 222.886719 225.882812 C 222.109375 226.191406 221.195312 225.707031 220.964844 224.914062 C 220.789062 224.492188 220.773438 224.066406 220.734375 223.636719 L 220.734375 222.828125 C 220.773438 222 220.949219 220.90625 221.839844 220.542969 L 221.878906 220.523438 L 221.910156 220.515625 L 221.949219 220.5 L 222.070312 220.46875 L 222.140625 220.453125 L 222.226562 220.453125 L 222.242188 220.445312 Z M 222.511719 220.445312 Z M 222.265625 220.929688 C 221.601562 221.007812 221.402344 221.8125 221.355469 222.351562 L 221.355469 222.566406 L 221.339844 222.582031 L 221.339844 223.683594 C 221.386719 224.253906 221.425781 224.992188 221.949219 225.375 C 222.433594 225.707031 223.078125 225.335938 223.210938 224.820312 C 223.355469 224.4375 223.386719 224.066406 223.417969 223.683594 L 223.417969 222.582031 C 223.371094 222 223.289062 221.191406 222.625 220.960938 L 222.570312 220.945312 L 222.554688 220.929688 L 222.480469 220.929688 L 222.464844 220.914062 L 222.28125 220.914062 Z M 222.265625 220.929688 Z M 222.265625 220.929688 "/>
<path style=" stroke:none;fill-rule:nonzero;fill:rgb(0%,0%,0%);fill-opacity:1;" d="M 245.652344 220.445312 L 245.652344 225.34375 L 245.660156 225.359375 L 246.636719 225.359375 L 246.636719 225.796875 L 244.054688 225.796875 L 244.054688 225.359375 L 245.03125 225.359375 L 245.046875 225.34375 L 245.046875 221.230469 C 244.714844 221.34375 244.363281 221.414062 244.015625 221.40625 L 244.015625 220.960938 C 244.539062 220.96875 245.109375 220.828125 245.507812 220.445312 Z M 245.652344 220.445312 Z M 245.652344 220.445312 "/>
<path style=" stroke:none;fill-rule:nonzero;fill:rgb(0%,0%,0%);fill-opacity:1;" d="M 248.683594 225.160156 L 248.683594 225.796875 L 248.039062 225.796875 L 248.039062 225.160156 Z M 248.683594 225.160156 Z M 248.683594 225.160156 "/>
<path style=" stroke:none;fill-rule:nonzero;fill:rgb(0%,0%,0%);fill-opacity:1;" d="M 252.746094 220.613281 L 252.746094 221.105469 L 250.683594 221.105469 L 250.667969 221.113281 L 250.667969 222.738281 C 250.859375 222.613281 251.128906 222.445312 251.382812 222.4375 C 252.277344 222.34375 252.96875 223.222656 253.007812 224.042969 C 253.136719 225.082031 252.160156 226.113281 251.113281 225.953125 C 250.585938 225.9375 250.078125 225.628906 249.777344 225.199219 C 249.867188 225.082031 249.9375 224.875 250.039062 224.804688 C 250.414062 225.535156 251.621094 225.828125 252.105469 225.058594 C 252.414062 224.476562 252.40625 223.738281 252.046875 223.183594 C 251.636719 222.652344 250.816406 222.976562 250.628906 223.542969 L 250.113281 223.542969 L 250.113281 220.613281 Z M 252.746094 220.613281 Z M 252.746094 220.613281 "/>
<path style=" stroke:none;fill-rule:nonzero;fill:rgb(0%,0%,0%);fill-opacity:1;" d="M 274.375 220.445312 C 275.296875 220.46875 276.027344 221.414062 275.882812 222.304688 C 275.789062 223.191406 274.957031 223.699219 274.359375 224.253906 L 274.105469 224.515625 L 274.074219 224.535156 L 273.757812 224.84375 L 273.734375 224.859375 L 273.417969 225.175781 L 273.382812 225.191406 L 273.3125 225.261719 L 273.328125 225.273438 L 275.902344 225.273438 L 275.902344 225.796875 L 272.757812 225.796875 L 272.757812 225.320312 L 274.035156 224.042969 C 274.648438 223.507812 275.359375 222.820312 275.25 221.945312 C 275.1875 221.4375 274.757812 220.96875 274.234375 220.929688 C 273.703125 220.851562 273.234375 221.269531 273.113281 221.777344 L 273.097656 221.804688 L 273.082031 221.859375 L 273.058594 221.945312 L 273.011719 222.121094 L 273.003906 222.160156 C 272.890625 222.023438 272.773438 221.882812 272.6875 221.730469 C 272.84375 221.082031 273.367188 220.46875 274.058594 220.445312 Z M 274.375 220.445312 Z M 274.375 220.445312 "/>
<path style=" stroke:none;fill-rule:nonzero;fill:rgb(0%,0%,0%);fill-opacity:1;" d="M 277.742188 225.160156 L 277.742188 225.796875 L 277.097656 225.796875 L 277.097656 225.160156 Z M 277.742188 225.160156 Z M 277.742188 225.160156 "/>
<path style=" stroke:none;fill-rule:nonzero;fill:rgb(0%,0%,0%);fill-opacity:1;" d="M 280.632812 220.445312 C 281.386719 220.5 281.886719 221.191406 282.019531 221.890625 C 282.089844 222.207031 282.105469 222.507812 282.140625 222.828125 L 282.140625 223.636719 C 282.097656 224.460938 281.902344 225.550781 281.003906 225.882812 C 280.226562 226.191406 279.3125 225.707031 279.082031 224.914062 C 278.910156 224.492188 278.894531 224.066406 278.851562 223.636719 L 278.851562 222.828125 C 278.894531 222 279.066406 220.90625 279.957031 220.542969 L 279.996094 220.523438 L 280.027344 220.515625 L 280.066406 220.5 L 280.1875 220.46875 L 280.257812 220.453125 L 280.34375 220.453125 L 280.359375 220.445312 Z M 280.632812 220.445312 Z M 280.386719 220.929688 C 279.71875 221.007812 279.519531 221.8125 279.472656 222.351562 L 279.472656 222.566406 L 279.457031 222.582031 L 279.457031 223.683594 C 279.503906 224.253906 279.542969 224.992188 280.066406 225.375 C 280.550781 225.707031 281.195312 225.335938 281.328125 224.820312 C 281.472656 224.4375 281.503906 224.066406 281.535156 223.683594 L 281.535156 222.582031 C 281.488281 222 281.410156 221.191406 280.742188 220.960938 L 280.6875 220.945312 L 280.671875 220.929688 L 280.597656 220.929688 L 280.582031 220.914062 L 280.402344 220.914062 Z M 280.386719 220.929688 Z M 280.386719 220.929688 "/>
<path style="fill:none;stroke-width:0.02;stroke-linecap:butt;stroke-linejoin:miter;stroke:rgb(0%,0%,0%);stroke-opacity:1;stroke-miterlimit:10;" d="M 1.550155 7.838356 L 1.550155 7.73335 " transform="matrix(28.346457,0,0,-28.346457,1,227.771654)"/>
<path style="fill:none;stroke-width:0.02;stroke-linecap:butt;stroke-linejoin:miter;stroke:rgb(0%,0%,0%);stroke-opacity:1;stroke-miterlimit:10;" d="M 2.575278 7.838356 L 2.575278 7.73335 " transform="matrix(28.346457,0,0,-28.346457,1,227.771654)"/>
<path style="fill:none;stroke-width:0.02;stroke-linecap:butt;stroke-linejoin:miter;stroke:rgb(0%,0%,0%);stroke-opacity:1;stroke-miterlimit:10;" d="M 3.6004 7.838356 L 3.6004 7.73335 " transform="matrix(28.346457,0,0,-28.346457,1,227.771654)"/>
<path style="fill:none;stroke-width:0.02;stroke-linecap:butt;stroke-linejoin:miter;stroke:rgb(0%,0%,0%);stroke-opacity:1;stroke-miterlimit:10;" d="M 4.625523 7.838356 L 4.625523 7.73335 " transform="matrix(28.346457,0,0,-28.346457,1,227.771654)"/>
<path style="fill:none;stroke-width:0.02;stroke-linecap:butt;stroke-linejoin:miter;stroke:rgb(0%,0%,0%);stroke-opacity:1;stroke-miterlimit:10;" d="M 5.650646 7.838356 L 5.650646 7.73335 " transform="matrix(28.346457,0,0,-28.346457,1,227.771654)"/>
<path style="fill:none;stroke-width:0.02;stroke-linecap:butt;stroke-linejoin:miter;stroke:rgb(0%,0%,0%);stroke-opacity:1;stroke-miterlimit:10;" d="M 6.675768 7.838356 L 6.675768 7.73335 " transform="matrix(28.346457,0,0,-28.346457,1,227.771654)"/>
<path style="fill:none;stroke-width:0.02;stroke-linecap:butt;stroke-linejoin:miter;stroke:rgb(0%,0%,0%);stroke-opacity:1;stroke-miterlimit:10;" d="M 7.700891 7.838356 L 7.700891 7.73335 " transform="matrix(28.346457,0,0,-28.346457,1,227.771654)"/>
<path style="fill:none;stroke-width:0.02;stroke-linecap:butt;stroke-linejoin:miter;stroke:rgb(0%,0%,0%);stroke-opacity:1;stroke-miterlimit:10;" d="M 8.726151 7.838356 L 8.726151 7.73335 " transform="matrix(28.346457,0,0,-28.346457,1,227.771654)"/>
<path style="fill:none;stroke-width:0.02;stroke-linecap:round;stroke-linejoin:miter;stroke:rgb(0%,0%,0%);stroke-opacity:1;stroke-miterlimit:10;" d="M 0.525033 7.838356 L 9.751274 7.838356 " transform="matrix(28.346457,0,0,-28.346457,1,227.771654)"/>
</g>
</svg>
