<?xml version="1.0" encoding="UTF-8"?>
<svg xmlns="http://www.w3.org/2000/svg" xmlns:xlink="http://www.w3.org/1999/xlink" width="285.464567pt" height="228.771654pt" viewBox="0 0 285.464567 228.771654" version="1.1">
<g id="surface1">
<path style="fill-rule:nonzero;fill:rgb(69.019608%,87.843137%,90.196078%);fill-opacity:1;stroke-width:0.02;stroke-linecap:butt;stroke-linejoin:miter;stroke:rgb(100%,100%,100%);stroke-opacity:1;stroke-miterlimit:10;" d="M 0.722781 0.428369 L 1.814601 0.428369 L 1.814601 0.675451 L 0.722781 0.675451 Z M 0.722781 0.428369 " transform="matrix(28.346457,0,0,-28.346457,1,227.771654)"/>
<path style="fill-rule:nonzero;fill:rgb(69.019608%,87.843137%,90.196078%);fill-opacity:1;stroke-width:0.02;stroke-linecap:butt;stroke-linejoin:miter;stroke:rgb(100%,100%,100%);stroke-opacity:1;stroke-miterlimit:10;" d="M 1.814601 0.428369 L 2.90642 0.428369 L 2.90642 0.675451 L 1.814601 0.675451 Z M 1.814601 0.428369 " transform="matrix(28.346457,0,0,-28.346457,1,227.771654)"/>
<path style="fill-rule:nonzero;fill:rgb(69.019608%,87.843137%,90.196078%);fill-opacity:1;stroke-width:0.02;stroke-linecap:butt;stroke-linejoin:miter;stroke:rgb(100%,100%,100%);stroke-opacity:1;stroke-miterlimit:10;" d="M 2.90642 0.428369 L 3.99824 0.428369 L 3.99824 1.663367 L 2.90642 1.663367 Z M 2.90642 0.428369 " transform="matrix(28.346457,0,0,-28.346457,1,227.771654)"/>
<path style="fill-rule:nonzero;fill:rgb(69.019608%,87.843137%,90.196078%);fill-opacity:1;stroke-width:0.02;stroke-linecap:butt;stroke-linejoin:miter;stroke:rgb(100%,100%,100%);stroke-opacity:1;stroke-miterlimit:10;" d="M 3.99824 0.428369 L 5.09006 0.428369 L 5.09006 3.145309 L 3.99824 3.145309 Z M 3.99824 0.428369 " transform="matrix(28.346457,0,0,-28.346457,1,227.771654)"/>
<path style="fill-rule:nonzero;fill:rgb(69.019608%,87.843137%,90.196078%);fill-opacity:1;stroke-width:0.02;stroke-linecap:butt;stroke-linejoin:miter;stroke:rgb(100%,100%,100%);stroke-opacity:1;stroke-miterlimit:10;" d="M 5.09006 0.428369 L 6.181879 0.428369 L 6.181879 5.615305 L 5.09006 5.615305 Z M 5.09006 0.428369 " transform="matrix(28.346457,0,0,-28.346457,1,227.771654)"/>
<path style="fill-rule:nonzero;fill:rgb(69.019608%,87.843137%,90.196078%);fill-opacity:1;stroke-width:0.02;stroke-linecap:butt;stroke-linejoin:miter;stroke:rgb(100%,100%,100%);stroke-opacity:1;stroke-miterlimit:10;" d="M 6.181879 0.428369 L 7.273699 0.428369 L 7.273699 5.615305 L 6.181879 5.615305 Z M 6.181879 0.428369 " transform="matrix(28.346457,0,0,-28.346457,1,227.771654)"/>
<path style="fill-rule:nonzero;fill:rgb(69.019608%,87.843137%,90.196078%);fill-opacity:1;stroke-width:0.02;stroke-linecap:butt;stroke-linejoin:miter;stroke:rgb(100%,100%,100%);stroke-opacity:1;stroke-miterlimit:10;" d="M 7.273699 0.428369 L 8.365519 0.428369 L 8.365519 7.097247 L 7.273699 7.097247 Z M 7.273699 0.428369 " transform="matrix(28.346457,0,0,-28.346457,1,227.771654)"/>
<path style="fill-rule:nonzero;fill:rgb(69.019608%,87.843137%,90.196078%);fill-opacity:1;stroke-width:0.02;stroke-linecap:butt;stroke-linejoin:miter;stroke:rgb(100%,100%,100%);stroke-opacity:1;stroke-miterlimit:10;" d="M 8.365519 0.428369 L 9.457338 0.428369 L 9.457338 3.639336 L 8.365519 3.639336 Z M 8.365519 0.428369 " transform="matrix(28.346457,0,0,-28.346457,1,227.771654)"/>
<path style="fill:none;stroke-width:0.02;stroke-linecap:butt;stroke-linejoin:miter;stroke:rgb(0%,0%,0%);stroke-opacity:1;stroke-miterlimit:10;" d="M 0.525033 1.663367 L 0.630039 1.663367 " transform="matrix(28.346457,0,0,-28.346457,1,227.771654)"/>
<path style="fill:none;stroke-width:0.02;stroke-linecap:butt;stroke-linejoin:miter;stroke:rgb(0%,0%,0%);stroke-opacity:1;stroke-miterlimit:10;" d="M 0.525033 2.898365 L 0.630039 2.898365 " transform="matrix(28.346457,0,0,-28.346457,1,227.771654)"/>
<path style="fill:none;stroke-width:0.02;stroke-linecap:butt;stroke-linejoin:miter;stroke:rgb(0%,0%,0%);stroke-opacity:1;stroke-miterlimit:10;" d="M 0.525033 4.133363 L 0.630039 4.133363 " transform="matrix(28.346457,0,0,-28.346457,1,227.771654)"/>
<path style="fill:none;stroke-width:0.02;stroke-linecap:butt;stroke-linejoin:miter;stroke:rgb(0%,0%,0%);stroke-opacity:1;stroke-miterlimit:10;" d="M 0.525033 5.36836 L 0.630039 5.36836 " transform="matrix(28.346457,0,0,-28.346457,1,227.771654)"/>
<path style="fill:none;stroke-width:0.02;stroke-linecap:butt;stroke-linejoin:miter;stroke:rgb(0%,0%,0%);stroke-opacity:1;stroke-miterlimit:10;" d="M 0.525033 6.603358 L 0.630039 6.603358 " transform="matrix(28.346457,0,0,-28.346457,1,227.771654)"/>
<path style="fill:none;stroke-width:0.02;stroke-linecap:round;stroke-linejoin:miter;stroke:rgb(0%,0%,0%);stroke-opacity:1;stroke-miterlimit:10;" d="M 0.525033 0.428369 L 0.525033 7.838356 " transform="matrix(28.346457,0,0,-28.346457,1,227.771654)"/>
<path style=" stroke:none;fill-rule:nonzero;fill:rgb(0%,0%,0%);fill-opacity:1;" d="M 9.070312 212.886719 C 9.824219 212.941406 10.324219 213.632812 10.460938 214.332031 C 10.53125 214.648438 10.546875 214.949219 10.578125 215.265625 L 10.578125 216.078125 C 10.539062 216.902344 10.34375 217.988281 9.445312 218.324219 C 8.667969 218.632812 7.753906 218.148438 7.523438 217.355469 C 7.347656 216.933594 7.332031 216.503906 7.292969 216.078125 L 7.292969 215.265625 C 7.332031 214.441406 7.507812 213.347656 8.398438 212.980469 L 8.4375 212.964844 L 8.46875 212.957031 L 8.507812 212.941406 L 8.628906 212.910156 L 8.699219 212.894531 L 8.785156 212.894531 L 8.800781 212.886719 Z M 9.070312 212.886719 Z M 8.824219 213.371094 C 8.160156 213.449219 7.960938 214.25 7.914062 214.789062 L 7.914062 215.003906 L 7.898438 215.019531 L 7.898438 216.125 C 7.945312 216.695312 7.984375 217.433594 8.507812 217.816406 C 8.992188 218.148438 9.636719 217.773438 9.769531 217.257812 C 9.914062 216.878906 9.945312 216.503906 9.976562 216.125 L 9.976562 215.019531 C 9.929688 214.441406 9.851562 213.632812 9.183594 213.402344 L 9.128906 213.386719 L 9.113281 213.371094 L 9.039062 213.371094 L 9.023438 213.355469 L 8.839844 213.355469 Z M 8.824219 213.371094 Z M 8.824219 213.371094 "/>
<path style=" stroke:none;fill-rule:nonzero;fill:rgb(0%,0%,0%);fill-opacity:1;" d="M 10.246094 178.046875 L 10.246094 178.539062 L 8.183594 178.539062 L 8.167969 178.546875 L 8.167969 180.171875 C 8.359375 180.046875 8.628906 179.878906 8.882812 179.871094 C 9.777344 179.773438 10.46875 180.65625 10.507812 181.472656 C 10.636719 182.511719 9.660156 183.546875 8.613281 183.386719 C 8.085938 183.371094 7.578125 183.0625 7.277344 182.632812 C 7.367188 182.511719 7.4375 182.308594 7.539062 182.234375 C 7.914062 182.964844 9.121094 183.257812 9.605469 182.488281 C 9.914062 181.910156 9.90625 181.171875 9.546875 180.617188 C 9.136719 180.085938 8.316406 180.410156 8.128906 180.972656 L 7.613281 180.972656 L 7.613281 178.046875 Z M 10.246094 178.046875 Z M 10.246094 178.046875 "/>
<path style=" stroke:none;fill-rule:nonzero;fill:rgb(0%,0%,0%);fill-opacity:1;" d="M 5.347656 142.871094 L 5.347656 147.769531 L 5.355469 147.785156 L 6.332031 147.785156 L 6.332031 148.21875 L 3.753906 148.21875 L 3.753906 147.785156 L 4.730469 147.785156 L 4.746094 147.769531 L 4.746094 143.65625 C 4.414062 143.769531 4.0625 143.839844 3.714844 143.832031 L 3.714844 143.386719 C 4.238281 143.394531 4.808594 143.253906 5.207031 142.871094 Z M 5.347656 142.871094 Z M 5.347656 142.871094 "/>
<path style=" stroke:none;fill-rule:nonzero;fill:rgb(0%,0%,0%);fill-opacity:1;" d="M 9.070312 142.871094 C 9.824219 142.925781 10.324219 143.617188 10.460938 144.316406 C 10.53125 144.632812 10.546875 144.933594 10.578125 145.253906 L 10.578125 146.0625 C 10.539062 146.886719 10.34375 147.972656 9.445312 148.308594 C 8.667969 148.617188 7.753906 148.132812 7.523438 147.339844 C 7.347656 146.917969 7.332031 146.492188 7.292969 146.0625 L 7.292969 145.253906 C 7.332031 144.425781 7.507812 143.332031 8.398438 142.964844 L 8.4375 142.949219 L 8.46875 142.941406 L 8.507812 142.925781 L 8.628906 142.894531 L 8.699219 142.878906 L 8.785156 142.878906 L 8.800781 142.871094 Z M 9.070312 142.871094 Z M 8.824219 143.355469 C 8.160156 143.433594 7.960938 144.234375 7.914062 144.777344 L 7.914062 144.988281 L 7.898438 145.007812 L 7.898438 146.109375 C 7.945312 146.679688 7.984375 147.417969 8.507812 147.800781 C 8.992188 148.132812 9.636719 147.761719 9.769531 147.246094 C 9.914062 146.863281 9.945312 146.492188 9.976562 146.109375 L 9.976562 145.007812 C 9.929688 144.425781 9.851562 143.617188 9.183594 143.386719 L 9.128906 143.371094 L 9.113281 143.355469 L 9.039062 143.355469 L 9.023438 143.339844 L 8.839844 143.339844 Z M 8.824219 143.355469 Z M 8.824219 143.355469 "/>
<path style=" stroke:none;fill-rule:nonzero;fill:rgb(0%,0%,0%);fill-opacity:1;" d="M 5.347656 107.863281 L 5.347656 112.761719 L 5.355469 112.777344 L 6.332031 112.777344 L 6.332031 113.214844 L 3.753906 113.214844 L 3.753906 112.777344 L 4.730469 112.777344 L 4.746094 112.761719 L 4.746094 108.648438 C 4.414062 108.761719 4.0625 108.832031 3.714844 108.824219 L 3.714844 108.378906 C 4.238281 108.386719 4.808594 108.246094 5.207031 107.863281 Z M 5.347656 107.863281 Z M 5.347656 107.863281 "/>
<path style=" stroke:none;fill-rule:nonzero;fill:rgb(0%,0%,0%);fill-opacity:1;" d="M 10.246094 108.03125 L 10.246094 108.523438 L 8.183594 108.523438 L 8.167969 108.53125 L 8.167969 110.15625 C 8.359375 110.03125 8.628906 109.863281 8.882812 109.855469 C 9.777344 109.761719 10.46875 110.640625 10.507812 111.460938 C 10.636719 112.5 9.660156 113.53125 8.613281 113.371094 C 8.085938 113.355469 7.578125 113.046875 7.277344 112.617188 C 7.367188 112.5 7.4375 112.292969 7.539062 112.222656 C 7.914062 112.953125 9.121094 113.246094 9.605469 112.476562 C 9.914062 111.894531 9.90625 111.15625 9.546875 110.601562 C 9.136719 110.070312 8.316406 110.394531 8.128906 110.960938 L 7.613281 110.960938 L 7.613281 108.03125 Z M 10.246094 108.03125 Z M 10.246094 108.03125 "/>
<path style=" stroke:none;fill-rule:nonzero;fill:rgb(0%,0%,0%);fill-opacity:1;" d="M 5.015625 72.855469 C 5.9375 72.878906 6.667969 73.824219 6.523438 74.714844 C 6.429688 75.601562 5.59375 76.109375 5 76.664062 L 4.746094 76.929688 L 4.714844 76.945312 L 4.398438 77.253906 L 4.375 77.269531 L 4.054688 77.585938 L 4.023438 77.601562 L 3.953125 77.675781 L 3.96875 77.683594 L 6.539062 77.683594 L 6.539062 78.207031 L 3.398438 78.207031 L 3.398438 77.730469 L 4.675781 76.453125 C 5.285156 75.917969 6 75.230469 5.890625 74.355469 C 5.824219 73.847656 5.398438 73.378906 4.875 73.339844 C 4.339844 73.261719 3.875 73.679688 3.753906 74.191406 L 3.738281 74.214844 L 3.722656 74.269531 L 3.699219 74.355469 L 3.652344 74.53125 L 3.644531 74.570312 C 3.53125 74.4375 3.414062 74.292969 3.324219 74.140625 C 3.484375 73.492188 4.007812 72.878906 4.699219 72.855469 Z M 5.015625 72.855469 Z M 5.015625 72.855469 "/>
<path style=" stroke:none;fill-rule:nonzero;fill:rgb(0%,0%,0%);fill-opacity:1;" d="M 9.070312 72.855469 C 9.824219 72.910156 10.324219 73.601562 10.460938 74.300781 C 10.53125 74.617188 10.546875 74.917969 10.578125 75.238281 L 10.578125 76.046875 C 10.539062 76.871094 10.34375 77.960938 9.445312 78.292969 C 8.667969 78.601562 7.753906 78.117188 7.523438 77.324219 C 7.347656 76.902344 7.332031 76.476562 7.292969 76.046875 L 7.292969 75.238281 C 7.332031 74.410156 7.507812 73.316406 8.398438 72.953125 L 8.4375 72.9375 L 8.46875 72.925781 L 8.507812 72.910156 L 8.628906 72.878906 L 8.699219 72.863281 L 8.785156 72.863281 L 8.800781 72.855469 Z M 9.070312 72.855469 Z M 8.824219 73.339844 C 8.160156 73.417969 7.960938 74.222656 7.914062 74.761719 L 7.914062 74.976562 L 7.898438 74.992188 L 7.898438 76.09375 C 7.945312 76.664062 7.984375 77.402344 8.507812 77.785156 C 8.992188 78.117188 9.636719 77.746094 9.769531 77.230469 C 9.914062 76.847656 9.945312 76.476562 9.976562 76.09375 L 9.976562 74.992188 C 9.929688 74.410156 9.851562 73.601562 9.183594 73.371094 L 9.128906 73.355469 L 9.113281 73.339844 L 9.039062 73.339844 L 9.023438 73.324219 L 8.839844 73.324219 Z M 8.824219 73.339844 Z M 8.824219 73.339844 "/>
<path style=" stroke:none;fill-rule:nonzero;fill:rgb(0%,0%,0%);fill-opacity:1;" d="M 5.015625 37.847656 C 5.9375 37.871094 6.667969 38.816406 6.523438 39.707031 C 6.429688 40.59375 5.59375 41.101562 5 41.660156 L 4.746094 41.921875 L 4.714844 41.9375 L 4.398438 42.246094 L 4.375 42.261719 L 4.054688 42.578125 L 4.023438 42.59375 L 3.953125 42.667969 L 3.96875 42.675781 L 6.539062 42.675781 L 6.539062 43.199219 L 3.398438 43.199219 L 3.398438 42.722656 L 4.675781 41.445312 C 5.285156 40.914062 6 40.222656 5.890625 39.347656 C 5.824219 38.839844 5.398438 38.371094 4.875 38.332031 C 4.339844 38.253906 3.875 38.675781 3.753906 39.183594 L 3.738281 39.207031 L 3.722656 39.261719 L 3.699219 39.347656 L 3.652344 39.523438 L 3.644531 39.5625 C 3.53125 39.429688 3.414062 39.285156 3.324219 39.132812 C 3.484375 38.484375 4.007812 37.871094 4.699219 37.847656 Z M 5.015625 37.847656 Z M 5.015625 37.847656 "/>
<path style=" stroke:none;fill-rule:nonzero;fill:rgb(0%,0%,0%);fill-opacity:1;" d="M 10.246094 38.015625 L 10.246094 38.507812 L 8.183594 38.507812 L 8.167969 38.515625 L 8.167969 40.144531 C 8.359375 40.015625 8.628906 39.847656 8.882812 39.839844 C 9.777344 39.746094 10.46875 40.625 10.507812 41.445312 C 10.636719 42.484375 9.660156 43.515625 8.613281 43.355469 C 8.085938 43.339844 7.578125 43.03125 7.277344 42.601562 C 7.367188 42.484375 7.4375 42.277344 7.539062 42.207031 C 7.914062 42.9375 9.121094 43.230469 9.605469 42.460938 C 9.914062 41.878906 9.90625 41.144531 9.546875 40.585938 C 9.136719 40.054688 8.316406 40.378906 8.128906 40.945312 L 7.613281 40.945312 L 7.613281 38.015625 Z M 10.246094 38.015625 Z M 10.246094 38.015625 "/>
<path style=" stroke:none;fill-rule:nonzero;fill:rgb(0%,0%,0%);fill-opacity:1;" d="M 5.121094 2.839844 C 5.816406 2.875 6.546875 3.515625 6.382812 4.253906 C 6.300781 4.753906 5.953125 5.167969 5.515625 5.390625 C 6.222656 5.613281 6.769531 6.359375 6.578125 7.09375 C 6.390625 8.054688 5.285156 8.585938 4.398438 8.292969 C 3.96875 8.167969 3.53125 7.898438 3.324219 7.5 C 3.375 7.382812 3.355469 7.175781 3.414062 7.09375 C 3.832031 7.714844 4.722656 8.136719 5.421875 7.785156 C 6.183594 7.300781 6.0625 5.890625 5.144531 5.652344 L 5.070312 5.652344 L 5.054688 5.636719 L 4.316406 5.636719 L 4.316406 5.160156 C 4.769531 5.152344 5.332031 5.09375 5.585938 4.628906 C 5.859375 4.222656 5.832031 3.554688 5.316406 3.355469 C 4.707031 3.121094 3.953125 3.507812 3.722656 4.128906 C 3.628906 3.992188 3.53125 3.855469 3.4375 3.714844 C 3.761719 3.128906 4.453125 2.777344 5.121094 2.839844 Z M 5.121094 2.839844 Z M 5.121094 2.839844 "/>
<path style=" stroke:none;fill-rule:nonzero;fill:rgb(0%,0%,0%);fill-opacity:1;" d="M 9.070312 2.839844 C 9.824219 2.898438 10.324219 3.585938 10.460938 4.285156 C 10.53125 4.601562 10.546875 4.90625 10.578125 5.222656 L 10.578125 6.03125 C 10.539062 6.859375 10.34375 7.945312 9.445312 8.277344 C 8.667969 8.585938 7.753906 8.105469 7.523438 7.308594 C 7.347656 6.890625 7.332031 6.460938 7.292969 6.03125 L 7.292969 5.222656 C 7.332031 4.398438 7.507812 3.300781 8.398438 2.9375 L 8.4375 2.921875 L 8.46875 2.914062 L 8.507812 2.898438 L 8.628906 2.863281 L 8.699219 2.847656 L 8.785156 2.847656 L 8.800781 2.839844 Z M 9.070312 2.839844 Z M 8.824219 3.324219 C 8.160156 3.40625 7.960938 4.207031 7.914062 4.746094 L 7.914062 4.960938 L 7.898438 4.976562 L 7.898438 6.078125 C 7.945312 6.652344 7.984375 7.390625 8.507812 7.769531 C 8.992188 8.105469 9.636719 7.730469 9.769531 7.214844 C 9.914062 6.832031 9.945312 6.460938 9.976562 6.078125 L 9.976562 4.976562 C 9.929688 4.398438 9.851562 3.585938 9.183594 3.355469 L 9.128906 3.339844 L 9.113281 3.324219 L 9.039062 3.324219 L 9.023438 3.308594 L 8.839844 3.308594 Z M 8.824219 3.324219 Z M 8.824219 3.324219 "/>
<path style="fill:none;stroke-width:0.02;stroke-linecap:butt;stroke-linejoin:miter;stroke:rgb(0%,0%,0%);stroke-opacity:1;stroke-miterlimit:10;" d="M 9.860001 1.663367 L 9.754995 1.663367 " transform="matrix(28.346457,0,0,-28.346457,1,227.771654)"/>
<path style="fill:none;stroke-width:0.02;stroke-linecap:butt;stroke-linejoin:miter;stroke:rgb(0%,0%,0%);stroke-opacity:1;stroke-miterlimit:10;" d="M 9.860001 2.898365 L 9.754995 2.898365 " transform="matrix(28.346457,0,0,-28.346457,1,227.771654)"/>
<path style="fill:none;stroke-width:0.02;stroke-linecap:butt;stroke-linejoin:miter;stroke:rgb(0%,0%,0%);stroke-opacity:1;stroke-miterlimit:10;" d="M 9.860001 4.133363 L 9.754995 4.133363 " transform="matrix(28.346457,0,0,-28.346457,1,227.771654)"/>
<path style="fill:none;stroke-width:0.02;stroke-linecap:butt;stroke-linejoin:miter;stroke:rgb(0%,0%,0%);stroke-opacity:1;stroke-miterlimit:10;" d="M 9.860001 5.36836 L 9.754995 5.36836 " transform="matrix(28.346457,0,0,-28.346457,1,227.771654)"/>
<path style="fill:none;stroke-width:0.02;stroke-linecap:butt;stroke-linejoin:miter;stroke:rgb(0%,0%,0%);stroke-opacity:1;stroke-miterlimit:10;" d="M 9.860001 6.603358 L 9.754995 6.603358 " transform="matrix(28.346457,0,0,-28.346457,1,227.771654)"/>
<path style="fill:none;stroke-width:0.02;stroke-linecap:round;stroke-linejoin:miter;stroke:rgb(0%,0%,0%);stroke-opacity:1;stroke-miterlimit:10;" d="M 9.860001 0.428369 L 9.860001 7.838356 " transform="matrix(28.346457,0,0,-28.346457,1,227.771654)"/>
<path style="fill:none;stroke-width:0.02;stroke-linecap:butt;stroke-linejoin:miter;stroke:rgb(0%,0%,0%);stroke-opacity:1;stroke-miterlimit:10;" d="M 2.080838 0.428369 L 2.080838 0.533376 " transform="matrix(28.346457,0,0,-28.346457,1,227.771654)"/>
<path style="fill:none;stroke-width:0.02;stroke-linecap:butt;stroke-linejoin:miter;stroke:rgb(0%,0%,0%);stroke-opacity:1;stroke-miterlimit:10;" d="M 3.636643 0.428369 L 3.636643 0.533376 " transform="matrix(28.346457,0,0,-28.346457,1,227.771654)"/>
<path style="fill:none;stroke-width:0.02;stroke-linecap:butt;stroke-linejoin:miter;stroke:rgb(0%,0%,0%);stroke-opacity:1;stroke-miterlimit:10;" d="M 5.192448 0.428369 L 5.192448 0.533376 " transform="matrix(28.346457,0,0,-28.346457,1,227.771654)"/>
<path style="fill:none;stroke-width:0.02;stroke-linecap:butt;stroke-linejoin:miter;stroke:rgb(0%,0%,0%);stroke-opacity:1;stroke-miterlimit:10;" d="M 6.748391 0.428369 L 6.748391 0.533376 " transform="matrix(28.346457,0,0,-28.346457,1,227.771654)"/>
<path style="fill:none;stroke-width:0.02;stroke-linecap:butt;stroke-linejoin:miter;stroke:rgb(0%,0%,0%);stroke-opacity:1;stroke-miterlimit:10;" d="M 8.304196 0.428369 L 8.304196 0.533376 " transform="matrix(28.346457,0,0,-28.346457,1,227.771654)"/>
<path style="fill:none;stroke-width:0.02;stroke-linecap:round;stroke-linejoin:miter;stroke:rgb(0%,0%,0%);stroke-opacity:1;stroke-miterlimit:10;" d="M 0.525033 0.428369 L 9.860001 0.428369 " transform="matrix(28.346457,0,0,-28.346457,1,227.771654)"/>
<path style=" stroke:none;fill-rule:nonzero;fill:rgb(0%,0%,0%);fill-opacity:1;" d="M 14.75 223.828125 L 14.75 224.269531 L 12.671875 224.269531 L 12.671875 223.828125 Z M 14.75 223.828125 Z M 14.75 223.828125 "/>
<path style=" stroke:none;fill-rule:nonzero;fill:rgb(0%,0%,0%);fill-opacity:1;" d="M 18.15625 220.613281 L 18.15625 223.953125 L 18.171875 223.96875 L 18.957031 223.96875 L 18.957031 224.445312 L 18.171875 224.445312 L 18.15625 224.453125 L 18.15625 225.796875 L 17.550781 225.796875 L 17.550781 224.453125 L 17.535156 224.445312 L 15.441406 224.445312 L 15.441406 223.953125 C 16.109375 222.84375 16.773438 221.722656 17.441406 220.613281 Z M 18.15625 220.613281 Z M 17.570312 220.914062 C 17.410156 221.738281 16.902344 222.445312 16.519531 223.167969 C 16.371094 223.429688 16.171875 223.714844 16.058594 223.96875 L 17.585938 223.96875 L 17.59375 223.953125 L 17.59375 220.914062 L 17.585938 220.898438 Z M 17.570312 220.914062 Z M 17.570312 220.914062 "/>
<path style=" stroke:none;fill-rule:nonzero;fill:rgb(0%,0%,0%);fill-opacity:1;" d="M 58.851562 223.828125 L 58.851562 224.269531 L 56.773438 224.269531 L 56.773438 223.828125 Z M 58.851562 223.828125 Z M 58.851562 223.828125 "/>
<path style=" stroke:none;fill-rule:nonzero;fill:rgb(0%,0%,0%);fill-opacity:1;" d="M 61.457031 220.445312 C 62.15625 220.476562 62.886719 221.121094 62.71875 221.859375 C 62.640625 222.359375 62.289062 222.769531 61.851562 222.992188 C 62.558594 223.214844 63.109375 223.960938 62.917969 224.699219 C 62.726562 225.660156 61.625 226.191406 60.734375 225.898438 C 60.304688 225.773438 59.871094 225.5 59.664062 225.105469 C 59.710938 224.984375 59.695312 224.78125 59.75 224.699219 C 60.171875 225.320312 61.058594 225.738281 61.757812 225.390625 C 62.519531 224.90625 62.402344 223.492188 61.480469 223.253906 L 61.410156 223.253906 L 61.394531 223.238281 L 60.65625 223.238281 L 60.65625 222.761719 C 61.105469 222.753906 61.671875 222.699219 61.925781 222.230469 C 62.195312 221.828125 62.171875 221.160156 61.65625 220.960938 C 61.042969 220.722656 60.289062 221.113281 60.058594 221.730469 C 59.964844 221.597656 59.871094 221.460938 59.773438 221.320312 C 60.097656 220.730469 60.789062 220.382812 61.457031 220.445312 Z M 61.457031 220.445312 Z M 61.457031 220.445312 "/>
<path style=" stroke:none;fill-rule:nonzero;fill:rgb(0%,0%,0%);fill-opacity:1;" d="M 102.957031 223.828125 L 102.957031 224.269531 L 100.875 224.269531 L 100.875 223.828125 Z M 102.957031 223.828125 Z M 102.957031 223.828125 "/>
<path style=" stroke:none;fill-rule:nonzero;fill:rgb(0%,0%,0%);fill-opacity:1;" d="M 105.457031 220.445312 C 106.375 220.46875 107.105469 221.414062 106.964844 222.304688 C 106.867188 223.191406 106.035156 223.699219 105.441406 224.253906 L 105.1875 224.515625 L 105.152344 224.535156 L 104.835938 224.84375 L 104.8125 224.859375 L 104.496094 225.175781 L 104.464844 225.191406 L 104.390625 225.261719 L 104.40625 225.273438 L 106.980469 225.273438 L 106.980469 225.796875 L 103.835938 225.796875 L 103.835938 225.320312 L 105.113281 224.042969 C 105.726562 223.507812 106.441406 222.820312 106.328125 221.945312 C 106.265625 221.4375 105.835938 220.96875 105.3125 220.929688 C 104.78125 220.851562 104.3125 221.269531 104.195312 221.777344 L 104.179688 221.804688 L 104.160156 221.859375 L 104.136719 221.945312 L 104.089844 222.121094 L 104.082031 222.160156 C 103.972656 222.023438 103.851562 221.882812 103.765625 221.730469 C 103.925781 221.082031 104.449219 220.46875 105.136719 220.445312 Z M 105.457031 220.445312 Z M 105.457031 220.445312 "/>
<path style=" stroke:none;fill-rule:nonzero;fill:rgb(0%,0%,0%);fill-opacity:1;" d="M 147.058594 223.828125 L 147.058594 224.269531 L 144.976562 224.269531 L 144.976562 223.828125 Z M 147.058594 223.828125 Z M 147.058594 223.828125 "/>
<path style=" stroke:none;fill-rule:nonzero;fill:rgb(0%,0%,0%);fill-opacity:1;" d="M 149.890625 220.445312 L 149.890625 225.34375 L 149.898438 225.359375 L 150.875 225.359375 L 150.875 225.796875 L 148.296875 225.796875 L 148.296875 225.359375 L 149.273438 225.359375 L 149.289062 225.34375 L 149.289062 221.230469 C 148.953125 221.34375 148.605469 221.414062 148.257812 221.40625 L 148.257812 220.960938 C 148.78125 220.96875 149.351562 220.828125 149.75 220.445312 Z M 149.890625 220.445312 Z M 149.890625 220.445312 "/>
<path style=" stroke:none;fill-rule:nonzero;fill:rgb(0%,0%,0%);fill-opacity:1;" d="M 192.425781 220.445312 C 193.179688 220.5 193.679688 221.191406 193.816406 221.890625 C 193.886719 222.207031 193.902344 222.507812 193.933594 222.828125 L 193.933594 223.636719 C 193.894531 224.460938 193.695312 225.550781 192.800781 225.882812 C 192.019531 226.191406 191.109375 225.707031 190.878906 224.914062 C 190.703125 224.492188 190.6875 224.066406 190.648438 223.636719 L 190.648438 222.828125 C 190.6875 222 190.863281 220.90625 191.75 220.542969 L 191.792969 220.523438 L 191.824219 220.515625 L 191.863281 220.5 L 191.980469 220.46875 L 192.054688 220.453125 L 192.140625 220.453125 L 192.15625 220.445312 Z M 192.425781 220.445312 Z M 192.179688 220.929688 C 191.511719 221.007812 191.316406 221.8125 191.265625 222.351562 L 191.265625 222.566406 L 191.25 222.582031 L 191.25 223.683594 C 191.300781 224.253906 191.339844 224.992188 191.863281 225.375 C 192.347656 225.707031 192.988281 225.335938 193.125 224.820312 C 193.269531 224.4375 193.300781 224.066406 193.332031 223.683594 L 193.332031 222.582031 C 193.285156 222 193.203125 221.191406 192.539062 220.960938 L 192.480469 220.945312 L 192.464844 220.929688 L 192.394531 220.929688 L 192.378906 220.914062 L 192.195312 220.914062 Z M 192.179688 220.929688 Z M 192.179688 220.929688 "/>
<path style=" stroke:none;fill-rule:nonzero;fill:rgb(0%,0%,0%);fill-opacity:1;" d="M 236.773438 220.445312 L 236.773438 225.34375 L 236.78125 225.359375 L 237.757812 225.359375 L 237.757812 225.796875 L 235.179688 225.796875 L 235.179688 225.359375 L 236.15625 225.359375 L 236.171875 225.34375 L 236.171875 221.230469 C 235.839844 221.34375 235.488281 221.414062 235.140625 221.40625 L 235.140625 220.960938 C 235.664062 220.96875 236.234375 220.828125 236.632812 220.445312 Z M 236.773438 220.445312 Z M 236.773438 220.445312 "/>
<path style=" stroke:none;fill-rule:nonzero;fill:rgb(0%,0%,0%);fill-opacity:1;" d="M 280.542969 220.445312 C 281.464844 220.46875 282.195312 221.414062 282.050781 222.304688 C 281.957031 223.191406 281.125 223.699219 280.527344 224.253906 L 280.273438 224.515625 L 280.242188 224.535156 L 279.925781 224.84375 L 279.902344 224.859375 L 279.582031 225.175781 L 279.550781 225.191406 L 279.480469 225.261719 L 279.496094 225.273438 L 282.066406 225.273438 L 282.066406 225.796875 L 278.925781 225.796875 L 278.925781 225.320312 L 280.203125 224.042969 C 280.8125 223.507812 281.527344 222.820312 281.417969 221.945312 C 281.351562 221.4375 280.925781 220.96875 280.402344 220.929688 C 279.867188 220.851562 279.402344 221.269531 279.28125 221.777344 L 279.265625 221.804688 L 279.25 221.859375 L 279.226562 221.945312 L 279.179688 222.121094 L 279.171875 222.160156 C 279.058594 222.023438 278.941406 221.882812 278.851562 221.730469 C 279.011719 221.082031 279.535156 220.46875 280.226562 220.445312 Z M 280.542969 220.445312 Z M 280.542969 220.445312 "/>
<path style="fill:none;stroke-width:0.02;stroke-linecap:butt;stroke-linejoin:miter;stroke:rgb(0%,0%,0%);stroke-opacity:1;stroke-miterlimit:10;" d="M 2.080838 7.838356 L 2.080838 7.73335 " transform="matrix(28.346457,0,0,-28.346457,1,227.771654)"/>
<path style="fill:none;stroke-width:0.02;stroke-linecap:butt;stroke-linejoin:miter;stroke:rgb(0%,0%,0%);stroke-opacity:1;stroke-miterlimit:10;" d="M 3.636643 7.838356 L 3.636643 7.73335 " transform="matrix(28.346457,0,0,-28.346457,1,227.771654)"/>
<path style="fill:none;stroke-width:0.02;stroke-linecap:butt;stroke-linejoin:miter;stroke:rgb(0%,0%,0%);stroke-opacity:1;stroke-miterlimit:10;" d="M 5.192448 7.838356 L 5.192448 7.73335 " transform="matrix(28.346457,0,0,-28.346457,1,227.771654)"/>
<path style="fill:none;stroke-width:0.02;stroke-linecap:butt;stroke-linejoin:miter;stroke:rgb(0%,0%,0%);stroke-opacity:1;stroke-miterlimit:10;" d="M 6.748391 7.838356 L 6.748391 7.73335 " transform="matrix(28.346457,0,0,-28.346457,1,227.771654)"/>
<path style="fill:none;stroke-width:0.02;stroke-linecap:butt;stroke-linejoin:miter;stroke:rgb(0%,0%,0%);stroke-opacity:1;stroke-miterlimit:10;" d="M 8.304196 7.838356 L 8.304196 7.73335 " transform="matrix(28.346457,0,0,-28.346457,1,227.771654)"/>
<path style="fill:none;stroke-width:0.02;stroke-linecap:round;stroke-linejoin:miter;stroke:rgb(0%,0%,0%);stroke-opacity:1;stroke-miterlimit:10;" d="M 0.525033 7.838356 L 9.860001 7.838356 " transform="matrix(28.346457,0,0,-28.346457,1,227.771654)"/>
</g>
</svg>
