<?xml version="1.0" encoding="UTF-8"?>
<svg xmlns="http://www.w3.org/2000/svg" xmlns:xlink="http://www.w3.org/1999/xlink" width="285.464567pt" height="228.771654pt" viewBox="0 0 285.464567 228.771654" version="1.1">
<g id="surface1">
<path style="fill-rule:nonzero;fill:rgb(100%,100%,100%);fill-opacity:1;stroke-width:0.02;stroke-linecap:butt;stroke-linejoin:miter;stroke:rgb(32.941176%,47.058824%,63.921569%);stroke-opacity:1;stroke-miterlimit:10;" d="M 1.582677 0.428369 L 1.735363 0.428369 L 1.735363 0.642516 L 1.582677 0.642516 Z M 1.582677 0.428369 " transform="matrix(28.346457,0,0,-28.346457,1,227.771654)"/>
<path style="fill-rule:nonzero;fill:rgb(100%,100%,100%);fill-opacity:1;stroke-width:0.02;stroke-linecap:butt;stroke-linejoin:miter;stroke:rgb(32.941176%,47.058824%,63.921569%);stroke-opacity:1;stroke-miterlimit:10;" d="M 1.735363 0.428369 L 1.887912 0.428369 L 1.887912 0.642516 L 1.735363 0.642516 Z M 1.735363 0.428369 " transform="matrix(28.346457,0,0,-28.346457,1,227.771654)"/>
<path style="fill-rule:nonzero;fill:rgb(100%,100%,100%);fill-opacity:1;stroke-width:0.02;stroke-linecap:butt;stroke-linejoin:miter;stroke:rgb(32.941176%,47.058824%,63.921569%);stroke-opacity:1;stroke-miterlimit:10;" d="M 2.345697 0.428369 L 2.498245 0.428369 L 2.498245 0.642516 L 2.345697 0.642516 Z M 2.345697 0.428369 " transform="matrix(28.346457,0,0,-28.346457,1,227.771654)"/>
<path style="fill-rule:nonzero;fill:rgb(100%,100%,100%);fill-opacity:1;stroke-width:0.02;stroke-linecap:butt;stroke-linejoin:miter;stroke:rgb(32.941176%,47.058824%,63.921569%);stroke-opacity:1;stroke-miterlimit:10;" d="M 2.95603 0.428369 L 3.108716 0.428369 L 3.108716 1.070535 L 2.95603 1.070535 Z M 2.95603 0.428369 " transform="matrix(28.346457,0,0,-28.346457,1,227.771654)"/>
<path style="fill-rule:nonzero;fill:rgb(100%,100%,100%);fill-opacity:1;stroke-width:0.02;stroke-linecap:butt;stroke-linejoin:miter;stroke:rgb(32.941176%,47.058824%,63.921569%);stroke-opacity:1;stroke-miterlimit:10;" d="M 3.261265 0.428369 L 3.413814 0.428369 L 3.413814 0.856526 L 3.261265 0.856526 Z M 3.261265 0.428369 " transform="matrix(28.346457,0,0,-28.346457,1,227.771654)"/>
<path style="fill-rule:nonzero;fill:rgb(100%,100%,100%);fill-opacity:1;stroke-width:0.02;stroke-linecap:butt;stroke-linejoin:miter;stroke:rgb(32.941176%,47.058824%,63.921569%);stroke-opacity:1;stroke-miterlimit:10;" d="M 3.413814 0.428369 L 3.566501 0.428369 L 3.566501 1.926848 L 3.413814 1.926848 Z M 3.413814 0.428369 " transform="matrix(28.346457,0,0,-28.346457,1,227.771654)"/>
<path style="fill-rule:nonzero;fill:rgb(100%,100%,100%);fill-opacity:1;stroke-width:0.02;stroke-linecap:butt;stroke-linejoin:miter;stroke:rgb(32.941176%,47.058824%,63.921569%);stroke-opacity:1;stroke-miterlimit:10;" d="M 3.566501 0.428369 L 3.719049 0.428369 L 3.719049 1.284682 L 3.566501 1.284682 Z M 3.566501 0.428369 " transform="matrix(28.346457,0,0,-28.346457,1,227.771654)"/>
<path style="fill-rule:nonzero;fill:rgb(100%,100%,100%);fill-opacity:1;stroke-width:0.02;stroke-linecap:butt;stroke-linejoin:miter;stroke:rgb(32.941176%,47.058824%,63.921569%);stroke-opacity:1;stroke-miterlimit:10;" d="M 3.719049 0.428369 L 3.871736 0.428369 L 3.871736 1.070535 L 3.719049 1.070535 Z M 3.719049 0.428369 " transform="matrix(28.346457,0,0,-28.346457,1,227.771654)"/>
<path style="fill-rule:nonzero;fill:rgb(100%,100%,100%);fill-opacity:1;stroke-width:0.02;stroke-linecap:butt;stroke-linejoin:miter;stroke:rgb(32.941176%,47.058824%,63.921569%);stroke-opacity:1;stroke-miterlimit:10;" d="M 3.871736 0.428369 L 4.024285 0.428369 L 4.024285 1.926848 L 3.871736 1.926848 Z M 3.871736 0.428369 " transform="matrix(28.346457,0,0,-28.346457,1,227.771654)"/>
<path style="fill-rule:nonzero;fill:rgb(100%,100%,100%);fill-opacity:1;stroke-width:0.02;stroke-linecap:butt;stroke-linejoin:miter;stroke:rgb(32.941176%,47.058824%,63.921569%);stroke-opacity:1;stroke-miterlimit:10;" d="M 4.024285 0.428369 L 4.176834 0.428369 L 4.176834 2.140857 L 4.024285 2.140857 Z M 4.024285 0.428369 " transform="matrix(28.346457,0,0,-28.346457,1,227.771654)"/>
<path style="fill-rule:nonzero;fill:rgb(100%,100%,100%);fill-opacity:1;stroke-width:0.02;stroke-linecap:butt;stroke-linejoin:miter;stroke:rgb(32.941176%,47.058824%,63.921569%);stroke-opacity:1;stroke-miterlimit:10;" d="M 4.176834 0.428369 L 4.32952 0.428369 L 4.32952 2.140857 L 4.176834 2.140857 Z M 4.176834 0.428369 " transform="matrix(28.346457,0,0,-28.346457,1,227.771654)"/>
<path style="fill-rule:nonzero;fill:rgb(100%,100%,100%);fill-opacity:1;stroke-width:0.02;stroke-linecap:butt;stroke-linejoin:miter;stroke:rgb(32.941176%,47.058824%,63.921569%);stroke-opacity:1;stroke-miterlimit:10;" d="M 4.32952 0.428369 L 4.482069 0.428369 L 4.482069 2.140857 L 4.32952 2.140857 Z M 4.32952 0.428369 " transform="matrix(28.346457,0,0,-28.346457,1,227.771654)"/>
<path style="fill-rule:nonzero;fill:rgb(100%,100%,100%);fill-opacity:1;stroke-width:0.02;stroke-linecap:butt;stroke-linejoin:miter;stroke:rgb(32.941176%,47.058824%,63.921569%);stroke-opacity:1;stroke-miterlimit:10;" d="M 4.482069 0.428369 L 4.634618 0.428369 L 4.634618 2.99717 L 4.482069 2.99717 Z M 4.482069 0.428369 " transform="matrix(28.346457,0,0,-28.346457,1,227.771654)"/>
<path style="fill-rule:nonzero;fill:rgb(100%,100%,100%);fill-opacity:1;stroke-width:0.02;stroke-linecap:butt;stroke-linejoin:miter;stroke:rgb(32.941176%,47.058824%,63.921569%);stroke-opacity:1;stroke-miterlimit:10;" d="M 4.634618 0.428369 L 4.787305 0.428369 L 4.787305 3.639336 L 4.634618 3.639336 Z M 4.634618 0.428369 " transform="matrix(28.346457,0,0,-28.346457,1,227.771654)"/>
<path style="fill-rule:nonzero;fill:rgb(100%,100%,100%);fill-opacity:1;stroke-width:0.02;stroke-linecap:butt;stroke-linejoin:miter;stroke:rgb(32.941176%,47.058824%,63.921569%);stroke-opacity:1;stroke-miterlimit:10;" d="M 4.787305 0.428369 L 4.939854 0.428369 L 4.939854 4.495511 L 4.787305 4.495511 Z M 4.787305 0.428369 " transform="matrix(28.346457,0,0,-28.346457,1,227.771654)"/>
<path style="fill-rule:nonzero;fill:rgb(100%,100%,100%);fill-opacity:1;stroke-width:0.02;stroke-linecap:butt;stroke-linejoin:miter;stroke:rgb(32.941176%,47.058824%,63.921569%);stroke-opacity:1;stroke-miterlimit:10;" d="M 4.939854 0.428369 L 5.092402 0.428369 L 5.092402 4.709658 L 4.939854 4.709658 Z M 4.939854 0.428369 " transform="matrix(28.346457,0,0,-28.346457,1,227.771654)"/>
<path style="fill-rule:nonzero;fill:rgb(100%,100%,100%);fill-opacity:1;stroke-width:0.02;stroke-linecap:butt;stroke-linejoin:miter;stroke:rgb(32.941176%,47.058824%,63.921569%);stroke-opacity:1;stroke-miterlimit:10;" d="M 5.092402 0.428369 L 5.245089 0.428369 L 5.245089 4.281502 L 5.092402 4.281502 Z M 5.092402 0.428369 " transform="matrix(28.346457,0,0,-28.346457,1,227.771654)"/>
<path style="fill-rule:nonzero;fill:rgb(100%,100%,100%);fill-opacity:1;stroke-width:0.02;stroke-linecap:butt;stroke-linejoin:miter;stroke:rgb(32.941176%,47.058824%,63.921569%);stroke-opacity:1;stroke-miterlimit:10;" d="M 5.245089 0.428369 L 5.397638 0.428369 L 5.397638 3.853345 L 5.245089 3.853345 Z M 5.245089 0.428369 " transform="matrix(28.346457,0,0,-28.346457,1,227.771654)"/>
<path style="fill-rule:nonzero;fill:rgb(100%,100%,100%);fill-opacity:1;stroke-width:0.02;stroke-linecap:butt;stroke-linejoin:miter;stroke:rgb(32.941176%,47.058824%,63.921569%);stroke-opacity:1;stroke-miterlimit:10;" d="M 5.397638 0.428369 L 5.550187 0.428369 L 5.550187 4.495511 L 5.397638 4.495511 Z M 5.397638 0.428369 " transform="matrix(28.346457,0,0,-28.346457,1,227.771654)"/>
<path style="fill-rule:nonzero;fill:rgb(100%,100%,100%);fill-opacity:1;stroke-width:0.02;stroke-linecap:butt;stroke-linejoin:miter;stroke:rgb(32.941176%,47.058824%,63.921569%);stroke-opacity:1;stroke-miterlimit:10;" d="M 5.550187 0.428369 L 5.702873 0.428369 L 5.702873 6.208137 L 5.550187 6.208137 Z M 5.550187 0.428369 " transform="matrix(28.346457,0,0,-28.346457,1,227.771654)"/>
<path style="fill-rule:nonzero;fill:rgb(100%,100%,100%);fill-opacity:1;stroke-width:0.02;stroke-linecap:butt;stroke-linejoin:miter;stroke:rgb(32.941176%,47.058824%,63.921569%);stroke-opacity:1;stroke-miterlimit:10;" d="M 5.702873 0.428369 L 5.855422 0.428369 L 5.855422 5.351824 L 5.702873 5.351824 Z M 5.702873 0.428369 " transform="matrix(28.346457,0,0,-28.346457,1,227.771654)"/>
<path style="fill-rule:nonzero;fill:rgb(100%,100%,100%);fill-opacity:1;stroke-width:0.02;stroke-linecap:butt;stroke-linejoin:miter;stroke:rgb(32.941176%,47.058824%,63.921569%);stroke-opacity:1;stroke-miterlimit:10;" d="M 5.855422 0.428369 L 6.007971 0.428369 L 6.007971 7.706478 L 5.855422 7.706478 Z M 5.855422 0.428369 " transform="matrix(28.346457,0,0,-28.346457,1,227.771654)"/>
<path style="fill-rule:nonzero;fill:rgb(100%,100%,100%);fill-opacity:1;stroke-width:0.02;stroke-linecap:butt;stroke-linejoin:miter;stroke:rgb(32.941176%,47.058824%,63.921569%);stroke-opacity:1;stroke-miterlimit:10;" d="M 6.007971 0.428369 L 6.160658 0.428369 L 6.160658 5.137815 L 6.007971 5.137815 Z M 6.007971 0.428369 " transform="matrix(28.346457,0,0,-28.346457,1,227.771654)"/>
<path style="fill-rule:nonzero;fill:rgb(100%,100%,100%);fill-opacity:1;stroke-width:0.02;stroke-linecap:butt;stroke-linejoin:miter;stroke:rgb(32.941176%,47.058824%,63.921569%);stroke-opacity:1;stroke-miterlimit:10;" d="M 6.160658 0.428369 L 6.313206 0.428369 L 6.313206 5.99399 L 6.160658 5.99399 Z M 6.160658 0.428369 " transform="matrix(28.346457,0,0,-28.346457,1,227.771654)"/>
<path style="fill-rule:nonzero;fill:rgb(100%,100%,100%);fill-opacity:1;stroke-width:0.02;stroke-linecap:butt;stroke-linejoin:miter;stroke:rgb(32.941176%,47.058824%,63.921569%);stroke-opacity:1;stroke-miterlimit:10;" d="M 6.313206 0.428369 L 6.465755 0.428369 L 6.465755 4.495511 L 6.313206 4.495511 Z M 6.313206 0.428369 " transform="matrix(28.346457,0,0,-28.346457,1,227.771654)"/>
<path style="fill-rule:nonzero;fill:rgb(100%,100%,100%);fill-opacity:1;stroke-width:0.02;stroke-linecap:butt;stroke-linejoin:miter;stroke:rgb(32.941176%,47.058824%,63.921569%);stroke-opacity:1;stroke-miterlimit:10;" d="M 6.465755 0.428369 L 6.618442 0.428369 L 6.618442 5.351824 L 6.465755 5.351824 Z M 6.465755 0.428369 " transform="matrix(28.346457,0,0,-28.346457,1,227.771654)"/>
<path style="fill-rule:nonzero;fill:rgb(100%,100%,100%);fill-opacity:1;stroke-width:0.02;stroke-linecap:butt;stroke-linejoin:miter;stroke:rgb(32.941176%,47.058824%,63.921569%);stroke-opacity:1;stroke-miterlimit:10;" d="M 6.618442 0.428369 L 6.770991 0.428369 L 6.770991 4.709658 L 6.618442 4.709658 Z M 6.618442 0.428369 " transform="matrix(28.346457,0,0,-28.346457,1,227.771654)"/>
<path style="fill-rule:nonzero;fill:rgb(100%,100%,100%);fill-opacity:1;stroke-width:0.02;stroke-linecap:butt;stroke-linejoin:miter;stroke:rgb(32.941176%,47.058824%,63.921569%);stroke-opacity:1;stroke-miterlimit:10;" d="M 6.770991 0.428369 L 6.923539 0.428369 L 6.923539 3.639336 L 6.770991 3.639336 Z M 6.770991 0.428369 " transform="matrix(28.346457,0,0,-28.346457,1,227.771654)"/>
<path style="fill-rule:nonzero;fill:rgb(100%,100%,100%);fill-opacity:1;stroke-width:0.02;stroke-linecap:butt;stroke-linejoin:miter;stroke:rgb(32.941176%,47.058824%,63.921569%);stroke-opacity:1;stroke-miterlimit:10;" d="M 6.923539 0.428369 L 7.076226 0.428369 L 7.076226 4.709658 L 6.923539 4.709658 Z M 6.923539 0.428369 " transform="matrix(28.346457,0,0,-28.346457,1,227.771654)"/>
<path style="fill-rule:nonzero;fill:rgb(100%,100%,100%);fill-opacity:1;stroke-width:0.02;stroke-linecap:butt;stroke-linejoin:miter;stroke:rgb(32.941176%,47.058824%,63.921569%);stroke-opacity:1;stroke-miterlimit:10;" d="M 7.076226 0.428369 L 7.228775 0.428369 L 7.228775 2.355004 L 7.076226 2.355004 Z M 7.076226 0.428369 " transform="matrix(28.346457,0,0,-28.346457,1,227.771654)"/>
<path style="fill-rule:nonzero;fill:rgb(100%,100%,100%);fill-opacity:1;stroke-width:0.02;stroke-linecap:butt;stroke-linejoin:miter;stroke:rgb(32.941176%,47.058824%,63.921569%);stroke-opacity:1;stroke-miterlimit:10;" d="M 7.228775 0.428369 L 7.381324 0.428369 L 7.381324 4.495511 L 7.228775 4.495511 Z M 7.228775 0.428369 " transform="matrix(28.346457,0,0,-28.346457,1,227.771654)"/>
<path style="fill-rule:nonzero;fill:rgb(100%,100%,100%);fill-opacity:1;stroke-width:0.02;stroke-linecap:butt;stroke-linejoin:miter;stroke:rgb(32.941176%,47.058824%,63.921569%);stroke-opacity:1;stroke-miterlimit:10;" d="M 7.381324 0.428369 L 7.53401 0.428369 L 7.53401 2.569014 L 7.381324 2.569014 Z M 7.381324 0.428369 " transform="matrix(28.346457,0,0,-28.346457,1,227.771654)"/>
<path style="fill-rule:nonzero;fill:rgb(100%,100%,100%);fill-opacity:1;stroke-width:0.02;stroke-linecap:butt;stroke-linejoin:miter;stroke:rgb(32.941176%,47.058824%,63.921569%);stroke-opacity:1;stroke-miterlimit:10;" d="M 7.53401 0.428369 L 7.686559 0.428369 L 7.686559 3.425327 L 7.53401 3.425327 Z M 7.53401 0.428369 " transform="matrix(28.346457,0,0,-28.346457,1,227.771654)"/>
<path style="fill-rule:nonzero;fill:rgb(100%,100%,100%);fill-opacity:1;stroke-width:0.02;stroke-linecap:butt;stroke-linejoin:miter;stroke:rgb(32.941176%,47.058824%,63.921569%);stroke-opacity:1;stroke-miterlimit:10;" d="M 7.686559 0.428369 L 7.839246 0.428369 L 7.839246 3.425327 L 7.686559 3.425327 Z M 7.686559 0.428369 " transform="matrix(28.346457,0,0,-28.346457,1,227.771654)"/>
<path style="fill-rule:nonzero;fill:rgb(100%,100%,100%);fill-opacity:1;stroke-width:0.02;stroke-linecap:butt;stroke-linejoin:miter;stroke:rgb(32.941176%,47.058824%,63.921569%);stroke-opacity:1;stroke-miterlimit:10;" d="M 7.839246 0.428369 L 7.991795 0.428369 L 7.991795 1.926848 L 7.839246 1.926848 Z M 7.839246 0.428369 " transform="matrix(28.346457,0,0,-28.346457,1,227.771654)"/>
<path style="fill-rule:nonzero;fill:rgb(100%,100%,100%);fill-opacity:1;stroke-width:0.02;stroke-linecap:butt;stroke-linejoin:miter;stroke:rgb(32.941176%,47.058824%,63.921569%);stroke-opacity:1;stroke-miterlimit:10;" d="M 7.991795 0.428369 L 8.144344 0.428369 L 8.144344 2.140857 L 7.991795 2.140857 Z M 7.991795 0.428369 " transform="matrix(28.346457,0,0,-28.346457,1,227.771654)"/>
<path style="fill-rule:nonzero;fill:rgb(100%,100%,100%);fill-opacity:1;stroke-width:0.02;stroke-linecap:butt;stroke-linejoin:miter;stroke:rgb(32.941176%,47.058824%,63.921569%);stroke-opacity:1;stroke-miterlimit:10;" d="M 8.144344 0.428369 L 8.29703 0.428369 L 8.29703 1.070535 L 8.144344 1.070535 Z M 8.144344 0.428369 " transform="matrix(28.346457,0,0,-28.346457,1,227.771654)"/>
<path style="fill-rule:nonzero;fill:rgb(100%,100%,100%);fill-opacity:1;stroke-width:0.02;stroke-linecap:butt;stroke-linejoin:miter;stroke:rgb(32.941176%,47.058824%,63.921569%);stroke-opacity:1;stroke-miterlimit:10;" d="M 8.29703 0.428369 L 8.449579 0.428369 L 8.449579 1.070535 L 8.29703 1.070535 Z M 8.29703 0.428369 " transform="matrix(28.346457,0,0,-28.346457,1,227.771654)"/>
<path style="fill-rule:nonzero;fill:rgb(100%,100%,100%);fill-opacity:1;stroke-width:0.02;stroke-linecap:butt;stroke-linejoin:miter;stroke:rgb(32.941176%,47.058824%,63.921569%);stroke-opacity:1;stroke-miterlimit:10;" d="M 8.449579 0.428369 L 8.602128 0.428369 L 8.602128 1.284682 L 8.449579 1.284682 Z M 8.449579 0.428369 " transform="matrix(28.346457,0,0,-28.346457,1,227.771654)"/>
<path style="fill-rule:nonzero;fill:rgb(100%,100%,100%);fill-opacity:1;stroke-width:0.02;stroke-linecap:butt;stroke-linejoin:miter;stroke:rgb(32.941176%,47.058824%,63.921569%);stroke-opacity:1;stroke-miterlimit:10;" d="M 8.602128 0.428369 L 8.754814 0.428369 L 8.754814 0.642516 L 8.602128 0.642516 Z M 8.602128 0.428369 " transform="matrix(28.346457,0,0,-28.346457,1,227.771654)"/>
<path style="fill-rule:nonzero;fill:rgb(100%,100%,100%);fill-opacity:1;stroke-width:0.02;stroke-linecap:butt;stroke-linejoin:miter;stroke:rgb(32.941176%,47.058824%,63.921569%);stroke-opacity:1;stroke-miterlimit:10;" d="M 8.754814 0.428369 L 8.907363 0.428369 L 8.907363 1.284682 L 8.754814 1.284682 Z M 8.754814 0.428369 " transform="matrix(28.346457,0,0,-28.346457,1,227.771654)"/>
<path style="fill-rule:nonzero;fill:rgb(100%,100%,100%);fill-opacity:1;stroke-width:0.02;stroke-linecap:butt;stroke-linejoin:miter;stroke:rgb(32.941176%,47.058824%,63.921569%);stroke-opacity:1;stroke-miterlimit:10;" d="M 9.059912 0.428369 L 9.212599 0.428369 L 9.212599 1.070535 L 9.059912 1.070535 Z M 9.059912 0.428369 " transform="matrix(28.346457,0,0,-28.346457,1,227.771654)"/>
<path style="fill:none;stroke-width:0.02;stroke-linecap:butt;stroke-linejoin:miter;stroke:rgb(0%,0%,0%);stroke-opacity:1;stroke-miterlimit:10;" d="M 0.602616 1.663367 L 0.707623 1.663367 " transform="matrix(28.346457,0,0,-28.346457,1,227.771654)"/>
<path style="fill:none;stroke-width:0.02;stroke-linecap:butt;stroke-linejoin:miter;stroke:rgb(0%,0%,0%);stroke-opacity:1;stroke-miterlimit:10;" d="M 0.602616 2.898365 L 0.707623 2.898365 " transform="matrix(28.346457,0,0,-28.346457,1,227.771654)"/>
<path style="fill:none;stroke-width:0.02;stroke-linecap:butt;stroke-linejoin:miter;stroke:rgb(0%,0%,0%);stroke-opacity:1;stroke-miterlimit:10;" d="M 0.602616 4.133363 L 0.707623 4.133363 " transform="matrix(28.346457,0,0,-28.346457,1,227.771654)"/>
<path style="fill:none;stroke-width:0.02;stroke-linecap:butt;stroke-linejoin:miter;stroke:rgb(0%,0%,0%);stroke-opacity:1;stroke-miterlimit:10;" d="M 0.602616 5.36836 L 0.707623 5.36836 " transform="matrix(28.346457,0,0,-28.346457,1,227.771654)"/>
<path style="fill:none;stroke-width:0.02;stroke-linecap:butt;stroke-linejoin:miter;stroke:rgb(0%,0%,0%);stroke-opacity:1;stroke-miterlimit:10;" d="M 0.602616 6.603358 L 0.707623 6.603358 " transform="matrix(28.346457,0,0,-28.346457,1,227.771654)"/>
<path style="fill:none;stroke-width:0.02;stroke-linecap:round;stroke-linejoin:miter;stroke:rgb(0%,0%,0%);stroke-opacity:1;stroke-miterlimit:10;" d="M 0.602616 0.428369 L 0.602616 7.838356 " transform="matrix(28.346457,0,0,-28.346457,1,227.771654)"/>
<path style=" stroke:none;fill-rule:nonzero;fill:rgb(0%,0%,0%);fill-opacity:1;" d="M 5.101562 212.886719 C 5.859375 212.941406 6.359375 213.632812 6.492188 214.332031 C 6.5625 214.648438 6.578125 214.949219 6.613281 215.265625 L 6.613281 216.078125 C 6.570312 216.902344 6.375 217.988281 5.476562 218.324219 C 4.699219 218.632812 3.785156 218.148438 3.554688 217.355469 C 3.382812 216.933594 3.363281 216.503906 3.324219 216.078125 L 3.324219 215.265625 C 3.363281 214.441406 3.539062 213.347656 4.429688 212.980469 L 4.46875 212.964844 L 4.5 212.957031 L 4.539062 212.941406 L 4.660156 212.910156 L 4.730469 212.894531 L 4.816406 212.894531 L 4.832031 212.886719 Z M 5.101562 212.886719 Z M 4.855469 213.371094 C 4.191406 213.449219 3.992188 214.25 3.945312 214.789062 L 3.945312 215.003906 L 3.929688 215.019531 L 3.929688 216.125 C 3.976562 216.695312 4.015625 217.433594 4.539062 217.816406 C 5.023438 218.148438 5.667969 217.773438 5.800781 217.257812 C 5.945312 216.878906 5.976562 216.503906 6.007812 216.125 L 6.007812 215.019531 C 5.960938 214.441406 5.882812 213.632812 5.214844 213.402344 L 5.160156 213.386719 L 5.144531 213.371094 L 5.070312 213.371094 L 5.054688 213.355469 L 4.875 213.355469 Z M 4.855469 213.371094 Z M 4.855469 213.371094 "/>
<path style=" stroke:none;fill-rule:nonzero;fill:rgb(0%,0%,0%);fill-opacity:1;" d="M 8.382812 217.601562 L 8.382812 218.234375 L 7.738281 218.234375 L 7.738281 217.601562 Z M 8.382812 217.601562 Z M 8.382812 217.601562 "/>
<path style=" stroke:none;fill-rule:nonzero;fill:rgb(0%,0%,0%);fill-opacity:1;" d="M 11.269531 212.886719 C 12.023438 212.941406 12.523438 213.632812 12.660156 214.332031 C 12.730469 214.648438 12.746094 214.949219 12.777344 215.265625 L 12.777344 216.078125 C 12.738281 216.902344 12.539062 217.988281 11.644531 218.324219 C 10.867188 218.632812 9.953125 218.148438 9.722656 217.355469 C 9.546875 216.933594 9.53125 216.503906 9.492188 216.078125 L 9.492188 215.265625 C 9.53125 214.441406 9.707031 213.347656 10.597656 212.980469 L 10.636719 212.964844 L 10.667969 212.957031 L 10.707031 212.941406 L 10.824219 212.910156 L 10.898438 212.894531 L 10.984375 212.894531 L 11 212.886719 Z M 11.269531 212.886719 Z M 11.023438 213.371094 C 10.359375 213.449219 10.160156 214.25 10.113281 214.789062 L 10.113281 215.003906 L 10.097656 215.019531 L 10.097656 216.125 C 10.144531 216.695312 10.183594 217.433594 10.707031 217.816406 C 11.191406 218.148438 11.835938 217.773438 11.96875 217.257812 C 12.113281 216.878906 12.144531 216.503906 12.175781 216.125 L 12.175781 215.019531 C 12.128906 214.441406 12.046875 213.632812 11.382812 213.402344 L 11.324219 213.386719 L 11.308594 213.371094 L 11.238281 213.371094 L 11.222656 213.355469 L 11.039062 213.355469 Z M 11.023438 213.371094 Z M 11.023438 213.371094 "/>
<path style=" stroke:none;fill-rule:nonzero;fill:rgb(0%,0%,0%);fill-opacity:1;" d="M 5.101562 177.878906 C 5.859375 177.933594 6.359375 178.625 6.492188 179.324219 C 6.5625 179.640625 6.578125 179.941406 6.613281 180.257812 L 6.613281 181.070312 C 6.570312 181.894531 6.375 182.980469 5.476562 183.316406 C 4.699219 183.625 3.785156 183.140625 3.554688 182.347656 C 3.382812 181.925781 3.363281 181.496094 3.324219 181.070312 L 3.324219 180.257812 C 3.363281 179.433594 3.539062 178.339844 4.429688 177.972656 L 4.46875 177.957031 L 4.5 177.949219 L 4.539062 177.933594 L 4.660156 177.902344 L 4.730469 177.886719 L 4.816406 177.886719 L 4.832031 177.878906 Z M 5.101562 177.878906 Z M 4.855469 178.363281 C 4.191406 178.441406 3.992188 179.242188 3.945312 179.785156 L 3.945312 179.996094 L 3.929688 180.011719 L 3.929688 181.117188 C 3.976562 181.6875 4.015625 182.425781 4.539062 182.808594 C 5.023438 183.140625 5.667969 182.769531 5.800781 182.25 C 5.945312 181.871094 5.976562 181.496094 6.007812 181.117188 L 6.007812 180.011719 C 5.960938 179.433594 5.882812 178.625 5.214844 178.394531 L 5.160156 178.378906 L 5.144531 178.363281 L 5.070312 178.363281 L 5.054688 178.347656 L 4.875 178.347656 Z M 4.855469 178.363281 Z M 4.855469 178.363281 "/>
<path style=" stroke:none;fill-rule:nonzero;fill:rgb(0%,0%,0%);fill-opacity:1;" d="M 8.382812 182.59375 L 8.382812 183.226562 L 7.738281 183.226562 L 7.738281 182.59375 Z M 8.382812 182.59375 Z M 8.382812 182.59375 "/>
<path style=" stroke:none;fill-rule:nonzero;fill:rgb(0%,0%,0%);fill-opacity:1;" d="M 11.515625 177.878906 L 11.515625 182.777344 L 11.523438 182.792969 L 12.5 182.792969 L 12.5 183.226562 L 9.921875 183.226562 L 9.921875 182.792969 L 10.898438 182.792969 L 10.914062 182.777344 L 10.914062 178.664062 C 10.578125 178.773438 10.230469 178.847656 9.882812 178.839844 L 9.882812 178.394531 C 10.40625 178.402344 10.976562 178.257812 11.375 177.878906 Z M 11.515625 177.878906 Z M 11.515625 177.878906 "/>
<path style=" stroke:none;fill-rule:nonzero;fill:rgb(0%,0%,0%);fill-opacity:1;" d="M 5.101562 142.871094 C 5.859375 142.925781 6.359375 143.617188 6.492188 144.316406 C 6.5625 144.632812 6.578125 144.933594 6.613281 145.253906 L 6.613281 146.0625 C 6.570312 146.886719 6.375 147.972656 5.476562 148.308594 C 4.699219 148.617188 3.785156 148.132812 3.554688 147.339844 C 3.382812 146.917969 3.363281 146.492188 3.324219 146.0625 L 3.324219 145.253906 C 3.363281 144.425781 3.539062 143.332031 4.429688 142.964844 L 4.46875 142.949219 L 4.5 142.941406 L 4.539062 142.925781 L 4.660156 142.894531 L 4.730469 142.878906 L 4.816406 142.878906 L 4.832031 142.871094 Z M 5.101562 142.871094 Z M 4.855469 143.355469 C 4.191406 143.433594 3.992188 144.234375 3.945312 144.777344 L 3.945312 144.988281 L 3.929688 145.007812 L 3.929688 146.109375 C 3.976562 146.679688 4.015625 147.417969 4.539062 147.800781 C 5.023438 148.132812 5.667969 147.761719 5.800781 147.246094 C 5.945312 146.863281 5.976562 146.492188 6.007812 146.109375 L 6.007812 145.007812 C 5.960938 144.425781 5.882812 143.617188 5.214844 143.386719 L 5.160156 143.371094 L 5.144531 143.355469 L 5.070312 143.355469 L 5.054688 143.339844 L 4.875 143.339844 Z M 4.855469 143.355469 Z M 4.855469 143.355469 "/>
<path style=" stroke:none;fill-rule:nonzero;fill:rgb(0%,0%,0%);fill-opacity:1;" d="M 8.382812 147.585938 L 8.382812 148.21875 L 7.738281 148.21875 L 7.738281 147.585938 Z M 8.382812 147.585938 Z M 8.382812 147.585938 "/>
<path style=" stroke:none;fill-rule:nonzero;fill:rgb(0%,0%,0%);fill-opacity:1;" d="M 11.183594 142.871094 C 12.105469 142.894531 12.835938 143.839844 12.691406 144.726562 C 12.597656 145.617188 11.761719 146.125 11.167969 146.679688 L 10.914062 146.941406 L 10.882812 146.957031 L 10.5625 147.269531 L 10.539062 147.285156 L 10.222656 147.601562 L 10.191406 147.617188 L 10.121094 147.6875 L 10.136719 147.695312 L 12.707031 147.695312 L 12.707031 148.21875 L 9.5625 148.21875 L 9.5625 147.746094 L 10.84375 146.464844 C 11.453125 145.933594 12.167969 145.246094 12.054688 144.371094 C 11.992188 143.863281 11.5625 143.394531 11.039062 143.355469 C 10.507812 143.277344 10.039062 143.695312 9.921875 144.203125 L 9.90625 144.226562 L 9.890625 144.285156 L 9.867188 144.371094 L 9.816406 144.546875 L 9.808594 144.585938 C 9.699219 144.449219 9.578125 144.308594 9.492188 144.15625 C 9.652344 143.507812 10.175781 142.894531 10.867188 142.871094 Z M 11.183594 142.871094 Z M 11.183594 142.871094 "/>
<path style=" stroke:none;fill-rule:nonzero;fill:rgb(0%,0%,0%);fill-opacity:1;" d="M 5.101562 107.863281 C 5.859375 107.917969 6.359375 108.609375 6.492188 109.308594 C 6.5625 109.625 6.578125 109.925781 6.613281 110.246094 L 6.613281 111.054688 C 6.570312 111.878906 6.375 112.96875 5.476562 113.300781 C 4.699219 113.609375 3.785156 113.125 3.554688 112.332031 C 3.382812 111.910156 3.363281 111.484375 3.324219 111.054688 L 3.324219 110.246094 C 3.363281 109.417969 3.539062 108.324219 4.429688 107.957031 L 4.46875 107.941406 L 4.5 107.933594 L 4.539062 107.917969 L 4.660156 107.886719 L 4.730469 107.871094 L 4.816406 107.871094 L 4.832031 107.863281 Z M 5.101562 107.863281 Z M 4.855469 108.347656 C 4.191406 108.425781 3.992188 109.230469 3.945312 109.769531 L 3.945312 109.984375 L 3.929688 110 L 3.929688 111.101562 C 3.976562 111.671875 4.015625 112.410156 4.539062 112.792969 C 5.023438 113.125 5.667969 112.753906 5.800781 112.238281 C 5.945312 111.855469 5.976562 111.484375 6.007812 111.101562 L 6.007812 110 C 5.960938 109.417969 5.882812 108.609375 5.214844 108.378906 L 5.160156 108.363281 L 5.144531 108.347656 L 5.070312 108.347656 L 5.054688 108.332031 L 4.875 108.332031 Z M 4.855469 108.347656 Z M 4.855469 108.347656 "/>
<path style=" stroke:none;fill-rule:nonzero;fill:rgb(0%,0%,0%);fill-opacity:1;" d="M 8.382812 112.578125 L 8.382812 113.214844 L 7.738281 113.214844 L 7.738281 112.578125 Z M 8.382812 112.578125 Z M 8.382812 112.578125 "/>
<path style=" stroke:none;fill-rule:nonzero;fill:rgb(0%,0%,0%);fill-opacity:1;" d="M 11.285156 107.863281 C 11.984375 107.894531 12.714844 108.539062 12.546875 109.277344 C 12.46875 109.777344 12.121094 110.1875 11.683594 110.410156 C 12.390625 110.632812 12.9375 111.378906 12.746094 112.117188 C 12.554688 113.078125 11.453125 113.609375 10.5625 113.316406 C 10.136719 113.1875 9.699219 112.917969 9.492188 112.523438 C 9.539062 112.402344 9.523438 112.195312 9.578125 112.117188 C 10 112.738281 10.890625 113.15625 11.589844 112.808594 C 12.351562 112.324219 12.230469 110.910156 11.308594 110.671875 L 11.238281 110.671875 L 11.222656 110.65625 L 10.484375 110.65625 L 10.484375 110.179688 C 10.9375 110.171875 11.5 110.117188 11.753906 109.648438 C 12.023438 109.246094 12 108.578125 11.484375 108.378906 C 10.875 108.140625 10.121094 108.53125 9.890625 109.148438 C 9.792969 109.015625 9.699219 108.878906 9.605469 108.738281 C 9.929688 108.148438 10.621094 107.800781 11.285156 107.863281 Z M 11.285156 107.863281 Z M 11.285156 107.863281 "/>
<path style=" stroke:none;fill-rule:nonzero;fill:rgb(0%,0%,0%);fill-opacity:1;" d="M 5.101562 72.855469 C 5.859375 72.910156 6.359375 73.601562 6.492188 74.300781 C 6.5625 74.617188 6.578125 74.917969 6.613281 75.238281 L 6.613281 76.046875 C 6.570312 76.871094 6.375 77.960938 5.476562 78.292969 C 4.699219 78.601562 3.785156 78.117188 3.554688 77.324219 C 3.382812 76.902344 3.363281 76.476562 3.324219 76.046875 L 3.324219 75.238281 C 3.363281 74.410156 3.539062 73.316406 4.429688 72.953125 L 4.46875 72.9375 L 4.5 72.925781 L 4.539062 72.910156 L 4.660156 72.878906 L 4.730469 72.863281 L 4.816406 72.863281 L 4.832031 72.855469 Z M 5.101562 72.855469 Z M 4.855469 73.339844 C 4.191406 73.417969 3.992188 74.222656 3.945312 74.761719 L 3.945312 74.976562 L 3.929688 74.992188 L 3.929688 76.09375 C 3.976562 76.664062 4.015625 77.402344 4.539062 77.785156 C 5.023438 78.117188 5.667969 77.746094 5.800781 77.230469 C 5.945312 76.847656 5.976562 76.476562 6.007812 76.09375 L 6.007812 74.992188 C 5.960938 74.410156 5.882812 73.601562 5.214844 73.371094 L 5.160156 73.355469 L 5.144531 73.339844 L 5.070312 73.339844 L 5.054688 73.324219 L 4.875 73.324219 Z M 4.855469 73.339844 Z M 4.855469 73.339844 "/>
<path style=" stroke:none;fill-rule:nonzero;fill:rgb(0%,0%,0%);fill-opacity:1;" d="M 8.382812 77.570312 L 8.382812 78.207031 L 7.738281 78.207031 L 7.738281 77.570312 Z M 8.382812 77.570312 Z M 8.382812 77.570312 "/>
<path style=" stroke:none;fill-rule:nonzero;fill:rgb(0%,0%,0%);fill-opacity:1;" d="M 12.089844 73.023438 L 12.089844 76.363281 L 12.105469 76.378906 L 12.890625 76.378906 L 12.890625 76.855469 L 12.105469 76.855469 L 12.089844 76.863281 L 12.089844 78.207031 L 11.484375 78.207031 L 11.484375 76.863281 L 11.46875 76.855469 L 9.375 76.855469 L 9.375 76.363281 C 10.039062 75.253906 10.707031 74.132812 11.375 73.023438 Z M 12.089844 73.023438 Z M 11.5 73.324219 C 11.34375 74.148438 10.832031 74.855469 10.453125 75.578125 C 10.300781 75.839844 10.105469 76.125 9.992188 76.378906 L 11.515625 76.378906 L 11.523438 76.363281 L 11.523438 73.324219 L 11.515625 73.308594 Z M 11.5 73.324219 Z M 11.5 73.324219 "/>
<path style=" stroke:none;fill-rule:nonzero;fill:rgb(0%,0%,0%);fill-opacity:1;" d="M 5.101562 37.847656 C 5.859375 37.90625 6.359375 38.59375 6.492188 39.292969 C 6.5625 39.609375 6.578125 39.914062 6.613281 40.230469 L 6.613281 41.039062 C 6.570312 41.863281 6.375 42.953125 5.476562 43.285156 C 4.699219 43.59375 3.785156 43.109375 3.554688 42.316406 C 3.382812 41.898438 3.363281 41.46875 3.324219 41.039062 L 3.324219 40.230469 C 3.363281 39.40625 3.539062 38.308594 4.429688 37.945312 L 4.46875 37.929688 L 4.5 37.921875 L 4.539062 37.90625 L 4.660156 37.871094 L 4.730469 37.855469 L 4.816406 37.855469 L 4.832031 37.847656 Z M 5.101562 37.847656 Z M 4.855469 38.332031 C 4.191406 38.414062 3.992188 39.214844 3.945312 39.753906 L 3.945312 39.96875 L 3.929688 39.984375 L 3.929688 41.085938 C 3.976562 41.660156 4.015625 42.398438 4.539062 42.777344 C 5.023438 43.109375 5.667969 42.738281 5.800781 42.222656 C 5.945312 41.839844 5.976562 41.46875 6.007812 41.085938 L 6.007812 39.984375 C 5.960938 39.40625 5.882812 38.59375 5.214844 38.363281 L 5.160156 38.347656 L 5.144531 38.332031 L 5.070312 38.332031 L 5.054688 38.316406 L 4.875 38.316406 Z M 4.855469 38.332031 Z M 4.855469 38.332031 "/>
<path style=" stroke:none;fill-rule:nonzero;fill:rgb(0%,0%,0%);fill-opacity:1;" d="M 8.382812 42.5625 L 8.382812 43.199219 L 7.738281 43.199219 L 7.738281 42.5625 Z M 8.382812 42.5625 Z M 8.382812 42.5625 "/>
<path style=" stroke:none;fill-rule:nonzero;fill:rgb(0%,0%,0%);fill-opacity:1;" d="M 12.445312 38.015625 L 12.445312 38.507812 L 10.382812 38.507812 L 10.367188 38.515625 L 10.367188 40.144531 C 10.554688 40.015625 10.824219 39.847656 11.078125 39.839844 C 11.976562 39.746094 12.667969 40.625 12.707031 41.445312 C 12.835938 42.484375 11.859375 43.515625 10.808594 43.355469 C 10.285156 43.339844 9.777344 43.03125 9.476562 42.601562 C 9.5625 42.484375 9.636719 42.277344 9.738281 42.207031 C 10.113281 42.9375 11.316406 43.230469 11.800781 42.460938 C 12.113281 41.878906 12.105469 41.144531 11.746094 40.585938 C 11.332031 40.054688 10.515625 40.378906 10.324219 40.945312 L 9.808594 40.945312 L 9.808594 38.015625 Z M 12.445312 38.015625 Z M 12.445312 38.015625 "/>
<path style=" stroke:none;fill-rule:nonzero;fill:rgb(0%,0%,0%);fill-opacity:1;" d="M 5.101562 2.839844 C 5.859375 2.898438 6.359375 3.585938 6.492188 4.285156 C 6.5625 4.601562 6.578125 4.90625 6.613281 5.222656 L 6.613281 6.03125 C 6.570312 6.859375 6.375 7.945312 5.476562 8.277344 C 4.699219 8.585938 3.785156 8.105469 3.554688 7.308594 C 3.382812 6.890625 3.363281 6.460938 3.324219 6.03125 L 3.324219 5.222656 C 3.363281 4.398438 3.539062 3.300781 4.429688 2.9375 L 4.46875 2.921875 L 4.5 2.914062 L 4.539062 2.898438 L 4.660156 2.863281 L 4.730469 2.847656 L 4.816406 2.847656 L 4.832031 2.839844 Z M 5.101562 2.839844 Z M 4.855469 3.324219 C 4.191406 3.40625 3.992188 4.207031 3.945312 4.746094 L 3.945312 4.960938 L 3.929688 4.976562 L 3.929688 6.078125 C 3.976562 6.652344 4.015625 7.390625 4.539062 7.769531 C 5.023438 8.105469 5.667969 7.730469 5.800781 7.214844 C 5.945312 6.832031 5.976562 6.460938 6.007812 6.078125 L 6.007812 4.976562 C 5.960938 4.398438 5.882812 3.585938 5.214844 3.355469 L 5.160156 3.339844 L 5.144531 3.324219 L 5.070312 3.324219 L 5.054688 3.308594 L 4.875 3.308594 Z M 4.855469 3.324219 Z M 4.855469 3.324219 "/>
<path style=" stroke:none;fill-rule:nonzero;fill:rgb(0%,0%,0%);fill-opacity:1;" d="M 8.382812 7.554688 L 8.382812 8.191406 L 7.738281 8.191406 L 7.738281 7.554688 Z M 8.382812 7.554688 Z M 8.382812 7.554688 "/>
<path style=" stroke:none;fill-rule:nonzero;fill:rgb(0%,0%,0%);fill-opacity:1;" d="M 11.785156 2.839844 C 11.992188 2.875 12.230469 2.898438 12.429688 2.992188 L 12.429688 3.453125 C 11.882812 3.214844 11.167969 3.183594 10.738281 3.667969 C 10.359375 4.070312 10.183594 4.675781 10.167969 5.207031 C 10.628906 4.59375 11.667969 4.253906 12.230469 4.890625 C 12.792969 5.539062 12.890625 6.476562 12.636719 7.269531 C 12.359375 7.90625 11.714844 8.484375 11 8.351562 C 10.03125 8.269531 9.597656 7.191406 9.546875 6.367188 C 9.367188 5.199219 9.644531 3.730469 10.753906 3.0625 L 10.769531 3.054688 L 10.9375 2.96875 L 10.984375 2.953125 L 11.007812 2.9375 L 11.144531 2.898438 L 11.253906 2.863281 L 11.324219 2.847656 L 11.414062 2.847656 L 11.429688 2.839844 Z M 11.785156 2.839844 Z M 11.007812 5.046875 C 10.316406 5.167969 10.097656 6 10.183594 6.5625 C 10.222656 7.09375 10.429688 7.800781 11.039062 7.914062 C 11.691406 8 12.113281 7.300781 12.128906 6.738281 C 12.160156 6.167969 12.128906 5.515625 11.628906 5.144531 L 11.515625 5.085938 L 11.429688 5.0625 L 11.359375 5.046875 L 11.34375 5.03125 L 11.023438 5.03125 Z M 11.007812 5.046875 Z M 11.007812 5.046875 "/>
<path style="fill:none;stroke-width:0.02;stroke-linecap:butt;stroke-linejoin:miter;stroke:rgb(0%,0%,0%);stroke-opacity:1;stroke-miterlimit:10;" d="M 9.860001 1.663367 L 9.754995 1.663367 " transform="matrix(28.346457,0,0,-28.346457,1,227.771654)"/>
<path style="fill:none;stroke-width:0.02;stroke-linecap:butt;stroke-linejoin:miter;stroke:rgb(0%,0%,0%);stroke-opacity:1;stroke-miterlimit:10;" d="M 9.860001 2.898365 L 9.754995 2.898365 " transform="matrix(28.346457,0,0,-28.346457,1,227.771654)"/>
<path style="fill:none;stroke-width:0.02;stroke-linecap:butt;stroke-linejoin:miter;stroke:rgb(0%,0%,0%);stroke-opacity:1;stroke-miterlimit:10;" d="M 9.860001 4.133363 L 9.754995 4.133363 " transform="matrix(28.346457,0,0,-28.346457,1,227.771654)"/>
<path style="fill:none;stroke-width:0.02;stroke-linecap:butt;stroke-linejoin:miter;stroke:rgb(0%,0%,0%);stroke-opacity:1;stroke-miterlimit:10;" d="M 9.860001 5.36836 L 9.754995 5.36836 " transform="matrix(28.346457,0,0,-28.346457,1,227.771654)"/>
<path style="fill:none;stroke-width:0.02;stroke-linecap:butt;stroke-linejoin:miter;stroke:rgb(0%,0%,0%);stroke-opacity:1;stroke-miterlimit:10;" d="M 9.860001 6.603358 L 9.754995 6.603358 " transform="matrix(28.346457,0,0,-28.346457,1,227.771654)"/>
<path style="fill:none;stroke-width:0.02;stroke-linecap:round;stroke-linejoin:miter;stroke:rgb(0%,0%,0%);stroke-opacity:1;stroke-miterlimit:10;" d="M 9.860001 0.428369 L 9.860001 7.838356 " transform="matrix(28.346457,0,0,-28.346457,1,227.771654)"/>
<path style="fill:none;stroke-width:0.02;stroke-linecap:butt;stroke-linejoin:miter;stroke:rgb(0%,0%,0%);stroke-opacity:1;stroke-miterlimit:10;" d="M 1.925119 0.428369 L 1.925119 0.533376 " transform="matrix(28.346457,0,0,-28.346457,1,227.771654)"/>
<path style="fill:none;stroke-width:0.02;stroke-linecap:butt;stroke-linejoin:miter;stroke:rgb(0%,0%,0%);stroke-opacity:1;stroke-miterlimit:10;" d="M 3.247485 0.428369 L 3.247485 0.533376 " transform="matrix(28.346457,0,0,-28.346457,1,227.771654)"/>
<path style="fill:none;stroke-width:0.02;stroke-linecap:butt;stroke-linejoin:miter;stroke:rgb(0%,0%,0%);stroke-opacity:1;stroke-miterlimit:10;" d="M 4.569988 0.428369 L 4.569988 0.533376 " transform="matrix(28.346457,0,0,-28.346457,1,227.771654)"/>
<path style="fill:none;stroke-width:0.02;stroke-linecap:butt;stroke-linejoin:miter;stroke:rgb(0%,0%,0%);stroke-opacity:1;stroke-miterlimit:10;" d="M 5.892491 0.428369 L 5.892491 0.533376 " transform="matrix(28.346457,0,0,-28.346457,1,227.771654)"/>
<path style="fill:none;stroke-width:0.02;stroke-linecap:butt;stroke-linejoin:miter;stroke:rgb(0%,0%,0%);stroke-opacity:1;stroke-miterlimit:10;" d="M 7.214995 0.428369 L 7.214995 0.533376 " transform="matrix(28.346457,0,0,-28.346457,1,227.771654)"/>
<path style="fill:none;stroke-width:0.02;stroke-linecap:butt;stroke-linejoin:miter;stroke:rgb(0%,0%,0%);stroke-opacity:1;stroke-miterlimit:10;" d="M 8.537498 0.428369 L 8.537498 0.533376 " transform="matrix(28.346457,0,0,-28.346457,1,227.771654)"/>
<path style="fill:none;stroke-width:0.02;stroke-linecap:round;stroke-linejoin:miter;stroke:rgb(0%,0%,0%);stroke-opacity:1;stroke-miterlimit:10;" d="M 0.602616 0.428369 L 9.860001 0.428369 " transform="matrix(28.346457,0,0,-28.346457,1,227.771654)"/>
<path style=" stroke:none;fill-rule:nonzero;fill:rgb(0%,0%,0%);fill-opacity:1;" d="M 16.949219 223.828125 L 16.949219 224.269531 L 14.871094 224.269531 L 14.871094 223.828125 Z M 16.949219 223.828125 Z M 16.949219 223.828125 "/>
<path style=" stroke:none;fill-rule:nonzero;fill:rgb(0%,0%,0%);fill-opacity:1;" d="M 20.355469 220.613281 L 20.355469 223.953125 L 20.371094 223.96875 L 21.15625 223.96875 L 21.15625 224.445312 L 20.371094 224.445312 L 20.355469 224.453125 L 20.355469 225.796875 L 19.75 225.796875 L 19.75 224.453125 L 19.734375 224.445312 L 17.640625 224.445312 L 17.640625 223.953125 C 18.308594 222.84375 18.972656 221.722656 19.640625 220.613281 Z M 20.355469 220.613281 Z M 19.765625 220.914062 C 19.609375 221.738281 19.101562 222.445312 18.71875 223.167969 C 18.570312 223.429688 18.371094 223.714844 18.257812 223.96875 L 19.78125 223.96875 L 19.789062 223.953125 L 19.789062 220.914062 L 19.78125 220.898438 Z M 19.765625 220.914062 Z M 19.765625 220.914062 "/>
<path style=" stroke:none;fill-rule:nonzero;fill:rgb(0%,0%,0%);fill-opacity:1;" d="M 54.4375 223.828125 L 54.4375 224.269531 L 52.359375 224.269531 L 52.359375 223.828125 Z M 54.4375 223.828125 Z M 54.4375 223.828125 "/>
<path style=" stroke:none;fill-rule:nonzero;fill:rgb(0%,0%,0%);fill-opacity:1;" d="M 57.039062 220.445312 C 57.738281 220.476562 58.46875 221.121094 58.300781 221.859375 C 58.222656 222.359375 57.875 222.769531 57.4375 222.992188 C 58.144531 223.214844 58.691406 223.960938 58.5 224.699219 C 58.3125 225.660156 57.207031 226.191406 56.320312 225.898438 C 55.890625 225.773438 55.453125 225.5 55.246094 225.105469 C 55.292969 224.984375 55.277344 224.78125 55.335938 224.699219 C 55.753906 225.320312 56.644531 225.738281 57.34375 225.390625 C 58.105469 224.90625 57.984375 223.492188 57.066406 223.253906 L 56.992188 223.253906 L 56.976562 223.238281 L 56.238281 223.238281 L 56.238281 222.761719 C 56.691406 222.753906 57.253906 222.699219 57.507812 222.230469 C 57.777344 221.828125 57.753906 221.160156 57.238281 220.960938 C 56.628906 220.722656 55.875 221.113281 55.644531 221.730469 C 55.546875 221.597656 55.453125 221.460938 55.359375 221.320312 C 55.683594 220.730469 56.375 220.382812 57.039062 220.445312 Z M 57.039062 220.445312 Z M 57.039062 220.445312 "/>
<path style=" stroke:none;fill-rule:nonzero;fill:rgb(0%,0%,0%);fill-opacity:1;" d="M 91.925781 223.828125 L 91.925781 224.269531 L 89.847656 224.269531 L 89.847656 223.828125 Z M 91.925781 223.828125 Z M 91.925781 223.828125 "/>
<path style=" stroke:none;fill-rule:nonzero;fill:rgb(0%,0%,0%);fill-opacity:1;" d="M 94.425781 220.445312 C 95.347656 220.46875 96.078125 221.414062 95.933594 222.304688 C 95.839844 223.191406 95.003906 223.699219 94.410156 224.253906 L 94.15625 224.515625 L 94.125 224.535156 L 93.804688 224.84375 L 93.78125 224.859375 L 93.464844 225.175781 L 93.433594 225.191406 L 93.363281 225.261719 L 93.378906 225.273438 L 95.949219 225.273438 L 95.949219 225.796875 L 92.804688 225.796875 L 92.804688 225.320312 L 94.085938 224.042969 C 94.695312 223.507812 95.410156 222.820312 95.296875 221.945312 C 95.234375 221.4375 94.804688 220.96875 94.28125 220.929688 C 93.75 220.851562 93.28125 221.269531 93.164062 221.777344 L 93.148438 221.804688 L 93.132812 221.859375 L 93.109375 221.945312 L 93.058594 222.121094 L 93.050781 222.160156 C 92.941406 222.023438 92.820312 221.882812 92.734375 221.730469 C 92.894531 221.082031 93.417969 220.46875 94.109375 220.445312 Z M 94.425781 220.445312 Z M 94.425781 220.445312 "/>
<path style=" stroke:none;fill-rule:nonzero;fill:rgb(0%,0%,0%);fill-opacity:1;" d="M 129.414062 223.828125 L 129.414062 224.269531 L 127.332031 224.269531 L 127.332031 223.828125 Z M 129.414062 223.828125 Z M 129.414062 223.828125 "/>
<path style=" stroke:none;fill-rule:nonzero;fill:rgb(0%,0%,0%);fill-opacity:1;" d="M 132.246094 220.445312 L 132.246094 225.34375 L 132.253906 225.359375 L 133.230469 225.359375 L 133.230469 225.796875 L 130.652344 225.796875 L 130.652344 225.359375 L 131.628906 225.359375 L 131.644531 225.34375 L 131.644531 221.230469 C 131.308594 221.34375 130.960938 221.414062 130.613281 221.40625 L 130.613281 220.960938 C 131.136719 220.96875 131.707031 220.828125 132.105469 220.445312 Z M 132.246094 220.445312 Z M 132.246094 220.445312 "/>
<path style=" stroke:none;fill-rule:nonzero;fill:rgb(0%,0%,0%);fill-opacity:1;" d="M 168.167969 220.445312 C 168.921875 220.5 169.421875 221.191406 169.554688 221.890625 C 169.628906 222.207031 169.644531 222.507812 169.675781 222.828125 L 169.675781 223.636719 C 169.636719 224.460938 169.4375 225.550781 168.539062 225.882812 C 167.761719 226.191406 166.851562 225.707031 166.621094 224.914062 C 166.445312 224.492188 166.429688 224.066406 166.390625 223.636719 L 166.390625 222.828125 C 166.429688 222 166.605469 220.90625 167.492188 220.542969 L 167.53125 220.523438 L 167.5625 220.515625 L 167.605469 220.5 L 167.722656 220.46875 L 167.792969 220.453125 L 167.882812 220.453125 L 167.898438 220.445312 Z M 168.167969 220.445312 Z M 167.921875 220.929688 C 167.253906 221.007812 167.054688 221.8125 167.007812 222.351562 L 167.007812 222.566406 L 166.992188 222.582031 L 166.992188 223.683594 C 167.039062 224.253906 167.078125 224.992188 167.605469 225.375 C 168.085938 225.707031 168.730469 225.335938 168.867188 224.820312 C 169.007812 224.4375 169.039062 224.066406 169.070312 223.683594 L 169.070312 222.582031 C 169.023438 222 168.945312 221.191406 168.277344 220.960938 L 168.222656 220.945312 L 168.207031 220.929688 L 168.136719 220.929688 L 168.121094 220.914062 L 167.9375 220.914062 Z M 167.921875 220.929688 Z M 167.921875 220.929688 "/>
<path style=" stroke:none;fill-rule:nonzero;fill:rgb(0%,0%,0%);fill-opacity:1;" d="M 205.902344 220.445312 L 205.902344 225.34375 L 205.910156 225.359375 L 206.886719 225.359375 L 206.886719 225.796875 L 204.304688 225.796875 L 204.304688 225.359375 L 205.28125 225.359375 L 205.296875 225.34375 L 205.296875 221.230469 C 204.964844 221.34375 204.617188 221.414062 204.265625 221.40625 L 204.265625 220.960938 C 204.789062 220.96875 205.363281 220.828125 205.757812 220.445312 Z M 205.902344 220.445312 Z M 205.902344 220.445312 "/>
<path style=" stroke:none;fill-rule:nonzero;fill:rgb(0%,0%,0%);fill-opacity:1;" d="M 243.054688 220.445312 C 243.976562 220.46875 244.707031 221.414062 244.5625 222.304688 C 244.46875 223.191406 243.636719 223.699219 243.039062 224.253906 L 242.785156 224.515625 L 242.753906 224.535156 L 242.4375 224.84375 L 242.414062 224.859375 L 242.09375 225.175781 L 242.0625 225.191406 L 241.992188 225.261719 L 242.007812 225.273438 L 244.578125 225.273438 L 244.578125 225.796875 L 241.4375 225.796875 L 241.4375 225.320312 L 242.714844 224.042969 C 243.324219 223.507812 244.039062 222.820312 243.929688 221.945312 C 243.867188 221.4375 243.4375 220.96875 242.914062 220.929688 C 242.382812 220.851562 241.914062 221.269531 241.792969 221.777344 L 241.777344 221.804688 L 241.761719 221.859375 L 241.738281 221.945312 L 241.691406 222.121094 L 241.683594 222.160156 C 241.570312 222.023438 241.453125 221.882812 241.363281 221.730469 C 241.523438 221.082031 242.046875 220.46875 242.738281 220.445312 Z M 243.054688 220.445312 Z M 243.054688 220.445312 "/>
<path style=" stroke:none;fill-rule:nonzero;fill:rgb(0%,0%,0%);fill-opacity:1;" d="M 280.648438 220.445312 C 281.34375 220.476562 282.074219 221.121094 281.910156 221.859375 C 281.828125 222.359375 281.480469 222.769531 281.042969 222.992188 C 281.75 223.214844 282.296875 223.960938 282.105469 224.699219 C 281.917969 225.660156 280.8125 226.191406 279.925781 225.898438 C 279.496094 225.773438 279.058594 225.5 278.851562 225.105469 C 278.902344 224.984375 278.886719 224.78125 278.941406 224.699219 C 279.359375 225.320312 280.25 225.738281 280.949219 225.390625 C 281.710938 224.90625 281.589844 223.492188 280.671875 223.253906 L 280.597656 223.253906 L 280.582031 223.238281 L 279.84375 223.238281 L 279.84375 222.761719 C 280.296875 222.753906 280.859375 222.699219 281.113281 222.230469 C 281.386719 221.828125 281.359375 221.160156 280.84375 220.960938 C 280.234375 220.722656 279.480469 221.113281 279.25 221.730469 C 279.15625 221.597656 279.058594 221.460938 278.964844 221.320312 C 279.289062 220.730469 279.980469 220.382812 280.648438 220.445312 Z M 280.648438 220.445312 Z M 280.648438 220.445312 "/>
<path style="fill:none;stroke-width:0.02;stroke-linecap:butt;stroke-linejoin:miter;stroke:rgb(0%,0%,0%);stroke-opacity:1;stroke-miterlimit:10;" d="M 1.925119 7.838356 L 1.925119 7.73335 " transform="matrix(28.346457,0,0,-28.346457,1,227.771654)"/>
<path style="fill:none;stroke-width:0.02;stroke-linecap:butt;stroke-linejoin:miter;stroke:rgb(0%,0%,0%);stroke-opacity:1;stroke-miterlimit:10;" d="M 3.247485 7.838356 L 3.247485 7.73335 " transform="matrix(28.346457,0,0,-28.346457,1,227.771654)"/>
<path style="fill:none;stroke-width:0.02;stroke-linecap:butt;stroke-linejoin:miter;stroke:rgb(0%,0%,0%);stroke-opacity:1;stroke-miterlimit:10;" d="M 4.569988 7.838356 L 4.569988 7.73335 " transform="matrix(28.346457,0,0,-28.346457,1,227.771654)"/>
<path style="fill:none;stroke-width:0.02;stroke-linecap:butt;stroke-linejoin:miter;stroke:rgb(0%,0%,0%);stroke-opacity:1;stroke-miterlimit:10;" d="M 5.892491 7.838356 L 5.892491 7.73335 " transform="matrix(28.346457,0,0,-28.346457,1,227.771654)"/>
<path style="fill:none;stroke-width:0.02;stroke-linecap:butt;stroke-linejoin:miter;stroke:rgb(0%,0%,0%);stroke-opacity:1;stroke-miterlimit:10;" d="M 7.214995 7.838356 L 7.214995 7.73335 " transform="matrix(28.346457,0,0,-28.346457,1,227.771654)"/>
<path style="fill:none;stroke-width:0.02;stroke-linecap:butt;stroke-linejoin:miter;stroke:rgb(0%,0%,0%);stroke-opacity:1;stroke-miterlimit:10;" d="M 8.537498 7.838356 L 8.537498 7.73335 " transform="matrix(28.346457,0,0,-28.346457,1,227.771654)"/>
<path style="fill:none;stroke-width:0.02;stroke-linecap:round;stroke-linejoin:miter;stroke:rgb(0%,0%,0%);stroke-opacity:1;stroke-miterlimit:10;" d="M 0.602616 7.838356 L 9.860001 7.838356 " transform="matrix(28.346457,0,0,-28.346457,1,227.771654)"/>
<path style="fill:none;stroke-width:0.02;stroke-linecap:butt;stroke-linejoin:miter;stroke:rgb(81.960784%,36.862745%,36.078431%);stroke-opacity:1;stroke-miterlimit:10;" d="M 1.925119 0.483077 L 2.005183 0.493964 L 2.085385 0.506504 L 2.165449 0.521249 L 2.245651 0.538337 L 2.325853 0.55818 L 2.405917 0.580918 L 2.486119 0.606963 L 2.566321 0.636866 L 2.646385 0.670628 L 2.726586 0.709076 L 2.80665 0.752208 L 2.886852 0.800715 L 2.967054 0.85501 L 3.047118 0.91523 L 3.12732 0.982065 L 3.207522 1.055652 L 3.287586 1.136543 L 3.367788 1.224875 L 3.447852 1.320924 L 3.528053 1.424829 L 3.608255 1.536863 L 3.688319 1.65689 L 3.768521 1.785048 L 3.848723 1.920922 L 3.928787 2.064514 L 4.008989 2.215271 L 4.089191 2.372781 L 4.169255 2.536492 L 4.249456 2.705439 L 4.32952 2.879072 L 4.409722 3.05615 L 4.489924 3.235846 L 4.569988 3.416645 L 4.65019 3.597581 L 4.730392 3.77714 L 4.810456 3.953804 L 4.890658 4.126197 L 4.970722 4.292802 L 5.050923 4.452241 L 5.131125 4.602722 L 5.211189 4.743007 L 5.291391 4.871715 L 5.371593 4.987471 L 5.451657 5.089032 L 5.531859 5.175435 L 5.612061 5.245715 L 5.692125 5.299045 L 5.772326 5.335012 L 5.85239 5.353064 L 5.932592 5.353064 L 6.012794 5.335012 L 6.092858 5.299045 L 6.17306 5.245715 L 6.253262 5.175435 L 6.333326 5.089032 L 6.413528 4.987471 L 6.493592 4.871715 L 6.573793 4.743007 L 6.653995 4.602722 L 6.734059 4.452241 L 6.814261 4.292802 L 6.894463 4.126197 L 6.974527 3.953804 L 7.054729 3.77714 L 7.134931 3.597581 L 7.214995 3.416645 L 7.295196 3.235846 L 7.37526 3.05615 L 7.455462 2.879072 L 7.535664 2.705439 L 7.615728 2.536492 L 7.69593 2.372781 L 7.776132 2.215271 L 7.856196 2.064514 L 7.936398 1.920922 L 8.016462 1.785048 L 8.096663 1.65689 L 8.176865 1.536863 L 8.256929 1.424829 L 8.337131 1.320924 L 8.417333 1.224875 L 8.497397 1.136543 L 8.577599 1.055652 L 8.657801 0.982065 L 8.737865 0.91523 L 8.818066 0.85501 L 8.89813 0.800715 L 8.978332 0.752208 L 9.058534 0.709076 L 9.138598 0.670628 L 9.2188 0.636866 L 9.299002 0.606963 L 9.379066 0.580918 L 9.459268 0.55818 L 9.539332 0.538337 L 9.619533 0.521249 L 9.699735 0.506504 L 9.779799 0.493964 L 9.860001 0.483077 " transform="matrix(28.346457,0,0,-28.346457,1,227.771654)"/>
</g>
</svg>
