<?xml version="1.0" encoding="UTF-8"?>
<svg xmlns="http://www.w3.org/2000/svg" xmlns:xlink="http://www.w3.org/1999/xlink" width="285.464567pt" height="228.771654pt" viewBox="0 0 285.464567 228.771654" version="1.1">
<g id="surface1">
<path style="fill-rule:nonzero;fill:rgb(96.078431%,87.058824%,70.196078%);fill-opacity:1;stroke-width:0.02;stroke-linecap:butt;stroke-linejoin:miter;stroke:rgb(100%,0%,0%);stroke-opacity:1;stroke-miterlimit:10;" d="M 1.206335 0.428369 L 2.274865 0.428369 L 2.274865 1.317617 L 1.206335 1.317617 Z M 1.206335 0.428369 " transform="matrix(28.346457,0,0,-28.346457,1,227.771654)"/>
<path style="fill-rule:nonzero;fill:rgb(96.078431%,87.058824%,70.196078%);fill-opacity:1;stroke-width:0.02;stroke-linecap:butt;stroke-linejoin:miter;stroke:rgb(100%,0%,0%);stroke-opacity:1;stroke-miterlimit:10;" d="M 2.274865 0.428369 L 3.343396 0.428369 L 3.343396 3.095975 L 2.274865 3.095975 Z M 2.274865 0.428369 " transform="matrix(28.346457,0,0,-28.346457,1,227.771654)"/>
<path style="fill-rule:nonzero;fill:rgb(96.078431%,87.058824%,70.196078%);fill-opacity:1;stroke-width:0.02;stroke-linecap:butt;stroke-linejoin:miter;stroke:rgb(100%,0%,0%);stroke-opacity:1;stroke-miterlimit:10;" d="M 3.343396 0.428369 L 4.411927 0.428369 L 4.411927 3.985086 L 3.343396 3.985086 Z M 3.343396 0.428369 " transform="matrix(28.346457,0,0,-28.346457,1,227.771654)"/>
<path style="fill-rule:nonzero;fill:rgb(96.078431%,87.058824%,70.196078%);fill-opacity:1;stroke-width:0.02;stroke-linecap:butt;stroke-linejoin:miter;stroke:rgb(100%,0%,0%);stroke-opacity:1;stroke-miterlimit:10;" d="M 4.411927 0.428369 L 5.480458 0.428369 L 5.480458 7.54194 L 4.411927 7.54194 Z M 4.411927 0.428369 " transform="matrix(28.346457,0,0,-28.346457,1,227.771654)"/>
<path style="fill-rule:nonzero;fill:rgb(96.078431%,87.058824%,70.196078%);fill-opacity:1;stroke-width:0.02;stroke-linecap:butt;stroke-linejoin:miter;stroke:rgb(100%,0%,0%);stroke-opacity:1;stroke-miterlimit:10;" d="M 5.480458 0.428369 L 6.549127 0.428369 L 6.549127 6.356276 L 5.480458 6.356276 Z M 5.480458 0.428369 " transform="matrix(28.346457,0,0,-28.346457,1,227.771654)"/>
<path style="fill-rule:nonzero;fill:rgb(96.078431%,87.058824%,70.196078%);fill-opacity:1;stroke-width:0.02;stroke-linecap:butt;stroke-linejoin:miter;stroke:rgb(100%,0%,0%);stroke-opacity:1;stroke-miterlimit:10;" d="M 6.549127 0.428369 L 7.617657 0.428369 L 7.617657 5.763582 L 6.549127 5.763582 Z M 6.549127 0.428369 " transform="matrix(28.346457,0,0,-28.346457,1,227.771654)"/>
<path style="fill-rule:nonzero;fill:rgb(96.078431%,87.058824%,70.196078%);fill-opacity:1;stroke-width:0.02;stroke-linecap:butt;stroke-linejoin:miter;stroke:rgb(100%,0%,0%);stroke-opacity:1;stroke-miterlimit:10;" d="M 7.617657 0.428369 L 8.686188 0.428369 L 8.686188 3.688808 L 7.617657 3.688808 Z M 7.617657 0.428369 " transform="matrix(28.346457,0,0,-28.346457,1,227.771654)"/>
<path style="fill-rule:nonzero;fill:rgb(96.078431%,87.058824%,70.196078%);fill-opacity:1;stroke-width:0.02;stroke-linecap:butt;stroke-linejoin:miter;stroke:rgb(100%,0%,0%);stroke-opacity:1;stroke-miterlimit:10;" d="M 8.686188 0.428369 L 9.754719 0.428369 L 9.754719 1.317617 L 8.686188 1.317617 Z M 8.686188 0.428369 " transform="matrix(28.346457,0,0,-28.346457,1,227.771654)"/>
<path style="fill:none;stroke-width:0.02;stroke-linecap:butt;stroke-linejoin:miter;stroke:rgb(0%,0%,0%);stroke-opacity:1;stroke-miterlimit:10;" d="M 0.525033 1.910311 L 0.630039 1.910311 " transform="matrix(28.346457,0,0,-28.346457,1,227.771654)"/>
<path style="fill:none;stroke-width:0.02;stroke-linecap:butt;stroke-linejoin:miter;stroke:rgb(0%,0%,0%);stroke-opacity:1;stroke-miterlimit:10;" d="M 0.525033 3.392391 L 0.630039 3.392391 " transform="matrix(28.346457,0,0,-28.346457,1,227.771654)"/>
<path style="fill:none;stroke-width:0.02;stroke-linecap:butt;stroke-linejoin:miter;stroke:rgb(0%,0%,0%);stroke-opacity:1;stroke-miterlimit:10;" d="M 0.525033 4.874334 L 0.630039 4.874334 " transform="matrix(28.346457,0,0,-28.346457,1,227.771654)"/>
<path style="fill:none;stroke-width:0.02;stroke-linecap:butt;stroke-linejoin:miter;stroke:rgb(0%,0%,0%);stroke-opacity:1;stroke-miterlimit:10;" d="M 0.525033 6.356276 L 0.630039 6.356276 " transform="matrix(28.346457,0,0,-28.346457,1,227.771654)"/>
<path style="fill:none;stroke-width:0.02;stroke-linecap:round;stroke-linejoin:miter;stroke:rgb(0%,0%,0%);stroke-opacity:1;stroke-miterlimit:10;" d="M 0.525033 0.428369 L 0.525033 7.838356 " transform="matrix(28.346457,0,0,-28.346457,1,227.771654)"/>
<path style=" stroke:none;fill-rule:nonzero;fill:rgb(0%,0%,0%);fill-opacity:1;" d="M 9.070312 212.886719 C 9.824219 212.941406 10.324219 213.632812 10.460938 214.332031 C 10.53125 214.648438 10.546875 214.949219 10.578125 215.265625 L 10.578125 216.078125 C 10.539062 216.902344 10.34375 217.988281 9.445312 218.324219 C 8.667969 218.632812 7.753906 218.148438 7.523438 217.355469 C 7.347656 216.933594 7.332031 216.503906 7.292969 216.078125 L 7.292969 215.265625 C 7.332031 214.441406 7.507812 213.347656 8.398438 212.980469 L 8.4375 212.964844 L 8.46875 212.957031 L 8.507812 212.941406 L 8.628906 212.910156 L 8.699219 212.894531 L 8.785156 212.894531 L 8.800781 212.886719 Z M 9.070312 212.886719 Z M 8.824219 213.371094 C 8.160156 213.449219 7.960938 214.25 7.914062 214.789062 L 7.914062 215.003906 L 7.898438 215.019531 L 7.898438 216.125 C 7.945312 216.695312 7.984375 217.433594 8.507812 217.816406 C 8.992188 218.148438 9.636719 217.773438 9.769531 217.257812 C 9.914062 216.878906 9.945312 216.503906 9.976562 216.125 L 9.976562 215.019531 C 9.929688 214.441406 9.851562 213.632812 9.183594 213.402344 L 9.128906 213.386719 L 9.113281 213.371094 L 9.039062 213.371094 L 9.023438 213.355469 L 8.839844 213.355469 Z M 8.824219 213.371094 Z M 8.824219 213.371094 "/>
<path style=" stroke:none;fill-rule:nonzero;fill:rgb(0%,0%,0%);fill-opacity:1;" d="M 10.246094 171.042969 L 10.246094 171.535156 L 8.183594 171.535156 L 8.167969 171.542969 L 8.167969 173.171875 C 8.359375 173.042969 8.628906 172.878906 8.882812 172.867188 C 9.777344 172.773438 10.46875 173.65625 10.507812 174.472656 C 10.636719 175.511719 9.660156 176.542969 8.613281 176.386719 C 8.085938 176.371094 7.578125 176.058594 7.277344 175.632812 C 7.367188 175.511719 7.4375 175.304688 7.539062 175.234375 C 7.914062 175.964844 9.121094 176.257812 9.605469 175.488281 C 9.914062 174.910156 9.90625 174.171875 9.546875 173.613281 C 9.136719 173.082031 8.316406 173.410156 8.128906 173.972656 L 7.613281 173.972656 L 7.613281 171.042969 Z M 10.246094 171.042969 Z M 10.246094 171.042969 "/>
<path style=" stroke:none;fill-rule:nonzero;fill:rgb(0%,0%,0%);fill-opacity:1;" d="M 5.347656 128.867188 L 5.347656 133.765625 L 5.355469 133.78125 L 6.332031 133.78125 L 6.332031 134.21875 L 3.753906 134.21875 L 3.753906 133.78125 L 4.730469 133.78125 L 4.746094 133.765625 L 4.746094 129.652344 C 4.414062 129.765625 4.0625 129.835938 3.714844 129.828125 L 3.714844 129.382812 C 4.238281 129.390625 4.808594 129.25 5.207031 128.867188 Z M 5.347656 128.867188 Z M 5.347656 128.867188 "/>
<path style=" stroke:none;fill-rule:nonzero;fill:rgb(0%,0%,0%);fill-opacity:1;" d="M 9.070312 128.867188 C 9.824219 128.921875 10.324219 129.613281 10.460938 130.3125 C 10.53125 130.628906 10.546875 130.933594 10.578125 131.25 L 10.578125 132.058594 C 10.539062 132.882812 10.34375 133.972656 9.445312 134.304688 C 8.667969 134.613281 7.753906 134.128906 7.523438 133.335938 C 7.347656 132.914062 7.332031 132.488281 7.292969 132.058594 L 7.292969 131.25 C 7.332031 130.421875 7.507812 129.328125 8.398438 128.964844 L 8.4375 128.949219 L 8.46875 128.941406 L 8.507812 128.921875 L 8.628906 128.890625 L 8.699219 128.875 L 8.785156 128.875 L 8.800781 128.867188 Z M 9.070312 128.867188 Z M 8.824219 129.351562 C 8.160156 129.429688 7.960938 130.234375 7.914062 130.773438 L 7.914062 130.988281 L 7.898438 131.003906 L 7.898438 132.105469 C 7.945312 132.679688 7.984375 133.414062 8.507812 133.796875 C 8.992188 134.128906 9.636719 133.757812 9.769531 133.242188 C 9.914062 132.859375 9.945312 132.488281 9.976562 132.105469 L 9.976562 131.003906 C 9.929688 130.421875 9.851562 129.613281 9.183594 129.382812 L 9.128906 129.367188 L 9.113281 129.351562 L 9.039062 129.351562 L 9.023438 129.335938 L 8.839844 129.335938 Z M 8.824219 129.351562 Z M 8.824219 129.351562 "/>
<path style=" stroke:none;fill-rule:nonzero;fill:rgb(0%,0%,0%);fill-opacity:1;" d="M 5.347656 86.859375 L 5.347656 91.757812 L 5.355469 91.773438 L 6.332031 91.773438 L 6.332031 92.207031 L 3.753906 92.207031 L 3.753906 91.773438 L 4.730469 91.773438 L 4.746094 91.757812 L 4.746094 87.644531 C 4.414062 87.757812 4.0625 87.828125 3.714844 87.820312 L 3.714844 87.375 C 4.238281 87.382812 4.808594 87.238281 5.207031 86.859375 Z M 5.347656 86.859375 Z M 5.347656 86.859375 "/>
<path style=" stroke:none;fill-rule:nonzero;fill:rgb(0%,0%,0%);fill-opacity:1;" d="M 10.246094 87.027344 L 10.246094 87.519531 L 8.183594 87.519531 L 8.167969 87.527344 L 8.167969 89.152344 C 8.359375 89.027344 8.628906 88.859375 8.882812 88.851562 C 9.777344 88.757812 10.46875 89.636719 10.507812 90.453125 C 10.636719 91.496094 9.660156 92.527344 8.613281 92.367188 C 8.085938 92.351562 7.578125 92.042969 7.277344 91.613281 C 7.367188 91.496094 7.4375 91.289062 7.539062 91.214844 C 7.914062 91.945312 9.121094 92.242188 9.605469 91.46875 C 9.914062 90.890625 9.90625 90.152344 9.546875 89.597656 C 9.136719 89.066406 8.316406 89.390625 8.128906 89.953125 L 7.613281 89.953125 L 7.613281 87.027344 Z M 10.246094 87.027344 Z M 10.246094 87.027344 "/>
<path style=" stroke:none;fill-rule:nonzero;fill:rgb(0%,0%,0%);fill-opacity:1;" d="M 5.015625 44.851562 C 5.9375 44.875 6.667969 45.820312 6.523438 46.707031 C 6.429688 47.597656 5.59375 48.105469 5 48.660156 L 4.746094 48.921875 L 4.714844 48.9375 L 4.398438 49.246094 L 4.375 49.261719 L 4.054688 49.582031 L 4.023438 49.597656 L 3.953125 49.667969 L 3.96875 49.675781 L 6.539062 49.675781 L 6.539062 50.199219 L 3.398438 50.199219 L 3.398438 49.722656 L 4.675781 48.445312 C 5.285156 47.914062 6 47.222656 5.890625 46.351562 C 5.824219 45.84375 5.398438 45.375 4.875 45.335938 C 4.339844 45.253906 3.875 45.675781 3.753906 46.183594 L 3.738281 46.207031 L 3.722656 46.261719 L 3.699219 46.351562 L 3.652344 46.523438 L 3.644531 46.566406 C 3.53125 46.429688 3.414062 46.285156 3.324219 46.136719 C 3.484375 45.484375 4.007812 44.875 4.699219 44.851562 Z M 5.015625 44.851562 Z M 5.015625 44.851562 "/>
<path style=" stroke:none;fill-rule:nonzero;fill:rgb(0%,0%,0%);fill-opacity:1;" d="M 9.070312 44.851562 C 9.824219 44.90625 10.324219 45.597656 10.460938 46.292969 C 10.53125 46.613281 10.546875 46.914062 10.578125 47.230469 L 10.578125 48.039062 C 10.539062 48.867188 10.34375 49.953125 9.445312 50.289062 C 8.667969 50.597656 7.753906 50.113281 7.523438 49.320312 C 7.347656 48.898438 7.332031 48.46875 7.292969 48.039062 L 7.292969 47.230469 C 7.332031 46.40625 7.507812 45.3125 8.398438 44.945312 L 8.4375 44.929688 L 8.46875 44.921875 L 8.507812 44.90625 L 8.628906 44.875 L 8.699219 44.859375 L 8.785156 44.859375 L 8.800781 44.851562 Z M 9.070312 44.851562 Z M 8.824219 45.335938 C 8.160156 45.414062 7.960938 46.214844 7.914062 46.753906 L 7.914062 46.96875 L 7.898438 46.984375 L 7.898438 48.089844 C 7.945312 48.660156 7.984375 49.398438 8.507812 49.777344 C 8.992188 50.113281 9.636719 49.738281 9.769531 49.222656 C 9.914062 48.84375 9.945312 48.46875 9.976562 48.089844 L 9.976562 46.984375 C 9.929688 46.40625 9.851562 45.597656 9.183594 45.367188 L 9.128906 45.351562 L 9.113281 45.335938 L 9.039062 45.335938 L 9.023438 45.320312 L 8.839844 45.320312 Z M 8.824219 45.335938 Z M 8.824219 45.335938 "/>
<path style=" stroke:none;fill-rule:nonzero;fill:rgb(0%,0%,0%);fill-opacity:1;" d="M 5.015625 2.839844 C 5.9375 2.863281 6.667969 3.808594 6.523438 4.699219 C 6.429688 5.585938 5.59375 6.09375 5 6.652344 L 4.746094 6.914062 L 4.714844 6.929688 L 4.398438 7.238281 L 4.375 7.253906 L 4.054688 7.570312 L 4.023438 7.585938 L 3.953125 7.660156 L 3.96875 7.667969 L 6.539062 7.667969 L 6.539062 8.191406 L 3.398438 8.191406 L 3.398438 7.714844 L 4.675781 6.4375 C 5.285156 5.90625 6 5.214844 5.890625 4.339844 C 5.824219 3.832031 5.398438 3.363281 4.875 3.324219 C 4.339844 3.246094 3.875 3.667969 3.753906 4.175781 L 3.738281 4.199219 L 3.722656 4.253906 L 3.699219 4.339844 L 3.652344 4.515625 L 3.644531 4.554688 C 3.53125 4.421875 3.414062 4.277344 3.324219 4.128906 C 3.484375 3.476562 4.007812 2.863281 4.699219 2.839844 Z M 5.015625 2.839844 Z M 5.015625 2.839844 "/>
<path style=" stroke:none;fill-rule:nonzero;fill:rgb(0%,0%,0%);fill-opacity:1;" d="M 10.246094 3.007812 L 10.246094 3.5 L 8.183594 3.5 L 8.167969 3.507812 L 8.167969 5.136719 C 8.359375 5.007812 8.628906 4.839844 8.882812 4.832031 C 9.777344 4.738281 10.46875 5.621094 10.507812 6.4375 C 10.636719 7.476562 9.660156 8.507812 8.613281 8.351562 C 8.085938 8.332031 7.578125 8.023438 7.277344 7.59375 C 7.367188 7.476562 7.4375 7.269531 7.539062 7.199219 C 7.914062 7.929688 9.121094 8.222656 9.605469 7.453125 C 9.914062 6.875 9.90625 6.136719 9.546875 5.578125 C 9.136719 5.046875 8.316406 5.375 8.128906 5.9375 L 7.613281 5.9375 L 7.613281 3.007812 Z M 10.246094 3.007812 Z M 10.246094 3.007812 "/>
<path style="fill:none;stroke-width:0.02;stroke-linecap:butt;stroke-linejoin:miter;stroke:rgb(0%,0%,0%);stroke-opacity:1;stroke-miterlimit:10;" d="M 9.930005 1.910311 L 9.824999 1.910311 " transform="matrix(28.346457,0,0,-28.346457,1,227.771654)"/>
<path style="fill:none;stroke-width:0.02;stroke-linecap:butt;stroke-linejoin:miter;stroke:rgb(0%,0%,0%);stroke-opacity:1;stroke-miterlimit:10;" d="M 9.930005 3.392391 L 9.824999 3.392391 " transform="matrix(28.346457,0,0,-28.346457,1,227.771654)"/>
<path style="fill:none;stroke-width:0.02;stroke-linecap:butt;stroke-linejoin:miter;stroke:rgb(0%,0%,0%);stroke-opacity:1;stroke-miterlimit:10;" d="M 9.930005 4.874334 L 9.824999 4.874334 " transform="matrix(28.346457,0,0,-28.346457,1,227.771654)"/>
<path style="fill:none;stroke-width:0.02;stroke-linecap:butt;stroke-linejoin:miter;stroke:rgb(0%,0%,0%);stroke-opacity:1;stroke-miterlimit:10;" d="M 9.930005 6.356276 L 9.824999 6.356276 " transform="matrix(28.346457,0,0,-28.346457,1,227.771654)"/>
<path style="fill:none;stroke-width:0.02;stroke-linecap:round;stroke-linejoin:miter;stroke:rgb(0%,0%,0%);stroke-opacity:1;stroke-miterlimit:10;" d="M 9.930005 0.428369 L 9.930005 7.838356 " transform="matrix(28.346457,0,0,-28.346457,1,227.771654)"/>
<path style="fill:none;stroke-width:0.02;stroke-linecap:butt;stroke-linejoin:miter;stroke:rgb(0%,0%,0%);stroke-opacity:1;stroke-miterlimit:10;" d="M 2.23504 0.428369 L 2.23504 0.533376 " transform="matrix(28.346457,0,0,-28.346457,1,227.771654)"/>
<path style="fill:none;stroke-width:0.02;stroke-linecap:butt;stroke-linejoin:miter;stroke:rgb(0%,0%,0%);stroke-opacity:1;stroke-miterlimit:10;" d="M 3.945048 0.428369 L 3.945048 0.533376 " transform="matrix(28.346457,0,0,-28.346457,1,227.771654)"/>
<path style="fill:none;stroke-width:0.02;stroke-linecap:butt;stroke-linejoin:miter;stroke:rgb(0%,0%,0%);stroke-opacity:1;stroke-miterlimit:10;" d="M 5.655055 0.428369 L 5.655055 0.533376 " transform="matrix(28.346457,0,0,-28.346457,1,227.771654)"/>
<path style="fill:none;stroke-width:0.02;stroke-linecap:butt;stroke-linejoin:miter;stroke:rgb(0%,0%,0%);stroke-opacity:1;stroke-miterlimit:10;" d="M 7.365063 0.428369 L 7.365063 0.533376 " transform="matrix(28.346457,0,0,-28.346457,1,227.771654)"/>
<path style="fill:none;stroke-width:0.02;stroke-linecap:butt;stroke-linejoin:miter;stroke:rgb(0%,0%,0%);stroke-opacity:1;stroke-miterlimit:10;" d="M 9.074933 0.428369 L 9.074933 0.533376 " transform="matrix(28.346457,0,0,-28.346457,1,227.771654)"/>
<path style="fill:none;stroke-width:0.02;stroke-linecap:round;stroke-linejoin:miter;stroke:rgb(0%,0%,0%);stroke-opacity:1;stroke-miterlimit:10;" d="M 0.525033 0.428369 L 9.930005 0.428369 " transform="matrix(28.346457,0,0,-28.346457,1,227.771654)"/>
<path style=" stroke:none;fill-rule:nonzero;fill:rgb(0%,0%,0%);fill-opacity:1;" d="M 14.75 223.828125 L 14.75 224.269531 L 12.671875 224.269531 L 12.671875 223.828125 Z M 14.75 223.828125 Z M 14.75 223.828125 "/>
<path style=" stroke:none;fill-rule:nonzero;fill:rgb(0%,0%,0%);fill-opacity:1;" d="M 17.355469 220.445312 C 18.050781 220.476562 18.78125 221.121094 18.617188 221.859375 C 18.535156 222.359375 18.1875 222.769531 17.75 222.992188 C 18.457031 223.214844 19.003906 223.960938 18.816406 224.699219 C 18.625 225.660156 17.519531 226.191406 16.632812 225.898438 C 16.203125 225.773438 15.765625 225.5 15.558594 225.105469 C 15.609375 224.984375 15.59375 224.78125 15.648438 224.699219 C 16.070312 225.320312 16.957031 225.738281 17.65625 225.390625 C 18.417969 224.90625 18.296875 223.492188 17.378906 223.253906 L 17.304688 223.253906 L 17.289062 223.238281 L 16.550781 223.238281 L 16.550781 222.761719 C 17.003906 222.753906 17.570312 222.699219 17.824219 222.230469 C 18.09375 221.828125 18.070312 221.160156 17.550781 220.960938 C 16.941406 220.722656 16.1875 221.113281 15.957031 221.730469 C 15.863281 221.597656 15.765625 221.460938 15.671875 221.320312 C 15.996094 220.730469 16.6875 220.382812 17.355469 220.445312 Z M 17.355469 220.445312 Z M 17.355469 220.445312 "/>
<path style=" stroke:none;fill-rule:nonzero;fill:rgb(0%,0%,0%);fill-opacity:1;" d="M 63.222656 223.828125 L 63.222656 224.269531 L 61.144531 224.269531 L 61.144531 223.828125 Z M 63.222656 223.828125 Z M 63.222656 223.828125 "/>
<path style=" stroke:none;fill-rule:nonzero;fill:rgb(0%,0%,0%);fill-opacity:1;" d="M 65.722656 220.445312 C 66.644531 220.46875 67.375 221.414062 67.230469 222.304688 C 67.136719 223.191406 66.304688 223.699219 65.707031 224.253906 L 65.453125 224.515625 L 65.421875 224.535156 L 65.105469 224.84375 L 65.082031 224.859375 L 64.761719 225.175781 L 64.730469 225.191406 L 64.660156 225.261719 L 64.675781 225.273438 L 67.246094 225.273438 L 67.246094 225.796875 L 64.105469 225.796875 L 64.105469 225.320312 L 65.382812 224.042969 C 65.992188 223.507812 66.707031 222.820312 66.597656 221.945312 C 66.53125 221.4375 66.105469 220.96875 65.582031 220.929688 C 65.046875 220.851562 64.582031 221.269531 64.460938 221.777344 L 64.445312 221.804688 L 64.429688 221.859375 L 64.40625 221.945312 L 64.359375 222.121094 L 64.351562 222.160156 C 64.238281 222.023438 64.121094 221.882812 64.03125 221.730469 C 64.191406 221.082031 64.714844 220.46875 65.40625 220.445312 Z M 65.722656 220.445312 Z M 65.722656 220.445312 "/>
<path style=" stroke:none;fill-rule:nonzero;fill:rgb(0%,0%,0%);fill-opacity:1;" d="M 111.695312 223.828125 L 111.695312 224.269531 L 109.617188 224.269531 L 109.617188 223.828125 Z M 111.695312 223.828125 Z M 111.695312 223.828125 "/>
<path style=" stroke:none;fill-rule:nonzero;fill:rgb(0%,0%,0%);fill-opacity:1;" d="M 114.527344 220.445312 L 114.527344 225.34375 L 114.539062 225.359375 L 115.511719 225.359375 L 115.511719 225.796875 L 112.933594 225.796875 L 112.933594 225.359375 L 113.910156 225.359375 L 113.925781 225.34375 L 113.925781 221.230469 C 113.59375 221.34375 113.242188 221.414062 112.894531 221.40625 L 112.894531 220.960938 C 113.417969 220.96875 113.988281 220.828125 114.386719 220.445312 Z M 114.527344 220.445312 Z M 114.527344 220.445312 "/>
<path style=" stroke:none;fill-rule:nonzero;fill:rgb(0%,0%,0%);fill-opacity:1;" d="M 161.433594 220.445312 C 162.1875 220.5 162.6875 221.191406 162.824219 221.890625 C 162.894531 222.207031 162.910156 222.507812 162.941406 222.828125 L 162.941406 223.636719 C 162.902344 224.460938 162.703125 225.550781 161.808594 225.882812 C 161.03125 226.191406 160.117188 225.707031 159.886719 224.914062 C 159.710938 224.492188 159.695312 224.066406 159.65625 223.636719 L 159.65625 222.828125 C 159.695312 222 159.871094 220.90625 160.757812 220.542969 L 160.800781 220.523438 L 160.832031 220.515625 L 160.871094 220.5 L 160.988281 220.46875 L 161.0625 220.453125 L 161.148438 220.453125 L 161.164062 220.445312 Z M 161.433594 220.445312 Z M 161.1875 220.929688 C 160.519531 221.007812 160.324219 221.8125 160.273438 222.351562 L 160.273438 222.566406 L 160.257812 222.582031 L 160.257812 223.683594 C 160.308594 224.253906 160.347656 224.992188 160.871094 225.375 C 161.355469 225.707031 161.996094 225.335938 162.132812 224.820312 C 162.277344 224.4375 162.308594 224.066406 162.339844 223.683594 L 162.339844 222.582031 C 162.292969 222 162.210938 221.191406 161.546875 220.960938 L 161.488281 220.945312 L 161.472656 220.929688 L 161.402344 220.929688 L 161.386719 220.914062 L 161.203125 220.914062 Z M 161.1875 220.929688 Z M 161.1875 220.929688 "/>
<path style=" stroke:none;fill-rule:nonzero;fill:rgb(0%,0%,0%);fill-opacity:1;" d="M 210.152344 220.445312 L 210.152344 225.34375 L 210.160156 225.359375 L 211.136719 225.359375 L 211.136719 225.796875 L 208.558594 225.796875 L 208.558594 225.359375 L 209.535156 225.359375 L 209.550781 225.34375 L 209.550781 221.230469 C 209.214844 221.34375 208.867188 221.414062 208.519531 221.40625 L 208.519531 220.960938 C 209.042969 220.96875 209.613281 220.828125 210.007812 220.445312 Z M 210.152344 220.445312 Z M 210.152344 220.445312 "/>
<path style=" stroke:none;fill-rule:nonzero;fill:rgb(0%,0%,0%);fill-opacity:1;" d="M 258.292969 220.445312 C 259.210938 220.46875 259.941406 221.414062 259.800781 222.304688 C 259.703125 223.191406 258.871094 223.699219 258.277344 224.253906 L 258.023438 224.515625 L 257.988281 224.535156 L 257.671875 224.84375 L 257.648438 224.859375 L 257.332031 225.175781 L 257.300781 225.191406 L 257.226562 225.261719 L 257.242188 225.273438 L 259.816406 225.273438 L 259.816406 225.796875 L 256.671875 225.796875 L 256.671875 225.320312 L 257.949219 224.042969 C 258.5625 223.507812 259.277344 222.820312 259.164062 221.945312 C 259.101562 221.4375 258.671875 220.96875 258.148438 220.929688 C 257.617188 220.851562 257.148438 221.269531 257.03125 221.777344 L 257.015625 221.804688 L 256.996094 221.859375 L 256.972656 221.945312 L 256.925781 222.121094 L 256.917969 222.160156 C 256.808594 222.023438 256.6875 221.882812 256.601562 221.730469 C 256.761719 221.082031 257.285156 220.46875 257.972656 220.445312 Z M 258.292969 220.445312 Z M 258.292969 220.445312 "/>
<path style="fill:none;stroke-width:0.02;stroke-linecap:butt;stroke-linejoin:miter;stroke:rgb(0%,0%,0%);stroke-opacity:1;stroke-miterlimit:10;" d="M 2.23504 7.838356 L 2.23504 7.73335 " transform="matrix(28.346457,0,0,-28.346457,1,227.771654)"/>
<path style="fill:none;stroke-width:0.02;stroke-linecap:butt;stroke-linejoin:miter;stroke:rgb(0%,0%,0%);stroke-opacity:1;stroke-miterlimit:10;" d="M 3.945048 7.838356 L 3.945048 7.73335 " transform="matrix(28.346457,0,0,-28.346457,1,227.771654)"/>
<path style="fill:none;stroke-width:0.02;stroke-linecap:butt;stroke-linejoin:miter;stroke:rgb(0%,0%,0%);stroke-opacity:1;stroke-miterlimit:10;" d="M 5.655055 7.838356 L 5.655055 7.73335 " transform="matrix(28.346457,0,0,-28.346457,1,227.771654)"/>
<path style="fill:none;stroke-width:0.02;stroke-linecap:butt;stroke-linejoin:miter;stroke:rgb(0%,0%,0%);stroke-opacity:1;stroke-miterlimit:10;" d="M 7.365063 7.838356 L 7.365063 7.73335 " transform="matrix(28.346457,0,0,-28.346457,1,227.771654)"/>
<path style="fill:none;stroke-width:0.02;stroke-linecap:butt;stroke-linejoin:miter;stroke:rgb(0%,0%,0%);stroke-opacity:1;stroke-miterlimit:10;" d="M 9.074933 7.838356 L 9.074933 7.73335 " transform="matrix(28.346457,0,0,-28.346457,1,227.771654)"/>
<path style="fill:none;stroke-width:0.02;stroke-linecap:round;stroke-linejoin:miter;stroke:rgb(0%,0%,0%);stroke-opacity:1;stroke-miterlimit:10;" d="M 0.525033 7.838356 L 9.930005 7.838356 " transform="matrix(28.346457,0,0,-28.346457,1,227.771654)"/>
</g>
</svg>
