<?xml version="1.0" encoding="UTF-8"?>
<svg xmlns="http://www.w3.org/2000/svg" xmlns:xlink="http://www.w3.org/1999/xlink" width="285.464567pt" height="228.771654pt" viewBox="0 0 285.464567 228.771654" version="1.1">
<g id="surface1">
<path style="fill-rule:nonzero;fill:rgb(100%,100%,100%);fill-opacity:1;stroke-width:0.02;stroke-linecap:butt;stroke-linejoin:miter;stroke:rgb(32.941176%,47.058824%,63.921569%);stroke-opacity:1;stroke-miterlimit:10;" d="M 1.29949 0.428369 L 1.660812 0.428369 L 1.660812 1.021201 L 1.29949 1.021201 Z M 1.29949 0.428369 " transform="matrix(28.346457,0,0,-28.346457,1,227.771654)"/>
<path style="fill-rule:nonzero;fill:rgb(100%,100%,100%);fill-opacity:1;stroke-width:0.02;stroke-linecap:butt;stroke-linejoin:miter;stroke:rgb(32.941176%,47.058824%,63.921569%);stroke-opacity:1;stroke-miterlimit:10;" d="M 2.022271 0.428369 L 2.38373 0.428369 L 2.38373 1.614033 L 2.022271 1.614033 Z M 2.022271 0.428369 " transform="matrix(28.346457,0,0,-28.346457,1,227.771654)"/>
<path style="fill-rule:nonzero;fill:rgb(100%,100%,100%);fill-opacity:1;stroke-width:0.02;stroke-linecap:butt;stroke-linejoin:miter;stroke:rgb(32.941176%,47.058824%,63.921569%);stroke-opacity:1;stroke-miterlimit:10;" d="M 2.38373 0.428369 L 2.74519 0.428369 L 2.74519 3.392391 L 2.38373 3.392391 Z M 2.38373 0.428369 " transform="matrix(28.346457,0,0,-28.346457,1,227.771654)"/>
<path style="fill-rule:nonzero;fill:rgb(100%,100%,100%);fill-opacity:1;stroke-width:0.02;stroke-linecap:butt;stroke-linejoin:miter;stroke:rgb(32.941176%,47.058824%,63.921569%);stroke-opacity:1;stroke-miterlimit:10;" d="M 2.74519 0.428369 L 3.106649 0.428369 L 3.106649 2.799559 L 2.74519 2.799559 Z M 2.74519 0.428369 " transform="matrix(28.346457,0,0,-28.346457,1,227.771654)"/>
<path style="fill-rule:nonzero;fill:rgb(100%,100%,100%);fill-opacity:1;stroke-width:0.02;stroke-linecap:butt;stroke-linejoin:miter;stroke:rgb(32.941176%,47.058824%,63.921569%);stroke-opacity:1;stroke-miterlimit:10;" d="M 3.106649 0.428369 L 3.468109 0.428369 L 3.468109 4.874334 L 3.106649 4.874334 Z M 3.106649 0.428369 " transform="matrix(28.346457,0,0,-28.346457,1,227.771654)"/>
<path style="fill-rule:nonzero;fill:rgb(100%,100%,100%);fill-opacity:1;stroke-width:0.02;stroke-linecap:butt;stroke-linejoin:miter;stroke:rgb(32.941176%,47.058824%,63.921569%);stroke-opacity:1;stroke-miterlimit:10;" d="M 3.468109 0.428369 L 3.829568 0.428369 L 3.829568 6.05986 L 3.468109 6.05986 Z M 3.468109 0.428369 " transform="matrix(28.346457,0,0,-28.346457,1,227.771654)"/>
<path style="fill-rule:nonzero;fill:rgb(100%,100%,100%);fill-opacity:1;stroke-width:0.02;stroke-linecap:butt;stroke-linejoin:miter;stroke:rgb(32.941176%,47.058824%,63.921569%);stroke-opacity:1;stroke-miterlimit:10;" d="M 3.829568 0.428369 L 4.191028 0.428369 L 4.191028 6.949108 L 3.829568 6.949108 Z M 3.829568 0.428369 " transform="matrix(28.346457,0,0,-28.346457,1,227.771654)"/>
<path style="fill-rule:nonzero;fill:rgb(100%,100%,100%);fill-opacity:1;stroke-width:0.02;stroke-linecap:butt;stroke-linejoin:miter;stroke:rgb(32.941176%,47.058824%,63.921569%);stroke-opacity:1;stroke-miterlimit:10;" d="M 4.191028 0.428369 L 4.552487 0.428369 L 4.552487 6.949108 L 4.191028 6.949108 Z M 4.191028 0.428369 " transform="matrix(28.346457,0,0,-28.346457,1,227.771654)"/>
<path style="fill-rule:nonzero;fill:rgb(100%,100%,100%);fill-opacity:1;stroke-width:0.02;stroke-linecap:butt;stroke-linejoin:miter;stroke:rgb(32.941176%,47.058824%,63.921569%);stroke-opacity:1;stroke-miterlimit:10;" d="M 4.552487 0.428369 L 4.913946 0.428369 L 4.913946 6.05986 L 4.552487 6.05986 Z M 4.552487 0.428369 " transform="matrix(28.346457,0,0,-28.346457,1,227.771654)"/>
<path style="fill-rule:nonzero;fill:rgb(100%,100%,100%);fill-opacity:1;stroke-width:0.02;stroke-linecap:butt;stroke-linejoin:miter;stroke:rgb(32.941176%,47.058824%,63.921569%);stroke-opacity:1;stroke-miterlimit:10;" d="M 4.913946 0.428369 L 5.275406 0.428369 L 5.275406 6.356276 L 4.913946 6.356276 Z M 4.913946 0.428369 " transform="matrix(28.346457,0,0,-28.346457,1,227.771654)"/>
<path style="fill-rule:nonzero;fill:rgb(100%,100%,100%);fill-opacity:1;stroke-width:0.02;stroke-linecap:butt;stroke-linejoin:miter;stroke:rgb(32.941176%,47.058824%,63.921569%);stroke-opacity:1;stroke-miterlimit:10;" d="M 5.275406 0.428369 L 5.636865 0.428369 L 5.636865 5.17075 L 5.275406 5.17075 Z M 5.275406 0.428369 " transform="matrix(28.346457,0,0,-28.346457,1,227.771654)"/>
<path style="fill-rule:nonzero;fill:rgb(100%,100%,100%);fill-opacity:1;stroke-width:0.02;stroke-linecap:butt;stroke-linejoin:miter;stroke:rgb(32.941176%,47.058824%,63.921569%);stroke-opacity:1;stroke-miterlimit:10;" d="M 5.636865 0.428369 L 5.998325 0.428369 L 5.998325 4.281502 L 5.636865 4.281502 Z M 5.636865 0.428369 " transform="matrix(28.346457,0,0,-28.346457,1,227.771654)"/>
<path style="fill-rule:nonzero;fill:rgb(100%,100%,100%);fill-opacity:1;stroke-width:0.02;stroke-linecap:butt;stroke-linejoin:miter;stroke:rgb(32.941176%,47.058824%,63.921569%);stroke-opacity:1;stroke-miterlimit:10;" d="M 5.998325 0.428369 L 6.359784 0.428369 L 6.359784 4.577918 L 5.998325 4.577918 Z M 5.998325 0.428369 " transform="matrix(28.346457,0,0,-28.346457,1,227.771654)"/>
<path style="fill-rule:nonzero;fill:rgb(100%,100%,100%);fill-opacity:1;stroke-width:0.02;stroke-linecap:butt;stroke-linejoin:miter;stroke:rgb(32.941176%,47.058824%,63.921569%);stroke-opacity:1;stroke-miterlimit:10;" d="M 6.359784 0.428369 L 6.721243 0.428369 L 6.721243 2.503143 L 6.359784 2.503143 Z M 6.359784 0.428369 " transform="matrix(28.346457,0,0,-28.346457,1,227.771654)"/>
<path style="fill-rule:nonzero;fill:rgb(100%,100%,100%);fill-opacity:1;stroke-width:0.02;stroke-linecap:butt;stroke-linejoin:miter;stroke:rgb(32.941176%,47.058824%,63.921569%);stroke-opacity:1;stroke-miterlimit:10;" d="M 6.721243 0.428369 L 7.082703 0.428369 L 7.082703 1.021201 L 6.721243 1.021201 Z M 6.721243 0.428369 " transform="matrix(28.346457,0,0,-28.346457,1,227.771654)"/>
<path style="fill-rule:nonzero;fill:rgb(100%,100%,100%);fill-opacity:1;stroke-width:0.02;stroke-linecap:butt;stroke-linejoin:miter;stroke:rgb(32.941176%,47.058824%,63.921569%);stroke-opacity:1;stroke-miterlimit:10;" d="M 7.082703 0.428369 L 7.444162 0.428369 L 7.444162 1.021201 L 7.082703 1.021201 Z M 7.082703 0.428369 " transform="matrix(28.346457,0,0,-28.346457,1,227.771654)"/>
<path style="fill-rule:nonzero;fill:rgb(100%,100%,100%);fill-opacity:1;stroke-width:0.02;stroke-linecap:butt;stroke-linejoin:miter;stroke:rgb(32.941176%,47.058824%,63.921569%);stroke-opacity:1;stroke-miterlimit:10;" d="M 7.444162 0.428369 L 7.805622 0.428369 L 7.805622 1.317617 L 7.444162 1.317617 Z M 7.444162 0.428369 " transform="matrix(28.346457,0,0,-28.346457,1,227.771654)"/>
<path style="fill-rule:nonzero;fill:rgb(100%,100%,100%);fill-opacity:1;stroke-width:0.02;stroke-linecap:butt;stroke-linejoin:miter;stroke:rgb(32.941176%,47.058824%,63.921569%);stroke-opacity:1;stroke-miterlimit:10;" d="M 7.805622 0.428369 L 8.167081 0.428369 L 8.167081 0.724785 L 7.805622 0.724785 Z M 7.805622 0.428369 " transform="matrix(28.346457,0,0,-28.346457,1,227.771654)"/>
<path style="fill-rule:nonzero;fill:rgb(100%,100%,100%);fill-opacity:1;stroke-width:0.02;stroke-linecap:butt;stroke-linejoin:miter;stroke:rgb(32.941176%,47.058824%,63.921569%);stroke-opacity:1;stroke-miterlimit:10;" d="M 8.167081 0.428369 L 8.528541 0.428369 L 8.528541 0.724785 L 8.167081 0.724785 Z M 8.167081 0.428369 " transform="matrix(28.346457,0,0,-28.346457,1,227.771654)"/>
<path style="fill:none;stroke-width:0.02;stroke-linecap:butt;stroke-linejoin:miter;stroke:rgb(0%,0%,0%);stroke-opacity:1;stroke-miterlimit:10;" d="M 0.525033 1.910311 L 0.630039 1.910311 " transform="matrix(28.346457,0,0,-28.346457,1,227.771654)"/>
<path style="fill:none;stroke-width:0.02;stroke-linecap:butt;stroke-linejoin:miter;stroke:rgb(0%,0%,0%);stroke-opacity:1;stroke-miterlimit:10;" d="M 0.525033 3.392391 L 0.630039 3.392391 " transform="matrix(28.346457,0,0,-28.346457,1,227.771654)"/>
<path style="fill:none;stroke-width:0.02;stroke-linecap:butt;stroke-linejoin:miter;stroke:rgb(0%,0%,0%);stroke-opacity:1;stroke-miterlimit:10;" d="M 0.525033 4.874334 L 0.630039 4.874334 " transform="matrix(28.346457,0,0,-28.346457,1,227.771654)"/>
<path style="fill:none;stroke-width:0.02;stroke-linecap:butt;stroke-linejoin:miter;stroke:rgb(0%,0%,0%);stroke-opacity:1;stroke-miterlimit:10;" d="M 0.525033 6.356276 L 0.630039 6.356276 " transform="matrix(28.346457,0,0,-28.346457,1,227.771654)"/>
<path style="fill:none;stroke-width:0.02;stroke-linecap:round;stroke-linejoin:miter;stroke:rgb(0%,0%,0%);stroke-opacity:1;stroke-miterlimit:10;" d="M 0.525033 0.428369 L 0.525033 7.838356 " transform="matrix(28.346457,0,0,-28.346457,1,227.771654)"/>
<path style=" stroke:none;fill-rule:nonzero;fill:rgb(0%,0%,0%);fill-opacity:1;" d="M 9.070312 212.886719 C 9.824219 212.941406 10.324219 213.632812 10.460938 214.332031 C 10.53125 214.648438 10.546875 214.949219 10.578125 215.265625 L 10.578125 216.078125 C 10.539062 216.902344 10.34375 217.988281 9.445312 218.324219 C 8.667969 218.632812 7.753906 218.148438 7.523438 217.355469 C 7.347656 216.933594 7.332031 216.503906 7.292969 216.078125 L 7.292969 215.265625 C 7.332031 214.441406 7.507812 213.347656 8.398438 212.980469 L 8.4375 212.964844 L 8.46875 212.957031 L 8.507812 212.941406 L 8.628906 212.910156 L 8.699219 212.894531 L 8.785156 212.894531 L 8.800781 212.886719 Z M 9.070312 212.886719 Z M 8.824219 213.371094 C 8.160156 213.449219 7.960938 214.25 7.914062 214.789062 L 7.914062 215.003906 L 7.898438 215.019531 L 7.898438 216.125 C 7.945312 216.695312 7.984375 217.433594 8.507812 217.816406 C 8.992188 218.148438 9.636719 217.773438 9.769531 217.257812 C 9.914062 216.878906 9.945312 216.503906 9.976562 216.125 L 9.976562 215.019531 C 9.929688 214.441406 9.851562 213.632812 9.183594 213.402344 L 9.128906 213.386719 L 9.113281 213.371094 L 9.039062 213.371094 L 9.023438 213.355469 L 8.839844 213.355469 Z M 8.824219 213.371094 Z M 8.824219 213.371094 "/>
<path style=" stroke:none;fill-rule:nonzero;fill:rgb(0%,0%,0%);fill-opacity:1;" d="M 10.246094 171.042969 L 10.246094 171.535156 L 8.183594 171.535156 L 8.167969 171.542969 L 8.167969 173.171875 C 8.359375 173.042969 8.628906 172.878906 8.882812 172.867188 C 9.777344 172.773438 10.46875 173.65625 10.507812 174.472656 C 10.636719 175.511719 9.660156 176.542969 8.613281 176.386719 C 8.085938 176.371094 7.578125 176.058594 7.277344 175.632812 C 7.367188 175.511719 7.4375 175.304688 7.539062 175.234375 C 7.914062 175.964844 9.121094 176.257812 9.605469 175.488281 C 9.914062 174.910156 9.90625 174.171875 9.546875 173.613281 C 9.136719 173.082031 8.316406 173.410156 8.128906 173.972656 L 7.613281 173.972656 L 7.613281 171.042969 Z M 10.246094 171.042969 Z M 10.246094 171.042969 "/>
<path style=" stroke:none;fill-rule:nonzero;fill:rgb(0%,0%,0%);fill-opacity:1;" d="M 5.347656 128.867188 L 5.347656 133.765625 L 5.355469 133.78125 L 6.332031 133.78125 L 6.332031 134.21875 L 3.753906 134.21875 L 3.753906 133.78125 L 4.730469 133.78125 L 4.746094 133.765625 L 4.746094 129.652344 C 4.414062 129.765625 4.0625 129.835938 3.714844 129.828125 L 3.714844 129.382812 C 4.238281 129.390625 4.808594 129.25 5.207031 128.867188 Z M 5.347656 128.867188 Z M 5.347656 128.867188 "/>
<path style=" stroke:none;fill-rule:nonzero;fill:rgb(0%,0%,0%);fill-opacity:1;" d="M 9.070312 128.867188 C 9.824219 128.921875 10.324219 129.613281 10.460938 130.3125 C 10.53125 130.628906 10.546875 130.933594 10.578125 131.25 L 10.578125 132.058594 C 10.539062 132.882812 10.34375 133.972656 9.445312 134.304688 C 8.667969 134.613281 7.753906 134.128906 7.523438 133.335938 C 7.347656 132.914062 7.332031 132.488281 7.292969 132.058594 L 7.292969 131.25 C 7.332031 130.421875 7.507812 129.328125 8.398438 128.964844 L 8.4375 128.949219 L 8.46875 128.941406 L 8.507812 128.921875 L 8.628906 128.890625 L 8.699219 128.875 L 8.785156 128.875 L 8.800781 128.867188 Z M 9.070312 128.867188 Z M 8.824219 129.351562 C 8.160156 129.429688 7.960938 130.234375 7.914062 130.773438 L 7.914062 130.988281 L 7.898438 131.003906 L 7.898438 132.105469 C 7.945312 132.679688 7.984375 133.414062 8.507812 133.796875 C 8.992188 134.128906 9.636719 133.757812 9.769531 133.242188 C 9.914062 132.859375 9.945312 132.488281 9.976562 132.105469 L 9.976562 131.003906 C 9.929688 130.421875 9.851562 129.613281 9.183594 129.382812 L 9.128906 129.367188 L 9.113281 129.351562 L 9.039062 129.351562 L 9.023438 129.335938 L 8.839844 129.335938 Z M 8.824219 129.351562 Z M 8.824219 129.351562 "/>
<path style=" stroke:none;fill-rule:nonzero;fill:rgb(0%,0%,0%);fill-opacity:1;" d="M 5.347656 86.859375 L 5.347656 91.757812 L 5.355469 91.773438 L 6.332031 91.773438 L 6.332031 92.207031 L 3.753906 92.207031 L 3.753906 91.773438 L 4.730469 91.773438 L 4.746094 91.757812 L 4.746094 87.644531 C 4.414062 87.757812 4.0625 87.828125 3.714844 87.820312 L 3.714844 87.375 C 4.238281 87.382812 4.808594 87.238281 5.207031 86.859375 Z M 5.347656 86.859375 Z M 5.347656 86.859375 "/>
<path style=" stroke:none;fill-rule:nonzero;fill:rgb(0%,0%,0%);fill-opacity:1;" d="M 10.246094 87.027344 L 10.246094 87.519531 L 8.183594 87.519531 L 8.167969 87.527344 L 8.167969 89.152344 C 8.359375 89.027344 8.628906 88.859375 8.882812 88.851562 C 9.777344 88.757812 10.46875 89.636719 10.507812 90.453125 C 10.636719 91.496094 9.660156 92.527344 8.613281 92.367188 C 8.085938 92.351562 7.578125 92.042969 7.277344 91.613281 C 7.367188 91.496094 7.4375 91.289062 7.539062 91.214844 C 7.914062 91.945312 9.121094 92.242188 9.605469 91.46875 C 9.914062 90.890625 9.90625 90.152344 9.546875 89.597656 C 9.136719 89.066406 8.316406 89.390625 8.128906 89.953125 L 7.613281 89.953125 L 7.613281 87.027344 Z M 10.246094 87.027344 Z M 10.246094 87.027344 "/>
<path style=" stroke:none;fill-rule:nonzero;fill:rgb(0%,0%,0%);fill-opacity:1;" d="M 5.015625 44.851562 C 5.9375 44.875 6.667969 45.820312 6.523438 46.707031 C 6.429688 47.597656 5.59375 48.105469 5 48.660156 L 4.746094 48.921875 L 4.714844 48.9375 L 4.398438 49.246094 L 4.375 49.261719 L 4.054688 49.582031 L 4.023438 49.597656 L 3.953125 49.667969 L 3.96875 49.675781 L 6.539062 49.675781 L 6.539062 50.199219 L 3.398438 50.199219 L 3.398438 49.722656 L 4.675781 48.445312 C 5.285156 47.914062 6 47.222656 5.890625 46.351562 C 5.824219 45.84375 5.398438 45.375 4.875 45.335938 C 4.339844 45.253906 3.875 45.675781 3.753906 46.183594 L 3.738281 46.207031 L 3.722656 46.261719 L 3.699219 46.351562 L 3.652344 46.523438 L 3.644531 46.566406 C 3.53125 46.429688 3.414062 46.285156 3.324219 46.136719 C 3.484375 45.484375 4.007812 44.875 4.699219 44.851562 Z M 5.015625 44.851562 Z M 5.015625 44.851562 "/>
<path style=" stroke:none;fill-rule:nonzero;fill:rgb(0%,0%,0%);fill-opacity:1;" d="M 9.070312 44.851562 C 9.824219 44.90625 10.324219 45.597656 10.460938 46.292969 C 10.53125 46.613281 10.546875 46.914062 10.578125 47.230469 L 10.578125 48.039062 C 10.539062 48.867188 10.34375 49.953125 9.445312 50.289062 C 8.667969 50.597656 7.753906 50.113281 7.523438 49.320312 C 7.347656 48.898438 7.332031 48.46875 7.292969 48.039062 L 7.292969 47.230469 C 7.332031 46.40625 7.507812 45.3125 8.398438 44.945312 L 8.4375 44.929688 L 8.46875 44.921875 L 8.507812 44.90625 L 8.628906 44.875 L 8.699219 44.859375 L 8.785156 44.859375 L 8.800781 44.851562 Z M 9.070312 44.851562 Z M 8.824219 45.335938 C 8.160156 45.414062 7.960938 46.214844 7.914062 46.753906 L 7.914062 46.96875 L 7.898438 46.984375 L 7.898438 48.089844 C 7.945312 48.660156 7.984375 49.398438 8.507812 49.777344 C 8.992188 50.113281 9.636719 49.738281 9.769531 49.222656 C 9.914062 48.84375 9.945312 48.46875 9.976562 48.089844 L 9.976562 46.984375 C 9.929688 46.40625 9.851562 45.597656 9.183594 45.367188 L 9.128906 45.351562 L 9.113281 45.335938 L 9.039062 45.335938 L 9.023438 45.320312 L 8.839844 45.320312 Z M 8.824219 45.335938 Z M 8.824219 45.335938 "/>
<path style=" stroke:none;fill-rule:nonzero;fill:rgb(0%,0%,0%);fill-opacity:1;" d="M 5.015625 2.839844 C 5.9375 2.863281 6.667969 3.808594 6.523438 4.699219 C 6.429688 5.585938 5.59375 6.09375 5 6.652344 L 4.746094 6.914062 L 4.714844 6.929688 L 4.398438 7.238281 L 4.375 7.253906 L 4.054688 7.570312 L 4.023438 7.585938 L 3.953125 7.660156 L 3.96875 7.667969 L 6.539062 7.667969 L 6.539062 8.191406 L 3.398438 8.191406 L 3.398438 7.714844 L 4.675781 6.4375 C 5.285156 5.90625 6 5.214844 5.890625 4.339844 C 5.824219 3.832031 5.398438 3.363281 4.875 3.324219 C 4.339844 3.246094 3.875 3.667969 3.753906 4.175781 L 3.738281 4.199219 L 3.722656 4.253906 L 3.699219 4.339844 L 3.652344 4.515625 L 3.644531 4.554688 C 3.53125 4.421875 3.414062 4.277344 3.324219 4.128906 C 3.484375 3.476562 4.007812 2.863281 4.699219 2.839844 Z M 5.015625 2.839844 Z M 5.015625 2.839844 "/>
<path style=" stroke:none;fill-rule:nonzero;fill:rgb(0%,0%,0%);fill-opacity:1;" d="M 10.246094 3.007812 L 10.246094 3.5 L 8.183594 3.5 L 8.167969 3.507812 L 8.167969 5.136719 C 8.359375 5.007812 8.628906 4.839844 8.882812 4.832031 C 9.777344 4.738281 10.46875 5.621094 10.507812 6.4375 C 10.636719 7.476562 9.660156 8.507812 8.613281 8.351562 C 8.085938 8.332031 7.578125 8.023438 7.277344 7.59375 C 7.367188 7.476562 7.4375 7.269531 7.539062 7.199219 C 7.914062 7.929688 9.121094 8.222656 9.605469 7.453125 C 9.914062 6.875 9.90625 6.136719 9.546875 5.578125 C 9.136719 5.046875 8.316406 5.375 8.128906 5.9375 L 7.613281 5.9375 L 7.613281 3.007812 Z M 10.246094 3.007812 Z M 10.246094 3.007812 "/>
<path style="fill:none;stroke-width:0.02;stroke-linecap:butt;stroke-linejoin:miter;stroke:rgb(0%,0%,0%);stroke-opacity:1;stroke-miterlimit:10;" d="M 9.751274 1.910311 L 9.646267 1.910311 " transform="matrix(28.346457,0,0,-28.346457,1,227.771654)"/>
<path style="fill:none;stroke-width:0.02;stroke-linecap:butt;stroke-linejoin:miter;stroke:rgb(0%,0%,0%);stroke-opacity:1;stroke-miterlimit:10;" d="M 9.751274 3.392391 L 9.646267 3.392391 " transform="matrix(28.346457,0,0,-28.346457,1,227.771654)"/>
<path style="fill:none;stroke-width:0.02;stroke-linecap:butt;stroke-linejoin:miter;stroke:rgb(0%,0%,0%);stroke-opacity:1;stroke-miterlimit:10;" d="M 9.751274 4.874334 L 9.646267 4.874334 " transform="matrix(28.346457,0,0,-28.346457,1,227.771654)"/>
<path style="fill:none;stroke-width:0.02;stroke-linecap:butt;stroke-linejoin:miter;stroke:rgb(0%,0%,0%);stroke-opacity:1;stroke-miterlimit:10;" d="M 9.751274 6.356276 L 9.646267 6.356276 " transform="matrix(28.346457,0,0,-28.346457,1,227.771654)"/>
<path style="fill:none;stroke-width:0.02;stroke-linecap:round;stroke-linejoin:miter;stroke:rgb(0%,0%,0%);stroke-opacity:1;stroke-miterlimit:10;" d="M 9.751274 0.428369 L 9.751274 7.838356 " transform="matrix(28.346457,0,0,-28.346457,1,227.771654)"/>
<path style="fill:none;stroke-width:0.02;stroke-linecap:butt;stroke-linejoin:miter;stroke:rgb(0%,0%,0%);stroke-opacity:1;stroke-miterlimit:10;" d="M 1.842988 0.428369 L 1.842988 0.533376 " transform="matrix(28.346457,0,0,-28.346457,1,227.771654)"/>
<path style="fill:none;stroke-width:0.02;stroke-linecap:butt;stroke-linejoin:miter;stroke:rgb(0%,0%,0%);stroke-opacity:1;stroke-miterlimit:10;" d="M 3.161082 0.428369 L 3.161082 0.533376 " transform="matrix(28.346457,0,0,-28.346457,1,227.771654)"/>
<path style="fill:none;stroke-width:0.02;stroke-linecap:butt;stroke-linejoin:miter;stroke:rgb(0%,0%,0%);stroke-opacity:1;stroke-miterlimit:10;" d="M 4.479038 0.428369 L 4.479038 0.533376 " transform="matrix(28.346457,0,0,-28.346457,1,227.771654)"/>
<path style="fill:none;stroke-width:0.02;stroke-linecap:butt;stroke-linejoin:miter;stroke:rgb(0%,0%,0%);stroke-opacity:1;stroke-miterlimit:10;" d="M 5.797131 0.428369 L 5.797131 0.533376 " transform="matrix(28.346457,0,0,-28.346457,1,227.771654)"/>
<path style="fill:none;stroke-width:0.02;stroke-linecap:butt;stroke-linejoin:miter;stroke:rgb(0%,0%,0%);stroke-opacity:1;stroke-miterlimit:10;" d="M 7.115225 0.428369 L 7.115225 0.533376 " transform="matrix(28.346457,0,0,-28.346457,1,227.771654)"/>
<path style="fill:none;stroke-width:0.02;stroke-linecap:butt;stroke-linejoin:miter;stroke:rgb(0%,0%,0%);stroke-opacity:1;stroke-miterlimit:10;" d="M 8.43318 0.428369 L 8.43318 0.533376 " transform="matrix(28.346457,0,0,-28.346457,1,227.771654)"/>
<path style="fill:none;stroke-width:0.02;stroke-linecap:round;stroke-linejoin:miter;stroke:rgb(0%,0%,0%);stroke-opacity:1;stroke-miterlimit:10;" d="M 0.525033 0.428369 L 9.751274 0.428369 " transform="matrix(28.346457,0,0,-28.346457,1,227.771654)"/>
<path style=" stroke:none;fill-rule:nonzero;fill:rgb(0%,0%,0%);fill-opacity:1;" d="M 12.933594 220.445312 C 13.6875 220.5 14.1875 221.191406 14.324219 221.890625 C 14.394531 222.207031 14.410156 222.507812 14.441406 222.828125 L 14.441406 223.636719 C 14.402344 224.460938 14.203125 225.550781 13.304688 225.882812 C 12.527344 226.191406 11.617188 225.707031 11.386719 224.914062 C 11.210938 224.492188 11.195312 224.066406 11.15625 223.636719 L 11.15625 222.828125 C 11.195312 222 11.371094 220.90625 12.257812 220.542969 L 12.296875 220.523438 L 12.332031 220.515625 L 12.371094 220.5 L 12.488281 220.46875 L 12.558594 220.453125 L 12.648438 220.453125 L 12.664062 220.445312 Z M 12.933594 220.445312 Z M 12.6875 220.929688 C 12.019531 221.007812 11.820312 221.8125 11.773438 222.351562 L 11.773438 222.566406 L 11.757812 222.582031 L 11.757812 223.683594 C 11.804688 224.253906 11.847656 224.992188 12.371094 225.375 C 12.855469 225.707031 13.496094 225.335938 13.632812 224.820312 C 13.773438 224.4375 13.804688 224.066406 13.839844 223.683594 L 13.839844 222.582031 C 13.789062 222 13.710938 221.191406 13.042969 220.960938 L 12.988281 220.945312 L 12.972656 220.929688 L 12.902344 220.929688 L 12.886719 220.914062 L 12.703125 220.914062 Z M 12.6875 220.929688 Z M 12.6875 220.929688 "/>
<path style=" stroke:none;fill-rule:nonzero;fill:rgb(0%,0%,0%);fill-opacity:1;" d="M 16.210938 225.160156 L 16.210938 225.796875 L 15.570312 225.796875 L 15.570312 225.160156 Z M 16.210938 225.160156 Z M 16.210938 225.160156 "/>
<path style=" stroke:none;fill-rule:nonzero;fill:rgb(0%,0%,0%);fill-opacity:1;" d="M 19.917969 220.613281 L 19.917969 223.953125 L 19.933594 223.96875 L 20.71875 223.96875 L 20.71875 224.445312 L 19.933594 224.445312 L 19.917969 224.453125 L 19.917969 225.796875 L 19.316406 225.796875 L 19.316406 224.453125 L 19.296875 224.445312 L 17.203125 224.445312 L 17.203125 223.953125 C 17.871094 222.84375 18.535156 221.722656 19.203125 220.613281 Z M 19.917969 220.613281 Z M 19.332031 220.914062 C 19.171875 221.738281 18.664062 222.445312 18.28125 223.167969 C 18.132812 223.429688 17.933594 223.714844 17.824219 223.96875 L 19.347656 223.96875 L 19.355469 223.953125 L 19.355469 220.914062 L 19.347656 220.898438 Z M 19.332031 220.914062 Z M 19.332031 220.914062 "/>
<path style=" stroke:none;fill-rule:nonzero;fill:rgb(0%,0%,0%);fill-opacity:1;" d="M 50.292969 220.445312 C 51.046875 220.5 51.550781 221.191406 51.683594 221.890625 C 51.753906 222.207031 51.769531 222.507812 51.804688 222.828125 L 51.804688 223.636719 C 51.761719 224.460938 51.566406 225.550781 50.667969 225.882812 C 49.890625 226.191406 48.976562 225.707031 48.746094 224.914062 C 48.574219 224.492188 48.554688 224.066406 48.515625 223.636719 L 48.515625 222.828125 C 48.554688 222 48.730469 220.90625 49.621094 220.542969 L 49.660156 220.523438 L 49.691406 220.515625 L 49.730469 220.5 L 49.851562 220.46875 L 49.921875 220.453125 L 50.007812 220.453125 L 50.023438 220.445312 Z M 50.292969 220.445312 Z M 50.046875 220.929688 C 49.382812 221.007812 49.183594 221.8125 49.136719 222.351562 L 49.136719 222.566406 L 49.121094 222.582031 L 49.121094 223.683594 C 49.167969 224.253906 49.207031 224.992188 49.730469 225.375 C 50.214844 225.707031 50.859375 225.335938 50.992188 224.820312 C 51.136719 224.4375 51.167969 224.066406 51.199219 223.683594 L 51.199219 222.582031 C 51.152344 222 51.074219 221.191406 50.40625 220.960938 L 50.351562 220.945312 L 50.335938 220.929688 L 50.261719 220.929688 L 50.246094 220.914062 L 50.066406 220.914062 Z M 50.046875 220.929688 Z M 50.046875 220.929688 "/>
<path style=" stroke:none;fill-rule:nonzero;fill:rgb(0%,0%,0%);fill-opacity:1;" d="M 53.574219 225.160156 L 53.574219 225.796875 L 52.929688 225.796875 L 52.929688 225.160156 Z M 53.574219 225.160156 Z M 53.574219 225.160156 "/>
<path style=" stroke:none;fill-rule:nonzero;fill:rgb(0%,0%,0%);fill-opacity:1;" d="M 56.976562 220.445312 C 57.183594 220.476562 57.421875 220.5 57.621094 220.597656 L 57.621094 221.058594 C 57.074219 220.820312 56.359375 220.785156 55.929688 221.269531 C 55.550781 221.675781 55.375 222.277344 55.359375 222.8125 C 55.820312 222.199219 56.859375 221.859375 57.421875 222.492188 C 57.984375 223.144531 58.082031 224.082031 57.828125 224.875 C 57.550781 225.507812 56.90625 226.089844 56.191406 225.953125 C 55.222656 225.875 54.789062 224.796875 54.738281 223.96875 C 54.558594 222.804688 54.835938 221.335938 55.945312 220.667969 L 55.960938 220.660156 L 56.128906 220.574219 L 56.175781 220.558594 L 56.199219 220.542969 L 56.335938 220.5 L 56.445312 220.46875 L 56.515625 220.453125 L 56.605469 220.453125 L 56.621094 220.445312 Z M 56.976562 220.445312 Z M 56.199219 222.652344 C 55.507812 222.769531 55.289062 223.605469 55.375 224.167969 C 55.414062 224.699219 55.621094 225.40625 56.230469 225.515625 C 56.882812 225.605469 57.304688 224.90625 57.320312 224.34375 C 57.351562 223.769531 57.320312 223.121094 56.820312 222.746094 L 56.707031 222.691406 L 56.621094 222.667969 L 56.550781 222.652344 L 56.535156 222.636719 L 56.214844 222.636719 Z M 56.199219 222.652344 Z M 56.199219 222.652344 "/>
<path style=" stroke:none;fill-rule:nonzero;fill:rgb(0%,0%,0%);fill-opacity:1;" d="M 87.65625 220.445312 C 88.410156 220.5 88.910156 221.191406 89.046875 221.890625 C 89.117188 222.207031 89.132812 222.507812 89.164062 222.828125 L 89.164062 223.636719 C 89.125 224.460938 88.925781 225.550781 88.03125 225.882812 C 87.25 226.191406 86.339844 225.707031 86.109375 224.914062 C 85.933594 224.492188 85.917969 224.066406 85.878906 223.636719 L 85.878906 222.828125 C 85.917969 222 86.09375 220.90625 86.980469 220.542969 L 87.019531 220.523438 L 87.054688 220.515625 L 87.09375 220.5 L 87.210938 220.46875 L 87.285156 220.453125 L 87.371094 220.453125 L 87.386719 220.445312 Z M 87.65625 220.445312 Z M 87.410156 220.929688 C 86.742188 221.007812 86.546875 221.8125 86.496094 222.351562 L 86.496094 222.566406 L 86.480469 222.582031 L 86.480469 223.683594 C 86.527344 224.253906 86.570312 224.992188 87.09375 225.375 C 87.578125 225.707031 88.21875 225.335938 88.355469 224.820312 C 88.496094 224.4375 88.53125 224.066406 88.5625 223.683594 L 88.5625 222.582031 C 88.511719 222 88.433594 221.191406 87.765625 220.960938 L 87.710938 220.945312 L 87.695312 220.929688 L 87.625 220.929688 L 87.609375 220.914062 L 87.425781 220.914062 Z M 87.410156 220.929688 Z M 87.410156 220.929688 "/>
<path style=" stroke:none;fill-rule:nonzero;fill:rgb(0%,0%,0%);fill-opacity:1;" d="M 90.933594 225.160156 L 90.933594 225.796875 L 90.292969 225.796875 L 90.292969 225.160156 Z M 90.933594 225.160156 Z M 90.933594 225.160156 "/>
<path style=" stroke:none;fill-rule:nonzero;fill:rgb(0%,0%,0%);fill-opacity:1;" d="M 93.839844 220.445312 C 94.679688 220.476562 95.472656 221.382812 95.140625 222.222656 C 95 222.613281 94.601562 222.851562 94.277344 223.015625 C 95.085938 223.253906 95.578125 224.199219 95.210938 224.976562 C 94.832031 225.984375 93.386719 226.304688 92.59375 225.574219 C 91.871094 225 91.847656 223.761719 92.648438 223.253906 C 92.769531 223.128906 92.988281 223.089844 93.09375 222.992188 C 92.402344 222.796875 91.933594 221.992188 92.261719 221.320312 C 92.523438 220.714844 93.195312 220.382812 93.839844 220.445312 Z M 93.839844 220.445312 Z M 93.539062 220.898438 C 92.949219 220.914062 92.539062 221.582031 92.734375 222.105469 C 92.964844 223.007812 94.480469 222.976562 94.65625 222.050781 C 94.816406 221.53125 94.402344 220.914062 93.839844 220.898438 L 93.824219 220.890625 L 93.554688 220.890625 Z M 93.539062 220.898438 Z M 93.554688 223.253906 C 92.863281 223.304688 92.523438 224.128906 92.703125 224.714844 C 92.824219 225.550781 94.015625 225.796875 94.480469 225.128906 C 94.933594 224.515625 94.710938 223.421875 93.894531 223.253906 L 93.824219 223.253906 L 93.808594 223.238281 L 93.5625 223.238281 Z M 93.554688 223.253906 Z M 93.554688 223.253906 "/>
<path style=" stroke:none;fill-rule:nonzero;fill:rgb(0%,0%,0%);fill-opacity:1;" d="M 125.265625 220.445312 L 125.265625 225.34375 L 125.273438 225.359375 L 126.25 225.359375 L 126.25 225.796875 L 123.667969 225.796875 L 123.667969 225.359375 L 124.644531 225.359375 L 124.660156 225.34375 L 124.660156 221.230469 C 124.328125 221.34375 123.976562 221.414062 123.628906 221.40625 L 123.628906 220.960938 C 124.152344 220.96875 124.722656 220.828125 125.121094 220.445312 Z M 125.265625 220.445312 Z M 125.265625 220.445312 "/>
<path style=" stroke:none;fill-rule:nonzero;fill:rgb(0%,0%,0%);fill-opacity:1;" d="M 128.296875 225.160156 L 128.296875 225.796875 L 127.652344 225.796875 L 127.652344 225.160156 Z M 128.296875 225.160156 Z M 128.296875 225.160156 "/>
<path style=" stroke:none;fill-rule:nonzero;fill:rgb(0%,0%,0%);fill-opacity:1;" d="M 131.183594 220.445312 C 131.9375 220.5 132.4375 221.191406 132.574219 221.890625 C 132.644531 222.207031 132.660156 222.507812 132.691406 222.828125 L 132.691406 223.636719 C 132.652344 224.460938 132.453125 225.550781 131.558594 225.882812 C 130.78125 226.191406 129.867188 225.707031 129.636719 224.914062 C 129.460938 224.492188 129.445312 224.066406 129.40625 223.636719 L 129.40625 222.828125 C 129.445312 222 129.621094 220.90625 130.511719 220.542969 L 130.550781 220.523438 L 130.582031 220.515625 L 130.621094 220.5 L 130.742188 220.46875 L 130.8125 220.453125 L 130.898438 220.453125 L 130.914062 220.445312 Z M 131.183594 220.445312 Z M 130.9375 220.929688 C 130.273438 221.007812 130.074219 221.8125 130.027344 222.351562 L 130.027344 222.566406 L 130.011719 222.582031 L 130.011719 223.683594 C 130.058594 224.253906 130.097656 224.992188 130.621094 225.375 C 131.105469 225.707031 131.75 225.335938 131.882812 224.820312 C 132.027344 224.4375 132.058594 224.066406 132.089844 223.683594 L 132.089844 222.582031 C 132.042969 222 131.960938 221.191406 131.296875 220.960938 L 131.242188 220.945312 L 131.222656 220.929688 L 131.152344 220.929688 L 131.136719 220.914062 L 130.953125 220.914062 Z M 130.9375 220.929688 Z M 130.9375 220.929688 "/>
<path style=" stroke:none;fill-rule:nonzero;fill:rgb(0%,0%,0%);fill-opacity:1;" d="M 162.625 220.445312 L 162.625 225.34375 L 162.632812 225.359375 L 163.609375 225.359375 L 163.609375 225.796875 L 161.03125 225.796875 L 161.03125 225.359375 L 162.007812 225.359375 L 162.023438 225.34375 L 162.023438 221.230469 C 161.6875 221.34375 161.339844 221.414062 160.992188 221.40625 L 160.992188 220.960938 C 161.515625 220.96875 162.085938 220.828125 162.484375 220.445312 Z M 162.625 220.445312 Z M 162.625 220.445312 "/>
<path style=" stroke:none;fill-rule:nonzero;fill:rgb(0%,0%,0%);fill-opacity:1;" d="M 165.65625 225.160156 L 165.65625 225.796875 L 165.015625 225.796875 L 165.015625 225.160156 Z M 165.65625 225.160156 Z M 165.65625 225.160156 "/>
<path style=" stroke:none;fill-rule:nonzero;fill:rgb(0%,0%,0%);fill-opacity:1;" d="M 168.460938 220.445312 C 169.378906 220.46875 170.109375 221.414062 169.96875 222.304688 C 169.871094 223.191406 169.039062 223.699219 168.441406 224.253906 L 168.1875 224.515625 L 168.15625 224.535156 L 167.839844 224.84375 L 167.816406 224.859375 L 167.5 225.175781 L 167.46875 225.191406 L 167.394531 225.261719 L 167.410156 225.273438 L 169.984375 225.273438 L 169.984375 225.796875 L 166.839844 225.796875 L 166.839844 225.320312 L 168.117188 224.042969 C 168.730469 223.507812 169.441406 222.820312 169.332031 221.945312 C 169.269531 221.4375 168.839844 220.96875 168.316406 220.929688 C 167.785156 220.851562 167.316406 221.269531 167.195312 221.777344 L 167.179688 221.804688 L 167.164062 221.859375 L 167.140625 221.945312 L 167.09375 222.121094 L 167.085938 222.160156 C 166.976562 222.023438 166.855469 221.882812 166.769531 221.730469 C 166.925781 221.082031 167.449219 220.46875 168.140625 220.445312 Z M 168.460938 220.445312 Z M 168.460938 220.445312 "/>
<path style=" stroke:none;fill-rule:nonzero;fill:rgb(0%,0%,0%);fill-opacity:1;" d="M 199.988281 220.445312 L 199.988281 225.34375 L 199.996094 225.359375 L 200.972656 225.359375 L 200.972656 225.796875 L 198.390625 225.796875 L 198.390625 225.359375 L 199.367188 225.359375 L 199.382812 225.34375 L 199.382812 221.230469 C 199.050781 221.34375 198.699219 221.414062 198.351562 221.40625 L 198.351562 220.960938 C 198.875 220.96875 199.445312 220.828125 199.84375 220.445312 Z M 199.988281 220.445312 Z M 199.988281 220.445312 "/>
<path style=" stroke:none;fill-rule:nonzero;fill:rgb(0%,0%,0%);fill-opacity:1;" d="M 203.019531 225.160156 L 203.019531 225.796875 L 202.375 225.796875 L 202.375 225.160156 Z M 203.019531 225.160156 Z M 203.019531 225.160156 "/>
<path style=" stroke:none;fill-rule:nonzero;fill:rgb(0%,0%,0%);fill-opacity:1;" d="M 206.726562 220.613281 L 206.726562 223.953125 L 206.742188 223.96875 L 207.527344 223.96875 L 207.527344 224.445312 L 206.742188 224.445312 L 206.726562 224.453125 L 206.726562 225.796875 L 206.121094 225.796875 L 206.121094 224.453125 L 206.105469 224.445312 L 204.011719 224.445312 L 204.011719 223.953125 C 204.675781 222.84375 205.34375 221.722656 206.011719 220.613281 Z M 206.726562 220.613281 Z M 206.136719 220.914062 C 205.980469 221.738281 205.472656 222.445312 205.089844 223.167969 C 204.941406 223.429688 204.742188 223.714844 204.628906 223.96875 L 206.152344 223.96875 L 206.160156 223.953125 L 206.160156 220.914062 L 206.152344 220.898438 Z M 206.136719 220.914062 Z M 206.136719 220.914062 "/>
<path style=" stroke:none;fill-rule:nonzero;fill:rgb(0%,0%,0%);fill-opacity:1;" d="M 237.347656 220.445312 L 237.347656 225.34375 L 237.355469 225.359375 L 238.332031 225.359375 L 238.332031 225.796875 L 235.753906 225.796875 L 235.753906 225.359375 L 236.730469 225.359375 L 236.746094 225.34375 L 236.746094 221.230469 C 236.410156 221.34375 236.0625 221.414062 235.714844 221.40625 L 235.714844 220.960938 C 236.238281 220.96875 236.808594 220.828125 237.207031 220.445312 Z M 237.347656 220.445312 Z M 237.347656 220.445312 "/>
<path style=" stroke:none;fill-rule:nonzero;fill:rgb(0%,0%,0%);fill-opacity:1;" d="M 240.378906 225.160156 L 240.378906 225.796875 L 239.738281 225.796875 L 239.738281 225.160156 Z M 240.378906 225.160156 Z M 240.378906 225.160156 "/>
<path style=" stroke:none;fill-rule:nonzero;fill:rgb(0%,0%,0%);fill-opacity:1;" d="M 243.785156 220.445312 C 243.992188 220.476562 244.230469 220.5 244.429688 220.597656 L 244.429688 221.058594 C 243.878906 220.820312 243.167969 220.785156 242.738281 221.269531 C 242.355469 221.675781 242.183594 222.277344 242.167969 222.8125 C 242.625 222.199219 243.667969 221.859375 244.230469 222.492188 C 244.792969 223.144531 244.886719 224.082031 244.632812 224.875 C 244.355469 225.507812 243.714844 226.089844 243 225.953125 C 242.03125 225.875 241.59375 224.796875 241.546875 223.96875 C 241.363281 222.804688 241.640625 221.335938 242.753906 220.667969 L 242.769531 220.660156 L 242.9375 220.574219 L 242.984375 220.558594 L 243.007812 220.542969 L 243.140625 220.5 L 243.253906 220.46875 L 243.324219 220.453125 L 243.414062 220.453125 L 243.429688 220.445312 Z M 243.785156 220.445312 Z M 243.007812 222.652344 C 242.316406 222.769531 242.09375 223.605469 242.183594 224.167969 C 242.222656 224.699219 242.429688 225.40625 243.039062 225.515625 C 243.691406 225.605469 244.109375 224.90625 244.125 224.34375 C 244.160156 223.769531 244.125 223.121094 243.625 222.746094 L 243.515625 222.691406 L 243.429688 222.667969 L 243.355469 222.652344 L 243.339844 222.636719 L 243.023438 222.636719 Z M 243.007812 222.652344 Z M 243.007812 222.652344 "/>
<path style=" stroke:none;fill-rule:nonzero;fill:rgb(0%,0%,0%);fill-opacity:1;" d="M 274.710938 220.445312 L 274.710938 225.34375 L 274.71875 225.359375 L 275.695312 225.359375 L 275.695312 225.796875 L 273.113281 225.796875 L 273.113281 225.359375 L 274.089844 225.359375 L 274.105469 225.34375 L 274.105469 221.230469 C 273.773438 221.34375 273.425781 221.414062 273.074219 221.40625 L 273.074219 220.960938 C 273.597656 220.96875 274.171875 220.828125 274.566406 220.445312 Z M 274.710938 220.445312 Z M 274.710938 220.445312 "/>
<path style=" stroke:none;fill-rule:nonzero;fill:rgb(0%,0%,0%);fill-opacity:1;" d="M 277.742188 225.160156 L 277.742188 225.796875 L 277.097656 225.796875 L 277.097656 225.160156 Z M 277.742188 225.160156 Z M 277.742188 225.160156 "/>
<path style=" stroke:none;fill-rule:nonzero;fill:rgb(0%,0%,0%);fill-opacity:1;" d="M 280.648438 220.445312 C 281.488281 220.476562 282.28125 221.382812 281.949219 222.222656 C 281.804688 222.613281 281.410156 222.851562 281.082031 223.015625 C 281.894531 223.253906 282.386719 224.199219 282.019531 224.976562 C 281.640625 225.984375 280.195312 226.304688 279.402344 225.574219 C 278.679688 225 278.65625 223.761719 279.457031 223.253906 C 279.574219 223.128906 279.796875 223.089844 279.902344 222.992188 C 279.210938 222.796875 278.742188 221.992188 279.066406 221.320312 C 279.328125 220.714844 280.003906 220.382812 280.648438 220.445312 Z M 280.648438 220.445312 Z M 280.34375 220.898438 C 279.757812 220.914062 279.34375 221.582031 279.542969 222.105469 C 279.773438 223.007812 281.289062 222.976562 281.464844 222.050781 C 281.625 221.53125 281.210938 220.914062 280.648438 220.898438 L 280.632812 220.890625 L 280.359375 220.890625 Z M 280.34375 220.898438 Z M 280.359375 223.253906 C 279.671875 223.304688 279.328125 224.128906 279.511719 224.714844 C 279.632812 225.550781 280.820312 225.796875 281.289062 225.128906 C 281.742188 224.515625 281.519531 223.421875 280.703125 223.253906 L 280.632812 223.253906 L 280.613281 223.238281 L 280.367188 223.238281 Z M 280.359375 223.253906 Z M 280.359375 223.253906 "/>
<path style="fill:none;stroke-width:0.02;stroke-linecap:butt;stroke-linejoin:miter;stroke:rgb(0%,0%,0%);stroke-opacity:1;stroke-miterlimit:10;" d="M 1.842988 7.838356 L 1.842988 7.73335 " transform="matrix(28.346457,0,0,-28.346457,1,227.771654)"/>
<path style="fill:none;stroke-width:0.02;stroke-linecap:butt;stroke-linejoin:miter;stroke:rgb(0%,0%,0%);stroke-opacity:1;stroke-miterlimit:10;" d="M 3.161082 7.838356 L 3.161082 7.73335 " transform="matrix(28.346457,0,0,-28.346457,1,227.771654)"/>
<path style="fill:none;stroke-width:0.02;stroke-linecap:butt;stroke-linejoin:miter;stroke:rgb(0%,0%,0%);stroke-opacity:1;stroke-miterlimit:10;" d="M 4.479038 7.838356 L 4.479038 7.73335 " transform="matrix(28.346457,0,0,-28.346457,1,227.771654)"/>
<path style="fill:none;stroke-width:0.02;stroke-linecap:butt;stroke-linejoin:miter;stroke:rgb(0%,0%,0%);stroke-opacity:1;stroke-miterlimit:10;" d="M 5.797131 7.838356 L 5.797131 7.73335 " transform="matrix(28.346457,0,0,-28.346457,1,227.771654)"/>
<path style="fill:none;stroke-width:0.02;stroke-linecap:butt;stroke-linejoin:miter;stroke:rgb(0%,0%,0%);stroke-opacity:1;stroke-miterlimit:10;" d="M 7.115225 7.838356 L 7.115225 7.73335 " transform="matrix(28.346457,0,0,-28.346457,1,227.771654)"/>
<path style="fill:none;stroke-width:0.02;stroke-linecap:butt;stroke-linejoin:miter;stroke:rgb(0%,0%,0%);stroke-opacity:1;stroke-miterlimit:10;" d="M 8.43318 7.838356 L 8.43318 7.73335 " transform="matrix(28.346457,0,0,-28.346457,1,227.771654)"/>
<path style="fill:none;stroke-width:0.02;stroke-linecap:round;stroke-linejoin:miter;stroke:rgb(0%,0%,0%);stroke-opacity:1;stroke-miterlimit:10;" d="M 0.525033 7.838356 L 9.751274 7.838356 " transform="matrix(28.346457,0,0,-28.346457,1,227.771654)"/>
</g>
</svg>
