<?xml version="1.0" encoding="UTF-8"?>
<svg xmlns="http://www.w3.org/2000/svg" xmlns:xlink="http://www.w3.org/1999/xlink" width="285.464567pt" height="228.771654pt" viewBox="0 0 285.464567 228.771654" version="1.1">
<g id="surface1">
<path style="fill-rule:nonzero;fill:rgb(96.078431%,87.058824%,70.196078%);fill-opacity:1;stroke-width:0.02;stroke-linecap:butt;stroke-linejoin:miter;stroke:rgb(100%,0%,0%);stroke-opacity:1;stroke-miterlimit:10;" d="M 0.562929 0.428369 L 1.65902 0.428369 L 1.65902 1.910311 L 0.562929 1.910311 Z M 0.562929 0.428369 " transform="matrix(28.346457,0,0,-28.346457,1,227.771654)"/>
<path style="fill-rule:nonzero;fill:rgb(96.078431%,87.058824%,70.196078%);fill-opacity:1;stroke-width:0.02;stroke-linecap:butt;stroke-linejoin:miter;stroke:rgb(100%,0%,0%);stroke-opacity:1;stroke-miterlimit:10;" d="M 1.65902 0.428369 L 2.755112 0.428369 L 2.755112 2.503143 L 1.65902 2.503143 Z M 1.65902 0.428369 " transform="matrix(28.346457,0,0,-28.346457,1,227.771654)"/>
<path style="fill-rule:nonzero;fill:rgb(96.078431%,87.058824%,70.196078%);fill-opacity:1;stroke-width:0.02;stroke-linecap:butt;stroke-linejoin:miter;stroke:rgb(100%,0%,0%);stroke-opacity:1;stroke-miterlimit:10;" d="M 2.755112 0.428369 L 3.851341 0.428369 L 3.851341 5.763582 L 2.755112 5.763582 Z M 2.755112 0.428369 " transform="matrix(28.346457,0,0,-28.346457,1,227.771654)"/>
<path style="fill-rule:nonzero;fill:rgb(96.078431%,87.058824%,70.196078%);fill-opacity:1;stroke-width:0.02;stroke-linecap:butt;stroke-linejoin:miter;stroke:rgb(100%,0%,0%);stroke-opacity:1;stroke-miterlimit:10;" d="M 3.851341 0.428369 L 4.947433 0.428369 L 4.947433 5.763582 L 3.851341 5.763582 Z M 3.851341 0.428369 " transform="matrix(28.346457,0,0,-28.346457,1,227.771654)"/>
<path style="fill-rule:nonzero;fill:rgb(96.078431%,87.058824%,70.196078%);fill-opacity:1;stroke-width:0.02;stroke-linecap:butt;stroke-linejoin:miter;stroke:rgb(100%,0%,0%);stroke-opacity:1;stroke-miterlimit:10;" d="M 4.947433 0.428369 L 6.043524 0.428369 L 6.043524 7.54194 L 4.947433 7.54194 Z M 4.947433 0.428369 " transform="matrix(28.346457,0,0,-28.346457,1,227.771654)"/>
<path style="fill-rule:nonzero;fill:rgb(96.078431%,87.058824%,70.196078%);fill-opacity:1;stroke-width:0.02;stroke-linecap:butt;stroke-linejoin:miter;stroke:rgb(100%,0%,0%);stroke-opacity:1;stroke-miterlimit:10;" d="M 6.043524 0.428369 L 7.139616 0.428369 L 7.139616 4.577918 L 6.043524 4.577918 Z M 6.043524 0.428369 " transform="matrix(28.346457,0,0,-28.346457,1,227.771654)"/>
<path style="fill-rule:nonzero;fill:rgb(96.078431%,87.058824%,70.196078%);fill-opacity:1;stroke-width:0.02;stroke-linecap:butt;stroke-linejoin:miter;stroke:rgb(100%,0%,0%);stroke-opacity:1;stroke-miterlimit:10;" d="M 7.139616 0.428369 L 8.235707 0.428369 L 8.235707 3.985086 L 7.139616 3.985086 Z M 7.139616 0.428369 " transform="matrix(28.346457,0,0,-28.346457,1,227.771654)"/>
<path style="fill-rule:nonzero;fill:rgb(96.078431%,87.058824%,70.196078%);fill-opacity:1;stroke-width:0.02;stroke-linecap:butt;stroke-linejoin:miter;stroke:rgb(100%,0%,0%);stroke-opacity:1;stroke-miterlimit:10;" d="M 8.235707 0.428369 L 9.331799 0.428369 L 9.331799 1.021201 L 8.235707 1.021201 Z M 8.235707 0.428369 " transform="matrix(28.346457,0,0,-28.346457,1,227.771654)"/>
<path style="fill:none;stroke-width:0.02;stroke-linecap:butt;stroke-linejoin:miter;stroke:rgb(0%,0%,0%);stroke-opacity:1;stroke-miterlimit:10;" d="M 0.525033 1.910311 L 0.630039 1.910311 " transform="matrix(28.346457,0,0,-28.346457,1,227.771654)"/>
<path style="fill:none;stroke-width:0.02;stroke-linecap:butt;stroke-linejoin:miter;stroke:rgb(0%,0%,0%);stroke-opacity:1;stroke-miterlimit:10;" d="M 0.525033 3.392391 L 0.630039 3.392391 " transform="matrix(28.346457,0,0,-28.346457,1,227.771654)"/>
<path style="fill:none;stroke-width:0.02;stroke-linecap:butt;stroke-linejoin:miter;stroke:rgb(0%,0%,0%);stroke-opacity:1;stroke-miterlimit:10;" d="M 0.525033 4.874334 L 0.630039 4.874334 " transform="matrix(28.346457,0,0,-28.346457,1,227.771654)"/>
<path style="fill:none;stroke-width:0.02;stroke-linecap:butt;stroke-linejoin:miter;stroke:rgb(0%,0%,0%);stroke-opacity:1;stroke-miterlimit:10;" d="M 0.525033 6.356276 L 0.630039 6.356276 " transform="matrix(28.346457,0,0,-28.346457,1,227.771654)"/>
<path style="fill:none;stroke-width:0.02;stroke-linecap:round;stroke-linejoin:miter;stroke:rgb(0%,0%,0%);stroke-opacity:1;stroke-miterlimit:10;" d="M 0.525033 0.428369 L 0.525033 7.838356 " transform="matrix(28.346457,0,0,-28.346457,1,227.771654)"/>
<path style=" stroke:none;fill-rule:nonzero;fill:rgb(0%,0%,0%);fill-opacity:1;" d="M 9.070312 212.886719 C 9.824219 212.941406 10.324219 213.632812 10.460938 214.332031 C 10.53125 214.648438 10.546875 214.949219 10.578125 215.265625 L 10.578125 216.078125 C 10.539062 216.902344 10.34375 217.988281 9.445312 218.324219 C 8.667969 218.632812 7.753906 218.148438 7.523438 217.355469 C 7.347656 216.933594 7.332031 216.503906 7.292969 216.078125 L 7.292969 215.265625 C 7.332031 214.441406 7.507812 213.347656 8.398438 212.980469 L 8.4375 212.964844 L 8.46875 212.957031 L 8.507812 212.941406 L 8.628906 212.910156 L 8.699219 212.894531 L 8.785156 212.894531 L 8.800781 212.886719 Z M 9.070312 212.886719 Z M 8.824219 213.371094 C 8.160156 213.449219 7.960938 214.25 7.914062 214.789062 L 7.914062 215.003906 L 7.898438 215.019531 L 7.898438 216.125 C 7.945312 216.695312 7.984375 217.433594 8.507812 217.816406 C 8.992188 218.148438 9.636719 217.773438 9.769531 217.257812 C 9.914062 216.878906 9.945312 216.503906 9.976562 216.125 L 9.976562 215.019531 C 9.929688 214.441406 9.851562 213.632812 9.183594 213.402344 L 9.128906 213.386719 L 9.113281 213.371094 L 9.039062 213.371094 L 9.023438 213.355469 L 8.839844 213.355469 Z M 8.824219 213.371094 Z M 8.824219 213.371094 "/>
<path style=" stroke:none;fill-rule:nonzero;fill:rgb(0%,0%,0%);fill-opacity:1;" d="M 10.246094 171.042969 L 10.246094 171.535156 L 8.183594 171.535156 L 8.167969 171.542969 L 8.167969 173.171875 C 8.359375 173.042969 8.628906 172.878906 8.882812 172.867188 C 9.777344 172.773438 10.46875 173.65625 10.507812 174.472656 C 10.636719 175.511719 9.660156 176.542969 8.613281 176.386719 C 8.085938 176.371094 7.578125 176.058594 7.277344 175.632812 C 7.367188 175.511719 7.4375 175.304688 7.539062 175.234375 C 7.914062 175.964844 9.121094 176.257812 9.605469 175.488281 C 9.914062 174.910156 9.90625 174.171875 9.546875 173.613281 C 9.136719 173.082031 8.316406 173.410156 8.128906 173.972656 L 7.613281 173.972656 L 7.613281 171.042969 Z M 10.246094 171.042969 Z M 10.246094 171.042969 "/>
<path style=" stroke:none;fill-rule:nonzero;fill:rgb(0%,0%,0%);fill-opacity:1;" d="M 5.347656 128.867188 L 5.347656 133.765625 L 5.355469 133.78125 L 6.332031 133.78125 L 6.332031 134.21875 L 3.753906 134.21875 L 3.753906 133.78125 L 4.730469 133.78125 L 4.746094 133.765625 L 4.746094 129.652344 C 4.414062 129.765625 4.0625 129.835938 3.714844 129.828125 L 3.714844 129.382812 C 4.238281 129.390625 4.808594 129.25 5.207031 128.867188 Z M 5.347656 128.867188 Z M 5.347656 128.867188 "/>
<path style=" stroke:none;fill-rule:nonzero;fill:rgb(0%,0%,0%);fill-opacity:1;" d="M 9.070312 128.867188 C 9.824219 128.921875 10.324219 129.613281 10.460938 130.3125 C 10.53125 130.628906 10.546875 130.933594 10.578125 131.25 L 10.578125 132.058594 C 10.539062 132.882812 10.34375 133.972656 9.445312 134.304688 C 8.667969 134.613281 7.753906 134.128906 7.523438 133.335938 C 7.347656 132.914062 7.332031 132.488281 7.292969 132.058594 L 7.292969 131.25 C 7.332031 130.421875 7.507812 129.328125 8.398438 128.964844 L 8.4375 128.949219 L 8.46875 128.941406 L 8.507812 128.921875 L 8.628906 128.890625 L 8.699219 128.875 L 8.785156 128.875 L 8.800781 128.867188 Z M 9.070312 128.867188 Z M 8.824219 129.351562 C 8.160156 129.429688 7.960938 130.234375 7.914062 130.773438 L 7.914062 130.988281 L 7.898438 131.003906 L 7.898438 132.105469 C 7.945312 132.679688 7.984375 133.414062 8.507812 133.796875 C 8.992188 134.128906 9.636719 133.757812 9.769531 133.242188 C 9.914062 132.859375 9.945312 132.488281 9.976562 132.105469 L 9.976562 131.003906 C 9.929688 130.421875 9.851562 129.613281 9.183594 129.382812 L 9.128906 129.367188 L 9.113281 129.351562 L 9.039062 129.351562 L 9.023438 129.335938 L 8.839844 129.335938 Z M 8.824219 129.351562 Z M 8.824219 129.351562 "/>
<path style=" stroke:none;fill-rule:nonzero;fill:rgb(0%,0%,0%);fill-opacity:1;" d="M 5.347656 86.859375 L 5.347656 91.757812 L 5.355469 91.773438 L 6.332031 91.773438 L 6.332031 92.207031 L 3.753906 92.207031 L 3.753906 91.773438 L 4.730469 91.773438 L 4.746094 91.757812 L 4.746094 87.644531 C 4.414062 87.757812 4.0625 87.828125 3.714844 87.820312 L 3.714844 87.375 C 4.238281 87.382812 4.808594 87.238281 5.207031 86.859375 Z M 5.347656 86.859375 Z M 5.347656 86.859375 "/>
<path style=" stroke:none;fill-rule:nonzero;fill:rgb(0%,0%,0%);fill-opacity:1;" d="M 10.246094 87.027344 L 10.246094 87.519531 L 8.183594 87.519531 L 8.167969 87.527344 L 8.167969 89.152344 C 8.359375 89.027344 8.628906 88.859375 8.882812 88.851562 C 9.777344 88.757812 10.46875 89.636719 10.507812 90.453125 C 10.636719 91.496094 9.660156 92.527344 8.613281 92.367188 C 8.085938 92.351562 7.578125 92.042969 7.277344 91.613281 C 7.367188 91.496094 7.4375 91.289062 7.539062 91.214844 C 7.914062 91.945312 9.121094 92.242188 9.605469 91.46875 C 9.914062 90.890625 9.90625 90.152344 9.546875 89.597656 C 9.136719 89.066406 8.316406 89.390625 8.128906 89.953125 L 7.613281 89.953125 L 7.613281 87.027344 Z M 10.246094 87.027344 Z M 10.246094 87.027344 "/>
<path style=" stroke:none;fill-rule:nonzero;fill:rgb(0%,0%,0%);fill-opacity:1;" d="M 5.015625 44.851562 C 5.9375 44.875 6.667969 45.820312 6.523438 46.707031 C 6.429688 47.597656 5.59375 48.105469 5 48.660156 L 4.746094 48.921875 L 4.714844 48.9375 L 4.398438 49.246094 L 4.375 49.261719 L 4.054688 49.582031 L 4.023438 49.597656 L 3.953125 49.667969 L 3.96875 49.675781 L 6.539062 49.675781 L 6.539062 50.199219 L 3.398438 50.199219 L 3.398438 49.722656 L 4.675781 48.445312 C 5.285156 47.914062 6 47.222656 5.890625 46.351562 C 5.824219 45.84375 5.398438 45.375 4.875 45.335938 C 4.339844 45.253906 3.875 45.675781 3.753906 46.183594 L 3.738281 46.207031 L 3.722656 46.261719 L 3.699219 46.351562 L 3.652344 46.523438 L 3.644531 46.566406 C 3.53125 46.429688 3.414062 46.285156 3.324219 46.136719 C 3.484375 45.484375 4.007812 44.875 4.699219 44.851562 Z M 5.015625 44.851562 Z M 5.015625 44.851562 "/>
<path style=" stroke:none;fill-rule:nonzero;fill:rgb(0%,0%,0%);fill-opacity:1;" d="M 9.070312 44.851562 C 9.824219 44.90625 10.324219 45.597656 10.460938 46.292969 C 10.53125 46.613281 10.546875 46.914062 10.578125 47.230469 L 10.578125 48.039062 C 10.539062 48.867188 10.34375 49.953125 9.445312 50.289062 C 8.667969 50.597656 7.753906 50.113281 7.523438 49.320312 C 7.347656 48.898438 7.332031 48.46875 7.292969 48.039062 L 7.292969 47.230469 C 7.332031 46.40625 7.507812 45.3125 8.398438 44.945312 L 8.4375 44.929688 L 8.46875 44.921875 L 8.507812 44.90625 L 8.628906 44.875 L 8.699219 44.859375 L 8.785156 44.859375 L 8.800781 44.851562 Z M 9.070312 44.851562 Z M 8.824219 45.335938 C 8.160156 45.414062 7.960938 46.214844 7.914062 46.753906 L 7.914062 46.96875 L 7.898438 46.984375 L 7.898438 48.089844 C 7.945312 48.660156 7.984375 49.398438 8.507812 49.777344 C 8.992188 50.113281 9.636719 49.738281 9.769531 49.222656 C 9.914062 48.84375 9.945312 48.46875 9.976562 48.089844 L 9.976562 46.984375 C 9.929688 46.40625 9.851562 45.597656 9.183594 45.367188 L 9.128906 45.351562 L 9.113281 45.335938 L 9.039062 45.335938 L 9.023438 45.320312 L 8.839844 45.320312 Z M 8.824219 45.335938 Z M 8.824219 45.335938 "/>
<path style=" stroke:none;fill-rule:nonzero;fill:rgb(0%,0%,0%);fill-opacity:1;" d="M 5.015625 2.839844 C 5.9375 2.863281 6.667969 3.808594 6.523438 4.699219 C 6.429688 5.585938 5.59375 6.09375 5 6.652344 L 4.746094 6.914062 L 4.714844 6.929688 L 4.398438 7.238281 L 4.375 7.253906 L 4.054688 7.570312 L 4.023438 7.585938 L 3.953125 7.660156 L 3.96875 7.667969 L 6.539062 7.667969 L 6.539062 8.191406 L 3.398438 8.191406 L 3.398438 7.714844 L 4.675781 6.4375 C 5.285156 5.90625 6 5.214844 5.890625 4.339844 C 5.824219 3.832031 5.398438 3.363281 4.875 3.324219 C 4.339844 3.246094 3.875 3.667969 3.753906 4.175781 L 3.738281 4.199219 L 3.722656 4.253906 L 3.699219 4.339844 L 3.652344 4.515625 L 3.644531 4.554688 C 3.53125 4.421875 3.414062 4.277344 3.324219 4.128906 C 3.484375 3.476562 4.007812 2.863281 4.699219 2.839844 Z M 5.015625 2.839844 Z M 5.015625 2.839844 "/>
<path style=" stroke:none;fill-rule:nonzero;fill:rgb(0%,0%,0%);fill-opacity:1;" d="M 10.246094 3.007812 L 10.246094 3.5 L 8.183594 3.5 L 8.167969 3.507812 L 8.167969 5.136719 C 8.359375 5.007812 8.628906 4.839844 8.882812 4.832031 C 9.777344 4.738281 10.46875 5.621094 10.507812 6.4375 C 10.636719 7.476562 9.660156 8.507812 8.613281 8.351562 C 8.085938 8.332031 7.578125 8.023438 7.277344 7.59375 C 7.367188 7.476562 7.4375 7.269531 7.539062 7.199219 C 7.914062 7.929688 9.121094 8.222656 9.605469 7.453125 C 9.914062 6.875 9.90625 6.136719 9.546875 5.578125 C 9.136719 5.046875 8.316406 5.375 8.128906 5.9375 L 7.613281 5.9375 L 7.613281 3.007812 Z M 10.246094 3.007812 Z M 10.246094 3.007812 "/>
<path style="fill:none;stroke-width:0.02;stroke-linecap:butt;stroke-linejoin:miter;stroke:rgb(0%,0%,0%);stroke-opacity:1;stroke-miterlimit:10;" d="M 9.751274 1.910311 L 9.646267 1.910311 " transform="matrix(28.346457,0,0,-28.346457,1,227.771654)"/>
<path style="fill:none;stroke-width:0.02;stroke-linecap:butt;stroke-linejoin:miter;stroke:rgb(0%,0%,0%);stroke-opacity:1;stroke-miterlimit:10;" d="M 9.751274 3.392391 L 9.646267 3.392391 " transform="matrix(28.346457,0,0,-28.346457,1,227.771654)"/>
<path style="fill:none;stroke-width:0.02;stroke-linecap:butt;stroke-linejoin:miter;stroke:rgb(0%,0%,0%);stroke-opacity:1;stroke-miterlimit:10;" d="M 9.751274 4.874334 L 9.646267 4.874334 " transform="matrix(28.346457,0,0,-28.346457,1,227.771654)"/>
<path style="fill:none;stroke-width:0.02;stroke-linecap:butt;stroke-linejoin:miter;stroke:rgb(0%,0%,0%);stroke-opacity:1;stroke-miterlimit:10;" d="M 9.751274 6.356276 L 9.646267 6.356276 " transform="matrix(28.346457,0,0,-28.346457,1,227.771654)"/>
<path style="fill:none;stroke-width:0.02;stroke-linecap:round;stroke-linejoin:miter;stroke:rgb(0%,0%,0%);stroke-opacity:1;stroke-miterlimit:10;" d="M 9.751274 0.428369 L 9.751274 7.838356 " transform="matrix(28.346457,0,0,-28.346457,1,227.771654)"/>
<path style="fill:none;stroke-width:0.02;stroke-linecap:butt;stroke-linejoin:miter;stroke:rgb(0%,0%,0%);stroke-opacity:1;stroke-miterlimit:10;" d="M 1.447629 0.428369 L 1.447629 0.533376 " transform="matrix(28.346457,0,0,-28.346457,1,227.771654)"/>
<path style="fill:none;stroke-width:0.02;stroke-linecap:butt;stroke-linejoin:miter;stroke:rgb(0%,0%,0%);stroke-opacity:1;stroke-miterlimit:10;" d="M 2.370226 0.428369 L 2.370226 0.533376 " transform="matrix(28.346457,0,0,-28.346457,1,227.771654)"/>
<path style="fill:none;stroke-width:0.02;stroke-linecap:butt;stroke-linejoin:miter;stroke:rgb(0%,0%,0%);stroke-opacity:1;stroke-miterlimit:10;" d="M 3.292822 0.428369 L 3.292822 0.533376 " transform="matrix(28.346457,0,0,-28.346457,1,227.771654)"/>
<path style="fill:none;stroke-width:0.02;stroke-linecap:butt;stroke-linejoin:miter;stroke:rgb(0%,0%,0%);stroke-opacity:1;stroke-miterlimit:10;" d="M 4.215557 0.428369 L 4.215557 0.533376 " transform="matrix(28.346457,0,0,-28.346457,1,227.771654)"/>
<path style="fill:none;stroke-width:0.02;stroke-linecap:butt;stroke-linejoin:miter;stroke:rgb(0%,0%,0%);stroke-opacity:1;stroke-miterlimit:10;" d="M 5.138153 0.428369 L 5.138153 0.533376 " transform="matrix(28.346457,0,0,-28.346457,1,227.771654)"/>
<path style="fill:none;stroke-width:0.02;stroke-linecap:butt;stroke-linejoin:miter;stroke:rgb(0%,0%,0%);stroke-opacity:1;stroke-miterlimit:10;" d="M 6.06075 0.428369 L 6.06075 0.533376 " transform="matrix(28.346457,0,0,-28.346457,1,227.771654)"/>
<path style="fill:none;stroke-width:0.02;stroke-linecap:butt;stroke-linejoin:miter;stroke:rgb(0%,0%,0%);stroke-opacity:1;stroke-miterlimit:10;" d="M 6.983346 0.428369 L 6.983346 0.533376 " transform="matrix(28.346457,0,0,-28.346457,1,227.771654)"/>
<path style="fill:none;stroke-width:0.02;stroke-linecap:butt;stroke-linejoin:miter;stroke:rgb(0%,0%,0%);stroke-opacity:1;stroke-miterlimit:10;" d="M 7.905943 0.428369 L 7.905943 0.533376 " transform="matrix(28.346457,0,0,-28.346457,1,227.771654)"/>
<path style="fill:none;stroke-width:0.02;stroke-linecap:butt;stroke-linejoin:miter;stroke:rgb(0%,0%,0%);stroke-opacity:1;stroke-miterlimit:10;" d="M 8.828539 0.428369 L 8.828539 0.533376 " transform="matrix(28.346457,0,0,-28.346457,1,227.771654)"/>
<path style="fill:none;stroke-width:0.02;stroke-linecap:round;stroke-linejoin:miter;stroke:rgb(0%,0%,0%);stroke-opacity:1;stroke-miterlimit:10;" d="M 0.525033 0.428369 L 9.751274 0.428369 " transform="matrix(28.346457,0,0,-28.346457,1,227.771654)"/>
<path style=" stroke:none;fill-rule:nonzero;fill:rgb(0%,0%,0%);fill-opacity:1;" d="M 11.667969 223.828125 L 11.667969 224.269531 L 9.585938 224.269531 L 9.585938 223.828125 Z M 11.667969 223.828125 Z M 11.667969 223.828125 "/>
<path style=" stroke:none;fill-rule:nonzero;fill:rgb(0%,0%,0%);fill-opacity:1;" d="M 14.167969 220.445312 C 15.089844 220.46875 15.820312 221.414062 15.675781 222.304688 C 15.582031 223.191406 14.746094 223.699219 14.152344 224.253906 L 13.898438 224.515625 L 13.867188 224.535156 L 13.546875 224.84375 L 13.523438 224.859375 L 13.207031 225.175781 L 13.175781 225.191406 L 13.105469 225.261719 L 13.121094 225.273438 L 15.691406 225.273438 L 15.691406 225.796875 L 12.546875 225.796875 L 12.546875 225.320312 L 13.828125 224.042969 C 14.4375 223.507812 15.152344 222.820312 15.039062 221.945312 C 14.976562 221.4375 14.546875 220.96875 14.023438 220.929688 C 13.492188 220.851562 13.023438 221.269531 12.90625 221.777344 L 12.890625 221.804688 L 12.875 221.859375 L 12.851562 221.945312 L 12.800781 222.121094 L 12.792969 222.160156 C 12.683594 222.023438 12.5625 221.882812 12.476562 221.730469 C 12.636719 221.082031 13.160156 220.46875 13.851562 220.445312 Z M 14.167969 220.445312 Z M 14.167969 220.445312 "/>
<path style=" stroke:none;fill-rule:nonzero;fill:rgb(0%,0%,0%);fill-opacity:1;" d="M 17.53125 225.160156 L 17.53125 225.796875 L 16.890625 225.796875 L 16.890625 225.160156 Z M 17.53125 225.160156 Z M 17.53125 225.160156 "/>
<path style=" stroke:none;fill-rule:nonzero;fill:rgb(0%,0%,0%);fill-opacity:1;" d="M 21.597656 220.613281 L 21.597656 221.105469 L 19.53125 221.105469 L 19.515625 221.113281 L 19.515625 222.738281 C 19.707031 222.613281 19.976562 222.445312 20.230469 222.4375 C 21.128906 222.34375 21.820312 223.222656 21.859375 224.042969 C 21.984375 225.082031 21.007812 226.113281 19.960938 225.953125 C 19.4375 225.9375 18.929688 225.628906 18.628906 225.199219 C 18.714844 225.082031 18.785156 224.875 18.890625 224.804688 C 19.261719 225.535156 20.46875 225.828125 20.953125 225.058594 C 21.261719 224.476562 21.253906 223.738281 20.898438 223.183594 C 20.484375 222.652344 19.667969 222.976562 19.476562 223.542969 L 18.960938 223.542969 L 18.960938 220.613281 Z M 21.597656 220.613281 Z M 21.597656 220.613281 "/>
<path style=" stroke:none;fill-rule:nonzero;fill:rgb(0%,0%,0%);fill-opacity:1;" d="M 37.820312 223.828125 L 37.820312 224.269531 L 35.742188 224.269531 L 35.742188 223.828125 Z M 37.820312 223.828125 Z M 37.820312 223.828125 "/>
<path style=" stroke:none;fill-rule:nonzero;fill:rgb(0%,0%,0%);fill-opacity:1;" d="M 40.320312 220.445312 C 41.242188 220.46875 41.972656 221.414062 41.828125 222.304688 C 41.734375 223.191406 40.898438 223.699219 40.304688 224.253906 L 40.050781 224.515625 L 40.019531 224.535156 L 39.703125 224.84375 L 39.675781 224.859375 L 39.359375 225.175781 L 39.328125 225.191406 L 39.257812 225.261719 L 39.273438 225.273438 L 41.84375 225.273438 L 41.84375 225.796875 L 38.703125 225.796875 L 38.703125 225.320312 L 39.980469 224.042969 C 40.589844 223.507812 41.304688 222.820312 41.195312 221.945312 C 41.128906 221.4375 40.703125 220.96875 40.175781 220.929688 C 39.644531 220.851562 39.175781 221.269531 39.058594 221.777344 L 39.042969 221.804688 L 39.027344 221.859375 L 39.003906 221.945312 L 38.957031 222.121094 L 38.949219 222.160156 C 38.835938 222.023438 38.71875 221.882812 38.628906 221.730469 C 38.789062 221.082031 39.3125 220.46875 40.003906 220.445312 Z M 40.320312 220.445312 Z M 40.320312 220.445312 "/>
<path style=" stroke:none;fill-rule:nonzero;fill:rgb(0%,0%,0%);fill-opacity:1;" d="M 43.6875 225.160156 L 43.6875 225.796875 L 43.042969 225.796875 L 43.042969 225.160156 Z M 43.6875 225.160156 Z M 43.6875 225.160156 "/>
<path style=" stroke:none;fill-rule:nonzero;fill:rgb(0%,0%,0%);fill-opacity:1;" d="M 46.574219 220.445312 C 47.328125 220.5 47.828125 221.191406 47.964844 221.890625 C 48.035156 222.207031 48.050781 222.507812 48.082031 222.828125 L 48.082031 223.636719 C 48.042969 224.460938 47.84375 225.550781 46.949219 225.882812 C 46.171875 226.191406 45.257812 225.707031 45.027344 224.914062 C 44.851562 224.492188 44.835938 224.066406 44.796875 223.636719 L 44.796875 222.828125 C 44.835938 222 45.011719 220.90625 45.898438 220.542969 L 45.941406 220.523438 L 45.972656 220.515625 L 46.011719 220.5 L 46.128906 220.46875 L 46.203125 220.453125 L 46.289062 220.453125 L 46.304688 220.445312 Z M 46.574219 220.445312 Z M 46.328125 220.929688 C 45.664062 221.007812 45.464844 221.8125 45.417969 222.351562 L 45.417969 222.566406 L 45.398438 222.582031 L 45.398438 223.683594 C 45.449219 224.253906 45.488281 224.992188 46.011719 225.375 C 46.496094 225.707031 47.136719 225.335938 47.273438 224.820312 C 47.417969 224.4375 47.449219 224.066406 47.480469 223.683594 L 47.480469 222.582031 C 47.433594 222 47.351562 221.191406 46.6875 220.960938 L 46.628906 220.945312 L 46.613281 220.929688 L 46.542969 220.929688 L 46.527344 220.914062 L 46.34375 220.914062 Z M 46.328125 220.929688 Z M 46.328125 220.929688 "/>
<path style=" stroke:none;fill-rule:nonzero;fill:rgb(0%,0%,0%);fill-opacity:1;" d="M 63.972656 223.828125 L 63.972656 224.269531 L 61.894531 224.269531 L 61.894531 223.828125 Z M 63.972656 223.828125 Z M 63.972656 223.828125 "/>
<path style=" stroke:none;fill-rule:nonzero;fill:rgb(0%,0%,0%);fill-opacity:1;" d="M 66.808594 220.445312 L 66.808594 225.34375 L 66.816406 225.359375 L 67.792969 225.359375 L 67.792969 225.796875 L 65.210938 225.796875 L 65.210938 225.359375 L 66.1875 225.359375 L 66.203125 225.34375 L 66.203125 221.230469 C 65.871094 221.34375 65.519531 221.414062 65.171875 221.40625 L 65.171875 220.960938 C 65.695312 220.96875 66.265625 220.828125 66.664062 220.445312 Z M 66.808594 220.445312 Z M 66.808594 220.445312 "/>
<path style=" stroke:none;fill-rule:nonzero;fill:rgb(0%,0%,0%);fill-opacity:1;" d="M 69.839844 225.160156 L 69.839844 225.796875 L 69.195312 225.796875 L 69.195312 225.160156 Z M 69.839844 225.160156 Z M 69.839844 225.160156 "/>
<path style=" stroke:none;fill-rule:nonzero;fill:rgb(0%,0%,0%);fill-opacity:1;" d="M 73.902344 220.613281 L 73.902344 221.105469 L 71.839844 221.105469 L 71.824219 221.113281 L 71.824219 222.738281 C 72.011719 222.613281 72.285156 222.445312 72.539062 222.4375 C 73.433594 222.34375 74.125 223.222656 74.164062 224.042969 C 74.292969 225.082031 73.316406 226.113281 72.269531 225.953125 C 71.742188 225.9375 71.234375 225.628906 70.933594 225.199219 C 71.023438 225.082031 71.09375 224.875 71.195312 224.804688 C 71.570312 225.535156 72.777344 225.828125 73.261719 225.058594 C 73.570312 224.476562 73.5625 223.738281 73.203125 223.183594 C 72.792969 222.652344 71.972656 222.976562 71.785156 223.542969 L 71.265625 223.542969 L 71.265625 220.613281 Z M 73.902344 220.613281 Z M 73.902344 220.613281 "/>
<path style=" stroke:none;fill-rule:nonzero;fill:rgb(0%,0%,0%);fill-opacity:1;" d="M 90.125 223.828125 L 90.125 224.269531 L 88.046875 224.269531 L 88.046875 223.828125 Z M 90.125 223.828125 Z M 90.125 223.828125 "/>
<path style=" stroke:none;fill-rule:nonzero;fill:rgb(0%,0%,0%);fill-opacity:1;" d="M 92.960938 220.445312 L 92.960938 225.34375 L 92.96875 225.359375 L 93.945312 225.359375 L 93.945312 225.796875 L 91.363281 225.796875 L 91.363281 225.359375 L 92.339844 225.359375 L 92.355469 225.34375 L 92.355469 221.230469 C 92.023438 221.34375 91.675781 221.414062 91.324219 221.40625 L 91.324219 220.960938 C 91.847656 220.96875 92.421875 220.828125 92.816406 220.445312 Z M 92.960938 220.445312 Z M 92.960938 220.445312 "/>
<path style=" stroke:none;fill-rule:nonzero;fill:rgb(0%,0%,0%);fill-opacity:1;" d="M 95.992188 225.160156 L 95.992188 225.796875 L 95.347656 225.796875 L 95.347656 225.160156 Z M 95.992188 225.160156 Z M 95.992188 225.160156 "/>
<path style=" stroke:none;fill-rule:nonzero;fill:rgb(0%,0%,0%);fill-opacity:1;" d="M 98.882812 220.445312 C 99.636719 220.5 100.136719 221.191406 100.269531 221.890625 C 100.339844 222.207031 100.355469 222.507812 100.390625 222.828125 L 100.390625 223.636719 C 100.347656 224.460938 100.152344 225.550781 99.253906 225.882812 C 98.476562 226.191406 97.5625 225.707031 97.332031 224.914062 C 97.160156 224.492188 97.144531 224.066406 97.101562 223.636719 L 97.101562 222.828125 C 97.144531 222 97.316406 220.90625 98.207031 220.542969 L 98.246094 220.523438 L 98.277344 220.515625 L 98.316406 220.5 L 98.4375 220.46875 L 98.507812 220.453125 L 98.59375 220.453125 L 98.609375 220.445312 Z M 98.882812 220.445312 Z M 98.636719 220.929688 C 97.96875 221.007812 97.769531 221.8125 97.722656 222.351562 L 97.722656 222.566406 L 97.707031 222.582031 L 97.707031 223.683594 C 97.753906 224.253906 97.792969 224.992188 98.316406 225.375 C 98.800781 225.707031 99.445312 225.335938 99.578125 224.820312 C 99.722656 224.4375 99.753906 224.066406 99.785156 223.683594 L 99.785156 222.582031 C 99.738281 222 99.660156 221.191406 98.992188 220.960938 L 98.9375 220.945312 L 98.921875 220.929688 L 98.847656 220.929688 L 98.832031 220.914062 L 98.652344 220.914062 Z M 98.636719 220.929688 Z M 98.636719 220.929688 "/>
<path style=" stroke:none;fill-rule:nonzero;fill:rgb(0%,0%,0%);fill-opacity:1;" d="M 116.28125 223.828125 L 116.28125 224.269531 L 114.199219 224.269531 L 114.199219 223.828125 Z M 116.28125 223.828125 Z M 116.28125 223.828125 "/>
<path style=" stroke:none;fill-rule:nonzero;fill:rgb(0%,0%,0%);fill-opacity:1;" d="M 118.867188 220.445312 C 119.621094 220.5 120.121094 221.191406 120.257812 221.890625 C 120.328125 222.207031 120.34375 222.507812 120.375 222.828125 L 120.375 223.636719 C 120.335938 224.460938 120.136719 225.550781 119.238281 225.882812 C 118.460938 226.191406 117.550781 225.707031 117.320312 224.914062 C 117.144531 224.492188 117.128906 224.066406 117.089844 223.636719 L 117.089844 222.828125 C 117.128906 222 117.304688 220.90625 118.191406 220.542969 L 118.230469 220.523438 L 118.265625 220.515625 L 118.304688 220.5 L 118.421875 220.46875 L 118.492188 220.453125 L 118.582031 220.453125 L 118.597656 220.445312 Z M 118.867188 220.445312 Z M 118.621094 220.929688 C 117.953125 221.007812 117.757812 221.8125 117.707031 222.351562 L 117.707031 222.566406 L 117.691406 222.582031 L 117.691406 223.683594 C 117.738281 224.253906 117.78125 224.992188 118.304688 225.375 C 118.789062 225.707031 119.429688 225.335938 119.566406 224.820312 C 119.707031 224.4375 119.738281 224.066406 119.773438 223.683594 L 119.773438 222.582031 C 119.722656 222 119.644531 221.191406 118.976562 220.960938 L 118.921875 220.945312 L 118.90625 220.929688 L 118.835938 220.929688 L 118.820312 220.914062 L 118.636719 220.914062 Z M 118.621094 220.929688 Z M 118.621094 220.929688 "/>
<path style=" stroke:none;fill-rule:nonzero;fill:rgb(0%,0%,0%);fill-opacity:1;" d="M 122.144531 225.160156 L 122.144531 225.796875 L 121.503906 225.796875 L 121.503906 225.160156 Z M 122.144531 225.160156 Z M 122.144531 225.160156 "/>
<path style=" stroke:none;fill-rule:nonzero;fill:rgb(0%,0%,0%);fill-opacity:1;" d="M 126.207031 220.613281 L 126.207031 221.105469 L 124.144531 221.105469 L 124.128906 221.113281 L 124.128906 222.738281 C 124.320312 222.613281 124.589844 222.445312 124.84375 222.4375 C 125.742188 222.34375 126.429688 223.222656 126.472656 224.042969 C 126.597656 225.082031 125.621094 226.113281 124.574219 225.953125 C 124.050781 225.9375 123.542969 225.628906 123.242188 225.199219 C 123.328125 225.082031 123.398438 224.875 123.503906 224.804688 C 123.875 225.535156 125.082031 225.828125 125.566406 225.058594 C 125.875 224.476562 125.867188 223.738281 125.511719 223.183594 C 125.097656 222.652344 124.28125 222.976562 124.089844 223.542969 L 123.574219 223.542969 L 123.574219 220.613281 Z M 126.207031 220.613281 Z M 126.207031 220.613281 "/>
<path style=" stroke:none;fill-rule:nonzero;fill:rgb(0%,0%,0%);fill-opacity:1;" d="M 143.699219 220.445312 C 144.453125 220.5 144.953125 221.191406 145.085938 221.890625 C 145.160156 222.207031 145.175781 222.507812 145.207031 222.828125 L 145.207031 223.636719 C 145.167969 224.460938 144.96875 225.550781 144.070312 225.882812 C 143.292969 226.191406 142.382812 225.707031 142.152344 224.914062 C 141.976562 224.492188 141.960938 224.066406 141.921875 223.636719 L 141.921875 222.828125 C 141.960938 222 142.136719 220.90625 143.023438 220.542969 L 143.0625 220.523438 L 143.09375 220.515625 L 143.136719 220.5 L 143.253906 220.46875 L 143.324219 220.453125 L 143.414062 220.453125 L 143.429688 220.445312 Z M 143.699219 220.445312 Z M 143.453125 220.929688 C 142.785156 221.007812 142.585938 221.8125 142.539062 222.351562 L 142.539062 222.566406 L 142.523438 222.582031 L 142.523438 223.683594 C 142.570312 224.253906 142.609375 224.992188 143.136719 225.375 C 143.621094 225.707031 144.261719 225.335938 144.398438 224.820312 C 144.539062 224.4375 144.570312 224.066406 144.601562 223.683594 L 144.601562 222.582031 C 144.554688 222 144.476562 221.191406 143.808594 220.960938 L 143.753906 220.945312 L 143.738281 220.929688 L 143.667969 220.929688 L 143.652344 220.914062 L 143.46875 220.914062 Z M 143.453125 220.929688 Z M 143.453125 220.929688 "/>
<path style=" stroke:none;fill-rule:nonzero;fill:rgb(0%,0%,0%);fill-opacity:1;" d="M 146.976562 225.160156 L 146.976562 225.796875 L 146.332031 225.796875 L 146.332031 225.160156 Z M 146.976562 225.160156 Z M 146.976562 225.160156 "/>
<path style=" stroke:none;fill-rule:nonzero;fill:rgb(0%,0%,0%);fill-opacity:1;" d="M 149.867188 220.445312 C 150.621094 220.5 151.121094 221.191406 151.253906 221.890625 C 151.324219 222.207031 151.34375 222.507812 151.375 222.828125 L 151.375 223.636719 C 151.335938 224.460938 151.136719 225.550781 150.238281 225.882812 C 149.460938 226.191406 148.546875 225.707031 148.316406 224.914062 C 148.144531 224.492188 148.128906 224.066406 148.085938 223.636719 L 148.085938 222.828125 C 148.128906 222 148.300781 220.90625 149.191406 220.542969 L 149.230469 220.523438 L 149.261719 220.515625 L 149.300781 220.5 L 149.421875 220.46875 L 149.492188 220.453125 L 149.578125 220.453125 L 149.597656 220.445312 Z M 149.867188 220.445312 Z M 149.621094 220.929688 C 148.953125 221.007812 148.753906 221.8125 148.707031 222.351562 L 148.707031 222.566406 L 148.691406 222.582031 L 148.691406 223.683594 C 148.738281 224.253906 148.777344 224.992188 149.300781 225.375 C 149.785156 225.707031 150.429688 225.335938 150.5625 224.820312 C 150.707031 224.4375 150.738281 224.066406 150.769531 223.683594 L 150.769531 222.582031 C 150.722656 222 150.644531 221.191406 149.976562 220.960938 L 149.921875 220.945312 L 149.90625 220.929688 L 149.832031 220.929688 L 149.816406 220.914062 L 149.636719 220.914062 Z M 149.621094 220.929688 Z M 149.621094 220.929688 "/>
<path style=" stroke:none;fill-rule:nonzero;fill:rgb(0%,0%,0%);fill-opacity:1;" d="M 169.851562 220.445312 C 170.605469 220.5 171.105469 221.191406 171.242188 221.890625 C 171.3125 222.207031 171.328125 222.507812 171.359375 222.828125 L 171.359375 223.636719 C 171.320312 224.460938 171.121094 225.550781 170.226562 225.882812 C 169.445312 226.191406 168.535156 225.707031 168.304688 224.914062 C 168.128906 224.492188 168.113281 224.066406 168.074219 223.636719 L 168.074219 222.828125 C 168.113281 222 168.289062 220.90625 169.175781 220.542969 L 169.214844 220.523438 L 169.25 220.515625 L 169.289062 220.5 L 169.40625 220.46875 L 169.480469 220.453125 L 169.566406 220.453125 L 169.582031 220.445312 Z M 169.851562 220.445312 Z M 169.605469 220.929688 C 168.9375 221.007812 168.742188 221.8125 168.691406 222.351562 L 168.691406 222.566406 L 168.675781 222.582031 L 168.675781 223.683594 C 168.726562 224.253906 168.765625 224.992188 169.289062 225.375 C 169.773438 225.707031 170.414062 225.335938 170.550781 224.820312 C 170.691406 224.4375 170.726562 224.066406 170.757812 223.683594 L 170.757812 222.582031 C 170.707031 222 170.628906 221.191406 169.960938 220.960938 L 169.90625 220.945312 L 169.890625 220.929688 L 169.820312 220.929688 L 169.804688 220.914062 L 169.621094 220.914062 Z M 169.605469 220.929688 Z M 169.605469 220.929688 "/>
<path style=" stroke:none;fill-rule:nonzero;fill:rgb(0%,0%,0%);fill-opacity:1;" d="M 173.128906 225.160156 L 173.128906 225.796875 L 172.488281 225.796875 L 172.488281 225.160156 Z M 173.128906 225.160156 Z M 173.128906 225.160156 "/>
<path style=" stroke:none;fill-rule:nonzero;fill:rgb(0%,0%,0%);fill-opacity:1;" d="M 177.195312 220.613281 L 177.195312 221.105469 L 175.128906 221.105469 L 175.113281 221.113281 L 175.113281 222.738281 C 175.304688 222.613281 175.574219 222.445312 175.828125 222.4375 C 176.726562 222.34375 177.414062 223.222656 177.457031 224.042969 C 177.582031 225.082031 176.605469 226.113281 175.558594 225.953125 C 175.035156 225.9375 174.527344 225.628906 174.226562 225.199219 C 174.3125 225.082031 174.382812 224.875 174.488281 224.804688 C 174.859375 225.535156 176.066406 225.828125 176.550781 225.058594 C 176.859375 224.476562 176.851562 223.738281 176.496094 223.183594 C 176.082031 222.652344 175.265625 222.976562 175.074219 223.542969 L 174.558594 223.542969 L 174.558594 220.613281 Z M 177.195312 220.613281 Z M 177.195312 220.613281 "/>
<path style=" stroke:none;fill-rule:nonzero;fill:rgb(0%,0%,0%);fill-opacity:1;" d="M 196.25 220.445312 L 196.25 225.34375 L 196.257812 225.359375 L 197.234375 225.359375 L 197.234375 225.796875 L 194.65625 225.796875 L 194.65625 225.359375 L 195.632812 225.359375 L 195.648438 225.34375 L 195.648438 221.230469 C 195.3125 221.34375 194.964844 221.414062 194.617188 221.40625 L 194.617188 220.960938 C 195.140625 220.96875 195.710938 220.828125 196.109375 220.445312 Z M 196.25 220.445312 Z M 196.25 220.445312 "/>
<path style=" stroke:none;fill-rule:nonzero;fill:rgb(0%,0%,0%);fill-opacity:1;" d="M 199.28125 225.160156 L 199.28125 225.796875 L 198.640625 225.796875 L 198.640625 225.160156 Z M 199.28125 225.160156 Z M 199.28125 225.160156 "/>
<path style=" stroke:none;fill-rule:nonzero;fill:rgb(0%,0%,0%);fill-opacity:1;" d="M 202.171875 220.445312 C 202.925781 220.5 203.425781 221.191406 203.5625 221.890625 C 203.632812 222.207031 203.648438 222.507812 203.679688 222.828125 L 203.679688 223.636719 C 203.640625 224.460938 203.441406 225.550781 202.542969 225.882812 C 201.765625 226.191406 200.855469 225.707031 200.625 224.914062 C 200.449219 224.492188 200.433594 224.066406 200.394531 223.636719 L 200.394531 222.828125 C 200.433594 222 200.609375 220.90625 201.496094 220.542969 L 201.535156 220.523438 L 201.570312 220.515625 L 201.609375 220.5 L 201.726562 220.46875 L 201.796875 220.453125 L 201.886719 220.453125 L 201.902344 220.445312 Z M 202.171875 220.445312 Z M 201.925781 220.929688 C 201.257812 221.007812 201.0625 221.8125 201.011719 222.351562 L 201.011719 222.566406 L 200.996094 222.582031 L 200.996094 223.683594 C 201.042969 224.253906 201.085938 224.992188 201.609375 225.375 C 202.09375 225.707031 202.734375 225.335938 202.871094 224.820312 C 203.011719 224.4375 203.042969 224.066406 203.078125 223.683594 L 203.078125 222.582031 C 203.027344 222 202.949219 221.191406 202.28125 220.960938 L 202.226562 220.945312 L 202.210938 220.929688 L 202.140625 220.929688 L 202.125 220.914062 L 201.941406 220.914062 Z M 201.925781 220.929688 Z M 201.925781 220.929688 "/>
<path style=" stroke:none;fill-rule:nonzero;fill:rgb(0%,0%,0%);fill-opacity:1;" d="M 222.402344 220.445312 L 222.402344 225.34375 L 222.410156 225.359375 L 223.386719 225.359375 L 223.386719 225.796875 L 220.808594 225.796875 L 220.808594 225.359375 L 221.785156 225.359375 L 221.800781 225.34375 L 221.800781 221.230469 C 221.46875 221.34375 221.117188 221.414062 220.769531 221.40625 L 220.769531 220.960938 C 221.292969 220.96875 221.863281 220.828125 222.261719 220.445312 Z M 222.402344 220.445312 Z M 222.402344 220.445312 "/>
<path style=" stroke:none;fill-rule:nonzero;fill:rgb(0%,0%,0%);fill-opacity:1;" d="M 225.4375 225.160156 L 225.4375 225.796875 L 224.792969 225.796875 L 224.792969 225.160156 Z M 225.4375 225.160156 Z M 225.4375 225.160156 "/>
<path style=" stroke:none;fill-rule:nonzero;fill:rgb(0%,0%,0%);fill-opacity:1;" d="M 229.5 220.613281 L 229.5 221.105469 L 227.4375 221.105469 L 227.421875 221.113281 L 227.421875 222.738281 C 227.609375 222.613281 227.878906 222.445312 228.132812 222.4375 C 229.03125 222.34375 229.722656 223.222656 229.761719 224.042969 C 229.886719 225.082031 228.914062 226.113281 227.863281 225.953125 C 227.339844 225.9375 226.832031 225.628906 226.53125 225.199219 C 226.617188 225.082031 226.691406 224.875 226.792969 224.804688 C 227.167969 225.535156 228.371094 225.828125 228.855469 225.058594 C 229.167969 224.476562 229.160156 223.738281 228.800781 223.183594 C 228.386719 222.652344 227.570312 222.976562 227.378906 223.542969 L 226.863281 223.542969 L 226.863281 220.613281 Z M 229.5 220.613281 Z M 229.5 220.613281 "/>
<path style=" stroke:none;fill-rule:nonzero;fill:rgb(0%,0%,0%);fill-opacity:1;" d="M 248.222656 220.445312 C 249.144531 220.46875 249.875 221.414062 249.730469 222.304688 C 249.636719 223.191406 248.804688 223.699219 248.207031 224.253906 L 247.953125 224.515625 L 247.921875 224.535156 L 247.605469 224.84375 L 247.582031 224.859375 L 247.261719 225.175781 L 247.230469 225.191406 L 247.160156 225.261719 L 247.175781 225.273438 L 249.746094 225.273438 L 249.746094 225.796875 L 246.605469 225.796875 L 246.605469 225.320312 L 247.882812 224.042969 C 248.492188 223.507812 249.207031 222.820312 249.097656 221.945312 C 249.03125 221.4375 248.605469 220.96875 248.082031 220.929688 C 247.550781 220.851562 247.082031 221.269531 246.960938 221.777344 L 246.945312 221.804688 L 246.929688 221.859375 L 246.90625 221.945312 L 246.859375 222.121094 L 246.851562 222.160156 C 246.738281 222.023438 246.621094 221.882812 246.53125 221.730469 C 246.691406 221.082031 247.214844 220.46875 247.90625 220.445312 Z M 248.222656 220.445312 Z M 248.222656 220.445312 "/>
<path style=" stroke:none;fill-rule:nonzero;fill:rgb(0%,0%,0%);fill-opacity:1;" d="M 251.589844 225.160156 L 251.589844 225.796875 L 250.945312 225.796875 L 250.945312 225.160156 Z M 251.589844 225.160156 Z M 251.589844 225.160156 "/>
<path style=" stroke:none;fill-rule:nonzero;fill:rgb(0%,0%,0%);fill-opacity:1;" d="M 254.476562 220.445312 C 255.230469 220.5 255.730469 221.191406 255.867188 221.890625 C 255.9375 222.207031 255.953125 222.507812 255.984375 222.828125 L 255.984375 223.636719 C 255.945312 224.460938 255.746094 225.550781 254.851562 225.882812 C 254.074219 226.191406 253.160156 225.707031 252.929688 224.914062 C 252.753906 224.492188 252.738281 224.066406 252.699219 223.636719 L 252.699219 222.828125 C 252.738281 222 252.914062 220.90625 253.804688 220.542969 L 253.84375 220.523438 L 253.875 220.515625 L 253.914062 220.5 L 254.035156 220.46875 L 254.105469 220.453125 L 254.191406 220.453125 L 254.207031 220.445312 Z M 254.476562 220.445312 Z M 254.230469 220.929688 C 253.566406 221.007812 253.367188 221.8125 253.320312 222.351562 L 253.320312 222.566406 L 253.304688 222.582031 L 253.304688 223.683594 C 253.351562 224.253906 253.390625 224.992188 253.914062 225.375 C 254.398438 225.707031 255.042969 225.335938 255.175781 224.820312 C 255.320312 224.4375 255.351562 224.066406 255.382812 223.683594 L 255.382812 222.582031 C 255.335938 222 255.253906 221.191406 254.589844 220.960938 L 254.535156 220.945312 L 254.519531 220.929688 L 254.445312 220.929688 L 254.429688 220.914062 L 254.246094 220.914062 Z M 254.230469 220.929688 Z M 254.230469 220.929688 "/>
<path style=" stroke:none;fill-rule:nonzero;fill:rgb(0%,0%,0%);fill-opacity:1;" d="M 274.375 220.445312 C 275.296875 220.46875 276.027344 221.414062 275.882812 222.304688 C 275.789062 223.191406 274.957031 223.699219 274.359375 224.253906 L 274.105469 224.515625 L 274.074219 224.535156 L 273.757812 224.84375 L 273.734375 224.859375 L 273.417969 225.175781 L 273.382812 225.191406 L 273.3125 225.261719 L 273.328125 225.273438 L 275.902344 225.273438 L 275.902344 225.796875 L 272.757812 225.796875 L 272.757812 225.320312 L 274.035156 224.042969 C 274.648438 223.507812 275.359375 222.820312 275.25 221.945312 C 275.1875 221.4375 274.757812 220.96875 274.234375 220.929688 C 273.703125 220.851562 273.234375 221.269531 273.113281 221.777344 L 273.097656 221.804688 L 273.082031 221.859375 L 273.058594 221.945312 L 273.011719 222.121094 L 273.003906 222.160156 C 272.890625 222.023438 272.773438 221.882812 272.6875 221.730469 C 272.84375 221.082031 273.367188 220.46875 274.058594 220.445312 Z M 274.375 220.445312 Z M 274.375 220.445312 "/>
<path style=" stroke:none;fill-rule:nonzero;fill:rgb(0%,0%,0%);fill-opacity:1;" d="M 277.742188 225.160156 L 277.742188 225.796875 L 277.097656 225.796875 L 277.097656 225.160156 Z M 277.742188 225.160156 Z M 277.742188 225.160156 "/>
<path style=" stroke:none;fill-rule:nonzero;fill:rgb(0%,0%,0%);fill-opacity:1;" d="M 281.804688 220.613281 L 281.804688 221.105469 L 279.742188 221.105469 L 279.726562 221.113281 L 279.726562 222.738281 C 279.917969 222.613281 280.1875 222.445312 280.441406 222.4375 C 281.335938 222.34375 282.027344 223.222656 282.066406 224.042969 C 282.195312 225.082031 281.21875 226.113281 280.171875 225.953125 C 279.648438 225.9375 279.140625 225.628906 278.835938 225.199219 C 278.925781 225.082031 278.996094 224.875 279.097656 224.804688 C 279.472656 225.535156 280.679688 225.828125 281.164062 225.058594 C 281.472656 224.476562 281.464844 223.738281 281.105469 223.183594 C 280.695312 222.652344 279.878906 222.976562 279.6875 223.542969 L 279.171875 223.542969 L 279.171875 220.613281 Z M 281.804688 220.613281 Z M 281.804688 220.613281 "/>
<path style="fill:none;stroke-width:0.02;stroke-linecap:butt;stroke-linejoin:miter;stroke:rgb(0%,0%,0%);stroke-opacity:1;stroke-miterlimit:10;" d="M 1.447629 7.838356 L 1.447629 7.73335 " transform="matrix(28.346457,0,0,-28.346457,1,227.771654)"/>
<path style="fill:none;stroke-width:0.02;stroke-linecap:butt;stroke-linejoin:miter;stroke:rgb(0%,0%,0%);stroke-opacity:1;stroke-miterlimit:10;" d="M 2.370226 7.838356 L 2.370226 7.73335 " transform="matrix(28.346457,0,0,-28.346457,1,227.771654)"/>
<path style="fill:none;stroke-width:0.02;stroke-linecap:butt;stroke-linejoin:miter;stroke:rgb(0%,0%,0%);stroke-opacity:1;stroke-miterlimit:10;" d="M 3.292822 7.838356 L 3.292822 7.73335 " transform="matrix(28.346457,0,0,-28.346457,1,227.771654)"/>
<path style="fill:none;stroke-width:0.02;stroke-linecap:butt;stroke-linejoin:miter;stroke:rgb(0%,0%,0%);stroke-opacity:1;stroke-miterlimit:10;" d="M 4.215557 7.838356 L 4.215557 7.73335 " transform="matrix(28.346457,0,0,-28.346457,1,227.771654)"/>
<path style="fill:none;stroke-width:0.02;stroke-linecap:butt;stroke-linejoin:miter;stroke:rgb(0%,0%,0%);stroke-opacity:1;stroke-miterlimit:10;" d="M 5.138153 7.838356 L 5.138153 7.73335 " transform="matrix(28.346457,0,0,-28.346457,1,227.771654)"/>
<path style="fill:none;stroke-width:0.02;stroke-linecap:butt;stroke-linejoin:miter;stroke:rgb(0%,0%,0%);stroke-opacity:1;stroke-miterlimit:10;" d="M 6.06075 7.838356 L 6.06075 7.73335 " transform="matrix(28.346457,0,0,-28.346457,1,227.771654)"/>
<path style="fill:none;stroke-width:0.02;stroke-linecap:butt;stroke-linejoin:miter;stroke:rgb(0%,0%,0%);stroke-opacity:1;stroke-miterlimit:10;" d="M 6.983346 7.838356 L 6.983346 7.73335 " transform="matrix(28.346457,0,0,-28.346457,1,227.771654)"/>
<path style="fill:none;stroke-width:0.02;stroke-linecap:butt;stroke-linejoin:miter;stroke:rgb(0%,0%,0%);stroke-opacity:1;stroke-miterlimit:10;" d="M 7.905943 7.838356 L 7.905943 7.73335 " transform="matrix(28.346457,0,0,-28.346457,1,227.771654)"/>
<path style="fill:none;stroke-width:0.02;stroke-linecap:butt;stroke-linejoin:miter;stroke:rgb(0%,0%,0%);stroke-opacity:1;stroke-miterlimit:10;" d="M 8.828539 7.838356 L 8.828539 7.73335 " transform="matrix(28.346457,0,0,-28.346457,1,227.771654)"/>
<path style="fill:none;stroke-width:0.02;stroke-linecap:round;stroke-linejoin:miter;stroke:rgb(0%,0%,0%);stroke-opacity:1;stroke-miterlimit:10;" d="M 0.525033 7.838356 L 9.751274 7.838356 " transform="matrix(28.346457,0,0,-28.346457,1,227.771654)"/>
</g>
</svg>
