<?xml version="1.0" encoding="UTF-8"?>
<svg xmlns="http://www.w3.org/2000/svg" xmlns:xlink="http://www.w3.org/1999/xlink" width="285.464567pt" height="228.771654pt" viewBox="0 0 285.464567 228.771654" version="1.1">
<g id="surface1">
<path style="fill-rule:nonzero;fill:rgb(100%,100%,100%);fill-opacity:1;stroke-width:0.02;stroke-linecap:butt;stroke-linejoin:miter;stroke:rgb(32.941176%,47.058824%,63.921569%);stroke-opacity:1;stroke-miterlimit:10;" d="M 0.882633 0.428369 L 1.057093 0.428369 L 1.057093 0.649682 L 0.882633 0.649682 Z M 0.882633 0.428369 " transform="matrix(28.346457,0,0,-28.346457,1,227.771654)"/>
<path style="fill-rule:nonzero;fill:rgb(100%,100%,100%);fill-opacity:1;stroke-width:0.02;stroke-linecap:butt;stroke-linejoin:miter;stroke:rgb(32.941176%,47.058824%,63.921569%);stroke-opacity:1;stroke-miterlimit:10;" d="M 1.057093 0.428369 L 1.231553 0.428369 L 1.231553 0.649682 L 1.057093 0.649682 Z M 1.057093 0.428369 " transform="matrix(28.346457,0,0,-28.346457,1,227.771654)"/>
<path style="fill-rule:nonzero;fill:rgb(100%,100%,100%);fill-opacity:1;stroke-width:0.02;stroke-linecap:butt;stroke-linejoin:miter;stroke:rgb(32.941176%,47.058824%,63.921569%);stroke-opacity:1;stroke-miterlimit:10;" d="M 1.231553 0.428369 L 1.405875 0.428369 L 1.405875 0.649682 L 1.231553 0.649682 Z M 1.231553 0.428369 " transform="matrix(28.346457,0,0,-28.346457,1,227.771654)"/>
<path style="fill-rule:nonzero;fill:rgb(100%,100%,100%);fill-opacity:1;stroke-width:0.02;stroke-linecap:butt;stroke-linejoin:miter;stroke:rgb(32.941176%,47.058824%,63.921569%);stroke-opacity:1;stroke-miterlimit:10;" d="M 1.580334 0.428369 L 1.754794 0.428369 L 1.754794 0.649682 L 1.580334 0.649682 Z M 1.580334 0.428369 " transform="matrix(28.346457,0,0,-28.346457,1,227.771654)"/>
<path style="fill-rule:nonzero;fill:rgb(100%,100%,100%);fill-opacity:1;stroke-width:0.02;stroke-linecap:butt;stroke-linejoin:miter;stroke:rgb(32.941176%,47.058824%,63.921569%);stroke-opacity:1;stroke-miterlimit:10;" d="M 1.754794 0.428369 L 1.929253 0.428369 L 1.929253 1.535072 L 1.754794 1.535072 Z M 1.754794 0.428369 " transform="matrix(28.346457,0,0,-28.346457,1,227.771654)"/>
<path style="fill-rule:nonzero;fill:rgb(100%,100%,100%);fill-opacity:1;stroke-width:0.02;stroke-linecap:butt;stroke-linejoin:miter;stroke:rgb(32.941176%,47.058824%,63.921569%);stroke-opacity:1;stroke-miterlimit:10;" d="M 1.929253 0.428369 L 2.103713 0.428369 L 2.103713 1.756385 L 1.929253 1.756385 Z M 1.929253 0.428369 " transform="matrix(28.346457,0,0,-28.346457,1,227.771654)"/>
<path style="fill-rule:nonzero;fill:rgb(100%,100%,100%);fill-opacity:1;stroke-width:0.02;stroke-linecap:butt;stroke-linejoin:miter;stroke:rgb(32.941176%,47.058824%,63.921569%);stroke-opacity:1;stroke-miterlimit:10;" d="M 2.103713 0.428369 L 2.278035 0.428369 L 2.278035 0.870995 L 2.103713 0.870995 Z M 2.103713 0.428369 " transform="matrix(28.346457,0,0,-28.346457,1,227.771654)"/>
<path style="fill-rule:nonzero;fill:rgb(100%,100%,100%);fill-opacity:1;stroke-width:0.02;stroke-linecap:butt;stroke-linejoin:miter;stroke:rgb(32.941176%,47.058824%,63.921569%);stroke-opacity:1;stroke-miterlimit:10;" d="M 2.278035 0.428369 L 2.452495 0.428369 L 2.452495 3.748201 L 2.278035 3.748201 Z M 2.278035 0.428369 " transform="matrix(28.346457,0,0,-28.346457,1,227.771654)"/>
<path style="fill-rule:nonzero;fill:rgb(100%,100%,100%);fill-opacity:1;stroke-width:0.02;stroke-linecap:butt;stroke-linejoin:miter;stroke:rgb(32.941176%,47.058824%,63.921569%);stroke-opacity:1;stroke-miterlimit:10;" d="M 2.452495 0.428369 L 2.626954 0.428369 L 2.626954 3.084262 L 2.452495 3.084262 Z M 2.452495 0.428369 " transform="matrix(28.346457,0,0,-28.346457,1,227.771654)"/>
<path style="fill-rule:nonzero;fill:rgb(100%,100%,100%);fill-opacity:1;stroke-width:0.02;stroke-linecap:butt;stroke-linejoin:miter;stroke:rgb(32.941176%,47.058824%,63.921569%);stroke-opacity:1;stroke-miterlimit:10;" d="M 2.626954 0.428369 L 2.801414 0.428369 L 2.801414 2.641636 L 2.626954 2.641636 Z M 2.626954 0.428369 " transform="matrix(28.346457,0,0,-28.346457,1,227.771654)"/>
<path style="fill-rule:nonzero;fill:rgb(100%,100%,100%);fill-opacity:1;stroke-width:0.02;stroke-linecap:butt;stroke-linejoin:miter;stroke:rgb(32.941176%,47.058824%,63.921569%);stroke-opacity:1;stroke-miterlimit:10;" d="M 2.801414 0.428369 L 2.975736 0.428369 L 2.975736 4.190965 L 2.801414 4.190965 Z M 2.801414 0.428369 " transform="matrix(28.346457,0,0,-28.346457,1,227.771654)"/>
<path style="fill-rule:nonzero;fill:rgb(100%,100%,100%);fill-opacity:1;stroke-width:0.02;stroke-linecap:butt;stroke-linejoin:miter;stroke:rgb(32.941176%,47.058824%,63.921569%);stroke-opacity:1;stroke-miterlimit:10;" d="M 2.975736 0.428369 L 3.150195 0.428369 L 3.150195 3.526888 L 2.975736 3.526888 Z M 2.975736 0.428369 " transform="matrix(28.346457,0,0,-28.346457,1,227.771654)"/>
<path style="fill-rule:nonzero;fill:rgb(100%,100%,100%);fill-opacity:1;stroke-width:0.02;stroke-linecap:butt;stroke-linejoin:miter;stroke:rgb(32.941176%,47.058824%,63.921569%);stroke-opacity:1;stroke-miterlimit:10;" d="M 3.150195 0.428369 L 3.324655 0.428369 L 3.324655 3.748201 L 3.150195 3.748201 Z M 3.150195 0.428369 " transform="matrix(28.346457,0,0,-28.346457,1,227.771654)"/>
<path style="fill-rule:nonzero;fill:rgb(100%,100%,100%);fill-opacity:1;stroke-width:0.02;stroke-linecap:butt;stroke-linejoin:miter;stroke:rgb(32.941176%,47.058824%,63.921569%);stroke-opacity:1;stroke-miterlimit:10;" d="M 3.324655 0.428369 L 3.499115 0.428369 L 3.499115 3.969514 L 3.324655 3.969514 Z M 3.324655 0.428369 " transform="matrix(28.346457,0,0,-28.346457,1,227.771654)"/>
<path style="fill-rule:nonzero;fill:rgb(100%,100%,100%);fill-opacity:1;stroke-width:0.02;stroke-linecap:butt;stroke-linejoin:miter;stroke:rgb(32.941176%,47.058824%,63.921569%);stroke-opacity:1;stroke-miterlimit:10;" d="M 3.499115 0.428369 L 3.673574 0.428369 L 3.673574 3.305575 L 3.499115 3.305575 Z M 3.499115 0.428369 " transform="matrix(28.346457,0,0,-28.346457,1,227.771654)"/>
<path style="fill-rule:nonzero;fill:rgb(100%,100%,100%);fill-opacity:1;stroke-width:0.02;stroke-linecap:butt;stroke-linejoin:miter;stroke:rgb(32.941176%,47.058824%,63.921569%);stroke-opacity:1;stroke-miterlimit:10;" d="M 3.673574 0.428369 L 3.847896 0.428369 L 3.847896 4.412278 L 3.673574 4.412278 Z M 3.673574 0.428369 " transform="matrix(28.346457,0,0,-28.346457,1,227.771654)"/>
<path style="fill-rule:nonzero;fill:rgb(100%,100%,100%);fill-opacity:1;stroke-width:0.02;stroke-linecap:butt;stroke-linejoin:miter;stroke:rgb(32.941176%,47.058824%,63.921569%);stroke-opacity:1;stroke-miterlimit:10;" d="M 3.847896 0.428369 L 4.022356 0.428369 L 4.022356 4.412278 L 3.847896 4.412278 Z M 3.847896 0.428369 " transform="matrix(28.346457,0,0,-28.346457,1,227.771654)"/>
<path style="fill-rule:nonzero;fill:rgb(100%,100%,100%);fill-opacity:1;stroke-width:0.02;stroke-linecap:butt;stroke-linejoin:miter;stroke:rgb(32.941176%,47.058824%,63.921569%);stroke-opacity:1;stroke-miterlimit:10;" d="M 4.022356 0.428369 L 4.196815 0.428369 L 4.196815 6.84672 L 4.022356 6.84672 Z M 4.022356 0.428369 " transform="matrix(28.346457,0,0,-28.346457,1,227.771654)"/>
<path style="fill-rule:nonzero;fill:rgb(100%,100%,100%);fill-opacity:1;stroke-width:0.02;stroke-linecap:butt;stroke-linejoin:miter;stroke:rgb(32.941176%,47.058824%,63.921569%);stroke-opacity:1;stroke-miterlimit:10;" d="M 4.196815 0.428369 L 4.371275 0.428369 L 4.371275 7.289484 L 4.196815 7.289484 Z M 4.196815 0.428369 " transform="matrix(28.346457,0,0,-28.346457,1,227.771654)"/>
<path style="fill-rule:nonzero;fill:rgb(100%,100%,100%);fill-opacity:1;stroke-width:0.02;stroke-linecap:butt;stroke-linejoin:miter;stroke:rgb(32.941176%,47.058824%,63.921569%);stroke-opacity:1;stroke-miterlimit:10;" d="M 4.371275 0.428369 L 4.545735 0.428369 L 4.545735 4.854903 L 4.371275 4.854903 Z M 4.371275 0.428369 " transform="matrix(28.346457,0,0,-28.346457,1,227.771654)"/>
<path style="fill-rule:nonzero;fill:rgb(100%,100%,100%);fill-opacity:1;stroke-width:0.02;stroke-linecap:butt;stroke-linejoin:miter;stroke:rgb(32.941176%,47.058824%,63.921569%);stroke-opacity:1;stroke-miterlimit:10;" d="M 4.545735 0.428369 L 4.720056 0.428369 L 4.720056 6.625407 L 4.545735 6.625407 Z M 4.545735 0.428369 " transform="matrix(28.346457,0,0,-28.346457,1,227.771654)"/>
<path style="fill-rule:nonzero;fill:rgb(100%,100%,100%);fill-opacity:1;stroke-width:0.02;stroke-linecap:butt;stroke-linejoin:miter;stroke:rgb(32.941176%,47.058824%,63.921569%);stroke-opacity:1;stroke-miterlimit:10;" d="M 4.720056 0.428369 L 4.894516 0.428369 L 4.894516 6.84672 L 4.720056 6.84672 Z M 4.720056 0.428369 " transform="matrix(28.346457,0,0,-28.346457,1,227.771654)"/>
<path style="fill-rule:nonzero;fill:rgb(100%,100%,100%);fill-opacity:1;stroke-width:0.02;stroke-linecap:butt;stroke-linejoin:miter;stroke:rgb(32.941176%,47.058824%,63.921569%);stroke-opacity:1;stroke-miterlimit:10;" d="M 4.894516 0.428369 L 5.068976 0.428369 L 5.068976 7.510796 L 4.894516 7.510796 Z M 4.894516 0.428369 " transform="matrix(28.346457,0,0,-28.346457,1,227.771654)"/>
<path style="fill-rule:nonzero;fill:rgb(100%,100%,100%);fill-opacity:1;stroke-width:0.02;stroke-linecap:butt;stroke-linejoin:miter;stroke:rgb(32.941176%,47.058824%,63.921569%);stroke-opacity:1;stroke-miterlimit:10;" d="M 5.068976 0.428369 L 5.243435 0.428369 L 5.243435 5.740155 L 5.068976 5.740155 Z M 5.068976 0.428369 " transform="matrix(28.346457,0,0,-28.346457,1,227.771654)"/>
<path style="fill-rule:nonzero;fill:rgb(100%,100%,100%);fill-opacity:1;stroke-width:0.02;stroke-linecap:butt;stroke-linejoin:miter;stroke:rgb(32.941176%,47.058824%,63.921569%);stroke-opacity:1;stroke-miterlimit:10;" d="M 5.243435 0.428369 L 5.417757 0.428369 L 5.417757 5.297529 L 5.243435 5.297529 Z M 5.243435 0.428369 " transform="matrix(28.346457,0,0,-28.346457,1,227.771654)"/>
<path style="fill-rule:nonzero;fill:rgb(100%,100%,100%);fill-opacity:1;stroke-width:0.02;stroke-linecap:butt;stroke-linejoin:miter;stroke:rgb(32.941176%,47.058824%,63.921569%);stroke-opacity:1;stroke-miterlimit:10;" d="M 5.417757 0.428369 L 5.592217 0.428369 L 5.592217 4.63359 L 5.417757 4.63359 Z M 5.417757 0.428369 " transform="matrix(28.346457,0,0,-28.346457,1,227.771654)"/>
<path style="fill-rule:nonzero;fill:rgb(100%,100%,100%);fill-opacity:1;stroke-width:0.02;stroke-linecap:butt;stroke-linejoin:miter;stroke:rgb(32.941176%,47.058824%,63.921569%);stroke-opacity:1;stroke-miterlimit:10;" d="M 5.592217 0.428369 L 5.766676 0.428369 L 5.766676 4.190965 L 5.592217 4.190965 Z M 5.592217 0.428369 " transform="matrix(28.346457,0,0,-28.346457,1,227.771654)"/>
<path style="fill-rule:nonzero;fill:rgb(100%,100%,100%);fill-opacity:1;stroke-width:0.02;stroke-linecap:butt;stroke-linejoin:miter;stroke:rgb(32.941176%,47.058824%,63.921569%);stroke-opacity:1;stroke-miterlimit:10;" d="M 5.766676 0.428369 L 5.941136 0.428369 L 5.941136 3.526888 L 5.766676 3.526888 Z M 5.766676 0.428369 " transform="matrix(28.346457,0,0,-28.346457,1,227.771654)"/>
<path style="fill-rule:nonzero;fill:rgb(100%,100%,100%);fill-opacity:1;stroke-width:0.02;stroke-linecap:butt;stroke-linejoin:miter;stroke:rgb(32.941176%,47.058824%,63.921569%);stroke-opacity:1;stroke-miterlimit:10;" d="M 5.941136 0.428369 L 6.115596 0.428369 L 6.115596 2.641636 L 5.941136 2.641636 Z M 5.941136 0.428369 " transform="matrix(28.346457,0,0,-28.346457,1,227.771654)"/>
<path style="fill-rule:nonzero;fill:rgb(100%,100%,100%);fill-opacity:1;stroke-width:0.02;stroke-linecap:butt;stroke-linejoin:miter;stroke:rgb(32.941176%,47.058824%,63.921569%);stroke-opacity:1;stroke-miterlimit:10;" d="M 6.115596 0.428369 L 6.289918 0.428369 L 6.289918 2.862949 L 6.115596 2.862949 Z M 6.115596 0.428369 " transform="matrix(28.346457,0,0,-28.346457,1,227.771654)"/>
<path style="fill-rule:nonzero;fill:rgb(100%,100%,100%);fill-opacity:1;stroke-width:0.02;stroke-linecap:butt;stroke-linejoin:miter;stroke:rgb(32.941176%,47.058824%,63.921569%);stroke-opacity:1;stroke-miterlimit:10;" d="M 6.289918 0.428369 L 6.464377 0.428369 L 6.464377 2.862949 L 6.289918 2.862949 Z M 6.289918 0.428369 " transform="matrix(28.346457,0,0,-28.346457,1,227.771654)"/>
<path style="fill-rule:nonzero;fill:rgb(100%,100%,100%);fill-opacity:1;stroke-width:0.02;stroke-linecap:butt;stroke-linejoin:miter;stroke:rgb(32.941176%,47.058824%,63.921569%);stroke-opacity:1;stroke-miterlimit:10;" d="M 6.464377 0.428369 L 6.638837 0.428369 L 6.638837 1.535072 L 6.464377 1.535072 Z M 6.464377 0.428369 " transform="matrix(28.346457,0,0,-28.346457,1,227.771654)"/>
<path style="fill-rule:nonzero;fill:rgb(100%,100%,100%);fill-opacity:1;stroke-width:0.02;stroke-linecap:butt;stroke-linejoin:miter;stroke:rgb(32.941176%,47.058824%,63.921569%);stroke-opacity:1;stroke-miterlimit:10;" d="M 6.638837 0.428369 L 6.813296 0.428369 L 6.813296 1.535072 L 6.638837 1.535072 Z M 6.638837 0.428369 " transform="matrix(28.346457,0,0,-28.346457,1,227.771654)"/>
<path style="fill-rule:nonzero;fill:rgb(100%,100%,100%);fill-opacity:1;stroke-width:0.02;stroke-linecap:butt;stroke-linejoin:miter;stroke:rgb(32.941176%,47.058824%,63.921569%);stroke-opacity:1;stroke-miterlimit:10;" d="M 6.813296 0.428369 L 6.987618 0.428369 L 6.987618 1.535072 L 6.813296 1.535072 Z M 6.813296 0.428369 " transform="matrix(28.346457,0,0,-28.346457,1,227.771654)"/>
<path style="fill-rule:nonzero;fill:rgb(100%,100%,100%);fill-opacity:1;stroke-width:0.02;stroke-linecap:butt;stroke-linejoin:miter;stroke:rgb(32.941176%,47.058824%,63.921569%);stroke-opacity:1;stroke-miterlimit:10;" d="M 6.987618 0.428369 L 7.162078 0.428369 L 7.162078 1.313759 L 6.987618 1.313759 Z M 6.987618 0.428369 " transform="matrix(28.346457,0,0,-28.346457,1,227.771654)"/>
<path style="fill-rule:nonzero;fill:rgb(100%,100%,100%);fill-opacity:1;stroke-width:0.02;stroke-linecap:butt;stroke-linejoin:miter;stroke:rgb(32.941176%,47.058824%,63.921569%);stroke-opacity:1;stroke-miterlimit:10;" d="M 7.162078 0.428369 L 7.336538 0.428369 L 7.336538 1.313759 L 7.162078 1.313759 Z M 7.162078 0.428369 " transform="matrix(28.346457,0,0,-28.346457,1,227.771654)"/>
<path style="fill-rule:nonzero;fill:rgb(100%,100%,100%);fill-opacity:1;stroke-width:0.02;stroke-linecap:butt;stroke-linejoin:miter;stroke:rgb(32.941176%,47.058824%,63.921569%);stroke-opacity:1;stroke-miterlimit:10;" d="M 7.336538 0.428369 L 7.510997 0.428369 L 7.510997 1.092308 L 7.336538 1.092308 Z M 7.336538 0.428369 " transform="matrix(28.346457,0,0,-28.346457,1,227.771654)"/>
<path style="fill-rule:nonzero;fill:rgb(100%,100%,100%);fill-opacity:1;stroke-width:0.02;stroke-linecap:butt;stroke-linejoin:miter;stroke:rgb(32.941176%,47.058824%,63.921569%);stroke-opacity:1;stroke-miterlimit:10;" d="M 7.510997 0.428369 L 7.685457 0.428369 L 7.685457 1.535072 L 7.510997 1.535072 Z M 7.510997 0.428369 " transform="matrix(28.346457,0,0,-28.346457,1,227.771654)"/>
<path style="fill-rule:nonzero;fill:rgb(100%,100%,100%);fill-opacity:1;stroke-width:0.02;stroke-linecap:butt;stroke-linejoin:miter;stroke:rgb(32.941176%,47.058824%,63.921569%);stroke-opacity:1;stroke-miterlimit:10;" d="M 7.685457 0.428369 L 7.859779 0.428369 L 7.859779 0.870995 L 7.685457 0.870995 Z M 7.685457 0.428369 " transform="matrix(28.346457,0,0,-28.346457,1,227.771654)"/>
<path style="fill-rule:nonzero;fill:rgb(100%,100%,100%);fill-opacity:1;stroke-width:0.02;stroke-linecap:butt;stroke-linejoin:miter;stroke:rgb(32.941176%,47.058824%,63.921569%);stroke-opacity:1;stroke-miterlimit:10;" d="M 7.859779 0.428369 L 8.034238 0.428369 L 8.034238 0.870995 L 7.859779 0.870995 Z M 7.859779 0.428369 " transform="matrix(28.346457,0,0,-28.346457,1,227.771654)"/>
<path style="fill-rule:nonzero;fill:rgb(100%,100%,100%);fill-opacity:1;stroke-width:0.02;stroke-linecap:butt;stroke-linejoin:miter;stroke:rgb(32.941176%,47.058824%,63.921569%);stroke-opacity:1;stroke-miterlimit:10;" d="M 8.383158 0.428369 L 8.557479 0.428369 L 8.557479 0.649682 L 8.383158 0.649682 Z M 8.383158 0.428369 " transform="matrix(28.346457,0,0,-28.346457,1,227.771654)"/>
<path style="fill-rule:nonzero;fill:rgb(100%,100%,100%);fill-opacity:1;stroke-width:0.02;stroke-linecap:butt;stroke-linejoin:miter;stroke:rgb(32.941176%,47.058824%,63.921569%);stroke-opacity:1;stroke-miterlimit:10;" d="M 8.731939 0.428369 L 8.906399 0.428369 L 8.906399 0.649682 L 8.731939 0.649682 Z M 8.731939 0.428369 " transform="matrix(28.346457,0,0,-28.346457,1,227.771654)"/>
<path style="fill-rule:nonzero;fill:rgb(100%,100%,100%);fill-opacity:1;stroke-width:0.02;stroke-linecap:butt;stroke-linejoin:miter;stroke:rgb(32.941176%,47.058824%,63.921569%);stroke-opacity:1;stroke-miterlimit:10;" d="M 9.42964 0.428369 L 9.604099 0.428369 L 9.604099 0.649682 L 9.42964 0.649682 Z M 9.42964 0.428369 " transform="matrix(28.346457,0,0,-28.346457,1,227.771654)"/>
<path style="fill:none;stroke-width:0.02;stroke-linecap:butt;stroke-linejoin:miter;stroke:rgb(0%,0%,0%);stroke-opacity:1;stroke-miterlimit:10;" d="M 0.742625 1.16934 L 0.847493 1.16934 " transform="matrix(28.346457,0,0,-28.346457,1,227.771654)"/>
<path style="fill:none;stroke-width:0.02;stroke-linecap:butt;stroke-linejoin:miter;stroke:rgb(0%,0%,0%);stroke-opacity:1;stroke-miterlimit:10;" d="M 0.742625 1.910311 L 0.847493 1.910311 " transform="matrix(28.346457,0,0,-28.346457,1,227.771654)"/>
<path style="fill:none;stroke-width:0.02;stroke-linecap:butt;stroke-linejoin:miter;stroke:rgb(0%,0%,0%);stroke-opacity:1;stroke-miterlimit:10;" d="M 0.742625 2.65142 L 0.847493 2.65142 " transform="matrix(28.346457,0,0,-28.346457,1,227.771654)"/>
<path style="fill:none;stroke-width:0.02;stroke-linecap:butt;stroke-linejoin:miter;stroke:rgb(0%,0%,0%);stroke-opacity:1;stroke-miterlimit:10;" d="M 0.742625 3.392391 L 0.847493 3.392391 " transform="matrix(28.346457,0,0,-28.346457,1,227.771654)"/>
<path style="fill:none;stroke-width:0.02;stroke-linecap:butt;stroke-linejoin:miter;stroke:rgb(0%,0%,0%);stroke-opacity:1;stroke-miterlimit:10;" d="M 0.742625 4.133363 L 0.847493 4.133363 " transform="matrix(28.346457,0,0,-28.346457,1,227.771654)"/>
<path style="fill:none;stroke-width:0.02;stroke-linecap:butt;stroke-linejoin:miter;stroke:rgb(0%,0%,0%);stroke-opacity:1;stroke-miterlimit:10;" d="M 0.742625 4.874334 L 0.847493 4.874334 " transform="matrix(28.346457,0,0,-28.346457,1,227.771654)"/>
<path style="fill:none;stroke-width:0.02;stroke-linecap:butt;stroke-linejoin:miter;stroke:rgb(0%,0%,0%);stroke-opacity:1;stroke-miterlimit:10;" d="M 0.742625 5.615305 L 0.847493 5.615305 " transform="matrix(28.346457,0,0,-28.346457,1,227.771654)"/>
<path style="fill:none;stroke-width:0.02;stroke-linecap:butt;stroke-linejoin:miter;stroke:rgb(0%,0%,0%);stroke-opacity:1;stroke-miterlimit:10;" d="M 0.742625 6.356276 L 0.847493 6.356276 " transform="matrix(28.346457,0,0,-28.346457,1,227.771654)"/>
<path style="fill:none;stroke-width:0.02;stroke-linecap:butt;stroke-linejoin:miter;stroke:rgb(0%,0%,0%);stroke-opacity:1;stroke-miterlimit:10;" d="M 0.742625 7.097247 L 0.847493 7.097247 " transform="matrix(28.346457,0,0,-28.346457,1,227.771654)"/>
<path style="fill:none;stroke-width:0.02;stroke-linecap:round;stroke-linejoin:miter;stroke:rgb(0%,0%,0%);stroke-opacity:1;stroke-miterlimit:10;" d="M 0.742625 0.428369 L 0.742625 7.838356 " transform="matrix(28.346457,0,0,-28.346457,1,227.771654)"/>
<path style=" stroke:none;fill-rule:nonzero;fill:rgb(0%,0%,0%);fill-opacity:1;" d="M 9.070312 212.886719 C 9.824219 212.941406 10.324219 213.632812 10.460938 214.332031 C 10.53125 214.648438 10.546875 214.949219 10.578125 215.265625 L 10.578125 216.078125 C 10.539062 216.902344 10.34375 217.988281 9.445312 218.324219 C 8.667969 218.632812 7.753906 218.148438 7.523438 217.355469 C 7.347656 216.933594 7.332031 216.503906 7.292969 216.078125 L 7.292969 215.265625 C 7.332031 214.441406 7.507812 213.347656 8.398438 212.980469 L 8.4375 212.964844 L 8.46875 212.957031 L 8.507812 212.941406 L 8.628906 212.910156 L 8.699219 212.894531 L 8.785156 212.894531 L 8.800781 212.886719 Z M 9.070312 212.886719 Z M 8.824219 213.371094 C 8.160156 213.449219 7.960938 214.25 7.914062 214.789062 L 7.914062 215.003906 L 7.898438 215.019531 L 7.898438 216.125 C 7.945312 216.695312 7.984375 217.433594 8.507812 217.816406 C 8.992188 218.148438 9.636719 217.773438 9.769531 217.257812 C 9.914062 216.878906 9.945312 216.503906 9.976562 216.125 L 9.976562 215.019531 C 9.929688 214.441406 9.851562 213.632812 9.183594 213.402344 L 9.128906 213.386719 L 9.113281 213.371094 L 9.039062 213.371094 L 9.023438 213.355469 L 8.839844 213.355469 Z M 8.824219 213.371094 Z M 8.824219 213.371094 "/>
<path style=" stroke:none;fill-rule:nonzero;fill:rgb(0%,0%,0%);fill-opacity:1;" d="M 12.351562 217.601562 L 12.351562 218.234375 L 11.707031 218.234375 L 11.707031 217.601562 Z M 12.351562 217.601562 Z M 12.351562 217.601562 "/>
<path style=" stroke:none;fill-rule:nonzero;fill:rgb(0%,0%,0%);fill-opacity:1;" d="M 15.238281 212.886719 C 15.992188 212.941406 16.492188 213.632812 16.628906 214.332031 C 16.699219 214.648438 16.714844 214.949219 16.746094 215.265625 L 16.746094 216.078125 C 16.707031 216.902344 16.507812 217.988281 15.613281 218.324219 C 14.835938 218.632812 13.921875 218.148438 13.691406 217.355469 C 13.515625 216.933594 13.5 216.503906 13.460938 216.078125 L 13.460938 215.265625 C 13.5 214.441406 13.675781 213.347656 14.5625 212.980469 L 14.605469 212.964844 L 14.636719 212.957031 L 14.675781 212.941406 L 14.792969 212.910156 L 14.867188 212.894531 L 14.953125 212.894531 L 14.96875 212.886719 Z M 15.238281 212.886719 Z M 14.992188 213.371094 C 14.328125 213.449219 14.128906 214.25 14.082031 214.789062 L 14.082031 215.003906 L 14.0625 215.019531 L 14.0625 216.125 C 14.113281 216.695312 14.152344 217.433594 14.675781 217.816406 C 15.160156 218.148438 15.800781 217.773438 15.9375 217.257812 C 16.082031 216.878906 16.113281 216.503906 16.144531 216.125 L 16.144531 215.019531 C 16.097656 214.441406 16.015625 213.632812 15.351562 213.402344 L 15.292969 213.386719 L 15.277344 213.371094 L 15.207031 213.371094 L 15.191406 213.355469 L 15.007812 213.355469 Z M 14.992188 213.371094 Z M 14.992188 213.371094 "/>
<path style=" stroke:none;fill-rule:nonzero;fill:rgb(0%,0%,0%);fill-opacity:1;" d="M 5.101562 191.882812 C 5.859375 191.9375 6.359375 192.628906 6.492188 193.324219 C 6.5625 193.644531 6.578125 193.945312 6.613281 194.261719 L 6.613281 195.070312 C 6.570312 195.898438 6.375 196.984375 5.476562 197.316406 C 4.699219 197.628906 3.785156 197.144531 3.554688 196.351562 C 3.382812 195.929688 3.363281 195.5 3.324219 195.070312 L 3.324219 194.261719 C 3.363281 193.4375 3.539062 192.339844 4.429688 191.976562 L 4.46875 191.960938 L 4.5 191.953125 L 4.539062 191.9375 L 4.660156 191.90625 L 4.730469 191.890625 L 4.816406 191.890625 L 4.832031 191.882812 Z M 5.101562 191.882812 Z M 4.855469 192.367188 C 4.191406 192.445312 3.992188 193.246094 3.945312 193.785156 L 3.945312 194 L 3.929688 194.015625 L 3.929688 195.121094 C 3.976562 195.691406 4.015625 196.429688 4.539062 196.808594 C 5.023438 197.144531 5.667969 196.769531 5.800781 196.253906 C 5.945312 195.875 5.976562 195.5 6.007812 195.121094 L 6.007812 194.015625 C 5.960938 193.4375 5.882812 192.628906 5.214844 192.398438 L 5.160156 192.382812 L 5.144531 192.367188 L 5.070312 192.367188 L 5.054688 192.351562 L 4.875 192.351562 Z M 4.855469 192.367188 Z M 4.855469 192.367188 "/>
<path style=" stroke:none;fill-rule:nonzero;fill:rgb(0%,0%,0%);fill-opacity:1;" d="M 8.382812 196.597656 L 8.382812 197.230469 L 7.738281 197.230469 L 7.738281 196.597656 Z M 8.382812 196.597656 Z M 8.382812 196.597656 "/>
<path style=" stroke:none;fill-rule:nonzero;fill:rgb(0%,0%,0%);fill-opacity:1;" d="M 11.269531 191.882812 C 12.023438 191.9375 12.523438 192.628906 12.660156 193.324219 C 12.730469 193.644531 12.746094 193.945312 12.777344 194.261719 L 12.777344 195.070312 C 12.738281 195.898438 12.539062 196.984375 11.644531 197.316406 C 10.867188 197.628906 9.953125 197.144531 9.722656 196.351562 C 9.546875 195.929688 9.53125 195.5 9.492188 195.070312 L 9.492188 194.261719 C 9.53125 193.4375 9.707031 192.339844 10.597656 191.976562 L 10.636719 191.960938 L 10.667969 191.953125 L 10.707031 191.9375 L 10.824219 191.90625 L 10.898438 191.890625 L 10.984375 191.890625 L 11 191.882812 Z M 11.269531 191.882812 Z M 11.023438 192.367188 C 10.359375 192.445312 10.160156 193.246094 10.113281 193.785156 L 10.113281 194 L 10.097656 194.015625 L 10.097656 195.121094 C 10.144531 195.691406 10.183594 196.429688 10.707031 196.808594 C 11.191406 197.144531 11.835938 196.769531 11.96875 196.253906 C 12.113281 195.875 12.144531 195.5 12.175781 195.121094 L 12.175781 194.015625 C 12.128906 193.4375 12.046875 192.628906 11.382812 192.398438 L 11.324219 192.382812 L 11.308594 192.367188 L 11.238281 192.367188 L 11.222656 192.351562 L 11.039062 192.351562 Z M 11.023438 192.367188 Z M 11.023438 192.367188 "/>
<path style=" stroke:none;fill-rule:nonzero;fill:rgb(0%,0%,0%);fill-opacity:1;" d="M 16.414062 192.046875 L 16.414062 192.539062 L 14.351562 192.539062 L 14.335938 192.546875 L 14.335938 194.175781 C 14.523438 194.046875 14.792969 193.882812 15.046875 193.875 C 15.945312 193.777344 16.636719 194.660156 16.675781 195.476562 C 16.800781 196.515625 15.828125 197.546875 14.777344 197.390625 C 14.253906 197.375 13.746094 197.0625 13.445312 196.636719 C 13.53125 196.515625 13.605469 196.308594 13.707031 196.238281 C 14.082031 196.96875 15.285156 197.261719 15.769531 196.492188 C 16.082031 195.914062 16.074219 195.175781 15.714844 194.621094 C 15.300781 194.085938 14.484375 194.414062 14.292969 194.976562 L 13.777344 194.976562 L 13.777344 192.046875 Z M 16.414062 192.046875 Z M 16.414062 192.046875 "/>
<path style=" stroke:none;fill-rule:nonzero;fill:rgb(0%,0%,0%);fill-opacity:1;" d="M 9.070312 170.875 C 9.824219 170.933594 10.324219 171.621094 10.460938 172.320312 C 10.53125 172.640625 10.546875 172.941406 10.578125 173.257812 L 10.578125 174.066406 C 10.539062 174.894531 10.34375 175.980469 9.445312 176.3125 C 8.667969 176.625 7.753906 176.140625 7.523438 175.34375 C 7.347656 174.925781 7.332031 174.496094 7.292969 174.066406 L 7.292969 173.257812 C 7.332031 172.433594 7.507812 171.335938 8.398438 170.972656 L 8.4375 170.957031 L 8.46875 170.949219 L 8.507812 170.933594 L 8.628906 170.902344 L 8.699219 170.886719 L 8.785156 170.886719 L 8.800781 170.875 Z M 9.070312 170.875 Z M 8.824219 171.359375 C 8.160156 171.441406 7.960938 172.242188 7.914062 172.78125 L 7.914062 172.996094 L 7.898438 173.011719 L 7.898438 174.113281 C 7.945312 174.6875 7.984375 175.425781 8.507812 175.804688 C 8.992188 176.140625 9.636719 175.765625 9.769531 175.25 C 9.914062 174.871094 9.945312 174.496094 9.976562 174.113281 L 9.976562 173.011719 C 9.929688 172.433594 9.851562 171.621094 9.183594 171.394531 L 9.128906 171.375 L 9.113281 171.359375 L 9.039062 171.359375 L 9.023438 171.34375 L 8.839844 171.34375 Z M 8.824219 171.359375 Z M 8.824219 171.359375 "/>
<path style=" stroke:none;fill-rule:nonzero;fill:rgb(0%,0%,0%);fill-opacity:1;" d="M 12.351562 175.589844 L 12.351562 176.226562 L 11.707031 176.226562 L 11.707031 175.589844 Z M 12.351562 175.589844 Z M 12.351562 175.589844 "/>
<path style=" stroke:none;fill-rule:nonzero;fill:rgb(0%,0%,0%);fill-opacity:1;" d="M 15.484375 170.875 L 15.484375 175.773438 L 15.492188 175.789062 L 16.46875 175.789062 L 16.46875 176.226562 L 13.890625 176.226562 L 13.890625 175.789062 L 14.867188 175.789062 L 14.882812 175.773438 L 14.882812 171.664062 C 14.546875 171.773438 14.199219 171.84375 13.851562 171.835938 L 13.851562 171.394531 C 14.375 171.402344 14.945312 171.257812 15.34375 170.875 Z M 15.484375 170.875 Z M 15.484375 170.875 "/>
<path style=" stroke:none;fill-rule:nonzero;fill:rgb(0%,0%,0%);fill-opacity:1;" d="M 5.101562 149.871094 C 5.859375 149.929688 6.359375 150.617188 6.492188 151.316406 C 6.5625 151.632812 6.578125 151.9375 6.613281 152.253906 L 6.613281 153.0625 C 6.570312 153.886719 6.375 154.976562 5.476562 155.308594 C 4.699219 155.617188 3.785156 155.132812 3.554688 154.339844 C 3.382812 153.921875 3.363281 153.492188 3.324219 153.0625 L 3.324219 152.253906 C 3.363281 151.429688 3.539062 150.332031 4.429688 149.96875 L 4.46875 149.953125 L 4.5 149.945312 L 4.539062 149.929688 L 4.660156 149.894531 L 4.730469 149.878906 L 4.816406 149.878906 L 4.832031 149.871094 Z M 5.101562 149.871094 Z M 4.855469 150.355469 C 4.191406 150.4375 3.992188 151.238281 3.945312 151.777344 L 3.945312 151.992188 L 3.929688 152.007812 L 3.929688 153.109375 C 3.976562 153.683594 4.015625 154.421875 4.539062 154.800781 C 5.023438 155.132812 5.667969 154.761719 5.800781 154.246094 C 5.945312 153.863281 5.976562 153.492188 6.007812 153.109375 L 6.007812 152.007812 C 5.960938 151.429688 5.882812 150.617188 5.214844 150.386719 L 5.160156 150.371094 L 5.144531 150.355469 L 5.070312 150.355469 L 5.054688 150.339844 L 4.875 150.339844 Z M 4.855469 150.355469 Z M 4.855469 150.355469 "/>
<path style=" stroke:none;fill-rule:nonzero;fill:rgb(0%,0%,0%);fill-opacity:1;" d="M 8.382812 154.585938 L 8.382812 155.222656 L 7.738281 155.222656 L 7.738281 154.585938 Z M 8.382812 154.585938 Z M 8.382812 154.585938 "/>
<path style=" stroke:none;fill-rule:nonzero;fill:rgb(0%,0%,0%);fill-opacity:1;" d="M 11.515625 149.871094 L 11.515625 154.769531 L 11.523438 154.785156 L 12.5 154.785156 L 12.5 155.222656 L 9.921875 155.222656 L 9.921875 154.785156 L 10.898438 154.785156 L 10.914062 154.769531 L 10.914062 150.660156 C 10.578125 150.769531 10.230469 150.839844 9.882812 150.832031 L 9.882812 150.386719 C 10.40625 150.394531 10.976562 150.253906 11.375 149.871094 Z M 11.515625 149.871094 Z M 11.515625 149.871094 "/>
<path style=" stroke:none;fill-rule:nonzero;fill:rgb(0%,0%,0%);fill-opacity:1;" d="M 16.414062 150.039062 L 16.414062 150.53125 L 14.351562 150.53125 L 14.335938 150.539062 L 14.335938 152.167969 C 14.523438 152.039062 14.792969 151.871094 15.046875 151.863281 C 15.945312 151.769531 16.636719 152.652344 16.675781 153.46875 C 16.800781 154.507812 15.828125 155.539062 14.777344 155.378906 C 14.253906 155.363281 13.746094 155.054688 13.445312 154.625 C 13.53125 154.507812 13.605469 154.300781 13.707031 154.230469 C 14.082031 154.960938 15.285156 155.253906 15.769531 154.484375 C 16.082031 153.90625 16.074219 153.167969 15.714844 152.609375 C 15.300781 152.078125 14.484375 152.40625 14.292969 152.96875 L 13.777344 152.96875 L 13.777344 150.039062 Z M 16.414062 150.039062 Z M 16.414062 150.039062 "/>
<path style=" stroke:none;fill-rule:nonzero;fill:rgb(0%,0%,0%);fill-opacity:1;" d="M 9.070312 128.867188 C 9.824219 128.921875 10.324219 129.613281 10.460938 130.3125 C 10.53125 130.628906 10.546875 130.933594 10.578125 131.25 L 10.578125 132.058594 C 10.539062 132.882812 10.34375 133.972656 9.445312 134.304688 C 8.667969 134.613281 7.753906 134.128906 7.523438 133.335938 C 7.347656 132.914062 7.332031 132.488281 7.292969 132.058594 L 7.292969 131.25 C 7.332031 130.421875 7.507812 129.328125 8.398438 128.964844 L 8.4375 128.949219 L 8.46875 128.941406 L 8.507812 128.921875 L 8.628906 128.890625 L 8.699219 128.875 L 8.785156 128.875 L 8.800781 128.867188 Z M 9.070312 128.867188 Z M 8.824219 129.351562 C 8.160156 129.429688 7.960938 130.234375 7.914062 130.773438 L 7.914062 130.988281 L 7.898438 131.003906 L 7.898438 132.105469 C 7.945312 132.679688 7.984375 133.414062 8.507812 133.796875 C 8.992188 134.128906 9.636719 133.757812 9.769531 133.242188 C 9.914062 132.859375 9.945312 132.488281 9.976562 132.105469 L 9.976562 131.003906 C 9.929688 130.421875 9.851562 129.613281 9.183594 129.382812 L 9.128906 129.367188 L 9.113281 129.351562 L 9.039062 129.351562 L 9.023438 129.335938 L 8.839844 129.335938 Z M 8.824219 129.351562 Z M 8.824219 129.351562 "/>
<path style=" stroke:none;fill-rule:nonzero;fill:rgb(0%,0%,0%);fill-opacity:1;" d="M 12.351562 133.582031 L 12.351562 134.21875 L 11.707031 134.21875 L 11.707031 133.582031 Z M 12.351562 133.582031 Z M 12.351562 133.582031 "/>
<path style=" stroke:none;fill-rule:nonzero;fill:rgb(0%,0%,0%);fill-opacity:1;" d="M 15.152344 128.867188 C 16.074219 128.890625 16.800781 129.835938 16.660156 130.726562 C 16.566406 131.613281 15.730469 132.121094 15.136719 132.679688 L 14.882812 132.941406 L 14.851562 132.957031 L 14.53125 133.265625 L 14.507812 133.28125 L 14.191406 133.597656 L 14.160156 133.613281 L 14.089844 133.6875 L 14.105469 133.695312 L 16.675781 133.695312 L 16.675781 134.21875 L 13.53125 134.21875 L 13.53125 133.742188 L 14.808594 132.464844 C 15.421875 131.933594 16.136719 131.242188 16.023438 130.367188 C 15.960938 129.859375 15.53125 129.390625 15.007812 129.351562 C 14.476562 129.273438 14.007812 129.695312 13.890625 130.203125 L 13.875 130.226562 L 13.859375 130.28125 L 13.835938 130.367188 L 13.785156 130.542969 L 13.777344 130.582031 C 13.667969 130.449219 13.546875 130.304688 13.460938 130.152344 C 13.621094 129.503906 14.144531 128.890625 14.835938 128.867188 Z M 15.152344 128.867188 Z M 15.152344 128.867188 "/>
<path style=" stroke:none;fill-rule:nonzero;fill:rgb(0%,0%,0%);fill-opacity:1;" d="M 5.101562 107.863281 C 5.859375 107.917969 6.359375 108.609375 6.492188 109.308594 C 6.5625 109.625 6.578125 109.925781 6.613281 110.246094 L 6.613281 111.054688 C 6.570312 111.878906 6.375 112.96875 5.476562 113.300781 C 4.699219 113.609375 3.785156 113.125 3.554688 112.332031 C 3.382812 111.910156 3.363281 111.484375 3.324219 111.054688 L 3.324219 110.246094 C 3.363281 109.417969 3.539062 108.324219 4.429688 107.957031 L 4.46875 107.941406 L 4.5 107.933594 L 4.539062 107.917969 L 4.660156 107.886719 L 4.730469 107.871094 L 4.816406 107.871094 L 4.832031 107.863281 Z M 5.101562 107.863281 Z M 4.855469 108.347656 C 4.191406 108.425781 3.992188 109.230469 3.945312 109.769531 L 3.945312 109.984375 L 3.929688 110 L 3.929688 111.101562 C 3.976562 111.671875 4.015625 112.410156 4.539062 112.792969 C 5.023438 113.125 5.667969 112.753906 5.800781 112.238281 C 5.945312 111.855469 5.976562 111.484375 6.007812 111.101562 L 6.007812 110 C 5.960938 109.417969 5.882812 108.609375 5.214844 108.378906 L 5.160156 108.363281 L 5.144531 108.347656 L 5.070312 108.347656 L 5.054688 108.332031 L 4.875 108.332031 Z M 4.855469 108.347656 Z M 4.855469 108.347656 "/>
<path style=" stroke:none;fill-rule:nonzero;fill:rgb(0%,0%,0%);fill-opacity:1;" d="M 8.382812 112.578125 L 8.382812 113.214844 L 7.738281 113.214844 L 7.738281 112.578125 Z M 8.382812 112.578125 Z M 8.382812 112.578125 "/>
<path style=" stroke:none;fill-rule:nonzero;fill:rgb(0%,0%,0%);fill-opacity:1;" d="M 11.183594 107.863281 C 12.105469 107.886719 12.835938 108.832031 12.691406 109.722656 C 12.597656 110.609375 11.761719 111.117188 11.167969 111.671875 L 10.914062 111.933594 L 10.882812 111.949219 L 10.5625 112.261719 L 10.539062 112.277344 L 10.222656 112.59375 L 10.191406 112.609375 L 10.121094 112.679688 L 10.136719 112.6875 L 12.707031 112.6875 L 12.707031 113.214844 L 9.5625 113.214844 L 9.5625 112.738281 L 10.84375 111.460938 C 11.453125 110.925781 12.167969 110.238281 12.054688 109.363281 C 11.992188 108.855469 11.5625 108.386719 11.039062 108.347656 C 10.507812 108.269531 10.039062 108.6875 9.921875 109.195312 L 9.90625 109.222656 L 9.890625 109.277344 L 9.867188 109.363281 L 9.816406 109.539062 L 9.808594 109.578125 C 9.699219 109.441406 9.578125 109.300781 9.492188 109.148438 C 9.652344 108.5 10.175781 107.886719 10.867188 107.863281 Z M 11.183594 107.863281 Z M 11.183594 107.863281 "/>
<path style=" stroke:none;fill-rule:nonzero;fill:rgb(0%,0%,0%);fill-opacity:1;" d="M 16.414062 108.03125 L 16.414062 108.523438 L 14.351562 108.523438 L 14.335938 108.53125 L 14.335938 110.15625 C 14.523438 110.03125 14.792969 109.863281 15.046875 109.855469 C 15.945312 109.761719 16.636719 110.640625 16.675781 111.460938 C 16.800781 112.5 15.828125 113.53125 14.777344 113.371094 C 14.253906 113.355469 13.746094 113.046875 13.445312 112.617188 C 13.53125 112.5 13.605469 112.292969 13.707031 112.222656 C 14.082031 112.953125 15.285156 113.246094 15.769531 112.476562 C 16.082031 111.894531 16.074219 111.15625 15.714844 110.601562 C 15.300781 110.070312 14.484375 110.394531 14.292969 110.960938 L 13.777344 110.960938 L 13.777344 108.03125 Z M 16.414062 108.03125 Z M 16.414062 108.03125 "/>
<path style=" stroke:none;fill-rule:nonzero;fill:rgb(0%,0%,0%);fill-opacity:1;" d="M 9.070312 86.859375 C 9.824219 86.914062 10.324219 87.605469 10.460938 88.304688 C 10.53125 88.621094 10.546875 88.921875 10.578125 89.242188 L 10.578125 90.050781 C 10.539062 90.875 10.34375 91.960938 9.445312 92.296875 C 8.667969 92.605469 7.753906 92.121094 7.523438 91.328125 C 7.347656 90.90625 7.332031 90.476562 7.292969 90.050781 L 7.292969 89.242188 C 7.332031 88.414062 7.507812 87.320312 8.398438 86.953125 L 8.4375 86.9375 L 8.46875 86.929688 L 8.507812 86.914062 L 8.628906 86.882812 L 8.699219 86.867188 L 8.785156 86.867188 L 8.800781 86.859375 Z M 9.070312 86.859375 Z M 8.824219 87.34375 C 8.160156 87.421875 7.960938 88.222656 7.914062 88.765625 L 7.914062 88.976562 L 7.898438 88.996094 L 7.898438 90.097656 C 7.945312 90.667969 7.984375 91.40625 8.507812 91.789062 C 8.992188 92.121094 9.636719 91.75 9.769531 91.234375 C 9.914062 90.851562 9.945312 90.476562 9.976562 90.097656 L 9.976562 88.996094 C 9.929688 88.414062 9.851562 87.605469 9.183594 87.375 L 9.128906 87.359375 L 9.113281 87.34375 L 9.039062 87.34375 L 9.023438 87.328125 L 8.839844 87.328125 Z M 8.824219 87.34375 Z M 8.824219 87.34375 "/>
<path style=" stroke:none;fill-rule:nonzero;fill:rgb(0%,0%,0%);fill-opacity:1;" d="M 12.351562 91.574219 L 12.351562 92.207031 L 11.707031 92.207031 L 11.707031 91.574219 Z M 12.351562 91.574219 Z M 12.351562 91.574219 "/>
<path style=" stroke:none;fill-rule:nonzero;fill:rgb(0%,0%,0%);fill-opacity:1;" d="M 15.253906 86.859375 C 15.953125 86.890625 16.683594 87.535156 16.515625 88.273438 C 16.4375 88.773438 16.089844 89.183594 15.652344 89.40625 C 16.359375 89.628906 16.90625 90.375 16.714844 91.113281 C 16.523438 92.074219 15.421875 92.605469 14.53125 92.3125 C 14.105469 92.183594 13.667969 91.914062 13.460938 91.519531 C 13.507812 91.398438 13.492188 91.191406 13.546875 91.113281 C 13.96875 91.734375 14.859375 92.152344 15.554688 91.804688 C 16.320312 91.320312 16.199219 89.90625 15.277344 89.667969 L 15.207031 89.667969 L 15.191406 89.652344 L 14.453125 89.652344 L 14.453125 89.175781 C 14.90625 89.167969 15.46875 89.113281 15.722656 88.644531 C 15.992188 88.238281 15.96875 87.574219 15.453125 87.375 C 14.84375 87.136719 14.089844 87.527344 13.859375 88.144531 C 13.761719 88.011719 13.667969 87.875 13.570312 87.730469 C 13.898438 87.144531 14.589844 86.796875 15.253906 86.859375 Z M 15.253906 86.859375 Z M 15.253906 86.859375 "/>
<path style=" stroke:none;fill-rule:nonzero;fill:rgb(0%,0%,0%);fill-opacity:1;" d="M 5.101562 65.855469 C 5.859375 65.910156 6.359375 66.601562 6.492188 67.300781 C 6.5625 67.617188 6.578125 67.917969 6.613281 68.234375 L 6.613281 69.046875 C 6.570312 69.871094 6.375 70.957031 5.476562 71.292969 C 4.699219 71.601562 3.785156 71.117188 3.554688 70.324219 C 3.382812 69.902344 3.363281 69.472656 3.324219 69.046875 L 3.324219 68.234375 C 3.363281 67.410156 3.539062 66.316406 4.429688 65.949219 L 4.46875 65.933594 L 4.5 65.925781 L 4.539062 65.910156 L 4.660156 65.878906 L 4.730469 65.863281 L 4.816406 65.863281 L 4.832031 65.855469 Z M 5.101562 65.855469 Z M 4.855469 66.339844 C 4.191406 66.417969 3.992188 67.21875 3.945312 67.757812 L 3.945312 67.972656 L 3.929688 67.988281 L 3.929688 69.09375 C 3.976562 69.664062 4.015625 70.402344 4.539062 70.785156 C 5.023438 71.117188 5.667969 70.742188 5.800781 70.226562 C 5.945312 69.847656 5.976562 69.472656 6.007812 69.09375 L 6.007812 67.988281 C 5.960938 67.410156 5.882812 66.601562 5.214844 66.371094 L 5.160156 66.355469 L 5.144531 66.339844 L 5.070312 66.339844 L 5.054688 66.324219 L 4.875 66.324219 Z M 4.855469 66.339844 Z M 4.855469 66.339844 "/>
<path style=" stroke:none;fill-rule:nonzero;fill:rgb(0%,0%,0%);fill-opacity:1;" d="M 8.382812 70.570312 L 8.382812 71.203125 L 7.738281 71.203125 L 7.738281 70.570312 Z M 8.382812 70.570312 Z M 8.382812 70.570312 "/>
<path style=" stroke:none;fill-rule:nonzero;fill:rgb(0%,0%,0%);fill-opacity:1;" d="M 11.285156 65.855469 C 11.984375 65.886719 12.714844 66.53125 12.546875 67.265625 C 12.46875 67.765625 12.121094 68.179688 11.683594 68.402344 C 12.390625 68.625 12.9375 69.371094 12.746094 70.109375 C 12.554688 71.070312 11.453125 71.601562 10.5625 71.308594 C 10.136719 71.179688 9.699219 70.910156 9.492188 70.515625 C 9.539062 70.394531 9.523438 70.1875 9.578125 70.109375 C 10 70.726562 10.890625 71.148438 11.589844 70.800781 C 12.351562 70.316406 12.230469 68.902344 11.308594 68.664062 L 11.238281 68.664062 L 11.222656 68.648438 L 10.484375 68.648438 L 10.484375 68.171875 C 10.9375 68.164062 11.5 68.109375 11.753906 67.640625 C 12.023438 67.234375 12 66.570312 11.484375 66.371094 C 10.875 66.132812 10.121094 66.519531 9.890625 67.140625 C 9.792969 67.003906 9.699219 66.871094 9.605469 66.726562 C 9.929688 66.140625 10.621094 65.792969 11.285156 65.855469 Z M 11.285156 65.855469 Z M 11.285156 65.855469 "/>
<path style=" stroke:none;fill-rule:nonzero;fill:rgb(0%,0%,0%);fill-opacity:1;" d="M 16.414062 66.019531 L 16.414062 66.511719 L 14.351562 66.511719 L 14.335938 66.519531 L 14.335938 68.148438 C 14.523438 68.023438 14.792969 67.855469 15.046875 67.847656 C 15.945312 67.75 16.636719 68.632812 16.675781 69.449219 C 16.800781 70.488281 15.828125 71.523438 14.777344 71.363281 C 14.253906 71.347656 13.746094 71.039062 13.445312 70.609375 C 13.53125 70.488281 13.605469 70.285156 13.707031 70.210938 C 14.082031 70.941406 15.285156 71.234375 15.769531 70.464844 C 16.082031 69.886719 16.074219 69.148438 15.714844 68.59375 C 15.300781 68.0625 14.484375 68.386719 14.292969 68.949219 L 13.777344 68.949219 L 13.777344 66.019531 Z M 16.414062 66.019531 Z M 16.414062 66.019531 "/>
<path style=" stroke:none;fill-rule:nonzero;fill:rgb(0%,0%,0%);fill-opacity:1;" d="M 9.070312 44.851562 C 9.824219 44.90625 10.324219 45.597656 10.460938 46.292969 C 10.53125 46.613281 10.546875 46.914062 10.578125 47.230469 L 10.578125 48.039062 C 10.539062 48.867188 10.34375 49.953125 9.445312 50.289062 C 8.667969 50.597656 7.753906 50.113281 7.523438 49.320312 C 7.347656 48.898438 7.332031 48.46875 7.292969 48.039062 L 7.292969 47.230469 C 7.332031 46.40625 7.507812 45.3125 8.398438 44.945312 L 8.4375 44.929688 L 8.46875 44.921875 L 8.507812 44.90625 L 8.628906 44.875 L 8.699219 44.859375 L 8.785156 44.859375 L 8.800781 44.851562 Z M 9.070312 44.851562 Z M 8.824219 45.335938 C 8.160156 45.414062 7.960938 46.214844 7.914062 46.753906 L 7.914062 46.96875 L 7.898438 46.984375 L 7.898438 48.089844 C 7.945312 48.660156 7.984375 49.398438 8.507812 49.777344 C 8.992188 50.113281 9.636719 49.738281 9.769531 49.222656 C 9.914062 48.84375 9.945312 48.46875 9.976562 48.089844 L 9.976562 46.984375 C 9.929688 46.40625 9.851562 45.597656 9.183594 45.367188 L 9.128906 45.351562 L 9.113281 45.335938 L 9.039062 45.335938 L 9.023438 45.320312 L 8.839844 45.320312 Z M 8.824219 45.335938 Z M 8.824219 45.335938 "/>
<path style=" stroke:none;fill-rule:nonzero;fill:rgb(0%,0%,0%);fill-opacity:1;" d="M 12.351562 49.566406 L 12.351562 50.199219 L 11.707031 50.199219 L 11.707031 49.566406 Z M 12.351562 49.566406 Z M 12.351562 49.566406 "/>
<path style=" stroke:none;fill-rule:nonzero;fill:rgb(0%,0%,0%);fill-opacity:1;" d="M 16.054688 45.015625 L 16.054688 48.359375 L 16.074219 48.375 L 16.859375 48.375 L 16.859375 48.851562 L 16.074219 48.851562 L 16.054688 48.859375 L 16.054688 50.199219 L 15.453125 50.199219 L 15.453125 48.859375 L 15.4375 48.851562 L 13.34375 48.851562 L 13.34375 48.359375 C 14.007812 47.246094 14.675781 46.128906 15.34375 45.015625 Z M 16.054688 45.015625 Z M 15.46875 45.320312 C 15.308594 46.144531 14.800781 46.851562 14.421875 47.574219 C 14.269531 47.835938 14.070312 48.121094 13.960938 48.375 L 15.484375 48.375 L 15.492188 48.359375 L 15.492188 45.320312 L 15.484375 45.300781 Z M 15.46875 45.320312 Z M 15.46875 45.320312 "/>
<path style=" stroke:none;fill-rule:nonzero;fill:rgb(0%,0%,0%);fill-opacity:1;" d="M 5.101562 23.847656 C 5.859375 23.902344 6.359375 24.59375 6.492188 25.289062 C 6.5625 25.609375 6.578125 25.910156 6.613281 26.226562 L 6.613281 27.035156 C 6.570312 27.863281 6.375 28.949219 5.476562 29.28125 C 4.699219 29.59375 3.785156 29.109375 3.554688 28.3125 C 3.382812 27.894531 3.363281 27.464844 3.324219 27.035156 L 3.324219 26.226562 C 3.363281 25.402344 3.539062 24.304688 4.429688 23.941406 L 4.46875 23.925781 L 4.5 23.917969 L 4.539062 23.902344 L 4.660156 23.871094 L 4.730469 23.855469 L 4.816406 23.855469 L 4.832031 23.847656 Z M 5.101562 23.847656 Z M 4.855469 24.328125 C 4.191406 24.410156 3.992188 25.210938 3.945312 25.75 L 3.945312 25.964844 L 3.929688 25.980469 L 3.929688 27.085938 C 3.976562 27.65625 4.015625 28.394531 4.539062 28.773438 C 5.023438 29.109375 5.667969 28.734375 5.800781 28.21875 C 5.945312 27.839844 5.976562 27.464844 6.007812 27.085938 L 6.007812 25.980469 C 5.960938 25.402344 5.882812 24.59375 5.214844 24.363281 L 5.160156 24.347656 L 5.144531 24.328125 L 5.070312 24.328125 L 5.054688 24.3125 L 4.875 24.3125 Z M 4.855469 24.328125 Z M 4.855469 24.328125 "/>
<path style=" stroke:none;fill-rule:nonzero;fill:rgb(0%,0%,0%);fill-opacity:1;" d="M 8.382812 28.558594 L 8.382812 29.195312 L 7.738281 29.195312 L 7.738281 28.558594 Z M 8.382812 28.558594 Z M 8.382812 28.558594 "/>
<path style=" stroke:none;fill-rule:nonzero;fill:rgb(0%,0%,0%);fill-opacity:1;" d="M 12.089844 24.011719 L 12.089844 27.355469 L 12.105469 27.371094 L 12.890625 27.371094 L 12.890625 27.847656 L 12.105469 27.847656 L 12.089844 27.855469 L 12.089844 29.195312 L 11.484375 29.195312 L 11.484375 27.855469 L 11.46875 27.847656 L 9.375 27.847656 L 9.375 27.355469 C 10.039062 26.242188 10.707031 25.125 11.375 24.011719 Z M 12.089844 24.011719 Z M 11.5 24.3125 C 11.34375 25.140625 10.832031 25.847656 10.453125 26.566406 C 10.300781 26.832031 10.105469 27.117188 9.992188 27.371094 L 11.515625 27.371094 L 11.523438 27.355469 L 11.523438 24.3125 L 11.515625 24.296875 Z M 11.5 24.3125 Z M 11.5 24.3125 "/>
<path style=" stroke:none;fill-rule:nonzero;fill:rgb(0%,0%,0%);fill-opacity:1;" d="M 16.414062 24.011719 L 16.414062 24.503906 L 14.351562 24.503906 L 14.335938 24.511719 L 14.335938 26.140625 C 14.523438 26.011719 14.792969 25.847656 15.046875 25.839844 C 15.945312 25.742188 16.636719 26.625 16.675781 27.441406 C 16.800781 28.480469 15.828125 29.511719 14.777344 29.355469 C 14.253906 29.339844 13.746094 29.027344 13.445312 28.601562 C 13.53125 28.480469 13.605469 28.273438 13.707031 28.203125 C 14.082031 28.933594 15.285156 29.226562 15.769531 28.457031 C 16.082031 27.878906 16.074219 27.140625 15.714844 26.585938 C 15.300781 26.050781 14.484375 26.378906 14.292969 26.941406 L 13.777344 26.941406 L 13.777344 24.011719 Z M 16.414062 24.011719 Z M 16.414062 24.011719 "/>
<path style=" stroke:none;fill-rule:nonzero;fill:rgb(0%,0%,0%);fill-opacity:1;" d="M 9.070312 2.839844 C 9.824219 2.898438 10.324219 3.585938 10.460938 4.285156 C 10.53125 4.601562 10.546875 4.90625 10.578125 5.222656 L 10.578125 6.03125 C 10.539062 6.859375 10.34375 7.945312 9.445312 8.277344 C 8.667969 8.585938 7.753906 8.105469 7.523438 7.308594 C 7.347656 6.890625 7.332031 6.460938 7.292969 6.03125 L 7.292969 5.222656 C 7.332031 4.398438 7.507812 3.300781 8.398438 2.9375 L 8.4375 2.921875 L 8.46875 2.914062 L 8.507812 2.898438 L 8.628906 2.863281 L 8.699219 2.847656 L 8.785156 2.847656 L 8.800781 2.839844 Z M 9.070312 2.839844 Z M 8.824219 3.324219 C 8.160156 3.40625 7.960938 4.207031 7.914062 4.746094 L 7.914062 4.960938 L 7.898438 4.976562 L 7.898438 6.078125 C 7.945312 6.652344 7.984375 7.390625 8.507812 7.769531 C 8.992188 8.105469 9.636719 7.730469 9.769531 7.214844 C 9.914062 6.832031 9.945312 6.460938 9.976562 6.078125 L 9.976562 4.976562 C 9.929688 4.398438 9.851562 3.585938 9.183594 3.355469 L 9.128906 3.339844 L 9.113281 3.324219 L 9.039062 3.324219 L 9.023438 3.308594 L 8.839844 3.308594 Z M 8.824219 3.324219 Z M 8.824219 3.324219 "/>
<path style=" stroke:none;fill-rule:nonzero;fill:rgb(0%,0%,0%);fill-opacity:1;" d="M 12.351562 7.554688 L 12.351562 8.191406 L 11.707031 8.191406 L 11.707031 7.554688 Z M 12.351562 7.554688 Z M 12.351562 7.554688 "/>
<path style=" stroke:none;fill-rule:nonzero;fill:rgb(0%,0%,0%);fill-opacity:1;" d="M 16.414062 3.007812 L 16.414062 3.5 L 14.351562 3.5 L 14.335938 3.507812 L 14.335938 5.136719 C 14.523438 5.007812 14.792969 4.839844 15.046875 4.832031 C 15.945312 4.738281 16.636719 5.621094 16.675781 6.4375 C 16.800781 7.476562 15.828125 8.507812 14.777344 8.351562 C 14.253906 8.332031 13.746094 8.023438 13.445312 7.59375 C 13.53125 7.476562 13.605469 7.269531 13.707031 7.199219 C 14.082031 7.929688 15.285156 8.222656 15.769531 7.453125 C 16.082031 6.875 16.074219 6.136719 15.714844 5.578125 C 15.300781 5.046875 14.484375 5.375 14.292969 5.9375 L 13.777344 5.9375 L 13.777344 3.007812 Z M 16.414062 3.007812 Z M 16.414062 3.007812 "/>
<path style="fill:none;stroke-width:0.02;stroke-linecap:butt;stroke-linejoin:miter;stroke:rgb(0%,0%,0%);stroke-opacity:1;stroke-miterlimit:10;" d="M 9.860001 1.16934 L 9.754995 1.16934 " transform="matrix(28.346457,0,0,-28.346457,1,227.771654)"/>
<path style="fill:none;stroke-width:0.02;stroke-linecap:butt;stroke-linejoin:miter;stroke:rgb(0%,0%,0%);stroke-opacity:1;stroke-miterlimit:10;" d="M 9.860001 1.910311 L 9.754995 1.910311 " transform="matrix(28.346457,0,0,-28.346457,1,227.771654)"/>
<path style="fill:none;stroke-width:0.02;stroke-linecap:butt;stroke-linejoin:miter;stroke:rgb(0%,0%,0%);stroke-opacity:1;stroke-miterlimit:10;" d="M 9.860001 2.65142 L 9.754995 2.65142 " transform="matrix(28.346457,0,0,-28.346457,1,227.771654)"/>
<path style="fill:none;stroke-width:0.02;stroke-linecap:butt;stroke-linejoin:miter;stroke:rgb(0%,0%,0%);stroke-opacity:1;stroke-miterlimit:10;" d="M 9.860001 3.392391 L 9.754995 3.392391 " transform="matrix(28.346457,0,0,-28.346457,1,227.771654)"/>
<path style="fill:none;stroke-width:0.02;stroke-linecap:butt;stroke-linejoin:miter;stroke:rgb(0%,0%,0%);stroke-opacity:1;stroke-miterlimit:10;" d="M 9.860001 4.133363 L 9.754995 4.133363 " transform="matrix(28.346457,0,0,-28.346457,1,227.771654)"/>
<path style="fill:none;stroke-width:0.02;stroke-linecap:butt;stroke-linejoin:miter;stroke:rgb(0%,0%,0%);stroke-opacity:1;stroke-miterlimit:10;" d="M 9.860001 4.874334 L 9.754995 4.874334 " transform="matrix(28.346457,0,0,-28.346457,1,227.771654)"/>
<path style="fill:none;stroke-width:0.02;stroke-linecap:butt;stroke-linejoin:miter;stroke:rgb(0%,0%,0%);stroke-opacity:1;stroke-miterlimit:10;" d="M 9.860001 5.615305 L 9.754995 5.615305 " transform="matrix(28.346457,0,0,-28.346457,1,227.771654)"/>
<path style="fill:none;stroke-width:0.02;stroke-linecap:butt;stroke-linejoin:miter;stroke:rgb(0%,0%,0%);stroke-opacity:1;stroke-miterlimit:10;" d="M 9.860001 6.356276 L 9.754995 6.356276 " transform="matrix(28.346457,0,0,-28.346457,1,227.771654)"/>
<path style="fill:none;stroke-width:0.02;stroke-linecap:butt;stroke-linejoin:miter;stroke:rgb(0%,0%,0%);stroke-opacity:1;stroke-miterlimit:10;" d="M 9.860001 7.097247 L 9.754995 7.097247 " transform="matrix(28.346457,0,0,-28.346457,1,227.771654)"/>
<path style="fill:none;stroke-width:0.02;stroke-linecap:round;stroke-linejoin:miter;stroke:rgb(0%,0%,0%);stroke-opacity:1;stroke-miterlimit:10;" d="M 9.860001 0.428369 L 9.860001 7.838356 " transform="matrix(28.346457,0,0,-28.346457,1,227.771654)"/>
<path style="fill:none;stroke-width:0.02;stroke-linecap:butt;stroke-linejoin:miter;stroke:rgb(0%,0%,0%);stroke-opacity:1;stroke-miterlimit:10;" d="M 2.045009 0.428369 L 2.045009 0.533376 " transform="matrix(28.346457,0,0,-28.346457,1,227.771654)"/>
<path style="fill:none;stroke-width:0.02;stroke-linecap:butt;stroke-linejoin:miter;stroke:rgb(0%,0%,0%);stroke-opacity:1;stroke-miterlimit:10;" d="M 3.34753 0.428369 L 3.34753 0.533376 " transform="matrix(28.346457,0,0,-28.346457,1,227.771654)"/>
<path style="fill:none;stroke-width:0.02;stroke-linecap:butt;stroke-linejoin:miter;stroke:rgb(0%,0%,0%);stroke-opacity:1;stroke-miterlimit:10;" d="M 4.650052 0.428369 L 4.650052 0.533376 " transform="matrix(28.346457,0,0,-28.346457,1,227.771654)"/>
<path style="fill:none;stroke-width:0.02;stroke-linecap:butt;stroke-linejoin:miter;stroke:rgb(0%,0%,0%);stroke-opacity:1;stroke-miterlimit:10;" d="M 5.952574 0.428369 L 5.952574 0.533376 " transform="matrix(28.346457,0,0,-28.346457,1,227.771654)"/>
<path style="fill:none;stroke-width:0.02;stroke-linecap:butt;stroke-linejoin:miter;stroke:rgb(0%,0%,0%);stroke-opacity:1;stroke-miterlimit:10;" d="M 7.254958 0.428369 L 7.254958 0.533376 " transform="matrix(28.346457,0,0,-28.346457,1,227.771654)"/>
<path style="fill:none;stroke-width:0.02;stroke-linecap:butt;stroke-linejoin:miter;stroke:rgb(0%,0%,0%);stroke-opacity:1;stroke-miterlimit:10;" d="M 8.557479 0.428369 L 8.557479 0.533376 " transform="matrix(28.346457,0,0,-28.346457,1,227.771654)"/>
<path style="fill:none;stroke-width:0.02;stroke-linecap:round;stroke-linejoin:miter;stroke:rgb(0%,0%,0%);stroke-opacity:1;stroke-miterlimit:10;" d="M 0.742625 0.428369 L 9.860001 0.428369 " transform="matrix(28.346457,0,0,-28.346457,1,227.771654)"/>
<path style=" stroke:none;fill-rule:nonzero;fill:rgb(0%,0%,0%);fill-opacity:1;" d="M 20.917969 223.828125 L 20.917969 224.269531 L 18.839844 224.269531 L 18.839844 223.828125 Z M 20.917969 223.828125 Z M 20.917969 223.828125 "/>
<path style=" stroke:none;fill-rule:nonzero;fill:rgb(0%,0%,0%);fill-opacity:1;" d="M 23.519531 220.445312 C 24.21875 220.476562 24.949219 221.121094 24.785156 221.859375 C 24.703125 222.359375 24.355469 222.769531 23.917969 222.992188 C 24.625 223.214844 25.171875 223.960938 24.980469 224.699219 C 24.792969 225.660156 23.6875 226.191406 22.800781 225.898438 C 22.371094 225.773438 21.933594 225.5 21.726562 225.105469 C 21.773438 224.984375 21.757812 224.78125 21.816406 224.699219 C 22.234375 225.320312 23.125 225.738281 23.824219 225.390625 C 24.585938 224.90625 24.464844 223.492188 23.546875 223.253906 L 23.472656 223.253906 L 23.457031 223.238281 L 22.71875 223.238281 L 22.71875 222.761719 C 23.171875 222.753906 23.734375 222.699219 23.988281 222.230469 C 24.257812 221.828125 24.234375 221.160156 23.71875 220.960938 C 23.109375 220.722656 22.355469 221.113281 22.125 221.730469 C 22.027344 221.597656 21.933594 221.460938 21.839844 221.320312 C 22.164062 220.730469 22.855469 220.382812 23.519531 220.445312 Z M 23.519531 220.445312 Z M 23.519531 220.445312 "/>
<path style=" stroke:none;fill-rule:nonzero;fill:rgb(0%,0%,0%);fill-opacity:1;" d="M 57.839844 223.828125 L 57.839844 224.269531 L 55.757812 224.269531 L 55.757812 223.828125 Z M 57.839844 223.828125 Z M 57.839844 223.828125 "/>
<path style=" stroke:none;fill-rule:nonzero;fill:rgb(0%,0%,0%);fill-opacity:1;" d="M 60.339844 220.445312 C 61.261719 220.46875 61.988281 221.414062 61.847656 222.304688 C 61.75 223.191406 60.917969 223.699219 60.324219 224.253906 L 60.070312 224.515625 L 60.039062 224.535156 L 59.71875 224.84375 L 59.695312 224.859375 L 59.378906 225.175781 L 59.347656 225.191406 L 59.277344 225.261719 L 59.292969 225.273438 L 61.863281 225.273438 L 61.863281 225.796875 L 58.71875 225.796875 L 58.71875 225.320312 L 59.996094 224.042969 C 60.609375 223.507812 61.324219 222.820312 61.210938 221.945312 C 61.148438 221.4375 60.71875 220.96875 60.195312 220.929688 C 59.664062 220.851562 59.195312 221.269531 59.078125 221.777344 L 59.0625 221.804688 L 59.046875 221.859375 L 59.023438 221.945312 L 58.972656 222.121094 L 58.964844 222.160156 C 58.855469 222.023438 58.734375 221.882812 58.648438 221.730469 C 58.808594 221.082031 59.332031 220.46875 60.023438 220.445312 Z M 60.339844 220.445312 Z M 60.339844 220.445312 "/>
<path style=" stroke:none;fill-rule:nonzero;fill:rgb(0%,0%,0%);fill-opacity:1;" d="M 94.761719 223.828125 L 94.761719 224.269531 L 92.679688 224.269531 L 92.679688 223.828125 Z M 94.761719 223.828125 Z M 94.761719 223.828125 "/>
<path style=" stroke:none;fill-rule:nonzero;fill:rgb(0%,0%,0%);fill-opacity:1;" d="M 97.59375 220.445312 L 97.59375 225.34375 L 97.601562 225.359375 L 98.578125 225.359375 L 98.578125 225.796875 L 96 225.796875 L 96 225.359375 L 96.972656 225.359375 L 96.992188 225.34375 L 96.992188 221.230469 C 96.65625 221.34375 96.308594 221.414062 95.957031 221.40625 L 95.957031 220.960938 C 96.480469 220.96875 97.054688 220.828125 97.449219 220.445312 Z M 97.59375 220.445312 Z M 97.59375 220.445312 "/>
<path style=" stroke:none;fill-rule:nonzero;fill:rgb(0%,0%,0%);fill-opacity:1;" d="M 132.945312 220.445312 C 133.699219 220.5 134.199219 221.191406 134.335938 221.890625 C 134.40625 222.207031 134.421875 222.507812 134.453125 222.828125 L 134.453125 223.636719 C 134.414062 224.460938 134.21875 225.550781 133.320312 225.882812 C 132.542969 226.191406 131.628906 225.707031 131.398438 224.914062 C 131.222656 224.492188 131.207031 224.066406 131.167969 223.636719 L 131.167969 222.828125 C 131.207031 222 131.382812 220.90625 132.273438 220.542969 L 132.3125 220.523438 L 132.34375 220.515625 L 132.382812 220.5 L 132.503906 220.46875 L 132.574219 220.453125 L 132.660156 220.453125 L 132.675781 220.445312 Z M 132.945312 220.445312 Z M 132.699219 220.929688 C 132.035156 221.007812 131.835938 221.8125 131.789062 222.351562 L 131.789062 222.566406 L 131.773438 222.582031 L 131.773438 223.683594 C 131.820312 224.253906 131.859375 224.992188 132.382812 225.375 C 132.867188 225.707031 133.511719 225.335938 133.644531 224.820312 C 133.789062 224.4375 133.820312 224.066406 133.851562 223.683594 L 133.851562 222.582031 C 133.804688 222 133.726562 221.191406 133.058594 220.960938 L 133.003906 220.945312 L 132.988281 220.929688 L 132.914062 220.929688 L 132.898438 220.914062 L 132.714844 220.914062 Z M 132.699219 220.929688 Z M 132.699219 220.929688 "/>
<path style=" stroke:none;fill-rule:nonzero;fill:rgb(0%,0%,0%);fill-opacity:1;" d="M 170.113281 220.445312 L 170.113281 225.34375 L 170.121094 225.359375 L 171.097656 225.359375 L 171.097656 225.796875 L 168.519531 225.796875 L 168.519531 225.359375 L 169.496094 225.359375 L 169.511719 225.34375 L 169.511719 221.230469 C 169.175781 221.34375 168.828125 221.414062 168.480469 221.40625 L 168.480469 220.960938 C 169.003906 220.96875 169.574219 220.828125 169.972656 220.445312 Z M 170.113281 220.445312 Z M 170.113281 220.445312 "/>
<path style=" stroke:none;fill-rule:nonzero;fill:rgb(0%,0%,0%);fill-opacity:1;" d="M 206.703125 220.445312 C 207.621094 220.46875 208.351562 221.414062 208.210938 222.304688 C 208.113281 223.191406 207.28125 223.699219 206.6875 224.253906 L 206.433594 224.515625 L 206.398438 224.535156 L 206.082031 224.84375 L 206.058594 224.859375 L 205.742188 225.175781 L 205.710938 225.191406 L 205.636719 225.261719 L 205.652344 225.273438 L 208.226562 225.273438 L 208.226562 225.796875 L 205.082031 225.796875 L 205.082031 225.320312 L 206.359375 224.042969 C 206.972656 223.507812 207.6875 222.820312 207.574219 221.945312 C 207.511719 221.4375 207.082031 220.96875 206.558594 220.929688 C 206.027344 220.851562 205.558594 221.269531 205.441406 221.777344 L 205.421875 221.804688 L 205.40625 221.859375 L 205.382812 221.945312 L 205.335938 222.121094 L 205.328125 222.160156 C 205.21875 222.023438 205.097656 221.882812 205.011719 221.730469 C 205.167969 221.082031 205.695312 220.46875 206.382812 220.445312 Z M 206.703125 220.445312 Z M 206.703125 220.445312 "/>
<path style=" stroke:none;fill-rule:nonzero;fill:rgb(0%,0%,0%);fill-opacity:1;" d="M 243.726562 220.445312 C 244.425781 220.476562 245.15625 221.121094 244.988281 221.859375 C 244.910156 222.359375 244.558594 222.769531 244.121094 222.992188 C 244.828125 223.214844 245.375 223.960938 245.1875 224.699219 C 244.996094 225.660156 243.890625 226.191406 243.003906 225.898438 C 242.574219 225.773438 242.136719 225.5 241.933594 225.105469 C 241.980469 224.984375 241.964844 224.78125 242.019531 224.699219 C 242.441406 225.320312 243.328125 225.738281 244.027344 225.390625 C 244.789062 224.90625 244.671875 223.492188 243.75 223.253906 L 243.679688 223.253906 L 243.664062 223.238281 L 242.925781 223.238281 L 242.925781 222.761719 C 243.375 222.753906 243.941406 222.699219 244.195312 222.230469 C 244.464844 221.828125 244.441406 221.160156 243.925781 220.960938 C 243.3125 220.722656 242.558594 221.113281 242.328125 221.730469 C 242.234375 221.597656 242.136719 221.460938 242.042969 221.320312 C 242.367188 220.730469 243.058594 220.382812 243.726562 220.445312 Z M 243.726562 220.445312 Z M 243.726562 220.445312 "/>
<path style=" stroke:none;fill-rule:nonzero;fill:rgb(0%,0%,0%);fill-opacity:1;" d="M 281.449219 220.613281 L 281.449219 223.953125 L 281.464844 223.96875 L 282.25 223.96875 L 282.25 224.445312 L 281.464844 224.445312 L 281.449219 224.453125 L 281.449219 225.796875 L 280.84375 225.796875 L 280.84375 224.453125 L 280.828125 224.445312 L 278.734375 224.445312 L 278.734375 223.953125 C 279.402344 222.84375 280.066406 221.722656 280.734375 220.613281 Z M 281.449219 220.613281 Z M 280.859375 220.914062 C 280.703125 221.738281 280.195312 222.445312 279.8125 223.167969 C 279.664062 223.429688 279.464844 223.714844 279.351562 223.96875 L 280.878906 223.96875 L 280.886719 223.953125 L 280.886719 220.914062 L 280.878906 220.898438 Z M 280.859375 220.914062 Z M 280.859375 220.914062 "/>
<path style="fill:none;stroke-width:0.02;stroke-linecap:butt;stroke-linejoin:miter;stroke:rgb(0%,0%,0%);stroke-opacity:1;stroke-miterlimit:10;" d="M 2.045009 7.838356 L 2.045009 7.73335 " transform="matrix(28.346457,0,0,-28.346457,1,227.771654)"/>
<path style="fill:none;stroke-width:0.02;stroke-linecap:butt;stroke-linejoin:miter;stroke:rgb(0%,0%,0%);stroke-opacity:1;stroke-miterlimit:10;" d="M 3.34753 7.838356 L 3.34753 7.73335 " transform="matrix(28.346457,0,0,-28.346457,1,227.771654)"/>
<path style="fill:none;stroke-width:0.02;stroke-linecap:butt;stroke-linejoin:miter;stroke:rgb(0%,0%,0%);stroke-opacity:1;stroke-miterlimit:10;" d="M 4.650052 7.838356 L 4.650052 7.73335 " transform="matrix(28.346457,0,0,-28.346457,1,227.771654)"/>
<path style="fill:none;stroke-width:0.02;stroke-linecap:butt;stroke-linejoin:miter;stroke:rgb(0%,0%,0%);stroke-opacity:1;stroke-miterlimit:10;" d="M 5.952574 7.838356 L 5.952574 7.73335 " transform="matrix(28.346457,0,0,-28.346457,1,227.771654)"/>
<path style="fill:none;stroke-width:0.02;stroke-linecap:butt;stroke-linejoin:miter;stroke:rgb(0%,0%,0%);stroke-opacity:1;stroke-miterlimit:10;" d="M 7.254958 7.838356 L 7.254958 7.73335 " transform="matrix(28.346457,0,0,-28.346457,1,227.771654)"/>
<path style="fill:none;stroke-width:0.02;stroke-linecap:butt;stroke-linejoin:miter;stroke:rgb(0%,0%,0%);stroke-opacity:1;stroke-miterlimit:10;" d="M 8.557479 7.838356 L 8.557479 7.73335 " transform="matrix(28.346457,0,0,-28.346457,1,227.771654)"/>
<path style="fill:none;stroke-width:0.02;stroke-linecap:round;stroke-linejoin:miter;stroke:rgb(0%,0%,0%);stroke-opacity:1;stroke-miterlimit:10;" d="M 0.742625 7.838356 L 9.860001 7.838356 " transform="matrix(28.346457,0,0,-28.346457,1,227.771654)"/>
<path style="fill:none;stroke-width:0.02;stroke-linecap:butt;stroke-linejoin:miter;stroke:rgb(81.960784%,36.862745%,36.078431%);stroke-opacity:1;stroke-miterlimit:10;" d="M 0.742625 0.494102 L 0.821449 0.507055 L 0.90041 0.522214 L 0.979372 0.539852 L 1.058333 0.560385 L 1.137295 0.584087 L 1.216257 0.611373 L 1.29508 0.642792 L 1.374042 0.678483 L 1.453003 0.719135 L 1.531965 0.765162 L 1.610927 0.816976 L 1.689888 0.875267 L 1.768712 0.94031 L 1.847674 1.012657 L 1.926635 1.092721 L 2.005597 1.181191 L 2.084558 1.278205 L 2.16352 1.384176 L 2.242344 1.49938 L 2.321305 1.624093 L 2.400267 1.758589 L 2.479229 1.902594 L 2.55819 2.056383 L 2.637152 2.219405 L 2.715975 2.39166 L 2.794937 2.572597 L 2.873899 2.761663 L 2.95286 2.958034 L 3.031822 3.160881 L 3.110783 3.36924 L 3.189607 3.581734 L 3.268569 3.797259 L 3.34753 4.0143 L 3.426492 4.231479 L 3.505454 4.446866 L 3.584415 4.658809 L 3.663239 4.86579 L 3.742201 5.065743 L 3.821162 5.257015 L 3.900124 5.437538 L 3.979085 5.605934 L 4.058047 5.760412 L 4.136871 5.899181 L 4.215832 6.021137 L 4.294794 6.124766 L 4.373755 6.209102 L 4.452717 6.27318 L 4.531679 6.316313 L 4.610502 6.337948 L 4.689464 6.337948 L 4.768426 6.316313 L 4.847387 6.27318 L 4.926349 6.209102 L 5.00531 6.124766 L 5.084134 6.021137 L 5.163096 5.899181 L 5.242057 5.760412 L 5.321019 5.605934 L 5.39998 5.437538 L 5.478942 5.257015 L 5.557766 5.065743 L 5.636727 4.86579 L 5.715689 4.658809 L 5.794651 4.446866 L 5.873612 4.231479 L 5.952574 4.0143 L 6.031398 3.797259 L 6.110359 3.581734 L 6.189321 3.36924 L 6.268282 3.160881 L 6.347244 2.958034 L 6.426206 2.761663 L 6.505029 2.572597 L 6.583991 2.39166 L 6.662952 2.219405 L 6.741914 2.056383 L 6.820876 1.902594 L 6.899837 1.758589 L 6.978799 1.624093 L 7.057623 1.49938 L 7.136584 1.384176 L 7.215546 1.278205 L 7.294507 1.181191 L 7.373469 1.092721 L 7.452431 1.012657 L 7.531254 0.94031 L 7.610216 0.875267 L 7.689178 0.816976 L 7.768139 0.765162 L 7.847101 0.719135 L 7.926062 0.678483 L 8.004886 0.642792 L 8.083848 0.611373 L 8.162809 0.584087 L 8.241771 0.560385 L 8.320732 0.539852 L 8.399694 0.522214 L 8.478518 0.507055 L 8.557479 0.494102 " transform="matrix(28.346457,0,0,-28.346457,1,227.771654)"/>
</g>
</svg>
