<?xml version="1.0" encoding="UTF-8"?>
<svg xmlns="http://www.w3.org/2000/svg" xmlns:xlink="http://www.w3.org/1999/xlink" width="285.464567pt" height="228.771654pt" viewBox="0 0 285.464567 228.771654" version="1.1">
<g id="surface1">
<path style="fill-rule:nonzero;fill:rgb(100%,100%,100%);fill-opacity:1;stroke-width:0.02;stroke-linecap:butt;stroke-linejoin:miter;stroke:rgb(32.941176%,47.058824%,63.921569%);stroke-opacity:1;stroke-miterlimit:10;" d="M 0.695771 0.59332 L 2.374773 0.59332 L 2.374773 1.427585 L 0.695771 1.427585 Z M 0.695771 0.59332 " transform="matrix(28.346457,0,0,-28.346457,1,227.771654)"/>
<path style="fill-rule:nonzero;fill:rgb(100%,100%,100%);fill-opacity:1;stroke-width:0.02;stroke-linecap:butt;stroke-linejoin:miter;stroke:rgb(32.941176%,47.058824%,63.921569%);stroke-opacity:1;stroke-miterlimit:10;" d="M 0.695771 1.427585 L 1.115522 1.427585 L 1.115522 2.261987 L 0.695771 2.261987 Z M 0.695771 1.427585 " transform="matrix(28.346457,0,0,-28.346457,1,227.771654)"/>
<path style="fill-rule:nonzero;fill:rgb(100%,100%,100%);fill-opacity:1;stroke-width:0.02;stroke-linecap:butt;stroke-linejoin:miter;stroke:rgb(32.941176%,47.058824%,63.921569%);stroke-opacity:1;stroke-miterlimit:10;" d="M 0.695771 2.261987 L 5.732639 2.261987 L 5.732639 3.096251 L 0.695771 3.096251 Z M 0.695771 2.261987 " transform="matrix(28.346457,0,0,-28.346457,1,227.771654)"/>
<path style="fill-rule:nonzero;fill:rgb(100%,100%,100%);fill-opacity:1;stroke-width:0.02;stroke-linecap:butt;stroke-linejoin:miter;stroke:rgb(32.941176%,47.058824%,63.921569%);stroke-opacity:1;stroke-miterlimit:10;" d="M 0.695771 3.096251 L 9.510255 3.096251 L 9.510255 3.930653 L 0.695771 3.930653 Z M 0.695771 3.096251 " transform="matrix(28.346457,0,0,-28.346457,1,227.771654)"/>
<path style="fill-rule:nonzero;fill:rgb(100%,100%,100%);fill-opacity:1;stroke-width:0.02;stroke-linecap:butt;stroke-linejoin:miter;stroke:rgb(32.941176%,47.058824%,63.921569%);stroke-opacity:1;stroke-miterlimit:10;" d="M 0.695771 3.930653 L 8.670754 3.930653 L 8.670754 4.764918 L 0.695771 4.764918 Z M 0.695771 3.930653 " transform="matrix(28.346457,0,0,-28.346457,1,227.771654)"/>
<path style="fill-rule:nonzero;fill:rgb(100%,100%,100%);fill-opacity:1;stroke-width:0.02;stroke-linecap:butt;stroke-linejoin:miter;stroke:rgb(32.941176%,47.058824%,63.921569%);stroke-opacity:1;stroke-miterlimit:10;" d="M 0.695771 4.764918 L 7.831253 4.764918 L 7.831253 5.599182 L 0.695771 5.599182 Z M 0.695771 4.764918 " transform="matrix(28.346457,0,0,-28.346457,1,227.771654)"/>
<path style="fill-rule:nonzero;fill:rgb(100%,100%,100%);fill-opacity:1;stroke-width:0.02;stroke-linecap:butt;stroke-linejoin:miter;stroke:rgb(32.941176%,47.058824%,63.921569%);stroke-opacity:1;stroke-miterlimit:10;" d="M 0.695771 5.599182 L 3.633887 5.599182 L 3.633887 6.433584 L 0.695771 6.433584 Z M 0.695771 5.599182 " transform="matrix(28.346457,0,0,-28.346457,1,227.771654)"/>
<path style="fill-rule:nonzero;fill:rgb(100%,100%,100%);fill-opacity:1;stroke-width:0.02;stroke-linecap:butt;stroke-linejoin:miter;stroke:rgb(32.941176%,47.058824%,63.921569%);stroke-opacity:1;stroke-miterlimit:10;" d="M 0.695771 6.433584 L 1.955023 6.433584 L 1.955023 7.267848 L 0.695771 7.267848 Z M 0.695771 6.433584 " transform="matrix(28.346457,0,0,-28.346457,1,227.771654)"/>
<path style="fill:none;stroke-width:0.02;stroke-linecap:butt;stroke-linejoin:miter;stroke:rgb(0%,0%,0%);stroke-opacity:1;stroke-miterlimit:10;" d="M 0.695771 1.16934 L 0.800778 1.16934 " transform="matrix(28.346457,0,0,-28.346457,1,227.771654)"/>
<path style="fill:none;stroke-width:0.02;stroke-linecap:butt;stroke-linejoin:miter;stroke:rgb(0%,0%,0%);stroke-opacity:1;stroke-miterlimit:10;" d="M 0.695771 1.910311 L 0.800778 1.910311 " transform="matrix(28.346457,0,0,-28.346457,1,227.771654)"/>
<path style="fill:none;stroke-width:0.02;stroke-linecap:butt;stroke-linejoin:miter;stroke:rgb(0%,0%,0%);stroke-opacity:1;stroke-miterlimit:10;" d="M 0.695771 2.65142 L 0.800778 2.65142 " transform="matrix(28.346457,0,0,-28.346457,1,227.771654)"/>
<path style="fill:none;stroke-width:0.02;stroke-linecap:butt;stroke-linejoin:miter;stroke:rgb(0%,0%,0%);stroke-opacity:1;stroke-miterlimit:10;" d="M 0.695771 3.392391 L 0.800778 3.392391 " transform="matrix(28.346457,0,0,-28.346457,1,227.771654)"/>
<path style="fill:none;stroke-width:0.02;stroke-linecap:butt;stroke-linejoin:miter;stroke:rgb(0%,0%,0%);stroke-opacity:1;stroke-miterlimit:10;" d="M 0.695771 4.133363 L 0.800778 4.133363 " transform="matrix(28.346457,0,0,-28.346457,1,227.771654)"/>
<path style="fill:none;stroke-width:0.02;stroke-linecap:butt;stroke-linejoin:miter;stroke:rgb(0%,0%,0%);stroke-opacity:1;stroke-miterlimit:10;" d="M 0.695771 4.874334 L 0.800778 4.874334 " transform="matrix(28.346457,0,0,-28.346457,1,227.771654)"/>
<path style="fill:none;stroke-width:0.02;stroke-linecap:butt;stroke-linejoin:miter;stroke:rgb(0%,0%,0%);stroke-opacity:1;stroke-miterlimit:10;" d="M 0.695771 5.615305 L 0.800778 5.615305 " transform="matrix(28.346457,0,0,-28.346457,1,227.771654)"/>
<path style="fill:none;stroke-width:0.02;stroke-linecap:butt;stroke-linejoin:miter;stroke:rgb(0%,0%,0%);stroke-opacity:1;stroke-miterlimit:10;" d="M 0.695771 6.356276 L 0.800778 6.356276 " transform="matrix(28.346457,0,0,-28.346457,1,227.771654)"/>
<path style="fill:none;stroke-width:0.02;stroke-linecap:butt;stroke-linejoin:miter;stroke:rgb(0%,0%,0%);stroke-opacity:1;stroke-miterlimit:10;" d="M 0.695771 7.097247 L 0.800778 7.097247 " transform="matrix(28.346457,0,0,-28.346457,1,227.771654)"/>
<path style="fill:none;stroke-width:0.02;stroke-linecap:round;stroke-linejoin:miter;stroke:rgb(0%,0%,0%);stroke-opacity:1;stroke-miterlimit:10;" d="M 0.695771 0.428369 L 0.695771 7.838356 " transform="matrix(28.346457,0,0,-28.346457,1,227.771654)"/>
<path style=" stroke:none;fill-rule:nonzero;fill:rgb(0%,0%,0%);fill-opacity:1;" d="M 5.160156 216.265625 L 5.160156 216.710938 L 3.078125 216.710938 L 3.078125 216.265625 Z M 5.160156 216.265625 Z M 5.160156 216.265625 "/>
<path style=" stroke:none;fill-rule:nonzero;fill:rgb(0%,0%,0%);fill-opacity:1;" d="M 7.660156 212.886719 C 8.578125 212.910156 9.308594 213.855469 9.167969 214.742188 C 9.070312 215.632812 8.238281 216.140625 7.644531 216.695312 L 7.390625 216.957031 L 7.359375 216.972656 L 7.039062 217.28125 L 7.015625 217.296875 L 6.699219 217.617188 L 6.667969 217.632812 L 6.59375 217.703125 L 6.613281 217.710938 L 9.183594 217.710938 L 9.183594 218.234375 L 6.039062 218.234375 L 6.039062 217.757812 L 7.316406 216.480469 C 7.929688 215.949219 8.644531 215.257812 8.53125 214.386719 C 8.46875 213.878906 8.039062 213.410156 7.515625 213.371094 C 6.984375 213.289062 6.515625 213.710938 6.398438 214.21875 L 6.382812 214.242188 L 6.367188 214.296875 L 6.339844 214.386719 L 6.292969 214.558594 L 6.285156 214.601562 C 6.175781 214.464844 6.054688 214.324219 5.96875 214.171875 C 6.128906 213.519531 6.652344 212.910156 7.339844 212.886719 Z M 7.660156 212.886719 Z M 7.660156 212.886719 "/>
<path style=" stroke:none;fill-rule:nonzero;fill:rgb(0%,0%,0%);fill-opacity:1;" d="M 11.023438 217.601562 L 11.023438 218.234375 L 10.382812 218.234375 L 10.382812 217.601562 Z M 11.023438 217.601562 Z M 11.023438 217.601562 "/>
<path style=" stroke:none;fill-rule:nonzero;fill:rgb(0%,0%,0%);fill-opacity:1;" d="M 15.089844 213.050781 L 15.089844 213.542969 L 13.023438 213.542969 L 13.007812 213.550781 L 13.007812 215.179688 C 13.199219 215.050781 13.46875 214.886719 13.722656 214.878906 C 14.621094 214.78125 15.308594 215.664062 15.351562 216.480469 C 15.476562 217.519531 14.5 218.554688 13.453125 218.394531 C 12.929688 218.378906 12.421875 218.070312 12.121094 217.640625 C 12.207031 217.519531 12.277344 217.316406 12.382812 217.242188 C 12.753906 217.972656 13.960938 218.265625 14.445312 217.496094 C 14.753906 216.917969 14.746094 216.179688 14.390625 215.625 C 13.976562 215.09375 13.160156 215.417969 12.96875 215.980469 L 12.453125 215.980469 L 12.453125 213.050781 Z M 15.089844 213.050781 Z M 15.089844 213.050781 "/>
<path style=" stroke:none;fill-rule:nonzero;fill:rgb(0%,0%,0%);fill-opacity:1;" d="M 5.160156 195.261719 L 5.160156 195.707031 L 3.078125 195.707031 L 3.078125 195.261719 Z M 5.160156 195.261719 Z M 5.160156 195.261719 "/>
<path style=" stroke:none;fill-rule:nonzero;fill:rgb(0%,0%,0%);fill-opacity:1;" d="M 7.660156 191.882812 C 8.578125 191.90625 9.308594 192.851562 9.167969 193.738281 C 9.070312 194.628906 8.238281 195.136719 7.644531 195.691406 L 7.390625 195.953125 L 7.359375 195.96875 L 7.039062 196.277344 L 7.015625 196.292969 L 6.699219 196.613281 L 6.667969 196.628906 L 6.59375 196.699219 L 6.613281 196.707031 L 9.183594 196.707031 L 9.183594 197.230469 L 6.039062 197.230469 L 6.039062 196.753906 L 7.316406 195.476562 C 7.929688 194.945312 8.644531 194.253906 8.53125 193.382812 C 8.46875 192.875 8.039062 192.40625 7.515625 192.367188 C 6.984375 192.285156 6.515625 192.707031 6.398438 193.214844 L 6.382812 193.238281 L 6.367188 193.292969 L 6.339844 193.382812 L 6.292969 193.554688 L 6.285156 193.597656 C 6.175781 193.460938 6.054688 193.316406 5.96875 193.167969 C 6.128906 192.515625 6.652344 191.90625 7.339844 191.882812 Z M 7.660156 191.882812 Z M 7.660156 191.882812 "/>
<path style=" stroke:none;fill-rule:nonzero;fill:rgb(0%,0%,0%);fill-opacity:1;" d="M 11.023438 196.597656 L 11.023438 197.230469 L 10.382812 197.230469 L 10.382812 196.597656 Z M 11.023438 196.597656 Z M 11.023438 196.597656 "/>
<path style=" stroke:none;fill-rule:nonzero;fill:rgb(0%,0%,0%);fill-opacity:1;" d="M 13.914062 191.882812 C 14.667969 191.9375 15.167969 192.628906 15.300781 193.324219 C 15.375 193.644531 15.390625 193.945312 15.421875 194.261719 L 15.421875 195.070312 C 15.382812 195.898438 15.183594 196.984375 14.285156 197.316406 C 13.507812 197.628906 12.597656 197.144531 12.367188 196.351562 C 12.191406 195.929688 12.175781 195.5 12.136719 195.070312 L 12.136719 194.261719 C 12.175781 193.4375 12.351562 192.339844 13.238281 191.976562 L 13.277344 191.960938 L 13.308594 191.953125 L 13.351562 191.9375 L 13.46875 191.90625 L 13.539062 191.890625 L 13.628906 191.890625 L 13.644531 191.882812 Z M 13.914062 191.882812 Z M 13.667969 192.367188 C 13 192.445312 12.800781 193.246094 12.753906 193.785156 L 12.753906 194 L 12.738281 194.015625 L 12.738281 195.121094 C 12.785156 195.691406 12.824219 196.429688 13.351562 196.808594 C 13.835938 197.144531 14.476562 196.769531 14.613281 196.253906 C 14.753906 195.875 14.785156 195.5 14.816406 195.121094 L 14.816406 194.015625 C 14.769531 193.4375 14.691406 192.628906 14.023438 192.398438 L 13.96875 192.382812 L 13.953125 192.367188 L 13.882812 192.367188 L 13.867188 192.351562 L 13.683594 192.351562 Z M 13.667969 192.367188 Z M 13.667969 192.367188 "/>
<path style=" stroke:none;fill-rule:nonzero;fill:rgb(0%,0%,0%);fill-opacity:1;" d="M 5.160156 174.257812 L 5.160156 174.703125 L 3.078125 174.703125 L 3.078125 174.257812 Z M 5.160156 174.257812 Z M 5.160156 174.257812 "/>
<path style=" stroke:none;fill-rule:nonzero;fill:rgb(0%,0%,0%);fill-opacity:1;" d="M 7.992188 170.875 L 7.992188 175.773438 L 8 175.789062 L 8.976562 175.789062 L 8.976562 176.226562 L 6.398438 176.226562 L 6.398438 175.789062 L 7.375 175.789062 L 7.390625 175.773438 L 7.390625 171.664062 C 7.054688 171.773438 6.707031 171.84375 6.359375 171.835938 L 6.359375 171.394531 C 6.882812 171.402344 7.453125 171.257812 7.851562 170.875 Z M 7.992188 170.875 Z M 7.992188 170.875 "/>
<path style=" stroke:none;fill-rule:nonzero;fill:rgb(0%,0%,0%);fill-opacity:1;" d="M 11.023438 175.589844 L 11.023438 176.226562 L 10.382812 176.226562 L 10.382812 175.589844 Z M 11.023438 175.589844 Z M 11.023438 175.589844 "/>
<path style=" stroke:none;fill-rule:nonzero;fill:rgb(0%,0%,0%);fill-opacity:1;" d="M 15.089844 171.042969 L 15.089844 171.535156 L 13.023438 171.535156 L 13.007812 171.542969 L 13.007812 173.171875 C 13.199219 173.042969 13.46875 172.878906 13.722656 172.867188 C 14.621094 172.773438 15.308594 173.65625 15.351562 174.472656 C 15.476562 175.511719 14.5 176.542969 13.453125 176.386719 C 12.929688 176.371094 12.421875 176.058594 12.121094 175.632812 C 12.207031 175.511719 12.277344 175.304688 12.382812 175.234375 C 12.753906 175.964844 13.960938 176.257812 14.445312 175.488281 C 14.753906 174.910156 14.746094 174.171875 14.390625 173.613281 C 13.976562 173.082031 13.160156 173.410156 12.96875 173.972656 L 12.453125 173.972656 L 12.453125 171.042969 Z M 15.089844 171.042969 Z M 15.089844 171.042969 "/>
<path style=" stroke:none;fill-rule:nonzero;fill:rgb(0%,0%,0%);fill-opacity:1;" d="M 5.160156 153.253906 L 5.160156 153.699219 L 3.078125 153.699219 L 3.078125 153.253906 Z M 5.160156 153.253906 Z M 5.160156 153.253906 "/>
<path style=" stroke:none;fill-rule:nonzero;fill:rgb(0%,0%,0%);fill-opacity:1;" d="M 7.992188 149.871094 L 7.992188 154.769531 L 8 154.785156 L 8.976562 154.785156 L 8.976562 155.222656 L 6.398438 155.222656 L 6.398438 154.785156 L 7.375 154.785156 L 7.390625 154.769531 L 7.390625 150.660156 C 7.054688 150.769531 6.707031 150.839844 6.359375 150.832031 L 6.359375 150.386719 C 6.882812 150.394531 7.453125 150.253906 7.851562 149.871094 Z M 7.992188 149.871094 Z M 7.992188 149.871094 "/>
<path style=" stroke:none;fill-rule:nonzero;fill:rgb(0%,0%,0%);fill-opacity:1;" d="M 11.023438 154.585938 L 11.023438 155.222656 L 10.382812 155.222656 L 10.382812 154.585938 Z M 11.023438 154.585938 Z M 11.023438 154.585938 "/>
<path style=" stroke:none;fill-rule:nonzero;fill:rgb(0%,0%,0%);fill-opacity:1;" d="M 13.914062 149.871094 C 14.667969 149.929688 15.167969 150.617188 15.300781 151.316406 C 15.375 151.632812 15.390625 151.9375 15.421875 152.253906 L 15.421875 153.0625 C 15.382812 153.886719 15.183594 154.976562 14.285156 155.308594 C 13.507812 155.617188 12.597656 155.132812 12.367188 154.339844 C 12.191406 153.921875 12.175781 153.492188 12.136719 153.0625 L 12.136719 152.253906 C 12.175781 151.429688 12.351562 150.332031 13.238281 149.96875 L 13.277344 149.953125 L 13.308594 149.945312 L 13.351562 149.929688 L 13.46875 149.894531 L 13.539062 149.878906 L 13.628906 149.878906 L 13.644531 149.871094 Z M 13.914062 149.871094 Z M 13.667969 150.355469 C 13 150.4375 12.800781 151.238281 12.753906 151.777344 L 12.753906 151.992188 L 12.738281 152.007812 L 12.738281 153.109375 C 12.785156 153.683594 12.824219 154.421875 13.351562 154.800781 C 13.835938 155.132812 14.476562 154.761719 14.613281 154.246094 C 14.753906 153.863281 14.785156 153.492188 14.816406 153.109375 L 14.816406 152.007812 C 14.769531 151.429688 14.691406 150.617188 14.023438 150.386719 L 13.96875 150.371094 L 13.953125 150.355469 L 13.882812 150.355469 L 13.867188 150.339844 L 13.683594 150.339844 Z M 13.667969 150.355469 Z M 13.667969 150.355469 "/>
<path style=" stroke:none;fill-rule:nonzero;fill:rgb(0%,0%,0%);fill-opacity:1;" d="M 5.160156 132.25 L 5.160156 132.695312 L 3.078125 132.695312 L 3.078125 132.25 Z M 5.160156 132.25 Z M 5.160156 132.25 "/>
<path style=" stroke:none;fill-rule:nonzero;fill:rgb(0%,0%,0%);fill-opacity:1;" d="M 7.746094 128.867188 C 8.5 128.921875 9 129.613281 9.136719 130.3125 C 9.207031 130.628906 9.222656 130.933594 9.253906 131.25 L 9.253906 132.058594 C 9.214844 132.882812 9.015625 133.972656 8.121094 134.304688 C 7.339844 134.613281 6.429688 134.128906 6.199219 133.335938 C 6.023438 132.914062 6.007812 132.488281 5.96875 132.058594 L 5.96875 131.25 C 6.007812 130.421875 6.183594 129.328125 7.070312 128.964844 L 7.113281 128.949219 L 7.144531 128.941406 L 7.183594 128.921875 L 7.300781 128.890625 L 7.375 128.875 L 7.460938 128.875 L 7.476562 128.867188 Z M 7.746094 128.867188 Z M 7.5 129.351562 C 6.832031 129.429688 6.636719 130.234375 6.585938 130.773438 L 6.585938 130.988281 L 6.570312 131.003906 L 6.570312 132.105469 C 6.621094 132.679688 6.660156 133.414062 7.183594 133.796875 C 7.667969 134.128906 8.308594 133.757812 8.445312 133.242188 C 8.585938 132.859375 8.621094 132.488281 8.652344 132.105469 L 8.652344 131.003906 C 8.605469 130.421875 8.523438 129.613281 7.859375 129.382812 L 7.800781 129.367188 L 7.785156 129.351562 L 7.714844 129.351562 L 7.699219 129.335938 L 7.515625 129.335938 Z M 7.5 129.351562 Z M 7.5 129.351562 "/>
<path style=" stroke:none;fill-rule:nonzero;fill:rgb(0%,0%,0%);fill-opacity:1;" d="M 11.023438 133.582031 L 11.023438 134.21875 L 10.382812 134.21875 L 10.382812 133.582031 Z M 11.023438 133.582031 Z M 11.023438 133.582031 "/>
<path style=" stroke:none;fill-rule:nonzero;fill:rgb(0%,0%,0%);fill-opacity:1;" d="M 15.089844 129.035156 L 15.089844 129.527344 L 13.023438 129.527344 L 13.007812 129.535156 L 13.007812 131.160156 C 13.199219 131.035156 13.46875 130.867188 13.722656 130.859375 C 14.621094 130.765625 15.308594 131.644531 15.351562 132.464844 C 15.476562 133.503906 14.5 134.535156 13.453125 134.375 C 12.929688 134.359375 12.421875 134.050781 12.121094 133.621094 C 12.207031 133.503906 12.277344 133.296875 12.382812 133.226562 C 12.753906 133.957031 13.960938 134.25 14.445312 133.480469 C 14.753906 132.898438 14.746094 132.160156 14.390625 131.605469 C 13.976562 131.074219 13.160156 131.398438 12.96875 131.964844 L 12.453125 131.964844 L 12.453125 129.035156 Z M 15.089844 129.035156 Z M 15.089844 129.035156 "/>
<path style=" stroke:none;fill-rule:nonzero;fill:rgb(0%,0%,0%);fill-opacity:1;" d="M 7.746094 107.863281 C 8.5 107.917969 9 108.609375 9.136719 109.308594 C 9.207031 109.625 9.222656 109.925781 9.253906 110.246094 L 9.253906 111.054688 C 9.214844 111.878906 9.015625 112.96875 8.121094 113.300781 C 7.339844 113.609375 6.429688 113.125 6.199219 112.332031 C 6.023438 111.910156 6.007812 111.484375 5.96875 111.054688 L 5.96875 110.246094 C 6.007812 109.417969 6.183594 108.324219 7.070312 107.957031 L 7.113281 107.941406 L 7.144531 107.933594 L 7.183594 107.917969 L 7.300781 107.886719 L 7.375 107.871094 L 7.460938 107.871094 L 7.476562 107.863281 Z M 7.746094 107.863281 Z M 7.5 108.347656 C 6.832031 108.425781 6.636719 109.230469 6.585938 109.769531 L 6.585938 109.984375 L 6.570312 110 L 6.570312 111.101562 C 6.621094 111.671875 6.660156 112.410156 7.183594 112.792969 C 7.667969 113.125 8.308594 112.753906 8.445312 112.238281 C 8.585938 111.855469 8.621094 111.484375 8.652344 111.101562 L 8.652344 110 C 8.605469 109.417969 8.523438 108.609375 7.859375 108.378906 L 7.800781 108.363281 L 7.785156 108.347656 L 7.714844 108.347656 L 7.699219 108.332031 L 7.515625 108.332031 Z M 7.5 108.347656 Z M 7.5 108.347656 "/>
<path style=" stroke:none;fill-rule:nonzero;fill:rgb(0%,0%,0%);fill-opacity:1;" d="M 11.023438 112.578125 L 11.023438 113.214844 L 10.382812 113.214844 L 10.382812 112.578125 Z M 11.023438 112.578125 Z M 11.023438 112.578125 "/>
<path style=" stroke:none;fill-rule:nonzero;fill:rgb(0%,0%,0%);fill-opacity:1;" d="M 13.914062 107.863281 C 14.667969 107.917969 15.167969 108.609375 15.300781 109.308594 C 15.375 109.625 15.390625 109.925781 15.421875 110.246094 L 15.421875 111.054688 C 15.382812 111.878906 15.183594 112.96875 14.285156 113.300781 C 13.507812 113.609375 12.597656 113.125 12.367188 112.332031 C 12.191406 111.910156 12.175781 111.484375 12.136719 111.054688 L 12.136719 110.246094 C 12.175781 109.417969 12.351562 108.324219 13.238281 107.957031 L 13.277344 107.941406 L 13.308594 107.933594 L 13.351562 107.917969 L 13.46875 107.886719 L 13.539062 107.871094 L 13.628906 107.871094 L 13.644531 107.863281 Z M 13.914062 107.863281 Z M 13.667969 108.347656 C 13 108.425781 12.800781 109.230469 12.753906 109.769531 L 12.753906 109.984375 L 12.738281 110 L 12.738281 111.101562 C 12.785156 111.671875 12.824219 112.410156 13.351562 112.792969 C 13.835938 113.125 14.476562 112.753906 14.613281 112.238281 C 14.753906 111.855469 14.785156 111.484375 14.816406 111.101562 L 14.816406 110 C 14.769531 109.417969 14.691406 108.609375 14.023438 108.378906 L 13.96875 108.363281 L 13.953125 108.347656 L 13.882812 108.347656 L 13.867188 108.332031 L 13.683594 108.332031 Z M 13.667969 108.347656 Z M 13.667969 108.347656 "/>
<path style=" stroke:none;fill-rule:nonzero;fill:rgb(0%,0%,0%);fill-opacity:1;" d="M 7.746094 86.859375 C 8.5 86.914062 9 87.605469 9.136719 88.304688 C 9.207031 88.621094 9.222656 88.921875 9.253906 89.242188 L 9.253906 90.050781 C 9.214844 90.875 9.015625 91.960938 8.121094 92.296875 C 7.339844 92.605469 6.429688 92.121094 6.199219 91.328125 C 6.023438 90.90625 6.007812 90.476562 5.96875 90.050781 L 5.96875 89.242188 C 6.007812 88.414062 6.183594 87.320312 7.070312 86.953125 L 7.113281 86.9375 L 7.144531 86.929688 L 7.183594 86.914062 L 7.300781 86.882812 L 7.375 86.867188 L 7.460938 86.867188 L 7.476562 86.859375 Z M 7.746094 86.859375 Z M 7.5 87.34375 C 6.832031 87.421875 6.636719 88.222656 6.585938 88.765625 L 6.585938 88.976562 L 6.570312 88.996094 L 6.570312 90.097656 C 6.621094 90.667969 6.660156 91.40625 7.183594 91.789062 C 7.667969 92.121094 8.308594 91.75 8.445312 91.234375 C 8.585938 90.851562 8.621094 90.476562 8.652344 90.097656 L 8.652344 88.996094 C 8.605469 88.414062 8.523438 87.605469 7.859375 87.375 L 7.800781 87.359375 L 7.785156 87.34375 L 7.714844 87.34375 L 7.699219 87.328125 L 7.515625 87.328125 Z M 7.5 87.34375 Z M 7.5 87.34375 "/>
<path style=" stroke:none;fill-rule:nonzero;fill:rgb(0%,0%,0%);fill-opacity:1;" d="M 11.023438 91.574219 L 11.023438 92.207031 L 10.382812 92.207031 L 10.382812 91.574219 Z M 11.023438 91.574219 Z M 11.023438 91.574219 "/>
<path style=" stroke:none;fill-rule:nonzero;fill:rgb(0%,0%,0%);fill-opacity:1;" d="M 15.089844 87.027344 L 15.089844 87.519531 L 13.023438 87.519531 L 13.007812 87.527344 L 13.007812 89.152344 C 13.199219 89.027344 13.46875 88.859375 13.722656 88.851562 C 14.621094 88.757812 15.308594 89.636719 15.351562 90.453125 C 15.476562 91.496094 14.5 92.527344 13.453125 92.367188 C 12.929688 92.351562 12.421875 92.042969 12.121094 91.613281 C 12.207031 91.496094 12.277344 91.289062 12.382812 91.214844 C 12.753906 91.945312 13.960938 92.242188 14.445312 91.46875 C 14.753906 90.890625 14.746094 90.152344 14.390625 89.597656 C 13.976562 89.066406 13.160156 89.390625 12.96875 89.953125 L 12.453125 89.953125 L 12.453125 87.027344 Z M 15.089844 87.027344 Z M 15.089844 87.027344 "/>
<path style=" stroke:none;fill-rule:nonzero;fill:rgb(0%,0%,0%);fill-opacity:1;" d="M 7.992188 65.855469 L 7.992188 70.75 L 8 70.769531 L 8.976562 70.769531 L 8.976562 71.203125 L 6.398438 71.203125 L 6.398438 70.769531 L 7.375 70.769531 L 7.390625 70.75 L 7.390625 66.640625 C 7.054688 66.75 6.707031 66.824219 6.359375 66.816406 L 6.359375 66.371094 C 6.882812 66.378906 7.453125 66.234375 7.851562 65.855469 Z M 7.992188 65.855469 Z M 7.992188 65.855469 "/>
<path style=" stroke:none;fill-rule:nonzero;fill:rgb(0%,0%,0%);fill-opacity:1;" d="M 11.023438 70.570312 L 11.023438 71.203125 L 10.382812 71.203125 L 10.382812 70.570312 Z M 11.023438 70.570312 Z M 11.023438 70.570312 "/>
<path style=" stroke:none;fill-rule:nonzero;fill:rgb(0%,0%,0%);fill-opacity:1;" d="M 13.914062 65.855469 C 14.667969 65.910156 15.167969 66.601562 15.300781 67.300781 C 15.375 67.617188 15.390625 67.917969 15.421875 68.234375 L 15.421875 69.046875 C 15.382812 69.871094 15.183594 70.957031 14.285156 71.292969 C 13.507812 71.601562 12.597656 71.117188 12.367188 70.324219 C 12.191406 69.902344 12.175781 69.472656 12.136719 69.046875 L 12.136719 68.234375 C 12.175781 67.410156 12.351562 66.316406 13.238281 65.949219 L 13.277344 65.933594 L 13.308594 65.925781 L 13.351562 65.910156 L 13.46875 65.878906 L 13.539062 65.863281 L 13.628906 65.863281 L 13.644531 65.855469 Z M 13.914062 65.855469 Z M 13.667969 66.339844 C 13 66.417969 12.800781 67.21875 12.753906 67.757812 L 12.753906 67.972656 L 12.738281 67.988281 L 12.738281 69.09375 C 12.785156 69.664062 12.824219 70.402344 13.351562 70.785156 C 13.835938 71.117188 14.476562 70.742188 14.613281 70.226562 C 14.753906 69.847656 14.785156 69.472656 14.816406 69.09375 L 14.816406 67.988281 C 14.769531 67.410156 14.691406 66.601562 14.023438 66.371094 L 13.96875 66.355469 L 13.953125 66.339844 L 13.882812 66.339844 L 13.867188 66.324219 L 13.683594 66.324219 Z M 13.667969 66.339844 Z M 13.667969 66.339844 "/>
<path style=" stroke:none;fill-rule:nonzero;fill:rgb(0%,0%,0%);fill-opacity:1;" d="M 7.992188 44.851562 L 7.992188 49.746094 L 8 49.761719 L 8.976562 49.761719 L 8.976562 50.199219 L 6.398438 50.199219 L 6.398438 49.761719 L 7.375 49.761719 L 7.390625 49.746094 L 7.390625 45.636719 C 7.054688 45.746094 6.707031 45.820312 6.359375 45.8125 L 6.359375 45.367188 C 6.882812 45.375 7.453125 45.230469 7.851562 44.851562 Z M 7.992188 44.851562 Z M 7.992188 44.851562 "/>
<path style=" stroke:none;fill-rule:nonzero;fill:rgb(0%,0%,0%);fill-opacity:1;" d="M 11.023438 49.566406 L 11.023438 50.199219 L 10.382812 50.199219 L 10.382812 49.566406 Z M 11.023438 49.566406 Z M 11.023438 49.566406 "/>
<path style=" stroke:none;fill-rule:nonzero;fill:rgb(0%,0%,0%);fill-opacity:1;" d="M 15.089844 45.015625 L 15.089844 45.507812 L 13.023438 45.507812 L 13.007812 45.515625 L 13.007812 47.144531 C 13.199219 47.015625 13.46875 46.851562 13.722656 46.84375 C 14.621094 46.746094 15.308594 47.628906 15.351562 48.445312 C 15.476562 49.484375 14.5 50.515625 13.453125 50.359375 C 12.929688 50.34375 12.421875 50.03125 12.121094 49.605469 C 12.207031 49.484375 12.277344 49.277344 12.382812 49.207031 C 12.753906 49.9375 13.960938 50.230469 14.445312 49.460938 C 14.753906 48.882812 14.746094 48.144531 14.390625 47.589844 C 13.976562 47.058594 13.160156 47.382812 12.96875 47.945312 L 12.453125 47.945312 L 12.453125 45.015625 Z M 15.089844 45.015625 Z M 15.089844 45.015625 "/>
<path style=" stroke:none;fill-rule:nonzero;fill:rgb(0%,0%,0%);fill-opacity:1;" d="M 7.660156 23.847656 C 8.578125 23.871094 9.308594 24.8125 9.167969 25.703125 C 9.070312 26.59375 8.238281 27.101562 7.644531 27.65625 L 7.390625 27.917969 L 7.359375 27.933594 L 7.039062 28.242188 L 7.015625 28.257812 L 6.699219 28.578125 L 6.667969 28.59375 L 6.59375 28.664062 L 6.613281 28.671875 L 9.183594 28.671875 L 9.183594 29.195312 L 6.039062 29.195312 L 6.039062 28.71875 L 7.316406 27.441406 C 7.929688 26.910156 8.644531 26.21875 8.53125 25.347656 C 8.46875 24.839844 8.039062 24.371094 7.515625 24.328125 C 6.984375 24.25 6.515625 24.671875 6.398438 25.179688 L 6.382812 25.203125 L 6.367188 25.257812 L 6.339844 25.347656 L 6.292969 25.519531 L 6.285156 25.558594 C 6.175781 25.425781 6.054688 25.28125 5.96875 25.132812 C 6.128906 24.480469 6.652344 23.871094 7.339844 23.847656 Z M 7.660156 23.847656 Z M 7.660156 23.847656 "/>
<path style=" stroke:none;fill-rule:nonzero;fill:rgb(0%,0%,0%);fill-opacity:1;" d="M 11.023438 28.558594 L 11.023438 29.195312 L 10.382812 29.195312 L 10.382812 28.558594 Z M 11.023438 28.558594 Z M 11.023438 28.558594 "/>
<path style=" stroke:none;fill-rule:nonzero;fill:rgb(0%,0%,0%);fill-opacity:1;" d="M 13.914062 23.847656 C 14.667969 23.902344 15.167969 24.59375 15.300781 25.289062 C 15.375 25.609375 15.390625 25.910156 15.421875 26.226562 L 15.421875 27.035156 C 15.382812 27.863281 15.183594 28.949219 14.285156 29.28125 C 13.507812 29.59375 12.597656 29.109375 12.367188 28.3125 C 12.191406 27.894531 12.175781 27.464844 12.136719 27.035156 L 12.136719 26.226562 C 12.175781 25.402344 12.351562 24.304688 13.238281 23.941406 L 13.277344 23.925781 L 13.308594 23.917969 L 13.351562 23.902344 L 13.46875 23.871094 L 13.539062 23.855469 L 13.628906 23.855469 L 13.644531 23.847656 Z M 13.914062 23.847656 Z M 13.667969 24.328125 C 13 24.410156 12.800781 25.210938 12.753906 25.75 L 12.753906 25.964844 L 12.738281 25.980469 L 12.738281 27.085938 C 12.785156 27.65625 12.824219 28.394531 13.351562 28.773438 C 13.835938 29.109375 14.476562 28.734375 14.613281 28.21875 C 14.753906 27.839844 14.785156 27.464844 14.816406 27.085938 L 14.816406 25.980469 C 14.769531 25.402344 14.691406 24.59375 14.023438 24.363281 L 13.96875 24.347656 L 13.953125 24.328125 L 13.882812 24.328125 L 13.867188 24.3125 L 13.683594 24.3125 Z M 13.667969 24.328125 Z M 13.667969 24.328125 "/>
<path style=" stroke:none;fill-rule:nonzero;fill:rgb(0%,0%,0%);fill-opacity:1;" d="M 7.660156 2.839844 C 8.578125 2.863281 9.308594 3.808594 9.167969 4.699219 C 9.070312 5.585938 8.238281 6.09375 7.644531 6.652344 L 7.390625 6.914062 L 7.359375 6.929688 L 7.039062 7.238281 L 7.015625 7.253906 L 6.699219 7.570312 L 6.667969 7.585938 L 6.59375 7.660156 L 6.613281 7.667969 L 9.183594 7.667969 L 9.183594 8.191406 L 6.039062 8.191406 L 6.039062 7.714844 L 7.316406 6.4375 C 7.929688 5.90625 8.644531 5.214844 8.53125 4.339844 C 8.46875 3.832031 8.039062 3.363281 7.515625 3.324219 C 6.984375 3.246094 6.515625 3.667969 6.398438 4.175781 L 6.382812 4.199219 L 6.367188 4.253906 L 6.339844 4.339844 L 6.292969 4.515625 L 6.285156 4.554688 C 6.175781 4.421875 6.054688 4.277344 5.96875 4.128906 C 6.128906 3.476562 6.652344 2.863281 7.339844 2.839844 Z M 7.660156 2.839844 Z M 7.660156 2.839844 "/>
<path style=" stroke:none;fill-rule:nonzero;fill:rgb(0%,0%,0%);fill-opacity:1;" d="M 11.023438 7.554688 L 11.023438 8.191406 L 10.382812 8.191406 L 10.382812 7.554688 Z M 11.023438 7.554688 Z M 11.023438 7.554688 "/>
<path style=" stroke:none;fill-rule:nonzero;fill:rgb(0%,0%,0%);fill-opacity:1;" d="M 15.089844 3.007812 L 15.089844 3.5 L 13.023438 3.5 L 13.007812 3.507812 L 13.007812 5.136719 C 13.199219 5.007812 13.46875 4.839844 13.722656 4.832031 C 14.621094 4.738281 15.308594 5.621094 15.351562 6.4375 C 15.476562 7.476562 14.5 8.507812 13.453125 8.351562 C 12.929688 8.332031 12.421875 8.023438 12.121094 7.59375 C 12.207031 7.476562 12.277344 7.269531 12.382812 7.199219 C 12.753906 7.929688 13.960938 8.222656 14.445312 7.453125 C 14.753906 6.875 14.746094 6.136719 14.390625 5.578125 C 13.976562 5.046875 13.160156 5.375 12.96875 5.9375 L 12.453125 5.9375 L 12.453125 3.007812 Z M 15.089844 3.007812 Z M 15.089844 3.007812 "/>
<path style="fill:none;stroke-width:0.02;stroke-linecap:butt;stroke-linejoin:miter;stroke:rgb(0%,0%,0%);stroke-opacity:1;stroke-miterlimit:10;" d="M 9.930005 1.16934 L 9.824999 1.16934 " transform="matrix(28.346457,0,0,-28.346457,1,227.771654)"/>
<path style="fill:none;stroke-width:0.02;stroke-linecap:butt;stroke-linejoin:miter;stroke:rgb(0%,0%,0%);stroke-opacity:1;stroke-miterlimit:10;" d="M 9.930005 1.910311 L 9.824999 1.910311 " transform="matrix(28.346457,0,0,-28.346457,1,227.771654)"/>
<path style="fill:none;stroke-width:0.02;stroke-linecap:butt;stroke-linejoin:miter;stroke:rgb(0%,0%,0%);stroke-opacity:1;stroke-miterlimit:10;" d="M 9.930005 2.65142 L 9.824999 2.65142 " transform="matrix(28.346457,0,0,-28.346457,1,227.771654)"/>
<path style="fill:none;stroke-width:0.02;stroke-linecap:butt;stroke-linejoin:miter;stroke:rgb(0%,0%,0%);stroke-opacity:1;stroke-miterlimit:10;" d="M 9.930005 3.392391 L 9.824999 3.392391 " transform="matrix(28.346457,0,0,-28.346457,1,227.771654)"/>
<path style="fill:none;stroke-width:0.02;stroke-linecap:butt;stroke-linejoin:miter;stroke:rgb(0%,0%,0%);stroke-opacity:1;stroke-miterlimit:10;" d="M 9.930005 4.133363 L 9.824999 4.133363 " transform="matrix(28.346457,0,0,-28.346457,1,227.771654)"/>
<path style="fill:none;stroke-width:0.02;stroke-linecap:butt;stroke-linejoin:miter;stroke:rgb(0%,0%,0%);stroke-opacity:1;stroke-miterlimit:10;" d="M 9.930005 4.874334 L 9.824999 4.874334 " transform="matrix(28.346457,0,0,-28.346457,1,227.771654)"/>
<path style="fill:none;stroke-width:0.02;stroke-linecap:butt;stroke-linejoin:miter;stroke:rgb(0%,0%,0%);stroke-opacity:1;stroke-miterlimit:10;" d="M 9.930005 5.615305 L 9.824999 5.615305 " transform="matrix(28.346457,0,0,-28.346457,1,227.771654)"/>
<path style="fill:none;stroke-width:0.02;stroke-linecap:butt;stroke-linejoin:miter;stroke:rgb(0%,0%,0%);stroke-opacity:1;stroke-miterlimit:10;" d="M 9.930005 6.356276 L 9.824999 6.356276 " transform="matrix(28.346457,0,0,-28.346457,1,227.771654)"/>
<path style="fill:none;stroke-width:0.02;stroke-linecap:butt;stroke-linejoin:miter;stroke:rgb(0%,0%,0%);stroke-opacity:1;stroke-miterlimit:10;" d="M 9.930005 7.097247 L 9.824999 7.097247 " transform="matrix(28.346457,0,0,-28.346457,1,227.771654)"/>
<path style="fill:none;stroke-width:0.02;stroke-linecap:round;stroke-linejoin:miter;stroke:rgb(0%,0%,0%);stroke-opacity:1;stroke-miterlimit:10;" d="M 9.930005 0.428369 L 9.930005 7.838356 " transform="matrix(28.346457,0,0,-28.346457,1,227.771654)"/>
<path style="fill:none;stroke-width:0.02;stroke-linecap:butt;stroke-linejoin:miter;stroke:rgb(0%,0%,0%);stroke-opacity:1;stroke-miterlimit:10;" d="M 1.955023 0.428369 L 1.955023 0.533376 " transform="matrix(28.346457,0,0,-28.346457,1,227.771654)"/>
<path style="fill:none;stroke-width:0.02;stroke-linecap:butt;stroke-linejoin:miter;stroke:rgb(0%,0%,0%);stroke-opacity:1;stroke-miterlimit:10;" d="M 4.053637 0.428369 L 4.053637 0.533376 " transform="matrix(28.346457,0,0,-28.346457,1,227.771654)"/>
<path style="fill:none;stroke-width:0.02;stroke-linecap:butt;stroke-linejoin:miter;stroke:rgb(0%,0%,0%);stroke-opacity:1;stroke-miterlimit:10;" d="M 6.152389 0.428369 L 6.152389 0.533376 " transform="matrix(28.346457,0,0,-28.346457,1,227.771654)"/>
<path style="fill:none;stroke-width:0.02;stroke-linecap:butt;stroke-linejoin:miter;stroke:rgb(0%,0%,0%);stroke-opacity:1;stroke-miterlimit:10;" d="M 8.251004 0.428369 L 8.251004 0.533376 " transform="matrix(28.346457,0,0,-28.346457,1,227.771654)"/>
<path style="fill:none;stroke-width:0.02;stroke-linecap:round;stroke-linejoin:miter;stroke:rgb(0%,0%,0%);stroke-opacity:1;stroke-miterlimit:10;" d="M 0.695771 0.428369 L 9.930005 0.428369 " transform="matrix(28.346457,0,0,-28.346457,1,227.771654)"/>
<path style=" stroke:none;fill-rule:nonzero;fill:rgb(0%,0%,0%);fill-opacity:1;" d="M 57.726562 220.613281 L 57.726562 221.105469 L 55.664062 221.105469 L 55.648438 221.113281 L 55.648438 222.738281 C 55.839844 222.613281 56.109375 222.445312 56.363281 222.4375 C 57.257812 222.34375 57.949219 223.222656 57.988281 224.042969 C 58.117188 225.082031 57.140625 226.113281 56.09375 225.953125 C 55.566406 225.9375 55.058594 225.628906 54.757812 225.199219 C 54.847656 225.082031 54.917969 224.875 55.019531 224.804688 C 55.394531 225.535156 56.601562 225.828125 57.085938 225.058594 C 57.394531 224.476562 57.386719 223.738281 57.027344 223.183594 C 56.617188 222.652344 55.796875 222.976562 55.609375 223.542969 L 55.09375 223.542969 L 55.09375 220.613281 Z M 57.726562 220.613281 Z M 57.726562 220.613281 "/>
<path style=" stroke:none;fill-rule:nonzero;fill:rgb(0%,0%,0%);fill-opacity:1;" d="M 114.304688 220.445312 L 114.304688 225.34375 L 114.3125 225.359375 L 115.289062 225.359375 L 115.289062 225.796875 L 112.710938 225.796875 L 112.710938 225.359375 L 113.683594 225.359375 L 113.703125 225.34375 L 113.703125 221.230469 C 113.367188 221.34375 113.019531 221.414062 112.667969 221.40625 L 112.667969 220.960938 C 113.191406 220.96875 113.765625 220.828125 114.160156 220.445312 Z M 114.304688 220.445312 Z M 114.304688 220.445312 "/>
<path style=" stroke:none;fill-rule:nonzero;fill:rgb(0%,0%,0%);fill-opacity:1;" d="M 118.027344 220.445312 C 118.78125 220.5 119.28125 221.191406 119.414062 221.890625 C 119.488281 222.207031 119.503906 222.507812 119.535156 222.828125 L 119.535156 223.636719 C 119.496094 224.460938 119.296875 225.550781 118.398438 225.882812 C 117.621094 226.191406 116.710938 225.707031 116.480469 224.914062 C 116.304688 224.492188 116.289062 224.066406 116.25 223.636719 L 116.25 222.828125 C 116.289062 222 116.464844 220.90625 117.351562 220.542969 L 117.390625 220.523438 L 117.421875 220.515625 L 117.464844 220.5 L 117.582031 220.46875 L 117.652344 220.453125 L 117.742188 220.453125 L 117.757812 220.445312 Z M 118.027344 220.445312 Z M 117.78125 220.929688 C 117.113281 221.007812 116.914062 221.8125 116.867188 222.351562 L 116.867188 222.566406 L 116.851562 222.582031 L 116.851562 223.683594 C 116.898438 224.253906 116.941406 224.992188 117.464844 225.375 C 117.949219 225.707031 118.589844 225.335938 118.726562 224.820312 C 118.867188 224.4375 118.898438 224.066406 118.933594 223.683594 L 118.933594 222.582031 C 118.882812 222 118.804688 221.191406 118.136719 220.960938 L 118.082031 220.945312 L 118.066406 220.929688 L 117.996094 220.929688 L 117.980469 220.914062 L 117.796875 220.914062 Z M 117.78125 220.929688 Z M 117.78125 220.929688 "/>
<path style=" stroke:none;fill-rule:nonzero;fill:rgb(0%,0%,0%);fill-opacity:1;" d="M 173.792969 220.445312 L 173.792969 225.34375 L 173.800781 225.359375 L 174.777344 225.359375 L 174.777344 225.796875 L 172.199219 225.796875 L 172.199219 225.359375 L 173.175781 225.359375 L 173.191406 225.34375 L 173.191406 221.230469 C 172.859375 221.34375 172.507812 221.414062 172.160156 221.40625 L 172.160156 220.960938 C 172.683594 220.96875 173.253906 220.828125 173.652344 220.445312 Z M 173.792969 220.445312 Z M 173.792969 220.445312 "/>
<path style=" stroke:none;fill-rule:nonzero;fill:rgb(0%,0%,0%);fill-opacity:1;" d="M 178.691406 220.613281 L 178.691406 221.105469 L 176.628906 221.105469 L 176.613281 221.113281 L 176.613281 222.738281 C 176.804688 222.613281 177.074219 222.445312 177.328125 222.4375 C 178.222656 222.34375 178.914062 223.222656 178.953125 224.042969 C 179.082031 225.082031 178.105469 226.113281 177.058594 225.953125 C 176.53125 225.9375 176.023438 225.628906 175.722656 225.199219 C 175.8125 225.082031 175.882812 224.875 175.984375 224.804688 C 176.359375 225.535156 177.566406 225.828125 178.050781 225.058594 C 178.359375 224.476562 178.351562 223.738281 177.992188 223.183594 C 177.582031 222.652344 176.761719 222.976562 176.574219 223.542969 L 176.058594 223.542969 L 176.058594 220.613281 Z M 178.691406 220.613281 Z M 178.691406 220.613281 "/>
<path style=" stroke:none;fill-rule:nonzero;fill:rgb(0%,0%,0%);fill-opacity:1;" d="M 232.953125 220.445312 C 233.871094 220.46875 234.601562 221.414062 234.460938 222.304688 C 234.363281 223.191406 233.53125 223.699219 232.9375 224.253906 L 232.683594 224.515625 L 232.648438 224.535156 L 232.332031 224.84375 L 232.308594 224.859375 L 231.992188 225.175781 L 231.960938 225.191406 L 231.886719 225.261719 L 231.902344 225.273438 L 234.476562 225.273438 L 234.476562 225.796875 L 231.332031 225.796875 L 231.332031 225.320312 L 232.609375 224.042969 C 233.222656 223.507812 233.9375 222.820312 233.824219 221.945312 C 233.761719 221.4375 233.332031 220.96875 232.808594 220.929688 C 232.277344 220.851562 231.808594 221.269531 231.691406 221.777344 L 231.671875 221.804688 L 231.65625 221.859375 L 231.632812 221.945312 L 231.585938 222.121094 L 231.578125 222.160156 C 231.46875 222.023438 231.347656 221.882812 231.261719 221.730469 C 231.417969 221.082031 231.945312 220.46875 232.632812 220.445312 Z M 232.953125 220.445312 Z M 232.953125 220.445312 "/>
<path style=" stroke:none;fill-rule:nonzero;fill:rgb(0%,0%,0%);fill-opacity:1;" d="M 237.007812 220.445312 C 237.761719 220.5 238.261719 221.191406 238.394531 221.890625 C 238.46875 222.207031 238.484375 222.507812 238.515625 222.828125 L 238.515625 223.636719 C 238.476562 224.460938 238.277344 225.550781 237.378906 225.882812 C 236.601562 226.191406 235.691406 225.707031 235.460938 224.914062 C 235.285156 224.492188 235.269531 224.066406 235.230469 223.636719 L 235.230469 222.828125 C 235.269531 222 235.445312 220.90625 236.332031 220.542969 L 236.371094 220.523438 L 236.402344 220.515625 L 236.445312 220.5 L 236.5625 220.46875 L 236.632812 220.453125 L 236.722656 220.453125 L 236.738281 220.445312 Z M 237.007812 220.445312 Z M 236.761719 220.929688 C 236.09375 221.007812 235.894531 221.8125 235.847656 222.351562 L 235.847656 222.566406 L 235.832031 222.582031 L 235.832031 223.683594 C 235.878906 224.253906 235.921875 224.992188 236.445312 225.375 C 236.929688 225.707031 237.570312 225.335938 237.707031 224.820312 C 237.847656 224.4375 237.878906 224.066406 237.914062 223.683594 L 237.914062 222.582031 C 237.863281 222 237.785156 221.191406 237.117188 220.960938 L 237.0625 220.945312 L 237.046875 220.929688 L 236.976562 220.929688 L 236.960938 220.914062 L 236.777344 220.914062 Z M 236.761719 220.929688 Z M 236.761719 220.929688 "/>
<path style="fill:none;stroke-width:0.02;stroke-linecap:butt;stroke-linejoin:miter;stroke:rgb(0%,0%,0%);stroke-opacity:1;stroke-miterlimit:10;" d="M 1.955023 7.838356 L 1.955023 7.73335 " transform="matrix(28.346457,0,0,-28.346457,1,227.771654)"/>
<path style="fill:none;stroke-width:0.02;stroke-linecap:butt;stroke-linejoin:miter;stroke:rgb(0%,0%,0%);stroke-opacity:1;stroke-miterlimit:10;" d="M 4.053637 7.838356 L 4.053637 7.73335 " transform="matrix(28.346457,0,0,-28.346457,1,227.771654)"/>
<path style="fill:none;stroke-width:0.02;stroke-linecap:butt;stroke-linejoin:miter;stroke:rgb(0%,0%,0%);stroke-opacity:1;stroke-miterlimit:10;" d="M 6.152389 7.838356 L 6.152389 7.73335 " transform="matrix(28.346457,0,0,-28.346457,1,227.771654)"/>
<path style="fill:none;stroke-width:0.02;stroke-linecap:butt;stroke-linejoin:miter;stroke:rgb(0%,0%,0%);stroke-opacity:1;stroke-miterlimit:10;" d="M 8.251004 7.838356 L 8.251004 7.73335 " transform="matrix(28.346457,0,0,-28.346457,1,227.771654)"/>
<path style="fill:none;stroke-width:0.02;stroke-linecap:round;stroke-linejoin:miter;stroke:rgb(0%,0%,0%);stroke-opacity:1;stroke-miterlimit:10;" d="M 0.695771 7.838356 L 9.930005 7.838356 " transform="matrix(28.346457,0,0,-28.346457,1,227.771654)"/>
</g>
</svg>
