<?xml version="1.0" encoding="UTF-8"?>
<svg xmlns="http://www.w3.org/2000/svg" xmlns:xlink="http://www.w3.org/1999/xlink" width="285.464567pt" height="228.771654pt" viewBox="0 0 285.464567 228.771654" version="1.1">
<g id="surface1">
<path style="fill-rule:nonzero;fill:rgb(96.078431%,87.058824%,70.196078%);fill-opacity:1;stroke-width:0.02;stroke-linecap:butt;stroke-linejoin:miter;stroke:rgb(100%,0%,0%);stroke-opacity:1;stroke-miterlimit:10;" d="M 0.863892 0.428369 L 1.889704 0.428369 L 1.889704 0.85184 L 0.863892 0.85184 Z M 0.863892 0.428369 " transform="matrix(28.346457,0,0,-28.346457,1,227.771654)"/>
<path style="fill-rule:nonzero;fill:rgb(96.078431%,87.058824%,70.196078%);fill-opacity:1;stroke-width:0.02;stroke-linecap:butt;stroke-linejoin:miter;stroke:rgb(100%,0%,0%);stroke-opacity:1;stroke-miterlimit:10;" d="M 1.889704 0.428369 L 2.915515 0.428369 L 2.915515 1.486978 L 1.889704 1.486978 Z M 1.889704 0.428369 " transform="matrix(28.346457,0,0,-28.346457,1,227.771654)"/>
<path style="fill-rule:nonzero;fill:rgb(96.078431%,87.058824%,70.196078%);fill-opacity:1;stroke-width:0.02;stroke-linecap:butt;stroke-linejoin:miter;stroke:rgb(100%,0%,0%);stroke-opacity:1;stroke-miterlimit:10;" d="M 2.915515 0.428369 L 3.941327 0.428369 L 3.941327 4.874334 L 2.915515 4.874334 Z M 2.915515 0.428369 " transform="matrix(28.346457,0,0,-28.346457,1,227.771654)"/>
<path style="fill-rule:nonzero;fill:rgb(96.078431%,87.058824%,70.196078%);fill-opacity:1;stroke-width:0.02;stroke-linecap:butt;stroke-linejoin:miter;stroke:rgb(100%,0%,0%);stroke-opacity:1;stroke-miterlimit:10;" d="M 3.941327 0.428369 L 4.967139 0.428369 L 4.967139 4.662667 L 3.941327 4.662667 Z M 3.941327 0.428369 " transform="matrix(28.346457,0,0,-28.346457,1,227.771654)"/>
<path style="fill-rule:nonzero;fill:rgb(96.078431%,87.058824%,70.196078%);fill-opacity:1;stroke-width:0.02;stroke-linecap:butt;stroke-linejoin:miter;stroke:rgb(100%,0%,0%);stroke-opacity:1;stroke-miterlimit:10;" d="M 4.967139 0.428369 L 5.99295 0.428369 L 5.99295 7.203218 L 4.967139 7.203218 Z M 4.967139 0.428369 " transform="matrix(28.346457,0,0,-28.346457,1,227.771654)"/>
<path style="fill-rule:nonzero;fill:rgb(96.078431%,87.058824%,70.196078%);fill-opacity:1;stroke-width:0.02;stroke-linecap:butt;stroke-linejoin:miter;stroke:rgb(100%,0%,0%);stroke-opacity:1;stroke-miterlimit:10;" d="M 5.99295 0.428369 L 7.018624 0.428369 L 7.018624 3.392391 L 5.99295 3.392391 Z M 5.99295 0.428369 " transform="matrix(28.346457,0,0,-28.346457,1,227.771654)"/>
<path style="fill-rule:nonzero;fill:rgb(96.078431%,87.058824%,70.196078%);fill-opacity:1;stroke-width:0.02;stroke-linecap:butt;stroke-linejoin:miter;stroke:rgb(100%,0%,0%);stroke-opacity:1;stroke-miterlimit:10;" d="M 7.018624 0.428369 L 8.044436 0.428369 L 8.044436 1.275311 L 7.018624 1.275311 Z M 7.018624 0.428369 " transform="matrix(28.346457,0,0,-28.346457,1,227.771654)"/>
<path style="fill-rule:nonzero;fill:rgb(96.078431%,87.058824%,70.196078%);fill-opacity:1;stroke-width:0.02;stroke-linecap:butt;stroke-linejoin:miter;stroke:rgb(100%,0%,0%);stroke-opacity:1;stroke-miterlimit:10;" d="M 8.044436 0.428369 L 9.070247 0.428369 L 9.070247 0.85184 L 8.044436 0.85184 Z M 8.044436 0.428369 " transform="matrix(28.346457,0,0,-28.346457,1,227.771654)"/>
<path style="fill:none;stroke-width:0.02;stroke-linecap:butt;stroke-linejoin:miter;stroke:rgb(0%,0%,0%);stroke-opacity:1;stroke-miterlimit:10;" d="M 0.525033 1.486978 L 0.630039 1.486978 " transform="matrix(28.346457,0,0,-28.346457,1,227.771654)"/>
<path style="fill:none;stroke-width:0.02;stroke-linecap:butt;stroke-linejoin:miter;stroke:rgb(0%,0%,0%);stroke-opacity:1;stroke-miterlimit:10;" d="M 0.525033 2.545449 L 0.630039 2.545449 " transform="matrix(28.346457,0,0,-28.346457,1,227.771654)"/>
<path style="fill:none;stroke-width:0.02;stroke-linecap:butt;stroke-linejoin:miter;stroke:rgb(0%,0%,0%);stroke-opacity:1;stroke-miterlimit:10;" d="M 0.525033 3.604058 L 0.630039 3.604058 " transform="matrix(28.346457,0,0,-28.346457,1,227.771654)"/>
<path style="fill:none;stroke-width:0.02;stroke-linecap:butt;stroke-linejoin:miter;stroke:rgb(0%,0%,0%);stroke-opacity:1;stroke-miterlimit:10;" d="M 0.525033 4.662667 L 0.630039 4.662667 " transform="matrix(28.346457,0,0,-28.346457,1,227.771654)"/>
<path style="fill:none;stroke-width:0.02;stroke-linecap:butt;stroke-linejoin:miter;stroke:rgb(0%,0%,0%);stroke-opacity:1;stroke-miterlimit:10;" d="M 0.525033 5.721138 L 0.630039 5.721138 " transform="matrix(28.346457,0,0,-28.346457,1,227.771654)"/>
<path style="fill:none;stroke-width:0.02;stroke-linecap:butt;stroke-linejoin:miter;stroke:rgb(0%,0%,0%);stroke-opacity:1;stroke-miterlimit:10;" d="M 0.525033 6.779747 L 0.630039 6.779747 " transform="matrix(28.346457,0,0,-28.346457,1,227.771654)"/>
<path style="fill:none;stroke-width:0.02;stroke-linecap:round;stroke-linejoin:miter;stroke:rgb(0%,0%,0%);stroke-opacity:1;stroke-miterlimit:10;" d="M 0.525033 0.428369 L 0.525033 7.838356 " transform="matrix(28.346457,0,0,-28.346457,1,227.771654)"/>
<path style=" stroke:none;fill-rule:nonzero;fill:rgb(0%,0%,0%);fill-opacity:1;" d="M 9.070312 212.886719 C 9.824219 212.941406 10.324219 213.632812 10.460938 214.332031 C 10.53125 214.648438 10.546875 214.949219 10.578125 215.265625 L 10.578125 216.078125 C 10.539062 216.902344 10.34375 217.988281 9.445312 218.324219 C 8.667969 218.632812 7.753906 218.148438 7.523438 217.355469 C 7.347656 216.933594 7.332031 216.503906 7.292969 216.078125 L 7.292969 215.265625 C 7.332031 214.441406 7.507812 213.347656 8.398438 212.980469 L 8.4375 212.964844 L 8.46875 212.957031 L 8.507812 212.941406 L 8.628906 212.910156 L 8.699219 212.894531 L 8.785156 212.894531 L 8.800781 212.886719 Z M 9.070312 212.886719 Z M 8.824219 213.371094 C 8.160156 213.449219 7.960938 214.25 7.914062 214.789062 L 7.914062 215.003906 L 7.898438 215.019531 L 7.898438 216.125 C 7.945312 216.695312 7.984375 217.433594 8.507812 217.816406 C 8.992188 218.148438 9.636719 217.773438 9.769531 217.257812 C 9.914062 216.878906 9.945312 216.503906 9.976562 216.125 L 9.976562 215.019531 C 9.929688 214.441406 9.851562 213.632812 9.183594 213.402344 L 9.128906 213.386719 L 9.113281 213.371094 L 9.039062 213.371094 L 9.023438 213.355469 L 8.839844 213.355469 Z M 8.824219 213.371094 Z M 8.824219 213.371094 "/>
<path style=" stroke:none;fill-rule:nonzero;fill:rgb(0%,0%,0%);fill-opacity:1;" d="M 10.246094 183.046875 L 10.246094 183.539062 L 8.183594 183.539062 L 8.167969 183.546875 L 8.167969 185.171875 C 8.359375 185.046875 8.628906 184.878906 8.882812 184.871094 C 9.777344 184.777344 10.46875 185.65625 10.507812 186.476562 C 10.636719 187.515625 9.660156 188.546875 8.613281 188.386719 C 8.085938 188.371094 7.578125 188.0625 7.277344 187.632812 C 7.367188 187.515625 7.4375 187.308594 7.539062 187.238281 C 7.914062 187.96875 9.121094 188.261719 9.605469 187.492188 C 9.914062 186.910156 9.90625 186.171875 9.546875 185.617188 C 9.136719 185.085938 8.316406 185.410156 8.128906 185.976562 L 7.613281 185.976562 L 7.613281 183.046875 Z M 10.246094 183.046875 Z M 10.246094 183.046875 "/>
<path style=" stroke:none;fill-rule:nonzero;fill:rgb(0%,0%,0%);fill-opacity:1;" d="M 5.347656 152.875 L 5.347656 157.769531 L 5.355469 157.785156 L 6.332031 157.785156 L 6.332031 158.222656 L 3.753906 158.222656 L 3.753906 157.785156 L 4.730469 157.785156 L 4.746094 157.769531 L 4.746094 153.660156 C 4.414062 153.769531 4.0625 153.839844 3.714844 153.832031 L 3.714844 153.390625 C 4.238281 153.398438 4.808594 153.253906 5.207031 152.875 Z M 5.347656 152.875 Z M 5.347656 152.875 "/>
<path style=" stroke:none;fill-rule:nonzero;fill:rgb(0%,0%,0%);fill-opacity:1;" d="M 9.070312 152.875 C 9.824219 152.929688 10.324219 153.621094 10.460938 154.316406 C 10.53125 154.636719 10.546875 154.9375 10.578125 155.253906 L 10.578125 156.0625 C 10.539062 156.890625 10.34375 157.976562 9.445312 158.308594 C 8.667969 158.621094 7.753906 158.136719 7.523438 157.339844 C 7.347656 156.921875 7.332031 156.492188 7.292969 156.0625 L 7.292969 155.253906 C 7.332031 154.429688 7.507812 153.332031 8.398438 152.96875 L 8.4375 152.953125 L 8.46875 152.945312 L 8.507812 152.929688 L 8.628906 152.898438 L 8.699219 152.882812 L 8.785156 152.882812 L 8.800781 152.875 Z M 9.070312 152.875 Z M 8.824219 153.355469 C 8.160156 153.4375 7.960938 154.238281 7.914062 154.777344 L 7.914062 154.992188 L 7.898438 155.007812 L 7.898438 156.113281 C 7.945312 156.683594 7.984375 157.421875 8.507812 157.800781 C 8.992188 158.136719 9.636719 157.761719 9.769531 157.246094 C 9.914062 156.867188 9.945312 156.492188 9.976562 156.113281 L 9.976562 155.007812 C 9.929688 154.429688 9.851562 153.621094 9.183594 153.390625 L 9.128906 153.375 L 9.113281 153.355469 L 9.039062 153.355469 L 9.023438 153.339844 L 8.839844 153.339844 Z M 8.824219 153.355469 Z M 8.824219 153.355469 "/>
<path style=" stroke:none;fill-rule:nonzero;fill:rgb(0%,0%,0%);fill-opacity:1;" d="M 5.347656 122.867188 L 5.347656 127.765625 L 5.355469 127.78125 L 6.332031 127.78125 L 6.332031 128.214844 L 3.753906 128.214844 L 3.753906 127.78125 L 4.730469 127.78125 L 4.746094 127.765625 L 4.746094 123.652344 C 4.414062 123.761719 4.0625 123.835938 3.714844 123.828125 L 3.714844 123.382812 C 4.238281 123.390625 4.808594 123.246094 5.207031 122.867188 Z M 5.347656 122.867188 Z M 5.347656 122.867188 "/>
<path style=" stroke:none;fill-rule:nonzero;fill:rgb(0%,0%,0%);fill-opacity:1;" d="M 10.246094 123.035156 L 10.246094 123.527344 L 8.183594 123.527344 L 8.167969 123.535156 L 8.167969 125.160156 C 8.359375 125.035156 8.628906 124.867188 8.882812 124.859375 C 9.777344 124.765625 10.46875 125.644531 10.507812 126.460938 C 10.636719 127.503906 9.660156 128.535156 8.613281 128.375 C 8.085938 128.359375 7.578125 128.050781 7.277344 127.621094 C 7.367188 127.503906 7.4375 127.296875 7.539062 127.222656 C 7.914062 127.953125 9.121094 128.25 9.605469 127.476562 C 9.914062 126.898438 9.90625 126.160156 9.546875 125.605469 C 9.136719 125.074219 8.316406 125.398438 8.128906 125.960938 L 7.613281 125.960938 L 7.613281 123.035156 Z M 10.246094 123.035156 Z M 10.246094 123.035156 "/>
<path style=" stroke:none;fill-rule:nonzero;fill:rgb(0%,0%,0%);fill-opacity:1;" d="M 5.015625 92.859375 C 5.9375 92.882812 6.667969 93.828125 6.523438 94.71875 C 6.429688 95.605469 5.59375 96.113281 5 96.671875 L 4.746094 96.933594 L 4.714844 96.949219 L 4.398438 97.257812 L 4.375 97.273438 L 4.054688 97.589844 L 4.023438 97.605469 L 3.953125 97.679688 L 3.96875 97.6875 L 6.539062 97.6875 L 6.539062 98.210938 L 3.398438 98.210938 L 3.398438 97.734375 L 4.675781 96.457031 C 5.285156 95.925781 6 95.234375 5.890625 94.359375 C 5.824219 93.851562 5.398438 93.382812 4.875 93.34375 C 4.339844 93.265625 3.875 93.6875 3.753906 94.195312 L 3.738281 94.21875 L 3.722656 94.273438 L 3.699219 94.359375 L 3.652344 94.535156 L 3.644531 94.574219 C 3.53125 94.441406 3.414062 94.296875 3.324219 94.144531 C 3.484375 93.496094 4.007812 92.882812 4.699219 92.859375 Z M 5.015625 92.859375 Z M 5.015625 92.859375 "/>
<path style=" stroke:none;fill-rule:nonzero;fill:rgb(0%,0%,0%);fill-opacity:1;" d="M 9.070312 92.859375 C 9.824219 92.914062 10.324219 93.605469 10.460938 94.304688 C 10.53125 94.621094 10.546875 94.925781 10.578125 95.242188 L 10.578125 96.050781 C 10.539062 96.875 10.34375 97.964844 9.445312 98.296875 C 8.667969 98.605469 7.753906 98.121094 7.523438 97.328125 C 7.347656 96.910156 7.332031 96.480469 7.292969 96.050781 L 7.292969 95.242188 C 7.332031 94.417969 7.507812 93.320312 8.398438 92.957031 L 8.4375 92.941406 L 8.46875 92.933594 L 8.507812 92.914062 L 8.628906 92.882812 L 8.699219 92.867188 L 8.785156 92.867188 L 8.800781 92.859375 Z M 9.070312 92.859375 Z M 8.824219 93.34375 C 8.160156 93.425781 7.960938 94.226562 7.914062 94.765625 L 7.914062 94.980469 L 7.898438 94.996094 L 7.898438 96.097656 C 7.945312 96.671875 7.984375 97.410156 8.507812 97.789062 C 8.992188 98.121094 9.636719 97.75 9.769531 97.234375 C 9.914062 96.851562 9.945312 96.480469 9.976562 96.097656 L 9.976562 94.996094 C 9.929688 94.417969 9.851562 93.605469 9.183594 93.375 L 9.128906 93.359375 L 9.113281 93.34375 L 9.039062 93.34375 L 9.023438 93.328125 L 8.839844 93.328125 Z M 8.824219 93.34375 Z M 8.824219 93.34375 "/>
<path style=" stroke:none;fill-rule:nonzero;fill:rgb(0%,0%,0%);fill-opacity:1;" d="M 5.015625 62.855469 C 5.9375 62.878906 6.667969 63.824219 6.523438 64.710938 C 6.429688 65.601562 5.59375 66.109375 5 66.664062 L 4.746094 66.925781 L 4.714844 66.941406 L 4.398438 67.25 L 4.375 67.265625 L 4.054688 67.585938 L 4.023438 67.601562 L 3.953125 67.671875 L 3.96875 67.679688 L 6.539062 67.679688 L 6.539062 68.203125 L 3.398438 68.203125 L 3.398438 67.726562 L 4.675781 66.449219 C 5.285156 65.917969 6 65.226562 5.890625 64.355469 C 5.824219 63.847656 5.398438 63.378906 4.875 63.339844 C 4.339844 63.257812 3.875 63.679688 3.753906 64.1875 L 3.738281 64.210938 L 3.722656 64.265625 L 3.699219 64.355469 L 3.652344 64.527344 L 3.644531 64.570312 C 3.53125 64.433594 3.414062 64.289062 3.324219 64.140625 C 3.484375 63.488281 4.007812 62.878906 4.699219 62.855469 Z M 5.015625 62.855469 Z M 5.015625 62.855469 "/>
<path style=" stroke:none;fill-rule:nonzero;fill:rgb(0%,0%,0%);fill-opacity:1;" d="M 10.246094 63.019531 L 10.246094 63.511719 L 8.183594 63.511719 L 8.167969 63.519531 L 8.167969 65.148438 C 8.359375 65.019531 8.628906 64.855469 8.882812 64.847656 C 9.777344 64.75 10.46875 65.632812 10.507812 66.449219 C 10.636719 67.488281 9.660156 68.519531 8.613281 68.363281 C 8.085938 68.347656 7.578125 68.035156 7.277344 67.609375 C 7.367188 67.488281 7.4375 67.28125 7.539062 67.210938 C 7.914062 67.941406 9.121094 68.234375 9.605469 67.464844 C 9.914062 66.886719 9.90625 66.148438 9.546875 65.59375 C 9.136719 65.0625 8.316406 65.386719 8.128906 65.949219 L 7.613281 65.949219 L 7.613281 63.019531 Z M 10.246094 63.019531 Z M 10.246094 63.019531 "/>
<path style=" stroke:none;fill-rule:nonzero;fill:rgb(0%,0%,0%);fill-opacity:1;" d="M 5.121094 32.847656 C 5.816406 32.878906 6.546875 33.523438 6.382812 34.261719 C 6.300781 34.761719 5.953125 35.171875 5.515625 35.394531 C 6.222656 35.617188 6.769531 36.363281 6.578125 37.101562 C 6.390625 38.0625 5.285156 38.59375 4.398438 38.300781 C 3.96875 38.171875 3.53125 37.902344 3.324219 37.507812 C 3.375 37.386719 3.355469 37.179688 3.414062 37.101562 C 3.832031 37.722656 4.722656 38.140625 5.421875 37.792969 C 6.183594 37.308594 6.0625 35.894531 5.144531 35.65625 L 5.070312 35.65625 L 5.054688 35.640625 L 4.316406 35.640625 L 4.316406 35.164062 C 4.769531 35.15625 5.332031 35.101562 5.585938 34.632812 C 5.859375 34.230469 5.832031 33.5625 5.316406 33.363281 C 4.707031 33.125 3.953125 33.515625 3.722656 34.132812 C 3.628906 34 3.53125 33.863281 3.4375 33.722656 C 3.761719 33.132812 4.453125 32.785156 5.121094 32.847656 Z M 5.121094 32.847656 Z M 5.121094 32.847656 "/>
<path style=" stroke:none;fill-rule:nonzero;fill:rgb(0%,0%,0%);fill-opacity:1;" d="M 9.070312 32.847656 C 9.824219 32.902344 10.324219 33.59375 10.460938 34.292969 C 10.53125 34.609375 10.546875 34.910156 10.578125 35.230469 L 10.578125 36.039062 C 10.539062 36.863281 10.34375 37.953125 9.445312 38.285156 C 8.667969 38.59375 7.753906 38.109375 7.523438 37.316406 C 7.347656 36.894531 7.332031 36.46875 7.292969 36.039062 L 7.292969 35.230469 C 7.332031 34.402344 7.507812 33.308594 8.398438 32.941406 L 8.4375 32.925781 L 8.46875 32.917969 L 8.507812 32.902344 L 8.628906 32.871094 L 8.699219 32.855469 L 8.785156 32.855469 L 8.800781 32.847656 Z M 9.070312 32.847656 Z M 8.824219 33.332031 C 8.160156 33.410156 7.960938 34.214844 7.914062 34.753906 L 7.914062 34.96875 L 7.898438 34.984375 L 7.898438 36.085938 C 7.945312 36.65625 7.984375 37.394531 8.507812 37.777344 C 8.992188 38.109375 9.636719 37.738281 9.769531 37.222656 C 9.914062 36.839844 9.945312 36.46875 9.976562 36.085938 L 9.976562 34.984375 C 9.929688 34.402344 9.851562 33.59375 9.183594 33.363281 L 9.128906 33.347656 L 9.113281 33.332031 L 9.039062 33.332031 L 9.023438 33.316406 L 8.839844 33.316406 Z M 8.824219 33.332031 Z M 8.824219 33.332031 "/>
<path style=" stroke:none;fill-rule:nonzero;fill:rgb(0%,0%,0%);fill-opacity:1;" d="M 5.121094 2.839844 C 5.816406 2.875 6.546875 3.515625 6.382812 4.253906 C 6.300781 4.753906 5.953125 5.167969 5.515625 5.390625 C 6.222656 5.613281 6.769531 6.359375 6.578125 7.09375 C 6.390625 8.054688 5.285156 8.585938 4.398438 8.292969 C 3.96875 8.167969 3.53125 7.898438 3.324219 7.5 C 3.375 7.382812 3.355469 7.175781 3.414062 7.09375 C 3.832031 7.714844 4.722656 8.136719 5.421875 7.785156 C 6.183594 7.300781 6.0625 5.890625 5.144531 5.652344 L 5.070312 5.652344 L 5.054688 5.636719 L 4.316406 5.636719 L 4.316406 5.160156 C 4.769531 5.152344 5.332031 5.09375 5.585938 4.628906 C 5.859375 4.222656 5.832031 3.554688 5.316406 3.355469 C 4.707031 3.121094 3.953125 3.507812 3.722656 4.128906 C 3.628906 3.992188 3.53125 3.855469 3.4375 3.714844 C 3.761719 3.128906 4.453125 2.777344 5.121094 2.839844 Z M 5.121094 2.839844 Z M 5.121094 2.839844 "/>
<path style=" stroke:none;fill-rule:nonzero;fill:rgb(0%,0%,0%);fill-opacity:1;" d="M 10.246094 3.007812 L 10.246094 3.5 L 8.183594 3.5 L 8.167969 3.507812 L 8.167969 5.136719 C 8.359375 5.007812 8.628906 4.839844 8.882812 4.832031 C 9.777344 4.738281 10.46875 5.621094 10.507812 6.4375 C 10.636719 7.476562 9.660156 8.507812 8.613281 8.351562 C 8.085938 8.332031 7.578125 8.023438 7.277344 7.59375 C 7.367188 7.476562 7.4375 7.269531 7.539062 7.199219 C 7.914062 7.929688 9.121094 8.222656 9.605469 7.453125 C 9.914062 6.875 9.90625 6.136719 9.546875 5.578125 C 9.136719 5.046875 8.316406 5.375 8.128906 5.9375 L 7.613281 5.9375 L 7.613281 3.007812 Z M 10.246094 3.007812 Z M 10.246094 3.007812 "/>
<path style="fill:none;stroke-width:0.02;stroke-linecap:butt;stroke-linejoin:miter;stroke:rgb(0%,0%,0%);stroke-opacity:1;stroke-miterlimit:10;" d="M 9.860001 1.486978 L 9.754995 1.486978 " transform="matrix(28.346457,0,0,-28.346457,1,227.771654)"/>
<path style="fill:none;stroke-width:0.02;stroke-linecap:butt;stroke-linejoin:miter;stroke:rgb(0%,0%,0%);stroke-opacity:1;stroke-miterlimit:10;" d="M 9.860001 2.545449 L 9.754995 2.545449 " transform="matrix(28.346457,0,0,-28.346457,1,227.771654)"/>
<path style="fill:none;stroke-width:0.02;stroke-linecap:butt;stroke-linejoin:miter;stroke:rgb(0%,0%,0%);stroke-opacity:1;stroke-miterlimit:10;" d="M 9.860001 3.604058 L 9.754995 3.604058 " transform="matrix(28.346457,0,0,-28.346457,1,227.771654)"/>
<path style="fill:none;stroke-width:0.02;stroke-linecap:butt;stroke-linejoin:miter;stroke:rgb(0%,0%,0%);stroke-opacity:1;stroke-miterlimit:10;" d="M 9.860001 4.662667 L 9.754995 4.662667 " transform="matrix(28.346457,0,0,-28.346457,1,227.771654)"/>
<path style="fill:none;stroke-width:0.02;stroke-linecap:butt;stroke-linejoin:miter;stroke:rgb(0%,0%,0%);stroke-opacity:1;stroke-miterlimit:10;" d="M 9.860001 5.721138 L 9.754995 5.721138 " transform="matrix(28.346457,0,0,-28.346457,1,227.771654)"/>
<path style="fill:none;stroke-width:0.02;stroke-linecap:butt;stroke-linejoin:miter;stroke:rgb(0%,0%,0%);stroke-opacity:1;stroke-miterlimit:10;" d="M 9.860001 6.779747 L 9.754995 6.779747 " transform="matrix(28.346457,0,0,-28.346457,1,227.771654)"/>
<path style="fill:none;stroke-width:0.02;stroke-linecap:round;stroke-linejoin:miter;stroke:rgb(0%,0%,0%);stroke-opacity:1;stroke-miterlimit:10;" d="M 9.860001 0.428369 L 9.860001 7.838356 " transform="matrix(28.346457,0,0,-28.346457,1,227.771654)"/>
<path style="fill:none;stroke-width:0.02;stroke-linecap:butt;stroke-linejoin:miter;stroke:rgb(0%,0%,0%);stroke-opacity:1;stroke-miterlimit:10;" d="M 2.080838 0.428369 L 2.080838 0.533376 " transform="matrix(28.346457,0,0,-28.346457,1,227.771654)"/>
<path style="fill:none;stroke-width:0.02;stroke-linecap:butt;stroke-linejoin:miter;stroke:rgb(0%,0%,0%);stroke-opacity:1;stroke-miterlimit:10;" d="M 3.636643 0.428369 L 3.636643 0.533376 " transform="matrix(28.346457,0,0,-28.346457,1,227.771654)"/>
<path style="fill:none;stroke-width:0.02;stroke-linecap:butt;stroke-linejoin:miter;stroke:rgb(0%,0%,0%);stroke-opacity:1;stroke-miterlimit:10;" d="M 5.192448 0.428369 L 5.192448 0.533376 " transform="matrix(28.346457,0,0,-28.346457,1,227.771654)"/>
<path style="fill:none;stroke-width:0.02;stroke-linecap:butt;stroke-linejoin:miter;stroke:rgb(0%,0%,0%);stroke-opacity:1;stroke-miterlimit:10;" d="M 6.748391 0.428369 L 6.748391 0.533376 " transform="matrix(28.346457,0,0,-28.346457,1,227.771654)"/>
<path style="fill:none;stroke-width:0.02;stroke-linecap:butt;stroke-linejoin:miter;stroke:rgb(0%,0%,0%);stroke-opacity:1;stroke-miterlimit:10;" d="M 8.304196 0.428369 L 8.304196 0.533376 " transform="matrix(28.346457,0,0,-28.346457,1,227.771654)"/>
<path style="fill:none;stroke-width:0.02;stroke-linecap:round;stroke-linejoin:miter;stroke:rgb(0%,0%,0%);stroke-opacity:1;stroke-miterlimit:10;" d="M 0.525033 0.428369 L 9.860001 0.428369 " transform="matrix(28.346457,0,0,-28.346457,1,227.771654)"/>
<path style=" stroke:none;fill-rule:nonzero;fill:rgb(0%,0%,0%);fill-opacity:1;" d="M 14.75 223.828125 L 14.75 224.269531 L 12.671875 224.269531 L 12.671875 223.828125 Z M 14.75 223.828125 Z M 14.75 223.828125 "/>
<path style=" stroke:none;fill-rule:nonzero;fill:rgb(0%,0%,0%);fill-opacity:1;" d="M 17.355469 220.445312 C 18.050781 220.476562 18.78125 221.121094 18.617188 221.859375 C 18.535156 222.359375 18.1875 222.769531 17.75 222.992188 C 18.457031 223.214844 19.003906 223.960938 18.816406 224.699219 C 18.625 225.660156 17.519531 226.191406 16.632812 225.898438 C 16.203125 225.773438 15.765625 225.5 15.558594 225.105469 C 15.609375 224.984375 15.59375 224.78125 15.648438 224.699219 C 16.070312 225.320312 16.957031 225.738281 17.65625 225.390625 C 18.417969 224.90625 18.296875 223.492188 17.378906 223.253906 L 17.304688 223.253906 L 17.289062 223.238281 L 16.550781 223.238281 L 16.550781 222.761719 C 17.003906 222.753906 17.570312 222.699219 17.824219 222.230469 C 18.09375 221.828125 18.070312 221.160156 17.550781 220.960938 C 16.941406 220.722656 16.1875 221.113281 15.957031 221.730469 C 15.863281 221.597656 15.765625 221.460938 15.671875 221.320312 C 15.996094 220.730469 16.6875 220.382812 17.355469 220.445312 Z M 17.355469 220.445312 Z M 17.355469 220.445312 "/>
<path style=" stroke:none;fill-rule:nonzero;fill:rgb(0%,0%,0%);fill-opacity:1;" d="M 58.851562 223.828125 L 58.851562 224.269531 L 56.773438 224.269531 L 56.773438 223.828125 Z M 58.851562 223.828125 Z M 58.851562 223.828125 "/>
<path style=" stroke:none;fill-rule:nonzero;fill:rgb(0%,0%,0%);fill-opacity:1;" d="M 61.351562 220.445312 C 62.273438 220.46875 63.003906 221.414062 62.863281 222.304688 C 62.765625 223.191406 61.933594 223.699219 61.335938 224.253906 L 61.082031 224.515625 L 61.050781 224.535156 L 60.734375 224.84375 L 60.710938 224.859375 L 60.394531 225.175781 L 60.359375 225.191406 L 60.289062 225.261719 L 60.304688 225.273438 L 62.878906 225.273438 L 62.878906 225.796875 L 59.734375 225.796875 L 59.734375 225.320312 L 61.011719 224.042969 C 61.625 223.507812 62.335938 222.820312 62.226562 221.945312 C 62.164062 221.4375 61.734375 220.96875 61.210938 220.929688 C 60.679688 220.851562 60.210938 221.269531 60.089844 221.777344 L 60.074219 221.804688 L 60.058594 221.859375 L 60.035156 221.945312 L 59.988281 222.121094 L 59.980469 222.160156 C 59.871094 222.023438 59.75 221.882812 59.664062 221.730469 C 59.820312 221.082031 60.34375 220.46875 61.035156 220.445312 Z M 61.351562 220.445312 Z M 61.351562 220.445312 "/>
<path style=" stroke:none;fill-rule:nonzero;fill:rgb(0%,0%,0%);fill-opacity:1;" d="M 102.957031 223.828125 L 102.957031 224.269531 L 100.875 224.269531 L 100.875 223.828125 Z M 102.957031 223.828125 Z M 102.957031 223.828125 "/>
<path style=" stroke:none;fill-rule:nonzero;fill:rgb(0%,0%,0%);fill-opacity:1;" d="M 105.789062 220.445312 L 105.789062 225.34375 L 105.796875 225.359375 L 106.773438 225.359375 L 106.773438 225.796875 L 104.195312 225.796875 L 104.195312 225.359375 L 105.171875 225.359375 L 105.1875 225.34375 L 105.1875 221.230469 C 104.851562 221.34375 104.503906 221.414062 104.152344 221.40625 L 104.152344 220.960938 C 104.679688 220.96875 105.25 220.828125 105.644531 220.445312 Z M 105.789062 220.445312 Z M 105.789062 220.445312 "/>
<path style=" stroke:none;fill-rule:nonzero;fill:rgb(0%,0%,0%);fill-opacity:1;" d="M 148.324219 220.445312 C 149.078125 220.5 149.578125 221.191406 149.710938 221.890625 C 149.785156 222.207031 149.800781 222.507812 149.832031 222.828125 L 149.832031 223.636719 C 149.792969 224.460938 149.59375 225.550781 148.695312 225.882812 C 147.917969 226.191406 147.007812 225.707031 146.777344 224.914062 C 146.601562 224.492188 146.585938 224.066406 146.546875 223.636719 L 146.546875 222.828125 C 146.585938 222 146.761719 220.90625 147.648438 220.542969 L 147.6875 220.523438 L 147.71875 220.515625 L 147.761719 220.5 L 147.878906 220.46875 L 147.949219 220.453125 L 148.039062 220.453125 L 148.054688 220.445312 Z M 148.324219 220.445312 Z M 148.078125 220.929688 C 147.410156 221.007812 147.210938 221.8125 147.164062 222.351562 L 147.164062 222.566406 L 147.148438 222.582031 L 147.148438 223.683594 C 147.195312 224.253906 147.238281 224.992188 147.761719 225.375 C 148.246094 225.707031 148.886719 225.335938 149.023438 224.820312 C 149.164062 224.4375 149.195312 224.066406 149.230469 223.683594 L 149.230469 222.582031 C 149.179688 222 149.101562 221.191406 148.433594 220.960938 L 148.378906 220.945312 L 148.363281 220.929688 L 148.292969 220.929688 L 148.277344 220.914062 L 148.09375 220.914062 Z M 148.078125 220.929688 Z M 148.078125 220.929688 "/>
<path style=" stroke:none;fill-rule:nonzero;fill:rgb(0%,0%,0%);fill-opacity:1;" d="M 192.671875 220.445312 L 192.671875 225.34375 L 192.679688 225.359375 L 193.65625 225.359375 L 193.65625 225.796875 L 191.078125 225.796875 L 191.078125 225.359375 L 192.054688 225.359375 L 192.070312 225.34375 L 192.070312 221.230469 C 191.734375 221.34375 191.386719 221.414062 191.039062 221.40625 L 191.039062 220.960938 C 191.5625 220.96875 192.132812 220.828125 192.53125 220.445312 Z M 192.671875 220.445312 Z M 192.671875 220.445312 "/>
<path style=" stroke:none;fill-rule:nonzero;fill:rgb(0%,0%,0%);fill-opacity:1;" d="M 236.441406 220.445312 C 237.363281 220.46875 238.09375 221.414062 237.949219 222.304688 C 237.855469 223.191406 237.019531 223.699219 236.425781 224.253906 L 236.171875 224.515625 L 236.140625 224.535156 L 235.820312 224.84375 L 235.796875 224.859375 L 235.480469 225.175781 L 235.449219 225.191406 L 235.378906 225.261719 L 235.394531 225.273438 L 237.964844 225.273438 L 237.964844 225.796875 L 234.820312 225.796875 L 234.820312 225.320312 L 236.101562 224.042969 C 236.710938 223.507812 237.425781 222.820312 237.3125 221.945312 C 237.25 221.4375 236.824219 220.96875 236.296875 220.929688 C 235.765625 220.851562 235.296875 221.269531 235.179688 221.777344 L 235.164062 221.804688 L 235.148438 221.859375 L 235.125 221.945312 L 235.074219 222.121094 L 235.066406 222.160156 C 234.957031 222.023438 234.839844 221.882812 234.75 221.730469 C 234.910156 221.082031 235.433594 220.46875 236.125 220.445312 Z M 236.441406 220.445312 Z M 236.441406 220.445312 "/>
<path style=" stroke:none;fill-rule:nonzero;fill:rgb(0%,0%,0%);fill-opacity:1;" d="M 280.648438 220.445312 C 281.34375 220.476562 282.074219 221.121094 281.910156 221.859375 C 281.828125 222.359375 281.480469 222.769531 281.042969 222.992188 C 281.75 223.214844 282.296875 223.960938 282.105469 224.699219 C 281.917969 225.660156 280.8125 226.191406 279.925781 225.898438 C 279.496094 225.773438 279.058594 225.5 278.851562 225.105469 C 278.902344 224.984375 278.886719 224.78125 278.941406 224.699219 C 279.359375 225.320312 280.25 225.738281 280.949219 225.390625 C 281.710938 224.90625 281.589844 223.492188 280.671875 223.253906 L 280.597656 223.253906 L 280.582031 223.238281 L 279.84375 223.238281 L 279.84375 222.761719 C 280.296875 222.753906 280.859375 222.699219 281.113281 222.230469 C 281.386719 221.828125 281.359375 221.160156 280.84375 220.960938 C 280.234375 220.722656 279.480469 221.113281 279.25 221.730469 C 279.15625 221.597656 279.058594 221.460938 278.964844 221.320312 C 279.289062 220.730469 279.980469 220.382812 280.648438 220.445312 Z M 280.648438 220.445312 Z M 280.648438 220.445312 "/>
<path style="fill:none;stroke-width:0.02;stroke-linecap:butt;stroke-linejoin:miter;stroke:rgb(0%,0%,0%);stroke-opacity:1;stroke-miterlimit:10;" d="M 2.080838 7.838356 L 2.080838 7.73335 " transform="matrix(28.346457,0,0,-28.346457,1,227.771654)"/>
<path style="fill:none;stroke-width:0.02;stroke-linecap:butt;stroke-linejoin:miter;stroke:rgb(0%,0%,0%);stroke-opacity:1;stroke-miterlimit:10;" d="M 3.636643 7.838356 L 3.636643 7.73335 " transform="matrix(28.346457,0,0,-28.346457,1,227.771654)"/>
<path style="fill:none;stroke-width:0.02;stroke-linecap:butt;stroke-linejoin:miter;stroke:rgb(0%,0%,0%);stroke-opacity:1;stroke-miterlimit:10;" d="M 5.192448 7.838356 L 5.192448 7.73335 " transform="matrix(28.346457,0,0,-28.346457,1,227.771654)"/>
<path style="fill:none;stroke-width:0.02;stroke-linecap:butt;stroke-linejoin:miter;stroke:rgb(0%,0%,0%);stroke-opacity:1;stroke-miterlimit:10;" d="M 6.748391 7.838356 L 6.748391 7.73335 " transform="matrix(28.346457,0,0,-28.346457,1,227.771654)"/>
<path style="fill:none;stroke-width:0.02;stroke-linecap:butt;stroke-linejoin:miter;stroke:rgb(0%,0%,0%);stroke-opacity:1;stroke-miterlimit:10;" d="M 8.304196 7.838356 L 8.304196 7.73335 " transform="matrix(28.346457,0,0,-28.346457,1,227.771654)"/>
<path style="fill:none;stroke-width:0.02;stroke-linecap:round;stroke-linejoin:miter;stroke:rgb(0%,0%,0%);stroke-opacity:1;stroke-miterlimit:10;" d="M 0.525033 7.838356 L 9.860001 7.838356 " transform="matrix(28.346457,0,0,-28.346457,1,227.771654)"/>
</g>
</svg>
