<?xml version="1.0" encoding="UTF-8"?>
<svg xmlns="http://www.w3.org/2000/svg" xmlns:xlink="http://www.w3.org/1999/xlink" width="285.464567pt" height="228.771654pt" viewBox="0 0 285.464567 228.771654" version="1.1">
<g id="surface1">
<path style="fill-rule:nonzero;fill:rgb(100%,41.176471%,70.588235%);fill-opacity:1;stroke-width:0.02;stroke-linecap:butt;stroke-linejoin:miter;stroke:rgb(100%,100%,100%);stroke-opacity:1;stroke-miterlimit:10;" d="M 0.525033 0.428369 L 3.6004 0.428369 L 3.6004 1.16934 L 0.525033 1.16934 Z M 0.525033 0.428369 " transform="matrix(28.346457,0,0,-28.346457,1,227.771654)"/>
<path style="fill-rule:nonzero;fill:rgb(100%,41.176471%,70.588235%);fill-opacity:1;stroke-width:0.02;stroke-linecap:butt;stroke-linejoin:miter;stroke:rgb(100%,100%,100%);stroke-opacity:1;stroke-miterlimit:10;" d="M 3.6004 0.428369 L 6.675768 0.428369 L 6.675768 7.097247 L 3.6004 7.097247 Z M 3.6004 0.428369 " transform="matrix(28.346457,0,0,-28.346457,1,227.771654)"/>
<path style="fill-rule:nonzero;fill:rgb(100%,41.176471%,70.588235%);fill-opacity:1;stroke-width:0.02;stroke-linecap:butt;stroke-linejoin:miter;stroke:rgb(100%,100%,100%);stroke-opacity:1;stroke-miterlimit:10;" d="M 6.675768 0.428369 L 9.751274 0.428369 L 9.751274 4.133363 L 6.675768 4.133363 Z M 6.675768 0.428369 " transform="matrix(28.346457,0,0,-28.346457,1,227.771654)"/>
<path style="fill:none;stroke-width:0.02;stroke-linecap:butt;stroke-linejoin:miter;stroke:rgb(0%,0%,0%);stroke-opacity:1;stroke-miterlimit:10;" d="M 0.525033 1.16934 L 0.630039 1.16934 " transform="matrix(28.346457,0,0,-28.346457,1,227.771654)"/>
<path style="fill:none;stroke-width:0.02;stroke-linecap:butt;stroke-linejoin:miter;stroke:rgb(0%,0%,0%);stroke-opacity:1;stroke-miterlimit:10;" d="M 0.525033 1.910311 L 0.630039 1.910311 " transform="matrix(28.346457,0,0,-28.346457,1,227.771654)"/>
<path style="fill:none;stroke-width:0.02;stroke-linecap:butt;stroke-linejoin:miter;stroke:rgb(0%,0%,0%);stroke-opacity:1;stroke-miterlimit:10;" d="M 0.525033 2.65142 L 0.630039 2.65142 " transform="matrix(28.346457,0,0,-28.346457,1,227.771654)"/>
<path style="fill:none;stroke-width:0.02;stroke-linecap:butt;stroke-linejoin:miter;stroke:rgb(0%,0%,0%);stroke-opacity:1;stroke-miterlimit:10;" d="M 0.525033 3.392391 L 0.630039 3.392391 " transform="matrix(28.346457,0,0,-28.346457,1,227.771654)"/>
<path style="fill:none;stroke-width:0.02;stroke-linecap:butt;stroke-linejoin:miter;stroke:rgb(0%,0%,0%);stroke-opacity:1;stroke-miterlimit:10;" d="M 0.525033 4.133363 L 0.630039 4.133363 " transform="matrix(28.346457,0,0,-28.346457,1,227.771654)"/>
<path style="fill:none;stroke-width:0.02;stroke-linecap:butt;stroke-linejoin:miter;stroke:rgb(0%,0%,0%);stroke-opacity:1;stroke-miterlimit:10;" d="M 0.525033 4.874334 L 0.630039 4.874334 " transform="matrix(28.346457,0,0,-28.346457,1,227.771654)"/>
<path style="fill:none;stroke-width:0.02;stroke-linecap:butt;stroke-linejoin:miter;stroke:rgb(0%,0%,0%);stroke-opacity:1;stroke-miterlimit:10;" d="M 0.525033 5.615305 L 0.630039 5.615305 " transform="matrix(28.346457,0,0,-28.346457,1,227.771654)"/>
<path style="fill:none;stroke-width:0.02;stroke-linecap:butt;stroke-linejoin:miter;stroke:rgb(0%,0%,0%);stroke-opacity:1;stroke-miterlimit:10;" d="M 0.525033 6.356276 L 0.630039 6.356276 " transform="matrix(28.346457,0,0,-28.346457,1,227.771654)"/>
<path style="fill:none;stroke-width:0.02;stroke-linecap:butt;stroke-linejoin:miter;stroke:rgb(0%,0%,0%);stroke-opacity:1;stroke-miterlimit:10;" d="M 0.525033 7.097247 L 0.630039 7.097247 " transform="matrix(28.346457,0,0,-28.346457,1,227.771654)"/>
<path style="fill:none;stroke-width:0.02;stroke-linecap:round;stroke-linejoin:miter;stroke:rgb(0%,0%,0%);stroke-opacity:1;stroke-miterlimit:10;" d="M 0.525033 0.428369 L 0.525033 7.838356 " transform="matrix(28.346457,0,0,-28.346457,1,227.771654)"/>
<path style=" stroke:none;fill-rule:nonzero;fill:rgb(0%,0%,0%);fill-opacity:1;" d="M 10.246094 213.050781 L 10.246094 213.542969 L 8.183594 213.542969 L 8.167969 213.550781 L 8.167969 215.179688 C 8.359375 215.050781 8.628906 214.886719 8.882812 214.878906 C 9.777344 214.78125 10.46875 215.664062 10.507812 216.480469 C 10.636719 217.519531 9.660156 218.554688 8.613281 218.394531 C 8.085938 218.378906 7.578125 218.070312 7.277344 217.640625 C 7.367188 217.519531 7.4375 217.316406 7.539062 217.242188 C 7.914062 217.972656 9.121094 218.265625 9.605469 217.496094 C 9.914062 216.917969 9.90625 216.179688 9.546875 215.625 C 9.136719 215.09375 8.316406 215.417969 8.128906 215.980469 L 7.613281 215.980469 L 7.613281 213.050781 Z M 10.246094 213.050781 Z M 10.246094 213.050781 "/>
<path style=" stroke:none;fill-rule:nonzero;fill:rgb(0%,0%,0%);fill-opacity:1;" d="M 5.347656 191.882812 L 5.347656 196.777344 L 5.355469 196.792969 L 6.332031 196.792969 L 6.332031 197.230469 L 3.753906 197.230469 L 3.753906 196.792969 L 4.730469 196.792969 L 4.746094 196.777344 L 4.746094 192.667969 C 4.414062 192.777344 4.0625 192.851562 3.714844 192.839844 L 3.714844 192.398438 C 4.238281 192.40625 4.808594 192.261719 5.207031 191.882812 Z M 5.347656 191.882812 Z M 5.347656 191.882812 "/>
<path style=" stroke:none;fill-rule:nonzero;fill:rgb(0%,0%,0%);fill-opacity:1;" d="M 9.070312 191.882812 C 9.824219 191.9375 10.324219 192.628906 10.460938 193.324219 C 10.53125 193.644531 10.546875 193.945312 10.578125 194.261719 L 10.578125 195.070312 C 10.539062 195.898438 10.34375 196.984375 9.445312 197.316406 C 8.667969 197.628906 7.753906 197.144531 7.523438 196.351562 C 7.347656 195.929688 7.332031 195.5 7.292969 195.070312 L 7.292969 194.261719 C 7.332031 193.4375 7.507812 192.339844 8.398438 191.976562 L 8.4375 191.960938 L 8.46875 191.953125 L 8.507812 191.9375 L 8.628906 191.90625 L 8.699219 191.890625 L 8.785156 191.890625 L 8.800781 191.882812 Z M 9.070312 191.882812 Z M 8.824219 192.367188 C 8.160156 192.445312 7.960938 193.246094 7.914062 193.785156 L 7.914062 194 L 7.898438 194.015625 L 7.898438 195.121094 C 7.945312 195.691406 7.984375 196.429688 8.507812 196.808594 C 8.992188 197.144531 9.636719 196.769531 9.769531 196.253906 C 9.914062 195.875 9.945312 195.5 9.976562 195.121094 L 9.976562 194.015625 C 9.929688 193.4375 9.851562 192.628906 9.183594 192.398438 L 9.128906 192.382812 L 9.113281 192.367188 L 9.039062 192.367188 L 9.023438 192.351562 L 8.839844 192.351562 Z M 8.824219 192.367188 Z M 8.824219 192.367188 "/>
<path style=" stroke:none;fill-rule:nonzero;fill:rgb(0%,0%,0%);fill-opacity:1;" d="M 5.347656 170.875 L 5.347656 175.773438 L 5.355469 175.789062 L 6.332031 175.789062 L 6.332031 176.226562 L 3.753906 176.226562 L 3.753906 175.789062 L 4.730469 175.789062 L 4.746094 175.773438 L 4.746094 171.664062 C 4.414062 171.773438 4.0625 171.84375 3.714844 171.835938 L 3.714844 171.394531 C 4.238281 171.402344 4.808594 171.257812 5.207031 170.875 Z M 5.347656 170.875 Z M 5.347656 170.875 "/>
<path style=" stroke:none;fill-rule:nonzero;fill:rgb(0%,0%,0%);fill-opacity:1;" d="M 10.246094 171.042969 L 10.246094 171.535156 L 8.183594 171.535156 L 8.167969 171.542969 L 8.167969 173.171875 C 8.359375 173.042969 8.628906 172.878906 8.882812 172.867188 C 9.777344 172.773438 10.46875 173.65625 10.507812 174.472656 C 10.636719 175.511719 9.660156 176.542969 8.613281 176.386719 C 8.085938 176.371094 7.578125 176.058594 7.277344 175.632812 C 7.367188 175.511719 7.4375 175.304688 7.539062 175.234375 C 7.914062 175.964844 9.121094 176.257812 9.605469 175.488281 C 9.914062 174.910156 9.90625 174.171875 9.546875 173.613281 C 9.136719 173.082031 8.316406 173.410156 8.128906 173.972656 L 7.613281 173.972656 L 7.613281 171.042969 Z M 10.246094 171.042969 Z M 10.246094 171.042969 "/>
<path style=" stroke:none;fill-rule:nonzero;fill:rgb(0%,0%,0%);fill-opacity:1;" d="M 5.015625 149.871094 C 5.9375 149.894531 6.667969 150.839844 6.523438 151.730469 C 6.429688 152.617188 5.59375 153.125 5 153.683594 L 4.746094 153.945312 L 4.714844 153.960938 L 4.398438 154.269531 L 4.375 154.285156 L 4.054688 154.601562 L 4.023438 154.617188 L 3.953125 154.691406 L 3.96875 154.699219 L 6.539062 154.699219 L 6.539062 155.222656 L 3.398438 155.222656 L 3.398438 154.746094 L 4.675781 153.46875 C 5.285156 152.9375 6 152.246094 5.890625 151.371094 C 5.824219 150.863281 5.398438 150.394531 4.875 150.355469 C 4.339844 150.277344 3.875 150.699219 3.753906 151.207031 L 3.738281 151.230469 L 3.722656 151.285156 L 3.699219 151.371094 L 3.652344 151.546875 L 3.644531 151.585938 C 3.53125 151.453125 3.414062 151.308594 3.324219 151.160156 C 3.484375 150.507812 4.007812 149.894531 4.699219 149.871094 Z M 5.015625 149.871094 Z M 5.015625 149.871094 "/>
<path style=" stroke:none;fill-rule:nonzero;fill:rgb(0%,0%,0%);fill-opacity:1;" d="M 9.070312 149.871094 C 9.824219 149.929688 10.324219 150.617188 10.460938 151.316406 C 10.53125 151.632812 10.546875 151.9375 10.578125 152.253906 L 10.578125 153.0625 C 10.539062 153.886719 10.34375 154.976562 9.445312 155.308594 C 8.667969 155.617188 7.753906 155.132812 7.523438 154.339844 C 7.347656 153.921875 7.332031 153.492188 7.292969 153.0625 L 7.292969 152.253906 C 7.332031 151.429688 7.507812 150.332031 8.398438 149.96875 L 8.4375 149.953125 L 8.46875 149.945312 L 8.507812 149.929688 L 8.628906 149.894531 L 8.699219 149.878906 L 8.785156 149.878906 L 8.800781 149.871094 Z M 9.070312 149.871094 Z M 8.824219 150.355469 C 8.160156 150.4375 7.960938 151.238281 7.914062 151.777344 L 7.914062 151.992188 L 7.898438 152.007812 L 7.898438 153.109375 C 7.945312 153.683594 7.984375 154.421875 8.507812 154.800781 C 8.992188 155.132812 9.636719 154.761719 9.769531 154.246094 C 9.914062 153.863281 9.945312 153.492188 9.976562 153.109375 L 9.976562 152.007812 C 9.929688 151.429688 9.851562 150.617188 9.183594 150.386719 L 9.128906 150.371094 L 9.113281 150.355469 L 9.039062 150.355469 L 9.023438 150.339844 L 8.839844 150.339844 Z M 8.824219 150.355469 Z M 8.824219 150.355469 "/>
<path style=" stroke:none;fill-rule:nonzero;fill:rgb(0%,0%,0%);fill-opacity:1;" d="M 5.015625 128.867188 C 5.9375 128.890625 6.667969 129.835938 6.523438 130.726562 C 6.429688 131.613281 5.59375 132.121094 5 132.679688 L 4.746094 132.941406 L 4.714844 132.957031 L 4.398438 133.265625 L 4.375 133.28125 L 4.054688 133.597656 L 4.023438 133.613281 L 3.953125 133.6875 L 3.96875 133.695312 L 6.539062 133.695312 L 6.539062 134.21875 L 3.398438 134.21875 L 3.398438 133.742188 L 4.675781 132.464844 C 5.285156 131.933594 6 131.242188 5.890625 130.367188 C 5.824219 129.859375 5.398438 129.390625 4.875 129.351562 C 4.339844 129.273438 3.875 129.695312 3.753906 130.203125 L 3.738281 130.226562 L 3.722656 130.28125 L 3.699219 130.367188 L 3.652344 130.542969 L 3.644531 130.582031 C 3.53125 130.449219 3.414062 130.304688 3.324219 130.152344 C 3.484375 129.503906 4.007812 128.890625 4.699219 128.867188 Z M 5.015625 128.867188 Z M 5.015625 128.867188 "/>
<path style=" stroke:none;fill-rule:nonzero;fill:rgb(0%,0%,0%);fill-opacity:1;" d="M 10.246094 129.035156 L 10.246094 129.527344 L 8.183594 129.527344 L 8.167969 129.535156 L 8.167969 131.160156 C 8.359375 131.035156 8.628906 130.867188 8.882812 130.859375 C 9.777344 130.765625 10.46875 131.644531 10.507812 132.464844 C 10.636719 133.503906 9.660156 134.535156 8.613281 134.375 C 8.085938 134.359375 7.578125 134.050781 7.277344 133.621094 C 7.367188 133.503906 7.4375 133.296875 7.539062 133.226562 C 7.914062 133.957031 9.121094 134.25 9.605469 133.480469 C 9.914062 132.898438 9.90625 132.160156 9.546875 131.605469 C 9.136719 131.074219 8.316406 131.398438 8.128906 131.964844 L 7.613281 131.964844 L 7.613281 129.035156 Z M 10.246094 129.035156 Z M 10.246094 129.035156 "/>
<path style=" stroke:none;fill-rule:nonzero;fill:rgb(0%,0%,0%);fill-opacity:1;" d="M 5.121094 107.863281 C 5.816406 107.894531 6.546875 108.539062 6.382812 109.277344 C 6.300781 109.777344 5.953125 110.1875 5.515625 110.410156 C 6.222656 110.632812 6.769531 111.378906 6.578125 112.117188 C 6.390625 113.078125 5.285156 113.609375 4.398438 113.316406 C 3.96875 113.1875 3.53125 112.917969 3.324219 112.523438 C 3.375 112.402344 3.355469 112.195312 3.414062 112.117188 C 3.832031 112.738281 4.722656 113.15625 5.421875 112.808594 C 6.183594 112.324219 6.0625 110.910156 5.144531 110.671875 L 5.070312 110.671875 L 5.054688 110.65625 L 4.316406 110.65625 L 4.316406 110.179688 C 4.769531 110.171875 5.332031 110.117188 5.585938 109.648438 C 5.859375 109.246094 5.832031 108.578125 5.316406 108.378906 C 4.707031 108.140625 3.953125 108.53125 3.722656 109.148438 C 3.628906 109.015625 3.53125 108.878906 3.4375 108.738281 C 3.761719 108.148438 4.453125 107.800781 5.121094 107.863281 Z M 5.121094 107.863281 Z M 5.121094 107.863281 "/>
<path style=" stroke:none;fill-rule:nonzero;fill:rgb(0%,0%,0%);fill-opacity:1;" d="M 9.070312 107.863281 C 9.824219 107.917969 10.324219 108.609375 10.460938 109.308594 C 10.53125 109.625 10.546875 109.925781 10.578125 110.246094 L 10.578125 111.054688 C 10.539062 111.878906 10.34375 112.96875 9.445312 113.300781 C 8.667969 113.609375 7.753906 113.125 7.523438 112.332031 C 7.347656 111.910156 7.332031 111.484375 7.292969 111.054688 L 7.292969 110.246094 C 7.332031 109.417969 7.507812 108.324219 8.398438 107.957031 L 8.4375 107.941406 L 8.46875 107.933594 L 8.507812 107.917969 L 8.628906 107.886719 L 8.699219 107.871094 L 8.785156 107.871094 L 8.800781 107.863281 Z M 9.070312 107.863281 Z M 8.824219 108.347656 C 8.160156 108.425781 7.960938 109.230469 7.914062 109.769531 L 7.914062 109.984375 L 7.898438 110 L 7.898438 111.101562 C 7.945312 111.671875 7.984375 112.410156 8.507812 112.792969 C 8.992188 113.125 9.636719 112.753906 9.769531 112.238281 C 9.914062 111.855469 9.945312 111.484375 9.976562 111.101562 L 9.976562 110 C 9.929688 109.417969 9.851562 108.609375 9.183594 108.378906 L 9.128906 108.363281 L 9.113281 108.347656 L 9.039062 108.347656 L 9.023438 108.332031 L 8.839844 108.332031 Z M 8.824219 108.347656 Z M 8.824219 108.347656 "/>
<path style=" stroke:none;fill-rule:nonzero;fill:rgb(0%,0%,0%);fill-opacity:1;" d="M 5.121094 86.859375 C 5.816406 86.890625 6.546875 87.535156 6.382812 88.273438 C 6.300781 88.773438 5.953125 89.183594 5.515625 89.40625 C 6.222656 89.628906 6.769531 90.375 6.578125 91.113281 C 6.390625 92.074219 5.285156 92.605469 4.398438 92.3125 C 3.96875 92.183594 3.53125 91.914062 3.324219 91.519531 C 3.375 91.398438 3.355469 91.191406 3.414062 91.113281 C 3.832031 91.734375 4.722656 92.152344 5.421875 91.804688 C 6.183594 91.320312 6.0625 89.90625 5.144531 89.667969 L 5.070312 89.667969 L 5.054688 89.652344 L 4.316406 89.652344 L 4.316406 89.175781 C 4.769531 89.167969 5.332031 89.113281 5.585938 88.644531 C 5.859375 88.238281 5.832031 87.574219 5.316406 87.375 C 4.707031 87.136719 3.953125 87.527344 3.722656 88.144531 C 3.628906 88.011719 3.53125 87.875 3.4375 87.730469 C 3.761719 87.144531 4.453125 86.796875 5.121094 86.859375 Z M 5.121094 86.859375 Z M 5.121094 86.859375 "/>
<path style=" stroke:none;fill-rule:nonzero;fill:rgb(0%,0%,0%);fill-opacity:1;" d="M 10.246094 87.027344 L 10.246094 87.519531 L 8.183594 87.519531 L 8.167969 87.527344 L 8.167969 89.152344 C 8.359375 89.027344 8.628906 88.859375 8.882812 88.851562 C 9.777344 88.757812 10.46875 89.636719 10.507812 90.453125 C 10.636719 91.496094 9.660156 92.527344 8.613281 92.367188 C 8.085938 92.351562 7.578125 92.042969 7.277344 91.613281 C 7.367188 91.496094 7.4375 91.289062 7.539062 91.214844 C 7.914062 91.945312 9.121094 92.242188 9.605469 91.46875 C 9.914062 90.890625 9.90625 90.152344 9.546875 89.597656 C 9.136719 89.066406 8.316406 89.390625 8.128906 89.953125 L 7.613281 89.953125 L 7.613281 87.027344 Z M 10.246094 87.027344 Z M 10.246094 87.027344 "/>
<path style=" stroke:none;fill-rule:nonzero;fill:rgb(0%,0%,0%);fill-opacity:1;" d="M 5.921875 66.019531 L 5.921875 69.363281 L 5.9375 69.378906 L 6.722656 69.378906 L 6.722656 69.855469 L 5.9375 69.855469 L 5.921875 69.863281 L 5.921875 71.203125 L 5.316406 71.203125 L 5.316406 69.863281 L 5.300781 69.855469 L 3.207031 69.855469 L 3.207031 69.363281 C 3.875 68.25 4.539062 67.132812 5.207031 66.019531 Z M 5.921875 66.019531 Z M 5.332031 66.324219 C 5.175781 67.148438 4.667969 67.855469 4.285156 68.578125 C 4.136719 68.839844 3.9375 69.125 3.824219 69.378906 L 5.347656 69.378906 L 5.355469 69.363281 L 5.355469 66.324219 L 5.347656 66.308594 Z M 5.332031 66.324219 Z M 5.332031 66.324219 "/>
<path style=" stroke:none;fill-rule:nonzero;fill:rgb(0%,0%,0%);fill-opacity:1;" d="M 9.070312 65.855469 C 9.824219 65.910156 10.324219 66.601562 10.460938 67.300781 C 10.53125 67.617188 10.546875 67.917969 10.578125 68.234375 L 10.578125 69.046875 C 10.539062 69.871094 10.34375 70.957031 9.445312 71.292969 C 8.667969 71.601562 7.753906 71.117188 7.523438 70.324219 C 7.347656 69.902344 7.332031 69.472656 7.292969 69.046875 L 7.292969 68.234375 C 7.332031 67.410156 7.507812 66.316406 8.398438 65.949219 L 8.4375 65.933594 L 8.46875 65.925781 L 8.507812 65.910156 L 8.628906 65.878906 L 8.699219 65.863281 L 8.785156 65.863281 L 8.800781 65.855469 Z M 9.070312 65.855469 Z M 8.824219 66.339844 C 8.160156 66.417969 7.960938 67.21875 7.914062 67.757812 L 7.914062 67.972656 L 7.898438 67.988281 L 7.898438 69.09375 C 7.945312 69.664062 7.984375 70.402344 8.507812 70.785156 C 8.992188 71.117188 9.636719 70.742188 9.769531 70.226562 C 9.914062 69.847656 9.945312 69.472656 9.976562 69.09375 L 9.976562 67.988281 C 9.929688 67.410156 9.851562 66.601562 9.183594 66.371094 L 9.128906 66.355469 L 9.113281 66.339844 L 9.039062 66.339844 L 9.023438 66.324219 L 8.839844 66.324219 Z M 8.824219 66.339844 Z M 8.824219 66.339844 "/>
<path style=" stroke:none;fill-rule:nonzero;fill:rgb(0%,0%,0%);fill-opacity:1;" d="M 5.921875 45.015625 L 5.921875 48.359375 L 5.9375 48.375 L 6.722656 48.375 L 6.722656 48.851562 L 5.9375 48.851562 L 5.921875 48.859375 L 5.921875 50.199219 L 5.316406 50.199219 L 5.316406 48.859375 L 5.300781 48.851562 L 3.207031 48.851562 L 3.207031 48.359375 C 3.875 47.246094 4.539062 46.128906 5.207031 45.015625 Z M 5.921875 45.015625 Z M 5.332031 45.320312 C 5.175781 46.144531 4.667969 46.851562 4.285156 47.574219 C 4.136719 47.835938 3.9375 48.121094 3.824219 48.375 L 5.347656 48.375 L 5.355469 48.359375 L 5.355469 45.320312 L 5.347656 45.300781 Z M 5.332031 45.320312 Z M 5.332031 45.320312 "/>
<path style=" stroke:none;fill-rule:nonzero;fill:rgb(0%,0%,0%);fill-opacity:1;" d="M 10.246094 45.015625 L 10.246094 45.507812 L 8.183594 45.507812 L 8.167969 45.515625 L 8.167969 47.144531 C 8.359375 47.015625 8.628906 46.851562 8.882812 46.84375 C 9.777344 46.746094 10.46875 47.628906 10.507812 48.445312 C 10.636719 49.484375 9.660156 50.515625 8.613281 50.359375 C 8.085938 50.34375 7.578125 50.03125 7.277344 49.605469 C 7.367188 49.484375 7.4375 49.277344 7.539062 49.207031 C 7.914062 49.9375 9.121094 50.230469 9.605469 49.460938 C 9.914062 48.882812 9.90625 48.144531 9.546875 47.589844 C 9.136719 47.058594 8.316406 47.382812 8.128906 47.945312 L 7.613281 47.945312 L 7.613281 45.015625 Z M 10.246094 45.015625 Z M 10.246094 45.015625 "/>
<path style=" stroke:none;fill-rule:nonzero;fill:rgb(0%,0%,0%);fill-opacity:1;" d="M 6.277344 24.011719 L 6.277344 24.503906 L 4.214844 24.503906 L 4.199219 24.511719 L 4.199219 26.140625 C 4.390625 26.011719 4.660156 25.847656 4.914062 25.839844 C 5.808594 25.742188 6.5 26.625 6.539062 27.441406 C 6.667969 28.480469 5.691406 29.511719 4.644531 29.355469 C 4.121094 29.339844 3.609375 29.027344 3.308594 28.601562 C 3.398438 28.480469 3.46875 28.273438 3.570312 28.203125 C 3.945312 28.933594 5.152344 29.226562 5.636719 28.457031 C 5.945312 27.878906 5.9375 27.140625 5.578125 26.585938 C 5.167969 26.050781 4.347656 26.378906 4.160156 26.941406 L 3.644531 26.941406 L 3.644531 24.011719 Z M 6.277344 24.011719 Z M 6.277344 24.011719 "/>
<path style=" stroke:none;fill-rule:nonzero;fill:rgb(0%,0%,0%);fill-opacity:1;" d="M 9.070312 23.847656 C 9.824219 23.902344 10.324219 24.59375 10.460938 25.289062 C 10.53125 25.609375 10.546875 25.910156 10.578125 26.226562 L 10.578125 27.035156 C 10.539062 27.863281 10.34375 28.949219 9.445312 29.28125 C 8.667969 29.59375 7.753906 29.109375 7.523438 28.3125 C 7.347656 27.894531 7.332031 27.464844 7.292969 27.035156 L 7.292969 26.226562 C 7.332031 25.402344 7.507812 24.304688 8.398438 23.941406 L 8.4375 23.925781 L 8.46875 23.917969 L 8.507812 23.902344 L 8.628906 23.871094 L 8.699219 23.855469 L 8.785156 23.855469 L 8.800781 23.847656 Z M 9.070312 23.847656 Z M 8.824219 24.328125 C 8.160156 24.410156 7.960938 25.210938 7.914062 25.75 L 7.914062 25.964844 L 7.898438 25.980469 L 7.898438 27.085938 C 7.945312 27.65625 7.984375 28.394531 8.507812 28.773438 C 8.992188 29.109375 9.636719 28.734375 9.769531 28.21875 C 9.914062 27.839844 9.945312 27.464844 9.976562 27.085938 L 9.976562 25.980469 C 9.929688 25.402344 9.851562 24.59375 9.183594 24.363281 L 9.128906 24.347656 L 9.113281 24.328125 L 9.039062 24.328125 L 9.023438 24.3125 L 8.839844 24.3125 Z M 8.824219 24.328125 Z M 8.824219 24.328125 "/>
<path style=" stroke:none;fill-rule:nonzero;fill:rgb(0%,0%,0%);fill-opacity:1;" d="M 6.277344 3.007812 L 6.277344 3.5 L 4.214844 3.5 L 4.199219 3.507812 L 4.199219 5.136719 C 4.390625 5.007812 4.660156 4.839844 4.914062 4.832031 C 5.808594 4.738281 6.5 5.621094 6.539062 6.4375 C 6.667969 7.476562 5.691406 8.507812 4.644531 8.351562 C 4.121094 8.332031 3.609375 8.023438 3.308594 7.59375 C 3.398438 7.476562 3.46875 7.269531 3.570312 7.199219 C 3.945312 7.929688 5.152344 8.222656 5.636719 7.453125 C 5.945312 6.875 5.9375 6.136719 5.578125 5.578125 C 5.167969 5.046875 4.347656 5.375 4.160156 5.9375 L 3.644531 5.9375 L 3.644531 3.007812 Z M 6.277344 3.007812 Z M 6.277344 3.007812 "/>
<path style=" stroke:none;fill-rule:nonzero;fill:rgb(0%,0%,0%);fill-opacity:1;" d="M 10.246094 3.007812 L 10.246094 3.5 L 8.183594 3.5 L 8.167969 3.507812 L 8.167969 5.136719 C 8.359375 5.007812 8.628906 4.839844 8.882812 4.832031 C 9.777344 4.738281 10.46875 5.621094 10.507812 6.4375 C 10.636719 7.476562 9.660156 8.507812 8.613281 8.351562 C 8.085938 8.332031 7.578125 8.023438 7.277344 7.59375 C 7.367188 7.476562 7.4375 7.269531 7.539062 7.199219 C 7.914062 7.929688 9.121094 8.222656 9.605469 7.453125 C 9.914062 6.875 9.90625 6.136719 9.546875 5.578125 C 9.136719 5.046875 8.316406 5.375 8.128906 5.9375 L 7.613281 5.9375 L 7.613281 3.007812 Z M 10.246094 3.007812 Z M 10.246094 3.007812 "/>
<path style="fill:none;stroke-width:0.02;stroke-linecap:butt;stroke-linejoin:miter;stroke:rgb(0%,0%,0%);stroke-opacity:1;stroke-miterlimit:10;" d="M 9.751274 1.16934 L 9.646267 1.16934 " transform="matrix(28.346457,0,0,-28.346457,1,227.771654)"/>
<path style="fill:none;stroke-width:0.02;stroke-linecap:butt;stroke-linejoin:miter;stroke:rgb(0%,0%,0%);stroke-opacity:1;stroke-miterlimit:10;" d="M 9.751274 1.910311 L 9.646267 1.910311 " transform="matrix(28.346457,0,0,-28.346457,1,227.771654)"/>
<path style="fill:none;stroke-width:0.02;stroke-linecap:butt;stroke-linejoin:miter;stroke:rgb(0%,0%,0%);stroke-opacity:1;stroke-miterlimit:10;" d="M 9.751274 2.65142 L 9.646267 2.65142 " transform="matrix(28.346457,0,0,-28.346457,1,227.771654)"/>
<path style="fill:none;stroke-width:0.02;stroke-linecap:butt;stroke-linejoin:miter;stroke:rgb(0%,0%,0%);stroke-opacity:1;stroke-miterlimit:10;" d="M 9.751274 3.392391 L 9.646267 3.392391 " transform="matrix(28.346457,0,0,-28.346457,1,227.771654)"/>
<path style="fill:none;stroke-width:0.02;stroke-linecap:butt;stroke-linejoin:miter;stroke:rgb(0%,0%,0%);stroke-opacity:1;stroke-miterlimit:10;" d="M 9.751274 4.133363 L 9.646267 4.133363 " transform="matrix(28.346457,0,0,-28.346457,1,227.771654)"/>
<path style="fill:none;stroke-width:0.02;stroke-linecap:butt;stroke-linejoin:miter;stroke:rgb(0%,0%,0%);stroke-opacity:1;stroke-miterlimit:10;" d="M 9.751274 4.874334 L 9.646267 4.874334 " transform="matrix(28.346457,0,0,-28.346457,1,227.771654)"/>
<path style="fill:none;stroke-width:0.02;stroke-linecap:butt;stroke-linejoin:miter;stroke:rgb(0%,0%,0%);stroke-opacity:1;stroke-miterlimit:10;" d="M 9.751274 5.615305 L 9.646267 5.615305 " transform="matrix(28.346457,0,0,-28.346457,1,227.771654)"/>
<path style="fill:none;stroke-width:0.02;stroke-linecap:butt;stroke-linejoin:miter;stroke:rgb(0%,0%,0%);stroke-opacity:1;stroke-miterlimit:10;" d="M 9.751274 6.356276 L 9.646267 6.356276 " transform="matrix(28.346457,0,0,-28.346457,1,227.771654)"/>
<path style="fill:none;stroke-width:0.02;stroke-linecap:butt;stroke-linejoin:miter;stroke:rgb(0%,0%,0%);stroke-opacity:1;stroke-miterlimit:10;" d="M 9.751274 7.097247 L 9.646267 7.097247 " transform="matrix(28.346457,0,0,-28.346457,1,227.771654)"/>
<path style="fill:none;stroke-width:0.02;stroke-linecap:round;stroke-linejoin:miter;stroke:rgb(0%,0%,0%);stroke-opacity:1;stroke-miterlimit:10;" d="M 9.751274 0.428369 L 9.751274 7.838356 " transform="matrix(28.346457,0,0,-28.346457,1,227.771654)"/>
<path style="fill:none;stroke-width:0.02;stroke-linecap:butt;stroke-linejoin:miter;stroke:rgb(0%,0%,0%);stroke-opacity:1;stroke-miterlimit:10;" d="M 2.062648 0.428369 L 2.062648 0.533376 " transform="matrix(28.346457,0,0,-28.346457,1,227.771654)"/>
<path style="fill:none;stroke-width:0.02;stroke-linecap:butt;stroke-linejoin:miter;stroke:rgb(0%,0%,0%);stroke-opacity:1;stroke-miterlimit:10;" d="M 3.6004 0.428369 L 3.6004 0.533376 " transform="matrix(28.346457,0,0,-28.346457,1,227.771654)"/>
<path style="fill:none;stroke-width:0.02;stroke-linecap:butt;stroke-linejoin:miter;stroke:rgb(0%,0%,0%);stroke-opacity:1;stroke-miterlimit:10;" d="M 5.138153 0.428369 L 5.138153 0.533376 " transform="matrix(28.346457,0,0,-28.346457,1,227.771654)"/>
<path style="fill:none;stroke-width:0.02;stroke-linecap:butt;stroke-linejoin:miter;stroke:rgb(0%,0%,0%);stroke-opacity:1;stroke-miterlimit:10;" d="M 6.675768 0.428369 L 6.675768 0.533376 " transform="matrix(28.346457,0,0,-28.346457,1,227.771654)"/>
<path style="fill:none;stroke-width:0.02;stroke-linecap:butt;stroke-linejoin:miter;stroke:rgb(0%,0%,0%);stroke-opacity:1;stroke-miterlimit:10;" d="M 8.213521 0.428369 L 8.213521 0.533376 " transform="matrix(28.346457,0,0,-28.346457,1,227.771654)"/>
<path style="fill:none;stroke-width:0.02;stroke-linecap:round;stroke-linejoin:miter;stroke:rgb(0%,0%,0%);stroke-opacity:1;stroke-miterlimit:10;" d="M 0.525033 0.428369 L 9.751274 0.428369 " transform="matrix(28.346457,0,0,-28.346457,1,227.771654)"/>
<path style=" stroke:none;fill-rule:nonzero;fill:rgb(0%,0%,0%);fill-opacity:1;" d="M 12.933594 220.445312 C 13.6875 220.5 14.1875 221.191406 14.324219 221.890625 C 14.394531 222.207031 14.410156 222.507812 14.441406 222.828125 L 14.441406 223.636719 C 14.402344 224.460938 14.203125 225.550781 13.304688 225.882812 C 12.527344 226.191406 11.617188 225.707031 11.386719 224.914062 C 11.210938 224.492188 11.195312 224.066406 11.15625 223.636719 L 11.15625 222.828125 C 11.195312 222 11.371094 220.90625 12.257812 220.542969 L 12.296875 220.523438 L 12.332031 220.515625 L 12.371094 220.5 L 12.488281 220.46875 L 12.558594 220.453125 L 12.648438 220.453125 L 12.664062 220.445312 Z M 12.933594 220.445312 Z M 12.6875 220.929688 C 12.019531 221.007812 11.820312 221.8125 11.773438 222.351562 L 11.773438 222.566406 L 11.757812 222.582031 L 11.757812 223.683594 C 11.804688 224.253906 11.847656 224.992188 12.371094 225.375 C 12.855469 225.707031 13.496094 225.335938 13.632812 224.820312 C 13.773438 224.4375 13.804688 224.066406 13.839844 223.683594 L 13.839844 222.582031 C 13.789062 222 13.710938 221.191406 13.042969 220.960938 L 12.988281 220.945312 L 12.972656 220.929688 L 12.902344 220.929688 L 12.886719 220.914062 L 12.703125 220.914062 Z M 12.6875 220.929688 Z M 12.6875 220.929688 "/>
<path style=" stroke:none;fill-rule:nonzero;fill:rgb(0%,0%,0%);fill-opacity:1;" d="M 16.210938 225.160156 L 16.210938 225.796875 L 15.570312 225.796875 L 15.570312 225.160156 Z M 16.210938 225.160156 Z M 16.210938 225.160156 "/>
<path style=" stroke:none;fill-rule:nonzero;fill:rgb(0%,0%,0%);fill-opacity:1;" d="M 20.273438 220.613281 L 20.273438 221.105469 L 18.210938 221.105469 L 18.195312 221.113281 L 18.195312 222.738281 C 18.386719 222.613281 18.65625 222.445312 18.910156 222.4375 C 19.808594 222.34375 20.496094 223.222656 20.535156 224.042969 C 20.664062 225.082031 19.6875 226.113281 18.640625 225.953125 C 18.117188 225.9375 17.609375 225.628906 17.304688 225.199219 C 17.394531 225.082031 17.464844 224.875 17.570312 224.804688 C 17.941406 225.535156 19.148438 225.828125 19.632812 225.058594 C 19.941406 224.476562 19.933594 223.738281 19.578125 223.183594 C 19.164062 222.652344 18.347656 222.976562 18.15625 223.542969 L 17.640625 223.542969 L 17.640625 220.613281 Z M 20.273438 220.613281 Z M 20.273438 220.613281 "/>
<path style=" stroke:none;fill-rule:nonzero;fill:rgb(0%,0%,0%);fill-opacity:1;" d="M 56.769531 220.445312 L 56.769531 225.34375 L 56.777344 225.359375 L 57.753906 225.359375 L 57.753906 225.796875 L 55.171875 225.796875 L 55.171875 225.359375 L 56.148438 225.359375 L 56.164062 225.34375 L 56.164062 221.230469 C 55.832031 221.34375 55.480469 221.414062 55.132812 221.40625 L 55.132812 220.960938 C 55.65625 220.96875 56.226562 220.828125 56.625 220.445312 Z M 56.769531 220.445312 Z M 56.769531 220.445312 "/>
<path style=" stroke:none;fill-rule:nonzero;fill:rgb(0%,0%,0%);fill-opacity:1;" d="M 59.800781 225.160156 L 59.800781 225.796875 L 59.15625 225.796875 L 59.15625 225.160156 Z M 59.800781 225.160156 Z M 59.800781 225.160156 "/>
<path style=" stroke:none;fill-rule:nonzero;fill:rgb(0%,0%,0%);fill-opacity:1;" d="M 62.6875 220.445312 C 63.441406 220.5 63.941406 221.191406 64.078125 221.890625 C 64.148438 222.207031 64.164062 222.507812 64.195312 222.828125 L 64.195312 223.636719 C 64.15625 224.460938 63.957031 225.550781 63.0625 225.882812 C 62.285156 226.191406 61.371094 225.707031 61.140625 224.914062 C 60.964844 224.492188 60.949219 224.066406 60.910156 223.636719 L 60.910156 222.828125 C 60.949219 222 61.125 220.90625 62.015625 220.542969 L 62.054688 220.523438 L 62.085938 220.515625 L 62.125 220.5 L 62.246094 220.46875 L 62.316406 220.453125 L 62.402344 220.453125 L 62.417969 220.445312 Z M 62.6875 220.445312 Z M 62.441406 220.929688 C 61.777344 221.007812 61.578125 221.8125 61.53125 222.351562 L 61.53125 222.566406 L 61.515625 222.582031 L 61.515625 223.683594 C 61.5625 224.253906 61.601562 224.992188 62.125 225.375 C 62.609375 225.707031 63.253906 225.335938 63.386719 224.820312 C 63.53125 224.4375 63.5625 224.066406 63.59375 223.683594 L 63.59375 222.582031 C 63.546875 222 63.464844 221.191406 62.800781 220.960938 L 62.746094 220.945312 L 62.726562 220.929688 L 62.65625 220.929688 L 62.640625 220.914062 L 62.457031 220.914062 Z M 62.441406 220.929688 Z M 62.441406 220.929688 "/>
<path style=" stroke:none;fill-rule:nonzero;fill:rgb(0%,0%,0%);fill-opacity:1;" d="M 100.355469 220.445312 L 100.355469 225.34375 L 100.363281 225.359375 L 101.339844 225.359375 L 101.339844 225.796875 L 98.761719 225.796875 L 98.761719 225.359375 L 99.738281 225.359375 L 99.753906 225.34375 L 99.753906 221.230469 C 99.417969 221.34375 99.070312 221.414062 98.722656 221.40625 L 98.722656 220.960938 C 99.246094 220.96875 99.816406 220.828125 100.214844 220.445312 Z M 100.355469 220.445312 Z M 100.355469 220.445312 "/>
<path style=" stroke:none;fill-rule:nonzero;fill:rgb(0%,0%,0%);fill-opacity:1;" d="M 103.386719 225.160156 L 103.386719 225.796875 L 102.746094 225.796875 L 102.746094 225.160156 Z M 103.386719 225.160156 Z M 103.386719 225.160156 "/>
<path style=" stroke:none;fill-rule:nonzero;fill:rgb(0%,0%,0%);fill-opacity:1;" d="M 107.453125 220.613281 L 107.453125 221.105469 L 105.386719 221.105469 L 105.371094 221.113281 L 105.371094 222.738281 C 105.5625 222.613281 105.832031 222.445312 106.085938 222.4375 C 106.984375 222.34375 107.675781 223.222656 107.714844 224.042969 C 107.839844 225.082031 106.863281 226.113281 105.816406 225.953125 C 105.292969 225.9375 104.785156 225.628906 104.484375 225.199219 C 104.570312 225.082031 104.640625 224.875 104.746094 224.804688 C 105.117188 225.535156 106.324219 225.828125 106.808594 225.058594 C 107.117188 224.476562 107.109375 223.738281 106.753906 223.183594 C 106.339844 222.652344 105.523438 222.976562 105.332031 223.542969 L 104.816406 223.542969 L 104.816406 220.613281 Z M 107.453125 220.613281 Z M 107.453125 220.613281 "/>
<path style=" stroke:none;fill-rule:nonzero;fill:rgb(0%,0%,0%);fill-opacity:1;" d="M 143.609375 220.445312 C 144.53125 220.46875 145.261719 221.414062 145.121094 222.304688 C 145.023438 223.191406 144.191406 223.699219 143.59375 224.253906 L 143.339844 224.515625 L 143.308594 224.535156 L 142.992188 224.84375 L 142.96875 224.859375 L 142.652344 225.175781 L 142.621094 225.191406 L 142.546875 225.261719 L 142.5625 225.273438 L 145.136719 225.273438 L 145.136719 225.796875 L 141.992188 225.796875 L 141.992188 225.320312 L 143.269531 224.042969 C 143.882812 223.507812 144.59375 222.820312 144.484375 221.945312 C 144.421875 221.4375 143.992188 220.96875 143.46875 220.929688 C 142.9375 220.851562 142.46875 221.269531 142.347656 221.777344 L 142.332031 221.804688 L 142.316406 221.859375 L 142.292969 221.945312 L 142.246094 222.121094 L 142.238281 222.160156 C 142.128906 222.023438 142.007812 221.882812 141.921875 221.730469 C 142.078125 221.082031 142.601562 220.46875 143.292969 220.445312 Z M 143.609375 220.445312 Z M 143.609375 220.445312 "/>
<path style=" stroke:none;fill-rule:nonzero;fill:rgb(0%,0%,0%);fill-opacity:1;" d="M 146.976562 225.160156 L 146.976562 225.796875 L 146.332031 225.796875 L 146.332031 225.160156 Z M 146.976562 225.160156 Z M 146.976562 225.160156 "/>
<path style=" stroke:none;fill-rule:nonzero;fill:rgb(0%,0%,0%);fill-opacity:1;" d="M 149.867188 220.445312 C 150.621094 220.5 151.121094 221.191406 151.253906 221.890625 C 151.324219 222.207031 151.34375 222.507812 151.375 222.828125 L 151.375 223.636719 C 151.335938 224.460938 151.136719 225.550781 150.238281 225.882812 C 149.460938 226.191406 148.546875 225.707031 148.316406 224.914062 C 148.144531 224.492188 148.128906 224.066406 148.085938 223.636719 L 148.085938 222.828125 C 148.128906 222 148.300781 220.90625 149.191406 220.542969 L 149.230469 220.523438 L 149.261719 220.515625 L 149.300781 220.5 L 149.421875 220.46875 L 149.492188 220.453125 L 149.578125 220.453125 L 149.597656 220.445312 Z M 149.867188 220.445312 Z M 149.621094 220.929688 C 148.953125 221.007812 148.753906 221.8125 148.707031 222.351562 L 148.707031 222.566406 L 148.691406 222.582031 L 148.691406 223.683594 C 148.738281 224.253906 148.777344 224.992188 149.300781 225.375 C 149.785156 225.707031 150.429688 225.335938 150.5625 224.820312 C 150.707031 224.4375 150.738281 224.066406 150.769531 223.683594 L 150.769531 222.582031 C 150.722656 222 150.644531 221.191406 149.976562 220.960938 L 149.921875 220.945312 L 149.90625 220.929688 L 149.832031 220.929688 L 149.816406 220.914062 L 149.636719 220.914062 Z M 149.621094 220.929688 Z M 149.621094 220.929688 "/>
<path style=" stroke:none;fill-rule:nonzero;fill:rgb(0%,0%,0%);fill-opacity:1;" d="M 187.199219 220.445312 C 188.121094 220.46875 188.851562 221.414062 188.707031 222.304688 C 188.613281 223.191406 187.777344 223.699219 187.183594 224.253906 L 186.929688 224.515625 L 186.898438 224.535156 L 186.582031 224.84375 L 186.558594 224.859375 L 186.238281 225.175781 L 186.207031 225.191406 L 186.136719 225.261719 L 186.152344 225.273438 L 188.722656 225.273438 L 188.722656 225.796875 L 185.582031 225.796875 L 185.582031 225.320312 L 186.859375 224.042969 C 187.46875 223.507812 188.183594 222.820312 188.074219 221.945312 C 188.007812 221.4375 187.582031 220.96875 187.058594 220.929688 C 186.523438 220.851562 186.058594 221.269531 185.9375 221.777344 L 185.921875 221.804688 L 185.90625 221.859375 L 185.882812 221.945312 L 185.835938 222.121094 L 185.828125 222.160156 C 185.714844 222.023438 185.597656 221.882812 185.507812 221.730469 C 185.667969 221.082031 186.191406 220.46875 186.882812 220.445312 Z M 187.199219 220.445312 Z M 187.199219 220.445312 "/>
<path style=" stroke:none;fill-rule:nonzero;fill:rgb(0%,0%,0%);fill-opacity:1;" d="M 190.566406 225.160156 L 190.566406 225.796875 L 189.921875 225.796875 L 189.921875 225.160156 Z M 190.566406 225.160156 Z M 190.566406 225.160156 "/>
<path style=" stroke:none;fill-rule:nonzero;fill:rgb(0%,0%,0%);fill-opacity:1;" d="M 194.628906 220.613281 L 194.628906 221.105469 L 192.566406 221.105469 L 192.550781 221.113281 L 192.550781 222.738281 C 192.738281 222.613281 193.007812 222.445312 193.261719 222.4375 C 194.160156 222.34375 194.851562 223.222656 194.890625 224.042969 C 195.019531 225.082031 194.042969 226.113281 192.992188 225.953125 C 192.46875 225.9375 191.960938 225.628906 191.660156 225.199219 C 191.746094 225.082031 191.820312 224.875 191.921875 224.804688 C 192.296875 225.535156 193.5 225.828125 193.984375 225.058594 C 194.296875 224.476562 194.289062 223.738281 193.929688 223.183594 C 193.519531 222.652344 192.699219 222.976562 192.507812 223.542969 L 191.992188 223.542969 L 191.992188 220.613281 Z M 194.628906 220.613281 Z M 194.628906 220.613281 "/>
<path style=" stroke:none;fill-rule:nonzero;fill:rgb(0%,0%,0%);fill-opacity:1;" d="M 230.890625 220.445312 C 231.589844 220.476562 232.320312 221.121094 232.152344 221.859375 C 232.074219 222.359375 231.726562 222.769531 231.289062 222.992188 C 231.996094 223.214844 232.542969 223.960938 232.351562 224.699219 C 232.160156 225.660156 231.058594 226.191406 230.167969 225.898438 C 229.742188 225.773438 229.304688 225.5 229.097656 225.105469 C 229.144531 224.984375 229.128906 224.78125 229.183594 224.699219 C 229.605469 225.320312 230.496094 225.738281 231.191406 225.390625 C 231.953125 224.90625 231.835938 223.492188 230.914062 223.253906 L 230.84375 223.253906 L 230.828125 223.238281 L 230.089844 223.238281 L 230.089844 222.761719 C 230.542969 222.753906 231.105469 222.699219 231.359375 222.230469 C 231.628906 221.828125 231.605469 221.160156 231.089844 220.960938 C 230.480469 220.722656 229.726562 221.113281 229.496094 221.730469 C 229.398438 221.597656 229.304688 221.460938 229.207031 221.320312 C 229.535156 220.730469 230.226562 220.382812 230.890625 220.445312 Z M 230.890625 220.445312 Z M 230.890625 220.445312 "/>
<path style=" stroke:none;fill-rule:nonzero;fill:rgb(0%,0%,0%);fill-opacity:1;" d="M 234.152344 225.160156 L 234.152344 225.796875 L 233.511719 225.796875 L 233.511719 225.160156 Z M 234.152344 225.160156 Z M 234.152344 225.160156 "/>
<path style=" stroke:none;fill-rule:nonzero;fill:rgb(0%,0%,0%);fill-opacity:1;" d="M 237.042969 220.445312 C 237.796875 220.5 238.296875 221.191406 238.429688 221.890625 C 238.503906 222.207031 238.519531 222.507812 238.550781 222.828125 L 238.550781 223.636719 C 238.511719 224.460938 238.3125 225.550781 237.414062 225.882812 C 236.636719 226.191406 235.726562 225.707031 235.496094 224.914062 C 235.320312 224.492188 235.304688 224.066406 235.265625 223.636719 L 235.265625 222.828125 C 235.304688 222 235.480469 220.90625 236.367188 220.542969 L 236.40625 220.523438 L 236.4375 220.515625 L 236.480469 220.5 L 236.597656 220.46875 L 236.667969 220.453125 L 236.757812 220.453125 L 236.773438 220.445312 Z M 237.042969 220.445312 Z M 236.796875 220.929688 C 236.128906 221.007812 235.929688 221.8125 235.882812 222.351562 L 235.882812 222.566406 L 235.867188 222.582031 L 235.867188 223.683594 C 235.914062 224.253906 235.957031 224.992188 236.480469 225.375 C 236.964844 225.707031 237.605469 225.335938 237.742188 224.820312 C 237.882812 224.4375 237.914062 224.066406 237.949219 223.683594 L 237.949219 222.582031 C 237.898438 222 237.820312 221.191406 237.152344 220.960938 L 237.097656 220.945312 L 237.082031 220.929688 L 237.011719 220.929688 L 236.996094 220.914062 L 236.8125 220.914062 Z M 236.796875 220.929688 Z M 236.796875 220.929688 "/>
<path style=" stroke:none;fill-rule:nonzero;fill:rgb(0%,0%,0%);fill-opacity:1;" d="M 274.480469 220.445312 C 275.179688 220.476562 275.910156 221.121094 275.742188 221.859375 C 275.664062 222.359375 275.3125 222.769531 274.875 222.992188 C 275.582031 223.214844 276.128906 223.960938 275.941406 224.699219 C 275.75 225.660156 274.648438 226.191406 273.757812 225.898438 C 273.328125 225.773438 272.890625 225.5 272.6875 225.105469 C 272.734375 224.984375 272.71875 224.78125 272.773438 224.699219 C 273.195312 225.320312 274.082031 225.738281 274.78125 225.390625 C 275.542969 224.90625 275.425781 223.492188 274.503906 223.253906 L 274.433594 223.253906 L 274.417969 223.238281 L 273.679688 223.238281 L 273.679688 222.761719 C 274.128906 222.753906 274.695312 222.699219 274.949219 222.230469 C 275.21875 221.828125 275.195312 221.160156 274.679688 220.960938 C 274.066406 220.722656 273.3125 221.113281 273.082031 221.730469 C 272.988281 221.597656 272.890625 221.460938 272.796875 221.320312 C 273.121094 220.730469 273.8125 220.382812 274.480469 220.445312 Z M 274.480469 220.445312 Z M 274.480469 220.445312 "/>
<path style=" stroke:none;fill-rule:nonzero;fill:rgb(0%,0%,0%);fill-opacity:1;" d="M 277.742188 225.160156 L 277.742188 225.796875 L 277.097656 225.796875 L 277.097656 225.160156 Z M 277.742188 225.160156 Z M 277.742188 225.160156 "/>
<path style=" stroke:none;fill-rule:nonzero;fill:rgb(0%,0%,0%);fill-opacity:1;" d="M 281.804688 220.613281 L 281.804688 221.105469 L 279.742188 221.105469 L 279.726562 221.113281 L 279.726562 222.738281 C 279.917969 222.613281 280.1875 222.445312 280.441406 222.4375 C 281.335938 222.34375 282.027344 223.222656 282.066406 224.042969 C 282.195312 225.082031 281.21875 226.113281 280.171875 225.953125 C 279.648438 225.9375 279.140625 225.628906 278.835938 225.199219 C 278.925781 225.082031 278.996094 224.875 279.097656 224.804688 C 279.472656 225.535156 280.679688 225.828125 281.164062 225.058594 C 281.472656 224.476562 281.464844 223.738281 281.105469 223.183594 C 280.695312 222.652344 279.878906 222.976562 279.6875 223.542969 L 279.171875 223.542969 L 279.171875 220.613281 Z M 281.804688 220.613281 Z M 281.804688 220.613281 "/>
<path style="fill:none;stroke-width:0.02;stroke-linecap:butt;stroke-linejoin:miter;stroke:rgb(0%,0%,0%);stroke-opacity:1;stroke-miterlimit:10;" d="M 2.062648 7.838356 L 2.062648 7.73335 " transform="matrix(28.346457,0,0,-28.346457,1,227.771654)"/>
<path style="fill:none;stroke-width:0.02;stroke-linecap:butt;stroke-linejoin:miter;stroke:rgb(0%,0%,0%);stroke-opacity:1;stroke-miterlimit:10;" d="M 3.6004 7.838356 L 3.6004 7.73335 " transform="matrix(28.346457,0,0,-28.346457,1,227.771654)"/>
<path style="fill:none;stroke-width:0.02;stroke-linecap:butt;stroke-linejoin:miter;stroke:rgb(0%,0%,0%);stroke-opacity:1;stroke-miterlimit:10;" d="M 5.138153 7.838356 L 5.138153 7.73335 " transform="matrix(28.346457,0,0,-28.346457,1,227.771654)"/>
<path style="fill:none;stroke-width:0.02;stroke-linecap:butt;stroke-linejoin:miter;stroke:rgb(0%,0%,0%);stroke-opacity:1;stroke-miterlimit:10;" d="M 6.675768 7.838356 L 6.675768 7.73335 " transform="matrix(28.346457,0,0,-28.346457,1,227.771654)"/>
<path style="fill:none;stroke-width:0.02;stroke-linecap:butt;stroke-linejoin:miter;stroke:rgb(0%,0%,0%);stroke-opacity:1;stroke-miterlimit:10;" d="M 8.213521 7.838356 L 8.213521 7.73335 " transform="matrix(28.346457,0,0,-28.346457,1,227.771654)"/>
<path style="fill:none;stroke-width:0.02;stroke-linecap:round;stroke-linejoin:miter;stroke:rgb(0%,0%,0%);stroke-opacity:1;stroke-miterlimit:10;" d="M 0.525033 7.838356 L 9.751274 7.838356 " transform="matrix(28.346457,0,0,-28.346457,1,227.771654)"/>
</g>
</svg>
