<?xml version="1.0" encoding="UTF-8"?>
<svg xmlns="http://www.w3.org/2000/svg" xmlns:xlink="http://www.w3.org/1999/xlink" width="285.464567pt" height="228.771654pt" viewBox="0 0 285.464567 228.771654" version="1.1">
<g id="surface1">
<path style="fill:none;stroke-width:0.02;stroke-linecap:butt;stroke-linejoin:miter;stroke:rgb(0%,0%,0%);stroke-opacity:1;stroke-miterlimit:10;" d="M 0.602616 1.663367 L 0.707623 1.663367 " transform="matrix(28.346457,0,0,-28.346457,1,227.771654)"/>
<path style="fill:none;stroke-width:0.02;stroke-linecap:butt;stroke-linejoin:miter;stroke:rgb(0%,0%,0%);stroke-opacity:1;stroke-miterlimit:10;" d="M 0.602616 2.898365 L 0.707623 2.898365 " transform="matrix(28.346457,0,0,-28.346457,1,227.771654)"/>
<path style="fill:none;stroke-width:0.02;stroke-linecap:butt;stroke-linejoin:miter;stroke:rgb(0%,0%,0%);stroke-opacity:1;stroke-miterlimit:10;" d="M 0.602616 4.133363 L 0.707623 4.133363 " transform="matrix(28.346457,0,0,-28.346457,1,227.771654)"/>
<path style="fill:none;stroke-width:0.02;stroke-linecap:butt;stroke-linejoin:miter;stroke:rgb(0%,0%,0%);stroke-opacity:1;stroke-miterlimit:10;" d="M 0.602616 5.36836 L 0.707623 5.36836 " transform="matrix(28.346457,0,0,-28.346457,1,227.771654)"/>
<path style="fill:none;stroke-width:0.02;stroke-linecap:butt;stroke-linejoin:miter;stroke:rgb(0%,0%,0%);stroke-opacity:1;stroke-miterlimit:10;" d="M 0.602616 6.603358 L 0.707623 6.603358 " transform="matrix(28.346457,0,0,-28.346457,1,227.771654)"/>
<path style="fill:none;stroke-width:0.02;stroke-linecap:round;stroke-linejoin:miter;stroke:rgb(0%,0%,0%);stroke-opacity:1;stroke-miterlimit:10;" d="M 0.602616 0.428369 L 0.602616 7.838356 " transform="matrix(28.346457,0,0,-28.346457,1,227.771654)"/>
<path style=" stroke:none;fill-rule:nonzero;fill:rgb(0%,0%,0%);fill-opacity:1;" d="M 5.101562 212.886719 C 5.859375 212.941406 6.359375 213.632812 6.492188 214.332031 C 6.5625 214.648438 6.578125 214.949219 6.613281 215.265625 L 6.613281 216.078125 C 6.570312 216.902344 6.375 217.988281 5.476562 218.324219 C 4.699219 218.632812 3.785156 218.148438 3.554688 217.355469 C 3.382812 216.933594 3.363281 216.503906 3.324219 216.078125 L 3.324219 215.265625 C 3.363281 214.441406 3.539062 213.347656 4.429688 212.980469 L 4.46875 212.964844 L 4.5 212.957031 L 4.539062 212.941406 L 4.660156 212.910156 L 4.730469 212.894531 L 4.816406 212.894531 L 4.832031 212.886719 Z M 5.101562 212.886719 Z M 4.855469 213.371094 C 4.191406 213.449219 3.992188 214.25 3.945312 214.789062 L 3.945312 215.003906 L 3.929688 215.019531 L 3.929688 216.125 C 3.976562 216.695312 4.015625 217.433594 4.539062 217.816406 C 5.023438 218.148438 5.667969 217.773438 5.800781 217.257812 C 5.945312 216.878906 5.976562 216.503906 6.007812 216.125 L 6.007812 215.019531 C 5.960938 214.441406 5.882812 213.632812 5.214844 213.402344 L 5.160156 213.386719 L 5.144531 213.371094 L 5.070312 213.371094 L 5.054688 213.355469 L 4.875 213.355469 Z M 4.855469 213.371094 Z M 4.855469 213.371094 "/>
<path style=" stroke:none;fill-rule:nonzero;fill:rgb(0%,0%,0%);fill-opacity:1;" d="M 8.382812 217.601562 L 8.382812 218.234375 L 7.738281 218.234375 L 7.738281 217.601562 Z M 8.382812 217.601562 Z M 8.382812 217.601562 "/>
<path style=" stroke:none;fill-rule:nonzero;fill:rgb(0%,0%,0%);fill-opacity:1;" d="M 11.269531 212.886719 C 12.023438 212.941406 12.523438 213.632812 12.660156 214.332031 C 12.730469 214.648438 12.746094 214.949219 12.777344 215.265625 L 12.777344 216.078125 C 12.738281 216.902344 12.539062 217.988281 11.644531 218.324219 C 10.867188 218.632812 9.953125 218.148438 9.722656 217.355469 C 9.546875 216.933594 9.53125 216.503906 9.492188 216.078125 L 9.492188 215.265625 C 9.53125 214.441406 9.707031 213.347656 10.597656 212.980469 L 10.636719 212.964844 L 10.667969 212.957031 L 10.707031 212.941406 L 10.824219 212.910156 L 10.898438 212.894531 L 10.984375 212.894531 L 11 212.886719 Z M 11.269531 212.886719 Z M 11.023438 213.371094 C 10.359375 213.449219 10.160156 214.25 10.113281 214.789062 L 10.113281 215.003906 L 10.097656 215.019531 L 10.097656 216.125 C 10.144531 216.695312 10.183594 217.433594 10.707031 217.816406 C 11.191406 218.148438 11.835938 217.773438 11.96875 217.257812 C 12.113281 216.878906 12.144531 216.503906 12.175781 216.125 L 12.175781 215.019531 C 12.128906 214.441406 12.046875 213.632812 11.382812 213.402344 L 11.324219 213.386719 L 11.308594 213.371094 L 11.238281 213.371094 L 11.222656 213.355469 L 11.039062 213.355469 Z M 11.023438 213.371094 Z M 11.023438 213.371094 "/>
<path style=" stroke:none;fill-rule:nonzero;fill:rgb(0%,0%,0%);fill-opacity:1;" d="M 5.101562 177.878906 C 5.859375 177.933594 6.359375 178.625 6.492188 179.324219 C 6.5625 179.640625 6.578125 179.941406 6.613281 180.257812 L 6.613281 181.070312 C 6.570312 181.894531 6.375 182.980469 5.476562 183.316406 C 4.699219 183.625 3.785156 183.140625 3.554688 182.347656 C 3.382812 181.925781 3.363281 181.496094 3.324219 181.070312 L 3.324219 180.257812 C 3.363281 179.433594 3.539062 178.339844 4.429688 177.972656 L 4.46875 177.957031 L 4.5 177.949219 L 4.539062 177.933594 L 4.660156 177.902344 L 4.730469 177.886719 L 4.816406 177.886719 L 4.832031 177.878906 Z M 5.101562 177.878906 Z M 4.855469 178.363281 C 4.191406 178.441406 3.992188 179.242188 3.945312 179.785156 L 3.945312 179.996094 L 3.929688 180.011719 L 3.929688 181.117188 C 3.976562 181.6875 4.015625 182.425781 4.539062 182.808594 C 5.023438 183.140625 5.667969 182.769531 5.800781 182.25 C 5.945312 181.871094 5.976562 181.496094 6.007812 181.117188 L 6.007812 180.011719 C 5.960938 179.433594 5.882812 178.625 5.214844 178.394531 L 5.160156 178.378906 L 5.144531 178.363281 L 5.070312 178.363281 L 5.054688 178.347656 L 4.875 178.347656 Z M 4.855469 178.363281 Z M 4.855469 178.363281 "/>
<path style=" stroke:none;fill-rule:nonzero;fill:rgb(0%,0%,0%);fill-opacity:1;" d="M 8.382812 182.59375 L 8.382812 183.226562 L 7.738281 183.226562 L 7.738281 182.59375 Z M 8.382812 182.59375 Z M 8.382812 182.59375 "/>
<path style=" stroke:none;fill-rule:nonzero;fill:rgb(0%,0%,0%);fill-opacity:1;" d="M 12.445312 178.046875 L 12.445312 178.539062 L 10.382812 178.539062 L 10.367188 178.546875 L 10.367188 180.171875 C 10.554688 180.046875 10.824219 179.878906 11.078125 179.871094 C 11.976562 179.773438 12.667969 180.65625 12.707031 181.472656 C 12.835938 182.511719 11.859375 183.546875 10.808594 183.386719 C 10.285156 183.371094 9.777344 183.0625 9.476562 182.632812 C 9.5625 182.511719 9.636719 182.308594 9.738281 182.234375 C 10.113281 182.964844 11.316406 183.257812 11.800781 182.488281 C 12.113281 181.910156 12.105469 181.171875 11.746094 180.617188 C 11.332031 180.085938 10.515625 180.410156 10.324219 180.972656 L 9.808594 180.972656 L 9.808594 178.046875 Z M 12.445312 178.046875 Z M 12.445312 178.046875 "/>
<path style=" stroke:none;fill-rule:nonzero;fill:rgb(0%,0%,0%);fill-opacity:1;" d="M 5.347656 142.871094 L 5.347656 147.769531 L 5.355469 147.785156 L 6.332031 147.785156 L 6.332031 148.21875 L 3.753906 148.21875 L 3.753906 147.785156 L 4.730469 147.785156 L 4.746094 147.769531 L 4.746094 143.65625 C 4.414062 143.769531 4.0625 143.839844 3.714844 143.832031 L 3.714844 143.386719 C 4.238281 143.394531 4.808594 143.253906 5.207031 142.871094 Z M 5.347656 142.871094 Z M 5.347656 142.871094 "/>
<path style=" stroke:none;fill-rule:nonzero;fill:rgb(0%,0%,0%);fill-opacity:1;" d="M 8.382812 147.585938 L 8.382812 148.21875 L 7.738281 148.21875 L 7.738281 147.585938 Z M 8.382812 147.585938 Z M 8.382812 147.585938 "/>
<path style=" stroke:none;fill-rule:nonzero;fill:rgb(0%,0%,0%);fill-opacity:1;" d="M 11.269531 142.871094 C 12.023438 142.925781 12.523438 143.617188 12.660156 144.316406 C 12.730469 144.632812 12.746094 144.933594 12.777344 145.253906 L 12.777344 146.0625 C 12.738281 146.886719 12.539062 147.972656 11.644531 148.308594 C 10.867188 148.617188 9.953125 148.132812 9.722656 147.339844 C 9.546875 146.917969 9.53125 146.492188 9.492188 146.0625 L 9.492188 145.253906 C 9.53125 144.425781 9.707031 143.332031 10.597656 142.964844 L 10.636719 142.949219 L 10.667969 142.941406 L 10.707031 142.925781 L 10.824219 142.894531 L 10.898438 142.878906 L 10.984375 142.878906 L 11 142.871094 Z M 11.269531 142.871094 Z M 11.023438 143.355469 C 10.359375 143.433594 10.160156 144.234375 10.113281 144.777344 L 10.113281 144.988281 L 10.097656 145.007812 L 10.097656 146.109375 C 10.144531 146.679688 10.183594 147.417969 10.707031 147.800781 C 11.191406 148.132812 11.835938 147.761719 11.96875 147.246094 C 12.113281 146.863281 12.144531 146.492188 12.175781 146.109375 L 12.175781 145.007812 C 12.128906 144.425781 12.046875 143.617188 11.382812 143.386719 L 11.324219 143.371094 L 11.308594 143.355469 L 11.238281 143.355469 L 11.222656 143.339844 L 11.039062 143.339844 Z M 11.023438 143.355469 Z M 11.023438 143.355469 "/>
<path style=" stroke:none;fill-rule:nonzero;fill:rgb(0%,0%,0%);fill-opacity:1;" d="M 5.347656 107.863281 L 5.347656 112.761719 L 5.355469 112.777344 L 6.332031 112.777344 L 6.332031 113.214844 L 3.753906 113.214844 L 3.753906 112.777344 L 4.730469 112.777344 L 4.746094 112.761719 L 4.746094 108.648438 C 4.414062 108.761719 4.0625 108.832031 3.714844 108.824219 L 3.714844 108.378906 C 4.238281 108.386719 4.808594 108.246094 5.207031 107.863281 Z M 5.347656 107.863281 Z M 5.347656 107.863281 "/>
<path style=" stroke:none;fill-rule:nonzero;fill:rgb(0%,0%,0%);fill-opacity:1;" d="M 8.382812 112.578125 L 8.382812 113.214844 L 7.738281 113.214844 L 7.738281 112.578125 Z M 8.382812 112.578125 Z M 8.382812 112.578125 "/>
<path style=" stroke:none;fill-rule:nonzero;fill:rgb(0%,0%,0%);fill-opacity:1;" d="M 12.445312 108.03125 L 12.445312 108.523438 L 10.382812 108.523438 L 10.367188 108.53125 L 10.367188 110.15625 C 10.554688 110.03125 10.824219 109.863281 11.078125 109.855469 C 11.976562 109.761719 12.667969 110.640625 12.707031 111.460938 C 12.835938 112.5 11.859375 113.53125 10.808594 113.371094 C 10.285156 113.355469 9.777344 113.046875 9.476562 112.617188 C 9.5625 112.5 9.636719 112.292969 9.738281 112.222656 C 10.113281 112.953125 11.316406 113.246094 11.800781 112.476562 C 12.113281 111.894531 12.105469 111.15625 11.746094 110.601562 C 11.332031 110.070312 10.515625 110.394531 10.324219 110.960938 L 9.808594 110.960938 L 9.808594 108.03125 Z M 12.445312 108.03125 Z M 12.445312 108.03125 "/>
<path style=" stroke:none;fill-rule:nonzero;fill:rgb(0%,0%,0%);fill-opacity:1;" d="M 5.015625 72.855469 C 5.9375 72.878906 6.667969 73.824219 6.523438 74.714844 C 6.429688 75.601562 5.59375 76.109375 5 76.664062 L 4.746094 76.929688 L 4.714844 76.945312 L 4.398438 77.253906 L 4.375 77.269531 L 4.054688 77.585938 L 4.023438 77.601562 L 3.953125 77.675781 L 3.96875 77.683594 L 6.539062 77.683594 L 6.539062 78.207031 L 3.398438 78.207031 L 3.398438 77.730469 L 4.675781 76.453125 C 5.285156 75.917969 6 75.230469 5.890625 74.355469 C 5.824219 73.847656 5.398438 73.378906 4.875 73.339844 C 4.339844 73.261719 3.875 73.679688 3.753906 74.191406 L 3.738281 74.214844 L 3.722656 74.269531 L 3.699219 74.355469 L 3.652344 74.53125 L 3.644531 74.570312 C 3.53125 74.4375 3.414062 74.292969 3.324219 74.140625 C 3.484375 73.492188 4.007812 72.878906 4.699219 72.855469 Z M 5.015625 72.855469 Z M 5.015625 72.855469 "/>
<path style=" stroke:none;fill-rule:nonzero;fill:rgb(0%,0%,0%);fill-opacity:1;" d="M 8.382812 77.570312 L 8.382812 78.207031 L 7.738281 78.207031 L 7.738281 77.570312 Z M 8.382812 77.570312 Z M 8.382812 77.570312 "/>
<path style=" stroke:none;fill-rule:nonzero;fill:rgb(0%,0%,0%);fill-opacity:1;" d="M 11.269531 72.855469 C 12.023438 72.910156 12.523438 73.601562 12.660156 74.300781 C 12.730469 74.617188 12.746094 74.917969 12.777344 75.238281 L 12.777344 76.046875 C 12.738281 76.871094 12.539062 77.960938 11.644531 78.292969 C 10.867188 78.601562 9.953125 78.117188 9.722656 77.324219 C 9.546875 76.902344 9.53125 76.476562 9.492188 76.046875 L 9.492188 75.238281 C 9.53125 74.410156 9.707031 73.316406 10.597656 72.953125 L 10.636719 72.9375 L 10.667969 72.925781 L 10.707031 72.910156 L 10.824219 72.878906 L 10.898438 72.863281 L 10.984375 72.863281 L 11 72.855469 Z M 11.269531 72.855469 Z M 11.023438 73.339844 C 10.359375 73.417969 10.160156 74.222656 10.113281 74.761719 L 10.113281 74.976562 L 10.097656 74.992188 L 10.097656 76.09375 C 10.144531 76.664062 10.183594 77.402344 10.707031 77.785156 C 11.191406 78.117188 11.835938 77.746094 11.96875 77.230469 C 12.113281 76.847656 12.144531 76.476562 12.175781 76.09375 L 12.175781 74.992188 C 12.128906 74.410156 12.046875 73.601562 11.382812 73.371094 L 11.324219 73.355469 L 11.308594 73.339844 L 11.238281 73.339844 L 11.222656 73.324219 L 11.039062 73.324219 Z M 11.023438 73.339844 Z M 11.023438 73.339844 "/>
<path style=" stroke:none;fill-rule:nonzero;fill:rgb(0%,0%,0%);fill-opacity:1;" d="M 5.015625 37.847656 C 5.9375 37.871094 6.667969 38.816406 6.523438 39.707031 C 6.429688 40.59375 5.59375 41.101562 5 41.660156 L 4.746094 41.921875 L 4.714844 41.9375 L 4.398438 42.246094 L 4.375 42.261719 L 4.054688 42.578125 L 4.023438 42.59375 L 3.953125 42.667969 L 3.96875 42.675781 L 6.539062 42.675781 L 6.539062 43.199219 L 3.398438 43.199219 L 3.398438 42.722656 L 4.675781 41.445312 C 5.285156 40.914062 6 40.222656 5.890625 39.347656 C 5.824219 38.839844 5.398438 38.371094 4.875 38.332031 C 4.339844 38.253906 3.875 38.675781 3.753906 39.183594 L 3.738281 39.207031 L 3.722656 39.261719 L 3.699219 39.347656 L 3.652344 39.523438 L 3.644531 39.5625 C 3.53125 39.429688 3.414062 39.285156 3.324219 39.132812 C 3.484375 38.484375 4.007812 37.871094 4.699219 37.847656 Z M 5.015625 37.847656 Z M 5.015625 37.847656 "/>
<path style=" stroke:none;fill-rule:nonzero;fill:rgb(0%,0%,0%);fill-opacity:1;" d="M 8.382812 42.5625 L 8.382812 43.199219 L 7.738281 43.199219 L 7.738281 42.5625 Z M 8.382812 42.5625 Z M 8.382812 42.5625 "/>
<path style=" stroke:none;fill-rule:nonzero;fill:rgb(0%,0%,0%);fill-opacity:1;" d="M 12.445312 38.015625 L 12.445312 38.507812 L 10.382812 38.507812 L 10.367188 38.515625 L 10.367188 40.144531 C 10.554688 40.015625 10.824219 39.847656 11.078125 39.839844 C 11.976562 39.746094 12.667969 40.625 12.707031 41.445312 C 12.835938 42.484375 11.859375 43.515625 10.808594 43.355469 C 10.285156 43.339844 9.777344 43.03125 9.476562 42.601562 C 9.5625 42.484375 9.636719 42.277344 9.738281 42.207031 C 10.113281 42.9375 11.316406 43.230469 11.800781 42.460938 C 12.113281 41.878906 12.105469 41.144531 11.746094 40.585938 C 11.332031 40.054688 10.515625 40.378906 10.324219 40.945312 L 9.808594 40.945312 L 9.808594 38.015625 Z M 12.445312 38.015625 Z M 12.445312 38.015625 "/>
<path style=" stroke:none;fill-rule:nonzero;fill:rgb(0%,0%,0%);fill-opacity:1;" d="M 5.121094 2.839844 C 5.816406 2.875 6.546875 3.515625 6.382812 4.253906 C 6.300781 4.753906 5.953125 5.167969 5.515625 5.390625 C 6.222656 5.613281 6.769531 6.359375 6.578125 7.09375 C 6.390625 8.054688 5.285156 8.585938 4.398438 8.292969 C 3.96875 8.167969 3.53125 7.898438 3.324219 7.5 C 3.375 7.382812 3.355469 7.175781 3.414062 7.09375 C 3.832031 7.714844 4.722656 8.136719 5.421875 7.785156 C 6.183594 7.300781 6.0625 5.890625 5.144531 5.652344 L 5.070312 5.652344 L 5.054688 5.636719 L 4.316406 5.636719 L 4.316406 5.160156 C 4.769531 5.152344 5.332031 5.09375 5.585938 4.628906 C 5.859375 4.222656 5.832031 3.554688 5.316406 3.355469 C 4.707031 3.121094 3.953125 3.507812 3.722656 4.128906 C 3.628906 3.992188 3.53125 3.855469 3.4375 3.714844 C 3.761719 3.128906 4.453125 2.777344 5.121094 2.839844 Z M 5.121094 2.839844 Z M 5.121094 2.839844 "/>
<path style=" stroke:none;fill-rule:nonzero;fill:rgb(0%,0%,0%);fill-opacity:1;" d="M 8.382812 7.554688 L 8.382812 8.191406 L 7.738281 8.191406 L 7.738281 7.554688 Z M 8.382812 7.554688 Z M 8.382812 7.554688 "/>
<path style=" stroke:none;fill-rule:nonzero;fill:rgb(0%,0%,0%);fill-opacity:1;" d="M 11.269531 2.839844 C 12.023438 2.898438 12.523438 3.585938 12.660156 4.285156 C 12.730469 4.601562 12.746094 4.90625 12.777344 5.222656 L 12.777344 6.03125 C 12.738281 6.859375 12.539062 7.945312 11.644531 8.277344 C 10.867188 8.585938 9.953125 8.105469 9.722656 7.308594 C 9.546875 6.890625 9.53125 6.460938 9.492188 6.03125 L 9.492188 5.222656 C 9.53125 4.398438 9.707031 3.300781 10.597656 2.9375 L 10.636719 2.921875 L 10.667969 2.914062 L 10.707031 2.898438 L 10.824219 2.863281 L 10.898438 2.847656 L 10.984375 2.847656 L 11 2.839844 Z M 11.269531 2.839844 Z M 11.023438 3.324219 C 10.359375 3.40625 10.160156 4.207031 10.113281 4.746094 L 10.113281 4.960938 L 10.097656 4.976562 L 10.097656 6.078125 C 10.144531 6.652344 10.183594 7.390625 10.707031 7.769531 C 11.191406 8.105469 11.835938 7.730469 11.96875 7.214844 C 12.113281 6.832031 12.144531 6.460938 12.175781 6.078125 L 12.175781 4.976562 C 12.128906 4.398438 12.046875 3.585938 11.382812 3.355469 L 11.324219 3.339844 L 11.308594 3.324219 L 11.238281 3.324219 L 11.222656 3.308594 L 11.039062 3.308594 Z M 11.023438 3.324219 Z M 11.023438 3.324219 "/>
<path style="fill:none;stroke-width:0.02;stroke-linecap:butt;stroke-linejoin:miter;stroke:rgb(0%,0%,0%);stroke-opacity:1;stroke-miterlimit:10;" d="M 9.751274 1.663367 L 9.646267 1.663367 " transform="matrix(28.346457,0,0,-28.346457,1,227.771654)"/>
<path style="fill:none;stroke-width:0.02;stroke-linecap:butt;stroke-linejoin:miter;stroke:rgb(0%,0%,0%);stroke-opacity:1;stroke-miterlimit:10;" d="M 9.751274 2.898365 L 9.646267 2.898365 " transform="matrix(28.346457,0,0,-28.346457,1,227.771654)"/>
<path style="fill:none;stroke-width:0.02;stroke-linecap:butt;stroke-linejoin:miter;stroke:rgb(0%,0%,0%);stroke-opacity:1;stroke-miterlimit:10;" d="M 9.751274 4.133363 L 9.646267 4.133363 " transform="matrix(28.346457,0,0,-28.346457,1,227.771654)"/>
<path style="fill:none;stroke-width:0.02;stroke-linecap:butt;stroke-linejoin:miter;stroke:rgb(0%,0%,0%);stroke-opacity:1;stroke-miterlimit:10;" d="M 9.751274 5.36836 L 9.646267 5.36836 " transform="matrix(28.346457,0,0,-28.346457,1,227.771654)"/>
<path style="fill:none;stroke-width:0.02;stroke-linecap:butt;stroke-linejoin:miter;stroke:rgb(0%,0%,0%);stroke-opacity:1;stroke-miterlimit:10;" d="M 9.751274 6.603358 L 9.646267 6.603358 " transform="matrix(28.346457,0,0,-28.346457,1,227.771654)"/>
<path style="fill:none;stroke-width:0.02;stroke-linecap:round;stroke-linejoin:miter;stroke:rgb(0%,0%,0%);stroke-opacity:1;stroke-miterlimit:10;" d="M 9.751274 0.428369 L 9.751274 7.838356 " transform="matrix(28.346457,0,0,-28.346457,1,227.771654)"/>
<path style="fill:none;stroke-width:0.02;stroke-linecap:butt;stroke-linejoin:miter;stroke:rgb(0%,0%,0%);stroke-opacity:1;stroke-miterlimit:10;" d="M 1.517358 0.428369 L 1.517358 0.533376 " transform="matrix(28.346457,0,0,-28.346457,1,227.771654)"/>
<path style="fill:none;stroke-width:0.02;stroke-linecap:butt;stroke-linejoin:miter;stroke:rgb(0%,0%,0%);stroke-opacity:1;stroke-miterlimit:10;" d="M 2.432237 0.428369 L 2.432237 0.533376 " transform="matrix(28.346457,0,0,-28.346457,1,227.771654)"/>
<path style="fill:none;stroke-width:0.02;stroke-linecap:butt;stroke-linejoin:miter;stroke:rgb(0%,0%,0%);stroke-opacity:1;stroke-miterlimit:10;" d="M 3.347117 0.428369 L 3.347117 0.533376 " transform="matrix(28.346457,0,0,-28.346457,1,227.771654)"/>
<path style="fill:none;stroke-width:0.02;stroke-linecap:butt;stroke-linejoin:miter;stroke:rgb(0%,0%,0%);stroke-opacity:1;stroke-miterlimit:10;" d="M 4.261997 0.428369 L 4.261997 0.533376 " transform="matrix(28.346457,0,0,-28.346457,1,227.771654)"/>
<path style="fill:none;stroke-width:0.02;stroke-linecap:butt;stroke-linejoin:miter;stroke:rgb(0%,0%,0%);stroke-opacity:1;stroke-miterlimit:10;" d="M 5.176876 0.428369 L 5.176876 0.533376 " transform="matrix(28.346457,0,0,-28.346457,1,227.771654)"/>
<path style="fill:none;stroke-width:0.02;stroke-linecap:butt;stroke-linejoin:miter;stroke:rgb(0%,0%,0%);stroke-opacity:1;stroke-miterlimit:10;" d="M 6.091756 0.428369 L 6.091756 0.533376 " transform="matrix(28.346457,0,0,-28.346457,1,227.771654)"/>
<path style="fill:none;stroke-width:0.02;stroke-linecap:butt;stroke-linejoin:miter;stroke:rgb(0%,0%,0%);stroke-opacity:1;stroke-miterlimit:10;" d="M 7.006635 0.428369 L 7.006635 0.533376 " transform="matrix(28.346457,0,0,-28.346457,1,227.771654)"/>
<path style="fill:none;stroke-width:0.02;stroke-linecap:butt;stroke-linejoin:miter;stroke:rgb(0%,0%,0%);stroke-opacity:1;stroke-miterlimit:10;" d="M 7.921515 0.428369 L 7.921515 0.533376 " transform="matrix(28.346457,0,0,-28.346457,1,227.771654)"/>
<path style="fill:none;stroke-width:0.02;stroke-linecap:butt;stroke-linejoin:miter;stroke:rgb(0%,0%,0%);stroke-opacity:1;stroke-miterlimit:10;" d="M 8.836394 0.428369 L 8.836394 0.533376 " transform="matrix(28.346457,0,0,-28.346457,1,227.771654)"/>
<path style="fill:none;stroke-width:0.02;stroke-linecap:round;stroke-linejoin:miter;stroke:rgb(0%,0%,0%);stroke-opacity:1;stroke-miterlimit:10;" d="M 0.602616 0.428369 L 9.751274 0.428369 " transform="matrix(28.346457,0,0,-28.346457,1,227.771654)"/>
<path style=" stroke:none;fill-rule:nonzero;fill:rgb(0%,0%,0%);fill-opacity:1;" d="M 15.132812 220.445312 C 15.886719 220.5 16.386719 221.191406 16.519531 221.890625 C 16.59375 222.207031 16.609375 222.507812 16.640625 222.828125 L 16.640625 223.636719 C 16.601562 224.460938 16.402344 225.550781 15.503906 225.882812 C 14.726562 226.191406 13.8125 225.707031 13.585938 224.914062 C 13.410156 224.492188 13.394531 224.066406 13.355469 223.636719 L 13.355469 222.828125 C 13.394531 222 13.566406 220.90625 14.457031 220.542969 L 14.496094 220.523438 L 14.527344 220.515625 L 14.566406 220.5 L 14.6875 220.46875 L 14.757812 220.453125 L 14.847656 220.453125 L 14.863281 220.445312 Z M 15.132812 220.445312 Z M 14.886719 220.929688 C 14.21875 221.007812 14.019531 221.8125 13.972656 222.351562 L 13.972656 222.566406 L 13.957031 222.582031 L 13.957031 223.683594 C 14.003906 224.253906 14.042969 224.992188 14.566406 225.375 C 15.050781 225.707031 15.695312 225.335938 15.832031 224.820312 C 15.972656 224.4375 16.003906 224.066406 16.035156 223.683594 L 16.035156 222.582031 C 15.988281 222 15.910156 221.191406 15.242188 220.960938 L 15.1875 220.945312 L 15.171875 220.929688 L 15.101562 220.929688 L 15.085938 220.914062 L 14.902344 220.914062 Z M 14.886719 220.929688 Z M 14.886719 220.929688 "/>
<path style=" stroke:none;fill-rule:nonzero;fill:rgb(0%,0%,0%);fill-opacity:1;" d="M 18.410156 225.160156 L 18.410156 225.796875 L 17.765625 225.796875 L 17.765625 225.160156 Z M 18.410156 225.160156 Z M 18.410156 225.160156 "/>
<path style=" stroke:none;fill-rule:nonzero;fill:rgb(0%,0%,0%);fill-opacity:1;" d="M 21.300781 220.445312 C 22.054688 220.5 22.554688 221.191406 22.6875 221.890625 C 22.757812 222.207031 22.773438 222.507812 22.808594 222.828125 L 22.808594 223.636719 C 22.765625 224.460938 22.570312 225.550781 21.671875 225.882812 C 20.894531 226.191406 19.980469 225.707031 19.75 224.914062 C 19.578125 224.492188 19.5625 224.066406 19.519531 223.636719 L 19.519531 222.828125 C 19.5625 222 19.734375 220.90625 20.625 220.542969 L 20.664062 220.523438 L 20.695312 220.515625 L 20.734375 220.5 L 20.855469 220.46875 L 20.925781 220.453125 L 21.011719 220.453125 L 21.027344 220.445312 Z M 21.300781 220.445312 Z M 21.054688 220.929688 C 20.386719 221.007812 20.1875 221.8125 20.140625 222.351562 L 20.140625 222.566406 L 20.125 222.582031 L 20.125 223.683594 C 20.171875 224.253906 20.210938 224.992188 20.734375 225.375 C 21.21875 225.707031 21.863281 225.335938 21.996094 224.820312 C 22.140625 224.4375 22.171875 224.066406 22.203125 223.683594 L 22.203125 222.582031 C 22.15625 222 22.078125 221.191406 21.410156 220.960938 L 21.355469 220.945312 L 21.339844 220.929688 L 21.265625 220.929688 L 21.25 220.914062 L 21.070312 220.914062 Z M 21.054688 220.929688 Z M 21.054688 220.929688 "/>
<path style=" stroke:none;fill-rule:nonzero;fill:rgb(0%,0%,0%);fill-opacity:1;" d="M 41.066406 220.445312 C 41.820312 220.5 42.320312 221.191406 42.453125 221.890625 C 42.527344 222.207031 42.542969 222.507812 42.574219 222.828125 L 42.574219 223.636719 C 42.535156 224.460938 42.335938 225.550781 41.4375 225.882812 C 40.660156 226.191406 39.746094 225.707031 39.515625 224.914062 C 39.34375 224.492188 39.328125 224.066406 39.289062 223.636719 L 39.289062 222.828125 C 39.328125 222 39.5 220.90625 40.390625 220.542969 L 40.429688 220.523438 L 40.460938 220.515625 L 40.5 220.5 L 40.621094 220.46875 L 40.691406 220.453125 L 40.78125 220.453125 L 40.796875 220.445312 Z M 41.066406 220.445312 Z M 40.820312 220.929688 C 40.152344 221.007812 39.953125 221.8125 39.90625 222.351562 L 39.90625 222.566406 L 39.890625 222.582031 L 39.890625 223.683594 C 39.9375 224.253906 39.976562 224.992188 40.5 225.375 C 40.984375 225.707031 41.628906 225.335938 41.761719 224.820312 C 41.90625 224.4375 41.9375 224.066406 41.96875 223.683594 L 41.96875 222.582031 C 41.921875 222 41.84375 221.191406 41.175781 220.960938 L 41.121094 220.945312 L 41.105469 220.929688 L 41.035156 220.929688 L 41.015625 220.914062 L 40.835938 220.914062 Z M 40.820312 220.929688 Z M 40.820312 220.929688 "/>
<path style=" stroke:none;fill-rule:nonzero;fill:rgb(0%,0%,0%);fill-opacity:1;" d="M 44.34375 225.160156 L 44.34375 225.796875 L 43.699219 225.796875 L 43.699219 225.160156 Z M 44.34375 225.160156 Z M 44.34375 225.160156 "/>
<path style=" stroke:none;fill-rule:nonzero;fill:rgb(0%,0%,0%);fill-opacity:1;" d="M 47.476562 220.445312 L 47.476562 225.34375 L 47.484375 225.359375 L 48.460938 225.359375 L 48.460938 225.796875 L 45.882812 225.796875 L 45.882812 225.359375 L 46.859375 225.359375 L 46.875 225.34375 L 46.875 221.230469 C 46.542969 221.34375 46.191406 221.414062 45.84375 221.40625 L 45.84375 220.960938 C 46.367188 220.96875 46.9375 220.828125 47.335938 220.445312 Z M 47.476562 220.445312 Z M 47.476562 220.445312 "/>
<path style=" stroke:none;fill-rule:nonzero;fill:rgb(0%,0%,0%);fill-opacity:1;" d="M 67 220.445312 C 67.753906 220.5 68.253906 221.191406 68.386719 221.890625 C 68.457031 222.207031 68.472656 222.507812 68.507812 222.828125 L 68.507812 223.636719 C 68.464844 224.460938 68.269531 225.550781 67.371094 225.882812 C 66.59375 226.191406 65.679688 225.707031 65.449219 224.914062 C 65.277344 224.492188 65.261719 224.066406 65.21875 223.636719 L 65.21875 222.828125 C 65.261719 222 65.433594 220.90625 66.324219 220.542969 L 66.363281 220.523438 L 66.394531 220.515625 L 66.433594 220.5 L 66.554688 220.46875 L 66.625 220.453125 L 66.710938 220.453125 L 66.726562 220.445312 Z M 67 220.445312 Z M 66.753906 220.929688 C 66.085938 221.007812 65.886719 221.8125 65.839844 222.351562 L 65.839844 222.566406 L 65.824219 222.582031 L 65.824219 223.683594 C 65.871094 224.253906 65.910156 224.992188 66.433594 225.375 C 66.917969 225.707031 67.5625 225.335938 67.695312 224.820312 C 67.839844 224.4375 67.871094 224.066406 67.902344 223.683594 L 67.902344 222.582031 C 67.855469 222 67.777344 221.191406 67.109375 220.960938 L 67.054688 220.945312 L 67.039062 220.929688 L 66.964844 220.929688 L 66.949219 220.914062 L 66.769531 220.914062 Z M 66.753906 220.929688 Z M 66.753906 220.929688 "/>
<path style=" stroke:none;fill-rule:nonzero;fill:rgb(0%,0%,0%);fill-opacity:1;" d="M 70.277344 225.160156 L 70.277344 225.796875 L 69.632812 225.796875 L 69.632812 225.160156 Z M 70.277344 225.160156 Z M 70.277344 225.160156 "/>
<path style=" stroke:none;fill-rule:nonzero;fill:rgb(0%,0%,0%);fill-opacity:1;" d="M 73.078125 220.445312 C 74 220.46875 74.730469 221.414062 74.585938 222.304688 C 74.492188 223.191406 73.65625 223.699219 73.0625 224.253906 L 72.808594 224.515625 L 72.777344 224.535156 L 72.457031 224.84375 L 72.433594 224.859375 L 72.117188 225.175781 L 72.085938 225.191406 L 72.015625 225.261719 L 72.03125 225.273438 L 74.601562 225.273438 L 74.601562 225.796875 L 71.457031 225.796875 L 71.457031 225.320312 L 72.738281 224.042969 C 73.347656 223.507812 74.0625 222.820312 73.949219 221.945312 C 73.886719 221.4375 73.460938 220.96875 72.933594 220.929688 C 72.402344 220.851562 71.933594 221.269531 71.816406 221.777344 L 71.800781 221.804688 L 71.785156 221.859375 L 71.761719 221.945312 L 71.710938 222.121094 L 71.703125 222.160156 C 71.59375 222.023438 71.476562 221.882812 71.386719 221.730469 C 71.546875 221.082031 72.070312 220.46875 72.761719 220.445312 Z M 73.078125 220.445312 Z M 73.078125 220.445312 "/>
<path style=" stroke:none;fill-rule:nonzero;fill:rgb(0%,0%,0%);fill-opacity:1;" d="M 92.929688 220.445312 C 93.683594 220.5 94.183594 221.191406 94.320312 221.890625 C 94.390625 222.207031 94.40625 222.507812 94.441406 222.828125 L 94.441406 223.636719 C 94.398438 224.460938 94.203125 225.550781 93.304688 225.882812 C 92.527344 226.191406 91.613281 225.707031 91.382812 224.914062 C 91.210938 224.492188 91.191406 224.066406 91.152344 223.636719 L 91.152344 222.828125 C 91.191406 222 91.367188 220.90625 92.257812 220.542969 L 92.296875 220.523438 L 92.328125 220.515625 L 92.367188 220.5 L 92.488281 220.46875 L 92.558594 220.453125 L 92.644531 220.453125 L 92.660156 220.445312 Z M 92.929688 220.445312 Z M 92.683594 220.929688 C 92.019531 221.007812 91.820312 221.8125 91.773438 222.351562 L 91.773438 222.566406 L 91.757812 222.582031 L 91.757812 223.683594 C 91.804688 224.253906 91.84375 224.992188 92.367188 225.375 C 92.851562 225.707031 93.496094 225.335938 93.628906 224.820312 C 93.773438 224.4375 93.804688 224.066406 93.835938 223.683594 L 93.835938 222.582031 C 93.789062 222 93.710938 221.191406 93.042969 220.960938 L 92.988281 220.945312 L 92.972656 220.929688 L 92.898438 220.929688 L 92.882812 220.914062 L 92.703125 220.914062 Z M 92.683594 220.929688 Z M 92.683594 220.929688 "/>
<path style=" stroke:none;fill-rule:nonzero;fill:rgb(0%,0%,0%);fill-opacity:1;" d="M 96.210938 225.160156 L 96.210938 225.796875 L 95.566406 225.796875 L 95.566406 225.160156 Z M 96.210938 225.160156 Z M 96.210938 225.160156 "/>
<path style=" stroke:none;fill-rule:nonzero;fill:rgb(0%,0%,0%);fill-opacity:1;" d="M 99.113281 220.445312 C 99.8125 220.476562 100.542969 221.121094 100.375 221.859375 C 100.296875 222.359375 99.949219 222.769531 99.511719 222.992188 C 100.21875 223.214844 100.765625 223.960938 100.574219 224.699219 C 100.382812 225.660156 99.28125 226.191406 98.390625 225.898438 C 97.964844 225.773438 97.527344 225.5 97.320312 225.105469 C 97.367188 224.984375 97.351562 224.78125 97.40625 224.699219 C 97.828125 225.320312 98.71875 225.738281 99.414062 225.390625 C 100.179688 224.90625 100.058594 223.492188 99.136719 223.253906 L 99.066406 223.253906 L 99.050781 223.238281 L 98.3125 223.238281 L 98.3125 222.761719 C 98.765625 222.753906 99.328125 222.699219 99.582031 222.230469 C 99.851562 221.828125 99.828125 221.160156 99.3125 220.960938 C 98.703125 220.722656 97.949219 221.113281 97.71875 221.730469 C 97.621094 221.597656 97.527344 221.460938 97.433594 221.320312 C 97.757812 220.730469 98.449219 220.382812 99.113281 220.445312 Z M 99.113281 220.445312 Z M 99.113281 220.445312 "/>
<path style=" stroke:none;fill-rule:nonzero;fill:rgb(0%,0%,0%);fill-opacity:1;" d="M 118.863281 220.445312 C 119.617188 220.5 120.117188 221.191406 120.253906 221.890625 C 120.324219 222.207031 120.339844 222.507812 120.371094 222.828125 L 120.371094 223.636719 C 120.332031 224.460938 120.132812 225.550781 119.238281 225.882812 C 118.460938 226.191406 117.546875 225.707031 117.316406 224.914062 C 117.140625 224.492188 117.125 224.066406 117.085938 223.636719 L 117.085938 222.828125 C 117.125 222 117.300781 220.90625 118.191406 220.542969 L 118.230469 220.523438 L 118.261719 220.515625 L 118.300781 220.5 L 118.421875 220.46875 L 118.492188 220.453125 L 118.578125 220.453125 L 118.59375 220.445312 Z M 118.863281 220.445312 Z M 118.617188 220.929688 C 117.953125 221.007812 117.753906 221.8125 117.707031 222.351562 L 117.707031 222.566406 L 117.691406 222.582031 L 117.691406 223.683594 C 117.738281 224.253906 117.777344 224.992188 118.300781 225.375 C 118.785156 225.707031 119.429688 225.335938 119.5625 224.820312 C 119.707031 224.4375 119.738281 224.066406 119.769531 223.683594 L 119.769531 222.582031 C 119.722656 222 119.640625 221.191406 118.976562 220.960938 L 118.921875 220.945312 L 118.90625 220.929688 L 118.832031 220.929688 L 118.816406 220.914062 L 118.632812 220.914062 Z M 118.617188 220.929688 Z M 118.617188 220.929688 "/>
<path style=" stroke:none;fill-rule:nonzero;fill:rgb(0%,0%,0%);fill-opacity:1;" d="M 122.144531 225.160156 L 122.144531 225.796875 L 121.5 225.796875 L 121.5 225.160156 Z M 122.144531 225.160156 Z M 122.144531 225.160156 "/>
<path style=" stroke:none;fill-rule:nonzero;fill:rgb(0%,0%,0%);fill-opacity:1;" d="M 125.847656 220.613281 L 125.847656 223.953125 L 125.863281 223.96875 L 126.652344 223.96875 L 126.652344 224.445312 L 125.863281 224.445312 L 125.847656 224.453125 L 125.847656 225.796875 L 125.246094 225.796875 L 125.246094 224.453125 L 125.230469 224.445312 L 123.136719 224.445312 L 123.136719 223.953125 C 123.800781 222.84375 124.46875 221.722656 125.136719 220.613281 Z M 125.847656 220.613281 Z M 125.261719 220.914062 C 125.101562 221.738281 124.59375 222.445312 124.214844 223.167969 C 124.0625 223.429688 123.863281 223.714844 123.753906 223.96875 L 125.277344 223.96875 L 125.285156 223.953125 L 125.285156 220.914062 L 125.277344 220.898438 Z M 125.261719 220.914062 Z M 125.261719 220.914062 "/>
<path style=" stroke:none;fill-rule:nonzero;fill:rgb(0%,0%,0%);fill-opacity:1;" d="M 144.796875 220.445312 C 145.550781 220.5 146.050781 221.191406 146.1875 221.890625 C 146.257812 222.207031 146.273438 222.507812 146.304688 222.828125 L 146.304688 223.636719 C 146.265625 224.460938 146.066406 225.550781 145.171875 225.882812 C 144.394531 226.191406 143.480469 225.707031 143.25 224.914062 C 143.074219 224.492188 143.058594 224.066406 143.019531 223.636719 L 143.019531 222.828125 C 143.058594 222 143.234375 220.90625 144.125 220.542969 L 144.164062 220.523438 L 144.195312 220.515625 L 144.234375 220.5 L 144.351562 220.46875 L 144.425781 220.453125 L 144.511719 220.453125 L 144.527344 220.445312 Z M 144.796875 220.445312 Z M 144.550781 220.929688 C 143.886719 221.007812 143.6875 221.8125 143.640625 222.351562 L 143.640625 222.566406 L 143.625 222.582031 L 143.625 223.683594 C 143.671875 224.253906 143.710938 224.992188 144.234375 225.375 C 144.71875 225.707031 145.363281 225.335938 145.496094 224.820312 C 145.640625 224.4375 145.671875 224.066406 145.703125 223.683594 L 145.703125 222.582031 C 145.65625 222 145.574219 221.191406 144.910156 220.960938 L 144.851562 220.945312 L 144.835938 220.929688 L 144.765625 220.929688 L 144.75 220.914062 L 144.566406 220.914062 Z M 144.550781 220.929688 Z M 144.550781 220.929688 "/>
<path style=" stroke:none;fill-rule:nonzero;fill:rgb(0%,0%,0%);fill-opacity:1;" d="M 148.074219 225.160156 L 148.074219 225.796875 L 147.433594 225.796875 L 147.433594 225.160156 Z M 148.074219 225.160156 Z M 148.074219 225.160156 "/>
<path style=" stroke:none;fill-rule:nonzero;fill:rgb(0%,0%,0%);fill-opacity:1;" d="M 152.140625 220.613281 L 152.140625 221.105469 L 150.074219 221.105469 L 150.058594 221.113281 L 150.058594 222.738281 C 150.25 222.613281 150.519531 222.445312 150.773438 222.4375 C 151.671875 222.34375 152.363281 223.222656 152.402344 224.042969 C 152.527344 225.082031 151.550781 226.113281 150.503906 225.953125 C 149.980469 225.9375 149.472656 225.628906 149.171875 225.199219 C 149.257812 225.082031 149.328125 224.875 149.433594 224.804688 C 149.804688 225.535156 151.011719 225.828125 151.496094 225.058594 C 151.804688 224.476562 151.796875 223.738281 151.441406 223.183594 C 151.027344 222.652344 150.210938 222.976562 150.019531 223.542969 L 149.503906 223.542969 L 149.503906 220.613281 Z M 152.140625 220.613281 Z M 152.140625 220.613281 "/>
<path style=" stroke:none;fill-rule:nonzero;fill:rgb(0%,0%,0%);fill-opacity:1;" d="M 170.730469 220.445312 C 171.484375 220.5 171.984375 221.191406 172.121094 221.890625 C 172.191406 222.207031 172.207031 222.507812 172.238281 222.828125 L 172.238281 223.636719 C 172.199219 224.460938 172 225.550781 171.105469 225.882812 C 170.328125 226.191406 169.414062 225.707031 169.183594 224.914062 C 169.007812 224.492188 168.992188 224.066406 168.953125 223.636719 L 168.953125 222.828125 C 168.992188 222 169.167969 220.90625 170.054688 220.542969 L 170.097656 220.523438 L 170.128906 220.515625 L 170.167969 220.5 L 170.285156 220.46875 L 170.359375 220.453125 L 170.445312 220.453125 L 170.460938 220.445312 Z M 170.730469 220.445312 Z M 170.484375 220.929688 C 169.816406 221.007812 169.621094 221.8125 169.574219 222.351562 L 169.574219 222.566406 L 169.554688 222.582031 L 169.554688 223.683594 C 169.605469 224.253906 169.644531 224.992188 170.167969 225.375 C 170.652344 225.707031 171.292969 225.335938 171.429688 224.820312 C 171.574219 224.4375 171.605469 224.066406 171.636719 223.683594 L 171.636719 222.582031 C 171.589844 222 171.507812 221.191406 170.84375 220.960938 L 170.785156 220.945312 L 170.769531 220.929688 L 170.699219 220.929688 L 170.683594 220.914062 L 170.5 220.914062 Z M 170.484375 220.929688 Z M 170.484375 220.929688 "/>
<path style=" stroke:none;fill-rule:nonzero;fill:rgb(0%,0%,0%);fill-opacity:1;" d="M 174.007812 225.160156 L 174.007812 225.796875 L 173.367188 225.796875 L 173.367188 225.160156 Z M 174.007812 225.160156 Z M 174.007812 225.160156 "/>
<path style=" stroke:none;fill-rule:nonzero;fill:rgb(0%,0%,0%);fill-opacity:1;" d="M 177.414062 220.445312 C 177.621094 220.476562 177.859375 220.5 178.058594 220.597656 L 178.058594 221.058594 C 177.507812 220.820312 176.796875 220.785156 176.367188 221.269531 C 175.984375 221.675781 175.8125 222.277344 175.792969 222.8125 C 176.253906 222.199219 177.296875 221.859375 177.859375 222.492188 C 178.421875 223.144531 178.515625 224.082031 178.261719 224.875 C 177.984375 225.507812 177.34375 226.089844 176.628906 225.953125 C 175.660156 225.875 175.222656 224.796875 175.175781 223.96875 C 174.992188 222.804688 175.269531 221.335938 176.382812 220.667969 L 176.398438 220.660156 L 176.566406 220.574219 L 176.613281 220.558594 L 176.636719 220.542969 L 176.769531 220.5 L 176.882812 220.46875 L 176.953125 220.453125 L 177.042969 220.453125 L 177.058594 220.445312 Z M 177.414062 220.445312 Z M 176.636719 222.652344 C 175.945312 222.769531 175.722656 223.605469 175.8125 224.167969 C 175.851562 224.699219 176.058594 225.40625 176.667969 225.515625 C 177.320312 225.605469 177.738281 224.90625 177.753906 224.34375 C 177.785156 223.769531 177.753906 223.121094 177.253906 222.746094 L 177.144531 222.691406 L 177.058594 222.667969 L 176.984375 222.652344 L 176.96875 222.636719 L 176.652344 222.636719 Z M 176.636719 222.652344 Z M 176.636719 222.652344 "/>
<path style=" stroke:none;fill-rule:nonzero;fill:rgb(0%,0%,0%);fill-opacity:1;" d="M 196.664062 220.445312 C 197.417969 220.5 197.917969 221.191406 198.054688 221.890625 C 198.125 222.207031 198.140625 222.507812 198.171875 222.828125 L 198.171875 223.636719 C 198.132812 224.460938 197.933594 225.550781 197.039062 225.882812 C 196.257812 226.191406 195.347656 225.707031 195.117188 224.914062 C 194.941406 224.492188 194.925781 224.066406 194.886719 223.636719 L 194.886719 222.828125 C 194.925781 222 195.101562 220.90625 195.988281 220.542969 L 196.03125 220.523438 L 196.0625 220.515625 L 196.101562 220.5 L 196.21875 220.46875 L 196.292969 220.453125 L 196.378906 220.453125 L 196.394531 220.445312 Z M 196.664062 220.445312 Z M 196.417969 220.929688 C 195.75 221.007812 195.554688 221.8125 195.503906 222.351562 L 195.503906 222.566406 L 195.488281 222.582031 L 195.488281 223.683594 C 195.539062 224.253906 195.578125 224.992188 196.101562 225.375 C 196.585938 225.707031 197.226562 225.335938 197.363281 224.820312 C 197.503906 224.4375 197.539062 224.066406 197.570312 223.683594 L 197.570312 222.582031 C 197.523438 222 197.441406 221.191406 196.777344 220.960938 L 196.71875 220.945312 L 196.703125 220.929688 L 196.632812 220.929688 L 196.617188 220.914062 L 196.433594 220.914062 Z M 196.417969 220.929688 Z M 196.417969 220.929688 "/>
<path style=" stroke:none;fill-rule:nonzero;fill:rgb(0%,0%,0%);fill-opacity:1;" d="M 199.941406 225.160156 L 199.941406 225.796875 L 199.300781 225.796875 L 199.300781 225.160156 Z M 199.941406 225.160156 Z M 199.941406 225.160156 "/>
<path style=" stroke:none;fill-rule:nonzero;fill:rgb(0%,0%,0%);fill-opacity:1;" d="M 204.339844 220.613281 L 204.339844 221.113281 C 203.210938 222.429688 202.578125 224.207031 202.585938 225.882812 L 201.941406 225.882812 C 201.925781 224.191406 202.617188 222.40625 203.824219 221.160156 L 203.808594 221.144531 L 201.054688 221.144531 L 201.054688 220.613281 L 204.339844 220.613281 L 204.339844 221.113281 Z M 204.339844 220.613281 Z M 204.339844 220.613281 "/>
<path style=" stroke:none;fill-rule:nonzero;fill:rgb(0%,0%,0%);fill-opacity:1;" d="M 222.597656 220.445312 C 223.351562 220.5 223.851562 221.191406 223.988281 221.890625 C 224.058594 222.207031 224.074219 222.507812 224.105469 222.828125 L 224.105469 223.636719 C 224.066406 224.460938 223.867188 225.550781 222.96875 225.882812 C 222.191406 226.191406 221.28125 225.707031 221.050781 224.914062 C 220.875 224.492188 220.859375 224.066406 220.820312 223.636719 L 220.820312 222.828125 C 220.859375 222 221.035156 220.90625 221.921875 220.542969 L 221.960938 220.523438 L 221.996094 220.515625 L 222.035156 220.5 L 222.152344 220.46875 L 222.222656 220.453125 L 222.3125 220.453125 L 222.328125 220.445312 Z M 222.597656 220.445312 Z M 222.351562 220.929688 C 221.683594 221.007812 221.488281 221.8125 221.4375 222.351562 L 221.4375 222.566406 L 221.421875 222.582031 L 221.421875 223.683594 C 221.46875 224.253906 221.511719 224.992188 222.035156 225.375 C 222.519531 225.707031 223.160156 225.335938 223.296875 224.820312 C 223.4375 224.4375 223.46875 224.066406 223.503906 223.683594 L 223.503906 222.582031 C 223.453125 222 223.375 221.191406 222.707031 220.960938 L 222.652344 220.945312 L 222.636719 220.929688 L 222.566406 220.929688 L 222.550781 220.914062 L 222.367188 220.914062 Z M 222.351562 220.929688 Z M 222.351562 220.929688 "/>
<path style=" stroke:none;fill-rule:nonzero;fill:rgb(0%,0%,0%);fill-opacity:1;" d="M 225.875 225.160156 L 225.875 225.796875 L 225.234375 225.796875 L 225.234375 225.160156 Z M 225.875 225.160156 Z M 225.875 225.160156 "/>
<path style=" stroke:none;fill-rule:nonzero;fill:rgb(0%,0%,0%);fill-opacity:1;" d="M 228.78125 220.445312 C 229.621094 220.476562 230.414062 221.382812 230.082031 222.222656 C 229.9375 222.613281 229.542969 222.851562 229.21875 223.015625 C 230.027344 223.253906 230.519531 224.199219 230.152344 224.976562 C 229.773438 225.984375 228.328125 226.304688 227.535156 225.574219 C 226.8125 225 226.789062 223.761719 227.589844 223.253906 C 227.707031 223.128906 227.929688 223.089844 228.035156 222.992188 C 227.34375 222.796875 226.875 221.992188 227.199219 221.320312 C 227.464844 220.714844 228.136719 220.382812 228.78125 220.445312 Z M 228.78125 220.445312 Z M 228.480469 220.898438 C 227.890625 220.914062 227.480469 221.582031 227.675781 222.105469 C 227.90625 223.007812 229.421875 222.976562 229.597656 222.050781 C 229.757812 221.53125 229.34375 220.914062 228.78125 220.898438 L 228.765625 220.890625 L 228.496094 220.890625 Z M 228.480469 220.898438 Z M 228.496094 223.253906 C 227.804688 223.304688 227.464844 224.128906 227.644531 224.714844 C 227.765625 225.550781 228.953125 225.796875 229.421875 225.128906 C 229.875 224.515625 229.652344 223.421875 228.835938 223.253906 L 228.765625 223.253906 L 228.75 223.238281 L 228.503906 223.238281 Z M 228.496094 223.253906 Z M 228.496094 223.253906 "/>
<path style=" stroke:none;fill-rule:nonzero;fill:rgb(0%,0%,0%);fill-opacity:1;" d="M 248.53125 220.445312 C 249.285156 220.5 249.785156 221.191406 249.917969 221.890625 C 249.992188 222.207031 250.007812 222.507812 250.039062 222.828125 L 250.039062 223.636719 C 250 224.460938 249.800781 225.550781 248.902344 225.882812 C 248.125 226.191406 247.214844 225.707031 246.984375 224.914062 C 246.808594 224.492188 246.792969 224.066406 246.753906 223.636719 L 246.753906 222.828125 C 246.792969 222 246.96875 220.90625 247.855469 220.542969 L 247.894531 220.523438 L 247.925781 220.515625 L 247.96875 220.5 L 248.085938 220.46875 L 248.15625 220.453125 L 248.246094 220.453125 L 248.261719 220.445312 Z M 248.53125 220.445312 Z M 248.285156 220.929688 C 247.617188 221.007812 247.417969 221.8125 247.371094 222.351562 L 247.371094 222.566406 L 247.355469 222.582031 L 247.355469 223.683594 C 247.402344 224.253906 247.441406 224.992188 247.96875 225.375 C 248.453125 225.707031 249.09375 225.335938 249.230469 224.820312 C 249.371094 224.4375 249.402344 224.066406 249.433594 223.683594 L 249.433594 222.582031 C 249.386719 222 249.308594 221.191406 248.640625 220.960938 L 248.585938 220.945312 L 248.570312 220.929688 L 248.5 220.929688 L 248.484375 220.914062 L 248.300781 220.914062 Z M 248.285156 220.929688 Z M 248.285156 220.929688 "/>
<path style=" stroke:none;fill-rule:nonzero;fill:rgb(0%,0%,0%);fill-opacity:1;" d="M 251.808594 225.160156 L 251.808594 225.796875 L 251.164062 225.796875 L 251.164062 225.160156 Z M 251.808594 225.160156 Z M 251.808594 225.160156 "/>
<path style=" stroke:none;fill-rule:nonzero;fill:rgb(0%,0%,0%);fill-opacity:1;" d="M 254.730469 220.445312 C 255.683594 220.550781 256.09375 221.628906 256.15625 222.453125 C 256.269531 223.523438 256.140625 224.78125 255.269531 225.550781 C 254.722656 226.097656 253.753906 226.113281 253.164062 225.621094 C 253.238281 225.484375 253.316406 225.328125 253.402344 225.214844 C 253.921875 225.714844 254.824219 225.574219 255.15625 224.929688 C 255.394531 224.542969 255.539062 224.042969 255.53125 223.613281 C 255.0625 224.214844 254.03125 224.566406 253.46875 223.929688 C 252.894531 223.269531 252.792969 222.3125 253.078125 221.515625 C 253.371094 220.890625 254 220.351562 254.730469 220.445312 Z M 254.730469 220.445312 Z M 254.46875 220.898438 C 253.894531 220.945312 253.601562 221.582031 253.5625 222.082031 C 253.539062 222.644531 253.5625 223.304688 254.0625 223.667969 C 254.617188 224.007812 255.332031 223.597656 255.460938 222.992188 C 255.609375 222.40625 255.515625 221.777344 255.214844 221.230469 C 255.046875 221 254.746094 220.835938 254.46875 220.898438 Z M 254.46875 220.898438 Z M 254.46875 220.898438 "/>
<path style=" stroke:none;fill-rule:nonzero;fill:rgb(0%,0%,0%);fill-opacity:1;" d="M 274.710938 220.445312 L 274.710938 225.34375 L 274.71875 225.359375 L 275.695312 225.359375 L 275.695312 225.796875 L 273.113281 225.796875 L 273.113281 225.359375 L 274.089844 225.359375 L 274.105469 225.34375 L 274.105469 221.230469 C 273.773438 221.34375 273.425781 221.414062 273.074219 221.40625 L 273.074219 220.960938 C 273.597656 220.96875 274.171875 220.828125 274.566406 220.445312 Z M 274.710938 220.445312 Z M 274.710938 220.445312 "/>
<path style=" stroke:none;fill-rule:nonzero;fill:rgb(0%,0%,0%);fill-opacity:1;" d="M 277.742188 225.160156 L 277.742188 225.796875 L 277.097656 225.796875 L 277.097656 225.160156 Z M 277.742188 225.160156 Z M 277.742188 225.160156 "/>
<path style=" stroke:none;fill-rule:nonzero;fill:rgb(0%,0%,0%);fill-opacity:1;" d="M 280.632812 220.445312 C 281.386719 220.5 281.886719 221.191406 282.019531 221.890625 C 282.089844 222.207031 282.105469 222.507812 282.140625 222.828125 L 282.140625 223.636719 C 282.097656 224.460938 281.902344 225.550781 281.003906 225.882812 C 280.226562 226.191406 279.3125 225.707031 279.082031 224.914062 C 278.910156 224.492188 278.894531 224.066406 278.851562 223.636719 L 278.851562 222.828125 C 278.894531 222 279.066406 220.90625 279.957031 220.542969 L 279.996094 220.523438 L 280.027344 220.515625 L 280.066406 220.5 L 280.1875 220.46875 L 280.257812 220.453125 L 280.34375 220.453125 L 280.359375 220.445312 Z M 280.632812 220.445312 Z M 280.386719 220.929688 C 279.71875 221.007812 279.519531 221.8125 279.472656 222.351562 L 279.472656 222.566406 L 279.457031 222.582031 L 279.457031 223.683594 C 279.503906 224.253906 279.542969 224.992188 280.066406 225.375 C 280.550781 225.707031 281.195312 225.335938 281.328125 224.820312 C 281.472656 224.4375 281.503906 224.066406 281.535156 223.683594 L 281.535156 222.582031 C 281.488281 222 281.410156 221.191406 280.742188 220.960938 L 280.6875 220.945312 L 280.671875 220.929688 L 280.597656 220.929688 L 280.582031 220.914062 L 280.402344 220.914062 Z M 280.386719 220.929688 Z M 280.386719 220.929688 "/>
<path style="fill:none;stroke-width:0.02;stroke-linecap:butt;stroke-linejoin:miter;stroke:rgb(0%,0%,0%);stroke-opacity:1;stroke-miterlimit:10;" d="M 1.517358 7.838356 L 1.517358 7.73335 " transform="matrix(28.346457,0,0,-28.346457,1,227.771654)"/>
<path style="fill:none;stroke-width:0.02;stroke-linecap:butt;stroke-linejoin:miter;stroke:rgb(0%,0%,0%);stroke-opacity:1;stroke-miterlimit:10;" d="M 2.432237 7.838356 L 2.432237 7.73335 " transform="matrix(28.346457,0,0,-28.346457,1,227.771654)"/>
<path style="fill:none;stroke-width:0.02;stroke-linecap:butt;stroke-linejoin:miter;stroke:rgb(0%,0%,0%);stroke-opacity:1;stroke-miterlimit:10;" d="M 3.347117 7.838356 L 3.347117 7.73335 " transform="matrix(28.346457,0,0,-28.346457,1,227.771654)"/>
<path style="fill:none;stroke-width:0.02;stroke-linecap:butt;stroke-linejoin:miter;stroke:rgb(0%,0%,0%);stroke-opacity:1;stroke-miterlimit:10;" d="M 4.261997 7.838356 L 4.261997 7.73335 " transform="matrix(28.346457,0,0,-28.346457,1,227.771654)"/>
<path style="fill:none;stroke-width:0.02;stroke-linecap:butt;stroke-linejoin:miter;stroke:rgb(0%,0%,0%);stroke-opacity:1;stroke-miterlimit:10;" d="M 5.176876 7.838356 L 5.176876 7.73335 " transform="matrix(28.346457,0,0,-28.346457,1,227.771654)"/>
<path style="fill:none;stroke-width:0.02;stroke-linecap:butt;stroke-linejoin:miter;stroke:rgb(0%,0%,0%);stroke-opacity:1;stroke-miterlimit:10;" d="M 6.091756 7.838356 L 6.091756 7.73335 " transform="matrix(28.346457,0,0,-28.346457,1,227.771654)"/>
<path style="fill:none;stroke-width:0.02;stroke-linecap:butt;stroke-linejoin:miter;stroke:rgb(0%,0%,0%);stroke-opacity:1;stroke-miterlimit:10;" d="M 7.006635 7.838356 L 7.006635 7.73335 " transform="matrix(28.346457,0,0,-28.346457,1,227.771654)"/>
<path style="fill:none;stroke-width:0.02;stroke-linecap:butt;stroke-linejoin:miter;stroke:rgb(0%,0%,0%);stroke-opacity:1;stroke-miterlimit:10;" d="M 7.921515 7.838356 L 7.921515 7.73335 " transform="matrix(28.346457,0,0,-28.346457,1,227.771654)"/>
<path style="fill:none;stroke-width:0.02;stroke-linecap:butt;stroke-linejoin:miter;stroke:rgb(0%,0%,0%);stroke-opacity:1;stroke-miterlimit:10;" d="M 8.836394 7.838356 L 8.836394 7.73335 " transform="matrix(28.346457,0,0,-28.346457,1,227.771654)"/>
<path style="fill:none;stroke-width:0.02;stroke-linecap:round;stroke-linejoin:miter;stroke:rgb(0%,0%,0%);stroke-opacity:1;stroke-miterlimit:10;" d="M 0.602616 7.838356 L 9.751274 7.838356 " transform="matrix(28.346457,0,0,-28.346457,1,227.771654)"/>
<path style="fill:none;stroke-width:0.02;stroke-linecap:butt;stroke-linejoin:miter;stroke:rgb(79.215686%,38.431373%,29.411765%);stroke-opacity:1;stroke-miterlimit:10;" d="M 0.602616 2.898365 L 0.694945 2.923445 L 0.787411 2.948801 L 0.87974 2.974295 L 0.972206 3.000202 L 1.064672 3.026385 L 1.157001 3.052705 L 1.249467 3.079301 L 1.341796 3.106311 L 1.434262 3.133458 L 1.526729 3.160881 L 1.619057 3.18858 L 1.711523 3.216692 L 1.803852 3.244941 L 1.896318 3.273605 L 1.988785 3.302406 L 2.081113 3.33162 L 2.17358 3.36111 L 2.265908 3.390876 L 2.358375 3.420917 L 2.450841 3.451372 L 2.543169 3.481964 L 2.635636 3.51297 L 2.727964 3.544389 L 2.820431 3.575946 L 2.912759 3.607917 L 3.005226 3.640163 L 3.097692 3.672822 L 3.190021 3.705757 L 3.282487 3.738968 L 3.374816 3.772592 L 3.467282 3.80663 L 3.559748 3.840805 L 3.652077 3.875532 L 3.744543 3.910534 L 3.836872 3.945812 L 3.929338 3.981641 L 4.021804 4.017607 L 4.114133 4.054125 L 4.206599 4.090919 L 4.298928 4.128126 L 4.391394 4.165609 L 4.483861 4.203643 L 4.576189 4.241952 L 4.668656 4.280675 L 4.760984 4.319673 L 4.853451 4.359223 L 4.945917 4.399186 L 5.038245 4.439425 L 5.130712 4.480215 L 5.22304 4.52128 L 5.315507 4.562897 L 5.407973 4.604789 L 5.500302 4.647233 L 5.592768 4.69009 L 5.685097 4.73336 L 5.777563 4.777044 L 5.870029 4.821141 L 5.962358 4.86579 L 6.054824 4.910852 L 6.147153 4.956327 L 6.239619 5.002354 L 6.332086 5.048793 L 6.424414 5.095647 L 6.51688 5.143051 L 6.609209 5.190869 L 6.701675 5.239238 L 6.794142 5.288021 L 6.88647 5.337355 L 6.978937 5.38724 L 7.071265 5.437538 L 7.163732 5.488388 L 7.256198 5.539788 L 7.348526 5.59174 L 7.440993 5.644106 L 7.533321 5.697023 L 7.625788 5.750628 L 7.718116 5.804647 L 7.810583 5.859218 L 7.903049 5.914339 L 7.995378 5.970012 L 8.087844 6.026236 L 8.180173 6.083149 L 8.272639 6.140475 L 8.365105 6.198491 L 8.457434 6.257057 L 8.5499 6.316313 L 8.642229 6.375982 L 8.734695 6.436478 L 8.827161 6.497387 L 8.91949 6.558985 L 9.011956 6.621273 L 9.104285 6.684111 L 9.196751 6.747639 L 9.289218 6.811855 L 9.381546 6.876623 L 9.474013 6.94208 L 9.566341 7.008226 L 9.658808 7.074923 L 9.751274 7.142447 " transform="matrix(28.346457,0,0,-28.346457,1,227.771654)"/>
<path style="fill:none;stroke-width:0.02;stroke-linecap:butt;stroke-linejoin:miter;stroke:rgb(96.862745%,85.882353%,65.490196%);stroke-opacity:1;stroke-miterlimit:10;" d="M 0.602616 0.428369 L 0.694945 0.676692 L 0.787411 0.779493 L 0.87974 0.858317 L 0.972206 0.924876 L 1.064672 0.983443 L 1.157001 1.036497 L 1.249467 1.085142 L 1.341796 1.13048 L 1.434262 1.173061 L 1.526729 1.213438 L 1.619057 1.251747 L 1.711523 1.288265 L 1.803852 1.323405 L 1.896318 1.357167 L 1.988785 1.389826 L 2.081113 1.421383 L 2.17358 1.451976 L 2.265908 1.481604 L 2.358375 1.510405 L 2.450841 1.538517 L 2.543169 1.56594 L 2.635636 1.592811 L 2.727964 1.618856 L 2.820431 1.644488 L 2.912759 1.669568 L 3.005226 1.694235 L 3.097692 1.718351 L 3.190021 1.741915 L 3.282487 1.765204 L 3.374816 1.788079 L 3.467282 1.810541 L 3.559748 1.832728 L 3.652077 1.854501 L 3.744543 1.87586 L 3.836872 1.897082 L 3.929338 1.917891 L 4.021804 1.938423 L 4.114133 1.958681 L 4.206599 1.978662 L 4.298928 1.998368 L 4.391394 2.017936 L 4.483861 2.037229 L 4.576189 2.056246 L 4.668656 2.074987 L 4.760984 2.09359 L 4.853451 2.112056 L 4.945917 2.130246 L 5.038245 2.148299 L 5.130712 2.166075 L 5.22304 2.183714 L 5.315507 2.201215 L 5.407973 2.218441 L 5.500302 2.235666 L 5.592768 2.252616 L 5.685097 2.269428 L 5.777563 2.286102 L 5.870029 2.302639 L 5.962358 2.3189 L 6.054824 2.335161 L 6.147153 2.351284 L 6.239619 2.367269 L 6.332086 2.383116 L 6.424414 2.398688 L 6.51688 2.41426 L 6.609209 2.429832 L 6.701675 2.445128 L 6.794142 2.460286 L 6.88647 2.475445 L 6.978937 2.490465 L 7.071265 2.505348 L 7.256198 2.534838 L 7.348526 2.549308 L 7.440993 2.563915 L 7.533321 2.578247 L 7.625788 2.592578 L 7.718116 2.606772 L 7.810583 2.620828 L 7.903049 2.634746 L 7.995378 2.648802 L 8.087844 2.662582 L 8.180173 2.676363 L 8.272639 2.690005 L 8.365105 2.70351 L 8.457434 2.717015 L 8.5499 2.73052 L 8.642229 2.743887 L 8.827161 2.770345 L 8.91949 2.783436 L 9.011956 2.796528 L 9.104285 2.809481 L 9.196751 2.822297 L 9.289218 2.835251 L 9.381546 2.847929 L 9.474013 2.860607 L 9.566341 2.873285 L 9.751274 2.898365 " transform="matrix(28.346457,0,0,-28.346457,1,227.771654)"/>
<path style=" stroke:none;fill-rule:nonzero;fill:rgb(100%,100%,100%);fill-opacity:1;" d="M 228.402344 21.964844 L 277.414062 21.964844 L 277.414062 5.582031 L 228.402344 5.582031 Z M 228.402344 21.964844 "/>
<path style="fill:none;stroke-width:0.02;stroke-linecap:butt;stroke-linejoin:miter;stroke:rgb(96.862745%,85.882353%,65.490196%);stroke-opacity:1;stroke-miterlimit:10;" d="M 8.211178 7.549382 L 8.841217 7.549382 " transform="matrix(28.346457,0,0,-28.346457,1,227.771654)"/>
<path style=" stroke:none;fill-rule:nonzero;fill:rgb(0%,0%,0%);fill-opacity:1;" d="M 258.402344 12.070312 C 258.769531 12.132812 259.257812 12.171875 259.554688 12.417969 C 259.503906 12.597656 259.503906 12.835938 259.425781 13.003906 C 258.820312 12.675781 258.074219 12.488281 257.421875 12.796875 C 256.996094 13.105469 257.210938 13.769531 257.707031 13.847656 C 258.394531 13.988281 259.195312 14.078125 259.574219 14.75 C 260.011719 15.484375 259.554688 16.546875 258.691406 16.675781 C 257.9375 16.816406 257.132812 16.683594 256.449219 16.289062 C 256.5 16.082031 256.519531 15.832031 256.578125 15.644531 C 257.242188 16.058594 258.144531 16.359375 258.859375 15.910156 C 259.226562 15.5625 259.019531 14.929688 258.53125 14.820312 C 257.867188 14.660156 257.0625 14.601562 256.667969 13.957031 C 256.179688 13.191406 256.804688 12.101562 257.707031 12.113281 L 257.730469 12.09375 L 257.867188 12.09375 L 257.886719 12.070312 Z M 258.402344 12.070312 Z M 258.402344 12.070312 "/>
<path style=" stroke:none;fill-rule:nonzero;fill:rgb(0%,0%,0%);fill-opacity:1;" d="M 262.332031 12.132812 C 262.796875 12.171875 263.246094 12.4375 263.53125 12.804688 L 263.550781 12.796875 L 263.550781 12.132812 L 264.265625 12.132812 L 264.265625 18.550781 L 263.511719 18.550781 L 263.511719 16.148438 C 263.164062 16.40625 262.679688 16.726562 262.191406 16.707031 C 261.179688 16.875 260.4375 15.78125 260.378906 14.871094 C 260.160156 13.769531 260.773438 12.300781 262.003906 12.132812 Z M 262.332031 12.132812 Z M 262.402344 12.777344 C 261.289062 12.90625 260.8125 14.3125 261.261719 15.226562 C 261.5 16.019531 262.589844 16.476562 263.214844 15.84375 C 263.363281 15.734375 263.445312 15.554688 263.550781 15.40625 L 263.550781 13.710938 C 263.414062 13.191406 263.007812 12.675781 262.421875 12.757812 Z M 262.402344 12.777344 Z M 262.402344 12.777344 "/>
<path style=" stroke:none;fill-rule:nonzero;fill:rgb(0%,0%,0%);fill-opacity:1;" d="M 268.316406 12.132812 L 268.316406 12.777344 C 267.472656 12.757812 266.707031 13.472656 266.628906 14.292969 L 266.628906 16.617188 L 265.914062 16.617188 L 265.914062 12.179688 L 266.570312 12.179688 L 266.570312 13.0625 C 266.816406 12.804688 267.132812 12.429688 267.519531 12.289062 L 267.589844 12.25 L 267.757812 12.199219 L 267.898438 12.160156 L 267.988281 12.152344 L 268.117188 12.152344 L 268.136719 12.132812 Z M 268.316406 12.132812 Z M 268.316406 12.132812 "/>
<path style=" stroke:none;fill-rule:nonzero;fill:rgb(0%,0%,0%);fill-opacity:1;" d="M 270.210938 10.980469 L 270.210938 12.222656 L 270.230469 12.242188 L 271.589844 12.242188 L 271.589844 12.796875 L 270.230469 12.796875 L 270.210938 12.804688 L 270.210938 15.496094 C 270.25 15.734375 270.328125 16.039062 270.605469 16.109375 C 270.953125 16.128906 271.3125 16 271.589844 15.78125 L 271.609375 15.824219 L 271.617188 15.890625 L 271.636719 15.953125 L 271.660156 16.019531 L 271.679688 16.070312 L 271.71875 16.21875 C 271.835938 16.449219 271.480469 16.46875 271.339844 16.554688 C 270.882812 16.675781 270.398438 16.835938 269.941406 16.636719 C 269.613281 16.4375 269.546875 16.019531 269.503906 15.683594 L 269.503906 12.804688 L 269.484375 12.796875 L 268.660156 12.796875 L 268.660156 12.242188 L 269.523438 12.242188 L 269.546875 12.222656 L 269.546875 10.980469 Z M 270.210938 10.980469 Z M 270.210938 10.980469 "/>
<path style="fill:none;stroke-width:0.02;stroke-linecap:butt;stroke-linejoin:miter;stroke:rgb(0%,0%,0%);stroke-opacity:1;stroke-miterlimit:10;" d="M 8.022249 7.260407 L 9.751274 7.260407 L 9.751274 7.838356 L 8.022249 7.838356 Z M 8.022249 7.260407 " transform="matrix(28.346457,0,0,-28.346457,1,227.771654)"/>
</g>
</svg>
