<?xml version="1.0" encoding="UTF-8"?>
<svg xmlns="http://www.w3.org/2000/svg" xmlns:xlink="http://www.w3.org/1999/xlink" width="285.464567pt" height="228.771654pt" viewBox="0 0 285.464567 228.771654" version="1.1">
<defs>
<clipPath id="clip1">
  <path d="M 18.082031 215.628906 L 282.480469 215.628906 L 282.480469 5.582031 L 18.082031 5.582031 Z M 18.082031 5.582031 "/>
</clipPath>
</defs>
<g id="surface1">
<g clip-path="url(#clip1)" clip-rule="nonzero">
<path style=" stroke:none;fill-rule:nonzero;fill:rgb(39.215686%,58.431373%,92.941176%);fill-opacity:0.2;" d="M 18.082031 215.628906 L 20.75 212.296875 L 26.09375 205.632812 L 28.761719 202.304688 L 31.433594 198.980469 L 34.105469 195.660156 L 36.773438 192.347656 L 39.445312 189.039062 L 42.117188 185.734375 L 44.789062 182.441406 L 47.457031 179.152344 L 50.128906 175.875 L 52.800781 172.609375 L 55.46875 169.351562 L 58.140625 166.109375 L 60.8125 162.875 L 63.484375 159.65625 L 66.152344 156.453125 L 68.824219 153.261719 L 71.496094 150.085938 L 74.164062 146.929688 L 76.835938 143.789062 L 79.507812 140.667969 L 82.175781 137.5625 L 84.847656 134.476562 L 87.519531 131.414062 L 90.191406 128.371094 L 92.859375 125.351562 L 95.53125 122.355469 L 98.203125 119.378906 L 100.871094 116.429688 L 103.542969 113.503906 L 106.214844 110.605469 L 108.882812 107.734375 L 111.554688 104.886719 L 114.226562 102.070312 L 116.898438 99.28125 L 119.566406 96.519531 L 122.238281 93.789062 L 124.910156 91.089844 L 127.578125 88.421875 L 130.25 85.789062 L 132.921875 83.183594 L 135.589844 80.613281 L 138.261719 78.078125 L 140.933594 75.578125 L 143.605469 73.109375 L 146.273438 70.679688 L 148.945312 68.289062 L 151.617188 65.929688 L 154.285156 63.613281 L 156.957031 61.332031 L 159.628906 59.089844 L 162.296875 56.886719 L 164.96875 54.726562 L 167.640625 52.601562 L 170.3125 50.523438 L 172.980469 48.484375 L 175.652344 46.484375 L 178.324219 44.53125 L 180.992188 42.621094 L 183.664062 40.75 L 186.335938 38.925781 L 189.003906 37.148438 L 191.675781 35.414062 L 194.347656 33.722656 L 197.019531 32.082031 L 199.6875 30.484375 L 202.359375 28.933594 L 205.03125 27.429688 L 207.699219 25.972656 L 210.371094 24.566406 L 213.042969 23.203125 L 215.710938 21.894531 L 218.382812 20.628906 L 221.054688 19.414062 L 223.726562 18.25 L 226.394531 17.136719 L 229.066406 16.070312 L 231.738281 15.054688 L 234.40625 14.09375 L 237.078125 13.179688 L 239.75 12.316406 L 242.417969 11.503906 L 245.089844 10.746094 L 247.761719 10.035156 L 250.433594 9.378906 L 253.101562 8.773438 L 255.773438 8.222656 L 258.445312 7.722656 L 261.113281 7.273438 L 263.785156 6.878906 L 266.457031 6.535156 L 269.125 6.246094 L 271.796875 6.007812 L 274.46875 5.820312 L 277.140625 5.6875 L 279.808594 5.609375 L 282.480469 5.582031 L 282.480469 215.628906 L 279.808594 212.296875 L 277.140625 208.964844 L 274.46875 205.632812 L 271.796875 202.304688 L 269.125 198.980469 L 266.457031 195.660156 L 263.785156 192.347656 L 261.113281 189.039062 L 258.445312 185.734375 L 255.773438 182.441406 L 253.101562 179.152344 L 250.433594 175.875 L 247.761719 172.609375 L 245.089844 169.351562 L 242.417969 166.109375 L 239.75 162.875 L 237.078125 159.65625 L 234.40625 156.453125 L 231.738281 153.261719 L 229.066406 150.085938 L 226.394531 146.929688 L 223.726562 143.789062 L 221.054688 140.667969 L 218.382812 137.5625 L 215.710938 134.476562 L 213.042969 131.414062 L 210.371094 128.371094 L 207.699219 125.351562 L 205.03125 122.355469 L 202.359375 119.378906 L 199.6875 116.429688 L 197.019531 113.503906 L 194.347656 110.605469 L 191.675781 107.734375 L 189.003906 104.886719 L 186.335938 102.070312 L 183.664062 99.28125 L 180.992188 96.519531 L 178.324219 93.789062 L 175.652344 91.089844 L 172.980469 88.421875 L 170.3125 85.789062 L 167.640625 83.183594 L 164.96875 80.613281 L 162.296875 78.078125 L 159.628906 75.578125 L 156.957031 73.109375 L 154.285156 70.679688 L 151.617188 68.289062 L 148.945312 65.929688 L 146.273438 63.613281 L 143.605469 61.332031 L 140.933594 59.089844 L 138.261719 56.886719 L 135.589844 54.726562 L 132.921875 52.601562 L 130.25 50.523438 L 127.578125 48.484375 L 124.910156 46.484375 L 122.238281 44.53125 L 119.566406 42.621094 L 116.898438 40.75 L 114.226562 38.925781 L 111.554688 37.148438 L 108.882812 35.414062 L 106.214844 33.722656 L 103.542969 32.082031 L 100.871094 30.484375 L 98.203125 28.933594 L 95.53125 27.429688 L 92.859375 25.972656 L 90.191406 24.566406 L 87.519531 23.203125 L 84.847656 21.894531 L 82.175781 20.628906 L 79.507812 19.414062 L 76.835938 18.25 L 74.164062 17.136719 L 71.496094 16.070312 L 68.824219 15.054688 L 66.152344 14.09375 L 63.484375 13.179688 L 60.8125 12.316406 L 58.140625 11.503906 L 55.46875 10.746094 L 52.800781 10.035156 L 50.128906 9.378906 L 47.457031 8.773438 L 44.789062 8.222656 L 42.117188 7.722656 L 39.445312 7.273438 L 36.773438 6.878906 L 34.105469 6.535156 L 31.433594 6.246094 L 28.761719 6.007812 L 26.09375 5.820312 L 23.421875 5.6875 L 20.75 5.609375 L 18.082031 5.582031 Z M 18.082031 215.628906 "/>
</g>
<path style="fill:none;stroke-width:0.02;stroke-linecap:butt;stroke-linejoin:miter;stroke:rgb(0%,0%,0%);stroke-opacity:1;stroke-miterlimit:10;" d="M 0.602616 1.16934 L 0.707623 1.16934 " transform="matrix(28.346457,0,0,-28.346457,1,227.771654)"/>
<path style="fill:none;stroke-width:0.02;stroke-linecap:butt;stroke-linejoin:miter;stroke:rgb(0%,0%,0%);stroke-opacity:1;stroke-miterlimit:10;" d="M 0.602616 1.910311 L 0.707623 1.910311 " transform="matrix(28.346457,0,0,-28.346457,1,227.771654)"/>
<path style="fill:none;stroke-width:0.02;stroke-linecap:butt;stroke-linejoin:miter;stroke:rgb(0%,0%,0%);stroke-opacity:1;stroke-miterlimit:10;" d="M 0.602616 2.65142 L 0.707623 2.65142 " transform="matrix(28.346457,0,0,-28.346457,1,227.771654)"/>
<path style="fill:none;stroke-width:0.02;stroke-linecap:butt;stroke-linejoin:miter;stroke:rgb(0%,0%,0%);stroke-opacity:1;stroke-miterlimit:10;" d="M 0.602616 3.392391 L 0.707623 3.392391 " transform="matrix(28.346457,0,0,-28.346457,1,227.771654)"/>
<path style="fill:none;stroke-width:0.02;stroke-linecap:butt;stroke-linejoin:miter;stroke:rgb(0%,0%,0%);stroke-opacity:1;stroke-miterlimit:10;" d="M 0.602616 4.133363 L 0.707623 4.133363 " transform="matrix(28.346457,0,0,-28.346457,1,227.771654)"/>
<path style="fill:none;stroke-width:0.02;stroke-linecap:butt;stroke-linejoin:miter;stroke:rgb(0%,0%,0%);stroke-opacity:1;stroke-miterlimit:10;" d="M 0.602616 4.874334 L 0.707623 4.874334 " transform="matrix(28.346457,0,0,-28.346457,1,227.771654)"/>
<path style="fill:none;stroke-width:0.02;stroke-linecap:butt;stroke-linejoin:miter;stroke:rgb(0%,0%,0%);stroke-opacity:1;stroke-miterlimit:10;" d="M 0.602616 5.615305 L 0.707623 5.615305 " transform="matrix(28.346457,0,0,-28.346457,1,227.771654)"/>
<path style="fill:none;stroke-width:0.02;stroke-linecap:butt;stroke-linejoin:miter;stroke:rgb(0%,0%,0%);stroke-opacity:1;stroke-miterlimit:10;" d="M 0.602616 6.356276 L 0.707623 6.356276 " transform="matrix(28.346457,0,0,-28.346457,1,227.771654)"/>
<path style="fill:none;stroke-width:0.02;stroke-linecap:butt;stroke-linejoin:miter;stroke:rgb(0%,0%,0%);stroke-opacity:1;stroke-miterlimit:10;" d="M 0.602616 7.097247 L 0.707623 7.097247 " transform="matrix(28.346457,0,0,-28.346457,1,227.771654)"/>
<path style="fill:none;stroke-width:0.02;stroke-linecap:round;stroke-linejoin:miter;stroke:rgb(0%,0%,0%);stroke-opacity:1;stroke-miterlimit:10;" d="M 0.602616 0.428369 L 0.602616 7.838356 " transform="matrix(28.346457,0,0,-28.346457,1,227.771654)"/>
<path style=" stroke:none;fill-rule:nonzero;fill:rgb(0%,0%,0%);fill-opacity:1;" d="M 5.101562 212.886719 C 5.859375 212.941406 6.359375 213.632812 6.492188 214.332031 C 6.5625 214.648438 6.578125 214.949219 6.613281 215.265625 L 6.613281 216.078125 C 6.570312 216.902344 6.375 217.988281 5.476562 218.324219 C 4.699219 218.632812 3.785156 218.148438 3.554688 217.355469 C 3.382812 216.933594 3.363281 216.503906 3.324219 216.078125 L 3.324219 215.265625 C 3.363281 214.441406 3.539062 213.347656 4.429688 212.980469 L 4.46875 212.964844 L 4.5 212.957031 L 4.539062 212.941406 L 4.660156 212.910156 L 4.730469 212.894531 L 4.816406 212.894531 L 4.832031 212.886719 Z M 5.101562 212.886719 Z M 4.855469 213.371094 C 4.191406 213.449219 3.992188 214.25 3.945312 214.789062 L 3.945312 215.003906 L 3.929688 215.019531 L 3.929688 216.125 C 3.976562 216.695312 4.015625 217.433594 4.539062 217.816406 C 5.023438 218.148438 5.667969 217.773438 5.800781 217.257812 C 5.945312 216.878906 5.976562 216.503906 6.007812 216.125 L 6.007812 215.019531 C 5.960938 214.441406 5.882812 213.632812 5.214844 213.402344 L 5.160156 213.386719 L 5.144531 213.371094 L 5.070312 213.371094 L 5.054688 213.355469 L 4.875 213.355469 Z M 4.855469 213.371094 Z M 4.855469 213.371094 "/>
<path style=" stroke:none;fill-rule:nonzero;fill:rgb(0%,0%,0%);fill-opacity:1;" d="M 8.382812 217.601562 L 8.382812 218.234375 L 7.738281 218.234375 L 7.738281 217.601562 Z M 8.382812 217.601562 Z M 8.382812 217.601562 "/>
<path style=" stroke:none;fill-rule:nonzero;fill:rgb(0%,0%,0%);fill-opacity:1;" d="M 11.269531 212.886719 C 12.023438 212.941406 12.523438 213.632812 12.660156 214.332031 C 12.730469 214.648438 12.746094 214.949219 12.777344 215.265625 L 12.777344 216.078125 C 12.738281 216.902344 12.539062 217.988281 11.644531 218.324219 C 10.867188 218.632812 9.953125 218.148438 9.722656 217.355469 C 9.546875 216.933594 9.53125 216.503906 9.492188 216.078125 L 9.492188 215.265625 C 9.53125 214.441406 9.707031 213.347656 10.597656 212.980469 L 10.636719 212.964844 L 10.667969 212.957031 L 10.707031 212.941406 L 10.824219 212.910156 L 10.898438 212.894531 L 10.984375 212.894531 L 11 212.886719 Z M 11.269531 212.886719 Z M 11.023438 213.371094 C 10.359375 213.449219 10.160156 214.25 10.113281 214.789062 L 10.113281 215.003906 L 10.097656 215.019531 L 10.097656 216.125 C 10.144531 216.695312 10.183594 217.433594 10.707031 217.816406 C 11.191406 218.148438 11.835938 217.773438 11.96875 217.257812 C 12.113281 216.878906 12.144531 216.503906 12.175781 216.125 L 12.175781 215.019531 C 12.128906 214.441406 12.046875 213.632812 11.382812 213.402344 L 11.324219 213.386719 L 11.308594 213.371094 L 11.238281 213.371094 L 11.222656 213.355469 L 11.039062 213.355469 Z M 11.023438 213.371094 Z M 11.023438 213.371094 "/>
<path style=" stroke:none;fill-rule:nonzero;fill:rgb(0%,0%,0%);fill-opacity:1;" d="M 5.101562 191.882812 C 5.859375 191.9375 6.359375 192.628906 6.492188 193.324219 C 6.5625 193.644531 6.578125 193.945312 6.613281 194.261719 L 6.613281 195.070312 C 6.570312 195.898438 6.375 196.984375 5.476562 197.316406 C 4.699219 197.628906 3.785156 197.144531 3.554688 196.351562 C 3.382812 195.929688 3.363281 195.5 3.324219 195.070312 L 3.324219 194.261719 C 3.363281 193.4375 3.539062 192.339844 4.429688 191.976562 L 4.46875 191.960938 L 4.5 191.953125 L 4.539062 191.9375 L 4.660156 191.90625 L 4.730469 191.890625 L 4.816406 191.890625 L 4.832031 191.882812 Z M 5.101562 191.882812 Z M 4.855469 192.367188 C 4.191406 192.445312 3.992188 193.246094 3.945312 193.785156 L 3.945312 194 L 3.929688 194.015625 L 3.929688 195.121094 C 3.976562 195.691406 4.015625 196.429688 4.539062 196.808594 C 5.023438 197.144531 5.667969 196.769531 5.800781 196.253906 C 5.945312 195.875 5.976562 195.5 6.007812 195.121094 L 6.007812 194.015625 C 5.960938 193.4375 5.882812 192.628906 5.214844 192.398438 L 5.160156 192.382812 L 5.144531 192.367188 L 5.070312 192.367188 L 5.054688 192.351562 L 4.875 192.351562 Z M 4.855469 192.367188 Z M 4.855469 192.367188 "/>
<path style=" stroke:none;fill-rule:nonzero;fill:rgb(0%,0%,0%);fill-opacity:1;" d="M 8.382812 196.597656 L 8.382812 197.230469 L 7.738281 197.230469 L 7.738281 196.597656 Z M 8.382812 196.597656 Z M 8.382812 196.597656 "/>
<path style=" stroke:none;fill-rule:nonzero;fill:rgb(0%,0%,0%);fill-opacity:1;" d="M 11.515625 191.882812 L 11.515625 196.777344 L 11.523438 196.792969 L 12.5 196.792969 L 12.5 197.230469 L 9.921875 197.230469 L 9.921875 196.792969 L 10.898438 196.792969 L 10.914062 196.777344 L 10.914062 192.667969 C 10.578125 192.777344 10.230469 192.851562 9.882812 192.839844 L 9.882812 192.398438 C 10.40625 192.40625 10.976562 192.261719 11.375 191.882812 Z M 11.515625 191.882812 Z M 11.515625 191.882812 "/>
<path style=" stroke:none;fill-rule:nonzero;fill:rgb(0%,0%,0%);fill-opacity:1;" d="M 5.101562 170.875 C 5.859375 170.933594 6.359375 171.621094 6.492188 172.320312 C 6.5625 172.640625 6.578125 172.941406 6.613281 173.257812 L 6.613281 174.066406 C 6.570312 174.894531 6.375 175.980469 5.476562 176.3125 C 4.699219 176.625 3.785156 176.140625 3.554688 175.34375 C 3.382812 174.925781 3.363281 174.496094 3.324219 174.066406 L 3.324219 173.257812 C 3.363281 172.433594 3.539062 171.335938 4.429688 170.972656 L 4.46875 170.957031 L 4.5 170.949219 L 4.539062 170.933594 L 4.660156 170.902344 L 4.730469 170.886719 L 4.816406 170.886719 L 4.832031 170.875 Z M 5.101562 170.875 Z M 4.855469 171.359375 C 4.191406 171.441406 3.992188 172.242188 3.945312 172.78125 L 3.945312 172.996094 L 3.929688 173.011719 L 3.929688 174.113281 C 3.976562 174.6875 4.015625 175.425781 4.539062 175.804688 C 5.023438 176.140625 5.667969 175.765625 5.800781 175.25 C 5.945312 174.871094 5.976562 174.496094 6.007812 174.113281 L 6.007812 173.011719 C 5.960938 172.433594 5.882812 171.621094 5.214844 171.394531 L 5.160156 171.375 L 5.144531 171.359375 L 5.070312 171.359375 L 5.054688 171.34375 L 4.875 171.34375 Z M 4.855469 171.359375 Z M 4.855469 171.359375 "/>
<path style=" stroke:none;fill-rule:nonzero;fill:rgb(0%,0%,0%);fill-opacity:1;" d="M 8.382812 175.589844 L 8.382812 176.226562 L 7.738281 176.226562 L 7.738281 175.589844 Z M 8.382812 175.589844 Z M 8.382812 175.589844 "/>
<path style=" stroke:none;fill-rule:nonzero;fill:rgb(0%,0%,0%);fill-opacity:1;" d="M 11.183594 170.875 C 12.105469 170.902344 12.835938 171.84375 12.691406 172.734375 C 12.597656 173.625 11.761719 174.132812 11.167969 174.6875 L 10.914062 174.949219 L 10.882812 174.964844 L 10.5625 175.273438 L 10.539062 175.289062 L 10.222656 175.605469 L 10.191406 175.625 L 10.121094 175.695312 L 10.136719 175.703125 L 12.707031 175.703125 L 12.707031 176.226562 L 9.5625 176.226562 L 9.5625 175.75 L 10.84375 174.472656 C 11.453125 173.941406 12.167969 173.25 12.054688 172.378906 C 11.992188 171.867188 11.5625 171.402344 11.039062 171.359375 C 10.507812 171.28125 10.039062 171.703125 9.921875 172.210938 L 9.90625 172.234375 L 9.890625 172.289062 L 9.867188 172.378906 L 9.816406 172.550781 L 9.808594 172.589844 C 9.699219 172.457031 9.578125 172.3125 9.492188 172.164062 C 9.652344 171.511719 10.175781 170.902344 10.867188 170.875 Z M 11.183594 170.875 Z M 11.183594 170.875 "/>
<path style=" stroke:none;fill-rule:nonzero;fill:rgb(0%,0%,0%);fill-opacity:1;" d="M 5.101562 149.871094 C 5.859375 149.929688 6.359375 150.617188 6.492188 151.316406 C 6.5625 151.632812 6.578125 151.9375 6.613281 152.253906 L 6.613281 153.0625 C 6.570312 153.886719 6.375 154.976562 5.476562 155.308594 C 4.699219 155.617188 3.785156 155.132812 3.554688 154.339844 C 3.382812 153.921875 3.363281 153.492188 3.324219 153.0625 L 3.324219 152.253906 C 3.363281 151.429688 3.539062 150.332031 4.429688 149.96875 L 4.46875 149.953125 L 4.5 149.945312 L 4.539062 149.929688 L 4.660156 149.894531 L 4.730469 149.878906 L 4.816406 149.878906 L 4.832031 149.871094 Z M 5.101562 149.871094 Z M 4.855469 150.355469 C 4.191406 150.4375 3.992188 151.238281 3.945312 151.777344 L 3.945312 151.992188 L 3.929688 152.007812 L 3.929688 153.109375 C 3.976562 153.683594 4.015625 154.421875 4.539062 154.800781 C 5.023438 155.132812 5.667969 154.761719 5.800781 154.246094 C 5.945312 153.863281 5.976562 153.492188 6.007812 153.109375 L 6.007812 152.007812 C 5.960938 151.429688 5.882812 150.617188 5.214844 150.386719 L 5.160156 150.371094 L 5.144531 150.355469 L 5.070312 150.355469 L 5.054688 150.339844 L 4.875 150.339844 Z M 4.855469 150.355469 Z M 4.855469 150.355469 "/>
<path style=" stroke:none;fill-rule:nonzero;fill:rgb(0%,0%,0%);fill-opacity:1;" d="M 8.382812 154.585938 L 8.382812 155.222656 L 7.738281 155.222656 L 7.738281 154.585938 Z M 8.382812 154.585938 Z M 8.382812 154.585938 "/>
<path style=" stroke:none;fill-rule:nonzero;fill:rgb(0%,0%,0%);fill-opacity:1;" d="M 11.285156 149.871094 C 11.984375 149.902344 12.714844 150.546875 12.546875 151.285156 C 12.46875 151.785156 12.121094 152.199219 11.683594 152.421875 C 12.390625 152.640625 12.9375 153.386719 12.746094 154.125 C 12.554688 155.085938 11.453125 155.617188 10.5625 155.324219 C 10.136719 155.199219 9.699219 154.929688 9.492188 154.53125 C 9.539062 154.414062 9.523438 154.207031 9.578125 154.125 C 10 154.746094 10.890625 155.167969 11.589844 154.816406 C 12.351562 154.332031 12.230469 152.921875 11.308594 152.683594 L 11.238281 152.683594 L 11.222656 152.667969 L 10.484375 152.667969 L 10.484375 152.191406 C 10.9375 152.183594 11.5 152.125 11.753906 151.660156 C 12.023438 151.253906 12 150.585938 11.484375 150.386719 C 10.875 150.148438 10.121094 150.539062 9.890625 151.160156 C 9.792969 151.023438 9.699219 150.886719 9.605469 150.746094 C 9.929688 150.160156 10.621094 149.808594 11.285156 149.871094 Z M 11.285156 149.871094 Z M 11.285156 149.871094 "/>
<path style=" stroke:none;fill-rule:nonzero;fill:rgb(0%,0%,0%);fill-opacity:1;" d="M 5.101562 128.867188 C 5.859375 128.921875 6.359375 129.613281 6.492188 130.3125 C 6.5625 130.628906 6.578125 130.933594 6.613281 131.25 L 6.613281 132.058594 C 6.570312 132.882812 6.375 133.972656 5.476562 134.304688 C 4.699219 134.613281 3.785156 134.128906 3.554688 133.335938 C 3.382812 132.914062 3.363281 132.488281 3.324219 132.058594 L 3.324219 131.25 C 3.363281 130.421875 3.539062 129.328125 4.429688 128.964844 L 4.46875 128.949219 L 4.5 128.941406 L 4.539062 128.921875 L 4.660156 128.890625 L 4.730469 128.875 L 4.816406 128.875 L 4.832031 128.867188 Z M 5.101562 128.867188 Z M 4.855469 129.351562 C 4.191406 129.429688 3.992188 130.234375 3.945312 130.773438 L 3.945312 130.988281 L 3.929688 131.003906 L 3.929688 132.105469 C 3.976562 132.679688 4.015625 133.414062 4.539062 133.796875 C 5.023438 134.128906 5.667969 133.757812 5.800781 133.242188 C 5.945312 132.859375 5.976562 132.488281 6.007812 132.105469 L 6.007812 131.003906 C 5.960938 130.421875 5.882812 129.613281 5.214844 129.382812 L 5.160156 129.367188 L 5.144531 129.351562 L 5.070312 129.351562 L 5.054688 129.335938 L 4.875 129.335938 Z M 4.855469 129.351562 Z M 4.855469 129.351562 "/>
<path style=" stroke:none;fill-rule:nonzero;fill:rgb(0%,0%,0%);fill-opacity:1;" d="M 8.382812 133.582031 L 8.382812 134.21875 L 7.738281 134.21875 L 7.738281 133.582031 Z M 8.382812 133.582031 Z M 8.382812 133.582031 "/>
<path style=" stroke:none;fill-rule:nonzero;fill:rgb(0%,0%,0%);fill-opacity:1;" d="M 12.089844 129.035156 L 12.089844 132.375 L 12.105469 132.390625 L 12.890625 132.390625 L 12.890625 132.867188 L 12.105469 132.867188 L 12.089844 132.875 L 12.089844 134.21875 L 11.484375 134.21875 L 11.484375 132.875 L 11.46875 132.867188 L 9.375 132.867188 L 9.375 132.375 C 10.039062 131.265625 10.707031 130.144531 11.375 129.035156 Z M 12.089844 129.035156 Z M 11.5 129.335938 C 11.34375 130.160156 10.832031 130.867188 10.453125 131.589844 C 10.300781 131.851562 10.105469 132.136719 9.992188 132.390625 L 11.515625 132.390625 L 11.523438 132.375 L 11.523438 129.335938 L 11.515625 129.320312 Z M 11.5 129.335938 Z M 11.5 129.335938 "/>
<path style=" stroke:none;fill-rule:nonzero;fill:rgb(0%,0%,0%);fill-opacity:1;" d="M 5.101562 107.863281 C 5.859375 107.917969 6.359375 108.609375 6.492188 109.308594 C 6.5625 109.625 6.578125 109.925781 6.613281 110.246094 L 6.613281 111.054688 C 6.570312 111.878906 6.375 112.96875 5.476562 113.300781 C 4.699219 113.609375 3.785156 113.125 3.554688 112.332031 C 3.382812 111.910156 3.363281 111.484375 3.324219 111.054688 L 3.324219 110.246094 C 3.363281 109.417969 3.539062 108.324219 4.429688 107.957031 L 4.46875 107.941406 L 4.5 107.933594 L 4.539062 107.917969 L 4.660156 107.886719 L 4.730469 107.871094 L 4.816406 107.871094 L 4.832031 107.863281 Z M 5.101562 107.863281 Z M 4.855469 108.347656 C 4.191406 108.425781 3.992188 109.230469 3.945312 109.769531 L 3.945312 109.984375 L 3.929688 110 L 3.929688 111.101562 C 3.976562 111.671875 4.015625 112.410156 4.539062 112.792969 C 5.023438 113.125 5.667969 112.753906 5.800781 112.238281 C 5.945312 111.855469 5.976562 111.484375 6.007812 111.101562 L 6.007812 110 C 5.960938 109.417969 5.882812 108.609375 5.214844 108.378906 L 5.160156 108.363281 L 5.144531 108.347656 L 5.070312 108.347656 L 5.054688 108.332031 L 4.875 108.332031 Z M 4.855469 108.347656 Z M 4.855469 108.347656 "/>
<path style=" stroke:none;fill-rule:nonzero;fill:rgb(0%,0%,0%);fill-opacity:1;" d="M 8.382812 112.578125 L 8.382812 113.214844 L 7.738281 113.214844 L 7.738281 112.578125 Z M 8.382812 112.578125 Z M 8.382812 112.578125 "/>
<path style=" stroke:none;fill-rule:nonzero;fill:rgb(0%,0%,0%);fill-opacity:1;" d="M 12.445312 108.03125 L 12.445312 108.523438 L 10.382812 108.523438 L 10.367188 108.53125 L 10.367188 110.15625 C 10.554688 110.03125 10.824219 109.863281 11.078125 109.855469 C 11.976562 109.761719 12.667969 110.640625 12.707031 111.460938 C 12.835938 112.5 11.859375 113.53125 10.808594 113.371094 C 10.285156 113.355469 9.777344 113.046875 9.476562 112.617188 C 9.5625 112.5 9.636719 112.292969 9.738281 112.222656 C 10.113281 112.953125 11.316406 113.246094 11.800781 112.476562 C 12.113281 111.894531 12.105469 111.15625 11.746094 110.601562 C 11.332031 110.070312 10.515625 110.394531 10.324219 110.960938 L 9.808594 110.960938 L 9.808594 108.03125 Z M 12.445312 108.03125 Z M 12.445312 108.03125 "/>
<path style=" stroke:none;fill-rule:nonzero;fill:rgb(0%,0%,0%);fill-opacity:1;" d="M 5.101562 86.859375 C 5.859375 86.914062 6.359375 87.605469 6.492188 88.304688 C 6.5625 88.621094 6.578125 88.921875 6.613281 89.242188 L 6.613281 90.050781 C 6.570312 90.875 6.375 91.960938 5.476562 92.296875 C 4.699219 92.605469 3.785156 92.121094 3.554688 91.328125 C 3.382812 90.90625 3.363281 90.476562 3.324219 90.050781 L 3.324219 89.242188 C 3.363281 88.414062 3.539062 87.320312 4.429688 86.953125 L 4.46875 86.9375 L 4.5 86.929688 L 4.539062 86.914062 L 4.660156 86.882812 L 4.730469 86.867188 L 4.816406 86.867188 L 4.832031 86.859375 Z M 5.101562 86.859375 Z M 4.855469 87.34375 C 4.191406 87.421875 3.992188 88.222656 3.945312 88.765625 L 3.945312 88.976562 L 3.929688 88.996094 L 3.929688 90.097656 C 3.976562 90.667969 4.015625 91.40625 4.539062 91.789062 C 5.023438 92.121094 5.667969 91.75 5.800781 91.234375 C 5.945312 90.851562 5.976562 90.476562 6.007812 90.097656 L 6.007812 88.996094 C 5.960938 88.414062 5.882812 87.605469 5.214844 87.375 L 5.160156 87.359375 L 5.144531 87.34375 L 5.070312 87.34375 L 5.054688 87.328125 L 4.875 87.328125 Z M 4.855469 87.34375 Z M 4.855469 87.34375 "/>
<path style=" stroke:none;fill-rule:nonzero;fill:rgb(0%,0%,0%);fill-opacity:1;" d="M 8.382812 91.574219 L 8.382812 92.207031 L 7.738281 92.207031 L 7.738281 91.574219 Z M 8.382812 91.574219 Z M 8.382812 91.574219 "/>
<path style=" stroke:none;fill-rule:nonzero;fill:rgb(0%,0%,0%);fill-opacity:1;" d="M 11.785156 86.859375 C 11.992188 86.890625 12.230469 86.914062 12.429688 87.011719 L 12.429688 87.46875 C 11.882812 87.230469 11.167969 87.199219 10.738281 87.683594 C 10.359375 88.089844 10.183594 88.691406 10.167969 89.222656 C 10.628906 88.613281 11.667969 88.273438 12.230469 88.90625 C 12.792969 89.558594 12.890625 90.496094 12.636719 91.289062 C 12.359375 91.921875 11.714844 92.503906 11 92.367188 C 10.03125 92.289062 9.597656 91.207031 9.546875 90.382812 C 9.367188 89.214844 9.644531 87.75 10.753906 87.082031 L 10.769531 87.074219 L 10.9375 86.984375 L 10.984375 86.96875 L 11.007812 86.953125 L 11.253906 86.882812 L 11.324219 86.867188 L 11.414062 86.867188 L 11.429688 86.859375 Z M 11.785156 86.859375 Z M 11.007812 89.066406 C 10.316406 89.183594 10.097656 90.019531 10.183594 90.582031 C 10.222656 91.113281 10.429688 91.820312 11.039062 91.929688 C 11.691406 92.019531 12.113281 91.320312 12.128906 90.757812 C 12.160156 90.183594 12.128906 89.535156 11.628906 89.160156 L 11.515625 89.105469 L 11.429688 89.082031 L 11.359375 89.066406 L 11.34375 89.050781 L 11.023438 89.050781 Z M 11.007812 89.066406 Z M 11.007812 89.066406 "/>
<path style=" stroke:none;fill-rule:nonzero;fill:rgb(0%,0%,0%);fill-opacity:1;" d="M 5.101562 65.855469 C 5.859375 65.910156 6.359375 66.601562 6.492188 67.300781 C 6.5625 67.617188 6.578125 67.917969 6.613281 68.234375 L 6.613281 69.046875 C 6.570312 69.871094 6.375 70.957031 5.476562 71.292969 C 4.699219 71.601562 3.785156 71.117188 3.554688 70.324219 C 3.382812 69.902344 3.363281 69.472656 3.324219 69.046875 L 3.324219 68.234375 C 3.363281 67.410156 3.539062 66.316406 4.429688 65.949219 L 4.46875 65.933594 L 4.5 65.925781 L 4.539062 65.910156 L 4.660156 65.878906 L 4.730469 65.863281 L 4.816406 65.863281 L 4.832031 65.855469 Z M 5.101562 65.855469 Z M 4.855469 66.339844 C 4.191406 66.417969 3.992188 67.21875 3.945312 67.757812 L 3.945312 67.972656 L 3.929688 67.988281 L 3.929688 69.09375 C 3.976562 69.664062 4.015625 70.402344 4.539062 70.785156 C 5.023438 71.117188 5.667969 70.742188 5.800781 70.226562 C 5.945312 69.847656 5.976562 69.472656 6.007812 69.09375 L 6.007812 67.988281 C 5.960938 67.410156 5.882812 66.601562 5.214844 66.371094 L 5.160156 66.355469 L 5.144531 66.339844 L 5.070312 66.339844 L 5.054688 66.324219 L 4.875 66.324219 Z M 4.855469 66.339844 Z M 4.855469 66.339844 "/>
<path style=" stroke:none;fill-rule:nonzero;fill:rgb(0%,0%,0%);fill-opacity:1;" d="M 8.382812 70.570312 L 8.382812 71.203125 L 7.738281 71.203125 L 7.738281 70.570312 Z M 8.382812 70.570312 Z M 8.382812 70.570312 "/>
<path style=" stroke:none;fill-rule:nonzero;fill:rgb(0%,0%,0%);fill-opacity:1;" d="M 12.777344 66.019531 L 12.777344 66.519531 C 11.652344 67.839844 11.015625 69.617188 11.023438 71.292969 L 10.382812 71.292969 C 10.367188 69.601562 11.054688 67.816406 12.261719 66.570312 L 12.246094 66.554688 L 9.492188 66.554688 L 9.492188 66.019531 L 12.777344 66.019531 L 12.777344 66.519531 Z M 12.777344 66.019531 Z M 12.777344 66.019531 "/>
<path style=" stroke:none;fill-rule:nonzero;fill:rgb(0%,0%,0%);fill-opacity:1;" d="M 5.101562 44.851562 C 5.859375 44.90625 6.359375 45.597656 6.492188 46.292969 C 6.5625 46.613281 6.578125 46.914062 6.613281 47.230469 L 6.613281 48.039062 C 6.570312 48.867188 6.375 49.953125 5.476562 50.289062 C 4.699219 50.597656 3.785156 50.113281 3.554688 49.320312 C 3.382812 48.898438 3.363281 48.46875 3.324219 48.039062 L 3.324219 47.230469 C 3.363281 46.40625 3.539062 45.3125 4.429688 44.945312 L 4.46875 44.929688 L 4.5 44.921875 L 4.539062 44.90625 L 4.660156 44.875 L 4.730469 44.859375 L 4.816406 44.859375 L 4.832031 44.851562 Z M 5.101562 44.851562 Z M 4.855469 45.335938 C 4.191406 45.414062 3.992188 46.214844 3.945312 46.753906 L 3.945312 46.96875 L 3.929688 46.984375 L 3.929688 48.089844 C 3.976562 48.660156 4.015625 49.398438 4.539062 49.777344 C 5.023438 50.113281 5.667969 49.738281 5.800781 49.222656 C 5.945312 48.84375 5.976562 48.46875 6.007812 48.089844 L 6.007812 46.984375 C 5.960938 46.40625 5.882812 45.597656 5.214844 45.367188 L 5.160156 45.351562 L 5.144531 45.335938 L 5.070312 45.335938 L 5.054688 45.320312 L 4.875 45.320312 Z M 4.855469 45.335938 Z M 4.855469 45.335938 "/>
<path style=" stroke:none;fill-rule:nonzero;fill:rgb(0%,0%,0%);fill-opacity:1;" d="M 8.382812 49.566406 L 8.382812 50.199219 L 7.738281 50.199219 L 7.738281 49.566406 Z M 8.382812 49.566406 Z M 8.382812 49.566406 "/>
<path style=" stroke:none;fill-rule:nonzero;fill:rgb(0%,0%,0%);fill-opacity:1;" d="M 11.285156 44.851562 C 12.128906 44.882812 12.921875 45.785156 12.589844 46.628906 C 12.445312 47.015625 12.046875 47.253906 11.722656 47.421875 C 12.53125 47.660156 13.023438 48.605469 12.660156 49.382812 C 12.277344 50.390625 10.832031 50.707031 10.039062 49.976562 C 9.316406 49.40625 9.292969 48.167969 10.097656 47.660156 C 10.214844 47.53125 10.4375 47.492188 10.539062 47.398438 C 9.851562 47.199219 9.382812 46.398438 9.707031 45.722656 C 9.96875 45.121094 10.644531 44.785156 11.285156 44.851562 Z M 11.285156 44.851562 Z M 10.984375 45.300781 C 10.398438 45.320312 9.984375 45.984375 10.183594 46.507812 C 10.414062 47.414062 11.929688 47.382812 12.105469 46.453125 C 12.261719 45.9375 11.851562 45.320312 11.285156 45.300781 L 11.269531 45.292969 L 11 45.292969 Z M 10.984375 45.300781 Z M 11 47.660156 C 10.308594 47.707031 9.96875 48.53125 10.152344 49.121094 C 10.269531 49.953125 11.460938 50.199219 11.929688 49.53125 C 12.382812 48.921875 12.160156 47.828125 11.34375 47.660156 L 11.269531 47.660156 L 11.253906 47.644531 L 11.007812 47.644531 Z M 11 47.660156 Z M 11 47.660156 "/>
<path style=" stroke:none;fill-rule:nonzero;fill:rgb(0%,0%,0%);fill-opacity:1;" d="M 5.101562 23.847656 C 5.859375 23.902344 6.359375 24.59375 6.492188 25.289062 C 6.5625 25.609375 6.578125 25.910156 6.613281 26.226562 L 6.613281 27.035156 C 6.570312 27.863281 6.375 28.949219 5.476562 29.28125 C 4.699219 29.59375 3.785156 29.109375 3.554688 28.3125 C 3.382812 27.894531 3.363281 27.464844 3.324219 27.035156 L 3.324219 26.226562 C 3.363281 25.402344 3.539062 24.304688 4.429688 23.941406 L 4.46875 23.925781 L 4.5 23.917969 L 4.539062 23.902344 L 4.660156 23.871094 L 4.730469 23.855469 L 4.816406 23.855469 L 4.832031 23.847656 Z M 5.101562 23.847656 Z M 4.855469 24.328125 C 4.191406 24.410156 3.992188 25.210938 3.945312 25.75 L 3.945312 25.964844 L 3.929688 25.980469 L 3.929688 27.085938 C 3.976562 27.65625 4.015625 28.394531 4.539062 28.773438 C 5.023438 29.109375 5.667969 28.734375 5.800781 28.21875 C 5.945312 27.839844 5.976562 27.464844 6.007812 27.085938 L 6.007812 25.980469 C 5.960938 25.402344 5.882812 24.59375 5.214844 24.363281 L 5.160156 24.347656 L 5.144531 24.328125 L 5.070312 24.328125 L 5.054688 24.3125 L 4.875 24.3125 Z M 4.855469 24.328125 Z M 4.855469 24.328125 "/>
<path style=" stroke:none;fill-rule:nonzero;fill:rgb(0%,0%,0%);fill-opacity:1;" d="M 8.382812 28.558594 L 8.382812 29.195312 L 7.738281 29.195312 L 7.738281 28.558594 Z M 8.382812 28.558594 Z M 8.382812 28.558594 "/>
<path style=" stroke:none;fill-rule:nonzero;fill:rgb(0%,0%,0%);fill-opacity:1;" d="M 11.300781 23.847656 C 12.253906 23.949219 12.667969 25.027344 12.730469 25.855469 C 12.84375 26.925781 12.714844 28.179688 11.84375 28.949219 C 11.292969 29.496094 10.324219 29.511719 9.738281 29.019531 C 9.808594 28.886719 9.890625 28.726562 9.976562 28.617188 C 10.492188 29.117188 11.398438 28.972656 11.730469 28.332031 C 11.96875 27.941406 12.113281 27.441406 12.105469 27.011719 C 11.636719 27.617188 10.605469 27.964844 10.039062 27.332031 C 9.46875 26.671875 9.367188 25.710938 9.652344 24.917969 C 9.945312 24.289062 10.570312 23.75 11.300781 23.847656 Z M 11.300781 23.847656 Z M 11.039062 24.296875 C 10.46875 24.347656 10.175781 24.980469 10.136719 25.480469 C 10.113281 26.042969 10.136719 26.703125 10.636719 27.066406 C 11.191406 27.410156 11.90625 26.996094 12.03125 26.394531 C 12.183594 25.804688 12.089844 25.179688 11.785156 24.632812 C 11.621094 24.402344 11.316406 24.234375 11.039062 24.296875 Z M 11.039062 24.296875 Z M 11.039062 24.296875 "/>
<path style=" stroke:none;fill-rule:nonzero;fill:rgb(0%,0%,0%);fill-opacity:1;" d="M 5.347656 2.839844 L 5.347656 7.738281 L 5.355469 7.753906 L 6.332031 7.753906 L 6.332031 8.191406 L 3.753906 8.191406 L 3.753906 7.753906 L 4.730469 7.753906 L 4.746094 7.738281 L 4.746094 3.628906 C 4.414062 3.738281 4.0625 3.808594 3.714844 3.800781 L 3.714844 3.355469 C 4.238281 3.363281 4.808594 3.222656 5.207031 2.839844 Z M 5.347656 2.839844 Z M 5.347656 2.839844 "/>
<path style=" stroke:none;fill-rule:nonzero;fill:rgb(0%,0%,0%);fill-opacity:1;" d="M 8.382812 7.554688 L 8.382812 8.191406 L 7.738281 8.191406 L 7.738281 7.554688 Z M 8.382812 7.554688 Z M 8.382812 7.554688 "/>
<path style=" stroke:none;fill-rule:nonzero;fill:rgb(0%,0%,0%);fill-opacity:1;" d="M 11.269531 2.839844 C 12.023438 2.898438 12.523438 3.585938 12.660156 4.285156 C 12.730469 4.601562 12.746094 4.90625 12.777344 5.222656 L 12.777344 6.03125 C 12.738281 6.859375 12.539062 7.945312 11.644531 8.277344 C 10.867188 8.585938 9.953125 8.105469 9.722656 7.308594 C 9.546875 6.890625 9.53125 6.460938 9.492188 6.03125 L 9.492188 5.222656 C 9.53125 4.398438 9.707031 3.300781 10.597656 2.9375 L 10.636719 2.921875 L 10.667969 2.914062 L 10.707031 2.898438 L 10.824219 2.863281 L 10.898438 2.847656 L 10.984375 2.847656 L 11 2.839844 Z M 11.269531 2.839844 Z M 11.023438 3.324219 C 10.359375 3.40625 10.160156 4.207031 10.113281 4.746094 L 10.113281 4.960938 L 10.097656 4.976562 L 10.097656 6.078125 C 10.144531 6.652344 10.183594 7.390625 10.707031 7.769531 C 11.191406 8.105469 11.835938 7.730469 11.96875 7.214844 C 12.113281 6.832031 12.144531 6.460938 12.175781 6.078125 L 12.175781 4.976562 C 12.128906 4.398438 12.046875 3.585938 11.382812 3.355469 L 11.324219 3.339844 L 11.308594 3.324219 L 11.238281 3.324219 L 11.222656 3.308594 L 11.039062 3.308594 Z M 11.023438 3.324219 Z M 11.023438 3.324219 "/>
<path style="fill:none;stroke-width:0.02;stroke-linecap:butt;stroke-linejoin:miter;stroke:rgb(0%,0%,0%);stroke-opacity:1;stroke-miterlimit:10;" d="M 9.930005 1.16934 L 9.824999 1.16934 " transform="matrix(28.346457,0,0,-28.346457,1,227.771654)"/>
<path style="fill:none;stroke-width:0.02;stroke-linecap:butt;stroke-linejoin:miter;stroke:rgb(0%,0%,0%);stroke-opacity:1;stroke-miterlimit:10;" d="M 9.930005 1.910311 L 9.824999 1.910311 " transform="matrix(28.346457,0,0,-28.346457,1,227.771654)"/>
<path style="fill:none;stroke-width:0.02;stroke-linecap:butt;stroke-linejoin:miter;stroke:rgb(0%,0%,0%);stroke-opacity:1;stroke-miterlimit:10;" d="M 9.930005 2.65142 L 9.824999 2.65142 " transform="matrix(28.346457,0,0,-28.346457,1,227.771654)"/>
<path style="fill:none;stroke-width:0.02;stroke-linecap:butt;stroke-linejoin:miter;stroke:rgb(0%,0%,0%);stroke-opacity:1;stroke-miterlimit:10;" d="M 9.930005 3.392391 L 9.824999 3.392391 " transform="matrix(28.346457,0,0,-28.346457,1,227.771654)"/>
<path style="fill:none;stroke-width:0.02;stroke-linecap:butt;stroke-linejoin:miter;stroke:rgb(0%,0%,0%);stroke-opacity:1;stroke-miterlimit:10;" d="M 9.930005 4.133363 L 9.824999 4.133363 " transform="matrix(28.346457,0,0,-28.346457,1,227.771654)"/>
<path style="fill:none;stroke-width:0.02;stroke-linecap:butt;stroke-linejoin:miter;stroke:rgb(0%,0%,0%);stroke-opacity:1;stroke-miterlimit:10;" d="M 9.930005 4.874334 L 9.824999 4.874334 " transform="matrix(28.346457,0,0,-28.346457,1,227.771654)"/>
<path style="fill:none;stroke-width:0.02;stroke-linecap:butt;stroke-linejoin:miter;stroke:rgb(0%,0%,0%);stroke-opacity:1;stroke-miterlimit:10;" d="M 9.930005 5.615305 L 9.824999 5.615305 " transform="matrix(28.346457,0,0,-28.346457,1,227.771654)"/>
<path style="fill:none;stroke-width:0.02;stroke-linecap:butt;stroke-linejoin:miter;stroke:rgb(0%,0%,0%);stroke-opacity:1;stroke-miterlimit:10;" d="M 9.930005 6.356276 L 9.824999 6.356276 " transform="matrix(28.346457,0,0,-28.346457,1,227.771654)"/>
<path style="fill:none;stroke-width:0.02;stroke-linecap:butt;stroke-linejoin:miter;stroke:rgb(0%,0%,0%);stroke-opacity:1;stroke-miterlimit:10;" d="M 9.930005 7.097247 L 9.824999 7.097247 " transform="matrix(28.346457,0,0,-28.346457,1,227.771654)"/>
<path style="fill:none;stroke-width:0.02;stroke-linecap:round;stroke-linejoin:miter;stroke:rgb(0%,0%,0%);stroke-opacity:1;stroke-miterlimit:10;" d="M 9.930005 0.428369 L 9.930005 7.838356 " transform="matrix(28.346457,0,0,-28.346457,1,227.771654)"/>
<path style="fill:none;stroke-width:0.02;stroke-linecap:butt;stroke-linejoin:miter;stroke:rgb(0%,0%,0%);stroke-opacity:1;stroke-miterlimit:10;" d="M 1.790209 0.428369 L 1.790209 0.533376 " transform="matrix(28.346457,0,0,-28.346457,1,227.771654)"/>
<path style="fill:none;stroke-width:0.02;stroke-linecap:butt;stroke-linejoin:miter;stroke:rgb(0%,0%,0%);stroke-opacity:1;stroke-miterlimit:10;" d="M 2.977803 0.428369 L 2.977803 0.533376 " transform="matrix(28.346457,0,0,-28.346457,1,227.771654)"/>
<path style="fill:none;stroke-width:0.02;stroke-linecap:butt;stroke-linejoin:miter;stroke:rgb(0%,0%,0%);stroke-opacity:1;stroke-miterlimit:10;" d="M 4.165396 0.428369 L 4.165396 0.533376 " transform="matrix(28.346457,0,0,-28.346457,1,227.771654)"/>
<path style="fill:none;stroke-width:0.02;stroke-linecap:butt;stroke-linejoin:miter;stroke:rgb(0%,0%,0%);stroke-opacity:1;stroke-miterlimit:10;" d="M 5.352989 0.428369 L 5.352989 0.533376 " transform="matrix(28.346457,0,0,-28.346457,1,227.771654)"/>
<path style="fill:none;stroke-width:0.02;stroke-linecap:butt;stroke-linejoin:miter;stroke:rgb(0%,0%,0%);stroke-opacity:1;stroke-miterlimit:10;" d="M 6.540583 0.428369 L 6.540583 0.533376 " transform="matrix(28.346457,0,0,-28.346457,1,227.771654)"/>
<path style="fill:none;stroke-width:0.02;stroke-linecap:butt;stroke-linejoin:miter;stroke:rgb(0%,0%,0%);stroke-opacity:1;stroke-miterlimit:10;" d="M 7.728176 0.428369 L 7.728176 0.533376 " transform="matrix(28.346457,0,0,-28.346457,1,227.771654)"/>
<path style="fill:none;stroke-width:0.02;stroke-linecap:butt;stroke-linejoin:miter;stroke:rgb(0%,0%,0%);stroke-opacity:1;stroke-miterlimit:10;" d="M 8.915769 0.428369 L 8.915769 0.533376 " transform="matrix(28.346457,0,0,-28.346457,1,227.771654)"/>
<path style="fill:none;stroke-width:0.02;stroke-linecap:round;stroke-linejoin:miter;stroke:rgb(0%,0%,0%);stroke-opacity:1;stroke-miterlimit:10;" d="M 0.602616 0.428369 L 9.930005 0.428369 " transform="matrix(28.346457,0,0,-28.346457,1,227.771654)"/>
<path style=" stroke:none;fill-rule:nonzero;fill:rgb(0%,0%,0%);fill-opacity:1;" d="M 15.132812 220.445312 C 15.886719 220.5 16.386719 221.191406 16.519531 221.890625 C 16.59375 222.207031 16.609375 222.507812 16.640625 222.828125 L 16.640625 223.636719 C 16.601562 224.460938 16.402344 225.550781 15.503906 225.882812 C 14.726562 226.191406 13.8125 225.707031 13.585938 224.914062 C 13.410156 224.492188 13.394531 224.066406 13.355469 223.636719 L 13.355469 222.828125 C 13.394531 222 13.566406 220.90625 14.457031 220.542969 L 14.496094 220.523438 L 14.527344 220.515625 L 14.566406 220.5 L 14.6875 220.46875 L 14.757812 220.453125 L 14.847656 220.453125 L 14.863281 220.445312 Z M 15.132812 220.445312 Z M 14.886719 220.929688 C 14.21875 221.007812 14.019531 221.8125 13.972656 222.351562 L 13.972656 222.566406 L 13.957031 222.582031 L 13.957031 223.683594 C 14.003906 224.253906 14.042969 224.992188 14.566406 225.375 C 15.050781 225.707031 15.695312 225.335938 15.832031 224.820312 C 15.972656 224.4375 16.003906 224.066406 16.035156 223.683594 L 16.035156 222.582031 C 15.988281 222 15.910156 221.191406 15.242188 220.960938 L 15.1875 220.945312 L 15.171875 220.929688 L 15.101562 220.929688 L 15.085938 220.914062 L 14.902344 220.914062 Z M 14.886719 220.929688 Z M 14.886719 220.929688 "/>
<path style=" stroke:none;fill-rule:nonzero;fill:rgb(0%,0%,0%);fill-opacity:1;" d="M 18.410156 225.160156 L 18.410156 225.796875 L 17.765625 225.796875 L 17.765625 225.160156 Z M 18.410156 225.160156 Z M 18.410156 225.160156 "/>
<path style=" stroke:none;fill-rule:nonzero;fill:rgb(0%,0%,0%);fill-opacity:1;" d="M 21.300781 220.445312 C 22.054688 220.5 22.554688 221.191406 22.6875 221.890625 C 22.757812 222.207031 22.773438 222.507812 22.808594 222.828125 L 22.808594 223.636719 C 22.765625 224.460938 22.570312 225.550781 21.671875 225.882812 C 20.894531 226.191406 19.980469 225.707031 19.75 224.914062 C 19.578125 224.492188 19.5625 224.066406 19.519531 223.636719 L 19.519531 222.828125 C 19.5625 222 19.734375 220.90625 20.625 220.542969 L 20.664062 220.523438 L 20.695312 220.515625 L 20.734375 220.5 L 20.855469 220.46875 L 20.925781 220.453125 L 21.011719 220.453125 L 21.027344 220.445312 Z M 21.300781 220.445312 Z M 21.054688 220.929688 C 20.386719 221.007812 20.1875 221.8125 20.140625 222.351562 L 20.140625 222.566406 L 20.125 222.582031 L 20.125 223.683594 C 20.171875 224.253906 20.210938 224.992188 20.734375 225.375 C 21.21875 225.707031 21.863281 225.335938 21.996094 224.820312 C 22.140625 224.4375 22.171875 224.066406 22.203125 223.683594 L 22.203125 222.582031 C 22.15625 222 22.078125 221.191406 21.410156 220.960938 L 21.355469 220.945312 L 21.339844 220.929688 L 21.265625 220.929688 L 21.25 220.914062 L 21.070312 220.914062 Z M 21.054688 220.929688 Z M 21.054688 220.929688 "/>
<path style=" stroke:none;fill-rule:nonzero;fill:rgb(0%,0%,0%);fill-opacity:1;" d="M 48.796875 220.445312 C 49.550781 220.5 50.050781 221.191406 50.183594 221.890625 C 50.257812 222.207031 50.273438 222.507812 50.304688 222.828125 L 50.304688 223.636719 C 50.265625 224.460938 50.066406 225.550781 49.167969 225.882812 C 48.390625 226.191406 47.480469 225.707031 47.25 224.914062 C 47.074219 224.492188 47.058594 224.066406 47.019531 223.636719 L 47.019531 222.828125 C 47.058594 222 47.234375 220.90625 48.121094 220.542969 L 48.160156 220.523438 L 48.191406 220.515625 L 48.234375 220.5 L 48.351562 220.46875 L 48.421875 220.453125 L 48.511719 220.453125 L 48.527344 220.445312 Z M 48.796875 220.445312 Z M 48.550781 220.929688 C 47.882812 221.007812 47.683594 221.8125 47.636719 222.351562 L 47.636719 222.566406 L 47.621094 222.582031 L 47.621094 223.683594 C 47.667969 224.253906 47.707031 224.992188 48.234375 225.375 C 48.71875 225.707031 49.359375 225.335938 49.496094 224.820312 C 49.636719 224.4375 49.667969 224.066406 49.699219 223.683594 L 49.699219 222.582031 C 49.652344 222 49.574219 221.191406 48.90625 220.960938 L 48.851562 220.945312 L 48.835938 220.929688 L 48.765625 220.929688 L 48.75 220.914062 L 48.566406 220.914062 Z M 48.550781 220.929688 Z M 48.550781 220.929688 "/>
<path style=" stroke:none;fill-rule:nonzero;fill:rgb(0%,0%,0%);fill-opacity:1;" d="M 52.074219 225.160156 L 52.074219 225.796875 L 51.429688 225.796875 L 51.429688 225.160156 Z M 52.074219 225.160156 Z M 52.074219 225.160156 "/>
<path style=" stroke:none;fill-rule:nonzero;fill:rgb(0%,0%,0%);fill-opacity:1;" d="M 54.875 220.445312 C 55.796875 220.46875 56.527344 221.414062 56.382812 222.304688 C 56.289062 223.191406 55.457031 223.699219 54.859375 224.253906 L 54.605469 224.515625 L 54.574219 224.535156 L 54.257812 224.84375 L 54.234375 224.859375 L 53.914062 225.175781 L 53.882812 225.191406 L 53.8125 225.261719 L 53.828125 225.273438 L 56.398438 225.273438 L 56.398438 225.796875 L 53.257812 225.796875 L 53.257812 225.320312 L 54.535156 224.042969 C 55.144531 223.507812 55.859375 222.820312 55.75 221.945312 C 55.6875 221.4375 55.257812 220.96875 54.734375 220.929688 C 54.203125 220.851562 53.734375 221.269531 53.613281 221.777344 L 53.597656 221.804688 L 53.582031 221.859375 L 53.558594 221.945312 L 53.511719 222.121094 L 53.503906 222.160156 C 53.390625 222.023438 53.273438 221.882812 53.183594 221.730469 C 53.34375 221.082031 53.867188 220.46875 54.558594 220.445312 Z M 54.875 220.445312 Z M 54.875 220.445312 "/>
<path style=" stroke:none;fill-rule:nonzero;fill:rgb(0%,0%,0%);fill-opacity:1;" d="M 82.460938 220.445312 C 83.214844 220.5 83.714844 221.191406 83.851562 221.890625 C 83.921875 222.207031 83.9375 222.507812 83.96875 222.828125 L 83.96875 223.636719 C 83.929688 224.460938 83.730469 225.550781 82.832031 225.882812 C 82.054688 226.191406 81.144531 225.707031 80.914062 224.914062 C 80.738281 224.492188 80.722656 224.066406 80.683594 223.636719 L 80.683594 222.828125 C 80.722656 222 80.898438 220.90625 81.785156 220.542969 L 81.824219 220.523438 L 81.859375 220.515625 L 81.898438 220.5 L 82.015625 220.46875 L 82.085938 220.453125 L 82.175781 220.453125 L 82.191406 220.445312 Z M 82.460938 220.445312 Z M 82.214844 220.929688 C 81.546875 221.007812 81.347656 221.8125 81.300781 222.351562 L 81.300781 222.566406 L 81.285156 222.582031 L 81.285156 223.683594 C 81.332031 224.253906 81.375 224.992188 81.898438 225.375 C 82.382812 225.707031 83.023438 225.335938 83.160156 224.820312 C 83.300781 224.4375 83.332031 224.066406 83.367188 223.683594 L 83.367188 222.582031 C 83.316406 222 83.238281 221.191406 82.570312 220.960938 L 82.515625 220.945312 L 82.5 220.929688 L 82.429688 220.929688 L 82.414062 220.914062 L 82.230469 220.914062 Z M 82.214844 220.929688 Z M 82.214844 220.929688 "/>
<path style=" stroke:none;fill-rule:nonzero;fill:rgb(0%,0%,0%);fill-opacity:1;" d="M 85.738281 225.160156 L 85.738281 225.796875 L 85.097656 225.796875 L 85.097656 225.160156 Z M 85.738281 225.160156 Z M 85.738281 225.160156 "/>
<path style=" stroke:none;fill-rule:nonzero;fill:rgb(0%,0%,0%);fill-opacity:1;" d="M 89.445312 220.613281 L 89.445312 223.953125 L 89.460938 223.96875 L 90.246094 223.96875 L 90.246094 224.445312 L 89.460938 224.445312 L 89.445312 224.453125 L 89.445312 225.796875 L 88.84375 225.796875 L 88.84375 224.453125 L 88.828125 224.445312 L 86.730469 224.445312 L 86.730469 223.953125 C 87.398438 222.84375 88.0625 221.722656 88.730469 220.613281 Z M 89.445312 220.613281 Z M 88.859375 220.914062 C 88.699219 221.738281 88.191406 222.445312 87.808594 223.167969 C 87.660156 223.429688 87.460938 223.714844 87.351562 223.96875 L 88.875 223.96875 L 88.882812 223.953125 L 88.882812 220.914062 L 88.875 220.898438 Z M 88.859375 220.914062 Z M 88.859375 220.914062 "/>
<path style=" stroke:none;fill-rule:nonzero;fill:rgb(0%,0%,0%);fill-opacity:1;" d="M 116.125 220.445312 C 116.878906 220.5 117.378906 221.191406 117.515625 221.890625 C 117.585938 222.207031 117.601562 222.507812 117.632812 222.828125 L 117.632812 223.636719 C 117.59375 224.460938 117.394531 225.550781 116.5 225.882812 C 115.71875 226.191406 114.808594 225.707031 114.578125 224.914062 C 114.402344 224.492188 114.386719 224.066406 114.347656 223.636719 L 114.347656 222.828125 C 114.386719 222 114.5625 220.90625 115.449219 220.542969 L 115.488281 220.523438 L 115.523438 220.515625 L 115.5625 220.5 L 115.679688 220.46875 L 115.753906 220.453125 L 115.839844 220.453125 L 115.855469 220.445312 Z M 116.125 220.445312 Z M 115.878906 220.929688 C 115.210938 221.007812 115.015625 221.8125 114.964844 222.351562 L 114.964844 222.566406 L 114.949219 222.582031 L 114.949219 223.683594 C 115 224.253906 115.039062 224.992188 115.5625 225.375 C 116.046875 225.707031 116.6875 225.335938 116.824219 224.820312 C 116.964844 224.4375 117 224.066406 117.03125 223.683594 L 117.03125 222.582031 C 116.980469 222 116.902344 221.191406 116.234375 220.960938 L 116.179688 220.945312 L 116.164062 220.929688 L 116.09375 220.929688 L 116.078125 220.914062 L 115.894531 220.914062 Z M 115.878906 220.929688 Z M 115.878906 220.929688 "/>
<path style=" stroke:none;fill-rule:nonzero;fill:rgb(0%,0%,0%);fill-opacity:1;" d="M 119.402344 225.160156 L 119.402344 225.796875 L 118.761719 225.796875 L 118.761719 225.160156 Z M 119.402344 225.160156 Z M 119.402344 225.160156 "/>
<path style=" stroke:none;fill-rule:nonzero;fill:rgb(0%,0%,0%);fill-opacity:1;" d="M 122.808594 220.445312 C 123.015625 220.476562 123.253906 220.5 123.449219 220.597656 L 123.449219 221.058594 C 122.902344 220.820312 122.1875 220.785156 121.761719 221.269531 C 121.378906 221.675781 121.203125 222.277344 121.1875 222.8125 C 121.648438 222.199219 122.6875 221.859375 123.253906 222.492188 C 123.816406 223.144531 123.910156 224.082031 123.65625 224.875 C 123.378906 225.507812 122.738281 226.089844 122.023438 225.953125 C 121.054688 225.875 120.617188 224.796875 120.570312 223.96875 C 120.386719 222.804688 120.664062 221.335938 121.777344 220.667969 L 121.792969 220.660156 L 121.957031 220.574219 L 122.007812 220.558594 L 122.03125 220.542969 L 122.164062 220.5 L 122.277344 220.46875 L 122.347656 220.453125 L 122.433594 220.453125 L 122.449219 220.445312 Z M 122.808594 220.445312 Z M 122.03125 222.652344 C 121.339844 222.769531 121.117188 223.605469 121.203125 224.167969 C 121.246094 224.699219 121.449219 225.40625 122.0625 225.515625 C 122.710938 225.605469 123.132812 224.90625 123.148438 224.34375 C 123.179688 223.769531 123.148438 223.121094 122.648438 222.746094 L 122.539062 222.691406 L 122.449219 222.667969 L 122.378906 222.652344 L 122.363281 222.636719 L 122.046875 222.636719 Z M 122.03125 222.652344 Z M 122.03125 222.652344 "/>
<path style=" stroke:none;fill-rule:nonzero;fill:rgb(0%,0%,0%);fill-opacity:1;" d="M 149.789062 220.445312 C 150.542969 220.5 151.042969 221.191406 151.179688 221.890625 C 151.25 222.207031 151.265625 222.507812 151.296875 222.828125 L 151.296875 223.636719 C 151.257812 224.460938 151.058594 225.550781 150.164062 225.882812 C 149.386719 226.191406 148.472656 225.707031 148.242188 224.914062 C 148.066406 224.492188 148.050781 224.066406 148.011719 223.636719 L 148.011719 222.828125 C 148.050781 222 148.226562 220.90625 149.113281 220.542969 L 149.15625 220.523438 L 149.1875 220.515625 L 149.226562 220.5 L 149.34375 220.46875 L 149.417969 220.453125 L 149.503906 220.453125 L 149.519531 220.445312 Z M 149.789062 220.445312 Z M 149.542969 220.929688 C 148.875 221.007812 148.679688 221.8125 148.628906 222.351562 L 148.628906 222.566406 L 148.613281 222.582031 L 148.613281 223.683594 C 148.664062 224.253906 148.703125 224.992188 149.226562 225.375 C 149.710938 225.707031 150.351562 225.335938 150.488281 224.820312 C 150.632812 224.4375 150.664062 224.066406 150.695312 223.683594 L 150.695312 222.582031 C 150.648438 222 150.566406 221.191406 149.902344 220.960938 L 149.84375 220.945312 L 149.828125 220.929688 L 149.757812 220.929688 L 149.742188 220.914062 L 149.558594 220.914062 Z M 149.542969 220.929688 Z M 149.542969 220.929688 "/>
<path style=" stroke:none;fill-rule:nonzero;fill:rgb(0%,0%,0%);fill-opacity:1;" d="M 153.066406 225.160156 L 153.066406 225.796875 L 152.425781 225.796875 L 152.425781 225.160156 Z M 153.066406 225.160156 Z M 153.066406 225.160156 "/>
<path style=" stroke:none;fill-rule:nonzero;fill:rgb(0%,0%,0%);fill-opacity:1;" d="M 155.972656 220.445312 C 156.8125 220.476562 157.609375 221.382812 157.273438 222.222656 C 157.132812 222.613281 156.734375 222.851562 156.410156 223.015625 C 157.21875 223.253906 157.710938 224.199219 157.34375 224.976562 C 156.964844 225.984375 155.519531 226.304688 154.726562 225.574219 C 154.003906 225 153.980469 223.761719 154.78125 223.253906 C 154.902344 223.128906 155.125 223.089844 155.226562 222.992188 C 154.535156 222.796875 154.066406 221.992188 154.394531 221.320312 C 154.65625 220.714844 155.328125 220.382812 155.972656 220.445312 Z M 155.972656 220.445312 Z M 155.671875 220.898438 C 155.082031 220.914062 154.671875 221.582031 154.871094 222.105469 C 155.097656 223.007812 156.617188 222.976562 156.789062 222.050781 C 156.949219 221.53125 156.535156 220.914062 155.972656 220.898438 L 155.957031 220.890625 L 155.6875 220.890625 Z M 155.671875 220.898438 Z M 155.6875 223.253906 C 154.996094 223.304688 154.65625 224.128906 154.835938 224.714844 C 154.957031 225.550781 156.148438 225.796875 156.617188 225.128906 C 157.066406 224.515625 156.84375 223.421875 156.027344 223.253906 L 155.957031 223.253906 L 155.941406 223.238281 L 155.695312 223.238281 Z M 155.6875 223.253906 Z M 155.6875 223.253906 "/>
<path style=" stroke:none;fill-rule:nonzero;fill:rgb(0%,0%,0%);fill-opacity:1;" d="M 183.699219 220.445312 L 183.699219 225.34375 L 183.707031 225.359375 L 184.683594 225.359375 L 184.683594 225.796875 L 182.105469 225.796875 L 182.105469 225.359375 L 183.082031 225.359375 L 183.097656 225.34375 L 183.097656 221.230469 C 182.761719 221.34375 182.414062 221.414062 182.066406 221.40625 L 182.066406 220.960938 C 182.589844 220.96875 183.160156 220.828125 183.558594 220.445312 Z M 183.699219 220.445312 Z M 183.699219 220.445312 "/>
<path style=" stroke:none;fill-rule:nonzero;fill:rgb(0%,0%,0%);fill-opacity:1;" d="M 186.730469 225.160156 L 186.730469 225.796875 L 186.089844 225.796875 L 186.089844 225.160156 Z M 186.730469 225.160156 Z M 186.730469 225.160156 "/>
<path style=" stroke:none;fill-rule:nonzero;fill:rgb(0%,0%,0%);fill-opacity:1;" d="M 189.621094 220.445312 C 190.375 220.5 190.875 221.191406 191.011719 221.890625 C 191.082031 222.207031 191.097656 222.507812 191.128906 222.828125 L 191.128906 223.636719 C 191.089844 224.460938 190.890625 225.550781 189.992188 225.882812 C 189.214844 226.191406 188.304688 225.707031 188.074219 224.914062 C 187.898438 224.492188 187.882812 224.066406 187.84375 223.636719 L 187.84375 222.828125 C 187.882812 222 188.058594 220.90625 188.945312 220.542969 L 188.984375 220.523438 L 189.019531 220.515625 L 189.058594 220.5 L 189.175781 220.46875 L 189.246094 220.453125 L 189.335938 220.453125 L 189.351562 220.445312 Z M 189.621094 220.445312 Z M 189.375 220.929688 C 188.707031 221.007812 188.511719 221.8125 188.460938 222.351562 L 188.460938 222.566406 L 188.445312 222.582031 L 188.445312 223.683594 C 188.492188 224.253906 188.535156 224.992188 189.058594 225.375 C 189.542969 225.707031 190.183594 225.335938 190.320312 224.820312 C 190.460938 224.4375 190.496094 224.066406 190.527344 223.683594 L 190.527344 222.582031 C 190.476562 222 190.398438 221.191406 189.730469 220.960938 L 189.675781 220.945312 L 189.660156 220.929688 L 189.589844 220.929688 L 189.574219 220.914062 L 189.390625 220.914062 Z M 189.375 220.929688 Z M 189.375 220.929688 "/>
<path style=" stroke:none;fill-rule:nonzero;fill:rgb(0%,0%,0%);fill-opacity:1;" d="M 217.363281 220.445312 L 217.363281 225.34375 L 217.371094 225.359375 L 218.347656 225.359375 L 218.347656 225.796875 L 215.769531 225.796875 L 215.769531 225.359375 L 216.746094 225.359375 L 216.761719 225.34375 L 216.761719 221.230469 C 216.429688 221.34375 216.078125 221.414062 215.730469 221.40625 L 215.730469 220.960938 C 216.253906 220.96875 216.824219 220.828125 217.222656 220.445312 Z M 217.363281 220.445312 Z M 217.363281 220.445312 "/>
<path style=" stroke:none;fill-rule:nonzero;fill:rgb(0%,0%,0%);fill-opacity:1;" d="M 220.394531 225.160156 L 220.394531 225.796875 L 219.753906 225.796875 L 219.753906 225.160156 Z M 220.394531 225.160156 Z M 220.394531 225.160156 "/>
<path style=" stroke:none;fill-rule:nonzero;fill:rgb(0%,0%,0%);fill-opacity:1;" d="M 223.199219 220.445312 C 224.117188 220.46875 224.847656 221.414062 224.707031 222.304688 C 224.609375 223.191406 223.777344 223.699219 223.183594 224.253906 L 222.929688 224.515625 L 222.898438 224.535156 L 222.578125 224.84375 L 222.554688 224.859375 L 222.238281 225.175781 L 222.207031 225.191406 L 222.132812 225.261719 L 222.152344 225.273438 L 224.722656 225.273438 L 224.722656 225.796875 L 221.578125 225.796875 L 221.578125 225.320312 L 222.855469 224.042969 C 223.46875 223.507812 224.183594 222.820312 224.070312 221.945312 C 224.007812 221.4375 223.578125 220.96875 223.054688 220.929688 C 222.523438 220.851562 222.054688 221.269531 221.9375 221.777344 L 221.921875 221.804688 L 221.90625 221.859375 L 221.878906 221.945312 L 221.832031 222.121094 L 221.824219 222.160156 C 221.714844 222.023438 221.59375 221.882812 221.507812 221.730469 C 221.667969 221.082031 222.191406 220.46875 222.878906 220.445312 Z M 223.199219 220.445312 Z M 223.199219 220.445312 "/>
<path style=" stroke:none;fill-rule:nonzero;fill:rgb(0%,0%,0%);fill-opacity:1;" d="M 251.027344 220.445312 L 251.027344 225.34375 L 251.035156 225.359375 L 252.011719 225.359375 L 252.011719 225.796875 L 249.433594 225.796875 L 249.433594 225.359375 L 250.410156 225.359375 L 250.425781 225.34375 L 250.425781 221.230469 C 250.09375 221.34375 249.742188 221.414062 249.394531 221.40625 L 249.394531 220.960938 C 249.917969 220.96875 250.488281 220.828125 250.886719 220.445312 Z M 251.027344 220.445312 Z M 251.027344 220.445312 "/>
<path style=" stroke:none;fill-rule:nonzero;fill:rgb(0%,0%,0%);fill-opacity:1;" d="M 254.0625 225.160156 L 254.0625 225.796875 L 253.417969 225.796875 L 253.417969 225.160156 Z M 254.0625 225.160156 Z M 254.0625 225.160156 "/>
<path style=" stroke:none;fill-rule:nonzero;fill:rgb(0%,0%,0%);fill-opacity:1;" d="M 257.765625 220.613281 L 257.765625 223.953125 L 257.785156 223.96875 L 258.570312 223.96875 L 258.570312 224.445312 L 257.785156 224.445312 L 257.765625 224.453125 L 257.765625 225.796875 L 257.164062 225.796875 L 257.164062 224.453125 L 257.148438 224.445312 L 255.054688 224.445312 L 255.054688 223.953125 C 255.71875 222.84375 256.386719 221.722656 257.054688 220.613281 Z M 257.765625 220.613281 Z M 257.179688 220.914062 C 257.019531 221.738281 256.511719 222.445312 256.132812 223.167969 C 255.980469 223.429688 255.785156 223.714844 255.671875 223.96875 L 257.195312 223.96875 L 257.203125 223.953125 L 257.203125 220.914062 L 257.195312 220.898438 Z M 257.179688 220.914062 Z M 257.179688 220.914062 "/>
<path style="fill:none;stroke-width:0.02;stroke-linecap:butt;stroke-linejoin:miter;stroke:rgb(0%,0%,0%);stroke-opacity:1;stroke-miterlimit:10;" d="M 1.790209 7.838356 L 1.790209 7.73335 " transform="matrix(28.346457,0,0,-28.346457,1,227.771654)"/>
<path style="fill:none;stroke-width:0.02;stroke-linecap:butt;stroke-linejoin:miter;stroke:rgb(0%,0%,0%);stroke-opacity:1;stroke-miterlimit:10;" d="M 2.977803 7.838356 L 2.977803 7.73335 " transform="matrix(28.346457,0,0,-28.346457,1,227.771654)"/>
<path style="fill:none;stroke-width:0.02;stroke-linecap:butt;stroke-linejoin:miter;stroke:rgb(0%,0%,0%);stroke-opacity:1;stroke-miterlimit:10;" d="M 4.165396 7.838356 L 4.165396 7.73335 " transform="matrix(28.346457,0,0,-28.346457,1,227.771654)"/>
<path style="fill:none;stroke-width:0.02;stroke-linecap:butt;stroke-linejoin:miter;stroke:rgb(0%,0%,0%);stroke-opacity:1;stroke-miterlimit:10;" d="M 5.352989 7.838356 L 5.352989 7.73335 " transform="matrix(28.346457,0,0,-28.346457,1,227.771654)"/>
<path style="fill:none;stroke-width:0.02;stroke-linecap:butt;stroke-linejoin:miter;stroke:rgb(0%,0%,0%);stroke-opacity:1;stroke-miterlimit:10;" d="M 6.540583 7.838356 L 6.540583 7.73335 " transform="matrix(28.346457,0,0,-28.346457,1,227.771654)"/>
<path style="fill:none;stroke-width:0.02;stroke-linecap:butt;stroke-linejoin:miter;stroke:rgb(0%,0%,0%);stroke-opacity:1;stroke-miterlimit:10;" d="M 7.728176 7.838356 L 7.728176 7.73335 " transform="matrix(28.346457,0,0,-28.346457,1,227.771654)"/>
<path style="fill:none;stroke-width:0.02;stroke-linecap:butt;stroke-linejoin:miter;stroke:rgb(0%,0%,0%);stroke-opacity:1;stroke-miterlimit:10;" d="M 8.915769 7.838356 L 8.915769 7.73335 " transform="matrix(28.346457,0,0,-28.346457,1,227.771654)"/>
<path style="fill:none;stroke-width:0.02;stroke-linecap:round;stroke-linejoin:miter;stroke:rgb(0%,0%,0%);stroke-opacity:1;stroke-miterlimit:10;" d="M 0.602616 7.838356 L 9.930005 7.838356 " transform="matrix(28.346457,0,0,-28.346457,1,227.771654)"/>
<path style="fill:none;stroke-width:0.05;stroke-linecap:butt;stroke-linejoin:miter;stroke:rgb(79.215686%,38.431373%,29.411765%);stroke-opacity:1;stroke-miterlimit:10;" d="M 0.602616 0.428369 L 0.696736 0.545916 L 0.885252 0.781009 L 0.979372 0.898418 L 1.07363 1.015689 L 1.167887 1.132822 L 1.262007 1.24968 L 1.356265 1.3664 L 1.450523 1.482982 L 1.544781 1.59915 L 1.638901 1.715181 L 1.733159 1.830799 L 1.827416 1.946003 L 1.921536 2.060931 L 2.015794 2.175308 L 2.110052 2.28941 L 2.20431 2.40296 L 2.29843 2.515959 L 2.392688 2.628545 L 2.486946 2.740579 L 2.581066 2.851925 L 2.675323 2.962719 L 2.769581 3.072824 L 2.863701 3.182378 L 2.957959 3.291243 L 3.052217 3.399282 L 3.146475 3.506631 L 3.240595 3.613153 L 3.334852 3.718849 L 3.42911 3.823855 L 3.52323 3.927897 L 3.617488 4.031112 L 3.711746 4.133363 L 3.805866 4.234648 L 3.900124 4.335107 L 3.994382 4.434464 L 4.088639 4.532856 L 4.182759 4.630283 L 4.277017 4.726608 L 4.371275 4.821831 L 4.465395 4.915951 L 4.559653 5.00883 L 4.653911 5.100745 L 4.748031 5.19142 L 4.842288 5.280855 L 4.936546 5.369049 L 5.030804 5.456141 L 5.124924 5.541855 L 5.219182 5.626191 L 5.31344 5.709425 L 5.40756 5.791143 L 5.501817 5.87162 L 5.596075 5.950719 L 5.690195 6.028441 L 5.784453 6.104646 L 5.878711 6.179612 L 5.972969 6.252923 L 6.067089 6.324857 L 6.161347 6.395412 L 6.255604 6.464314 L 6.349724 6.5317 L 6.443982 6.597708 L 6.53824 6.662063 L 6.63236 6.724763 L 6.726618 6.785948 L 6.820876 6.845617 L 6.915133 6.903495 L 7.009253 6.959857 L 7.103511 7.014565 L 7.197769 7.067619 L 7.291889 7.11902 L 7.386147 7.16863 L 7.480405 7.216723 L 7.574525 7.262887 L 7.668783 7.307536 L 7.76304 7.350393 L 7.857298 7.391458 L 7.951418 7.430732 L 8.045676 7.468353 L 8.139934 7.504182 L 8.234054 7.538082 L 8.328312 7.570328 L 8.422569 7.600782 L 8.516689 7.629446 L 8.610947 7.656179 L 8.705205 7.68126 L 8.799463 7.704411 L 8.893583 7.72577 L 8.987841 7.745201 L 9.082099 7.76284 L 9.176219 7.778687 L 9.270476 7.792605 L 9.364734 7.804732 L 9.458854 7.814929 L 9.553112 7.823336 L 9.64737 7.82995 L 9.741628 7.834635 L 9.835748 7.837391 L 9.930005 7.838356 " transform="matrix(28.346457,0,0,-28.346457,1,227.771654)"/>
<path style="fill:none;stroke-width:0.05;stroke-linecap:butt;stroke-linejoin:miter;stroke:rgb(96.862745%,85.882353%,65.490196%);stroke-opacity:1;stroke-miterlimit:10;" d="M 0.602616 7.838356 L 0.696736 7.837391 L 0.790994 7.834635 L 0.885252 7.82995 L 0.979372 7.823336 L 1.07363 7.814929 L 1.167887 7.804732 L 1.262007 7.792605 L 1.356265 7.778687 L 1.450523 7.76284 L 1.544781 7.745201 L 1.638901 7.72577 L 1.733159 7.704411 L 1.827416 7.68126 L 1.921536 7.656179 L 2.015794 7.629446 L 2.110052 7.600782 L 2.20431 7.570328 L 2.29843 7.538082 L 2.392688 7.504182 L 2.486946 7.468353 L 2.581066 7.430732 L 2.675323 7.391458 L 2.769581 7.350393 L 2.863701 7.307536 L 2.957959 7.262887 L 3.052217 7.216723 L 3.146475 7.16863 L 3.240595 7.11902 L 3.334852 7.067619 L 3.42911 7.014565 L 3.52323 6.959857 L 3.617488 6.903495 L 3.711746 6.845617 L 3.805866 6.785948 L 3.900124 6.724763 L 3.994382 6.662063 L 4.088639 6.597708 L 4.182759 6.5317 L 4.277017 6.464314 L 4.371275 6.395412 L 4.465395 6.324857 L 4.559653 6.252923 L 4.653911 6.179612 L 4.748031 6.104646 L 4.842288 6.028441 L 4.936546 5.950719 L 5.030804 5.87162 L 5.124924 5.791143 L 5.219182 5.709425 L 5.31344 5.626191 L 5.40756 5.541855 L 5.501817 5.456141 L 5.596075 5.369049 L 5.690195 5.280855 L 5.784453 5.19142 L 5.878711 5.100745 L 5.972969 5.00883 L 6.067089 4.915951 L 6.161347 4.821831 L 6.255604 4.726608 L 6.349724 4.630283 L 6.443982 4.532856 L 6.53824 4.434464 L 6.63236 4.335107 L 6.726618 4.234648 L 6.820876 4.133363 L 6.915133 4.031112 L 7.009253 3.927897 L 7.103511 3.823855 L 7.197769 3.718849 L 7.291889 3.613153 L 7.386147 3.506631 L 7.480405 3.399282 L 7.574525 3.291243 L 7.668783 3.182378 L 7.76304 3.072824 L 7.857298 2.962719 L 7.951418 2.851925 L 8.045676 2.740579 L 8.139934 2.628545 L 8.234054 2.515959 L 8.328312 2.40296 L 8.422569 2.28941 L 8.516689 2.175308 L 8.610947 2.060931 L 8.705205 1.946003 L 8.799463 1.830799 L 8.893583 1.715181 L 8.987841 1.59915 L 9.082099 1.482982 L 9.176219 1.3664 L 9.270476 1.24968 L 9.364734 1.132822 L 9.458854 1.015689 L 9.553112 0.898418 L 9.64737 0.781009 L 9.741628 0.663462 L 9.835748 0.545916 L 9.930005 0.428369 " transform="matrix(28.346457,0,0,-28.346457,1,227.771654)"/>
<path style="fill-rule:nonzero;fill:rgb(78.039216%,83.529412%,62.352941%);fill-opacity:1;stroke-width:0.02;stroke-linecap:butt;stroke-linejoin:round;stroke:rgb(78.039216%,83.529412%,62.352941%);stroke-opacity:1;stroke-miterlimit:10;" d="M 0.602616 0.323363 L 0.707623 0.428369 L 0.602616 0.533376 L 0.49761 0.428369 Z M 0.602616 0.323363 " transform="matrix(28.346457,0,0,-28.346457,1,227.771654)"/>
<path style="fill-rule:nonzero;fill:rgb(78.039216%,83.529412%,62.352941%);fill-opacity:1;stroke-width:0.02;stroke-linecap:butt;stroke-linejoin:round;stroke:rgb(78.039216%,83.529412%,62.352941%);stroke-opacity:1;stroke-miterlimit:10;" d="M 1.07363 0.908753 L 1.178636 1.01376 L 1.07363 1.118766 L 0.968623 1.01376 Z M 1.07363 0.908753 " transform="matrix(28.346457,0,0,-28.346457,1,227.771654)"/>
<path style="fill-rule:nonzero;fill:rgb(78.039216%,83.529412%,62.352941%);fill-opacity:1;stroke-width:0.02;stroke-linecap:butt;stroke-linejoin:round;stroke:rgb(78.039216%,83.529412%,62.352941%);stroke-opacity:1;stroke-miterlimit:10;" d="M 1.544781 1.479537 L 1.649787 1.584405 L 1.544781 1.689412 L 1.439774 1.584405 Z M 1.544781 1.479537 " transform="matrix(28.346457,0,0,-28.346457,1,227.771654)"/>
<path style="fill-rule:nonzero;fill:rgb(78.039216%,83.529412%,62.352941%);fill-opacity:1;stroke-width:0.02;stroke-linecap:butt;stroke-linejoin:round;stroke:rgb(78.039216%,83.529412%,62.352941%);stroke-opacity:1;stroke-miterlimit:10;" d="M 2.015794 2.021106 L 2.120801 2.126112 L 2.015794 2.231119 L 1.910788 2.126112 Z M 2.015794 2.021106 " transform="matrix(28.346457,0,0,-28.346457,1,227.771654)"/>
<path style="fill-rule:nonzero;fill:rgb(78.039216%,83.529412%,62.352941%);fill-opacity:1;stroke-width:0.02;stroke-linecap:butt;stroke-linejoin:round;stroke:rgb(78.039216%,83.529412%,62.352941%);stroke-opacity:1;stroke-miterlimit:10;" d="M 2.486946 2.520093 L 2.591952 2.6251 L 2.486946 2.730106 L 2.381939 2.6251 Z M 2.486946 2.520093 " transform="matrix(28.346457,0,0,-28.346457,1,227.771654)"/>
<path style="fill-rule:nonzero;fill:rgb(78.039216%,83.529412%,62.352941%);fill-opacity:1;stroke-width:0.02;stroke-linecap:butt;stroke-linejoin:round;stroke:rgb(78.039216%,83.529412%,62.352941%);stroke-opacity:1;stroke-miterlimit:10;" d="M 2.957959 2.963959 L 3.062965 3.068828 L 2.957959 3.173835 L 2.852952 3.068828 Z M 2.957959 2.963959 " transform="matrix(28.346457,0,0,-28.346457,1,227.771654)"/>
<path style="fill-rule:nonzero;fill:rgb(78.039216%,83.529412%,62.352941%);fill-opacity:1;stroke-width:0.02;stroke-linecap:butt;stroke-linejoin:round;stroke:rgb(78.039216%,83.529412%,62.352941%);stroke-opacity:1;stroke-miterlimit:10;" d="M 3.42911 3.341404 L 3.534117 3.446411 L 3.42911 3.551417 L 3.324104 3.446411 Z M 3.42911 3.341404 " transform="matrix(28.346457,0,0,-28.346457,1,227.771654)"/>
<path style="fill-rule:nonzero;fill:rgb(78.039216%,83.529412%,62.352941%);fill-opacity:1;stroke-width:0.02;stroke-linecap:butt;stroke-linejoin:round;stroke:rgb(78.039216%,83.529412%,62.352941%);stroke-opacity:1;stroke-miterlimit:10;" d="M 3.900124 3.643057 L 4.00513 3.748063 L 3.900124 3.85307 L 3.795117 3.748063 Z M 3.900124 3.643057 " transform="matrix(28.346457,0,0,-28.346457,1,227.771654)"/>
<path style="fill-rule:nonzero;fill:rgb(78.039216%,83.529412%,62.352941%);fill-opacity:1;stroke-width:0.02;stroke-linecap:butt;stroke-linejoin:round;stroke:rgb(78.039216%,83.529412%,62.352941%);stroke-opacity:1;stroke-miterlimit:10;" d="M 4.371275 3.8612 L 4.476281 3.966207 L 4.371275 4.071213 L 4.266268 3.966207 Z M 4.371275 3.8612 " transform="matrix(28.346457,0,0,-28.346457,1,227.771654)"/>
<path style="fill-rule:nonzero;fill:rgb(78.039216%,83.529412%,62.352941%);fill-opacity:1;stroke-width:0.02;stroke-linecap:butt;stroke-linejoin:round;stroke:rgb(78.039216%,83.529412%,62.352941%);stroke-opacity:1;stroke-miterlimit:10;" d="M 4.842288 3.990598 L 4.947295 4.095604 L 4.842288 4.200611 L 4.737282 4.095604 Z M 4.842288 3.990598 " transform="matrix(28.346457,0,0,-28.346457,1,227.771654)"/>
<path style="fill-rule:nonzero;fill:rgb(78.039216%,83.529412%,62.352941%);fill-opacity:1;stroke-width:0.02;stroke-linecap:butt;stroke-linejoin:round;stroke:rgb(78.039216%,83.529412%,62.352941%);stroke-opacity:1;stroke-miterlimit:10;" d="M 5.31344 4.027943 L 5.418446 4.132949 L 5.31344 4.237818 L 5.208433 4.132949 Z M 5.31344 4.027943 " transform="matrix(28.346457,0,0,-28.346457,1,227.771654)"/>
<path style="fill-rule:nonzero;fill:rgb(78.039216%,83.529412%,62.352941%);fill-opacity:1;stroke-width:0.02;stroke-linecap:butt;stroke-linejoin:round;stroke:rgb(78.039216%,83.529412%,62.352941%);stroke-opacity:1;stroke-miterlimit:10;" d="M 5.784453 3.972132 L 5.88946 4.077001 L 5.784453 4.182007 L 5.679447 4.077001 Z M 5.784453 3.972132 " transform="matrix(28.346457,0,0,-28.346457,1,227.771654)"/>
<path style="fill-rule:nonzero;fill:rgb(78.039216%,83.529412%,62.352941%);fill-opacity:1;stroke-width:0.02;stroke-linecap:butt;stroke-linejoin:round;stroke:rgb(78.039216%,83.529412%,62.352941%);stroke-opacity:1;stroke-miterlimit:10;" d="M 6.255604 3.824544 L 6.360611 3.929551 L 6.255604 4.034557 L 6.150598 3.929551 Z M 6.255604 3.824544 " transform="matrix(28.346457,0,0,-28.346457,1,227.771654)"/>
<path style="fill-rule:nonzero;fill:rgb(78.039216%,83.529412%,62.352941%);fill-opacity:1;stroke-width:0.02;stroke-linecap:butt;stroke-linejoin:round;stroke:rgb(78.039216%,83.529412%,62.352941%);stroke-opacity:1;stroke-miterlimit:10;" d="M 6.726618 3.589175 L 6.831624 3.694182 L 6.726618 3.799188 L 6.621611 3.694182 Z M 6.726618 3.589175 " transform="matrix(28.346457,0,0,-28.346457,1,227.771654)"/>
<path style="fill-rule:nonzero;fill:rgb(78.039216%,83.529412%,62.352941%);fill-opacity:1;stroke-width:0.02;stroke-linecap:butt;stroke-linejoin:round;stroke:rgb(78.039216%,83.529412%,62.352941%);stroke-opacity:1;stroke-miterlimit:10;" d="M 7.197769 3.271675 L 7.302776 3.376682 L 7.197769 3.481688 L 7.092763 3.376682 Z M 7.197769 3.271675 " transform="matrix(28.346457,0,0,-28.346457,1,227.771654)"/>
<path style="fill-rule:nonzero;fill:rgb(78.039216%,83.529412%,62.352941%);fill-opacity:1;stroke-width:0.02;stroke-linecap:butt;stroke-linejoin:round;stroke:rgb(78.039216%,83.529412%,62.352941%);stroke-opacity:1;stroke-miterlimit:10;" d="M 7.668783 2.880175 L 7.773789 2.985043 L 7.668783 3.09005 L 7.563776 2.985043 Z M 7.668783 2.880175 " transform="matrix(28.346457,0,0,-28.346457,1,227.771654)"/>
<path style="fill-rule:nonzero;fill:rgb(78.039216%,83.529412%,62.352941%);fill-opacity:1;stroke-width:0.02;stroke-linecap:butt;stroke-linejoin:round;stroke:rgb(78.039216%,83.529412%,62.352941%);stroke-opacity:1;stroke-miterlimit:10;" d="M 8.139934 2.42432 L 8.24494 2.529326 L 8.139934 2.634333 L 8.034927 2.529326 Z M 8.139934 2.42432 " transform="matrix(28.346457,0,0,-28.346457,1,227.771654)"/>
<path style="fill-rule:nonzero;fill:rgb(78.039216%,83.529412%,62.352941%);fill-opacity:1;stroke-width:0.02;stroke-linecap:butt;stroke-linejoin:round;stroke:rgb(78.039216%,83.529412%,62.352941%);stroke-opacity:1;stroke-miterlimit:10;" d="M 8.610947 1.915824 L 8.715954 2.02083 L 8.610947 2.125837 L 8.505941 2.02083 Z M 8.610947 1.915824 " transform="matrix(28.346457,0,0,-28.346457,1,227.771654)"/>
<path style="fill-rule:nonzero;fill:rgb(78.039216%,83.529412%,62.352941%);fill-opacity:1;stroke-width:0.02;stroke-linecap:butt;stroke-linejoin:round;stroke:rgb(78.039216%,83.529412%,62.352941%);stroke-opacity:1;stroke-miterlimit:10;" d="M 9.082099 1.367227 L 9.187105 1.472233 L 9.082099 1.57724 L 8.977092 1.472233 Z M 9.082099 1.367227 " transform="matrix(28.346457,0,0,-28.346457,1,227.771654)"/>
<path style="fill-rule:nonzero;fill:rgb(78.039216%,83.529412%,62.352941%);fill-opacity:1;stroke-width:0.02;stroke-linecap:butt;stroke-linejoin:round;stroke:rgb(78.039216%,83.529412%,62.352941%);stroke-opacity:1;stroke-miterlimit:10;" d="M 9.553112 0.792447 L 9.658118 0.897453 L 9.553112 1.00246 L 9.448105 0.897453 Z M 9.553112 0.792447 " transform="matrix(28.346457,0,0,-28.346457,1,227.771654)"/>
<path style=" stroke:none;fill-rule:nonzero;fill:rgb(100%,100%,100%);fill-opacity:1;" d="M 221.433594 46.988281 L 282.480469 46.988281 L 282.480469 5.582031 L 221.433594 5.582031 Z M 221.433594 46.988281 "/>
<path style="fill:none;stroke-width:0.05;stroke-linecap:butt;stroke-linejoin:miter;stroke:rgb(79.215686%,38.431373%,29.411765%);stroke-opacity:1;stroke-miterlimit:10;" d="M 7.965474 7.511623 L 8.595513 7.511623 " transform="matrix(28.346457,0,0,-28.346457,1,227.771654)"/>
<path style=" stroke:none;fill-rule:nonzero;fill:rgb(0%,0%,0%);fill-opacity:1;" d="M 251.4375 13.144531 C 251.804688 13.203125 252.289062 13.242188 252.585938 13.492188 C 252.539062 13.667969 252.539062 13.90625 252.457031 14.078125 C 251.851562 13.75 251.109375 13.558594 250.453125 13.867188 C 250.027344 14.175781 250.246094 14.839844 250.742188 14.917969 C 251.425781 15.058594 252.230469 15.148438 252.605469 15.824219 C 253.042969 16.554688 252.585938 17.617188 251.722656 17.746094 C 250.96875 17.886719 250.167969 17.757812 249.480469 17.359375 C 249.53125 17.152344 249.550781 16.902344 249.609375 16.714844 C 250.277344 17.132812 251.179688 17.429688 251.894531 16.984375 C 252.261719 16.636719 252.050781 16 251.566406 15.890625 C 250.902344 15.734375 250.097656 15.671875 249.699219 15.027344 C 249.214844 14.265625 249.839844 13.171875 250.742188 13.183594 L 250.761719 13.164062 L 250.902344 13.164062 L 250.921875 13.144531 Z M 251.4375 13.144531 Z M 251.4375 13.144531 "/>
<path style=" stroke:none;fill-rule:nonzero;fill:rgb(0%,0%,0%);fill-opacity:1;" d="M 254.613281 10.960938 L 254.613281 11.824219 L 253.75 11.824219 L 253.75 10.960938 Z M 254.613281 10.960938 Z M 254.542969 13.3125 L 254.542969 17.6875 L 253.828125 17.6875 L 253.828125 13.3125 Z M 254.542969 13.3125 Z M 254.542969 13.3125 "/>
<path style=" stroke:none;fill-rule:nonzero;fill:rgb(0%,0%,0%);fill-opacity:1;" d="M 258.5 13.203125 C 259.164062 13.191406 259.710938 13.839844 259.660156 14.492188 L 259.679688 14.511719 L 259.679688 17.6875 L 258.925781 17.6875 L 258.925781 14.601562 C 258.886719 14.246094 258.648438 13.859375 258.242188 13.828125 C 257.765625 13.667969 257.199219 13.976562 257.0625 14.472656 L 257.011719 14.632812 L 256.972656 14.78125 L 256.953125 14.800781 L 256.953125 14.890625 L 256.933594 14.898438 L 256.933594 15.027344 L 256.921875 15.046875 L 256.921875 17.6875 L 256.167969 17.6875 L 256.167969 13.253906 L 256.863281 13.253906 L 256.863281 13.9375 C 257.160156 13.621094 257.609375 13.214844 258.125 13.222656 L 258.144531 13.203125 Z M 258.5 13.203125 Z M 258.5 13.203125 "/>
<path style=" stroke:none;fill-rule:nonzero;fill:rgb(0%,0%,0%);fill-opacity:1;" d="M 262.984375 13.144531 C 263.917969 13.191406 264.53125 14.125 264.550781 14.988281 L 264.5625 15.007812 L 264.5625 15.207031 L 264.582031 15.226562 L 264.582031 15.535156 L 261.515625 15.535156 C 261.476562 16.386719 262.25 17.371094 263.171875 17.203125 C 263.640625 17.171875 264.125 16.953125 264.492188 16.664062 L 264.492188 16.753906 L 264.511719 16.765625 L 264.511719 16.964844 L 264.53125 16.984375 L 264.53125 17.179688 L 264.550781 17.203125 L 264.550781 17.289062 C 263.609375 18.015625 262.0625 18.003906 261.339844 16.984375 C 260.347656 15.761719 260.871094 13.511719 262.519531 13.164062 L 262.648438 13.164062 L 262.667969 13.144531 Z M 262.984375 13.144531 Z M 262.6875 13.757812 C 262.082031 13.828125 261.664062 14.453125 261.578125 14.988281 L 264.027344 14.988281 C 264.007812 14.433594 263.558594 13.796875 262.957031 13.738281 L 262.707031 13.738281 Z M 262.6875 13.757812 Z M 262.6875 13.757812 "/>
<path style="fill:none;stroke-width:0.05;stroke-linecap:butt;stroke-linejoin:miter;stroke:rgb(96.862745%,85.882353%,65.490196%);stroke-opacity:1;stroke-miterlimit:10;" d="M 7.965474 7.091597 L 8.595513 7.091597 " transform="matrix(28.346457,0,0,-28.346457,1,227.771654)"/>
<path style=" stroke:none;fill-rule:nonzero;fill:rgb(0%,0%,0%);fill-opacity:1;" d="M 252.011719 25.050781 C 252.4375 25.078125 252.953125 25.226562 253.273438 25.515625 C 253.210938 25.703125 253.210938 25.941406 253.144531 26.109375 C 252.417969 25.605469 251.257812 25.417969 250.671875 26.21875 C 250.105469 27.0625 250.195312 28.433594 251.148438 28.957031 C 251.851562 29.253906 252.667969 28.988281 253.273438 28.570312 L 253.273438 28.660156 L 253.28125 28.671875 C 253.234375 28.886719 253.449219 29.1875 253.191406 29.304688 C 252.210938 29.921875 250.742188 29.871094 250.039062 28.847656 C 249.046875 27.589844 249.710938 25.367188 251.367188 25.070312 L 251.496094 25.070312 L 251.515625 25.050781 Z M 252.011719 25.050781 Z M 252.011719 25.050781 "/>
<path style=" stroke:none;fill-rule:nonzero;fill:rgb(0%,0%,0%);fill-opacity:1;" d="M 256.257812 25.050781 C 257.6875 25.167969 258.570312 26.816406 258.152344 28.113281 C 257.824219 29.425781 256.1875 30.160156 255.039062 29.425781 C 253.53125 28.601562 253.597656 26.128906 255.085938 25.316406 L 255.109375 25.308594 L 255.285156 25.21875 L 255.34375 25.199219 L 255.375 25.179688 L 255.542969 25.128906 L 255.683594 25.089844 L 255.773438 25.070312 L 255.902344 25.070312 L 255.921875 25.050781 Z M 256.257812 25.050781 Z M 255.921875 25.664062 C 255.019531 25.742188 254.5625 26.777344 254.699219 27.558594 C 254.691406 28.363281 255.414062 29.226562 256.257812 29.066406 C 257.28125 28.949219 257.65625 27.699219 257.4375 26.84375 C 257.339844 26.128906 256.625 25.535156 255.921875 25.664062 Z M 255.921875 25.664062 Z M 255.921875 25.664062 "/>
<path style=" stroke:none;fill-rule:nonzero;fill:rgb(0%,0%,0%);fill-opacity:1;" d="M 260.800781 25.050781 C 261.167969 25.109375 261.65625 25.148438 261.953125 25.394531 C 261.902344 25.574219 261.902344 25.8125 261.824219 25.980469 C 261.21875 25.65625 260.476562 25.464844 259.820312 25.773438 C 259.394531 26.082031 259.613281 26.746094 260.109375 26.824219 C 260.792969 26.964844 261.597656 27.054688 261.972656 27.726562 C 262.410156 28.460938 261.953125 29.523438 261.089844 29.652344 C 260.335938 29.792969 259.53125 29.664062 258.847656 29.265625 C 258.898438 29.058594 258.917969 28.808594 258.976562 28.621094 C 259.640625 29.039062 260.542969 29.335938 261.257812 28.886719 C 261.625 28.542969 261.417969 27.90625 260.929688 27.796875 C 260.265625 27.636719 259.464844 27.578125 259.066406 26.933594 C 258.578125 26.171875 259.203125 25.078125 260.109375 25.089844 L 260.128906 25.070312 L 260.265625 25.070312 L 260.285156 25.050781 Z M 260.800781 25.050781 Z M 260.800781 25.050781 "/>
<path style=" stroke:none;fill-rule:nonzero;fill:rgb(0%,0%,0%);fill-opacity:1;" d="M 263.976562 22.867188 L 263.976562 23.730469 L 263.113281 23.730469 L 263.113281 22.867188 Z M 263.976562 22.867188 Z M 263.90625 25.21875 L 263.90625 29.59375 L 263.195312 29.59375 L 263.195312 25.21875 Z M 263.90625 25.21875 Z M 263.90625 25.21875 "/>
<path style=" stroke:none;fill-rule:nonzero;fill:rgb(0%,0%,0%);fill-opacity:1;" d="M 267.867188 25.109375 C 268.53125 25.097656 269.078125 25.742188 269.027344 26.398438 L 269.046875 26.417969 L 269.046875 29.59375 L 268.292969 29.59375 L 268.292969 26.507812 C 268.253906 26.152344 268.015625 25.761719 267.609375 25.734375 C 267.132812 25.574219 266.566406 25.882812 266.425781 26.378906 L 266.378906 26.539062 L 266.339844 26.6875 L 266.320312 26.707031 L 266.320312 26.796875 L 266.296875 26.804688 L 266.296875 26.933594 L 266.289062 26.953125 L 266.289062 29.59375 L 265.535156 29.59375 L 265.535156 25.160156 L 266.230469 25.160156 L 266.230469 25.84375 C 266.527344 25.523438 266.972656 25.117188 267.488281 25.128906 L 267.507812 25.109375 Z M 267.867188 25.109375 Z M 267.867188 25.109375 "/>
<path style=" stroke:none;fill-rule:nonzero;fill:rgb(0%,0%,0%);fill-opacity:1;" d="M 272.351562 25.050781 C 273.285156 25.097656 273.898438 26.03125 273.917969 26.894531 L 273.929688 26.914062 L 273.929688 27.113281 L 273.949219 27.132812 L 273.949219 27.441406 L 270.882812 27.441406 C 270.84375 28.292969 271.617188 29.277344 272.539062 29.105469 C 273.003906 29.078125 273.492188 28.859375 273.859375 28.570312 L 273.859375 28.660156 L 273.878906 28.671875 L 273.878906 28.867188 L 273.898438 28.886719 L 273.898438 29.085938 L 273.917969 29.105469 L 273.917969 29.195312 C 272.976562 29.921875 271.429688 29.910156 270.703125 28.886719 C 269.710938 27.667969 270.238281 25.417969 271.882812 25.070312 L 272.011719 25.070312 L 272.035156 25.050781 Z M 272.351562 25.050781 Z M 272.054688 25.664062 C 271.449219 25.734375 271.03125 26.359375 270.941406 26.894531 L 273.390625 26.894531 C 273.371094 26.339844 272.925781 25.703125 272.320312 25.644531 L 272.074219 25.644531 Z M 272.054688 25.664062 Z M 272.054688 25.664062 "/>
<path style="fill-rule:nonzero;fill:rgb(78.039216%,83.529412%,62.352941%);fill-opacity:1;stroke-width:0.02;stroke-linecap:butt;stroke-linejoin:round;stroke:rgb(78.039216%,83.529412%,62.352941%);stroke-opacity:1;stroke-miterlimit:10;" d="M 8.280494 6.566565 L 8.3855 6.671571 L 8.280494 6.776578 L 8.175487 6.671571 Z M 8.280494 6.566565 " transform="matrix(28.346457,0,0,-28.346457,1,227.771654)"/>
<path style=" stroke:none;fill-rule:nonzero;fill:rgb(0%,0%,0%);fill-opacity:1;" d="M 251.4375 36.953125 C 251.804688 37.015625 252.289062 37.054688 252.585938 37.300781 C 252.539062 37.480469 252.539062 37.71875 252.457031 37.886719 C 251.851562 37.558594 251.109375 37.371094 250.453125 37.679688 C 250.027344 37.988281 250.246094 38.652344 250.742188 38.730469 C 251.425781 38.871094 252.230469 38.957031 252.605469 39.632812 C 253.042969 40.367188 252.585938 41.429688 251.722656 41.558594 C 250.96875 41.695312 250.167969 41.566406 249.480469 41.171875 C 249.53125 40.960938 249.550781 40.714844 249.609375 40.527344 C 250.277344 40.941406 251.179688 41.242188 251.894531 40.792969 C 252.261719 40.445312 252.050781 39.8125 251.566406 39.703125 C 250.902344 39.542969 250.097656 39.484375 249.699219 38.839844 C 249.214844 38.074219 249.839844 36.984375 250.742188 36.996094 L 250.761719 36.972656 L 250.902344 36.972656 L 250.921875 36.953125 Z M 251.4375 36.953125 Z M 251.4375 36.953125 "/>
<path style=" stroke:none;fill-rule:nonzero;fill:rgb(0%,0%,0%);fill-opacity:1;" d="M 255.8125 36.953125 C 256.238281 36.984375 256.753906 37.132812 257.070312 37.421875 C 257.011719 37.609375 257.011719 37.847656 256.941406 38.015625 C 256.21875 37.511719 255.058594 37.320312 254.472656 38.125 C 253.90625 38.96875 253.996094 40.335938 254.949219 40.863281 C 255.652344 41.160156 256.464844 40.894531 257.070312 40.476562 L 257.070312 40.566406 L 257.082031 40.574219 C 257.03125 40.792969 257.25 41.09375 256.992188 41.210938 C 256.011719 41.824219 254.542969 41.777344 253.835938 40.753906 C 252.84375 39.496094 253.511719 37.273438 255.167969 36.972656 L 255.296875 36.972656 L 255.316406 36.953125 Z M 255.8125 36.953125 Z M 255.8125 36.953125 "/>
<path style=" stroke:none;fill-rule:nonzero;fill:rgb(0%,0%,0%);fill-opacity:1;" d="M 259.929688 36.953125 C 260.671875 37.023438 261.296875 37.699219 261.367188 38.433594 L 261.367188 41.5 L 260.652344 41.5 L 260.652344 41.171875 C 260.246094 41.410156 259.699219 41.597656 259.214844 41.585938 C 258.539062 41.777344 257.90625 41.179688 257.867188 40.527344 C 257.785156 39.710938 258.679688 39.355469 259.34375 39.214844 C 259.769531 39.128906 260.1875 39.128906 260.613281 39.078125 C 260.652344 38.53125 260.613281 37.886719 260.078125 37.597656 C 259.453125 37.402344 258.769531 37.660156 258.242188 38.035156 L 258.242188 37.925781 L 258.234375 37.90625 L 258.234375 37.707031 L 258.214844 37.6875 L 258.214844 37.5 L 258.191406 37.480469 L 258.191406 37.390625 C 258.707031 37.042969 259.324219 36.925781 259.929688 36.953125 Z M 259.929688 36.953125 Z M 260.574219 39.59375 C 259.960938 39.59375 259.34375 39.671875 258.789062 39.992188 C 258.382812 40.25 258.609375 40.832031 259.015625 40.933594 C 259.53125 41.121094 260.238281 41.042969 260.554688 40.546875 L 260.574219 40.488281 L 260.59375 40.417969 L 260.613281 40.398438 L 260.613281 39.59375 L 260.59375 39.574219 Z M 260.574219 39.59375 Z M 260.574219 39.59375 "/>
<path style=" stroke:none;fill-rule:nonzero;fill:rgb(0%,0%,0%);fill-opacity:1;" d="M 263.90625 35.863281 L 263.90625 37.101562 L 263.925781 37.125 L 265.285156 37.125 L 265.285156 37.679688 L 263.925781 37.679688 L 263.90625 37.6875 L 263.90625 40.378906 C 263.949219 40.617188 264.027344 40.921875 264.304688 40.992188 C 264.652344 41.011719 265.007812 40.882812 265.285156 40.664062 L 265.304688 40.703125 L 265.316406 40.773438 L 265.335938 40.832031 L 265.355469 40.902344 L 265.375 40.953125 L 265.414062 41.101562 C 265.535156 41.328125 265.175781 41.351562 265.039062 41.4375 C 264.582031 41.558594 264.097656 41.71875 263.640625 41.519531 C 263.3125 41.320312 263.242188 40.902344 263.203125 40.566406 L 263.203125 37.6875 L 263.183594 37.679688 L 262.359375 37.679688 L 262.359375 37.125 L 263.222656 37.125 L 263.242188 37.101562 L 263.242188 35.863281 Z M 263.90625 35.863281 Z M 263.90625 35.863281 "/>
<path style=" stroke:none;fill-rule:nonzero;fill:rgb(0%,0%,0%);fill-opacity:1;" d="M 267.488281 35.863281 L 267.488281 37.101562 L 267.507812 37.125 L 268.867188 37.125 L 268.867188 37.679688 L 267.507812 37.679688 L 267.488281 37.6875 L 267.488281 40.378906 C 267.527344 40.617188 267.609375 40.921875 267.886719 40.992188 C 268.234375 41.011719 268.589844 40.882812 268.867188 40.664062 L 268.886719 40.703125 L 268.898438 40.773438 L 268.917969 40.832031 L 268.9375 40.902344 L 268.957031 40.953125 L 268.996094 41.101562 C 269.117188 41.328125 268.757812 41.351562 268.621094 41.4375 C 268.164062 41.558594 267.679688 41.71875 267.222656 41.519531 C 266.894531 41.320312 266.824219 40.902344 266.785156 40.566406 L 266.785156 37.6875 L 266.765625 37.679688 L 265.941406 37.679688 L 265.941406 37.125 L 266.804688 37.125 L 266.824219 37.101562 L 266.824219 35.863281 Z M 267.488281 35.863281 Z M 267.488281 35.863281 "/>
<path style=" stroke:none;fill-rule:nonzero;fill:rgb(0%,0%,0%);fill-opacity:1;" d="M 271.835938 36.953125 C 272.765625 37.003906 273.382812 37.9375 273.402344 38.800781 L 273.414062 38.820312 L 273.414062 39.019531 L 273.433594 39.039062 L 273.433594 39.34375 L 270.367188 39.34375 C 270.328125 40.199219 271.101562 41.179688 272.023438 41.011719 C 272.488281 40.984375 272.976562 40.765625 273.34375 40.476562 L 273.34375 40.566406 L 273.363281 40.574219 L 273.363281 40.773438 L 273.382812 40.792969 L 273.382812 40.992188 L 273.402344 41.011719 L 273.402344 41.101562 C 272.460938 41.824219 270.914062 41.816406 270.1875 40.792969 C 269.195312 39.574219 269.722656 37.320312 271.367188 36.972656 L 271.496094 36.972656 L 271.515625 36.953125 Z M 271.835938 36.953125 Z M 271.539062 37.570312 C 270.933594 37.640625 270.515625 38.265625 270.425781 38.800781 L 272.875 38.800781 C 272.855469 38.246094 272.410156 37.609375 271.804688 37.550781 L 271.558594 37.550781 Z M 271.539062 37.570312 Z M 271.539062 37.570312 "/>
<path style=" stroke:none;fill-rule:nonzero;fill:rgb(0%,0%,0%);fill-opacity:1;" d="M 276.964844 37.015625 L 276.964844 37.660156 C 276.121094 37.640625 275.355469 38.355469 275.277344 39.175781 L 275.277344 41.5 L 274.5625 41.5 L 274.5625 37.0625 L 275.21875 37.0625 L 275.21875 37.945312 C 275.464844 37.6875 275.785156 37.3125 276.171875 37.171875 L 276.238281 37.132812 L 276.410156 37.082031 L 276.546875 37.042969 L 276.636719 37.035156 L 276.765625 37.035156 L 276.785156 37.015625 Z M 276.964844 37.015625 Z M 276.964844 37.015625 "/>
<path style="fill:none;stroke-width:0.02;stroke-linecap:butt;stroke-linejoin:miter;stroke:rgb(0%,0%,0%);stroke-opacity:1;stroke-miterlimit:10;" d="M 7.776407 6.377636 L 9.930005 6.377636 L 9.930005 7.838356 L 7.776407 7.838356 Z M 7.776407 6.377636 " transform="matrix(28.346457,0,0,-28.346457,1,227.771654)"/>
</g>
</svg>
