<?xml version="1.0" encoding="UTF-8"?>
<svg xmlns="http://www.w3.org/2000/svg" xmlns:xlink="http://www.w3.org/1999/xlink" width="285.464567pt" height="228.771654pt" viewBox="0 0 285.464567 228.771654" version="1.1">
<g id="surface1">
<path style="fill:none;stroke-width:0.02;stroke-linecap:butt;stroke-linejoin:miter;stroke:rgb(0%,0%,0%);stroke-opacity:1;stroke-miterlimit:10;" d="M 0.695771 1.663367 L 0.800778 1.663367 " transform="matrix(28.346457,0,0,-28.346457,1,227.771654)"/>
<path style="fill:none;stroke-width:0.02;stroke-linecap:butt;stroke-linejoin:miter;stroke:rgb(0%,0%,0%);stroke-opacity:1;stroke-miterlimit:10;" d="M 0.695771 2.898365 L 0.800778 2.898365 " transform="matrix(28.346457,0,0,-28.346457,1,227.771654)"/>
<path style="fill:none;stroke-width:0.02;stroke-linecap:butt;stroke-linejoin:miter;stroke:rgb(0%,0%,0%);stroke-opacity:1;stroke-miterlimit:10;" d="M 0.695771 4.133363 L 0.800778 4.133363 " transform="matrix(28.346457,0,0,-28.346457,1,227.771654)"/>
<path style="fill:none;stroke-width:0.02;stroke-linecap:butt;stroke-linejoin:miter;stroke:rgb(0%,0%,0%);stroke-opacity:1;stroke-miterlimit:10;" d="M 0.695771 5.36836 L 0.800778 5.36836 " transform="matrix(28.346457,0,0,-28.346457,1,227.771654)"/>
<path style="fill:none;stroke-width:0.02;stroke-linecap:butt;stroke-linejoin:miter;stroke:rgb(0%,0%,0%);stroke-opacity:1;stroke-miterlimit:10;" d="M 0.695771 6.603358 L 0.800778 6.603358 " transform="matrix(28.346457,0,0,-28.346457,1,227.771654)"/>
<path style="fill:none;stroke-width:0.02;stroke-linecap:round;stroke-linejoin:miter;stroke:rgb(0%,0%,0%);stroke-opacity:1;stroke-miterlimit:10;" d="M 0.695771 0.428369 L 0.695771 7.838356 " transform="matrix(28.346457,0,0,-28.346457,1,227.771654)"/>
<path style=" stroke:none;fill-rule:nonzero;fill:rgb(0%,0%,0%);fill-opacity:1;" d="M 5.160156 216.265625 L 5.160156 216.710938 L 3.078125 216.710938 L 3.078125 216.265625 Z M 5.160156 216.265625 Z M 5.160156 216.265625 "/>
<path style=" stroke:none;fill-rule:nonzero;fill:rgb(0%,0%,0%);fill-opacity:1;" d="M 7.746094 212.886719 C 8.5 212.941406 9 213.632812 9.136719 214.332031 C 9.207031 214.648438 9.222656 214.949219 9.253906 215.265625 L 9.253906 216.078125 C 9.214844 216.902344 9.015625 217.988281 8.121094 218.324219 C 7.339844 218.632812 6.429688 218.148438 6.199219 217.355469 C 6.023438 216.933594 6.007812 216.503906 5.96875 216.078125 L 5.96875 215.265625 C 6.007812 214.441406 6.183594 213.347656 7.070312 212.980469 L 7.113281 212.964844 L 7.144531 212.957031 L 7.183594 212.941406 L 7.300781 212.910156 L 7.375 212.894531 L 7.460938 212.894531 L 7.476562 212.886719 Z M 7.746094 212.886719 Z M 7.5 213.371094 C 6.832031 213.449219 6.636719 214.25 6.585938 214.789062 L 6.585938 215.003906 L 6.570312 215.019531 L 6.570312 216.125 C 6.621094 216.695312 6.660156 217.433594 7.183594 217.816406 C 7.667969 218.148438 8.308594 217.773438 8.445312 217.257812 C 8.585938 216.878906 8.621094 216.503906 8.652344 216.125 L 8.652344 215.019531 C 8.605469 214.441406 8.523438 213.632812 7.859375 213.402344 L 7.800781 213.386719 L 7.785156 213.371094 L 7.714844 213.371094 L 7.699219 213.355469 L 7.515625 213.355469 Z M 7.5 213.371094 Z M 7.5 213.371094 "/>
<path style=" stroke:none;fill-rule:nonzero;fill:rgb(0%,0%,0%);fill-opacity:1;" d="M 11.023438 217.601562 L 11.023438 218.234375 L 10.382812 218.234375 L 10.382812 217.601562 Z M 11.023438 217.601562 Z M 11.023438 217.601562 "/>
<path style=" stroke:none;fill-rule:nonzero;fill:rgb(0%,0%,0%);fill-opacity:1;" d="M 15.089844 213.050781 L 15.089844 213.542969 L 13.023438 213.542969 L 13.007812 213.550781 L 13.007812 215.179688 C 13.199219 215.050781 13.46875 214.886719 13.722656 214.878906 C 14.621094 214.78125 15.308594 215.664062 15.351562 216.480469 C 15.476562 217.519531 14.5 218.554688 13.453125 218.394531 C 12.929688 218.378906 12.421875 218.070312 12.121094 217.640625 C 12.207031 217.519531 12.277344 217.316406 12.382812 217.242188 C 12.753906 217.972656 13.960938 218.265625 14.445312 217.496094 C 14.753906 216.917969 14.746094 216.179688 14.390625 215.625 C 13.976562 215.09375 13.160156 215.417969 12.96875 215.980469 L 12.453125 215.980469 L 12.453125 213.050781 Z M 15.089844 213.050781 Z M 15.089844 213.050781 "/>
<path style=" stroke:none;fill-rule:nonzero;fill:rgb(0%,0%,0%);fill-opacity:1;" d="M 7.746094 177.878906 C 8.5 177.933594 9 178.625 9.136719 179.324219 C 9.207031 179.640625 9.222656 179.941406 9.253906 180.257812 L 9.253906 181.070312 C 9.214844 181.894531 9.015625 182.980469 8.121094 183.316406 C 7.339844 183.625 6.429688 183.140625 6.199219 182.347656 C 6.023438 181.925781 6.007812 181.496094 5.96875 181.070312 L 5.96875 180.257812 C 6.007812 179.433594 6.183594 178.339844 7.070312 177.972656 L 7.113281 177.957031 L 7.144531 177.949219 L 7.183594 177.933594 L 7.300781 177.902344 L 7.375 177.886719 L 7.460938 177.886719 L 7.476562 177.878906 Z M 7.746094 177.878906 Z M 7.5 178.363281 C 6.832031 178.441406 6.636719 179.242188 6.585938 179.785156 L 6.585938 179.996094 L 6.570312 180.011719 L 6.570312 181.117188 C 6.621094 181.6875 6.660156 182.425781 7.183594 182.808594 C 7.667969 183.140625 8.308594 182.769531 8.445312 182.25 C 8.585938 181.871094 8.621094 181.496094 8.652344 181.117188 L 8.652344 180.011719 C 8.605469 179.433594 8.523438 178.625 7.859375 178.394531 L 7.800781 178.378906 L 7.785156 178.363281 L 7.714844 178.363281 L 7.699219 178.347656 L 7.515625 178.347656 Z M 7.5 178.363281 Z M 7.5 178.363281 "/>
<path style=" stroke:none;fill-rule:nonzero;fill:rgb(0%,0%,0%);fill-opacity:1;" d="M 11.023438 182.59375 L 11.023438 183.226562 L 10.382812 183.226562 L 10.382812 182.59375 Z M 11.023438 182.59375 Z M 11.023438 182.59375 "/>
<path style=" stroke:none;fill-rule:nonzero;fill:rgb(0%,0%,0%);fill-opacity:1;" d="M 13.914062 177.878906 C 14.667969 177.933594 15.167969 178.625 15.300781 179.324219 C 15.375 179.640625 15.390625 179.941406 15.421875 180.257812 L 15.421875 181.070312 C 15.382812 181.894531 15.183594 182.980469 14.285156 183.316406 C 13.507812 183.625 12.597656 183.140625 12.367188 182.347656 C 12.191406 181.925781 12.175781 181.496094 12.136719 181.070312 L 12.136719 180.257812 C 12.175781 179.433594 12.351562 178.339844 13.238281 177.972656 L 13.277344 177.957031 L 13.308594 177.949219 L 13.351562 177.933594 L 13.46875 177.902344 L 13.539062 177.886719 L 13.628906 177.886719 L 13.644531 177.878906 Z M 13.914062 177.878906 Z M 13.667969 178.363281 C 13 178.441406 12.800781 179.242188 12.753906 179.785156 L 12.753906 179.996094 L 12.738281 180.011719 L 12.738281 181.117188 C 12.785156 181.6875 12.824219 182.425781 13.351562 182.808594 C 13.835938 183.140625 14.476562 182.769531 14.613281 182.25 C 14.753906 181.871094 14.785156 181.496094 14.816406 181.117188 L 14.816406 180.011719 C 14.769531 179.433594 14.691406 178.625 14.023438 178.394531 L 13.96875 178.378906 L 13.953125 178.363281 L 13.882812 178.363281 L 13.867188 178.347656 L 13.683594 178.347656 Z M 13.667969 178.363281 Z M 13.667969 178.363281 "/>
<path style=" stroke:none;fill-rule:nonzero;fill:rgb(0%,0%,0%);fill-opacity:1;" d="M 7.746094 142.871094 C 8.5 142.925781 9 143.617188 9.136719 144.316406 C 9.207031 144.632812 9.222656 144.933594 9.253906 145.253906 L 9.253906 146.0625 C 9.214844 146.886719 9.015625 147.972656 8.121094 148.308594 C 7.339844 148.617188 6.429688 148.132812 6.199219 147.339844 C 6.023438 146.917969 6.007812 146.492188 5.96875 146.0625 L 5.96875 145.253906 C 6.007812 144.425781 6.183594 143.332031 7.070312 142.964844 L 7.113281 142.949219 L 7.144531 142.941406 L 7.183594 142.925781 L 7.300781 142.894531 L 7.375 142.878906 L 7.460938 142.878906 L 7.476562 142.871094 Z M 7.746094 142.871094 Z M 7.5 143.355469 C 6.832031 143.433594 6.636719 144.234375 6.585938 144.777344 L 6.585938 144.988281 L 6.570312 145.007812 L 6.570312 146.109375 C 6.621094 146.679688 6.660156 147.417969 7.183594 147.800781 C 7.667969 148.132812 8.308594 147.761719 8.445312 147.246094 C 8.585938 146.863281 8.621094 146.492188 8.652344 146.109375 L 8.652344 145.007812 C 8.605469 144.425781 8.523438 143.617188 7.859375 143.386719 L 7.800781 143.371094 L 7.785156 143.355469 L 7.714844 143.355469 L 7.699219 143.339844 L 7.515625 143.339844 Z M 7.5 143.355469 Z M 7.5 143.355469 "/>
<path style=" stroke:none;fill-rule:nonzero;fill:rgb(0%,0%,0%);fill-opacity:1;" d="M 11.023438 147.585938 L 11.023438 148.21875 L 10.382812 148.21875 L 10.382812 147.585938 Z M 11.023438 147.585938 Z M 11.023438 147.585938 "/>
<path style=" stroke:none;fill-rule:nonzero;fill:rgb(0%,0%,0%);fill-opacity:1;" d="M 15.089844 143.039062 L 15.089844 143.53125 L 13.023438 143.53125 L 13.007812 143.539062 L 13.007812 145.164062 C 13.199219 145.039062 13.46875 144.871094 13.722656 144.863281 C 14.621094 144.769531 15.308594 145.648438 15.351562 146.464844 C 15.476562 147.507812 14.5 148.539062 13.453125 148.378906 C 12.929688 148.363281 12.421875 148.054688 12.121094 147.625 C 12.207031 147.507812 12.277344 147.300781 12.382812 147.226562 C 12.753906 147.957031 13.960938 148.253906 14.445312 147.480469 C 14.753906 146.902344 14.746094 146.164062 14.390625 145.609375 C 13.976562 145.078125 13.160156 145.402344 12.96875 145.964844 L 12.453125 145.964844 L 12.453125 143.039062 Z M 15.089844 143.039062 Z M 15.089844 143.039062 "/>
<path style=" stroke:none;fill-rule:nonzero;fill:rgb(0%,0%,0%);fill-opacity:1;" d="M 7.992188 107.863281 L 7.992188 112.761719 L 8 112.777344 L 8.976562 112.777344 L 8.976562 113.214844 L 6.398438 113.214844 L 6.398438 112.777344 L 7.375 112.777344 L 7.390625 112.761719 L 7.390625 108.648438 C 7.054688 108.761719 6.707031 108.832031 6.359375 108.824219 L 6.359375 108.378906 C 6.882812 108.386719 7.453125 108.246094 7.851562 107.863281 Z M 7.992188 107.863281 Z M 7.992188 107.863281 "/>
<path style=" stroke:none;fill-rule:nonzero;fill:rgb(0%,0%,0%);fill-opacity:1;" d="M 11.023438 112.578125 L 11.023438 113.214844 L 10.382812 113.214844 L 10.382812 112.578125 Z M 11.023438 112.578125 Z M 11.023438 112.578125 "/>
<path style=" stroke:none;fill-rule:nonzero;fill:rgb(0%,0%,0%);fill-opacity:1;" d="M 13.914062 107.863281 C 14.667969 107.917969 15.167969 108.609375 15.300781 109.308594 C 15.375 109.625 15.390625 109.925781 15.421875 110.246094 L 15.421875 111.054688 C 15.382812 111.878906 15.183594 112.96875 14.285156 113.300781 C 13.507812 113.609375 12.597656 113.125 12.367188 112.332031 C 12.191406 111.910156 12.175781 111.484375 12.136719 111.054688 L 12.136719 110.246094 C 12.175781 109.417969 12.351562 108.324219 13.238281 107.957031 L 13.277344 107.941406 L 13.308594 107.933594 L 13.351562 107.917969 L 13.46875 107.886719 L 13.539062 107.871094 L 13.628906 107.871094 L 13.644531 107.863281 Z M 13.914062 107.863281 Z M 13.667969 108.347656 C 13 108.425781 12.800781 109.230469 12.753906 109.769531 L 12.753906 109.984375 L 12.738281 110 L 12.738281 111.101562 C 12.785156 111.671875 12.824219 112.410156 13.351562 112.792969 C 13.835938 113.125 14.476562 112.753906 14.613281 112.238281 C 14.753906 111.855469 14.785156 111.484375 14.816406 111.101562 L 14.816406 110 C 14.769531 109.417969 14.691406 108.609375 14.023438 108.378906 L 13.96875 108.363281 L 13.953125 108.347656 L 13.882812 108.347656 L 13.867188 108.332031 L 13.683594 108.332031 Z M 13.667969 108.347656 Z M 13.667969 108.347656 "/>
<path style=" stroke:none;fill-rule:nonzero;fill:rgb(0%,0%,0%);fill-opacity:1;" d="M 7.992188 72.855469 L 7.992188 77.753906 L 8 77.769531 L 8.976562 77.769531 L 8.976562 78.207031 L 6.398438 78.207031 L 6.398438 77.769531 L 7.375 77.769531 L 7.390625 77.753906 L 7.390625 73.640625 C 7.054688 73.753906 6.707031 73.824219 6.359375 73.816406 L 6.359375 73.371094 C 6.882812 73.378906 7.453125 73.238281 7.851562 72.855469 Z M 7.992188 72.855469 Z M 7.992188 72.855469 "/>
<path style=" stroke:none;fill-rule:nonzero;fill:rgb(0%,0%,0%);fill-opacity:1;" d="M 11.023438 77.570312 L 11.023438 78.207031 L 10.382812 78.207031 L 10.382812 77.570312 Z M 11.023438 77.570312 Z M 11.023438 77.570312 "/>
<path style=" stroke:none;fill-rule:nonzero;fill:rgb(0%,0%,0%);fill-opacity:1;" d="M 15.089844 73.023438 L 15.089844 73.515625 L 13.023438 73.515625 L 13.007812 73.523438 L 13.007812 75.148438 C 13.199219 75.023438 13.46875 74.855469 13.722656 74.847656 C 14.621094 74.753906 15.308594 75.632812 15.351562 76.453125 C 15.476562 77.492188 14.5 78.523438 13.453125 78.363281 C 12.929688 78.347656 12.421875 78.039062 12.121094 77.609375 C 12.207031 77.492188 12.277344 77.285156 12.382812 77.214844 C 12.753906 77.945312 13.960938 78.238281 14.445312 77.46875 C 14.753906 76.886719 14.746094 76.148438 14.390625 75.59375 C 13.976562 75.0625 13.160156 75.386719 12.96875 75.953125 L 12.453125 75.953125 L 12.453125 73.023438 Z M 15.089844 73.023438 Z M 15.089844 73.023438 "/>
<path style=" stroke:none;fill-rule:nonzero;fill:rgb(0%,0%,0%);fill-opacity:1;" d="M 7.660156 37.847656 C 8.578125 37.871094 9.308594 38.816406 9.167969 39.707031 C 9.070312 40.59375 8.238281 41.101562 7.644531 41.660156 L 7.390625 41.921875 L 7.359375 41.9375 L 7.039062 42.246094 L 7.015625 42.261719 L 6.699219 42.578125 L 6.667969 42.59375 L 6.59375 42.667969 L 6.613281 42.675781 L 9.183594 42.675781 L 9.183594 43.199219 L 6.039062 43.199219 L 6.039062 42.722656 L 7.316406 41.445312 C 7.929688 40.914062 8.644531 40.222656 8.53125 39.347656 C 8.46875 38.839844 8.039062 38.371094 7.515625 38.332031 C 6.984375 38.253906 6.515625 38.675781 6.398438 39.183594 L 6.382812 39.207031 L 6.367188 39.261719 L 6.339844 39.347656 L 6.292969 39.523438 L 6.285156 39.5625 C 6.175781 39.429688 6.054688 39.285156 5.96875 39.132812 C 6.128906 38.484375 6.652344 37.871094 7.339844 37.847656 Z M 7.660156 37.847656 Z M 7.660156 37.847656 "/>
<path style=" stroke:none;fill-rule:nonzero;fill:rgb(0%,0%,0%);fill-opacity:1;" d="M 11.023438 42.5625 L 11.023438 43.199219 L 10.382812 43.199219 L 10.382812 42.5625 Z M 11.023438 42.5625 Z M 11.023438 42.5625 "/>
<path style=" stroke:none;fill-rule:nonzero;fill:rgb(0%,0%,0%);fill-opacity:1;" d="M 13.914062 37.847656 C 14.667969 37.90625 15.167969 38.59375 15.300781 39.292969 C 15.375 39.609375 15.390625 39.914062 15.421875 40.230469 L 15.421875 41.039062 C 15.382812 41.863281 15.183594 42.953125 14.285156 43.285156 C 13.507812 43.59375 12.597656 43.109375 12.367188 42.316406 C 12.191406 41.898438 12.175781 41.46875 12.136719 41.039062 L 12.136719 40.230469 C 12.175781 39.40625 12.351562 38.308594 13.238281 37.945312 L 13.277344 37.929688 L 13.308594 37.921875 L 13.351562 37.90625 L 13.46875 37.871094 L 13.539062 37.855469 L 13.628906 37.855469 L 13.644531 37.847656 Z M 13.914062 37.847656 Z M 13.667969 38.332031 C 13 38.414062 12.800781 39.214844 12.753906 39.753906 L 12.753906 39.96875 L 12.738281 39.984375 L 12.738281 41.085938 C 12.785156 41.660156 12.824219 42.398438 13.351562 42.777344 C 13.835938 43.109375 14.476562 42.738281 14.613281 42.222656 C 14.753906 41.839844 14.785156 41.46875 14.816406 41.085938 L 14.816406 39.984375 C 14.769531 39.40625 14.691406 38.59375 14.023438 38.363281 L 13.96875 38.347656 L 13.953125 38.332031 L 13.882812 38.332031 L 13.867188 38.316406 L 13.683594 38.316406 Z M 13.667969 38.332031 Z M 13.667969 38.332031 "/>
<path style=" stroke:none;fill-rule:nonzero;fill:rgb(0%,0%,0%);fill-opacity:1;" d="M 7.660156 2.839844 C 8.578125 2.863281 9.308594 3.808594 9.167969 4.699219 C 9.070312 5.585938 8.238281 6.09375 7.644531 6.652344 L 7.390625 6.914062 L 7.359375 6.929688 L 7.039062 7.238281 L 7.015625 7.253906 L 6.699219 7.570312 L 6.667969 7.585938 L 6.59375 7.660156 L 6.613281 7.667969 L 9.183594 7.667969 L 9.183594 8.191406 L 6.039062 8.191406 L 6.039062 7.714844 L 7.316406 6.4375 C 7.929688 5.90625 8.644531 5.214844 8.53125 4.339844 C 8.46875 3.832031 8.039062 3.363281 7.515625 3.324219 C 6.984375 3.246094 6.515625 3.667969 6.398438 4.175781 L 6.382812 4.199219 L 6.367188 4.253906 L 6.339844 4.339844 L 6.292969 4.515625 L 6.285156 4.554688 C 6.175781 4.421875 6.054688 4.277344 5.96875 4.128906 C 6.128906 3.476562 6.652344 2.863281 7.339844 2.839844 Z M 7.660156 2.839844 Z M 7.660156 2.839844 "/>
<path style=" stroke:none;fill-rule:nonzero;fill:rgb(0%,0%,0%);fill-opacity:1;" d="M 11.023438 7.554688 L 11.023438 8.191406 L 10.382812 8.191406 L 10.382812 7.554688 Z M 11.023438 7.554688 Z M 11.023438 7.554688 "/>
<path style=" stroke:none;fill-rule:nonzero;fill:rgb(0%,0%,0%);fill-opacity:1;" d="M 15.089844 3.007812 L 15.089844 3.5 L 13.023438 3.5 L 13.007812 3.507812 L 13.007812 5.136719 C 13.199219 5.007812 13.46875 4.839844 13.722656 4.832031 C 14.621094 4.738281 15.308594 5.621094 15.351562 6.4375 C 15.476562 7.476562 14.5 8.507812 13.453125 8.351562 C 12.929688 8.332031 12.421875 8.023438 12.121094 7.59375 C 12.207031 7.476562 12.277344 7.269531 12.382812 7.199219 C 12.753906 7.929688 13.960938 8.222656 14.445312 7.453125 C 14.753906 6.875 14.746094 6.136719 14.390625 5.578125 C 13.976562 5.046875 13.160156 5.375 12.96875 5.9375 L 12.453125 5.9375 L 12.453125 3.007812 Z M 15.089844 3.007812 Z M 15.089844 3.007812 "/>
<path style="fill:none;stroke-width:0.02;stroke-linecap:butt;stroke-linejoin:miter;stroke:rgb(0%,0%,0%);stroke-opacity:1;stroke-miterlimit:10;" d="M 9.930005 1.663367 L 9.824999 1.663367 " transform="matrix(28.346457,0,0,-28.346457,1,227.771654)"/>
<path style="fill:none;stroke-width:0.02;stroke-linecap:butt;stroke-linejoin:miter;stroke:rgb(0%,0%,0%);stroke-opacity:1;stroke-miterlimit:10;" d="M 9.930005 2.898365 L 9.824999 2.898365 " transform="matrix(28.346457,0,0,-28.346457,1,227.771654)"/>
<path style="fill:none;stroke-width:0.02;stroke-linecap:butt;stroke-linejoin:miter;stroke:rgb(0%,0%,0%);stroke-opacity:1;stroke-miterlimit:10;" d="M 9.930005 4.133363 L 9.824999 4.133363 " transform="matrix(28.346457,0,0,-28.346457,1,227.771654)"/>
<path style="fill:none;stroke-width:0.02;stroke-linecap:butt;stroke-linejoin:miter;stroke:rgb(0%,0%,0%);stroke-opacity:1;stroke-miterlimit:10;" d="M 9.930005 5.36836 L 9.824999 5.36836 " transform="matrix(28.346457,0,0,-28.346457,1,227.771654)"/>
<path style="fill:none;stroke-width:0.02;stroke-linecap:butt;stroke-linejoin:miter;stroke:rgb(0%,0%,0%);stroke-opacity:1;stroke-miterlimit:10;" d="M 9.930005 6.603358 L 9.824999 6.603358 " transform="matrix(28.346457,0,0,-28.346457,1,227.771654)"/>
<path style="fill:none;stroke-width:0.02;stroke-linecap:round;stroke-linejoin:miter;stroke:rgb(0%,0%,0%);stroke-opacity:1;stroke-miterlimit:10;" d="M 9.930005 0.428369 L 9.930005 7.838356 " transform="matrix(28.346457,0,0,-28.346457,1,227.771654)"/>
<path style="fill:none;stroke-width:0.02;stroke-linecap:butt;stroke-linejoin:miter;stroke:rgb(0%,0%,0%);stroke-opacity:1;stroke-miterlimit:10;" d="M 2.165449 0.428369 L 2.165449 0.533376 " transform="matrix(28.346457,0,0,-28.346457,1,227.771654)"/>
<path style="fill:none;stroke-width:0.02;stroke-linecap:butt;stroke-linejoin:miter;stroke:rgb(0%,0%,0%);stroke-opacity:1;stroke-miterlimit:10;" d="M 3.635127 0.428369 L 3.635127 0.533376 " transform="matrix(28.346457,0,0,-28.346457,1,227.771654)"/>
<path style="fill:none;stroke-width:0.02;stroke-linecap:butt;stroke-linejoin:miter;stroke:rgb(0%,0%,0%);stroke-opacity:1;stroke-miterlimit:10;" d="M 5.104805 0.428369 L 5.104805 0.533376 " transform="matrix(28.346457,0,0,-28.346457,1,227.771654)"/>
<path style="fill:none;stroke-width:0.02;stroke-linecap:butt;stroke-linejoin:miter;stroke:rgb(0%,0%,0%);stroke-opacity:1;stroke-miterlimit:10;" d="M 6.574482 0.428369 L 6.574482 0.533376 " transform="matrix(28.346457,0,0,-28.346457,1,227.771654)"/>
<path style="fill:none;stroke-width:0.02;stroke-linecap:butt;stroke-linejoin:miter;stroke:rgb(0%,0%,0%);stroke-opacity:1;stroke-miterlimit:10;" d="M 8.04416 0.428369 L 8.04416 0.533376 " transform="matrix(28.346457,0,0,-28.346457,1,227.771654)"/>
<path style="fill:none;stroke-width:0.02;stroke-linecap:butt;stroke-linejoin:miter;stroke:rgb(0%,0%,0%);stroke-opacity:1;stroke-miterlimit:10;" d="M 9.513838 0.428369 L 9.513838 0.533376 " transform="matrix(28.346457,0,0,-28.346457,1,227.771654)"/>
<path style="fill:none;stroke-width:0.02;stroke-linecap:round;stroke-linejoin:miter;stroke:rgb(0%,0%,0%);stroke-opacity:1;stroke-miterlimit:10;" d="M 0.695771 0.428369 L 9.930005 0.428369 " transform="matrix(28.346457,0,0,-28.346457,1,227.771654)"/>
<path style=" stroke:none;fill-rule:nonzero;fill:rgb(0%,0%,0%);fill-opacity:1;" d="M 17.773438 220.445312 C 18.527344 220.5 19.027344 221.191406 19.164062 221.890625 C 19.234375 222.207031 19.25 222.507812 19.28125 222.828125 L 19.28125 223.636719 C 19.242188 224.460938 19.042969 225.550781 18.148438 225.882812 C 17.371094 226.191406 16.457031 225.707031 16.226562 224.914062 C 16.050781 224.492188 16.035156 224.066406 15.996094 223.636719 L 15.996094 222.828125 C 16.035156 222 16.210938 220.90625 17.101562 220.542969 L 17.140625 220.523438 L 17.171875 220.515625 L 17.210938 220.5 L 17.332031 220.46875 L 17.402344 220.453125 L 17.488281 220.453125 L 17.503906 220.445312 Z M 17.773438 220.445312 Z M 17.527344 220.929688 C 16.863281 221.007812 16.664062 221.8125 16.617188 222.351562 L 16.617188 222.566406 L 16.601562 222.582031 L 16.601562 223.683594 C 16.648438 224.253906 16.6875 224.992188 17.210938 225.375 C 17.695312 225.707031 18.339844 225.335938 18.472656 224.820312 C 18.617188 224.4375 18.648438 224.066406 18.679688 223.683594 L 18.679688 222.582031 C 18.632812 222 18.550781 221.191406 17.886719 220.960938 L 17.832031 220.945312 L 17.816406 220.929688 L 17.742188 220.929688 L 17.726562 220.914062 L 17.542969 220.914062 Z M 17.527344 220.929688 Z M 17.527344 220.929688 "/>
<path style=" stroke:none;fill-rule:nonzero;fill:rgb(0%,0%,0%);fill-opacity:1;" d="M 21.054688 225.160156 L 21.054688 225.796875 L 20.410156 225.796875 L 20.410156 225.160156 Z M 21.054688 225.160156 Z M 21.054688 225.160156 "/>
<path style=" stroke:none;fill-rule:nonzero;fill:rgb(0%,0%,0%);fill-opacity:1;" d="M 23.941406 220.445312 C 24.695312 220.5 25.195312 221.191406 25.332031 221.890625 C 25.402344 222.207031 25.417969 222.507812 25.449219 222.828125 L 25.449219 223.636719 C 25.410156 224.460938 25.210938 225.550781 24.316406 225.882812 C 23.539062 226.191406 22.625 225.707031 22.394531 224.914062 C 22.21875 224.492188 22.203125 224.066406 22.164062 223.636719 L 22.164062 222.828125 C 22.203125 222 22.378906 220.90625 23.265625 220.542969 L 23.308594 220.523438 L 23.339844 220.515625 L 23.378906 220.5 L 23.496094 220.46875 L 23.570312 220.453125 L 23.65625 220.453125 L 23.671875 220.445312 Z M 23.941406 220.445312 Z M 23.695312 220.929688 C 23.027344 221.007812 22.832031 221.8125 22.78125 222.351562 L 22.78125 222.566406 L 22.765625 222.582031 L 22.765625 223.683594 C 22.816406 224.253906 22.855469 224.992188 23.378906 225.375 C 23.863281 225.707031 24.503906 225.335938 24.640625 224.820312 C 24.785156 224.4375 24.816406 224.066406 24.847656 223.683594 L 24.847656 222.582031 C 24.800781 222 24.71875 221.191406 24.054688 220.960938 L 23.996094 220.945312 L 23.980469 220.929688 L 23.910156 220.929688 L 23.894531 220.914062 L 23.710938 220.914062 Z M 23.695312 220.929688 Z M 23.695312 220.929688 "/>
<path style=" stroke:none;fill-rule:nonzero;fill:rgb(0%,0%,0%);fill-opacity:1;" d="M 59.433594 220.445312 C 60.1875 220.5 60.6875 221.191406 60.824219 221.890625 C 60.894531 222.207031 60.910156 222.507812 60.941406 222.828125 L 60.941406 223.636719 C 60.902344 224.460938 60.703125 225.550781 59.808594 225.882812 C 59.03125 226.191406 58.117188 225.707031 57.886719 224.914062 C 57.710938 224.492188 57.695312 224.066406 57.65625 223.636719 L 57.65625 222.828125 C 57.695312 222 57.871094 220.90625 58.761719 220.542969 L 58.800781 220.523438 L 58.832031 220.515625 L 58.871094 220.5 L 58.992188 220.46875 L 59.0625 220.453125 L 59.148438 220.453125 L 59.164062 220.445312 Z M 59.433594 220.445312 Z M 59.1875 220.929688 C 58.523438 221.007812 58.324219 221.8125 58.277344 222.351562 L 58.277344 222.566406 L 58.261719 222.582031 L 58.261719 223.683594 C 58.308594 224.253906 58.347656 224.992188 58.871094 225.375 C 59.355469 225.707031 60 225.335938 60.132812 224.820312 C 60.277344 224.4375 60.308594 224.066406 60.339844 223.683594 L 60.339844 222.582031 C 60.292969 222 60.210938 221.191406 59.546875 220.960938 L 59.492188 220.945312 L 59.472656 220.929688 L 59.402344 220.929688 L 59.386719 220.914062 L 59.203125 220.914062 Z M 59.1875 220.929688 Z M 59.1875 220.929688 "/>
<path style=" stroke:none;fill-rule:nonzero;fill:rgb(0%,0%,0%);fill-opacity:1;" d="M 62.710938 225.160156 L 62.710938 225.796875 L 62.070312 225.796875 L 62.070312 225.160156 Z M 62.710938 225.160156 Z M 62.710938 225.160156 "/>
<path style=" stroke:none;fill-rule:nonzero;fill:rgb(0%,0%,0%);fill-opacity:1;" d="M 66.777344 220.613281 L 66.777344 221.105469 L 64.710938 221.105469 L 64.695312 221.113281 L 64.695312 222.738281 C 64.886719 222.613281 65.15625 222.445312 65.410156 222.4375 C 66.308594 222.34375 67 223.222656 67.039062 224.042969 C 67.164062 225.082031 66.1875 226.113281 65.140625 225.953125 C 64.617188 225.9375 64.109375 225.628906 63.808594 225.199219 C 63.894531 225.082031 63.964844 224.875 64.070312 224.804688 C 64.441406 225.535156 65.648438 225.828125 66.132812 225.058594 C 66.441406 224.476562 66.433594 223.738281 66.078125 223.183594 C 65.664062 222.652344 64.847656 222.976562 64.65625 223.542969 L 64.140625 223.542969 L 64.140625 220.613281 Z M 66.777344 220.613281 Z M 66.777344 220.613281 "/>
<path style=" stroke:none;fill-rule:nonzero;fill:rgb(0%,0%,0%);fill-opacity:1;" d="M 101.339844 220.445312 L 101.339844 225.34375 L 101.347656 225.359375 L 102.324219 225.359375 L 102.324219 225.796875 L 99.746094 225.796875 L 99.746094 225.359375 L 100.722656 225.359375 L 100.738281 225.34375 L 100.738281 221.230469 C 100.402344 221.34375 100.054688 221.414062 99.707031 221.40625 L 99.707031 220.960938 C 100.230469 220.96875 100.800781 220.828125 101.199219 220.445312 Z M 101.339844 220.445312 Z M 101.339844 220.445312 "/>
<path style=" stroke:none;fill-rule:nonzero;fill:rgb(0%,0%,0%);fill-opacity:1;" d="M 104.371094 225.160156 L 104.371094 225.796875 L 103.730469 225.796875 L 103.730469 225.160156 Z M 104.371094 225.160156 Z M 104.371094 225.160156 "/>
<path style=" stroke:none;fill-rule:nonzero;fill:rgb(0%,0%,0%);fill-opacity:1;" d="M 107.261719 220.445312 C 108.015625 220.5 108.515625 221.191406 108.652344 221.890625 C 108.722656 222.207031 108.738281 222.507812 108.769531 222.828125 L 108.769531 223.636719 C 108.730469 224.460938 108.53125 225.550781 107.632812 225.882812 C 106.855469 226.191406 105.945312 225.707031 105.714844 224.914062 C 105.539062 224.492188 105.523438 224.066406 105.484375 223.636719 L 105.484375 222.828125 C 105.523438 222 105.699219 220.90625 106.585938 220.542969 L 106.625 220.523438 L 106.660156 220.515625 L 106.699219 220.5 L 106.816406 220.46875 L 106.890625 220.453125 L 106.976562 220.453125 L 106.992188 220.445312 Z M 107.261719 220.445312 Z M 107.015625 220.929688 C 106.347656 221.007812 106.152344 221.8125 106.101562 222.351562 L 106.101562 222.566406 L 106.085938 222.582031 L 106.085938 223.683594 C 106.132812 224.253906 106.175781 224.992188 106.699219 225.375 C 107.183594 225.707031 107.824219 225.335938 107.960938 224.820312 C 108.101562 224.4375 108.136719 224.066406 108.167969 223.683594 L 108.167969 222.582031 C 108.117188 222 108.039062 221.191406 107.371094 220.960938 L 107.316406 220.945312 L 107.300781 220.929688 L 107.230469 220.929688 L 107.214844 220.914062 L 107.03125 220.914062 Z M 107.015625 220.929688 Z M 107.015625 220.929688 "/>
<path style=" stroke:none;fill-rule:nonzero;fill:rgb(0%,0%,0%);fill-opacity:1;" d="M 143 220.445312 L 143 225.34375 L 143.007812 225.359375 L 143.984375 225.359375 L 143.984375 225.796875 L 141.40625 225.796875 L 141.40625 225.359375 L 142.382812 225.359375 L 142.398438 225.34375 L 142.398438 221.230469 C 142.0625 221.34375 141.714844 221.414062 141.367188 221.40625 L 141.367188 220.960938 C 141.890625 220.96875 142.460938 220.828125 142.859375 220.445312 Z M 143 220.445312 Z M 143 220.445312 "/>
<path style=" stroke:none;fill-rule:nonzero;fill:rgb(0%,0%,0%);fill-opacity:1;" d="M 146.03125 225.160156 L 146.03125 225.796875 L 145.390625 225.796875 L 145.390625 225.160156 Z M 146.03125 225.160156 Z M 146.03125 225.160156 "/>
<path style=" stroke:none;fill-rule:nonzero;fill:rgb(0%,0%,0%);fill-opacity:1;" d="M 150.097656 220.613281 L 150.097656 221.105469 L 148.03125 221.105469 L 148.015625 221.113281 L 148.015625 222.738281 C 148.207031 222.613281 148.476562 222.445312 148.730469 222.4375 C 149.628906 222.34375 150.320312 223.222656 150.359375 224.042969 C 150.484375 225.082031 149.507812 226.113281 148.460938 225.953125 C 147.9375 225.9375 147.429688 225.628906 147.128906 225.199219 C 147.214844 225.082031 147.285156 224.875 147.390625 224.804688 C 147.761719 225.535156 148.96875 225.828125 149.453125 225.058594 C 149.761719 224.476562 149.753906 223.738281 149.398438 223.183594 C 148.984375 222.652344 148.167969 222.976562 147.976562 223.542969 L 147.460938 223.542969 L 147.460938 220.613281 Z M 150.097656 220.613281 Z M 150.097656 220.613281 "/>
<path style=" stroke:none;fill-rule:nonzero;fill:rgb(0%,0%,0%);fill-opacity:1;" d="M 184.328125 220.445312 C 185.246094 220.46875 185.976562 221.414062 185.835938 222.304688 C 185.738281 223.191406 184.90625 223.699219 184.3125 224.253906 L 184.058594 224.515625 L 184.027344 224.535156 L 183.707031 224.84375 L 183.683594 224.859375 L 183.367188 225.175781 L 183.335938 225.191406 L 183.261719 225.261719 L 183.28125 225.273438 L 185.851562 225.273438 L 185.851562 225.796875 L 182.707031 225.796875 L 182.707031 225.320312 L 183.984375 224.042969 C 184.597656 223.507812 185.3125 222.820312 185.199219 221.945312 C 185.136719 221.4375 184.707031 220.96875 184.183594 220.929688 C 183.652344 220.851562 183.183594 221.269531 183.066406 221.777344 L 183.050781 221.804688 L 183.035156 221.859375 L 183.007812 221.945312 L 182.960938 222.121094 L 182.953125 222.160156 C 182.84375 222.023438 182.722656 221.882812 182.636719 221.730469 C 182.796875 221.082031 183.320312 220.46875 184.007812 220.445312 Z M 184.328125 220.445312 Z M 184.328125 220.445312 "/>
<path style=" stroke:none;fill-rule:nonzero;fill:rgb(0%,0%,0%);fill-opacity:1;" d="M 187.691406 225.160156 L 187.691406 225.796875 L 187.050781 225.796875 L 187.050781 225.160156 Z M 187.691406 225.160156 Z M 187.691406 225.160156 "/>
<path style=" stroke:none;fill-rule:nonzero;fill:rgb(0%,0%,0%);fill-opacity:1;" d="M 190.582031 220.445312 C 191.335938 220.5 191.835938 221.191406 191.96875 221.890625 C 192.042969 222.207031 192.058594 222.507812 192.089844 222.828125 L 192.089844 223.636719 C 192.050781 224.460938 191.851562 225.550781 190.953125 225.882812 C 190.175781 226.191406 189.265625 225.707031 189.035156 224.914062 C 188.859375 224.492188 188.84375 224.066406 188.804688 223.636719 L 188.804688 222.828125 C 188.84375 222 189.019531 220.90625 189.90625 220.542969 L 189.945312 220.523438 L 189.976562 220.515625 L 190.019531 220.5 L 190.136719 220.46875 L 190.207031 220.453125 L 190.296875 220.453125 L 190.3125 220.445312 Z M 190.582031 220.445312 Z M 190.335938 220.929688 C 189.667969 221.007812 189.46875 221.8125 189.421875 222.351562 L 189.421875 222.566406 L 189.40625 222.582031 L 189.40625 223.683594 C 189.453125 224.253906 189.492188 224.992188 190.019531 225.375 C 190.503906 225.707031 191.144531 225.335938 191.28125 224.820312 C 191.421875 224.4375 191.453125 224.066406 191.484375 223.683594 L 191.484375 222.582031 C 191.4375 222 191.359375 221.191406 190.691406 220.960938 L 190.636719 220.945312 L 190.621094 220.929688 L 190.550781 220.929688 L 190.535156 220.914062 L 190.351562 220.914062 Z M 190.335938 220.929688 Z M 190.335938 220.929688 "/>
<path style=" stroke:none;fill-rule:nonzero;fill:rgb(0%,0%,0%);fill-opacity:1;" d="M 225.988281 220.445312 C 226.90625 220.46875 227.636719 221.414062 227.496094 222.304688 C 227.398438 223.191406 226.566406 223.699219 225.972656 224.253906 L 225.71875 224.515625 L 225.683594 224.535156 L 225.367188 224.84375 L 225.34375 224.859375 L 225.027344 225.175781 L 224.996094 225.191406 L 224.921875 225.261719 L 224.9375 225.273438 L 227.511719 225.273438 L 227.511719 225.796875 L 224.367188 225.796875 L 224.367188 225.320312 L 225.644531 224.042969 C 226.257812 223.507812 226.972656 222.820312 226.859375 221.945312 C 226.796875 221.4375 226.367188 220.96875 225.84375 220.929688 C 225.3125 220.851562 224.84375 221.269531 224.726562 221.777344 L 224.710938 221.804688 L 224.691406 221.859375 L 224.667969 221.945312 L 224.621094 222.121094 L 224.613281 222.160156 C 224.503906 222.023438 224.382812 221.882812 224.296875 221.730469 C 224.457031 221.082031 224.980469 220.46875 225.667969 220.445312 Z M 225.988281 220.445312 Z M 225.988281 220.445312 "/>
<path style=" stroke:none;fill-rule:nonzero;fill:rgb(0%,0%,0%);fill-opacity:1;" d="M 229.351562 225.160156 L 229.351562 225.796875 L 228.710938 225.796875 L 228.710938 225.160156 Z M 229.351562 225.160156 Z M 229.351562 225.160156 "/>
<path style=" stroke:none;fill-rule:nonzero;fill:rgb(0%,0%,0%);fill-opacity:1;" d="M 233.417969 220.613281 L 233.417969 221.105469 L 231.351562 221.105469 L 231.335938 221.113281 L 231.335938 222.738281 C 231.527344 222.613281 231.796875 222.445312 232.050781 222.4375 C 232.949219 222.34375 233.636719 223.222656 233.679688 224.042969 C 233.804688 225.082031 232.828125 226.113281 231.78125 225.953125 C 231.257812 225.9375 230.75 225.628906 230.449219 225.199219 C 230.535156 225.082031 230.605469 224.875 230.710938 224.804688 C 231.082031 225.535156 232.289062 225.828125 232.773438 225.058594 C 233.082031 224.476562 233.074219 223.738281 232.71875 223.183594 C 232.304688 222.652344 231.488281 222.976562 231.296875 223.542969 L 230.78125 223.542969 L 230.78125 220.613281 Z M 233.417969 220.613281 Z M 233.417969 220.613281 "/>
<path style=" stroke:none;fill-rule:nonzero;fill:rgb(0%,0%,0%);fill-opacity:1;" d="M 267.75 220.445312 C 268.449219 220.476562 269.179688 221.121094 269.011719 221.859375 C 268.933594 222.359375 268.582031 222.769531 268.148438 222.992188 C 268.851562 223.214844 269.402344 223.960938 269.210938 224.699219 C 269.019531 225.660156 267.917969 226.191406 267.027344 225.898438 C 266.597656 225.773438 266.164062 225.5 265.957031 225.105469 C 266.003906 224.984375 265.988281 224.78125 266.042969 224.699219 C 266.464844 225.320312 267.351562 225.738281 268.050781 225.390625 C 268.8125 224.90625 268.695312 223.492188 267.773438 223.253906 L 267.703125 223.253906 L 267.6875 223.238281 L 266.949219 223.238281 L 266.949219 222.761719 C 267.402344 222.753906 267.964844 222.699219 268.21875 222.230469 C 268.488281 221.828125 268.464844 221.160156 267.949219 220.960938 C 267.335938 220.722656 266.582031 221.113281 266.351562 221.730469 C 266.257812 221.597656 266.164062 221.460938 266.066406 221.320312 C 266.394531 220.730469 267.082031 220.382812 267.75 220.445312 Z M 267.75 220.445312 Z M 267.75 220.445312 "/>
<path style=" stroke:none;fill-rule:nonzero;fill:rgb(0%,0%,0%);fill-opacity:1;" d="M 271.011719 225.160156 L 271.011719 225.796875 L 270.371094 225.796875 L 270.371094 225.160156 Z M 271.011719 225.160156 Z M 271.011719 225.160156 "/>
<path style=" stroke:none;fill-rule:nonzero;fill:rgb(0%,0%,0%);fill-opacity:1;" d="M 273.902344 220.445312 C 274.65625 220.5 275.15625 221.191406 275.289062 221.890625 C 275.363281 222.207031 275.378906 222.507812 275.410156 222.828125 L 275.410156 223.636719 C 275.371094 224.460938 275.171875 225.550781 274.273438 225.882812 C 273.496094 226.191406 272.582031 225.707031 272.355469 224.914062 C 272.179688 224.492188 272.164062 224.066406 272.125 223.636719 L 272.125 222.828125 C 272.164062 222 272.335938 220.90625 273.226562 220.542969 L 273.265625 220.523438 L 273.296875 220.515625 L 273.335938 220.5 L 273.457031 220.46875 L 273.527344 220.453125 L 273.617188 220.453125 L 273.632812 220.445312 Z M 273.902344 220.445312 Z M 273.65625 220.929688 C 272.988281 221.007812 272.789062 221.8125 272.742188 222.351562 L 272.742188 222.566406 L 272.726562 222.582031 L 272.726562 223.683594 C 272.773438 224.253906 272.8125 224.992188 273.335938 225.375 C 273.820312 225.707031 274.464844 225.335938 274.601562 224.820312 C 274.742188 224.4375 274.773438 224.066406 274.804688 223.683594 L 274.804688 222.582031 C 274.757812 222 274.679688 221.191406 274.011719 220.960938 L 273.957031 220.945312 L 273.941406 220.929688 L 273.871094 220.929688 L 273.855469 220.914062 L 273.671875 220.914062 Z M 273.65625 220.929688 Z M 273.65625 220.929688 "/>
<path style="fill:none;stroke-width:0.02;stroke-linecap:butt;stroke-linejoin:miter;stroke:rgb(0%,0%,0%);stroke-opacity:1;stroke-miterlimit:10;" d="M 2.165449 7.838356 L 2.165449 7.73335 " transform="matrix(28.346457,0,0,-28.346457,1,227.771654)"/>
<path style="fill:none;stroke-width:0.02;stroke-linecap:butt;stroke-linejoin:miter;stroke:rgb(0%,0%,0%);stroke-opacity:1;stroke-miterlimit:10;" d="M 3.635127 7.838356 L 3.635127 7.73335 " transform="matrix(28.346457,0,0,-28.346457,1,227.771654)"/>
<path style="fill:none;stroke-width:0.02;stroke-linecap:butt;stroke-linejoin:miter;stroke:rgb(0%,0%,0%);stroke-opacity:1;stroke-miterlimit:10;" d="M 5.104805 7.838356 L 5.104805 7.73335 " transform="matrix(28.346457,0,0,-28.346457,1,227.771654)"/>
<path style="fill:none;stroke-width:0.02;stroke-linecap:butt;stroke-linejoin:miter;stroke:rgb(0%,0%,0%);stroke-opacity:1;stroke-miterlimit:10;" d="M 6.574482 7.838356 L 6.574482 7.73335 " transform="matrix(28.346457,0,0,-28.346457,1,227.771654)"/>
<path style="fill:none;stroke-width:0.02;stroke-linecap:butt;stroke-linejoin:miter;stroke:rgb(0%,0%,0%);stroke-opacity:1;stroke-miterlimit:10;" d="M 8.04416 7.838356 L 8.04416 7.73335 " transform="matrix(28.346457,0,0,-28.346457,1,227.771654)"/>
<path style="fill:none;stroke-width:0.02;stroke-linecap:butt;stroke-linejoin:miter;stroke:rgb(0%,0%,0%);stroke-opacity:1;stroke-miterlimit:10;" d="M 9.513838 7.838356 L 9.513838 7.73335 " transform="matrix(28.346457,0,0,-28.346457,1,227.771654)"/>
<path style="fill:none;stroke-width:0.02;stroke-linecap:round;stroke-linejoin:miter;stroke:rgb(0%,0%,0%);stroke-opacity:1;stroke-miterlimit:10;" d="M 0.695771 7.838356 L 9.930005 7.838356 " transform="matrix(28.346457,0,0,-28.346457,1,227.771654)"/>
<path style="fill:none;stroke-width:0.05;stroke-linecap:butt;stroke-linejoin:miter;stroke:rgb(79.215686%,38.431373%,29.411765%);stroke-opacity:1;stroke-miterlimit:10;" d="M 0.695771 1.663367 L 0.732841 1.724965 L 0.76991 1.78491 L 0.807117 1.843201 L 0.844186 1.899976 L 0.881255 1.955235 L 0.918325 2.008703 L 0.955394 2.060655 L 0.992463 2.111092 L 1.029532 2.159874 L 1.066602 2.207003 L 1.103671 2.252478 L 1.140878 2.296438 L 1.177947 2.338743 L 1.215016 2.379533 L 1.252086 2.418808 L 1.289155 2.45629 L 1.326224 2.492395 L 1.363293 2.526846 L 1.400362 2.559919 L 1.437569 2.591338 L 1.474639 2.621241 L 1.511708 2.649629 L 1.548777 2.676638 L 1.585846 2.702132 L 1.622916 2.72611 L 1.659985 2.74871 L 1.697054 2.769932 L 1.734123 2.789638 L 1.77133 2.808103 L 1.8084 2.825053 L 1.845469 2.840763 L 1.882538 2.855232 L 1.919607 2.868324 L 1.956676 2.880175 L 1.993746 2.890648 L 2.030815 2.900018 L 2.067884 2.908149 L 2.105091 2.915177 L 2.14216 2.920965 L 2.17923 2.92565 L 2.216299 2.929095 L 2.253368 2.931576 L 2.290437 2.933091 L 2.327507 2.933367 L 2.364576 2.932816 L 2.401783 2.931162 L 2.438852 2.928682 L 2.475921 2.925099 L 2.51299 2.920689 L 2.55006 2.915452 L 2.587129 2.909389 L 2.624198 2.902361 L 2.661267 2.894644 L 2.698337 2.8861 L 2.735544 2.876867 L 2.772613 2.866808 L 2.809682 2.856059 L 2.846751 2.844759 L 2.883821 2.83277 L 2.92089 2.820092 L 2.957959 2.806863 L 2.995028 2.793083 L 3.032097 2.778751 L 3.069304 2.763868 L 3.106374 2.748572 L 3.143443 2.732725 L 3.180512 2.716464 L 3.217581 2.699789 L 3.254651 2.682564 L 3.29172 2.665201 L 3.328789 2.647286 L 3.365996 2.629234 L 3.403065 2.610768 L 3.440135 2.592027 L 3.477204 2.57301 L 3.514273 2.553717 L 3.551342 2.534287 L 3.588411 2.514581 L 3.625481 2.494737 L 3.66255 2.474756 L 3.699757 2.454637 L 3.736826 2.434379 L 3.810965 2.393589 L 3.922172 2.331991 L 3.959242 2.311321 L 3.996311 2.290788 L 4.033518 2.270117 L 4.070587 2.249584 L 4.107656 2.229189 L 4.144725 2.208657 L 4.218864 2.168142 L 4.293002 2.127904 L 4.330209 2.10806 L 4.367279 2.088354 L 4.404348 2.068786 L 4.441417 2.049355 L 4.478486 2.030063 L 4.515556 2.011046 L 4.589694 1.973563 L 4.626763 1.955235 L 4.66397 1.937045 L 4.701039 1.919131 L 4.738109 1.901354 L 4.775178 1.883991 L 4.812247 1.866765 L 4.849316 1.849816 L 4.886386 1.833279 L 4.923455 1.81688 L 4.960524 1.800757 L 4.997731 1.785048 L 5.0348 1.769614 L 5.07187 1.754455 L 5.108939 1.739572 L 5.146008 1.724965 L 5.183077 1.710771 L 5.220146 1.696853 L 5.257216 1.683211 L 5.294423 1.669844 L 5.331492 1.65689 L 5.368561 1.64435 L 5.40563 1.632086 L 5.4427 1.620097 L 5.479769 1.608383 L 5.516838 1.597083 L 5.553907 1.586197 L 5.590977 1.575448 L 5.628184 1.565251 L 5.665253 1.555191 L 5.702322 1.545545 L 5.739391 1.536312 L 5.776461 1.527355 L 5.81353 1.518673 L 5.850599 1.510405 L 5.887668 1.502412 L 5.924737 1.494695 L 5.961944 1.487391 L 5.999014 1.480363 L 6.036083 1.473749 L 6.073152 1.467272 L 6.110221 1.461209 L 6.147291 1.455559 L 6.18436 1.450047 L 6.221429 1.444948 L 6.258636 1.440125 L 6.295705 1.435577 L 6.332775 1.431305 L 6.369844 1.427309 L 6.406913 1.423588 L 6.443982 1.420281 L 6.481051 1.417112 L 6.518121 1.414218 L 6.55519 1.411599 L 6.592397 1.409257 L 6.629466 1.40719 L 6.666535 1.405398 L 6.703605 1.403882 L 6.740674 1.402504 L 6.777743 1.401402 L 6.814812 1.400575 L 6.851882 1.400024 L 6.888951 1.39961 L 6.926158 1.399335 L 7.000296 1.39961 L 7.037365 1.400024 L 7.074435 1.400713 L 7.111504 1.40154 L 7.148573 1.402504 L 7.185642 1.403745 L 7.222849 1.405123 L 7.259919 1.406638 L 7.296988 1.408292 L 7.371126 1.412151 L 7.445265 1.41656 L 7.482334 1.419041 L 7.519403 1.421659 L 7.55661 1.424277 L 7.593679 1.427033 L 7.667818 1.433097 L 7.741956 1.439436 L 7.779026 1.442743 L 7.816095 1.446188 L 7.853164 1.449771 L 7.890371 1.453354 L 7.92744 1.456937 L 7.96451 1.460658 L 8.038648 1.468375 L 8.075717 1.472371 L 8.112786 1.476229 L 8.149856 1.480363 L 8.187063 1.48436 L 8.29827 1.496762 L 8.33534 1.501034 L 8.372409 1.505168 L 8.483617 1.517984 L 8.520824 1.522256 L 8.780308 1.552159 L 8.817377 1.556293 L 8.854584 1.560565 L 9.002861 1.577102 L 9.114069 1.589091 L 9.151276 1.593087 L 9.262484 1.604663 L 9.336622 1.612104 L 9.44783 1.622853 L 9.485037 1.626298 L 9.559175 1.633188 L 9.596245 1.636495 L 9.707452 1.646004 L 9.781591 1.652067 L 9.818798 1.654961 L 9.855867 1.657855 L 9.930005 1.663367 " transform="matrix(28.346457,0,0,-28.346457,1,227.771654)"/>
<path style="fill:none;stroke-width:0.05;stroke-linecap:butt;stroke-linejoin:miter;stroke:rgb(96.862745%,85.882353%,65.490196%);stroke-opacity:1;stroke-miterlimit:10;" d="M 0.695771 1.663367 L 0.732841 1.906453 L 0.76991 2.137412 L 0.807117 2.356796 L 0.844186 2.564742 L 0.881255 2.761939 L 0.918325 2.948801 L 0.955394 3.125465 L 0.992463 3.292622 L 1.029532 3.450269 L 1.066602 3.599097 L 1.103671 3.739382 L 1.140878 3.871398 L 1.177947 3.995421 L 1.215016 4.111727 L 1.252086 4.22073 L 1.289155 4.322705 L 1.326224 4.417928 L 1.363293 4.506673 L 1.400362 4.58908 L 1.437569 4.665561 L 1.474639 4.736254 L 1.511708 4.801436 L 1.548777 4.86138 L 1.585846 4.916226 L 1.622916 4.966249 L 1.659985 5.011724 L 1.697054 5.052652 L 1.734123 5.089308 L 1.77133 5.121967 L 1.8084 5.150768 L 1.845469 5.175711 L 1.882538 5.197208 L 1.919607 5.21526 L 1.956676 5.230143 L 1.993746 5.241857 L 2.030815 5.250814 L 2.067884 5.256739 L 2.105091 5.260184 L 2.14216 5.261011 L 2.17923 5.259358 L 2.216299 5.255499 L 2.253368 5.249436 L 2.290437 5.241305 L 2.327507 5.231246 L 2.364576 5.219257 L 2.401783 5.205614 L 2.438852 5.19018 L 2.475921 5.17323 L 2.51299 5.154902 L 2.55006 5.135059 L 2.587129 5.113837 L 2.624198 5.091513 L 2.661267 5.067948 L 2.698337 5.043419 L 2.735544 5.017788 L 2.772613 4.991191 L 2.809682 4.963631 L 2.846751 4.935381 L 2.883821 4.906304 L 2.92089 4.876539 L 2.957959 4.846084 L 2.995028 4.815078 L 3.032097 4.783521 L 3.069304 4.751413 L 3.106374 4.718891 L 3.143443 4.685956 L 3.180512 4.652607 L 3.217581 4.618983 L 3.254651 4.584946 L 3.29172 4.55077 L 3.328789 4.516319 L 3.365996 4.481731 L 3.440135 4.412002 L 3.514273 4.341998 L 3.625481 4.236578 L 3.66255 4.201576 L 3.699757 4.166573 L 3.736826 4.131571 L 3.773895 4.096707 L 3.848034 4.027254 L 3.885103 3.992803 L 3.922172 3.95849 L 3.959242 3.924314 L 3.996311 3.890414 L 4.033518 3.856653 L 4.070587 3.823166 L 4.107656 3.789818 L 4.144725 3.756745 L 4.181795 3.72381 L 4.218864 3.691288 L 4.255933 3.659042 L 4.293002 3.626934 L 4.330209 3.595239 L 4.367279 3.563682 L 4.404348 3.532538 L 4.441417 3.50167 L 4.478486 3.471077 L 4.515556 3.440898 L 4.552625 3.410995 L 4.589694 3.381367 L 4.626763 3.352015 L 4.66397 3.323076 L 4.701039 3.294413 L 4.738109 3.266163 L 4.775178 3.238189 L 4.812247 3.21049 L 4.849316 3.183205 L 4.886386 3.156334 L 4.923455 3.129737 L 4.960524 3.103417 L 4.997731 3.07751 L 5.0348 3.051878 L 5.07187 3.02666 L 5.108939 3.001855 L 5.146008 2.977189 L 5.183077 2.953073 L 5.220146 2.929095 L 5.257216 2.905668 L 5.294423 2.88238 L 5.331492 2.859642 L 5.368561 2.837042 L 5.40563 2.814856 L 5.4427 2.793083 L 5.479769 2.771447 L 5.516838 2.750363 L 5.553907 2.729417 L 5.590977 2.708885 L 5.628184 2.688627 L 5.665253 2.668784 L 5.702322 2.649215 L 5.739391 2.629923 L 5.776461 2.610906 L 5.81353 2.592303 L 5.850599 2.573975 L 5.887668 2.555922 L 5.924737 2.538146 L 5.961944 2.520645 L 5.999014 2.503557 L 6.036083 2.486745 L 6.073152 2.470071 L 6.110221 2.45381 L 6.147291 2.437824 L 6.18436 2.421977 L 6.221429 2.406543 L 6.258636 2.391385 L 6.295705 2.376502 L 6.332775 2.361757 L 6.369844 2.347425 L 6.406913 2.333231 L 6.443982 2.319313 L 6.481051 2.305671 L 6.518121 2.292304 L 6.55519 2.279212 L 6.592397 2.266259 L 6.629466 2.253581 L 6.666535 2.241178 L 6.703605 2.228914 L 6.740674 2.216925 L 6.777743 2.205212 L 6.814812 2.193636 L 6.851882 2.182336 L 6.888951 2.171312 L 6.926158 2.160425 L 6.963227 2.149677 L 7.000296 2.139204 L 7.037365 2.129006 L 7.074435 2.118946 L 7.111504 2.109025 L 7.148573 2.099378 L 7.185642 2.08987 L 7.222849 2.080499 L 7.259919 2.071404 L 7.296988 2.062447 L 7.334057 2.053627 L 7.371126 2.045084 L 7.408196 2.036678 L 7.445265 2.028409 L 7.482334 2.020279 L 7.519403 2.012424 L 7.55661 2.004569 L 7.593679 1.99699 L 7.630749 1.989549 L 7.667818 1.982245 L 7.704887 1.975079 L 7.741956 1.968051 L 7.779026 1.961161 L 7.816095 1.954409 L 7.853164 1.947932 L 7.890371 1.941455 L 7.92744 1.935116 L 7.96451 1.928915 L 8.001579 1.922852 L 8.038648 1.916926 L 8.075717 1.911138 L 8.149856 1.899838 L 8.187063 1.894464 L 8.224132 1.88909 L 8.261201 1.883853 L 8.29827 1.878754 L 8.33534 1.873793 L 8.409478 1.864147 L 8.446547 1.859462 L 8.483617 1.854914 L 8.520824 1.850367 L 8.557893 1.845957 L 8.594962 1.841685 L 8.6691 1.833417 L 8.70617 1.829421 L 8.817377 1.817845 L 8.854584 1.814262 L 8.928723 1.807096 L 8.965792 1.803651 L 9.039931 1.797037 L 9.114069 1.790698 L 9.151276 1.787666 L 9.188345 1.784634 L 9.262484 1.778847 L 9.336622 1.773334 L 9.44783 1.76548 L 9.485037 1.762999 L 9.522106 1.760519 L 9.596245 1.755833 L 9.744521 1.747014 L 9.781591 1.744947 L 9.818798 1.743018 L 9.855867 1.740951 L 9.892936 1.739021 L 9.930005 1.73723 " transform="matrix(28.346457,0,0,-28.346457,1,227.771654)"/>
<path style="fill:none;stroke-width:0.05;stroke-linecap:butt;stroke-linejoin:miter;stroke:rgb(85.490196%,86.666667%,84.705882%);stroke-opacity:1;stroke-miterlimit:10;" d="M 0.695771 1.663367 L 0.732841 2.085322 L 0.76991 2.479579 L 0.807117 2.847515 L 0.844186 3.190371 L 0.881255 3.509387 L 0.918325 3.805803 L 0.955394 4.080722 L 0.992463 4.335245 L 1.029532 4.570476 L 1.066602 4.78738 L 1.103671 4.986782 L 1.140878 5.169647 L 1.177947 5.336941 L 1.215016 5.48949 L 1.252086 5.627845 L 1.289155 5.753109 L 1.326224 5.865694 L 1.363293 5.966567 L 1.400362 6.056139 L 1.437569 6.135101 L 1.474639 6.204141 L 1.511708 6.26381 L 1.548777 6.314521 L 1.585846 6.356965 L 1.622916 6.391554 L 1.659985 6.418701 L 1.697054 6.438958 L 1.734123 6.452601 L 1.77133 6.460318 L 1.8084 6.462109 L 1.845469 6.458664 L 1.882538 6.450258 L 1.919607 6.437029 L 1.956676 6.419528 L 1.993746 6.398031 L 2.030815 6.372675 L 2.067884 6.343874 L 2.105091 6.311765 L 2.14216 6.276625 L 2.17923 6.238867 L 2.216299 6.198491 L 2.253368 6.155771 L 2.290437 6.110847 L 2.327507 6.064132 L 2.364576 6.015487 L 2.401783 5.965327 L 2.438852 5.91365 L 2.475921 5.860734 L 2.51299 5.806714 L 2.55006 5.751593 L 2.587129 5.695507 L 2.624198 5.638732 L 2.661267 5.581267 L 2.698337 5.523252 L 2.735544 5.464685 L 2.772613 5.405843 L 2.809682 5.346725 L 2.846751 5.28747 L 2.92089 5.168407 L 2.995028 5.04962 L 3.032097 4.990365 L 3.069304 4.931247 L 3.106374 4.872542 L 3.143443 4.813976 L 3.180512 4.755822 L 3.217581 4.698083 L 3.254651 4.640756 L 3.29172 4.583843 L 3.328789 4.527344 L 3.365996 4.471533 L 3.403065 4.416136 L 3.440135 4.361428 L 3.477204 4.307271 L 3.514273 4.253665 L 3.551342 4.200749 L 3.588411 4.148521 L 3.625481 4.096845 L 3.66255 4.045995 L 3.699757 3.995697 L 3.736826 3.946225 L 3.773895 3.897442 L 3.810965 3.849211 L 3.848034 3.801944 L 3.885103 3.755229 L 3.922172 3.70934 L 3.959242 3.664141 L 3.996311 3.61963 L 4.033518 3.575946 L 4.070587 3.532951 L 4.107656 3.490783 L 4.144725 3.449304 L 4.181795 3.408515 L 4.218864 3.368414 L 4.255933 3.32914 L 4.293002 3.290554 L 4.330209 3.252658 L 4.367279 3.215451 L 4.404348 3.179071 L 4.441417 3.143242 L 4.478486 3.10824 L 4.515556 3.073927 L 4.552625 3.040165 L 4.589694 3.00723 L 4.626763 2.974846 L 4.66397 2.943151 L 4.701039 2.912145 L 4.738109 2.881691 L 4.775178 2.851925 L 4.812247 2.822848 L 4.849316 2.794323 L 4.886386 2.766349 L 4.923455 2.739064 L 4.960524 2.71233 L 4.997731 2.686285 L 5.0348 2.660653 L 5.07187 2.635711 L 5.108939 2.611319 L 5.146008 2.587342 L 5.183077 2.564053 L 5.220146 2.541177 L 5.257216 2.518853 L 5.294423 2.49708 L 5.331492 2.47572 L 5.368561 2.454912 L 5.40563 2.434517 L 5.4427 2.414673 L 5.479769 2.395243 L 5.516838 2.376364 L 5.553907 2.357898 L 5.590977 2.339846 L 5.628184 2.322207 L 5.665253 2.304982 L 5.702322 2.288169 L 5.739391 2.271771 L 5.776461 2.255786 L 5.81353 2.240076 L 5.850599 2.224918 L 5.887668 2.210035 L 5.924737 2.195565 L 5.961944 2.181372 L 5.999014 2.167591 L 6.036083 2.154086 L 6.073152 2.140995 L 6.110221 2.128179 L 6.147291 2.115777 L 6.18436 2.103512 L 6.221429 2.091661 L 6.258636 2.080224 L 6.295705 2.068924 L 6.332775 2.057899 L 6.369844 2.047151 L 6.406913 2.036815 L 6.443982 2.026618 L 6.481051 2.016696 L 6.518121 2.00705 L 6.55519 1.997679 L 6.592397 1.988584 L 6.629466 1.979627 L 6.666535 1.970945 L 6.703605 1.962401 L 6.777743 1.94614 L 6.851882 1.930706 L 6.888951 1.923403 L 6.926158 1.916099 L 6.963227 1.909071 L 7.037365 1.895566 L 7.074435 1.88909 L 7.111504 1.882751 L 7.185642 1.870624 L 7.222849 1.864836 L 7.259919 1.859186 L 7.296988 1.853674 L 7.334057 1.8483 L 7.371126 1.843063 L 7.445265 1.833141 L 7.482334 1.828318 L 7.519403 1.823633 L 7.55661 1.819085 L 7.593679 1.814676 L 7.667818 1.806132 L 7.741956 1.798139 L 7.779026 1.794281 L 7.853164 1.786839 L 7.890371 1.783394 L 7.92744 1.779949 L 8.001579 1.773334 L 8.038648 1.770165 L 8.112786 1.764102 L 8.149856 1.761208 L 8.187063 1.758314 L 8.224132 1.755558 L 8.29827 1.750321 L 8.372409 1.74536 L 8.446547 1.740675 L 8.483617 1.73847 L 8.520824 1.736265 L 8.557893 1.73406 L 8.594962 1.731993 L 8.70617 1.726206 L 8.817377 1.720831 L 8.854584 1.719178 L 8.928723 1.71587 L 9.002861 1.712839 L 9.039931 1.711461 L 9.077 1.709945 L 9.114069 1.708567 L 9.151276 1.707326 L 9.188345 1.705948 L 9.299553 1.702228 L 9.44783 1.697818 L 9.485037 1.696853 L 9.633314 1.692995 L 9.707452 1.691341 L 9.744521 1.690377 L 9.781591 1.689688 L 9.818798 1.688861 L 9.855867 1.688034 L 9.930005 1.686656 " transform="matrix(28.346457,0,0,-28.346457,1,227.771654)"/>
<path style="fill:none;stroke-width:0.05;stroke-linecap:butt;stroke-linejoin:miter;stroke:rgb(38.039216%,81.568627%,58.431373%);stroke-opacity:1;stroke-miterlimit:10;" d="M 0.695771 1.663367 L 0.732841 2.262262 L 0.76991 2.814304 L 0.807117 3.322249 L 0.844186 3.788715 L 0.881255 4.216045 L 0.918325 4.606719 L 0.955394 4.962942 L 0.992463 5.286781 L 1.029532 5.580165 L 1.066602 5.845024 L 1.103671 6.083287 L 1.140878 6.296331 L 1.177947 6.485949 L 1.215016 6.653657 L 1.252086 6.800831 L 1.289155 6.928851 L 1.326224 7.038956 L 1.363293 7.132249 L 1.400362 7.210109 L 1.437569 7.273498 L 1.474639 7.323245 L 1.511708 7.36059 L 1.548777 7.38636 L 1.585846 7.40138 L 1.622916 7.406341 L 1.659985 7.402207 L 1.697054 7.389529 L 1.734123 7.368996 L 1.77133 7.341298 L 1.8084 7.306985 L 1.845469 7.266608 L 1.882538 7.220719 L 1.919607 7.16987 L 1.956676 7.114473 L 1.993746 7.054941 L 2.030815 6.991689 L 2.067884 6.92513 L 2.105091 6.855539 L 2.14216 6.78333 L 2.17923 6.708778 L 2.216299 6.632159 L 2.253368 6.553887 L 2.290437 6.474098 L 2.327507 6.392932 L 2.364576 6.310801 L 2.401783 6.227843 L 2.438852 6.144196 L 2.475921 6.060136 L 2.51299 5.9758 L 2.587129 5.806577 L 2.624198 5.722241 L 2.661267 5.638043 L 2.698337 5.55412 L 2.735544 5.470749 L 2.772613 5.387929 L 2.809682 5.305798 L 2.846751 5.224218 L 2.883821 5.143602 L 2.92089 5.063676 L 2.957959 4.984715 L 2.995028 4.906718 L 3.032097 4.829685 L 3.069304 4.753755 L 3.106374 4.67879 L 3.143443 4.605065 L 3.180512 4.532442 L 3.217581 4.460922 L 3.254651 4.390642 L 3.29172 4.321603 L 3.328789 4.253665 L 3.365996 4.187106 L 3.403065 4.121649 L 3.440135 4.057433 L 3.477204 3.994594 L 3.514273 3.932858 L 3.551342 3.8725 L 3.588411 3.813244 L 3.625481 3.755367 L 3.66255 3.698592 L 3.699757 3.643057 L 3.736826 3.588762 L 3.773895 3.535707 L 3.810965 3.483893 L 3.848034 3.433181 L 3.885103 3.38371 L 3.922172 3.335341 L 3.959242 3.288074 L 3.996311 3.24191 L 4.033518 3.196986 L 4.070587 3.153026 L 4.107656 3.110307 L 4.144725 3.068553 L 4.181795 3.027763 L 4.218864 2.988075 L 4.255933 2.949352 L 4.293002 2.911732 L 4.330209 2.875076 L 4.367279 2.839247 L 4.404348 2.804383 L 4.441417 2.770483 L 4.478486 2.737548 L 4.515556 2.705439 L 4.552625 2.674158 L 4.589694 2.643703 L 4.626763 2.614213 L 4.66397 2.585412 L 4.701039 2.557438 L 4.738109 2.530153 L 4.775178 2.503695 L 4.812247 2.478063 L 4.849316 2.452983 L 4.886386 2.428729 L 4.923455 2.405165 L 4.960524 2.382152 L 4.997731 2.359827 L 5.0348 2.338192 L 5.07187 2.317246 L 5.108939 2.296851 L 5.146008 2.277007 L 5.183077 2.257715 L 5.220146 2.239111 L 5.257216 2.220921 L 5.294423 2.20342 L 5.331492 2.186332 L 5.368561 2.169658 L 5.40563 2.153673 L 5.4427 2.138101 L 5.479769 2.122943 L 5.516838 2.108198 L 5.553907 2.094004 L 5.590977 2.080224 L 5.628184 2.066857 L 5.665253 2.053903 L 5.702322 2.041225 L 5.739391 2.029098 L 5.776461 2.017247 L 5.81353 2.005809 L 5.850599 1.994647 L 5.887668 1.983899 L 5.924737 1.973563 L 5.961944 1.963366 L 5.999014 1.953582 L 6.036083 1.944073 L 6.073152 1.934978 L 6.110221 1.926021 L 6.147291 1.917339 L 6.18436 1.909071 L 6.221429 1.900941 L 6.258636 1.893086 L 6.295705 1.885507 L 6.332775 1.878203 L 6.369844 1.871037 L 6.406913 1.864147 L 6.443982 1.857533 L 6.481051 1.851056 L 6.518121 1.844855 L 6.55519 1.838791 L 6.592397 1.832866 L 6.629466 1.827216 L 6.703605 1.816467 L 6.740674 1.811368 L 6.777743 1.806407 L 6.814812 1.801584 L 6.851882 1.796899 L 6.888951 1.792489 L 6.926158 1.788079 L 7.000296 1.779811 L 7.037365 1.775815 L 7.111504 1.768373 L 7.148573 1.764791 L 7.185642 1.761345 L 7.222849 1.758038 L 7.296988 1.751699 L 7.334057 1.748668 L 7.371126 1.745774 L 7.445265 1.740262 L 7.519403 1.735025 L 7.55661 1.732682 L 7.593679 1.730202 L 7.704887 1.723587 L 7.779026 1.719453 L 7.816095 1.717524 L 7.853164 1.715732 L 7.890371 1.713941 L 7.92744 1.71215 L 8.001579 1.708842 L 8.112786 1.704295 L 8.149856 1.702917 L 8.187063 1.701539 L 8.224132 1.700161 L 8.33534 1.69644 L 8.483617 1.69203 L 8.520824 1.691066 L 8.594962 1.689136 L 8.632031 1.688309 L 8.6691 1.687345 L 8.743239 1.685691 L 8.780308 1.685002 L 8.817377 1.684175 L 8.854584 1.683486 L 9.002861 1.68073 L 9.077 1.679628 L 9.114069 1.678939 L 9.151276 1.678388 L 9.188345 1.677974 L 9.262484 1.676872 L 9.299553 1.676458 L 9.336622 1.675907 L 9.44783 1.674667 L 9.485037 1.674253 L 9.522106 1.67384 L 9.559175 1.673564 L 9.633314 1.672738 L 9.707452 1.672186 L 9.744521 1.671773 L 9.781591 1.671497 L 9.818798 1.671222 L 9.930005 1.670395 " transform="matrix(28.346457,0,0,-28.346457,1,227.771654)"/>
<path style=" stroke:none;fill-rule:nonzero;fill:rgb(98.039216%,50.196078%,44.705882%);fill-opacity:1;" d="M 20.773438 177.277344 L 20.851562 177.355469 C 20.941406 178.210938 21.054688 179.0625 21.144531 179.933594 L 21.222656 179.945312 L 22.316406 179.726562 L 22.433594 179.726562 L 22.457031 179.703125 L 23.605469 179.472656 L 23.773438 179.472656 L 23.824219 179.5 L 23.847656 179.535156 L 23.847656 179.652344 C 23.070312 180.085938 22.230469 180.417969 21.425781 180.8125 C 21.871094 181.566406 22.316406 182.34375 22.714844 183.132812 L 22.6875 183.183594 L 22.625 183.25 L 22.535156 183.25 C 21.910156 182.625 21.347656 181.945312 20.722656 181.347656 C 20.085938 181.945312 19.539062 182.625 18.914062 183.25 L 18.824219 183.25 L 18.746094 183.183594 C 18.757812 182.851562 19.066406 182.574219 19.191406 182.253906 C 19.472656 181.78125 19.714844 181.269531 20.023438 180.8125 C 19.21875 180.417969 18.375 180.085938 17.597656 179.652344 L 17.597656 179.535156 L 17.625 179.5 L 17.660156 179.472656 L 17.828125 179.472656 L 18.976562 179.703125 L 19 179.726562 L 19.117188 179.726562 L 20.226562 179.945312 L 20.289062 179.933594 C 20.390625 179.050781 20.480469 178.210938 20.621094 177.328125 L 20.632812 177.304688 L 20.683594 177.277344 Z M 20.773438 177.277344 Z M 20.773438 177.277344 "/>
<path style=" stroke:none;fill-rule:nonzero;fill:rgb(98.039216%,50.196078%,44.705882%);fill-opacity:1;" d="M 31.285156 168.46875 L 31.363281 168.542969 C 31.453125 169.398438 31.566406 170.253906 31.65625 171.121094 L 31.734375 171.132812 L 32.832031 170.917969 L 32.945312 170.917969 L 32.96875 170.890625 L 34.117188 170.664062 L 34.285156 170.664062 L 34.335938 170.6875 L 34.359375 170.726562 L 34.359375 170.839844 C 33.582031 171.273438 32.742188 171.605469 31.9375 172 C 32.382812 172.753906 32.832031 173.53125 33.226562 174.324219 L 33.199219 174.375 L 33.136719 174.4375 L 33.046875 174.4375 C 32.421875 173.8125 31.859375 173.136719 31.234375 172.539062 C 30.597656 173.136719 30.050781 173.8125 29.425781 174.4375 L 29.335938 174.4375 L 29.257812 174.375 C 29.269531 174.042969 29.578125 173.761719 29.707031 173.441406 C 29.984375 172.972656 30.226562 172.460938 30.535156 172 C 29.730469 171.605469 28.890625 171.273438 28.109375 170.839844 L 28.109375 170.726562 L 28.136719 170.6875 L 28.175781 170.664062 L 28.339844 170.664062 L 29.488281 170.890625 L 29.515625 170.917969 L 29.628906 170.917969 L 30.738281 171.132812 L 30.800781 171.121094 C 30.902344 170.242188 30.992188 169.398438 31.132812 168.519531 L 31.148438 168.492188 L 31.199219 168.46875 Z M 31.285156 168.46875 Z M 31.285156 168.46875 "/>
<path style=" stroke:none;fill-rule:nonzero;fill:rgb(98.039216%,50.196078%,44.705882%);fill-opacity:1;" d="M 41.800781 159.796875 L 41.875 159.875 C 41.964844 160.730469 42.078125 161.585938 42.167969 162.453125 L 42.246094 162.464844 L 43.34375 162.246094 L 43.457031 162.246094 L 43.484375 162.222656 L 44.632812 161.992188 L 44.796875 161.992188 L 44.847656 162.019531 L 44.875 162.054688 L 44.875 162.171875 C 44.09375 162.605469 43.253906 162.9375 42.449219 163.332031 C 42.894531 164.085938 43.34375 164.863281 43.738281 165.652344 L 43.710938 165.703125 L 43.648438 165.769531 L 43.558594 165.769531 C 42.933594 165.144531 42.375 164.46875 41.75 163.867188 C 41.109375 164.46875 40.5625 165.144531 39.9375 165.769531 L 39.847656 165.769531 L 39.769531 165.703125 C 39.785156 165.371094 40.089844 165.09375 40.21875 164.773438 C 40.496094 164.300781 40.742188 163.789062 41.046875 163.332031 C 40.242188 162.9375 39.402344 162.605469 38.621094 162.171875 L 38.621094 162.054688 L 38.648438 162.019531 L 38.6875 161.992188 L 38.851562 161.992188 L 40 162.222656 L 40.027344 162.246094 L 40.140625 162.246094 L 41.25 162.464844 L 41.3125 162.453125 C 41.417969 161.570312 41.503906 160.730469 41.644531 159.847656 L 41.660156 159.824219 L 41.710938 159.796875 Z M 41.800781 159.796875 Z M 41.800781 159.796875 "/>
<path style=" stroke:none;fill-rule:nonzero;fill:rgb(98.039216%,50.196078%,44.705882%);fill-opacity:1;" d="M 52.3125 151.40625 L 52.386719 151.480469 C 52.476562 152.335938 52.59375 153.191406 52.679688 154.058594 L 52.757812 154.070312 L 53.855469 153.855469 L 53.96875 153.855469 L 53.996094 153.828125 L 55.144531 153.601562 L 55.308594 153.601562 L 55.359375 153.625 L 55.386719 153.664062 L 55.386719 153.777344 C 54.609375 154.210938 53.765625 154.542969 52.960938 154.9375 C 53.410156 155.691406 53.855469 156.46875 54.25 157.261719 L 54.226562 157.3125 L 54.160156 157.375 L 54.070312 157.375 C 53.445312 156.75 52.886719 156.074219 52.261719 155.476562 C 51.621094 156.074219 51.074219 156.75 50.449219 157.375 L 50.359375 157.375 L 50.285156 157.3125 C 50.296875 156.980469 50.601562 156.699219 50.730469 156.378906 C 51.011719 155.910156 51.253906 155.398438 51.558594 154.9375 C 50.753906 154.542969 49.914062 154.210938 49.136719 153.777344 L 49.136719 153.664062 L 49.160156 153.625 L 49.199219 153.601562 L 49.363281 153.601562 L 50.511719 153.828125 L 50.539062 153.855469 L 50.652344 153.855469 L 51.761719 154.070312 L 51.828125 154.058594 C 51.929688 153.179688 52.019531 152.335938 52.160156 151.457031 L 52.171875 151.429688 L 52.222656 151.40625 Z M 52.3125 151.40625 Z M 52.3125 151.40625 "/>
<path style=" stroke:none;fill-rule:nonzero;fill:rgb(98.039216%,50.196078%,44.705882%);fill-opacity:1;" d="M 62.824219 143.425781 L 62.898438 143.5 C 62.988281 144.355469 63.105469 145.210938 63.195312 146.078125 L 63.269531 146.089844 L 64.367188 145.875 L 64.480469 145.875 L 64.507812 145.847656 L 65.65625 145.617188 L 65.820312 145.617188 L 65.871094 145.644531 L 65.898438 145.683594 L 65.898438 145.796875 C 65.121094 146.230469 64.277344 146.5625 63.472656 146.957031 C 63.921875 147.710938 64.367188 148.488281 64.761719 149.28125 L 64.738281 149.332031 L 64.671875 149.394531 L 64.585938 149.394531 C 63.960938 148.769531 63.398438 148.09375 62.773438 147.492188 C 62.136719 148.09375 61.585938 148.769531 60.960938 149.394531 L 60.871094 149.394531 L 60.796875 149.332031 C 60.808594 149 61.113281 148.71875 61.242188 148.398438 C 61.523438 147.929688 61.765625 147.417969 62.070312 146.957031 C 61.265625 146.5625 60.425781 146.230469 59.648438 145.796875 L 59.648438 145.683594 L 59.671875 145.644531 L 59.710938 145.617188 L 59.878906 145.617188 L 61.023438 145.847656 L 61.050781 145.875 L 61.164062 145.875 L 62.273438 146.089844 L 62.339844 146.078125 C 62.441406 145.199219 62.53125 144.355469 62.671875 143.476562 L 62.683594 143.449219 L 62.734375 143.425781 Z M 62.824219 143.425781 Z M 62.824219 143.425781 "/>
<path style=" stroke:none;fill-rule:nonzero;fill:rgb(98.039216%,50.196078%,44.705882%);fill-opacity:1;" d="M 73.335938 135.980469 L 73.414062 136.058594 C 73.5 136.914062 73.617188 137.769531 73.707031 138.636719 L 73.78125 138.648438 L 74.878906 138.429688 L 74.996094 138.429688 L 75.019531 138.40625 L 76.167969 138.175781 L 76.332031 138.175781 L 76.386719 138.203125 L 76.410156 138.238281 L 76.410156 138.355469 C 75.632812 138.789062 74.789062 139.121094 73.988281 139.515625 C 74.433594 140.269531 74.878906 141.046875 75.273438 141.835938 L 75.25 141.886719 L 75.1875 141.953125 L 75.097656 141.953125 C 74.472656 141.328125 73.910156 140.652344 73.285156 140.050781 C 72.648438 140.652344 72.097656 141.328125 71.472656 141.953125 L 71.382812 141.953125 L 71.308594 141.886719 C 71.320312 141.554688 71.625 141.277344 71.753906 140.957031 C 72.035156 140.484375 72.277344 139.976562 72.582031 139.515625 C 71.78125 139.121094 70.9375 138.789062 70.160156 138.355469 L 70.160156 138.238281 L 70.183594 138.203125 L 70.222656 138.175781 L 70.390625 138.175781 L 71.539062 138.40625 L 71.5625 138.429688 L 71.679688 138.429688 L 72.789062 138.648438 L 72.851562 138.636719 C 72.953125 137.753906 73.042969 136.914062 73.183594 136.03125 L 73.195312 136.007812 L 73.246094 135.980469 Z M 73.335938 135.980469 Z M 73.335938 135.980469 "/>
<path style=" stroke:none;fill-rule:nonzero;fill:rgb(98.039216%,50.196078%,44.705882%);fill-opacity:1;" d="M 83.847656 129.195312 L 83.925781 129.273438 C 84.015625 130.128906 84.128906 130.980469 84.21875 131.847656 L 84.292969 131.863281 L 85.390625 131.644531 L 85.507812 131.644531 L 85.53125 131.621094 L 86.679688 131.390625 L 86.847656 131.390625 L 86.898438 131.414062 L 86.921875 131.453125 L 86.921875 131.570312 C 86.144531 132.003906 85.300781 132.332031 84.5 132.730469 C 84.945312 133.480469 85.390625 134.261719 85.789062 135.050781 L 85.761719 135.101562 L 85.699219 135.164062 L 85.609375 135.164062 C 84.984375 134.539062 84.421875 133.863281 83.796875 133.265625 C 83.160156 133.863281 82.609375 134.539062 81.984375 135.164062 L 81.898438 135.164062 L 81.820312 135.101562 C 81.832031 134.769531 82.140625 134.488281 82.265625 134.171875 C 82.546875 133.699219 82.789062 133.1875 83.097656 132.730469 C 82.292969 132.332031 81.449219 132.003906 80.671875 131.570312 L 80.671875 131.453125 L 80.699219 131.414062 L 80.734375 131.390625 L 80.902344 131.390625 L 82.050781 131.621094 L 82.074219 131.644531 L 82.191406 131.644531 L 83.300781 131.863281 L 83.363281 131.847656 C 83.464844 130.96875 83.554688 130.128906 83.695312 129.246094 L 83.707031 129.222656 L 83.757812 129.195312 Z M 83.847656 129.195312 Z M 83.847656 129.195312 "/>
<path style=" stroke:none;fill-rule:nonzero;fill:rgb(98.039216%,50.196078%,44.705882%);fill-opacity:1;" d="M 94.359375 123.175781 L 94.4375 123.25 C 94.527344 124.105469 94.640625 124.960938 94.730469 125.828125 L 94.808594 125.839844 L 95.902344 125.625 L 96.019531 125.625 L 96.042969 125.597656 L 97.191406 125.367188 L 97.359375 125.367188 L 97.410156 125.394531 L 97.433594 125.433594 L 97.433594 125.546875 C 96.65625 125.980469 95.816406 126.3125 95.011719 126.707031 C 95.457031 127.460938 95.902344 128.238281 96.300781 129.027344 L 96.273438 129.078125 L 96.210938 129.144531 L 96.121094 129.144531 C 95.496094 128.519531 94.933594 127.84375 94.308594 127.242188 C 93.671875 127.84375 93.125 128.519531 92.5 129.144531 L 92.410156 129.144531 L 92.332031 129.078125 C 92.34375 128.75 92.652344 128.46875 92.777344 128.148438 C 93.058594 127.675781 93.300781 127.167969 93.609375 126.707031 C 92.804688 126.3125 91.960938 125.980469 91.183594 125.546875 L 91.183594 125.433594 L 91.210938 125.394531 L 91.25 125.367188 L 91.414062 125.367188 L 92.5625 125.597656 L 92.585938 125.625 L 92.703125 125.625 L 93.8125 125.839844 L 93.875 125.828125 C 93.976562 124.945312 94.066406 124.105469 94.207031 123.226562 L 94.21875 123.199219 L 94.269531 123.175781 Z M 94.359375 123.175781 Z M 94.359375 123.175781 "/>
<path style=" stroke:none;fill-rule:nonzero;fill:rgb(98.039216%,50.196078%,44.705882%);fill-opacity:1;" d="M 104.875 118.011719 L 104.949219 118.089844 C 105.039062 118.941406 105.152344 119.796875 105.242188 120.664062 L 105.320312 120.679688 L 106.417969 120.460938 L 106.53125 120.460938 L 106.558594 120.4375 L 107.703125 120.207031 L 107.871094 120.207031 L 107.921875 120.230469 L 107.945312 120.269531 L 107.945312 120.382812 C 107.167969 120.820312 106.328125 121.148438 105.523438 121.546875 C 105.96875 122.296875 106.417969 123.078125 106.8125 123.867188 L 106.785156 123.917969 L 106.722656 123.980469 L 106.632812 123.980469 C 106.007812 123.355469 105.445312 122.679688 104.820312 122.082031 C 104.183594 122.679688 103.636719 123.355469 103.011719 123.980469 L 102.921875 123.980469 L 102.84375 123.917969 C 102.859375 123.585938 103.164062 123.304688 103.292969 122.988281 C 103.570312 122.515625 103.8125 122.003906 104.121094 121.546875 C 103.316406 121.148438 102.476562 120.820312 101.695312 120.382812 L 101.695312 120.269531 L 101.722656 120.230469 L 101.761719 120.207031 L 101.925781 120.207031 L 103.074219 120.4375 L 103.101562 120.460938 L 103.214844 120.460938 L 104.324219 120.679688 L 104.386719 120.664062 C 104.492188 119.785156 104.578125 118.941406 104.71875 118.0625 L 104.734375 118.039062 L 104.785156 118.011719 Z M 104.875 118.011719 Z M 104.875 118.011719 "/>
<path style=" stroke:none;fill-rule:nonzero;fill:rgb(98.039216%,50.196078%,44.705882%);fill-opacity:1;" d="M 115.386719 113.792969 L 115.460938 113.867188 C 115.550781 114.722656 115.667969 115.578125 115.753906 116.445312 L 115.832031 116.457031 L 116.929688 116.242188 L 117.042969 116.242188 L 117.070312 116.214844 L 118.21875 115.988281 L 118.382812 115.988281 L 118.433594 116.011719 L 118.460938 116.050781 L 118.460938 116.164062 C 117.679688 116.597656 116.839844 116.929688 116.035156 117.324219 C 116.480469 118.078125 116.929688 118.855469 117.324219 119.648438 L 117.296875 119.699219 L 117.234375 119.761719 L 117.144531 119.761719 C 116.519531 119.136719 115.960938 118.460938 115.335938 117.863281 C 114.695312 118.460938 114.148438 119.136719 113.523438 119.761719 L 113.433594 119.761719 L 113.355469 119.699219 C 113.371094 119.367188 113.675781 119.085938 113.804688 118.765625 C 114.085938 118.296875 114.328125 117.785156 114.632812 117.324219 C 113.828125 116.929688 112.988281 116.597656 112.210938 116.164062 L 112.210938 116.050781 L 112.234375 116.011719 L 112.273438 115.988281 L 112.4375 115.988281 L 113.585938 116.214844 L 113.613281 116.242188 L 113.726562 116.242188 L 114.835938 116.457031 L 114.902344 116.445312 C 115.003906 115.566406 115.09375 114.722656 115.230469 113.84375 L 115.246094 113.816406 L 115.296875 113.792969 Z M 115.386719 113.792969 Z M 115.386719 113.792969 "/>
<path style=" stroke:none;fill-rule:nonzero;fill:rgb(98.039216%,50.196078%,44.705882%);fill-opacity:1;" d="M 125.898438 110.582031 L 125.972656 110.660156 C 126.0625 111.511719 126.179688 112.367188 126.269531 113.234375 L 126.34375 113.25 L 127.441406 113.03125 L 127.554688 113.03125 L 127.582031 113.003906 L 128.730469 112.777344 L 128.894531 112.777344 L 128.945312 112.800781 L 128.972656 112.839844 L 128.972656 112.953125 C 128.195312 113.386719 127.351562 113.71875 126.546875 114.117188 C 126.996094 114.867188 127.441406 115.644531 127.835938 116.4375 L 127.8125 116.488281 L 127.746094 116.550781 L 127.65625 116.550781 C 127.03125 115.925781 126.472656 115.25 125.847656 114.652344 C 125.207031 115.25 124.660156 115.925781 124.035156 116.550781 L 123.945312 116.550781 L 123.871094 116.488281 C 123.882812 116.15625 124.1875 115.875 124.316406 115.558594 C 124.597656 115.085938 124.839844 114.574219 125.144531 114.117188 C 124.339844 113.71875 123.5 113.386719 122.722656 112.953125 L 122.722656 112.839844 L 122.746094 112.800781 L 122.785156 112.777344 L 122.949219 112.777344 L 124.097656 113.003906 L 124.125 113.03125 L 124.238281 113.03125 L 125.347656 113.25 L 125.414062 113.234375 C 125.515625 112.355469 125.605469 111.511719 125.746094 110.632812 L 125.757812 110.609375 L 125.808594 110.582031 Z M 125.898438 110.582031 Z M 125.898438 110.582031 "/>
<path style=" stroke:none;fill-rule:nonzero;fill:rgb(98.039216%,50.196078%,44.705882%);fill-opacity:1;" d="M 136.410156 108.433594 L 136.488281 108.507812 C 136.574219 109.363281 136.691406 110.21875 136.78125 111.085938 L 136.855469 111.097656 L 137.953125 110.882812 L 138.066406 110.882812 L 138.09375 110.855469 L 139.242188 110.625 L 139.40625 110.625 L 139.457031 110.652344 L 139.484375 110.691406 L 139.484375 110.804688 C 138.707031 111.238281 137.863281 111.570312 137.0625 111.964844 C 137.507812 112.71875 137.953125 113.496094 138.347656 114.289062 L 138.324219 114.339844 L 138.257812 114.402344 L 138.171875 114.402344 C 137.546875 113.777344 136.984375 113.101562 136.359375 112.5 C 135.722656 113.101562 135.171875 113.777344 134.546875 114.402344 L 134.457031 114.402344 L 134.382812 114.339844 C 134.394531 114.007812 134.699219 113.726562 134.828125 113.40625 C 135.109375 112.933594 135.351562 112.425781 135.65625 111.964844 C 134.855469 111.570312 134.011719 111.238281 133.234375 110.804688 L 133.234375 110.691406 L 133.257812 110.652344 L 133.296875 110.625 L 133.464844 110.625 L 134.613281 110.855469 L 134.636719 110.882812 L 134.75 110.882812 L 135.863281 111.097656 L 135.925781 111.085938 C 136.027344 110.207031 136.117188 109.363281 136.257812 108.484375 L 136.269531 108.457031 L 136.320312 108.433594 Z M 136.410156 108.433594 Z M 136.410156 108.433594 "/>
<path style=" stroke:none;fill-rule:nonzero;fill:rgb(98.039216%,50.196078%,44.705882%);fill-opacity:1;" d="M 146.921875 107.375 L 147 107.453125 C 147.089844 108.308594 147.203125 109.164062 147.292969 110.03125 L 147.367188 110.042969 L 148.464844 109.824219 L 148.582031 109.824219 L 148.605469 109.800781 L 149.753906 109.570312 L 149.921875 109.570312 L 149.972656 109.597656 L 149.996094 109.632812 L 149.996094 109.75 C 149.21875 110.183594 148.375 110.515625 147.574219 110.910156 C 148.019531 111.664062 148.464844 112.441406 148.859375 113.230469 L 148.835938 113.28125 L 148.773438 113.347656 L 148.683594 113.347656 C 148.058594 112.722656 147.496094 112.046875 146.871094 111.445312 C 146.234375 112.046875 145.683594 112.722656 145.058594 113.347656 L 144.972656 113.347656 L 144.894531 113.28125 C 144.90625 112.949219 145.214844 112.671875 145.339844 112.351562 C 145.621094 111.878906 145.863281 111.371094 146.167969 110.910156 C 145.367188 110.515625 144.523438 110.183594 143.746094 109.75 L 143.746094 109.632812 L 143.773438 109.597656 L 143.808594 109.570312 L 143.976562 109.570312 L 145.125 109.800781 L 145.148438 109.824219 L 145.265625 109.824219 L 146.375 110.042969 L 146.4375 110.03125 C 146.539062 109.148438 146.628906 108.308594 146.769531 107.425781 L 146.78125 107.402344 L 146.832031 107.375 Z M 146.921875 107.375 Z M 146.921875 107.375 "/>
<path style=" stroke:none;fill-rule:nonzero;fill:rgb(98.039216%,50.196078%,44.705882%);fill-opacity:1;" d="M 157.433594 107.433594 L 157.511719 107.507812 C 157.601562 108.363281 157.714844 109.21875 157.804688 110.085938 L 157.882812 110.097656 L 158.976562 109.882812 L 159.09375 109.882812 L 159.117188 109.855469 L 160.265625 109.625 L 160.433594 109.625 L 160.484375 109.652344 L 160.507812 109.691406 L 160.507812 109.804688 C 159.730469 110.238281 158.890625 110.570312 158.085938 110.964844 C 158.53125 111.71875 158.976562 112.496094 159.375 113.289062 L 159.347656 113.339844 L 159.285156 113.402344 L 159.195312 113.402344 C 158.570312 112.777344 158.007812 112.101562 157.382812 111.5 C 156.746094 112.101562 156.199219 112.777344 155.574219 113.402344 L 155.484375 113.402344 L 155.40625 113.339844 C 155.417969 113.007812 155.726562 112.726562 155.851562 112.40625 C 156.132812 111.933594 156.375 111.425781 156.683594 110.964844 C 155.878906 110.570312 155.035156 110.238281 154.257812 109.804688 L 154.257812 109.691406 L 154.285156 109.652344 L 154.320312 109.625 L 154.488281 109.625 L 155.636719 109.855469 L 155.660156 109.882812 L 155.777344 109.882812 L 156.886719 110.097656 L 156.949219 110.085938 C 157.050781 109.207031 157.140625 108.363281 157.28125 107.484375 L 157.292969 107.457031 L 157.34375 107.433594 Z M 157.433594 107.433594 Z M 157.433594 107.433594 "/>
<path style=" stroke:none;fill-rule:nonzero;fill:rgb(98.039216%,50.196078%,44.705882%);fill-opacity:1;" d="M 167.945312 108.597656 L 168.023438 108.675781 C 168.113281 109.53125 168.226562 110.382812 168.316406 111.25 L 168.394531 111.265625 L 169.492188 111.046875 L 169.605469 111.046875 L 169.628906 111.023438 L 170.777344 110.792969 L 170.945312 110.792969 L 170.996094 110.816406 L 171.019531 110.855469 L 171.019531 110.972656 C 170.242188 111.40625 169.402344 111.734375 168.597656 112.132812 C 169.042969 112.882812 169.492188 113.664062 169.886719 114.453125 L 169.859375 114.503906 L 169.796875 114.566406 L 169.707031 114.566406 C 169.082031 113.941406 168.519531 113.265625 167.894531 112.667969 C 167.257812 113.265625 166.710938 113.941406 166.085938 114.566406 L 165.996094 114.566406 L 165.917969 114.503906 C 165.929688 114.171875 166.238281 113.890625 166.367188 113.574219 C 166.644531 113.101562 166.886719 112.589844 167.195312 112.132812 C 166.390625 111.734375 165.550781 111.40625 164.769531 110.972656 L 164.769531 110.855469 L 164.796875 110.816406 L 164.835938 110.792969 L 165 110.792969 L 166.148438 111.023438 L 166.175781 111.046875 L 166.289062 111.046875 L 167.398438 111.265625 L 167.460938 111.25 C 167.5625 110.371094 167.652344 109.53125 167.792969 108.648438 L 167.808594 108.625 L 167.859375 108.597656 Z M 167.945312 108.597656 Z M 167.945312 108.597656 "/>
<path style=" stroke:none;fill-rule:nonzero;fill:rgb(98.039216%,50.196078%,44.705882%);fill-opacity:1;" d="M 178.460938 110.855469 L 178.535156 110.933594 C 178.625 111.789062 178.738281 112.640625 178.828125 113.507812 L 178.90625 113.523438 L 180.003906 113.304688 L 180.117188 113.304688 L 180.144531 113.28125 L 181.292969 113.050781 L 181.457031 113.050781 L 181.507812 113.074219 L 181.535156 113.113281 L 181.535156 113.230469 C 180.753906 113.664062 179.914062 113.996094 179.109375 114.390625 C 179.554688 115.140625 180.003906 115.921875 180.398438 116.710938 L 180.371094 116.761719 L 180.308594 116.824219 L 180.21875 116.824219 C 179.59375 116.199219 179.035156 115.523438 178.410156 114.925781 C 177.769531 115.523438 177.222656 116.199219 176.597656 116.824219 L 176.507812 116.824219 L 176.429688 116.761719 C 176.445312 116.429688 176.75 116.148438 176.878906 115.832031 C 177.160156 115.359375 177.402344 114.847656 177.707031 114.390625 C 176.902344 113.996094 176.0625 113.664062 175.28125 113.230469 L 175.28125 113.113281 L 175.308594 113.074219 L 175.347656 113.050781 L 175.511719 113.050781 L 176.660156 113.28125 L 176.6875 113.304688 L 176.800781 113.304688 L 177.910156 113.523438 L 177.976562 113.507812 C 178.078125 112.628906 178.164062 111.789062 178.304688 110.90625 L 178.320312 110.882812 L 178.371094 110.855469 Z M 178.460938 110.855469 Z M 178.460938 110.855469 "/>
<path style=" stroke:none;fill-rule:nonzero;fill:rgb(98.039216%,50.196078%,44.705882%);fill-opacity:1;" d="M 188.972656 114.171875 L 189.046875 114.246094 C 189.136719 115.101562 189.253906 115.957031 189.339844 116.824219 L 189.417969 116.835938 L 190.515625 116.621094 L 190.628906 116.621094 L 190.65625 116.59375 L 191.804688 116.363281 L 191.96875 116.363281 L 192.019531 116.390625 L 192.046875 116.429688 L 192.046875 116.542969 C 191.269531 116.976562 190.425781 117.308594 189.621094 117.703125 C 190.070312 118.457031 190.515625 119.234375 190.910156 120.023438 L 190.886719 120.074219 L 190.820312 120.140625 L 190.730469 120.140625 C 190.105469 119.515625 189.546875 118.839844 188.921875 118.238281 C 188.28125 118.839844 187.734375 119.515625 187.109375 120.140625 L 187.019531 120.140625 L 186.945312 120.074219 C 186.957031 119.746094 187.261719 119.464844 187.390625 119.144531 C 187.671875 118.671875 187.914062 118.164062 188.21875 117.703125 C 187.414062 117.308594 186.574219 116.976562 185.796875 116.542969 L 185.796875 116.429688 L 185.820312 116.390625 L 185.859375 116.363281 L 186.023438 116.363281 L 187.171875 116.59375 L 187.199219 116.621094 L 187.3125 116.621094 L 188.421875 116.835938 L 188.488281 116.824219 C 188.589844 115.941406 188.679688 115.101562 188.820312 114.222656 L 188.832031 114.195312 L 188.882812 114.171875 Z M 188.972656 114.171875 Z M 188.972656 114.171875 "/>
<path style=" stroke:none;fill-rule:nonzero;fill:rgb(98.039216%,50.196078%,44.705882%);fill-opacity:1;" d="M 199.484375 118.488281 L 199.558594 118.5625 C 199.648438 119.417969 199.765625 120.273438 199.855469 121.140625 L 199.929688 121.152344 L 201.027344 120.9375 L 201.140625 120.9375 L 201.167969 120.910156 L 202.316406 120.679688 L 202.480469 120.679688 L 202.53125 120.707031 L 202.558594 120.746094 L 202.558594 120.859375 C 201.78125 121.292969 200.9375 121.625 200.132812 122.019531 C 200.582031 122.773438 201.027344 123.550781 201.421875 124.34375 L 201.398438 124.394531 L 201.332031 124.457031 L 201.246094 124.457031 C 200.621094 123.832031 200.058594 123.15625 199.433594 122.554688 C 198.796875 123.15625 198.246094 123.832031 197.621094 124.457031 L 197.53125 124.457031 L 197.457031 124.394531 C 197.46875 124.0625 197.773438 123.78125 197.902344 123.460938 C 198.183594 122.988281 198.425781 122.480469 198.730469 122.019531 C 197.929688 121.625 197.085938 121.292969 196.308594 120.859375 L 196.308594 120.746094 L 196.332031 120.707031 L 196.371094 120.679688 L 196.539062 120.679688 L 197.683594 120.910156 L 197.710938 120.9375 L 197.824219 120.9375 L 198.933594 121.152344 L 199 121.140625 C 199.101562 120.261719 199.191406 119.417969 199.332031 118.539062 L 199.34375 118.511719 L 199.394531 118.488281 Z M 199.484375 118.488281 Z M 199.484375 118.488281 "/>
<path style=" stroke:none;fill-rule:nonzero;fill:rgb(98.039216%,50.196078%,44.705882%);fill-opacity:1;" d="M 209.996094 123.738281 L 210.074219 123.816406 C 210.164062 124.671875 210.277344 125.523438 210.367188 126.390625 L 210.441406 126.40625 L 211.539062 126.1875 L 211.65625 126.1875 L 211.679688 126.164062 L 212.828125 125.933594 L 212.992188 125.933594 L 213.046875 125.957031 L 213.070312 125.996094 L 213.070312 126.113281 C 212.292969 126.546875 211.449219 126.875 210.648438 127.273438 C 211.09375 128.023438 211.539062 128.804688 211.933594 129.59375 L 211.910156 129.644531 L 211.847656 129.707031 L 211.757812 129.707031 C 211.132812 129.082031 210.570312 128.40625 209.945312 127.808594 C 209.308594 128.40625 208.757812 129.082031 208.132812 129.707031 L 208.042969 129.707031 L 207.96875 129.644531 C 207.980469 129.3125 208.285156 129.03125 208.414062 128.714844 C 208.695312 128.242188 208.9375 127.730469 209.242188 127.273438 C 208.441406 126.875 207.597656 126.546875 206.820312 126.113281 L 206.820312 125.996094 L 206.84375 125.957031 L 206.882812 125.933594 L 207.050781 125.933594 L 208.199219 126.164062 L 208.222656 126.1875 L 208.339844 126.1875 L 209.449219 126.40625 L 209.511719 126.390625 C 209.613281 125.511719 209.703125 124.671875 209.84375 123.789062 L 209.855469 123.765625 L 209.90625 123.738281 Z M 209.996094 123.738281 Z M 209.996094 123.738281 "/>
<path style=" stroke:none;fill-rule:nonzero;fill:rgb(98.039216%,50.196078%,44.705882%);fill-opacity:1;" d="M 220.507812 129.839844 L 220.585938 129.917969 C 220.675781 130.773438 220.789062 131.628906 220.878906 132.496094 L 220.957031 132.507812 L 222.050781 132.289062 L 222.167969 132.289062 L 222.191406 132.265625 L 223.339844 132.035156 L 223.507812 132.035156 L 223.558594 132.0625 L 223.582031 132.097656 L 223.582031 132.214844 C 222.804688 132.648438 221.960938 132.980469 221.160156 133.375 C 221.605469 134.128906 222.050781 134.90625 222.449219 135.695312 L 222.421875 135.746094 L 222.359375 135.8125 L 222.269531 135.8125 C 221.644531 135.1875 221.082031 134.511719 220.457031 133.910156 C 219.820312 134.511719 219.269531 135.1875 218.644531 135.8125 L 218.558594 135.8125 L 218.480469 135.746094 C 218.492188 135.417969 218.800781 135.136719 218.925781 134.816406 C 219.207031 134.34375 219.449219 133.835938 219.757812 133.375 C 218.953125 132.980469 218.109375 132.648438 217.332031 132.214844 L 217.332031 132.097656 L 217.359375 132.0625 L 217.394531 132.035156 L 217.5625 132.035156 L 218.710938 132.265625 L 218.734375 132.289062 L 218.851562 132.289062 L 219.960938 132.507812 L 220.023438 132.496094 C 220.125 131.613281 220.214844 130.773438 220.355469 129.894531 L 220.367188 129.867188 L 220.417969 129.839844 Z M 220.507812 129.839844 Z M 220.507812 129.839844 "/>
<path style=" stroke:none;fill-rule:nonzero;fill:rgb(98.039216%,50.196078%,44.705882%);fill-opacity:1;" d="M 231.019531 136.699219 L 231.097656 136.773438 C 231.1875 137.628906 231.300781 138.484375 231.390625 139.351562 L 231.46875 139.363281 L 232.5625 139.148438 L 232.679688 139.148438 L 232.703125 139.121094 L 233.851562 138.894531 L 234.019531 138.894531 L 234.070312 138.917969 L 234.09375 138.957031 L 234.09375 139.070312 C 233.316406 139.503906 232.476562 139.835938 231.671875 140.230469 C 232.117188 140.984375 232.5625 141.761719 232.960938 142.554688 L 232.933594 142.605469 L 232.871094 142.667969 L 232.78125 142.667969 C 232.15625 142.042969 231.59375 141.367188 230.96875 140.769531 C 230.332031 141.367188 229.785156 142.042969 229.160156 142.667969 L 229.070312 142.667969 L 228.992188 142.605469 C 229.003906 142.273438 229.3125 141.992188 229.4375 141.671875 C 229.71875 141.203125 229.960938 140.691406 230.269531 140.230469 C 229.464844 139.835938 228.621094 139.503906 227.84375 139.070312 L 227.84375 138.957031 L 227.871094 138.917969 L 227.910156 138.894531 L 228.074219 138.894531 L 229.222656 139.121094 L 229.246094 139.148438 L 229.363281 139.148438 L 230.472656 139.363281 L 230.535156 139.351562 C 230.636719 138.472656 230.726562 137.628906 230.867188 136.75 L 230.878906 136.722656 L 230.933594 136.699219 Z M 231.019531 136.699219 Z M 231.019531 136.699219 "/>
<path style=" stroke:none;fill-rule:nonzero;fill:rgb(98.039216%,50.196078%,44.705882%);fill-opacity:1;" d="M 241.535156 144.199219 L 241.609375 144.277344 C 241.699219 145.132812 241.8125 145.988281 241.902344 146.855469 L 241.980469 146.867188 L 243.078125 146.648438 L 243.191406 146.648438 L 243.21875 146.625 L 244.363281 146.394531 L 244.53125 146.394531 L 244.582031 146.421875 L 244.609375 146.457031 L 244.609375 146.574219 C 243.828125 147.007812 242.988281 147.339844 242.183594 147.734375 C 242.628906 148.488281 243.078125 149.265625 243.472656 150.054688 L 243.445312 150.105469 L 243.382812 150.171875 L 243.292969 150.171875 C 242.667969 149.546875 242.105469 148.871094 241.480469 148.269531 C 240.84375 148.871094 240.296875 149.546875 239.671875 150.171875 L 239.582031 150.171875 L 239.503906 150.105469 C 239.519531 149.773438 239.824219 149.496094 239.953125 149.175781 C 240.230469 148.703125 240.472656 148.195312 240.78125 147.734375 C 239.976562 147.339844 239.136719 147.007812 238.355469 146.574219 L 238.355469 146.457031 L 238.382812 146.421875 L 238.421875 146.394531 L 238.585938 146.394531 L 239.734375 146.625 L 239.761719 146.648438 L 239.875 146.648438 L 240.984375 146.867188 L 241.046875 146.855469 C 241.152344 145.972656 241.238281 145.132812 241.378906 144.25 L 241.394531 144.226562 L 241.445312 144.199219 Z M 241.535156 144.199219 Z M 241.535156 144.199219 "/>
<path style=" stroke:none;fill-rule:nonzero;fill:rgb(98.039216%,50.196078%,44.705882%);fill-opacity:1;" d="M 252.046875 152.230469 L 252.121094 152.304688 C 252.210938 153.160156 252.328125 154.015625 252.414062 154.882812 L 252.492188 154.894531 L 253.589844 154.679688 L 253.703125 154.679688 L 253.730469 154.652344 L 254.878906 154.421875 L 255.042969 154.421875 L 255.09375 154.449219 L 255.121094 154.488281 L 255.121094 154.601562 C 254.339844 155.035156 253.5 155.367188 252.695312 155.761719 C 253.144531 156.515625 253.589844 157.292969 253.984375 158.082031 L 253.960938 158.132812 L 253.894531 158.199219 L 253.804688 158.199219 C 253.179688 157.574219 252.621094 156.898438 251.996094 156.296875 C 251.355469 156.898438 250.808594 157.574219 250.183594 158.199219 L 250.09375 158.199219 L 250.015625 158.132812 C 250.03125 157.804688 250.335938 157.523438 250.464844 157.203125 C 250.746094 156.730469 250.988281 156.222656 251.292969 155.761719 C 250.488281 155.367188 249.648438 155.035156 248.871094 154.601562 L 248.871094 154.488281 L 248.894531 154.449219 L 248.933594 154.421875 L 249.097656 154.421875 L 250.246094 154.652344 L 250.273438 154.679688 L 250.386719 154.679688 L 251.496094 154.894531 L 251.5625 154.882812 C 251.664062 154 251.753906 153.160156 251.890625 152.28125 L 251.90625 152.253906 L 251.957031 152.230469 Z M 252.046875 152.230469 Z M 252.046875 152.230469 "/>
<path style=" stroke:none;fill-rule:nonzero;fill:rgb(98.039216%,50.196078%,44.705882%);fill-opacity:1;" d="M 262.558594 160.65625 L 262.632812 160.730469 C 262.722656 161.585938 262.839844 162.441406 262.929688 163.308594 L 263.003906 163.320312 L 264.101562 163.105469 L 264.214844 163.105469 L 264.242188 163.078125 L 265.390625 162.847656 L 265.554688 162.847656 L 265.605469 162.875 L 265.632812 162.914062 L 265.632812 163.027344 C 264.855469 163.460938 264.011719 163.792969 263.207031 164.1875 C 263.65625 164.941406 264.101562 165.71875 264.496094 166.511719 L 264.472656 166.5625 L 264.40625 166.625 L 264.316406 166.625 C 263.691406 166 263.132812 165.324219 262.507812 164.722656 C 261.867188 165.324219 261.320312 166 260.695312 166.625 L 260.605469 166.625 L 260.53125 166.5625 C 260.542969 166.230469 260.847656 165.949219 260.976562 165.628906 C 261.257812 165.15625 261.5 164.648438 261.804688 164.1875 C 261 163.792969 260.160156 163.460938 259.382812 163.027344 L 259.382812 162.914062 L 259.40625 162.875 L 259.445312 162.847656 L 259.609375 162.847656 L 260.757812 163.078125 L 260.785156 163.105469 L 260.898438 163.105469 L 262.007812 163.320312 L 262.074219 163.308594 C 262.175781 162.429688 262.265625 161.585938 262.40625 160.707031 L 262.417969 160.679688 L 262.46875 160.65625 Z M 262.558594 160.65625 Z M 262.558594 160.65625 "/>
<path style=" stroke:none;fill-rule:nonzero;fill:rgb(98.039216%,50.196078%,44.705882%);fill-opacity:1;" d="M 273.070312 169.34375 L 273.148438 169.421875 C 273.234375 170.277344 273.351562 171.132812 273.441406 172 L 273.515625 172.011719 L 274.613281 171.792969 L 274.726562 171.792969 L 274.753906 171.769531 L 275.902344 171.539062 L 276.066406 171.539062 L 276.117188 171.566406 L 276.144531 171.601562 L 276.144531 171.71875 C 275.367188 172.152344 274.523438 172.484375 273.722656 172.878906 C 274.167969 173.632812 274.613281 174.410156 275.007812 175.199219 L 274.984375 175.25 L 274.917969 175.316406 L 274.832031 175.316406 C 274.207031 174.691406 273.644531 174.015625 273.019531 173.414062 C 272.382812 174.015625 271.832031 174.691406 271.207031 175.316406 L 271.117188 175.316406 L 271.042969 175.25 C 271.054688 174.917969 271.359375 174.640625 271.488281 174.320312 C 271.769531 173.847656 272.011719 173.339844 272.316406 172.878906 C 271.515625 172.484375 270.671875 172.152344 269.894531 171.71875 L 269.894531 171.601562 L 269.917969 171.566406 L 269.957031 171.539062 L 270.125 171.539062 L 271.273438 171.769531 L 271.296875 171.792969 L 271.410156 171.792969 L 272.523438 172.011719 L 272.585938 172 C 272.6875 171.117188 272.777344 170.277344 272.917969 169.394531 L 272.929688 169.371094 L 272.980469 169.34375 Z M 273.070312 169.34375 Z M 273.070312 169.34375 "/>
</g>
</svg>
