<?xml version="1.0" encoding="UTF-8"?>
<svg xmlns="http://www.w3.org/2000/svg" xmlns:xlink="http://www.w3.org/1999/xlink" width="285.464567pt" height="228.771654pt" viewBox="0 0 285.464567 228.771654" version="1.1">
<g id="surface1">
<path style="fill:none;stroke-width:0.02;stroke-linecap:butt;stroke-linejoin:miter;stroke:rgb(0%,0%,0%);stroke-opacity:1;stroke-miterlimit:10;" d="M 0.695771 1.251747 L 0.800778 1.251747 " transform="matrix(28.346457,0,0,-28.346457,1,227.771654)"/>
<path style="fill:none;stroke-width:0.02;stroke-linecap:butt;stroke-linejoin:miter;stroke:rgb(0%,0%,0%);stroke-opacity:1;stroke-miterlimit:10;" d="M 0.695771 2.074987 L 0.800778 2.074987 " transform="matrix(28.346457,0,0,-28.346457,1,227.771654)"/>
<path style="fill:none;stroke-width:0.02;stroke-linecap:butt;stroke-linejoin:miter;stroke:rgb(0%,0%,0%);stroke-opacity:1;stroke-miterlimit:10;" d="M 0.695771 2.898365 L 0.800778 2.898365 " transform="matrix(28.346457,0,0,-28.346457,1,227.771654)"/>
<path style="fill:none;stroke-width:0.02;stroke-linecap:butt;stroke-linejoin:miter;stroke:rgb(0%,0%,0%);stroke-opacity:1;stroke-miterlimit:10;" d="M 0.695771 3.721743 L 0.800778 3.721743 " transform="matrix(28.346457,0,0,-28.346457,1,227.771654)"/>
<path style="fill:none;stroke-width:0.02;stroke-linecap:butt;stroke-linejoin:miter;stroke:rgb(0%,0%,0%);stroke-opacity:1;stroke-miterlimit:10;" d="M 0.695771 4.544983 L 0.800778 4.544983 " transform="matrix(28.346457,0,0,-28.346457,1,227.771654)"/>
<path style="fill:none;stroke-width:0.02;stroke-linecap:butt;stroke-linejoin:miter;stroke:rgb(0%,0%,0%);stroke-opacity:1;stroke-miterlimit:10;" d="M 0.695771 5.36836 L 0.800778 5.36836 " transform="matrix(28.346457,0,0,-28.346457,1,227.771654)"/>
<path style="fill:none;stroke-width:0.02;stroke-linecap:butt;stroke-linejoin:miter;stroke:rgb(0%,0%,0%);stroke-opacity:1;stroke-miterlimit:10;" d="M 0.695771 6.1916 L 0.800778 6.1916 " transform="matrix(28.346457,0,0,-28.346457,1,227.771654)"/>
<path style="fill:none;stroke-width:0.02;stroke-linecap:butt;stroke-linejoin:miter;stroke:rgb(0%,0%,0%);stroke-opacity:1;stroke-miterlimit:10;" d="M 0.695771 7.014978 L 0.800778 7.014978 " transform="matrix(28.346457,0,0,-28.346457,1,227.771654)"/>
<path style="fill:none;stroke-width:0.02;stroke-linecap:round;stroke-linejoin:miter;stroke:rgb(0%,0%,0%);stroke-opacity:1;stroke-miterlimit:10;" d="M 0.695771 0.428369 L 0.695771 7.838356 " transform="matrix(28.346457,0,0,-28.346457,1,227.771654)"/>
<path style=" stroke:none;fill-rule:nonzero;fill:rgb(0%,0%,0%);fill-opacity:1;" d="M 5.160156 216.265625 L 5.160156 216.710938 L 3.078125 216.710938 L 3.078125 216.265625 Z M 5.160156 216.265625 Z M 5.160156 216.265625 "/>
<path style=" stroke:none;fill-rule:nonzero;fill:rgb(0%,0%,0%);fill-opacity:1;" d="M 7.761719 212.886719 C 8.460938 212.917969 9.191406 213.558594 9.023438 214.296875 C 8.945312 214.796875 8.597656 215.210938 8.160156 215.433594 C 8.867188 215.65625 9.414062 216.402344 9.222656 217.140625 C 9.03125 218.101562 7.929688 218.632812 7.039062 218.339844 C 6.613281 218.210938 6.175781 217.941406 5.96875 217.542969 C 6.015625 217.425781 6 217.21875 6.054688 217.140625 C 6.476562 217.757812 7.367188 218.179688 8.0625 217.832031 C 8.824219 217.347656 8.707031 215.933594 7.785156 215.695312 L 7.714844 215.695312 L 7.699219 215.679688 L 6.960938 215.679688 L 6.960938 215.203125 C 7.414062 215.195312 7.976562 215.140625 8.230469 214.671875 C 8.5 214.265625 8.476562 213.601562 7.960938 213.402344 C 7.347656 213.164062 6.59375 213.550781 6.367188 214.171875 C 6.269531 214.035156 6.175781 213.902344 6.078125 213.757812 C 6.40625 213.171875 7.09375 212.824219 7.761719 212.886719 Z M 7.761719 212.886719 Z M 7.761719 212.886719 "/>
<path style=" stroke:none;fill-rule:nonzero;fill:rgb(0%,0%,0%);fill-opacity:1;" d="M 11.023438 217.601562 L 11.023438 218.234375 L 10.382812 218.234375 L 10.382812 217.601562 Z M 11.023438 217.601562 Z M 11.023438 217.601562 "/>
<path style=" stroke:none;fill-rule:nonzero;fill:rgb(0%,0%,0%);fill-opacity:1;" d="M 13.914062 212.886719 C 14.667969 212.941406 15.167969 213.632812 15.300781 214.332031 C 15.375 214.648438 15.390625 214.949219 15.421875 215.265625 L 15.421875 216.078125 C 15.382812 216.902344 15.183594 217.988281 14.285156 218.324219 C 13.507812 218.632812 12.597656 218.148438 12.367188 217.355469 C 12.191406 216.933594 12.175781 216.503906 12.136719 216.078125 L 12.136719 215.265625 C 12.175781 214.441406 12.351562 213.347656 13.238281 212.980469 L 13.277344 212.964844 L 13.308594 212.957031 L 13.351562 212.941406 L 13.46875 212.910156 L 13.539062 212.894531 L 13.628906 212.894531 L 13.644531 212.886719 Z M 13.914062 212.886719 Z M 13.667969 213.371094 C 13 213.449219 12.800781 214.25 12.753906 214.789062 L 12.753906 215.003906 L 12.738281 215.019531 L 12.738281 216.125 C 12.785156 216.695312 12.824219 217.433594 13.351562 217.816406 C 13.835938 218.148438 14.476562 217.773438 14.613281 217.257812 C 14.753906 216.878906 14.785156 216.503906 14.816406 216.125 L 14.816406 215.019531 C 14.769531 214.441406 14.691406 213.632812 14.023438 213.402344 L 13.96875 213.386719 L 13.953125 213.371094 L 13.882812 213.371094 L 13.867188 213.355469 L 13.683594 213.355469 Z M 13.667969 213.371094 Z M 13.667969 213.371094 "/>
<path style=" stroke:none;fill-rule:nonzero;fill:rgb(0%,0%,0%);fill-opacity:1;" d="M 5.160156 192.929688 L 5.160156 193.375 L 3.078125 193.375 L 3.078125 192.929688 Z M 5.160156 192.929688 Z M 5.160156 192.929688 "/>
<path style=" stroke:none;fill-rule:nonzero;fill:rgb(0%,0%,0%);fill-opacity:1;" d="M 7.660156 189.546875 C 8.578125 189.570312 9.308594 190.515625 9.167969 191.40625 C 9.070312 192.292969 8.238281 192.800781 7.644531 193.355469 L 7.390625 193.621094 L 7.359375 193.636719 L 7.039062 193.945312 L 7.015625 193.960938 L 6.699219 194.277344 L 6.667969 194.292969 L 6.59375 194.367188 L 6.613281 194.375 L 9.183594 194.375 L 9.183594 194.898438 L 6.039062 194.898438 L 6.039062 194.421875 L 7.316406 193.144531 C 7.929688 192.609375 8.644531 191.921875 8.53125 191.046875 C 8.46875 190.539062 8.039062 190.070312 7.515625 190.03125 C 6.984375 189.953125 6.515625 190.371094 6.398438 190.882812 L 6.382812 190.90625 L 6.367188 190.960938 L 6.339844 191.046875 L 6.292969 191.222656 L 6.285156 191.261719 C 6.175781 191.128906 6.054688 190.984375 5.96875 190.832031 C 6.128906 190.183594 6.652344 189.570312 7.339844 189.546875 Z M 7.660156 189.546875 Z M 7.660156 189.546875 "/>
<path style=" stroke:none;fill-rule:nonzero;fill:rgb(0%,0%,0%);fill-opacity:1;" d="M 11.023438 194.261719 L 11.023438 194.898438 L 10.382812 194.898438 L 10.382812 194.261719 Z M 11.023438 194.261719 Z M 11.023438 194.261719 "/>
<path style=" stroke:none;fill-rule:nonzero;fill:rgb(0%,0%,0%);fill-opacity:1;" d="M 15.089844 189.714844 L 15.089844 190.207031 L 13.023438 190.207031 L 13.007812 190.214844 L 13.007812 191.839844 C 13.199219 191.714844 13.46875 191.546875 13.722656 191.539062 C 14.621094 191.445312 15.308594 192.324219 15.351562 193.144531 C 15.476562 194.183594 14.5 195.214844 13.453125 195.054688 C 12.929688 195.039062 12.421875 194.730469 12.121094 194.300781 C 12.207031 194.183594 12.277344 193.976562 12.382812 193.90625 C 12.753906 194.636719 13.960938 194.929688 14.445312 194.160156 C 14.753906 193.578125 14.746094 192.839844 14.390625 192.285156 C 13.976562 191.753906 13.160156 192.078125 12.96875 192.644531 L 12.453125 192.644531 L 12.453125 189.714844 Z M 15.089844 189.714844 Z M 15.089844 189.714844 "/>
<path style=" stroke:none;fill-rule:nonzero;fill:rgb(0%,0%,0%);fill-opacity:1;" d="M 5.160156 169.589844 L 5.160156 170.035156 L 3.078125 170.035156 L 3.078125 169.589844 Z M 5.160156 169.589844 Z M 5.160156 169.589844 "/>
<path style=" stroke:none;fill-rule:nonzero;fill:rgb(0%,0%,0%);fill-opacity:1;" d="M 7.660156 166.210938 C 8.578125 166.234375 9.308594 167.175781 9.167969 168.066406 C 9.070312 168.957031 8.238281 169.464844 7.644531 170.019531 L 7.390625 170.28125 L 7.359375 170.296875 L 7.039062 170.605469 L 7.015625 170.621094 L 6.699219 170.941406 L 6.667969 170.957031 L 6.59375 171.027344 L 6.613281 171.035156 L 9.183594 171.035156 L 9.183594 171.558594 L 6.039062 171.558594 L 6.039062 171.082031 L 7.316406 169.804688 C 7.929688 169.273438 8.644531 168.582031 8.53125 167.710938 C 8.46875 167.203125 8.039062 166.734375 7.515625 166.695312 C 6.984375 166.613281 6.515625 167.035156 6.398438 167.542969 L 6.382812 167.566406 L 6.367188 167.621094 L 6.339844 167.710938 L 6.292969 167.882812 L 6.285156 167.921875 C 6.175781 167.789062 6.054688 167.644531 5.96875 167.496094 C 6.128906 166.84375 6.652344 166.234375 7.339844 166.210938 Z M 7.660156 166.210938 Z M 7.660156 166.210938 "/>
<path style=" stroke:none;fill-rule:nonzero;fill:rgb(0%,0%,0%);fill-opacity:1;" d="M 11.023438 170.925781 L 11.023438 171.558594 L 10.382812 171.558594 L 10.382812 170.925781 Z M 11.023438 170.925781 Z M 11.023438 170.925781 "/>
<path style=" stroke:none;fill-rule:nonzero;fill:rgb(0%,0%,0%);fill-opacity:1;" d="M 13.914062 166.210938 C 14.667969 166.265625 15.167969 166.957031 15.300781 167.652344 C 15.375 167.972656 15.390625 168.273438 15.421875 168.589844 L 15.421875 169.398438 C 15.382812 170.226562 15.183594 171.3125 14.285156 171.644531 C 13.507812 171.957031 12.597656 171.472656 12.367188 170.679688 C 12.191406 170.257812 12.175781 169.828125 12.136719 169.398438 L 12.136719 168.589844 C 12.175781 167.765625 12.351562 166.667969 13.238281 166.304688 L 13.277344 166.289062 L 13.308594 166.28125 L 13.351562 166.265625 L 13.46875 166.234375 L 13.539062 166.21875 L 13.628906 166.21875 L 13.644531 166.210938 Z M 13.914062 166.210938 Z M 13.667969 166.695312 C 13 166.773438 12.800781 167.574219 12.753906 168.113281 L 12.753906 168.328125 L 12.738281 168.34375 L 12.738281 169.449219 C 12.785156 170.019531 12.824219 170.757812 13.351562 171.136719 C 13.835938 171.472656 14.476562 171.097656 14.613281 170.582031 C 14.753906 170.203125 14.785156 169.828125 14.816406 169.449219 L 14.816406 168.34375 C 14.769531 167.765625 14.691406 166.957031 14.023438 166.726562 L 13.96875 166.710938 L 13.953125 166.695312 L 13.882812 166.695312 L 13.867188 166.675781 L 13.683594 166.675781 Z M 13.667969 166.695312 Z M 13.667969 166.695312 "/>
<path style=" stroke:none;fill-rule:nonzero;fill:rgb(0%,0%,0%);fill-opacity:1;" d="M 5.160156 146.253906 L 5.160156 146.695312 L 3.078125 146.695312 L 3.078125 146.253906 Z M 5.160156 146.253906 Z M 5.160156 146.253906 "/>
<path style=" stroke:none;fill-rule:nonzero;fill:rgb(0%,0%,0%);fill-opacity:1;" d="M 7.992188 142.871094 L 7.992188 147.769531 L 8 147.785156 L 8.976562 147.785156 L 8.976562 148.21875 L 6.398438 148.21875 L 6.398438 147.785156 L 7.375 147.785156 L 7.390625 147.769531 L 7.390625 143.65625 C 7.054688 143.769531 6.707031 143.839844 6.359375 143.832031 L 6.359375 143.386719 C 6.882812 143.394531 7.453125 143.253906 7.851562 142.871094 Z M 7.992188 142.871094 Z M 7.992188 142.871094 "/>
<path style=" stroke:none;fill-rule:nonzero;fill:rgb(0%,0%,0%);fill-opacity:1;" d="M 11.023438 147.585938 L 11.023438 148.21875 L 10.382812 148.21875 L 10.382812 147.585938 Z M 11.023438 147.585938 Z M 11.023438 147.585938 "/>
<path style=" stroke:none;fill-rule:nonzero;fill:rgb(0%,0%,0%);fill-opacity:1;" d="M 15.089844 143.039062 L 15.089844 143.53125 L 13.023438 143.53125 L 13.007812 143.539062 L 13.007812 145.164062 C 13.199219 145.039062 13.46875 144.871094 13.722656 144.863281 C 14.621094 144.769531 15.308594 145.648438 15.351562 146.464844 C 15.476562 147.507812 14.5 148.539062 13.453125 148.378906 C 12.929688 148.363281 12.421875 148.054688 12.121094 147.625 C 12.207031 147.507812 12.277344 147.300781 12.382812 147.226562 C 12.753906 147.957031 13.960938 148.253906 14.445312 147.480469 C 14.753906 146.902344 14.746094 146.164062 14.390625 145.609375 C 13.976562 145.078125 13.160156 145.402344 12.96875 145.964844 L 12.453125 145.964844 L 12.453125 143.039062 Z M 15.089844 143.039062 Z M 15.089844 143.039062 "/>
<path style=" stroke:none;fill-rule:nonzero;fill:rgb(0%,0%,0%);fill-opacity:1;" d="M 5.160156 122.914062 L 5.160156 123.359375 L 3.078125 123.359375 L 3.078125 122.914062 Z M 5.160156 122.914062 Z M 5.160156 122.914062 "/>
<path style=" stroke:none;fill-rule:nonzero;fill:rgb(0%,0%,0%);fill-opacity:1;" d="M 7.992188 119.53125 L 7.992188 124.429688 L 8 124.445312 L 8.976562 124.445312 L 8.976562 124.882812 L 6.398438 124.882812 L 6.398438 124.445312 L 7.375 124.445312 L 7.390625 124.429688 L 7.390625 120.320312 C 7.054688 120.429688 6.707031 120.5 6.359375 120.492188 L 6.359375 120.046875 C 6.882812 120.054688 7.453125 119.914062 7.851562 119.53125 Z M 7.992188 119.53125 Z M 7.992188 119.53125 "/>
<path style=" stroke:none;fill-rule:nonzero;fill:rgb(0%,0%,0%);fill-opacity:1;" d="M 11.023438 124.246094 L 11.023438 124.882812 L 10.382812 124.882812 L 10.382812 124.246094 Z M 11.023438 124.246094 Z M 11.023438 124.246094 "/>
<path style=" stroke:none;fill-rule:nonzero;fill:rgb(0%,0%,0%);fill-opacity:1;" d="M 13.914062 119.53125 C 14.667969 119.589844 15.167969 120.277344 15.300781 120.976562 C 15.375 121.292969 15.390625 121.597656 15.421875 121.914062 L 15.421875 122.722656 C 15.382812 123.550781 15.183594 124.636719 14.285156 124.96875 C 13.507812 125.277344 12.597656 124.796875 12.367188 124 C 12.191406 123.582031 12.175781 123.152344 12.136719 122.722656 L 12.136719 121.914062 C 12.175781 121.089844 12.351562 119.992188 13.238281 119.628906 L 13.277344 119.613281 L 13.308594 119.605469 L 13.351562 119.589844 L 13.46875 119.554688 L 13.539062 119.539062 L 13.628906 119.539062 L 13.644531 119.53125 Z M 13.914062 119.53125 Z M 13.667969 120.015625 C 13 120.097656 12.800781 120.898438 12.753906 121.4375 L 12.753906 121.652344 L 12.738281 121.667969 L 12.738281 122.769531 C 12.785156 123.34375 12.824219 124.082031 13.351562 124.460938 C 13.835938 124.796875 14.476562 124.421875 14.613281 123.90625 C 14.753906 123.523438 14.785156 123.152344 14.816406 122.769531 L 14.816406 121.667969 C 14.769531 121.089844 14.691406 120.277344 14.023438 120.046875 L 13.96875 120.03125 L 13.953125 120.015625 L 13.882812 120.015625 L 13.867188 120 L 13.683594 120 Z M 13.667969 120.015625 Z M 13.667969 120.015625 "/>
<path style=" stroke:none;fill-rule:nonzero;fill:rgb(0%,0%,0%);fill-opacity:1;" d="M 5.160156 99.574219 L 5.160156 100.019531 L 3.078125 100.019531 L 3.078125 99.574219 Z M 5.160156 99.574219 Z M 5.160156 99.574219 "/>
<path style=" stroke:none;fill-rule:nonzero;fill:rgb(0%,0%,0%);fill-opacity:1;" d="M 7.746094 96.195312 C 8.5 96.25 9 96.941406 9.136719 97.640625 C 9.207031 97.957031 9.222656 98.257812 9.253906 98.574219 L 9.253906 99.386719 C 9.214844 100.210938 9.015625 101.296875 8.121094 101.632812 C 7.339844 101.941406 6.429688 101.457031 6.199219 100.664062 C 6.023438 100.242188 6.007812 99.8125 5.96875 99.386719 L 5.96875 98.574219 C 6.007812 97.75 6.183594 96.65625 7.070312 96.289062 L 7.113281 96.273438 L 7.144531 96.265625 L 7.183594 96.25 L 7.300781 96.21875 L 7.375 96.203125 L 7.460938 96.203125 L 7.476562 96.195312 Z M 7.746094 96.195312 Z M 7.5 96.679688 C 6.832031 96.757812 6.636719 97.558594 6.585938 98.097656 L 6.585938 98.3125 L 6.570312 98.328125 L 6.570312 99.433594 C 6.621094 100.003906 6.660156 100.742188 7.183594 101.125 C 7.667969 101.457031 8.308594 101.082031 8.445312 100.566406 C 8.585938 100.1875 8.621094 99.8125 8.652344 99.433594 L 8.652344 98.328125 C 8.605469 97.75 8.523438 96.941406 7.859375 96.710938 L 7.800781 96.695312 L 7.785156 96.679688 L 7.714844 96.679688 L 7.699219 96.664062 L 7.515625 96.664062 Z M 7.5 96.679688 Z M 7.5 96.679688 "/>
<path style=" stroke:none;fill-rule:nonzero;fill:rgb(0%,0%,0%);fill-opacity:1;" d="M 11.023438 100.910156 L 11.023438 101.542969 L 10.382812 101.542969 L 10.382812 100.910156 Z M 11.023438 100.910156 Z M 11.023438 100.910156 "/>
<path style=" stroke:none;fill-rule:nonzero;fill:rgb(0%,0%,0%);fill-opacity:1;" d="M 15.089844 96.359375 L 15.089844 96.851562 L 13.023438 96.851562 L 13.007812 96.859375 L 13.007812 98.488281 C 13.199219 98.359375 13.46875 98.195312 13.722656 98.1875 C 14.621094 98.089844 15.308594 98.972656 15.351562 99.789062 C 15.476562 100.828125 14.5 101.863281 13.453125 101.703125 C 12.929688 101.6875 12.421875 101.378906 12.121094 100.949219 C 12.207031 100.828125 12.277344 100.625 12.382812 100.550781 C 12.753906 101.28125 13.960938 101.574219 14.445312 100.804688 C 14.753906 100.226562 14.746094 99.488281 14.390625 98.933594 C 13.976562 98.402344 13.160156 98.726562 12.96875 99.289062 L 12.453125 99.289062 L 12.453125 96.359375 Z M 15.089844 96.359375 Z M 15.089844 96.359375 "/>
<path style=" stroke:none;fill-rule:nonzero;fill:rgb(0%,0%,0%);fill-opacity:1;" d="M 7.746094 72.855469 C 8.5 72.910156 9 73.601562 9.136719 74.300781 C 9.207031 74.617188 9.222656 74.917969 9.253906 75.238281 L 9.253906 76.046875 C 9.214844 76.871094 9.015625 77.960938 8.121094 78.292969 C 7.339844 78.601562 6.429688 78.117188 6.199219 77.324219 C 6.023438 76.902344 6.007812 76.476562 5.96875 76.046875 L 5.96875 75.238281 C 6.007812 74.410156 6.183594 73.316406 7.070312 72.953125 L 7.113281 72.9375 L 7.144531 72.925781 L 7.183594 72.910156 L 7.300781 72.878906 L 7.375 72.863281 L 7.460938 72.863281 L 7.476562 72.855469 Z M 7.746094 72.855469 Z M 7.5 73.339844 C 6.832031 73.417969 6.636719 74.222656 6.585938 74.761719 L 6.585938 74.976562 L 6.570312 74.992188 L 6.570312 76.09375 C 6.621094 76.664062 6.660156 77.402344 7.183594 77.785156 C 7.667969 78.117188 8.308594 77.746094 8.445312 77.230469 C 8.585938 76.847656 8.621094 76.476562 8.652344 76.09375 L 8.652344 74.992188 C 8.605469 74.410156 8.523438 73.601562 7.859375 73.371094 L 7.800781 73.355469 L 7.785156 73.339844 L 7.714844 73.339844 L 7.699219 73.324219 L 7.515625 73.324219 Z M 7.5 73.339844 Z M 7.5 73.339844 "/>
<path style=" stroke:none;fill-rule:nonzero;fill:rgb(0%,0%,0%);fill-opacity:1;" d="M 11.023438 77.570312 L 11.023438 78.207031 L 10.382812 78.207031 L 10.382812 77.570312 Z M 11.023438 77.570312 Z M 11.023438 77.570312 "/>
<path style=" stroke:none;fill-rule:nonzero;fill:rgb(0%,0%,0%);fill-opacity:1;" d="M 13.914062 72.855469 C 14.667969 72.910156 15.167969 73.601562 15.300781 74.300781 C 15.375 74.617188 15.390625 74.917969 15.421875 75.238281 L 15.421875 76.046875 C 15.382812 76.871094 15.183594 77.960938 14.285156 78.292969 C 13.507812 78.601562 12.597656 78.117188 12.367188 77.324219 C 12.191406 76.902344 12.175781 76.476562 12.136719 76.046875 L 12.136719 75.238281 C 12.175781 74.410156 12.351562 73.316406 13.238281 72.953125 L 13.277344 72.9375 L 13.308594 72.925781 L 13.351562 72.910156 L 13.46875 72.878906 L 13.539062 72.863281 L 13.628906 72.863281 L 13.644531 72.855469 Z M 13.914062 72.855469 Z M 13.667969 73.339844 C 13 73.417969 12.800781 74.222656 12.753906 74.761719 L 12.753906 74.976562 L 12.738281 74.992188 L 12.738281 76.09375 C 12.785156 76.664062 12.824219 77.402344 13.351562 77.785156 C 13.835938 78.117188 14.476562 77.746094 14.613281 77.230469 C 14.753906 76.847656 14.785156 76.476562 14.816406 76.09375 L 14.816406 74.992188 C 14.769531 74.410156 14.691406 73.601562 14.023438 73.371094 L 13.96875 73.355469 L 13.953125 73.339844 L 13.882812 73.339844 L 13.867188 73.324219 L 13.683594 73.324219 Z M 13.667969 73.339844 Z M 13.667969 73.339844 "/>
<path style=" stroke:none;fill-rule:nonzero;fill:rgb(0%,0%,0%);fill-opacity:1;" d="M 7.746094 49.519531 C 8.5 49.574219 9 50.265625 9.136719 50.960938 C 9.207031 51.28125 9.222656 51.582031 9.253906 51.898438 L 9.253906 52.707031 C 9.214844 53.535156 9.015625 54.621094 8.121094 54.953125 C 7.339844 55.265625 6.429688 54.78125 6.199219 53.988281 C 6.023438 53.566406 6.007812 53.136719 5.96875 52.707031 L 5.96875 51.898438 C 6.007812 51.074219 6.183594 49.976562 7.070312 49.613281 L 7.113281 49.597656 L 7.144531 49.589844 L 7.183594 49.574219 L 7.300781 49.542969 L 7.375 49.527344 L 7.460938 49.527344 L 7.476562 49.519531 Z M 7.746094 49.519531 Z M 7.5 50.003906 C 6.832031 50.082031 6.636719 50.882812 6.585938 51.421875 L 6.585938 51.636719 L 6.570312 51.652344 L 6.570312 52.757812 C 6.621094 53.328125 6.660156 54.066406 7.183594 54.445312 C 7.667969 54.78125 8.308594 54.40625 8.445312 53.890625 C 8.585938 53.511719 8.621094 53.136719 8.652344 52.757812 L 8.652344 51.652344 C 8.605469 51.074219 8.523438 50.265625 7.859375 50.035156 L 7.800781 50.019531 L 7.785156 50.003906 L 7.714844 50.003906 L 7.699219 49.984375 L 7.515625 49.984375 Z M 7.5 50.003906 Z M 7.5 50.003906 "/>
<path style=" stroke:none;fill-rule:nonzero;fill:rgb(0%,0%,0%);fill-opacity:1;" d="M 11.023438 54.234375 L 11.023438 54.867188 L 10.382812 54.867188 L 10.382812 54.234375 Z M 11.023438 54.234375 Z M 11.023438 54.234375 "/>
<path style=" stroke:none;fill-rule:nonzero;fill:rgb(0%,0%,0%);fill-opacity:1;" d="M 15.089844 49.683594 L 15.089844 50.175781 L 13.023438 50.175781 L 13.007812 50.183594 L 13.007812 51.8125 C 13.199219 51.683594 13.46875 51.519531 13.722656 51.511719 C 14.621094 51.414062 15.308594 52.296875 15.351562 53.113281 C 15.476562 54.152344 14.5 55.183594 13.453125 55.027344 C 12.929688 55.011719 12.421875 54.699219 12.121094 54.273438 C 12.207031 54.152344 12.277344 53.945312 12.382812 53.875 C 12.753906 54.605469 13.960938 54.898438 14.445312 54.128906 C 14.753906 53.550781 14.746094 52.8125 14.390625 52.257812 C 13.976562 51.722656 13.160156 52.050781 12.96875 52.613281 L 12.453125 52.613281 L 12.453125 49.683594 Z M 15.089844 49.683594 Z M 15.089844 49.683594 "/>
<path style=" stroke:none;fill-rule:nonzero;fill:rgb(0%,0%,0%);fill-opacity:1;" d="M 7.992188 26.179688 L 7.992188 31.078125 L 8 31.09375 L 8.976562 31.09375 L 8.976562 31.527344 L 6.398438 31.527344 L 6.398438 31.09375 L 7.375 31.09375 L 7.390625 31.078125 L 7.390625 26.964844 C 7.054688 27.078125 6.707031 27.148438 6.359375 27.140625 L 6.359375 26.695312 C 6.882812 26.703125 7.453125 26.5625 7.851562 26.179688 Z M 7.992188 26.179688 Z M 7.992188 26.179688 "/>
<path style=" stroke:none;fill-rule:nonzero;fill:rgb(0%,0%,0%);fill-opacity:1;" d="M 11.023438 30.894531 L 11.023438 31.527344 L 10.382812 31.527344 L 10.382812 30.894531 Z M 11.023438 30.894531 Z M 11.023438 30.894531 "/>
<path style=" stroke:none;fill-rule:nonzero;fill:rgb(0%,0%,0%);fill-opacity:1;" d="M 13.914062 26.179688 C 14.667969 26.234375 15.167969 26.925781 15.300781 27.625 C 15.375 27.941406 15.390625 28.242188 15.421875 28.5625 L 15.421875 29.371094 C 15.382812 30.195312 15.183594 31.28125 14.285156 31.617188 C 13.507812 31.925781 12.597656 31.441406 12.367188 30.648438 C 12.191406 30.226562 12.175781 29.800781 12.136719 29.371094 L 12.136719 28.5625 C 12.175781 27.734375 12.351562 26.640625 13.238281 26.273438 L 13.277344 26.257812 L 13.308594 26.25 L 13.351562 26.234375 L 13.46875 26.203125 L 13.539062 26.1875 L 13.628906 26.1875 L 13.644531 26.179688 Z M 13.914062 26.179688 Z M 13.667969 26.664062 C 13 26.742188 12.800781 27.542969 12.753906 28.085938 L 12.753906 28.300781 L 12.738281 28.316406 L 12.738281 29.417969 C 12.785156 29.988281 12.824219 30.726562 13.351562 31.109375 C 13.835938 31.441406 14.476562 31.070312 14.613281 30.554688 C 14.753906 30.171875 14.785156 29.800781 14.816406 29.417969 L 14.816406 28.316406 C 14.769531 27.734375 14.691406 26.925781 14.023438 26.695312 L 13.96875 26.679688 L 13.953125 26.664062 L 13.882812 26.664062 L 13.867188 26.648438 L 13.683594 26.648438 Z M 13.667969 26.664062 Z M 13.667969 26.664062 "/>
<path style=" stroke:none;fill-rule:nonzero;fill:rgb(0%,0%,0%);fill-opacity:1;" d="M 7.992188 2.839844 L 7.992188 7.738281 L 8 7.753906 L 8.976562 7.753906 L 8.976562 8.191406 L 6.398438 8.191406 L 6.398438 7.753906 L 7.375 7.753906 L 7.390625 7.738281 L 7.390625 3.628906 C 7.054688 3.738281 6.707031 3.808594 6.359375 3.800781 L 6.359375 3.355469 C 6.882812 3.363281 7.453125 3.222656 7.851562 2.839844 Z M 7.992188 2.839844 Z M 7.992188 2.839844 "/>
<path style=" stroke:none;fill-rule:nonzero;fill:rgb(0%,0%,0%);fill-opacity:1;" d="M 11.023438 7.554688 L 11.023438 8.191406 L 10.382812 8.191406 L 10.382812 7.554688 Z M 11.023438 7.554688 Z M 11.023438 7.554688 "/>
<path style=" stroke:none;fill-rule:nonzero;fill:rgb(0%,0%,0%);fill-opacity:1;" d="M 15.089844 3.007812 L 15.089844 3.5 L 13.023438 3.5 L 13.007812 3.507812 L 13.007812 5.136719 C 13.199219 5.007812 13.46875 4.839844 13.722656 4.832031 C 14.621094 4.738281 15.308594 5.621094 15.351562 6.4375 C 15.476562 7.476562 14.5 8.507812 13.453125 8.351562 C 12.929688 8.332031 12.421875 8.023438 12.121094 7.59375 C 12.207031 7.476562 12.277344 7.269531 12.382812 7.199219 C 12.753906 7.929688 13.960938 8.222656 14.445312 7.453125 C 14.753906 6.875 14.746094 6.136719 14.390625 5.578125 C 13.976562 5.046875 13.160156 5.375 12.96875 5.9375 L 12.453125 5.9375 L 12.453125 3.007812 Z M 15.089844 3.007812 Z M 15.089844 3.007812 "/>
<path style="fill:none;stroke-width:0.02;stroke-linecap:butt;stroke-linejoin:miter;stroke:rgb(0%,0%,0%);stroke-opacity:1;stroke-miterlimit:10;" d="M 9.751274 1.251747 L 9.646267 1.251747 " transform="matrix(28.346457,0,0,-28.346457,1,227.771654)"/>
<path style="fill:none;stroke-width:0.02;stroke-linecap:butt;stroke-linejoin:miter;stroke:rgb(0%,0%,0%);stroke-opacity:1;stroke-miterlimit:10;" d="M 9.751274 2.074987 L 9.646267 2.074987 " transform="matrix(28.346457,0,0,-28.346457,1,227.771654)"/>
<path style="fill:none;stroke-width:0.02;stroke-linecap:butt;stroke-linejoin:miter;stroke:rgb(0%,0%,0%);stroke-opacity:1;stroke-miterlimit:10;" d="M 9.751274 2.898365 L 9.646267 2.898365 " transform="matrix(28.346457,0,0,-28.346457,1,227.771654)"/>
<path style="fill:none;stroke-width:0.02;stroke-linecap:butt;stroke-linejoin:miter;stroke:rgb(0%,0%,0%);stroke-opacity:1;stroke-miterlimit:10;" d="M 9.751274 3.721743 L 9.646267 3.721743 " transform="matrix(28.346457,0,0,-28.346457,1,227.771654)"/>
<path style="fill:none;stroke-width:0.02;stroke-linecap:butt;stroke-linejoin:miter;stroke:rgb(0%,0%,0%);stroke-opacity:1;stroke-miterlimit:10;" d="M 9.751274 4.544983 L 9.646267 4.544983 " transform="matrix(28.346457,0,0,-28.346457,1,227.771654)"/>
<path style="fill:none;stroke-width:0.02;stroke-linecap:butt;stroke-linejoin:miter;stroke:rgb(0%,0%,0%);stroke-opacity:1;stroke-miterlimit:10;" d="M 9.751274 5.36836 L 9.646267 5.36836 " transform="matrix(28.346457,0,0,-28.346457,1,227.771654)"/>
<path style="fill:none;stroke-width:0.02;stroke-linecap:butt;stroke-linejoin:miter;stroke:rgb(0%,0%,0%);stroke-opacity:1;stroke-miterlimit:10;" d="M 9.751274 6.1916 L 9.646267 6.1916 " transform="matrix(28.346457,0,0,-28.346457,1,227.771654)"/>
<path style="fill:none;stroke-width:0.02;stroke-linecap:butt;stroke-linejoin:miter;stroke:rgb(0%,0%,0%);stroke-opacity:1;stroke-miterlimit:10;" d="M 9.751274 7.014978 L 9.646267 7.014978 " transform="matrix(28.346457,0,0,-28.346457,1,227.771654)"/>
<path style="fill:none;stroke-width:0.02;stroke-linecap:round;stroke-linejoin:miter;stroke:rgb(0%,0%,0%);stroke-opacity:1;stroke-miterlimit:10;" d="M 9.751274 0.428369 L 9.751274 7.838356 " transform="matrix(28.346457,0,0,-28.346457,1,227.771654)"/>
<path style="fill:none;stroke-width:0.02;stroke-linecap:butt;stroke-linejoin:miter;stroke:rgb(0%,0%,0%);stroke-opacity:1;stroke-miterlimit:10;" d="M 1.827692 0.428369 L 1.827692 0.533376 " transform="matrix(28.346457,0,0,-28.346457,1,227.771654)"/>
<path style="fill:none;stroke-width:0.02;stroke-linecap:butt;stroke-linejoin:miter;stroke:rgb(0%,0%,0%);stroke-opacity:1;stroke-miterlimit:10;" d="M 2.959613 0.428369 L 2.959613 0.533376 " transform="matrix(28.346457,0,0,-28.346457,1,227.771654)"/>
<path style="fill:none;stroke-width:0.02;stroke-linecap:butt;stroke-linejoin:miter;stroke:rgb(0%,0%,0%);stroke-opacity:1;stroke-miterlimit:10;" d="M 4.091533 0.428369 L 4.091533 0.533376 " transform="matrix(28.346457,0,0,-28.346457,1,227.771654)"/>
<path style="fill:none;stroke-width:0.02;stroke-linecap:butt;stroke-linejoin:miter;stroke:rgb(0%,0%,0%);stroke-opacity:1;stroke-miterlimit:10;" d="M 5.223454 0.428369 L 5.223454 0.533376 " transform="matrix(28.346457,0,0,-28.346457,1,227.771654)"/>
<path style="fill:none;stroke-width:0.02;stroke-linecap:butt;stroke-linejoin:miter;stroke:rgb(0%,0%,0%);stroke-opacity:1;stroke-miterlimit:10;" d="M 6.355374 0.428369 L 6.355374 0.533376 " transform="matrix(28.346457,0,0,-28.346457,1,227.771654)"/>
<path style="fill:none;stroke-width:0.02;stroke-linecap:butt;stroke-linejoin:miter;stroke:rgb(0%,0%,0%);stroke-opacity:1;stroke-miterlimit:10;" d="M 7.487433 0.428369 L 7.487433 0.533376 " transform="matrix(28.346457,0,0,-28.346457,1,227.771654)"/>
<path style="fill:none;stroke-width:0.02;stroke-linecap:butt;stroke-linejoin:miter;stroke:rgb(0%,0%,0%);stroke-opacity:1;stroke-miterlimit:10;" d="M 8.619353 0.428369 L 8.619353 0.533376 " transform="matrix(28.346457,0,0,-28.346457,1,227.771654)"/>
<path style="fill:none;stroke-width:0.02;stroke-linecap:round;stroke-linejoin:miter;stroke:rgb(0%,0%,0%);stroke-opacity:1;stroke-miterlimit:10;" d="M 0.695771 0.428369 L 9.751274 0.428369 " transform="matrix(28.346457,0,0,-28.346457,1,227.771654)"/>
<path style=" stroke:none;fill-rule:nonzero;fill:rgb(0%,0%,0%);fill-opacity:1;" d="M 18.019531 220.445312 L 18.019531 225.34375 L 18.027344 225.359375 L 19.003906 225.359375 L 19.003906 225.796875 L 16.425781 225.796875 L 16.425781 225.359375 L 17.402344 225.359375 L 17.417969 225.34375 L 17.417969 221.230469 C 17.085938 221.34375 16.734375 221.414062 16.386719 221.40625 L 16.386719 220.960938 C 16.910156 220.96875 17.480469 220.828125 17.878906 220.445312 Z M 18.019531 220.445312 Z M 18.019531 220.445312 "/>
<path style=" stroke:none;fill-rule:nonzero;fill:rgb(0%,0%,0%);fill-opacity:1;" d="M 21.054688 225.160156 L 21.054688 225.796875 L 20.410156 225.796875 L 20.410156 225.160156 Z M 21.054688 225.160156 Z M 21.054688 225.160156 "/>
<path style=" stroke:none;fill-rule:nonzero;fill:rgb(0%,0%,0%);fill-opacity:1;" d="M 23.941406 220.445312 C 24.695312 220.5 25.195312 221.191406 25.332031 221.890625 C 25.402344 222.207031 25.417969 222.507812 25.449219 222.828125 L 25.449219 223.636719 C 25.410156 224.460938 25.210938 225.550781 24.316406 225.882812 C 23.539062 226.191406 22.625 225.707031 22.394531 224.914062 C 22.21875 224.492188 22.203125 224.066406 22.164062 223.636719 L 22.164062 222.828125 C 22.203125 222 22.378906 220.90625 23.265625 220.542969 L 23.308594 220.523438 L 23.339844 220.515625 L 23.378906 220.5 L 23.496094 220.46875 L 23.570312 220.453125 L 23.65625 220.453125 L 23.671875 220.445312 Z M 23.941406 220.445312 Z M 23.695312 220.929688 C 23.027344 221.007812 22.832031 221.8125 22.78125 222.351562 L 22.78125 222.566406 L 22.765625 222.582031 L 22.765625 223.683594 C 22.816406 224.253906 22.855469 224.992188 23.378906 225.375 C 23.863281 225.707031 24.503906 225.335938 24.640625 224.820312 C 24.785156 224.4375 24.816406 224.066406 24.847656 223.683594 L 24.847656 222.582031 C 24.800781 222 24.71875 221.191406 24.054688 220.960938 L 23.996094 220.945312 L 23.980469 220.929688 L 23.910156 220.929688 L 23.894531 220.914062 L 23.710938 220.914062 Z M 23.695312 220.929688 Z M 23.695312 220.929688 "/>
<path style=" stroke:none;fill-rule:nonzero;fill:rgb(0%,0%,0%);fill-opacity:1;" d="M 50.105469 220.445312 L 50.105469 225.34375 L 50.113281 225.359375 L 51.089844 225.359375 L 51.089844 225.796875 L 48.511719 225.796875 L 48.511719 225.359375 L 49.488281 225.359375 L 49.503906 225.34375 L 49.503906 221.230469 C 49.171875 221.34375 48.820312 221.414062 48.472656 221.40625 L 48.472656 220.960938 C 48.996094 220.96875 49.566406 220.828125 49.964844 220.445312 Z M 50.105469 220.445312 Z M 50.105469 220.445312 "/>
<path style=" stroke:none;fill-rule:nonzero;fill:rgb(0%,0%,0%);fill-opacity:1;" d="M 53.140625 225.160156 L 53.140625 225.796875 L 52.496094 225.796875 L 52.496094 225.160156 Z M 53.140625 225.160156 Z M 53.140625 225.160156 "/>
<path style=" stroke:none;fill-rule:nonzero;fill:rgb(0%,0%,0%);fill-opacity:1;" d="M 57.203125 220.613281 L 57.203125 221.105469 L 55.140625 221.105469 L 55.125 221.113281 L 55.125 222.738281 C 55.3125 222.613281 55.582031 222.445312 55.835938 222.4375 C 56.734375 222.34375 57.425781 223.222656 57.464844 224.042969 C 57.589844 225.082031 56.617188 226.113281 55.566406 225.953125 C 55.042969 225.9375 54.535156 225.628906 54.234375 225.199219 C 54.320312 225.082031 54.394531 224.875 54.496094 224.804688 C 54.871094 225.535156 56.074219 225.828125 56.558594 225.058594 C 56.871094 224.476562 56.863281 223.738281 56.503906 223.183594 C 56.089844 222.652344 55.273438 222.976562 55.082031 223.542969 L 54.566406 223.542969 L 54.566406 220.613281 Z M 57.203125 220.613281 Z M 57.203125 220.613281 "/>
<path style=" stroke:none;fill-rule:nonzero;fill:rgb(0%,0%,0%);fill-opacity:1;" d="M 81.859375 220.445312 C 82.78125 220.46875 83.511719 221.414062 83.367188 222.304688 C 83.273438 223.191406 82.4375 223.699219 81.84375 224.253906 L 81.589844 224.515625 L 81.558594 224.535156 L 81.242188 224.84375 L 81.21875 224.859375 L 80.898438 225.175781 L 80.867188 225.191406 L 80.796875 225.261719 L 80.8125 225.273438 L 83.382812 225.273438 L 83.382812 225.796875 L 80.242188 225.796875 L 80.242188 225.320312 L 81.519531 224.042969 C 82.128906 223.507812 82.84375 222.820312 82.734375 221.945312 C 82.667969 221.4375 82.242188 220.96875 81.71875 220.929688 C 81.183594 220.851562 80.71875 221.269531 80.597656 221.777344 L 80.582031 221.804688 L 80.566406 221.859375 L 80.542969 221.945312 L 80.496094 222.121094 L 80.488281 222.160156 C 80.375 222.023438 80.257812 221.882812 80.167969 221.730469 C 80.328125 221.082031 80.851562 220.46875 81.542969 220.445312 Z M 81.859375 220.445312 Z M 81.859375 220.445312 "/>
<path style=" stroke:none;fill-rule:nonzero;fill:rgb(0%,0%,0%);fill-opacity:1;" d="M 85.226562 225.160156 L 85.226562 225.796875 L 84.582031 225.796875 L 84.582031 225.160156 Z M 85.226562 225.160156 Z M 85.226562 225.160156 "/>
<path style=" stroke:none;fill-rule:nonzero;fill:rgb(0%,0%,0%);fill-opacity:1;" d="M 88.113281 220.445312 C 88.867188 220.5 89.367188 221.191406 89.503906 221.890625 C 89.574219 222.207031 89.589844 222.507812 89.621094 222.828125 L 89.621094 223.636719 C 89.582031 224.460938 89.382812 225.550781 88.488281 225.882812 C 87.710938 226.191406 86.796875 225.707031 86.566406 224.914062 C 86.390625 224.492188 86.375 224.066406 86.335938 223.636719 L 86.335938 222.828125 C 86.375 222 86.550781 220.90625 87.441406 220.542969 L 87.480469 220.523438 L 87.511719 220.515625 L 87.550781 220.5 L 87.667969 220.46875 L 87.742188 220.453125 L 87.828125 220.453125 L 87.84375 220.445312 Z M 88.113281 220.445312 Z M 87.867188 220.929688 C 87.203125 221.007812 87.003906 221.8125 86.957031 222.351562 L 86.957031 222.566406 L 86.941406 222.582031 L 86.941406 223.683594 C 86.988281 224.253906 87.027344 224.992188 87.550781 225.375 C 88.035156 225.707031 88.675781 225.335938 88.8125 224.820312 C 88.957031 224.4375 88.988281 224.066406 89.019531 223.683594 L 89.019531 222.582031 C 88.972656 222 88.890625 221.191406 88.226562 220.960938 L 88.167969 220.945312 L 88.152344 220.929688 L 88.082031 220.929688 L 88.066406 220.914062 L 87.882812 220.914062 Z M 87.867188 220.929688 Z M 87.867188 220.929688 "/>
<path style=" stroke:none;fill-rule:nonzero;fill:rgb(0%,0%,0%);fill-opacity:1;" d="M 113.945312 220.445312 C 114.867188 220.46875 115.597656 221.414062 115.453125 222.304688 C 115.359375 223.191406 114.523438 223.699219 113.929688 224.253906 L 113.675781 224.515625 L 113.644531 224.535156 L 113.328125 224.84375 L 113.304688 224.859375 L 112.984375 225.175781 L 112.953125 225.191406 L 112.882812 225.261719 L 112.898438 225.273438 L 115.46875 225.273438 L 115.46875 225.796875 L 112.328125 225.796875 L 112.328125 225.320312 L 113.605469 224.042969 C 114.214844 223.507812 114.929688 222.820312 114.820312 221.945312 C 114.753906 221.4375 114.328125 220.96875 113.804688 220.929688 C 113.269531 220.851562 112.804688 221.269531 112.683594 221.777344 L 112.667969 221.804688 L 112.652344 221.859375 L 112.628906 221.945312 L 112.582031 222.121094 L 112.574219 222.160156 C 112.460938 222.023438 112.34375 221.882812 112.253906 221.730469 C 112.414062 221.082031 112.9375 220.46875 113.628906 220.445312 Z M 113.945312 220.445312 Z M 113.945312 220.445312 "/>
<path style=" stroke:none;fill-rule:nonzero;fill:rgb(0%,0%,0%);fill-opacity:1;" d="M 117.3125 225.160156 L 117.3125 225.796875 L 116.667969 225.796875 L 116.667969 225.160156 Z M 117.3125 225.160156 Z M 117.3125 225.160156 "/>
<path style=" stroke:none;fill-rule:nonzero;fill:rgb(0%,0%,0%);fill-opacity:1;" d="M 121.375 220.613281 L 121.375 221.105469 L 119.3125 221.105469 L 119.296875 221.113281 L 119.296875 222.738281 C 119.484375 222.613281 119.753906 222.445312 120.011719 222.4375 C 120.90625 222.34375 121.597656 223.222656 121.636719 224.042969 C 121.765625 225.082031 120.789062 226.113281 119.738281 225.953125 C 119.214844 225.9375 118.707031 225.628906 118.40625 225.199219 C 118.492188 225.082031 118.566406 224.875 118.667969 224.804688 C 119.042969 225.535156 120.246094 225.828125 120.730469 225.058594 C 121.042969 224.476562 121.035156 223.738281 120.675781 223.183594 C 120.265625 222.652344 119.445312 222.976562 119.253906 223.542969 L 118.738281 223.542969 L 118.738281 220.613281 Z M 121.375 220.613281 Z M 121.375 220.613281 "/>
<path style=" stroke:none;fill-rule:nonzero;fill:rgb(0%,0%,0%);fill-opacity:1;" d="M 146.136719 220.445312 C 146.832031 220.476562 147.5625 221.121094 147.398438 221.859375 C 147.316406 222.359375 146.96875 222.769531 146.53125 222.992188 C 147.238281 223.214844 147.785156 223.960938 147.59375 224.699219 C 147.40625 225.660156 146.300781 226.191406 145.414062 225.898438 C 144.984375 225.773438 144.546875 225.5 144.339844 225.105469 C 144.390625 224.984375 144.375 224.78125 144.429688 224.699219 C 144.847656 225.320312 145.738281 225.738281 146.4375 225.390625 C 147.199219 224.90625 147.078125 223.492188 146.160156 223.253906 L 146.085938 223.253906 L 146.070312 223.238281 L 145.332031 223.238281 L 145.332031 222.761719 C 145.785156 222.753906 146.347656 222.699219 146.605469 222.230469 C 146.875 221.828125 146.847656 221.160156 146.332031 220.960938 C 145.722656 220.722656 144.96875 221.113281 144.738281 221.730469 C 144.644531 221.597656 144.546875 221.460938 144.453125 221.320312 C 144.777344 220.730469 145.46875 220.382812 146.136719 220.445312 Z M 146.136719 220.445312 Z M 146.136719 220.445312 "/>
<path style=" stroke:none;fill-rule:nonzero;fill:rgb(0%,0%,0%);fill-opacity:1;" d="M 149.398438 225.160156 L 149.398438 225.796875 L 148.753906 225.796875 L 148.753906 225.160156 Z M 149.398438 225.160156 Z M 149.398438 225.160156 "/>
<path style=" stroke:none;fill-rule:nonzero;fill:rgb(0%,0%,0%);fill-opacity:1;" d="M 152.285156 220.445312 C 153.039062 220.5 153.539062 221.191406 153.675781 221.890625 C 153.746094 222.207031 153.761719 222.507812 153.792969 222.828125 L 153.792969 223.636719 C 153.753906 224.460938 153.554688 225.550781 152.660156 225.882812 C 151.882812 226.191406 150.96875 225.707031 150.738281 224.914062 C 150.5625 224.492188 150.546875 224.066406 150.507812 223.636719 L 150.507812 222.828125 C 150.546875 222 150.722656 220.90625 151.613281 220.542969 L 151.652344 220.523438 L 151.683594 220.515625 L 151.722656 220.5 L 151.84375 220.46875 L 151.914062 220.453125 L 152 220.453125 L 152.015625 220.445312 Z M 152.285156 220.445312 Z M 152.039062 220.929688 C 151.375 221.007812 151.175781 221.8125 151.128906 222.351562 L 151.128906 222.566406 L 151.113281 222.582031 L 151.113281 223.683594 C 151.160156 224.253906 151.199219 224.992188 151.722656 225.375 C 152.207031 225.707031 152.851562 225.335938 152.984375 224.820312 C 153.128906 224.4375 153.160156 224.066406 153.191406 223.683594 L 153.191406 222.582031 C 153.144531 222 153.0625 221.191406 152.398438 220.960938 L 152.34375 220.945312 L 152.324219 220.929688 L 152.253906 220.929688 L 152.238281 220.914062 L 152.054688 220.914062 Z M 152.039062 220.929688 Z M 152.039062 220.929688 "/>
<path style=" stroke:none;fill-rule:nonzero;fill:rgb(0%,0%,0%);fill-opacity:1;" d="M 178.222656 220.445312 C 178.917969 220.476562 179.648438 221.121094 179.484375 221.859375 C 179.402344 222.359375 179.054688 222.769531 178.617188 222.992188 C 179.324219 223.214844 179.871094 223.960938 179.683594 224.699219 C 179.492188 225.660156 178.386719 226.191406 177.5 225.898438 C 177.070312 225.773438 176.632812 225.5 176.425781 225.105469 C 176.476562 224.984375 176.460938 224.78125 176.515625 224.699219 C 176.9375 225.320312 177.824219 225.738281 178.523438 225.390625 C 179.285156 224.90625 179.164062 223.492188 178.246094 223.253906 L 178.171875 223.253906 L 178.15625 223.238281 L 177.417969 223.238281 L 177.417969 222.761719 C 177.871094 222.753906 178.4375 222.699219 178.691406 222.230469 C 178.960938 221.828125 178.9375 221.160156 178.417969 220.960938 C 177.808594 220.722656 177.054688 221.113281 176.824219 221.730469 C 176.730469 221.597656 176.632812 221.460938 176.539062 221.320312 C 176.863281 220.730469 177.554688 220.382812 178.222656 220.445312 Z M 178.222656 220.445312 Z M 178.222656 220.445312 "/>
<path style=" stroke:none;fill-rule:nonzero;fill:rgb(0%,0%,0%);fill-opacity:1;" d="M 181.484375 225.160156 L 181.484375 225.796875 L 180.839844 225.796875 L 180.839844 225.160156 Z M 181.484375 225.160156 Z M 181.484375 225.160156 "/>
<path style=" stroke:none;fill-rule:nonzero;fill:rgb(0%,0%,0%);fill-opacity:1;" d="M 185.546875 220.613281 L 185.546875 221.105469 L 183.484375 221.105469 L 183.46875 221.113281 L 183.46875 222.738281 C 183.660156 222.613281 183.929688 222.445312 184.183594 222.4375 C 185.078125 222.34375 185.769531 223.222656 185.808594 224.042969 C 185.9375 225.082031 184.960938 226.113281 183.914062 225.953125 C 183.386719 225.9375 182.878906 225.628906 182.578125 225.199219 C 182.667969 225.082031 182.738281 224.875 182.839844 224.804688 C 183.214844 225.535156 184.421875 225.828125 184.90625 225.058594 C 185.214844 224.476562 185.207031 223.738281 184.847656 223.183594 C 184.4375 222.652344 183.617188 222.976562 183.429688 223.542969 L 182.914062 223.542969 L 182.914062 220.613281 Z M 185.546875 220.613281 Z M 185.546875 220.613281 "/>
<path style=" stroke:none;fill-rule:nonzero;fill:rgb(0%,0%,0%);fill-opacity:1;" d="M 211.109375 220.613281 L 211.109375 223.953125 L 211.125 223.96875 L 211.910156 223.96875 L 211.910156 224.445312 L 211.125 224.445312 L 211.109375 224.453125 L 211.109375 225.796875 L 210.507812 225.796875 L 210.507812 224.453125 L 210.488281 224.445312 L 208.394531 224.445312 L 208.394531 223.953125 C 209.0625 222.84375 209.726562 221.722656 210.394531 220.613281 Z M 211.109375 220.613281 Z M 210.523438 220.914062 C 210.363281 221.738281 209.855469 222.445312 209.472656 223.167969 C 209.324219 223.429688 209.125 223.714844 209.015625 223.96875 L 210.539062 223.96875 L 210.546875 223.953125 L 210.546875 220.914062 L 210.539062 220.898438 Z M 210.523438 220.914062 Z M 210.523438 220.914062 "/>
<path style=" stroke:none;fill-rule:nonzero;fill:rgb(0%,0%,0%);fill-opacity:1;" d="M 213.570312 225.160156 L 213.570312 225.796875 L 212.925781 225.796875 L 212.925781 225.160156 Z M 213.570312 225.160156 Z M 213.570312 225.160156 "/>
<path style=" stroke:none;fill-rule:nonzero;fill:rgb(0%,0%,0%);fill-opacity:1;" d="M 216.457031 220.445312 C 217.210938 220.5 217.710938 221.191406 217.847656 221.890625 C 217.917969 222.207031 217.933594 222.507812 217.964844 222.828125 L 217.964844 223.636719 C 217.925781 224.460938 217.730469 225.550781 216.832031 225.882812 C 216.054688 226.191406 215.140625 225.707031 214.910156 224.914062 C 214.738281 224.492188 214.71875 224.066406 214.679688 223.636719 L 214.679688 222.828125 C 214.71875 222 214.894531 220.90625 215.785156 220.542969 L 215.824219 220.523438 L 215.855469 220.515625 L 215.894531 220.5 L 216.015625 220.46875 L 216.085938 220.453125 L 216.171875 220.453125 L 216.1875 220.445312 Z M 216.457031 220.445312 Z M 216.210938 220.929688 C 215.546875 221.007812 215.347656 221.8125 215.300781 222.351562 L 215.300781 222.566406 L 215.285156 222.582031 L 215.285156 223.683594 C 215.332031 224.253906 215.371094 224.992188 215.894531 225.375 C 216.378906 225.707031 217.023438 225.335938 217.15625 224.820312 C 217.300781 224.4375 217.332031 224.066406 217.363281 223.683594 L 217.363281 222.582031 C 217.316406 222 217.238281 221.191406 216.570312 220.960938 L 216.515625 220.945312 L 216.5 220.929688 L 216.425781 220.929688 L 216.410156 220.914062 L 216.230469 220.914062 Z M 216.210938 220.929688 Z M 216.210938 220.929688 "/>
<path style=" stroke:none;fill-rule:nonzero;fill:rgb(0%,0%,0%);fill-opacity:1;" d="M 243.195312 220.613281 L 243.195312 223.953125 L 243.210938 223.96875 L 243.996094 223.96875 L 243.996094 224.445312 L 243.210938 224.445312 L 243.195312 224.453125 L 243.195312 225.796875 L 242.59375 225.796875 L 242.59375 224.453125 L 242.578125 224.445312 L 240.480469 224.445312 L 240.480469 223.953125 C 241.148438 222.84375 241.8125 221.722656 242.480469 220.613281 Z M 243.195312 220.613281 Z M 242.609375 220.914062 C 242.449219 221.738281 241.941406 222.445312 241.558594 223.167969 C 241.410156 223.429688 241.210938 223.714844 241.101562 223.96875 L 242.625 223.96875 L 242.632812 223.953125 L 242.632812 220.914062 L 242.625 220.898438 Z M 242.609375 220.914062 Z M 242.609375 220.914062 "/>
<path style=" stroke:none;fill-rule:nonzero;fill:rgb(0%,0%,0%);fill-opacity:1;" d="M 245.65625 225.160156 L 245.65625 225.796875 L 245.011719 225.796875 L 245.011719 225.160156 Z M 245.65625 225.160156 Z M 245.65625 225.160156 "/>
<path style=" stroke:none;fill-rule:nonzero;fill:rgb(0%,0%,0%);fill-opacity:1;" d="M 249.71875 220.613281 L 249.71875 221.105469 L 247.65625 221.105469 L 247.640625 221.113281 L 247.640625 222.738281 C 247.832031 222.613281 248.101562 222.445312 248.355469 222.4375 C 249.25 222.34375 249.941406 223.222656 249.980469 224.042969 C 250.109375 225.082031 249.132812 226.113281 248.085938 225.953125 C 247.5625 225.9375 247.050781 225.628906 246.75 225.199219 C 246.839844 225.082031 246.910156 224.875 247.011719 224.804688 C 247.386719 225.535156 248.59375 225.828125 249.078125 225.058594 C 249.386719 224.476562 249.378906 223.738281 249.019531 223.183594 C 248.609375 222.652344 247.789062 222.976562 247.601562 223.542969 L 247.085938 223.542969 L 247.085938 220.613281 Z M 249.71875 220.613281 Z M 249.71875 220.613281 "/>
<path style=" stroke:none;fill-rule:nonzero;fill:rgb(0%,0%,0%);fill-opacity:1;" d="M 275.636719 220.613281 L 275.636719 221.105469 L 273.574219 221.105469 L 273.558594 221.113281 L 273.558594 222.738281 C 273.75 222.613281 274.019531 222.445312 274.273438 222.4375 C 275.171875 222.34375 275.859375 223.222656 275.902344 224.042969 C 276.027344 225.082031 275.050781 226.113281 274.003906 225.953125 C 273.480469 225.9375 272.972656 225.628906 272.671875 225.199219 C 272.757812 225.082031 272.828125 224.875 272.933594 224.804688 C 273.304688 225.535156 274.511719 225.828125 274.996094 225.058594 C 275.304688 224.476562 275.296875 223.738281 274.941406 223.183594 C 274.527344 222.652344 273.710938 222.976562 273.519531 223.542969 L 273.003906 223.542969 L 273.003906 220.613281 Z M 275.636719 220.613281 Z M 275.636719 220.613281 "/>
<path style=" stroke:none;fill-rule:nonzero;fill:rgb(0%,0%,0%);fill-opacity:1;" d="M 277.742188 225.160156 L 277.742188 225.796875 L 277.097656 225.796875 L 277.097656 225.160156 Z M 277.742188 225.160156 Z M 277.742188 225.160156 "/>
<path style=" stroke:none;fill-rule:nonzero;fill:rgb(0%,0%,0%);fill-opacity:1;" d="M 280.632812 220.445312 C 281.386719 220.5 281.886719 221.191406 282.019531 221.890625 C 282.089844 222.207031 282.105469 222.507812 282.140625 222.828125 L 282.140625 223.636719 C 282.097656 224.460938 281.902344 225.550781 281.003906 225.882812 C 280.226562 226.191406 279.3125 225.707031 279.082031 224.914062 C 278.910156 224.492188 278.894531 224.066406 278.851562 223.636719 L 278.851562 222.828125 C 278.894531 222 279.066406 220.90625 279.957031 220.542969 L 279.996094 220.523438 L 280.027344 220.515625 L 280.066406 220.5 L 280.1875 220.46875 L 280.257812 220.453125 L 280.34375 220.453125 L 280.359375 220.445312 Z M 280.632812 220.445312 Z M 280.386719 220.929688 C 279.71875 221.007812 279.519531 221.8125 279.472656 222.351562 L 279.472656 222.566406 L 279.457031 222.582031 L 279.457031 223.683594 C 279.503906 224.253906 279.542969 224.992188 280.066406 225.375 C 280.550781 225.707031 281.195312 225.335938 281.328125 224.820312 C 281.472656 224.4375 281.503906 224.066406 281.535156 223.683594 L 281.535156 222.582031 C 281.488281 222 281.410156 221.191406 280.742188 220.960938 L 280.6875 220.945312 L 280.671875 220.929688 L 280.597656 220.929688 L 280.582031 220.914062 L 280.402344 220.914062 Z M 280.386719 220.929688 Z M 280.386719 220.929688 "/>
<path style="fill:none;stroke-width:0.02;stroke-linecap:butt;stroke-linejoin:miter;stroke:rgb(0%,0%,0%);stroke-opacity:1;stroke-miterlimit:10;" d="M 1.827692 7.838356 L 1.827692 7.73335 " transform="matrix(28.346457,0,0,-28.346457,1,227.771654)"/>
<path style="fill:none;stroke-width:0.02;stroke-linecap:butt;stroke-linejoin:miter;stroke:rgb(0%,0%,0%);stroke-opacity:1;stroke-miterlimit:10;" d="M 2.959613 7.838356 L 2.959613 7.73335 " transform="matrix(28.346457,0,0,-28.346457,1,227.771654)"/>
<path style="fill:none;stroke-width:0.02;stroke-linecap:butt;stroke-linejoin:miter;stroke:rgb(0%,0%,0%);stroke-opacity:1;stroke-miterlimit:10;" d="M 4.091533 7.838356 L 4.091533 7.73335 " transform="matrix(28.346457,0,0,-28.346457,1,227.771654)"/>
<path style="fill:none;stroke-width:0.02;stroke-linecap:butt;stroke-linejoin:miter;stroke:rgb(0%,0%,0%);stroke-opacity:1;stroke-miterlimit:10;" d="M 5.223454 7.838356 L 5.223454 7.73335 " transform="matrix(28.346457,0,0,-28.346457,1,227.771654)"/>
<path style="fill:none;stroke-width:0.02;stroke-linecap:butt;stroke-linejoin:miter;stroke:rgb(0%,0%,0%);stroke-opacity:1;stroke-miterlimit:10;" d="M 6.355374 7.838356 L 6.355374 7.73335 " transform="matrix(28.346457,0,0,-28.346457,1,227.771654)"/>
<path style="fill:none;stroke-width:0.02;stroke-linecap:butt;stroke-linejoin:miter;stroke:rgb(0%,0%,0%);stroke-opacity:1;stroke-miterlimit:10;" d="M 7.487433 7.838356 L 7.487433 7.73335 " transform="matrix(28.346457,0,0,-28.346457,1,227.771654)"/>
<path style="fill:none;stroke-width:0.02;stroke-linecap:butt;stroke-linejoin:miter;stroke:rgb(0%,0%,0%);stroke-opacity:1;stroke-miterlimit:10;" d="M 8.619353 7.838356 L 8.619353 7.73335 " transform="matrix(28.346457,0,0,-28.346457,1,227.771654)"/>
<path style="fill:none;stroke-width:0.02;stroke-linecap:round;stroke-linejoin:miter;stroke:rgb(0%,0%,0%);stroke-opacity:1;stroke-miterlimit:10;" d="M 0.695771 7.838356 L 9.751274 7.838356 " transform="matrix(28.346457,0,0,-28.346457,1,227.771654)"/>
<path style="fill:none;stroke-width:0.02;stroke-linecap:butt;stroke-linejoin:miter;stroke:rgb(32.941176%,47.058824%,63.921569%);stroke-opacity:1;stroke-miterlimit:10;" d="M 0.695771 7.167252 L 2.959613 6.576624 L 5.223454 3.939748 L 7.487433 1.176644 L 9.751274 3.843975 " transform="matrix(28.346457,0,0,-28.346457,1,227.771654)"/>
</g>
</svg>
