<?xml version="1.0" encoding="UTF-8"?>
<svg xmlns="http://www.w3.org/2000/svg" xmlns:xlink="http://www.w3.org/1999/xlink" width="285.464567pt" height="228.771654pt" viewBox="0 0 285.464567 228.771654" version="1.1">
<g id="surface1">
<path style="fill:none;stroke-width:0.02;stroke-linecap:butt;stroke-linejoin:miter;stroke:rgb(0%,0%,0%);stroke-opacity:1;stroke-miterlimit:10;" d="M 0.602616 1.16934 L 0.707623 1.16934 " transform="matrix(28.346457,0,0,-28.346457,1,227.771654)"/>
<path style="fill:none;stroke-width:0.02;stroke-linecap:butt;stroke-linejoin:miter;stroke:rgb(0%,0%,0%);stroke-opacity:1;stroke-miterlimit:10;" d="M 0.602616 1.910311 L 0.707623 1.910311 " transform="matrix(28.346457,0,0,-28.346457,1,227.771654)"/>
<path style="fill:none;stroke-width:0.02;stroke-linecap:butt;stroke-linejoin:miter;stroke:rgb(0%,0%,0%);stroke-opacity:1;stroke-miterlimit:10;" d="M 0.602616 2.65142 L 0.707623 2.65142 " transform="matrix(28.346457,0,0,-28.346457,1,227.771654)"/>
<path style="fill:none;stroke-width:0.02;stroke-linecap:butt;stroke-linejoin:miter;stroke:rgb(0%,0%,0%);stroke-opacity:1;stroke-miterlimit:10;" d="M 0.602616 3.392391 L 0.707623 3.392391 " transform="matrix(28.346457,0,0,-28.346457,1,227.771654)"/>
<path style="fill:none;stroke-width:0.02;stroke-linecap:butt;stroke-linejoin:miter;stroke:rgb(0%,0%,0%);stroke-opacity:1;stroke-miterlimit:10;" d="M 0.602616 4.133363 L 0.707623 4.133363 " transform="matrix(28.346457,0,0,-28.346457,1,227.771654)"/>
<path style="fill:none;stroke-width:0.02;stroke-linecap:butt;stroke-linejoin:miter;stroke:rgb(0%,0%,0%);stroke-opacity:1;stroke-miterlimit:10;" d="M 0.602616 4.874334 L 0.707623 4.874334 " transform="matrix(28.346457,0,0,-28.346457,1,227.771654)"/>
<path style="fill:none;stroke-width:0.02;stroke-linecap:butt;stroke-linejoin:miter;stroke:rgb(0%,0%,0%);stroke-opacity:1;stroke-miterlimit:10;" d="M 0.602616 5.615305 L 0.707623 5.615305 " transform="matrix(28.346457,0,0,-28.346457,1,227.771654)"/>
<path style="fill:none;stroke-width:0.02;stroke-linecap:butt;stroke-linejoin:miter;stroke:rgb(0%,0%,0%);stroke-opacity:1;stroke-miterlimit:10;" d="M 0.602616 6.356276 L 0.707623 6.356276 " transform="matrix(28.346457,0,0,-28.346457,1,227.771654)"/>
<path style="fill:none;stroke-width:0.02;stroke-linecap:butt;stroke-linejoin:miter;stroke:rgb(0%,0%,0%);stroke-opacity:1;stroke-miterlimit:10;" d="M 0.602616 7.097247 L 0.707623 7.097247 " transform="matrix(28.346457,0,0,-28.346457,1,227.771654)"/>
<path style="fill:none;stroke-width:0.02;stroke-linecap:round;stroke-linejoin:miter;stroke:rgb(0%,0%,0%);stroke-opacity:1;stroke-miterlimit:10;" d="M 0.602616 0.428369 L 0.602616 7.838356 " transform="matrix(28.346457,0,0,-28.346457,1,227.771654)"/>
<path style=" stroke:none;fill-rule:nonzero;fill:rgb(0%,0%,0%);fill-opacity:1;" d="M 5.101562 212.886719 C 5.859375 212.941406 6.359375 213.632812 6.492188 214.332031 C 6.5625 214.648438 6.578125 214.949219 6.613281 215.265625 L 6.613281 216.078125 C 6.570312 216.902344 6.375 217.988281 5.476562 218.324219 C 4.699219 218.632812 3.785156 218.148438 3.554688 217.355469 C 3.382812 216.933594 3.363281 216.503906 3.324219 216.078125 L 3.324219 215.265625 C 3.363281 214.441406 3.539062 213.347656 4.429688 212.980469 L 4.46875 212.964844 L 4.5 212.957031 L 4.539062 212.941406 L 4.660156 212.910156 L 4.730469 212.894531 L 4.816406 212.894531 L 4.832031 212.886719 Z M 5.101562 212.886719 Z M 4.855469 213.371094 C 4.191406 213.449219 3.992188 214.25 3.945312 214.789062 L 3.945312 215.003906 L 3.929688 215.019531 L 3.929688 216.125 C 3.976562 216.695312 4.015625 217.433594 4.539062 217.816406 C 5.023438 218.148438 5.667969 217.773438 5.800781 217.257812 C 5.945312 216.878906 5.976562 216.503906 6.007812 216.125 L 6.007812 215.019531 C 5.960938 214.441406 5.882812 213.632812 5.214844 213.402344 L 5.160156 213.386719 L 5.144531 213.371094 L 5.070312 213.371094 L 5.054688 213.355469 L 4.875 213.355469 Z M 4.855469 213.371094 Z M 4.855469 213.371094 "/>
<path style=" stroke:none;fill-rule:nonzero;fill:rgb(0%,0%,0%);fill-opacity:1;" d="M 8.382812 217.601562 L 8.382812 218.234375 L 7.738281 218.234375 L 7.738281 217.601562 Z M 8.382812 217.601562 Z M 8.382812 217.601562 "/>
<path style=" stroke:none;fill-rule:nonzero;fill:rgb(0%,0%,0%);fill-opacity:1;" d="M 11.269531 212.886719 C 12.023438 212.941406 12.523438 213.632812 12.660156 214.332031 C 12.730469 214.648438 12.746094 214.949219 12.777344 215.265625 L 12.777344 216.078125 C 12.738281 216.902344 12.539062 217.988281 11.644531 218.324219 C 10.867188 218.632812 9.953125 218.148438 9.722656 217.355469 C 9.546875 216.933594 9.53125 216.503906 9.492188 216.078125 L 9.492188 215.265625 C 9.53125 214.441406 9.707031 213.347656 10.597656 212.980469 L 10.636719 212.964844 L 10.667969 212.957031 L 10.707031 212.941406 L 10.824219 212.910156 L 10.898438 212.894531 L 10.984375 212.894531 L 11 212.886719 Z M 11.269531 212.886719 Z M 11.023438 213.371094 C 10.359375 213.449219 10.160156 214.25 10.113281 214.789062 L 10.113281 215.003906 L 10.097656 215.019531 L 10.097656 216.125 C 10.144531 216.695312 10.183594 217.433594 10.707031 217.816406 C 11.191406 218.148438 11.835938 217.773438 11.96875 217.257812 C 12.113281 216.878906 12.144531 216.503906 12.175781 216.125 L 12.175781 215.019531 C 12.128906 214.441406 12.046875 213.632812 11.382812 213.402344 L 11.324219 213.386719 L 11.308594 213.371094 L 11.238281 213.371094 L 11.222656 213.355469 L 11.039062 213.355469 Z M 11.023438 213.371094 Z M 11.023438 213.371094 "/>
<path style=" stroke:none;fill-rule:nonzero;fill:rgb(0%,0%,0%);fill-opacity:1;" d="M 5.101562 191.882812 C 5.859375 191.9375 6.359375 192.628906 6.492188 193.324219 C 6.5625 193.644531 6.578125 193.945312 6.613281 194.261719 L 6.613281 195.070312 C 6.570312 195.898438 6.375 196.984375 5.476562 197.316406 C 4.699219 197.628906 3.785156 197.144531 3.554688 196.351562 C 3.382812 195.929688 3.363281 195.5 3.324219 195.070312 L 3.324219 194.261719 C 3.363281 193.4375 3.539062 192.339844 4.429688 191.976562 L 4.46875 191.960938 L 4.5 191.953125 L 4.539062 191.9375 L 4.660156 191.90625 L 4.730469 191.890625 L 4.816406 191.890625 L 4.832031 191.882812 Z M 5.101562 191.882812 Z M 4.855469 192.367188 C 4.191406 192.445312 3.992188 193.246094 3.945312 193.785156 L 3.945312 194 L 3.929688 194.015625 L 3.929688 195.121094 C 3.976562 195.691406 4.015625 196.429688 4.539062 196.808594 C 5.023438 197.144531 5.667969 196.769531 5.800781 196.253906 C 5.945312 195.875 5.976562 195.5 6.007812 195.121094 L 6.007812 194.015625 C 5.960938 193.4375 5.882812 192.628906 5.214844 192.398438 L 5.160156 192.382812 L 5.144531 192.367188 L 5.070312 192.367188 L 5.054688 192.351562 L 4.875 192.351562 Z M 4.855469 192.367188 Z M 4.855469 192.367188 "/>
<path style=" stroke:none;fill-rule:nonzero;fill:rgb(0%,0%,0%);fill-opacity:1;" d="M 8.382812 196.597656 L 8.382812 197.230469 L 7.738281 197.230469 L 7.738281 196.597656 Z M 8.382812 196.597656 Z M 8.382812 196.597656 "/>
<path style=" stroke:none;fill-rule:nonzero;fill:rgb(0%,0%,0%);fill-opacity:1;" d="M 11.515625 191.882812 L 11.515625 196.777344 L 11.523438 196.792969 L 12.5 196.792969 L 12.5 197.230469 L 9.921875 197.230469 L 9.921875 196.792969 L 10.898438 196.792969 L 10.914062 196.777344 L 10.914062 192.667969 C 10.578125 192.777344 10.230469 192.851562 9.882812 192.839844 L 9.882812 192.398438 C 10.40625 192.40625 10.976562 192.261719 11.375 191.882812 Z M 11.515625 191.882812 Z M 11.515625 191.882812 "/>
<path style=" stroke:none;fill-rule:nonzero;fill:rgb(0%,0%,0%);fill-opacity:1;" d="M 5.101562 170.875 C 5.859375 170.933594 6.359375 171.621094 6.492188 172.320312 C 6.5625 172.640625 6.578125 172.941406 6.613281 173.257812 L 6.613281 174.066406 C 6.570312 174.894531 6.375 175.980469 5.476562 176.3125 C 4.699219 176.625 3.785156 176.140625 3.554688 175.34375 C 3.382812 174.925781 3.363281 174.496094 3.324219 174.066406 L 3.324219 173.257812 C 3.363281 172.433594 3.539062 171.335938 4.429688 170.972656 L 4.46875 170.957031 L 4.5 170.949219 L 4.539062 170.933594 L 4.660156 170.902344 L 4.730469 170.886719 L 4.816406 170.886719 L 4.832031 170.875 Z M 5.101562 170.875 Z M 4.855469 171.359375 C 4.191406 171.441406 3.992188 172.242188 3.945312 172.78125 L 3.945312 172.996094 L 3.929688 173.011719 L 3.929688 174.113281 C 3.976562 174.6875 4.015625 175.425781 4.539062 175.804688 C 5.023438 176.140625 5.667969 175.765625 5.800781 175.25 C 5.945312 174.871094 5.976562 174.496094 6.007812 174.113281 L 6.007812 173.011719 C 5.960938 172.433594 5.882812 171.621094 5.214844 171.394531 L 5.160156 171.375 L 5.144531 171.359375 L 5.070312 171.359375 L 5.054688 171.34375 L 4.875 171.34375 Z M 4.855469 171.359375 Z M 4.855469 171.359375 "/>
<path style=" stroke:none;fill-rule:nonzero;fill:rgb(0%,0%,0%);fill-opacity:1;" d="M 8.382812 175.589844 L 8.382812 176.226562 L 7.738281 176.226562 L 7.738281 175.589844 Z M 8.382812 175.589844 Z M 8.382812 175.589844 "/>
<path style=" stroke:none;fill-rule:nonzero;fill:rgb(0%,0%,0%);fill-opacity:1;" d="M 11.183594 170.875 C 12.105469 170.902344 12.835938 171.84375 12.691406 172.734375 C 12.597656 173.625 11.761719 174.132812 11.167969 174.6875 L 10.914062 174.949219 L 10.882812 174.964844 L 10.5625 175.273438 L 10.539062 175.289062 L 10.222656 175.605469 L 10.191406 175.625 L 10.121094 175.695312 L 10.136719 175.703125 L 12.707031 175.703125 L 12.707031 176.226562 L 9.5625 176.226562 L 9.5625 175.75 L 10.84375 174.472656 C 11.453125 173.941406 12.167969 173.25 12.054688 172.378906 C 11.992188 171.867188 11.5625 171.402344 11.039062 171.359375 C 10.507812 171.28125 10.039062 171.703125 9.921875 172.210938 L 9.90625 172.234375 L 9.890625 172.289062 L 9.867188 172.378906 L 9.816406 172.550781 L 9.808594 172.589844 C 9.699219 172.457031 9.578125 172.3125 9.492188 172.164062 C 9.652344 171.511719 10.175781 170.902344 10.867188 170.875 Z M 11.183594 170.875 Z M 11.183594 170.875 "/>
<path style=" stroke:none;fill-rule:nonzero;fill:rgb(0%,0%,0%);fill-opacity:1;" d="M 5.101562 149.871094 C 5.859375 149.929688 6.359375 150.617188 6.492188 151.316406 C 6.5625 151.632812 6.578125 151.9375 6.613281 152.253906 L 6.613281 153.0625 C 6.570312 153.886719 6.375 154.976562 5.476562 155.308594 C 4.699219 155.617188 3.785156 155.132812 3.554688 154.339844 C 3.382812 153.921875 3.363281 153.492188 3.324219 153.0625 L 3.324219 152.253906 C 3.363281 151.429688 3.539062 150.332031 4.429688 149.96875 L 4.46875 149.953125 L 4.5 149.945312 L 4.539062 149.929688 L 4.660156 149.894531 L 4.730469 149.878906 L 4.816406 149.878906 L 4.832031 149.871094 Z M 5.101562 149.871094 Z M 4.855469 150.355469 C 4.191406 150.4375 3.992188 151.238281 3.945312 151.777344 L 3.945312 151.992188 L 3.929688 152.007812 L 3.929688 153.109375 C 3.976562 153.683594 4.015625 154.421875 4.539062 154.800781 C 5.023438 155.132812 5.667969 154.761719 5.800781 154.246094 C 5.945312 153.863281 5.976562 153.492188 6.007812 153.109375 L 6.007812 152.007812 C 5.960938 151.429688 5.882812 150.617188 5.214844 150.386719 L 5.160156 150.371094 L 5.144531 150.355469 L 5.070312 150.355469 L 5.054688 150.339844 L 4.875 150.339844 Z M 4.855469 150.355469 Z M 4.855469 150.355469 "/>
<path style=" stroke:none;fill-rule:nonzero;fill:rgb(0%,0%,0%);fill-opacity:1;" d="M 8.382812 154.585938 L 8.382812 155.222656 L 7.738281 155.222656 L 7.738281 154.585938 Z M 8.382812 154.585938 Z M 8.382812 154.585938 "/>
<path style=" stroke:none;fill-rule:nonzero;fill:rgb(0%,0%,0%);fill-opacity:1;" d="M 11.285156 149.871094 C 11.984375 149.902344 12.714844 150.546875 12.546875 151.285156 C 12.46875 151.785156 12.121094 152.199219 11.683594 152.421875 C 12.390625 152.640625 12.9375 153.386719 12.746094 154.125 C 12.554688 155.085938 11.453125 155.617188 10.5625 155.324219 C 10.136719 155.199219 9.699219 154.929688 9.492188 154.53125 C 9.539062 154.414062 9.523438 154.207031 9.578125 154.125 C 10 154.746094 10.890625 155.167969 11.589844 154.816406 C 12.351562 154.332031 12.230469 152.921875 11.308594 152.683594 L 11.238281 152.683594 L 11.222656 152.667969 L 10.484375 152.667969 L 10.484375 152.191406 C 10.9375 152.183594 11.5 152.125 11.753906 151.660156 C 12.023438 151.253906 12 150.585938 11.484375 150.386719 C 10.875 150.148438 10.121094 150.539062 9.890625 151.160156 C 9.792969 151.023438 9.699219 150.886719 9.605469 150.746094 C 9.929688 150.160156 10.621094 149.808594 11.285156 149.871094 Z M 11.285156 149.871094 Z M 11.285156 149.871094 "/>
<path style=" stroke:none;fill-rule:nonzero;fill:rgb(0%,0%,0%);fill-opacity:1;" d="M 5.101562 128.867188 C 5.859375 128.921875 6.359375 129.613281 6.492188 130.3125 C 6.5625 130.628906 6.578125 130.933594 6.613281 131.25 L 6.613281 132.058594 C 6.570312 132.882812 6.375 133.972656 5.476562 134.304688 C 4.699219 134.613281 3.785156 134.128906 3.554688 133.335938 C 3.382812 132.914062 3.363281 132.488281 3.324219 132.058594 L 3.324219 131.25 C 3.363281 130.421875 3.539062 129.328125 4.429688 128.964844 L 4.46875 128.949219 L 4.5 128.941406 L 4.539062 128.921875 L 4.660156 128.890625 L 4.730469 128.875 L 4.816406 128.875 L 4.832031 128.867188 Z M 5.101562 128.867188 Z M 4.855469 129.351562 C 4.191406 129.429688 3.992188 130.234375 3.945312 130.773438 L 3.945312 130.988281 L 3.929688 131.003906 L 3.929688 132.105469 C 3.976562 132.679688 4.015625 133.414062 4.539062 133.796875 C 5.023438 134.128906 5.667969 133.757812 5.800781 133.242188 C 5.945312 132.859375 5.976562 132.488281 6.007812 132.105469 L 6.007812 131.003906 C 5.960938 130.421875 5.882812 129.613281 5.214844 129.382812 L 5.160156 129.367188 L 5.144531 129.351562 L 5.070312 129.351562 L 5.054688 129.335938 L 4.875 129.335938 Z M 4.855469 129.351562 Z M 4.855469 129.351562 "/>
<path style=" stroke:none;fill-rule:nonzero;fill:rgb(0%,0%,0%);fill-opacity:1;" d="M 8.382812 133.582031 L 8.382812 134.21875 L 7.738281 134.21875 L 7.738281 133.582031 Z M 8.382812 133.582031 Z M 8.382812 133.582031 "/>
<path style=" stroke:none;fill-rule:nonzero;fill:rgb(0%,0%,0%);fill-opacity:1;" d="M 12.089844 129.035156 L 12.089844 132.375 L 12.105469 132.390625 L 12.890625 132.390625 L 12.890625 132.867188 L 12.105469 132.867188 L 12.089844 132.875 L 12.089844 134.21875 L 11.484375 134.21875 L 11.484375 132.875 L 11.46875 132.867188 L 9.375 132.867188 L 9.375 132.375 C 10.039062 131.265625 10.707031 130.144531 11.375 129.035156 Z M 12.089844 129.035156 Z M 11.5 129.335938 C 11.34375 130.160156 10.832031 130.867188 10.453125 131.589844 C 10.300781 131.851562 10.105469 132.136719 9.992188 132.390625 L 11.515625 132.390625 L 11.523438 132.375 L 11.523438 129.335938 L 11.515625 129.320312 Z M 11.5 129.335938 Z M 11.5 129.335938 "/>
<path style=" stroke:none;fill-rule:nonzero;fill:rgb(0%,0%,0%);fill-opacity:1;" d="M 5.101562 107.863281 C 5.859375 107.917969 6.359375 108.609375 6.492188 109.308594 C 6.5625 109.625 6.578125 109.925781 6.613281 110.246094 L 6.613281 111.054688 C 6.570312 111.878906 6.375 112.96875 5.476562 113.300781 C 4.699219 113.609375 3.785156 113.125 3.554688 112.332031 C 3.382812 111.910156 3.363281 111.484375 3.324219 111.054688 L 3.324219 110.246094 C 3.363281 109.417969 3.539062 108.324219 4.429688 107.957031 L 4.46875 107.941406 L 4.5 107.933594 L 4.539062 107.917969 L 4.660156 107.886719 L 4.730469 107.871094 L 4.816406 107.871094 L 4.832031 107.863281 Z M 5.101562 107.863281 Z M 4.855469 108.347656 C 4.191406 108.425781 3.992188 109.230469 3.945312 109.769531 L 3.945312 109.984375 L 3.929688 110 L 3.929688 111.101562 C 3.976562 111.671875 4.015625 112.410156 4.539062 112.792969 C 5.023438 113.125 5.667969 112.753906 5.800781 112.238281 C 5.945312 111.855469 5.976562 111.484375 6.007812 111.101562 L 6.007812 110 C 5.960938 109.417969 5.882812 108.609375 5.214844 108.378906 L 5.160156 108.363281 L 5.144531 108.347656 L 5.070312 108.347656 L 5.054688 108.332031 L 4.875 108.332031 Z M 4.855469 108.347656 Z M 4.855469 108.347656 "/>
<path style=" stroke:none;fill-rule:nonzero;fill:rgb(0%,0%,0%);fill-opacity:1;" d="M 8.382812 112.578125 L 8.382812 113.214844 L 7.738281 113.214844 L 7.738281 112.578125 Z M 8.382812 112.578125 Z M 8.382812 112.578125 "/>
<path style=" stroke:none;fill-rule:nonzero;fill:rgb(0%,0%,0%);fill-opacity:1;" d="M 12.445312 108.03125 L 12.445312 108.523438 L 10.382812 108.523438 L 10.367188 108.53125 L 10.367188 110.15625 C 10.554688 110.03125 10.824219 109.863281 11.078125 109.855469 C 11.976562 109.761719 12.667969 110.640625 12.707031 111.460938 C 12.835938 112.5 11.859375 113.53125 10.808594 113.371094 C 10.285156 113.355469 9.777344 113.046875 9.476562 112.617188 C 9.5625 112.5 9.636719 112.292969 9.738281 112.222656 C 10.113281 112.953125 11.316406 113.246094 11.800781 112.476562 C 12.113281 111.894531 12.105469 111.15625 11.746094 110.601562 C 11.332031 110.070312 10.515625 110.394531 10.324219 110.960938 L 9.808594 110.960938 L 9.808594 108.03125 Z M 12.445312 108.03125 Z M 12.445312 108.03125 "/>
<path style=" stroke:none;fill-rule:nonzero;fill:rgb(0%,0%,0%);fill-opacity:1;" d="M 5.101562 86.859375 C 5.859375 86.914062 6.359375 87.605469 6.492188 88.304688 C 6.5625 88.621094 6.578125 88.921875 6.613281 89.242188 L 6.613281 90.050781 C 6.570312 90.875 6.375 91.960938 5.476562 92.296875 C 4.699219 92.605469 3.785156 92.121094 3.554688 91.328125 C 3.382812 90.90625 3.363281 90.476562 3.324219 90.050781 L 3.324219 89.242188 C 3.363281 88.414062 3.539062 87.320312 4.429688 86.953125 L 4.46875 86.9375 L 4.5 86.929688 L 4.539062 86.914062 L 4.660156 86.882812 L 4.730469 86.867188 L 4.816406 86.867188 L 4.832031 86.859375 Z M 5.101562 86.859375 Z M 4.855469 87.34375 C 4.191406 87.421875 3.992188 88.222656 3.945312 88.765625 L 3.945312 88.976562 L 3.929688 88.996094 L 3.929688 90.097656 C 3.976562 90.667969 4.015625 91.40625 4.539062 91.789062 C 5.023438 92.121094 5.667969 91.75 5.800781 91.234375 C 5.945312 90.851562 5.976562 90.476562 6.007812 90.097656 L 6.007812 88.996094 C 5.960938 88.414062 5.882812 87.605469 5.214844 87.375 L 5.160156 87.359375 L 5.144531 87.34375 L 5.070312 87.34375 L 5.054688 87.328125 L 4.875 87.328125 Z M 4.855469 87.34375 Z M 4.855469 87.34375 "/>
<path style=" stroke:none;fill-rule:nonzero;fill:rgb(0%,0%,0%);fill-opacity:1;" d="M 8.382812 91.574219 L 8.382812 92.207031 L 7.738281 92.207031 L 7.738281 91.574219 Z M 8.382812 91.574219 Z M 8.382812 91.574219 "/>
<path style=" stroke:none;fill-rule:nonzero;fill:rgb(0%,0%,0%);fill-opacity:1;" d="M 11.785156 86.859375 C 11.992188 86.890625 12.230469 86.914062 12.429688 87.011719 L 12.429688 87.46875 C 11.882812 87.230469 11.167969 87.199219 10.738281 87.683594 C 10.359375 88.089844 10.183594 88.691406 10.167969 89.222656 C 10.628906 88.613281 11.667969 88.273438 12.230469 88.90625 C 12.792969 89.558594 12.890625 90.496094 12.636719 91.289062 C 12.359375 91.921875 11.714844 92.503906 11 92.367188 C 10.03125 92.289062 9.597656 91.207031 9.546875 90.382812 C 9.367188 89.214844 9.644531 87.75 10.753906 87.082031 L 10.769531 87.074219 L 10.9375 86.984375 L 10.984375 86.96875 L 11.007812 86.953125 L 11.253906 86.882812 L 11.324219 86.867188 L 11.414062 86.867188 L 11.429688 86.859375 Z M 11.785156 86.859375 Z M 11.007812 89.066406 C 10.316406 89.183594 10.097656 90.019531 10.183594 90.582031 C 10.222656 91.113281 10.429688 91.820312 11.039062 91.929688 C 11.691406 92.019531 12.113281 91.320312 12.128906 90.757812 C 12.160156 90.183594 12.128906 89.535156 11.628906 89.160156 L 11.515625 89.105469 L 11.429688 89.082031 L 11.359375 89.066406 L 11.34375 89.050781 L 11.023438 89.050781 Z M 11.007812 89.066406 Z M 11.007812 89.066406 "/>
<path style=" stroke:none;fill-rule:nonzero;fill:rgb(0%,0%,0%);fill-opacity:1;" d="M 5.101562 65.855469 C 5.859375 65.910156 6.359375 66.601562 6.492188 67.300781 C 6.5625 67.617188 6.578125 67.917969 6.613281 68.234375 L 6.613281 69.046875 C 6.570312 69.871094 6.375 70.957031 5.476562 71.292969 C 4.699219 71.601562 3.785156 71.117188 3.554688 70.324219 C 3.382812 69.902344 3.363281 69.472656 3.324219 69.046875 L 3.324219 68.234375 C 3.363281 67.410156 3.539062 66.316406 4.429688 65.949219 L 4.46875 65.933594 L 4.5 65.925781 L 4.539062 65.910156 L 4.660156 65.878906 L 4.730469 65.863281 L 4.816406 65.863281 L 4.832031 65.855469 Z M 5.101562 65.855469 Z M 4.855469 66.339844 C 4.191406 66.417969 3.992188 67.21875 3.945312 67.757812 L 3.945312 67.972656 L 3.929688 67.988281 L 3.929688 69.09375 C 3.976562 69.664062 4.015625 70.402344 4.539062 70.785156 C 5.023438 71.117188 5.667969 70.742188 5.800781 70.226562 C 5.945312 69.847656 5.976562 69.472656 6.007812 69.09375 L 6.007812 67.988281 C 5.960938 67.410156 5.882812 66.601562 5.214844 66.371094 L 5.160156 66.355469 L 5.144531 66.339844 L 5.070312 66.339844 L 5.054688 66.324219 L 4.875 66.324219 Z M 4.855469 66.339844 Z M 4.855469 66.339844 "/>
<path style=" stroke:none;fill-rule:nonzero;fill:rgb(0%,0%,0%);fill-opacity:1;" d="M 8.382812 70.570312 L 8.382812 71.203125 L 7.738281 71.203125 L 7.738281 70.570312 Z M 8.382812 70.570312 Z M 8.382812 70.570312 "/>
<path style=" stroke:none;fill-rule:nonzero;fill:rgb(0%,0%,0%);fill-opacity:1;" d="M 12.777344 66.019531 L 12.777344 66.519531 C 11.652344 67.839844 11.015625 69.617188 11.023438 71.292969 L 10.382812 71.292969 C 10.367188 69.601562 11.054688 67.816406 12.261719 66.570312 L 12.246094 66.554688 L 9.492188 66.554688 L 9.492188 66.019531 L 12.777344 66.019531 L 12.777344 66.519531 Z M 12.777344 66.019531 Z M 12.777344 66.019531 "/>
<path style=" stroke:none;fill-rule:nonzero;fill:rgb(0%,0%,0%);fill-opacity:1;" d="M 5.101562 44.851562 C 5.859375 44.90625 6.359375 45.597656 6.492188 46.292969 C 6.5625 46.613281 6.578125 46.914062 6.613281 47.230469 L 6.613281 48.039062 C 6.570312 48.867188 6.375 49.953125 5.476562 50.289062 C 4.699219 50.597656 3.785156 50.113281 3.554688 49.320312 C 3.382812 48.898438 3.363281 48.46875 3.324219 48.039062 L 3.324219 47.230469 C 3.363281 46.40625 3.539062 45.3125 4.429688 44.945312 L 4.46875 44.929688 L 4.5 44.921875 L 4.539062 44.90625 L 4.660156 44.875 L 4.730469 44.859375 L 4.816406 44.859375 L 4.832031 44.851562 Z M 5.101562 44.851562 Z M 4.855469 45.335938 C 4.191406 45.414062 3.992188 46.214844 3.945312 46.753906 L 3.945312 46.96875 L 3.929688 46.984375 L 3.929688 48.089844 C 3.976562 48.660156 4.015625 49.398438 4.539062 49.777344 C 5.023438 50.113281 5.667969 49.738281 5.800781 49.222656 C 5.945312 48.84375 5.976562 48.46875 6.007812 48.089844 L 6.007812 46.984375 C 5.960938 46.40625 5.882812 45.597656 5.214844 45.367188 L 5.160156 45.351562 L 5.144531 45.335938 L 5.070312 45.335938 L 5.054688 45.320312 L 4.875 45.320312 Z M 4.855469 45.335938 Z M 4.855469 45.335938 "/>
<path style=" stroke:none;fill-rule:nonzero;fill:rgb(0%,0%,0%);fill-opacity:1;" d="M 8.382812 49.566406 L 8.382812 50.199219 L 7.738281 50.199219 L 7.738281 49.566406 Z M 8.382812 49.566406 Z M 8.382812 49.566406 "/>
<path style=" stroke:none;fill-rule:nonzero;fill:rgb(0%,0%,0%);fill-opacity:1;" d="M 11.285156 44.851562 C 12.128906 44.882812 12.921875 45.785156 12.589844 46.628906 C 12.445312 47.015625 12.046875 47.253906 11.722656 47.421875 C 12.53125 47.660156 13.023438 48.605469 12.660156 49.382812 C 12.277344 50.390625 10.832031 50.707031 10.039062 49.976562 C 9.316406 49.40625 9.292969 48.167969 10.097656 47.660156 C 10.214844 47.53125 10.4375 47.492188 10.539062 47.398438 C 9.851562 47.199219 9.382812 46.398438 9.707031 45.722656 C 9.96875 45.121094 10.644531 44.785156 11.285156 44.851562 Z M 11.285156 44.851562 Z M 10.984375 45.300781 C 10.398438 45.320312 9.984375 45.984375 10.183594 46.507812 C 10.414062 47.414062 11.929688 47.382812 12.105469 46.453125 C 12.261719 45.9375 11.851562 45.320312 11.285156 45.300781 L 11.269531 45.292969 L 11 45.292969 Z M 10.984375 45.300781 Z M 11 47.660156 C 10.308594 47.707031 9.96875 48.53125 10.152344 49.121094 C 10.269531 49.953125 11.460938 50.199219 11.929688 49.53125 C 12.382812 48.921875 12.160156 47.828125 11.34375 47.660156 L 11.269531 47.660156 L 11.253906 47.644531 L 11.007812 47.644531 Z M 11 47.660156 Z M 11 47.660156 "/>
<path style=" stroke:none;fill-rule:nonzero;fill:rgb(0%,0%,0%);fill-opacity:1;" d="M 5.101562 23.847656 C 5.859375 23.902344 6.359375 24.59375 6.492188 25.289062 C 6.5625 25.609375 6.578125 25.910156 6.613281 26.226562 L 6.613281 27.035156 C 6.570312 27.863281 6.375 28.949219 5.476562 29.28125 C 4.699219 29.59375 3.785156 29.109375 3.554688 28.3125 C 3.382812 27.894531 3.363281 27.464844 3.324219 27.035156 L 3.324219 26.226562 C 3.363281 25.402344 3.539062 24.304688 4.429688 23.941406 L 4.46875 23.925781 L 4.5 23.917969 L 4.539062 23.902344 L 4.660156 23.871094 L 4.730469 23.855469 L 4.816406 23.855469 L 4.832031 23.847656 Z M 5.101562 23.847656 Z M 4.855469 24.328125 C 4.191406 24.410156 3.992188 25.210938 3.945312 25.75 L 3.945312 25.964844 L 3.929688 25.980469 L 3.929688 27.085938 C 3.976562 27.65625 4.015625 28.394531 4.539062 28.773438 C 5.023438 29.109375 5.667969 28.734375 5.800781 28.21875 C 5.945312 27.839844 5.976562 27.464844 6.007812 27.085938 L 6.007812 25.980469 C 5.960938 25.402344 5.882812 24.59375 5.214844 24.363281 L 5.160156 24.347656 L 5.144531 24.328125 L 5.070312 24.328125 L 5.054688 24.3125 L 4.875 24.3125 Z M 4.855469 24.328125 Z M 4.855469 24.328125 "/>
<path style=" stroke:none;fill-rule:nonzero;fill:rgb(0%,0%,0%);fill-opacity:1;" d="M 8.382812 28.558594 L 8.382812 29.195312 L 7.738281 29.195312 L 7.738281 28.558594 Z M 8.382812 28.558594 Z M 8.382812 28.558594 "/>
<path style=" stroke:none;fill-rule:nonzero;fill:rgb(0%,0%,0%);fill-opacity:1;" d="M 11.300781 23.847656 C 12.253906 23.949219 12.667969 25.027344 12.730469 25.855469 C 12.84375 26.925781 12.714844 28.179688 11.84375 28.949219 C 11.292969 29.496094 10.324219 29.511719 9.738281 29.019531 C 9.808594 28.886719 9.890625 28.726562 9.976562 28.617188 C 10.492188 29.117188 11.398438 28.972656 11.730469 28.332031 C 11.96875 27.941406 12.113281 27.441406 12.105469 27.011719 C 11.636719 27.617188 10.605469 27.964844 10.039062 27.332031 C 9.46875 26.671875 9.367188 25.710938 9.652344 24.917969 C 9.945312 24.289062 10.570312 23.75 11.300781 23.847656 Z M 11.300781 23.847656 Z M 11.039062 24.296875 C 10.46875 24.347656 10.175781 24.980469 10.136719 25.480469 C 10.113281 26.042969 10.136719 26.703125 10.636719 27.066406 C 11.191406 27.410156 11.90625 26.996094 12.03125 26.394531 C 12.183594 25.804688 12.089844 25.179688 11.785156 24.632812 C 11.621094 24.402344 11.316406 24.234375 11.039062 24.296875 Z M 11.039062 24.296875 Z M 11.039062 24.296875 "/>
<path style=" stroke:none;fill-rule:nonzero;fill:rgb(0%,0%,0%);fill-opacity:1;" d="M 5.347656 2.839844 L 5.347656 7.738281 L 5.355469 7.753906 L 6.332031 7.753906 L 6.332031 8.191406 L 3.753906 8.191406 L 3.753906 7.753906 L 4.730469 7.753906 L 4.746094 7.738281 L 4.746094 3.628906 C 4.414062 3.738281 4.0625 3.808594 3.714844 3.800781 L 3.714844 3.355469 C 4.238281 3.363281 4.808594 3.222656 5.207031 2.839844 Z M 5.347656 2.839844 Z M 5.347656 2.839844 "/>
<path style=" stroke:none;fill-rule:nonzero;fill:rgb(0%,0%,0%);fill-opacity:1;" d="M 8.382812 7.554688 L 8.382812 8.191406 L 7.738281 8.191406 L 7.738281 7.554688 Z M 8.382812 7.554688 Z M 8.382812 7.554688 "/>
<path style=" stroke:none;fill-rule:nonzero;fill:rgb(0%,0%,0%);fill-opacity:1;" d="M 11.269531 2.839844 C 12.023438 2.898438 12.523438 3.585938 12.660156 4.285156 C 12.730469 4.601562 12.746094 4.90625 12.777344 5.222656 L 12.777344 6.03125 C 12.738281 6.859375 12.539062 7.945312 11.644531 8.277344 C 10.867188 8.585938 9.953125 8.105469 9.722656 7.308594 C 9.546875 6.890625 9.53125 6.460938 9.492188 6.03125 L 9.492188 5.222656 C 9.53125 4.398438 9.707031 3.300781 10.597656 2.9375 L 10.636719 2.921875 L 10.667969 2.914062 L 10.707031 2.898438 L 10.824219 2.863281 L 10.898438 2.847656 L 10.984375 2.847656 L 11 2.839844 Z M 11.269531 2.839844 Z M 11.023438 3.324219 C 10.359375 3.40625 10.160156 4.207031 10.113281 4.746094 L 10.113281 4.960938 L 10.097656 4.976562 L 10.097656 6.078125 C 10.144531 6.652344 10.183594 7.390625 10.707031 7.769531 C 11.191406 8.105469 11.835938 7.730469 11.96875 7.214844 C 12.113281 6.832031 12.144531 6.460938 12.175781 6.078125 L 12.175781 4.976562 C 12.128906 4.398438 12.046875 3.585938 11.382812 3.355469 L 11.324219 3.339844 L 11.308594 3.324219 L 11.238281 3.324219 L 11.222656 3.308594 L 11.039062 3.308594 Z M 11.023438 3.324219 Z M 11.023438 3.324219 "/>
<path style="fill:none;stroke-width:0.02;stroke-linecap:butt;stroke-linejoin:miter;stroke:rgb(0%,0%,0%);stroke-opacity:1;stroke-miterlimit:10;" d="M 9.751274 1.16934 L 9.646267 1.16934 " transform="matrix(28.346457,0,0,-28.346457,1,227.771654)"/>
<path style="fill:none;stroke-width:0.02;stroke-linecap:butt;stroke-linejoin:miter;stroke:rgb(0%,0%,0%);stroke-opacity:1;stroke-miterlimit:10;" d="M 9.751274 1.910311 L 9.646267 1.910311 " transform="matrix(28.346457,0,0,-28.346457,1,227.771654)"/>
<path style="fill:none;stroke-width:0.02;stroke-linecap:butt;stroke-linejoin:miter;stroke:rgb(0%,0%,0%);stroke-opacity:1;stroke-miterlimit:10;" d="M 9.751274 2.65142 L 9.646267 2.65142 " transform="matrix(28.346457,0,0,-28.346457,1,227.771654)"/>
<path style="fill:none;stroke-width:0.02;stroke-linecap:butt;stroke-linejoin:miter;stroke:rgb(0%,0%,0%);stroke-opacity:1;stroke-miterlimit:10;" d="M 9.751274 3.392391 L 9.646267 3.392391 " transform="matrix(28.346457,0,0,-28.346457,1,227.771654)"/>
<path style="fill:none;stroke-width:0.02;stroke-linecap:butt;stroke-linejoin:miter;stroke:rgb(0%,0%,0%);stroke-opacity:1;stroke-miterlimit:10;" d="M 9.751274 4.133363 L 9.646267 4.133363 " transform="matrix(28.346457,0,0,-28.346457,1,227.771654)"/>
<path style="fill:none;stroke-width:0.02;stroke-linecap:butt;stroke-linejoin:miter;stroke:rgb(0%,0%,0%);stroke-opacity:1;stroke-miterlimit:10;" d="M 9.751274 4.874334 L 9.646267 4.874334 " transform="matrix(28.346457,0,0,-28.346457,1,227.771654)"/>
<path style="fill:none;stroke-width:0.02;stroke-linecap:butt;stroke-linejoin:miter;stroke:rgb(0%,0%,0%);stroke-opacity:1;stroke-miterlimit:10;" d="M 9.751274 5.615305 L 9.646267 5.615305 " transform="matrix(28.346457,0,0,-28.346457,1,227.771654)"/>
<path style="fill:none;stroke-width:0.02;stroke-linecap:butt;stroke-linejoin:miter;stroke:rgb(0%,0%,0%);stroke-opacity:1;stroke-miterlimit:10;" d="M 9.751274 6.356276 L 9.646267 6.356276 " transform="matrix(28.346457,0,0,-28.346457,1,227.771654)"/>
<path style="fill:none;stroke-width:0.02;stroke-linecap:butt;stroke-linejoin:miter;stroke:rgb(0%,0%,0%);stroke-opacity:1;stroke-miterlimit:10;" d="M 9.751274 7.097247 L 9.646267 7.097247 " transform="matrix(28.346457,0,0,-28.346457,1,227.771654)"/>
<path style="fill:none;stroke-width:0.02;stroke-linecap:round;stroke-linejoin:miter;stroke:rgb(0%,0%,0%);stroke-opacity:1;stroke-miterlimit:10;" d="M 9.751274 0.428369 L 9.751274 7.838356 " transform="matrix(28.346457,0,0,-28.346457,1,227.771654)"/>
<path style="fill:none;stroke-width:0.02;stroke-linecap:butt;stroke-linejoin:miter;stroke:rgb(0%,0%,0%);stroke-opacity:1;stroke-miterlimit:10;" d="M 1.517358 0.428369 L 1.517358 0.533376 " transform="matrix(28.346457,0,0,-28.346457,1,227.771654)"/>
<path style="fill:none;stroke-width:0.02;stroke-linecap:butt;stroke-linejoin:miter;stroke:rgb(0%,0%,0%);stroke-opacity:1;stroke-miterlimit:10;" d="M 2.432237 0.428369 L 2.432237 0.533376 " transform="matrix(28.346457,0,0,-28.346457,1,227.771654)"/>
<path style="fill:none;stroke-width:0.02;stroke-linecap:butt;stroke-linejoin:miter;stroke:rgb(0%,0%,0%);stroke-opacity:1;stroke-miterlimit:10;" d="M 3.347117 0.428369 L 3.347117 0.533376 " transform="matrix(28.346457,0,0,-28.346457,1,227.771654)"/>
<path style="fill:none;stroke-width:0.02;stroke-linecap:butt;stroke-linejoin:miter;stroke:rgb(0%,0%,0%);stroke-opacity:1;stroke-miterlimit:10;" d="M 4.261997 0.428369 L 4.261997 0.533376 " transform="matrix(28.346457,0,0,-28.346457,1,227.771654)"/>
<path style="fill:none;stroke-width:0.02;stroke-linecap:butt;stroke-linejoin:miter;stroke:rgb(0%,0%,0%);stroke-opacity:1;stroke-miterlimit:10;" d="M 5.176876 0.428369 L 5.176876 0.533376 " transform="matrix(28.346457,0,0,-28.346457,1,227.771654)"/>
<path style="fill:none;stroke-width:0.02;stroke-linecap:butt;stroke-linejoin:miter;stroke:rgb(0%,0%,0%);stroke-opacity:1;stroke-miterlimit:10;" d="M 6.091756 0.428369 L 6.091756 0.533376 " transform="matrix(28.346457,0,0,-28.346457,1,227.771654)"/>
<path style="fill:none;stroke-width:0.02;stroke-linecap:butt;stroke-linejoin:miter;stroke:rgb(0%,0%,0%);stroke-opacity:1;stroke-miterlimit:10;" d="M 7.006635 0.428369 L 7.006635 0.533376 " transform="matrix(28.346457,0,0,-28.346457,1,227.771654)"/>
<path style="fill:none;stroke-width:0.02;stroke-linecap:butt;stroke-linejoin:miter;stroke:rgb(0%,0%,0%);stroke-opacity:1;stroke-miterlimit:10;" d="M 7.921515 0.428369 L 7.921515 0.533376 " transform="matrix(28.346457,0,0,-28.346457,1,227.771654)"/>
<path style="fill:none;stroke-width:0.02;stroke-linecap:butt;stroke-linejoin:miter;stroke:rgb(0%,0%,0%);stroke-opacity:1;stroke-miterlimit:10;" d="M 8.836394 0.428369 L 8.836394 0.533376 " transform="matrix(28.346457,0,0,-28.346457,1,227.771654)"/>
<path style="fill:none;stroke-width:0.02;stroke-linecap:round;stroke-linejoin:miter;stroke:rgb(0%,0%,0%);stroke-opacity:1;stroke-miterlimit:10;" d="M 0.602616 0.428369 L 9.751274 0.428369 " transform="matrix(28.346457,0,0,-28.346457,1,227.771654)"/>
<path style=" stroke:none;fill-rule:nonzero;fill:rgb(0%,0%,0%);fill-opacity:1;" d="M 15.132812 220.445312 C 15.886719 220.5 16.386719 221.191406 16.519531 221.890625 C 16.59375 222.207031 16.609375 222.507812 16.640625 222.828125 L 16.640625 223.636719 C 16.601562 224.460938 16.402344 225.550781 15.503906 225.882812 C 14.726562 226.191406 13.8125 225.707031 13.585938 224.914062 C 13.410156 224.492188 13.394531 224.066406 13.355469 223.636719 L 13.355469 222.828125 C 13.394531 222 13.566406 220.90625 14.457031 220.542969 L 14.496094 220.523438 L 14.527344 220.515625 L 14.566406 220.5 L 14.6875 220.46875 L 14.757812 220.453125 L 14.847656 220.453125 L 14.863281 220.445312 Z M 15.132812 220.445312 Z M 14.886719 220.929688 C 14.21875 221.007812 14.019531 221.8125 13.972656 222.351562 L 13.972656 222.566406 L 13.957031 222.582031 L 13.957031 223.683594 C 14.003906 224.253906 14.042969 224.992188 14.566406 225.375 C 15.050781 225.707031 15.695312 225.335938 15.832031 224.820312 C 15.972656 224.4375 16.003906 224.066406 16.035156 223.683594 L 16.035156 222.582031 C 15.988281 222 15.910156 221.191406 15.242188 220.960938 L 15.1875 220.945312 L 15.171875 220.929688 L 15.101562 220.929688 L 15.085938 220.914062 L 14.902344 220.914062 Z M 14.886719 220.929688 Z M 14.886719 220.929688 "/>
<path style=" stroke:none;fill-rule:nonzero;fill:rgb(0%,0%,0%);fill-opacity:1;" d="M 18.410156 225.160156 L 18.410156 225.796875 L 17.765625 225.796875 L 17.765625 225.160156 Z M 18.410156 225.160156 Z M 18.410156 225.160156 "/>
<path style=" stroke:none;fill-rule:nonzero;fill:rgb(0%,0%,0%);fill-opacity:1;" d="M 21.300781 220.445312 C 22.054688 220.5 22.554688 221.191406 22.6875 221.890625 C 22.757812 222.207031 22.773438 222.507812 22.808594 222.828125 L 22.808594 223.636719 C 22.765625 224.460938 22.570312 225.550781 21.671875 225.882812 C 20.894531 226.191406 19.980469 225.707031 19.75 224.914062 C 19.578125 224.492188 19.5625 224.066406 19.519531 223.636719 L 19.519531 222.828125 C 19.5625 222 19.734375 220.90625 20.625 220.542969 L 20.664062 220.523438 L 20.695312 220.515625 L 20.734375 220.5 L 20.855469 220.46875 L 20.925781 220.453125 L 21.011719 220.453125 L 21.027344 220.445312 Z M 21.300781 220.445312 Z M 21.054688 220.929688 C 20.386719 221.007812 20.1875 221.8125 20.140625 222.351562 L 20.140625 222.566406 L 20.125 222.582031 L 20.125 223.683594 C 20.171875 224.253906 20.210938 224.992188 20.734375 225.375 C 21.21875 225.707031 21.863281 225.335938 21.996094 224.820312 C 22.140625 224.4375 22.171875 224.066406 22.203125 223.683594 L 22.203125 222.582031 C 22.15625 222 22.078125 221.191406 21.410156 220.960938 L 21.355469 220.945312 L 21.339844 220.929688 L 21.265625 220.929688 L 21.25 220.914062 L 21.070312 220.914062 Z M 21.054688 220.929688 Z M 21.054688 220.929688 "/>
<path style=" stroke:none;fill-rule:nonzero;fill:rgb(0%,0%,0%);fill-opacity:1;" d="M 41.066406 220.445312 C 41.820312 220.5 42.320312 221.191406 42.453125 221.890625 C 42.527344 222.207031 42.542969 222.507812 42.574219 222.828125 L 42.574219 223.636719 C 42.535156 224.460938 42.335938 225.550781 41.4375 225.882812 C 40.660156 226.191406 39.746094 225.707031 39.515625 224.914062 C 39.34375 224.492188 39.328125 224.066406 39.289062 223.636719 L 39.289062 222.828125 C 39.328125 222 39.5 220.90625 40.390625 220.542969 L 40.429688 220.523438 L 40.460938 220.515625 L 40.5 220.5 L 40.621094 220.46875 L 40.691406 220.453125 L 40.78125 220.453125 L 40.796875 220.445312 Z M 41.066406 220.445312 Z M 40.820312 220.929688 C 40.152344 221.007812 39.953125 221.8125 39.90625 222.351562 L 39.90625 222.566406 L 39.890625 222.582031 L 39.890625 223.683594 C 39.9375 224.253906 39.976562 224.992188 40.5 225.375 C 40.984375 225.707031 41.628906 225.335938 41.761719 224.820312 C 41.90625 224.4375 41.9375 224.066406 41.96875 223.683594 L 41.96875 222.582031 C 41.921875 222 41.84375 221.191406 41.175781 220.960938 L 41.121094 220.945312 L 41.105469 220.929688 L 41.035156 220.929688 L 41.015625 220.914062 L 40.835938 220.914062 Z M 40.820312 220.929688 Z M 40.820312 220.929688 "/>
<path style=" stroke:none;fill-rule:nonzero;fill:rgb(0%,0%,0%);fill-opacity:1;" d="M 44.34375 225.160156 L 44.34375 225.796875 L 43.699219 225.796875 L 43.699219 225.160156 Z M 44.34375 225.160156 Z M 44.34375 225.160156 "/>
<path style=" stroke:none;fill-rule:nonzero;fill:rgb(0%,0%,0%);fill-opacity:1;" d="M 47.476562 220.445312 L 47.476562 225.34375 L 47.484375 225.359375 L 48.460938 225.359375 L 48.460938 225.796875 L 45.882812 225.796875 L 45.882812 225.359375 L 46.859375 225.359375 L 46.875 225.34375 L 46.875 221.230469 C 46.542969 221.34375 46.191406 221.414062 45.84375 221.40625 L 45.84375 220.960938 C 46.367188 220.96875 46.9375 220.828125 47.335938 220.445312 Z M 47.476562 220.445312 Z M 47.476562 220.445312 "/>
<path style=" stroke:none;fill-rule:nonzero;fill:rgb(0%,0%,0%);fill-opacity:1;" d="M 67 220.445312 C 67.753906 220.5 68.253906 221.191406 68.386719 221.890625 C 68.457031 222.207031 68.472656 222.507812 68.507812 222.828125 L 68.507812 223.636719 C 68.464844 224.460938 68.269531 225.550781 67.371094 225.882812 C 66.59375 226.191406 65.679688 225.707031 65.449219 224.914062 C 65.277344 224.492188 65.261719 224.066406 65.21875 223.636719 L 65.21875 222.828125 C 65.261719 222 65.433594 220.90625 66.324219 220.542969 L 66.363281 220.523438 L 66.394531 220.515625 L 66.433594 220.5 L 66.554688 220.46875 L 66.625 220.453125 L 66.710938 220.453125 L 66.726562 220.445312 Z M 67 220.445312 Z M 66.753906 220.929688 C 66.085938 221.007812 65.886719 221.8125 65.839844 222.351562 L 65.839844 222.566406 L 65.824219 222.582031 L 65.824219 223.683594 C 65.871094 224.253906 65.910156 224.992188 66.433594 225.375 C 66.917969 225.707031 67.5625 225.335938 67.695312 224.820312 C 67.839844 224.4375 67.871094 224.066406 67.902344 223.683594 L 67.902344 222.582031 C 67.855469 222 67.777344 221.191406 67.109375 220.960938 L 67.054688 220.945312 L 67.039062 220.929688 L 66.964844 220.929688 L 66.949219 220.914062 L 66.769531 220.914062 Z M 66.753906 220.929688 Z M 66.753906 220.929688 "/>
<path style=" stroke:none;fill-rule:nonzero;fill:rgb(0%,0%,0%);fill-opacity:1;" d="M 70.277344 225.160156 L 70.277344 225.796875 L 69.632812 225.796875 L 69.632812 225.160156 Z M 70.277344 225.160156 Z M 70.277344 225.160156 "/>
<path style=" stroke:none;fill-rule:nonzero;fill:rgb(0%,0%,0%);fill-opacity:1;" d="M 73.078125 220.445312 C 74 220.46875 74.730469 221.414062 74.585938 222.304688 C 74.492188 223.191406 73.65625 223.699219 73.0625 224.253906 L 72.808594 224.515625 L 72.777344 224.535156 L 72.457031 224.84375 L 72.433594 224.859375 L 72.117188 225.175781 L 72.085938 225.191406 L 72.015625 225.261719 L 72.03125 225.273438 L 74.601562 225.273438 L 74.601562 225.796875 L 71.457031 225.796875 L 71.457031 225.320312 L 72.738281 224.042969 C 73.347656 223.507812 74.0625 222.820312 73.949219 221.945312 C 73.886719 221.4375 73.460938 220.96875 72.933594 220.929688 C 72.402344 220.851562 71.933594 221.269531 71.816406 221.777344 L 71.800781 221.804688 L 71.785156 221.859375 L 71.761719 221.945312 L 71.710938 222.121094 L 71.703125 222.160156 C 71.59375 222.023438 71.476562 221.882812 71.386719 221.730469 C 71.546875 221.082031 72.070312 220.46875 72.761719 220.445312 Z M 73.078125 220.445312 Z M 73.078125 220.445312 "/>
<path style=" stroke:none;fill-rule:nonzero;fill:rgb(0%,0%,0%);fill-opacity:1;" d="M 92.929688 220.445312 C 93.683594 220.5 94.183594 221.191406 94.320312 221.890625 C 94.390625 222.207031 94.40625 222.507812 94.441406 222.828125 L 94.441406 223.636719 C 94.398438 224.460938 94.203125 225.550781 93.304688 225.882812 C 92.527344 226.191406 91.613281 225.707031 91.382812 224.914062 C 91.210938 224.492188 91.191406 224.066406 91.152344 223.636719 L 91.152344 222.828125 C 91.191406 222 91.367188 220.90625 92.257812 220.542969 L 92.296875 220.523438 L 92.328125 220.515625 L 92.367188 220.5 L 92.488281 220.46875 L 92.558594 220.453125 L 92.644531 220.453125 L 92.660156 220.445312 Z M 92.929688 220.445312 Z M 92.683594 220.929688 C 92.019531 221.007812 91.820312 221.8125 91.773438 222.351562 L 91.773438 222.566406 L 91.757812 222.582031 L 91.757812 223.683594 C 91.804688 224.253906 91.84375 224.992188 92.367188 225.375 C 92.851562 225.707031 93.496094 225.335938 93.628906 224.820312 C 93.773438 224.4375 93.804688 224.066406 93.835938 223.683594 L 93.835938 222.582031 C 93.789062 222 93.710938 221.191406 93.042969 220.960938 L 92.988281 220.945312 L 92.972656 220.929688 L 92.898438 220.929688 L 92.882812 220.914062 L 92.703125 220.914062 Z M 92.683594 220.929688 Z M 92.683594 220.929688 "/>
<path style=" stroke:none;fill-rule:nonzero;fill:rgb(0%,0%,0%);fill-opacity:1;" d="M 96.210938 225.160156 L 96.210938 225.796875 L 95.566406 225.796875 L 95.566406 225.160156 Z M 96.210938 225.160156 Z M 96.210938 225.160156 "/>
<path style=" stroke:none;fill-rule:nonzero;fill:rgb(0%,0%,0%);fill-opacity:1;" d="M 99.113281 220.445312 C 99.8125 220.476562 100.542969 221.121094 100.375 221.859375 C 100.296875 222.359375 99.949219 222.769531 99.511719 222.992188 C 100.21875 223.214844 100.765625 223.960938 100.574219 224.699219 C 100.382812 225.660156 99.28125 226.191406 98.390625 225.898438 C 97.964844 225.773438 97.527344 225.5 97.320312 225.105469 C 97.367188 224.984375 97.351562 224.78125 97.40625 224.699219 C 97.828125 225.320312 98.71875 225.738281 99.414062 225.390625 C 100.179688 224.90625 100.058594 223.492188 99.136719 223.253906 L 99.066406 223.253906 L 99.050781 223.238281 L 98.3125 223.238281 L 98.3125 222.761719 C 98.765625 222.753906 99.328125 222.699219 99.582031 222.230469 C 99.851562 221.828125 99.828125 221.160156 99.3125 220.960938 C 98.703125 220.722656 97.949219 221.113281 97.71875 221.730469 C 97.621094 221.597656 97.527344 221.460938 97.433594 221.320312 C 97.757812 220.730469 98.449219 220.382812 99.113281 220.445312 Z M 99.113281 220.445312 Z M 99.113281 220.445312 "/>
<path style=" stroke:none;fill-rule:nonzero;fill:rgb(0%,0%,0%);fill-opacity:1;" d="M 118.863281 220.445312 C 119.617188 220.5 120.117188 221.191406 120.253906 221.890625 C 120.324219 222.207031 120.339844 222.507812 120.371094 222.828125 L 120.371094 223.636719 C 120.332031 224.460938 120.132812 225.550781 119.238281 225.882812 C 118.460938 226.191406 117.546875 225.707031 117.316406 224.914062 C 117.140625 224.492188 117.125 224.066406 117.085938 223.636719 L 117.085938 222.828125 C 117.125 222 117.300781 220.90625 118.191406 220.542969 L 118.230469 220.523438 L 118.261719 220.515625 L 118.300781 220.5 L 118.421875 220.46875 L 118.492188 220.453125 L 118.578125 220.453125 L 118.59375 220.445312 Z M 118.863281 220.445312 Z M 118.617188 220.929688 C 117.953125 221.007812 117.753906 221.8125 117.707031 222.351562 L 117.707031 222.566406 L 117.691406 222.582031 L 117.691406 223.683594 C 117.738281 224.253906 117.777344 224.992188 118.300781 225.375 C 118.785156 225.707031 119.429688 225.335938 119.5625 224.820312 C 119.707031 224.4375 119.738281 224.066406 119.769531 223.683594 L 119.769531 222.582031 C 119.722656 222 119.640625 221.191406 118.976562 220.960938 L 118.921875 220.945312 L 118.90625 220.929688 L 118.832031 220.929688 L 118.816406 220.914062 L 118.632812 220.914062 Z M 118.617188 220.929688 Z M 118.617188 220.929688 "/>
<path style=" stroke:none;fill-rule:nonzero;fill:rgb(0%,0%,0%);fill-opacity:1;" d="M 122.144531 225.160156 L 122.144531 225.796875 L 121.5 225.796875 L 121.5 225.160156 Z M 122.144531 225.160156 Z M 122.144531 225.160156 "/>
<path style=" stroke:none;fill-rule:nonzero;fill:rgb(0%,0%,0%);fill-opacity:1;" d="M 125.847656 220.613281 L 125.847656 223.953125 L 125.863281 223.96875 L 126.652344 223.96875 L 126.652344 224.445312 L 125.863281 224.445312 L 125.847656 224.453125 L 125.847656 225.796875 L 125.246094 225.796875 L 125.246094 224.453125 L 125.230469 224.445312 L 123.136719 224.445312 L 123.136719 223.953125 C 123.800781 222.84375 124.46875 221.722656 125.136719 220.613281 Z M 125.847656 220.613281 Z M 125.261719 220.914062 C 125.101562 221.738281 124.59375 222.445312 124.214844 223.167969 C 124.0625 223.429688 123.863281 223.714844 123.753906 223.96875 L 125.277344 223.96875 L 125.285156 223.953125 L 125.285156 220.914062 L 125.277344 220.898438 Z M 125.261719 220.914062 Z M 125.261719 220.914062 "/>
<path style=" stroke:none;fill-rule:nonzero;fill:rgb(0%,0%,0%);fill-opacity:1;" d="M 144.796875 220.445312 C 145.550781 220.5 146.050781 221.191406 146.1875 221.890625 C 146.257812 222.207031 146.273438 222.507812 146.304688 222.828125 L 146.304688 223.636719 C 146.265625 224.460938 146.066406 225.550781 145.171875 225.882812 C 144.394531 226.191406 143.480469 225.707031 143.25 224.914062 C 143.074219 224.492188 143.058594 224.066406 143.019531 223.636719 L 143.019531 222.828125 C 143.058594 222 143.234375 220.90625 144.125 220.542969 L 144.164062 220.523438 L 144.195312 220.515625 L 144.234375 220.5 L 144.351562 220.46875 L 144.425781 220.453125 L 144.511719 220.453125 L 144.527344 220.445312 Z M 144.796875 220.445312 Z M 144.550781 220.929688 C 143.886719 221.007812 143.6875 221.8125 143.640625 222.351562 L 143.640625 222.566406 L 143.625 222.582031 L 143.625 223.683594 C 143.671875 224.253906 143.710938 224.992188 144.234375 225.375 C 144.71875 225.707031 145.363281 225.335938 145.496094 224.820312 C 145.640625 224.4375 145.671875 224.066406 145.703125 223.683594 L 145.703125 222.582031 C 145.65625 222 145.574219 221.191406 144.910156 220.960938 L 144.851562 220.945312 L 144.835938 220.929688 L 144.765625 220.929688 L 144.75 220.914062 L 144.566406 220.914062 Z M 144.550781 220.929688 Z M 144.550781 220.929688 "/>
<path style=" stroke:none;fill-rule:nonzero;fill:rgb(0%,0%,0%);fill-opacity:1;" d="M 148.074219 225.160156 L 148.074219 225.796875 L 147.433594 225.796875 L 147.433594 225.160156 Z M 148.074219 225.160156 Z M 148.074219 225.160156 "/>
<path style=" stroke:none;fill-rule:nonzero;fill:rgb(0%,0%,0%);fill-opacity:1;" d="M 152.140625 220.613281 L 152.140625 221.105469 L 150.074219 221.105469 L 150.058594 221.113281 L 150.058594 222.738281 C 150.25 222.613281 150.519531 222.445312 150.773438 222.4375 C 151.671875 222.34375 152.363281 223.222656 152.402344 224.042969 C 152.527344 225.082031 151.550781 226.113281 150.503906 225.953125 C 149.980469 225.9375 149.472656 225.628906 149.171875 225.199219 C 149.257812 225.082031 149.328125 224.875 149.433594 224.804688 C 149.804688 225.535156 151.011719 225.828125 151.496094 225.058594 C 151.804688 224.476562 151.796875 223.738281 151.441406 223.183594 C 151.027344 222.652344 150.210938 222.976562 150.019531 223.542969 L 149.503906 223.542969 L 149.503906 220.613281 Z M 152.140625 220.613281 Z M 152.140625 220.613281 "/>
<path style=" stroke:none;fill-rule:nonzero;fill:rgb(0%,0%,0%);fill-opacity:1;" d="M 170.730469 220.445312 C 171.484375 220.5 171.984375 221.191406 172.121094 221.890625 C 172.191406 222.207031 172.207031 222.507812 172.238281 222.828125 L 172.238281 223.636719 C 172.199219 224.460938 172 225.550781 171.105469 225.882812 C 170.328125 226.191406 169.414062 225.707031 169.183594 224.914062 C 169.007812 224.492188 168.992188 224.066406 168.953125 223.636719 L 168.953125 222.828125 C 168.992188 222 169.167969 220.90625 170.054688 220.542969 L 170.097656 220.523438 L 170.128906 220.515625 L 170.167969 220.5 L 170.285156 220.46875 L 170.359375 220.453125 L 170.445312 220.453125 L 170.460938 220.445312 Z M 170.730469 220.445312 Z M 170.484375 220.929688 C 169.816406 221.007812 169.621094 221.8125 169.574219 222.351562 L 169.574219 222.566406 L 169.554688 222.582031 L 169.554688 223.683594 C 169.605469 224.253906 169.644531 224.992188 170.167969 225.375 C 170.652344 225.707031 171.292969 225.335938 171.429688 224.820312 C 171.574219 224.4375 171.605469 224.066406 171.636719 223.683594 L 171.636719 222.582031 C 171.589844 222 171.507812 221.191406 170.84375 220.960938 L 170.785156 220.945312 L 170.769531 220.929688 L 170.699219 220.929688 L 170.683594 220.914062 L 170.5 220.914062 Z M 170.484375 220.929688 Z M 170.484375 220.929688 "/>
<path style=" stroke:none;fill-rule:nonzero;fill:rgb(0%,0%,0%);fill-opacity:1;" d="M 174.007812 225.160156 L 174.007812 225.796875 L 173.367188 225.796875 L 173.367188 225.160156 Z M 174.007812 225.160156 Z M 174.007812 225.160156 "/>
<path style=" stroke:none;fill-rule:nonzero;fill:rgb(0%,0%,0%);fill-opacity:1;" d="M 177.414062 220.445312 C 177.621094 220.476562 177.859375 220.5 178.058594 220.597656 L 178.058594 221.058594 C 177.507812 220.820312 176.796875 220.785156 176.367188 221.269531 C 175.984375 221.675781 175.8125 222.277344 175.792969 222.8125 C 176.253906 222.199219 177.296875 221.859375 177.859375 222.492188 C 178.421875 223.144531 178.515625 224.082031 178.261719 224.875 C 177.984375 225.507812 177.34375 226.089844 176.628906 225.953125 C 175.660156 225.875 175.222656 224.796875 175.175781 223.96875 C 174.992188 222.804688 175.269531 221.335938 176.382812 220.667969 L 176.398438 220.660156 L 176.566406 220.574219 L 176.613281 220.558594 L 176.636719 220.542969 L 176.769531 220.5 L 176.882812 220.46875 L 176.953125 220.453125 L 177.042969 220.453125 L 177.058594 220.445312 Z M 177.414062 220.445312 Z M 176.636719 222.652344 C 175.945312 222.769531 175.722656 223.605469 175.8125 224.167969 C 175.851562 224.699219 176.058594 225.40625 176.667969 225.515625 C 177.320312 225.605469 177.738281 224.90625 177.753906 224.34375 C 177.785156 223.769531 177.753906 223.121094 177.253906 222.746094 L 177.144531 222.691406 L 177.058594 222.667969 L 176.984375 222.652344 L 176.96875 222.636719 L 176.652344 222.636719 Z M 176.636719 222.652344 Z M 176.636719 222.652344 "/>
<path style=" stroke:none;fill-rule:nonzero;fill:rgb(0%,0%,0%);fill-opacity:1;" d="M 196.664062 220.445312 C 197.417969 220.5 197.917969 221.191406 198.054688 221.890625 C 198.125 222.207031 198.140625 222.507812 198.171875 222.828125 L 198.171875 223.636719 C 198.132812 224.460938 197.933594 225.550781 197.039062 225.882812 C 196.257812 226.191406 195.347656 225.707031 195.117188 224.914062 C 194.941406 224.492188 194.925781 224.066406 194.886719 223.636719 L 194.886719 222.828125 C 194.925781 222 195.101562 220.90625 195.988281 220.542969 L 196.03125 220.523438 L 196.0625 220.515625 L 196.101562 220.5 L 196.21875 220.46875 L 196.292969 220.453125 L 196.378906 220.453125 L 196.394531 220.445312 Z M 196.664062 220.445312 Z M 196.417969 220.929688 C 195.75 221.007812 195.554688 221.8125 195.503906 222.351562 L 195.503906 222.566406 L 195.488281 222.582031 L 195.488281 223.683594 C 195.539062 224.253906 195.578125 224.992188 196.101562 225.375 C 196.585938 225.707031 197.226562 225.335938 197.363281 224.820312 C 197.503906 224.4375 197.539062 224.066406 197.570312 223.683594 L 197.570312 222.582031 C 197.523438 222 197.441406 221.191406 196.777344 220.960938 L 196.71875 220.945312 L 196.703125 220.929688 L 196.632812 220.929688 L 196.617188 220.914062 L 196.433594 220.914062 Z M 196.417969 220.929688 Z M 196.417969 220.929688 "/>
<path style=" stroke:none;fill-rule:nonzero;fill:rgb(0%,0%,0%);fill-opacity:1;" d="M 199.941406 225.160156 L 199.941406 225.796875 L 199.300781 225.796875 L 199.300781 225.160156 Z M 199.941406 225.160156 Z M 199.941406 225.160156 "/>
<path style=" stroke:none;fill-rule:nonzero;fill:rgb(0%,0%,0%);fill-opacity:1;" d="M 204.339844 220.613281 L 204.339844 221.113281 C 203.210938 222.429688 202.578125 224.207031 202.585938 225.882812 L 201.941406 225.882812 C 201.925781 224.191406 202.617188 222.40625 203.824219 221.160156 L 203.808594 221.144531 L 201.054688 221.144531 L 201.054688 220.613281 L 204.339844 220.613281 L 204.339844 221.113281 Z M 204.339844 220.613281 Z M 204.339844 220.613281 "/>
<path style=" stroke:none;fill-rule:nonzero;fill:rgb(0%,0%,0%);fill-opacity:1;" d="M 222.597656 220.445312 C 223.351562 220.5 223.851562 221.191406 223.988281 221.890625 C 224.058594 222.207031 224.074219 222.507812 224.105469 222.828125 L 224.105469 223.636719 C 224.066406 224.460938 223.867188 225.550781 222.96875 225.882812 C 222.191406 226.191406 221.28125 225.707031 221.050781 224.914062 C 220.875 224.492188 220.859375 224.066406 220.820312 223.636719 L 220.820312 222.828125 C 220.859375 222 221.035156 220.90625 221.921875 220.542969 L 221.960938 220.523438 L 221.996094 220.515625 L 222.035156 220.5 L 222.152344 220.46875 L 222.222656 220.453125 L 222.3125 220.453125 L 222.328125 220.445312 Z M 222.597656 220.445312 Z M 222.351562 220.929688 C 221.683594 221.007812 221.488281 221.8125 221.4375 222.351562 L 221.4375 222.566406 L 221.421875 222.582031 L 221.421875 223.683594 C 221.46875 224.253906 221.511719 224.992188 222.035156 225.375 C 222.519531 225.707031 223.160156 225.335938 223.296875 224.820312 C 223.4375 224.4375 223.46875 224.066406 223.503906 223.683594 L 223.503906 222.582031 C 223.453125 222 223.375 221.191406 222.707031 220.960938 L 222.652344 220.945312 L 222.636719 220.929688 L 222.566406 220.929688 L 222.550781 220.914062 L 222.367188 220.914062 Z M 222.351562 220.929688 Z M 222.351562 220.929688 "/>
<path style=" stroke:none;fill-rule:nonzero;fill:rgb(0%,0%,0%);fill-opacity:1;" d="M 225.875 225.160156 L 225.875 225.796875 L 225.234375 225.796875 L 225.234375 225.160156 Z M 225.875 225.160156 Z M 225.875 225.160156 "/>
<path style=" stroke:none;fill-rule:nonzero;fill:rgb(0%,0%,0%);fill-opacity:1;" d="M 228.78125 220.445312 C 229.621094 220.476562 230.414062 221.382812 230.082031 222.222656 C 229.9375 222.613281 229.542969 222.851562 229.21875 223.015625 C 230.027344 223.253906 230.519531 224.199219 230.152344 224.976562 C 229.773438 225.984375 228.328125 226.304688 227.535156 225.574219 C 226.8125 225 226.789062 223.761719 227.589844 223.253906 C 227.707031 223.128906 227.929688 223.089844 228.035156 222.992188 C 227.34375 222.796875 226.875 221.992188 227.199219 221.320312 C 227.464844 220.714844 228.136719 220.382812 228.78125 220.445312 Z M 228.78125 220.445312 Z M 228.480469 220.898438 C 227.890625 220.914062 227.480469 221.582031 227.675781 222.105469 C 227.90625 223.007812 229.421875 222.976562 229.597656 222.050781 C 229.757812 221.53125 229.34375 220.914062 228.78125 220.898438 L 228.765625 220.890625 L 228.496094 220.890625 Z M 228.480469 220.898438 Z M 228.496094 223.253906 C 227.804688 223.304688 227.464844 224.128906 227.644531 224.714844 C 227.765625 225.550781 228.953125 225.796875 229.421875 225.128906 C 229.875 224.515625 229.652344 223.421875 228.835938 223.253906 L 228.765625 223.253906 L 228.75 223.238281 L 228.503906 223.238281 Z M 228.496094 223.253906 Z M 228.496094 223.253906 "/>
<path style=" stroke:none;fill-rule:nonzero;fill:rgb(0%,0%,0%);fill-opacity:1;" d="M 248.53125 220.445312 C 249.285156 220.5 249.785156 221.191406 249.917969 221.890625 C 249.992188 222.207031 250.007812 222.507812 250.039062 222.828125 L 250.039062 223.636719 C 250 224.460938 249.800781 225.550781 248.902344 225.882812 C 248.125 226.191406 247.214844 225.707031 246.984375 224.914062 C 246.808594 224.492188 246.792969 224.066406 246.753906 223.636719 L 246.753906 222.828125 C 246.792969 222 246.96875 220.90625 247.855469 220.542969 L 247.894531 220.523438 L 247.925781 220.515625 L 247.96875 220.5 L 248.085938 220.46875 L 248.15625 220.453125 L 248.246094 220.453125 L 248.261719 220.445312 Z M 248.53125 220.445312 Z M 248.285156 220.929688 C 247.617188 221.007812 247.417969 221.8125 247.371094 222.351562 L 247.371094 222.566406 L 247.355469 222.582031 L 247.355469 223.683594 C 247.402344 224.253906 247.441406 224.992188 247.96875 225.375 C 248.453125 225.707031 249.09375 225.335938 249.230469 224.820312 C 249.371094 224.4375 249.402344 224.066406 249.433594 223.683594 L 249.433594 222.582031 C 249.386719 222 249.308594 221.191406 248.640625 220.960938 L 248.585938 220.945312 L 248.570312 220.929688 L 248.5 220.929688 L 248.484375 220.914062 L 248.300781 220.914062 Z M 248.285156 220.929688 Z M 248.285156 220.929688 "/>
<path style=" stroke:none;fill-rule:nonzero;fill:rgb(0%,0%,0%);fill-opacity:1;" d="M 251.808594 225.160156 L 251.808594 225.796875 L 251.164062 225.796875 L 251.164062 225.160156 Z M 251.808594 225.160156 Z M 251.808594 225.160156 "/>
<path style=" stroke:none;fill-rule:nonzero;fill:rgb(0%,0%,0%);fill-opacity:1;" d="M 254.730469 220.445312 C 255.683594 220.550781 256.09375 221.628906 256.15625 222.453125 C 256.269531 223.523438 256.140625 224.78125 255.269531 225.550781 C 254.722656 226.097656 253.753906 226.113281 253.164062 225.621094 C 253.238281 225.484375 253.316406 225.328125 253.402344 225.214844 C 253.921875 225.714844 254.824219 225.574219 255.15625 224.929688 C 255.394531 224.542969 255.539062 224.042969 255.53125 223.613281 C 255.0625 224.214844 254.03125 224.566406 253.46875 223.929688 C 252.894531 223.269531 252.792969 222.3125 253.078125 221.515625 C 253.371094 220.890625 254 220.351562 254.730469 220.445312 Z M 254.730469 220.445312 Z M 254.46875 220.898438 C 253.894531 220.945312 253.601562 221.582031 253.5625 222.082031 C 253.539062 222.644531 253.5625 223.304688 254.0625 223.667969 C 254.617188 224.007812 255.332031 223.597656 255.460938 222.992188 C 255.609375 222.40625 255.515625 221.777344 255.214844 221.230469 C 255.046875 221 254.746094 220.835938 254.46875 220.898438 Z M 254.46875 220.898438 Z M 254.46875 220.898438 "/>
<path style=" stroke:none;fill-rule:nonzero;fill:rgb(0%,0%,0%);fill-opacity:1;" d="M 274.710938 220.445312 L 274.710938 225.34375 L 274.71875 225.359375 L 275.695312 225.359375 L 275.695312 225.796875 L 273.113281 225.796875 L 273.113281 225.359375 L 274.089844 225.359375 L 274.105469 225.34375 L 274.105469 221.230469 C 273.773438 221.34375 273.425781 221.414062 273.074219 221.40625 L 273.074219 220.960938 C 273.597656 220.96875 274.171875 220.828125 274.566406 220.445312 Z M 274.710938 220.445312 Z M 274.710938 220.445312 "/>
<path style=" stroke:none;fill-rule:nonzero;fill:rgb(0%,0%,0%);fill-opacity:1;" d="M 277.742188 225.160156 L 277.742188 225.796875 L 277.097656 225.796875 L 277.097656 225.160156 Z M 277.742188 225.160156 Z M 277.742188 225.160156 "/>
<path style=" stroke:none;fill-rule:nonzero;fill:rgb(0%,0%,0%);fill-opacity:1;" d="M 280.632812 220.445312 C 281.386719 220.5 281.886719 221.191406 282.019531 221.890625 C 282.089844 222.207031 282.105469 222.507812 282.140625 222.828125 L 282.140625 223.636719 C 282.097656 224.460938 281.902344 225.550781 281.003906 225.882812 C 280.226562 226.191406 279.3125 225.707031 279.082031 224.914062 C 278.910156 224.492188 278.894531 224.066406 278.851562 223.636719 L 278.851562 222.828125 C 278.894531 222 279.066406 220.90625 279.957031 220.542969 L 279.996094 220.523438 L 280.027344 220.515625 L 280.066406 220.5 L 280.1875 220.46875 L 280.257812 220.453125 L 280.34375 220.453125 L 280.359375 220.445312 Z M 280.632812 220.445312 Z M 280.386719 220.929688 C 279.71875 221.007812 279.519531 221.8125 279.472656 222.351562 L 279.472656 222.566406 L 279.457031 222.582031 L 279.457031 223.683594 C 279.503906 224.253906 279.542969 224.992188 280.066406 225.375 C 280.550781 225.707031 281.195312 225.335938 281.328125 224.820312 C 281.472656 224.4375 281.503906 224.066406 281.535156 223.683594 L 281.535156 222.582031 C 281.488281 222 281.410156 221.191406 280.742188 220.960938 L 280.6875 220.945312 L 280.671875 220.929688 L 280.597656 220.929688 L 280.582031 220.914062 L 280.402344 220.914062 Z M 280.386719 220.929688 Z M 280.386719 220.929688 "/>
<path style="fill:none;stroke-width:0.02;stroke-linecap:butt;stroke-linejoin:miter;stroke:rgb(0%,0%,0%);stroke-opacity:1;stroke-miterlimit:10;" d="M 1.517358 7.838356 L 1.517358 7.73335 " transform="matrix(28.346457,0,0,-28.346457,1,227.771654)"/>
<path style="fill:none;stroke-width:0.02;stroke-linecap:butt;stroke-linejoin:miter;stroke:rgb(0%,0%,0%);stroke-opacity:1;stroke-miterlimit:10;" d="M 2.432237 7.838356 L 2.432237 7.73335 " transform="matrix(28.346457,0,0,-28.346457,1,227.771654)"/>
<path style="fill:none;stroke-width:0.02;stroke-linecap:butt;stroke-linejoin:miter;stroke:rgb(0%,0%,0%);stroke-opacity:1;stroke-miterlimit:10;" d="M 3.347117 7.838356 L 3.347117 7.73335 " transform="matrix(28.346457,0,0,-28.346457,1,227.771654)"/>
<path style="fill:none;stroke-width:0.02;stroke-linecap:butt;stroke-linejoin:miter;stroke:rgb(0%,0%,0%);stroke-opacity:1;stroke-miterlimit:10;" d="M 4.261997 7.838356 L 4.261997 7.73335 " transform="matrix(28.346457,0,0,-28.346457,1,227.771654)"/>
<path style="fill:none;stroke-width:0.02;stroke-linecap:butt;stroke-linejoin:miter;stroke:rgb(0%,0%,0%);stroke-opacity:1;stroke-miterlimit:10;" d="M 5.176876 7.838356 L 5.176876 7.73335 " transform="matrix(28.346457,0,0,-28.346457,1,227.771654)"/>
<path style="fill:none;stroke-width:0.02;stroke-linecap:butt;stroke-linejoin:miter;stroke:rgb(0%,0%,0%);stroke-opacity:1;stroke-miterlimit:10;" d="M 6.091756 7.838356 L 6.091756 7.73335 " transform="matrix(28.346457,0,0,-28.346457,1,227.771654)"/>
<path style="fill:none;stroke-width:0.02;stroke-linecap:butt;stroke-linejoin:miter;stroke:rgb(0%,0%,0%);stroke-opacity:1;stroke-miterlimit:10;" d="M 7.006635 7.838356 L 7.006635 7.73335 " transform="matrix(28.346457,0,0,-28.346457,1,227.771654)"/>
<path style="fill:none;stroke-width:0.02;stroke-linecap:butt;stroke-linejoin:miter;stroke:rgb(0%,0%,0%);stroke-opacity:1;stroke-miterlimit:10;" d="M 7.921515 7.838356 L 7.921515 7.73335 " transform="matrix(28.346457,0,0,-28.346457,1,227.771654)"/>
<path style="fill:none;stroke-width:0.02;stroke-linecap:butt;stroke-linejoin:miter;stroke:rgb(0%,0%,0%);stroke-opacity:1;stroke-miterlimit:10;" d="M 8.836394 7.838356 L 8.836394 7.73335 " transform="matrix(28.346457,0,0,-28.346457,1,227.771654)"/>
<path style="fill:none;stroke-width:0.02;stroke-linecap:round;stroke-linejoin:miter;stroke:rgb(0%,0%,0%);stroke-opacity:1;stroke-miterlimit:10;" d="M 0.602616 7.838356 L 9.751274 7.838356 " transform="matrix(28.346457,0,0,-28.346457,1,227.771654)"/>
<path style="fill:none;stroke-width:0.02;stroke-linecap:butt;stroke-linejoin:miter;stroke:rgb(32.941176%,47.058824%,63.921569%);stroke-opacity:1;stroke-miterlimit:10;" d="M 0.602616 0.428369 L 0.694945 0.429196 L 0.787411 0.431401 L 0.87974 0.435259 L 0.972206 0.440496 L 1.064672 0.447248 L 1.157001 0.455654 L 1.249467 0.465438 L 1.341796 0.476738 L 1.434262 0.489692 L 1.526729 0.504023 L 1.619057 0.519871 L 1.711523 0.537234 L 1.803852 0.556113 L 1.896318 0.576646 L 1.988785 0.598557 L 2.081113 0.621984 L 2.17358 0.646926 L 2.265908 0.673384 L 2.358375 0.701359 L 2.450841 0.730849 L 2.543169 0.761854 L 2.635636 0.794376 L 2.727964 0.828276 L 2.820431 0.863829 L 2.912759 0.900898 L 3.005226 0.939484 L 3.097692 0.979584 L 3.190021 1.021063 L 3.282487 1.064196 L 3.374816 1.108844 L 3.467282 1.155009 L 3.559748 1.202551 L 3.652077 1.251747 L 3.744543 1.302321 L 3.836872 1.354549 L 3.929338 1.408154 L 4.021804 1.463414 L 4.114133 1.520051 L 4.206599 1.578342 L 4.298928 1.638011 L 4.391394 1.699334 L 4.483861 1.762035 L 4.576189 1.826251 L 4.668656 1.892121 L 4.760984 1.95937 L 4.853451 2.028134 L 4.945917 2.098414 L 5.038245 2.170347 L 5.130712 2.243659 L 5.22304 2.318486 L 5.315507 2.39483 L 5.407973 2.472689 L 5.500302 2.552064 L 5.592768 2.632955 L 5.685097 2.715361 L 5.777563 2.799284 L 5.870029 2.884722 L 5.962358 2.971676 L 6.054824 3.060146 L 6.147153 3.150132 L 6.239619 3.241634 L 6.332086 3.334652 L 6.424414 3.429047 L 6.51688 3.525097 L 6.609209 3.622662 L 6.701675 3.721743 L 6.794142 3.822202 L 6.88647 3.924314 L 6.978937 4.027943 L 7.071265 4.132949 L 7.163732 4.239609 L 7.256198 4.347648 L 7.348526 4.457339 L 7.440993 4.568409 L 7.533321 4.681133 L 7.625788 4.795234 L 7.718116 4.91099 L 7.810583 5.028123 L 7.903049 5.146772 L 7.995378 5.267075 L 8.087844 5.388755 L 8.180173 5.511952 L 8.272639 5.636664 L 8.365105 5.763031 L 8.457434 5.890775 L 8.5499 6.020035 L 8.642229 6.150811 L 8.734695 6.283102 L 8.827161 6.41691 L 8.91949 6.552233 L 9.011956 6.689072 L 9.104285 6.827427 L 9.196751 6.967298 L 9.289218 7.108685 L 9.381546 7.251587 L 9.474013 7.396006 L 9.566341 7.54194 L 9.658808 7.68939 L 9.751274 7.838356 " transform="matrix(28.346457,0,0,-28.346457,1,227.771654)"/>
<path style="fill:none;stroke-width:0.02;stroke-linecap:butt;stroke-linejoin:miter;stroke:rgb(90.196078%,56.862745%,25.882353%);stroke-opacity:1;stroke-miterlimit:10;" d="M 0.602616 0.428369 L 0.694945 0.428369 L 0.787411 0.428507 L 0.87974 0.428645 L 0.972206 0.42892 L 1.064672 0.429334 L 1.157001 0.430023 L 1.249467 0.430987 L 1.341796 0.432365 L 1.434262 0.434019 L 1.526729 0.436086 L 1.619057 0.438567 L 1.711523 0.441598 L 1.803852 0.445181 L 1.896318 0.449315 L 1.988785 0.454138 L 2.081113 0.459651 L 2.17358 0.465852 L 2.265908 0.47288 L 2.358375 0.480735 L 2.450841 0.489554 L 2.543169 0.499063 L 2.635636 0.509673 L 2.727964 0.521249 L 2.820431 0.533927 L 2.912759 0.547707 L 3.005226 0.56259 L 3.097692 0.578713 L 3.190021 0.596076 L 3.282487 0.61468 L 3.374816 0.634524 L 3.467282 0.655883 L 3.559748 0.678621 L 3.652077 0.702874 L 3.744543 0.728506 L 3.836872 0.755791 L 3.929338 0.78473 L 4.021804 0.815184 L 4.114133 0.847431 L 4.206599 0.881468 L 4.298928 0.917159 L 4.391394 0.95478 L 4.483861 0.994192 L 4.576189 1.035533 L 4.668656 1.078941 L 4.760984 1.124278 L 4.853451 1.171683 L 4.945917 1.221292 L 5.038245 1.272969 L 5.130712 1.32685 L 5.22304 1.382936 L 5.315507 1.441365 L 5.407973 1.502137 L 5.500302 1.565388 L 5.592768 1.630845 L 5.685097 1.69892 L 5.777563 1.769476 L 5.870029 1.84265 L 5.962358 1.918442 L 6.054824 1.996852 L 6.147153 2.077881 L 6.239619 2.161803 L 6.332086 2.248482 L 6.424414 2.337917 L 6.51688 2.430383 L 6.609209 2.525605 L 6.701675 2.62386 L 6.794142 2.725283 L 6.88647 2.829601 L 6.978937 2.937088 L 7.071265 3.047744 L 7.163732 3.161708 L 7.256198 3.278841 L 7.348526 3.399282 L 7.440993 3.52303 L 7.533321 3.650085 L 7.625788 3.780723 L 7.718116 3.914806 L 7.810583 4.052472 L 7.903049 4.193583 L 7.995378 4.338415 L 8.087844 4.486829 L 8.180173 4.639103 L 8.272639 4.794959 L 8.365105 4.954673 L 8.457434 5.118247 L 8.5499 5.285816 L 8.642229 5.457244 L 8.734695 5.632668 L 8.827161 5.812089 L 8.91949 5.995506 L 9.011956 6.183194 L 9.104285 6.375017 L 9.196751 6.571112 L 9.289218 6.771341 L 9.381546 6.97598 L 9.474013 7.18489 L 9.566341 7.398211 L 9.658808 7.616079 L 9.751274 7.838356 " transform="matrix(28.346457,0,0,-28.346457,1,227.771654)"/>
<path style="fill:none;stroke-width:0.02;stroke-linecap:butt;stroke-linejoin:miter;stroke:rgb(81.960784%,36.862745%,36.078431%);stroke-opacity:1;stroke-miterlimit:10;" d="M 0.602616 0.428369 L 0.972206 0.428369 L 1.064672 0.428507 L 1.157001 0.428507 L 1.249467 0.428645 L 1.341796 0.428783 L 1.434262 0.42892 L 1.526729 0.429196 L 1.619057 0.429472 L 1.711523 0.430023 L 1.803852 0.430574 L 1.896318 0.431401 L 1.988785 0.432365 L 2.081113 0.433468 L 2.17358 0.434846 L 2.265908 0.4365 L 2.358375 0.438429 L 2.450841 0.440771 L 2.543169 0.44339 L 2.635636 0.446421 L 2.727964 0.450004 L 2.820431 0.454001 L 2.912759 0.458548 L 3.005226 0.463647 L 3.097692 0.469435 L 3.190021 0.475774 L 3.282487 0.482939 L 3.374816 0.490932 L 3.467282 0.499614 L 3.559748 0.50926 L 3.652077 0.519871 L 3.744543 0.531446 L 3.836872 0.544124 L 3.929338 0.557905 L 4.021804 0.572925 L 4.114133 0.589186 L 4.206599 0.606825 L 4.298928 0.625842 L 4.391394 0.646375 L 4.483861 0.668423 L 4.576189 0.692126 L 4.668656 0.717482 L 4.760984 0.744767 L 4.853451 0.773843 L 4.945917 0.804849 L 5.038245 0.837922 L 5.130712 0.873062 L 5.22304 0.910545 L 5.315507 0.950232 L 5.407973 0.9924 L 5.500302 1.037049 L 5.592768 1.084315 L 5.685097 1.1342 L 5.777563 1.186979 L 5.870029 1.242652 L 5.962358 1.301356 L 6.054824 1.363092 L 6.147153 1.428136 L 6.239619 1.496487 L 6.332086 1.568282 L 6.424414 1.643523 L 6.51688 1.722623 L 6.609209 1.805305 L 6.701675 1.892121 L 6.794142 1.982796 L 6.88647 2.077743 L 6.978937 2.176962 L 7.071265 2.280452 L 7.163732 2.388628 L 7.256198 2.501352 L 7.348526 2.619036 L 7.440993 2.741544 L 7.533321 2.86915 L 7.625788 3.001855 L 7.718116 3.140073 L 7.810583 3.283664 L 7.903049 3.432906 L 7.995378 3.587935 L 8.087844 3.749028 L 8.180173 3.916046 L 8.272639 4.089265 L 8.365105 4.268962 L 8.457434 4.455135 L 8.5499 4.647922 L 8.642229 4.8476 L 8.734695 5.054306 L 8.827161 5.268315 L 8.91949 5.48949 L 9.011956 5.718107 L 9.104285 5.954578 L 9.196751 6.198766 L 9.289218 6.450947 L 9.381546 6.711396 L 9.474013 6.980114 L 9.566341 7.257375 L 9.658808 7.543456 L 9.751274 7.838356 " transform="matrix(28.346457,0,0,-28.346457,1,227.771654)"/>
</g>
</svg>
