<?xml version="1.0" encoding="UTF-8"?>
<svg xmlns="http://www.w3.org/2000/svg" xmlns:xlink="http://www.w3.org/1999/xlink" width="342.15748pt" height="257.11811pt" viewBox="0 0 342.15748 257.11811" version="1.1">
<g id="surface1">
<path style="fill:none;stroke-width:0.02;stroke-linecap:butt;stroke-linejoin:miter;stroke:rgb(0%,0%,0%);stroke-opacity:1;stroke-miterlimit:10;" d="M 0.695771 1.269344 L 0.800778 1.269344 " transform="matrix(28.346457,0,0,-28.346457,1,256.11811)"/>
<path style="fill:none;stroke-width:0.02;stroke-linecap:butt;stroke-linejoin:miter;stroke:rgb(0%,0%,0%);stroke-opacity:1;stroke-miterlimit:10;" d="M 0.695771 2.11036 L 0.800778 2.11036 " transform="matrix(28.346457,0,0,-28.346457,1,256.11811)"/>
<path style="fill:none;stroke-width:0.02;stroke-linecap:butt;stroke-linejoin:miter;stroke:rgb(0%,0%,0%);stroke-opacity:1;stroke-miterlimit:10;" d="M 0.695771 2.951377 L 0.800778 2.951377 " transform="matrix(28.346457,0,0,-28.346457,1,256.11811)"/>
<path style="fill:none;stroke-width:0.02;stroke-linecap:butt;stroke-linejoin:miter;stroke:rgb(0%,0%,0%);stroke-opacity:1;stroke-miterlimit:10;" d="M 0.695771 3.792394 L 0.800778 3.792394 " transform="matrix(28.346457,0,0,-28.346457,1,256.11811)"/>
<path style="fill:none;stroke-width:0.02;stroke-linecap:butt;stroke-linejoin:miter;stroke:rgb(0%,0%,0%);stroke-opacity:1;stroke-miterlimit:10;" d="M 0.695771 4.63341 L 0.800778 4.63341 " transform="matrix(28.346457,0,0,-28.346457,1,256.11811)"/>
<path style="fill:none;stroke-width:0.02;stroke-linecap:butt;stroke-linejoin:miter;stroke:rgb(0%,0%,0%);stroke-opacity:1;stroke-miterlimit:10;" d="M 0.695771 5.474289 L 0.800778 5.474289 " transform="matrix(28.346457,0,0,-28.346457,1,256.11811)"/>
<path style="fill:none;stroke-width:0.02;stroke-linecap:butt;stroke-linejoin:miter;stroke:rgb(0%,0%,0%);stroke-opacity:1;stroke-miterlimit:10;" d="M 0.695771 6.315306 L 0.800778 6.315306 " transform="matrix(28.346457,0,0,-28.346457,1,256.11811)"/>
<path style="fill:none;stroke-width:0.02;stroke-linecap:butt;stroke-linejoin:miter;stroke:rgb(0%,0%,0%);stroke-opacity:1;stroke-miterlimit:10;" d="M 0.695771 7.156323 L 0.800778 7.156323 " transform="matrix(28.346457,0,0,-28.346457,1,256.11811)"/>
<path style="fill:none;stroke-width:0.02;stroke-linecap:butt;stroke-linejoin:miter;stroke:rgb(0%,0%,0%);stroke-opacity:1;stroke-miterlimit:10;" d="M 0.695771 7.997339 L 0.800778 7.997339 " transform="matrix(28.346457,0,0,-28.346457,1,256.11811)"/>
<path style="fill:none;stroke-width:0.02;stroke-linecap:round;stroke-linejoin:miter;stroke:rgb(0%,0%,0%);stroke-opacity:1;stroke-miterlimit:10;" d="M 0.695771 0.428465 L 0.695771 8.838356 " transform="matrix(28.346457,0,0,-28.346457,1,256.11811)"/>
<path style=" stroke:none;fill-rule:nonzero;fill:rgb(0%,0%,0%);fill-opacity:1;" d="M 5.160156 244.613281 L 5.160156 245.058594 L 3.078125 245.058594 L 3.078125 244.613281 Z M 5.160156 244.613281 Z M 5.160156 244.613281 "/>
<path style=" stroke:none;fill-rule:nonzero;fill:rgb(0%,0%,0%);fill-opacity:1;" d="M 7.746094 241.230469 C 8.5 241.289062 9 241.976562 9.136719 242.675781 C 9.207031 242.996094 9.222656 243.296875 9.253906 243.613281 L 9.253906 244.421875 C 9.214844 245.25 9.015625 246.335938 8.121094 246.667969 C 7.339844 246.980469 6.429688 246.496094 6.199219 245.699219 C 6.023438 245.28125 6.007812 244.851562 5.96875 244.421875 L 5.96875 243.613281 C 6.007812 242.789062 6.183594 241.691406 7.070312 241.328125 L 7.113281 241.3125 L 7.144531 241.304688 L 7.183594 241.289062 L 7.300781 241.257812 L 7.375 241.238281 L 7.460938 241.238281 L 7.476562 241.230469 Z M 7.746094 241.230469 Z M 7.5 241.714844 C 6.832031 241.796875 6.636719 242.597656 6.585938 243.136719 L 6.585938 243.351562 L 6.570312 243.367188 L 6.570312 244.46875 C 6.621094 245.042969 6.660156 245.78125 7.183594 246.160156 C 7.667969 246.496094 8.308594 246.121094 8.445312 245.605469 C 8.585938 245.222656 8.621094 244.851562 8.652344 244.46875 L 8.652344 243.367188 C 8.605469 242.789062 8.523438 241.976562 7.859375 241.75 L 7.800781 241.730469 L 7.785156 241.714844 L 7.714844 241.714844 L 7.699219 241.699219 L 7.515625 241.699219 Z M 7.5 241.714844 Z M 7.5 241.714844 "/>
<path style=" stroke:none;fill-rule:nonzero;fill:rgb(0%,0%,0%);fill-opacity:1;" d="M 11.023438 245.945312 L 11.023438 246.582031 L 10.382812 246.582031 L 10.382812 245.945312 Z M 11.023438 245.945312 Z M 11.023438 245.945312 "/>
<path style=" stroke:none;fill-rule:nonzero;fill:rgb(0%,0%,0%);fill-opacity:1;" d="M 13.929688 241.230469 C 14.769531 241.265625 15.5625 242.167969 15.230469 243.011719 C 15.089844 243.398438 14.691406 243.636719 14.367188 243.804688 C 15.175781 244.042969 15.667969 244.988281 15.300781 245.765625 C 14.921875 246.773438 13.476562 247.089844 12.683594 246.359375 C 11.960938 245.789062 11.9375 244.550781 12.738281 244.042969 C 12.859375 243.914062 13.082031 243.875 13.183594 243.78125 C 12.492188 243.582031 12.023438 242.78125 12.351562 242.105469 C 12.613281 241.503906 13.285156 241.167969 13.929688 241.230469 Z M 13.929688 241.230469 Z M 13.628906 241.683594 C 13.039062 241.699219 12.628906 242.367188 12.824219 242.890625 C 13.054688 243.796875 14.574219 243.765625 14.746094 242.835938 C 14.90625 242.320312 14.492188 241.699219 13.929688 241.683594 L 13.914062 241.675781 L 13.644531 241.675781 Z M 13.628906 241.683594 Z M 13.644531 244.042969 C 12.953125 244.089844 12.613281 244.914062 12.792969 245.503906 C 12.914062 246.335938 14.105469 246.582031 14.574219 245.914062 C 15.023438 245.304688 14.800781 244.207031 13.984375 244.042969 L 13.914062 244.042969 L 13.898438 244.027344 L 13.652344 244.027344 Z M 13.644531 244.042969 Z M 13.644531 244.042969 "/>
<path style=" stroke:none;fill-rule:nonzero;fill:rgb(0%,0%,0%);fill-opacity:1;" d="M 5.160156 220.773438 L 5.160156 221.21875 L 3.078125 221.21875 L 3.078125 220.773438 Z M 5.160156 220.773438 Z M 5.160156 220.773438 "/>
<path style=" stroke:none;fill-rule:nonzero;fill:rgb(0%,0%,0%);fill-opacity:1;" d="M 7.746094 217.394531 C 8.5 217.449219 9 218.140625 9.136719 218.835938 C 9.207031 219.15625 9.222656 219.457031 9.253906 219.773438 L 9.253906 220.582031 C 9.214844 221.410156 9.015625 222.496094 8.121094 222.828125 C 7.339844 223.140625 6.429688 222.65625 6.199219 221.863281 C 6.023438 221.441406 6.007812 221.011719 5.96875 220.582031 L 5.96875 219.773438 C 6.007812 218.949219 6.183594 217.851562 7.070312 217.488281 L 7.113281 217.472656 L 7.144531 217.464844 L 7.183594 217.449219 L 7.300781 217.417969 L 7.375 217.402344 L 7.460938 217.402344 L 7.476562 217.394531 Z M 7.746094 217.394531 Z M 7.5 217.878906 C 6.832031 217.957031 6.636719 218.757812 6.585938 219.296875 L 6.585938 219.511719 L 6.570312 219.527344 L 6.570312 220.632812 C 6.621094 221.203125 6.660156 221.941406 7.183594 222.320312 C 7.667969 222.65625 8.308594 222.28125 8.445312 221.765625 C 8.585938 221.386719 8.621094 221.011719 8.652344 220.632812 L 8.652344 219.527344 C 8.605469 218.949219 8.523438 218.140625 7.859375 217.910156 L 7.800781 217.894531 L 7.785156 217.878906 L 7.714844 217.878906 L 7.699219 217.863281 L 7.515625 217.863281 Z M 7.5 217.878906 Z M 7.5 217.878906 "/>
<path style=" stroke:none;fill-rule:nonzero;fill:rgb(0%,0%,0%);fill-opacity:1;" d="M 11.023438 222.109375 L 11.023438 222.742188 L 10.382812 222.742188 L 10.382812 222.109375 Z M 11.023438 222.109375 Z M 11.023438 222.109375 "/>
<path style=" stroke:none;fill-rule:nonzero;fill:rgb(0%,0%,0%);fill-opacity:1;" d="M 14.429688 217.394531 C 14.636719 217.425781 14.875 217.449219 15.074219 217.542969 L 15.074219 218.003906 C 14.523438 217.765625 13.808594 217.734375 13.382812 218.21875 C 13 218.625 12.824219 219.226562 12.808594 219.757812 C 13.269531 219.148438 14.308594 218.804688 14.875 219.441406 C 15.4375 220.089844 15.53125 221.027344 15.277344 221.820312 C 15 222.457031 14.359375 223.035156 13.644531 222.902344 C 12.675781 222.820312 12.238281 221.742188 12.191406 220.917969 C 12.007812 219.75 12.285156 218.28125 13.398438 217.617188 L 13.414062 217.609375 L 13.582031 217.519531 L 13.628906 217.503906 L 13.652344 217.488281 L 13.785156 217.449219 L 13.898438 217.417969 L 13.96875 217.402344 L 14.054688 217.402344 L 14.070312 217.394531 Z M 14.429688 217.394531 Z M 13.652344 219.601562 C 12.960938 219.71875 12.738281 220.550781 12.824219 221.117188 C 12.867188 221.648438 13.070312 222.355469 13.683594 222.464844 C 14.335938 222.550781 14.753906 221.855469 14.769531 221.289062 C 14.800781 220.71875 14.769531 220.066406 14.269531 219.695312 L 14.160156 219.640625 L 14.070312 219.617188 L 14 219.601562 L 13.984375 219.582031 L 13.667969 219.582031 Z M 13.652344 219.601562 Z M 13.652344 219.601562 "/>
<path style=" stroke:none;fill-rule:nonzero;fill:rgb(0%,0%,0%);fill-opacity:1;" d="M 5.160156 196.933594 L 5.160156 197.378906 L 3.078125 197.378906 L 3.078125 196.933594 Z M 5.160156 196.933594 Z M 5.160156 196.933594 "/>
<path style=" stroke:none;fill-rule:nonzero;fill:rgb(0%,0%,0%);fill-opacity:1;" d="M 7.746094 193.554688 C 8.5 193.609375 9 194.300781 9.136719 195 C 9.207031 195.316406 9.222656 195.617188 9.253906 195.933594 L 9.253906 196.746094 C 9.214844 197.570312 9.015625 198.65625 8.121094 198.992188 C 7.339844 199.300781 6.429688 198.816406 6.199219 198.023438 C 6.023438 197.601562 6.007812 197.171875 5.96875 196.746094 L 5.96875 195.933594 C 6.007812 195.109375 6.183594 194.015625 7.070312 193.648438 L 7.113281 193.632812 L 7.144531 193.625 L 7.183594 193.609375 L 7.300781 193.578125 L 7.375 193.5625 L 7.460938 193.5625 L 7.476562 193.554688 Z M 7.746094 193.554688 Z M 7.5 194.039062 C 6.832031 194.117188 6.636719 194.917969 6.585938 195.457031 L 6.585938 195.671875 L 6.570312 195.6875 L 6.570312 196.792969 C 6.621094 197.363281 6.660156 198.101562 7.183594 198.484375 C 7.667969 198.816406 8.308594 198.441406 8.445312 197.925781 C 8.585938 197.546875 8.621094 197.171875 8.652344 196.792969 L 8.652344 195.6875 C 8.605469 195.109375 8.523438 194.300781 7.859375 194.070312 L 7.800781 194.054688 L 7.785156 194.039062 L 7.714844 194.039062 L 7.699219 194.023438 L 7.515625 194.023438 Z M 7.5 194.039062 Z M 7.5 194.039062 "/>
<path style=" stroke:none;fill-rule:nonzero;fill:rgb(0%,0%,0%);fill-opacity:1;" d="M 11.023438 198.269531 L 11.023438 198.902344 L 10.382812 198.902344 L 10.382812 198.269531 Z M 11.023438 198.269531 Z M 11.023438 198.269531 "/>
<path style=" stroke:none;fill-rule:nonzero;fill:rgb(0%,0%,0%);fill-opacity:1;" d="M 14.730469 193.722656 L 14.730469 197.0625 L 14.746094 197.078125 L 15.53125 197.078125 L 15.53125 197.554688 L 14.746094 197.554688 L 14.730469 197.5625 L 14.730469 198.902344 L 14.128906 198.902344 L 14.128906 197.5625 L 14.113281 197.554688 L 12.015625 197.554688 L 12.015625 197.0625 C 12.683594 195.949219 13.351562 194.832031 14.015625 193.722656 Z M 14.730469 193.722656 Z M 14.144531 194.023438 C 13.984375 194.847656 13.476562 195.554688 13.097656 196.277344 C 12.945312 196.539062 12.746094 196.824219 12.636719 197.078125 L 14.160156 197.078125 L 14.167969 197.0625 L 14.167969 194.023438 L 14.160156 194.007812 Z M 14.144531 194.023438 Z M 14.144531 194.023438 "/>
<path style=" stroke:none;fill-rule:nonzero;fill:rgb(0%,0%,0%);fill-opacity:1;" d="M 5.160156 173.097656 L 5.160156 173.539062 L 3.078125 173.539062 L 3.078125 173.097656 Z M 5.160156 173.097656 Z M 5.160156 173.097656 "/>
<path style=" stroke:none;fill-rule:nonzero;fill:rgb(0%,0%,0%);fill-opacity:1;" d="M 7.746094 169.714844 C 8.5 169.769531 9 170.460938 9.136719 171.160156 C 9.207031 171.476562 9.222656 171.777344 9.253906 172.097656 L 9.253906 172.90625 C 9.214844 173.730469 9.015625 174.820312 8.121094 175.152344 C 7.339844 175.460938 6.429688 174.976562 6.199219 174.183594 C 6.023438 173.761719 6.007812 173.335938 5.96875 172.90625 L 5.96875 172.097656 C 6.007812 171.269531 6.183594 170.175781 7.070312 169.808594 L 7.113281 169.792969 L 7.144531 169.785156 L 7.183594 169.769531 L 7.300781 169.738281 L 7.375 169.722656 L 7.460938 169.722656 L 7.476562 169.714844 Z M 7.746094 169.714844 Z M 7.5 170.199219 C 6.832031 170.277344 6.636719 171.082031 6.585938 171.621094 L 6.585938 171.835938 L 6.570312 171.851562 L 6.570312 172.953125 C 6.621094 173.523438 6.660156 174.261719 7.183594 174.644531 C 7.667969 174.976562 8.308594 174.605469 8.445312 174.089844 C 8.585938 173.707031 8.621094 173.335938 8.652344 172.953125 L 8.652344 171.851562 C 8.605469 171.269531 8.523438 170.460938 7.859375 170.230469 L 7.800781 170.214844 L 7.785156 170.199219 L 7.714844 170.199219 L 7.699219 170.183594 L 7.515625 170.183594 Z M 7.5 170.199219 Z M 7.5 170.199219 "/>
<path style=" stroke:none;fill-rule:nonzero;fill:rgb(0%,0%,0%);fill-opacity:1;" d="M 11.023438 174.429688 L 11.023438 175.066406 L 10.382812 175.066406 L 10.382812 174.429688 Z M 11.023438 174.429688 Z M 11.023438 174.429688 "/>
<path style=" stroke:none;fill-rule:nonzero;fill:rgb(0%,0%,0%);fill-opacity:1;" d="M 13.828125 169.714844 C 14.746094 169.738281 15.476562 170.683594 15.335938 171.570312 C 15.238281 172.460938 14.40625 172.96875 13.808594 173.523438 L 13.554688 173.785156 L 13.523438 173.800781 L 13.207031 174.113281 L 13.183594 174.128906 L 12.867188 174.445312 L 12.835938 174.460938 L 12.761719 174.53125 L 12.777344 174.539062 L 15.351562 174.539062 L 15.351562 175.066406 L 12.207031 175.066406 L 12.207031 174.589844 L 13.484375 173.308594 C 14.097656 172.777344 14.808594 172.089844 14.699219 171.214844 C 14.636719 170.707031 14.207031 170.238281 13.683594 170.199219 C 13.152344 170.121094 12.683594 170.539062 12.5625 171.046875 L 12.546875 171.070312 L 12.53125 171.128906 L 12.507812 171.214844 L 12.460938 171.390625 L 12.453125 171.429688 C 12.34375 171.292969 12.222656 171.152344 12.136719 171 C 12.292969 170.351562 12.816406 169.738281 13.507812 169.714844 Z M 13.828125 169.714844 Z M 13.828125 169.714844 "/>
<path style=" stroke:none;fill-rule:nonzero;fill:rgb(0%,0%,0%);fill-opacity:1;" d="M 7.746094 145.875 C 8.5 145.929688 9 146.621094 9.136719 147.320312 C 9.207031 147.636719 9.222656 147.941406 9.253906 148.257812 L 9.253906 149.066406 C 9.214844 149.890625 9.015625 150.980469 8.121094 151.3125 C 7.339844 151.621094 6.429688 151.136719 6.199219 150.34375 C 6.023438 149.921875 6.007812 149.496094 5.96875 149.066406 L 5.96875 148.257812 C 6.007812 147.429688 6.183594 146.335938 7.070312 145.972656 L 7.113281 145.957031 L 7.144531 145.949219 L 7.183594 145.929688 L 7.300781 145.898438 L 7.375 145.882812 L 7.460938 145.882812 L 7.476562 145.875 Z M 7.746094 145.875 Z M 7.5 146.359375 C 6.832031 146.4375 6.636719 147.242188 6.585938 147.78125 L 6.585938 147.996094 L 6.570312 148.011719 L 6.570312 149.113281 C 6.621094 149.6875 6.660156 150.421875 7.183594 150.804688 C 7.667969 151.136719 8.308594 150.765625 8.445312 150.25 C 8.585938 149.867188 8.621094 149.496094 8.652344 149.113281 L 8.652344 148.011719 C 8.605469 147.429688 8.523438 146.621094 7.859375 146.390625 L 7.800781 146.375 L 7.785156 146.359375 L 7.714844 146.359375 L 7.699219 146.34375 L 7.515625 146.34375 Z M 7.5 146.359375 Z M 7.5 146.359375 "/>
<path style=" stroke:none;fill-rule:nonzero;fill:rgb(0%,0%,0%);fill-opacity:1;" d="M 11.023438 150.589844 L 11.023438 151.226562 L 10.382812 151.226562 L 10.382812 150.589844 Z M 11.023438 150.589844 Z M 11.023438 150.589844 "/>
<path style=" stroke:none;fill-rule:nonzero;fill:rgb(0%,0%,0%);fill-opacity:1;" d="M 13.914062 145.875 C 14.667969 145.929688 15.167969 146.621094 15.300781 147.320312 C 15.375 147.636719 15.390625 147.941406 15.421875 148.257812 L 15.421875 149.066406 C 15.382812 149.890625 15.183594 150.980469 14.285156 151.3125 C 13.507812 151.621094 12.597656 151.136719 12.367188 150.34375 C 12.191406 149.921875 12.175781 149.496094 12.136719 149.066406 L 12.136719 148.257812 C 12.175781 147.429688 12.351562 146.335938 13.238281 145.972656 L 13.277344 145.957031 L 13.308594 145.949219 L 13.351562 145.929688 L 13.46875 145.898438 L 13.539062 145.882812 L 13.628906 145.882812 L 13.644531 145.875 Z M 13.914062 145.875 Z M 13.667969 146.359375 C 13 146.4375 12.800781 147.242188 12.753906 147.78125 L 12.753906 147.996094 L 12.738281 148.011719 L 12.738281 149.113281 C 12.785156 149.6875 12.824219 150.421875 13.351562 150.804688 C 13.835938 151.136719 14.476562 150.765625 14.613281 150.25 C 14.753906 149.867188 14.785156 149.496094 14.816406 149.113281 L 14.816406 148.011719 C 14.769531 147.429688 14.691406 146.621094 14.023438 146.390625 L 13.96875 146.375 L 13.953125 146.359375 L 13.882812 146.359375 L 13.867188 146.34375 L 13.683594 146.34375 Z M 13.667969 146.359375 Z M 13.667969 146.359375 "/>
<path style=" stroke:none;fill-rule:nonzero;fill:rgb(0%,0%,0%);fill-opacity:1;" d="M 7.746094 122.035156 C 8.5 122.09375 9 122.78125 9.136719 123.480469 C 9.207031 123.800781 9.222656 124.101562 9.253906 124.417969 L 9.253906 125.226562 C 9.214844 126.054688 9.015625 127.140625 8.121094 127.472656 C 7.339844 127.785156 6.429688 127.300781 6.199219 126.503906 C 6.023438 126.085938 6.007812 125.65625 5.96875 125.226562 L 5.96875 124.417969 C 6.007812 123.59375 6.183594 122.496094 7.070312 122.132812 L 7.113281 122.117188 L 7.144531 122.109375 L 7.183594 122.09375 L 7.300781 122.0625 L 7.375 122.042969 L 7.460938 122.042969 L 7.476562 122.035156 Z M 7.746094 122.035156 Z M 7.5 122.519531 C 6.832031 122.601562 6.636719 123.402344 6.585938 123.941406 L 6.585938 124.15625 L 6.570312 124.171875 L 6.570312 125.273438 C 6.621094 125.847656 6.660156 126.585938 7.183594 126.964844 C 7.667969 127.300781 8.308594 126.925781 8.445312 126.410156 C 8.585938 126.027344 8.621094 125.65625 8.652344 125.273438 L 8.652344 124.171875 C 8.605469 123.59375 8.523438 122.78125 7.859375 122.550781 L 7.800781 122.535156 L 7.785156 122.519531 L 7.714844 122.519531 L 7.699219 122.503906 L 7.515625 122.503906 Z M 7.5 122.519531 Z M 7.5 122.519531 "/>
<path style=" stroke:none;fill-rule:nonzero;fill:rgb(0%,0%,0%);fill-opacity:1;" d="M 11.023438 126.75 L 11.023438 127.386719 L 10.382812 127.386719 L 10.382812 126.75 Z M 11.023438 126.75 Z M 11.023438 126.75 "/>
<path style=" stroke:none;fill-rule:nonzero;fill:rgb(0%,0%,0%);fill-opacity:1;" d="M 13.828125 122.035156 C 14.746094 122.0625 15.476562 123.003906 15.335938 123.894531 C 15.238281 124.78125 14.40625 125.289062 13.808594 125.847656 L 13.554688 126.109375 L 13.523438 126.125 L 13.207031 126.433594 L 13.183594 126.449219 L 12.867188 126.765625 L 12.835938 126.78125 L 12.761719 126.855469 L 12.777344 126.863281 L 15.351562 126.863281 L 15.351562 127.386719 L 12.207031 127.386719 L 12.207031 126.910156 L 13.484375 125.632812 C 14.097656 125.101562 14.808594 124.410156 14.699219 123.535156 C 14.636719 123.027344 14.207031 122.5625 13.683594 122.519531 C 13.152344 122.441406 12.683594 122.863281 12.5625 123.371094 L 12.546875 123.394531 L 12.53125 123.449219 L 12.507812 123.535156 L 12.460938 123.710938 L 12.453125 123.75 C 12.34375 123.617188 12.222656 123.472656 12.136719 123.324219 C 12.292969 122.671875 12.816406 122.0625 13.507812 122.035156 Z M 13.828125 122.035156 Z M 13.828125 122.035156 "/>
<path style=" stroke:none;fill-rule:nonzero;fill:rgb(0%,0%,0%);fill-opacity:1;" d="M 7.746094 98.199219 C 8.5 98.253906 9 98.945312 9.136719 99.640625 C 9.207031 99.960938 9.222656 100.261719 9.253906 100.578125 L 9.253906 101.386719 C 9.214844 102.214844 9.015625 103.300781 8.121094 103.632812 C 7.339844 103.945312 6.429688 103.460938 6.199219 102.667969 C 6.023438 102.246094 6.007812 101.816406 5.96875 101.386719 L 5.96875 100.578125 C 6.007812 99.753906 6.183594 98.65625 7.070312 98.292969 L 7.113281 98.277344 L 7.144531 98.269531 L 7.183594 98.253906 L 7.300781 98.222656 L 7.375 98.207031 L 7.460938 98.207031 L 7.476562 98.199219 Z M 7.746094 98.199219 Z M 7.5 98.683594 C 6.832031 98.761719 6.636719 99.5625 6.585938 100.101562 L 6.585938 100.316406 L 6.570312 100.332031 L 6.570312 101.4375 C 6.621094 102.007812 6.660156 102.746094 7.183594 103.125 C 7.667969 103.460938 8.308594 103.085938 8.445312 102.570312 C 8.585938 102.191406 8.621094 101.816406 8.652344 101.4375 L 8.652344 100.332031 C 8.605469 99.753906 8.523438 98.945312 7.859375 98.714844 L 7.800781 98.699219 L 7.785156 98.683594 L 7.714844 98.683594 L 7.699219 98.667969 L 7.515625 98.667969 Z M 7.5 98.683594 Z M 7.5 98.683594 "/>
<path style=" stroke:none;fill-rule:nonzero;fill:rgb(0%,0%,0%);fill-opacity:1;" d="M 11.023438 102.914062 L 11.023438 103.546875 L 10.382812 103.546875 L 10.382812 102.914062 Z M 11.023438 102.914062 Z M 11.023438 102.914062 "/>
<path style=" stroke:none;fill-rule:nonzero;fill:rgb(0%,0%,0%);fill-opacity:1;" d="M 14.730469 98.363281 L 14.730469 101.707031 L 14.746094 101.722656 L 15.53125 101.722656 L 15.53125 102.199219 L 14.746094 102.199219 L 14.730469 102.207031 L 14.730469 103.546875 L 14.128906 103.546875 L 14.128906 102.207031 L 14.113281 102.199219 L 12.015625 102.199219 L 12.015625 101.707031 C 12.683594 100.59375 13.351562 99.476562 14.015625 98.363281 Z M 14.730469 98.363281 Z M 14.144531 98.667969 C 13.984375 99.492188 13.476562 100.199219 13.097656 100.921875 C 12.945312 101.183594 12.746094 101.46875 12.636719 101.722656 L 14.160156 101.722656 L 14.167969 101.707031 L 14.167969 98.667969 L 14.160156 98.648438 Z M 14.144531 98.667969 Z M 14.144531 98.667969 "/>
<path style=" stroke:none;fill-rule:nonzero;fill:rgb(0%,0%,0%);fill-opacity:1;" d="M 7.746094 74.359375 C 8.5 74.414062 9 75.105469 9.136719 75.804688 C 9.207031 76.121094 9.222656 76.421875 9.253906 76.738281 L 9.253906 77.550781 C 9.214844 78.375 9.015625 79.460938 8.121094 79.796875 C 7.339844 80.105469 6.429688 79.621094 6.199219 78.828125 C 6.023438 78.40625 6.007812 77.976562 5.96875 77.550781 L 5.96875 76.738281 C 6.007812 75.914062 6.183594 74.820312 7.070312 74.453125 L 7.113281 74.4375 L 7.144531 74.429688 L 7.183594 74.414062 L 7.300781 74.382812 L 7.375 74.367188 L 7.460938 74.367188 L 7.476562 74.359375 Z M 7.746094 74.359375 Z M 7.5 74.84375 C 6.832031 74.921875 6.636719 75.722656 6.585938 76.261719 L 6.585938 76.476562 L 6.570312 76.492188 L 6.570312 77.597656 C 6.621094 78.167969 6.660156 78.90625 7.183594 79.289062 C 7.667969 79.621094 8.308594 79.246094 8.445312 78.730469 C 8.585938 78.351562 8.621094 77.976562 8.652344 77.597656 L 8.652344 76.492188 C 8.605469 75.914062 8.523438 75.105469 7.859375 74.875 L 7.800781 74.859375 L 7.785156 74.84375 L 7.714844 74.84375 L 7.699219 74.828125 L 7.515625 74.828125 Z M 7.5 74.84375 Z M 7.5 74.84375 "/>
<path style=" stroke:none;fill-rule:nonzero;fill:rgb(0%,0%,0%);fill-opacity:1;" d="M 11.023438 79.074219 L 11.023438 79.707031 L 10.382812 79.707031 L 10.382812 79.074219 Z M 11.023438 79.074219 Z M 11.023438 79.074219 "/>
<path style=" stroke:none;fill-rule:nonzero;fill:rgb(0%,0%,0%);fill-opacity:1;" d="M 14.429688 74.359375 C 14.636719 74.390625 14.875 74.414062 15.074219 74.507812 L 15.074219 74.96875 C 14.523438 74.730469 13.808594 74.699219 13.382812 75.183594 C 13 75.589844 12.824219 76.191406 12.808594 76.722656 C 13.269531 76.113281 14.308594 75.769531 14.875 76.40625 C 15.4375 77.058594 15.53125 77.992188 15.277344 78.789062 C 15 79.421875 14.359375 80 13.644531 79.867188 C 12.675781 79.789062 12.238281 78.707031 12.191406 77.882812 C 12.007812 76.714844 12.285156 75.246094 13.398438 74.582031 L 13.414062 74.574219 L 13.582031 74.484375 L 13.628906 74.46875 L 13.652344 74.453125 L 13.785156 74.414062 L 13.898438 74.382812 L 13.96875 74.367188 L 14.054688 74.367188 L 14.070312 74.359375 Z M 14.429688 74.359375 Z M 13.652344 76.566406 C 12.960938 76.683594 12.738281 77.515625 12.824219 78.082031 C 12.867188 78.613281 13.070312 79.320312 13.683594 79.429688 C 14.335938 79.519531 14.753906 78.820312 14.769531 78.253906 C 14.800781 77.683594 14.769531 77.035156 14.269531 76.660156 L 14.160156 76.605469 L 14.070312 76.582031 L 14 76.566406 L 13.984375 76.550781 L 13.667969 76.550781 Z M 13.652344 76.566406 Z M 13.652344 76.566406 "/>
<path style=" stroke:none;fill-rule:nonzero;fill:rgb(0%,0%,0%);fill-opacity:1;" d="M 7.746094 50.519531 C 8.5 50.574219 9 51.265625 9.136719 51.964844 C 9.207031 52.28125 9.222656 52.582031 9.253906 52.902344 L 9.253906 53.710938 C 9.214844 54.535156 9.015625 55.625 8.121094 55.957031 C 7.339844 56.265625 6.429688 55.78125 6.199219 54.988281 C 6.023438 54.566406 6.007812 54.140625 5.96875 53.710938 L 5.96875 52.902344 C 6.007812 52.074219 6.183594 50.980469 7.070312 50.613281 L 7.113281 50.597656 L 7.144531 50.589844 L 7.183594 50.574219 L 7.300781 50.542969 L 7.375 50.527344 L 7.460938 50.527344 L 7.476562 50.519531 Z M 7.746094 50.519531 Z M 7.5 51.003906 C 6.832031 51.082031 6.636719 51.882812 6.585938 52.425781 L 6.585938 52.640625 L 6.570312 52.65625 L 6.570312 53.757812 C 6.621094 54.328125 6.660156 55.066406 7.183594 55.449219 C 7.667969 55.78125 8.308594 55.410156 8.445312 54.894531 C 8.585938 54.511719 8.621094 54.140625 8.652344 53.757812 L 8.652344 52.65625 C 8.605469 52.074219 8.523438 51.265625 7.859375 51.035156 L 7.800781 51.019531 L 7.785156 51.003906 L 7.714844 51.003906 L 7.699219 50.988281 L 7.515625 50.988281 Z M 7.5 51.003906 Z M 7.5 51.003906 "/>
<path style=" stroke:none;fill-rule:nonzero;fill:rgb(0%,0%,0%);fill-opacity:1;" d="M 11.023438 55.234375 L 11.023438 55.867188 L 10.382812 55.867188 L 10.382812 55.234375 Z M 11.023438 55.234375 Z M 11.023438 55.234375 "/>
<path style=" stroke:none;fill-rule:nonzero;fill:rgb(0%,0%,0%);fill-opacity:1;" d="M 13.929688 50.519531 C 14.769531 50.550781 15.5625 51.457031 15.230469 52.296875 C 15.089844 52.6875 14.691406 52.925781 14.367188 53.089844 C 15.175781 53.328125 15.667969 54.273438 15.300781 55.050781 C 14.921875 56.058594 13.476562 56.378906 12.683594 55.648438 C 11.960938 55.074219 11.9375 53.835938 12.738281 53.328125 C 12.859375 53.203125 13.082031 53.164062 13.183594 53.066406 C 12.492188 52.867188 12.023438 52.066406 12.351562 51.394531 C 12.613281 50.789062 13.285156 50.457031 13.929688 50.519531 Z M 13.929688 50.519531 Z M 13.628906 50.972656 C 13.039062 50.988281 12.628906 51.65625 12.824219 52.179688 C 13.054688 53.082031 14.574219 53.050781 14.746094 52.121094 C 14.90625 51.605469 14.492188 50.988281 13.929688 50.972656 L 13.914062 50.964844 L 13.644531 50.964844 Z M 13.628906 50.972656 Z M 13.644531 53.328125 C 12.953125 53.375 12.613281 54.203125 12.792969 54.789062 C 12.914062 55.625 14.105469 55.867188 14.574219 55.203125 C 15.023438 54.589844 14.800781 53.496094 13.984375 53.328125 L 13.914062 53.328125 L 13.898438 53.3125 L 13.652344 53.3125 Z M 13.644531 53.328125 Z M 13.644531 53.328125 "/>
<path style=" stroke:none;fill-rule:nonzero;fill:rgb(0%,0%,0%);fill-opacity:1;" d="M 7.992188 26.679688 L 7.992188 31.578125 L 8 31.59375 L 8.976562 31.59375 L 8.976562 32.03125 L 6.398438 32.03125 L 6.398438 31.59375 L 7.375 31.59375 L 7.390625 31.578125 L 7.390625 27.464844 C 7.054688 27.578125 6.707031 27.648438 6.359375 27.640625 L 6.359375 27.195312 C 6.882812 27.203125 7.453125 27.0625 7.851562 26.679688 Z M 7.992188 26.679688 Z M 7.992188 26.679688 "/>
<path style=" stroke:none;fill-rule:nonzero;fill:rgb(0%,0%,0%);fill-opacity:1;" d="M 11.023438 31.394531 L 11.023438 32.03125 L 10.382812 32.03125 L 10.382812 31.394531 Z M 11.023438 31.394531 Z M 11.023438 31.394531 "/>
<path style=" stroke:none;fill-rule:nonzero;fill:rgb(0%,0%,0%);fill-opacity:1;" d="M 13.914062 26.679688 C 14.667969 26.734375 15.167969 27.425781 15.300781 28.125 C 15.375 28.441406 15.390625 28.742188 15.421875 29.0625 L 15.421875 29.871094 C 15.382812 30.695312 15.183594 31.785156 14.285156 32.117188 C 13.507812 32.425781 12.597656 31.941406 12.367188 31.148438 C 12.191406 30.726562 12.175781 30.300781 12.136719 29.871094 L 12.136719 29.0625 C 12.175781 28.234375 12.351562 27.140625 13.238281 26.777344 L 13.277344 26.761719 L 13.308594 26.75 L 13.351562 26.734375 L 13.46875 26.703125 L 13.539062 26.6875 L 13.628906 26.6875 L 13.644531 26.679688 Z M 13.914062 26.679688 Z M 13.667969 27.164062 C 13 27.242188 12.800781 28.046875 12.753906 28.585938 L 12.753906 28.800781 L 12.738281 28.816406 L 12.738281 29.917969 C 12.785156 30.492188 12.824219 31.226562 13.351562 31.609375 C 13.835938 31.941406 14.476562 31.570312 14.613281 31.054688 C 14.753906 30.671875 14.785156 30.300781 14.816406 29.917969 L 14.816406 28.816406 C 14.769531 28.234375 14.691406 27.425781 14.023438 27.195312 L 13.96875 27.179688 L 13.953125 27.164062 L 13.882812 27.164062 L 13.867188 27.148438 L 13.683594 27.148438 Z M 13.667969 27.164062 Z M 13.667969 27.164062 "/>
<path style=" stroke:none;fill-rule:nonzero;fill:rgb(0%,0%,0%);fill-opacity:1;" d="M 7.992188 2.839844 L 7.992188 7.738281 L 8 7.753906 L 8.976562 7.753906 L 8.976562 8.191406 L 6.398438 8.191406 L 6.398438 7.753906 L 7.375 7.753906 L 7.390625 7.738281 L 7.390625 3.628906 C 7.054688 3.738281 6.707031 3.808594 6.359375 3.800781 L 6.359375 3.355469 C 6.882812 3.363281 7.453125 3.222656 7.851562 2.839844 Z M 7.992188 2.839844 Z M 7.992188 2.839844 "/>
<path style=" stroke:none;fill-rule:nonzero;fill:rgb(0%,0%,0%);fill-opacity:1;" d="M 11.023438 7.554688 L 11.023438 8.191406 L 10.382812 8.191406 L 10.382812 7.554688 Z M 11.023438 7.554688 Z M 11.023438 7.554688 "/>
<path style=" stroke:none;fill-rule:nonzero;fill:rgb(0%,0%,0%);fill-opacity:1;" d="M 13.828125 2.839844 C 14.746094 2.863281 15.476562 3.808594 15.335938 4.699219 C 15.238281 5.585938 14.40625 6.09375 13.808594 6.652344 L 13.554688 6.914062 L 13.523438 6.929688 L 13.207031 7.238281 L 13.183594 7.253906 L 12.867188 7.570312 L 12.835938 7.585938 L 12.761719 7.660156 L 12.777344 7.667969 L 15.351562 7.667969 L 15.351562 8.191406 L 12.207031 8.191406 L 12.207031 7.714844 L 13.484375 6.4375 C 14.097656 5.90625 14.808594 5.214844 14.699219 4.339844 C 14.636719 3.832031 14.207031 3.363281 13.683594 3.324219 C 13.152344 3.246094 12.683594 3.667969 12.5625 4.175781 L 12.546875 4.199219 L 12.53125 4.253906 L 12.507812 4.339844 L 12.460938 4.515625 L 12.453125 4.554688 C 12.34375 4.421875 12.222656 4.277344 12.136719 4.128906 C 12.292969 3.476562 12.816406 2.863281 13.507812 2.839844 Z M 13.828125 2.839844 Z M 13.828125 2.839844 "/>
<path style="fill:none;stroke-width:0.02;stroke-linecap:butt;stroke-linejoin:miter;stroke:rgb(0%,0%,0%);stroke-opacity:1;stroke-miterlimit:10;" d="M 11.751221 1.269344 L 11.646214 1.269344 " transform="matrix(28.346457,0,0,-28.346457,1,256.11811)"/>
<path style="fill:none;stroke-width:0.02;stroke-linecap:butt;stroke-linejoin:miter;stroke:rgb(0%,0%,0%);stroke-opacity:1;stroke-miterlimit:10;" d="M 11.751221 2.11036 L 11.646214 2.11036 " transform="matrix(28.346457,0,0,-28.346457,1,256.11811)"/>
<path style="fill:none;stroke-width:0.02;stroke-linecap:butt;stroke-linejoin:miter;stroke:rgb(0%,0%,0%);stroke-opacity:1;stroke-miterlimit:10;" d="M 11.751221 2.951377 L 11.646214 2.951377 " transform="matrix(28.346457,0,0,-28.346457,1,256.11811)"/>
<path style="fill:none;stroke-width:0.02;stroke-linecap:butt;stroke-linejoin:miter;stroke:rgb(0%,0%,0%);stroke-opacity:1;stroke-miterlimit:10;" d="M 11.751221 3.792394 L 11.646214 3.792394 " transform="matrix(28.346457,0,0,-28.346457,1,256.11811)"/>
<path style="fill:none;stroke-width:0.02;stroke-linecap:butt;stroke-linejoin:miter;stroke:rgb(0%,0%,0%);stroke-opacity:1;stroke-miterlimit:10;" d="M 11.751221 4.63341 L 11.646214 4.63341 " transform="matrix(28.346457,0,0,-28.346457,1,256.11811)"/>
<path style="fill:none;stroke-width:0.02;stroke-linecap:butt;stroke-linejoin:miter;stroke:rgb(0%,0%,0%);stroke-opacity:1;stroke-miterlimit:10;" d="M 11.751221 5.474289 L 11.646214 5.474289 " transform="matrix(28.346457,0,0,-28.346457,1,256.11811)"/>
<path style="fill:none;stroke-width:0.02;stroke-linecap:butt;stroke-linejoin:miter;stroke:rgb(0%,0%,0%);stroke-opacity:1;stroke-miterlimit:10;" d="M 11.751221 6.315306 L 11.646214 6.315306 " transform="matrix(28.346457,0,0,-28.346457,1,256.11811)"/>
<path style="fill:none;stroke-width:0.02;stroke-linecap:butt;stroke-linejoin:miter;stroke:rgb(0%,0%,0%);stroke-opacity:1;stroke-miterlimit:10;" d="M 11.751221 7.156323 L 11.646214 7.156323 " transform="matrix(28.346457,0,0,-28.346457,1,256.11811)"/>
<path style="fill:none;stroke-width:0.02;stroke-linecap:butt;stroke-linejoin:miter;stroke:rgb(0%,0%,0%);stroke-opacity:1;stroke-miterlimit:10;" d="M 11.751221 7.997339 L 11.646214 7.997339 " transform="matrix(28.346457,0,0,-28.346457,1,256.11811)"/>
<path style="fill:none;stroke-width:0.02;stroke-linecap:round;stroke-linejoin:miter;stroke:rgb(0%,0%,0%);stroke-opacity:1;stroke-miterlimit:10;" d="M 11.751221 0.428465 L 11.751221 8.838356 " transform="matrix(28.346457,0,0,-28.346457,1,256.11811)"/>
<path style="fill:none;stroke-width:0.02;stroke-linecap:butt;stroke-linejoin:miter;stroke:rgb(0%,0%,0%);stroke-opacity:1;stroke-miterlimit:10;" d="M 2.077668 0.428465 L 2.077668 0.533333 " transform="matrix(28.346457,0,0,-28.346457,1,256.11811)"/>
<path style="fill:none;stroke-width:0.02;stroke-linecap:butt;stroke-linejoin:miter;stroke:rgb(0%,0%,0%);stroke-opacity:1;stroke-miterlimit:10;" d="M 3.459703 0.428465 L 3.459703 0.533333 " transform="matrix(28.346457,0,0,-28.346457,1,256.11811)"/>
<path style="fill:none;stroke-width:0.02;stroke-linecap:butt;stroke-linejoin:miter;stroke:rgb(0%,0%,0%);stroke-opacity:1;stroke-miterlimit:10;" d="M 4.841599 0.428465 L 4.841599 0.533333 " transform="matrix(28.346457,0,0,-28.346457,1,256.11811)"/>
<path style="fill:none;stroke-width:0.02;stroke-linecap:butt;stroke-linejoin:miter;stroke:rgb(0%,0%,0%);stroke-opacity:1;stroke-miterlimit:10;" d="M 6.223496 0.428465 L 6.223496 0.533333 " transform="matrix(28.346457,0,0,-28.346457,1,256.11811)"/>
<path style="fill:none;stroke-width:0.02;stroke-linecap:butt;stroke-linejoin:miter;stroke:rgb(0%,0%,0%);stroke-opacity:1;stroke-miterlimit:10;" d="M 7.605393 0.428465 L 7.605393 0.533333 " transform="matrix(28.346457,0,0,-28.346457,1,256.11811)"/>
<path style="fill:none;stroke-width:0.02;stroke-linecap:butt;stroke-linejoin:miter;stroke:rgb(0%,0%,0%);stroke-opacity:1;stroke-miterlimit:10;" d="M 8.987427 0.428465 L 8.987427 0.533333 " transform="matrix(28.346457,0,0,-28.346457,1,256.11811)"/>
<path style="fill:none;stroke-width:0.02;stroke-linecap:butt;stroke-linejoin:miter;stroke:rgb(0%,0%,0%);stroke-opacity:1;stroke-miterlimit:10;" d="M 10.369324 0.428465 L 10.369324 0.533333 " transform="matrix(28.346457,0,0,-28.346457,1,256.11811)"/>
<path style="fill:none;stroke-width:0.02;stroke-linecap:round;stroke-linejoin:miter;stroke:rgb(0%,0%,0%);stroke-opacity:1;stroke-miterlimit:10;" d="M 0.695771 0.428465 L 11.751221 0.428465 " transform="matrix(28.346457,0,0,-28.346457,1,256.11811)"/>
<path style=" stroke:none;fill-rule:nonzero;fill:rgb(0%,0%,0%);fill-opacity:1;" d="M 18.019531 248.792969 L 18.019531 253.6875 L 18.027344 253.707031 L 19.003906 253.707031 L 19.003906 254.140625 L 16.425781 254.140625 L 16.425781 253.707031 L 17.402344 253.707031 L 17.417969 253.6875 L 17.417969 249.578125 C 17.085938 249.6875 16.734375 249.761719 16.386719 249.753906 L 16.386719 249.308594 C 16.910156 249.316406 17.480469 249.171875 17.878906 248.792969 Z M 18.019531 248.792969 Z M 18.019531 248.792969 "/>
<path style=" stroke:none;fill-rule:nonzero;fill:rgb(0%,0%,0%);fill-opacity:1;" d="M 21.054688 253.507812 L 21.054688 254.140625 L 20.410156 254.140625 L 20.410156 253.507812 Z M 21.054688 253.507812 Z M 21.054688 253.507812 "/>
<path style=" stroke:none;fill-rule:nonzero;fill:rgb(0%,0%,0%);fill-opacity:1;" d="M 23.941406 248.792969 C 24.695312 248.847656 25.195312 249.539062 25.332031 250.238281 C 25.402344 250.554688 25.417969 250.855469 25.449219 251.171875 L 25.449219 251.984375 C 25.410156 252.808594 25.210938 253.894531 24.316406 254.230469 C 23.539062 254.539062 22.625 254.054688 22.394531 253.261719 C 22.21875 252.839844 22.203125 252.410156 22.164062 251.984375 L 22.164062 251.171875 C 22.203125 250.347656 22.378906 249.253906 23.265625 248.886719 L 23.308594 248.871094 L 23.339844 248.863281 L 23.378906 248.847656 L 23.496094 248.816406 L 23.570312 248.800781 L 23.65625 248.800781 L 23.671875 248.792969 Z M 23.941406 248.792969 Z M 23.695312 249.277344 C 23.027344 249.355469 22.832031 250.15625 22.78125 250.695312 L 22.78125 250.910156 L 22.765625 250.925781 L 22.765625 252.03125 C 22.816406 252.601562 22.855469 253.339844 23.378906 253.722656 C 23.863281 254.054688 24.503906 253.679688 24.640625 253.164062 C 24.785156 252.785156 24.816406 252.410156 24.847656 252.03125 L 24.847656 250.925781 C 24.800781 250.347656 24.71875 249.539062 24.054688 249.308594 L 23.996094 249.292969 L 23.980469 249.277344 L 23.910156 249.277344 L 23.894531 249.261719 L 23.710938 249.261719 Z M 23.695312 249.277344 Z M 23.695312 249.277344 "/>
<path style=" stroke:none;fill-rule:nonzero;fill:rgb(0%,0%,0%);fill-opacity:1;" d="M 57.195312 248.792969 L 57.195312 253.6875 L 57.203125 253.707031 L 58.179688 253.707031 L 58.179688 254.140625 L 55.597656 254.140625 L 55.597656 253.707031 L 56.574219 253.707031 L 56.589844 253.6875 L 56.589844 249.578125 C 56.257812 249.6875 55.90625 249.761719 55.558594 249.753906 L 55.558594 249.308594 C 56.082031 249.316406 56.652344 249.171875 57.050781 248.792969 Z M 57.195312 248.792969 Z M 57.195312 248.792969 "/>
<path style=" stroke:none;fill-rule:nonzero;fill:rgb(0%,0%,0%);fill-opacity:1;" d="M 60.226562 253.507812 L 60.226562 254.140625 L 59.582031 254.140625 L 59.582031 253.507812 Z M 60.226562 253.507812 Z M 60.226562 253.507812 "/>
<path style=" stroke:none;fill-rule:nonzero;fill:rgb(0%,0%,0%);fill-opacity:1;" d="M 64.289062 248.957031 L 64.289062 249.449219 L 62.226562 249.449219 L 62.210938 249.457031 L 62.210938 251.085938 C 62.398438 250.960938 62.671875 250.792969 62.925781 250.785156 C 63.820312 250.6875 64.511719 251.570312 64.550781 252.386719 C 64.679688 253.425781 63.703125 254.460938 62.65625 254.300781 C 62.128906 254.285156 61.621094 253.976562 61.320312 253.546875 C 61.410156 253.425781 61.480469 253.222656 61.582031 253.148438 C 61.957031 253.878906 63.164062 254.171875 63.644531 253.402344 C 63.957031 252.824219 63.949219 252.085938 63.589844 251.53125 C 63.179688 251 62.359375 251.324219 62.171875 251.886719 L 61.652344 251.886719 L 61.652344 248.957031 Z M 64.289062 248.957031 Z M 64.289062 248.957031 "/>
<path style=" stroke:none;fill-rule:nonzero;fill:rgb(0%,0%,0%);fill-opacity:1;" d="M 96.03125 248.792969 C 96.953125 248.816406 97.683594 249.761719 97.542969 250.648438 C 97.445312 251.539062 96.613281 252.046875 96.015625 252.601562 L 95.761719 252.863281 L 95.730469 252.878906 L 95.414062 253.1875 L 95.390625 253.207031 L 95.074219 253.523438 L 95.039062 253.539062 L 94.96875 253.609375 L 94.984375 253.617188 L 97.558594 253.617188 L 97.558594 254.140625 L 94.414062 254.140625 L 94.414062 253.664062 L 95.691406 252.386719 C 96.304688 251.855469 97.015625 251.164062 96.90625 250.292969 C 96.84375 249.785156 96.414062 249.316406 95.890625 249.277344 C 95.359375 249.195312 94.890625 249.617188 94.769531 250.125 L 94.753906 250.148438 L 94.738281 250.203125 L 94.714844 250.292969 L 94.667969 250.46875 L 94.660156 250.507812 C 94.550781 250.371094 94.429688 250.230469 94.34375 250.078125 C 94.5 249.425781 95.023438 248.816406 95.714844 248.792969 Z M 96.03125 248.792969 Z M 96.03125 248.792969 "/>
<path style=" stroke:none;fill-rule:nonzero;fill:rgb(0%,0%,0%);fill-opacity:1;" d="M 99.398438 253.507812 L 99.398438 254.140625 L 98.753906 254.140625 L 98.753906 253.507812 Z M 99.398438 253.507812 Z M 99.398438 253.507812 "/>
<path style=" stroke:none;fill-rule:nonzero;fill:rgb(0%,0%,0%);fill-opacity:1;" d="M 102.289062 248.792969 C 103.042969 248.847656 103.542969 249.539062 103.675781 250.238281 C 103.746094 250.554688 103.765625 250.855469 103.796875 251.171875 L 103.796875 251.984375 C 103.753906 252.808594 103.558594 253.894531 102.660156 254.230469 C 101.882812 254.539062 100.96875 254.054688 100.738281 253.261719 C 100.566406 252.839844 100.550781 252.410156 100.507812 251.984375 L 100.507812 251.171875 C 100.550781 250.347656 100.722656 249.253906 101.613281 248.886719 L 101.652344 248.871094 L 101.683594 248.863281 L 101.722656 248.847656 L 101.84375 248.816406 L 101.914062 248.800781 L 102 248.800781 L 102.015625 248.792969 Z M 102.289062 248.792969 Z M 102.042969 249.277344 C 101.375 249.355469 101.175781 250.15625 101.128906 250.695312 L 101.128906 250.910156 L 101.113281 250.925781 L 101.113281 252.03125 C 101.160156 252.601562 101.199219 253.339844 101.722656 253.722656 C 102.207031 254.054688 102.851562 253.679688 102.984375 253.164062 C 103.128906 252.785156 103.160156 252.410156 103.191406 252.03125 L 103.191406 250.925781 C 103.144531 250.347656 103.066406 249.539062 102.398438 249.308594 L 102.34375 249.292969 L 102.328125 249.277344 L 102.253906 249.277344 L 102.238281 249.261719 L 102.058594 249.261719 Z M 102.042969 249.277344 Z M 102.042969 249.277344 "/>
<path style=" stroke:none;fill-rule:nonzero;fill:rgb(0%,0%,0%);fill-opacity:1;" d="M 135.207031 248.792969 C 136.125 248.816406 136.855469 249.761719 136.714844 250.648438 C 136.617188 251.539062 135.785156 252.046875 135.191406 252.601562 L 134.9375 252.863281 L 134.902344 252.878906 L 134.585938 253.1875 L 134.5625 253.207031 L 134.246094 253.523438 L 134.214844 253.539062 L 134.140625 253.609375 L 134.15625 253.617188 L 136.730469 253.617188 L 136.730469 254.140625 L 133.585938 254.140625 L 133.585938 253.664062 L 134.863281 252.386719 C 135.476562 251.855469 136.191406 251.164062 136.078125 250.292969 C 136.015625 249.785156 135.585938 249.316406 135.0625 249.277344 C 134.53125 249.195312 134.0625 249.617188 133.945312 250.125 L 133.929688 250.148438 L 133.910156 250.203125 L 133.886719 250.292969 L 133.839844 250.46875 L 133.832031 250.507812 C 133.722656 250.371094 133.601562 250.230469 133.515625 250.078125 C 133.675781 249.425781 134.199219 248.816406 134.886719 248.792969 Z M 135.207031 248.792969 Z M 135.207031 248.792969 "/>
<path style=" stroke:none;fill-rule:nonzero;fill:rgb(0%,0%,0%);fill-opacity:1;" d="M 138.570312 253.507812 L 138.570312 254.140625 L 137.929688 254.140625 L 137.929688 253.507812 Z M 138.570312 253.507812 Z M 138.570312 253.507812 "/>
<path style=" stroke:none;fill-rule:nonzero;fill:rgb(0%,0%,0%);fill-opacity:1;" d="M 142.636719 248.957031 L 142.636719 249.449219 L 140.570312 249.449219 L 140.554688 249.457031 L 140.554688 251.085938 C 140.746094 250.960938 141.015625 250.792969 141.269531 250.785156 C 142.167969 250.6875 142.855469 251.570312 142.898438 252.386719 C 143.023438 253.425781 142.046875 254.460938 141 254.300781 C 140.476562 254.285156 139.96875 253.976562 139.667969 253.546875 C 139.753906 253.425781 139.824219 253.222656 139.929688 253.148438 C 140.300781 253.878906 141.507812 254.171875 141.992188 253.402344 C 142.300781 252.824219 142.292969 252.085938 141.9375 251.53125 C 141.523438 251 140.707031 251.324219 140.515625 251.886719 L 140 251.886719 L 140 248.957031 Z M 142.636719 248.957031 Z M 142.636719 248.957031 "/>
<path style=" stroke:none;fill-rule:nonzero;fill:rgb(0%,0%,0%);fill-opacity:1;" d="M 174.480469 248.792969 C 175.179688 248.824219 175.910156 249.46875 175.742188 250.203125 C 175.664062 250.703125 175.316406 251.117188 174.878906 251.339844 C 175.585938 251.5625 176.132812 252.308594 175.941406 253.046875 C 175.75 254.007812 174.648438 254.539062 173.757812 254.246094 C 173.332031 254.117188 172.894531 253.847656 172.6875 253.453125 C 172.734375 253.332031 172.71875 253.125 172.773438 253.046875 C 173.195312 253.664062 174.085938 254.085938 174.785156 253.738281 C 175.546875 253.253906 175.425781 251.839844 174.503906 251.601562 L 174.433594 251.601562 L 174.417969 251.585938 L 173.679688 251.585938 L 173.679688 251.109375 C 174.132812 251.101562 174.695312 251.046875 174.949219 250.578125 C 175.21875 250.171875 175.195312 249.507812 174.679688 249.308594 C 174.070312 249.070312 173.316406 249.457031 173.085938 250.078125 C 172.988281 249.941406 172.894531 249.808594 172.800781 249.664062 C 173.125 249.078125 173.816406 248.730469 174.480469 248.792969 Z M 174.480469 248.792969 Z M 174.480469 248.792969 "/>
<path style=" stroke:none;fill-rule:nonzero;fill:rgb(0%,0%,0%);fill-opacity:1;" d="M 177.742188 253.507812 L 177.742188 254.140625 L 177.101562 254.140625 L 177.101562 253.507812 Z M 177.742188 253.507812 Z M 177.742188 253.507812 "/>
<path style=" stroke:none;fill-rule:nonzero;fill:rgb(0%,0%,0%);fill-opacity:1;" d="M 180.632812 248.792969 C 181.386719 248.847656 181.886719 249.539062 182.023438 250.238281 C 182.09375 250.554688 182.109375 250.855469 182.140625 251.171875 L 182.140625 251.984375 C 182.101562 252.808594 181.902344 253.894531 181.007812 254.230469 C 180.226562 254.539062 179.316406 254.054688 179.085938 253.261719 C 178.910156 252.839844 178.894531 252.410156 178.855469 251.984375 L 178.855469 251.171875 C 178.894531 250.347656 179.070312 249.253906 179.957031 248.886719 L 179.996094 248.871094 L 180.03125 248.863281 L 180.070312 248.847656 L 180.1875 248.816406 L 180.261719 248.800781 L 180.347656 248.800781 L 180.363281 248.792969 Z M 180.632812 248.792969 Z M 180.386719 249.277344 C 179.71875 249.355469 179.523438 250.15625 179.472656 250.695312 L 179.472656 250.910156 L 179.457031 250.925781 L 179.457031 252.03125 C 179.503906 252.601562 179.546875 253.339844 180.070312 253.722656 C 180.554688 254.054688 181.195312 253.679688 181.332031 253.164062 C 181.472656 252.785156 181.507812 252.410156 181.539062 252.03125 L 181.539062 250.925781 C 181.488281 250.347656 181.410156 249.539062 180.742188 249.308594 L 180.6875 249.292969 L 180.671875 249.277344 L 180.601562 249.277344 L 180.585938 249.261719 L 180.402344 249.261719 Z M 180.386719 249.277344 Z M 180.386719 249.277344 "/>
<path style=" stroke:none;fill-rule:nonzero;fill:rgb(0%,0%,0%);fill-opacity:1;" d="M 213.65625 248.792969 C 214.351562 248.824219 215.082031 249.46875 214.917969 250.203125 C 214.835938 250.703125 214.488281 251.117188 214.050781 251.339844 C 214.757812 251.5625 215.304688 252.308594 215.113281 253.046875 C 214.925781 254.007812 213.820312 254.539062 212.933594 254.246094 C 212.503906 254.117188 212.066406 253.847656 211.859375 253.453125 C 211.910156 253.332031 211.890625 253.125 211.949219 253.046875 C 212.367188 253.664062 213.257812 254.085938 213.957031 253.738281 C 214.71875 253.253906 214.597656 251.839844 213.679688 251.601562 L 213.605469 251.601562 L 213.589844 251.585938 L 212.851562 251.585938 L 212.851562 251.109375 C 213.304688 251.101562 213.867188 251.046875 214.121094 250.578125 C 214.394531 250.171875 214.367188 249.507812 213.851562 249.308594 C 213.242188 249.070312 212.488281 249.457031 212.257812 250.078125 C 212.164062 249.941406 212.066406 249.808594 211.972656 249.664062 C 212.296875 249.078125 212.988281 248.730469 213.65625 248.792969 Z M 213.65625 248.792969 Z M 213.65625 248.792969 "/>
<path style=" stroke:none;fill-rule:nonzero;fill:rgb(0%,0%,0%);fill-opacity:1;" d="M 216.917969 253.507812 L 216.917969 254.140625 L 216.273438 254.140625 L 216.273438 253.507812 Z M 216.917969 253.507812 Z M 216.917969 253.507812 "/>
<path style=" stroke:none;fill-rule:nonzero;fill:rgb(0%,0%,0%);fill-opacity:1;" d="M 220.980469 248.957031 L 220.980469 249.449219 L 218.917969 249.449219 L 218.902344 249.457031 L 218.902344 251.085938 C 219.089844 250.960938 219.359375 250.792969 219.613281 250.785156 C 220.511719 250.6875 221.203125 251.570312 221.242188 252.386719 C 221.371094 253.425781 220.394531 254.460938 219.34375 254.300781 C 218.820312 254.285156 218.3125 253.976562 218.011719 253.546875 C 218.097656 253.425781 218.171875 253.222656 218.273438 253.148438 C 218.648438 253.878906 219.851562 254.171875 220.335938 253.402344 C 220.648438 252.824219 220.640625 252.085938 220.28125 251.53125 C 219.871094 251 219.050781 251.324219 218.859375 251.886719 L 218.34375 251.886719 L 218.34375 248.957031 Z M 220.980469 248.957031 Z M 220.980469 248.957031 "/>
<path style=" stroke:none;fill-rule:nonzero;fill:rgb(0%,0%,0%);fill-opacity:1;" d="M 253.628906 248.957031 L 253.628906 252.300781 L 253.644531 252.316406 L 254.429688 252.316406 L 254.429688 252.792969 L 253.644531 252.792969 L 253.628906 252.800781 L 253.628906 254.140625 L 253.027344 254.140625 L 253.027344 252.800781 L 253.011719 252.792969 L 250.914062 252.792969 L 250.914062 252.300781 C 251.582031 251.1875 252.246094 250.070312 252.914062 248.957031 Z M 253.628906 248.957031 Z M 253.042969 249.261719 C 252.882812 250.085938 252.375 250.792969 251.992188 251.515625 C 251.84375 251.777344 251.644531 252.0625 251.535156 252.316406 L 253.058594 252.316406 L 253.066406 252.300781 L 253.066406 249.261719 L 253.058594 249.246094 Z M 253.042969 249.261719 Z M 253.042969 249.261719 "/>
<path style=" stroke:none;fill-rule:nonzero;fill:rgb(0%,0%,0%);fill-opacity:1;" d="M 256.089844 253.507812 L 256.089844 254.140625 L 255.445312 254.140625 L 255.445312 253.507812 Z M 256.089844 253.507812 Z M 256.089844 253.507812 "/>
<path style=" stroke:none;fill-rule:nonzero;fill:rgb(0%,0%,0%);fill-opacity:1;" d="M 258.976562 248.792969 C 259.734375 248.847656 260.234375 249.539062 260.367188 250.238281 C 260.4375 250.554688 260.453125 250.855469 260.488281 251.171875 L 260.488281 251.984375 C 260.445312 252.808594 260.25 253.894531 259.351562 254.230469 C 258.574219 254.539062 257.660156 254.054688 257.429688 253.261719 C 257.257812 252.839844 257.238281 252.410156 257.199219 251.984375 L 257.199219 251.171875 C 257.238281 250.347656 257.414062 249.253906 258.304688 248.886719 L 258.34375 248.871094 L 258.375 248.863281 L 258.414062 248.847656 L 258.535156 248.816406 L 258.605469 248.800781 L 258.691406 248.800781 L 258.707031 248.792969 Z M 258.976562 248.792969 Z M 258.730469 249.277344 C 258.066406 249.355469 257.867188 250.15625 257.820312 250.695312 L 257.820312 250.910156 L 257.804688 250.925781 L 257.804688 252.03125 C 257.851562 252.601562 257.890625 253.339844 258.414062 253.722656 C 258.898438 254.054688 259.542969 253.679688 259.675781 253.164062 C 259.820312 252.785156 259.851562 252.410156 259.882812 252.03125 L 259.882812 250.925781 C 259.835938 250.347656 259.757812 249.539062 259.089844 249.308594 L 259.035156 249.292969 L 259.019531 249.277344 L 258.945312 249.277344 L 258.929688 249.261719 L 258.75 249.261719 Z M 258.730469 249.277344 Z M 258.730469 249.277344 "/>
<path style=" stroke:none;fill-rule:nonzero;fill:rgb(0%,0%,0%);fill-opacity:1;" d="M 292.800781 248.957031 L 292.800781 252.300781 L 292.816406 252.316406 L 293.601562 252.316406 L 293.601562 252.792969 L 292.816406 252.792969 L 292.800781 252.800781 L 292.800781 254.140625 L 292.199219 254.140625 L 292.199219 252.800781 L 292.183594 252.792969 L 290.085938 252.792969 L 290.085938 252.300781 C 290.753906 251.1875 291.421875 250.070312 292.085938 248.957031 Z M 292.800781 248.957031 Z M 292.214844 249.261719 C 292.054688 250.085938 291.546875 250.792969 291.167969 251.515625 C 291.015625 251.777344 290.816406 252.0625 290.707031 252.316406 L 292.230469 252.316406 L 292.238281 252.300781 L 292.238281 249.261719 L 292.230469 249.246094 Z M 292.214844 249.261719 Z M 292.214844 249.261719 "/>
<path style=" stroke:none;fill-rule:nonzero;fill:rgb(0%,0%,0%);fill-opacity:1;" d="M 295.261719 253.507812 L 295.261719 254.140625 L 294.621094 254.140625 L 294.621094 253.507812 Z M 295.261719 253.507812 Z M 295.261719 253.507812 "/>
<path style=" stroke:none;fill-rule:nonzero;fill:rgb(0%,0%,0%);fill-opacity:1;" d="M 299.324219 248.957031 L 299.324219 249.449219 L 297.261719 249.449219 L 297.246094 249.457031 L 297.246094 251.085938 C 297.4375 250.960938 297.707031 250.792969 297.960938 250.785156 C 298.859375 250.6875 299.546875 251.570312 299.585938 252.386719 C 299.714844 253.425781 298.738281 254.460938 297.691406 254.300781 C 297.167969 254.285156 296.660156 253.976562 296.355469 253.546875 C 296.445312 253.425781 296.515625 253.222656 296.621094 253.148438 C 296.992188 253.878906 298.199219 254.171875 298.683594 253.402344 C 298.992188 252.824219 298.984375 252.085938 298.628906 251.53125 C 298.214844 251 297.398438 251.324219 297.207031 251.886719 L 296.691406 251.886719 L 296.691406 248.957031 Z M 299.324219 248.957031 Z M 299.324219 248.957031 "/>
<path style=" stroke:none;fill-rule:nonzero;fill:rgb(0%,0%,0%);fill-opacity:1;" d="M 332.332031 248.957031 L 332.332031 249.449219 L 330.269531 249.449219 L 330.253906 249.457031 L 330.253906 251.085938 C 330.441406 250.960938 330.710938 250.792969 330.964844 250.785156 C 331.863281 250.6875 332.554688 251.570312 332.59375 252.386719 C 332.71875 253.425781 331.746094 254.460938 330.695312 254.300781 C 330.171875 254.285156 329.664062 253.976562 329.363281 253.546875 C 329.449219 253.425781 329.523438 253.222656 329.625 253.148438 C 330 253.878906 331.203125 254.171875 331.6875 253.402344 C 332 252.824219 331.992188 252.085938 331.632812 251.53125 C 331.21875 251 330.402344 251.324219 330.210938 251.886719 L 329.695312 251.886719 L 329.695312 248.957031 Z M 332.332031 248.957031 Z M 332.332031 248.957031 "/>
<path style=" stroke:none;fill-rule:nonzero;fill:rgb(0%,0%,0%);fill-opacity:1;" d="M 334.433594 253.507812 L 334.433594 254.140625 L 333.792969 254.140625 L 333.792969 253.507812 Z M 334.433594 253.507812 Z M 334.433594 253.507812 "/>
<path style=" stroke:none;fill-rule:nonzero;fill:rgb(0%,0%,0%);fill-opacity:1;" d="M 337.324219 248.792969 C 338.078125 248.847656 338.578125 249.539062 338.710938 250.238281 C 338.785156 250.554688 338.800781 250.855469 338.832031 251.171875 L 338.832031 251.984375 C 338.792969 252.808594 338.59375 253.894531 337.695312 254.230469 C 336.917969 254.539062 336.007812 254.054688 335.777344 253.261719 C 335.601562 252.839844 335.585938 252.410156 335.546875 251.984375 L 335.546875 251.171875 C 335.585938 250.347656 335.761719 249.253906 336.648438 248.886719 L 336.6875 248.871094 L 336.71875 248.863281 L 336.761719 248.847656 L 336.878906 248.816406 L 336.949219 248.800781 L 337.039062 248.800781 L 337.054688 248.792969 Z M 337.324219 248.792969 Z M 337.078125 249.277344 C 336.410156 249.355469 336.210938 250.15625 336.164062 250.695312 L 336.164062 250.910156 L 336.148438 250.925781 L 336.148438 252.03125 C 336.195312 252.601562 336.238281 253.339844 336.761719 253.722656 C 337.246094 254.054688 337.886719 253.679688 338.023438 253.164062 C 338.164062 252.785156 338.195312 252.410156 338.230469 252.03125 L 338.230469 250.925781 C 338.179688 250.347656 338.101562 249.539062 337.433594 249.308594 L 337.378906 249.292969 L 337.363281 249.277344 L 337.292969 249.277344 L 337.277344 249.261719 L 337.09375 249.261719 Z M 337.078125 249.277344 Z M 337.078125 249.277344 "/>
<path style="fill:none;stroke-width:0.02;stroke-linecap:butt;stroke-linejoin:miter;stroke:rgb(0%,0%,0%);stroke-opacity:1;stroke-miterlimit:10;" d="M 2.077668 8.838356 L 2.077668 8.73335 " transform="matrix(28.346457,0,0,-28.346457,1,256.11811)"/>
<path style="fill:none;stroke-width:0.02;stroke-linecap:butt;stroke-linejoin:miter;stroke:rgb(0%,0%,0%);stroke-opacity:1;stroke-miterlimit:10;" d="M 3.459703 8.838356 L 3.459703 8.73335 " transform="matrix(28.346457,0,0,-28.346457,1,256.11811)"/>
<path style="fill:none;stroke-width:0.02;stroke-linecap:butt;stroke-linejoin:miter;stroke:rgb(0%,0%,0%);stroke-opacity:1;stroke-miterlimit:10;" d="M 4.841599 8.838356 L 4.841599 8.73335 " transform="matrix(28.346457,0,0,-28.346457,1,256.11811)"/>
<path style="fill:none;stroke-width:0.02;stroke-linecap:butt;stroke-linejoin:miter;stroke:rgb(0%,0%,0%);stroke-opacity:1;stroke-miterlimit:10;" d="M 6.223496 8.838356 L 6.223496 8.73335 " transform="matrix(28.346457,0,0,-28.346457,1,256.11811)"/>
<path style="fill:none;stroke-width:0.02;stroke-linecap:butt;stroke-linejoin:miter;stroke:rgb(0%,0%,0%);stroke-opacity:1;stroke-miterlimit:10;" d="M 7.605393 8.838356 L 7.605393 8.73335 " transform="matrix(28.346457,0,0,-28.346457,1,256.11811)"/>
<path style="fill:none;stroke-width:0.02;stroke-linecap:butt;stroke-linejoin:miter;stroke:rgb(0%,0%,0%);stroke-opacity:1;stroke-miterlimit:10;" d="M 8.987427 8.838356 L 8.987427 8.73335 " transform="matrix(28.346457,0,0,-28.346457,1,256.11811)"/>
<path style="fill:none;stroke-width:0.02;stroke-linecap:butt;stroke-linejoin:miter;stroke:rgb(0%,0%,0%);stroke-opacity:1;stroke-miterlimit:10;" d="M 10.369324 8.838356 L 10.369324 8.73335 " transform="matrix(28.346457,0,0,-28.346457,1,256.11811)"/>
<path style="fill:none;stroke-width:0.02;stroke-linecap:round;stroke-linejoin:miter;stroke:rgb(0%,0%,0%);stroke-opacity:1;stroke-miterlimit:10;" d="M 0.695771 8.838356 L 11.751221 8.838356 " transform="matrix(28.346457,0,0,-28.346457,1,256.11811)"/>
<path style="fill:none;stroke-width:0.02;stroke-linecap:butt;stroke-linejoin:miter;stroke:rgb(32.941176%,47.058824%,63.921569%);stroke-opacity:1;stroke-miterlimit:10;" d="M 0.695771 0.476558 L 3.459703 1.301452 L 6.223496 8.699174 L 8.987427 3.234564 L 11.751221 0.991393 " transform="matrix(28.346457,0,0,-28.346457,1,256.11811)"/>
</g>
</svg>
