<?xml version="1.0" encoding="UTF-8"?>
<svg xmlns="http://www.w3.org/2000/svg" xmlns:xlink="http://www.w3.org/1999/xlink" width="285.464567pt" height="228.771654pt" viewBox="0 0 285.464567 228.771654" version="1.1">
<g id="surface1">
<path style="fill:none;stroke-width:0.02;stroke-linecap:butt;stroke-linejoin:miter;stroke:rgb(0%,0%,0%);stroke-opacity:1;stroke-miterlimit:10;" d="M 0.695771 1.663367 L 0.800778 1.663367 " transform="matrix(28.346457,0,0,-28.346457,1,227.771654)"/>
<path style="fill:none;stroke-width:0.02;stroke-linecap:butt;stroke-linejoin:miter;stroke:rgb(0%,0%,0%);stroke-opacity:1;stroke-miterlimit:10;" d="M 0.695771 2.898365 L 0.800778 2.898365 " transform="matrix(28.346457,0,0,-28.346457,1,227.771654)"/>
<path style="fill:none;stroke-width:0.02;stroke-linecap:butt;stroke-linejoin:miter;stroke:rgb(0%,0%,0%);stroke-opacity:1;stroke-miterlimit:10;" d="M 0.695771 4.133363 L 0.800778 4.133363 " transform="matrix(28.346457,0,0,-28.346457,1,227.771654)"/>
<path style="fill:none;stroke-width:0.02;stroke-linecap:butt;stroke-linejoin:miter;stroke:rgb(0%,0%,0%);stroke-opacity:1;stroke-miterlimit:10;" d="M 0.695771 5.36836 L 0.800778 5.36836 " transform="matrix(28.346457,0,0,-28.346457,1,227.771654)"/>
<path style="fill:none;stroke-width:0.02;stroke-linecap:butt;stroke-linejoin:miter;stroke:rgb(0%,0%,0%);stroke-opacity:1;stroke-miterlimit:10;" d="M 0.695771 6.603358 L 0.800778 6.603358 " transform="matrix(28.346457,0,0,-28.346457,1,227.771654)"/>
<path style="fill:none;stroke-width:0.02;stroke-linecap:round;stroke-linejoin:miter;stroke:rgb(0%,0%,0%);stroke-opacity:1;stroke-miterlimit:10;" d="M 0.695771 0.428369 L 0.695771 7.838356 " transform="matrix(28.346457,0,0,-28.346457,1,227.771654)"/>
<path style=" stroke:none;fill-rule:nonzero;fill:rgb(0%,0%,0%);fill-opacity:1;" d="M 5.160156 216.265625 L 5.160156 216.710938 L 3.078125 216.710938 L 3.078125 216.265625 Z M 5.160156 216.265625 Z M 5.160156 216.265625 "/>
<path style=" stroke:none;fill-rule:nonzero;fill:rgb(0%,0%,0%);fill-opacity:1;" d="M 7.992188 212.886719 L 7.992188 217.78125 L 8 217.796875 L 8.976562 217.796875 L 8.976562 218.234375 L 6.398438 218.234375 L 6.398438 217.796875 L 7.375 217.796875 L 7.390625 217.78125 L 7.390625 213.671875 C 7.054688 213.78125 6.707031 213.855469 6.359375 213.847656 L 6.359375 213.402344 C 6.882812 213.410156 7.453125 213.265625 7.851562 212.886719 Z M 7.992188 212.886719 Z M 7.992188 212.886719 "/>
<path style=" stroke:none;fill-rule:nonzero;fill:rgb(0%,0%,0%);fill-opacity:1;" d="M 11.023438 217.601562 L 11.023438 218.234375 L 10.382812 218.234375 L 10.382812 217.601562 Z M 11.023438 217.601562 Z M 11.023438 217.601562 "/>
<path style=" stroke:none;fill-rule:nonzero;fill:rgb(0%,0%,0%);fill-opacity:1;" d="M 15.089844 213.050781 L 15.089844 213.542969 L 13.023438 213.542969 L 13.007812 213.550781 L 13.007812 215.179688 C 13.199219 215.050781 13.46875 214.886719 13.722656 214.878906 C 14.621094 214.78125 15.308594 215.664062 15.351562 216.480469 C 15.476562 217.519531 14.5 218.554688 13.453125 218.394531 C 12.929688 218.378906 12.421875 218.070312 12.121094 217.640625 C 12.207031 217.519531 12.277344 217.316406 12.382812 217.242188 C 12.753906 217.972656 13.960938 218.265625 14.445312 217.496094 C 14.753906 216.917969 14.746094 216.179688 14.390625 215.625 C 13.976562 215.09375 13.160156 215.417969 12.96875 215.980469 L 12.453125 215.980469 L 12.453125 213.050781 Z M 15.089844 213.050781 Z M 15.089844 213.050781 "/>
<path style=" stroke:none;fill-rule:nonzero;fill:rgb(0%,0%,0%);fill-opacity:1;" d="M 5.160156 181.257812 L 5.160156 181.703125 L 3.078125 181.703125 L 3.078125 181.257812 Z M 5.160156 181.257812 Z M 5.160156 181.257812 "/>
<path style=" stroke:none;fill-rule:nonzero;fill:rgb(0%,0%,0%);fill-opacity:1;" d="M 7.992188 177.878906 L 7.992188 182.777344 L 8 182.792969 L 8.976562 182.792969 L 8.976562 183.226562 L 6.398438 183.226562 L 6.398438 182.792969 L 7.375 182.792969 L 7.390625 182.777344 L 7.390625 178.664062 C 7.054688 178.773438 6.707031 178.847656 6.359375 178.839844 L 6.359375 178.394531 C 6.882812 178.402344 7.453125 178.257812 7.851562 177.878906 Z M 7.992188 177.878906 Z M 7.992188 177.878906 "/>
<path style=" stroke:none;fill-rule:nonzero;fill:rgb(0%,0%,0%);fill-opacity:1;" d="M 11.023438 182.59375 L 11.023438 183.226562 L 10.382812 183.226562 L 10.382812 182.59375 Z M 11.023438 182.59375 Z M 11.023438 182.59375 "/>
<path style=" stroke:none;fill-rule:nonzero;fill:rgb(0%,0%,0%);fill-opacity:1;" d="M 13.914062 177.878906 C 14.667969 177.933594 15.167969 178.625 15.300781 179.324219 C 15.375 179.640625 15.390625 179.941406 15.421875 180.257812 L 15.421875 181.070312 C 15.382812 181.894531 15.183594 182.980469 14.285156 183.316406 C 13.507812 183.625 12.597656 183.140625 12.367188 182.347656 C 12.191406 181.925781 12.175781 181.496094 12.136719 181.070312 L 12.136719 180.257812 C 12.175781 179.433594 12.351562 178.339844 13.238281 177.972656 L 13.277344 177.957031 L 13.308594 177.949219 L 13.351562 177.933594 L 13.46875 177.902344 L 13.539062 177.886719 L 13.628906 177.886719 L 13.644531 177.878906 Z M 13.914062 177.878906 Z M 13.667969 178.363281 C 13 178.441406 12.800781 179.242188 12.753906 179.785156 L 12.753906 179.996094 L 12.738281 180.011719 L 12.738281 181.117188 C 12.785156 181.6875 12.824219 182.425781 13.351562 182.808594 C 13.835938 183.140625 14.476562 182.769531 14.613281 182.25 C 14.753906 181.871094 14.785156 181.496094 14.816406 181.117188 L 14.816406 180.011719 C 14.769531 179.433594 14.691406 178.625 14.023438 178.394531 L 13.96875 178.378906 L 13.953125 178.363281 L 13.882812 178.363281 L 13.867188 178.347656 L 13.683594 178.347656 Z M 13.667969 178.363281 Z M 13.667969 178.363281 "/>
<path style=" stroke:none;fill-rule:nonzero;fill:rgb(0%,0%,0%);fill-opacity:1;" d="M 5.160156 146.253906 L 5.160156 146.695312 L 3.078125 146.695312 L 3.078125 146.253906 Z M 5.160156 146.253906 Z M 5.160156 146.253906 "/>
<path style=" stroke:none;fill-rule:nonzero;fill:rgb(0%,0%,0%);fill-opacity:1;" d="M 7.746094 142.871094 C 8.5 142.925781 9 143.617188 9.136719 144.316406 C 9.207031 144.632812 9.222656 144.933594 9.253906 145.253906 L 9.253906 146.0625 C 9.214844 146.886719 9.015625 147.972656 8.121094 148.308594 C 7.339844 148.617188 6.429688 148.132812 6.199219 147.339844 C 6.023438 146.917969 6.007812 146.492188 5.96875 146.0625 L 5.96875 145.253906 C 6.007812 144.425781 6.183594 143.332031 7.070312 142.964844 L 7.113281 142.949219 L 7.144531 142.941406 L 7.183594 142.925781 L 7.300781 142.894531 L 7.375 142.878906 L 7.460938 142.878906 L 7.476562 142.871094 Z M 7.746094 142.871094 Z M 7.5 143.355469 C 6.832031 143.433594 6.636719 144.234375 6.585938 144.777344 L 6.585938 144.988281 L 6.570312 145.007812 L 6.570312 146.109375 C 6.621094 146.679688 6.660156 147.417969 7.183594 147.800781 C 7.667969 148.132812 8.308594 147.761719 8.445312 147.246094 C 8.585938 146.863281 8.621094 146.492188 8.652344 146.109375 L 8.652344 145.007812 C 8.605469 144.425781 8.523438 143.617188 7.859375 143.386719 L 7.800781 143.371094 L 7.785156 143.355469 L 7.714844 143.355469 L 7.699219 143.339844 L 7.515625 143.339844 Z M 7.5 143.355469 Z M 7.5 143.355469 "/>
<path style=" stroke:none;fill-rule:nonzero;fill:rgb(0%,0%,0%);fill-opacity:1;" d="M 11.023438 147.585938 L 11.023438 148.21875 L 10.382812 148.21875 L 10.382812 147.585938 Z M 11.023438 147.585938 Z M 11.023438 147.585938 "/>
<path style=" stroke:none;fill-rule:nonzero;fill:rgb(0%,0%,0%);fill-opacity:1;" d="M 15.089844 143.039062 L 15.089844 143.53125 L 13.023438 143.53125 L 13.007812 143.539062 L 13.007812 145.164062 C 13.199219 145.039062 13.46875 144.871094 13.722656 144.863281 C 14.621094 144.769531 15.308594 145.648438 15.351562 146.464844 C 15.476562 147.507812 14.5 148.539062 13.453125 148.378906 C 12.929688 148.363281 12.421875 148.054688 12.121094 147.625 C 12.207031 147.507812 12.277344 147.300781 12.382812 147.226562 C 12.753906 147.957031 13.960938 148.253906 14.445312 147.480469 C 14.753906 146.902344 14.746094 146.164062 14.390625 145.609375 C 13.976562 145.078125 13.160156 145.402344 12.96875 145.964844 L 12.453125 145.964844 L 12.453125 143.039062 Z M 15.089844 143.039062 Z M 15.089844 143.039062 "/>
<path style=" stroke:none;fill-rule:nonzero;fill:rgb(0%,0%,0%);fill-opacity:1;" d="M 7.746094 107.863281 C 8.5 107.917969 9 108.609375 9.136719 109.308594 C 9.207031 109.625 9.222656 109.925781 9.253906 110.246094 L 9.253906 111.054688 C 9.214844 111.878906 9.015625 112.96875 8.121094 113.300781 C 7.339844 113.609375 6.429688 113.125 6.199219 112.332031 C 6.023438 111.910156 6.007812 111.484375 5.96875 111.054688 L 5.96875 110.246094 C 6.007812 109.417969 6.183594 108.324219 7.070312 107.957031 L 7.113281 107.941406 L 7.144531 107.933594 L 7.183594 107.917969 L 7.300781 107.886719 L 7.375 107.871094 L 7.460938 107.871094 L 7.476562 107.863281 Z M 7.746094 107.863281 Z M 7.5 108.347656 C 6.832031 108.425781 6.636719 109.230469 6.585938 109.769531 L 6.585938 109.984375 L 6.570312 110 L 6.570312 111.101562 C 6.621094 111.671875 6.660156 112.410156 7.183594 112.792969 C 7.667969 113.125 8.308594 112.753906 8.445312 112.238281 C 8.585938 111.855469 8.621094 111.484375 8.652344 111.101562 L 8.652344 110 C 8.605469 109.417969 8.523438 108.609375 7.859375 108.378906 L 7.800781 108.363281 L 7.785156 108.347656 L 7.714844 108.347656 L 7.699219 108.332031 L 7.515625 108.332031 Z M 7.5 108.347656 Z M 7.5 108.347656 "/>
<path style=" stroke:none;fill-rule:nonzero;fill:rgb(0%,0%,0%);fill-opacity:1;" d="M 11.023438 112.578125 L 11.023438 113.214844 L 10.382812 113.214844 L 10.382812 112.578125 Z M 11.023438 112.578125 Z M 11.023438 112.578125 "/>
<path style=" stroke:none;fill-rule:nonzero;fill:rgb(0%,0%,0%);fill-opacity:1;" d="M 13.914062 107.863281 C 14.667969 107.917969 15.167969 108.609375 15.300781 109.308594 C 15.375 109.625 15.390625 109.925781 15.421875 110.246094 L 15.421875 111.054688 C 15.382812 111.878906 15.183594 112.96875 14.285156 113.300781 C 13.507812 113.609375 12.597656 113.125 12.367188 112.332031 C 12.191406 111.910156 12.175781 111.484375 12.136719 111.054688 L 12.136719 110.246094 C 12.175781 109.417969 12.351562 108.324219 13.238281 107.957031 L 13.277344 107.941406 L 13.308594 107.933594 L 13.351562 107.917969 L 13.46875 107.886719 L 13.539062 107.871094 L 13.628906 107.871094 L 13.644531 107.863281 Z M 13.914062 107.863281 Z M 13.667969 108.347656 C 13 108.425781 12.800781 109.230469 12.753906 109.769531 L 12.753906 109.984375 L 12.738281 110 L 12.738281 111.101562 C 12.785156 111.671875 12.824219 112.410156 13.351562 112.792969 C 13.835938 113.125 14.476562 112.753906 14.613281 112.238281 C 14.753906 111.855469 14.785156 111.484375 14.816406 111.101562 L 14.816406 110 C 14.769531 109.417969 14.691406 108.609375 14.023438 108.378906 L 13.96875 108.363281 L 13.953125 108.347656 L 13.882812 108.347656 L 13.867188 108.332031 L 13.683594 108.332031 Z M 13.667969 108.347656 Z M 13.667969 108.347656 "/>
<path style=" stroke:none;fill-rule:nonzero;fill:rgb(0%,0%,0%);fill-opacity:1;" d="M 7.746094 72.855469 C 8.5 72.910156 9 73.601562 9.136719 74.300781 C 9.207031 74.617188 9.222656 74.917969 9.253906 75.238281 L 9.253906 76.046875 C 9.214844 76.871094 9.015625 77.960938 8.121094 78.292969 C 7.339844 78.601562 6.429688 78.117188 6.199219 77.324219 C 6.023438 76.902344 6.007812 76.476562 5.96875 76.046875 L 5.96875 75.238281 C 6.007812 74.410156 6.183594 73.316406 7.070312 72.953125 L 7.113281 72.9375 L 7.144531 72.925781 L 7.183594 72.910156 L 7.300781 72.878906 L 7.375 72.863281 L 7.460938 72.863281 L 7.476562 72.855469 Z M 7.746094 72.855469 Z M 7.5 73.339844 C 6.832031 73.417969 6.636719 74.222656 6.585938 74.761719 L 6.585938 74.976562 L 6.570312 74.992188 L 6.570312 76.09375 C 6.621094 76.664062 6.660156 77.402344 7.183594 77.785156 C 7.667969 78.117188 8.308594 77.746094 8.445312 77.230469 C 8.585938 76.847656 8.621094 76.476562 8.652344 76.09375 L 8.652344 74.992188 C 8.605469 74.410156 8.523438 73.601562 7.859375 73.371094 L 7.800781 73.355469 L 7.785156 73.339844 L 7.714844 73.339844 L 7.699219 73.324219 L 7.515625 73.324219 Z M 7.5 73.339844 Z M 7.5 73.339844 "/>
<path style=" stroke:none;fill-rule:nonzero;fill:rgb(0%,0%,0%);fill-opacity:1;" d="M 11.023438 77.570312 L 11.023438 78.207031 L 10.382812 78.207031 L 10.382812 77.570312 Z M 11.023438 77.570312 Z M 11.023438 77.570312 "/>
<path style=" stroke:none;fill-rule:nonzero;fill:rgb(0%,0%,0%);fill-opacity:1;" d="M 15.089844 73.023438 L 15.089844 73.515625 L 13.023438 73.515625 L 13.007812 73.523438 L 13.007812 75.148438 C 13.199219 75.023438 13.46875 74.855469 13.722656 74.847656 C 14.621094 74.753906 15.308594 75.632812 15.351562 76.453125 C 15.476562 77.492188 14.5 78.523438 13.453125 78.363281 C 12.929688 78.347656 12.421875 78.039062 12.121094 77.609375 C 12.207031 77.492188 12.277344 77.285156 12.382812 77.214844 C 12.753906 77.945312 13.960938 78.238281 14.445312 77.46875 C 14.753906 76.886719 14.746094 76.148438 14.390625 75.59375 C 13.976562 75.0625 13.160156 75.386719 12.96875 75.953125 L 12.453125 75.953125 L 12.453125 73.023438 Z M 15.089844 73.023438 Z M 15.089844 73.023438 "/>
<path style=" stroke:none;fill-rule:nonzero;fill:rgb(0%,0%,0%);fill-opacity:1;" d="M 7.992188 37.847656 L 7.992188 42.746094 L 8 42.761719 L 8.976562 42.761719 L 8.976562 43.199219 L 6.398438 43.199219 L 6.398438 42.761719 L 7.375 42.761719 L 7.390625 42.746094 L 7.390625 38.632812 C 7.054688 38.746094 6.707031 38.816406 6.359375 38.808594 L 6.359375 38.363281 C 6.882812 38.371094 7.453125 38.230469 7.851562 37.847656 Z M 7.992188 37.847656 Z M 7.992188 37.847656 "/>
<path style=" stroke:none;fill-rule:nonzero;fill:rgb(0%,0%,0%);fill-opacity:1;" d="M 11.023438 42.5625 L 11.023438 43.199219 L 10.382812 43.199219 L 10.382812 42.5625 Z M 11.023438 42.5625 Z M 11.023438 42.5625 "/>
<path style=" stroke:none;fill-rule:nonzero;fill:rgb(0%,0%,0%);fill-opacity:1;" d="M 13.914062 37.847656 C 14.667969 37.90625 15.167969 38.59375 15.300781 39.292969 C 15.375 39.609375 15.390625 39.914062 15.421875 40.230469 L 15.421875 41.039062 C 15.382812 41.863281 15.183594 42.953125 14.285156 43.285156 C 13.507812 43.59375 12.597656 43.109375 12.367188 42.316406 C 12.191406 41.898438 12.175781 41.46875 12.136719 41.039062 L 12.136719 40.230469 C 12.175781 39.40625 12.351562 38.308594 13.238281 37.945312 L 13.277344 37.929688 L 13.308594 37.921875 L 13.351562 37.90625 L 13.46875 37.871094 L 13.539062 37.855469 L 13.628906 37.855469 L 13.644531 37.847656 Z M 13.914062 37.847656 Z M 13.667969 38.332031 C 13 38.414062 12.800781 39.214844 12.753906 39.753906 L 12.753906 39.96875 L 12.738281 39.984375 L 12.738281 41.085938 C 12.785156 41.660156 12.824219 42.398438 13.351562 42.777344 C 13.835938 43.109375 14.476562 42.738281 14.613281 42.222656 C 14.753906 41.839844 14.785156 41.46875 14.816406 41.085938 L 14.816406 39.984375 C 14.769531 39.40625 14.691406 38.59375 14.023438 38.363281 L 13.96875 38.347656 L 13.953125 38.332031 L 13.882812 38.332031 L 13.867188 38.316406 L 13.683594 38.316406 Z M 13.667969 38.332031 Z M 13.667969 38.332031 "/>
<path style=" stroke:none;fill-rule:nonzero;fill:rgb(0%,0%,0%);fill-opacity:1;" d="M 7.992188 2.839844 L 7.992188 7.738281 L 8 7.753906 L 8.976562 7.753906 L 8.976562 8.191406 L 6.398438 8.191406 L 6.398438 7.753906 L 7.375 7.753906 L 7.390625 7.738281 L 7.390625 3.628906 C 7.054688 3.738281 6.707031 3.808594 6.359375 3.800781 L 6.359375 3.355469 C 6.882812 3.363281 7.453125 3.222656 7.851562 2.839844 Z M 7.992188 2.839844 Z M 7.992188 2.839844 "/>
<path style=" stroke:none;fill-rule:nonzero;fill:rgb(0%,0%,0%);fill-opacity:1;" d="M 11.023438 7.554688 L 11.023438 8.191406 L 10.382812 8.191406 L 10.382812 7.554688 Z M 11.023438 7.554688 Z M 11.023438 7.554688 "/>
<path style=" stroke:none;fill-rule:nonzero;fill:rgb(0%,0%,0%);fill-opacity:1;" d="M 15.089844 3.007812 L 15.089844 3.5 L 13.023438 3.5 L 13.007812 3.507812 L 13.007812 5.136719 C 13.199219 5.007812 13.46875 4.839844 13.722656 4.832031 C 14.621094 4.738281 15.308594 5.621094 15.351562 6.4375 C 15.476562 7.476562 14.5 8.507812 13.453125 8.351562 C 12.929688 8.332031 12.421875 8.023438 12.121094 7.59375 C 12.207031 7.476562 12.277344 7.269531 12.382812 7.199219 C 12.753906 7.929688 13.960938 8.222656 14.445312 7.453125 C 14.753906 6.875 14.746094 6.136719 14.390625 5.578125 C 13.976562 5.046875 13.160156 5.375 12.96875 5.9375 L 12.453125 5.9375 L 12.453125 3.007812 Z M 15.089844 3.007812 Z M 15.089844 3.007812 "/>
<path style="fill:none;stroke-width:0.02;stroke-linecap:butt;stroke-linejoin:miter;stroke:rgb(0%,0%,0%);stroke-opacity:1;stroke-miterlimit:10;" d="M 9.751274 1.663367 L 9.646267 1.663367 " transform="matrix(28.346457,0,0,-28.346457,1,227.771654)"/>
<path style="fill:none;stroke-width:0.02;stroke-linecap:butt;stroke-linejoin:miter;stroke:rgb(0%,0%,0%);stroke-opacity:1;stroke-miterlimit:10;" d="M 9.751274 2.898365 L 9.646267 2.898365 " transform="matrix(28.346457,0,0,-28.346457,1,227.771654)"/>
<path style="fill:none;stroke-width:0.02;stroke-linecap:butt;stroke-linejoin:miter;stroke:rgb(0%,0%,0%);stroke-opacity:1;stroke-miterlimit:10;" d="M 9.751274 4.133363 L 9.646267 4.133363 " transform="matrix(28.346457,0,0,-28.346457,1,227.771654)"/>
<path style="fill:none;stroke-width:0.02;stroke-linecap:butt;stroke-linejoin:miter;stroke:rgb(0%,0%,0%);stroke-opacity:1;stroke-miterlimit:10;" d="M 9.751274 5.36836 L 9.646267 5.36836 " transform="matrix(28.346457,0,0,-28.346457,1,227.771654)"/>
<path style="fill:none;stroke-width:0.02;stroke-linecap:butt;stroke-linejoin:miter;stroke:rgb(0%,0%,0%);stroke-opacity:1;stroke-miterlimit:10;" d="M 9.751274 6.603358 L 9.646267 6.603358 " transform="matrix(28.346457,0,0,-28.346457,1,227.771654)"/>
<path style="fill:none;stroke-width:0.02;stroke-linecap:round;stroke-linejoin:miter;stroke:rgb(0%,0%,0%);stroke-opacity:1;stroke-miterlimit:10;" d="M 9.751274 0.428369 L 9.751274 7.838356 " transform="matrix(28.346457,0,0,-28.346457,1,227.771654)"/>
<path style="fill:none;stroke-width:0.02;stroke-linecap:butt;stroke-linejoin:miter;stroke:rgb(0%,0%,0%);stroke-opacity:1;stroke-miterlimit:10;" d="M 1.827692 0.428369 L 1.827692 0.533376 " transform="matrix(28.346457,0,0,-28.346457,1,227.771654)"/>
<path style="fill:none;stroke-width:0.02;stroke-linecap:butt;stroke-linejoin:miter;stroke:rgb(0%,0%,0%);stroke-opacity:1;stroke-miterlimit:10;" d="M 2.959613 0.428369 L 2.959613 0.533376 " transform="matrix(28.346457,0,0,-28.346457,1,227.771654)"/>
<path style="fill:none;stroke-width:0.02;stroke-linecap:butt;stroke-linejoin:miter;stroke:rgb(0%,0%,0%);stroke-opacity:1;stroke-miterlimit:10;" d="M 4.091533 0.428369 L 4.091533 0.533376 " transform="matrix(28.346457,0,0,-28.346457,1,227.771654)"/>
<path style="fill:none;stroke-width:0.02;stroke-linecap:butt;stroke-linejoin:miter;stroke:rgb(0%,0%,0%);stroke-opacity:1;stroke-miterlimit:10;" d="M 5.223454 0.428369 L 5.223454 0.533376 " transform="matrix(28.346457,0,0,-28.346457,1,227.771654)"/>
<path style="fill:none;stroke-width:0.02;stroke-linecap:butt;stroke-linejoin:miter;stroke:rgb(0%,0%,0%);stroke-opacity:1;stroke-miterlimit:10;" d="M 6.355374 0.428369 L 6.355374 0.533376 " transform="matrix(28.346457,0,0,-28.346457,1,227.771654)"/>
<path style="fill:none;stroke-width:0.02;stroke-linecap:butt;stroke-linejoin:miter;stroke:rgb(0%,0%,0%);stroke-opacity:1;stroke-miterlimit:10;" d="M 7.487433 0.428369 L 7.487433 0.533376 " transform="matrix(28.346457,0,0,-28.346457,1,227.771654)"/>
<path style="fill:none;stroke-width:0.02;stroke-linecap:butt;stroke-linejoin:miter;stroke:rgb(0%,0%,0%);stroke-opacity:1;stroke-miterlimit:10;" d="M 8.619353 0.428369 L 8.619353 0.533376 " transform="matrix(28.346457,0,0,-28.346457,1,227.771654)"/>
<path style="fill:none;stroke-width:0.02;stroke-linecap:round;stroke-linejoin:miter;stroke:rgb(0%,0%,0%);stroke-opacity:1;stroke-miterlimit:10;" d="M 0.695771 0.428369 L 9.751274 0.428369 " transform="matrix(28.346457,0,0,-28.346457,1,227.771654)"/>
<path style=" stroke:none;fill-rule:nonzero;fill:rgb(0%,0%,0%);fill-opacity:1;" d="M 16.507812 223.828125 L 16.507812 224.269531 L 14.429688 224.269531 L 14.429688 223.828125 Z M 16.507812 223.828125 Z M 16.507812 223.828125 "/>
<path style=" stroke:none;fill-rule:nonzero;fill:rgb(0%,0%,0%);fill-opacity:1;" d="M 19.007812 220.445312 C 19.929688 220.46875 20.660156 221.414062 20.515625 222.304688 C 20.421875 223.191406 19.589844 223.699219 18.992188 224.253906 L 18.738281 224.515625 L 18.707031 224.535156 L 18.390625 224.84375 L 18.367188 224.859375 L 18.046875 225.175781 L 18.015625 225.191406 L 17.945312 225.261719 L 17.960938 225.273438 L 20.53125 225.273438 L 20.53125 225.796875 L 17.390625 225.796875 L 17.390625 225.320312 L 18.667969 224.042969 C 19.277344 223.507812 19.992188 222.820312 19.882812 221.945312 C 19.820312 221.4375 19.390625 220.96875 18.867188 220.929688 C 18.335938 220.851562 17.867188 221.269531 17.746094 221.777344 L 17.730469 221.804688 L 17.714844 221.859375 L 17.691406 221.945312 L 17.644531 222.121094 L 17.636719 222.160156 C 17.523438 222.023438 17.40625 221.882812 17.320312 221.730469 C 17.476562 221.082031 18 220.46875 18.691406 220.445312 Z M 19.007812 220.445312 Z M 19.007812 220.445312 "/>
<path style=" stroke:none;fill-rule:nonzero;fill:rgb(0%,0%,0%);fill-opacity:1;" d="M 22.375 225.160156 L 22.375 225.796875 L 21.730469 225.796875 L 21.730469 225.160156 Z M 22.375 225.160156 Z M 22.375 225.160156 "/>
<path style=" stroke:none;fill-rule:nonzero;fill:rgb(0%,0%,0%);fill-opacity:1;" d="M 25.261719 220.445312 C 26.015625 220.5 26.515625 221.191406 26.652344 221.890625 C 26.722656 222.207031 26.738281 222.507812 26.769531 222.828125 L 26.769531 223.636719 C 26.730469 224.460938 26.535156 225.550781 25.636719 225.882812 C 24.859375 226.191406 23.945312 225.707031 23.714844 224.914062 C 23.542969 224.492188 23.523438 224.066406 23.484375 223.636719 L 23.484375 222.828125 C 23.523438 222 23.699219 220.90625 24.589844 220.542969 L 24.628906 220.523438 L 24.660156 220.515625 L 24.699219 220.5 L 24.820312 220.46875 L 24.890625 220.453125 L 24.976562 220.453125 L 24.992188 220.445312 Z M 25.261719 220.445312 Z M 25.015625 220.929688 C 24.351562 221.007812 24.152344 221.8125 24.105469 222.351562 L 24.105469 222.566406 L 24.089844 222.582031 L 24.089844 223.683594 C 24.136719 224.253906 24.175781 224.992188 24.699219 225.375 C 25.183594 225.707031 25.828125 225.335938 25.960938 224.820312 C 26.105469 224.4375 26.136719 224.066406 26.167969 223.683594 L 26.167969 222.582031 C 26.121094 222 26.042969 221.191406 25.375 220.960938 L 25.320312 220.945312 L 25.304688 220.929688 L 25.230469 220.929688 L 25.214844 220.914062 L 25.035156 220.914062 Z M 25.015625 220.929688 Z M 25.015625 220.929688 "/>
<path style=" stroke:none;fill-rule:nonzero;fill:rgb(0%,0%,0%);fill-opacity:1;" d="M 48.59375 223.828125 L 48.59375 224.269531 L 46.515625 224.269531 L 46.515625 223.828125 Z M 48.59375 223.828125 Z M 48.59375 223.828125 "/>
<path style=" stroke:none;fill-rule:nonzero;fill:rgb(0%,0%,0%);fill-opacity:1;" d="M 51.429688 220.445312 L 51.429688 225.34375 L 51.4375 225.359375 L 52.414062 225.359375 L 52.414062 225.796875 L 49.832031 225.796875 L 49.832031 225.359375 L 50.808594 225.359375 L 50.824219 225.34375 L 50.824219 221.230469 C 50.492188 221.34375 50.144531 221.414062 49.792969 221.40625 L 49.792969 220.960938 C 50.316406 220.96875 50.890625 220.828125 51.285156 220.445312 Z M 51.429688 220.445312 Z M 51.429688 220.445312 "/>
<path style=" stroke:none;fill-rule:nonzero;fill:rgb(0%,0%,0%);fill-opacity:1;" d="M 54.460938 225.160156 L 54.460938 225.796875 L 53.816406 225.796875 L 53.816406 225.160156 Z M 54.460938 225.160156 Z M 54.460938 225.160156 "/>
<path style=" stroke:none;fill-rule:nonzero;fill:rgb(0%,0%,0%);fill-opacity:1;" d="M 58.523438 220.613281 L 58.523438 221.105469 L 56.460938 221.105469 L 56.445312 221.113281 L 56.445312 222.738281 C 56.636719 222.613281 56.90625 222.445312 57.160156 222.4375 C 58.054688 222.34375 58.746094 223.222656 58.785156 224.042969 C 58.914062 225.082031 57.9375 226.113281 56.890625 225.953125 C 56.367188 225.9375 55.855469 225.628906 55.554688 225.199219 C 55.644531 225.082031 55.714844 224.875 55.816406 224.804688 C 56.191406 225.535156 57.398438 225.828125 57.882812 225.058594 C 58.191406 224.476562 58.183594 223.738281 57.824219 223.183594 C 57.414062 222.652344 56.59375 222.976562 56.40625 223.542969 L 55.890625 223.542969 L 55.890625 220.613281 Z M 58.523438 220.613281 Z M 58.523438 220.613281 "/>
<path style=" stroke:none;fill-rule:nonzero;fill:rgb(0%,0%,0%);fill-opacity:1;" d="M 80.679688 223.828125 L 80.679688 224.269531 L 78.601562 224.269531 L 78.601562 223.828125 Z M 80.679688 223.828125 Z M 80.679688 223.828125 "/>
<path style=" stroke:none;fill-rule:nonzero;fill:rgb(0%,0%,0%);fill-opacity:1;" d="M 83.515625 220.445312 L 83.515625 225.34375 L 83.523438 225.359375 L 84.5 225.359375 L 84.5 225.796875 L 81.917969 225.796875 L 81.917969 225.359375 L 82.894531 225.359375 L 82.910156 225.34375 L 82.910156 221.230469 C 82.578125 221.34375 82.230469 221.414062 81.878906 221.40625 L 81.878906 220.960938 C 82.402344 220.96875 82.976562 220.828125 83.371094 220.445312 Z M 83.515625 220.445312 Z M 83.515625 220.445312 "/>
<path style=" stroke:none;fill-rule:nonzero;fill:rgb(0%,0%,0%);fill-opacity:1;" d="M 86.546875 225.160156 L 86.546875 225.796875 L 85.902344 225.796875 L 85.902344 225.160156 Z M 86.546875 225.160156 Z M 86.546875 225.160156 "/>
<path style=" stroke:none;fill-rule:nonzero;fill:rgb(0%,0%,0%);fill-opacity:1;" d="M 89.4375 220.445312 C 90.191406 220.5 90.691406 221.191406 90.824219 221.890625 C 90.894531 222.207031 90.910156 222.507812 90.945312 222.828125 L 90.945312 223.636719 C 90.902344 224.460938 90.707031 225.550781 89.808594 225.882812 C 89.03125 226.191406 88.117188 225.707031 87.886719 224.914062 C 87.714844 224.492188 87.699219 224.066406 87.65625 223.636719 L 87.65625 222.828125 C 87.699219 222 87.871094 220.90625 88.761719 220.542969 L 88.800781 220.523438 L 88.832031 220.515625 L 88.871094 220.5 L 88.992188 220.46875 L 89.0625 220.453125 L 89.148438 220.453125 L 89.164062 220.445312 Z M 89.4375 220.445312 Z M 89.191406 220.929688 C 88.523438 221.007812 88.324219 221.8125 88.277344 222.351562 L 88.277344 222.566406 L 88.261719 222.582031 L 88.261719 223.683594 C 88.308594 224.253906 88.347656 224.992188 88.871094 225.375 C 89.355469 225.707031 90 225.335938 90.132812 224.820312 C 90.277344 224.4375 90.308594 224.066406 90.339844 223.683594 L 90.339844 222.582031 C 90.292969 222 90.214844 221.191406 89.546875 220.960938 L 89.492188 220.945312 L 89.476562 220.929688 L 89.402344 220.929688 L 89.386719 220.914062 L 89.207031 220.914062 Z M 89.191406 220.929688 Z M 89.191406 220.929688 "/>
<path style=" stroke:none;fill-rule:nonzero;fill:rgb(0%,0%,0%);fill-opacity:1;" d="M 112.765625 223.828125 L 112.765625 224.269531 L 110.6875 224.269531 L 110.6875 223.828125 Z M 112.765625 223.828125 Z M 112.765625 223.828125 "/>
<path style=" stroke:none;fill-rule:nonzero;fill:rgb(0%,0%,0%);fill-opacity:1;" d="M 115.355469 220.445312 C 116.109375 220.5 116.609375 221.191406 116.742188 221.890625 C 116.816406 222.207031 116.832031 222.507812 116.863281 222.828125 L 116.863281 223.636719 C 116.824219 224.460938 116.625 225.550781 115.726562 225.882812 C 114.949219 226.191406 114.039062 225.707031 113.808594 224.914062 C 113.632812 224.492188 113.617188 224.066406 113.578125 223.636719 L 113.578125 222.828125 C 113.617188 222 113.792969 220.90625 114.679688 220.542969 L 114.71875 220.523438 L 114.75 220.515625 L 114.792969 220.5 L 114.910156 220.46875 L 114.980469 220.453125 L 115.070312 220.453125 L 115.085938 220.445312 Z M 115.355469 220.445312 Z M 115.109375 220.929688 C 114.441406 221.007812 114.242188 221.8125 114.195312 222.351562 L 114.195312 222.566406 L 114.179688 222.582031 L 114.179688 223.683594 C 114.226562 224.253906 114.265625 224.992188 114.792969 225.375 C 115.277344 225.707031 115.917969 225.335938 116.054688 224.820312 C 116.195312 224.4375 116.226562 224.066406 116.257812 223.683594 L 116.257812 222.582031 C 116.210938 222 116.132812 221.191406 115.464844 220.960938 L 115.410156 220.945312 L 115.394531 220.929688 L 115.324219 220.929688 L 115.308594 220.914062 L 115.125 220.914062 Z M 115.109375 220.929688 Z M 115.109375 220.929688 "/>
<path style=" stroke:none;fill-rule:nonzero;fill:rgb(0%,0%,0%);fill-opacity:1;" d="M 118.632812 225.160156 L 118.632812 225.796875 L 117.988281 225.796875 L 117.988281 225.160156 Z M 118.632812 225.160156 Z M 118.632812 225.160156 "/>
<path style=" stroke:none;fill-rule:nonzero;fill:rgb(0%,0%,0%);fill-opacity:1;" d="M 122.695312 220.613281 L 122.695312 221.105469 L 120.632812 221.105469 L 120.617188 221.113281 L 120.617188 222.738281 C 120.808594 222.613281 121.078125 222.445312 121.332031 222.4375 C 122.226562 222.34375 122.917969 223.222656 122.957031 224.042969 C 123.085938 225.082031 122.109375 226.113281 121.0625 225.953125 C 120.539062 225.9375 120.03125 225.628906 119.726562 225.199219 C 119.816406 225.082031 119.886719 224.875 119.988281 224.804688 C 120.363281 225.535156 121.570312 225.828125 122.054688 225.058594 C 122.363281 224.476562 122.355469 223.738281 122 223.183594 C 121.585938 222.652344 120.769531 222.976562 120.578125 223.542969 L 120.0625 223.542969 L 120.0625 220.613281 Z M 122.695312 220.613281 Z M 122.695312 220.613281 "/>
<path style=" stroke:none;fill-rule:nonzero;fill:rgb(0%,0%,0%);fill-opacity:1;" d="M 146.121094 220.445312 C 146.875 220.5 147.375 221.191406 147.507812 221.890625 C 147.578125 222.207031 147.59375 222.507812 147.628906 222.828125 L 147.628906 223.636719 C 147.585938 224.460938 147.390625 225.550781 146.492188 225.882812 C 145.714844 226.191406 144.800781 225.707031 144.570312 224.914062 C 144.398438 224.492188 144.382812 224.066406 144.339844 223.636719 L 144.339844 222.828125 C 144.382812 222 144.554688 220.90625 145.445312 220.542969 L 145.484375 220.523438 L 145.515625 220.515625 L 145.554688 220.5 L 145.675781 220.46875 L 145.746094 220.453125 L 145.832031 220.453125 L 145.847656 220.445312 Z M 146.121094 220.445312 Z M 145.875 220.929688 C 145.207031 221.007812 145.007812 221.8125 144.960938 222.351562 L 144.960938 222.566406 L 144.945312 222.582031 L 144.945312 223.683594 C 144.992188 224.253906 145.03125 224.992188 145.554688 225.375 C 146.039062 225.707031 146.683594 225.335938 146.816406 224.820312 C 146.960938 224.4375 146.992188 224.066406 147.023438 223.683594 L 147.023438 222.582031 C 146.976562 222 146.898438 221.191406 146.230469 220.960938 L 146.175781 220.945312 L 146.160156 220.929688 L 146.085938 220.929688 L 146.070312 220.914062 L 145.890625 220.914062 Z M 145.875 220.929688 Z M 145.875 220.929688 "/>
<path style=" stroke:none;fill-rule:nonzero;fill:rgb(0%,0%,0%);fill-opacity:1;" d="M 149.398438 225.160156 L 149.398438 225.796875 L 148.753906 225.796875 L 148.753906 225.160156 Z M 149.398438 225.160156 Z M 149.398438 225.160156 "/>
<path style=" stroke:none;fill-rule:nonzero;fill:rgb(0%,0%,0%);fill-opacity:1;" d="M 152.285156 220.445312 C 153.039062 220.5 153.539062 221.191406 153.675781 221.890625 C 153.746094 222.207031 153.761719 222.507812 153.792969 222.828125 L 153.792969 223.636719 C 153.753906 224.460938 153.554688 225.550781 152.660156 225.882812 C 151.882812 226.191406 150.96875 225.707031 150.738281 224.914062 C 150.5625 224.492188 150.546875 224.066406 150.507812 223.636719 L 150.507812 222.828125 C 150.546875 222 150.722656 220.90625 151.613281 220.542969 L 151.652344 220.523438 L 151.683594 220.515625 L 151.722656 220.5 L 151.84375 220.46875 L 151.914062 220.453125 L 152 220.453125 L 152.015625 220.445312 Z M 152.285156 220.445312 Z M 152.039062 220.929688 C 151.375 221.007812 151.175781 221.8125 151.128906 222.351562 L 151.128906 222.566406 L 151.113281 222.582031 L 151.113281 223.683594 C 151.160156 224.253906 151.199219 224.992188 151.722656 225.375 C 152.207031 225.707031 152.851562 225.335938 152.984375 224.820312 C 153.128906 224.4375 153.160156 224.066406 153.191406 223.683594 L 153.191406 222.582031 C 153.144531 222 153.0625 221.191406 152.398438 220.960938 L 152.34375 220.945312 L 152.324219 220.929688 L 152.253906 220.929688 L 152.238281 220.914062 L 152.054688 220.914062 Z M 152.039062 220.929688 Z M 152.039062 220.929688 "/>
<path style=" stroke:none;fill-rule:nonzero;fill:rgb(0%,0%,0%);fill-opacity:1;" d="M 178.207031 220.445312 C 178.960938 220.5 179.460938 221.191406 179.59375 221.890625 C 179.664062 222.207031 179.683594 222.507812 179.714844 222.828125 L 179.714844 223.636719 C 179.675781 224.460938 179.476562 225.550781 178.578125 225.882812 C 177.800781 226.191406 176.886719 225.707031 176.65625 224.914062 C 176.484375 224.492188 176.46875 224.066406 176.425781 223.636719 L 176.425781 222.828125 C 176.46875 222 176.640625 220.90625 177.53125 220.542969 L 177.570312 220.523438 L 177.601562 220.515625 L 177.640625 220.5 L 177.761719 220.46875 L 177.832031 220.453125 L 177.917969 220.453125 L 177.9375 220.445312 Z M 178.207031 220.445312 Z M 177.960938 220.929688 C 177.292969 221.007812 177.09375 221.8125 177.046875 222.351562 L 177.046875 222.566406 L 177.03125 222.582031 L 177.03125 223.683594 C 177.078125 224.253906 177.117188 224.992188 177.640625 225.375 C 178.125 225.707031 178.769531 225.335938 178.902344 224.820312 C 179.046875 224.4375 179.078125 224.066406 179.109375 223.683594 L 179.109375 222.582031 C 179.0625 222 178.984375 221.191406 178.316406 220.960938 L 178.261719 220.945312 L 178.246094 220.929688 L 178.171875 220.929688 L 178.15625 220.914062 L 177.976562 220.914062 Z M 177.960938 220.929688 Z M 177.960938 220.929688 "/>
<path style=" stroke:none;fill-rule:nonzero;fill:rgb(0%,0%,0%);fill-opacity:1;" d="M 181.484375 225.160156 L 181.484375 225.796875 L 180.839844 225.796875 L 180.839844 225.160156 Z M 181.484375 225.160156 Z M 181.484375 225.160156 "/>
<path style=" stroke:none;fill-rule:nonzero;fill:rgb(0%,0%,0%);fill-opacity:1;" d="M 185.546875 220.613281 L 185.546875 221.105469 L 183.484375 221.105469 L 183.46875 221.113281 L 183.46875 222.738281 C 183.660156 222.613281 183.929688 222.445312 184.183594 222.4375 C 185.078125 222.34375 185.769531 223.222656 185.808594 224.042969 C 185.9375 225.082031 184.960938 226.113281 183.914062 225.953125 C 183.386719 225.9375 182.878906 225.628906 182.578125 225.199219 C 182.667969 225.082031 182.738281 224.875 182.839844 224.804688 C 183.214844 225.535156 184.421875 225.828125 184.90625 225.058594 C 185.214844 224.476562 185.207031 223.738281 184.847656 223.183594 C 184.4375 222.652344 183.617188 222.976562 183.429688 223.542969 L 182.914062 223.542969 L 182.914062 220.613281 Z M 185.546875 220.613281 Z M 185.546875 220.613281 "/>
<path style=" stroke:none;fill-rule:nonzero;fill:rgb(0%,0%,0%);fill-opacity:1;" d="M 210.539062 220.445312 L 210.539062 225.34375 L 210.546875 225.359375 L 211.523438 225.359375 L 211.523438 225.796875 L 208.941406 225.796875 L 208.941406 225.359375 L 209.917969 225.359375 L 209.933594 225.34375 L 209.933594 221.230469 C 209.601562 221.34375 209.25 221.414062 208.902344 221.40625 L 208.902344 220.960938 C 209.425781 220.96875 209.996094 220.828125 210.394531 220.445312 Z M 210.539062 220.445312 Z M 210.539062 220.445312 "/>
<path style=" stroke:none;fill-rule:nonzero;fill:rgb(0%,0%,0%);fill-opacity:1;" d="M 213.570312 225.160156 L 213.570312 225.796875 L 212.925781 225.796875 L 212.925781 225.160156 Z M 213.570312 225.160156 Z M 213.570312 225.160156 "/>
<path style=" stroke:none;fill-rule:nonzero;fill:rgb(0%,0%,0%);fill-opacity:1;" d="M 216.457031 220.445312 C 217.210938 220.5 217.710938 221.191406 217.847656 221.890625 C 217.917969 222.207031 217.933594 222.507812 217.964844 222.828125 L 217.964844 223.636719 C 217.925781 224.460938 217.730469 225.550781 216.832031 225.882812 C 216.054688 226.191406 215.140625 225.707031 214.910156 224.914062 C 214.738281 224.492188 214.71875 224.066406 214.679688 223.636719 L 214.679688 222.828125 C 214.71875 222 214.894531 220.90625 215.785156 220.542969 L 215.824219 220.523438 L 215.855469 220.515625 L 215.894531 220.5 L 216.015625 220.46875 L 216.085938 220.453125 L 216.171875 220.453125 L 216.1875 220.445312 Z M 216.457031 220.445312 Z M 216.210938 220.929688 C 215.546875 221.007812 215.347656 221.8125 215.300781 222.351562 L 215.300781 222.566406 L 215.285156 222.582031 L 215.285156 223.683594 C 215.332031 224.253906 215.371094 224.992188 215.894531 225.375 C 216.378906 225.707031 217.023438 225.335938 217.15625 224.820312 C 217.300781 224.4375 217.332031 224.066406 217.363281 223.683594 L 217.363281 222.582031 C 217.316406 222 217.238281 221.191406 216.570312 220.960938 L 216.515625 220.945312 L 216.5 220.929688 L 216.425781 220.929688 L 216.410156 220.914062 L 216.230469 220.914062 Z M 216.210938 220.929688 Z M 216.210938 220.929688 "/>
<path style=" stroke:none;fill-rule:nonzero;fill:rgb(0%,0%,0%);fill-opacity:1;" d="M 242.625 220.445312 L 242.625 225.34375 L 242.632812 225.359375 L 243.609375 225.359375 L 243.609375 225.796875 L 241.027344 225.796875 L 241.027344 225.359375 L 242.003906 225.359375 L 242.019531 225.34375 L 242.019531 221.230469 C 241.6875 221.34375 241.339844 221.414062 240.988281 221.40625 L 240.988281 220.960938 C 241.511719 220.96875 242.085938 220.828125 242.480469 220.445312 Z M 242.625 220.445312 Z M 242.625 220.445312 "/>
<path style=" stroke:none;fill-rule:nonzero;fill:rgb(0%,0%,0%);fill-opacity:1;" d="M 245.65625 225.160156 L 245.65625 225.796875 L 245.011719 225.796875 L 245.011719 225.160156 Z M 245.65625 225.160156 Z M 245.65625 225.160156 "/>
<path style=" stroke:none;fill-rule:nonzero;fill:rgb(0%,0%,0%);fill-opacity:1;" d="M 249.71875 220.613281 L 249.71875 221.105469 L 247.65625 221.105469 L 247.640625 221.113281 L 247.640625 222.738281 C 247.832031 222.613281 248.101562 222.445312 248.355469 222.4375 C 249.25 222.34375 249.941406 223.222656 249.980469 224.042969 C 250.109375 225.082031 249.132812 226.113281 248.085938 225.953125 C 247.5625 225.9375 247.050781 225.628906 246.75 225.199219 C 246.839844 225.082031 246.910156 224.875 247.011719 224.804688 C 247.386719 225.535156 248.59375 225.828125 249.078125 225.058594 C 249.386719 224.476562 249.378906 223.738281 249.019531 223.183594 C 248.609375 222.652344 247.789062 222.976562 247.601562 223.542969 L 247.085938 223.542969 L 247.085938 220.613281 Z M 249.71875 220.613281 Z M 249.71875 220.613281 "/>
<path style=" stroke:none;fill-rule:nonzero;fill:rgb(0%,0%,0%);fill-opacity:1;" d="M 274.375 220.445312 C 275.296875 220.46875 276.027344 221.414062 275.882812 222.304688 C 275.789062 223.191406 274.957031 223.699219 274.359375 224.253906 L 274.105469 224.515625 L 274.074219 224.535156 L 273.757812 224.84375 L 273.734375 224.859375 L 273.417969 225.175781 L 273.382812 225.191406 L 273.3125 225.261719 L 273.328125 225.273438 L 275.902344 225.273438 L 275.902344 225.796875 L 272.757812 225.796875 L 272.757812 225.320312 L 274.035156 224.042969 C 274.648438 223.507812 275.359375 222.820312 275.25 221.945312 C 275.1875 221.4375 274.757812 220.96875 274.234375 220.929688 C 273.703125 220.851562 273.234375 221.269531 273.113281 221.777344 L 273.097656 221.804688 L 273.082031 221.859375 L 273.058594 221.945312 L 273.011719 222.121094 L 273.003906 222.160156 C 272.890625 222.023438 272.773438 221.882812 272.6875 221.730469 C 272.84375 221.082031 273.367188 220.46875 274.058594 220.445312 Z M 274.375 220.445312 Z M 274.375 220.445312 "/>
<path style=" stroke:none;fill-rule:nonzero;fill:rgb(0%,0%,0%);fill-opacity:1;" d="M 277.742188 225.160156 L 277.742188 225.796875 L 277.097656 225.796875 L 277.097656 225.160156 Z M 277.742188 225.160156 Z M 277.742188 225.160156 "/>
<path style=" stroke:none;fill-rule:nonzero;fill:rgb(0%,0%,0%);fill-opacity:1;" d="M 280.632812 220.445312 C 281.386719 220.5 281.886719 221.191406 282.019531 221.890625 C 282.089844 222.207031 282.105469 222.507812 282.140625 222.828125 L 282.140625 223.636719 C 282.097656 224.460938 281.902344 225.550781 281.003906 225.882812 C 280.226562 226.191406 279.3125 225.707031 279.082031 224.914062 C 278.910156 224.492188 278.894531 224.066406 278.851562 223.636719 L 278.851562 222.828125 C 278.894531 222 279.066406 220.90625 279.957031 220.542969 L 279.996094 220.523438 L 280.027344 220.515625 L 280.066406 220.5 L 280.1875 220.46875 L 280.257812 220.453125 L 280.34375 220.453125 L 280.359375 220.445312 Z M 280.632812 220.445312 Z M 280.386719 220.929688 C 279.71875 221.007812 279.519531 221.8125 279.472656 222.351562 L 279.472656 222.566406 L 279.457031 222.582031 L 279.457031 223.683594 C 279.503906 224.253906 279.542969 224.992188 280.066406 225.375 C 280.550781 225.707031 281.195312 225.335938 281.328125 224.820312 C 281.472656 224.4375 281.503906 224.066406 281.535156 223.683594 L 281.535156 222.582031 C 281.488281 222 281.410156 221.191406 280.742188 220.960938 L 280.6875 220.945312 L 280.671875 220.929688 L 280.597656 220.929688 L 280.582031 220.914062 L 280.402344 220.914062 Z M 280.386719 220.929688 Z M 280.386719 220.929688 "/>
<path style="fill:none;stroke-width:0.02;stroke-linecap:butt;stroke-linejoin:miter;stroke:rgb(0%,0%,0%);stroke-opacity:1;stroke-miterlimit:10;" d="M 1.827692 7.838356 L 1.827692 7.73335 " transform="matrix(28.346457,0,0,-28.346457,1,227.771654)"/>
<path style="fill:none;stroke-width:0.02;stroke-linecap:butt;stroke-linejoin:miter;stroke:rgb(0%,0%,0%);stroke-opacity:1;stroke-miterlimit:10;" d="M 2.959613 7.838356 L 2.959613 7.73335 " transform="matrix(28.346457,0,0,-28.346457,1,227.771654)"/>
<path style="fill:none;stroke-width:0.02;stroke-linecap:butt;stroke-linejoin:miter;stroke:rgb(0%,0%,0%);stroke-opacity:1;stroke-miterlimit:10;" d="M 4.091533 7.838356 L 4.091533 7.73335 " transform="matrix(28.346457,0,0,-28.346457,1,227.771654)"/>
<path style="fill:none;stroke-width:0.02;stroke-linecap:butt;stroke-linejoin:miter;stroke:rgb(0%,0%,0%);stroke-opacity:1;stroke-miterlimit:10;" d="M 5.223454 7.838356 L 5.223454 7.73335 " transform="matrix(28.346457,0,0,-28.346457,1,227.771654)"/>
<path style="fill:none;stroke-width:0.02;stroke-linecap:butt;stroke-linejoin:miter;stroke:rgb(0%,0%,0%);stroke-opacity:1;stroke-miterlimit:10;" d="M 6.355374 7.838356 L 6.355374 7.73335 " transform="matrix(28.346457,0,0,-28.346457,1,227.771654)"/>
<path style="fill:none;stroke-width:0.02;stroke-linecap:butt;stroke-linejoin:miter;stroke:rgb(0%,0%,0%);stroke-opacity:1;stroke-miterlimit:10;" d="M 7.487433 7.838356 L 7.487433 7.73335 " transform="matrix(28.346457,0,0,-28.346457,1,227.771654)"/>
<path style="fill:none;stroke-width:0.02;stroke-linecap:butt;stroke-linejoin:miter;stroke:rgb(0%,0%,0%);stroke-opacity:1;stroke-miterlimit:10;" d="M 8.619353 7.838356 L 8.619353 7.73335 " transform="matrix(28.346457,0,0,-28.346457,1,227.771654)"/>
<path style="fill:none;stroke-width:0.02;stroke-linecap:round;stroke-linejoin:miter;stroke:rgb(0%,0%,0%);stroke-opacity:1;stroke-miterlimit:10;" d="M 0.695771 7.838356 L 9.751274 7.838356 " transform="matrix(28.346457,0,0,-28.346457,1,227.771654)"/>
<path style="fill:none;stroke-width:0.02;stroke-linecap:butt;stroke-linejoin:miter;stroke:rgb(79.215686%,38.431373%,29.411765%);stroke-opacity:1;stroke-miterlimit:10;" d="M 0.695771 7.576115 L 1.172435 4.645717 L 1.648961 2.921654 L 2.125624 3.618114 L 2.60215 5.265559 L 3.078813 6.685903 L 3.555339 7.513553 L 4.032002 7.820028 L 4.508665 7.789298 L 4.985191 7.581765 L 5.461854 7.303264 L 5.93838 7.014014 L 6.415043 6.744056 L 6.891569 6.505931 L 7.368232 6.302257 L 7.844758 6.131518 L 8.321421 5.990131 L 8.798085 5.873963 L 9.27461 5.779016 L 9.751274 5.70157 " transform="matrix(28.346457,0,0,-28.346457,1,227.771654)"/>
<path style="fill:none;stroke-width:0.02;stroke-linecap:butt;stroke-linejoin:miter;stroke:rgb(96.862745%,85.882353%,65.490196%);stroke-opacity:1;stroke-miterlimit:10;" d="M 0.695771 5.10612 L 0.727604 4.874058 L 0.759299 4.648887 L 0.791132 4.430054 L 0.822827 4.217285 L 0.854659 4.010304 L 0.886492 3.808697 L 0.918187 3.612051 L 0.95002 3.419952 L 0.981714 3.232263 L 1.013547 3.048433 L 1.045242 2.868186 L 1.077075 2.691246 L 1.108907 2.517062 L 1.140602 2.345358 L 1.172435 2.175859 L 1.20413 2.008428 L 1.235962 1.844441 L 1.267657 1.684589 L 1.29949 1.529973 L 1.331323 1.381558 L 1.363018 1.240309 L 1.39485 1.107191 L 1.426545 0.983167 L 1.458378 0.869204 L 1.490073 0.766264 L 1.521905 0.675451 L 1.553738 0.597592 L 1.585433 0.533651 L 1.617266 0.484731 L 1.648961 0.451658 L 1.680793 0.432503 L 1.696778 0.428369 " transform="matrix(28.346457,0,0,-28.346457,1,227.771654)"/>
<path style="fill:none;stroke-width:0.02;stroke-linecap:butt;stroke-linejoin:miter;stroke:rgb(96.862745%,85.882353%,65.490196%);stroke-opacity:1;stroke-miterlimit:10;" d="M 1.749006 0.428369 L 1.776153 0.43898 L 1.807848 0.461304 L 1.839681 0.493137 L 1.871376 0.534065 L 1.903209 0.583674 L 1.934903 0.641827 L 1.966736 0.708111 L 1.998569 0.781974 L 2.030264 0.863416 L 2.062096 0.951748 L 2.093791 1.046695 L 2.125624 1.148118 L 2.157319 1.253814 L 2.189151 1.361714 L 2.220984 1.471682 L 2.252679 1.583027 L 2.284512 1.695475 L 2.316207 1.80875 L 2.348039 1.9223 L 2.379734 2.035851 L 2.411567 2.14885 L 2.4434 2.261022 L 2.475094 2.372092 L 2.506927 2.48137 L 2.538622 2.58872 L 2.570455 2.693588 L 2.60215 2.795563 L 2.665815 2.996481 L 2.69751 3.096527 L 2.729342 3.196159 L 2.761037 3.29524 L 2.79287 3.393494 L 2.824565 3.490921 L 2.856398 3.587108 L 2.88823 3.682055 L 2.919925 3.775624 L 2.951758 3.867539 L 2.983453 3.957663 L 3.015285 4.045995 L 3.04698 4.132122 L 3.078813 4.216045 L 3.110646 4.296522 L 3.14234 4.372866 L 3.174173 4.444937 L 3.205868 4.513288 L 3.237701 4.577642 L 3.269396 4.638414 L 3.301228 4.695602 L 3.333061 4.749484 L 3.364756 4.800058 L 3.396589 4.8476 L 3.428283 4.89211 L 3.460116 4.933865 L 3.491811 4.973001 L 3.523644 5.009519 L 3.555339 5.043695 L 3.587171 5.076079 L 3.619004 5.10736 L 3.650699 5.137126 L 3.682531 5.165513 L 3.714226 5.192385 L 3.746059 5.217603 L 3.777754 5.240892 L 3.809587 5.262389 L 3.841419 5.28182 L 3.873114 5.299183 L 3.904947 5.314204 L 3.936642 5.327019 L 3.968474 5.337217 L 4.000169 5.344934 L 4.032002 5.350033 L 4.063835 5.353478 L 4.09553 5.356785 L 4.127362 5.359541 L 4.159057 5.361746 L 4.19089 5.363262 L 4.222585 5.364089 L 4.254417 5.363951 L 4.28625 5.362986 L 4.317945 5.360919 L 4.349778 5.357612 L 4.381472 5.352926 L 4.413305 5.346863 L 4.445 5.339422 L 4.476833 5.330189 L 4.508665 5.319302 L 4.54036 5.307589 L 4.572193 5.295738 L 4.603888 5.283887 L 4.63572 5.271898 L 4.667415 5.259633 L 4.699248 5.247231 L 4.731081 5.234415 L 4.762776 5.221186 L 4.794608 5.207406 L 4.826303 5.193212 L 4.858136 5.178329 L 4.889831 5.162895 L 4.921663 5.146634 L 4.953496 5.129684 L 4.985191 5.11177 L 5.017024 5.09358 L 5.048719 5.075252 L 5.080551 5.056924 L 5.112246 5.038596 L 5.144079 5.02013 L 5.175911 5.001802 L 5.207606 4.983337 L 5.239439 4.964871 L 5.271134 4.946267 L 5.302967 4.927664 L 5.334661 4.908923 L 5.366494 4.890181 L 5.398327 4.871302 L 5.430022 4.852423 L 5.461854 4.833268 L 5.493549 4.814113 L 5.525382 4.794821 L 5.557077 4.775528 L 5.58891 4.756236 L 5.620742 4.736806 L 5.652437 4.717513 L 5.68427 4.698083 L 5.715965 4.678652 L 5.747797 4.659222 L 5.779492 4.639929 L 5.843158 4.601344 L 5.874852 4.58219 L 5.906685 4.563035 L 5.93838 4.544018 L 5.970213 4.525139 L 6.001908 4.506398 L 6.065573 4.469466 L 6.097268 4.451138 L 6.1291 4.432948 L 6.160795 4.414896 L 6.192628 4.396981 L 6.224323 4.379067 L 6.256156 4.361428 L 6.28785 4.343789 L 6.351516 4.308787 L 6.383211 4.291424 L 6.415043 4.274198 L 6.446738 4.256973 L 6.478571 4.240161 L 6.510266 4.223349 L 6.542099 4.206812 L 6.573931 4.190413 L 6.605626 4.17429 L 6.637459 4.158305 L 6.669154 4.142458 L 6.700986 4.126886 L 6.732681 4.111314 L 6.796347 4.080722 L 6.828041 4.065701 L 6.859874 4.05068 L 6.891569 4.035935 L 6.923402 4.02119 L 6.955097 4.006721 L 6.986929 3.992389 L 7.018762 3.978196 L 7.050457 3.96414 L 7.082289 3.950221 L 7.113984 3.936441 L 7.145817 3.922936 L 7.177512 3.909431 L 7.209345 3.896202 L 7.241177 3.883111 L 7.272872 3.870157 L 7.304705 3.857342 L 7.3364 3.844801 L 7.368232 3.832261 L 7.399927 3.819997 L 7.43176 3.807732 L 7.463593 3.795743 L 7.495288 3.783754 L 7.52712 3.771903 L 7.558815 3.76019 L 7.590648 3.748752 L 7.622343 3.737314 L 7.654175 3.726015 L 7.686008 3.714852 L 7.717703 3.703966 L 7.749536 3.693079 L 7.78123 3.682469 L 7.813063 3.671995 L 7.844758 3.66166 L 7.876591 3.651325 L 7.908423 3.641265 L 7.940118 3.631206 L 7.971951 3.621284 L 8.003646 3.6115 L 8.035479 3.601853 L 8.067173 3.592207 L 8.130839 3.573466 L 8.162534 3.564233 L 8.194366 3.555138 L 8.226061 3.546181 L 8.257894 3.537361 L 8.289589 3.528817 L 8.321421 3.520273 L 8.353254 3.511867 L 8.384949 3.503461 L 8.416782 3.495193 L 8.448477 3.487063 L 8.480309 3.47907 L 8.512004 3.471077 L 8.575669 3.455368 L 8.607364 3.447651 L 8.639197 3.440209 L 8.670892 3.43263 L 8.702725 3.425327 L 8.734419 3.418161 L 8.766252 3.410995 L 8.798085 3.404105 L 8.82978 3.397215 L 8.861612 3.390324 L 8.893307 3.383572 L 8.92514 3.376957 L 8.956835 3.370343 L 9.0205 3.357389 L 9.052195 3.35105 L 9.084028 3.344849 L 9.115723 3.338648 L 9.147555 3.332585 L 9.17925 3.326521 L 9.211083 3.320596 L 9.242778 3.314808 L 9.27461 3.30902 L 9.306443 3.30337 L 9.338138 3.297858 L 9.369971 3.292208 L 9.401666 3.286834 L 9.433498 3.281459 L 9.465193 3.276085 L 9.528859 3.265612 L 9.560553 3.260513 L 9.592386 3.255552 L 9.624081 3.250591 L 9.655914 3.245768 L 9.687609 3.240945 L 9.751274 3.231574 " transform="matrix(28.346457,0,0,-28.346457,1,227.771654)"/>
<path style=" stroke:none;fill-rule:nonzero;fill:rgb(100%,100%,100%);fill-opacity:1;" d="M 193.953125 35.089844 L 277.414062 35.089844 L 277.414062 5.582031 L 193.953125 5.582031 Z M 193.953125 35.089844 "/>
<path style="fill:none;stroke-width:0.02;stroke-linecap:butt;stroke-linejoin:miter;stroke:rgb(79.215686%,38.431373%,29.411765%);stroke-opacity:1;stroke-miterlimit:10;" d="M 6.996024 7.527884 L 7.626063 7.527884 " transform="matrix(28.346457,0,0,-28.346457,1,227.771654)"/>
<path style=" stroke:none;fill-rule:nonzero;fill:rgb(0%,0%,0%);fill-opacity:1;" d="M 223.28125 13.460938 L 223.28125 16.933594 C 223.292969 17.230469 223.589844 17.398438 223.859375 17.417969 C 224.460938 17.507812 225.175781 17.179688 225.285156 16.527344 L 225.285156 13.460938 L 226.039062 13.460938 L 226.039062 17.835938 L 225.324219 17.835938 L 225.324219 17.378906 C 224.730469 17.828125 223.878906 18.066406 223.113281 17.894531 C 222.738281 17.785156 222.546875 17.371094 222.527344 17.003906 L 222.527344 13.460938 Z M 223.28125 13.460938 Z M 223.28125 13.460938 "/>
<path style=" stroke:none;fill-rule:nonzero;fill:rgb(0%,0%,0%);fill-opacity:1;" d="M 229.980469 13.351562 C 230.644531 13.34375 231.1875 13.988281 231.140625 14.640625 L 231.160156 14.660156 L 231.160156 17.835938 L 230.40625 17.835938 L 230.40625 14.75 C 230.367188 14.394531 230.128906 14.007812 229.722656 13.976562 C 229.246094 13.816406 228.679688 14.125 228.539062 14.621094 L 228.492188 14.78125 L 228.449219 14.929688 L 228.429688 14.949219 L 228.429688 15.039062 L 228.410156 15.046875 L 228.410156 15.175781 L 228.402344 15.199219 L 228.402344 17.835938 L 227.648438 17.835938 L 227.648438 13.402344 L 228.34375 13.402344 L 228.34375 14.085938 C 228.640625 13.769531 229.085938 13.363281 229.601562 13.371094 L 229.621094 13.351562 Z M 229.980469 13.351562 Z M 229.980469 13.351562 "/>
<path style=" stroke:none;fill-rule:nonzero;fill:rgb(0%,0%,0%);fill-opacity:1;" d="M 234.195312 13.292969 C 234.5625 13.351562 235.046875 13.390625 235.347656 13.640625 C 235.296875 13.816406 235.296875 14.054688 235.21875 14.226562 C 234.613281 13.898438 233.867188 13.710938 233.214844 14.015625 C 232.785156 14.324219 233.003906 14.988281 233.5 15.066406 C 234.1875 15.207031 234.988281 15.296875 235.367188 15.972656 C 235.804688 16.707031 235.347656 17.765625 234.484375 17.894531 C 233.730469 18.035156 232.925781 17.90625 232.242188 17.507812 C 232.289062 17.300781 232.308594 17.050781 232.371094 16.863281 C 233.035156 17.28125 233.9375 17.578125 234.652344 17.132812 C 235.019531 16.785156 234.8125 16.148438 234.324219 16.039062 C 233.660156 15.882812 232.855469 15.824219 232.460938 15.175781 C 231.972656 14.414062 232.597656 13.320312 233.5 13.332031 L 233.519531 13.3125 L 233.660156 13.3125 L 233.679688 13.292969 Z M 234.195312 13.292969 Z M 234.195312 13.292969 "/>
<path style=" stroke:none;fill-rule:nonzero;fill:rgb(0%,0%,0%);fill-opacity:1;" d="M 238.898438 13.351562 C 239.375 13.371094 239.859375 13.679688 239.988281 14.175781 C 240.496094 13.320312 241.84375 13.003906 242.550781 13.777344 C 242.746094 14.027344 242.808594 14.375 242.835938 14.660156 L 242.835938 17.835938 L 242.082031 17.835938 L 242.082031 14.75 C 242.042969 14.394531 241.804688 14.007812 241.410156 13.976562 C 240.933594 13.816406 240.367188 14.125 240.21875 14.621094 L 240.167969 14.78125 L 240.128906 14.929688 L 240.117188 14.949219 L 240.117188 15.039062 L 240.097656 15.046875 L 240.097656 15.175781 L 240.078125 15.199219 L 240.078125 17.835938 L 239.324219 17.835938 L 239.324219 14.75 C 239.285156 14.394531 239.046875 14.007812 238.640625 13.976562 C 238.164062 13.816406 237.597656 14.125 237.460938 14.621094 L 237.410156 14.78125 L 237.371094 14.929688 L 237.351562 14.949219 L 237.351562 15.039062 L 237.332031 15.046875 L 237.332031 15.175781 L 237.320312 15.199219 L 237.320312 17.835938 L 236.566406 17.835938 L 236.566406 13.402344 L 237.261719 13.402344 L 237.261719 14.085938 C 237.558594 13.769531 238.003906 13.363281 238.519531 13.371094 L 238.542969 13.351562 Z M 238.898438 13.351562 Z M 238.898438 13.351562 "/>
<path style=" stroke:none;fill-rule:nonzero;fill:rgb(0%,0%,0%);fill-opacity:1;" d="M 246.289062 13.292969 C 247.71875 13.410156 248.601562 15.058594 248.183594 16.359375 C 247.855469 17.667969 246.21875 18.402344 245.070312 17.667969 C 243.5625 16.84375 243.628906 14.375 245.117188 13.558594 L 245.140625 13.550781 L 245.316406 13.460938 L 245.375 13.441406 L 245.40625 13.421875 L 245.574219 13.371094 L 245.714844 13.332031 L 245.804688 13.3125 L 245.933594 13.3125 L 245.953125 13.292969 Z M 246.289062 13.292969 Z M 245.953125 13.90625 C 245.050781 13.988281 244.59375 15.019531 244.730469 15.800781 C 244.722656 16.605469 245.445312 17.46875 246.289062 17.3125 C 247.3125 17.191406 247.6875 15.941406 247.46875 15.089844 C 247.371094 14.375 246.65625 13.777344 245.953125 13.90625 Z M 245.953125 13.90625 Z M 245.953125 13.90625 "/>
<path style=" stroke:none;fill-rule:nonzero;fill:rgb(0%,0%,0%);fill-opacity:1;" d="M 251.519531 13.292969 C 252.945312 13.410156 253.828125 15.058594 253.414062 16.359375 C 253.085938 17.667969 251.449219 18.402344 250.296875 17.667969 C 248.789062 16.84375 248.859375 14.375 250.347656 13.558594 L 250.367188 13.550781 L 250.546875 13.460938 L 250.605469 13.441406 L 250.636719 13.421875 L 250.804688 13.371094 L 250.941406 13.332031 L 251.03125 13.3125 L 251.160156 13.3125 L 251.179688 13.292969 Z M 251.519531 13.292969 Z M 251.179688 13.90625 C 250.277344 13.988281 249.820312 15.019531 249.960938 15.800781 C 249.949219 16.605469 250.675781 17.46875 251.519531 17.3125 C 252.539062 17.191406 252.917969 15.941406 252.699219 15.089844 C 252.597656 14.375 251.886719 13.777344 251.179688 13.90625 Z M 251.179688 13.90625 Z M 251.179688 13.90625 "/>
<path style=" stroke:none;fill-rule:nonzero;fill:rgb(0%,0%,0%);fill-opacity:1;" d="M 255.566406 12.199219 L 255.566406 13.441406 L 255.585938 13.460938 L 256.945312 13.460938 L 256.945312 14.015625 L 255.585938 14.015625 L 255.566406 14.027344 L 255.566406 16.714844 C 255.605469 16.953125 255.683594 17.261719 255.960938 17.332031 C 256.308594 17.351562 256.667969 17.222656 256.945312 17.003906 L 256.964844 17.042969 L 256.976562 17.113281 L 256.996094 17.171875 L 257.015625 17.242188 L 257.035156 17.289062 L 257.074219 17.441406 C 257.191406 17.667969 256.835938 17.6875 256.695312 17.777344 C 256.242188 17.894531 255.753906 18.054688 255.296875 17.855469 C 254.96875 17.65625 254.902344 17.242188 254.863281 16.902344 L 254.863281 14.027344 L 254.839844 14.015625 L 254.019531 14.015625 L 254.019531 13.460938 L 254.882812 13.460938 L 254.902344 13.441406 L 254.902344 12.199219 Z M 255.566406 12.199219 Z M 255.566406 12.199219 "/>
<path style=" stroke:none;fill-rule:nonzero;fill:rgb(0%,0%,0%);fill-opacity:1;" d="M 258.929688 10.980469 L 258.929688 14.066406 C 259.21875 13.738281 259.691406 13.371094 260.1875 13.351562 C 260.792969 13.273438 261.519531 13.558594 261.65625 14.226562 L 261.6875 14.375 L 261.6875 14.484375 L 261.707031 14.492188 L 261.707031 14.640625 L 261.726562 14.660156 L 261.726562 17.835938 L 260.972656 17.835938 L 260.972656 14.75 C 260.933594 14.394531 260.695312 14.007812 260.289062 13.976562 C 259.8125 13.816406 259.246094 14.125 259.109375 14.621094 L 259.058594 14.78125 L 259.019531 14.929688 L 259 14.949219 L 259 15.039062 L 258.980469 15.046875 L 258.980469 15.175781 L 258.96875 15.199219 L 258.96875 17.835938 L 258.214844 17.835938 L 258.214844 10.980469 Z M 258.929688 10.980469 Z M 258.929688 10.980469 "/>
<path style=" stroke:none;fill-rule:nonzero;fill:rgb(0%,0%,0%);fill-opacity:1;" d="M 265.03125 13.292969 C 265.964844 13.34375 266.578125 14.273438 266.597656 15.136719 L 266.609375 15.15625 L 266.609375 15.355469 L 266.628906 15.375 L 266.628906 15.683594 L 263.5625 15.683594 C 263.523438 16.535156 264.296875 17.519531 265.21875 17.351562 C 265.6875 17.320312 266.171875 17.101562 266.539062 16.816406 L 266.539062 16.902344 L 266.558594 16.914062 L 266.558594 17.113281 L 266.578125 17.132812 L 266.578125 17.332031 L 266.597656 17.351562 L 266.597656 17.441406 C 265.65625 18.164062 264.109375 18.152344 263.382812 17.132812 C 262.390625 15.910156 262.917969 13.660156 264.566406 13.3125 L 264.695312 13.3125 L 264.714844 13.292969 Z M 265.03125 13.292969 Z M 264.734375 13.90625 C 264.128906 13.976562 263.710938 14.601562 263.621094 15.136719 L 266.074219 15.136719 C 266.050781 14.582031 265.605469 13.945312 265 13.886719 L 264.753906 13.886719 Z M 264.734375 13.90625 Z M 264.734375 13.90625 "/>
<path style=" stroke:none;fill-rule:nonzero;fill:rgb(0%,0%,0%);fill-opacity:1;" d="M 271.230469 10.980469 L 271.230469 17.835938 L 270.476562 17.835938 L 270.476562 17.351562 C 269.921875 17.855469 268.898438 18.234375 268.207031 17.6875 C 267.035156 16.753906 267.003906 14.78125 268.058594 13.75 C 268.75 13.105469 269.851562 13.300781 270.496094 13.90625 L 270.515625 13.886719 L 270.515625 10.980469 Z M 271.230469 10.980469 Z M 269.347656 13.957031 C 268.59375 14.007812 268.097656 14.761719 268.058594 15.445312 C 267.996094 16.199219 268.304688 17.171875 269.15625 17.332031 C 269.675781 17.488281 270.25 17.132812 270.476562 16.644531 L 270.476562 14.492188 C 270.25 14.125 269.78125 13.867188 269.347656 13.957031 Z M 269.347656 13.957031 Z M 269.347656 13.957031 "/>
<path style="fill:none;stroke-width:0.02;stroke-linecap:butt;stroke-linejoin:miter;stroke:rgb(96.862745%,85.882353%,65.490196%);stroke-opacity:1;stroke-miterlimit:10;" d="M 6.996024 7.107858 L 7.626063 7.107858 " transform="matrix(28.346457,0,0,-28.346457,1,227.771654)"/>
<path style=" stroke:none;fill-rule:nonzero;fill:rgb(0%,0%,0%);fill-opacity:1;" d="M 223.957031 25.199219 C 224.324219 25.257812 224.808594 25.296875 225.109375 25.546875 C 225.058594 25.722656 225.058594 25.960938 224.980469 26.128906 C 224.375 25.804688 223.628906 25.613281 222.972656 25.921875 C 222.546875 26.230469 222.765625 26.894531 223.261719 26.972656 C 223.945312 27.113281 224.75 27.203125 225.128906 27.875 C 225.5625 28.609375 225.109375 29.671875 224.246094 29.800781 C 223.492188 29.941406 222.6875 29.8125 222.003906 29.414062 C 222.050781 29.207031 222.070312 28.957031 222.132812 28.769531 C 222.796875 29.1875 223.699219 29.484375 224.414062 29.039062 C 224.78125 28.691406 224.570312 28.054688 224.085938 27.945312 C 223.421875 27.789062 222.617188 27.726562 222.21875 27.082031 C 221.734375 26.320312 222.359375 25.226562 223.261719 25.238281 L 223.28125 25.21875 L 223.421875 25.21875 L 223.441406 25.199219 Z M 223.957031 25.199219 Z M 223.957031 25.199219 "/>
<path style=" stroke:none;fill-rule:nonzero;fill:rgb(0%,0%,0%);fill-opacity:1;" d="M 228.660156 25.257812 C 229.136719 25.277344 229.621094 25.585938 229.75 26.082031 C 230.257812 25.226562 231.605469 24.910156 232.308594 25.683594 C 232.507812 25.933594 232.570312 26.28125 232.597656 26.566406 L 232.597656 29.742188 L 231.84375 29.742188 L 231.84375 26.65625 C 231.804688 26.300781 231.566406 25.914062 231.167969 25.882812 C 230.691406 25.722656 230.128906 26.03125 229.980469 26.527344 L 229.929688 26.6875 L 229.890625 26.835938 L 229.878906 26.855469 L 229.878906 26.945312 L 229.859375 26.953125 L 229.859375 27.082031 L 229.839844 27.101562 L 229.839844 29.742188 L 229.085938 29.742188 L 229.085938 26.65625 C 229.046875 26.300781 228.808594 25.914062 228.402344 25.882812 C 227.925781 25.722656 227.359375 26.03125 227.222656 26.527344 L 227.171875 26.6875 L 227.132812 26.835938 L 227.113281 26.855469 L 227.113281 26.945312 L 227.09375 26.953125 L 227.09375 27.082031 L 227.082031 27.101562 L 227.082031 29.742188 L 226.328125 29.742188 L 226.328125 25.308594 L 227.023438 25.308594 L 227.023438 25.992188 C 227.320312 25.675781 227.765625 25.265625 228.28125 25.277344 L 228.300781 25.257812 Z M 228.660156 25.257812 Z M 228.660156 25.257812 "/>
<path style=" stroke:none;fill-rule:nonzero;fill:rgb(0%,0%,0%);fill-opacity:1;" d="M 236.050781 25.199219 C 237.480469 25.316406 238.363281 26.964844 237.945312 28.261719 C 237.617188 29.574219 235.980469 30.308594 234.832031 29.574219 C 233.324219 28.75 233.390625 26.28125 234.878906 25.464844 L 234.898438 25.457031 L 235.078125 25.367188 L 235.136719 25.347656 L 235.167969 25.328125 L 235.335938 25.277344 L 235.476562 25.238281 L 235.566406 25.21875 L 235.695312 25.21875 L 235.714844 25.199219 Z M 236.050781 25.199219 Z M 235.714844 25.8125 C 234.8125 25.890625 234.355469 26.925781 234.492188 27.707031 C 234.484375 28.511719 235.207031 29.375 236.050781 29.214844 C 237.074219 29.097656 237.449219 27.847656 237.230469 26.992188 C 237.132812 26.28125 236.417969 25.683594 235.714844 25.8125 Z M 235.714844 25.8125 Z M 235.714844 25.8125 "/>
<path style=" stroke:none;fill-rule:nonzero;fill:rgb(0%,0%,0%);fill-opacity:1;" d="M 241.28125 25.199219 C 242.707031 25.316406 243.589844 26.964844 243.175781 28.261719 C 242.847656 29.574219 241.210938 30.308594 240.058594 29.574219 C 238.550781 28.75 238.621094 26.28125 240.109375 25.464844 L 240.128906 25.457031 L 240.308594 25.367188 L 240.367188 25.347656 L 240.394531 25.328125 L 240.566406 25.277344 L 240.703125 25.238281 L 240.792969 25.21875 L 240.921875 25.21875 L 240.941406 25.199219 Z M 241.28125 25.199219 Z M 240.941406 25.8125 C 240.039062 25.890625 239.582031 26.925781 239.722656 27.707031 C 239.710938 28.511719 240.4375 29.375 241.28125 29.214844 C 242.300781 29.097656 242.679688 27.847656 242.460938 26.992188 C 242.359375 26.28125 241.644531 25.683594 240.941406 25.8125 Z M 240.941406 25.8125 Z M 240.941406 25.8125 "/>
<path style=" stroke:none;fill-rule:nonzero;fill:rgb(0%,0%,0%);fill-opacity:1;" d="M 245.328125 24.105469 L 245.328125 25.347656 L 245.347656 25.367188 L 246.707031 25.367188 L 246.707031 25.921875 L 245.347656 25.921875 L 245.328125 25.933594 L 245.328125 28.621094 C 245.367188 28.859375 245.445312 29.167969 245.722656 29.234375 C 246.070312 29.253906 246.429688 29.125 246.707031 28.910156 L 246.726562 28.949219 L 246.734375 29.019531 L 246.777344 29.148438 L 246.796875 29.195312 L 246.835938 29.34375 C 246.953125 29.574219 246.597656 29.59375 246.457031 29.683594 C 246 29.800781 245.515625 29.960938 245.058594 29.761719 C 244.730469 29.5625 244.664062 29.148438 244.621094 28.808594 L 244.621094 25.933594 L 244.601562 25.921875 L 243.78125 25.921875 L 243.78125 25.367188 L 244.644531 25.367188 L 244.664062 25.347656 L 244.664062 24.105469 Z M 245.328125 24.105469 Z M 245.328125 24.105469 "/>
<path style=" stroke:none;fill-rule:nonzero;fill:rgb(0%,0%,0%);fill-opacity:1;" d="M 248.691406 22.886719 L 248.691406 25.972656 C 248.976562 25.644531 249.453125 25.277344 249.949219 25.257812 C 250.554688 25.179688 251.28125 25.464844 251.417969 26.128906 L 251.449219 26.28125 L 251.449219 26.386719 L 251.46875 26.398438 L 251.46875 26.546875 L 251.488281 26.566406 L 251.488281 29.742188 L 250.734375 29.742188 L 250.734375 26.65625 C 250.695312 26.300781 250.457031 25.914062 250.050781 25.882812 C 249.574219 25.722656 249.007812 26.03125 248.867188 26.527344 L 248.820312 26.6875 L 248.78125 26.835938 L 248.761719 26.855469 L 248.761719 26.945312 L 248.738281 26.953125 L 248.738281 27.082031 L 248.730469 27.101562 L 248.730469 29.742188 L 247.976562 29.742188 L 247.976562 22.886719 Z M 248.691406 22.886719 Z M 248.691406 22.886719 "/>
<path style=" stroke:none;fill-rule:nonzero;fill:rgb(0%,0%,0%);fill-opacity:1;" d="M 254.792969 25.199219 C 255.726562 25.246094 256.339844 26.179688 256.359375 27.042969 L 256.371094 27.0625 L 256.371094 27.261719 L 256.390625 27.28125 L 256.390625 27.589844 L 253.324219 27.589844 C 253.285156 28.441406 254.058594 29.425781 254.980469 29.253906 C 255.445312 29.226562 255.933594 29.007812 256.300781 28.71875 L 256.300781 28.808594 L 256.320312 28.820312 L 256.320312 29.019531 L 256.339844 29.039062 L 256.339844 29.234375 L 256.359375 29.253906 L 256.359375 29.34375 C 255.417969 30.070312 253.871094 30.058594 253.144531 29.039062 C 252.152344 27.816406 252.679688 25.566406 254.324219 25.21875 L 254.453125 25.21875 L 254.472656 25.199219 Z M 254.792969 25.199219 Z M 254.496094 25.8125 C 253.890625 25.882812 253.472656 26.507812 253.382812 27.042969 L 255.832031 27.042969 C 255.8125 26.488281 255.367188 25.851562 254.761719 25.792969 L 254.515625 25.792969 Z M 254.496094 25.8125 Z M 254.496094 25.8125 "/>
<path style=" stroke:none;fill-rule:nonzero;fill:rgb(0%,0%,0%);fill-opacity:1;" d="M 260.992188 22.886719 L 260.992188 29.742188 L 260.238281 29.742188 L 260.238281 29.253906 C 259.683594 29.761719 258.660156 30.140625 257.96875 29.59375 C 256.796875 28.660156 256.765625 26.6875 257.816406 25.65625 C 258.511719 25.007812 259.613281 25.207031 260.257812 25.8125 L 260.277344 25.792969 L 260.277344 22.886719 Z M 260.992188 22.886719 Z M 259.109375 25.863281 C 258.355469 25.914062 257.859375 26.667969 257.816406 27.351562 C 257.757812 28.105469 258.066406 29.078125 258.917969 29.234375 C 259.433594 29.394531 260.011719 29.039062 260.238281 28.550781 L 260.238281 26.398438 C 260.011719 26.03125 259.542969 25.773438 259.109375 25.863281 Z M 259.109375 25.863281 Z M 259.109375 25.863281 "/>
<path style="fill:none;stroke-width:0.02;stroke-linecap:butt;stroke-linejoin:miter;stroke:rgb(0%,0%,0%);stroke-opacity:1;stroke-miterlimit:10;" d="M 6.806957 6.797386 L 9.751274 6.797386 L 9.751274 7.838356 L 6.806957 7.838356 Z M 6.806957 6.797386 " transform="matrix(28.346457,0,0,-28.346457,1,227.771654)"/>
</g>
</svg>
