<?xml version="1.0" encoding="UTF-8"?>
<svg xmlns="http://www.w3.org/2000/svg" xmlns:xlink="http://www.w3.org/1999/xlink" width="285.464567pt" height="228.771654pt" viewBox="0 0 285.464567 228.771654" version="1.1">
<g id="surface1">
<path style="fill:none;stroke-width:0.02;stroke-linecap:butt;stroke-linejoin:miter;stroke:rgb(0%,0%,0%);stroke-opacity:1;stroke-miterlimit:10;" d="M 0.695771 1.354686 L 0.800778 1.354686 " transform="matrix(28.346457,0,0,-28.346457,1,227.771654)"/>
<path style="fill:none;stroke-width:0.02;stroke-linecap:butt;stroke-linejoin:miter;stroke:rgb(0%,0%,0%);stroke-opacity:1;stroke-miterlimit:10;" d="M 0.695771 2.280866 L 0.800778 2.280866 " transform="matrix(28.346457,0,0,-28.346457,1,227.771654)"/>
<path style="fill:none;stroke-width:0.02;stroke-linecap:butt;stroke-linejoin:miter;stroke:rgb(0%,0%,0%);stroke-opacity:1;stroke-miterlimit:10;" d="M 0.695771 3.207045 L 0.800778 3.207045 " transform="matrix(28.346457,0,0,-28.346457,1,227.771654)"/>
<path style="fill:none;stroke-width:0.02;stroke-linecap:butt;stroke-linejoin:miter;stroke:rgb(0%,0%,0%);stroke-opacity:1;stroke-miterlimit:10;" d="M 0.695771 4.133363 L 0.800778 4.133363 " transform="matrix(28.346457,0,0,-28.346457,1,227.771654)"/>
<path style="fill:none;stroke-width:0.02;stroke-linecap:butt;stroke-linejoin:miter;stroke:rgb(0%,0%,0%);stroke-opacity:1;stroke-miterlimit:10;" d="M 0.695771 5.059542 L 0.800778 5.059542 " transform="matrix(28.346457,0,0,-28.346457,1,227.771654)"/>
<path style="fill:none;stroke-width:0.02;stroke-linecap:butt;stroke-linejoin:miter;stroke:rgb(0%,0%,0%);stroke-opacity:1;stroke-miterlimit:10;" d="M 0.695771 5.985859 L 0.800778 5.985859 " transform="matrix(28.346457,0,0,-28.346457,1,227.771654)"/>
<path style="fill:none;stroke-width:0.02;stroke-linecap:butt;stroke-linejoin:miter;stroke:rgb(0%,0%,0%);stroke-opacity:1;stroke-miterlimit:10;" d="M 0.695771 6.912039 L 0.800778 6.912039 " transform="matrix(28.346457,0,0,-28.346457,1,227.771654)"/>
<path style="fill:none;stroke-width:0.02;stroke-linecap:round;stroke-linejoin:miter;stroke:rgb(0%,0%,0%);stroke-opacity:1;stroke-miterlimit:10;" d="M 0.695771 0.428369 L 0.695771 7.838356 " transform="matrix(28.346457,0,0,-28.346457,1,227.771654)"/>
<path style=" stroke:none;fill-rule:nonzero;fill:rgb(0%,0%,0%);fill-opacity:1;" d="M 5.160156 216.265625 L 5.160156 216.710938 L 3.078125 216.710938 L 3.078125 216.265625 Z M 5.160156 216.265625 Z M 5.160156 216.265625 "/>
<path style=" stroke:none;fill-rule:nonzero;fill:rgb(0%,0%,0%);fill-opacity:1;" d="M 7.660156 212.886719 C 8.578125 212.910156 9.308594 213.855469 9.167969 214.742188 C 9.070312 215.632812 8.238281 216.140625 7.644531 216.695312 L 7.390625 216.957031 L 7.359375 216.972656 L 7.039062 217.28125 L 7.015625 217.296875 L 6.699219 217.617188 L 6.667969 217.632812 L 6.59375 217.703125 L 6.613281 217.710938 L 9.183594 217.710938 L 9.183594 218.234375 L 6.039062 218.234375 L 6.039062 217.757812 L 7.316406 216.480469 C 7.929688 215.949219 8.644531 215.257812 8.53125 214.386719 C 8.46875 213.878906 8.039062 213.410156 7.515625 213.371094 C 6.984375 213.289062 6.515625 213.710938 6.398438 214.21875 L 6.382812 214.242188 L 6.367188 214.296875 L 6.339844 214.386719 L 6.292969 214.558594 L 6.285156 214.601562 C 6.175781 214.464844 6.054688 214.324219 5.96875 214.171875 C 6.128906 213.519531 6.652344 212.910156 7.339844 212.886719 Z M 7.660156 212.886719 Z M 7.660156 212.886719 "/>
<path style=" stroke:none;fill-rule:nonzero;fill:rgb(0%,0%,0%);fill-opacity:1;" d="M 11.023438 217.601562 L 11.023438 218.234375 L 10.382812 218.234375 L 10.382812 217.601562 Z M 11.023438 217.601562 Z M 11.023438 217.601562 "/>
<path style=" stroke:none;fill-rule:nonzero;fill:rgb(0%,0%,0%);fill-opacity:1;" d="M 15.089844 213.050781 L 15.089844 213.542969 L 13.023438 213.542969 L 13.007812 213.550781 L 13.007812 215.179688 C 13.199219 215.050781 13.46875 214.886719 13.722656 214.878906 C 14.621094 214.78125 15.308594 215.664062 15.351562 216.480469 C 15.476562 217.519531 14.5 218.554688 13.453125 218.394531 C 12.929688 218.378906 12.421875 218.070312 12.121094 217.640625 C 12.207031 217.519531 12.277344 217.316406 12.382812 217.242188 C 12.753906 217.972656 13.960938 218.265625 14.445312 217.496094 C 14.753906 216.917969 14.746094 216.179688 14.390625 215.625 C 13.976562 215.09375 13.160156 215.417969 12.96875 215.980469 L 12.453125 215.980469 L 12.453125 213.050781 Z M 15.089844 213.050781 Z M 15.089844 213.050781 "/>
<path style=" stroke:none;fill-rule:nonzero;fill:rgb(0%,0%,0%);fill-opacity:1;" d="M 5.160156 190.011719 L 5.160156 190.457031 L 3.078125 190.457031 L 3.078125 190.011719 Z M 5.160156 190.011719 Z M 5.160156 190.011719 "/>
<path style=" stroke:none;fill-rule:nonzero;fill:rgb(0%,0%,0%);fill-opacity:1;" d="M 7.660156 186.628906 C 8.578125 186.652344 9.308594 187.597656 9.167969 188.488281 C 9.070312 189.375 8.238281 189.882812 7.644531 190.441406 L 7.390625 190.703125 L 7.359375 190.71875 L 7.039062 191.027344 L 7.015625 191.042969 L 6.699219 191.359375 L 6.667969 191.375 L 6.59375 191.449219 L 6.613281 191.457031 L 9.183594 191.457031 L 9.183594 191.980469 L 6.039062 191.980469 L 6.039062 191.503906 L 7.316406 190.226562 C 7.929688 189.695312 8.644531 189.003906 8.53125 188.128906 C 8.46875 187.621094 8.039062 187.152344 7.515625 187.113281 C 6.984375 187.035156 6.515625 187.457031 6.398438 187.964844 L 6.382812 187.988281 L 6.367188 188.042969 L 6.339844 188.128906 L 6.292969 188.304688 L 6.285156 188.34375 C 6.175781 188.210938 6.054688 188.066406 5.96875 187.917969 C 6.128906 187.265625 6.652344 186.652344 7.339844 186.628906 Z M 7.660156 186.628906 Z M 7.660156 186.628906 "/>
<path style=" stroke:none;fill-rule:nonzero;fill:rgb(0%,0%,0%);fill-opacity:1;" d="M 11.023438 191.34375 L 11.023438 191.980469 L 10.382812 191.980469 L 10.382812 191.34375 Z M 11.023438 191.34375 Z M 11.023438 191.34375 "/>
<path style=" stroke:none;fill-rule:nonzero;fill:rgb(0%,0%,0%);fill-opacity:1;" d="M 13.914062 186.628906 C 14.667969 186.6875 15.167969 187.375 15.300781 188.074219 C 15.375 188.390625 15.390625 188.695312 15.421875 189.011719 L 15.421875 189.820312 C 15.382812 190.644531 15.183594 191.734375 14.285156 192.066406 C 13.507812 192.375 12.597656 191.890625 12.367188 191.097656 C 12.191406 190.679688 12.175781 190.25 12.136719 189.820312 L 12.136719 189.011719 C 12.175781 188.1875 12.351562 187.089844 13.238281 186.726562 L 13.277344 186.710938 L 13.308594 186.703125 L 13.351562 186.6875 L 13.46875 186.652344 L 13.539062 186.636719 L 13.628906 186.636719 L 13.644531 186.628906 Z M 13.914062 186.628906 Z M 13.667969 187.113281 C 13 187.195312 12.800781 187.996094 12.753906 188.535156 L 12.753906 188.75 L 12.738281 188.765625 L 12.738281 189.867188 C 12.785156 190.441406 12.824219 191.179688 13.351562 191.558594 C 13.835938 191.890625 14.476562 191.519531 14.613281 191.003906 C 14.753906 190.621094 14.785156 190.25 14.816406 189.867188 L 14.816406 188.765625 C 14.769531 188.1875 14.691406 187.375 14.023438 187.144531 L 13.96875 187.128906 L 13.953125 187.113281 L 13.882812 187.113281 L 13.867188 187.097656 L 13.683594 187.097656 Z M 13.667969 187.113281 Z M 13.667969 187.113281 "/>
<path style=" stroke:none;fill-rule:nonzero;fill:rgb(0%,0%,0%);fill-opacity:1;" d="M 5.160156 163.753906 L 5.160156 164.199219 L 3.078125 164.199219 L 3.078125 163.753906 Z M 5.160156 163.753906 Z M 5.160156 163.753906 "/>
<path style=" stroke:none;fill-rule:nonzero;fill:rgb(0%,0%,0%);fill-opacity:1;" d="M 7.992188 160.375 L 7.992188 165.273438 L 8 165.289062 L 8.976562 165.289062 L 8.976562 165.722656 L 6.398438 165.722656 L 6.398438 165.289062 L 7.375 165.289062 L 7.390625 165.273438 L 7.390625 161.160156 C 7.054688 161.273438 6.707031 161.34375 6.359375 161.335938 L 6.359375 160.890625 C 6.882812 160.898438 7.453125 160.753906 7.851562 160.375 Z M 7.992188 160.375 Z M 7.992188 160.375 "/>
<path style=" stroke:none;fill-rule:nonzero;fill:rgb(0%,0%,0%);fill-opacity:1;" d="M 11.023438 165.089844 L 11.023438 165.722656 L 10.382812 165.722656 L 10.382812 165.089844 Z M 11.023438 165.089844 Z M 11.023438 165.089844 "/>
<path style=" stroke:none;fill-rule:nonzero;fill:rgb(0%,0%,0%);fill-opacity:1;" d="M 15.089844 160.542969 L 15.089844 161.035156 L 13.023438 161.035156 L 13.007812 161.042969 L 13.007812 162.667969 C 13.199219 162.542969 13.46875 162.375 13.722656 162.367188 C 14.621094 162.273438 15.308594 163.152344 15.351562 163.96875 C 15.476562 165.011719 14.5 166.042969 13.453125 165.882812 C 12.929688 165.867188 12.421875 165.558594 12.121094 165.128906 C 12.207031 165.011719 12.277344 164.804688 12.382812 164.730469 C 12.753906 165.460938 13.960938 165.757812 14.445312 164.984375 C 14.753906 164.40625 14.746094 163.667969 14.390625 163.113281 C 13.976562 162.582031 13.160156 162.90625 12.96875 163.46875 L 12.453125 163.46875 L 12.453125 160.542969 Z M 15.089844 160.542969 Z M 15.089844 160.542969 "/>
<path style=" stroke:none;fill-rule:nonzero;fill:rgb(0%,0%,0%);fill-opacity:1;" d="M 5.160156 137.5 L 5.160156 137.945312 L 3.078125 137.945312 L 3.078125 137.5 Z M 5.160156 137.5 Z M 5.160156 137.5 "/>
<path style=" stroke:none;fill-rule:nonzero;fill:rgb(0%,0%,0%);fill-opacity:1;" d="M 7.992188 134.121094 L 7.992188 139.015625 L 8 139.03125 L 8.976562 139.03125 L 8.976562 139.46875 L 6.398438 139.46875 L 6.398438 139.03125 L 7.375 139.03125 L 7.390625 139.015625 L 7.390625 134.90625 C 7.054688 135.015625 6.707031 135.085938 6.359375 135.078125 L 6.359375 134.636719 C 6.882812 134.644531 7.453125 134.5 7.851562 134.121094 Z M 7.992188 134.121094 Z M 7.992188 134.121094 "/>
<path style=" stroke:none;fill-rule:nonzero;fill:rgb(0%,0%,0%);fill-opacity:1;" d="M 11.023438 138.832031 L 11.023438 139.46875 L 10.382812 139.46875 L 10.382812 138.832031 Z M 11.023438 138.832031 Z M 11.023438 138.832031 "/>
<path style=" stroke:none;fill-rule:nonzero;fill:rgb(0%,0%,0%);fill-opacity:1;" d="M 13.914062 134.121094 C 14.667969 134.175781 15.167969 134.863281 15.300781 135.5625 C 15.375 135.882812 15.390625 136.183594 15.421875 136.5 L 15.421875 137.308594 C 15.382812 138.136719 15.183594 139.222656 14.285156 139.554688 C 13.507812 139.867188 12.597656 139.382812 12.367188 138.585938 C 12.191406 138.167969 12.175781 137.738281 12.136719 137.308594 L 12.136719 136.5 C 12.175781 135.675781 12.351562 134.578125 13.238281 134.214844 L 13.277344 134.199219 L 13.308594 134.191406 L 13.351562 134.175781 L 13.46875 134.144531 L 13.539062 134.128906 L 13.628906 134.128906 L 13.644531 134.121094 Z M 13.914062 134.121094 Z M 13.667969 134.601562 C 13 134.683594 12.800781 135.484375 12.753906 136.023438 L 12.753906 136.238281 L 12.738281 136.253906 L 12.738281 137.359375 C 12.785156 137.929688 12.824219 138.667969 13.351562 139.046875 C 13.835938 139.382812 14.476562 139.007812 14.613281 138.492188 C 14.753906 138.113281 14.785156 137.738281 14.816406 137.359375 L 14.816406 136.253906 C 14.769531 135.675781 14.691406 134.863281 14.023438 134.636719 L 13.96875 134.621094 L 13.953125 134.601562 L 13.882812 134.601562 L 13.867188 134.585938 L 13.683594 134.585938 Z M 13.667969 134.601562 Z M 13.667969 134.601562 "/>
<path style=" stroke:none;fill-rule:nonzero;fill:rgb(0%,0%,0%);fill-opacity:1;" d="M 5.160156 111.246094 L 5.160156 111.6875 L 3.078125 111.6875 L 3.078125 111.246094 Z M 5.160156 111.246094 Z M 5.160156 111.246094 "/>
<path style=" stroke:none;fill-rule:nonzero;fill:rgb(0%,0%,0%);fill-opacity:1;" d="M 7.746094 107.863281 C 8.5 107.917969 9 108.609375 9.136719 109.308594 C 9.207031 109.625 9.222656 109.925781 9.253906 110.246094 L 9.253906 111.054688 C 9.214844 111.878906 9.015625 112.96875 8.121094 113.300781 C 7.339844 113.609375 6.429688 113.125 6.199219 112.332031 C 6.023438 111.910156 6.007812 111.484375 5.96875 111.054688 L 5.96875 110.246094 C 6.007812 109.417969 6.183594 108.324219 7.070312 107.957031 L 7.113281 107.941406 L 7.144531 107.933594 L 7.183594 107.917969 L 7.300781 107.886719 L 7.375 107.871094 L 7.460938 107.871094 L 7.476562 107.863281 Z M 7.746094 107.863281 Z M 7.5 108.347656 C 6.832031 108.425781 6.636719 109.230469 6.585938 109.769531 L 6.585938 109.984375 L 6.570312 110 L 6.570312 111.101562 C 6.621094 111.671875 6.660156 112.410156 7.183594 112.792969 C 7.667969 113.125 8.308594 112.753906 8.445312 112.238281 C 8.585938 111.855469 8.621094 111.484375 8.652344 111.101562 L 8.652344 110 C 8.605469 109.417969 8.523438 108.609375 7.859375 108.378906 L 7.800781 108.363281 L 7.785156 108.347656 L 7.714844 108.347656 L 7.699219 108.332031 L 7.515625 108.332031 Z M 7.5 108.347656 Z M 7.5 108.347656 "/>
<path style=" stroke:none;fill-rule:nonzero;fill:rgb(0%,0%,0%);fill-opacity:1;" d="M 11.023438 112.578125 L 11.023438 113.214844 L 10.382812 113.214844 L 10.382812 112.578125 Z M 11.023438 112.578125 Z M 11.023438 112.578125 "/>
<path style=" stroke:none;fill-rule:nonzero;fill:rgb(0%,0%,0%);fill-opacity:1;" d="M 15.089844 108.03125 L 15.089844 108.523438 L 13.023438 108.523438 L 13.007812 108.53125 L 13.007812 110.15625 C 13.199219 110.03125 13.46875 109.863281 13.722656 109.855469 C 14.621094 109.761719 15.308594 110.640625 15.351562 111.460938 C 15.476562 112.5 14.5 113.53125 13.453125 113.371094 C 12.929688 113.355469 12.421875 113.046875 12.121094 112.617188 C 12.207031 112.5 12.277344 112.292969 12.382812 112.222656 C 12.753906 112.953125 13.960938 113.246094 14.445312 112.476562 C 14.753906 111.894531 14.746094 111.15625 14.390625 110.601562 C 13.976562 110.070312 13.160156 110.394531 12.96875 110.960938 L 12.453125 110.960938 L 12.453125 108.03125 Z M 15.089844 108.03125 Z M 15.089844 108.03125 "/>
<path style=" stroke:none;fill-rule:nonzero;fill:rgb(0%,0%,0%);fill-opacity:1;" d="M 7.746094 81.609375 C 8.5 81.664062 9 82.355469 9.136719 83.050781 C 9.207031 83.371094 9.222656 83.671875 9.253906 83.988281 L 9.253906 84.796875 C 9.214844 85.625 9.015625 86.710938 8.121094 87.042969 C 7.339844 87.355469 6.429688 86.871094 6.199219 86.078125 C 6.023438 85.65625 6.007812 85.226562 5.96875 84.796875 L 5.96875 83.988281 C 6.007812 83.164062 6.183594 82.070312 7.070312 81.703125 L 7.113281 81.6875 L 7.144531 81.679688 L 7.183594 81.664062 L 7.300781 81.632812 L 7.375 81.617188 L 7.460938 81.617188 L 7.476562 81.609375 Z M 7.746094 81.609375 Z M 7.5 82.09375 C 6.832031 82.171875 6.636719 82.972656 6.585938 83.511719 L 6.585938 83.726562 L 6.570312 83.742188 L 6.570312 84.847656 C 6.621094 85.417969 6.660156 86.15625 7.183594 86.535156 C 7.667969 86.871094 8.308594 86.496094 8.445312 85.980469 C 8.585938 85.601562 8.621094 85.226562 8.652344 84.847656 L 8.652344 83.742188 C 8.605469 83.164062 8.523438 82.355469 7.859375 82.125 L 7.800781 82.109375 L 7.785156 82.09375 L 7.714844 82.09375 L 7.699219 82.078125 L 7.515625 82.078125 Z M 7.5 82.09375 Z M 7.5 82.09375 "/>
<path style=" stroke:none;fill-rule:nonzero;fill:rgb(0%,0%,0%);fill-opacity:1;" d="M 11.023438 86.324219 L 11.023438 86.957031 L 10.382812 86.957031 L 10.382812 86.324219 Z M 11.023438 86.324219 Z M 11.023438 86.324219 "/>
<path style=" stroke:none;fill-rule:nonzero;fill:rgb(0%,0%,0%);fill-opacity:1;" d="M 13.914062 81.609375 C 14.667969 81.664062 15.167969 82.355469 15.300781 83.050781 C 15.375 83.371094 15.390625 83.671875 15.421875 83.988281 L 15.421875 84.796875 C 15.382812 85.625 15.183594 86.710938 14.285156 87.042969 C 13.507812 87.355469 12.597656 86.871094 12.367188 86.078125 C 12.191406 85.65625 12.175781 85.226562 12.136719 84.796875 L 12.136719 83.988281 C 12.175781 83.164062 12.351562 82.070312 13.238281 81.703125 L 13.277344 81.6875 L 13.308594 81.679688 L 13.351562 81.664062 L 13.46875 81.632812 L 13.539062 81.617188 L 13.628906 81.617188 L 13.644531 81.609375 Z M 13.914062 81.609375 Z M 13.667969 82.09375 C 13 82.171875 12.800781 82.972656 12.753906 83.511719 L 12.753906 83.726562 L 12.738281 83.742188 L 12.738281 84.847656 C 12.785156 85.417969 12.824219 86.15625 13.351562 86.535156 C 13.835938 86.871094 14.476562 86.496094 14.613281 85.980469 C 14.753906 85.601562 14.785156 85.226562 14.816406 84.847656 L 14.816406 83.742188 C 14.769531 83.164062 14.691406 82.355469 14.023438 82.125 L 13.96875 82.109375 L 13.953125 82.09375 L 13.882812 82.09375 L 13.867188 82.078125 L 13.683594 82.078125 Z M 13.667969 82.09375 Z M 13.667969 82.09375 "/>
<path style=" stroke:none;fill-rule:nonzero;fill:rgb(0%,0%,0%);fill-opacity:1;" d="M 7.746094 55.351562 C 8.5 55.40625 9 56.097656 9.136719 56.796875 C 9.207031 57.113281 9.222656 57.417969 9.253906 57.734375 L 9.253906 58.542969 C 9.214844 59.367188 9.015625 60.457031 8.121094 60.789062 C 7.339844 61.097656 6.429688 60.613281 6.199219 59.820312 C 6.023438 59.398438 6.007812 58.972656 5.96875 58.542969 L 5.96875 57.734375 C 6.007812 56.90625 6.183594 55.8125 7.070312 55.449219 L 7.113281 55.433594 L 7.144531 55.425781 L 7.183594 55.40625 L 7.300781 55.375 L 7.375 55.359375 L 7.460938 55.359375 L 7.476562 55.351562 Z M 7.746094 55.351562 Z M 7.5 55.835938 C 6.832031 55.917969 6.636719 56.71875 6.585938 57.257812 L 6.585938 57.472656 L 6.570312 57.488281 L 6.570312 58.589844 C 6.621094 59.164062 6.660156 59.902344 7.183594 60.28125 C 7.667969 60.613281 8.308594 60.242188 8.445312 59.726562 C 8.585938 59.34375 8.621094 58.972656 8.652344 58.589844 L 8.652344 57.488281 C 8.605469 56.90625 8.523438 56.097656 7.859375 55.867188 L 7.800781 55.851562 L 7.785156 55.835938 L 7.714844 55.835938 L 7.699219 55.820312 L 7.515625 55.820312 Z M 7.5 55.835938 Z M 7.5 55.835938 "/>
<path style=" stroke:none;fill-rule:nonzero;fill:rgb(0%,0%,0%);fill-opacity:1;" d="M 11.023438 60.066406 L 11.023438 60.703125 L 10.382812 60.703125 L 10.382812 60.066406 Z M 11.023438 60.066406 Z M 11.023438 60.066406 "/>
<path style=" stroke:none;fill-rule:nonzero;fill:rgb(0%,0%,0%);fill-opacity:1;" d="M 15.089844 55.519531 L 15.089844 56.011719 L 13.023438 56.011719 L 13.007812 56.019531 L 13.007812 57.644531 C 13.199219 57.519531 13.46875 57.351562 13.722656 57.34375 C 14.621094 57.25 15.308594 58.128906 15.351562 58.949219 C 15.476562 59.988281 14.5 61.019531 13.453125 60.859375 C 12.929688 60.84375 12.421875 60.535156 12.121094 60.105469 C 12.207031 59.988281 12.277344 59.78125 12.382812 59.710938 C 12.753906 60.441406 13.960938 60.734375 14.445312 59.964844 C 14.753906 59.382812 14.746094 58.644531 14.390625 58.089844 C 13.976562 57.558594 13.160156 57.882812 12.96875 58.449219 L 12.453125 58.449219 L 12.453125 55.519531 Z M 15.089844 55.519531 Z M 15.089844 55.519531 "/>
<path style=" stroke:none;fill-rule:nonzero;fill:rgb(0%,0%,0%);fill-opacity:1;" d="M 7.992188 29.097656 L 7.992188 33.992188 L 8 34.011719 L 8.976562 34.011719 L 8.976562 34.445312 L 6.398438 34.445312 L 6.398438 34.011719 L 7.375 34.011719 L 7.390625 33.992188 L 7.390625 29.882812 C 7.054688 29.992188 6.707031 30.066406 6.359375 30.058594 L 6.359375 29.613281 C 6.882812 29.621094 7.453125 29.476562 7.851562 29.097656 Z M 7.992188 29.097656 Z M 7.992188 29.097656 "/>
<path style=" stroke:none;fill-rule:nonzero;fill:rgb(0%,0%,0%);fill-opacity:1;" d="M 11.023438 33.8125 L 11.023438 34.445312 L 10.382812 34.445312 L 10.382812 33.8125 Z M 11.023438 33.8125 Z M 11.023438 33.8125 "/>
<path style=" stroke:none;fill-rule:nonzero;fill:rgb(0%,0%,0%);fill-opacity:1;" d="M 13.914062 29.097656 C 14.667969 29.152344 15.167969 29.84375 15.300781 30.542969 C 15.375 30.859375 15.390625 31.160156 15.421875 31.476562 L 15.421875 32.289062 C 15.382812 33.113281 15.183594 34.199219 14.285156 34.535156 C 13.507812 34.84375 12.597656 34.359375 12.367188 33.566406 C 12.191406 33.144531 12.175781 32.714844 12.136719 32.289062 L 12.136719 31.476562 C 12.175781 30.652344 12.351562 29.558594 13.238281 29.191406 L 13.277344 29.175781 L 13.308594 29.167969 L 13.351562 29.152344 L 13.46875 29.121094 L 13.539062 29.105469 L 13.628906 29.105469 L 13.644531 29.097656 Z M 13.914062 29.097656 Z M 13.667969 29.582031 C 13 29.660156 12.800781 30.460938 12.753906 31 L 12.753906 31.214844 L 12.738281 31.230469 L 12.738281 32.335938 C 12.785156 32.90625 12.824219 33.644531 13.351562 34.027344 C 13.835938 34.359375 14.476562 33.984375 14.613281 33.46875 C 14.753906 33.089844 14.785156 32.714844 14.816406 32.335938 L 14.816406 31.230469 C 14.769531 30.652344 14.691406 29.84375 14.023438 29.613281 L 13.96875 29.597656 L 13.953125 29.582031 L 13.882812 29.582031 L 13.867188 29.566406 L 13.683594 29.566406 Z M 13.667969 29.582031 Z M 13.667969 29.582031 "/>
<path style=" stroke:none;fill-rule:nonzero;fill:rgb(0%,0%,0%);fill-opacity:1;" d="M 7.992188 2.839844 L 7.992188 7.738281 L 8 7.753906 L 8.976562 7.753906 L 8.976562 8.191406 L 6.398438 8.191406 L 6.398438 7.753906 L 7.375 7.753906 L 7.390625 7.738281 L 7.390625 3.628906 C 7.054688 3.738281 6.707031 3.808594 6.359375 3.800781 L 6.359375 3.355469 C 6.882812 3.363281 7.453125 3.222656 7.851562 2.839844 Z M 7.992188 2.839844 Z M 7.992188 2.839844 "/>
<path style=" stroke:none;fill-rule:nonzero;fill:rgb(0%,0%,0%);fill-opacity:1;" d="M 11.023438 7.554688 L 11.023438 8.191406 L 10.382812 8.191406 L 10.382812 7.554688 Z M 11.023438 7.554688 Z M 11.023438 7.554688 "/>
<path style=" stroke:none;fill-rule:nonzero;fill:rgb(0%,0%,0%);fill-opacity:1;" d="M 15.089844 3.007812 L 15.089844 3.5 L 13.023438 3.5 L 13.007812 3.507812 L 13.007812 5.136719 C 13.199219 5.007812 13.46875 4.839844 13.722656 4.832031 C 14.621094 4.738281 15.308594 5.621094 15.351562 6.4375 C 15.476562 7.476562 14.5 8.507812 13.453125 8.351562 C 12.929688 8.332031 12.421875 8.023438 12.121094 7.59375 C 12.207031 7.476562 12.277344 7.269531 12.382812 7.199219 C 12.753906 7.929688 13.960938 8.222656 14.445312 7.453125 C 14.753906 6.875 14.746094 6.136719 14.390625 5.578125 C 13.976562 5.046875 13.160156 5.375 12.96875 5.9375 L 12.453125 5.9375 L 12.453125 3.007812 Z M 15.089844 3.007812 Z M 15.089844 3.007812 "/>
<path style="fill:none;stroke-width:0.02;stroke-linecap:butt;stroke-linejoin:miter;stroke:rgb(0%,0%,0%);stroke-opacity:1;stroke-miterlimit:10;" d="M 9.789997 1.354686 L 9.68499 1.354686 " transform="matrix(28.346457,0,0,-28.346457,1,227.771654)"/>
<path style="fill:none;stroke-width:0.02;stroke-linecap:butt;stroke-linejoin:miter;stroke:rgb(0%,0%,0%);stroke-opacity:1;stroke-miterlimit:10;" d="M 9.789997 2.280866 L 9.68499 2.280866 " transform="matrix(28.346457,0,0,-28.346457,1,227.771654)"/>
<path style="fill:none;stroke-width:0.02;stroke-linecap:butt;stroke-linejoin:miter;stroke:rgb(0%,0%,0%);stroke-opacity:1;stroke-miterlimit:10;" d="M 9.789997 3.207045 L 9.68499 3.207045 " transform="matrix(28.346457,0,0,-28.346457,1,227.771654)"/>
<path style="fill:none;stroke-width:0.02;stroke-linecap:butt;stroke-linejoin:miter;stroke:rgb(0%,0%,0%);stroke-opacity:1;stroke-miterlimit:10;" d="M 9.789997 4.133363 L 9.68499 4.133363 " transform="matrix(28.346457,0,0,-28.346457,1,227.771654)"/>
<path style="fill:none;stroke-width:0.02;stroke-linecap:butt;stroke-linejoin:miter;stroke:rgb(0%,0%,0%);stroke-opacity:1;stroke-miterlimit:10;" d="M 9.789997 5.059542 L 9.68499 5.059542 " transform="matrix(28.346457,0,0,-28.346457,1,227.771654)"/>
<path style="fill:none;stroke-width:0.02;stroke-linecap:butt;stroke-linejoin:miter;stroke:rgb(0%,0%,0%);stroke-opacity:1;stroke-miterlimit:10;" d="M 9.789997 5.985859 L 9.68499 5.985859 " transform="matrix(28.346457,0,0,-28.346457,1,227.771654)"/>
<path style="fill:none;stroke-width:0.02;stroke-linecap:butt;stroke-linejoin:miter;stroke:rgb(0%,0%,0%);stroke-opacity:1;stroke-miterlimit:10;" d="M 9.789997 6.912039 L 9.68499 6.912039 " transform="matrix(28.346457,0,0,-28.346457,1,227.771654)"/>
<path style="fill:none;stroke-width:0.02;stroke-linecap:round;stroke-linejoin:miter;stroke:rgb(0%,0%,0%);stroke-opacity:1;stroke-miterlimit:10;" d="M 9.789997 0.428369 L 9.789997 7.838356 " transform="matrix(28.346457,0,0,-28.346457,1,227.771654)"/>
<path style="fill:none;stroke-width:0.02;stroke-linecap:butt;stroke-linejoin:miter;stroke:rgb(0%,0%,0%);stroke-opacity:1;stroke-miterlimit:10;" d="M 1.706287 0.428369 L 1.706287 0.533376 " transform="matrix(28.346457,0,0,-28.346457,1,227.771654)"/>
<path style="fill:none;stroke-width:0.02;stroke-linecap:butt;stroke-linejoin:miter;stroke:rgb(0%,0%,0%);stroke-opacity:1;stroke-miterlimit:10;" d="M 2.716664 0.428369 L 2.716664 0.533376 " transform="matrix(28.346457,0,0,-28.346457,1,227.771654)"/>
<path style="fill:none;stroke-width:0.02;stroke-linecap:butt;stroke-linejoin:miter;stroke:rgb(0%,0%,0%);stroke-opacity:1;stroke-miterlimit:10;" d="M 3.72718 0.428369 L 3.72718 0.533376 " transform="matrix(28.346457,0,0,-28.346457,1,227.771654)"/>
<path style="fill:none;stroke-width:0.02;stroke-linecap:butt;stroke-linejoin:miter;stroke:rgb(0%,0%,0%);stroke-opacity:1;stroke-miterlimit:10;" d="M 4.737695 0.428369 L 4.737695 0.533376 " transform="matrix(28.346457,0,0,-28.346457,1,227.771654)"/>
<path style="fill:none;stroke-width:0.02;stroke-linecap:butt;stroke-linejoin:miter;stroke:rgb(0%,0%,0%);stroke-opacity:1;stroke-miterlimit:10;" d="M 5.748073 0.428369 L 5.748073 0.533376 " transform="matrix(28.346457,0,0,-28.346457,1,227.771654)"/>
<path style="fill:none;stroke-width:0.02;stroke-linecap:butt;stroke-linejoin:miter;stroke:rgb(0%,0%,0%);stroke-opacity:1;stroke-miterlimit:10;" d="M 6.758588 0.428369 L 6.758588 0.533376 " transform="matrix(28.346457,0,0,-28.346457,1,227.771654)"/>
<path style="fill:none;stroke-width:0.02;stroke-linecap:butt;stroke-linejoin:miter;stroke:rgb(0%,0%,0%);stroke-opacity:1;stroke-miterlimit:10;" d="M 7.769104 0.428369 L 7.769104 0.533376 " transform="matrix(28.346457,0,0,-28.346457,1,227.771654)"/>
<path style="fill:none;stroke-width:0.02;stroke-linecap:butt;stroke-linejoin:miter;stroke:rgb(0%,0%,0%);stroke-opacity:1;stroke-miterlimit:10;" d="M 8.779481 0.428369 L 8.779481 0.533376 " transform="matrix(28.346457,0,0,-28.346457,1,227.771654)"/>
<path style="fill:none;stroke-width:0.02;stroke-linecap:round;stroke-linejoin:miter;stroke:rgb(0%,0%,0%);stroke-opacity:1;stroke-miterlimit:10;" d="M 0.695771 0.428369 L 9.789997 0.428369 " transform="matrix(28.346457,0,0,-28.346457,1,227.771654)"/>
<path style=" stroke:none;fill-rule:nonzero;fill:rgb(0%,0%,0%);fill-opacity:1;" d="M 21.105469 220.445312 L 21.105469 225.34375 L 21.113281 225.359375 L 22.089844 225.359375 L 22.089844 225.796875 L 19.507812 225.796875 L 19.507812 225.359375 L 20.484375 225.359375 L 20.5 225.34375 L 20.5 221.230469 C 20.167969 221.34375 19.820312 221.414062 19.46875 221.40625 L 19.46875 220.960938 C 19.992188 220.96875 20.566406 220.828125 20.960938 220.445312 Z M 21.105469 220.445312 Z M 21.105469 220.445312 "/>
<path style=" stroke:none;fill-rule:nonzero;fill:rgb(0%,0%,0%);fill-opacity:1;" d="M 49.414062 220.445312 C 50.335938 220.46875 51.066406 221.414062 50.921875 222.304688 C 50.828125 223.191406 49.992188 223.699219 49.398438 224.253906 L 49.144531 224.515625 L 49.113281 224.535156 L 48.796875 224.84375 L 48.769531 224.859375 L 48.453125 225.175781 L 48.421875 225.191406 L 48.351562 225.261719 L 48.367188 225.273438 L 50.9375 225.273438 L 50.9375 225.796875 L 47.796875 225.796875 L 47.796875 225.320312 L 49.074219 224.042969 C 49.683594 223.507812 50.398438 222.820312 50.289062 221.945312 C 50.222656 221.4375 49.796875 220.96875 49.269531 220.929688 C 48.738281 220.851562 48.269531 221.269531 48.152344 221.777344 L 48.136719 221.804688 L 48.121094 221.859375 L 48.097656 221.945312 L 48.050781 222.121094 L 48.042969 222.160156 C 47.929688 222.023438 47.8125 221.882812 47.722656 221.730469 C 47.882812 221.082031 48.40625 220.46875 49.097656 220.445312 Z M 49.414062 220.445312 Z M 49.414062 220.445312 "/>
<path style=" stroke:none;fill-rule:nonzero;fill:rgb(0%,0%,0%);fill-opacity:1;" d="M 78.160156 220.445312 C 78.859375 220.476562 79.589844 221.121094 79.421875 221.859375 C 79.34375 222.359375 78.992188 222.769531 78.558594 222.992188 C 79.265625 223.214844 79.8125 223.960938 79.621094 224.699219 C 79.429688 225.660156 78.328125 226.191406 77.4375 225.898438 C 77.007812 225.773438 76.574219 225.5 76.367188 225.105469 C 76.414062 224.984375 76.398438 224.78125 76.453125 224.699219 C 76.875 225.320312 77.765625 225.738281 78.460938 225.390625 C 79.222656 224.90625 79.105469 223.492188 78.183594 223.253906 L 78.113281 223.253906 L 78.097656 223.238281 L 77.359375 223.238281 L 77.359375 222.761719 C 77.8125 222.753906 78.375 222.699219 78.628906 222.230469 C 78.898438 221.828125 78.875 221.160156 78.359375 220.960938 C 77.746094 220.722656 76.992188 221.113281 76.761719 221.730469 C 76.667969 221.597656 76.574219 221.460938 76.476562 221.320312 C 76.804688 220.730469 77.492188 220.382812 78.160156 220.445312 Z M 78.160156 220.445312 Z M 78.160156 220.445312 "/>
<path style=" stroke:none;fill-rule:nonzero;fill:rgb(0%,0%,0%);fill-opacity:1;" d="M 107.605469 220.613281 L 107.605469 223.953125 L 107.621094 223.96875 L 108.40625 223.96875 L 108.40625 224.445312 L 107.621094 224.445312 L 107.605469 224.453125 L 107.605469 225.796875 L 107.003906 225.796875 L 107.003906 224.453125 L 106.984375 224.445312 L 104.890625 224.445312 L 104.890625 223.953125 C 105.558594 222.84375 106.222656 221.722656 106.890625 220.613281 Z M 107.605469 220.613281 Z M 107.019531 220.914062 C 106.859375 221.738281 106.351562 222.445312 105.96875 223.167969 C 105.820312 223.429688 105.621094 223.714844 105.511719 223.96875 L 107.035156 223.96875 L 107.042969 223.953125 L 107.042969 220.914062 L 107.035156 220.898438 Z M 107.019531 220.914062 Z M 107.019531 220.914062 "/>
<path style=" stroke:none;fill-rule:nonzero;fill:rgb(0%,0%,0%);fill-opacity:1;" d="M 136.605469 220.613281 L 136.605469 221.105469 L 134.542969 221.105469 L 134.527344 221.113281 L 134.527344 222.738281 C 134.714844 222.613281 134.988281 222.445312 135.242188 222.4375 C 136.136719 222.34375 136.828125 223.222656 136.867188 224.042969 C 136.996094 225.082031 136.019531 226.113281 134.96875 225.953125 C 134.445312 225.9375 133.9375 225.628906 133.636719 225.199219 C 133.722656 225.082031 133.796875 224.875 133.898438 224.804688 C 134.273438 225.535156 135.480469 225.828125 135.960938 225.058594 C 136.273438 224.476562 136.265625 223.738281 135.90625 223.183594 C 135.496094 222.652344 134.675781 222.976562 134.488281 223.542969 L 133.96875 223.542969 L 133.96875 220.613281 Z M 136.605469 220.613281 Z M 136.605469 220.613281 "/>
<path style=" stroke:none;fill-rule:nonzero;fill:rgb(0%,0%,0%);fill-opacity:1;" d="M 164.589844 220.445312 C 164.796875 220.476562 165.035156 220.5 165.234375 220.597656 L 165.234375 221.058594 C 164.683594 220.820312 163.972656 220.785156 163.542969 221.269531 C 163.160156 221.675781 162.988281 222.277344 162.972656 222.8125 C 163.429688 222.199219 164.472656 221.859375 165.035156 222.492188 C 165.597656 223.144531 165.691406 224.082031 165.4375 224.875 C 165.160156 225.507812 164.519531 226.089844 163.804688 225.953125 C 162.835938 225.875 162.398438 224.796875 162.351562 223.96875 C 162.167969 222.804688 162.445312 221.335938 163.558594 220.667969 L 163.574219 220.660156 L 163.742188 220.574219 L 163.789062 220.558594 L 163.8125 220.542969 L 163.945312 220.5 L 164.058594 220.46875 L 164.128906 220.453125 L 164.21875 220.453125 L 164.234375 220.445312 Z M 164.589844 220.445312 Z M 163.8125 222.652344 C 163.121094 222.769531 162.898438 223.605469 162.988281 224.167969 C 163.027344 224.699219 163.234375 225.40625 163.84375 225.515625 C 164.496094 225.605469 164.914062 224.90625 164.929688 224.34375 C 164.964844 223.769531 164.929688 223.121094 164.429688 222.746094 L 164.320312 222.691406 L 164.234375 222.667969 L 164.160156 222.652344 L 164.144531 222.636719 L 163.828125 222.636719 Z M 163.8125 222.652344 Z M 163.8125 222.652344 "/>
<path style=" stroke:none;fill-rule:nonzero;fill:rgb(0%,0%,0%);fill-opacity:1;" d="M 194.226562 220.613281 L 194.226562 221.113281 C 193.097656 222.429688 192.464844 224.207031 192.472656 225.882812 L 191.828125 225.882812 C 191.8125 224.191406 192.503906 222.40625 193.710938 221.160156 L 193.695312 221.144531 L 190.9375 221.144531 L 190.9375 220.613281 L 194.226562 220.613281 L 194.226562 221.113281 Z M 194.226562 220.613281 Z M 194.226562 220.613281 "/>
<path style=" stroke:none;fill-rule:nonzero;fill:rgb(0%,0%,0%);fill-opacity:1;" d="M 221.375 220.445312 C 222.21875 220.476562 223.011719 221.382812 222.679688 222.222656 C 222.535156 222.613281 222.136719 222.851562 221.8125 223.015625 C 222.621094 223.253906 223.113281 224.199219 222.75 224.976562 C 222.367188 225.984375 220.925781 226.304688 220.128906 225.574219 C 219.40625 225 219.382812 223.761719 220.1875 223.253906 C 220.304688 223.128906 220.527344 223.089844 220.628906 222.992188 C 219.941406 222.796875 219.472656 221.992188 219.796875 221.320312 C 220.058594 220.714844 220.734375 220.382812 221.375 220.445312 Z M 221.375 220.445312 Z M 221.074219 220.898438 C 220.488281 220.914062 220.074219 221.582031 220.273438 222.105469 C 220.503906 223.007812 222.019531 222.976562 222.195312 222.050781 C 222.351562 221.53125 221.941406 220.914062 221.375 220.898438 L 221.359375 220.890625 L 221.089844 220.890625 Z M 221.074219 220.898438 Z M 221.089844 223.253906 C 220.398438 223.304688 220.058594 224.128906 220.242188 224.714844 C 220.359375 225.550781 221.550781 225.796875 222.019531 225.128906 C 222.472656 224.515625 222.25 223.421875 221.433594 223.253906 L 221.359375 223.253906 L 221.34375 223.238281 L 221.097656 223.238281 Z M 221.089844 223.253906 Z M 221.089844 223.253906 "/>
<path style=" stroke:none;fill-rule:nonzero;fill:rgb(0%,0%,0%);fill-opacity:1;" d="M 250.035156 220.445312 C 250.988281 220.550781 251.402344 221.628906 251.464844 222.453125 C 251.574219 223.523438 251.449219 224.78125 250.574219 225.550781 C 250.027344 226.097656 249.058594 226.113281 248.472656 225.621094 C 248.542969 225.484375 248.621094 225.328125 248.710938 225.214844 C 249.226562 225.714844 250.128906 225.574219 250.464844 224.929688 C 250.703125 224.542969 250.84375 224.042969 250.835938 223.613281 C 250.367188 224.214844 249.335938 224.566406 248.773438 223.929688 C 248.203125 223.269531 248.097656 222.3125 248.382812 221.515625 C 248.679688 220.890625 249.304688 220.351562 250.035156 220.445312 Z M 250.035156 220.445312 Z M 249.773438 220.898438 C 249.203125 220.945312 248.910156 221.582031 248.867188 222.082031 C 248.84375 222.644531 248.867188 223.304688 249.367188 223.667969 C 249.925781 224.007812 250.636719 223.597656 250.765625 222.992188 C 250.917969 222.40625 250.820312 221.777344 250.519531 221.230469 C 250.351562 221 250.050781 220.835938 249.773438 220.898438 Z M 249.773438 220.898438 Z M 249.773438 220.898438 "/>
<path style=" stroke:none;fill-rule:nonzero;fill:rgb(0%,0%,0%);fill-opacity:1;" d="M 276.910156 220.445312 L 276.910156 225.34375 L 276.917969 225.359375 L 277.894531 225.359375 L 277.894531 225.796875 L 275.3125 225.796875 L 275.3125 225.359375 L 276.289062 225.359375 L 276.304688 225.34375 L 276.304688 221.230469 C 275.972656 221.34375 275.621094 221.414062 275.273438 221.40625 L 275.273438 220.960938 C 275.796875 220.96875 276.367188 220.828125 276.765625 220.445312 Z M 276.910156 220.445312 Z M 276.910156 220.445312 "/>
<path style=" stroke:none;fill-rule:nonzero;fill:rgb(0%,0%,0%);fill-opacity:1;" d="M 280.632812 220.445312 C 281.386719 220.5 281.886719 221.191406 282.019531 221.890625 C 282.089844 222.207031 282.105469 222.507812 282.140625 222.828125 L 282.140625 223.636719 C 282.097656 224.460938 281.902344 225.550781 281.003906 225.882812 C 280.226562 226.191406 279.3125 225.707031 279.082031 224.914062 C 278.910156 224.492188 278.894531 224.066406 278.851562 223.636719 L 278.851562 222.828125 C 278.894531 222 279.066406 220.90625 279.957031 220.542969 L 279.996094 220.523438 L 280.027344 220.515625 L 280.066406 220.5 L 280.1875 220.46875 L 280.257812 220.453125 L 280.34375 220.453125 L 280.359375 220.445312 Z M 280.632812 220.445312 Z M 280.386719 220.929688 C 279.71875 221.007812 279.519531 221.8125 279.472656 222.351562 L 279.472656 222.566406 L 279.457031 222.582031 L 279.457031 223.683594 C 279.503906 224.253906 279.542969 224.992188 280.066406 225.375 C 280.550781 225.707031 281.195312 225.335938 281.328125 224.820312 C 281.472656 224.4375 281.503906 224.066406 281.535156 223.683594 L 281.535156 222.582031 C 281.488281 222 281.410156 221.191406 280.742188 220.960938 L 280.6875 220.945312 L 280.671875 220.929688 L 280.597656 220.929688 L 280.582031 220.914062 L 280.402344 220.914062 Z M 280.386719 220.929688 Z M 280.386719 220.929688 "/>
<path style="fill:none;stroke-width:0.02;stroke-linecap:butt;stroke-linejoin:miter;stroke:rgb(0%,0%,0%);stroke-opacity:1;stroke-miterlimit:10;" d="M 1.706287 7.838356 L 1.706287 7.73335 " transform="matrix(28.346457,0,0,-28.346457,1,227.771654)"/>
<path style="fill:none;stroke-width:0.02;stroke-linecap:butt;stroke-linejoin:miter;stroke:rgb(0%,0%,0%);stroke-opacity:1;stroke-miterlimit:10;" d="M 2.716664 7.838356 L 2.716664 7.73335 " transform="matrix(28.346457,0,0,-28.346457,1,227.771654)"/>
<path style="fill:none;stroke-width:0.02;stroke-linecap:butt;stroke-linejoin:miter;stroke:rgb(0%,0%,0%);stroke-opacity:1;stroke-miterlimit:10;" d="M 3.72718 7.838356 L 3.72718 7.73335 " transform="matrix(28.346457,0,0,-28.346457,1,227.771654)"/>
<path style="fill:none;stroke-width:0.02;stroke-linecap:butt;stroke-linejoin:miter;stroke:rgb(0%,0%,0%);stroke-opacity:1;stroke-miterlimit:10;" d="M 4.737695 7.838356 L 4.737695 7.73335 " transform="matrix(28.346457,0,0,-28.346457,1,227.771654)"/>
<path style="fill:none;stroke-width:0.02;stroke-linecap:butt;stroke-linejoin:miter;stroke:rgb(0%,0%,0%);stroke-opacity:1;stroke-miterlimit:10;" d="M 5.748073 7.838356 L 5.748073 7.73335 " transform="matrix(28.346457,0,0,-28.346457,1,227.771654)"/>
<path style="fill:none;stroke-width:0.02;stroke-linecap:butt;stroke-linejoin:miter;stroke:rgb(0%,0%,0%);stroke-opacity:1;stroke-miterlimit:10;" d="M 6.758588 7.838356 L 6.758588 7.73335 " transform="matrix(28.346457,0,0,-28.346457,1,227.771654)"/>
<path style="fill:none;stroke-width:0.02;stroke-linecap:butt;stroke-linejoin:miter;stroke:rgb(0%,0%,0%);stroke-opacity:1;stroke-miterlimit:10;" d="M 7.769104 7.838356 L 7.769104 7.73335 " transform="matrix(28.346457,0,0,-28.346457,1,227.771654)"/>
<path style="fill:none;stroke-width:0.02;stroke-linecap:butt;stroke-linejoin:miter;stroke:rgb(0%,0%,0%);stroke-opacity:1;stroke-miterlimit:10;" d="M 8.779481 7.838356 L 8.779481 7.73335 " transform="matrix(28.346457,0,0,-28.346457,1,227.771654)"/>
<path style="fill:none;stroke-width:0.02;stroke-linecap:round;stroke-linejoin:miter;stroke:rgb(0%,0%,0%);stroke-opacity:1;stroke-miterlimit:10;" d="M 0.695771 7.838356 L 9.789997 7.838356 " transform="matrix(28.346457,0,0,-28.346457,1,227.771654)"/>
<path style="fill:none;stroke-width:0.02;stroke-linecap:butt;stroke-linejoin:miter;stroke:rgb(79.215686%,38.431373%,29.411765%);stroke-opacity:1;stroke-miterlimit:10;" d="M 0.695771 1.947518 L 1.706287 2.912421 L 2.716664 3.202222 L 3.72718 5.624813 L 4.737695 5.613238 L 5.748073 4.593214 L 6.758588 4.09836 L 7.769104 6.80593 L 8.779481 6.531011 L 9.789997 6.353658 " transform="matrix(28.346457,0,0,-28.346457,1,227.771654)"/>
<path style="fill:none;stroke-width:0.02;stroke-linecap:butt;stroke-linejoin:miter;stroke:rgb(96.862745%,85.882353%,65.490196%);stroke-opacity:1;stroke-miterlimit:10;" d="M 0.695771 5.465099 L 1.706287 4.057571 L 2.716664 5.090824 L 3.72718 6.728898 L 4.737695 2.459184 L 5.748073 4.0821 L 6.758588 4.779249 L 7.769104 3.175902 L 8.779481 3.906124 L 9.789997 5.208646 " transform="matrix(28.346457,0,0,-28.346457,1,227.771654)"/>
<path style="fill:none;stroke-width:0.02;stroke-linecap:butt;stroke-linejoin:miter;stroke:rgb(85.490196%,86.666667%,84.705882%);stroke-opacity:1;stroke-miterlimit:10;" d="M 0.695771 4.921187 L 1.706287 6.163902 L 2.716664 5.323436 L 3.72718 6.080531 L 4.737695 7.541664 L 5.748073 0.527863 L 6.758588 2.875627 L 7.769104 5.706669 L 8.779481 3.047469 L 9.789997 4.279159 " transform="matrix(28.346457,0,0,-28.346457,1,227.771654)"/>
</g>
</svg>
