<?xml version="1.0" encoding="UTF-8"?>
<svg xmlns="http://www.w3.org/2000/svg" xmlns:xlink="http://www.w3.org/1999/xlink" width="285.464567pt" height="228.771654pt" viewBox="0 0 285.464567 228.771654" version="1.1">
<g id="surface1">
<path style="fill:none;stroke-width:0.02;stroke-linecap:butt;stroke-linejoin:miter;stroke:rgb(0%,0%,0%);stroke-opacity:1;stroke-miterlimit:10;" d="M 0.695771 1.251747 L 0.800778 1.251747 " transform="matrix(28.346457,0,0,-28.346457,1,227.771654)"/>
<path style="fill:none;stroke-width:0.02;stroke-linecap:butt;stroke-linejoin:miter;stroke:rgb(0%,0%,0%);stroke-opacity:1;stroke-miterlimit:10;" d="M 0.695771 2.074987 L 0.800778 2.074987 " transform="matrix(28.346457,0,0,-28.346457,1,227.771654)"/>
<path style="fill:none;stroke-width:0.02;stroke-linecap:butt;stroke-linejoin:miter;stroke:rgb(0%,0%,0%);stroke-opacity:1;stroke-miterlimit:10;" d="M 0.695771 2.898365 L 0.800778 2.898365 " transform="matrix(28.346457,0,0,-28.346457,1,227.771654)"/>
<path style="fill:none;stroke-width:0.02;stroke-linecap:butt;stroke-linejoin:miter;stroke:rgb(0%,0%,0%);stroke-opacity:1;stroke-miterlimit:10;" d="M 0.695771 3.721743 L 0.800778 3.721743 " transform="matrix(28.346457,0,0,-28.346457,1,227.771654)"/>
<path style="fill:none;stroke-width:0.02;stroke-linecap:butt;stroke-linejoin:miter;stroke:rgb(0%,0%,0%);stroke-opacity:1;stroke-miterlimit:10;" d="M 0.695771 4.544983 L 0.800778 4.544983 " transform="matrix(28.346457,0,0,-28.346457,1,227.771654)"/>
<path style="fill:none;stroke-width:0.02;stroke-linecap:butt;stroke-linejoin:miter;stroke:rgb(0%,0%,0%);stroke-opacity:1;stroke-miterlimit:10;" d="M 0.695771 5.36836 L 0.800778 5.36836 " transform="matrix(28.346457,0,0,-28.346457,1,227.771654)"/>
<path style="fill:none;stroke-width:0.02;stroke-linecap:butt;stroke-linejoin:miter;stroke:rgb(0%,0%,0%);stroke-opacity:1;stroke-miterlimit:10;" d="M 0.695771 6.1916 L 0.800778 6.1916 " transform="matrix(28.346457,0,0,-28.346457,1,227.771654)"/>
<path style="fill:none;stroke-width:0.02;stroke-linecap:butt;stroke-linejoin:miter;stroke:rgb(0%,0%,0%);stroke-opacity:1;stroke-miterlimit:10;" d="M 0.695771 7.014978 L 0.800778 7.014978 " transform="matrix(28.346457,0,0,-28.346457,1,227.771654)"/>
<path style="fill:none;stroke-width:0.02;stroke-linecap:round;stroke-linejoin:miter;stroke:rgb(0%,0%,0%);stroke-opacity:1;stroke-miterlimit:10;" d="M 0.695771 0.428369 L 0.695771 7.838356 " transform="matrix(28.346457,0,0,-28.346457,1,227.771654)"/>
<path style=" stroke:none;fill-rule:nonzero;fill:rgb(0%,0%,0%);fill-opacity:1;" d="M 5.160156 216.265625 L 5.160156 216.710938 L 3.078125 216.710938 L 3.078125 216.265625 Z M 5.160156 216.265625 Z M 5.160156 216.265625 "/>
<path style=" stroke:none;fill-rule:nonzero;fill:rgb(0%,0%,0%);fill-opacity:1;" d="M 7.660156 212.886719 C 8.578125 212.910156 9.308594 213.855469 9.167969 214.742188 C 9.070312 215.632812 8.238281 216.140625 7.644531 216.695312 L 7.390625 216.957031 L 7.359375 216.972656 L 7.039062 217.28125 L 7.015625 217.296875 L 6.699219 217.617188 L 6.667969 217.632812 L 6.59375 217.703125 L 6.613281 217.710938 L 9.183594 217.710938 L 9.183594 218.234375 L 6.039062 218.234375 L 6.039062 217.757812 L 7.316406 216.480469 C 7.929688 215.949219 8.644531 215.257812 8.53125 214.386719 C 8.46875 213.878906 8.039062 213.410156 7.515625 213.371094 C 6.984375 213.289062 6.515625 213.710938 6.398438 214.21875 L 6.382812 214.242188 L 6.367188 214.296875 L 6.339844 214.386719 L 6.292969 214.558594 L 6.285156 214.601562 C 6.175781 214.464844 6.054688 214.324219 5.96875 214.171875 C 6.128906 213.519531 6.652344 212.910156 7.339844 212.886719 Z M 7.660156 212.886719 Z M 7.660156 212.886719 "/>
<path style=" stroke:none;fill-rule:nonzero;fill:rgb(0%,0%,0%);fill-opacity:1;" d="M 11.023438 217.601562 L 11.023438 218.234375 L 10.382812 218.234375 L 10.382812 217.601562 Z M 11.023438 217.601562 Z M 11.023438 217.601562 "/>
<path style=" stroke:none;fill-rule:nonzero;fill:rgb(0%,0%,0%);fill-opacity:1;" d="M 15.089844 213.050781 L 15.089844 213.542969 L 13.023438 213.542969 L 13.007812 213.550781 L 13.007812 215.179688 C 13.199219 215.050781 13.46875 214.886719 13.722656 214.878906 C 14.621094 214.78125 15.308594 215.664062 15.351562 216.480469 C 15.476562 217.519531 14.5 218.554688 13.453125 218.394531 C 12.929688 218.378906 12.421875 218.070312 12.121094 217.640625 C 12.207031 217.519531 12.277344 217.316406 12.382812 217.242188 C 12.753906 217.972656 13.960938 218.265625 14.445312 217.496094 C 14.753906 216.917969 14.746094 216.179688 14.390625 215.625 C 13.976562 215.09375 13.160156 215.417969 12.96875 215.980469 L 12.453125 215.980469 L 12.453125 213.050781 Z M 15.089844 213.050781 Z M 15.089844 213.050781 "/>
<path style=" stroke:none;fill-rule:nonzero;fill:rgb(0%,0%,0%);fill-opacity:1;" d="M 5.160156 192.929688 L 5.160156 193.375 L 3.078125 193.375 L 3.078125 192.929688 Z M 5.160156 192.929688 Z M 5.160156 192.929688 "/>
<path style=" stroke:none;fill-rule:nonzero;fill:rgb(0%,0%,0%);fill-opacity:1;" d="M 7.660156 189.546875 C 8.578125 189.570312 9.308594 190.515625 9.167969 191.40625 C 9.070312 192.292969 8.238281 192.800781 7.644531 193.355469 L 7.390625 193.621094 L 7.359375 193.636719 L 7.039062 193.945312 L 7.015625 193.960938 L 6.699219 194.277344 L 6.667969 194.292969 L 6.59375 194.367188 L 6.613281 194.375 L 9.183594 194.375 L 9.183594 194.898438 L 6.039062 194.898438 L 6.039062 194.421875 L 7.316406 193.144531 C 7.929688 192.609375 8.644531 191.921875 8.53125 191.046875 C 8.46875 190.539062 8.039062 190.070312 7.515625 190.03125 C 6.984375 189.953125 6.515625 190.371094 6.398438 190.882812 L 6.382812 190.90625 L 6.367188 190.960938 L 6.339844 191.046875 L 6.292969 191.222656 L 6.285156 191.261719 C 6.175781 191.128906 6.054688 190.984375 5.96875 190.832031 C 6.128906 190.183594 6.652344 189.570312 7.339844 189.546875 Z M 7.660156 189.546875 Z M 7.660156 189.546875 "/>
<path style=" stroke:none;fill-rule:nonzero;fill:rgb(0%,0%,0%);fill-opacity:1;" d="M 11.023438 194.261719 L 11.023438 194.898438 L 10.382812 194.898438 L 10.382812 194.261719 Z M 11.023438 194.261719 Z M 11.023438 194.261719 "/>
<path style=" stroke:none;fill-rule:nonzero;fill:rgb(0%,0%,0%);fill-opacity:1;" d="M 13.914062 189.546875 C 14.667969 189.601562 15.167969 190.292969 15.300781 190.992188 C 15.375 191.308594 15.390625 191.609375 15.421875 191.929688 L 15.421875 192.738281 C 15.382812 193.5625 15.183594 194.652344 14.285156 194.984375 C 13.507812 195.292969 12.597656 194.808594 12.367188 194.015625 C 12.191406 193.59375 12.175781 193.167969 12.136719 192.738281 L 12.136719 191.929688 C 12.175781 191.101562 12.351562 190.007812 13.238281 189.644531 L 13.277344 189.625 L 13.308594 189.617188 L 13.351562 189.601562 L 13.46875 189.570312 L 13.539062 189.554688 L 13.628906 189.554688 L 13.644531 189.546875 Z M 13.914062 189.546875 Z M 13.667969 190.03125 C 13 190.109375 12.800781 190.914062 12.753906 191.453125 L 12.753906 191.667969 L 12.738281 191.683594 L 12.738281 192.785156 C 12.785156 193.355469 12.824219 194.09375 13.351562 194.476562 C 13.835938 194.808594 14.476562 194.4375 14.613281 193.921875 C 14.753906 193.539062 14.785156 193.167969 14.816406 192.785156 L 14.816406 191.683594 C 14.769531 191.101562 14.691406 190.292969 14.023438 190.0625 L 13.96875 190.046875 L 13.953125 190.03125 L 13.882812 190.03125 L 13.867188 190.015625 L 13.683594 190.015625 Z M 13.667969 190.03125 Z M 13.667969 190.03125 "/>
<path style=" stroke:none;fill-rule:nonzero;fill:rgb(0%,0%,0%);fill-opacity:1;" d="M 5.160156 169.589844 L 5.160156 170.035156 L 3.078125 170.035156 L 3.078125 169.589844 Z M 5.160156 169.589844 Z M 5.160156 169.589844 "/>
<path style=" stroke:none;fill-rule:nonzero;fill:rgb(0%,0%,0%);fill-opacity:1;" d="M 7.992188 166.210938 L 7.992188 171.105469 L 8 171.121094 L 8.976562 171.121094 L 8.976562 171.558594 L 6.398438 171.558594 L 6.398438 171.121094 L 7.375 171.121094 L 7.390625 171.105469 L 7.390625 166.996094 C 7.054688 167.105469 6.707031 167.175781 6.359375 167.167969 L 6.359375 166.726562 C 6.882812 166.734375 7.453125 166.589844 7.851562 166.210938 Z M 7.992188 166.210938 Z M 7.992188 166.210938 "/>
<path style=" stroke:none;fill-rule:nonzero;fill:rgb(0%,0%,0%);fill-opacity:1;" d="M 11.023438 170.925781 L 11.023438 171.558594 L 10.382812 171.558594 L 10.382812 170.925781 Z M 11.023438 170.925781 Z M 11.023438 170.925781 "/>
<path style=" stroke:none;fill-rule:nonzero;fill:rgb(0%,0%,0%);fill-opacity:1;" d="M 15.089844 166.375 L 15.089844 166.867188 L 13.023438 166.867188 L 13.007812 166.875 L 13.007812 168.503906 C 13.199219 168.375 13.46875 168.210938 13.722656 168.203125 C 14.621094 168.105469 15.308594 168.988281 15.351562 169.804688 C 15.476562 170.84375 14.5 171.875 13.453125 171.71875 C 12.929688 171.703125 12.421875 171.390625 12.121094 170.964844 C 12.207031 170.84375 12.277344 170.636719 12.382812 170.566406 C 12.753906 171.296875 13.960938 171.589844 14.445312 170.820312 C 14.753906 170.242188 14.746094 169.503906 14.390625 168.949219 C 13.976562 168.414062 13.160156 168.742188 12.96875 169.304688 L 12.453125 169.304688 L 12.453125 166.375 Z M 15.089844 166.375 Z M 15.089844 166.375 "/>
<path style=" stroke:none;fill-rule:nonzero;fill:rgb(0%,0%,0%);fill-opacity:1;" d="M 5.160156 146.253906 L 5.160156 146.695312 L 3.078125 146.695312 L 3.078125 146.253906 Z M 5.160156 146.253906 Z M 5.160156 146.253906 "/>
<path style=" stroke:none;fill-rule:nonzero;fill:rgb(0%,0%,0%);fill-opacity:1;" d="M 7.992188 142.871094 L 7.992188 147.769531 L 8 147.785156 L 8.976562 147.785156 L 8.976562 148.21875 L 6.398438 148.21875 L 6.398438 147.785156 L 7.375 147.785156 L 7.390625 147.769531 L 7.390625 143.65625 C 7.054688 143.769531 6.707031 143.839844 6.359375 143.832031 L 6.359375 143.386719 C 6.882812 143.394531 7.453125 143.253906 7.851562 142.871094 Z M 7.992188 142.871094 Z M 7.992188 142.871094 "/>
<path style=" stroke:none;fill-rule:nonzero;fill:rgb(0%,0%,0%);fill-opacity:1;" d="M 11.023438 147.585938 L 11.023438 148.21875 L 10.382812 148.21875 L 10.382812 147.585938 Z M 11.023438 147.585938 Z M 11.023438 147.585938 "/>
<path style=" stroke:none;fill-rule:nonzero;fill:rgb(0%,0%,0%);fill-opacity:1;" d="M 13.914062 142.871094 C 14.667969 142.925781 15.167969 143.617188 15.300781 144.316406 C 15.375 144.632812 15.390625 144.933594 15.421875 145.253906 L 15.421875 146.0625 C 15.382812 146.886719 15.183594 147.972656 14.285156 148.308594 C 13.507812 148.617188 12.597656 148.132812 12.367188 147.339844 C 12.191406 146.917969 12.175781 146.492188 12.136719 146.0625 L 12.136719 145.253906 C 12.175781 144.425781 12.351562 143.332031 13.238281 142.964844 L 13.277344 142.949219 L 13.308594 142.941406 L 13.351562 142.925781 L 13.46875 142.894531 L 13.539062 142.878906 L 13.628906 142.878906 L 13.644531 142.871094 Z M 13.914062 142.871094 Z M 13.667969 143.355469 C 13 143.433594 12.800781 144.234375 12.753906 144.777344 L 12.753906 144.988281 L 12.738281 145.007812 L 12.738281 146.109375 C 12.785156 146.679688 12.824219 147.417969 13.351562 147.800781 C 13.835938 148.132812 14.476562 147.761719 14.613281 147.246094 C 14.753906 146.863281 14.785156 146.492188 14.816406 146.109375 L 14.816406 145.007812 C 14.769531 144.425781 14.691406 143.617188 14.023438 143.386719 L 13.96875 143.371094 L 13.953125 143.355469 L 13.882812 143.355469 L 13.867188 143.339844 L 13.683594 143.339844 Z M 13.667969 143.355469 Z M 13.667969 143.355469 "/>
<path style=" stroke:none;fill-rule:nonzero;fill:rgb(0%,0%,0%);fill-opacity:1;" d="M 5.160156 122.914062 L 5.160156 123.359375 L 3.078125 123.359375 L 3.078125 122.914062 Z M 5.160156 122.914062 Z M 5.160156 122.914062 "/>
<path style=" stroke:none;fill-rule:nonzero;fill:rgb(0%,0%,0%);fill-opacity:1;" d="M 7.746094 119.53125 C 8.5 119.589844 9 120.277344 9.136719 120.976562 C 9.207031 121.292969 9.222656 121.597656 9.253906 121.914062 L 9.253906 122.722656 C 9.214844 123.550781 9.015625 124.636719 8.121094 124.96875 C 7.339844 125.277344 6.429688 124.796875 6.199219 124 C 6.023438 123.582031 6.007812 123.152344 5.96875 122.722656 L 5.96875 121.914062 C 6.007812 121.089844 6.183594 119.992188 7.070312 119.628906 L 7.113281 119.613281 L 7.144531 119.605469 L 7.183594 119.589844 L 7.300781 119.554688 L 7.375 119.539062 L 7.460938 119.539062 L 7.476562 119.53125 Z M 7.746094 119.53125 Z M 7.5 120.015625 C 6.832031 120.097656 6.636719 120.898438 6.585938 121.4375 L 6.585938 121.652344 L 6.570312 121.667969 L 6.570312 122.769531 C 6.621094 123.34375 6.660156 124.082031 7.183594 124.460938 C 7.667969 124.796875 8.308594 124.421875 8.445312 123.90625 C 8.585938 123.523438 8.621094 123.152344 8.652344 122.769531 L 8.652344 121.667969 C 8.605469 121.089844 8.523438 120.277344 7.859375 120.046875 L 7.800781 120.03125 L 7.785156 120.015625 L 7.714844 120.015625 L 7.699219 120 L 7.515625 120 Z M 7.5 120.015625 Z M 7.5 120.015625 "/>
<path style=" stroke:none;fill-rule:nonzero;fill:rgb(0%,0%,0%);fill-opacity:1;" d="M 11.023438 124.246094 L 11.023438 124.882812 L 10.382812 124.882812 L 10.382812 124.246094 Z M 11.023438 124.246094 Z M 11.023438 124.246094 "/>
<path style=" stroke:none;fill-rule:nonzero;fill:rgb(0%,0%,0%);fill-opacity:1;" d="M 15.089844 119.699219 L 15.089844 120.191406 L 13.023438 120.191406 L 13.007812 120.199219 L 13.007812 121.828125 C 13.199219 121.699219 13.46875 121.53125 13.722656 121.523438 C 14.621094 121.429688 15.308594 122.3125 15.351562 123.128906 C 15.476562 124.167969 14.5 125.199219 13.453125 125.039062 C 12.929688 125.023438 12.421875 124.714844 12.121094 124.285156 C 12.207031 124.167969 12.277344 123.960938 12.382812 123.890625 C 12.753906 124.621094 13.960938 124.914062 14.445312 124.144531 C 14.753906 123.566406 14.746094 122.828125 14.390625 122.269531 C 13.976562 121.738281 13.160156 122.066406 12.96875 122.628906 L 12.453125 122.628906 L 12.453125 119.699219 Z M 15.089844 119.699219 Z M 15.089844 119.699219 "/>
<path style=" stroke:none;fill-rule:nonzero;fill:rgb(0%,0%,0%);fill-opacity:1;" d="M 7.746094 96.195312 C 8.5 96.25 9 96.941406 9.136719 97.640625 C 9.207031 97.957031 9.222656 98.257812 9.253906 98.574219 L 9.253906 99.386719 C 9.214844 100.210938 9.015625 101.296875 8.121094 101.632812 C 7.339844 101.941406 6.429688 101.457031 6.199219 100.664062 C 6.023438 100.242188 6.007812 99.8125 5.96875 99.386719 L 5.96875 98.574219 C 6.007812 97.75 6.183594 96.65625 7.070312 96.289062 L 7.113281 96.273438 L 7.144531 96.265625 L 7.183594 96.25 L 7.300781 96.21875 L 7.375 96.203125 L 7.460938 96.203125 L 7.476562 96.195312 Z M 7.746094 96.195312 Z M 7.5 96.679688 C 6.832031 96.757812 6.636719 97.558594 6.585938 98.097656 L 6.585938 98.3125 L 6.570312 98.328125 L 6.570312 99.433594 C 6.621094 100.003906 6.660156 100.742188 7.183594 101.125 C 7.667969 101.457031 8.308594 101.082031 8.445312 100.566406 C 8.585938 100.1875 8.621094 99.8125 8.652344 99.433594 L 8.652344 98.328125 C 8.605469 97.75 8.523438 96.941406 7.859375 96.710938 L 7.800781 96.695312 L 7.785156 96.679688 L 7.714844 96.679688 L 7.699219 96.664062 L 7.515625 96.664062 Z M 7.5 96.679688 Z M 7.5 96.679688 "/>
<path style=" stroke:none;fill-rule:nonzero;fill:rgb(0%,0%,0%);fill-opacity:1;" d="M 11.023438 100.910156 L 11.023438 101.542969 L 10.382812 101.542969 L 10.382812 100.910156 Z M 11.023438 100.910156 Z M 11.023438 100.910156 "/>
<path style=" stroke:none;fill-rule:nonzero;fill:rgb(0%,0%,0%);fill-opacity:1;" d="M 13.914062 96.195312 C 14.667969 96.25 15.167969 96.941406 15.300781 97.640625 C 15.375 97.957031 15.390625 98.257812 15.421875 98.574219 L 15.421875 99.386719 C 15.382812 100.210938 15.183594 101.296875 14.285156 101.632812 C 13.507812 101.941406 12.597656 101.457031 12.367188 100.664062 C 12.191406 100.242188 12.175781 99.8125 12.136719 99.386719 L 12.136719 98.574219 C 12.175781 97.75 12.351562 96.65625 13.238281 96.289062 L 13.277344 96.273438 L 13.308594 96.265625 L 13.351562 96.25 L 13.46875 96.21875 L 13.539062 96.203125 L 13.628906 96.203125 L 13.644531 96.195312 Z M 13.914062 96.195312 Z M 13.667969 96.679688 C 13 96.757812 12.800781 97.558594 12.753906 98.097656 L 12.753906 98.3125 L 12.738281 98.328125 L 12.738281 99.433594 C 12.785156 100.003906 12.824219 100.742188 13.351562 101.125 C 13.835938 101.457031 14.476562 101.082031 14.613281 100.566406 C 14.753906 100.1875 14.785156 99.8125 14.816406 99.433594 L 14.816406 98.328125 C 14.769531 97.75 14.691406 96.941406 14.023438 96.710938 L 13.96875 96.695312 L 13.953125 96.679688 L 13.882812 96.679688 L 13.867188 96.664062 L 13.683594 96.664062 Z M 13.667969 96.679688 Z M 13.667969 96.679688 "/>
<path style=" stroke:none;fill-rule:nonzero;fill:rgb(0%,0%,0%);fill-opacity:1;" d="M 7.746094 72.855469 C 8.5 72.910156 9 73.601562 9.136719 74.300781 C 9.207031 74.617188 9.222656 74.917969 9.253906 75.238281 L 9.253906 76.046875 C 9.214844 76.871094 9.015625 77.960938 8.121094 78.292969 C 7.339844 78.601562 6.429688 78.117188 6.199219 77.324219 C 6.023438 76.902344 6.007812 76.476562 5.96875 76.046875 L 5.96875 75.238281 C 6.007812 74.410156 6.183594 73.316406 7.070312 72.953125 L 7.113281 72.9375 L 7.144531 72.925781 L 7.183594 72.910156 L 7.300781 72.878906 L 7.375 72.863281 L 7.460938 72.863281 L 7.476562 72.855469 Z M 7.746094 72.855469 Z M 7.5 73.339844 C 6.832031 73.417969 6.636719 74.222656 6.585938 74.761719 L 6.585938 74.976562 L 6.570312 74.992188 L 6.570312 76.09375 C 6.621094 76.664062 6.660156 77.402344 7.183594 77.785156 C 7.667969 78.117188 8.308594 77.746094 8.445312 77.230469 C 8.585938 76.847656 8.621094 76.476562 8.652344 76.09375 L 8.652344 74.992188 C 8.605469 74.410156 8.523438 73.601562 7.859375 73.371094 L 7.800781 73.355469 L 7.785156 73.339844 L 7.714844 73.339844 L 7.699219 73.324219 L 7.515625 73.324219 Z M 7.5 73.339844 Z M 7.5 73.339844 "/>
<path style=" stroke:none;fill-rule:nonzero;fill:rgb(0%,0%,0%);fill-opacity:1;" d="M 11.023438 77.570312 L 11.023438 78.207031 L 10.382812 78.207031 L 10.382812 77.570312 Z M 11.023438 77.570312 Z M 11.023438 77.570312 "/>
<path style=" stroke:none;fill-rule:nonzero;fill:rgb(0%,0%,0%);fill-opacity:1;" d="M 15.089844 73.023438 L 15.089844 73.515625 L 13.023438 73.515625 L 13.007812 73.523438 L 13.007812 75.148438 C 13.199219 75.023438 13.46875 74.855469 13.722656 74.847656 C 14.621094 74.753906 15.308594 75.632812 15.351562 76.453125 C 15.476562 77.492188 14.5 78.523438 13.453125 78.363281 C 12.929688 78.347656 12.421875 78.039062 12.121094 77.609375 C 12.207031 77.492188 12.277344 77.285156 12.382812 77.214844 C 12.753906 77.945312 13.960938 78.238281 14.445312 77.46875 C 14.753906 76.886719 14.746094 76.148438 14.390625 75.59375 C 13.976562 75.0625 13.160156 75.386719 12.96875 75.953125 L 12.453125 75.953125 L 12.453125 73.023438 Z M 15.089844 73.023438 Z M 15.089844 73.023438 "/>
<path style=" stroke:none;fill-rule:nonzero;fill:rgb(0%,0%,0%);fill-opacity:1;" d="M 7.992188 49.519531 L 7.992188 54.414062 L 8 54.429688 L 8.976562 54.429688 L 8.976562 54.867188 L 6.398438 54.867188 L 6.398438 54.429688 L 7.375 54.429688 L 7.390625 54.414062 L 7.390625 50.304688 C 7.054688 50.414062 6.707031 50.484375 6.359375 50.476562 L 6.359375 50.035156 C 6.882812 50.042969 7.453125 49.898438 7.851562 49.519531 Z M 7.992188 49.519531 Z M 7.992188 49.519531 "/>
<path style=" stroke:none;fill-rule:nonzero;fill:rgb(0%,0%,0%);fill-opacity:1;" d="M 11.023438 54.234375 L 11.023438 54.867188 L 10.382812 54.867188 L 10.382812 54.234375 Z M 11.023438 54.234375 Z M 11.023438 54.234375 "/>
<path style=" stroke:none;fill-rule:nonzero;fill:rgb(0%,0%,0%);fill-opacity:1;" d="M 13.914062 49.519531 C 14.667969 49.574219 15.167969 50.265625 15.300781 50.960938 C 15.375 51.28125 15.390625 51.582031 15.421875 51.898438 L 15.421875 52.707031 C 15.382812 53.535156 15.183594 54.621094 14.285156 54.953125 C 13.507812 55.265625 12.597656 54.78125 12.367188 53.988281 C 12.191406 53.566406 12.175781 53.136719 12.136719 52.707031 L 12.136719 51.898438 C 12.175781 51.074219 12.351562 49.976562 13.238281 49.613281 L 13.277344 49.597656 L 13.308594 49.589844 L 13.351562 49.574219 L 13.46875 49.542969 L 13.539062 49.527344 L 13.628906 49.527344 L 13.644531 49.519531 Z M 13.914062 49.519531 Z M 13.667969 50.003906 C 13 50.082031 12.800781 50.882812 12.753906 51.421875 L 12.753906 51.636719 L 12.738281 51.652344 L 12.738281 52.757812 C 12.785156 53.328125 12.824219 54.066406 13.351562 54.445312 C 13.835938 54.78125 14.476562 54.40625 14.613281 53.890625 C 14.753906 53.511719 14.785156 53.136719 14.816406 52.757812 L 14.816406 51.652344 C 14.769531 51.074219 14.691406 50.265625 14.023438 50.035156 L 13.96875 50.019531 L 13.953125 50.003906 L 13.882812 50.003906 L 13.867188 49.984375 L 13.683594 49.984375 Z M 13.667969 50.003906 Z M 13.667969 50.003906 "/>
<path style=" stroke:none;fill-rule:nonzero;fill:rgb(0%,0%,0%);fill-opacity:1;" d="M 7.992188 26.179688 L 7.992188 31.078125 L 8 31.09375 L 8.976562 31.09375 L 8.976562 31.527344 L 6.398438 31.527344 L 6.398438 31.09375 L 7.375 31.09375 L 7.390625 31.078125 L 7.390625 26.964844 C 7.054688 27.078125 6.707031 27.148438 6.359375 27.140625 L 6.359375 26.695312 C 6.882812 26.703125 7.453125 26.5625 7.851562 26.179688 Z M 7.992188 26.179688 Z M 7.992188 26.179688 "/>
<path style=" stroke:none;fill-rule:nonzero;fill:rgb(0%,0%,0%);fill-opacity:1;" d="M 11.023438 30.894531 L 11.023438 31.527344 L 10.382812 31.527344 L 10.382812 30.894531 Z M 11.023438 30.894531 Z M 11.023438 30.894531 "/>
<path style=" stroke:none;fill-rule:nonzero;fill:rgb(0%,0%,0%);fill-opacity:1;" d="M 15.089844 26.347656 L 15.089844 26.839844 L 13.023438 26.839844 L 13.007812 26.847656 L 13.007812 28.472656 C 13.199219 28.347656 13.46875 28.179688 13.722656 28.171875 C 14.621094 28.078125 15.308594 28.957031 15.351562 29.773438 C 15.476562 30.816406 14.5 31.847656 13.453125 31.6875 C 12.929688 31.671875 12.421875 31.363281 12.121094 30.933594 C 12.207031 30.816406 12.277344 30.609375 12.382812 30.535156 C 12.753906 31.265625 13.960938 31.5625 14.445312 30.792969 C 14.753906 30.210938 14.746094 29.472656 14.390625 28.917969 C 13.976562 28.386719 13.160156 28.710938 12.96875 29.273438 L 12.453125 29.273438 L 12.453125 26.347656 Z M 15.089844 26.347656 Z M 15.089844 26.347656 "/>
<path style=" stroke:none;fill-rule:nonzero;fill:rgb(0%,0%,0%);fill-opacity:1;" d="M 7.660156 2.839844 C 8.578125 2.863281 9.308594 3.808594 9.167969 4.699219 C 9.070312 5.585938 8.238281 6.09375 7.644531 6.652344 L 7.390625 6.914062 L 7.359375 6.929688 L 7.039062 7.238281 L 7.015625 7.253906 L 6.699219 7.570312 L 6.667969 7.585938 L 6.59375 7.660156 L 6.613281 7.667969 L 9.183594 7.667969 L 9.183594 8.191406 L 6.039062 8.191406 L 6.039062 7.714844 L 7.316406 6.4375 C 7.929688 5.90625 8.644531 5.214844 8.53125 4.339844 C 8.46875 3.832031 8.039062 3.363281 7.515625 3.324219 C 6.984375 3.246094 6.515625 3.667969 6.398438 4.175781 L 6.382812 4.199219 L 6.367188 4.253906 L 6.339844 4.339844 L 6.292969 4.515625 L 6.285156 4.554688 C 6.175781 4.421875 6.054688 4.277344 5.96875 4.128906 C 6.128906 3.476562 6.652344 2.863281 7.339844 2.839844 Z M 7.660156 2.839844 Z M 7.660156 2.839844 "/>
<path style=" stroke:none;fill-rule:nonzero;fill:rgb(0%,0%,0%);fill-opacity:1;" d="M 11.023438 7.554688 L 11.023438 8.191406 L 10.382812 8.191406 L 10.382812 7.554688 Z M 11.023438 7.554688 Z M 11.023438 7.554688 "/>
<path style=" stroke:none;fill-rule:nonzero;fill:rgb(0%,0%,0%);fill-opacity:1;" d="M 13.914062 2.839844 C 14.667969 2.898438 15.167969 3.585938 15.300781 4.285156 C 15.375 4.601562 15.390625 4.90625 15.421875 5.222656 L 15.421875 6.03125 C 15.382812 6.859375 15.183594 7.945312 14.285156 8.277344 C 13.507812 8.585938 12.597656 8.105469 12.367188 7.308594 C 12.191406 6.890625 12.175781 6.460938 12.136719 6.03125 L 12.136719 5.222656 C 12.175781 4.398438 12.351562 3.300781 13.238281 2.9375 L 13.277344 2.921875 L 13.308594 2.914062 L 13.351562 2.898438 L 13.46875 2.863281 L 13.539062 2.847656 L 13.628906 2.847656 L 13.644531 2.839844 Z M 13.914062 2.839844 Z M 13.667969 3.324219 C 13 3.40625 12.800781 4.207031 12.753906 4.746094 L 12.753906 4.960938 L 12.738281 4.976562 L 12.738281 6.078125 C 12.785156 6.652344 12.824219 7.390625 13.351562 7.769531 C 13.835938 8.105469 14.476562 7.730469 14.613281 7.214844 C 14.753906 6.832031 14.785156 6.460938 14.816406 6.078125 L 14.816406 4.976562 C 14.769531 4.398438 14.691406 3.585938 14.023438 3.355469 L 13.96875 3.339844 L 13.953125 3.324219 L 13.882812 3.324219 L 13.867188 3.308594 L 13.683594 3.308594 Z M 13.667969 3.324219 Z M 13.667969 3.324219 "/>
<path style="fill:none;stroke-width:0.02;stroke-linecap:butt;stroke-linejoin:miter;stroke:rgb(0%,0%,0%);stroke-opacity:1;stroke-miterlimit:10;" d="M 9.751274 1.251747 L 9.646267 1.251747 " transform="matrix(28.346457,0,0,-28.346457,1,227.771654)"/>
<path style="fill:none;stroke-width:0.02;stroke-linecap:butt;stroke-linejoin:miter;stroke:rgb(0%,0%,0%);stroke-opacity:1;stroke-miterlimit:10;" d="M 9.751274 2.074987 L 9.646267 2.074987 " transform="matrix(28.346457,0,0,-28.346457,1,227.771654)"/>
<path style="fill:none;stroke-width:0.02;stroke-linecap:butt;stroke-linejoin:miter;stroke:rgb(0%,0%,0%);stroke-opacity:1;stroke-miterlimit:10;" d="M 9.751274 2.898365 L 9.646267 2.898365 " transform="matrix(28.346457,0,0,-28.346457,1,227.771654)"/>
<path style="fill:none;stroke-width:0.02;stroke-linecap:butt;stroke-linejoin:miter;stroke:rgb(0%,0%,0%);stroke-opacity:1;stroke-miterlimit:10;" d="M 9.751274 3.721743 L 9.646267 3.721743 " transform="matrix(28.346457,0,0,-28.346457,1,227.771654)"/>
<path style="fill:none;stroke-width:0.02;stroke-linecap:butt;stroke-linejoin:miter;stroke:rgb(0%,0%,0%);stroke-opacity:1;stroke-miterlimit:10;" d="M 9.751274 4.544983 L 9.646267 4.544983 " transform="matrix(28.346457,0,0,-28.346457,1,227.771654)"/>
<path style="fill:none;stroke-width:0.02;stroke-linecap:butt;stroke-linejoin:miter;stroke:rgb(0%,0%,0%);stroke-opacity:1;stroke-miterlimit:10;" d="M 9.751274 5.36836 L 9.646267 5.36836 " transform="matrix(28.346457,0,0,-28.346457,1,227.771654)"/>
<path style="fill:none;stroke-width:0.02;stroke-linecap:butt;stroke-linejoin:miter;stroke:rgb(0%,0%,0%);stroke-opacity:1;stroke-miterlimit:10;" d="M 9.751274 6.1916 L 9.646267 6.1916 " transform="matrix(28.346457,0,0,-28.346457,1,227.771654)"/>
<path style="fill:none;stroke-width:0.02;stroke-linecap:butt;stroke-linejoin:miter;stroke:rgb(0%,0%,0%);stroke-opacity:1;stroke-miterlimit:10;" d="M 9.751274 7.014978 L 9.646267 7.014978 " transform="matrix(28.346457,0,0,-28.346457,1,227.771654)"/>
<path style="fill:none;stroke-width:0.02;stroke-linecap:round;stroke-linejoin:miter;stroke:rgb(0%,0%,0%);stroke-opacity:1;stroke-miterlimit:10;" d="M 9.751274 0.428369 L 9.751274 7.838356 " transform="matrix(28.346457,0,0,-28.346457,1,227.771654)"/>
<path style="fill:none;stroke-width:0.02;stroke-linecap:butt;stroke-linejoin:miter;stroke:rgb(0%,0%,0%);stroke-opacity:1;stroke-miterlimit:10;" d="M 1.827692 0.428369 L 1.827692 0.533376 " transform="matrix(28.346457,0,0,-28.346457,1,227.771654)"/>
<path style="fill:none;stroke-width:0.02;stroke-linecap:butt;stroke-linejoin:miter;stroke:rgb(0%,0%,0%);stroke-opacity:1;stroke-miterlimit:10;" d="M 2.959613 0.428369 L 2.959613 0.533376 " transform="matrix(28.346457,0,0,-28.346457,1,227.771654)"/>
<path style="fill:none;stroke-width:0.02;stroke-linecap:butt;stroke-linejoin:miter;stroke:rgb(0%,0%,0%);stroke-opacity:1;stroke-miterlimit:10;" d="M 4.091533 0.428369 L 4.091533 0.533376 " transform="matrix(28.346457,0,0,-28.346457,1,227.771654)"/>
<path style="fill:none;stroke-width:0.02;stroke-linecap:butt;stroke-linejoin:miter;stroke:rgb(0%,0%,0%);stroke-opacity:1;stroke-miterlimit:10;" d="M 5.223454 0.428369 L 5.223454 0.533376 " transform="matrix(28.346457,0,0,-28.346457,1,227.771654)"/>
<path style="fill:none;stroke-width:0.02;stroke-linecap:butt;stroke-linejoin:miter;stroke:rgb(0%,0%,0%);stroke-opacity:1;stroke-miterlimit:10;" d="M 6.355374 0.428369 L 6.355374 0.533376 " transform="matrix(28.346457,0,0,-28.346457,1,227.771654)"/>
<path style="fill:none;stroke-width:0.02;stroke-linecap:butt;stroke-linejoin:miter;stroke:rgb(0%,0%,0%);stroke-opacity:1;stroke-miterlimit:10;" d="M 7.487433 0.428369 L 7.487433 0.533376 " transform="matrix(28.346457,0,0,-28.346457,1,227.771654)"/>
<path style="fill:none;stroke-width:0.02;stroke-linecap:butt;stroke-linejoin:miter;stroke:rgb(0%,0%,0%);stroke-opacity:1;stroke-miterlimit:10;" d="M 8.619353 0.428369 L 8.619353 0.533376 " transform="matrix(28.346457,0,0,-28.346457,1,227.771654)"/>
<path style="fill:none;stroke-width:0.02;stroke-linecap:round;stroke-linejoin:miter;stroke:rgb(0%,0%,0%);stroke-opacity:1;stroke-miterlimit:10;" d="M 0.695771 0.428369 L 9.751274 0.428369 " transform="matrix(28.346457,0,0,-28.346457,1,227.771654)"/>
<path style=" stroke:none;fill-rule:nonzero;fill:rgb(0%,0%,0%);fill-opacity:1;" d="M 18.019531 220.445312 L 18.019531 225.34375 L 18.027344 225.359375 L 19.003906 225.359375 L 19.003906 225.796875 L 16.425781 225.796875 L 16.425781 225.359375 L 17.402344 225.359375 L 17.417969 225.34375 L 17.417969 221.230469 C 17.085938 221.34375 16.734375 221.414062 16.386719 221.40625 L 16.386719 220.960938 C 16.910156 220.96875 17.480469 220.828125 17.878906 220.445312 Z M 18.019531 220.445312 Z M 18.019531 220.445312 "/>
<path style=" stroke:none;fill-rule:nonzero;fill:rgb(0%,0%,0%);fill-opacity:1;" d="M 21.054688 225.160156 L 21.054688 225.796875 L 20.410156 225.796875 L 20.410156 225.160156 Z M 21.054688 225.160156 Z M 21.054688 225.160156 "/>
<path style=" stroke:none;fill-rule:nonzero;fill:rgb(0%,0%,0%);fill-opacity:1;" d="M 23.941406 220.445312 C 24.695312 220.5 25.195312 221.191406 25.332031 221.890625 C 25.402344 222.207031 25.417969 222.507812 25.449219 222.828125 L 25.449219 223.636719 C 25.410156 224.460938 25.210938 225.550781 24.316406 225.882812 C 23.539062 226.191406 22.625 225.707031 22.394531 224.914062 C 22.21875 224.492188 22.203125 224.066406 22.164062 223.636719 L 22.164062 222.828125 C 22.203125 222 22.378906 220.90625 23.265625 220.542969 L 23.308594 220.523438 L 23.339844 220.515625 L 23.378906 220.5 L 23.496094 220.46875 L 23.570312 220.453125 L 23.65625 220.453125 L 23.671875 220.445312 Z M 23.941406 220.445312 Z M 23.695312 220.929688 C 23.027344 221.007812 22.832031 221.8125 22.78125 222.351562 L 22.78125 222.566406 L 22.765625 222.582031 L 22.765625 223.683594 C 22.816406 224.253906 22.855469 224.992188 23.378906 225.375 C 23.863281 225.707031 24.503906 225.335938 24.640625 224.820312 C 24.785156 224.4375 24.816406 224.066406 24.847656 223.683594 L 24.847656 222.582031 C 24.800781 222 24.71875 221.191406 24.054688 220.960938 L 23.996094 220.945312 L 23.980469 220.929688 L 23.910156 220.929688 L 23.894531 220.914062 L 23.710938 220.914062 Z M 23.695312 220.929688 Z M 23.695312 220.929688 "/>
<path style=" stroke:none;fill-rule:nonzero;fill:rgb(0%,0%,0%);fill-opacity:1;" d="M 50.105469 220.445312 L 50.105469 225.34375 L 50.113281 225.359375 L 51.089844 225.359375 L 51.089844 225.796875 L 48.511719 225.796875 L 48.511719 225.359375 L 49.488281 225.359375 L 49.503906 225.34375 L 49.503906 221.230469 C 49.171875 221.34375 48.820312 221.414062 48.472656 221.40625 L 48.472656 220.960938 C 48.996094 220.96875 49.566406 220.828125 49.964844 220.445312 Z M 50.105469 220.445312 Z M 50.105469 220.445312 "/>
<path style=" stroke:none;fill-rule:nonzero;fill:rgb(0%,0%,0%);fill-opacity:1;" d="M 53.140625 225.160156 L 53.140625 225.796875 L 52.496094 225.796875 L 52.496094 225.160156 Z M 53.140625 225.160156 Z M 53.140625 225.160156 "/>
<path style=" stroke:none;fill-rule:nonzero;fill:rgb(0%,0%,0%);fill-opacity:1;" d="M 57.203125 220.613281 L 57.203125 221.105469 L 55.140625 221.105469 L 55.125 221.113281 L 55.125 222.738281 C 55.3125 222.613281 55.582031 222.445312 55.835938 222.4375 C 56.734375 222.34375 57.425781 223.222656 57.464844 224.042969 C 57.589844 225.082031 56.617188 226.113281 55.566406 225.953125 C 55.042969 225.9375 54.535156 225.628906 54.234375 225.199219 C 54.320312 225.082031 54.394531 224.875 54.496094 224.804688 C 54.871094 225.535156 56.074219 225.828125 56.558594 225.058594 C 56.871094 224.476562 56.863281 223.738281 56.503906 223.183594 C 56.089844 222.652344 55.273438 222.976562 55.082031 223.542969 L 54.566406 223.542969 L 54.566406 220.613281 Z M 57.203125 220.613281 Z M 57.203125 220.613281 "/>
<path style=" stroke:none;fill-rule:nonzero;fill:rgb(0%,0%,0%);fill-opacity:1;" d="M 81.859375 220.445312 C 82.78125 220.46875 83.511719 221.414062 83.367188 222.304688 C 83.273438 223.191406 82.4375 223.699219 81.84375 224.253906 L 81.589844 224.515625 L 81.558594 224.535156 L 81.242188 224.84375 L 81.21875 224.859375 L 80.898438 225.175781 L 80.867188 225.191406 L 80.796875 225.261719 L 80.8125 225.273438 L 83.382812 225.273438 L 83.382812 225.796875 L 80.242188 225.796875 L 80.242188 225.320312 L 81.519531 224.042969 C 82.128906 223.507812 82.84375 222.820312 82.734375 221.945312 C 82.667969 221.4375 82.242188 220.96875 81.71875 220.929688 C 81.183594 220.851562 80.71875 221.269531 80.597656 221.777344 L 80.582031 221.804688 L 80.566406 221.859375 L 80.542969 221.945312 L 80.496094 222.121094 L 80.488281 222.160156 C 80.375 222.023438 80.257812 221.882812 80.167969 221.730469 C 80.328125 221.082031 80.851562 220.46875 81.542969 220.445312 Z M 81.859375 220.445312 Z M 81.859375 220.445312 "/>
<path style=" stroke:none;fill-rule:nonzero;fill:rgb(0%,0%,0%);fill-opacity:1;" d="M 85.226562 225.160156 L 85.226562 225.796875 L 84.582031 225.796875 L 84.582031 225.160156 Z M 85.226562 225.160156 Z M 85.226562 225.160156 "/>
<path style=" stroke:none;fill-rule:nonzero;fill:rgb(0%,0%,0%);fill-opacity:1;" d="M 88.113281 220.445312 C 88.867188 220.5 89.367188 221.191406 89.503906 221.890625 C 89.574219 222.207031 89.589844 222.507812 89.621094 222.828125 L 89.621094 223.636719 C 89.582031 224.460938 89.382812 225.550781 88.488281 225.882812 C 87.710938 226.191406 86.796875 225.707031 86.566406 224.914062 C 86.390625 224.492188 86.375 224.066406 86.335938 223.636719 L 86.335938 222.828125 C 86.375 222 86.550781 220.90625 87.441406 220.542969 L 87.480469 220.523438 L 87.511719 220.515625 L 87.550781 220.5 L 87.667969 220.46875 L 87.742188 220.453125 L 87.828125 220.453125 L 87.84375 220.445312 Z M 88.113281 220.445312 Z M 87.867188 220.929688 C 87.203125 221.007812 87.003906 221.8125 86.957031 222.351562 L 86.957031 222.566406 L 86.941406 222.582031 L 86.941406 223.683594 C 86.988281 224.253906 87.027344 224.992188 87.550781 225.375 C 88.035156 225.707031 88.675781 225.335938 88.8125 224.820312 C 88.957031 224.4375 88.988281 224.066406 89.019531 223.683594 L 89.019531 222.582031 C 88.972656 222 88.890625 221.191406 88.226562 220.960938 L 88.167969 220.945312 L 88.152344 220.929688 L 88.082031 220.929688 L 88.066406 220.914062 L 87.882812 220.914062 Z M 87.867188 220.929688 Z M 87.867188 220.929688 "/>
<path style=" stroke:none;fill-rule:nonzero;fill:rgb(0%,0%,0%);fill-opacity:1;" d="M 113.945312 220.445312 C 114.867188 220.46875 115.597656 221.414062 115.453125 222.304688 C 115.359375 223.191406 114.523438 223.699219 113.929688 224.253906 L 113.675781 224.515625 L 113.644531 224.535156 L 113.328125 224.84375 L 113.304688 224.859375 L 112.984375 225.175781 L 112.953125 225.191406 L 112.882812 225.261719 L 112.898438 225.273438 L 115.46875 225.273438 L 115.46875 225.796875 L 112.328125 225.796875 L 112.328125 225.320312 L 113.605469 224.042969 C 114.214844 223.507812 114.929688 222.820312 114.820312 221.945312 C 114.753906 221.4375 114.328125 220.96875 113.804688 220.929688 C 113.269531 220.851562 112.804688 221.269531 112.683594 221.777344 L 112.667969 221.804688 L 112.652344 221.859375 L 112.628906 221.945312 L 112.582031 222.121094 L 112.574219 222.160156 C 112.460938 222.023438 112.34375 221.882812 112.253906 221.730469 C 112.414062 221.082031 112.9375 220.46875 113.628906 220.445312 Z M 113.945312 220.445312 Z M 113.945312 220.445312 "/>
<path style=" stroke:none;fill-rule:nonzero;fill:rgb(0%,0%,0%);fill-opacity:1;" d="M 117.3125 225.160156 L 117.3125 225.796875 L 116.667969 225.796875 L 116.667969 225.160156 Z M 117.3125 225.160156 Z M 117.3125 225.160156 "/>
<path style=" stroke:none;fill-rule:nonzero;fill:rgb(0%,0%,0%);fill-opacity:1;" d="M 121.375 220.613281 L 121.375 221.105469 L 119.3125 221.105469 L 119.296875 221.113281 L 119.296875 222.738281 C 119.484375 222.613281 119.753906 222.445312 120.011719 222.4375 C 120.90625 222.34375 121.597656 223.222656 121.636719 224.042969 C 121.765625 225.082031 120.789062 226.113281 119.738281 225.953125 C 119.214844 225.9375 118.707031 225.628906 118.40625 225.199219 C 118.492188 225.082031 118.566406 224.875 118.667969 224.804688 C 119.042969 225.535156 120.246094 225.828125 120.730469 225.058594 C 121.042969 224.476562 121.035156 223.738281 120.675781 223.183594 C 120.265625 222.652344 119.445312 222.976562 119.253906 223.542969 L 118.738281 223.542969 L 118.738281 220.613281 Z M 121.375 220.613281 Z M 121.375 220.613281 "/>
<path style=" stroke:none;fill-rule:nonzero;fill:rgb(0%,0%,0%);fill-opacity:1;" d="M 146.136719 220.445312 C 146.832031 220.476562 147.5625 221.121094 147.398438 221.859375 C 147.316406 222.359375 146.96875 222.769531 146.53125 222.992188 C 147.238281 223.214844 147.785156 223.960938 147.59375 224.699219 C 147.40625 225.660156 146.300781 226.191406 145.414062 225.898438 C 144.984375 225.773438 144.546875 225.5 144.339844 225.105469 C 144.390625 224.984375 144.375 224.78125 144.429688 224.699219 C 144.847656 225.320312 145.738281 225.738281 146.4375 225.390625 C 147.199219 224.90625 147.078125 223.492188 146.160156 223.253906 L 146.085938 223.253906 L 146.070312 223.238281 L 145.332031 223.238281 L 145.332031 222.761719 C 145.785156 222.753906 146.347656 222.699219 146.605469 222.230469 C 146.875 221.828125 146.847656 221.160156 146.332031 220.960938 C 145.722656 220.722656 144.96875 221.113281 144.738281 221.730469 C 144.644531 221.597656 144.546875 221.460938 144.453125 221.320312 C 144.777344 220.730469 145.46875 220.382812 146.136719 220.445312 Z M 146.136719 220.445312 Z M 146.136719 220.445312 "/>
<path style=" stroke:none;fill-rule:nonzero;fill:rgb(0%,0%,0%);fill-opacity:1;" d="M 149.398438 225.160156 L 149.398438 225.796875 L 148.753906 225.796875 L 148.753906 225.160156 Z M 149.398438 225.160156 Z M 149.398438 225.160156 "/>
<path style=" stroke:none;fill-rule:nonzero;fill:rgb(0%,0%,0%);fill-opacity:1;" d="M 152.285156 220.445312 C 153.039062 220.5 153.539062 221.191406 153.675781 221.890625 C 153.746094 222.207031 153.761719 222.507812 153.792969 222.828125 L 153.792969 223.636719 C 153.753906 224.460938 153.554688 225.550781 152.660156 225.882812 C 151.882812 226.191406 150.96875 225.707031 150.738281 224.914062 C 150.5625 224.492188 150.546875 224.066406 150.507812 223.636719 L 150.507812 222.828125 C 150.546875 222 150.722656 220.90625 151.613281 220.542969 L 151.652344 220.523438 L 151.683594 220.515625 L 151.722656 220.5 L 151.84375 220.46875 L 151.914062 220.453125 L 152 220.453125 L 152.015625 220.445312 Z M 152.285156 220.445312 Z M 152.039062 220.929688 C 151.375 221.007812 151.175781 221.8125 151.128906 222.351562 L 151.128906 222.566406 L 151.113281 222.582031 L 151.113281 223.683594 C 151.160156 224.253906 151.199219 224.992188 151.722656 225.375 C 152.207031 225.707031 152.851562 225.335938 152.984375 224.820312 C 153.128906 224.4375 153.160156 224.066406 153.191406 223.683594 L 153.191406 222.582031 C 153.144531 222 153.0625 221.191406 152.398438 220.960938 L 152.34375 220.945312 L 152.324219 220.929688 L 152.253906 220.929688 L 152.238281 220.914062 L 152.054688 220.914062 Z M 152.039062 220.929688 Z M 152.039062 220.929688 "/>
<path style=" stroke:none;fill-rule:nonzero;fill:rgb(0%,0%,0%);fill-opacity:1;" d="M 178.222656 220.445312 C 178.917969 220.476562 179.648438 221.121094 179.484375 221.859375 C 179.402344 222.359375 179.054688 222.769531 178.617188 222.992188 C 179.324219 223.214844 179.871094 223.960938 179.683594 224.699219 C 179.492188 225.660156 178.386719 226.191406 177.5 225.898438 C 177.070312 225.773438 176.632812 225.5 176.425781 225.105469 C 176.476562 224.984375 176.460938 224.78125 176.515625 224.699219 C 176.9375 225.320312 177.824219 225.738281 178.523438 225.390625 C 179.285156 224.90625 179.164062 223.492188 178.246094 223.253906 L 178.171875 223.253906 L 178.15625 223.238281 L 177.417969 223.238281 L 177.417969 222.761719 C 177.871094 222.753906 178.4375 222.699219 178.691406 222.230469 C 178.960938 221.828125 178.9375 221.160156 178.417969 220.960938 C 177.808594 220.722656 177.054688 221.113281 176.824219 221.730469 C 176.730469 221.597656 176.632812 221.460938 176.539062 221.320312 C 176.863281 220.730469 177.554688 220.382812 178.222656 220.445312 Z M 178.222656 220.445312 Z M 178.222656 220.445312 "/>
<path style=" stroke:none;fill-rule:nonzero;fill:rgb(0%,0%,0%);fill-opacity:1;" d="M 181.484375 225.160156 L 181.484375 225.796875 L 180.839844 225.796875 L 180.839844 225.160156 Z M 181.484375 225.160156 Z M 181.484375 225.160156 "/>
<path style=" stroke:none;fill-rule:nonzero;fill:rgb(0%,0%,0%);fill-opacity:1;" d="M 185.546875 220.613281 L 185.546875 221.105469 L 183.484375 221.105469 L 183.46875 221.113281 L 183.46875 222.738281 C 183.660156 222.613281 183.929688 222.445312 184.183594 222.4375 C 185.078125 222.34375 185.769531 223.222656 185.808594 224.042969 C 185.9375 225.082031 184.960938 226.113281 183.914062 225.953125 C 183.386719 225.9375 182.878906 225.628906 182.578125 225.199219 C 182.667969 225.082031 182.738281 224.875 182.839844 224.804688 C 183.214844 225.535156 184.421875 225.828125 184.90625 225.058594 C 185.214844 224.476562 185.207031 223.738281 184.847656 223.183594 C 184.4375 222.652344 183.617188 222.976562 183.429688 223.542969 L 182.914062 223.542969 L 182.914062 220.613281 Z M 185.546875 220.613281 Z M 185.546875 220.613281 "/>
<path style=" stroke:none;fill-rule:nonzero;fill:rgb(0%,0%,0%);fill-opacity:1;" d="M 211.109375 220.613281 L 211.109375 223.953125 L 211.125 223.96875 L 211.910156 223.96875 L 211.910156 224.445312 L 211.125 224.445312 L 211.109375 224.453125 L 211.109375 225.796875 L 210.507812 225.796875 L 210.507812 224.453125 L 210.488281 224.445312 L 208.394531 224.445312 L 208.394531 223.953125 C 209.0625 222.84375 209.726562 221.722656 210.394531 220.613281 Z M 211.109375 220.613281 Z M 210.523438 220.914062 C 210.363281 221.738281 209.855469 222.445312 209.472656 223.167969 C 209.324219 223.429688 209.125 223.714844 209.015625 223.96875 L 210.539062 223.96875 L 210.546875 223.953125 L 210.546875 220.914062 L 210.539062 220.898438 Z M 210.523438 220.914062 Z M 210.523438 220.914062 "/>
<path style=" stroke:none;fill-rule:nonzero;fill:rgb(0%,0%,0%);fill-opacity:1;" d="M 213.570312 225.160156 L 213.570312 225.796875 L 212.925781 225.796875 L 212.925781 225.160156 Z M 213.570312 225.160156 Z M 213.570312 225.160156 "/>
<path style=" stroke:none;fill-rule:nonzero;fill:rgb(0%,0%,0%);fill-opacity:1;" d="M 216.457031 220.445312 C 217.210938 220.5 217.710938 221.191406 217.847656 221.890625 C 217.917969 222.207031 217.933594 222.507812 217.964844 222.828125 L 217.964844 223.636719 C 217.925781 224.460938 217.730469 225.550781 216.832031 225.882812 C 216.054688 226.191406 215.140625 225.707031 214.910156 224.914062 C 214.738281 224.492188 214.71875 224.066406 214.679688 223.636719 L 214.679688 222.828125 C 214.71875 222 214.894531 220.90625 215.785156 220.542969 L 215.824219 220.523438 L 215.855469 220.515625 L 215.894531 220.5 L 216.015625 220.46875 L 216.085938 220.453125 L 216.171875 220.453125 L 216.1875 220.445312 Z M 216.457031 220.445312 Z M 216.210938 220.929688 C 215.546875 221.007812 215.347656 221.8125 215.300781 222.351562 L 215.300781 222.566406 L 215.285156 222.582031 L 215.285156 223.683594 C 215.332031 224.253906 215.371094 224.992188 215.894531 225.375 C 216.378906 225.707031 217.023438 225.335938 217.15625 224.820312 C 217.300781 224.4375 217.332031 224.066406 217.363281 223.683594 L 217.363281 222.582031 C 217.316406 222 217.238281 221.191406 216.570312 220.960938 L 216.515625 220.945312 L 216.5 220.929688 L 216.425781 220.929688 L 216.410156 220.914062 L 216.230469 220.914062 Z M 216.210938 220.929688 Z M 216.210938 220.929688 "/>
<path style=" stroke:none;fill-rule:nonzero;fill:rgb(0%,0%,0%);fill-opacity:1;" d="M 243.195312 220.613281 L 243.195312 223.953125 L 243.210938 223.96875 L 243.996094 223.96875 L 243.996094 224.445312 L 243.210938 224.445312 L 243.195312 224.453125 L 243.195312 225.796875 L 242.59375 225.796875 L 242.59375 224.453125 L 242.578125 224.445312 L 240.480469 224.445312 L 240.480469 223.953125 C 241.148438 222.84375 241.8125 221.722656 242.480469 220.613281 Z M 243.195312 220.613281 Z M 242.609375 220.914062 C 242.449219 221.738281 241.941406 222.445312 241.558594 223.167969 C 241.410156 223.429688 241.210938 223.714844 241.101562 223.96875 L 242.625 223.96875 L 242.632812 223.953125 L 242.632812 220.914062 L 242.625 220.898438 Z M 242.609375 220.914062 Z M 242.609375 220.914062 "/>
<path style=" stroke:none;fill-rule:nonzero;fill:rgb(0%,0%,0%);fill-opacity:1;" d="M 245.65625 225.160156 L 245.65625 225.796875 L 245.011719 225.796875 L 245.011719 225.160156 Z M 245.65625 225.160156 Z M 245.65625 225.160156 "/>
<path style=" stroke:none;fill-rule:nonzero;fill:rgb(0%,0%,0%);fill-opacity:1;" d="M 249.71875 220.613281 L 249.71875 221.105469 L 247.65625 221.105469 L 247.640625 221.113281 L 247.640625 222.738281 C 247.832031 222.613281 248.101562 222.445312 248.355469 222.4375 C 249.25 222.34375 249.941406 223.222656 249.980469 224.042969 C 250.109375 225.082031 249.132812 226.113281 248.085938 225.953125 C 247.5625 225.9375 247.050781 225.628906 246.75 225.199219 C 246.839844 225.082031 246.910156 224.875 247.011719 224.804688 C 247.386719 225.535156 248.59375 225.828125 249.078125 225.058594 C 249.386719 224.476562 249.378906 223.738281 249.019531 223.183594 C 248.609375 222.652344 247.789062 222.976562 247.601562 223.542969 L 247.085938 223.542969 L 247.085938 220.613281 Z M 249.71875 220.613281 Z M 249.71875 220.613281 "/>
<path style=" stroke:none;fill-rule:nonzero;fill:rgb(0%,0%,0%);fill-opacity:1;" d="M 275.636719 220.613281 L 275.636719 221.105469 L 273.574219 221.105469 L 273.558594 221.113281 L 273.558594 222.738281 C 273.75 222.613281 274.019531 222.445312 274.273438 222.4375 C 275.171875 222.34375 275.859375 223.222656 275.902344 224.042969 C 276.027344 225.082031 275.050781 226.113281 274.003906 225.953125 C 273.480469 225.9375 272.972656 225.628906 272.671875 225.199219 C 272.757812 225.082031 272.828125 224.875 272.933594 224.804688 C 273.304688 225.535156 274.511719 225.828125 274.996094 225.058594 C 275.304688 224.476562 275.296875 223.738281 274.941406 223.183594 C 274.527344 222.652344 273.710938 222.976562 273.519531 223.542969 L 273.003906 223.542969 L 273.003906 220.613281 Z M 275.636719 220.613281 Z M 275.636719 220.613281 "/>
<path style=" stroke:none;fill-rule:nonzero;fill:rgb(0%,0%,0%);fill-opacity:1;" d="M 277.742188 225.160156 L 277.742188 225.796875 L 277.097656 225.796875 L 277.097656 225.160156 Z M 277.742188 225.160156 Z M 277.742188 225.160156 "/>
<path style=" stroke:none;fill-rule:nonzero;fill:rgb(0%,0%,0%);fill-opacity:1;" d="M 280.632812 220.445312 C 281.386719 220.5 281.886719 221.191406 282.019531 221.890625 C 282.089844 222.207031 282.105469 222.507812 282.140625 222.828125 L 282.140625 223.636719 C 282.097656 224.460938 281.902344 225.550781 281.003906 225.882812 C 280.226562 226.191406 279.3125 225.707031 279.082031 224.914062 C 278.910156 224.492188 278.894531 224.066406 278.851562 223.636719 L 278.851562 222.828125 C 278.894531 222 279.066406 220.90625 279.957031 220.542969 L 279.996094 220.523438 L 280.027344 220.515625 L 280.066406 220.5 L 280.1875 220.46875 L 280.257812 220.453125 L 280.34375 220.453125 L 280.359375 220.445312 Z M 280.632812 220.445312 Z M 280.386719 220.929688 C 279.71875 221.007812 279.519531 221.8125 279.472656 222.351562 L 279.472656 222.566406 L 279.457031 222.582031 L 279.457031 223.683594 C 279.503906 224.253906 279.542969 224.992188 280.066406 225.375 C 280.550781 225.707031 281.195312 225.335938 281.328125 224.820312 C 281.472656 224.4375 281.503906 224.066406 281.535156 223.683594 L 281.535156 222.582031 C 281.488281 222 281.410156 221.191406 280.742188 220.960938 L 280.6875 220.945312 L 280.671875 220.929688 L 280.597656 220.929688 L 280.582031 220.914062 L 280.402344 220.914062 Z M 280.386719 220.929688 Z M 280.386719 220.929688 "/>
<path style="fill:none;stroke-width:0.02;stroke-linecap:butt;stroke-linejoin:miter;stroke:rgb(0%,0%,0%);stroke-opacity:1;stroke-miterlimit:10;" d="M 1.827692 7.838356 L 1.827692 7.73335 " transform="matrix(28.346457,0,0,-28.346457,1,227.771654)"/>
<path style="fill:none;stroke-width:0.02;stroke-linecap:butt;stroke-linejoin:miter;stroke:rgb(0%,0%,0%);stroke-opacity:1;stroke-miterlimit:10;" d="M 2.959613 7.838356 L 2.959613 7.73335 " transform="matrix(28.346457,0,0,-28.346457,1,227.771654)"/>
<path style="fill:none;stroke-width:0.02;stroke-linecap:butt;stroke-linejoin:miter;stroke:rgb(0%,0%,0%);stroke-opacity:1;stroke-miterlimit:10;" d="M 4.091533 7.838356 L 4.091533 7.73335 " transform="matrix(28.346457,0,0,-28.346457,1,227.771654)"/>
<path style="fill:none;stroke-width:0.02;stroke-linecap:butt;stroke-linejoin:miter;stroke:rgb(0%,0%,0%);stroke-opacity:1;stroke-miterlimit:10;" d="M 5.223454 7.838356 L 5.223454 7.73335 " transform="matrix(28.346457,0,0,-28.346457,1,227.771654)"/>
<path style="fill:none;stroke-width:0.02;stroke-linecap:butt;stroke-linejoin:miter;stroke:rgb(0%,0%,0%);stroke-opacity:1;stroke-miterlimit:10;" d="M 6.355374 7.838356 L 6.355374 7.73335 " transform="matrix(28.346457,0,0,-28.346457,1,227.771654)"/>
<path style="fill:none;stroke-width:0.02;stroke-linecap:butt;stroke-linejoin:miter;stroke:rgb(0%,0%,0%);stroke-opacity:1;stroke-miterlimit:10;" d="M 7.487433 7.838356 L 7.487433 7.73335 " transform="matrix(28.346457,0,0,-28.346457,1,227.771654)"/>
<path style="fill:none;stroke-width:0.02;stroke-linecap:butt;stroke-linejoin:miter;stroke:rgb(0%,0%,0%);stroke-opacity:1;stroke-miterlimit:10;" d="M 8.619353 7.838356 L 8.619353 7.73335 " transform="matrix(28.346457,0,0,-28.346457,1,227.771654)"/>
<path style="fill:none;stroke-width:0.02;stroke-linecap:round;stroke-linejoin:miter;stroke:rgb(0%,0%,0%);stroke-opacity:1;stroke-miterlimit:10;" d="M 0.695771 7.838356 L 9.751274 7.838356 " transform="matrix(28.346457,0,0,-28.346457,1,227.771654)"/>
<path style="fill:none;stroke-width:0.02;stroke-linecap:butt;stroke-linejoin:miter;stroke:rgb(32.941176%,47.058824%,63.921569%);stroke-opacity:1;stroke-miterlimit:10;" d="M 0.695771 3.379989 L 2.959613 0.785005 L 5.223454 3.457986 L 7.487433 5.798446 L 9.751274 7.248831 " transform="matrix(28.346457,0,0,-28.346457,1,227.771654)"/>
</g>
</svg>
