<?xml version="1.0" encoding="UTF-8"?>
<svg xmlns="http://www.w3.org/2000/svg" xmlns:xlink="http://www.w3.org/1999/xlink" width="285.464567pt" height="228.771654pt" viewBox="0 0 285.464567 228.771654" version="1.1">
<g id="surface1">
<path style="fill:none;stroke-width:0.02;stroke-linecap:butt;stroke-linejoin:miter;stroke:rgb(0%,0%,0%);stroke-opacity:1;stroke-miterlimit:10;" d="M 0.695771 1.16934 L 0.800778 1.16934 " transform="matrix(28.346457,0,0,-28.346457,1,227.771654)"/>
<path style="fill:none;stroke-width:0.02;stroke-linecap:butt;stroke-linejoin:miter;stroke:rgb(0%,0%,0%);stroke-opacity:1;stroke-miterlimit:10;" d="M 0.695771 1.910311 L 0.800778 1.910311 " transform="matrix(28.346457,0,0,-28.346457,1,227.771654)"/>
<path style="fill:none;stroke-width:0.02;stroke-linecap:butt;stroke-linejoin:miter;stroke:rgb(0%,0%,0%);stroke-opacity:1;stroke-miterlimit:10;" d="M 0.695771 2.65142 L 0.800778 2.65142 " transform="matrix(28.346457,0,0,-28.346457,1,227.771654)"/>
<path style="fill:none;stroke-width:0.02;stroke-linecap:butt;stroke-linejoin:miter;stroke:rgb(0%,0%,0%);stroke-opacity:1;stroke-miterlimit:10;" d="M 0.695771 3.392391 L 0.800778 3.392391 " transform="matrix(28.346457,0,0,-28.346457,1,227.771654)"/>
<path style="fill:none;stroke-width:0.02;stroke-linecap:butt;stroke-linejoin:miter;stroke:rgb(0%,0%,0%);stroke-opacity:1;stroke-miterlimit:10;" d="M 0.695771 4.133363 L 0.800778 4.133363 " transform="matrix(28.346457,0,0,-28.346457,1,227.771654)"/>
<path style="fill:none;stroke-width:0.02;stroke-linecap:butt;stroke-linejoin:miter;stroke:rgb(0%,0%,0%);stroke-opacity:1;stroke-miterlimit:10;" d="M 0.695771 4.874334 L 0.800778 4.874334 " transform="matrix(28.346457,0,0,-28.346457,1,227.771654)"/>
<path style="fill:none;stroke-width:0.02;stroke-linecap:butt;stroke-linejoin:miter;stroke:rgb(0%,0%,0%);stroke-opacity:1;stroke-miterlimit:10;" d="M 0.695771 5.615305 L 0.800778 5.615305 " transform="matrix(28.346457,0,0,-28.346457,1,227.771654)"/>
<path style="fill:none;stroke-width:0.02;stroke-linecap:butt;stroke-linejoin:miter;stroke:rgb(0%,0%,0%);stroke-opacity:1;stroke-miterlimit:10;" d="M 0.695771 6.356276 L 0.800778 6.356276 " transform="matrix(28.346457,0,0,-28.346457,1,227.771654)"/>
<path style="fill:none;stroke-width:0.02;stroke-linecap:butt;stroke-linejoin:miter;stroke:rgb(0%,0%,0%);stroke-opacity:1;stroke-miterlimit:10;" d="M 0.695771 7.097247 L 0.800778 7.097247 " transform="matrix(28.346457,0,0,-28.346457,1,227.771654)"/>
<path style="fill:none;stroke-width:0.02;stroke-linecap:round;stroke-linejoin:miter;stroke:rgb(0%,0%,0%);stroke-opacity:1;stroke-miterlimit:10;" d="M 0.695771 0.428369 L 0.695771 7.838356 " transform="matrix(28.346457,0,0,-28.346457,1,227.771654)"/>
<path style=" stroke:none;fill-rule:nonzero;fill:rgb(0%,0%,0%);fill-opacity:1;" d="M 5.160156 216.265625 L 5.160156 216.710938 L 3.078125 216.710938 L 3.078125 216.265625 Z M 5.160156 216.265625 Z M 5.160156 216.265625 "/>
<path style=" stroke:none;fill-rule:nonzero;fill:rgb(0%,0%,0%);fill-opacity:1;" d="M 7.992188 212.886719 L 7.992188 217.78125 L 8 217.796875 L 8.976562 217.796875 L 8.976562 218.234375 L 6.398438 218.234375 L 6.398438 217.796875 L 7.375 217.796875 L 7.390625 217.78125 L 7.390625 213.671875 C 7.054688 213.78125 6.707031 213.855469 6.359375 213.847656 L 6.359375 213.402344 C 6.882812 213.410156 7.453125 213.265625 7.851562 212.886719 Z M 7.992188 212.886719 Z M 7.992188 212.886719 "/>
<path style=" stroke:none;fill-rule:nonzero;fill:rgb(0%,0%,0%);fill-opacity:1;" d="M 11.023438 217.601562 L 11.023438 218.234375 L 10.382812 218.234375 L 10.382812 217.601562 Z M 11.023438 217.601562 Z M 11.023438 217.601562 "/>
<path style=" stroke:none;fill-rule:nonzero;fill:rgb(0%,0%,0%);fill-opacity:1;" d="M 13.914062 212.886719 C 14.667969 212.941406 15.167969 213.632812 15.300781 214.332031 C 15.375 214.648438 15.390625 214.949219 15.421875 215.265625 L 15.421875 216.078125 C 15.382812 216.902344 15.183594 217.988281 14.285156 218.324219 C 13.507812 218.632812 12.597656 218.148438 12.367188 217.355469 C 12.191406 216.933594 12.175781 216.503906 12.136719 216.078125 L 12.136719 215.265625 C 12.175781 214.441406 12.351562 213.347656 13.238281 212.980469 L 13.277344 212.964844 L 13.308594 212.957031 L 13.351562 212.941406 L 13.46875 212.910156 L 13.539062 212.894531 L 13.628906 212.894531 L 13.644531 212.886719 Z M 13.914062 212.886719 Z M 13.667969 213.371094 C 13 213.449219 12.800781 214.25 12.753906 214.789062 L 12.753906 215.003906 L 12.738281 215.019531 L 12.738281 216.125 C 12.785156 216.695312 12.824219 217.433594 13.351562 217.816406 C 13.835938 218.148438 14.476562 217.773438 14.613281 217.257812 C 14.753906 216.878906 14.785156 216.503906 14.816406 216.125 L 14.816406 215.019531 C 14.769531 214.441406 14.691406 213.632812 14.023438 213.402344 L 13.96875 213.386719 L 13.953125 213.371094 L 13.882812 213.371094 L 13.867188 213.355469 L 13.683594 213.355469 Z M 13.667969 213.371094 Z M 13.667969 213.371094 "/>
<path style=" stroke:none;fill-rule:nonzero;fill:rgb(0%,0%,0%);fill-opacity:1;" d="M 5.160156 195.261719 L 5.160156 195.707031 L 3.078125 195.707031 L 3.078125 195.261719 Z M 5.160156 195.261719 Z M 5.160156 195.261719 "/>
<path style=" stroke:none;fill-rule:nonzero;fill:rgb(0%,0%,0%);fill-opacity:1;" d="M 7.746094 191.882812 C 8.5 191.9375 9 192.628906 9.136719 193.324219 C 9.207031 193.644531 9.222656 193.945312 9.253906 194.261719 L 9.253906 195.070312 C 9.214844 195.898438 9.015625 196.984375 8.121094 197.316406 C 7.339844 197.628906 6.429688 197.144531 6.199219 196.351562 C 6.023438 195.929688 6.007812 195.5 5.96875 195.070312 L 5.96875 194.261719 C 6.007812 193.4375 6.183594 192.339844 7.070312 191.976562 L 7.113281 191.960938 L 7.144531 191.953125 L 7.183594 191.9375 L 7.300781 191.90625 L 7.375 191.890625 L 7.460938 191.890625 L 7.476562 191.882812 Z M 7.746094 191.882812 Z M 7.5 192.367188 C 6.832031 192.445312 6.636719 193.246094 6.585938 193.785156 L 6.585938 194 L 6.570312 194.015625 L 6.570312 195.121094 C 6.621094 195.691406 6.660156 196.429688 7.183594 196.808594 C 7.667969 197.144531 8.308594 196.769531 8.445312 196.253906 C 8.585938 195.875 8.621094 195.5 8.652344 195.121094 L 8.652344 194.015625 C 8.605469 193.4375 8.523438 192.628906 7.859375 192.398438 L 7.800781 192.382812 L 7.785156 192.367188 L 7.714844 192.367188 L 7.699219 192.351562 L 7.515625 192.351562 Z M 7.5 192.367188 Z M 7.5 192.367188 "/>
<path style=" stroke:none;fill-rule:nonzero;fill:rgb(0%,0%,0%);fill-opacity:1;" d="M 11.023438 196.597656 L 11.023438 197.230469 L 10.382812 197.230469 L 10.382812 196.597656 Z M 11.023438 196.597656 Z M 11.023438 196.597656 "/>
<path style=" stroke:none;fill-rule:nonzero;fill:rgb(0%,0%,0%);fill-opacity:1;" d="M 13.929688 191.882812 C 14.769531 191.914062 15.5625 192.816406 15.230469 193.660156 C 15.089844 194.046875 14.691406 194.285156 14.367188 194.453125 C 15.175781 194.691406 15.667969 195.636719 15.300781 196.414062 C 14.921875 197.421875 13.476562 197.738281 12.683594 197.007812 C 11.960938 196.4375 11.9375 195.199219 12.738281 194.691406 C 12.859375 194.5625 13.082031 194.523438 13.183594 194.429688 C 12.492188 194.230469 12.023438 193.429688 12.351562 192.753906 C 12.613281 192.152344 13.285156 191.816406 13.929688 191.882812 Z M 13.929688 191.882812 Z M 13.628906 192.332031 C 13.039062 192.351562 12.628906 193.015625 12.824219 193.539062 C 13.054688 194.445312 14.574219 194.414062 14.746094 193.484375 C 14.90625 192.96875 14.492188 192.351562 13.929688 192.332031 L 13.914062 192.324219 L 13.644531 192.324219 Z M 13.628906 192.332031 Z M 13.644531 194.691406 C 12.953125 194.738281 12.613281 195.5625 12.792969 196.152344 C 12.914062 196.984375 14.105469 197.230469 14.574219 196.5625 C 15.023438 195.953125 14.800781 194.859375 13.984375 194.691406 L 13.914062 194.691406 L 13.898438 194.675781 L 13.652344 194.675781 Z M 13.644531 194.691406 Z M 13.644531 194.691406 "/>
<path style=" stroke:none;fill-rule:nonzero;fill:rgb(0%,0%,0%);fill-opacity:1;" d="M 5.160156 174.257812 L 5.160156 174.703125 L 3.078125 174.703125 L 3.078125 174.257812 Z M 5.160156 174.257812 Z M 5.160156 174.257812 "/>
<path style=" stroke:none;fill-rule:nonzero;fill:rgb(0%,0%,0%);fill-opacity:1;" d="M 7.746094 170.875 C 8.5 170.933594 9 171.621094 9.136719 172.320312 C 9.207031 172.640625 9.222656 172.941406 9.253906 173.257812 L 9.253906 174.066406 C 9.214844 174.894531 9.015625 175.980469 8.121094 176.3125 C 7.339844 176.625 6.429688 176.140625 6.199219 175.34375 C 6.023438 174.925781 6.007812 174.496094 5.96875 174.066406 L 5.96875 173.257812 C 6.007812 172.433594 6.183594 171.335938 7.070312 170.972656 L 7.113281 170.957031 L 7.144531 170.949219 L 7.183594 170.933594 L 7.300781 170.902344 L 7.375 170.886719 L 7.460938 170.886719 L 7.476562 170.875 Z M 7.746094 170.875 Z M 7.5 171.359375 C 6.832031 171.441406 6.636719 172.242188 6.585938 172.78125 L 6.585938 172.996094 L 6.570312 173.011719 L 6.570312 174.113281 C 6.621094 174.6875 6.660156 175.425781 7.183594 175.804688 C 7.667969 176.140625 8.308594 175.765625 8.445312 175.25 C 8.585938 174.871094 8.621094 174.496094 8.652344 174.113281 L 8.652344 173.011719 C 8.605469 172.433594 8.523438 171.621094 7.859375 171.394531 L 7.800781 171.375 L 7.785156 171.359375 L 7.714844 171.359375 L 7.699219 171.34375 L 7.515625 171.34375 Z M 7.5 171.359375 Z M 7.5 171.359375 "/>
<path style=" stroke:none;fill-rule:nonzero;fill:rgb(0%,0%,0%);fill-opacity:1;" d="M 11.023438 175.589844 L 11.023438 176.226562 L 10.382812 176.226562 L 10.382812 175.589844 Z M 11.023438 175.589844 Z M 11.023438 175.589844 "/>
<path style=" stroke:none;fill-rule:nonzero;fill:rgb(0%,0%,0%);fill-opacity:1;" d="M 14.429688 170.875 C 14.636719 170.910156 14.875 170.933594 15.074219 171.027344 L 15.074219 171.488281 C 14.523438 171.25 13.808594 171.21875 13.382812 171.703125 C 13 172.105469 12.824219 172.710938 12.808594 173.242188 C 13.269531 172.632812 14.308594 172.289062 14.875 172.925781 C 15.4375 173.574219 15.53125 174.511719 15.277344 175.304688 C 15 175.941406 14.359375 176.519531 13.644531 176.386719 C 12.675781 176.304688 12.238281 175.226562 12.191406 174.402344 C 12.007812 173.234375 12.285156 171.765625 13.398438 171.097656 L 13.414062 171.089844 L 13.582031 171.003906 L 13.628906 170.988281 L 13.652344 170.972656 L 13.785156 170.933594 L 13.898438 170.902344 L 13.96875 170.886719 L 14.054688 170.886719 L 14.070312 170.875 Z M 14.429688 170.875 Z M 13.652344 173.082031 C 12.960938 173.203125 12.738281 174.035156 12.824219 174.597656 C 12.867188 175.132812 13.070312 175.835938 13.683594 175.949219 C 14.335938 176.035156 14.753906 175.335938 14.769531 174.773438 C 14.800781 174.203125 14.769531 173.550781 14.269531 173.179688 L 14.160156 173.125 L 14.070312 173.097656 L 14 173.082031 L 13.984375 173.066406 L 13.667969 173.066406 Z M 13.652344 173.082031 Z M 13.652344 173.082031 "/>
<path style=" stroke:none;fill-rule:nonzero;fill:rgb(0%,0%,0%);fill-opacity:1;" d="M 5.160156 153.253906 L 5.160156 153.699219 L 3.078125 153.699219 L 3.078125 153.253906 Z M 5.160156 153.253906 Z M 5.160156 153.253906 "/>
<path style=" stroke:none;fill-rule:nonzero;fill:rgb(0%,0%,0%);fill-opacity:1;" d="M 7.746094 149.871094 C 8.5 149.929688 9 150.617188 9.136719 151.316406 C 9.207031 151.632812 9.222656 151.9375 9.253906 152.253906 L 9.253906 153.0625 C 9.214844 153.886719 9.015625 154.976562 8.121094 155.308594 C 7.339844 155.617188 6.429688 155.132812 6.199219 154.339844 C 6.023438 153.921875 6.007812 153.492188 5.96875 153.0625 L 5.96875 152.253906 C 6.007812 151.429688 6.183594 150.332031 7.070312 149.96875 L 7.113281 149.953125 L 7.144531 149.945312 L 7.183594 149.929688 L 7.300781 149.894531 L 7.375 149.878906 L 7.460938 149.878906 L 7.476562 149.871094 Z M 7.746094 149.871094 Z M 7.5 150.355469 C 6.832031 150.4375 6.636719 151.238281 6.585938 151.777344 L 6.585938 151.992188 L 6.570312 152.007812 L 6.570312 153.109375 C 6.621094 153.683594 6.660156 154.421875 7.183594 154.800781 C 7.667969 155.132812 8.308594 154.761719 8.445312 154.246094 C 8.585938 153.863281 8.621094 153.492188 8.652344 153.109375 L 8.652344 152.007812 C 8.605469 151.429688 8.523438 150.617188 7.859375 150.386719 L 7.800781 150.371094 L 7.785156 150.355469 L 7.714844 150.355469 L 7.699219 150.339844 L 7.515625 150.339844 Z M 7.5 150.355469 Z M 7.5 150.355469 "/>
<path style=" stroke:none;fill-rule:nonzero;fill:rgb(0%,0%,0%);fill-opacity:1;" d="M 11.023438 154.585938 L 11.023438 155.222656 L 10.382812 155.222656 L 10.382812 154.585938 Z M 11.023438 154.585938 Z M 11.023438 154.585938 "/>
<path style=" stroke:none;fill-rule:nonzero;fill:rgb(0%,0%,0%);fill-opacity:1;" d="M 14.730469 150.039062 L 14.730469 153.378906 L 14.746094 153.398438 L 15.53125 153.398438 L 15.53125 153.871094 L 14.746094 153.871094 L 14.730469 153.878906 L 14.730469 155.222656 L 14.128906 155.222656 L 14.128906 153.878906 L 14.113281 153.871094 L 12.015625 153.871094 L 12.015625 153.378906 C 12.683594 152.269531 13.351562 151.148438 14.015625 150.039062 Z M 14.730469 150.039062 Z M 14.144531 150.339844 C 13.984375 151.167969 13.476562 151.871094 13.097656 152.59375 C 12.945312 152.855469 12.746094 153.140625 12.636719 153.398438 L 14.160156 153.398438 L 14.167969 153.378906 L 14.167969 150.339844 L 14.160156 150.324219 Z M 14.144531 150.339844 Z M 14.144531 150.339844 "/>
<path style=" stroke:none;fill-rule:nonzero;fill:rgb(0%,0%,0%);fill-opacity:1;" d="M 5.160156 132.25 L 5.160156 132.695312 L 3.078125 132.695312 L 3.078125 132.25 Z M 5.160156 132.25 Z M 5.160156 132.25 "/>
<path style=" stroke:none;fill-rule:nonzero;fill:rgb(0%,0%,0%);fill-opacity:1;" d="M 7.746094 128.867188 C 8.5 128.921875 9 129.613281 9.136719 130.3125 C 9.207031 130.628906 9.222656 130.933594 9.253906 131.25 L 9.253906 132.058594 C 9.214844 132.882812 9.015625 133.972656 8.121094 134.304688 C 7.339844 134.613281 6.429688 134.128906 6.199219 133.335938 C 6.023438 132.914062 6.007812 132.488281 5.96875 132.058594 L 5.96875 131.25 C 6.007812 130.421875 6.183594 129.328125 7.070312 128.964844 L 7.113281 128.949219 L 7.144531 128.941406 L 7.183594 128.921875 L 7.300781 128.890625 L 7.375 128.875 L 7.460938 128.875 L 7.476562 128.867188 Z M 7.746094 128.867188 Z M 7.5 129.351562 C 6.832031 129.429688 6.636719 130.234375 6.585938 130.773438 L 6.585938 130.988281 L 6.570312 131.003906 L 6.570312 132.105469 C 6.621094 132.679688 6.660156 133.414062 7.183594 133.796875 C 7.667969 134.128906 8.308594 133.757812 8.445312 133.242188 C 8.585938 132.859375 8.621094 132.488281 8.652344 132.105469 L 8.652344 131.003906 C 8.605469 130.421875 8.523438 129.613281 7.859375 129.382812 L 7.800781 129.367188 L 7.785156 129.351562 L 7.714844 129.351562 L 7.699219 129.335938 L 7.515625 129.335938 Z M 7.5 129.351562 Z M 7.5 129.351562 "/>
<path style=" stroke:none;fill-rule:nonzero;fill:rgb(0%,0%,0%);fill-opacity:1;" d="M 11.023438 133.582031 L 11.023438 134.21875 L 10.382812 134.21875 L 10.382812 133.582031 Z M 11.023438 133.582031 Z M 11.023438 133.582031 "/>
<path style=" stroke:none;fill-rule:nonzero;fill:rgb(0%,0%,0%);fill-opacity:1;" d="M 13.828125 128.867188 C 14.746094 128.890625 15.476562 129.835938 15.335938 130.726562 C 15.238281 131.613281 14.40625 132.121094 13.808594 132.679688 L 13.554688 132.941406 L 13.523438 132.957031 L 13.207031 133.265625 L 13.183594 133.28125 L 12.867188 133.597656 L 12.835938 133.613281 L 12.761719 133.6875 L 12.777344 133.695312 L 15.351562 133.695312 L 15.351562 134.21875 L 12.207031 134.21875 L 12.207031 133.742188 L 13.484375 132.464844 C 14.097656 131.933594 14.808594 131.242188 14.699219 130.367188 C 14.636719 129.859375 14.207031 129.390625 13.683594 129.351562 C 13.152344 129.273438 12.683594 129.695312 12.5625 130.203125 L 12.546875 130.226562 L 12.53125 130.28125 L 12.507812 130.367188 L 12.460938 130.542969 L 12.453125 130.582031 C 12.34375 130.449219 12.222656 130.304688 12.136719 130.152344 C 12.292969 129.503906 12.816406 128.890625 13.507812 128.867188 Z M 13.828125 128.867188 Z M 13.828125 128.867188 "/>
<path style=" stroke:none;fill-rule:nonzero;fill:rgb(0%,0%,0%);fill-opacity:1;" d="M 7.746094 107.863281 C 8.5 107.917969 9 108.609375 9.136719 109.308594 C 9.207031 109.625 9.222656 109.925781 9.253906 110.246094 L 9.253906 111.054688 C 9.214844 111.878906 9.015625 112.96875 8.121094 113.300781 C 7.339844 113.609375 6.429688 113.125 6.199219 112.332031 C 6.023438 111.910156 6.007812 111.484375 5.96875 111.054688 L 5.96875 110.246094 C 6.007812 109.417969 6.183594 108.324219 7.070312 107.957031 L 7.113281 107.941406 L 7.144531 107.933594 L 7.183594 107.917969 L 7.300781 107.886719 L 7.375 107.871094 L 7.460938 107.871094 L 7.476562 107.863281 Z M 7.746094 107.863281 Z M 7.5 108.347656 C 6.832031 108.425781 6.636719 109.230469 6.585938 109.769531 L 6.585938 109.984375 L 6.570312 110 L 6.570312 111.101562 C 6.621094 111.671875 6.660156 112.410156 7.183594 112.792969 C 7.667969 113.125 8.308594 112.753906 8.445312 112.238281 C 8.585938 111.855469 8.621094 111.484375 8.652344 111.101562 L 8.652344 110 C 8.605469 109.417969 8.523438 108.609375 7.859375 108.378906 L 7.800781 108.363281 L 7.785156 108.347656 L 7.714844 108.347656 L 7.699219 108.332031 L 7.515625 108.332031 Z M 7.5 108.347656 Z M 7.5 108.347656 "/>
<path style=" stroke:none;fill-rule:nonzero;fill:rgb(0%,0%,0%);fill-opacity:1;" d="M 11.023438 112.578125 L 11.023438 113.214844 L 10.382812 113.214844 L 10.382812 112.578125 Z M 11.023438 112.578125 Z M 11.023438 112.578125 "/>
<path style=" stroke:none;fill-rule:nonzero;fill:rgb(0%,0%,0%);fill-opacity:1;" d="M 13.914062 107.863281 C 14.667969 107.917969 15.167969 108.609375 15.300781 109.308594 C 15.375 109.625 15.390625 109.925781 15.421875 110.246094 L 15.421875 111.054688 C 15.382812 111.878906 15.183594 112.96875 14.285156 113.300781 C 13.507812 113.609375 12.597656 113.125 12.367188 112.332031 C 12.191406 111.910156 12.175781 111.484375 12.136719 111.054688 L 12.136719 110.246094 C 12.175781 109.417969 12.351562 108.324219 13.238281 107.957031 L 13.277344 107.941406 L 13.308594 107.933594 L 13.351562 107.917969 L 13.46875 107.886719 L 13.539062 107.871094 L 13.628906 107.871094 L 13.644531 107.863281 Z M 13.914062 107.863281 Z M 13.667969 108.347656 C 13 108.425781 12.800781 109.230469 12.753906 109.769531 L 12.753906 109.984375 L 12.738281 110 L 12.738281 111.101562 C 12.785156 111.671875 12.824219 112.410156 13.351562 112.792969 C 13.835938 113.125 14.476562 112.753906 14.613281 112.238281 C 14.753906 111.855469 14.785156 111.484375 14.816406 111.101562 L 14.816406 110 C 14.769531 109.417969 14.691406 108.609375 14.023438 108.378906 L 13.96875 108.363281 L 13.953125 108.347656 L 13.882812 108.347656 L 13.867188 108.332031 L 13.683594 108.332031 Z M 13.667969 108.347656 Z M 13.667969 108.347656 "/>
<path style=" stroke:none;fill-rule:nonzero;fill:rgb(0%,0%,0%);fill-opacity:1;" d="M 7.746094 86.859375 C 8.5 86.914062 9 87.605469 9.136719 88.304688 C 9.207031 88.621094 9.222656 88.921875 9.253906 89.242188 L 9.253906 90.050781 C 9.214844 90.875 9.015625 91.960938 8.121094 92.296875 C 7.339844 92.605469 6.429688 92.121094 6.199219 91.328125 C 6.023438 90.90625 6.007812 90.476562 5.96875 90.050781 L 5.96875 89.242188 C 6.007812 88.414062 6.183594 87.320312 7.070312 86.953125 L 7.113281 86.9375 L 7.144531 86.929688 L 7.183594 86.914062 L 7.300781 86.882812 L 7.375 86.867188 L 7.460938 86.867188 L 7.476562 86.859375 Z M 7.746094 86.859375 Z M 7.5 87.34375 C 6.832031 87.421875 6.636719 88.222656 6.585938 88.765625 L 6.585938 88.976562 L 6.570312 88.996094 L 6.570312 90.097656 C 6.621094 90.667969 6.660156 91.40625 7.183594 91.789062 C 7.667969 92.121094 8.308594 91.75 8.445312 91.234375 C 8.585938 90.851562 8.621094 90.476562 8.652344 90.097656 L 8.652344 88.996094 C 8.605469 88.414062 8.523438 87.605469 7.859375 87.375 L 7.800781 87.359375 L 7.785156 87.34375 L 7.714844 87.34375 L 7.699219 87.328125 L 7.515625 87.328125 Z M 7.5 87.34375 Z M 7.5 87.34375 "/>
<path style=" stroke:none;fill-rule:nonzero;fill:rgb(0%,0%,0%);fill-opacity:1;" d="M 11.023438 91.574219 L 11.023438 92.207031 L 10.382812 92.207031 L 10.382812 91.574219 Z M 11.023438 91.574219 Z M 11.023438 91.574219 "/>
<path style=" stroke:none;fill-rule:nonzero;fill:rgb(0%,0%,0%);fill-opacity:1;" d="M 13.828125 86.859375 C 14.746094 86.882812 15.476562 87.828125 15.335938 88.714844 C 15.238281 89.605469 14.40625 90.113281 13.808594 90.667969 L 13.554688 90.929688 L 13.523438 90.945312 L 13.207031 91.257812 L 13.183594 91.273438 L 12.867188 91.589844 L 12.835938 91.605469 L 12.761719 91.675781 L 12.777344 91.683594 L 15.351562 91.683594 L 15.351562 92.207031 L 12.207031 92.207031 L 12.207031 91.734375 L 13.484375 90.453125 C 14.097656 89.921875 14.808594 89.230469 14.699219 88.359375 C 14.636719 87.851562 14.207031 87.382812 13.683594 87.34375 C 13.152344 87.265625 12.683594 87.683594 12.5625 88.191406 L 12.546875 88.214844 L 12.53125 88.273438 L 12.507812 88.359375 L 12.460938 88.535156 L 12.453125 88.574219 C 12.34375 88.4375 12.222656 88.296875 12.136719 88.144531 C 12.292969 87.492188 12.816406 86.882812 13.507812 86.859375 Z M 13.828125 86.859375 Z M 13.828125 86.859375 "/>
<path style=" stroke:none;fill-rule:nonzero;fill:rgb(0%,0%,0%);fill-opacity:1;" d="M 7.746094 65.855469 C 8.5 65.910156 9 66.601562 9.136719 67.300781 C 9.207031 67.617188 9.222656 67.917969 9.253906 68.234375 L 9.253906 69.046875 C 9.214844 69.871094 9.015625 70.957031 8.121094 71.292969 C 7.339844 71.601562 6.429688 71.117188 6.199219 70.324219 C 6.023438 69.902344 6.007812 69.472656 5.96875 69.046875 L 5.96875 68.234375 C 6.007812 67.410156 6.183594 66.316406 7.070312 65.949219 L 7.113281 65.933594 L 7.144531 65.925781 L 7.183594 65.910156 L 7.300781 65.878906 L 7.375 65.863281 L 7.460938 65.863281 L 7.476562 65.855469 Z M 7.746094 65.855469 Z M 7.5 66.339844 C 6.832031 66.417969 6.636719 67.21875 6.585938 67.757812 L 6.585938 67.972656 L 6.570312 67.988281 L 6.570312 69.09375 C 6.621094 69.664062 6.660156 70.402344 7.183594 70.785156 C 7.667969 71.117188 8.308594 70.742188 8.445312 70.226562 C 8.585938 69.847656 8.621094 69.472656 8.652344 69.09375 L 8.652344 67.988281 C 8.605469 67.410156 8.523438 66.601562 7.859375 66.371094 L 7.800781 66.355469 L 7.785156 66.339844 L 7.714844 66.339844 L 7.699219 66.324219 L 7.515625 66.324219 Z M 7.5 66.339844 Z M 7.5 66.339844 "/>
<path style=" stroke:none;fill-rule:nonzero;fill:rgb(0%,0%,0%);fill-opacity:1;" d="M 11.023438 70.570312 L 11.023438 71.203125 L 10.382812 71.203125 L 10.382812 70.570312 Z M 11.023438 70.570312 Z M 11.023438 70.570312 "/>
<path style=" stroke:none;fill-rule:nonzero;fill:rgb(0%,0%,0%);fill-opacity:1;" d="M 14.730469 66.019531 L 14.730469 69.363281 L 14.746094 69.378906 L 15.53125 69.378906 L 15.53125 69.855469 L 14.746094 69.855469 L 14.730469 69.863281 L 14.730469 71.203125 L 14.128906 71.203125 L 14.128906 69.863281 L 14.113281 69.855469 L 12.015625 69.855469 L 12.015625 69.363281 C 12.683594 68.25 13.351562 67.132812 14.015625 66.019531 Z M 14.730469 66.019531 Z M 14.144531 66.324219 C 13.984375 67.148438 13.476562 67.855469 13.097656 68.578125 C 12.945312 68.839844 12.746094 69.125 12.636719 69.378906 L 14.160156 69.378906 L 14.167969 69.363281 L 14.167969 66.324219 L 14.160156 66.308594 Z M 14.144531 66.324219 Z M 14.144531 66.324219 "/>
<path style=" stroke:none;fill-rule:nonzero;fill:rgb(0%,0%,0%);fill-opacity:1;" d="M 7.746094 44.851562 C 8.5 44.90625 9 45.597656 9.136719 46.292969 C 9.207031 46.613281 9.222656 46.914062 9.253906 47.230469 L 9.253906 48.039062 C 9.214844 48.867188 9.015625 49.953125 8.121094 50.289062 C 7.339844 50.597656 6.429688 50.113281 6.199219 49.320312 C 6.023438 48.898438 6.007812 48.46875 5.96875 48.039062 L 5.96875 47.230469 C 6.007812 46.40625 6.183594 45.3125 7.070312 44.945312 L 7.113281 44.929688 L 7.144531 44.921875 L 7.183594 44.90625 L 7.300781 44.875 L 7.375 44.859375 L 7.460938 44.859375 L 7.476562 44.851562 Z M 7.746094 44.851562 Z M 7.5 45.335938 C 6.832031 45.414062 6.636719 46.214844 6.585938 46.753906 L 6.585938 46.96875 L 6.570312 46.984375 L 6.570312 48.089844 C 6.621094 48.660156 6.660156 49.398438 7.183594 49.777344 C 7.667969 50.113281 8.308594 49.738281 8.445312 49.222656 C 8.585938 48.84375 8.621094 48.46875 8.652344 48.089844 L 8.652344 46.984375 C 8.605469 46.40625 8.523438 45.597656 7.859375 45.367188 L 7.800781 45.351562 L 7.785156 45.335938 L 7.714844 45.335938 L 7.699219 45.320312 L 7.515625 45.320312 Z M 7.5 45.335938 Z M 7.5 45.335938 "/>
<path style=" stroke:none;fill-rule:nonzero;fill:rgb(0%,0%,0%);fill-opacity:1;" d="M 11.023438 49.566406 L 11.023438 50.199219 L 10.382812 50.199219 L 10.382812 49.566406 Z M 11.023438 49.566406 Z M 11.023438 49.566406 "/>
<path style=" stroke:none;fill-rule:nonzero;fill:rgb(0%,0%,0%);fill-opacity:1;" d="M 14.429688 44.851562 C 14.636719 44.882812 14.875 44.90625 15.074219 45 L 15.074219 45.460938 C 14.523438 45.222656 13.808594 45.191406 13.382812 45.675781 C 13 46.082031 12.824219 46.683594 12.808594 47.214844 C 13.269531 46.605469 14.308594 46.261719 14.875 46.898438 C 15.4375 47.550781 15.53125 48.484375 15.277344 49.277344 C 15 49.914062 14.359375 50.492188 13.644531 50.359375 C 12.675781 50.277344 12.238281 49.199219 12.191406 48.375 C 12.007812 47.207031 12.285156 45.738281 13.398438 45.074219 L 13.414062 45.066406 L 13.582031 44.976562 L 13.628906 44.960938 L 13.652344 44.945312 L 13.785156 44.90625 L 13.898438 44.875 L 13.96875 44.859375 L 14.054688 44.859375 L 14.070312 44.851562 Z M 14.429688 44.851562 Z M 13.652344 47.058594 C 12.960938 47.175781 12.738281 48.007812 12.824219 48.574219 C 12.867188 49.105469 13.070312 49.8125 13.683594 49.921875 C 14.335938 50.007812 14.753906 49.3125 14.769531 48.746094 C 14.800781 48.175781 14.769531 47.523438 14.269531 47.152344 L 14.160156 47.097656 L 14.070312 47.074219 L 14 47.058594 L 13.984375 47.039062 L 13.667969 47.039062 Z M 13.652344 47.058594 Z M 13.652344 47.058594 "/>
<path style=" stroke:none;fill-rule:nonzero;fill:rgb(0%,0%,0%);fill-opacity:1;" d="M 7.746094 23.847656 C 8.5 23.902344 9 24.59375 9.136719 25.289062 C 9.207031 25.609375 9.222656 25.910156 9.253906 26.226562 L 9.253906 27.035156 C 9.214844 27.863281 9.015625 28.949219 8.121094 29.28125 C 7.339844 29.59375 6.429688 29.109375 6.199219 28.3125 C 6.023438 27.894531 6.007812 27.464844 5.96875 27.035156 L 5.96875 26.226562 C 6.007812 25.402344 6.183594 24.304688 7.070312 23.941406 L 7.113281 23.925781 L 7.144531 23.917969 L 7.183594 23.902344 L 7.300781 23.871094 L 7.375 23.855469 L 7.460938 23.855469 L 7.476562 23.847656 Z M 7.746094 23.847656 Z M 7.5 24.328125 C 6.832031 24.410156 6.636719 25.210938 6.585938 25.75 L 6.585938 25.964844 L 6.570312 25.980469 L 6.570312 27.085938 C 6.621094 27.65625 6.660156 28.394531 7.183594 28.773438 C 7.667969 29.109375 8.308594 28.734375 8.445312 28.21875 C 8.585938 27.839844 8.621094 27.464844 8.652344 27.085938 L 8.652344 25.980469 C 8.605469 25.402344 8.523438 24.59375 7.859375 24.363281 L 7.800781 24.347656 L 7.785156 24.328125 L 7.714844 24.328125 L 7.699219 24.3125 L 7.515625 24.3125 Z M 7.5 24.328125 Z M 7.5 24.328125 "/>
<path style=" stroke:none;fill-rule:nonzero;fill:rgb(0%,0%,0%);fill-opacity:1;" d="M 11.023438 28.558594 L 11.023438 29.195312 L 10.382812 29.195312 L 10.382812 28.558594 Z M 11.023438 28.558594 Z M 11.023438 28.558594 "/>
<path style=" stroke:none;fill-rule:nonzero;fill:rgb(0%,0%,0%);fill-opacity:1;" d="M 13.929688 23.847656 C 14.769531 23.878906 15.5625 24.78125 15.230469 25.625 C 15.089844 26.011719 14.691406 26.25 14.367188 26.417969 C 15.175781 26.65625 15.667969 27.601562 15.300781 28.378906 C 14.921875 29.386719 13.476562 29.703125 12.683594 28.972656 C 11.960938 28.402344 11.9375 27.164062 12.738281 26.65625 C 12.859375 26.527344 13.082031 26.488281 13.183594 26.394531 C 12.492188 26.195312 12.023438 25.394531 12.351562 24.71875 C 12.613281 24.117188 13.285156 23.78125 13.929688 23.847656 Z M 13.929688 23.847656 Z M 13.628906 24.296875 C 13.039062 24.3125 12.628906 24.980469 12.824219 25.503906 C 13.054688 26.410156 14.574219 26.378906 14.746094 25.449219 C 14.90625 24.933594 14.492188 24.3125 13.929688 24.296875 L 13.914062 24.289062 L 13.644531 24.289062 Z M 13.628906 24.296875 Z M 13.644531 26.65625 C 12.953125 26.703125 12.613281 27.527344 12.792969 28.117188 C 12.914062 28.949219 14.105469 29.195312 14.574219 28.527344 C 15.023438 27.917969 14.800781 26.820312 13.984375 26.65625 L 13.914062 26.65625 L 13.898438 26.640625 L 13.652344 26.640625 Z M 13.644531 26.65625 Z M 13.644531 26.65625 "/>
<path style=" stroke:none;fill-rule:nonzero;fill:rgb(0%,0%,0%);fill-opacity:1;" d="M 7.992188 2.839844 L 7.992188 7.738281 L 8 7.753906 L 8.976562 7.753906 L 8.976562 8.191406 L 6.398438 8.191406 L 6.398438 7.753906 L 7.375 7.753906 L 7.390625 7.738281 L 7.390625 3.628906 C 7.054688 3.738281 6.707031 3.808594 6.359375 3.800781 L 6.359375 3.355469 C 6.882812 3.363281 7.453125 3.222656 7.851562 2.839844 Z M 7.992188 2.839844 Z M 7.992188 2.839844 "/>
<path style=" stroke:none;fill-rule:nonzero;fill:rgb(0%,0%,0%);fill-opacity:1;" d="M 11.023438 7.554688 L 11.023438 8.191406 L 10.382812 8.191406 L 10.382812 7.554688 Z M 11.023438 7.554688 Z M 11.023438 7.554688 "/>
<path style=" stroke:none;fill-rule:nonzero;fill:rgb(0%,0%,0%);fill-opacity:1;" d="M 13.914062 2.839844 C 14.667969 2.898438 15.167969 3.585938 15.300781 4.285156 C 15.375 4.601562 15.390625 4.90625 15.421875 5.222656 L 15.421875 6.03125 C 15.382812 6.859375 15.183594 7.945312 14.285156 8.277344 C 13.507812 8.585938 12.597656 8.105469 12.367188 7.308594 C 12.191406 6.890625 12.175781 6.460938 12.136719 6.03125 L 12.136719 5.222656 C 12.175781 4.398438 12.351562 3.300781 13.238281 2.9375 L 13.277344 2.921875 L 13.308594 2.914062 L 13.351562 2.898438 L 13.46875 2.863281 L 13.539062 2.847656 L 13.628906 2.847656 L 13.644531 2.839844 Z M 13.914062 2.839844 Z M 13.667969 3.324219 C 13 3.40625 12.800781 4.207031 12.753906 4.746094 L 12.753906 4.960938 L 12.738281 4.976562 L 12.738281 6.078125 C 12.785156 6.652344 12.824219 7.390625 13.351562 7.769531 C 13.835938 8.105469 14.476562 7.730469 14.613281 7.214844 C 14.753906 6.832031 14.785156 6.460938 14.816406 6.078125 L 14.816406 4.976562 C 14.769531 4.398438 14.691406 3.585938 14.023438 3.355469 L 13.96875 3.339844 L 13.953125 3.324219 L 13.882812 3.324219 L 13.867188 3.308594 L 13.683594 3.308594 Z M 13.667969 3.324219 Z M 13.667969 3.324219 "/>
<path style="fill:none;stroke-width:0.02;stroke-linecap:butt;stroke-linejoin:miter;stroke:rgb(0%,0%,0%);stroke-opacity:1;stroke-miterlimit:10;" d="M 9.930005 1.16934 L 9.824999 1.16934 " transform="matrix(28.346457,0,0,-28.346457,1,227.771654)"/>
<path style="fill:none;stroke-width:0.02;stroke-linecap:butt;stroke-linejoin:miter;stroke:rgb(0%,0%,0%);stroke-opacity:1;stroke-miterlimit:10;" d="M 9.930005 1.910311 L 9.824999 1.910311 " transform="matrix(28.346457,0,0,-28.346457,1,227.771654)"/>
<path style="fill:none;stroke-width:0.02;stroke-linecap:butt;stroke-linejoin:miter;stroke:rgb(0%,0%,0%);stroke-opacity:1;stroke-miterlimit:10;" d="M 9.930005 2.65142 L 9.824999 2.65142 " transform="matrix(28.346457,0,0,-28.346457,1,227.771654)"/>
<path style="fill:none;stroke-width:0.02;stroke-linecap:butt;stroke-linejoin:miter;stroke:rgb(0%,0%,0%);stroke-opacity:1;stroke-miterlimit:10;" d="M 9.930005 3.392391 L 9.824999 3.392391 " transform="matrix(28.346457,0,0,-28.346457,1,227.771654)"/>
<path style="fill:none;stroke-width:0.02;stroke-linecap:butt;stroke-linejoin:miter;stroke:rgb(0%,0%,0%);stroke-opacity:1;stroke-miterlimit:10;" d="M 9.930005 4.133363 L 9.824999 4.133363 " transform="matrix(28.346457,0,0,-28.346457,1,227.771654)"/>
<path style="fill:none;stroke-width:0.02;stroke-linecap:butt;stroke-linejoin:miter;stroke:rgb(0%,0%,0%);stroke-opacity:1;stroke-miterlimit:10;" d="M 9.930005 4.874334 L 9.824999 4.874334 " transform="matrix(28.346457,0,0,-28.346457,1,227.771654)"/>
<path style="fill:none;stroke-width:0.02;stroke-linecap:butt;stroke-linejoin:miter;stroke:rgb(0%,0%,0%);stroke-opacity:1;stroke-miterlimit:10;" d="M 9.930005 5.615305 L 9.824999 5.615305 " transform="matrix(28.346457,0,0,-28.346457,1,227.771654)"/>
<path style="fill:none;stroke-width:0.02;stroke-linecap:butt;stroke-linejoin:miter;stroke:rgb(0%,0%,0%);stroke-opacity:1;stroke-miterlimit:10;" d="M 9.930005 6.356276 L 9.824999 6.356276 " transform="matrix(28.346457,0,0,-28.346457,1,227.771654)"/>
<path style="fill:none;stroke-width:0.02;stroke-linecap:butt;stroke-linejoin:miter;stroke:rgb(0%,0%,0%);stroke-opacity:1;stroke-miterlimit:10;" d="M 9.930005 7.097247 L 9.824999 7.097247 " transform="matrix(28.346457,0,0,-28.346457,1,227.771654)"/>
<path style="fill:none;stroke-width:0.02;stroke-linecap:round;stroke-linejoin:miter;stroke:rgb(0%,0%,0%);stroke-opacity:1;stroke-miterlimit:10;" d="M 9.930005 0.428369 L 9.930005 7.838356 " transform="matrix(28.346457,0,0,-28.346457,1,227.771654)"/>
<path style="fill:none;stroke-width:0.02;stroke-linecap:butt;stroke-linejoin:miter;stroke:rgb(0%,0%,0%);stroke-opacity:1;stroke-miterlimit:10;" d="M 2.165449 0.428369 L 2.165449 0.533376 " transform="matrix(28.346457,0,0,-28.346457,1,227.771654)"/>
<path style="fill:none;stroke-width:0.02;stroke-linecap:butt;stroke-linejoin:miter;stroke:rgb(0%,0%,0%);stroke-opacity:1;stroke-miterlimit:10;" d="M 3.635127 0.428369 L 3.635127 0.533376 " transform="matrix(28.346457,0,0,-28.346457,1,227.771654)"/>
<path style="fill:none;stroke-width:0.02;stroke-linecap:butt;stroke-linejoin:miter;stroke:rgb(0%,0%,0%);stroke-opacity:1;stroke-miterlimit:10;" d="M 5.104805 0.428369 L 5.104805 0.533376 " transform="matrix(28.346457,0,0,-28.346457,1,227.771654)"/>
<path style="fill:none;stroke-width:0.02;stroke-linecap:butt;stroke-linejoin:miter;stroke:rgb(0%,0%,0%);stroke-opacity:1;stroke-miterlimit:10;" d="M 6.574482 0.428369 L 6.574482 0.533376 " transform="matrix(28.346457,0,0,-28.346457,1,227.771654)"/>
<path style="fill:none;stroke-width:0.02;stroke-linecap:butt;stroke-linejoin:miter;stroke:rgb(0%,0%,0%);stroke-opacity:1;stroke-miterlimit:10;" d="M 8.04416 0.428369 L 8.04416 0.533376 " transform="matrix(28.346457,0,0,-28.346457,1,227.771654)"/>
<path style="fill:none;stroke-width:0.02;stroke-linecap:butt;stroke-linejoin:miter;stroke:rgb(0%,0%,0%);stroke-opacity:1;stroke-miterlimit:10;" d="M 9.513838 0.428369 L 9.513838 0.533376 " transform="matrix(28.346457,0,0,-28.346457,1,227.771654)"/>
<path style="fill:none;stroke-width:0.02;stroke-linecap:round;stroke-linejoin:miter;stroke:rgb(0%,0%,0%);stroke-opacity:1;stroke-miterlimit:10;" d="M 0.695771 0.428369 L 9.930005 0.428369 " transform="matrix(28.346457,0,0,-28.346457,1,227.771654)"/>
<path style=" stroke:none;fill-rule:nonzero;fill:rgb(0%,0%,0%);fill-opacity:1;" d="M 20.859375 220.445312 C 21.613281 220.5 22.113281 221.191406 22.246094 221.890625 C 22.320312 222.207031 22.335938 222.507812 22.367188 222.828125 L 22.367188 223.636719 C 22.328125 224.460938 22.128906 225.550781 21.230469 225.882812 C 20.453125 226.191406 19.539062 225.707031 19.3125 224.914062 C 19.136719 224.492188 19.121094 224.066406 19.082031 223.636719 L 19.082031 222.828125 C 19.121094 222 19.292969 220.90625 20.183594 220.542969 L 20.222656 220.523438 L 20.253906 220.515625 L 20.292969 220.5 L 20.414062 220.46875 L 20.484375 220.453125 L 20.574219 220.453125 L 20.589844 220.445312 Z M 20.859375 220.445312 Z M 20.613281 220.929688 C 19.945312 221.007812 19.746094 221.8125 19.699219 222.351562 L 19.699219 222.566406 L 19.683594 222.582031 L 19.683594 223.683594 C 19.730469 224.253906 19.769531 224.992188 20.292969 225.375 C 20.777344 225.707031 21.421875 225.335938 21.558594 224.820312 C 21.699219 224.4375 21.730469 224.066406 21.761719 223.683594 L 21.761719 222.582031 C 21.714844 222 21.636719 221.191406 20.96875 220.960938 L 20.914062 220.945312 L 20.898438 220.929688 L 20.828125 220.929688 L 20.8125 220.914062 L 20.628906 220.914062 Z M 20.613281 220.929688 Z M 20.613281 220.929688 "/>
<path style=" stroke:none;fill-rule:nonzero;fill:rgb(0%,0%,0%);fill-opacity:1;" d="M 62.765625 220.445312 L 62.765625 225.34375 L 62.773438 225.359375 L 63.75 225.359375 L 63.75 225.796875 L 61.167969 225.796875 L 61.167969 225.359375 L 62.144531 225.359375 L 62.160156 225.34375 L 62.160156 221.230469 C 61.828125 221.34375 61.480469 221.414062 61.128906 221.40625 L 61.128906 220.960938 C 61.652344 220.96875 62.226562 220.828125 62.621094 220.445312 Z M 62.765625 220.445312 Z M 62.765625 220.445312 "/>
<path style=" stroke:none;fill-rule:nonzero;fill:rgb(0%,0%,0%);fill-opacity:1;" d="M 104.089844 220.445312 C 105.011719 220.46875 105.742188 221.414062 105.597656 222.304688 C 105.503906 223.191406 104.671875 223.699219 104.074219 224.253906 L 103.820312 224.515625 L 103.789062 224.535156 L 103.472656 224.84375 L 103.449219 224.859375 L 103.128906 225.175781 L 103.097656 225.191406 L 103.027344 225.261719 L 103.042969 225.273438 L 105.613281 225.273438 L 105.613281 225.796875 L 102.472656 225.796875 L 102.472656 225.320312 L 103.75 224.042969 C 104.359375 223.507812 105.074219 222.820312 104.964844 221.945312 C 104.902344 221.4375 104.472656 220.96875 103.949219 220.929688 C 103.417969 220.851562 102.949219 221.269531 102.828125 221.777344 L 102.8125 221.804688 L 102.796875 221.859375 L 102.773438 221.945312 L 102.726562 222.121094 L 102.71875 222.160156 C 102.605469 222.023438 102.488281 221.882812 102.398438 221.730469 C 102.558594 221.082031 103.082031 220.46875 103.773438 220.445312 Z M 104.089844 220.445312 Z M 104.089844 220.445312 "/>
<path style=" stroke:none;fill-rule:nonzero;fill:rgb(0%,0%,0%);fill-opacity:1;" d="M 145.855469 220.445312 C 146.550781 220.476562 147.28125 221.121094 147.117188 221.859375 C 147.035156 222.359375 146.6875 222.769531 146.25 222.992188 C 146.957031 223.214844 147.503906 223.960938 147.3125 224.699219 C 147.125 225.660156 146.019531 226.191406 145.132812 225.898438 C 144.703125 225.773438 144.265625 225.5 144.058594 225.105469 C 144.109375 224.984375 144.09375 224.78125 144.148438 224.699219 C 144.566406 225.320312 145.457031 225.738281 146.15625 225.390625 C 146.917969 224.90625 146.796875 223.492188 145.878906 223.253906 L 145.804688 223.253906 L 145.789062 223.238281 L 145.050781 223.238281 L 145.050781 222.761719 C 145.503906 222.753906 146.066406 222.699219 146.320312 222.230469 C 146.59375 221.828125 146.566406 221.160156 146.050781 220.960938 C 145.441406 220.722656 144.6875 221.113281 144.457031 221.730469 C 144.363281 221.597656 144.265625 221.460938 144.171875 221.320312 C 144.496094 220.730469 145.1875 220.382812 145.855469 220.445312 Z M 145.855469 220.445312 Z M 145.855469 220.445312 "/>
<path style=" stroke:none;fill-rule:nonzero;fill:rgb(0%,0%,0%);fill-opacity:1;" d="M 188.316406 220.613281 L 188.316406 223.953125 L 188.332031 223.96875 L 189.117188 223.96875 L 189.117188 224.445312 L 188.332031 224.445312 L 188.316406 224.453125 L 188.316406 225.796875 L 187.710938 225.796875 L 187.710938 224.453125 L 187.695312 224.445312 L 185.601562 224.445312 L 185.601562 223.953125 C 186.269531 222.84375 186.933594 221.722656 187.601562 220.613281 Z M 188.316406 220.613281 Z M 187.726562 220.914062 C 187.570312 221.738281 187.0625 222.445312 186.679688 223.167969 C 186.53125 223.429688 186.332031 223.714844 186.21875 223.96875 L 187.742188 223.96875 L 187.753906 223.953125 L 187.753906 220.914062 L 187.742188 220.898438 Z M 187.726562 220.914062 Z M 187.726562 220.914062 "/>
<path style=" stroke:none;fill-rule:nonzero;fill:rgb(0%,0%,0%);fill-opacity:1;" d="M 230.332031 220.613281 L 230.332031 221.105469 L 228.269531 221.105469 L 228.253906 221.113281 L 228.253906 222.738281 C 228.445312 222.613281 228.714844 222.445312 228.96875 222.4375 C 229.863281 222.34375 230.554688 223.222656 230.59375 224.042969 C 230.722656 225.082031 229.746094 226.113281 228.699219 225.953125 C 228.171875 225.9375 227.664062 225.628906 227.363281 225.199219 C 227.453125 225.082031 227.523438 224.875 227.625 224.804688 C 228 225.535156 229.207031 225.828125 229.691406 225.058594 C 230 224.476562 229.992188 223.738281 229.632812 223.183594 C 229.222656 222.652344 228.402344 222.976562 228.214844 223.542969 L 227.699219 223.542969 L 227.699219 220.613281 Z M 230.332031 220.613281 Z M 230.332031 220.613281 "/>
<path style=" stroke:none;fill-rule:nonzero;fill:rgb(0%,0%,0%);fill-opacity:1;" d="M 271.332031 220.445312 C 271.539062 220.476562 271.777344 220.5 271.976562 220.597656 L 271.976562 221.058594 C 271.429688 220.820312 270.714844 220.785156 270.285156 221.269531 C 269.90625 221.675781 269.730469 222.277344 269.714844 222.8125 C 270.175781 222.199219 271.214844 221.859375 271.777344 222.492188 C 272.339844 223.144531 272.4375 224.082031 272.183594 224.875 C 271.90625 225.507812 271.261719 226.089844 270.546875 225.953125 C 269.578125 225.875 269.144531 224.796875 269.09375 223.96875 C 268.914062 222.804688 269.191406 221.335938 270.300781 220.667969 L 270.316406 220.660156 L 270.484375 220.574219 L 270.53125 220.558594 L 270.554688 220.542969 L 270.691406 220.5 L 270.800781 220.46875 L 270.875 220.453125 L 270.960938 220.453125 L 270.976562 220.445312 Z M 271.332031 220.445312 Z M 270.554688 222.652344 C 269.867188 222.769531 269.644531 223.605469 269.730469 224.167969 C 269.769531 224.699219 269.976562 225.40625 270.585938 225.515625 C 271.238281 225.605469 271.660156 224.90625 271.675781 224.34375 C 271.707031 223.769531 271.675781 223.121094 271.175781 222.746094 L 271.0625 222.691406 L 270.976562 222.667969 L 270.90625 222.652344 L 270.890625 222.636719 L 270.570312 222.636719 Z M 270.554688 222.652344 Z M 270.554688 222.652344 "/>
<path style="fill:none;stroke-width:0.02;stroke-linecap:butt;stroke-linejoin:miter;stroke:rgb(0%,0%,0%);stroke-opacity:1;stroke-miterlimit:10;" d="M 2.165449 7.838356 L 2.165449 7.73335 " transform="matrix(28.346457,0,0,-28.346457,1,227.771654)"/>
<path style="fill:none;stroke-width:0.02;stroke-linecap:butt;stroke-linejoin:miter;stroke:rgb(0%,0%,0%);stroke-opacity:1;stroke-miterlimit:10;" d="M 3.635127 7.838356 L 3.635127 7.73335 " transform="matrix(28.346457,0,0,-28.346457,1,227.771654)"/>
<path style="fill:none;stroke-width:0.02;stroke-linecap:butt;stroke-linejoin:miter;stroke:rgb(0%,0%,0%);stroke-opacity:1;stroke-miterlimit:10;" d="M 5.104805 7.838356 L 5.104805 7.73335 " transform="matrix(28.346457,0,0,-28.346457,1,227.771654)"/>
<path style="fill:none;stroke-width:0.02;stroke-linecap:butt;stroke-linejoin:miter;stroke:rgb(0%,0%,0%);stroke-opacity:1;stroke-miterlimit:10;" d="M 6.574482 7.838356 L 6.574482 7.73335 " transform="matrix(28.346457,0,0,-28.346457,1,227.771654)"/>
<path style="fill:none;stroke-width:0.02;stroke-linecap:butt;stroke-linejoin:miter;stroke:rgb(0%,0%,0%);stroke-opacity:1;stroke-miterlimit:10;" d="M 8.04416 7.838356 L 8.04416 7.73335 " transform="matrix(28.346457,0,0,-28.346457,1,227.771654)"/>
<path style="fill:none;stroke-width:0.02;stroke-linecap:butt;stroke-linejoin:miter;stroke:rgb(0%,0%,0%);stroke-opacity:1;stroke-miterlimit:10;" d="M 9.513838 7.838356 L 9.513838 7.73335 " transform="matrix(28.346457,0,0,-28.346457,1,227.771654)"/>
<path style="fill:none;stroke-width:0.02;stroke-linecap:round;stroke-linejoin:miter;stroke:rgb(0%,0%,0%);stroke-opacity:1;stroke-miterlimit:10;" d="M 0.695771 7.838356 L 9.930005 7.838356 " transform="matrix(28.346457,0,0,-28.346457,1,227.771654)"/>
<path style="fill-rule:nonzero;fill:rgb(79.215686%,38.431373%,29.411765%);fill-opacity:1;stroke-width:0.02;stroke-linecap:butt;stroke-linejoin:round;stroke:rgb(79.215686%,38.431373%,29.411765%);stroke-opacity:1;stroke-miterlimit:10;" d="M 0.730774 4.133363 C 0.730774 4.180078 0.660769 4.180078 0.660769 4.133363 C 0.660769 4.086647 0.730774 4.086647 0.730774 4.133363 Z M 0.730774 4.133363 " transform="matrix(28.346457,0,0,-28.346457,1,227.771654)"/>
<path style="fill-rule:nonzero;fill:rgb(79.215686%,38.431373%,29.411765%);fill-opacity:1;stroke-width:0.02;stroke-linecap:butt;stroke-linejoin:round;stroke:rgb(79.215686%,38.431373%,29.411765%);stroke-opacity:1;stroke-miterlimit:10;" d="M 0.824067 4.368318 C 0.824067 4.415034 0.754062 4.415034 0.754062 4.368318 C 0.754062 4.321603 0.824067 4.321603 0.824067 4.368318 Z M 0.824067 4.368318 " transform="matrix(28.346457,0,0,-28.346457,1,227.771654)"/>
<path style="fill-rule:nonzero;fill:rgb(79.215686%,38.431373%,29.411765%);fill-opacity:1;stroke-width:0.02;stroke-linecap:butt;stroke-linejoin:round;stroke:rgb(79.215686%,38.431373%,29.411765%);stroke-opacity:1;stroke-miterlimit:10;" d="M 0.91736 4.602309 C 0.91736 4.649025 0.847356 4.649025 0.847356 4.602309 C 0.847356 4.555731 0.91736 4.555731 0.91736 4.602309 Z M 0.91736 4.602309 " transform="matrix(28.346457,0,0,-28.346457,1,227.771654)"/>
<path style="fill-rule:nonzero;fill:rgb(79.215686%,38.431373%,29.411765%);fill-opacity:1;stroke-width:0.02;stroke-linecap:butt;stroke-linejoin:round;stroke:rgb(79.215686%,38.431373%,29.411765%);stroke-opacity:1;stroke-miterlimit:10;" d="M 1.010653 4.834508 C 1.010653 4.881224 0.940649 4.881224 0.940649 4.834508 C 0.940649 4.787793 1.010653 4.787793 1.010653 4.834508 Z M 1.010653 4.834508 " transform="matrix(28.346457,0,0,-28.346457,1,227.771654)"/>
<path style="fill-rule:nonzero;fill:rgb(79.215686%,38.431373%,29.411765%);fill-opacity:1;stroke-width:0.02;stroke-linecap:butt;stroke-linejoin:round;stroke:rgb(79.215686%,38.431373%,29.411765%);stroke-opacity:1;stroke-miterlimit:10;" d="M 1.103946 5.063814 C 1.103946 5.11053 1.033942 5.11053 1.033942 5.063814 C 1.033942 5.017236 1.103946 5.017236 1.103946 5.063814 Z M 1.103946 5.063814 " transform="matrix(28.346457,0,0,-28.346457,1,227.771654)"/>
<path style="fill-rule:nonzero;fill:rgb(79.215686%,38.431373%,29.411765%);fill-opacity:1;stroke-width:0.02;stroke-linecap:butt;stroke-linejoin:round;stroke:rgb(79.215686%,38.431373%,29.411765%);stroke-opacity:1;stroke-miterlimit:10;" d="M 1.19724 5.289399 C 1.19724 5.336114 1.127235 5.336114 1.127235 5.289399 C 1.127235 5.242683 1.19724 5.242683 1.19724 5.289399 Z M 1.19724 5.289399 " transform="matrix(28.346457,0,0,-28.346457,1,227.771654)"/>
<path style="fill-rule:nonzero;fill:rgb(79.215686%,38.431373%,29.411765%);fill-opacity:1;stroke-width:0.02;stroke-linecap:butt;stroke-linejoin:round;stroke:rgb(79.215686%,38.431373%,29.411765%);stroke-opacity:1;stroke-miterlimit:10;" d="M 1.290395 5.510298 C 1.290395 5.557014 1.220391 5.557014 1.220391 5.510298 C 1.220391 5.463721 1.290395 5.463721 1.290395 5.510298 Z M 1.290395 5.510298 " transform="matrix(28.346457,0,0,-28.346457,1,227.771654)"/>
<path style="fill-rule:nonzero;fill:rgb(79.215686%,38.431373%,29.411765%);fill-opacity:1;stroke-width:0.02;stroke-linecap:butt;stroke-linejoin:round;stroke:rgb(79.215686%,38.431373%,29.411765%);stroke-opacity:1;stroke-miterlimit:10;" d="M 1.383688 5.725686 C 1.383688 5.772401 1.313684 5.772401 1.313684 5.725686 C 1.313684 5.679108 1.383688 5.679108 1.383688 5.725686 Z M 1.383688 5.725686 " transform="matrix(28.346457,0,0,-28.346457,1,227.771654)"/>
<path style="fill-rule:nonzero;fill:rgb(79.215686%,38.431373%,29.411765%);fill-opacity:1;stroke-width:0.02;stroke-linecap:butt;stroke-linejoin:round;stroke:rgb(79.215686%,38.431373%,29.411765%);stroke-opacity:1;stroke-miterlimit:10;" d="M 1.476981 5.934734 C 1.476981 5.981312 1.406977 5.981312 1.406977 5.934734 C 1.406977 5.888019 1.476981 5.888019 1.476981 5.934734 Z M 1.476981 5.934734 " transform="matrix(28.346457,0,0,-28.346457,1,227.771654)"/>
<path style="fill-rule:nonzero;fill:rgb(79.215686%,38.431373%,29.411765%);fill-opacity:1;stroke-width:0.02;stroke-linecap:butt;stroke-linejoin:round;stroke:rgb(79.215686%,38.431373%,29.411765%);stroke-opacity:1;stroke-miterlimit:10;" d="M 1.570275 6.136341 C 1.570275 6.183057 1.50027 6.183057 1.50027 6.136341 C 1.50027 6.089763 1.570275 6.089763 1.570275 6.136341 Z M 1.570275 6.136341 " transform="matrix(28.346457,0,0,-28.346457,1,227.771654)"/>
<path style="fill-rule:nonzero;fill:rgb(79.215686%,38.431373%,29.411765%);fill-opacity:1;stroke-width:0.02;stroke-linecap:butt;stroke-linejoin:round;stroke:rgb(79.215686%,38.431373%,29.411765%);stroke-opacity:1;stroke-miterlimit:10;" d="M 1.663568 6.330093 C 1.663568 6.376671 1.593563 6.376671 1.593563 6.330093 C 1.593563 6.283378 1.663568 6.283378 1.663568 6.330093 Z M 1.663568 6.330093 " transform="matrix(28.346457,0,0,-28.346457,1,227.771654)"/>
<path style="fill-rule:nonzero;fill:rgb(79.215686%,38.431373%,29.411765%);fill-opacity:1;stroke-width:0.02;stroke-linecap:butt;stroke-linejoin:round;stroke:rgb(79.215686%,38.431373%,29.411765%);stroke-opacity:1;stroke-miterlimit:10;" d="M 1.756861 6.514888 C 1.756861 6.561466 1.686857 6.561466 1.686857 6.514888 C 1.686857 6.468173 1.756861 6.468173 1.756861 6.514888 Z M 1.756861 6.514888 " transform="matrix(28.346457,0,0,-28.346457,1,227.771654)"/>
<path style="fill-rule:nonzero;fill:rgb(79.215686%,38.431373%,29.411765%);fill-opacity:1;stroke-width:0.02;stroke-linecap:butt;stroke-linejoin:round;stroke:rgb(79.215686%,38.431373%,29.411765%);stroke-opacity:1;stroke-miterlimit:10;" d="M 1.850154 6.690037 C 1.850154 6.736752 1.78015 6.736752 1.78015 6.690037 C 1.78015 6.643459 1.850154 6.643459 1.850154 6.690037 Z M 1.850154 6.690037 " transform="matrix(28.346457,0,0,-28.346457,1,227.771654)"/>
<path style="fill-rule:nonzero;fill:rgb(79.215686%,38.431373%,29.411765%);fill-opacity:1;stroke-width:0.02;stroke-linecap:butt;stroke-linejoin:round;stroke:rgb(79.215686%,38.431373%,29.411765%);stroke-opacity:1;stroke-miterlimit:10;" d="M 1.943309 6.854988 C 1.943309 6.901704 1.873305 6.901704 1.873305 6.854988 C 1.873305 6.808273 1.943309 6.808273 1.943309 6.854988 Z M 1.943309 6.854988 " transform="matrix(28.346457,0,0,-28.346457,1,227.771654)"/>
<path style="fill-rule:nonzero;fill:rgb(79.215686%,38.431373%,29.411765%);fill-opacity:1;stroke-width:0.02;stroke-linecap:butt;stroke-linejoin:round;stroke:rgb(79.215686%,38.431373%,29.411765%);stroke-opacity:1;stroke-miterlimit:10;" d="M 2.036603 7.008915 C 2.036603 7.05563 1.966598 7.05563 1.966598 7.008915 C 1.966598 6.962199 2.036603 6.962199 2.036603 7.008915 Z M 2.036603 7.008915 " transform="matrix(28.346457,0,0,-28.346457,1,227.771654)"/>
<path style="fill-rule:nonzero;fill:rgb(79.215686%,38.431373%,29.411765%);fill-opacity:1;stroke-width:0.02;stroke-linecap:butt;stroke-linejoin:round;stroke:rgb(79.215686%,38.431373%,29.411765%);stroke-opacity:1;stroke-miterlimit:10;" d="M 2.129896 7.151266 C 2.129896 7.197982 2.059891 7.197982 2.059891 7.151266 C 2.059891 7.104689 2.129896 7.104689 2.129896 7.151266 Z M 2.129896 7.151266 " transform="matrix(28.346457,0,0,-28.346457,1,227.771654)"/>
<path style="fill-rule:nonzero;fill:rgb(79.215686%,38.431373%,29.411765%);fill-opacity:1;stroke-width:0.02;stroke-linecap:butt;stroke-linejoin:round;stroke:rgb(79.215686%,38.431373%,29.411765%);stroke-opacity:1;stroke-miterlimit:10;" d="M 2.223189 7.281491 C 2.223189 7.328206 2.153185 7.328206 2.153185 7.281491 C 2.153185 7.234913 2.223189 7.234913 2.223189 7.281491 Z M 2.223189 7.281491 " transform="matrix(28.346457,0,0,-28.346457,1,227.771654)"/>
<path style="fill-rule:nonzero;fill:rgb(79.215686%,38.431373%,29.411765%);fill-opacity:1;stroke-width:0.02;stroke-linecap:butt;stroke-linejoin:round;stroke:rgb(79.215686%,38.431373%,29.411765%);stroke-opacity:1;stroke-miterlimit:10;" d="M 2.316482 7.399038 C 2.316482 7.445753 2.246478 7.445753 2.246478 7.399038 C 2.246478 7.35246 2.316482 7.35246 2.316482 7.399038 Z M 2.316482 7.399038 " transform="matrix(28.346457,0,0,-28.346457,1,227.771654)"/>
<path style="fill-rule:nonzero;fill:rgb(79.215686%,38.431373%,29.411765%);fill-opacity:1;stroke-width:0.02;stroke-linecap:butt;stroke-linejoin:round;stroke:rgb(79.215686%,38.431373%,29.411765%);stroke-opacity:1;stroke-miterlimit:10;" d="M 2.409775 7.503493 C 2.409775 7.550208 2.339771 7.550208 2.339771 7.503493 C 2.339771 7.456777 2.409775 7.456777 2.409775 7.503493 Z M 2.409775 7.503493 " transform="matrix(28.346457,0,0,-28.346457,1,227.771654)"/>
<path style="fill-rule:nonzero;fill:rgb(79.215686%,38.431373%,29.411765%);fill-opacity:1;stroke-width:0.02;stroke-linecap:butt;stroke-linejoin:round;stroke:rgb(79.215686%,38.431373%,29.411765%);stroke-opacity:1;stroke-miterlimit:10;" d="M 2.503069 7.594306 C 2.503069 7.641021 2.433064 7.641021 2.433064 7.594306 C 2.433064 7.54759 2.503069 7.54759 2.503069 7.594306 Z M 2.503069 7.594306 " transform="matrix(28.346457,0,0,-28.346457,1,227.771654)"/>
<path style="fill-rule:nonzero;fill:rgb(79.215686%,38.431373%,29.411765%);fill-opacity:1;stroke-width:0.02;stroke-linecap:butt;stroke-linejoin:round;stroke:rgb(79.215686%,38.431373%,29.411765%);stroke-opacity:1;stroke-miterlimit:10;" d="M 2.596362 7.6712 C 2.596362 7.717916 2.526357 7.717916 2.526357 7.6712 C 2.526357 7.624485 2.596362 7.624485 2.596362 7.6712 Z M 2.596362 7.6712 " transform="matrix(28.346457,0,0,-28.346457,1,227.771654)"/>
<path style="fill-rule:nonzero;fill:rgb(79.215686%,38.431373%,29.411765%);fill-opacity:1;stroke-width:0.02;stroke-linecap:butt;stroke-linejoin:round;stroke:rgb(79.215686%,38.431373%,29.411765%);stroke-opacity:1;stroke-miterlimit:10;" d="M 2.689517 7.733901 C 2.689517 7.780479 2.619513 7.780479 2.619513 7.733901 C 2.619513 7.687185 2.689517 7.687185 2.689517 7.733901 Z M 2.689517 7.733901 " transform="matrix(28.346457,0,0,-28.346457,1,227.771654)"/>
<path style="fill-rule:nonzero;fill:rgb(79.215686%,38.431373%,29.411765%);fill-opacity:1;stroke-width:0.02;stroke-linecap:butt;stroke-linejoin:round;stroke:rgb(79.215686%,38.431373%,29.411765%);stroke-opacity:1;stroke-miterlimit:10;" d="M 2.78281 7.781994 C 2.78281 7.82871 2.712806 7.82871 2.712806 7.781994 C 2.712806 7.735279 2.78281 7.735279 2.78281 7.781994 Z M 2.78281 7.781994 " transform="matrix(28.346457,0,0,-28.346457,1,227.771654)"/>
<path style="fill-rule:nonzero;fill:rgb(79.215686%,38.431373%,29.411765%);fill-opacity:1;stroke-width:0.02;stroke-linecap:butt;stroke-linejoin:round;stroke:rgb(79.215686%,38.431373%,29.411765%);stroke-opacity:1;stroke-miterlimit:10;" d="M 2.876104 7.815481 C 2.876104 7.862196 2.806099 7.862196 2.806099 7.815481 C 2.806099 7.768765 2.876104 7.768765 2.876104 7.815481 Z M 2.876104 7.815481 " transform="matrix(28.346457,0,0,-28.346457,1,227.771654)"/>
<path style="fill-rule:nonzero;fill:rgb(79.215686%,38.431373%,29.411765%);fill-opacity:1;stroke-width:0.02;stroke-linecap:butt;stroke-linejoin:round;stroke:rgb(79.215686%,38.431373%,29.411765%);stroke-opacity:1;stroke-miterlimit:10;" d="M 2.969397 7.834084 C 2.969397 7.8808 2.899392 7.8808 2.899392 7.834084 C 2.899392 7.787369 2.969397 7.787369 2.969397 7.834084 Z M 2.969397 7.834084 " transform="matrix(28.346457,0,0,-28.346457,1,227.771654)"/>
<path style="fill-rule:nonzero;fill:rgb(79.215686%,38.431373%,29.411765%);fill-opacity:1;stroke-width:0.02;stroke-linecap:butt;stroke-linejoin:round;stroke:rgb(79.215686%,38.431373%,29.411765%);stroke-opacity:1;stroke-miterlimit:10;" d="M 3.06269 7.837805 C 3.06269 7.88452 2.992686 7.88452 2.992686 7.837805 C 2.992686 7.791227 3.06269 7.791227 3.06269 7.837805 Z M 3.06269 7.837805 " transform="matrix(28.346457,0,0,-28.346457,1,227.771654)"/>
<path style="fill-rule:nonzero;fill:rgb(79.215686%,38.431373%,29.411765%);fill-opacity:1;stroke-width:0.02;stroke-linecap:butt;stroke-linejoin:round;stroke:rgb(79.215686%,38.431373%,29.411765%);stroke-opacity:1;stroke-miterlimit:10;" d="M 3.155983 7.826643 C 3.155983 7.873358 3.085979 7.873358 3.085979 7.826643 C 3.085979 7.779927 3.155983 7.779927 3.155983 7.826643 Z M 3.155983 7.826643 " transform="matrix(28.346457,0,0,-28.346457,1,227.771654)"/>
<path style="fill-rule:nonzero;fill:rgb(79.215686%,38.431373%,29.411765%);fill-opacity:1;stroke-width:0.02;stroke-linecap:butt;stroke-linejoin:round;stroke:rgb(79.215686%,38.431373%,29.411765%);stroke-opacity:1;stroke-miterlimit:10;" d="M 3.249276 7.800598 C 3.249276 7.847313 3.179272 7.847313 3.179272 7.800598 C 3.179272 7.753882 3.249276 7.753882 3.249276 7.800598 Z M 3.249276 7.800598 " transform="matrix(28.346457,0,0,-28.346457,1,227.771654)"/>
<path style="fill-rule:nonzero;fill:rgb(79.215686%,38.431373%,29.411765%);fill-opacity:1;stroke-width:0.02;stroke-linecap:butt;stroke-linejoin:round;stroke:rgb(79.215686%,38.431373%,29.411765%);stroke-opacity:1;stroke-miterlimit:10;" d="M 3.342432 7.759808 C 3.342432 7.806386 3.272427 7.806386 3.272427 7.759808 C 3.272427 7.713092 3.342432 7.713092 3.342432 7.759808 Z M 3.342432 7.759808 " transform="matrix(28.346457,0,0,-28.346457,1,227.771654)"/>
<path style="fill-rule:nonzero;fill:rgb(79.215686%,38.431373%,29.411765%);fill-opacity:1;stroke-width:0.02;stroke-linecap:butt;stroke-linejoin:round;stroke:rgb(79.215686%,38.431373%,29.411765%);stroke-opacity:1;stroke-miterlimit:10;" d="M 3.435725 7.704273 C 3.435725 7.750988 3.36572 7.750988 3.36572 7.704273 C 3.36572 7.657695 3.435725 7.657695 3.435725 7.704273 Z M 3.435725 7.704273 " transform="matrix(28.346457,0,0,-28.346457,1,227.771654)"/>
<path style="fill-rule:nonzero;fill:rgb(79.215686%,38.431373%,29.411765%);fill-opacity:1;stroke-width:0.02;stroke-linecap:butt;stroke-linejoin:round;stroke:rgb(79.215686%,38.431373%,29.411765%);stroke-opacity:1;stroke-miterlimit:10;" d="M 3.529018 7.634544 C 3.529018 7.68126 3.459014 7.68126 3.459014 7.634544 C 3.459014 7.587829 3.529018 7.587829 3.529018 7.634544 Z M 3.529018 7.634544 " transform="matrix(28.346457,0,0,-28.346457,1,227.771654)"/>
<path style="fill-rule:nonzero;fill:rgb(79.215686%,38.431373%,29.411765%);fill-opacity:1;stroke-width:0.02;stroke-linecap:butt;stroke-linejoin:round;stroke:rgb(79.215686%,38.431373%,29.411765%);stroke-opacity:1;stroke-miterlimit:10;" d="M 3.622311 7.550622 C 3.622311 7.597337 3.552307 7.597337 3.552307 7.550622 C 3.552307 7.503906 3.622311 7.503906 3.622311 7.550622 Z M 3.622311 7.550622 " transform="matrix(28.346457,0,0,-28.346457,1,227.771654)"/>
<path style="fill-rule:nonzero;fill:rgb(79.215686%,38.431373%,29.411765%);fill-opacity:1;stroke-width:0.02;stroke-linecap:butt;stroke-linejoin:round;stroke:rgb(79.215686%,38.431373%,29.411765%);stroke-opacity:1;stroke-miterlimit:10;" d="M 3.715604 7.452919 C 3.715604 7.499634 3.6456 7.499634 3.6456 7.452919 C 3.6456 7.406341 3.715604 7.406341 3.715604 7.452919 Z M 3.715604 7.452919 " transform="matrix(28.346457,0,0,-28.346457,1,227.771654)"/>
<path style="fill-rule:nonzero;fill:rgb(79.215686%,38.431373%,29.411765%);fill-opacity:1;stroke-width:0.02;stroke-linecap:butt;stroke-linejoin:round;stroke:rgb(79.215686%,38.431373%,29.411765%);stroke-opacity:1;stroke-miterlimit:10;" d="M 3.808898 7.341987 C 3.808898 7.388564 3.738893 7.388564 3.738893 7.341987 C 3.738893 7.295271 3.808898 7.295271 3.808898 7.341987 Z M 3.808898 7.341987 " transform="matrix(28.346457,0,0,-28.346457,1,227.771654)"/>
<path style="fill-rule:nonzero;fill:rgb(79.215686%,38.431373%,29.411765%);fill-opacity:1;stroke-width:0.02;stroke-linecap:butt;stroke-linejoin:round;stroke:rgb(79.215686%,38.431373%,29.411765%);stroke-opacity:1;stroke-miterlimit:10;" d="M 3.902191 7.217963 C 3.902191 7.264679 3.832186 7.264679 3.832186 7.217963 C 3.832186 7.171248 3.902191 7.171248 3.902191 7.217963 Z M 3.902191 7.217963 " transform="matrix(28.346457,0,0,-28.346457,1,227.771654)"/>
<path style="fill-rule:nonzero;fill:rgb(79.215686%,38.431373%,29.411765%);fill-opacity:1;stroke-width:0.02;stroke-linecap:butt;stroke-linejoin:round;stroke:rgb(79.215686%,38.431373%,29.411765%);stroke-opacity:1;stroke-miterlimit:10;" d="M 3.995484 7.081675 C 3.995484 7.128253 3.92548 7.128253 3.92548 7.081675 C 3.92548 7.03496 3.995484 7.03496 3.995484 7.081675 Z M 3.995484 7.081675 " transform="matrix(28.346457,0,0,-28.346457,1,227.771654)"/>
<path style="fill-rule:nonzero;fill:rgb(79.215686%,38.431373%,29.411765%);fill-opacity:1;stroke-width:0.02;stroke-linecap:butt;stroke-linejoin:round;stroke:rgb(79.215686%,38.431373%,29.411765%);stroke-opacity:1;stroke-miterlimit:10;" d="M 4.088639 6.933398 C 4.088639 6.979976 4.018635 6.979976 4.018635 6.933398 C 4.018635 6.886683 4.088639 6.886683 4.088639 6.933398 Z M 4.088639 6.933398 " transform="matrix(28.346457,0,0,-28.346457,1,227.771654)"/>
<path style="fill-rule:nonzero;fill:rgb(79.215686%,38.431373%,29.411765%);fill-opacity:1;stroke-width:0.02;stroke-linecap:butt;stroke-linejoin:round;stroke:rgb(79.215686%,38.431373%,29.411765%);stroke-opacity:1;stroke-miterlimit:10;" d="M 4.181933 6.773822 C 4.181933 6.820537 4.111928 6.820537 4.111928 6.773822 C 4.111928 6.727244 4.181933 6.727244 4.181933 6.773822 Z M 4.181933 6.773822 " transform="matrix(28.346457,0,0,-28.346457,1,227.771654)"/>
<path style="fill-rule:nonzero;fill:rgb(79.215686%,38.431373%,29.411765%);fill-opacity:1;stroke-width:0.02;stroke-linecap:butt;stroke-linejoin:round;stroke:rgb(79.215686%,38.431373%,29.411765%);stroke-opacity:1;stroke-miterlimit:10;" d="M 4.275226 6.603634 C 4.275226 6.650349 4.205221 6.650349 4.205221 6.603634 C 4.205221 6.557056 4.275226 6.557056 4.275226 6.603634 Z M 4.275226 6.603634 " transform="matrix(28.346457,0,0,-28.346457,1,227.771654)"/>
<path style="fill-rule:nonzero;fill:rgb(79.215686%,38.431373%,29.411765%);fill-opacity:1;stroke-width:0.02;stroke-linecap:butt;stroke-linejoin:round;stroke:rgb(79.215686%,38.431373%,29.411765%);stroke-opacity:1;stroke-miterlimit:10;" d="M 4.368519 6.423662 C 4.368519 6.47024 4.298515 6.47024 4.298515 6.423662 C 4.298515 6.376947 4.368519 6.376947 4.368519 6.423662 Z M 4.368519 6.423662 " transform="matrix(28.346457,0,0,-28.346457,1,227.771654)"/>
<path style="fill-rule:nonzero;fill:rgb(79.215686%,38.431373%,29.411765%);fill-opacity:1;stroke-width:0.02;stroke-linecap:butt;stroke-linejoin:round;stroke:rgb(79.215686%,38.431373%,29.411765%);stroke-opacity:1;stroke-miterlimit:10;" d="M 4.461812 6.23432 C 4.461812 6.280897 4.391808 6.280897 4.391808 6.23432 C 4.391808 6.187604 4.461812 6.187604 4.461812 6.23432 Z M 4.461812 6.23432 " transform="matrix(28.346457,0,0,-28.346457,1,227.771654)"/>
<path style="fill-rule:nonzero;fill:rgb(79.215686%,38.431373%,29.411765%);fill-opacity:1;stroke-width:0.02;stroke-linecap:butt;stroke-linejoin:round;stroke:rgb(79.215686%,38.431373%,29.411765%);stroke-opacity:1;stroke-miterlimit:10;" d="M 4.555105 6.036433 C 4.555105 6.083149 4.485101 6.083149 4.485101 6.036433 C 4.485101 5.989856 4.555105 5.989856 4.555105 6.036433 Z M 4.555105 6.036433 " transform="matrix(28.346457,0,0,-28.346457,1,227.771654)"/>
<path style="fill-rule:nonzero;fill:rgb(79.215686%,38.431373%,29.411765%);fill-opacity:1;stroke-width:0.02;stroke-linecap:butt;stroke-linejoin:round;stroke:rgb(79.215686%,38.431373%,29.411765%);stroke-opacity:1;stroke-miterlimit:10;" d="M 4.648398 5.831106 C 4.648398 5.877683 4.578394 5.877683 4.578394 5.831106 C 4.578394 5.78439 4.648398 5.78439 4.648398 5.831106 Z M 4.648398 5.831106 " transform="matrix(28.346457,0,0,-28.346457,1,227.771654)"/>
<path style="fill-rule:nonzero;fill:rgb(79.215686%,38.431373%,29.411765%);fill-opacity:1;stroke-width:0.02;stroke-linecap:butt;stroke-linejoin:round;stroke:rgb(79.215686%,38.431373%,29.411765%);stroke-opacity:1;stroke-miterlimit:10;" d="M 4.741554 5.61875 C 4.741554 5.665465 4.671549 5.665465 4.671549 5.61875 C 4.671549 5.572172 4.741554 5.572172 4.741554 5.61875 Z M 4.741554 5.61875 " transform="matrix(28.346457,0,0,-28.346457,1,227.771654)"/>
<path style="fill-rule:nonzero;fill:rgb(79.215686%,38.431373%,29.411765%);fill-opacity:1;stroke-width:0.02;stroke-linecap:butt;stroke-linejoin:round;stroke:rgb(79.215686%,38.431373%,29.411765%);stroke-opacity:1;stroke-miterlimit:10;" d="M 4.834847 5.400469 C 4.834847 5.447184 4.764843 5.447184 4.764843 5.400469 C 4.764843 5.353891 4.834847 5.353891 4.834847 5.400469 Z M 4.834847 5.400469 " transform="matrix(28.346457,0,0,-28.346457,1,227.771654)"/>
<path style="fill-rule:nonzero;fill:rgb(79.215686%,38.431373%,29.411765%);fill-opacity:1;stroke-width:0.02;stroke-linecap:butt;stroke-linejoin:round;stroke:rgb(79.215686%,38.431373%,29.411765%);stroke-opacity:1;stroke-miterlimit:10;" d="M 4.92814 5.177089 C 4.92814 5.223804 4.858136 5.223804 4.858136 5.177089 C 4.858136 5.130511 4.92814 5.130511 4.92814 5.177089 Z M 4.92814 5.177089 " transform="matrix(28.346457,0,0,-28.346457,1,227.771654)"/>
<path style="fill-rule:nonzero;fill:rgb(79.215686%,38.431373%,29.411765%);fill-opacity:1;stroke-width:0.02;stroke-linecap:butt;stroke-linejoin:round;stroke:rgb(79.215686%,38.431373%,29.411765%);stroke-opacity:1;stroke-miterlimit:10;" d="M 5.021433 4.949575 C 5.021433 4.99629 4.951429 4.99629 4.951429 4.949575 C 4.951429 4.902859 5.021433 4.902859 5.021433 4.949575 Z M 5.021433 4.949575 " transform="matrix(28.346457,0,0,-28.346457,1,227.771654)"/>
<path style="fill-rule:nonzero;fill:rgb(79.215686%,38.431373%,29.411765%);fill-opacity:1;stroke-width:0.02;stroke-linecap:butt;stroke-linejoin:round;stroke:rgb(79.215686%,38.431373%,29.411765%);stroke-opacity:1;stroke-miterlimit:10;" d="M 5.114727 4.718753 C 5.114727 4.765469 5.044722 4.765469 5.044722 4.718753 C 5.044722 4.672038 5.114727 4.672038 5.114727 4.718753 Z M 5.114727 4.718753 " transform="matrix(28.346457,0,0,-28.346457,1,227.771654)"/>
<path style="fill-rule:nonzero;fill:rgb(79.215686%,38.431373%,29.411765%);fill-opacity:1;stroke-width:0.02;stroke-linecap:butt;stroke-linejoin:round;stroke:rgb(79.215686%,38.431373%,29.411765%);stroke-opacity:1;stroke-miterlimit:10;" d="M 5.20802 4.485589 C 5.20802 4.532167 5.138015 4.532167 5.138015 4.485589 C 5.138015 4.438874 5.20802 4.438874 5.20802 4.485589 Z M 5.20802 4.485589 " transform="matrix(28.346457,0,0,-28.346457,1,227.771654)"/>
<path style="fill-rule:nonzero;fill:rgb(79.215686%,38.431373%,29.411765%);fill-opacity:1;stroke-width:0.02;stroke-linecap:butt;stroke-linejoin:round;stroke:rgb(79.215686%,38.431373%,29.411765%);stroke-opacity:1;stroke-miterlimit:10;" d="M 5.301313 4.250909 C 5.301313 4.297625 5.231309 4.297625 5.231309 4.250909 C 5.231309 4.204194 5.301313 4.204194 5.301313 4.250909 Z M 5.301313 4.250909 " transform="matrix(28.346457,0,0,-28.346457,1,227.771654)"/>
<path style="fill-rule:nonzero;fill:rgb(79.215686%,38.431373%,29.411765%);fill-opacity:1;stroke-width:0.02;stroke-linecap:butt;stroke-linejoin:round;stroke:rgb(79.215686%,38.431373%,29.411765%);stroke-opacity:1;stroke-miterlimit:10;" d="M 5.394606 4.015816 C 5.394606 4.062531 5.324602 4.062531 5.324602 4.015816 C 5.324602 3.9691 5.394606 3.9691 5.394606 4.015816 Z M 5.394606 4.015816 " transform="matrix(28.346457,0,0,-28.346457,1,227.771654)"/>
<path style="fill-rule:nonzero;fill:rgb(79.215686%,38.431373%,29.411765%);fill-opacity:1;stroke-width:0.02;stroke-linecap:butt;stroke-linejoin:round;stroke:rgb(79.215686%,38.431373%,29.411765%);stroke-opacity:1;stroke-miterlimit:10;" d="M 5.487762 3.781136 C 5.487762 3.827852 5.417757 3.827852 5.417757 3.781136 C 5.417757 3.734558 5.487762 3.734558 5.487762 3.781136 Z M 5.487762 3.781136 " transform="matrix(28.346457,0,0,-28.346457,1,227.771654)"/>
<path style="fill-rule:nonzero;fill:rgb(79.215686%,38.431373%,29.411765%);fill-opacity:1;stroke-width:0.02;stroke-linecap:butt;stroke-linejoin:round;stroke:rgb(79.215686%,38.431373%,29.411765%);stroke-opacity:1;stroke-miterlimit:10;" d="M 5.581055 3.547972 C 5.581055 3.594688 5.51105 3.594688 5.51105 3.547972 C 5.51105 3.501257 5.581055 3.501257 5.581055 3.547972 Z M 5.581055 3.547972 " transform="matrix(28.346457,0,0,-28.346457,1,227.771654)"/>
<path style="fill-rule:nonzero;fill:rgb(79.215686%,38.431373%,29.411765%);fill-opacity:1;stroke-width:0.02;stroke-linecap:butt;stroke-linejoin:round;stroke:rgb(79.215686%,38.431373%,29.411765%);stroke-opacity:1;stroke-miterlimit:10;" d="M 5.674348 3.317151 C 5.674348 3.363728 5.604344 3.363728 5.604344 3.317151 C 5.604344 3.270435 5.674348 3.270435 5.674348 3.317151 Z M 5.674348 3.317151 " transform="matrix(28.346457,0,0,-28.346457,1,227.771654)"/>
<path style="fill-rule:nonzero;fill:rgb(79.215686%,38.431373%,29.411765%);fill-opacity:1;stroke-width:0.02;stroke-linecap:butt;stroke-linejoin:round;stroke:rgb(79.215686%,38.431373%,29.411765%);stroke-opacity:1;stroke-miterlimit:10;" d="M 5.767641 3.089499 C 5.767641 3.136214 5.697637 3.136214 5.697637 3.089499 C 5.697637 3.042921 5.767641 3.042921 5.767641 3.089499 Z M 5.767641 3.089499 " transform="matrix(28.346457,0,0,-28.346457,1,227.771654)"/>
<path style="fill-rule:nonzero;fill:rgb(79.215686%,38.431373%,29.411765%);fill-opacity:1;stroke-width:0.02;stroke-linecap:butt;stroke-linejoin:round;stroke:rgb(79.215686%,38.431373%,29.411765%);stroke-opacity:1;stroke-miterlimit:10;" d="M 5.860934 2.866119 C 5.860934 2.912834 5.79093 2.912834 5.79093 2.866119 C 5.79093 2.819541 5.860934 2.819541 5.860934 2.866119 Z M 5.860934 2.866119 " transform="matrix(28.346457,0,0,-28.346457,1,227.771654)"/>
<path style="fill-rule:nonzero;fill:rgb(79.215686%,38.431373%,29.411765%);fill-opacity:1;stroke-width:0.02;stroke-linecap:butt;stroke-linejoin:round;stroke:rgb(79.215686%,38.431373%,29.411765%);stroke-opacity:1;stroke-miterlimit:10;" d="M 5.954227 2.647975 C 5.954227 2.694553 5.884223 2.694553 5.884223 2.647975 C 5.884223 2.60126 5.954227 2.60126 5.954227 2.647975 Z M 5.954227 2.647975 " transform="matrix(28.346457,0,0,-28.346457,1,227.771654)"/>
<path style="fill-rule:nonzero;fill:rgb(79.215686%,38.431373%,29.411765%);fill-opacity:1;stroke-width:0.02;stroke-linecap:butt;stroke-linejoin:round;stroke:rgb(79.215686%,38.431373%,29.411765%);stroke-opacity:1;stroke-miterlimit:10;" d="M 6.047521 2.43562 C 6.047521 2.482335 5.977516 2.482335 5.977516 2.43562 C 5.977516 2.389042 6.047521 2.389042 6.047521 2.43562 Z M 6.047521 2.43562 " transform="matrix(28.346457,0,0,-28.346457,1,227.771654)"/>
<path style="fill-rule:nonzero;fill:rgb(79.215686%,38.431373%,29.411765%);fill-opacity:1;stroke-width:0.02;stroke-linecap:butt;stroke-linejoin:round;stroke:rgb(79.215686%,38.431373%,29.411765%);stroke-opacity:1;stroke-miterlimit:10;" d="M 6.140676 2.230154 C 6.140676 2.27687 6.070672 2.27687 6.070672 2.230154 C 6.070672 2.183576 6.140676 2.183576 6.140676 2.230154 Z M 6.140676 2.230154 " transform="matrix(28.346457,0,0,-28.346457,1,227.771654)"/>
<path style="fill-rule:nonzero;fill:rgb(79.215686%,38.431373%,29.411765%);fill-opacity:1;stroke-width:0.02;stroke-linecap:butt;stroke-linejoin:round;stroke:rgb(79.215686%,38.431373%,29.411765%);stroke-opacity:1;stroke-miterlimit:10;" d="M 6.233969 2.032406 C 6.233969 2.079121 6.163965 2.079121 6.163965 2.032406 C 6.163965 1.98569 6.233969 1.98569 6.233969 2.032406 Z M 6.233969 2.032406 " transform="matrix(28.346457,0,0,-28.346457,1,227.771654)"/>
<path style="fill-rule:nonzero;fill:rgb(79.215686%,38.431373%,29.411765%);fill-opacity:1;stroke-width:0.02;stroke-linecap:butt;stroke-linejoin:round;stroke:rgb(79.215686%,38.431373%,29.411765%);stroke-opacity:1;stroke-miterlimit:10;" d="M 6.327262 1.843063 C 6.327262 1.889779 6.257258 1.889779 6.257258 1.843063 C 6.257258 1.796485 6.327262 1.796485 6.327262 1.843063 Z M 6.327262 1.843063 " transform="matrix(28.346457,0,0,-28.346457,1,227.771654)"/>
<path style="fill-rule:nonzero;fill:rgb(79.215686%,38.431373%,29.411765%);fill-opacity:1;stroke-width:0.02;stroke-linecap:butt;stroke-linejoin:round;stroke:rgb(79.215686%,38.431373%,29.411765%);stroke-opacity:1;stroke-miterlimit:10;" d="M 6.420556 1.662954 C 6.420556 1.709669 6.350551 1.709669 6.350551 1.662954 C 6.350551 1.616376 6.420556 1.616376 6.420556 1.662954 Z M 6.420556 1.662954 " transform="matrix(28.346457,0,0,-28.346457,1,227.771654)"/>
<path style="fill-rule:nonzero;fill:rgb(79.215686%,38.431373%,29.411765%);fill-opacity:1;stroke-width:0.02;stroke-linecap:butt;stroke-linejoin:round;stroke:rgb(79.215686%,38.431373%,29.411765%);stroke-opacity:1;stroke-miterlimit:10;" d="M 6.513849 1.492904 C 6.513849 1.539481 6.443844 1.539481 6.443844 1.492904 C 6.443844 1.446188 6.513849 1.446188 6.513849 1.492904 Z M 6.513849 1.492904 " transform="matrix(28.346457,0,0,-28.346457,1,227.771654)"/>
<path style="fill-rule:nonzero;fill:rgb(79.215686%,38.431373%,29.411765%);fill-opacity:1;stroke-width:0.02;stroke-linecap:butt;stroke-linejoin:round;stroke:rgb(79.215686%,38.431373%,29.411765%);stroke-opacity:1;stroke-miterlimit:10;" d="M 6.607142 1.333327 C 6.607142 1.380042 6.537138 1.380042 6.537138 1.333327 C 6.537138 1.286611 6.607142 1.286611 6.607142 1.333327 Z M 6.607142 1.333327 " transform="matrix(28.346457,0,0,-28.346457,1,227.771654)"/>
<path style="fill-rule:nonzero;fill:rgb(79.215686%,38.431373%,29.411765%);fill-opacity:1;stroke-width:0.02;stroke-linecap:butt;stroke-linejoin:round;stroke:rgb(79.215686%,38.431373%,29.411765%);stroke-opacity:1;stroke-miterlimit:10;" d="M 6.700435 1.18505 C 6.700435 1.231765 6.630431 1.231765 6.630431 1.18505 C 6.630431 1.138472 6.700435 1.138472 6.700435 1.18505 Z M 6.700435 1.18505 " transform="matrix(28.346457,0,0,-28.346457,1,227.771654)"/>
<path style="fill-rule:nonzero;fill:rgb(79.215686%,38.431373%,29.411765%);fill-opacity:1;stroke-width:0.02;stroke-linecap:butt;stroke-linejoin:round;stroke:rgb(79.215686%,38.431373%,29.411765%);stroke-opacity:1;stroke-miterlimit:10;" d="M 6.79359 1.048762 C 6.79359 1.09534 6.723724 1.09534 6.723724 1.048762 C 6.723724 1.002046 6.79359 1.002046 6.79359 1.048762 Z M 6.79359 1.048762 " transform="matrix(28.346457,0,0,-28.346457,1,227.771654)"/>
<path style="fill-rule:nonzero;fill:rgb(79.215686%,38.431373%,29.411765%);fill-opacity:1;stroke-width:0.02;stroke-linecap:butt;stroke-linejoin:round;stroke:rgb(79.215686%,38.431373%,29.411765%);stroke-opacity:1;stroke-miterlimit:10;" d="M 6.886884 0.924738 C 6.886884 0.971454 6.816879 0.971454 6.816879 0.924738 C 6.816879 0.878161 6.886884 0.878161 6.886884 0.924738 Z M 6.886884 0.924738 " transform="matrix(28.346457,0,0,-28.346457,1,227.771654)"/>
<path style="fill-rule:nonzero;fill:rgb(79.215686%,38.431373%,29.411765%);fill-opacity:1;stroke-width:0.02;stroke-linecap:butt;stroke-linejoin:round;stroke:rgb(79.215686%,38.431373%,29.411765%);stroke-opacity:1;stroke-miterlimit:10;" d="M 6.980177 0.813806 C 6.980177 0.860384 6.910173 0.860384 6.910173 0.813806 C 6.910173 0.767091 6.980177 0.767091 6.980177 0.813806 Z M 6.980177 0.813806 " transform="matrix(28.346457,0,0,-28.346457,1,227.771654)"/>
<path style="fill-rule:nonzero;fill:rgb(79.215686%,38.431373%,29.411765%);fill-opacity:1;stroke-width:0.02;stroke-linecap:butt;stroke-linejoin:round;stroke:rgb(79.215686%,38.431373%,29.411765%);stroke-opacity:1;stroke-miterlimit:10;" d="M 7.07347 0.716104 C 7.07347 0.762681 7.003466 0.762681 7.003466 0.716104 C 7.003466 0.669388 7.07347 0.669388 7.07347 0.716104 Z M 7.07347 0.716104 " transform="matrix(28.346457,0,0,-28.346457,1,227.771654)"/>
<path style="fill-rule:nonzero;fill:rgb(79.215686%,38.431373%,29.411765%);fill-opacity:1;stroke-width:0.02;stroke-linecap:butt;stroke-linejoin:round;stroke:rgb(79.215686%,38.431373%,29.411765%);stroke-opacity:1;stroke-miterlimit:10;" d="M 7.166763 0.632181 C 7.166763 0.678896 7.096759 0.678896 7.096759 0.632181 C 7.096759 0.585465 7.166763 0.585465 7.166763 0.632181 Z M 7.166763 0.632181 " transform="matrix(28.346457,0,0,-28.346457,1,227.771654)"/>
<path style="fill-rule:nonzero;fill:rgb(79.215686%,38.431373%,29.411765%);fill-opacity:1;stroke-width:0.02;stroke-linecap:butt;stroke-linejoin:round;stroke:rgb(79.215686%,38.431373%,29.411765%);stroke-opacity:1;stroke-miterlimit:10;" d="M 7.260056 0.562314 C 7.260056 0.60903 7.190052 0.60903 7.190052 0.562314 C 7.190052 0.515737 7.260056 0.515737 7.260056 0.562314 Z M 7.260056 0.562314 " transform="matrix(28.346457,0,0,-28.346457,1,227.771654)"/>
<path style="fill-rule:nonzero;fill:rgb(79.215686%,38.431373%,29.411765%);fill-opacity:1;stroke-width:0.02;stroke-linecap:butt;stroke-linejoin:round;stroke:rgb(79.215686%,38.431373%,29.411765%);stroke-opacity:1;stroke-miterlimit:10;" d="M 7.35335 0.506917 C 7.35335 0.553633 7.283345 0.553633 7.283345 0.506917 C 7.283345 0.460202 7.35335 0.460202 7.35335 0.506917 Z M 7.35335 0.506917 " transform="matrix(28.346457,0,0,-28.346457,1,227.771654)"/>
<path style="fill-rule:nonzero;fill:rgb(79.215686%,38.431373%,29.411765%);fill-opacity:1;stroke-width:0.02;stroke-linecap:butt;stroke-linejoin:round;stroke:rgb(79.215686%,38.431373%,29.411765%);stroke-opacity:1;stroke-miterlimit:10;" d="M 7.446643 0.466127 C 7.446643 0.512843 7.376638 0.512843 7.376638 0.466127 C 7.376638 0.419412 7.446643 0.419412 7.446643 0.466127 Z M 7.446643 0.466127 " transform="matrix(28.346457,0,0,-28.346457,1,227.771654)"/>
<path style="fill-rule:nonzero;fill:rgb(79.215686%,38.431373%,29.411765%);fill-opacity:1;stroke-width:0.02;stroke-linecap:butt;stroke-linejoin:round;stroke:rgb(79.215686%,38.431373%,29.411765%);stroke-opacity:1;stroke-miterlimit:10;" d="M 7.539798 0.440082 C 7.539798 0.48666 7.469794 0.48666 7.469794 0.440082 C 7.469794 0.393367 7.539798 0.393367 7.539798 0.440082 Z M 7.539798 0.440082 " transform="matrix(28.346457,0,0,-28.346457,1,227.771654)"/>
<path style="fill-rule:nonzero;fill:rgb(79.215686%,38.431373%,29.411765%);fill-opacity:1;stroke-width:0.02;stroke-linecap:butt;stroke-linejoin:round;stroke:rgb(79.215686%,38.431373%,29.411765%);stroke-opacity:1;stroke-miterlimit:10;" d="M 7.633091 0.42892 C 7.633091 0.475498 7.563087 0.475498 7.563087 0.42892 C 7.563087 0.382205 7.633091 0.382205 7.633091 0.42892 Z M 7.633091 0.42892 " transform="matrix(28.346457,0,0,-28.346457,1,227.771654)"/>
<path style="fill-rule:nonzero;fill:rgb(79.215686%,38.431373%,29.411765%);fill-opacity:1;stroke-width:0.02;stroke-linecap:butt;stroke-linejoin:round;stroke:rgb(79.215686%,38.431373%,29.411765%);stroke-opacity:1;stroke-miterlimit:10;" d="M 7.726385 0.432641 C 7.726385 0.479219 7.65638 0.479219 7.65638 0.432641 C 7.65638 0.385926 7.726385 0.385926 7.726385 0.432641 Z M 7.726385 0.432641 " transform="matrix(28.346457,0,0,-28.346457,1,227.771654)"/>
<path style="fill-rule:nonzero;fill:rgb(79.215686%,38.431373%,29.411765%);fill-opacity:1;stroke-width:0.02;stroke-linecap:butt;stroke-linejoin:round;stroke:rgb(79.215686%,38.431373%,29.411765%);stroke-opacity:1;stroke-miterlimit:10;" d="M 7.819678 0.451245 C 7.819678 0.49796 7.749673 0.49796 7.749673 0.451245 C 7.749673 0.404529 7.819678 0.404529 7.819678 0.451245 Z M 7.819678 0.451245 " transform="matrix(28.346457,0,0,-28.346457,1,227.771654)"/>
<path style="fill-rule:nonzero;fill:rgb(79.215686%,38.431373%,29.411765%);fill-opacity:1;stroke-width:0.02;stroke-linecap:butt;stroke-linejoin:round;stroke:rgb(79.215686%,38.431373%,29.411765%);stroke-opacity:1;stroke-miterlimit:10;" d="M 7.912971 0.484731 C 7.912971 0.531309 7.842967 0.531309 7.842967 0.484731 C 7.842967 0.438015 7.912971 0.438015 7.912971 0.484731 Z M 7.912971 0.484731 " transform="matrix(28.346457,0,0,-28.346457,1,227.771654)"/>
<path style="fill-rule:nonzero;fill:rgb(79.215686%,38.431373%,29.411765%);fill-opacity:1;stroke-width:0.02;stroke-linecap:butt;stroke-linejoin:round;stroke:rgb(79.215686%,38.431373%,29.411765%);stroke-opacity:1;stroke-miterlimit:10;" d="M 8.006264 0.532824 C 8.006264 0.57954 7.93626 0.57954 7.93626 0.532824 C 7.93626 0.486109 8.006264 0.486109 8.006264 0.532824 Z M 8.006264 0.532824 " transform="matrix(28.346457,0,0,-28.346457,1,227.771654)"/>
<path style="fill-rule:nonzero;fill:rgb(79.215686%,38.431373%,29.411765%);fill-opacity:1;stroke-width:0.02;stroke-linecap:butt;stroke-linejoin:round;stroke:rgb(79.215686%,38.431373%,29.411765%);stroke-opacity:1;stroke-miterlimit:10;" d="M 8.099557 0.595525 C 8.099557 0.642103 8.029553 0.642103 8.029553 0.595525 C 8.029553 0.54881 8.099557 0.54881 8.099557 0.595525 Z M 8.099557 0.595525 " transform="matrix(28.346457,0,0,-28.346457,1,227.771654)"/>
<path style="fill-rule:nonzero;fill:rgb(79.215686%,38.431373%,29.411765%);fill-opacity:1;stroke-width:0.02;stroke-linecap:butt;stroke-linejoin:round;stroke:rgb(79.215686%,38.431373%,29.411765%);stroke-opacity:1;stroke-miterlimit:10;" d="M 8.192713 0.67242 C 8.192713 0.718997 8.122846 0.718997 8.122846 0.67242 C 8.122846 0.625704 8.192713 0.625704 8.192713 0.67242 Z M 8.192713 0.67242 " transform="matrix(28.346457,0,0,-28.346457,1,227.771654)"/>
<path style="fill-rule:nonzero;fill:rgb(79.215686%,38.431373%,29.411765%);fill-opacity:1;stroke-width:0.02;stroke-linecap:butt;stroke-linejoin:round;stroke:rgb(79.215686%,38.431373%,29.411765%);stroke-opacity:1;stroke-miterlimit:10;" d="M 8.286006 0.763232 C 8.286006 0.80981 8.216002 0.80981 8.216002 0.763232 C 8.216002 0.716517 8.286006 0.716517 8.286006 0.763232 Z M 8.286006 0.763232 " transform="matrix(28.346457,0,0,-28.346457,1,227.771654)"/>
<path style="fill-rule:nonzero;fill:rgb(79.215686%,38.431373%,29.411765%);fill-opacity:1;stroke-width:0.02;stroke-linecap:butt;stroke-linejoin:round;stroke:rgb(79.215686%,38.431373%,29.411765%);stroke-opacity:1;stroke-miterlimit:10;" d="M 8.379299 0.86755 C 8.379299 0.914265 8.309295 0.914265 8.309295 0.86755 C 8.309295 0.820972 8.379299 0.820972 8.379299 0.86755 Z M 8.379299 0.86755 " transform="matrix(28.346457,0,0,-28.346457,1,227.771654)"/>
<path style="fill-rule:nonzero;fill:rgb(79.215686%,38.431373%,29.411765%);fill-opacity:1;stroke-width:0.02;stroke-linecap:butt;stroke-linejoin:round;stroke:rgb(79.215686%,38.431373%,29.411765%);stroke-opacity:1;stroke-miterlimit:10;" d="M 8.472592 0.985097 C 8.472592 1.031812 8.402588 1.031812 8.402588 0.985097 C 8.402588 0.938519 8.472592 0.938519 8.472592 0.985097 Z M 8.472592 0.985097 " transform="matrix(28.346457,0,0,-28.346457,1,227.771654)"/>
<path style="fill-rule:nonzero;fill:rgb(79.215686%,38.431373%,29.411765%);fill-opacity:1;stroke-width:0.02;stroke-linecap:butt;stroke-linejoin:round;stroke:rgb(79.215686%,38.431373%,29.411765%);stroke-opacity:1;stroke-miterlimit:10;" d="M 8.565885 1.115321 C 8.565885 1.162037 8.495881 1.162037 8.495881 1.115321 C 8.495881 1.068743 8.565885 1.068743 8.565885 1.115321 Z M 8.565885 1.115321 " transform="matrix(28.346457,0,0,-28.346457,1,227.771654)"/>
<path style="fill-rule:nonzero;fill:rgb(79.215686%,38.431373%,29.411765%);fill-opacity:1;stroke-width:0.02;stroke-linecap:butt;stroke-linejoin:round;stroke:rgb(79.215686%,38.431373%,29.411765%);stroke-opacity:1;stroke-miterlimit:10;" d="M 8.659179 1.25781 C 8.659179 1.304388 8.589174 1.304388 8.589174 1.25781 C 8.589174 1.211095 8.659179 1.211095 8.659179 1.25781 Z M 8.659179 1.25781 " transform="matrix(28.346457,0,0,-28.346457,1,227.771654)"/>
<path style="fill-rule:nonzero;fill:rgb(79.215686%,38.431373%,29.411765%);fill-opacity:1;stroke-width:0.02;stroke-linecap:butt;stroke-linejoin:round;stroke:rgb(79.215686%,38.431373%,29.411765%);stroke-opacity:1;stroke-miterlimit:10;" d="M 8.752472 1.411737 C 8.752472 1.458453 8.682467 1.458453 8.682467 1.411737 C 8.682467 1.365022 8.752472 1.365022 8.752472 1.411737 Z M 8.752472 1.411737 " transform="matrix(28.346457,0,0,-28.346457,1,227.771654)"/>
<path style="fill-rule:nonzero;fill:rgb(79.215686%,38.431373%,29.411765%);fill-opacity:1;stroke-width:0.02;stroke-linecap:butt;stroke-linejoin:round;stroke:rgb(79.215686%,38.431373%,29.411765%);stroke-opacity:1;stroke-miterlimit:10;" d="M 8.845765 1.576688 C 8.845765 1.623266 8.775761 1.623266 8.775761 1.576688 C 8.775761 1.529973 8.845765 1.529973 8.845765 1.576688 Z M 8.845765 1.576688 " transform="matrix(28.346457,0,0,-28.346457,1,227.771654)"/>
<path style="fill-rule:nonzero;fill:rgb(79.215686%,38.431373%,29.411765%);fill-opacity:1;stroke-width:0.02;stroke-linecap:butt;stroke-linejoin:round;stroke:rgb(79.215686%,38.431373%,29.411765%);stroke-opacity:1;stroke-miterlimit:10;" d="M 8.93892 1.751837 C 8.93892 1.798553 8.868916 1.798553 8.868916 1.751837 C 8.868916 1.705122 8.93892 1.705122 8.93892 1.751837 Z M 8.93892 1.751837 " transform="matrix(28.346457,0,0,-28.346457,1,227.771654)"/>
<path style="fill-rule:nonzero;fill:rgb(79.215686%,38.431373%,29.411765%);fill-opacity:1;stroke-width:0.02;stroke-linecap:butt;stroke-linejoin:round;stroke:rgb(79.215686%,38.431373%,29.411765%);stroke-opacity:1;stroke-miterlimit:10;" d="M 9.032214 1.936632 C 9.032214 1.983347 8.962209 1.983347 8.962209 1.936632 C 8.962209 1.890054 9.032214 1.890054 9.032214 1.936632 Z M 9.032214 1.936632 " transform="matrix(28.346457,0,0,-28.346457,1,227.771654)"/>
<path style="fill-rule:nonzero;fill:rgb(79.215686%,38.431373%,29.411765%);fill-opacity:1;stroke-width:0.02;stroke-linecap:butt;stroke-linejoin:round;stroke:rgb(79.215686%,38.431373%,29.411765%);stroke-opacity:1;stroke-miterlimit:10;" d="M 9.125507 2.130246 C 9.125507 2.176962 9.055502 2.176962 9.055502 2.130246 C 9.055502 2.083669 9.125507 2.083669 9.125507 2.130246 Z M 9.125507 2.130246 " transform="matrix(28.346457,0,0,-28.346457,1,227.771654)"/>
<path style="fill-rule:nonzero;fill:rgb(79.215686%,38.431373%,29.411765%);fill-opacity:1;stroke-width:0.02;stroke-linecap:butt;stroke-linejoin:round;stroke:rgb(79.215686%,38.431373%,29.411765%);stroke-opacity:1;stroke-miterlimit:10;" d="M 9.2188 2.331991 C 9.2188 2.378707 9.148796 2.378707 9.148796 2.331991 C 9.148796 2.285413 9.2188 2.285413 9.2188 2.331991 Z M 9.2188 2.331991 " transform="matrix(28.346457,0,0,-28.346457,1,227.771654)"/>
<path style="fill-rule:nonzero;fill:rgb(79.215686%,38.431373%,29.411765%);fill-opacity:1;stroke-width:0.02;stroke-linecap:butt;stroke-linejoin:round;stroke:rgb(79.215686%,38.431373%,29.411765%);stroke-opacity:1;stroke-miterlimit:10;" d="M 9.312093 2.541039 C 9.312093 2.587617 9.242089 2.587617 9.242089 2.541039 C 9.242089 2.494324 9.312093 2.494324 9.312093 2.541039 Z M 9.312093 2.541039 " transform="matrix(28.346457,0,0,-28.346457,1,227.771654)"/>
<path style="fill-rule:nonzero;fill:rgb(79.215686%,38.431373%,29.411765%);fill-opacity:1;stroke-width:0.02;stroke-linecap:butt;stroke-linejoin:round;stroke:rgb(79.215686%,38.431373%,29.411765%);stroke-opacity:1;stroke-miterlimit:10;" d="M 9.405386 2.756427 C 9.405386 2.803005 9.335382 2.803005 9.335382 2.756427 C 9.335382 2.709711 9.405386 2.709711 9.405386 2.756427 Z M 9.405386 2.756427 " transform="matrix(28.346457,0,0,-28.346457,1,227.771654)"/>
<path style="fill-rule:nonzero;fill:rgb(79.215686%,38.431373%,29.411765%);fill-opacity:1;stroke-width:0.02;stroke-linecap:butt;stroke-linejoin:round;stroke:rgb(79.215686%,38.431373%,29.411765%);stroke-opacity:1;stroke-miterlimit:10;" d="M 9.498679 2.977326 C 9.498679 3.023904 9.428675 3.023904 9.428675 2.977326 C 9.428675 2.930611 9.498679 2.930611 9.498679 2.977326 Z M 9.498679 2.977326 " transform="matrix(28.346457,0,0,-28.346457,1,227.771654)"/>
<path style="fill-rule:nonzero;fill:rgb(79.215686%,38.431373%,29.411765%);fill-opacity:1;stroke-width:0.02;stroke-linecap:butt;stroke-linejoin:round;stroke:rgb(79.215686%,38.431373%,29.411765%);stroke-opacity:1;stroke-miterlimit:10;" d="M 9.591835 3.202911 C 9.591835 3.249489 9.521968 3.249489 9.521968 3.202911 C 9.521968 3.156196 9.591835 3.156196 9.591835 3.202911 Z M 9.591835 3.202911 " transform="matrix(28.346457,0,0,-28.346457,1,227.771654)"/>
<path style="fill-rule:nonzero;fill:rgb(79.215686%,38.431373%,29.411765%);fill-opacity:1;stroke-width:0.02;stroke-linecap:butt;stroke-linejoin:round;stroke:rgb(79.215686%,38.431373%,29.411765%);stroke-opacity:1;stroke-miterlimit:10;" d="M 9.685128 3.432217 C 9.685128 3.478794 9.615124 3.478794 9.615124 3.432217 C 9.615124 3.385501 9.685128 3.385501 9.685128 3.432217 Z M 9.685128 3.432217 " transform="matrix(28.346457,0,0,-28.346457,1,227.771654)"/>
<path style="fill-rule:nonzero;fill:rgb(79.215686%,38.431373%,29.411765%);fill-opacity:1;stroke-width:0.02;stroke-linecap:butt;stroke-linejoin:round;stroke:rgb(79.215686%,38.431373%,29.411765%);stroke-opacity:1;stroke-miterlimit:10;" d="M 9.778421 3.664278 C 9.778421 3.710994 9.708417 3.710994 9.708417 3.664278 C 9.708417 3.617701 9.778421 3.617701 9.778421 3.664278 Z M 9.778421 3.664278 " transform="matrix(28.346457,0,0,-28.346457,1,227.771654)"/>
<path style="fill-rule:nonzero;fill:rgb(79.215686%,38.431373%,29.411765%);fill-opacity:1;stroke-width:0.02;stroke-linecap:butt;stroke-linejoin:round;stroke:rgb(79.215686%,38.431373%,29.411765%);stroke-opacity:1;stroke-miterlimit:10;" d="M 9.871714 3.898407 C 9.871714 3.944985 9.80171 3.944985 9.80171 3.898407 C 9.80171 3.851692 9.871714 3.851692 9.871714 3.898407 Z M 9.871714 3.898407 " transform="matrix(28.346457,0,0,-28.346457,1,227.771654)"/>
<path style="fill-rule:nonzero;fill:rgb(79.215686%,38.431373%,29.411765%);fill-opacity:1;stroke-width:0.02;stroke-linecap:butt;stroke-linejoin:round;stroke:rgb(79.215686%,38.431373%,29.411765%);stroke-opacity:1;stroke-miterlimit:10;" d="M 9.965008 4.133363 C 9.965008 4.180078 9.895003 4.180078 9.895003 4.133363 C 9.895003 4.086647 9.965008 4.086647 9.965008 4.133363 Z M 9.965008 4.133363 " transform="matrix(28.346457,0,0,-28.346457,1,227.771654)"/>
</g>
</svg>
