<?xml version="1.0" encoding="UTF-8"?>
<svg xmlns="http://www.w3.org/2000/svg" xmlns:xlink="http://www.w3.org/1999/xlink" width="285.464567pt" height="228.771654pt" viewBox="0 0 285.464567 228.771654" version="1.1">
<g id="surface1">
<path style="fill:none;stroke-width:0.02;stroke-linecap:butt;stroke-linejoin:miter;stroke:rgb(0%,0%,0%);stroke-opacity:1;stroke-miterlimit:10;" d="M 0.695771 1.354686 L 0.800778 1.354686 " transform="matrix(28.346457,0,0,-28.346457,1,227.771654)"/>
<path style="fill:none;stroke-width:0.02;stroke-linecap:butt;stroke-linejoin:miter;stroke:rgb(0%,0%,0%);stroke-opacity:1;stroke-miterlimit:10;" d="M 0.695771 2.280866 L 0.800778 2.280866 " transform="matrix(28.346457,0,0,-28.346457,1,227.771654)"/>
<path style="fill:none;stroke-width:0.02;stroke-linecap:butt;stroke-linejoin:miter;stroke:rgb(0%,0%,0%);stroke-opacity:1;stroke-miterlimit:10;" d="M 0.695771 3.207045 L 0.800778 3.207045 " transform="matrix(28.346457,0,0,-28.346457,1,227.771654)"/>
<path style="fill:none;stroke-width:0.02;stroke-linecap:butt;stroke-linejoin:miter;stroke:rgb(0%,0%,0%);stroke-opacity:1;stroke-miterlimit:10;" d="M 0.695771 4.133363 L 0.800778 4.133363 " transform="matrix(28.346457,0,0,-28.346457,1,227.771654)"/>
<path style="fill:none;stroke-width:0.02;stroke-linecap:butt;stroke-linejoin:miter;stroke:rgb(0%,0%,0%);stroke-opacity:1;stroke-miterlimit:10;" d="M 0.695771 5.059542 L 0.800778 5.059542 " transform="matrix(28.346457,0,0,-28.346457,1,227.771654)"/>
<path style="fill:none;stroke-width:0.02;stroke-linecap:butt;stroke-linejoin:miter;stroke:rgb(0%,0%,0%);stroke-opacity:1;stroke-miterlimit:10;" d="M 0.695771 5.985859 L 0.800778 5.985859 " transform="matrix(28.346457,0,0,-28.346457,1,227.771654)"/>
<path style="fill:none;stroke-width:0.02;stroke-linecap:butt;stroke-linejoin:miter;stroke:rgb(0%,0%,0%);stroke-opacity:1;stroke-miterlimit:10;" d="M 0.695771 6.912039 L 0.800778 6.912039 " transform="matrix(28.346457,0,0,-28.346457,1,227.771654)"/>
<path style="fill:none;stroke-width:0.02;stroke-linecap:round;stroke-linejoin:miter;stroke:rgb(0%,0%,0%);stroke-opacity:1;stroke-miterlimit:10;" d="M 0.695771 0.428369 L 0.695771 7.838356 " transform="matrix(28.346457,0,0,-28.346457,1,227.771654)"/>
<path style=" stroke:none;fill-rule:nonzero;fill:rgb(0%,0%,0%);fill-opacity:1;" d="M 5.160156 216.265625 L 5.160156 216.710938 L 3.078125 216.710938 L 3.078125 216.265625 Z M 5.160156 216.265625 Z M 5.160156 216.265625 "/>
<path style=" stroke:none;fill-rule:nonzero;fill:rgb(0%,0%,0%);fill-opacity:1;" d="M 7.992188 212.886719 L 7.992188 217.78125 L 8 217.796875 L 8.976562 217.796875 L 8.976562 218.234375 L 6.398438 218.234375 L 6.398438 217.796875 L 7.375 217.796875 L 7.390625 217.78125 L 7.390625 213.671875 C 7.054688 213.78125 6.707031 213.855469 6.359375 213.847656 L 6.359375 213.402344 C 6.882812 213.410156 7.453125 213.265625 7.851562 212.886719 Z M 7.992188 212.886719 Z M 7.992188 212.886719 "/>
<path style=" stroke:none;fill-rule:nonzero;fill:rgb(0%,0%,0%);fill-opacity:1;" d="M 11.023438 217.601562 L 11.023438 218.234375 L 10.382812 218.234375 L 10.382812 217.601562 Z M 11.023438 217.601562 Z M 11.023438 217.601562 "/>
<path style=" stroke:none;fill-rule:nonzero;fill:rgb(0%,0%,0%);fill-opacity:1;" d="M 15.089844 213.050781 L 15.089844 213.542969 L 13.023438 213.542969 L 13.007812 213.550781 L 13.007812 215.179688 C 13.199219 215.050781 13.46875 214.886719 13.722656 214.878906 C 14.621094 214.78125 15.308594 215.664062 15.351562 216.480469 C 15.476562 217.519531 14.5 218.554688 13.453125 218.394531 C 12.929688 218.378906 12.421875 218.070312 12.121094 217.640625 C 12.207031 217.519531 12.277344 217.316406 12.382812 217.242188 C 12.753906 217.972656 13.960938 218.265625 14.445312 217.496094 C 14.753906 216.917969 14.746094 216.179688 14.390625 215.625 C 13.976562 215.09375 13.160156 215.417969 12.96875 215.980469 L 12.453125 215.980469 L 12.453125 213.050781 Z M 15.089844 213.050781 Z M 15.089844 213.050781 "/>
<path style=" stroke:none;fill-rule:nonzero;fill:rgb(0%,0%,0%);fill-opacity:1;" d="M 5.160156 190.011719 L 5.160156 190.457031 L 3.078125 190.457031 L 3.078125 190.011719 Z M 5.160156 190.011719 Z M 5.160156 190.011719 "/>
<path style=" stroke:none;fill-rule:nonzero;fill:rgb(0%,0%,0%);fill-opacity:1;" d="M 7.992188 186.628906 L 7.992188 191.527344 L 8 191.542969 L 8.976562 191.542969 L 8.976562 191.980469 L 6.398438 191.980469 L 6.398438 191.542969 L 7.375 191.542969 L 7.390625 191.527344 L 7.390625 187.414062 C 7.054688 187.527344 6.707031 187.597656 6.359375 187.589844 L 6.359375 187.144531 C 6.882812 187.152344 7.453125 187.011719 7.851562 186.628906 Z M 7.992188 186.628906 Z M 7.992188 186.628906 "/>
<path style=" stroke:none;fill-rule:nonzero;fill:rgb(0%,0%,0%);fill-opacity:1;" d="M 11.023438 191.34375 L 11.023438 191.980469 L 10.382812 191.980469 L 10.382812 191.34375 Z M 11.023438 191.34375 Z M 11.023438 191.34375 "/>
<path style=" stroke:none;fill-rule:nonzero;fill:rgb(0%,0%,0%);fill-opacity:1;" d="M 13.914062 186.628906 C 14.667969 186.6875 15.167969 187.375 15.300781 188.074219 C 15.375 188.390625 15.390625 188.695312 15.421875 189.011719 L 15.421875 189.820312 C 15.382812 190.644531 15.183594 191.734375 14.285156 192.066406 C 13.507812 192.375 12.597656 191.890625 12.367188 191.097656 C 12.191406 190.679688 12.175781 190.25 12.136719 189.820312 L 12.136719 189.011719 C 12.175781 188.1875 12.351562 187.089844 13.238281 186.726562 L 13.277344 186.710938 L 13.308594 186.703125 L 13.351562 186.6875 L 13.46875 186.652344 L 13.539062 186.636719 L 13.628906 186.636719 L 13.644531 186.628906 Z M 13.914062 186.628906 Z M 13.667969 187.113281 C 13 187.195312 12.800781 187.996094 12.753906 188.535156 L 12.753906 188.75 L 12.738281 188.765625 L 12.738281 189.867188 C 12.785156 190.441406 12.824219 191.179688 13.351562 191.558594 C 13.835938 191.890625 14.476562 191.519531 14.613281 191.003906 C 14.753906 190.621094 14.785156 190.25 14.816406 189.867188 L 14.816406 188.765625 C 14.769531 188.1875 14.691406 187.375 14.023438 187.144531 L 13.96875 187.128906 L 13.953125 187.113281 L 13.882812 187.113281 L 13.867188 187.097656 L 13.683594 187.097656 Z M 13.667969 187.113281 Z M 13.667969 187.113281 "/>
<path style=" stroke:none;fill-rule:nonzero;fill:rgb(0%,0%,0%);fill-opacity:1;" d="M 5.160156 163.753906 L 5.160156 164.199219 L 3.078125 164.199219 L 3.078125 163.753906 Z M 5.160156 163.753906 Z M 5.160156 163.753906 "/>
<path style=" stroke:none;fill-rule:nonzero;fill:rgb(0%,0%,0%);fill-opacity:1;" d="M 7.746094 160.375 C 8.5 160.429688 9 161.121094 9.136719 161.820312 C 9.207031 162.136719 9.222656 162.4375 9.253906 162.753906 L 9.253906 163.566406 C 9.214844 164.390625 9.015625 165.476562 8.121094 165.8125 C 7.339844 166.121094 6.429688 165.636719 6.199219 164.84375 C 6.023438 164.421875 6.007812 163.992188 5.96875 163.566406 L 5.96875 162.753906 C 6.007812 161.929688 6.183594 160.835938 7.070312 160.46875 L 7.113281 160.453125 L 7.144531 160.445312 L 7.183594 160.429688 L 7.300781 160.398438 L 7.375 160.382812 L 7.460938 160.382812 L 7.476562 160.375 Z M 7.746094 160.375 Z M 7.5 160.859375 C 6.832031 160.9375 6.636719 161.738281 6.585938 162.28125 L 6.585938 162.492188 L 6.570312 162.507812 L 6.570312 163.613281 C 6.621094 164.183594 6.660156 164.921875 7.183594 165.304688 C 7.667969 165.636719 8.308594 165.265625 8.445312 164.746094 C 8.585938 164.367188 8.621094 163.992188 8.652344 163.613281 L 8.652344 162.507812 C 8.605469 161.929688 8.523438 161.121094 7.859375 160.890625 L 7.800781 160.875 L 7.785156 160.859375 L 7.714844 160.859375 L 7.699219 160.84375 L 7.515625 160.84375 Z M 7.5 160.859375 Z M 7.5 160.859375 "/>
<path style=" stroke:none;fill-rule:nonzero;fill:rgb(0%,0%,0%);fill-opacity:1;" d="M 11.023438 165.089844 L 11.023438 165.722656 L 10.382812 165.722656 L 10.382812 165.089844 Z M 11.023438 165.089844 Z M 11.023438 165.089844 "/>
<path style=" stroke:none;fill-rule:nonzero;fill:rgb(0%,0%,0%);fill-opacity:1;" d="M 15.089844 160.542969 L 15.089844 161.035156 L 13.023438 161.035156 L 13.007812 161.042969 L 13.007812 162.667969 C 13.199219 162.542969 13.46875 162.375 13.722656 162.367188 C 14.621094 162.273438 15.308594 163.152344 15.351562 163.96875 C 15.476562 165.011719 14.5 166.042969 13.453125 165.882812 C 12.929688 165.867188 12.421875 165.558594 12.121094 165.128906 C 12.207031 165.011719 12.277344 164.804688 12.382812 164.730469 C 12.753906 165.460938 13.960938 165.757812 14.445312 164.984375 C 14.753906 164.40625 14.746094 163.667969 14.390625 163.113281 C 13.976562 162.582031 13.160156 162.90625 12.96875 163.46875 L 12.453125 163.46875 L 12.453125 160.542969 Z M 15.089844 160.542969 Z M 15.089844 160.542969 "/>
<path style=" stroke:none;fill-rule:nonzero;fill:rgb(0%,0%,0%);fill-opacity:1;" d="M 7.746094 134.121094 C 8.5 134.175781 9 134.863281 9.136719 135.5625 C 9.207031 135.882812 9.222656 136.183594 9.253906 136.5 L 9.253906 137.308594 C 9.214844 138.136719 9.015625 139.222656 8.121094 139.554688 C 7.339844 139.867188 6.429688 139.382812 6.199219 138.585938 C 6.023438 138.167969 6.007812 137.738281 5.96875 137.308594 L 5.96875 136.5 C 6.007812 135.675781 6.183594 134.578125 7.070312 134.214844 L 7.113281 134.199219 L 7.144531 134.191406 L 7.183594 134.175781 L 7.300781 134.144531 L 7.375 134.128906 L 7.460938 134.128906 L 7.476562 134.121094 Z M 7.746094 134.121094 Z M 7.5 134.601562 C 6.832031 134.683594 6.636719 135.484375 6.585938 136.023438 L 6.585938 136.238281 L 6.570312 136.253906 L 6.570312 137.359375 C 6.621094 137.929688 6.660156 138.667969 7.183594 139.046875 C 7.667969 139.382812 8.308594 139.007812 8.445312 138.492188 C 8.585938 138.113281 8.621094 137.738281 8.652344 137.359375 L 8.652344 136.253906 C 8.605469 135.675781 8.523438 134.863281 7.859375 134.636719 L 7.800781 134.621094 L 7.785156 134.601562 L 7.714844 134.601562 L 7.699219 134.585938 L 7.515625 134.585938 Z M 7.5 134.601562 Z M 7.5 134.601562 "/>
<path style=" stroke:none;fill-rule:nonzero;fill:rgb(0%,0%,0%);fill-opacity:1;" d="M 11.023438 138.832031 L 11.023438 139.46875 L 10.382812 139.46875 L 10.382812 138.832031 Z M 11.023438 138.832031 Z M 11.023438 138.832031 "/>
<path style=" stroke:none;fill-rule:nonzero;fill:rgb(0%,0%,0%);fill-opacity:1;" d="M 13.914062 134.121094 C 14.667969 134.175781 15.167969 134.863281 15.300781 135.5625 C 15.375 135.882812 15.390625 136.183594 15.421875 136.5 L 15.421875 137.308594 C 15.382812 138.136719 15.183594 139.222656 14.285156 139.554688 C 13.507812 139.867188 12.597656 139.382812 12.367188 138.585938 C 12.191406 138.167969 12.175781 137.738281 12.136719 137.308594 L 12.136719 136.5 C 12.175781 135.675781 12.351562 134.578125 13.238281 134.214844 L 13.277344 134.199219 L 13.308594 134.191406 L 13.351562 134.175781 L 13.46875 134.144531 L 13.539062 134.128906 L 13.628906 134.128906 L 13.644531 134.121094 Z M 13.914062 134.121094 Z M 13.667969 134.601562 C 13 134.683594 12.800781 135.484375 12.753906 136.023438 L 12.753906 136.238281 L 12.738281 136.253906 L 12.738281 137.359375 C 12.785156 137.929688 12.824219 138.667969 13.351562 139.046875 C 13.835938 139.382812 14.476562 139.007812 14.613281 138.492188 C 14.753906 138.113281 14.785156 137.738281 14.816406 137.359375 L 14.816406 136.253906 C 14.769531 135.675781 14.691406 134.863281 14.023438 134.636719 L 13.96875 134.621094 L 13.953125 134.601562 L 13.882812 134.601562 L 13.867188 134.585938 L 13.683594 134.585938 Z M 13.667969 134.601562 Z M 13.667969 134.601562 "/>
<path style=" stroke:none;fill-rule:nonzero;fill:rgb(0%,0%,0%);fill-opacity:1;" d="M 7.746094 107.863281 C 8.5 107.917969 9 108.609375 9.136719 109.308594 C 9.207031 109.625 9.222656 109.925781 9.253906 110.246094 L 9.253906 111.054688 C 9.214844 111.878906 9.015625 112.96875 8.121094 113.300781 C 7.339844 113.609375 6.429688 113.125 6.199219 112.332031 C 6.023438 111.910156 6.007812 111.484375 5.96875 111.054688 L 5.96875 110.246094 C 6.007812 109.417969 6.183594 108.324219 7.070312 107.957031 L 7.113281 107.941406 L 7.144531 107.933594 L 7.183594 107.917969 L 7.300781 107.886719 L 7.375 107.871094 L 7.460938 107.871094 L 7.476562 107.863281 Z M 7.746094 107.863281 Z M 7.5 108.347656 C 6.832031 108.425781 6.636719 109.230469 6.585938 109.769531 L 6.585938 109.984375 L 6.570312 110 L 6.570312 111.101562 C 6.621094 111.671875 6.660156 112.410156 7.183594 112.792969 C 7.667969 113.125 8.308594 112.753906 8.445312 112.238281 C 8.585938 111.855469 8.621094 111.484375 8.652344 111.101562 L 8.652344 110 C 8.605469 109.417969 8.523438 108.609375 7.859375 108.378906 L 7.800781 108.363281 L 7.785156 108.347656 L 7.714844 108.347656 L 7.699219 108.332031 L 7.515625 108.332031 Z M 7.5 108.347656 Z M 7.5 108.347656 "/>
<path style=" stroke:none;fill-rule:nonzero;fill:rgb(0%,0%,0%);fill-opacity:1;" d="M 11.023438 112.578125 L 11.023438 113.214844 L 10.382812 113.214844 L 10.382812 112.578125 Z M 11.023438 112.578125 Z M 11.023438 112.578125 "/>
<path style=" stroke:none;fill-rule:nonzero;fill:rgb(0%,0%,0%);fill-opacity:1;" d="M 15.089844 108.03125 L 15.089844 108.523438 L 13.023438 108.523438 L 13.007812 108.53125 L 13.007812 110.15625 C 13.199219 110.03125 13.46875 109.863281 13.722656 109.855469 C 14.621094 109.761719 15.308594 110.640625 15.351562 111.460938 C 15.476562 112.5 14.5 113.53125 13.453125 113.371094 C 12.929688 113.355469 12.421875 113.046875 12.121094 112.617188 C 12.207031 112.5 12.277344 112.292969 12.382812 112.222656 C 12.753906 112.953125 13.960938 113.246094 14.445312 112.476562 C 14.753906 111.894531 14.746094 111.15625 14.390625 110.601562 C 13.976562 110.070312 13.160156 110.394531 12.96875 110.960938 L 12.453125 110.960938 L 12.453125 108.03125 Z M 15.089844 108.03125 Z M 15.089844 108.03125 "/>
<path style=" stroke:none;fill-rule:nonzero;fill:rgb(0%,0%,0%);fill-opacity:1;" d="M 7.992188 81.609375 L 7.992188 86.503906 L 8 86.519531 L 8.976562 86.519531 L 8.976562 86.957031 L 6.398438 86.957031 L 6.398438 86.519531 L 7.375 86.519531 L 7.390625 86.503906 L 7.390625 82.394531 C 7.054688 82.503906 6.707031 82.578125 6.359375 82.570312 L 6.359375 82.125 C 6.882812 82.132812 7.453125 81.988281 7.851562 81.609375 Z M 7.992188 81.609375 Z M 7.992188 81.609375 "/>
<path style=" stroke:none;fill-rule:nonzero;fill:rgb(0%,0%,0%);fill-opacity:1;" d="M 11.023438 86.324219 L 11.023438 86.957031 L 10.382812 86.957031 L 10.382812 86.324219 Z M 11.023438 86.324219 Z M 11.023438 86.324219 "/>
<path style=" stroke:none;fill-rule:nonzero;fill:rgb(0%,0%,0%);fill-opacity:1;" d="M 13.914062 81.609375 C 14.667969 81.664062 15.167969 82.355469 15.300781 83.050781 C 15.375 83.371094 15.390625 83.671875 15.421875 83.988281 L 15.421875 84.796875 C 15.382812 85.625 15.183594 86.710938 14.285156 87.042969 C 13.507812 87.355469 12.597656 86.871094 12.367188 86.078125 C 12.191406 85.65625 12.175781 85.226562 12.136719 84.796875 L 12.136719 83.988281 C 12.175781 83.164062 12.351562 82.070312 13.238281 81.703125 L 13.277344 81.6875 L 13.308594 81.679688 L 13.351562 81.664062 L 13.46875 81.632812 L 13.539062 81.617188 L 13.628906 81.617188 L 13.644531 81.609375 Z M 13.914062 81.609375 Z M 13.667969 82.09375 C 13 82.171875 12.800781 82.972656 12.753906 83.511719 L 12.753906 83.726562 L 12.738281 83.742188 L 12.738281 84.847656 C 12.785156 85.417969 12.824219 86.15625 13.351562 86.535156 C 13.835938 86.871094 14.476562 86.496094 14.613281 85.980469 C 14.753906 85.601562 14.785156 85.226562 14.816406 84.847656 L 14.816406 83.742188 C 14.769531 83.164062 14.691406 82.355469 14.023438 82.125 L 13.96875 82.109375 L 13.953125 82.09375 L 13.882812 82.09375 L 13.867188 82.078125 L 13.683594 82.078125 Z M 13.667969 82.09375 Z M 13.667969 82.09375 "/>
<path style=" stroke:none;fill-rule:nonzero;fill:rgb(0%,0%,0%);fill-opacity:1;" d="M 7.992188 55.351562 L 7.992188 60.25 L 8 60.265625 L 8.976562 60.265625 L 8.976562 60.703125 L 6.398438 60.703125 L 6.398438 60.265625 L 7.375 60.265625 L 7.390625 60.25 L 7.390625 56.136719 C 7.054688 56.25 6.707031 56.320312 6.359375 56.3125 L 6.359375 55.867188 C 6.882812 55.875 7.453125 55.734375 7.851562 55.351562 Z M 7.992188 55.351562 Z M 7.992188 55.351562 "/>
<path style=" stroke:none;fill-rule:nonzero;fill:rgb(0%,0%,0%);fill-opacity:1;" d="M 11.023438 60.066406 L 11.023438 60.703125 L 10.382812 60.703125 L 10.382812 60.066406 Z M 11.023438 60.066406 Z M 11.023438 60.066406 "/>
<path style=" stroke:none;fill-rule:nonzero;fill:rgb(0%,0%,0%);fill-opacity:1;" d="M 15.089844 55.519531 L 15.089844 56.011719 L 13.023438 56.011719 L 13.007812 56.019531 L 13.007812 57.644531 C 13.199219 57.519531 13.46875 57.351562 13.722656 57.34375 C 14.621094 57.25 15.308594 58.128906 15.351562 58.949219 C 15.476562 59.988281 14.5 61.019531 13.453125 60.859375 C 12.929688 60.84375 12.421875 60.535156 12.121094 60.105469 C 12.207031 59.988281 12.277344 59.78125 12.382812 59.710938 C 12.753906 60.441406 13.960938 60.734375 14.445312 59.964844 C 14.753906 59.382812 14.746094 58.644531 14.390625 58.089844 C 13.976562 57.558594 13.160156 57.882812 12.96875 58.449219 L 12.453125 58.449219 L 12.453125 55.519531 Z M 15.089844 55.519531 Z M 15.089844 55.519531 "/>
<path style=" stroke:none;fill-rule:nonzero;fill:rgb(0%,0%,0%);fill-opacity:1;" d="M 7.660156 29.097656 C 8.578125 29.121094 9.308594 30.066406 9.167969 30.953125 C 9.070312 31.84375 8.238281 32.351562 7.644531 32.90625 L 7.390625 33.167969 L 7.359375 33.183594 L 7.039062 33.492188 L 7.015625 33.511719 L 6.699219 33.828125 L 6.667969 33.84375 L 6.59375 33.914062 L 6.613281 33.921875 L 9.183594 33.921875 L 9.183594 34.445312 L 6.039062 34.445312 L 6.039062 33.96875 L 7.316406 32.691406 C 7.929688 32.160156 8.644531 31.46875 8.53125 30.597656 C 8.46875 30.089844 8.039062 29.621094 7.515625 29.582031 C 6.984375 29.5 6.515625 29.921875 6.398438 30.429688 L 6.382812 30.453125 L 6.367188 30.507812 L 6.339844 30.597656 L 6.292969 30.773438 L 6.285156 30.8125 C 6.175781 30.675781 6.054688 30.535156 5.96875 30.382812 C 6.128906 29.730469 6.652344 29.121094 7.339844 29.097656 Z M 7.660156 29.097656 Z M 7.660156 29.097656 "/>
<path style=" stroke:none;fill-rule:nonzero;fill:rgb(0%,0%,0%);fill-opacity:1;" d="M 11.023438 33.8125 L 11.023438 34.445312 L 10.382812 34.445312 L 10.382812 33.8125 Z M 11.023438 33.8125 Z M 11.023438 33.8125 "/>
<path style=" stroke:none;fill-rule:nonzero;fill:rgb(0%,0%,0%);fill-opacity:1;" d="M 13.914062 29.097656 C 14.667969 29.152344 15.167969 29.84375 15.300781 30.542969 C 15.375 30.859375 15.390625 31.160156 15.421875 31.476562 L 15.421875 32.289062 C 15.382812 33.113281 15.183594 34.199219 14.285156 34.535156 C 13.507812 34.84375 12.597656 34.359375 12.367188 33.566406 C 12.191406 33.144531 12.175781 32.714844 12.136719 32.289062 L 12.136719 31.476562 C 12.175781 30.652344 12.351562 29.558594 13.238281 29.191406 L 13.277344 29.175781 L 13.308594 29.167969 L 13.351562 29.152344 L 13.46875 29.121094 L 13.539062 29.105469 L 13.628906 29.105469 L 13.644531 29.097656 Z M 13.914062 29.097656 Z M 13.667969 29.582031 C 13 29.660156 12.800781 30.460938 12.753906 31 L 12.753906 31.214844 L 12.738281 31.230469 L 12.738281 32.335938 C 12.785156 32.90625 12.824219 33.644531 13.351562 34.027344 C 13.835938 34.359375 14.476562 33.984375 14.613281 33.46875 C 14.753906 33.089844 14.785156 32.714844 14.816406 32.335938 L 14.816406 31.230469 C 14.769531 30.652344 14.691406 29.84375 14.023438 29.613281 L 13.96875 29.597656 L 13.953125 29.582031 L 13.882812 29.582031 L 13.867188 29.566406 L 13.683594 29.566406 Z M 13.667969 29.582031 Z M 13.667969 29.582031 "/>
<path style=" stroke:none;fill-rule:nonzero;fill:rgb(0%,0%,0%);fill-opacity:1;" d="M 7.660156 2.839844 C 8.578125 2.863281 9.308594 3.808594 9.167969 4.699219 C 9.070312 5.585938 8.238281 6.09375 7.644531 6.652344 L 7.390625 6.914062 L 7.359375 6.929688 L 7.039062 7.238281 L 7.015625 7.253906 L 6.699219 7.570312 L 6.667969 7.585938 L 6.59375 7.660156 L 6.613281 7.667969 L 9.183594 7.667969 L 9.183594 8.191406 L 6.039062 8.191406 L 6.039062 7.714844 L 7.316406 6.4375 C 7.929688 5.90625 8.644531 5.214844 8.53125 4.339844 C 8.46875 3.832031 8.039062 3.363281 7.515625 3.324219 C 6.984375 3.246094 6.515625 3.667969 6.398438 4.175781 L 6.382812 4.199219 L 6.367188 4.253906 L 6.339844 4.339844 L 6.292969 4.515625 L 6.285156 4.554688 C 6.175781 4.421875 6.054688 4.277344 5.96875 4.128906 C 6.128906 3.476562 6.652344 2.863281 7.339844 2.839844 Z M 7.660156 2.839844 Z M 7.660156 2.839844 "/>
<path style=" stroke:none;fill-rule:nonzero;fill:rgb(0%,0%,0%);fill-opacity:1;" d="M 11.023438 7.554688 L 11.023438 8.191406 L 10.382812 8.191406 L 10.382812 7.554688 Z M 11.023438 7.554688 Z M 11.023438 7.554688 "/>
<path style=" stroke:none;fill-rule:nonzero;fill:rgb(0%,0%,0%);fill-opacity:1;" d="M 15.089844 3.007812 L 15.089844 3.5 L 13.023438 3.5 L 13.007812 3.507812 L 13.007812 5.136719 C 13.199219 5.007812 13.46875 4.839844 13.722656 4.832031 C 14.621094 4.738281 15.308594 5.621094 15.351562 6.4375 C 15.476562 7.476562 14.5 8.507812 13.453125 8.351562 C 12.929688 8.332031 12.421875 8.023438 12.121094 7.59375 C 12.207031 7.476562 12.277344 7.269531 12.382812 7.199219 C 12.753906 7.929688 13.960938 8.222656 14.445312 7.453125 C 14.753906 6.875 14.746094 6.136719 14.390625 5.578125 C 13.976562 5.046875 13.160156 5.375 12.96875 5.9375 L 12.453125 5.9375 L 12.453125 3.007812 Z M 15.089844 3.007812 Z M 15.089844 3.007812 "/>
<path style="fill:none;stroke-width:0.02;stroke-linecap:butt;stroke-linejoin:miter;stroke:rgb(0%,0%,0%);stroke-opacity:1;stroke-miterlimit:10;" d="M 9.789997 1.354686 L 9.68499 1.354686 " transform="matrix(28.346457,0,0,-28.346457,1,227.771654)"/>
<path style="fill:none;stroke-width:0.02;stroke-linecap:butt;stroke-linejoin:miter;stroke:rgb(0%,0%,0%);stroke-opacity:1;stroke-miterlimit:10;" d="M 9.789997 2.280866 L 9.68499 2.280866 " transform="matrix(28.346457,0,0,-28.346457,1,227.771654)"/>
<path style="fill:none;stroke-width:0.02;stroke-linecap:butt;stroke-linejoin:miter;stroke:rgb(0%,0%,0%);stroke-opacity:1;stroke-miterlimit:10;" d="M 9.789997 3.207045 L 9.68499 3.207045 " transform="matrix(28.346457,0,0,-28.346457,1,227.771654)"/>
<path style="fill:none;stroke-width:0.02;stroke-linecap:butt;stroke-linejoin:miter;stroke:rgb(0%,0%,0%);stroke-opacity:1;stroke-miterlimit:10;" d="M 9.789997 4.133363 L 9.68499 4.133363 " transform="matrix(28.346457,0,0,-28.346457,1,227.771654)"/>
<path style="fill:none;stroke-width:0.02;stroke-linecap:butt;stroke-linejoin:miter;stroke:rgb(0%,0%,0%);stroke-opacity:1;stroke-miterlimit:10;" d="M 9.789997 5.059542 L 9.68499 5.059542 " transform="matrix(28.346457,0,0,-28.346457,1,227.771654)"/>
<path style="fill:none;stroke-width:0.02;stroke-linecap:butt;stroke-linejoin:miter;stroke:rgb(0%,0%,0%);stroke-opacity:1;stroke-miterlimit:10;" d="M 9.789997 5.985859 L 9.68499 5.985859 " transform="matrix(28.346457,0,0,-28.346457,1,227.771654)"/>
<path style="fill:none;stroke-width:0.02;stroke-linecap:butt;stroke-linejoin:miter;stroke:rgb(0%,0%,0%);stroke-opacity:1;stroke-miterlimit:10;" d="M 9.789997 6.912039 L 9.68499 6.912039 " transform="matrix(28.346457,0,0,-28.346457,1,227.771654)"/>
<path style="fill:none;stroke-width:0.02;stroke-linecap:round;stroke-linejoin:miter;stroke:rgb(0%,0%,0%);stroke-opacity:1;stroke-miterlimit:10;" d="M 9.789997 0.428369 L 9.789997 7.838356 " transform="matrix(28.346457,0,0,-28.346457,1,227.771654)"/>
<path style="fill:none;stroke-width:0.02;stroke-linecap:butt;stroke-linejoin:miter;stroke:rgb(0%,0%,0%);stroke-opacity:1;stroke-miterlimit:10;" d="M 1.706287 0.428369 L 1.706287 0.533376 " transform="matrix(28.346457,0,0,-28.346457,1,227.771654)"/>
<path style="fill:none;stroke-width:0.02;stroke-linecap:butt;stroke-linejoin:miter;stroke:rgb(0%,0%,0%);stroke-opacity:1;stroke-miterlimit:10;" d="M 2.716664 0.428369 L 2.716664 0.533376 " transform="matrix(28.346457,0,0,-28.346457,1,227.771654)"/>
<path style="fill:none;stroke-width:0.02;stroke-linecap:butt;stroke-linejoin:miter;stroke:rgb(0%,0%,0%);stroke-opacity:1;stroke-miterlimit:10;" d="M 3.72718 0.428369 L 3.72718 0.533376 " transform="matrix(28.346457,0,0,-28.346457,1,227.771654)"/>
<path style="fill:none;stroke-width:0.02;stroke-linecap:butt;stroke-linejoin:miter;stroke:rgb(0%,0%,0%);stroke-opacity:1;stroke-miterlimit:10;" d="M 4.737695 0.428369 L 4.737695 0.533376 " transform="matrix(28.346457,0,0,-28.346457,1,227.771654)"/>
<path style="fill:none;stroke-width:0.02;stroke-linecap:butt;stroke-linejoin:miter;stroke:rgb(0%,0%,0%);stroke-opacity:1;stroke-miterlimit:10;" d="M 5.748073 0.428369 L 5.748073 0.533376 " transform="matrix(28.346457,0,0,-28.346457,1,227.771654)"/>
<path style="fill:none;stroke-width:0.02;stroke-linecap:butt;stroke-linejoin:miter;stroke:rgb(0%,0%,0%);stroke-opacity:1;stroke-miterlimit:10;" d="M 6.758588 0.428369 L 6.758588 0.533376 " transform="matrix(28.346457,0,0,-28.346457,1,227.771654)"/>
<path style="fill:none;stroke-width:0.02;stroke-linecap:butt;stroke-linejoin:miter;stroke:rgb(0%,0%,0%);stroke-opacity:1;stroke-miterlimit:10;" d="M 7.769104 0.428369 L 7.769104 0.533376 " transform="matrix(28.346457,0,0,-28.346457,1,227.771654)"/>
<path style="fill:none;stroke-width:0.02;stroke-linecap:butt;stroke-linejoin:miter;stroke:rgb(0%,0%,0%);stroke-opacity:1;stroke-miterlimit:10;" d="M 8.779481 0.428369 L 8.779481 0.533376 " transform="matrix(28.346457,0,0,-28.346457,1,227.771654)"/>
<path style="fill:none;stroke-width:0.02;stroke-linecap:round;stroke-linejoin:miter;stroke:rgb(0%,0%,0%);stroke-opacity:1;stroke-miterlimit:10;" d="M 0.695771 0.428369 L 9.789997 0.428369 " transform="matrix(28.346457,0,0,-28.346457,1,227.771654)"/>
<path style=" stroke:none;fill-rule:nonzero;fill:rgb(0%,0%,0%);fill-opacity:1;" d="M 21.105469 220.445312 L 21.105469 225.34375 L 21.113281 225.359375 L 22.089844 225.359375 L 22.089844 225.796875 L 19.507812 225.796875 L 19.507812 225.359375 L 20.484375 225.359375 L 20.5 225.34375 L 20.5 221.230469 C 20.167969 221.34375 19.820312 221.414062 19.46875 221.40625 L 19.46875 220.960938 C 19.992188 220.96875 20.566406 220.828125 20.960938 220.445312 Z M 21.105469 220.445312 Z M 21.105469 220.445312 "/>
<path style=" stroke:none;fill-rule:nonzero;fill:rgb(0%,0%,0%);fill-opacity:1;" d="M 49.414062 220.445312 C 50.335938 220.46875 51.066406 221.414062 50.921875 222.304688 C 50.828125 223.191406 49.992188 223.699219 49.398438 224.253906 L 49.144531 224.515625 L 49.113281 224.535156 L 48.796875 224.84375 L 48.769531 224.859375 L 48.453125 225.175781 L 48.421875 225.191406 L 48.351562 225.261719 L 48.367188 225.273438 L 50.9375 225.273438 L 50.9375 225.796875 L 47.796875 225.796875 L 47.796875 225.320312 L 49.074219 224.042969 C 49.683594 223.507812 50.398438 222.820312 50.289062 221.945312 C 50.222656 221.4375 49.796875 220.96875 49.269531 220.929688 C 48.738281 220.851562 48.269531 221.269531 48.152344 221.777344 L 48.136719 221.804688 L 48.121094 221.859375 L 48.097656 221.945312 L 48.050781 222.121094 L 48.042969 222.160156 C 47.929688 222.023438 47.8125 221.882812 47.722656 221.730469 C 47.882812 221.082031 48.40625 220.46875 49.097656 220.445312 Z M 49.414062 220.445312 Z M 49.414062 220.445312 "/>
<path style=" stroke:none;fill-rule:nonzero;fill:rgb(0%,0%,0%);fill-opacity:1;" d="M 78.160156 220.445312 C 78.859375 220.476562 79.589844 221.121094 79.421875 221.859375 C 79.34375 222.359375 78.992188 222.769531 78.558594 222.992188 C 79.265625 223.214844 79.8125 223.960938 79.621094 224.699219 C 79.429688 225.660156 78.328125 226.191406 77.4375 225.898438 C 77.007812 225.773438 76.574219 225.5 76.367188 225.105469 C 76.414062 224.984375 76.398438 224.78125 76.453125 224.699219 C 76.875 225.320312 77.765625 225.738281 78.460938 225.390625 C 79.222656 224.90625 79.105469 223.492188 78.183594 223.253906 L 78.113281 223.253906 L 78.097656 223.238281 L 77.359375 223.238281 L 77.359375 222.761719 C 77.8125 222.753906 78.375 222.699219 78.628906 222.230469 C 78.898438 221.828125 78.875 221.160156 78.359375 220.960938 C 77.746094 220.722656 76.992188 221.113281 76.761719 221.730469 C 76.667969 221.597656 76.574219 221.460938 76.476562 221.320312 C 76.804688 220.730469 77.492188 220.382812 78.160156 220.445312 Z M 78.160156 220.445312 Z M 78.160156 220.445312 "/>
<path style=" stroke:none;fill-rule:nonzero;fill:rgb(0%,0%,0%);fill-opacity:1;" d="M 107.605469 220.613281 L 107.605469 223.953125 L 107.621094 223.96875 L 108.40625 223.96875 L 108.40625 224.445312 L 107.621094 224.445312 L 107.605469 224.453125 L 107.605469 225.796875 L 107.003906 225.796875 L 107.003906 224.453125 L 106.984375 224.445312 L 104.890625 224.445312 L 104.890625 223.953125 C 105.558594 222.84375 106.222656 221.722656 106.890625 220.613281 Z M 107.605469 220.613281 Z M 107.019531 220.914062 C 106.859375 221.738281 106.351562 222.445312 105.96875 223.167969 C 105.820312 223.429688 105.621094 223.714844 105.511719 223.96875 L 107.035156 223.96875 L 107.042969 223.953125 L 107.042969 220.914062 L 107.035156 220.898438 Z M 107.019531 220.914062 Z M 107.019531 220.914062 "/>
<path style=" stroke:none;fill-rule:nonzero;fill:rgb(0%,0%,0%);fill-opacity:1;" d="M 136.605469 220.613281 L 136.605469 221.105469 L 134.542969 221.105469 L 134.527344 221.113281 L 134.527344 222.738281 C 134.714844 222.613281 134.988281 222.445312 135.242188 222.4375 C 136.136719 222.34375 136.828125 223.222656 136.867188 224.042969 C 136.996094 225.082031 136.019531 226.113281 134.96875 225.953125 C 134.445312 225.9375 133.9375 225.628906 133.636719 225.199219 C 133.722656 225.082031 133.796875 224.875 133.898438 224.804688 C 134.273438 225.535156 135.480469 225.828125 135.960938 225.058594 C 136.273438 224.476562 136.265625 223.738281 135.90625 223.183594 C 135.496094 222.652344 134.675781 222.976562 134.488281 223.542969 L 133.96875 223.542969 L 133.96875 220.613281 Z M 136.605469 220.613281 Z M 136.605469 220.613281 "/>
<path style=" stroke:none;fill-rule:nonzero;fill:rgb(0%,0%,0%);fill-opacity:1;" d="M 164.589844 220.445312 C 164.796875 220.476562 165.035156 220.5 165.234375 220.597656 L 165.234375 221.058594 C 164.683594 220.820312 163.972656 220.785156 163.542969 221.269531 C 163.160156 221.675781 162.988281 222.277344 162.972656 222.8125 C 163.429688 222.199219 164.472656 221.859375 165.035156 222.492188 C 165.597656 223.144531 165.691406 224.082031 165.4375 224.875 C 165.160156 225.507812 164.519531 226.089844 163.804688 225.953125 C 162.835938 225.875 162.398438 224.796875 162.351562 223.96875 C 162.167969 222.804688 162.445312 221.335938 163.558594 220.667969 L 163.574219 220.660156 L 163.742188 220.574219 L 163.789062 220.558594 L 163.8125 220.542969 L 163.945312 220.5 L 164.058594 220.46875 L 164.128906 220.453125 L 164.21875 220.453125 L 164.234375 220.445312 Z M 164.589844 220.445312 Z M 163.8125 222.652344 C 163.121094 222.769531 162.898438 223.605469 162.988281 224.167969 C 163.027344 224.699219 163.234375 225.40625 163.84375 225.515625 C 164.496094 225.605469 164.914062 224.90625 164.929688 224.34375 C 164.964844 223.769531 164.929688 223.121094 164.429688 222.746094 L 164.320312 222.691406 L 164.234375 222.667969 L 164.160156 222.652344 L 164.144531 222.636719 L 163.828125 222.636719 Z M 163.8125 222.652344 Z M 163.8125 222.652344 "/>
<path style=" stroke:none;fill-rule:nonzero;fill:rgb(0%,0%,0%);fill-opacity:1;" d="M 194.226562 220.613281 L 194.226562 221.113281 C 193.097656 222.429688 192.464844 224.207031 192.472656 225.882812 L 191.828125 225.882812 C 191.8125 224.191406 192.503906 222.40625 193.710938 221.160156 L 193.695312 221.144531 L 190.9375 221.144531 L 190.9375 220.613281 L 194.226562 220.613281 L 194.226562 221.113281 Z M 194.226562 220.613281 Z M 194.226562 220.613281 "/>
<path style=" stroke:none;fill-rule:nonzero;fill:rgb(0%,0%,0%);fill-opacity:1;" d="M 221.375 220.445312 C 222.21875 220.476562 223.011719 221.382812 222.679688 222.222656 C 222.535156 222.613281 222.136719 222.851562 221.8125 223.015625 C 222.621094 223.253906 223.113281 224.199219 222.75 224.976562 C 222.367188 225.984375 220.925781 226.304688 220.128906 225.574219 C 219.40625 225 219.382812 223.761719 220.1875 223.253906 C 220.304688 223.128906 220.527344 223.089844 220.628906 222.992188 C 219.941406 222.796875 219.472656 221.992188 219.796875 221.320312 C 220.058594 220.714844 220.734375 220.382812 221.375 220.445312 Z M 221.375 220.445312 Z M 221.074219 220.898438 C 220.488281 220.914062 220.074219 221.582031 220.273438 222.105469 C 220.503906 223.007812 222.019531 222.976562 222.195312 222.050781 C 222.351562 221.53125 221.941406 220.914062 221.375 220.898438 L 221.359375 220.890625 L 221.089844 220.890625 Z M 221.074219 220.898438 Z M 221.089844 223.253906 C 220.398438 223.304688 220.058594 224.128906 220.242188 224.714844 C 220.359375 225.550781 221.550781 225.796875 222.019531 225.128906 C 222.472656 224.515625 222.25 223.421875 221.433594 223.253906 L 221.359375 223.253906 L 221.34375 223.238281 L 221.097656 223.238281 Z M 221.089844 223.253906 Z M 221.089844 223.253906 "/>
<path style=" stroke:none;fill-rule:nonzero;fill:rgb(0%,0%,0%);fill-opacity:1;" d="M 250.035156 220.445312 C 250.988281 220.550781 251.402344 221.628906 251.464844 222.453125 C 251.574219 223.523438 251.449219 224.78125 250.574219 225.550781 C 250.027344 226.097656 249.058594 226.113281 248.472656 225.621094 C 248.542969 225.484375 248.621094 225.328125 248.710938 225.214844 C 249.226562 225.714844 250.128906 225.574219 250.464844 224.929688 C 250.703125 224.542969 250.84375 224.042969 250.835938 223.613281 C 250.367188 224.214844 249.335938 224.566406 248.773438 223.929688 C 248.203125 223.269531 248.097656 222.3125 248.382812 221.515625 C 248.679688 220.890625 249.304688 220.351562 250.035156 220.445312 Z M 250.035156 220.445312 Z M 249.773438 220.898438 C 249.203125 220.945312 248.910156 221.582031 248.867188 222.082031 C 248.84375 222.644531 248.867188 223.304688 249.367188 223.667969 C 249.925781 224.007812 250.636719 223.597656 250.765625 222.992188 C 250.917969 222.40625 250.820312 221.777344 250.519531 221.230469 C 250.351562 221 250.050781 220.835938 249.773438 220.898438 Z M 249.773438 220.898438 Z M 249.773438 220.898438 "/>
<path style=" stroke:none;fill-rule:nonzero;fill:rgb(0%,0%,0%);fill-opacity:1;" d="M 276.910156 220.445312 L 276.910156 225.34375 L 276.917969 225.359375 L 277.894531 225.359375 L 277.894531 225.796875 L 275.3125 225.796875 L 275.3125 225.359375 L 276.289062 225.359375 L 276.304688 225.34375 L 276.304688 221.230469 C 275.972656 221.34375 275.621094 221.414062 275.273438 221.40625 L 275.273438 220.960938 C 275.796875 220.96875 276.367188 220.828125 276.765625 220.445312 Z M 276.910156 220.445312 Z M 276.910156 220.445312 "/>
<path style=" stroke:none;fill-rule:nonzero;fill:rgb(0%,0%,0%);fill-opacity:1;" d="M 280.632812 220.445312 C 281.386719 220.5 281.886719 221.191406 282.019531 221.890625 C 282.089844 222.207031 282.105469 222.507812 282.140625 222.828125 L 282.140625 223.636719 C 282.097656 224.460938 281.902344 225.550781 281.003906 225.882812 C 280.226562 226.191406 279.3125 225.707031 279.082031 224.914062 C 278.910156 224.492188 278.894531 224.066406 278.851562 223.636719 L 278.851562 222.828125 C 278.894531 222 279.066406 220.90625 279.957031 220.542969 L 279.996094 220.523438 L 280.027344 220.515625 L 280.066406 220.5 L 280.1875 220.46875 L 280.257812 220.453125 L 280.34375 220.453125 L 280.359375 220.445312 Z M 280.632812 220.445312 Z M 280.386719 220.929688 C 279.71875 221.007812 279.519531 221.8125 279.472656 222.351562 L 279.472656 222.566406 L 279.457031 222.582031 L 279.457031 223.683594 C 279.503906 224.253906 279.542969 224.992188 280.066406 225.375 C 280.550781 225.707031 281.195312 225.335938 281.328125 224.820312 C 281.472656 224.4375 281.503906 224.066406 281.535156 223.683594 L 281.535156 222.582031 C 281.488281 222 281.410156 221.191406 280.742188 220.960938 L 280.6875 220.945312 L 280.671875 220.929688 L 280.597656 220.929688 L 280.582031 220.914062 L 280.402344 220.914062 Z M 280.386719 220.929688 Z M 280.386719 220.929688 "/>
<path style="fill:none;stroke-width:0.02;stroke-linecap:butt;stroke-linejoin:miter;stroke:rgb(0%,0%,0%);stroke-opacity:1;stroke-miterlimit:10;" d="M 1.706287 7.838356 L 1.706287 7.73335 " transform="matrix(28.346457,0,0,-28.346457,1,227.771654)"/>
<path style="fill:none;stroke-width:0.02;stroke-linecap:butt;stroke-linejoin:miter;stroke:rgb(0%,0%,0%);stroke-opacity:1;stroke-miterlimit:10;" d="M 2.716664 7.838356 L 2.716664 7.73335 " transform="matrix(28.346457,0,0,-28.346457,1,227.771654)"/>
<path style="fill:none;stroke-width:0.02;stroke-linecap:butt;stroke-linejoin:miter;stroke:rgb(0%,0%,0%);stroke-opacity:1;stroke-miterlimit:10;" d="M 3.72718 7.838356 L 3.72718 7.73335 " transform="matrix(28.346457,0,0,-28.346457,1,227.771654)"/>
<path style="fill:none;stroke-width:0.02;stroke-linecap:butt;stroke-linejoin:miter;stroke:rgb(0%,0%,0%);stroke-opacity:1;stroke-miterlimit:10;" d="M 4.737695 7.838356 L 4.737695 7.73335 " transform="matrix(28.346457,0,0,-28.346457,1,227.771654)"/>
<path style="fill:none;stroke-width:0.02;stroke-linecap:butt;stroke-linejoin:miter;stroke:rgb(0%,0%,0%);stroke-opacity:1;stroke-miterlimit:10;" d="M 5.748073 7.838356 L 5.748073 7.73335 " transform="matrix(28.346457,0,0,-28.346457,1,227.771654)"/>
<path style="fill:none;stroke-width:0.02;stroke-linecap:butt;stroke-linejoin:miter;stroke:rgb(0%,0%,0%);stroke-opacity:1;stroke-miterlimit:10;" d="M 6.758588 7.838356 L 6.758588 7.73335 " transform="matrix(28.346457,0,0,-28.346457,1,227.771654)"/>
<path style="fill:none;stroke-width:0.02;stroke-linecap:butt;stroke-linejoin:miter;stroke:rgb(0%,0%,0%);stroke-opacity:1;stroke-miterlimit:10;" d="M 7.769104 7.838356 L 7.769104 7.73335 " transform="matrix(28.346457,0,0,-28.346457,1,227.771654)"/>
<path style="fill:none;stroke-width:0.02;stroke-linecap:butt;stroke-linejoin:miter;stroke:rgb(0%,0%,0%);stroke-opacity:1;stroke-miterlimit:10;" d="M 8.779481 7.838356 L 8.779481 7.73335 " transform="matrix(28.346457,0,0,-28.346457,1,227.771654)"/>
<path style="fill:none;stroke-width:0.02;stroke-linecap:round;stroke-linejoin:miter;stroke:rgb(0%,0%,0%);stroke-opacity:1;stroke-miterlimit:10;" d="M 0.695771 7.838356 L 9.789997 7.838356 " transform="matrix(28.346457,0,0,-28.346457,1,227.771654)"/>
<path style="fill:none;stroke-width:0.02;stroke-linecap:butt;stroke-linejoin:miter;stroke:rgb(32.941176%,47.058824%,63.921569%);stroke-opacity:1;stroke-miterlimit:10;" d="M 0.695771 5.210575 L 1.706287 5.317235 L 2.716664 2.951419 L 3.72718 4.989124 L 4.737695 3.449167 L 5.748073 4.772635 L 6.758588 0.984408 L 7.769104 1.031536 L 8.779481 3.395561 L 9.789997 2.003329 " transform="matrix(28.346457,0,0,-28.346457,1,227.771654)"/>
<path style="fill:none;stroke-width:0.02;stroke-linecap:butt;stroke-linejoin:miter;stroke:rgb(90.196078%,56.862745%,25.882353%);stroke-opacity:1;stroke-miterlimit:10;" d="M 0.695771 1.900803 L 1.706287 3.300201 L 2.716664 7.803767 L 3.72718 1.594465 L 4.737695 4.60851 L 5.748073 6.063167 L 6.758588 4.786553 L 7.769104 2.064789 L 8.779481 4.702492 L 9.789997 0.849773 " transform="matrix(28.346457,0,0,-28.346457,1,227.771654)"/>
<path style="fill:none;stroke-width:0.02;stroke-linecap:butt;stroke-linejoin:miter;stroke:rgb(81.960784%,36.862745%,36.078431%);stroke-opacity:1;stroke-miterlimit:10;" d="M 0.695771 6.682733 L 1.706287 4.644339 L 2.716664 2.474756 L 3.72718 1.797863 L 4.737695 2.955691 L 5.748073 3.881733 L 6.758588 3.840805 L 7.769104 3.910809 L 8.779481 5.751455 L 9.789997 5.735608 " transform="matrix(28.346457,0,0,-28.346457,1,227.771654)"/>
</g>
</svg>
