<?xml version="1.0" encoding="UTF-8"?>
<svg xmlns="http://www.w3.org/2000/svg" xmlns:xlink="http://www.w3.org/1999/xlink" width="285.464567pt" height="228.771654pt" viewBox="0 0 285.464567 228.771654" version="1.1">
<g id="surface1">
<path style="fill:none;stroke-width:0.02;stroke-linecap:butt;stroke-linejoin:miter;stroke:rgb(0%,0%,0%);stroke-opacity:1;stroke-miterlimit:10;" d="M 0.695771 1.16934 L 0.800778 1.16934 " transform="matrix(28.346457,0,0,-28.346457,1,227.771654)"/>
<path style="fill:none;stroke-width:0.02;stroke-linecap:butt;stroke-linejoin:miter;stroke:rgb(0%,0%,0%);stroke-opacity:1;stroke-miterlimit:10;" d="M 0.695771 1.910311 L 0.800778 1.910311 " transform="matrix(28.346457,0,0,-28.346457,1,227.771654)"/>
<path style="fill:none;stroke-width:0.02;stroke-linecap:butt;stroke-linejoin:miter;stroke:rgb(0%,0%,0%);stroke-opacity:1;stroke-miterlimit:10;" d="M 0.695771 2.65142 L 0.800778 2.65142 " transform="matrix(28.346457,0,0,-28.346457,1,227.771654)"/>
<path style="fill:none;stroke-width:0.02;stroke-linecap:butt;stroke-linejoin:miter;stroke:rgb(0%,0%,0%);stroke-opacity:1;stroke-miterlimit:10;" d="M 0.695771 3.392391 L 0.800778 3.392391 " transform="matrix(28.346457,0,0,-28.346457,1,227.771654)"/>
<path style="fill:none;stroke-width:0.02;stroke-linecap:butt;stroke-linejoin:miter;stroke:rgb(0%,0%,0%);stroke-opacity:1;stroke-miterlimit:10;" d="M 0.695771 4.133363 L 0.800778 4.133363 " transform="matrix(28.346457,0,0,-28.346457,1,227.771654)"/>
<path style="fill:none;stroke-width:0.02;stroke-linecap:butt;stroke-linejoin:miter;stroke:rgb(0%,0%,0%);stroke-opacity:1;stroke-miterlimit:10;" d="M 0.695771 4.874334 L 0.800778 4.874334 " transform="matrix(28.346457,0,0,-28.346457,1,227.771654)"/>
<path style="fill:none;stroke-width:0.02;stroke-linecap:butt;stroke-linejoin:miter;stroke:rgb(0%,0%,0%);stroke-opacity:1;stroke-miterlimit:10;" d="M 0.695771 5.615305 L 0.800778 5.615305 " transform="matrix(28.346457,0,0,-28.346457,1,227.771654)"/>
<path style="fill:none;stroke-width:0.02;stroke-linecap:butt;stroke-linejoin:miter;stroke:rgb(0%,0%,0%);stroke-opacity:1;stroke-miterlimit:10;" d="M 0.695771 6.356276 L 0.800778 6.356276 " transform="matrix(28.346457,0,0,-28.346457,1,227.771654)"/>
<path style="fill:none;stroke-width:0.02;stroke-linecap:butt;stroke-linejoin:miter;stroke:rgb(0%,0%,0%);stroke-opacity:1;stroke-miterlimit:10;" d="M 0.695771 7.097247 L 0.800778 7.097247 " transform="matrix(28.346457,0,0,-28.346457,1,227.771654)"/>
<path style="fill:none;stroke-width:0.02;stroke-linecap:round;stroke-linejoin:miter;stroke:rgb(0%,0%,0%);stroke-opacity:1;stroke-miterlimit:10;" d="M 0.695771 0.428369 L 0.695771 7.838356 " transform="matrix(28.346457,0,0,-28.346457,1,227.771654)"/>
<path style=" stroke:none;fill-rule:nonzero;fill:rgb(0%,0%,0%);fill-opacity:1;" d="M 5.160156 216.265625 L 5.160156 216.710938 L 3.078125 216.710938 L 3.078125 216.265625 Z M 5.160156 216.265625 Z M 5.160156 216.265625 "/>
<path style=" stroke:none;fill-rule:nonzero;fill:rgb(0%,0%,0%);fill-opacity:1;" d="M 7.746094 212.886719 C 8.5 212.941406 9 213.632812 9.136719 214.332031 C 9.207031 214.648438 9.222656 214.949219 9.253906 215.265625 L 9.253906 216.078125 C 9.214844 216.902344 9.015625 217.988281 8.121094 218.324219 C 7.339844 218.632812 6.429688 218.148438 6.199219 217.355469 C 6.023438 216.933594 6.007812 216.503906 5.96875 216.078125 L 5.96875 215.265625 C 6.007812 214.441406 6.183594 213.347656 7.070312 212.980469 L 7.113281 212.964844 L 7.144531 212.957031 L 7.183594 212.941406 L 7.300781 212.910156 L 7.375 212.894531 L 7.460938 212.894531 L 7.476562 212.886719 Z M 7.746094 212.886719 Z M 7.5 213.371094 C 6.832031 213.449219 6.636719 214.25 6.585938 214.789062 L 6.585938 215.003906 L 6.570312 215.019531 L 6.570312 216.125 C 6.621094 216.695312 6.660156 217.433594 7.183594 217.816406 C 7.667969 218.148438 8.308594 217.773438 8.445312 217.257812 C 8.585938 216.878906 8.621094 216.503906 8.652344 216.125 L 8.652344 215.019531 C 8.605469 214.441406 8.523438 213.632812 7.859375 213.402344 L 7.800781 213.386719 L 7.785156 213.371094 L 7.714844 213.371094 L 7.699219 213.355469 L 7.515625 213.355469 Z M 7.5 213.371094 Z M 7.5 213.371094 "/>
<path style=" stroke:none;fill-rule:nonzero;fill:rgb(0%,0%,0%);fill-opacity:1;" d="M 11.023438 217.601562 L 11.023438 218.234375 L 10.382812 218.234375 L 10.382812 217.601562 Z M 11.023438 217.601562 Z M 11.023438 217.601562 "/>
<path style=" stroke:none;fill-rule:nonzero;fill:rgb(0%,0%,0%);fill-opacity:1;" d="M 13.929688 212.886719 C 14.769531 212.917969 15.5625 213.824219 15.230469 214.664062 C 15.089844 215.050781 14.691406 215.289062 14.367188 215.457031 C 15.175781 215.695312 15.667969 216.640625 15.300781 217.417969 C 14.921875 218.425781 13.476562 218.742188 12.683594 218.011719 C 11.960938 217.441406 11.9375 216.203125 12.738281 215.695312 C 12.859375 215.570312 13.082031 215.527344 13.183594 215.433594 C 12.492188 215.234375 12.023438 214.433594 12.351562 213.757812 C 12.613281 213.15625 13.285156 212.824219 13.929688 212.886719 Z M 13.929688 212.886719 Z M 13.628906 213.339844 C 13.039062 213.355469 12.628906 214.019531 12.824219 214.542969 C 13.054688 215.449219 14.574219 215.417969 14.746094 214.488281 C 14.90625 213.972656 14.492188 213.355469 13.929688 213.339844 L 13.914062 213.332031 L 13.644531 213.332031 Z M 13.628906 213.339844 Z M 13.644531 215.695312 C 12.953125 215.742188 12.613281 216.570312 12.792969 217.15625 C 12.914062 217.988281 14.105469 218.234375 14.574219 217.570312 C 15.023438 216.957031 14.800781 215.863281 13.984375 215.695312 L 13.914062 215.695312 L 13.898438 215.679688 L 13.652344 215.679688 Z M 13.644531 215.695312 Z M 13.644531 215.695312 "/>
<path style=" stroke:none;fill-rule:nonzero;fill:rgb(0%,0%,0%);fill-opacity:1;" d="M 5.160156 195.261719 L 5.160156 195.707031 L 3.078125 195.707031 L 3.078125 195.261719 Z M 5.160156 195.261719 Z M 5.160156 195.261719 "/>
<path style=" stroke:none;fill-rule:nonzero;fill:rgb(0%,0%,0%);fill-opacity:1;" d="M 7.746094 191.882812 C 8.5 191.9375 9 192.628906 9.136719 193.324219 C 9.207031 193.644531 9.222656 193.945312 9.253906 194.261719 L 9.253906 195.070312 C 9.214844 195.898438 9.015625 196.984375 8.121094 197.316406 C 7.339844 197.628906 6.429688 197.144531 6.199219 196.351562 C 6.023438 195.929688 6.007812 195.5 5.96875 195.070312 L 5.96875 194.261719 C 6.007812 193.4375 6.183594 192.339844 7.070312 191.976562 L 7.113281 191.960938 L 7.144531 191.953125 L 7.183594 191.9375 L 7.300781 191.90625 L 7.375 191.890625 L 7.460938 191.890625 L 7.476562 191.882812 Z M 7.746094 191.882812 Z M 7.5 192.367188 C 6.832031 192.445312 6.636719 193.246094 6.585938 193.785156 L 6.585938 194 L 6.570312 194.015625 L 6.570312 195.121094 C 6.621094 195.691406 6.660156 196.429688 7.183594 196.808594 C 7.667969 197.144531 8.308594 196.769531 8.445312 196.253906 C 8.585938 195.875 8.621094 195.5 8.652344 195.121094 L 8.652344 194.015625 C 8.605469 193.4375 8.523438 192.628906 7.859375 192.398438 L 7.800781 192.382812 L 7.785156 192.367188 L 7.714844 192.367188 L 7.699219 192.351562 L 7.515625 192.351562 Z M 7.5 192.367188 Z M 7.5 192.367188 "/>
<path style=" stroke:none;fill-rule:nonzero;fill:rgb(0%,0%,0%);fill-opacity:1;" d="M 11.023438 196.597656 L 11.023438 197.230469 L 10.382812 197.230469 L 10.382812 196.597656 Z M 11.023438 196.597656 Z M 11.023438 196.597656 "/>
<path style=" stroke:none;fill-rule:nonzero;fill:rgb(0%,0%,0%);fill-opacity:1;" d="M 14.429688 191.882812 C 14.636719 191.914062 14.875 191.9375 15.074219 192.03125 L 15.074219 192.492188 C 14.523438 192.253906 13.808594 192.222656 13.382812 192.707031 C 13 193.113281 12.824219 193.714844 12.808594 194.246094 C 13.269531 193.636719 14.308594 193.292969 14.875 193.929688 C 15.4375 194.578125 15.53125 195.515625 15.277344 196.308594 C 15 196.945312 14.359375 197.523438 13.644531 197.390625 C 12.675781 197.308594 12.238281 196.230469 12.191406 195.40625 C 12.007812 194.238281 12.285156 192.769531 13.398438 192.105469 L 13.414062 192.09375 L 13.582031 192.007812 L 13.628906 191.992188 L 13.652344 191.976562 L 13.785156 191.9375 L 13.898438 191.90625 L 13.96875 191.890625 L 14.054688 191.890625 L 14.070312 191.882812 Z M 14.429688 191.882812 Z M 13.652344 194.085938 C 12.960938 194.207031 12.738281 195.039062 12.824219 195.605469 C 12.867188 196.136719 13.070312 196.84375 13.683594 196.953125 C 14.335938 197.039062 14.753906 196.34375 14.769531 195.777344 C 14.800781 195.207031 14.769531 194.554688 14.269531 194.183594 L 14.160156 194.128906 L 14.070312 194.105469 L 14 194.085938 L 13.984375 194.070312 L 13.667969 194.070312 Z M 13.652344 194.085938 Z M 13.652344 194.085938 "/>
<path style=" stroke:none;fill-rule:nonzero;fill:rgb(0%,0%,0%);fill-opacity:1;" d="M 5.160156 174.257812 L 5.160156 174.703125 L 3.078125 174.703125 L 3.078125 174.257812 Z M 5.160156 174.257812 Z M 5.160156 174.257812 "/>
<path style=" stroke:none;fill-rule:nonzero;fill:rgb(0%,0%,0%);fill-opacity:1;" d="M 7.746094 170.875 C 8.5 170.933594 9 171.621094 9.136719 172.320312 C 9.207031 172.640625 9.222656 172.941406 9.253906 173.257812 L 9.253906 174.066406 C 9.214844 174.894531 9.015625 175.980469 8.121094 176.3125 C 7.339844 176.625 6.429688 176.140625 6.199219 175.34375 C 6.023438 174.925781 6.007812 174.496094 5.96875 174.066406 L 5.96875 173.257812 C 6.007812 172.433594 6.183594 171.335938 7.070312 170.972656 L 7.113281 170.957031 L 7.144531 170.949219 L 7.183594 170.933594 L 7.300781 170.902344 L 7.375 170.886719 L 7.460938 170.886719 L 7.476562 170.875 Z M 7.746094 170.875 Z M 7.5 171.359375 C 6.832031 171.441406 6.636719 172.242188 6.585938 172.78125 L 6.585938 172.996094 L 6.570312 173.011719 L 6.570312 174.113281 C 6.621094 174.6875 6.660156 175.425781 7.183594 175.804688 C 7.667969 176.140625 8.308594 175.765625 8.445312 175.25 C 8.585938 174.871094 8.621094 174.496094 8.652344 174.113281 L 8.652344 173.011719 C 8.605469 172.433594 8.523438 171.621094 7.859375 171.394531 L 7.800781 171.375 L 7.785156 171.359375 L 7.714844 171.359375 L 7.699219 171.34375 L 7.515625 171.34375 Z M 7.5 171.359375 Z M 7.5 171.359375 "/>
<path style=" stroke:none;fill-rule:nonzero;fill:rgb(0%,0%,0%);fill-opacity:1;" d="M 11.023438 175.589844 L 11.023438 176.226562 L 10.382812 176.226562 L 10.382812 175.589844 Z M 11.023438 175.589844 Z M 11.023438 175.589844 "/>
<path style=" stroke:none;fill-rule:nonzero;fill:rgb(0%,0%,0%);fill-opacity:1;" d="M 14.730469 171.042969 L 14.730469 174.386719 L 14.746094 174.402344 L 15.53125 174.402344 L 15.53125 174.878906 L 14.746094 174.878906 L 14.730469 174.886719 L 14.730469 176.226562 L 14.128906 176.226562 L 14.128906 174.886719 L 14.113281 174.878906 L 12.015625 174.878906 L 12.015625 174.386719 C 12.683594 173.273438 13.351562 172.15625 14.015625 171.042969 Z M 14.730469 171.042969 Z M 14.144531 171.34375 C 13.984375 172.171875 13.476562 172.878906 13.097656 173.597656 C 12.945312 173.859375 12.746094 174.148438 12.636719 174.402344 L 14.160156 174.402344 L 14.167969 174.386719 L 14.167969 171.34375 L 14.160156 171.328125 Z M 14.144531 171.34375 Z M 14.144531 171.34375 "/>
<path style=" stroke:none;fill-rule:nonzero;fill:rgb(0%,0%,0%);fill-opacity:1;" d="M 5.160156 153.253906 L 5.160156 153.699219 L 3.078125 153.699219 L 3.078125 153.253906 Z M 5.160156 153.253906 Z M 5.160156 153.253906 "/>
<path style=" stroke:none;fill-rule:nonzero;fill:rgb(0%,0%,0%);fill-opacity:1;" d="M 7.746094 149.871094 C 8.5 149.929688 9 150.617188 9.136719 151.316406 C 9.207031 151.632812 9.222656 151.9375 9.253906 152.253906 L 9.253906 153.0625 C 9.214844 153.886719 9.015625 154.976562 8.121094 155.308594 C 7.339844 155.617188 6.429688 155.132812 6.199219 154.339844 C 6.023438 153.921875 6.007812 153.492188 5.96875 153.0625 L 5.96875 152.253906 C 6.007812 151.429688 6.183594 150.332031 7.070312 149.96875 L 7.113281 149.953125 L 7.144531 149.945312 L 7.183594 149.929688 L 7.300781 149.894531 L 7.375 149.878906 L 7.460938 149.878906 L 7.476562 149.871094 Z M 7.746094 149.871094 Z M 7.5 150.355469 C 6.832031 150.4375 6.636719 151.238281 6.585938 151.777344 L 6.585938 151.992188 L 6.570312 152.007812 L 6.570312 153.109375 C 6.621094 153.683594 6.660156 154.421875 7.183594 154.800781 C 7.667969 155.132812 8.308594 154.761719 8.445312 154.246094 C 8.585938 153.863281 8.621094 153.492188 8.652344 153.109375 L 8.652344 152.007812 C 8.605469 151.429688 8.523438 150.617188 7.859375 150.386719 L 7.800781 150.371094 L 7.785156 150.355469 L 7.714844 150.355469 L 7.699219 150.339844 L 7.515625 150.339844 Z M 7.5 150.355469 Z M 7.5 150.355469 "/>
<path style=" stroke:none;fill-rule:nonzero;fill:rgb(0%,0%,0%);fill-opacity:1;" d="M 11.023438 154.585938 L 11.023438 155.222656 L 10.382812 155.222656 L 10.382812 154.585938 Z M 11.023438 154.585938 Z M 11.023438 154.585938 "/>
<path style=" stroke:none;fill-rule:nonzero;fill:rgb(0%,0%,0%);fill-opacity:1;" d="M 13.828125 149.871094 C 14.746094 149.894531 15.476562 150.839844 15.335938 151.730469 C 15.238281 152.617188 14.40625 153.125 13.808594 153.683594 L 13.554688 153.945312 L 13.523438 153.960938 L 13.207031 154.269531 L 13.183594 154.285156 L 12.867188 154.601562 L 12.835938 154.617188 L 12.761719 154.691406 L 12.777344 154.699219 L 15.351562 154.699219 L 15.351562 155.222656 L 12.207031 155.222656 L 12.207031 154.746094 L 13.484375 153.46875 C 14.097656 152.9375 14.808594 152.246094 14.699219 151.371094 C 14.636719 150.863281 14.207031 150.394531 13.683594 150.355469 C 13.152344 150.277344 12.683594 150.699219 12.5625 151.207031 L 12.546875 151.230469 L 12.53125 151.285156 L 12.507812 151.371094 L 12.460938 151.546875 L 12.453125 151.585938 C 12.34375 151.453125 12.222656 151.308594 12.136719 151.160156 C 12.292969 150.507812 12.816406 149.894531 13.507812 149.871094 Z M 13.828125 149.871094 Z M 13.828125 149.871094 "/>
<path style=" stroke:none;fill-rule:nonzero;fill:rgb(0%,0%,0%);fill-opacity:1;" d="M 7.746094 128.867188 C 8.5 128.921875 9 129.613281 9.136719 130.3125 C 9.207031 130.628906 9.222656 130.933594 9.253906 131.25 L 9.253906 132.058594 C 9.214844 132.882812 9.015625 133.972656 8.121094 134.304688 C 7.339844 134.613281 6.429688 134.128906 6.199219 133.335938 C 6.023438 132.914062 6.007812 132.488281 5.96875 132.058594 L 5.96875 131.25 C 6.007812 130.421875 6.183594 129.328125 7.070312 128.964844 L 7.113281 128.949219 L 7.144531 128.941406 L 7.183594 128.921875 L 7.300781 128.890625 L 7.375 128.875 L 7.460938 128.875 L 7.476562 128.867188 Z M 7.746094 128.867188 Z M 7.5 129.351562 C 6.832031 129.429688 6.636719 130.234375 6.585938 130.773438 L 6.585938 130.988281 L 6.570312 131.003906 L 6.570312 132.105469 C 6.621094 132.679688 6.660156 133.414062 7.183594 133.796875 C 7.667969 134.128906 8.308594 133.757812 8.445312 133.242188 C 8.585938 132.859375 8.621094 132.488281 8.652344 132.105469 L 8.652344 131.003906 C 8.605469 130.421875 8.523438 129.613281 7.859375 129.382812 L 7.800781 129.367188 L 7.785156 129.351562 L 7.714844 129.351562 L 7.699219 129.335938 L 7.515625 129.335938 Z M 7.5 129.351562 Z M 7.5 129.351562 "/>
<path style=" stroke:none;fill-rule:nonzero;fill:rgb(0%,0%,0%);fill-opacity:1;" d="M 11.023438 133.582031 L 11.023438 134.21875 L 10.382812 134.21875 L 10.382812 133.582031 Z M 11.023438 133.582031 Z M 11.023438 133.582031 "/>
<path style=" stroke:none;fill-rule:nonzero;fill:rgb(0%,0%,0%);fill-opacity:1;" d="M 13.914062 128.867188 C 14.667969 128.921875 15.167969 129.613281 15.300781 130.3125 C 15.375 130.628906 15.390625 130.933594 15.421875 131.25 L 15.421875 132.058594 C 15.382812 132.882812 15.183594 133.972656 14.285156 134.304688 C 13.507812 134.613281 12.597656 134.128906 12.367188 133.335938 C 12.191406 132.914062 12.175781 132.488281 12.136719 132.058594 L 12.136719 131.25 C 12.175781 130.421875 12.351562 129.328125 13.238281 128.964844 L 13.277344 128.949219 L 13.308594 128.941406 L 13.351562 128.921875 L 13.46875 128.890625 L 13.539062 128.875 L 13.628906 128.875 L 13.644531 128.867188 Z M 13.914062 128.867188 Z M 13.667969 129.351562 C 13 129.429688 12.800781 130.234375 12.753906 130.773438 L 12.753906 130.988281 L 12.738281 131.003906 L 12.738281 132.105469 C 12.785156 132.679688 12.824219 133.414062 13.351562 133.796875 C 13.835938 134.128906 14.476562 133.757812 14.613281 133.242188 C 14.753906 132.859375 14.785156 132.488281 14.816406 132.105469 L 14.816406 131.003906 C 14.769531 130.421875 14.691406 129.613281 14.023438 129.382812 L 13.96875 129.367188 L 13.953125 129.351562 L 13.882812 129.351562 L 13.867188 129.335938 L 13.683594 129.335938 Z M 13.667969 129.351562 Z M 13.667969 129.351562 "/>
<path style=" stroke:none;fill-rule:nonzero;fill:rgb(0%,0%,0%);fill-opacity:1;" d="M 7.746094 107.863281 C 8.5 107.917969 9 108.609375 9.136719 109.308594 C 9.207031 109.625 9.222656 109.925781 9.253906 110.246094 L 9.253906 111.054688 C 9.214844 111.878906 9.015625 112.96875 8.121094 113.300781 C 7.339844 113.609375 6.429688 113.125 6.199219 112.332031 C 6.023438 111.910156 6.007812 111.484375 5.96875 111.054688 L 5.96875 110.246094 C 6.007812 109.417969 6.183594 108.324219 7.070312 107.957031 L 7.113281 107.941406 L 7.144531 107.933594 L 7.183594 107.917969 L 7.300781 107.886719 L 7.375 107.871094 L 7.460938 107.871094 L 7.476562 107.863281 Z M 7.746094 107.863281 Z M 7.5 108.347656 C 6.832031 108.425781 6.636719 109.230469 6.585938 109.769531 L 6.585938 109.984375 L 6.570312 110 L 6.570312 111.101562 C 6.621094 111.671875 6.660156 112.410156 7.183594 112.792969 C 7.667969 113.125 8.308594 112.753906 8.445312 112.238281 C 8.585938 111.855469 8.621094 111.484375 8.652344 111.101562 L 8.652344 110 C 8.605469 109.417969 8.523438 108.609375 7.859375 108.378906 L 7.800781 108.363281 L 7.785156 108.347656 L 7.714844 108.347656 L 7.699219 108.332031 L 7.515625 108.332031 Z M 7.5 108.347656 Z M 7.5 108.347656 "/>
<path style=" stroke:none;fill-rule:nonzero;fill:rgb(0%,0%,0%);fill-opacity:1;" d="M 11.023438 112.578125 L 11.023438 113.214844 L 10.382812 113.214844 L 10.382812 112.578125 Z M 11.023438 112.578125 Z M 11.023438 112.578125 "/>
<path style=" stroke:none;fill-rule:nonzero;fill:rgb(0%,0%,0%);fill-opacity:1;" d="M 13.828125 107.863281 C 14.746094 107.886719 15.476562 108.832031 15.335938 109.722656 C 15.238281 110.609375 14.40625 111.117188 13.808594 111.671875 L 13.554688 111.933594 L 13.523438 111.949219 L 13.207031 112.261719 L 13.183594 112.277344 L 12.867188 112.59375 L 12.835938 112.609375 L 12.761719 112.679688 L 12.777344 112.6875 L 15.351562 112.6875 L 15.351562 113.214844 L 12.207031 113.214844 L 12.207031 112.738281 L 13.484375 111.460938 C 14.097656 110.925781 14.808594 110.238281 14.699219 109.363281 C 14.636719 108.855469 14.207031 108.386719 13.683594 108.347656 C 13.152344 108.269531 12.683594 108.6875 12.5625 109.195312 L 12.546875 109.222656 L 12.53125 109.277344 L 12.507812 109.363281 L 12.460938 109.539062 L 12.453125 109.578125 C 12.34375 109.441406 12.222656 109.300781 12.136719 109.148438 C 12.292969 108.5 12.816406 107.886719 13.507812 107.863281 Z M 13.828125 107.863281 Z M 13.828125 107.863281 "/>
<path style=" stroke:none;fill-rule:nonzero;fill:rgb(0%,0%,0%);fill-opacity:1;" d="M 7.746094 86.859375 C 8.5 86.914062 9 87.605469 9.136719 88.304688 C 9.207031 88.621094 9.222656 88.921875 9.253906 89.242188 L 9.253906 90.050781 C 9.214844 90.875 9.015625 91.960938 8.121094 92.296875 C 7.339844 92.605469 6.429688 92.121094 6.199219 91.328125 C 6.023438 90.90625 6.007812 90.476562 5.96875 90.050781 L 5.96875 89.242188 C 6.007812 88.414062 6.183594 87.320312 7.070312 86.953125 L 7.113281 86.9375 L 7.144531 86.929688 L 7.183594 86.914062 L 7.300781 86.882812 L 7.375 86.867188 L 7.460938 86.867188 L 7.476562 86.859375 Z M 7.746094 86.859375 Z M 7.5 87.34375 C 6.832031 87.421875 6.636719 88.222656 6.585938 88.765625 L 6.585938 88.976562 L 6.570312 88.996094 L 6.570312 90.097656 C 6.621094 90.667969 6.660156 91.40625 7.183594 91.789062 C 7.667969 92.121094 8.308594 91.75 8.445312 91.234375 C 8.585938 90.851562 8.621094 90.476562 8.652344 90.097656 L 8.652344 88.996094 C 8.605469 88.414062 8.523438 87.605469 7.859375 87.375 L 7.800781 87.359375 L 7.785156 87.34375 L 7.714844 87.34375 L 7.699219 87.328125 L 7.515625 87.328125 Z M 7.5 87.34375 Z M 7.5 87.34375 "/>
<path style=" stroke:none;fill-rule:nonzero;fill:rgb(0%,0%,0%);fill-opacity:1;" d="M 11.023438 91.574219 L 11.023438 92.207031 L 10.382812 92.207031 L 10.382812 91.574219 Z M 11.023438 91.574219 Z M 11.023438 91.574219 "/>
<path style=" stroke:none;fill-rule:nonzero;fill:rgb(0%,0%,0%);fill-opacity:1;" d="M 14.730469 87.027344 L 14.730469 90.367188 L 14.746094 90.382812 L 15.53125 90.382812 L 15.53125 90.859375 L 14.746094 90.859375 L 14.730469 90.867188 L 14.730469 92.207031 L 14.128906 92.207031 L 14.128906 90.867188 L 14.113281 90.859375 L 12.015625 90.859375 L 12.015625 90.367188 C 12.683594 89.257812 13.351562 88.136719 14.015625 87.027344 Z M 14.730469 87.027344 Z M 14.144531 87.328125 C 13.984375 88.152344 13.476562 88.859375 13.097656 89.582031 C 12.945312 89.84375 12.746094 90.128906 12.636719 90.382812 L 14.160156 90.382812 L 14.167969 90.367188 L 14.167969 87.328125 L 14.160156 87.3125 Z M 14.144531 87.328125 Z M 14.144531 87.328125 "/>
<path style=" stroke:none;fill-rule:nonzero;fill:rgb(0%,0%,0%);fill-opacity:1;" d="M 7.746094 65.855469 C 8.5 65.910156 9 66.601562 9.136719 67.300781 C 9.207031 67.617188 9.222656 67.917969 9.253906 68.234375 L 9.253906 69.046875 C 9.214844 69.871094 9.015625 70.957031 8.121094 71.292969 C 7.339844 71.601562 6.429688 71.117188 6.199219 70.324219 C 6.023438 69.902344 6.007812 69.472656 5.96875 69.046875 L 5.96875 68.234375 C 6.007812 67.410156 6.183594 66.316406 7.070312 65.949219 L 7.113281 65.933594 L 7.144531 65.925781 L 7.183594 65.910156 L 7.300781 65.878906 L 7.375 65.863281 L 7.460938 65.863281 L 7.476562 65.855469 Z M 7.746094 65.855469 Z M 7.5 66.339844 C 6.832031 66.417969 6.636719 67.21875 6.585938 67.757812 L 6.585938 67.972656 L 6.570312 67.988281 L 6.570312 69.09375 C 6.621094 69.664062 6.660156 70.402344 7.183594 70.785156 C 7.667969 71.117188 8.308594 70.742188 8.445312 70.226562 C 8.585938 69.847656 8.621094 69.472656 8.652344 69.09375 L 8.652344 67.988281 C 8.605469 67.410156 8.523438 66.601562 7.859375 66.371094 L 7.800781 66.355469 L 7.785156 66.339844 L 7.714844 66.339844 L 7.699219 66.324219 L 7.515625 66.324219 Z M 7.5 66.339844 Z M 7.5 66.339844 "/>
<path style=" stroke:none;fill-rule:nonzero;fill:rgb(0%,0%,0%);fill-opacity:1;" d="M 11.023438 70.570312 L 11.023438 71.203125 L 10.382812 71.203125 L 10.382812 70.570312 Z M 11.023438 70.570312 Z M 11.023438 70.570312 "/>
<path style=" stroke:none;fill-rule:nonzero;fill:rgb(0%,0%,0%);fill-opacity:1;" d="M 14.429688 65.855469 C 14.636719 65.886719 14.875 65.910156 15.074219 66.003906 L 15.074219 66.464844 C 14.523438 66.226562 13.808594 66.195312 13.382812 66.679688 C 13 67.085938 12.824219 67.6875 12.808594 68.21875 C 13.269531 67.609375 14.308594 67.265625 14.875 67.902344 C 15.4375 68.554688 15.53125 69.488281 15.277344 70.285156 C 15 70.917969 14.359375 71.496094 13.644531 71.363281 C 12.675781 71.285156 12.238281 70.203125 12.191406 69.378906 C 12.007812 68.210938 12.285156 66.742188 13.398438 66.078125 L 13.414062 66.070312 L 13.582031 65.980469 L 13.628906 65.964844 L 13.652344 65.949219 L 13.785156 65.910156 L 13.898438 65.878906 L 13.96875 65.863281 L 14.054688 65.863281 L 14.070312 65.855469 Z M 14.429688 65.855469 Z M 13.652344 68.0625 C 12.960938 68.179688 12.738281 69.011719 12.824219 69.578125 C 12.867188 70.109375 13.070312 70.816406 13.683594 70.925781 C 14.335938 71.015625 14.753906 70.316406 14.769531 69.75 C 14.800781 69.179688 14.769531 68.53125 14.269531 68.15625 L 14.160156 68.101562 L 14.070312 68.078125 L 14 68.0625 L 13.984375 68.046875 L 13.667969 68.046875 Z M 13.652344 68.0625 Z M 13.652344 68.0625 "/>
<path style=" stroke:none;fill-rule:nonzero;fill:rgb(0%,0%,0%);fill-opacity:1;" d="M 7.746094 44.851562 C 8.5 44.90625 9 45.597656 9.136719 46.292969 C 9.207031 46.613281 9.222656 46.914062 9.253906 47.230469 L 9.253906 48.039062 C 9.214844 48.867188 9.015625 49.953125 8.121094 50.289062 C 7.339844 50.597656 6.429688 50.113281 6.199219 49.320312 C 6.023438 48.898438 6.007812 48.46875 5.96875 48.039062 L 5.96875 47.230469 C 6.007812 46.40625 6.183594 45.3125 7.070312 44.945312 L 7.113281 44.929688 L 7.144531 44.921875 L 7.183594 44.90625 L 7.300781 44.875 L 7.375 44.859375 L 7.460938 44.859375 L 7.476562 44.851562 Z M 7.746094 44.851562 Z M 7.5 45.335938 C 6.832031 45.414062 6.636719 46.214844 6.585938 46.753906 L 6.585938 46.96875 L 6.570312 46.984375 L 6.570312 48.089844 C 6.621094 48.660156 6.660156 49.398438 7.183594 49.777344 C 7.667969 50.113281 8.308594 49.738281 8.445312 49.222656 C 8.585938 48.84375 8.621094 48.46875 8.652344 48.089844 L 8.652344 46.984375 C 8.605469 46.40625 8.523438 45.597656 7.859375 45.367188 L 7.800781 45.351562 L 7.785156 45.335938 L 7.714844 45.335938 L 7.699219 45.320312 L 7.515625 45.320312 Z M 7.5 45.335938 Z M 7.5 45.335938 "/>
<path style=" stroke:none;fill-rule:nonzero;fill:rgb(0%,0%,0%);fill-opacity:1;" d="M 11.023438 49.566406 L 11.023438 50.199219 L 10.382812 50.199219 L 10.382812 49.566406 Z M 11.023438 49.566406 Z M 11.023438 49.566406 "/>
<path style=" stroke:none;fill-rule:nonzero;fill:rgb(0%,0%,0%);fill-opacity:1;" d="M 13.929688 44.851562 C 14.769531 44.882812 15.5625 45.785156 15.230469 46.628906 C 15.089844 47.015625 14.691406 47.253906 14.367188 47.421875 C 15.175781 47.660156 15.667969 48.605469 15.300781 49.382812 C 14.921875 50.390625 13.476562 50.707031 12.683594 49.976562 C 11.960938 49.40625 11.9375 48.167969 12.738281 47.660156 C 12.859375 47.53125 13.082031 47.492188 13.183594 47.398438 C 12.492188 47.199219 12.023438 46.398438 12.351562 45.722656 C 12.613281 45.121094 13.285156 44.785156 13.929688 44.851562 Z M 13.929688 44.851562 Z M 13.628906 45.300781 C 13.039062 45.320312 12.628906 45.984375 12.824219 46.507812 C 13.054688 47.414062 14.574219 47.382812 14.746094 46.453125 C 14.90625 45.9375 14.492188 45.320312 13.929688 45.300781 L 13.914062 45.292969 L 13.644531 45.292969 Z M 13.628906 45.300781 Z M 13.644531 47.660156 C 12.953125 47.707031 12.613281 48.53125 12.792969 49.121094 C 12.914062 49.953125 14.105469 50.199219 14.574219 49.53125 C 15.023438 48.921875 14.800781 47.828125 13.984375 47.660156 L 13.914062 47.660156 L 13.898438 47.644531 L 13.652344 47.644531 Z M 13.644531 47.660156 Z M 13.644531 47.660156 "/>
<path style=" stroke:none;fill-rule:nonzero;fill:rgb(0%,0%,0%);fill-opacity:1;" d="M 7.992188 23.847656 L 7.992188 28.742188 L 8 28.757812 L 8.976562 28.757812 L 8.976562 29.195312 L 6.398438 29.195312 L 6.398438 28.757812 L 7.375 28.757812 L 7.390625 28.742188 L 7.390625 24.632812 C 7.054688 24.742188 6.707031 24.8125 6.359375 24.804688 L 6.359375 24.363281 C 6.882812 24.371094 7.453125 24.226562 7.851562 23.847656 Z M 7.992188 23.847656 Z M 7.992188 23.847656 "/>
<path style=" stroke:none;fill-rule:nonzero;fill:rgb(0%,0%,0%);fill-opacity:1;" d="M 11.023438 28.558594 L 11.023438 29.195312 L 10.382812 29.195312 L 10.382812 28.558594 Z M 11.023438 28.558594 Z M 11.023438 28.558594 "/>
<path style=" stroke:none;fill-rule:nonzero;fill:rgb(0%,0%,0%);fill-opacity:1;" d="M 13.914062 23.847656 C 14.667969 23.902344 15.167969 24.59375 15.300781 25.289062 C 15.375 25.609375 15.390625 25.910156 15.421875 26.226562 L 15.421875 27.035156 C 15.382812 27.863281 15.183594 28.949219 14.285156 29.28125 C 13.507812 29.59375 12.597656 29.109375 12.367188 28.3125 C 12.191406 27.894531 12.175781 27.464844 12.136719 27.035156 L 12.136719 26.226562 C 12.175781 25.402344 12.351562 24.304688 13.238281 23.941406 L 13.277344 23.925781 L 13.308594 23.917969 L 13.351562 23.902344 L 13.46875 23.871094 L 13.539062 23.855469 L 13.628906 23.855469 L 13.644531 23.847656 Z M 13.914062 23.847656 Z M 13.667969 24.328125 C 13 24.410156 12.800781 25.210938 12.753906 25.75 L 12.753906 25.964844 L 12.738281 25.980469 L 12.738281 27.085938 C 12.785156 27.65625 12.824219 28.394531 13.351562 28.773438 C 13.835938 29.109375 14.476562 28.734375 14.613281 28.21875 C 14.753906 27.839844 14.785156 27.464844 14.816406 27.085938 L 14.816406 25.980469 C 14.769531 25.402344 14.691406 24.59375 14.023438 24.363281 L 13.96875 24.347656 L 13.953125 24.328125 L 13.882812 24.328125 L 13.867188 24.3125 L 13.683594 24.3125 Z M 13.667969 24.328125 Z M 13.667969 24.328125 "/>
<path style=" stroke:none;fill-rule:nonzero;fill:rgb(0%,0%,0%);fill-opacity:1;" d="M 7.992188 2.839844 L 7.992188 7.738281 L 8 7.753906 L 8.976562 7.753906 L 8.976562 8.191406 L 6.398438 8.191406 L 6.398438 7.753906 L 7.375 7.753906 L 7.390625 7.738281 L 7.390625 3.628906 C 7.054688 3.738281 6.707031 3.808594 6.359375 3.800781 L 6.359375 3.355469 C 6.882812 3.363281 7.453125 3.222656 7.851562 2.839844 Z M 7.992188 2.839844 Z M 7.992188 2.839844 "/>
<path style=" stroke:none;fill-rule:nonzero;fill:rgb(0%,0%,0%);fill-opacity:1;" d="M 11.023438 7.554688 L 11.023438 8.191406 L 10.382812 8.191406 L 10.382812 7.554688 Z M 11.023438 7.554688 Z M 11.023438 7.554688 "/>
<path style=" stroke:none;fill-rule:nonzero;fill:rgb(0%,0%,0%);fill-opacity:1;" d="M 13.828125 2.839844 C 14.746094 2.863281 15.476562 3.808594 15.335938 4.699219 C 15.238281 5.585938 14.40625 6.09375 13.808594 6.652344 L 13.554688 6.914062 L 13.523438 6.929688 L 13.207031 7.238281 L 13.183594 7.253906 L 12.867188 7.570312 L 12.835938 7.585938 L 12.761719 7.660156 L 12.777344 7.667969 L 15.351562 7.667969 L 15.351562 8.191406 L 12.207031 8.191406 L 12.207031 7.714844 L 13.484375 6.4375 C 14.097656 5.90625 14.808594 5.214844 14.699219 4.339844 C 14.636719 3.832031 14.207031 3.363281 13.683594 3.324219 C 13.152344 3.246094 12.683594 3.667969 12.5625 4.175781 L 12.546875 4.199219 L 12.53125 4.253906 L 12.507812 4.339844 L 12.460938 4.515625 L 12.453125 4.554688 C 12.34375 4.421875 12.222656 4.277344 12.136719 4.128906 C 12.292969 3.476562 12.816406 2.863281 13.507812 2.839844 Z M 13.828125 2.839844 Z M 13.828125 2.839844 "/>
<path style="fill:none;stroke-width:0.02;stroke-linecap:butt;stroke-linejoin:miter;stroke:rgb(0%,0%,0%);stroke-opacity:1;stroke-miterlimit:10;" d="M 9.751274 1.16934 L 9.646267 1.16934 " transform="matrix(28.346457,0,0,-28.346457,1,227.771654)"/>
<path style="fill:none;stroke-width:0.02;stroke-linecap:butt;stroke-linejoin:miter;stroke:rgb(0%,0%,0%);stroke-opacity:1;stroke-miterlimit:10;" d="M 9.751274 1.910311 L 9.646267 1.910311 " transform="matrix(28.346457,0,0,-28.346457,1,227.771654)"/>
<path style="fill:none;stroke-width:0.02;stroke-linecap:butt;stroke-linejoin:miter;stroke:rgb(0%,0%,0%);stroke-opacity:1;stroke-miterlimit:10;" d="M 9.751274 2.65142 L 9.646267 2.65142 " transform="matrix(28.346457,0,0,-28.346457,1,227.771654)"/>
<path style="fill:none;stroke-width:0.02;stroke-linecap:butt;stroke-linejoin:miter;stroke:rgb(0%,0%,0%);stroke-opacity:1;stroke-miterlimit:10;" d="M 9.751274 3.392391 L 9.646267 3.392391 " transform="matrix(28.346457,0,0,-28.346457,1,227.771654)"/>
<path style="fill:none;stroke-width:0.02;stroke-linecap:butt;stroke-linejoin:miter;stroke:rgb(0%,0%,0%);stroke-opacity:1;stroke-miterlimit:10;" d="M 9.751274 4.133363 L 9.646267 4.133363 " transform="matrix(28.346457,0,0,-28.346457,1,227.771654)"/>
<path style="fill:none;stroke-width:0.02;stroke-linecap:butt;stroke-linejoin:miter;stroke:rgb(0%,0%,0%);stroke-opacity:1;stroke-miterlimit:10;" d="M 9.751274 4.874334 L 9.646267 4.874334 " transform="matrix(28.346457,0,0,-28.346457,1,227.771654)"/>
<path style="fill:none;stroke-width:0.02;stroke-linecap:butt;stroke-linejoin:miter;stroke:rgb(0%,0%,0%);stroke-opacity:1;stroke-miterlimit:10;" d="M 9.751274 5.615305 L 9.646267 5.615305 " transform="matrix(28.346457,0,0,-28.346457,1,227.771654)"/>
<path style="fill:none;stroke-width:0.02;stroke-linecap:butt;stroke-linejoin:miter;stroke:rgb(0%,0%,0%);stroke-opacity:1;stroke-miterlimit:10;" d="M 9.751274 6.356276 L 9.646267 6.356276 " transform="matrix(28.346457,0,0,-28.346457,1,227.771654)"/>
<path style="fill:none;stroke-width:0.02;stroke-linecap:butt;stroke-linejoin:miter;stroke:rgb(0%,0%,0%);stroke-opacity:1;stroke-miterlimit:10;" d="M 9.751274 7.097247 L 9.646267 7.097247 " transform="matrix(28.346457,0,0,-28.346457,1,227.771654)"/>
<path style="fill:none;stroke-width:0.02;stroke-linecap:round;stroke-linejoin:miter;stroke:rgb(0%,0%,0%);stroke-opacity:1;stroke-miterlimit:10;" d="M 9.751274 0.428369 L 9.751274 7.838356 " transform="matrix(28.346457,0,0,-28.346457,1,227.771654)"/>
<path style="fill:none;stroke-width:0.02;stroke-linecap:butt;stroke-linejoin:miter;stroke:rgb(0%,0%,0%);stroke-opacity:1;stroke-miterlimit:10;" d="M 1.827692 0.428369 L 1.827692 0.533376 " transform="matrix(28.346457,0,0,-28.346457,1,227.771654)"/>
<path style="fill:none;stroke-width:0.02;stroke-linecap:butt;stroke-linejoin:miter;stroke:rgb(0%,0%,0%);stroke-opacity:1;stroke-miterlimit:10;" d="M 2.959613 0.428369 L 2.959613 0.533376 " transform="matrix(28.346457,0,0,-28.346457,1,227.771654)"/>
<path style="fill:none;stroke-width:0.02;stroke-linecap:butt;stroke-linejoin:miter;stroke:rgb(0%,0%,0%);stroke-opacity:1;stroke-miterlimit:10;" d="M 4.091533 0.428369 L 4.091533 0.533376 " transform="matrix(28.346457,0,0,-28.346457,1,227.771654)"/>
<path style="fill:none;stroke-width:0.02;stroke-linecap:butt;stroke-linejoin:miter;stroke:rgb(0%,0%,0%);stroke-opacity:1;stroke-miterlimit:10;" d="M 5.223454 0.428369 L 5.223454 0.533376 " transform="matrix(28.346457,0,0,-28.346457,1,227.771654)"/>
<path style="fill:none;stroke-width:0.02;stroke-linecap:butt;stroke-linejoin:miter;stroke:rgb(0%,0%,0%);stroke-opacity:1;stroke-miterlimit:10;" d="M 6.355374 0.428369 L 6.355374 0.533376 " transform="matrix(28.346457,0,0,-28.346457,1,227.771654)"/>
<path style="fill:none;stroke-width:0.02;stroke-linecap:butt;stroke-linejoin:miter;stroke:rgb(0%,0%,0%);stroke-opacity:1;stroke-miterlimit:10;" d="M 7.487433 0.428369 L 7.487433 0.533376 " transform="matrix(28.346457,0,0,-28.346457,1,227.771654)"/>
<path style="fill:none;stroke-width:0.02;stroke-linecap:butt;stroke-linejoin:miter;stroke:rgb(0%,0%,0%);stroke-opacity:1;stroke-miterlimit:10;" d="M 8.619353 0.428369 L 8.619353 0.533376 " transform="matrix(28.346457,0,0,-28.346457,1,227.771654)"/>
<path style="fill:none;stroke-width:0.02;stroke-linecap:round;stroke-linejoin:miter;stroke:rgb(0%,0%,0%);stroke-opacity:1;stroke-miterlimit:10;" d="M 0.695771 0.428369 L 9.751274 0.428369 " transform="matrix(28.346457,0,0,-28.346457,1,227.771654)"/>
<path style=" stroke:none;fill-rule:nonzero;fill:rgb(0%,0%,0%);fill-opacity:1;" d="M 18.019531 220.445312 L 18.019531 225.34375 L 18.027344 225.359375 L 19.003906 225.359375 L 19.003906 225.796875 L 16.425781 225.796875 L 16.425781 225.359375 L 17.402344 225.359375 L 17.417969 225.34375 L 17.417969 221.230469 C 17.085938 221.34375 16.734375 221.414062 16.386719 221.40625 L 16.386719 220.960938 C 16.910156 220.96875 17.480469 220.828125 17.878906 220.445312 Z M 18.019531 220.445312 Z M 18.019531 220.445312 "/>
<path style=" stroke:none;fill-rule:nonzero;fill:rgb(0%,0%,0%);fill-opacity:1;" d="M 21.054688 225.160156 L 21.054688 225.796875 L 20.410156 225.796875 L 20.410156 225.160156 Z M 21.054688 225.160156 Z M 21.054688 225.160156 "/>
<path style=" stroke:none;fill-rule:nonzero;fill:rgb(0%,0%,0%);fill-opacity:1;" d="M 23.941406 220.445312 C 24.695312 220.5 25.195312 221.191406 25.332031 221.890625 C 25.402344 222.207031 25.417969 222.507812 25.449219 222.828125 L 25.449219 223.636719 C 25.410156 224.460938 25.210938 225.550781 24.316406 225.882812 C 23.539062 226.191406 22.625 225.707031 22.394531 224.914062 C 22.21875 224.492188 22.203125 224.066406 22.164062 223.636719 L 22.164062 222.828125 C 22.203125 222 22.378906 220.90625 23.265625 220.542969 L 23.308594 220.523438 L 23.339844 220.515625 L 23.378906 220.5 L 23.496094 220.46875 L 23.570312 220.453125 L 23.65625 220.453125 L 23.671875 220.445312 Z M 23.941406 220.445312 Z M 23.695312 220.929688 C 23.027344 221.007812 22.832031 221.8125 22.78125 222.351562 L 22.78125 222.566406 L 22.765625 222.582031 L 22.765625 223.683594 C 22.816406 224.253906 22.855469 224.992188 23.378906 225.375 C 23.863281 225.707031 24.503906 225.335938 24.640625 224.820312 C 24.785156 224.4375 24.816406 224.066406 24.847656 223.683594 L 24.847656 222.582031 C 24.800781 222 24.71875 221.191406 24.054688 220.960938 L 23.996094 220.945312 L 23.980469 220.929688 L 23.910156 220.929688 L 23.894531 220.914062 L 23.710938 220.914062 Z M 23.695312 220.929688 Z M 23.695312 220.929688 "/>
<path style=" stroke:none;fill-rule:nonzero;fill:rgb(0%,0%,0%);fill-opacity:1;" d="M 50.105469 220.445312 L 50.105469 225.34375 L 50.113281 225.359375 L 51.089844 225.359375 L 51.089844 225.796875 L 48.511719 225.796875 L 48.511719 225.359375 L 49.488281 225.359375 L 49.503906 225.34375 L 49.503906 221.230469 C 49.171875 221.34375 48.820312 221.414062 48.472656 221.40625 L 48.472656 220.960938 C 48.996094 220.96875 49.566406 220.828125 49.964844 220.445312 Z M 50.105469 220.445312 Z M 50.105469 220.445312 "/>
<path style=" stroke:none;fill-rule:nonzero;fill:rgb(0%,0%,0%);fill-opacity:1;" d="M 53.140625 225.160156 L 53.140625 225.796875 L 52.496094 225.796875 L 52.496094 225.160156 Z M 53.140625 225.160156 Z M 53.140625 225.160156 "/>
<path style=" stroke:none;fill-rule:nonzero;fill:rgb(0%,0%,0%);fill-opacity:1;" d="M 57.203125 220.613281 L 57.203125 221.105469 L 55.140625 221.105469 L 55.125 221.113281 L 55.125 222.738281 C 55.3125 222.613281 55.582031 222.445312 55.835938 222.4375 C 56.734375 222.34375 57.425781 223.222656 57.464844 224.042969 C 57.589844 225.082031 56.617188 226.113281 55.566406 225.953125 C 55.042969 225.9375 54.535156 225.628906 54.234375 225.199219 C 54.320312 225.082031 54.394531 224.875 54.496094 224.804688 C 54.871094 225.535156 56.074219 225.828125 56.558594 225.058594 C 56.871094 224.476562 56.863281 223.738281 56.503906 223.183594 C 56.089844 222.652344 55.273438 222.976562 55.082031 223.542969 L 54.566406 223.542969 L 54.566406 220.613281 Z M 57.203125 220.613281 Z M 57.203125 220.613281 "/>
<path style=" stroke:none;fill-rule:nonzero;fill:rgb(0%,0%,0%);fill-opacity:1;" d="M 81.859375 220.445312 C 82.78125 220.46875 83.511719 221.414062 83.367188 222.304688 C 83.273438 223.191406 82.4375 223.699219 81.84375 224.253906 L 81.589844 224.515625 L 81.558594 224.535156 L 81.242188 224.84375 L 81.21875 224.859375 L 80.898438 225.175781 L 80.867188 225.191406 L 80.796875 225.261719 L 80.8125 225.273438 L 83.382812 225.273438 L 83.382812 225.796875 L 80.242188 225.796875 L 80.242188 225.320312 L 81.519531 224.042969 C 82.128906 223.507812 82.84375 222.820312 82.734375 221.945312 C 82.667969 221.4375 82.242188 220.96875 81.71875 220.929688 C 81.183594 220.851562 80.71875 221.269531 80.597656 221.777344 L 80.582031 221.804688 L 80.566406 221.859375 L 80.542969 221.945312 L 80.496094 222.121094 L 80.488281 222.160156 C 80.375 222.023438 80.257812 221.882812 80.167969 221.730469 C 80.328125 221.082031 80.851562 220.46875 81.542969 220.445312 Z M 81.859375 220.445312 Z M 81.859375 220.445312 "/>
<path style=" stroke:none;fill-rule:nonzero;fill:rgb(0%,0%,0%);fill-opacity:1;" d="M 85.226562 225.160156 L 85.226562 225.796875 L 84.582031 225.796875 L 84.582031 225.160156 Z M 85.226562 225.160156 Z M 85.226562 225.160156 "/>
<path style=" stroke:none;fill-rule:nonzero;fill:rgb(0%,0%,0%);fill-opacity:1;" d="M 88.113281 220.445312 C 88.867188 220.5 89.367188 221.191406 89.503906 221.890625 C 89.574219 222.207031 89.589844 222.507812 89.621094 222.828125 L 89.621094 223.636719 C 89.582031 224.460938 89.382812 225.550781 88.488281 225.882812 C 87.710938 226.191406 86.796875 225.707031 86.566406 224.914062 C 86.390625 224.492188 86.375 224.066406 86.335938 223.636719 L 86.335938 222.828125 C 86.375 222 86.550781 220.90625 87.441406 220.542969 L 87.480469 220.523438 L 87.511719 220.515625 L 87.550781 220.5 L 87.667969 220.46875 L 87.742188 220.453125 L 87.828125 220.453125 L 87.84375 220.445312 Z M 88.113281 220.445312 Z M 87.867188 220.929688 C 87.203125 221.007812 87.003906 221.8125 86.957031 222.351562 L 86.957031 222.566406 L 86.941406 222.582031 L 86.941406 223.683594 C 86.988281 224.253906 87.027344 224.992188 87.550781 225.375 C 88.035156 225.707031 88.675781 225.335938 88.8125 224.820312 C 88.957031 224.4375 88.988281 224.066406 89.019531 223.683594 L 89.019531 222.582031 C 88.972656 222 88.890625 221.191406 88.226562 220.960938 L 88.167969 220.945312 L 88.152344 220.929688 L 88.082031 220.929688 L 88.066406 220.914062 L 87.882812 220.914062 Z M 87.867188 220.929688 Z M 87.867188 220.929688 "/>
<path style=" stroke:none;fill-rule:nonzero;fill:rgb(0%,0%,0%);fill-opacity:1;" d="M 113.945312 220.445312 C 114.867188 220.46875 115.597656 221.414062 115.453125 222.304688 C 115.359375 223.191406 114.523438 223.699219 113.929688 224.253906 L 113.675781 224.515625 L 113.644531 224.535156 L 113.328125 224.84375 L 113.304688 224.859375 L 112.984375 225.175781 L 112.953125 225.191406 L 112.882812 225.261719 L 112.898438 225.273438 L 115.46875 225.273438 L 115.46875 225.796875 L 112.328125 225.796875 L 112.328125 225.320312 L 113.605469 224.042969 C 114.214844 223.507812 114.929688 222.820312 114.820312 221.945312 C 114.753906 221.4375 114.328125 220.96875 113.804688 220.929688 C 113.269531 220.851562 112.804688 221.269531 112.683594 221.777344 L 112.667969 221.804688 L 112.652344 221.859375 L 112.628906 221.945312 L 112.582031 222.121094 L 112.574219 222.160156 C 112.460938 222.023438 112.34375 221.882812 112.253906 221.730469 C 112.414062 221.082031 112.9375 220.46875 113.628906 220.445312 Z M 113.945312 220.445312 Z M 113.945312 220.445312 "/>
<path style=" stroke:none;fill-rule:nonzero;fill:rgb(0%,0%,0%);fill-opacity:1;" d="M 117.3125 225.160156 L 117.3125 225.796875 L 116.667969 225.796875 L 116.667969 225.160156 Z M 117.3125 225.160156 Z M 117.3125 225.160156 "/>
<path style=" stroke:none;fill-rule:nonzero;fill:rgb(0%,0%,0%);fill-opacity:1;" d="M 121.375 220.613281 L 121.375 221.105469 L 119.3125 221.105469 L 119.296875 221.113281 L 119.296875 222.738281 C 119.484375 222.613281 119.753906 222.445312 120.011719 222.4375 C 120.90625 222.34375 121.597656 223.222656 121.636719 224.042969 C 121.765625 225.082031 120.789062 226.113281 119.738281 225.953125 C 119.214844 225.9375 118.707031 225.628906 118.40625 225.199219 C 118.492188 225.082031 118.566406 224.875 118.667969 224.804688 C 119.042969 225.535156 120.246094 225.828125 120.730469 225.058594 C 121.042969 224.476562 121.035156 223.738281 120.675781 223.183594 C 120.265625 222.652344 119.445312 222.976562 119.253906 223.542969 L 118.738281 223.542969 L 118.738281 220.613281 Z M 121.375 220.613281 Z M 121.375 220.613281 "/>
<path style=" stroke:none;fill-rule:nonzero;fill:rgb(0%,0%,0%);fill-opacity:1;" d="M 146.136719 220.445312 C 146.832031 220.476562 147.5625 221.121094 147.398438 221.859375 C 147.316406 222.359375 146.96875 222.769531 146.53125 222.992188 C 147.238281 223.214844 147.785156 223.960938 147.59375 224.699219 C 147.40625 225.660156 146.300781 226.191406 145.414062 225.898438 C 144.984375 225.773438 144.546875 225.5 144.339844 225.105469 C 144.390625 224.984375 144.375 224.78125 144.429688 224.699219 C 144.847656 225.320312 145.738281 225.738281 146.4375 225.390625 C 147.199219 224.90625 147.078125 223.492188 146.160156 223.253906 L 146.085938 223.253906 L 146.070312 223.238281 L 145.332031 223.238281 L 145.332031 222.761719 C 145.785156 222.753906 146.347656 222.699219 146.605469 222.230469 C 146.875 221.828125 146.847656 221.160156 146.332031 220.960938 C 145.722656 220.722656 144.96875 221.113281 144.738281 221.730469 C 144.644531 221.597656 144.546875 221.460938 144.453125 221.320312 C 144.777344 220.730469 145.46875 220.382812 146.136719 220.445312 Z M 146.136719 220.445312 Z M 146.136719 220.445312 "/>
<path style=" stroke:none;fill-rule:nonzero;fill:rgb(0%,0%,0%);fill-opacity:1;" d="M 149.398438 225.160156 L 149.398438 225.796875 L 148.753906 225.796875 L 148.753906 225.160156 Z M 149.398438 225.160156 Z M 149.398438 225.160156 "/>
<path style=" stroke:none;fill-rule:nonzero;fill:rgb(0%,0%,0%);fill-opacity:1;" d="M 152.285156 220.445312 C 153.039062 220.5 153.539062 221.191406 153.675781 221.890625 C 153.746094 222.207031 153.761719 222.507812 153.792969 222.828125 L 153.792969 223.636719 C 153.753906 224.460938 153.554688 225.550781 152.660156 225.882812 C 151.882812 226.191406 150.96875 225.707031 150.738281 224.914062 C 150.5625 224.492188 150.546875 224.066406 150.507812 223.636719 L 150.507812 222.828125 C 150.546875 222 150.722656 220.90625 151.613281 220.542969 L 151.652344 220.523438 L 151.683594 220.515625 L 151.722656 220.5 L 151.84375 220.46875 L 151.914062 220.453125 L 152 220.453125 L 152.015625 220.445312 Z M 152.285156 220.445312 Z M 152.039062 220.929688 C 151.375 221.007812 151.175781 221.8125 151.128906 222.351562 L 151.128906 222.566406 L 151.113281 222.582031 L 151.113281 223.683594 C 151.160156 224.253906 151.199219 224.992188 151.722656 225.375 C 152.207031 225.707031 152.851562 225.335938 152.984375 224.820312 C 153.128906 224.4375 153.160156 224.066406 153.191406 223.683594 L 153.191406 222.582031 C 153.144531 222 153.0625 221.191406 152.398438 220.960938 L 152.34375 220.945312 L 152.324219 220.929688 L 152.253906 220.929688 L 152.238281 220.914062 L 152.054688 220.914062 Z M 152.039062 220.929688 Z M 152.039062 220.929688 "/>
<path style=" stroke:none;fill-rule:nonzero;fill:rgb(0%,0%,0%);fill-opacity:1;" d="M 178.222656 220.445312 C 178.917969 220.476562 179.648438 221.121094 179.484375 221.859375 C 179.402344 222.359375 179.054688 222.769531 178.617188 222.992188 C 179.324219 223.214844 179.871094 223.960938 179.683594 224.699219 C 179.492188 225.660156 178.386719 226.191406 177.5 225.898438 C 177.070312 225.773438 176.632812 225.5 176.425781 225.105469 C 176.476562 224.984375 176.460938 224.78125 176.515625 224.699219 C 176.9375 225.320312 177.824219 225.738281 178.523438 225.390625 C 179.285156 224.90625 179.164062 223.492188 178.246094 223.253906 L 178.171875 223.253906 L 178.15625 223.238281 L 177.417969 223.238281 L 177.417969 222.761719 C 177.871094 222.753906 178.4375 222.699219 178.691406 222.230469 C 178.960938 221.828125 178.9375 221.160156 178.417969 220.960938 C 177.808594 220.722656 177.054688 221.113281 176.824219 221.730469 C 176.730469 221.597656 176.632812 221.460938 176.539062 221.320312 C 176.863281 220.730469 177.554688 220.382812 178.222656 220.445312 Z M 178.222656 220.445312 Z M 178.222656 220.445312 "/>
<path style=" stroke:none;fill-rule:nonzero;fill:rgb(0%,0%,0%);fill-opacity:1;" d="M 181.484375 225.160156 L 181.484375 225.796875 L 180.839844 225.796875 L 180.839844 225.160156 Z M 181.484375 225.160156 Z M 181.484375 225.160156 "/>
<path style=" stroke:none;fill-rule:nonzero;fill:rgb(0%,0%,0%);fill-opacity:1;" d="M 185.546875 220.613281 L 185.546875 221.105469 L 183.484375 221.105469 L 183.46875 221.113281 L 183.46875 222.738281 C 183.660156 222.613281 183.929688 222.445312 184.183594 222.4375 C 185.078125 222.34375 185.769531 223.222656 185.808594 224.042969 C 185.9375 225.082031 184.960938 226.113281 183.914062 225.953125 C 183.386719 225.9375 182.878906 225.628906 182.578125 225.199219 C 182.667969 225.082031 182.738281 224.875 182.839844 224.804688 C 183.214844 225.535156 184.421875 225.828125 184.90625 225.058594 C 185.214844 224.476562 185.207031 223.738281 184.847656 223.183594 C 184.4375 222.652344 183.617188 222.976562 183.429688 223.542969 L 182.914062 223.542969 L 182.914062 220.613281 Z M 185.546875 220.613281 Z M 185.546875 220.613281 "/>
<path style=" stroke:none;fill-rule:nonzero;fill:rgb(0%,0%,0%);fill-opacity:1;" d="M 211.109375 220.613281 L 211.109375 223.953125 L 211.125 223.96875 L 211.910156 223.96875 L 211.910156 224.445312 L 211.125 224.445312 L 211.109375 224.453125 L 211.109375 225.796875 L 210.507812 225.796875 L 210.507812 224.453125 L 210.488281 224.445312 L 208.394531 224.445312 L 208.394531 223.953125 C 209.0625 222.84375 209.726562 221.722656 210.394531 220.613281 Z M 211.109375 220.613281 Z M 210.523438 220.914062 C 210.363281 221.738281 209.855469 222.445312 209.472656 223.167969 C 209.324219 223.429688 209.125 223.714844 209.015625 223.96875 L 210.539062 223.96875 L 210.546875 223.953125 L 210.546875 220.914062 L 210.539062 220.898438 Z M 210.523438 220.914062 Z M 210.523438 220.914062 "/>
<path style=" stroke:none;fill-rule:nonzero;fill:rgb(0%,0%,0%);fill-opacity:1;" d="M 213.570312 225.160156 L 213.570312 225.796875 L 212.925781 225.796875 L 212.925781 225.160156 Z M 213.570312 225.160156 Z M 213.570312 225.160156 "/>
<path style=" stroke:none;fill-rule:nonzero;fill:rgb(0%,0%,0%);fill-opacity:1;" d="M 216.457031 220.445312 C 217.210938 220.5 217.710938 221.191406 217.847656 221.890625 C 217.917969 222.207031 217.933594 222.507812 217.964844 222.828125 L 217.964844 223.636719 C 217.925781 224.460938 217.730469 225.550781 216.832031 225.882812 C 216.054688 226.191406 215.140625 225.707031 214.910156 224.914062 C 214.738281 224.492188 214.71875 224.066406 214.679688 223.636719 L 214.679688 222.828125 C 214.71875 222 214.894531 220.90625 215.785156 220.542969 L 215.824219 220.523438 L 215.855469 220.515625 L 215.894531 220.5 L 216.015625 220.46875 L 216.085938 220.453125 L 216.171875 220.453125 L 216.1875 220.445312 Z M 216.457031 220.445312 Z M 216.210938 220.929688 C 215.546875 221.007812 215.347656 221.8125 215.300781 222.351562 L 215.300781 222.566406 L 215.285156 222.582031 L 215.285156 223.683594 C 215.332031 224.253906 215.371094 224.992188 215.894531 225.375 C 216.378906 225.707031 217.023438 225.335938 217.15625 224.820312 C 217.300781 224.4375 217.332031 224.066406 217.363281 223.683594 L 217.363281 222.582031 C 217.316406 222 217.238281 221.191406 216.570312 220.960938 L 216.515625 220.945312 L 216.5 220.929688 L 216.425781 220.929688 L 216.410156 220.914062 L 216.230469 220.914062 Z M 216.210938 220.929688 Z M 216.210938 220.929688 "/>
<path style=" stroke:none;fill-rule:nonzero;fill:rgb(0%,0%,0%);fill-opacity:1;" d="M 243.195312 220.613281 L 243.195312 223.953125 L 243.210938 223.96875 L 243.996094 223.96875 L 243.996094 224.445312 L 243.210938 224.445312 L 243.195312 224.453125 L 243.195312 225.796875 L 242.59375 225.796875 L 242.59375 224.453125 L 242.578125 224.445312 L 240.480469 224.445312 L 240.480469 223.953125 C 241.148438 222.84375 241.8125 221.722656 242.480469 220.613281 Z M 243.195312 220.613281 Z M 242.609375 220.914062 C 242.449219 221.738281 241.941406 222.445312 241.558594 223.167969 C 241.410156 223.429688 241.210938 223.714844 241.101562 223.96875 L 242.625 223.96875 L 242.632812 223.953125 L 242.632812 220.914062 L 242.625 220.898438 Z M 242.609375 220.914062 Z M 242.609375 220.914062 "/>
<path style=" stroke:none;fill-rule:nonzero;fill:rgb(0%,0%,0%);fill-opacity:1;" d="M 245.65625 225.160156 L 245.65625 225.796875 L 245.011719 225.796875 L 245.011719 225.160156 Z M 245.65625 225.160156 Z M 245.65625 225.160156 "/>
<path style=" stroke:none;fill-rule:nonzero;fill:rgb(0%,0%,0%);fill-opacity:1;" d="M 249.71875 220.613281 L 249.71875 221.105469 L 247.65625 221.105469 L 247.640625 221.113281 L 247.640625 222.738281 C 247.832031 222.613281 248.101562 222.445312 248.355469 222.4375 C 249.25 222.34375 249.941406 223.222656 249.980469 224.042969 C 250.109375 225.082031 249.132812 226.113281 248.085938 225.953125 C 247.5625 225.9375 247.050781 225.628906 246.75 225.199219 C 246.839844 225.082031 246.910156 224.875 247.011719 224.804688 C 247.386719 225.535156 248.59375 225.828125 249.078125 225.058594 C 249.386719 224.476562 249.378906 223.738281 249.019531 223.183594 C 248.609375 222.652344 247.789062 222.976562 247.601562 223.542969 L 247.085938 223.542969 L 247.085938 220.613281 Z M 249.71875 220.613281 Z M 249.71875 220.613281 "/>
<path style=" stroke:none;fill-rule:nonzero;fill:rgb(0%,0%,0%);fill-opacity:1;" d="M 275.636719 220.613281 L 275.636719 221.105469 L 273.574219 221.105469 L 273.558594 221.113281 L 273.558594 222.738281 C 273.75 222.613281 274.019531 222.445312 274.273438 222.4375 C 275.171875 222.34375 275.859375 223.222656 275.902344 224.042969 C 276.027344 225.082031 275.050781 226.113281 274.003906 225.953125 C 273.480469 225.9375 272.972656 225.628906 272.671875 225.199219 C 272.757812 225.082031 272.828125 224.875 272.933594 224.804688 C 273.304688 225.535156 274.511719 225.828125 274.996094 225.058594 C 275.304688 224.476562 275.296875 223.738281 274.941406 223.183594 C 274.527344 222.652344 273.710938 222.976562 273.519531 223.542969 L 273.003906 223.542969 L 273.003906 220.613281 Z M 275.636719 220.613281 Z M 275.636719 220.613281 "/>
<path style=" stroke:none;fill-rule:nonzero;fill:rgb(0%,0%,0%);fill-opacity:1;" d="M 277.742188 225.160156 L 277.742188 225.796875 L 277.097656 225.796875 L 277.097656 225.160156 Z M 277.742188 225.160156 Z M 277.742188 225.160156 "/>
<path style=" stroke:none;fill-rule:nonzero;fill:rgb(0%,0%,0%);fill-opacity:1;" d="M 280.632812 220.445312 C 281.386719 220.5 281.886719 221.191406 282.019531 221.890625 C 282.089844 222.207031 282.105469 222.507812 282.140625 222.828125 L 282.140625 223.636719 C 282.097656 224.460938 281.902344 225.550781 281.003906 225.882812 C 280.226562 226.191406 279.3125 225.707031 279.082031 224.914062 C 278.910156 224.492188 278.894531 224.066406 278.851562 223.636719 L 278.851562 222.828125 C 278.894531 222 279.066406 220.90625 279.957031 220.542969 L 279.996094 220.523438 L 280.027344 220.515625 L 280.066406 220.5 L 280.1875 220.46875 L 280.257812 220.453125 L 280.34375 220.453125 L 280.359375 220.445312 Z M 280.632812 220.445312 Z M 280.386719 220.929688 C 279.71875 221.007812 279.519531 221.8125 279.472656 222.351562 L 279.472656 222.566406 L 279.457031 222.582031 L 279.457031 223.683594 C 279.503906 224.253906 279.542969 224.992188 280.066406 225.375 C 280.550781 225.707031 281.195312 225.335938 281.328125 224.820312 C 281.472656 224.4375 281.503906 224.066406 281.535156 223.683594 L 281.535156 222.582031 C 281.488281 222 281.410156 221.191406 280.742188 220.960938 L 280.6875 220.945312 L 280.671875 220.929688 L 280.597656 220.929688 L 280.582031 220.914062 L 280.402344 220.914062 Z M 280.386719 220.929688 Z M 280.386719 220.929688 "/>
<path style="fill:none;stroke-width:0.02;stroke-linecap:butt;stroke-linejoin:miter;stroke:rgb(0%,0%,0%);stroke-opacity:1;stroke-miterlimit:10;" d="M 1.827692 7.838356 L 1.827692 7.73335 " transform="matrix(28.346457,0,0,-28.346457,1,227.771654)"/>
<path style="fill:none;stroke-width:0.02;stroke-linecap:butt;stroke-linejoin:miter;stroke:rgb(0%,0%,0%);stroke-opacity:1;stroke-miterlimit:10;" d="M 2.959613 7.838356 L 2.959613 7.73335 " transform="matrix(28.346457,0,0,-28.346457,1,227.771654)"/>
<path style="fill:none;stroke-width:0.02;stroke-linecap:butt;stroke-linejoin:miter;stroke:rgb(0%,0%,0%);stroke-opacity:1;stroke-miterlimit:10;" d="M 4.091533 7.838356 L 4.091533 7.73335 " transform="matrix(28.346457,0,0,-28.346457,1,227.771654)"/>
<path style="fill:none;stroke-width:0.02;stroke-linecap:butt;stroke-linejoin:miter;stroke:rgb(0%,0%,0%);stroke-opacity:1;stroke-miterlimit:10;" d="M 5.223454 7.838356 L 5.223454 7.73335 " transform="matrix(28.346457,0,0,-28.346457,1,227.771654)"/>
<path style="fill:none;stroke-width:0.02;stroke-linecap:butt;stroke-linejoin:miter;stroke:rgb(0%,0%,0%);stroke-opacity:1;stroke-miterlimit:10;" d="M 6.355374 7.838356 L 6.355374 7.73335 " transform="matrix(28.346457,0,0,-28.346457,1,227.771654)"/>
<path style="fill:none;stroke-width:0.02;stroke-linecap:butt;stroke-linejoin:miter;stroke:rgb(0%,0%,0%);stroke-opacity:1;stroke-miterlimit:10;" d="M 7.487433 7.838356 L 7.487433 7.73335 " transform="matrix(28.346457,0,0,-28.346457,1,227.771654)"/>
<path style="fill:none;stroke-width:0.02;stroke-linecap:butt;stroke-linejoin:miter;stroke:rgb(0%,0%,0%);stroke-opacity:1;stroke-miterlimit:10;" d="M 8.619353 7.838356 L 8.619353 7.73335 " transform="matrix(28.346457,0,0,-28.346457,1,227.771654)"/>
<path style="fill:none;stroke-width:0.02;stroke-linecap:round;stroke-linejoin:miter;stroke:rgb(0%,0%,0%);stroke-opacity:1;stroke-miterlimit:10;" d="M 0.695771 7.838356 L 9.751274 7.838356 " transform="matrix(28.346457,0,0,-28.346457,1,227.771654)"/>
<path style="fill:none;stroke-width:0.02;stroke-linecap:butt;stroke-linejoin:miter;stroke:rgb(32.941176%,47.058824%,63.921569%);stroke-opacity:1;stroke-miterlimit:10;" d="M 0.695771 3.237638 L 2.959613 4.230928 L 5.223454 2.937225 L 7.487433 7.494398 L 9.751274 0.986888 " transform="matrix(28.346457,0,0,-28.346457,1,227.771654)"/>
</g>
</svg>
