<?xml version="1.0" encoding="UTF-8"?>
<svg xmlns="http://www.w3.org/2000/svg" xmlns:xlink="http://www.w3.org/1999/xlink" width="285.464567pt" height="228.771654pt" viewBox="0 0 285.464567 228.771654" version="1.1">
<g id="surface1">
<path style="fill:none;stroke-width:0.02;stroke-linecap:butt;stroke-linejoin:miter;stroke:rgb(0%,0%,0%);stroke-opacity:1;stroke-miterlimit:10;" d="M 0.602616 1.102092 L 0.707623 1.102092 " transform="matrix(28.346457,0,0,-28.346457,1,227.771654)"/>
<path style="fill:none;stroke-width:0.02;stroke-linecap:butt;stroke-linejoin:miter;stroke:rgb(0%,0%,0%);stroke-opacity:1;stroke-miterlimit:10;" d="M 0.602616 2.786055 L 0.707623 2.786055 " transform="matrix(28.346457,0,0,-28.346457,1,227.771654)"/>
<path style="fill:none;stroke-width:0.02;stroke-linecap:butt;stroke-linejoin:miter;stroke:rgb(0%,0%,0%);stroke-opacity:1;stroke-miterlimit:10;" d="M 0.602616 4.470155 L 0.707623 4.470155 " transform="matrix(28.346457,0,0,-28.346457,1,227.771654)"/>
<path style="fill:none;stroke-width:0.02;stroke-linecap:butt;stroke-linejoin:miter;stroke:rgb(0%,0%,0%);stroke-opacity:1;stroke-miterlimit:10;" d="M 0.602616 6.154256 L 0.707623 6.154256 " transform="matrix(28.346457,0,0,-28.346457,1,227.771654)"/>
<path style="fill:none;stroke-width:0.02;stroke-linecap:round;stroke-linejoin:miter;stroke:rgb(0%,0%,0%);stroke-opacity:1;stroke-miterlimit:10;" d="M 0.602616 0.428369 L 0.602616 7.838356 " transform="matrix(28.346457,0,0,-28.346457,1,227.771654)"/>
<path style=" stroke:none;fill-rule:nonzero;fill:rgb(0%,0%,0%);fill-opacity:1;" d="M 5.101562 193.789062 C 5.859375 193.847656 6.359375 194.535156 6.492188 195.234375 C 6.5625 195.554688 6.578125 195.855469 6.613281 196.171875 L 6.613281 196.980469 C 6.570312 197.808594 6.375 198.894531 5.476562 199.226562 C 4.699219 199.539062 3.785156 199.054688 3.554688 198.257812 C 3.382812 197.839844 3.363281 197.410156 3.324219 196.980469 L 3.324219 196.171875 C 3.363281 195.347656 3.539062 194.25 4.429688 193.886719 L 4.46875 193.871094 L 4.5 193.863281 L 4.539062 193.847656 L 4.660156 193.816406 L 4.730469 193.796875 L 4.816406 193.796875 L 4.832031 193.789062 Z M 5.101562 193.789062 Z M 4.855469 194.273438 C 4.191406 194.355469 3.992188 195.15625 3.945312 195.695312 L 3.945312 195.910156 L 3.929688 195.925781 L 3.929688 197.027344 C 3.976562 197.601562 4.015625 198.339844 4.539062 198.71875 C 5.023438 199.054688 5.667969 198.679688 5.800781 198.164062 C 5.945312 197.78125 5.976562 197.410156 6.007812 197.027344 L 6.007812 195.925781 C 5.960938 195.347656 5.882812 194.535156 5.214844 194.308594 L 5.160156 194.289062 L 5.144531 194.273438 L 5.070312 194.273438 L 5.054688 194.257812 L 4.875 194.257812 Z M 4.855469 194.273438 Z M 4.855469 194.273438 "/>
<path style=" stroke:none;fill-rule:nonzero;fill:rgb(0%,0%,0%);fill-opacity:1;" d="M 8.382812 198.503906 L 8.382812 199.140625 L 7.738281 199.140625 L 7.738281 198.503906 Z M 8.382812 198.503906 Z M 8.382812 198.503906 "/>
<path style=" stroke:none;fill-rule:nonzero;fill:rgb(0%,0%,0%);fill-opacity:1;" d="M 11.269531 193.789062 C 12.023438 193.847656 12.523438 194.535156 12.660156 195.234375 C 12.730469 195.554688 12.746094 195.855469 12.777344 196.171875 L 12.777344 196.980469 C 12.738281 197.808594 12.539062 198.894531 11.644531 199.226562 C 10.867188 199.539062 9.953125 199.054688 9.722656 198.257812 C 9.546875 197.839844 9.53125 197.410156 9.492188 196.980469 L 9.492188 196.171875 C 9.53125 195.347656 9.707031 194.25 10.597656 193.886719 L 10.636719 193.871094 L 10.667969 193.863281 L 10.707031 193.847656 L 10.824219 193.816406 L 10.898438 193.796875 L 10.984375 193.796875 L 11 193.789062 Z M 11.269531 193.789062 Z M 11.023438 194.273438 C 10.359375 194.355469 10.160156 195.15625 10.113281 195.695312 L 10.113281 195.910156 L 10.097656 195.925781 L 10.097656 197.027344 C 10.144531 197.601562 10.183594 198.339844 10.707031 198.71875 C 11.191406 199.054688 11.835938 198.679688 11.96875 198.164062 C 12.113281 197.78125 12.144531 197.410156 12.175781 197.027344 L 12.175781 195.925781 C 12.128906 195.347656 12.046875 194.535156 11.382812 194.308594 L 11.324219 194.289062 L 11.308594 194.273438 L 11.238281 194.273438 L 11.222656 194.257812 L 11.039062 194.257812 Z M 11.023438 194.273438 Z M 11.023438 194.273438 "/>
<path style=" stroke:none;fill-rule:nonzero;fill:rgb(0%,0%,0%);fill-opacity:1;" d="M 5.101562 146.054688 C 5.859375 146.109375 6.359375 146.800781 6.492188 147.496094 C 6.5625 147.816406 6.578125 148.117188 6.613281 148.433594 L 6.613281 149.246094 C 6.570312 150.070312 6.375 151.15625 5.476562 151.492188 C 4.699219 151.800781 3.785156 151.316406 3.554688 150.523438 C 3.382812 150.101562 3.363281 149.671875 3.324219 149.246094 L 3.324219 148.433594 C 3.363281 147.609375 3.539062 146.515625 4.429688 146.148438 L 4.46875 146.132812 L 4.5 146.125 L 4.539062 146.109375 L 4.660156 146.078125 L 4.730469 146.0625 L 4.816406 146.0625 L 4.832031 146.054688 Z M 5.101562 146.054688 Z M 4.855469 146.539062 C 4.191406 146.617188 3.992188 147.417969 3.945312 147.957031 L 3.945312 148.171875 L 3.929688 148.1875 L 3.929688 149.292969 C 3.976562 149.863281 4.015625 150.601562 4.539062 150.980469 C 5.023438 151.316406 5.667969 150.941406 5.800781 150.425781 C 5.945312 150.046875 5.976562 149.671875 6.007812 149.292969 L 6.007812 148.1875 C 5.960938 147.609375 5.882812 146.800781 5.214844 146.570312 L 5.160156 146.554688 L 5.144531 146.539062 L 5.070312 146.539062 L 5.054688 146.523438 L 4.875 146.523438 Z M 4.855469 146.539062 Z M 4.855469 146.539062 "/>
<path style=" stroke:none;fill-rule:nonzero;fill:rgb(0%,0%,0%);fill-opacity:1;" d="M 8.382812 150.769531 L 8.382812 151.402344 L 7.738281 151.402344 L 7.738281 150.769531 Z M 8.382812 150.769531 Z M 8.382812 150.769531 "/>
<path style=" stroke:none;fill-rule:nonzero;fill:rgb(0%,0%,0%);fill-opacity:1;" d="M 12.445312 146.21875 L 12.445312 146.710938 L 10.382812 146.710938 L 10.367188 146.71875 L 10.367188 148.347656 C 10.554688 148.21875 10.824219 148.054688 11.078125 148.046875 C 11.976562 147.949219 12.667969 148.832031 12.707031 149.648438 C 12.835938 150.6875 11.859375 151.71875 10.808594 151.5625 C 10.285156 151.546875 9.777344 151.238281 9.476562 150.808594 C 9.5625 150.6875 9.636719 150.480469 9.738281 150.410156 C 10.113281 151.140625 11.316406 151.433594 11.800781 150.664062 C 12.113281 150.085938 12.105469 149.347656 11.746094 148.792969 C 11.332031 148.261719 10.515625 148.585938 10.324219 149.148438 L 9.808594 149.148438 L 9.808594 146.21875 Z M 12.445312 146.21875 Z M 12.445312 146.21875 "/>
<path style=" stroke:none;fill-rule:nonzero;fill:rgb(0%,0%,0%);fill-opacity:1;" d="M 5.347656 98.316406 L 5.347656 103.214844 L 5.355469 103.230469 L 6.332031 103.230469 L 6.332031 103.664062 L 3.753906 103.664062 L 3.753906 103.230469 L 4.730469 103.230469 L 4.746094 103.214844 L 4.746094 99.101562 C 4.414062 99.214844 4.0625 99.285156 3.714844 99.277344 L 3.714844 98.832031 C 4.238281 98.839844 4.808594 98.695312 5.207031 98.316406 Z M 5.347656 98.316406 Z M 5.347656 98.316406 "/>
<path style=" stroke:none;fill-rule:nonzero;fill:rgb(0%,0%,0%);fill-opacity:1;" d="M 8.382812 103.03125 L 8.382812 103.664062 L 7.738281 103.664062 L 7.738281 103.03125 Z M 8.382812 103.03125 Z M 8.382812 103.03125 "/>
<path style=" stroke:none;fill-rule:nonzero;fill:rgb(0%,0%,0%);fill-opacity:1;" d="M 11.269531 98.316406 C 12.023438 98.371094 12.523438 99.0625 12.660156 99.761719 C 12.730469 100.078125 12.746094 100.378906 12.777344 100.695312 L 12.777344 101.507812 C 12.738281 102.332031 12.539062 103.417969 11.644531 103.753906 C 10.867188 104.0625 9.953125 103.578125 9.722656 102.785156 C 9.546875 102.363281 9.53125 101.933594 9.492188 101.507812 L 9.492188 100.695312 C 9.53125 99.871094 9.707031 98.777344 10.597656 98.410156 L 10.636719 98.394531 L 10.667969 98.386719 L 10.707031 98.371094 L 10.824219 98.339844 L 10.898438 98.324219 L 10.984375 98.324219 L 11 98.316406 Z M 11.269531 98.316406 Z M 11.023438 98.800781 C 10.359375 98.878906 10.160156 99.679688 10.113281 100.222656 L 10.113281 100.433594 L 10.097656 100.453125 L 10.097656 101.554688 C 10.144531 102.125 10.183594 102.863281 10.707031 103.246094 C 11.191406 103.578125 11.835938 103.207031 11.96875 102.6875 C 12.113281 102.308594 12.144531 101.933594 12.175781 101.554688 L 12.175781 100.453125 C 12.128906 99.871094 12.046875 99.0625 11.382812 98.832031 L 11.324219 98.816406 L 11.308594 98.800781 L 11.238281 98.800781 L 11.222656 98.785156 L 11.039062 98.785156 Z M 11.023438 98.800781 Z M 11.023438 98.800781 "/>
<path style=" stroke:none;fill-rule:nonzero;fill:rgb(0%,0%,0%);fill-opacity:1;" d="M 5.347656 50.578125 L 5.347656 55.476562 L 5.355469 55.492188 L 6.332031 55.492188 L 6.332031 55.929688 L 3.753906 55.929688 L 3.753906 55.492188 L 4.730469 55.492188 L 4.746094 55.476562 L 4.746094 51.363281 C 4.414062 51.476562 4.0625 51.546875 3.714844 51.539062 L 3.714844 51.09375 C 4.238281 51.101562 4.808594 50.960938 5.207031 50.578125 Z M 5.347656 50.578125 Z M 5.347656 50.578125 "/>
<path style=" stroke:none;fill-rule:nonzero;fill:rgb(0%,0%,0%);fill-opacity:1;" d="M 8.382812 55.292969 L 8.382812 55.929688 L 7.738281 55.929688 L 7.738281 55.292969 Z M 8.382812 55.292969 Z M 8.382812 55.292969 "/>
<path style=" stroke:none;fill-rule:nonzero;fill:rgb(0%,0%,0%);fill-opacity:1;" d="M 12.445312 50.746094 L 12.445312 51.238281 L 10.382812 51.238281 L 10.367188 51.246094 L 10.367188 52.871094 C 10.554688 52.746094 10.824219 52.578125 11.078125 52.570312 C 11.976562 52.476562 12.667969 53.355469 12.707031 54.175781 C 12.835938 55.214844 11.859375 56.246094 10.808594 56.085938 C 10.285156 56.070312 9.777344 55.761719 9.476562 55.332031 C 9.5625 55.214844 9.636719 55.007812 9.738281 54.9375 C 10.113281 55.667969 11.316406 55.960938 11.800781 55.191406 C 12.113281 54.609375 12.105469 53.871094 11.746094 53.316406 C 11.332031 52.785156 10.515625 53.109375 10.324219 53.675781 L 9.808594 53.675781 L 9.808594 50.746094 Z M 12.445312 50.746094 Z M 12.445312 50.746094 "/>
<path style=" stroke:none;fill-rule:nonzero;fill:rgb(0%,0%,0%);fill-opacity:1;" d="M 5.015625 2.839844 C 5.9375 2.863281 6.667969 3.808594 6.523438 4.699219 C 6.429688 5.585938 5.59375 6.09375 5 6.652344 L 4.746094 6.914062 L 4.714844 6.929688 L 4.398438 7.238281 L 4.375 7.253906 L 4.054688 7.570312 L 4.023438 7.585938 L 3.953125 7.660156 L 3.96875 7.667969 L 6.539062 7.667969 L 6.539062 8.191406 L 3.398438 8.191406 L 3.398438 7.714844 L 4.675781 6.4375 C 5.285156 5.90625 6 5.214844 5.890625 4.339844 C 5.824219 3.832031 5.398438 3.363281 4.875 3.324219 C 4.339844 3.246094 3.875 3.667969 3.753906 4.175781 L 3.738281 4.199219 L 3.722656 4.253906 L 3.699219 4.339844 L 3.652344 4.515625 L 3.644531 4.554688 C 3.53125 4.421875 3.414062 4.277344 3.324219 4.128906 C 3.484375 3.476562 4.007812 2.863281 4.699219 2.839844 Z M 5.015625 2.839844 Z M 5.015625 2.839844 "/>
<path style=" stroke:none;fill-rule:nonzero;fill:rgb(0%,0%,0%);fill-opacity:1;" d="M 8.382812 7.554688 L 8.382812 8.191406 L 7.738281 8.191406 L 7.738281 7.554688 Z M 8.382812 7.554688 Z M 8.382812 7.554688 "/>
<path style=" stroke:none;fill-rule:nonzero;fill:rgb(0%,0%,0%);fill-opacity:1;" d="M 11.269531 2.839844 C 12.023438 2.898438 12.523438 3.585938 12.660156 4.285156 C 12.730469 4.601562 12.746094 4.90625 12.777344 5.222656 L 12.777344 6.03125 C 12.738281 6.859375 12.539062 7.945312 11.644531 8.277344 C 10.867188 8.585938 9.953125 8.105469 9.722656 7.308594 C 9.546875 6.890625 9.53125 6.460938 9.492188 6.03125 L 9.492188 5.222656 C 9.53125 4.398438 9.707031 3.300781 10.597656 2.9375 L 10.636719 2.921875 L 10.667969 2.914062 L 10.707031 2.898438 L 10.824219 2.863281 L 10.898438 2.847656 L 10.984375 2.847656 L 11 2.839844 Z M 11.269531 2.839844 Z M 11.023438 3.324219 C 10.359375 3.40625 10.160156 4.207031 10.113281 4.746094 L 10.113281 4.960938 L 10.097656 4.976562 L 10.097656 6.078125 C 10.144531 6.652344 10.183594 7.390625 10.707031 7.769531 C 11.191406 8.105469 11.835938 7.730469 11.96875 7.214844 C 12.113281 6.832031 12.144531 6.460938 12.175781 6.078125 L 12.175781 4.976562 C 12.128906 4.398438 12.046875 3.585938 11.382812 3.355469 L 11.324219 3.339844 L 11.308594 3.324219 L 11.238281 3.324219 L 11.222656 3.308594 L 11.039062 3.308594 Z M 11.023438 3.324219 Z M 11.023438 3.324219 "/>
<path style="fill:none;stroke-width:0.02;stroke-linecap:butt;stroke-linejoin:miter;stroke:rgb(0%,0%,0%);stroke-opacity:1;stroke-miterlimit:10;" d="M 9.751274 1.102092 L 9.646267 1.102092 " transform="matrix(28.346457,0,0,-28.346457,1,227.771654)"/>
<path style="fill:none;stroke-width:0.02;stroke-linecap:butt;stroke-linejoin:miter;stroke:rgb(0%,0%,0%);stroke-opacity:1;stroke-miterlimit:10;" d="M 9.751274 2.786055 L 9.646267 2.786055 " transform="matrix(28.346457,0,0,-28.346457,1,227.771654)"/>
<path style="fill:none;stroke-width:0.02;stroke-linecap:butt;stroke-linejoin:miter;stroke:rgb(0%,0%,0%);stroke-opacity:1;stroke-miterlimit:10;" d="M 9.751274 4.470155 L 9.646267 4.470155 " transform="matrix(28.346457,0,0,-28.346457,1,227.771654)"/>
<path style="fill:none;stroke-width:0.02;stroke-linecap:butt;stroke-linejoin:miter;stroke:rgb(0%,0%,0%);stroke-opacity:1;stroke-miterlimit:10;" d="M 9.751274 6.154256 L 9.646267 6.154256 " transform="matrix(28.346457,0,0,-28.346457,1,227.771654)"/>
<path style="fill:none;stroke-width:0.02;stroke-linecap:round;stroke-linejoin:miter;stroke:rgb(0%,0%,0%);stroke-opacity:1;stroke-miterlimit:10;" d="M 9.751274 0.428369 L 9.751274 7.838356 " transform="matrix(28.346457,0,0,-28.346457,1,227.771654)"/>
<path style="fill:none;stroke-width:0.02;stroke-linecap:butt;stroke-linejoin:miter;stroke:rgb(0%,0%,0%);stroke-opacity:1;stroke-miterlimit:10;" d="M 1.746112 0.428369 L 1.746112 0.533376 " transform="matrix(28.346457,0,0,-28.346457,1,227.771654)"/>
<path style="fill:none;stroke-width:0.02;stroke-linecap:butt;stroke-linejoin:miter;stroke:rgb(0%,0%,0%);stroke-opacity:1;stroke-miterlimit:10;" d="M 2.889746 0.428369 L 2.889746 0.533376 " transform="matrix(28.346457,0,0,-28.346457,1,227.771654)"/>
<path style="fill:none;stroke-width:0.02;stroke-linecap:butt;stroke-linejoin:miter;stroke:rgb(0%,0%,0%);stroke-opacity:1;stroke-miterlimit:10;" d="M 4.033242 0.428369 L 4.033242 0.533376 " transform="matrix(28.346457,0,0,-28.346457,1,227.771654)"/>
<path style="fill:none;stroke-width:0.02;stroke-linecap:butt;stroke-linejoin:miter;stroke:rgb(0%,0%,0%);stroke-opacity:1;stroke-miterlimit:10;" d="M 5.176876 0.428369 L 5.176876 0.533376 " transform="matrix(28.346457,0,0,-28.346457,1,227.771654)"/>
<path style="fill:none;stroke-width:0.02;stroke-linecap:butt;stroke-linejoin:miter;stroke:rgb(0%,0%,0%);stroke-opacity:1;stroke-miterlimit:10;" d="M 6.32051 0.428369 L 6.32051 0.533376 " transform="matrix(28.346457,0,0,-28.346457,1,227.771654)"/>
<path style="fill:none;stroke-width:0.02;stroke-linecap:butt;stroke-linejoin:miter;stroke:rgb(0%,0%,0%);stroke-opacity:1;stroke-miterlimit:10;" d="M 7.464006 0.428369 L 7.464006 0.533376 " transform="matrix(28.346457,0,0,-28.346457,1,227.771654)"/>
<path style="fill:none;stroke-width:0.02;stroke-linecap:butt;stroke-linejoin:miter;stroke:rgb(0%,0%,0%);stroke-opacity:1;stroke-miterlimit:10;" d="M 8.60764 0.428369 L 8.60764 0.533376 " transform="matrix(28.346457,0,0,-28.346457,1,227.771654)"/>
<path style="fill:none;stroke-width:0.02;stroke-linecap:round;stroke-linejoin:miter;stroke:rgb(0%,0%,0%);stroke-opacity:1;stroke-miterlimit:10;" d="M 0.602616 0.428369 L 9.751274 0.428369 " transform="matrix(28.346457,0,0,-28.346457,1,227.771654)"/>
<path style=" stroke:none;fill-rule:nonzero;fill:rgb(0%,0%,0%);fill-opacity:1;" d="M 15.378906 220.445312 L 15.378906 225.34375 L 15.386719 225.359375 L 16.363281 225.359375 L 16.363281 225.796875 L 13.78125 225.796875 L 13.78125 225.359375 L 14.757812 225.359375 L 14.773438 225.34375 L 14.773438 221.230469 C 14.441406 221.34375 14.09375 221.414062 13.742188 221.40625 L 13.742188 220.960938 C 14.265625 220.96875 14.839844 220.828125 15.234375 220.445312 Z M 15.378906 220.445312 Z M 15.378906 220.445312 "/>
<path style=" stroke:none;fill-rule:nonzero;fill:rgb(0%,0%,0%);fill-opacity:1;" d="M 18.410156 225.160156 L 18.410156 225.796875 L 17.765625 225.796875 L 17.765625 225.160156 Z M 18.410156 225.160156 Z M 18.410156 225.160156 "/>
<path style=" stroke:none;fill-rule:nonzero;fill:rgb(0%,0%,0%);fill-opacity:1;" d="M 21.300781 220.445312 C 22.054688 220.5 22.554688 221.191406 22.6875 221.890625 C 22.757812 222.207031 22.773438 222.507812 22.808594 222.828125 L 22.808594 223.636719 C 22.765625 224.460938 22.570312 225.550781 21.671875 225.882812 C 20.894531 226.191406 19.980469 225.707031 19.75 224.914062 C 19.578125 224.492188 19.5625 224.066406 19.519531 223.636719 L 19.519531 222.828125 C 19.5625 222 19.734375 220.90625 20.625 220.542969 L 20.664062 220.523438 L 20.695312 220.515625 L 20.734375 220.5 L 20.855469 220.46875 L 20.925781 220.453125 L 21.011719 220.453125 L 21.027344 220.445312 Z M 21.300781 220.445312 Z M 21.054688 220.929688 C 20.386719 221.007812 20.1875 221.8125 20.140625 222.351562 L 20.140625 222.566406 L 20.125 222.582031 L 20.125 223.683594 C 20.171875 224.253906 20.210938 224.992188 20.734375 225.375 C 21.21875 225.707031 21.863281 225.335938 21.996094 224.820312 C 22.140625 224.4375 22.171875 224.066406 22.203125 223.683594 L 22.203125 222.582031 C 22.15625 222 22.078125 221.191406 21.410156 220.960938 L 21.355469 220.945312 L 21.339844 220.929688 L 21.265625 220.929688 L 21.25 220.914062 L 21.070312 220.914062 Z M 21.054688 220.929688 Z M 21.054688 220.929688 "/>
<path style=" stroke:none;fill-rule:nonzero;fill:rgb(0%,0%,0%);fill-opacity:1;" d="M 47.792969 220.445312 L 47.792969 225.34375 L 47.800781 225.359375 L 48.777344 225.359375 L 48.777344 225.796875 L 46.199219 225.796875 L 46.199219 225.359375 L 47.175781 225.359375 L 47.191406 225.34375 L 47.191406 221.230469 C 46.859375 221.34375 46.507812 221.414062 46.160156 221.40625 L 46.160156 220.960938 C 46.683594 220.96875 47.253906 220.828125 47.652344 220.445312 Z M 47.792969 220.445312 Z M 47.792969 220.445312 "/>
<path style=" stroke:none;fill-rule:nonzero;fill:rgb(0%,0%,0%);fill-opacity:1;" d="M 50.828125 225.160156 L 50.828125 225.796875 L 50.183594 225.796875 L 50.183594 225.160156 Z M 50.828125 225.160156 Z M 50.828125 225.160156 "/>
<path style=" stroke:none;fill-rule:nonzero;fill:rgb(0%,0%,0%);fill-opacity:1;" d="M 54.890625 220.613281 L 54.890625 221.105469 L 52.828125 221.105469 L 52.8125 221.113281 L 52.8125 222.738281 C 53 222.613281 53.269531 222.445312 53.523438 222.4375 C 54.421875 222.34375 55.113281 223.222656 55.152344 224.042969 C 55.277344 225.082031 54.304688 226.113281 53.253906 225.953125 C 52.730469 225.9375 52.222656 225.628906 51.921875 225.199219 C 52.007812 225.082031 52.082031 224.875 52.183594 224.804688 C 52.554688 225.535156 53.761719 225.828125 54.246094 225.058594 C 54.558594 224.476562 54.546875 223.738281 54.191406 223.183594 C 53.777344 222.652344 52.960938 222.976562 52.769531 223.542969 L 52.253906 223.542969 L 52.253906 220.613281 Z M 54.890625 220.613281 Z M 54.890625 220.613281 "/>
<path style=" stroke:none;fill-rule:nonzero;fill:rgb(0%,0%,0%);fill-opacity:1;" d="M 79.878906 220.445312 C 80.796875 220.46875 81.527344 221.414062 81.386719 222.304688 C 81.289062 223.191406 80.457031 223.699219 79.863281 224.253906 L 79.609375 224.515625 L 79.574219 224.535156 L 79.257812 224.84375 L 79.234375 224.859375 L 78.917969 225.175781 L 78.886719 225.191406 L 78.8125 225.261719 L 78.828125 225.273438 L 81.402344 225.273438 L 81.402344 225.796875 L 78.257812 225.796875 L 78.257812 225.320312 L 79.535156 224.042969 C 80.148438 223.507812 80.863281 222.820312 80.75 221.945312 C 80.6875 221.4375 80.257812 220.96875 79.734375 220.929688 C 79.203125 220.851562 78.734375 221.269531 78.617188 221.777344 L 78.601562 221.804688 L 78.582031 221.859375 L 78.558594 221.945312 L 78.511719 222.121094 L 78.503906 222.160156 C 78.394531 222.023438 78.273438 221.882812 78.1875 221.730469 C 78.347656 221.082031 78.871094 220.46875 79.558594 220.445312 Z M 79.878906 220.445312 Z M 79.878906 220.445312 "/>
<path style=" stroke:none;fill-rule:nonzero;fill:rgb(0%,0%,0%);fill-opacity:1;" d="M 83.242188 225.160156 L 83.242188 225.796875 L 82.601562 225.796875 L 82.601562 225.160156 Z M 83.242188 225.160156 Z M 83.242188 225.160156 "/>
<path style=" stroke:none;fill-rule:nonzero;fill:rgb(0%,0%,0%);fill-opacity:1;" d="M 86.132812 220.445312 C 86.886719 220.5 87.386719 221.191406 87.519531 221.890625 C 87.59375 222.207031 87.609375 222.507812 87.640625 222.828125 L 87.640625 223.636719 C 87.601562 224.460938 87.402344 225.550781 86.503906 225.882812 C 85.726562 226.191406 84.8125 225.707031 84.585938 224.914062 C 84.410156 224.492188 84.394531 224.066406 84.355469 223.636719 L 84.355469 222.828125 C 84.394531 222 84.566406 220.90625 85.457031 220.542969 L 85.496094 220.523438 L 85.527344 220.515625 L 85.570312 220.5 L 85.6875 220.46875 L 85.757812 220.453125 L 85.847656 220.453125 L 85.863281 220.445312 Z M 86.132812 220.445312 Z M 85.886719 220.929688 C 85.21875 221.007812 85.019531 221.8125 84.972656 222.351562 L 84.972656 222.566406 L 84.957031 222.582031 L 84.957031 223.683594 C 85.003906 224.253906 85.042969 224.992188 85.570312 225.375 C 86.050781 225.707031 86.695312 225.335938 86.832031 224.820312 C 86.972656 224.4375 87.003906 224.066406 87.035156 223.683594 L 87.035156 222.582031 C 86.988281 222 86.910156 221.191406 86.242188 220.960938 L 86.1875 220.945312 L 86.171875 220.929688 L 86.101562 220.929688 L 86.085938 220.914062 L 85.902344 220.914062 Z M 85.886719 220.929688 Z M 85.886719 220.929688 "/>
<path style=" stroke:none;fill-rule:nonzero;fill:rgb(0%,0%,0%);fill-opacity:1;" d="M 112.292969 220.445312 C 113.214844 220.46875 113.945312 221.414062 113.800781 222.304688 C 113.707031 223.191406 112.875 223.699219 112.277344 224.253906 L 112.023438 224.515625 L 111.992188 224.535156 L 111.675781 224.84375 L 111.652344 224.859375 L 111.332031 225.175781 L 111.300781 225.191406 L 111.230469 225.261719 L 111.246094 225.273438 L 113.816406 225.273438 L 113.816406 225.796875 L 110.675781 225.796875 L 110.675781 225.320312 L 111.953125 224.042969 C 112.5625 223.507812 113.277344 222.820312 113.167969 221.945312 C 113.105469 221.4375 112.675781 220.96875 112.152344 220.929688 C 111.621094 220.851562 111.152344 221.269531 111.03125 221.777344 L 111.015625 221.804688 L 111 221.859375 L 110.976562 221.945312 L 110.929688 222.121094 L 110.921875 222.160156 C 110.808594 222.023438 110.691406 221.882812 110.601562 221.730469 C 110.761719 221.082031 111.285156 220.46875 111.976562 220.445312 Z M 112.292969 220.445312 Z M 112.292969 220.445312 "/>
<path style=" stroke:none;fill-rule:nonzero;fill:rgb(0%,0%,0%);fill-opacity:1;" d="M 115.660156 225.160156 L 115.660156 225.796875 L 115.015625 225.796875 L 115.015625 225.160156 Z M 115.660156 225.160156 Z M 115.660156 225.160156 "/>
<path style=" stroke:none;fill-rule:nonzero;fill:rgb(0%,0%,0%);fill-opacity:1;" d="M 119.722656 220.613281 L 119.722656 221.105469 L 117.660156 221.105469 L 117.644531 221.113281 L 117.644531 222.738281 C 117.835938 222.613281 118.105469 222.445312 118.359375 222.4375 C 119.253906 222.34375 119.945312 223.222656 119.984375 224.042969 C 120.113281 225.082031 119.136719 226.113281 118.089844 225.953125 C 117.5625 225.9375 117.054688 225.628906 116.753906 225.199219 C 116.84375 225.082031 116.914062 224.875 117.015625 224.804688 C 117.390625 225.535156 118.597656 225.828125 119.082031 225.058594 C 119.390625 224.476562 119.382812 223.738281 119.023438 223.183594 C 118.613281 222.652344 117.792969 222.976562 117.605469 223.542969 L 117.089844 223.542969 L 117.089844 220.613281 Z M 119.722656 220.613281 Z M 119.722656 220.613281 "/>
<path style=" stroke:none;fill-rule:nonzero;fill:rgb(0%,0%,0%);fill-opacity:1;" d="M 144.8125 220.445312 C 145.511719 220.476562 146.242188 221.121094 146.074219 221.859375 C 145.996094 222.359375 145.648438 222.769531 145.210938 222.992188 C 145.917969 223.214844 146.464844 223.960938 146.273438 224.699219 C 146.082031 225.660156 144.980469 226.191406 144.089844 225.898438 C 143.664062 225.773438 143.226562 225.5 143.019531 225.105469 C 143.066406 224.984375 143.050781 224.78125 143.105469 224.699219 C 143.527344 225.320312 144.417969 225.738281 145.117188 225.390625 C 145.878906 224.90625 145.757812 223.492188 144.835938 223.253906 L 144.765625 223.253906 L 144.75 223.238281 L 144.011719 223.238281 L 144.011719 222.761719 C 144.464844 222.753906 145.027344 222.699219 145.28125 222.230469 C 145.550781 221.828125 145.527344 221.160156 145.011719 220.960938 C 144.402344 220.722656 143.648438 221.113281 143.417969 221.730469 C 143.320312 221.597656 143.226562 221.460938 143.132812 221.320312 C 143.457031 220.730469 144.148438 220.382812 144.8125 220.445312 Z M 144.8125 220.445312 Z M 144.8125 220.445312 "/>
<path style=" stroke:none;fill-rule:nonzero;fill:rgb(0%,0%,0%);fill-opacity:1;" d="M 148.074219 225.160156 L 148.074219 225.796875 L 147.433594 225.796875 L 147.433594 225.160156 Z M 148.074219 225.160156 Z M 148.074219 225.160156 "/>
<path style=" stroke:none;fill-rule:nonzero;fill:rgb(0%,0%,0%);fill-opacity:1;" d="M 150.964844 220.445312 C 151.71875 220.5 152.21875 221.191406 152.355469 221.890625 C 152.425781 222.207031 152.441406 222.507812 152.472656 222.828125 L 152.472656 223.636719 C 152.433594 224.460938 152.234375 225.550781 151.339844 225.882812 C 150.558594 226.191406 149.648438 225.707031 149.417969 224.914062 C 149.242188 224.492188 149.226562 224.066406 149.1875 223.636719 L 149.1875 222.828125 C 149.226562 222 149.402344 220.90625 150.289062 220.542969 L 150.328125 220.523438 L 150.363281 220.515625 L 150.402344 220.5 L 150.519531 220.46875 L 150.59375 220.453125 L 150.679688 220.453125 L 150.695312 220.445312 Z M 150.964844 220.445312 Z M 150.71875 220.929688 C 150.050781 221.007812 149.855469 221.8125 149.804688 222.351562 L 149.804688 222.566406 L 149.789062 222.582031 L 149.789062 223.683594 C 149.835938 224.253906 149.878906 224.992188 150.402344 225.375 C 150.886719 225.707031 151.527344 225.335938 151.664062 224.820312 C 151.804688 224.4375 151.839844 224.066406 151.871094 223.683594 L 151.871094 222.582031 C 151.820312 222 151.742188 221.191406 151.074219 220.960938 L 151.019531 220.945312 L 151.003906 220.929688 L 150.933594 220.929688 L 150.917969 220.914062 L 150.734375 220.914062 Z M 150.71875 220.929688 Z M 150.71875 220.929688 "/>
<path style=" stroke:none;fill-rule:nonzero;fill:rgb(0%,0%,0%);fill-opacity:1;" d="M 177.230469 220.445312 C 177.929688 220.476562 178.660156 221.121094 178.492188 221.859375 C 178.414062 222.359375 178.0625 222.769531 177.628906 222.992188 C 178.332031 223.214844 178.882812 223.960938 178.691406 224.699219 C 178.5 225.660156 177.398438 226.191406 176.507812 225.898438 C 176.078125 225.773438 175.644531 225.5 175.4375 225.105469 C 175.484375 224.984375 175.46875 224.78125 175.523438 224.699219 C 175.945312 225.320312 176.832031 225.738281 177.53125 225.390625 C 178.292969 224.90625 178.175781 223.492188 177.253906 223.253906 L 177.183594 223.253906 L 177.167969 223.238281 L 176.429688 223.238281 L 176.429688 222.761719 C 176.882812 222.753906 177.445312 222.699219 177.699219 222.230469 C 177.96875 221.828125 177.945312 221.160156 177.429688 220.960938 C 176.816406 220.722656 176.0625 221.113281 175.832031 221.730469 C 175.738281 221.597656 175.644531 221.460938 175.546875 221.320312 C 175.875 220.730469 176.5625 220.382812 177.230469 220.445312 Z M 177.230469 220.445312 Z M 177.230469 220.445312 "/>
<path style=" stroke:none;fill-rule:nonzero;fill:rgb(0%,0%,0%);fill-opacity:1;" d="M 180.492188 225.160156 L 180.492188 225.796875 L 179.847656 225.796875 L 179.847656 225.160156 Z M 180.492188 225.160156 Z M 180.492188 225.160156 "/>
<path style=" stroke:none;fill-rule:nonzero;fill:rgb(0%,0%,0%);fill-opacity:1;" d="M 184.554688 220.613281 L 184.554688 221.105469 L 182.492188 221.105469 L 182.476562 221.113281 L 182.476562 222.738281 C 182.667969 222.613281 182.9375 222.445312 183.191406 222.4375 C 184.085938 222.34375 184.777344 223.222656 184.816406 224.042969 C 184.945312 225.082031 183.96875 226.113281 182.921875 225.953125 C 182.398438 225.9375 181.890625 225.628906 181.585938 225.199219 C 181.675781 225.082031 181.746094 224.875 181.851562 224.804688 C 182.222656 225.535156 183.429688 225.828125 183.914062 225.058594 C 184.222656 224.476562 184.214844 223.738281 183.859375 223.183594 C 183.445312 222.652344 182.628906 222.976562 182.4375 223.542969 L 181.921875 223.542969 L 181.921875 220.613281 Z M 184.554688 220.613281 Z M 184.554688 220.613281 "/>
<path style=" stroke:none;fill-rule:nonzero;fill:rgb(0%,0%,0%);fill-opacity:1;" d="M 210.449219 220.613281 L 210.449219 223.953125 L 210.464844 223.96875 L 211.25 223.96875 L 211.25 224.445312 L 210.464844 224.445312 L 210.449219 224.453125 L 210.449219 225.796875 L 209.84375 225.796875 L 209.84375 224.453125 L 209.828125 224.445312 L 207.734375 224.445312 L 207.734375 223.953125 C 208.402344 222.84375 209.066406 221.722656 209.734375 220.613281 Z M 210.449219 220.613281 Z M 209.859375 220.914062 C 209.703125 221.738281 209.195312 222.445312 208.8125 223.167969 C 208.664062 223.429688 208.464844 223.714844 208.351562 223.96875 L 209.878906 223.96875 L 209.886719 223.953125 L 209.886719 220.914062 L 209.878906 220.898438 Z M 209.859375 220.914062 Z M 209.859375 220.914062 "/>
<path style=" stroke:none;fill-rule:nonzero;fill:rgb(0%,0%,0%);fill-opacity:1;" d="M 212.910156 225.160156 L 212.910156 225.796875 L 212.265625 225.796875 L 212.265625 225.160156 Z M 212.910156 225.160156 Z M 212.910156 225.160156 "/>
<path style=" stroke:none;fill-rule:nonzero;fill:rgb(0%,0%,0%);fill-opacity:1;" d="M 215.796875 220.445312 C 216.550781 220.5 217.050781 221.191406 217.1875 221.890625 C 217.257812 222.207031 217.273438 222.507812 217.304688 222.828125 L 217.304688 223.636719 C 217.265625 224.460938 217.066406 225.550781 216.171875 225.882812 C 215.394531 226.191406 214.480469 225.707031 214.25 224.914062 C 214.074219 224.492188 214.058594 224.066406 214.019531 223.636719 L 214.019531 222.828125 C 214.058594 222 214.234375 220.90625 215.125 220.542969 L 215.164062 220.523438 L 215.195312 220.515625 L 215.234375 220.5 L 215.351562 220.46875 L 215.425781 220.453125 L 215.511719 220.453125 L 215.527344 220.445312 Z M 215.796875 220.445312 Z M 215.550781 220.929688 C 214.886719 221.007812 214.6875 221.8125 214.640625 222.351562 L 214.640625 222.566406 L 214.625 222.582031 L 214.625 223.683594 C 214.671875 224.253906 214.710938 224.992188 215.234375 225.375 C 215.71875 225.707031 216.363281 225.335938 216.496094 224.820312 C 216.640625 224.4375 216.671875 224.066406 216.703125 223.683594 L 216.703125 222.582031 C 216.65625 222 216.574219 221.191406 215.910156 220.960938 L 215.855469 220.945312 L 215.835938 220.929688 L 215.765625 220.929688 L 215.75 220.914062 L 215.566406 220.914062 Z M 215.550781 220.929688 Z M 215.550781 220.929688 "/>
<path style=" stroke:none;fill-rule:nonzero;fill:rgb(0%,0%,0%);fill-opacity:1;" d="M 242.863281 220.613281 L 242.863281 223.953125 L 242.878906 223.96875 L 243.667969 223.96875 L 243.667969 224.445312 L 242.878906 224.445312 L 242.863281 224.453125 L 242.863281 225.796875 L 242.261719 225.796875 L 242.261719 224.453125 L 242.246094 224.445312 L 240.152344 224.445312 L 240.152344 223.953125 C 240.816406 222.84375 241.484375 221.722656 242.152344 220.613281 Z M 242.863281 220.613281 Z M 242.277344 220.914062 C 242.117188 221.738281 241.609375 222.445312 241.230469 223.167969 C 241.078125 223.429688 240.878906 223.714844 240.769531 223.96875 L 242.292969 223.96875 L 242.300781 223.953125 L 242.300781 220.914062 L 242.292969 220.898438 Z M 242.277344 220.914062 Z M 242.277344 220.914062 "/>
<path style=" stroke:none;fill-rule:nonzero;fill:rgb(0%,0%,0%);fill-opacity:1;" d="M 245.324219 225.160156 L 245.324219 225.796875 L 244.683594 225.796875 L 244.683594 225.160156 Z M 245.324219 225.160156 Z M 245.324219 225.160156 "/>
<path style=" stroke:none;fill-rule:nonzero;fill:rgb(0%,0%,0%);fill-opacity:1;" d="M 249.390625 220.613281 L 249.390625 221.105469 L 247.324219 221.105469 L 247.308594 221.113281 L 247.308594 222.738281 C 247.5 222.613281 247.769531 222.445312 248.023438 222.4375 C 248.921875 222.34375 249.613281 223.222656 249.652344 224.042969 C 249.777344 225.082031 248.800781 226.113281 247.753906 225.953125 C 247.230469 225.9375 246.722656 225.628906 246.421875 225.199219 C 246.507812 225.082031 246.578125 224.875 246.683594 224.804688 C 247.054688 225.535156 248.261719 225.828125 248.746094 225.058594 C 249.054688 224.476562 249.046875 223.738281 248.691406 223.183594 C 248.277344 222.652344 247.460938 222.976562 247.269531 223.542969 L 246.753906 223.542969 L 246.753906 220.613281 Z M 249.390625 220.613281 Z M 249.390625 220.613281 "/>
<path style=" stroke:none;fill-rule:nonzero;fill:rgb(0%,0%,0%);fill-opacity:1;" d="M 275.636719 220.613281 L 275.636719 221.105469 L 273.574219 221.105469 L 273.558594 221.113281 L 273.558594 222.738281 C 273.75 222.613281 274.019531 222.445312 274.273438 222.4375 C 275.171875 222.34375 275.859375 223.222656 275.902344 224.042969 C 276.027344 225.082031 275.050781 226.113281 274.003906 225.953125 C 273.480469 225.9375 272.972656 225.628906 272.671875 225.199219 C 272.757812 225.082031 272.828125 224.875 272.933594 224.804688 C 273.304688 225.535156 274.511719 225.828125 274.996094 225.058594 C 275.304688 224.476562 275.296875 223.738281 274.941406 223.183594 C 274.527344 222.652344 273.710938 222.976562 273.519531 223.542969 L 273.003906 223.542969 L 273.003906 220.613281 Z M 275.636719 220.613281 Z M 275.636719 220.613281 "/>
<path style=" stroke:none;fill-rule:nonzero;fill:rgb(0%,0%,0%);fill-opacity:1;" d="M 277.742188 225.160156 L 277.742188 225.796875 L 277.097656 225.796875 L 277.097656 225.160156 Z M 277.742188 225.160156 Z M 277.742188 225.160156 "/>
<path style=" stroke:none;fill-rule:nonzero;fill:rgb(0%,0%,0%);fill-opacity:1;" d="M 280.632812 220.445312 C 281.386719 220.5 281.886719 221.191406 282.019531 221.890625 C 282.089844 222.207031 282.105469 222.507812 282.140625 222.828125 L 282.140625 223.636719 C 282.097656 224.460938 281.902344 225.550781 281.003906 225.882812 C 280.226562 226.191406 279.3125 225.707031 279.082031 224.914062 C 278.910156 224.492188 278.894531 224.066406 278.851562 223.636719 L 278.851562 222.828125 C 278.894531 222 279.066406 220.90625 279.957031 220.542969 L 279.996094 220.523438 L 280.027344 220.515625 L 280.066406 220.5 L 280.1875 220.46875 L 280.257812 220.453125 L 280.34375 220.453125 L 280.359375 220.445312 Z M 280.632812 220.445312 Z M 280.386719 220.929688 C 279.71875 221.007812 279.519531 221.8125 279.472656 222.351562 L 279.472656 222.566406 L 279.457031 222.582031 L 279.457031 223.683594 C 279.503906 224.253906 279.542969 224.992188 280.066406 225.375 C 280.550781 225.707031 281.195312 225.335938 281.328125 224.820312 C 281.472656 224.4375 281.503906 224.066406 281.535156 223.683594 L 281.535156 222.582031 C 281.488281 222 281.410156 221.191406 280.742188 220.960938 L 280.6875 220.945312 L 280.671875 220.929688 L 280.597656 220.929688 L 280.582031 220.914062 L 280.402344 220.914062 Z M 280.386719 220.929688 Z M 280.386719 220.929688 "/>
<path style="fill:none;stroke-width:0.02;stroke-linecap:butt;stroke-linejoin:miter;stroke:rgb(0%,0%,0%);stroke-opacity:1;stroke-miterlimit:10;" d="M 1.746112 7.838356 L 1.746112 7.73335 " transform="matrix(28.346457,0,0,-28.346457,1,227.771654)"/>
<path style="fill:none;stroke-width:0.02;stroke-linecap:butt;stroke-linejoin:miter;stroke:rgb(0%,0%,0%);stroke-opacity:1;stroke-miterlimit:10;" d="M 2.889746 7.838356 L 2.889746 7.73335 " transform="matrix(28.346457,0,0,-28.346457,1,227.771654)"/>
<path style="fill:none;stroke-width:0.02;stroke-linecap:butt;stroke-linejoin:miter;stroke:rgb(0%,0%,0%);stroke-opacity:1;stroke-miterlimit:10;" d="M 4.033242 7.838356 L 4.033242 7.73335 " transform="matrix(28.346457,0,0,-28.346457,1,227.771654)"/>
<path style="fill:none;stroke-width:0.02;stroke-linecap:butt;stroke-linejoin:miter;stroke:rgb(0%,0%,0%);stroke-opacity:1;stroke-miterlimit:10;" d="M 5.176876 7.838356 L 5.176876 7.73335 " transform="matrix(28.346457,0,0,-28.346457,1,227.771654)"/>
<path style="fill:none;stroke-width:0.02;stroke-linecap:butt;stroke-linejoin:miter;stroke:rgb(0%,0%,0%);stroke-opacity:1;stroke-miterlimit:10;" d="M 6.32051 7.838356 L 6.32051 7.73335 " transform="matrix(28.346457,0,0,-28.346457,1,227.771654)"/>
<path style="fill:none;stroke-width:0.02;stroke-linecap:butt;stroke-linejoin:miter;stroke:rgb(0%,0%,0%);stroke-opacity:1;stroke-miterlimit:10;" d="M 7.464006 7.838356 L 7.464006 7.73335 " transform="matrix(28.346457,0,0,-28.346457,1,227.771654)"/>
<path style="fill:none;stroke-width:0.02;stroke-linecap:butt;stroke-linejoin:miter;stroke:rgb(0%,0%,0%);stroke-opacity:1;stroke-miterlimit:10;" d="M 8.60764 7.838356 L 8.60764 7.73335 " transform="matrix(28.346457,0,0,-28.346457,1,227.771654)"/>
<path style="fill:none;stroke-width:0.02;stroke-linecap:round;stroke-linejoin:miter;stroke:rgb(0%,0%,0%);stroke-opacity:1;stroke-miterlimit:10;" d="M 0.602616 7.838356 L 9.751274 7.838356 " transform="matrix(28.346457,0,0,-28.346457,1,227.771654)"/>
<path style="fill:none;stroke-width:0.02;stroke-linecap:butt;stroke-linejoin:miter;stroke:rgb(32.941176%,47.058824%,63.921569%);stroke-opacity:1;stroke-miterlimit:10;" d="M 0.602616 7.4842 L 2.889746 1.58413 L 5.176876 0.757307 L 7.464006 4.447693 L 9.751274 2.908838 " transform="matrix(28.346457,0,0,-28.346457,1,227.771654)"/>
</g>
</svg>
