<?xml version="1.0" encoding="UTF-8"?>
<svg xmlns="http://www.w3.org/2000/svg" xmlns:xlink="http://www.w3.org/1999/xlink" width="285.464567pt" height="228.771654pt" viewBox="0 0 285.464567 228.771654" version="1.1">
<g id="surface1">
<path style="fill:none;stroke-width:0.02;stroke-linecap:butt;stroke-linejoin:miter;stroke:rgb(0%,0%,0%);stroke-opacity:1;stroke-miterlimit:10;" d="M 0.695771 1.16934 L 0.800778 1.16934 " transform="matrix(28.346457,0,0,-28.346457,1,227.771654)"/>
<path style="fill:none;stroke-width:0.02;stroke-linecap:butt;stroke-linejoin:miter;stroke:rgb(0%,0%,0%);stroke-opacity:1;stroke-miterlimit:10;" d="M 0.695771 1.910311 L 0.800778 1.910311 " transform="matrix(28.346457,0,0,-28.346457,1,227.771654)"/>
<path style="fill:none;stroke-width:0.02;stroke-linecap:butt;stroke-linejoin:miter;stroke:rgb(0%,0%,0%);stroke-opacity:1;stroke-miterlimit:10;" d="M 0.695771 2.65142 L 0.800778 2.65142 " transform="matrix(28.346457,0,0,-28.346457,1,227.771654)"/>
<path style="fill:none;stroke-width:0.02;stroke-linecap:butt;stroke-linejoin:miter;stroke:rgb(0%,0%,0%);stroke-opacity:1;stroke-miterlimit:10;" d="M 0.695771 3.392391 L 0.800778 3.392391 " transform="matrix(28.346457,0,0,-28.346457,1,227.771654)"/>
<path style="fill:none;stroke-width:0.02;stroke-linecap:butt;stroke-linejoin:miter;stroke:rgb(0%,0%,0%);stroke-opacity:1;stroke-miterlimit:10;" d="M 0.695771 4.133363 L 0.800778 4.133363 " transform="matrix(28.346457,0,0,-28.346457,1,227.771654)"/>
<path style="fill:none;stroke-width:0.02;stroke-linecap:butt;stroke-linejoin:miter;stroke:rgb(0%,0%,0%);stroke-opacity:1;stroke-miterlimit:10;" d="M 0.695771 4.874334 L 0.800778 4.874334 " transform="matrix(28.346457,0,0,-28.346457,1,227.771654)"/>
<path style="fill:none;stroke-width:0.02;stroke-linecap:butt;stroke-linejoin:miter;stroke:rgb(0%,0%,0%);stroke-opacity:1;stroke-miterlimit:10;" d="M 0.695771 5.615305 L 0.800778 5.615305 " transform="matrix(28.346457,0,0,-28.346457,1,227.771654)"/>
<path style="fill:none;stroke-width:0.02;stroke-linecap:butt;stroke-linejoin:miter;stroke:rgb(0%,0%,0%);stroke-opacity:1;stroke-miterlimit:10;" d="M 0.695771 6.356276 L 0.800778 6.356276 " transform="matrix(28.346457,0,0,-28.346457,1,227.771654)"/>
<path style="fill:none;stroke-width:0.02;stroke-linecap:butt;stroke-linejoin:miter;stroke:rgb(0%,0%,0%);stroke-opacity:1;stroke-miterlimit:10;" d="M 0.695771 7.097247 L 0.800778 7.097247 " transform="matrix(28.346457,0,0,-28.346457,1,227.771654)"/>
<path style="fill:none;stroke-width:0.02;stroke-linecap:round;stroke-linejoin:miter;stroke:rgb(0%,0%,0%);stroke-opacity:1;stroke-miterlimit:10;" d="M 0.695771 0.428369 L 0.695771 7.838356 " transform="matrix(28.346457,0,0,-28.346457,1,227.771654)"/>
<path style=" stroke:none;fill-rule:nonzero;fill:rgb(0%,0%,0%);fill-opacity:1;" d="M 5.160156 216.265625 L 5.160156 216.710938 L 3.078125 216.710938 L 3.078125 216.265625 Z M 5.160156 216.265625 Z M 5.160156 216.265625 "/>
<path style=" stroke:none;fill-rule:nonzero;fill:rgb(0%,0%,0%);fill-opacity:1;" d="M 7.761719 212.886719 C 8.460938 212.917969 9.191406 213.558594 9.023438 214.296875 C 8.945312 214.796875 8.597656 215.210938 8.160156 215.433594 C 8.867188 215.65625 9.414062 216.402344 9.222656 217.140625 C 9.03125 218.101562 7.929688 218.632812 7.039062 218.339844 C 6.613281 218.210938 6.175781 217.941406 5.96875 217.542969 C 6.015625 217.425781 6 217.21875 6.054688 217.140625 C 6.476562 217.757812 7.367188 218.179688 8.0625 217.832031 C 8.824219 217.347656 8.707031 215.933594 7.785156 215.695312 L 7.714844 215.695312 L 7.699219 215.679688 L 6.960938 215.679688 L 6.960938 215.203125 C 7.414062 215.195312 7.976562 215.140625 8.230469 214.671875 C 8.5 214.265625 8.476562 213.601562 7.960938 213.402344 C 7.347656 213.164062 6.59375 213.550781 6.367188 214.171875 C 6.269531 214.035156 6.175781 213.902344 6.078125 213.757812 C 6.40625 213.171875 7.09375 212.824219 7.761719 212.886719 Z M 7.761719 212.886719 Z M 7.761719 212.886719 "/>
<path style=" stroke:none;fill-rule:nonzero;fill:rgb(0%,0%,0%);fill-opacity:1;" d="M 11.023438 217.601562 L 11.023438 218.234375 L 10.382812 218.234375 L 10.382812 217.601562 Z M 11.023438 217.601562 Z M 11.023438 217.601562 "/>
<path style=" stroke:none;fill-rule:nonzero;fill:rgb(0%,0%,0%);fill-opacity:1;" d="M 13.914062 212.886719 C 14.667969 212.941406 15.167969 213.632812 15.300781 214.332031 C 15.375 214.648438 15.390625 214.949219 15.421875 215.265625 L 15.421875 216.078125 C 15.382812 216.902344 15.183594 217.988281 14.285156 218.324219 C 13.507812 218.632812 12.597656 218.148438 12.367188 217.355469 C 12.191406 216.933594 12.175781 216.503906 12.136719 216.078125 L 12.136719 215.265625 C 12.175781 214.441406 12.351562 213.347656 13.238281 212.980469 L 13.277344 212.964844 L 13.308594 212.957031 L 13.351562 212.941406 L 13.46875 212.910156 L 13.539062 212.894531 L 13.628906 212.894531 L 13.644531 212.886719 Z M 13.914062 212.886719 Z M 13.667969 213.371094 C 13 213.449219 12.800781 214.25 12.753906 214.789062 L 12.753906 215.003906 L 12.738281 215.019531 L 12.738281 216.125 C 12.785156 216.695312 12.824219 217.433594 13.351562 217.816406 C 13.835938 218.148438 14.476562 217.773438 14.613281 217.257812 C 14.753906 216.878906 14.785156 216.503906 14.816406 216.125 L 14.816406 215.019531 C 14.769531 214.441406 14.691406 213.632812 14.023438 213.402344 L 13.96875 213.386719 L 13.953125 213.371094 L 13.882812 213.371094 L 13.867188 213.355469 L 13.683594 213.355469 Z M 13.667969 213.371094 Z M 13.667969 213.371094 "/>
<path style=" stroke:none;fill-rule:nonzero;fill:rgb(0%,0%,0%);fill-opacity:1;" d="M 5.160156 195.261719 L 5.160156 195.707031 L 3.078125 195.707031 L 3.078125 195.261719 Z M 5.160156 195.261719 Z M 5.160156 195.261719 "/>
<path style=" stroke:none;fill-rule:nonzero;fill:rgb(0%,0%,0%);fill-opacity:1;" d="M 7.660156 191.882812 C 8.578125 191.90625 9.308594 192.851562 9.167969 193.738281 C 9.070312 194.628906 8.238281 195.136719 7.644531 195.691406 L 7.390625 195.953125 L 7.359375 195.96875 L 7.039062 196.277344 L 7.015625 196.292969 L 6.699219 196.613281 L 6.667969 196.628906 L 6.59375 196.699219 L 6.613281 196.707031 L 9.183594 196.707031 L 9.183594 197.230469 L 6.039062 197.230469 L 6.039062 196.753906 L 7.316406 195.476562 C 7.929688 194.945312 8.644531 194.253906 8.53125 193.382812 C 8.46875 192.875 8.039062 192.40625 7.515625 192.367188 C 6.984375 192.285156 6.515625 192.707031 6.398438 193.214844 L 6.382812 193.238281 L 6.367188 193.292969 L 6.339844 193.382812 L 6.292969 193.554688 L 6.285156 193.597656 C 6.175781 193.460938 6.054688 193.316406 5.96875 193.167969 C 6.128906 192.515625 6.652344 191.90625 7.339844 191.882812 Z M 7.660156 191.882812 Z M 7.660156 191.882812 "/>
<path style=" stroke:none;fill-rule:nonzero;fill:rgb(0%,0%,0%);fill-opacity:1;" d="M 11.023438 196.597656 L 11.023438 197.230469 L 10.382812 197.230469 L 10.382812 196.597656 Z M 11.023438 196.597656 Z M 11.023438 196.597656 "/>
<path style=" stroke:none;fill-rule:nonzero;fill:rgb(0%,0%,0%);fill-opacity:1;" d="M 15.089844 192.046875 L 15.089844 192.539062 L 13.023438 192.539062 L 13.007812 192.546875 L 13.007812 194.175781 C 13.199219 194.046875 13.46875 193.882812 13.722656 193.875 C 14.621094 193.777344 15.308594 194.660156 15.351562 195.476562 C 15.476562 196.515625 14.5 197.546875 13.453125 197.390625 C 12.929688 197.375 12.421875 197.0625 12.121094 196.636719 C 12.207031 196.515625 12.277344 196.308594 12.382812 196.238281 C 12.753906 196.96875 13.960938 197.261719 14.445312 196.492188 C 14.753906 195.914062 14.746094 195.175781 14.390625 194.621094 C 13.976562 194.085938 13.160156 194.414062 12.96875 194.976562 L 12.453125 194.976562 L 12.453125 192.046875 Z M 15.089844 192.046875 Z M 15.089844 192.046875 "/>
<path style=" stroke:none;fill-rule:nonzero;fill:rgb(0%,0%,0%);fill-opacity:1;" d="M 5.160156 174.257812 L 5.160156 174.703125 L 3.078125 174.703125 L 3.078125 174.257812 Z M 5.160156 174.257812 Z M 5.160156 174.257812 "/>
<path style=" stroke:none;fill-rule:nonzero;fill:rgb(0%,0%,0%);fill-opacity:1;" d="M 7.660156 170.875 C 8.578125 170.902344 9.308594 171.84375 9.167969 172.734375 C 9.070312 173.625 8.238281 174.132812 7.644531 174.6875 L 7.390625 174.949219 L 7.359375 174.964844 L 7.039062 175.273438 L 7.015625 175.289062 L 6.699219 175.605469 L 6.667969 175.625 L 6.59375 175.695312 L 6.613281 175.703125 L 9.183594 175.703125 L 9.183594 176.226562 L 6.039062 176.226562 L 6.039062 175.75 L 7.316406 174.472656 C 7.929688 173.941406 8.644531 173.25 8.53125 172.378906 C 8.46875 171.867188 8.039062 171.402344 7.515625 171.359375 C 6.984375 171.28125 6.515625 171.703125 6.398438 172.210938 L 6.382812 172.234375 L 6.367188 172.289062 L 6.339844 172.378906 L 6.292969 172.550781 L 6.285156 172.589844 C 6.175781 172.457031 6.054688 172.3125 5.96875 172.164062 C 6.128906 171.511719 6.652344 170.902344 7.339844 170.875 Z M 7.660156 170.875 Z M 7.660156 170.875 "/>
<path style=" stroke:none;fill-rule:nonzero;fill:rgb(0%,0%,0%);fill-opacity:1;" d="M 11.023438 175.589844 L 11.023438 176.226562 L 10.382812 176.226562 L 10.382812 175.589844 Z M 11.023438 175.589844 Z M 11.023438 175.589844 "/>
<path style=" stroke:none;fill-rule:nonzero;fill:rgb(0%,0%,0%);fill-opacity:1;" d="M 13.914062 170.875 C 14.667969 170.933594 15.167969 171.621094 15.300781 172.320312 C 15.375 172.640625 15.390625 172.941406 15.421875 173.257812 L 15.421875 174.066406 C 15.382812 174.894531 15.183594 175.980469 14.285156 176.3125 C 13.507812 176.625 12.597656 176.140625 12.367188 175.34375 C 12.191406 174.925781 12.175781 174.496094 12.136719 174.066406 L 12.136719 173.257812 C 12.175781 172.433594 12.351562 171.335938 13.238281 170.972656 L 13.277344 170.957031 L 13.308594 170.949219 L 13.351562 170.933594 L 13.46875 170.902344 L 13.539062 170.886719 L 13.628906 170.886719 L 13.644531 170.875 Z M 13.914062 170.875 Z M 13.667969 171.359375 C 13 171.441406 12.800781 172.242188 12.753906 172.78125 L 12.753906 172.996094 L 12.738281 173.011719 L 12.738281 174.113281 C 12.785156 174.6875 12.824219 175.425781 13.351562 175.804688 C 13.835938 176.140625 14.476562 175.765625 14.613281 175.25 C 14.753906 174.871094 14.785156 174.496094 14.816406 174.113281 L 14.816406 173.011719 C 14.769531 172.433594 14.691406 171.621094 14.023438 171.394531 L 13.96875 171.375 L 13.953125 171.359375 L 13.882812 171.359375 L 13.867188 171.34375 L 13.683594 171.34375 Z M 13.667969 171.359375 Z M 13.667969 171.359375 "/>
<path style=" stroke:none;fill-rule:nonzero;fill:rgb(0%,0%,0%);fill-opacity:1;" d="M 5.160156 153.253906 L 5.160156 153.699219 L 3.078125 153.699219 L 3.078125 153.253906 Z M 5.160156 153.253906 Z M 5.160156 153.253906 "/>
<path style=" stroke:none;fill-rule:nonzero;fill:rgb(0%,0%,0%);fill-opacity:1;" d="M 7.992188 149.871094 L 7.992188 154.769531 L 8 154.785156 L 8.976562 154.785156 L 8.976562 155.222656 L 6.398438 155.222656 L 6.398438 154.785156 L 7.375 154.785156 L 7.390625 154.769531 L 7.390625 150.660156 C 7.054688 150.769531 6.707031 150.839844 6.359375 150.832031 L 6.359375 150.386719 C 6.882812 150.394531 7.453125 150.253906 7.851562 149.871094 Z M 7.992188 149.871094 Z M 7.992188 149.871094 "/>
<path style=" stroke:none;fill-rule:nonzero;fill:rgb(0%,0%,0%);fill-opacity:1;" d="M 11.023438 154.585938 L 11.023438 155.222656 L 10.382812 155.222656 L 10.382812 154.585938 Z M 11.023438 154.585938 Z M 11.023438 154.585938 "/>
<path style=" stroke:none;fill-rule:nonzero;fill:rgb(0%,0%,0%);fill-opacity:1;" d="M 15.089844 150.039062 L 15.089844 150.53125 L 13.023438 150.53125 L 13.007812 150.539062 L 13.007812 152.167969 C 13.199219 152.039062 13.46875 151.871094 13.722656 151.863281 C 14.621094 151.769531 15.308594 152.652344 15.351562 153.46875 C 15.476562 154.507812 14.5 155.539062 13.453125 155.378906 C 12.929688 155.363281 12.421875 155.054688 12.121094 154.625 C 12.207031 154.507812 12.277344 154.300781 12.382812 154.230469 C 12.753906 154.960938 13.960938 155.253906 14.445312 154.484375 C 14.753906 153.90625 14.746094 153.167969 14.390625 152.609375 C 13.976562 152.078125 13.160156 152.40625 12.96875 152.96875 L 12.453125 152.96875 L 12.453125 150.039062 Z M 15.089844 150.039062 Z M 15.089844 150.039062 "/>
<path style=" stroke:none;fill-rule:nonzero;fill:rgb(0%,0%,0%);fill-opacity:1;" d="M 5.160156 132.25 L 5.160156 132.695312 L 3.078125 132.695312 L 3.078125 132.25 Z M 5.160156 132.25 Z M 5.160156 132.25 "/>
<path style=" stroke:none;fill-rule:nonzero;fill:rgb(0%,0%,0%);fill-opacity:1;" d="M 7.992188 128.867188 L 7.992188 133.765625 L 8 133.78125 L 8.976562 133.78125 L 8.976562 134.21875 L 6.398438 134.21875 L 6.398438 133.78125 L 7.375 133.78125 L 7.390625 133.765625 L 7.390625 129.652344 C 7.054688 129.765625 6.707031 129.835938 6.359375 129.828125 L 6.359375 129.382812 C 6.882812 129.390625 7.453125 129.25 7.851562 128.867188 Z M 7.992188 128.867188 Z M 7.992188 128.867188 "/>
<path style=" stroke:none;fill-rule:nonzero;fill:rgb(0%,0%,0%);fill-opacity:1;" d="M 11.023438 133.582031 L 11.023438 134.21875 L 10.382812 134.21875 L 10.382812 133.582031 Z M 11.023438 133.582031 Z M 11.023438 133.582031 "/>
<path style=" stroke:none;fill-rule:nonzero;fill:rgb(0%,0%,0%);fill-opacity:1;" d="M 13.914062 128.867188 C 14.667969 128.921875 15.167969 129.613281 15.300781 130.3125 C 15.375 130.628906 15.390625 130.933594 15.421875 131.25 L 15.421875 132.058594 C 15.382812 132.882812 15.183594 133.972656 14.285156 134.304688 C 13.507812 134.613281 12.597656 134.128906 12.367188 133.335938 C 12.191406 132.914062 12.175781 132.488281 12.136719 132.058594 L 12.136719 131.25 C 12.175781 130.421875 12.351562 129.328125 13.238281 128.964844 L 13.277344 128.949219 L 13.308594 128.941406 L 13.351562 128.921875 L 13.46875 128.890625 L 13.539062 128.875 L 13.628906 128.875 L 13.644531 128.867188 Z M 13.914062 128.867188 Z M 13.667969 129.351562 C 13 129.429688 12.800781 130.234375 12.753906 130.773438 L 12.753906 130.988281 L 12.738281 131.003906 L 12.738281 132.105469 C 12.785156 132.679688 12.824219 133.414062 13.351562 133.796875 C 13.835938 134.128906 14.476562 133.757812 14.613281 133.242188 C 14.753906 132.859375 14.785156 132.488281 14.816406 132.105469 L 14.816406 131.003906 C 14.769531 130.421875 14.691406 129.613281 14.023438 129.382812 L 13.96875 129.367188 L 13.953125 129.351562 L 13.882812 129.351562 L 13.867188 129.335938 L 13.683594 129.335938 Z M 13.667969 129.351562 Z M 13.667969 129.351562 "/>
<path style=" stroke:none;fill-rule:nonzero;fill:rgb(0%,0%,0%);fill-opacity:1;" d="M 5.160156 111.246094 L 5.160156 111.6875 L 3.078125 111.6875 L 3.078125 111.246094 Z M 5.160156 111.246094 Z M 5.160156 111.246094 "/>
<path style=" stroke:none;fill-rule:nonzero;fill:rgb(0%,0%,0%);fill-opacity:1;" d="M 7.746094 107.863281 C 8.5 107.917969 9 108.609375 9.136719 109.308594 C 9.207031 109.625 9.222656 109.925781 9.253906 110.246094 L 9.253906 111.054688 C 9.214844 111.878906 9.015625 112.96875 8.121094 113.300781 C 7.339844 113.609375 6.429688 113.125 6.199219 112.332031 C 6.023438 111.910156 6.007812 111.484375 5.96875 111.054688 L 5.96875 110.246094 C 6.007812 109.417969 6.183594 108.324219 7.070312 107.957031 L 7.113281 107.941406 L 7.144531 107.933594 L 7.183594 107.917969 L 7.300781 107.886719 L 7.375 107.871094 L 7.460938 107.871094 L 7.476562 107.863281 Z M 7.746094 107.863281 Z M 7.5 108.347656 C 6.832031 108.425781 6.636719 109.230469 6.585938 109.769531 L 6.585938 109.984375 L 6.570312 110 L 6.570312 111.101562 C 6.621094 111.671875 6.660156 112.410156 7.183594 112.792969 C 7.667969 113.125 8.308594 112.753906 8.445312 112.238281 C 8.585938 111.855469 8.621094 111.484375 8.652344 111.101562 L 8.652344 110 C 8.605469 109.417969 8.523438 108.609375 7.859375 108.378906 L 7.800781 108.363281 L 7.785156 108.347656 L 7.714844 108.347656 L 7.699219 108.332031 L 7.515625 108.332031 Z M 7.5 108.347656 Z M 7.5 108.347656 "/>
<path style=" stroke:none;fill-rule:nonzero;fill:rgb(0%,0%,0%);fill-opacity:1;" d="M 11.023438 112.578125 L 11.023438 113.214844 L 10.382812 113.214844 L 10.382812 112.578125 Z M 11.023438 112.578125 Z M 11.023438 112.578125 "/>
<path style=" stroke:none;fill-rule:nonzero;fill:rgb(0%,0%,0%);fill-opacity:1;" d="M 15.089844 108.03125 L 15.089844 108.523438 L 13.023438 108.523438 L 13.007812 108.53125 L 13.007812 110.15625 C 13.199219 110.03125 13.46875 109.863281 13.722656 109.855469 C 14.621094 109.761719 15.308594 110.640625 15.351562 111.460938 C 15.476562 112.5 14.5 113.53125 13.453125 113.371094 C 12.929688 113.355469 12.421875 113.046875 12.121094 112.617188 C 12.207031 112.5 12.277344 112.292969 12.382812 112.222656 C 12.753906 112.953125 13.960938 113.246094 14.445312 112.476562 C 14.753906 111.894531 14.746094 111.15625 14.390625 110.601562 C 13.976562 110.070312 13.160156 110.394531 12.96875 110.960938 L 12.453125 110.960938 L 12.453125 108.03125 Z M 15.089844 108.03125 Z M 15.089844 108.03125 "/>
<path style=" stroke:none;fill-rule:nonzero;fill:rgb(0%,0%,0%);fill-opacity:1;" d="M 7.746094 86.859375 C 8.5 86.914062 9 87.605469 9.136719 88.304688 C 9.207031 88.621094 9.222656 88.921875 9.253906 89.242188 L 9.253906 90.050781 C 9.214844 90.875 9.015625 91.960938 8.121094 92.296875 C 7.339844 92.605469 6.429688 92.121094 6.199219 91.328125 C 6.023438 90.90625 6.007812 90.476562 5.96875 90.050781 L 5.96875 89.242188 C 6.007812 88.414062 6.183594 87.320312 7.070312 86.953125 L 7.113281 86.9375 L 7.144531 86.929688 L 7.183594 86.914062 L 7.300781 86.882812 L 7.375 86.867188 L 7.460938 86.867188 L 7.476562 86.859375 Z M 7.746094 86.859375 Z M 7.5 87.34375 C 6.832031 87.421875 6.636719 88.222656 6.585938 88.765625 L 6.585938 88.976562 L 6.570312 88.996094 L 6.570312 90.097656 C 6.621094 90.667969 6.660156 91.40625 7.183594 91.789062 C 7.667969 92.121094 8.308594 91.75 8.445312 91.234375 C 8.585938 90.851562 8.621094 90.476562 8.652344 90.097656 L 8.652344 88.996094 C 8.605469 88.414062 8.523438 87.605469 7.859375 87.375 L 7.800781 87.359375 L 7.785156 87.34375 L 7.714844 87.34375 L 7.699219 87.328125 L 7.515625 87.328125 Z M 7.5 87.34375 Z M 7.5 87.34375 "/>
<path style=" stroke:none;fill-rule:nonzero;fill:rgb(0%,0%,0%);fill-opacity:1;" d="M 11.023438 91.574219 L 11.023438 92.207031 L 10.382812 92.207031 L 10.382812 91.574219 Z M 11.023438 91.574219 Z M 11.023438 91.574219 "/>
<path style=" stroke:none;fill-rule:nonzero;fill:rgb(0%,0%,0%);fill-opacity:1;" d="M 13.914062 86.859375 C 14.667969 86.914062 15.167969 87.605469 15.300781 88.304688 C 15.375 88.621094 15.390625 88.921875 15.421875 89.242188 L 15.421875 90.050781 C 15.382812 90.875 15.183594 91.960938 14.285156 92.296875 C 13.507812 92.605469 12.597656 92.121094 12.367188 91.328125 C 12.191406 90.90625 12.175781 90.476562 12.136719 90.050781 L 12.136719 89.242188 C 12.175781 88.414062 12.351562 87.320312 13.238281 86.953125 L 13.277344 86.9375 L 13.308594 86.929688 L 13.351562 86.914062 L 13.46875 86.882812 L 13.539062 86.867188 L 13.628906 86.867188 L 13.644531 86.859375 Z M 13.914062 86.859375 Z M 13.667969 87.34375 C 13 87.421875 12.800781 88.222656 12.753906 88.765625 L 12.753906 88.976562 L 12.738281 88.996094 L 12.738281 90.097656 C 12.785156 90.667969 12.824219 91.40625 13.351562 91.789062 C 13.835938 92.121094 14.476562 91.75 14.613281 91.234375 C 14.753906 90.851562 14.785156 90.476562 14.816406 90.097656 L 14.816406 88.996094 C 14.769531 88.414062 14.691406 87.605469 14.023438 87.375 L 13.96875 87.359375 L 13.953125 87.34375 L 13.882812 87.34375 L 13.867188 87.328125 L 13.683594 87.328125 Z M 13.667969 87.34375 Z M 13.667969 87.34375 "/>
<path style=" stroke:none;fill-rule:nonzero;fill:rgb(0%,0%,0%);fill-opacity:1;" d="M 7.746094 65.855469 C 8.5 65.910156 9 66.601562 9.136719 67.300781 C 9.207031 67.617188 9.222656 67.917969 9.253906 68.234375 L 9.253906 69.046875 C 9.214844 69.871094 9.015625 70.957031 8.121094 71.292969 C 7.339844 71.601562 6.429688 71.117188 6.199219 70.324219 C 6.023438 69.902344 6.007812 69.472656 5.96875 69.046875 L 5.96875 68.234375 C 6.007812 67.410156 6.183594 66.316406 7.070312 65.949219 L 7.113281 65.933594 L 7.144531 65.925781 L 7.183594 65.910156 L 7.300781 65.878906 L 7.375 65.863281 L 7.460938 65.863281 L 7.476562 65.855469 Z M 7.746094 65.855469 Z M 7.5 66.339844 C 6.832031 66.417969 6.636719 67.21875 6.585938 67.757812 L 6.585938 67.972656 L 6.570312 67.988281 L 6.570312 69.09375 C 6.621094 69.664062 6.660156 70.402344 7.183594 70.785156 C 7.667969 71.117188 8.308594 70.742188 8.445312 70.226562 C 8.585938 69.847656 8.621094 69.472656 8.652344 69.09375 L 8.652344 67.988281 C 8.605469 67.410156 8.523438 66.601562 7.859375 66.371094 L 7.800781 66.355469 L 7.785156 66.339844 L 7.714844 66.339844 L 7.699219 66.324219 L 7.515625 66.324219 Z M 7.5 66.339844 Z M 7.5 66.339844 "/>
<path style=" stroke:none;fill-rule:nonzero;fill:rgb(0%,0%,0%);fill-opacity:1;" d="M 11.023438 70.570312 L 11.023438 71.203125 L 10.382812 71.203125 L 10.382812 70.570312 Z M 11.023438 70.570312 Z M 11.023438 70.570312 "/>
<path style=" stroke:none;fill-rule:nonzero;fill:rgb(0%,0%,0%);fill-opacity:1;" d="M 15.089844 66.019531 L 15.089844 66.511719 L 13.023438 66.511719 L 13.007812 66.519531 L 13.007812 68.148438 C 13.199219 68.023438 13.46875 67.855469 13.722656 67.847656 C 14.621094 67.75 15.308594 68.632812 15.351562 69.449219 C 15.476562 70.488281 14.5 71.523438 13.453125 71.363281 C 12.929688 71.347656 12.421875 71.039062 12.121094 70.609375 C 12.207031 70.488281 12.277344 70.285156 12.382812 70.210938 C 12.753906 70.941406 13.960938 71.234375 14.445312 70.464844 C 14.753906 69.886719 14.746094 69.148438 14.390625 68.59375 C 13.976562 68.0625 13.160156 68.386719 12.96875 68.949219 L 12.453125 68.949219 L 12.453125 66.019531 Z M 15.089844 66.019531 Z M 15.089844 66.019531 "/>
<path style=" stroke:none;fill-rule:nonzero;fill:rgb(0%,0%,0%);fill-opacity:1;" d="M 7.992188 44.851562 L 7.992188 49.746094 L 8 49.761719 L 8.976562 49.761719 L 8.976562 50.199219 L 6.398438 50.199219 L 6.398438 49.761719 L 7.375 49.761719 L 7.390625 49.746094 L 7.390625 45.636719 C 7.054688 45.746094 6.707031 45.820312 6.359375 45.8125 L 6.359375 45.367188 C 6.882812 45.375 7.453125 45.230469 7.851562 44.851562 Z M 7.992188 44.851562 Z M 7.992188 44.851562 "/>
<path style=" stroke:none;fill-rule:nonzero;fill:rgb(0%,0%,0%);fill-opacity:1;" d="M 11.023438 49.566406 L 11.023438 50.199219 L 10.382812 50.199219 L 10.382812 49.566406 Z M 11.023438 49.566406 Z M 11.023438 49.566406 "/>
<path style=" stroke:none;fill-rule:nonzero;fill:rgb(0%,0%,0%);fill-opacity:1;" d="M 13.914062 44.851562 C 14.667969 44.90625 15.167969 45.597656 15.300781 46.292969 C 15.375 46.613281 15.390625 46.914062 15.421875 47.230469 L 15.421875 48.039062 C 15.382812 48.867188 15.183594 49.953125 14.285156 50.289062 C 13.507812 50.597656 12.597656 50.113281 12.367188 49.320312 C 12.191406 48.898438 12.175781 48.46875 12.136719 48.039062 L 12.136719 47.230469 C 12.175781 46.40625 12.351562 45.3125 13.238281 44.945312 L 13.277344 44.929688 L 13.308594 44.921875 L 13.351562 44.90625 L 13.46875 44.875 L 13.539062 44.859375 L 13.628906 44.859375 L 13.644531 44.851562 Z M 13.914062 44.851562 Z M 13.667969 45.335938 C 13 45.414062 12.800781 46.214844 12.753906 46.753906 L 12.753906 46.96875 L 12.738281 46.984375 L 12.738281 48.089844 C 12.785156 48.660156 12.824219 49.398438 13.351562 49.777344 C 13.835938 50.113281 14.476562 49.738281 14.613281 49.222656 C 14.753906 48.84375 14.785156 48.46875 14.816406 48.089844 L 14.816406 46.984375 C 14.769531 46.40625 14.691406 45.597656 14.023438 45.367188 L 13.96875 45.351562 L 13.953125 45.335938 L 13.882812 45.335938 L 13.867188 45.320312 L 13.683594 45.320312 Z M 13.667969 45.335938 Z M 13.667969 45.335938 "/>
<path style=" stroke:none;fill-rule:nonzero;fill:rgb(0%,0%,0%);fill-opacity:1;" d="M 7.992188 23.847656 L 7.992188 28.742188 L 8 28.757812 L 8.976562 28.757812 L 8.976562 29.195312 L 6.398438 29.195312 L 6.398438 28.757812 L 7.375 28.757812 L 7.390625 28.742188 L 7.390625 24.632812 C 7.054688 24.742188 6.707031 24.8125 6.359375 24.804688 L 6.359375 24.363281 C 6.882812 24.371094 7.453125 24.226562 7.851562 23.847656 Z M 7.992188 23.847656 Z M 7.992188 23.847656 "/>
<path style=" stroke:none;fill-rule:nonzero;fill:rgb(0%,0%,0%);fill-opacity:1;" d="M 11.023438 28.558594 L 11.023438 29.195312 L 10.382812 29.195312 L 10.382812 28.558594 Z M 11.023438 28.558594 Z M 11.023438 28.558594 "/>
<path style=" stroke:none;fill-rule:nonzero;fill:rgb(0%,0%,0%);fill-opacity:1;" d="M 15.089844 24.011719 L 15.089844 24.503906 L 13.023438 24.503906 L 13.007812 24.511719 L 13.007812 26.140625 C 13.199219 26.011719 13.46875 25.847656 13.722656 25.839844 C 14.621094 25.742188 15.308594 26.625 15.351562 27.441406 C 15.476562 28.480469 14.5 29.511719 13.453125 29.355469 C 12.929688 29.339844 12.421875 29.027344 12.121094 28.601562 C 12.207031 28.480469 12.277344 28.273438 12.382812 28.203125 C 12.753906 28.933594 13.960938 29.226562 14.445312 28.457031 C 14.753906 27.878906 14.746094 27.140625 14.390625 26.585938 C 13.976562 26.050781 13.160156 26.378906 12.96875 26.941406 L 12.453125 26.941406 L 12.453125 24.011719 Z M 15.089844 24.011719 Z M 15.089844 24.011719 "/>
<path style=" stroke:none;fill-rule:nonzero;fill:rgb(0%,0%,0%);fill-opacity:1;" d="M 7.660156 2.839844 C 8.578125 2.863281 9.308594 3.808594 9.167969 4.699219 C 9.070312 5.585938 8.238281 6.09375 7.644531 6.652344 L 7.390625 6.914062 L 7.359375 6.929688 L 7.039062 7.238281 L 7.015625 7.253906 L 6.699219 7.570312 L 6.667969 7.585938 L 6.59375 7.660156 L 6.613281 7.667969 L 9.183594 7.667969 L 9.183594 8.191406 L 6.039062 8.191406 L 6.039062 7.714844 L 7.316406 6.4375 C 7.929688 5.90625 8.644531 5.214844 8.53125 4.339844 C 8.46875 3.832031 8.039062 3.363281 7.515625 3.324219 C 6.984375 3.246094 6.515625 3.667969 6.398438 4.175781 L 6.382812 4.199219 L 6.367188 4.253906 L 6.339844 4.339844 L 6.292969 4.515625 L 6.285156 4.554688 C 6.175781 4.421875 6.054688 4.277344 5.96875 4.128906 C 6.128906 3.476562 6.652344 2.863281 7.339844 2.839844 Z M 7.660156 2.839844 Z M 7.660156 2.839844 "/>
<path style=" stroke:none;fill-rule:nonzero;fill:rgb(0%,0%,0%);fill-opacity:1;" d="M 11.023438 7.554688 L 11.023438 8.191406 L 10.382812 8.191406 L 10.382812 7.554688 Z M 11.023438 7.554688 Z M 11.023438 7.554688 "/>
<path style=" stroke:none;fill-rule:nonzero;fill:rgb(0%,0%,0%);fill-opacity:1;" d="M 13.914062 2.839844 C 14.667969 2.898438 15.167969 3.585938 15.300781 4.285156 C 15.375 4.601562 15.390625 4.90625 15.421875 5.222656 L 15.421875 6.03125 C 15.382812 6.859375 15.183594 7.945312 14.285156 8.277344 C 13.507812 8.585938 12.597656 8.105469 12.367188 7.308594 C 12.191406 6.890625 12.175781 6.460938 12.136719 6.03125 L 12.136719 5.222656 C 12.175781 4.398438 12.351562 3.300781 13.238281 2.9375 L 13.277344 2.921875 L 13.308594 2.914062 L 13.351562 2.898438 L 13.46875 2.863281 L 13.539062 2.847656 L 13.628906 2.847656 L 13.644531 2.839844 Z M 13.914062 2.839844 Z M 13.667969 3.324219 C 13 3.40625 12.800781 4.207031 12.753906 4.746094 L 12.753906 4.960938 L 12.738281 4.976562 L 12.738281 6.078125 C 12.785156 6.652344 12.824219 7.390625 13.351562 7.769531 C 13.835938 8.105469 14.476562 7.730469 14.613281 7.214844 C 14.753906 6.832031 14.785156 6.460938 14.816406 6.078125 L 14.816406 4.976562 C 14.769531 4.398438 14.691406 3.585938 14.023438 3.355469 L 13.96875 3.339844 L 13.953125 3.324219 L 13.882812 3.324219 L 13.867188 3.308594 L 13.683594 3.308594 Z M 13.667969 3.324219 Z M 13.667969 3.324219 "/>
<path style="fill:none;stroke-width:0.02;stroke-linecap:butt;stroke-linejoin:miter;stroke:rgb(0%,0%,0%);stroke-opacity:1;stroke-miterlimit:10;" d="M 9.789997 1.16934 L 9.68499 1.16934 " transform="matrix(28.346457,0,0,-28.346457,1,227.771654)"/>
<path style="fill:none;stroke-width:0.02;stroke-linecap:butt;stroke-linejoin:miter;stroke:rgb(0%,0%,0%);stroke-opacity:1;stroke-miterlimit:10;" d="M 9.789997 1.910311 L 9.68499 1.910311 " transform="matrix(28.346457,0,0,-28.346457,1,227.771654)"/>
<path style="fill:none;stroke-width:0.02;stroke-linecap:butt;stroke-linejoin:miter;stroke:rgb(0%,0%,0%);stroke-opacity:1;stroke-miterlimit:10;" d="M 9.789997 2.65142 L 9.68499 2.65142 " transform="matrix(28.346457,0,0,-28.346457,1,227.771654)"/>
<path style="fill:none;stroke-width:0.02;stroke-linecap:butt;stroke-linejoin:miter;stroke:rgb(0%,0%,0%);stroke-opacity:1;stroke-miterlimit:10;" d="M 9.789997 3.392391 L 9.68499 3.392391 " transform="matrix(28.346457,0,0,-28.346457,1,227.771654)"/>
<path style="fill:none;stroke-width:0.02;stroke-linecap:butt;stroke-linejoin:miter;stroke:rgb(0%,0%,0%);stroke-opacity:1;stroke-miterlimit:10;" d="M 9.789997 4.133363 L 9.68499 4.133363 " transform="matrix(28.346457,0,0,-28.346457,1,227.771654)"/>
<path style="fill:none;stroke-width:0.02;stroke-linecap:butt;stroke-linejoin:miter;stroke:rgb(0%,0%,0%);stroke-opacity:1;stroke-miterlimit:10;" d="M 9.789997 4.874334 L 9.68499 4.874334 " transform="matrix(28.346457,0,0,-28.346457,1,227.771654)"/>
<path style="fill:none;stroke-width:0.02;stroke-linecap:butt;stroke-linejoin:miter;stroke:rgb(0%,0%,0%);stroke-opacity:1;stroke-miterlimit:10;" d="M 9.789997 5.615305 L 9.68499 5.615305 " transform="matrix(28.346457,0,0,-28.346457,1,227.771654)"/>
<path style="fill:none;stroke-width:0.02;stroke-linecap:butt;stroke-linejoin:miter;stroke:rgb(0%,0%,0%);stroke-opacity:1;stroke-miterlimit:10;" d="M 9.789997 6.356276 L 9.68499 6.356276 " transform="matrix(28.346457,0,0,-28.346457,1,227.771654)"/>
<path style="fill:none;stroke-width:0.02;stroke-linecap:butt;stroke-linejoin:miter;stroke:rgb(0%,0%,0%);stroke-opacity:1;stroke-miterlimit:10;" d="M 9.789997 7.097247 L 9.68499 7.097247 " transform="matrix(28.346457,0,0,-28.346457,1,227.771654)"/>
<path style="fill:none;stroke-width:0.02;stroke-linecap:round;stroke-linejoin:miter;stroke:rgb(0%,0%,0%);stroke-opacity:1;stroke-miterlimit:10;" d="M 9.789997 0.428369 L 9.789997 7.838356 " transform="matrix(28.346457,0,0,-28.346457,1,227.771654)"/>
<path style="fill:none;stroke-width:0.02;stroke-linecap:butt;stroke-linejoin:miter;stroke:rgb(0%,0%,0%);stroke-opacity:1;stroke-miterlimit:10;" d="M 1.706287 0.428369 L 1.706287 0.533376 " transform="matrix(28.346457,0,0,-28.346457,1,227.771654)"/>
<path style="fill:none;stroke-width:0.02;stroke-linecap:butt;stroke-linejoin:miter;stroke:rgb(0%,0%,0%);stroke-opacity:1;stroke-miterlimit:10;" d="M 2.716664 0.428369 L 2.716664 0.533376 " transform="matrix(28.346457,0,0,-28.346457,1,227.771654)"/>
<path style="fill:none;stroke-width:0.02;stroke-linecap:butt;stroke-linejoin:miter;stroke:rgb(0%,0%,0%);stroke-opacity:1;stroke-miterlimit:10;" d="M 3.72718 0.428369 L 3.72718 0.533376 " transform="matrix(28.346457,0,0,-28.346457,1,227.771654)"/>
<path style="fill:none;stroke-width:0.02;stroke-linecap:butt;stroke-linejoin:miter;stroke:rgb(0%,0%,0%);stroke-opacity:1;stroke-miterlimit:10;" d="M 4.737695 0.428369 L 4.737695 0.533376 " transform="matrix(28.346457,0,0,-28.346457,1,227.771654)"/>
<path style="fill:none;stroke-width:0.02;stroke-linecap:butt;stroke-linejoin:miter;stroke:rgb(0%,0%,0%);stroke-opacity:1;stroke-miterlimit:10;" d="M 5.748073 0.428369 L 5.748073 0.533376 " transform="matrix(28.346457,0,0,-28.346457,1,227.771654)"/>
<path style="fill:none;stroke-width:0.02;stroke-linecap:butt;stroke-linejoin:miter;stroke:rgb(0%,0%,0%);stroke-opacity:1;stroke-miterlimit:10;" d="M 6.758588 0.428369 L 6.758588 0.533376 " transform="matrix(28.346457,0,0,-28.346457,1,227.771654)"/>
<path style="fill:none;stroke-width:0.02;stroke-linecap:butt;stroke-linejoin:miter;stroke:rgb(0%,0%,0%);stroke-opacity:1;stroke-miterlimit:10;" d="M 7.769104 0.428369 L 7.769104 0.533376 " transform="matrix(28.346457,0,0,-28.346457,1,227.771654)"/>
<path style="fill:none;stroke-width:0.02;stroke-linecap:butt;stroke-linejoin:miter;stroke:rgb(0%,0%,0%);stroke-opacity:1;stroke-miterlimit:10;" d="M 8.779481 0.428369 L 8.779481 0.533376 " transform="matrix(28.346457,0,0,-28.346457,1,227.771654)"/>
<path style="fill:none;stroke-width:0.02;stroke-linecap:round;stroke-linejoin:miter;stroke:rgb(0%,0%,0%);stroke-opacity:1;stroke-miterlimit:10;" d="M 0.695771 0.428369 L 9.789997 0.428369 " transform="matrix(28.346457,0,0,-28.346457,1,227.771654)"/>
<path style=" stroke:none;fill-rule:nonzero;fill:rgb(0%,0%,0%);fill-opacity:1;" d="M 21.105469 220.445312 L 21.105469 225.34375 L 21.113281 225.359375 L 22.089844 225.359375 L 22.089844 225.796875 L 19.507812 225.796875 L 19.507812 225.359375 L 20.484375 225.359375 L 20.5 225.34375 L 20.5 221.230469 C 20.167969 221.34375 19.820312 221.414062 19.46875 221.40625 L 19.46875 220.960938 C 19.992188 220.96875 20.566406 220.828125 20.960938 220.445312 Z M 21.105469 220.445312 Z M 21.105469 220.445312 "/>
<path style=" stroke:none;fill-rule:nonzero;fill:rgb(0%,0%,0%);fill-opacity:1;" d="M 49.414062 220.445312 C 50.335938 220.46875 51.066406 221.414062 50.921875 222.304688 C 50.828125 223.191406 49.992188 223.699219 49.398438 224.253906 L 49.144531 224.515625 L 49.113281 224.535156 L 48.796875 224.84375 L 48.769531 224.859375 L 48.453125 225.175781 L 48.421875 225.191406 L 48.351562 225.261719 L 48.367188 225.273438 L 50.9375 225.273438 L 50.9375 225.796875 L 47.796875 225.796875 L 47.796875 225.320312 L 49.074219 224.042969 C 49.683594 223.507812 50.398438 222.820312 50.289062 221.945312 C 50.222656 221.4375 49.796875 220.96875 49.269531 220.929688 C 48.738281 220.851562 48.269531 221.269531 48.152344 221.777344 L 48.136719 221.804688 L 48.121094 221.859375 L 48.097656 221.945312 L 48.050781 222.121094 L 48.042969 222.160156 C 47.929688 222.023438 47.8125 221.882812 47.722656 221.730469 C 47.882812 221.082031 48.40625 220.46875 49.097656 220.445312 Z M 49.414062 220.445312 Z M 49.414062 220.445312 "/>
<path style=" stroke:none;fill-rule:nonzero;fill:rgb(0%,0%,0%);fill-opacity:1;" d="M 78.160156 220.445312 C 78.859375 220.476562 79.589844 221.121094 79.421875 221.859375 C 79.34375 222.359375 78.992188 222.769531 78.558594 222.992188 C 79.265625 223.214844 79.8125 223.960938 79.621094 224.699219 C 79.429688 225.660156 78.328125 226.191406 77.4375 225.898438 C 77.007812 225.773438 76.574219 225.5 76.367188 225.105469 C 76.414062 224.984375 76.398438 224.78125 76.453125 224.699219 C 76.875 225.320312 77.765625 225.738281 78.460938 225.390625 C 79.222656 224.90625 79.105469 223.492188 78.183594 223.253906 L 78.113281 223.253906 L 78.097656 223.238281 L 77.359375 223.238281 L 77.359375 222.761719 C 77.8125 222.753906 78.375 222.699219 78.628906 222.230469 C 78.898438 221.828125 78.875 221.160156 78.359375 220.960938 C 77.746094 220.722656 76.992188 221.113281 76.761719 221.730469 C 76.667969 221.597656 76.574219 221.460938 76.476562 221.320312 C 76.804688 220.730469 77.492188 220.382812 78.160156 220.445312 Z M 78.160156 220.445312 Z M 78.160156 220.445312 "/>
<path style=" stroke:none;fill-rule:nonzero;fill:rgb(0%,0%,0%);fill-opacity:1;" d="M 107.605469 220.613281 L 107.605469 223.953125 L 107.621094 223.96875 L 108.40625 223.96875 L 108.40625 224.445312 L 107.621094 224.445312 L 107.605469 224.453125 L 107.605469 225.796875 L 107.003906 225.796875 L 107.003906 224.453125 L 106.984375 224.445312 L 104.890625 224.445312 L 104.890625 223.953125 C 105.558594 222.84375 106.222656 221.722656 106.890625 220.613281 Z M 107.605469 220.613281 Z M 107.019531 220.914062 C 106.859375 221.738281 106.351562 222.445312 105.96875 223.167969 C 105.820312 223.429688 105.621094 223.714844 105.511719 223.96875 L 107.035156 223.96875 L 107.042969 223.953125 L 107.042969 220.914062 L 107.035156 220.898438 Z M 107.019531 220.914062 Z M 107.019531 220.914062 "/>
<path style=" stroke:none;fill-rule:nonzero;fill:rgb(0%,0%,0%);fill-opacity:1;" d="M 136.605469 220.613281 L 136.605469 221.105469 L 134.542969 221.105469 L 134.527344 221.113281 L 134.527344 222.738281 C 134.714844 222.613281 134.988281 222.445312 135.242188 222.4375 C 136.136719 222.34375 136.828125 223.222656 136.867188 224.042969 C 136.996094 225.082031 136.019531 226.113281 134.96875 225.953125 C 134.445312 225.9375 133.9375 225.628906 133.636719 225.199219 C 133.722656 225.082031 133.796875 224.875 133.898438 224.804688 C 134.273438 225.535156 135.480469 225.828125 135.960938 225.058594 C 136.273438 224.476562 136.265625 223.738281 135.90625 223.183594 C 135.496094 222.652344 134.675781 222.976562 134.488281 223.542969 L 133.96875 223.542969 L 133.96875 220.613281 Z M 136.605469 220.613281 Z M 136.605469 220.613281 "/>
<path style=" stroke:none;fill-rule:nonzero;fill:rgb(0%,0%,0%);fill-opacity:1;" d="M 164.589844 220.445312 C 164.796875 220.476562 165.035156 220.5 165.234375 220.597656 L 165.234375 221.058594 C 164.683594 220.820312 163.972656 220.785156 163.542969 221.269531 C 163.160156 221.675781 162.988281 222.277344 162.972656 222.8125 C 163.429688 222.199219 164.472656 221.859375 165.035156 222.492188 C 165.597656 223.144531 165.691406 224.082031 165.4375 224.875 C 165.160156 225.507812 164.519531 226.089844 163.804688 225.953125 C 162.835938 225.875 162.398438 224.796875 162.351562 223.96875 C 162.167969 222.804688 162.445312 221.335938 163.558594 220.667969 L 163.574219 220.660156 L 163.742188 220.574219 L 163.789062 220.558594 L 163.8125 220.542969 L 163.945312 220.5 L 164.058594 220.46875 L 164.128906 220.453125 L 164.21875 220.453125 L 164.234375 220.445312 Z M 164.589844 220.445312 Z M 163.8125 222.652344 C 163.121094 222.769531 162.898438 223.605469 162.988281 224.167969 C 163.027344 224.699219 163.234375 225.40625 163.84375 225.515625 C 164.496094 225.605469 164.914062 224.90625 164.929688 224.34375 C 164.964844 223.769531 164.929688 223.121094 164.429688 222.746094 L 164.320312 222.691406 L 164.234375 222.667969 L 164.160156 222.652344 L 164.144531 222.636719 L 163.828125 222.636719 Z M 163.8125 222.652344 Z M 163.8125 222.652344 "/>
<path style=" stroke:none;fill-rule:nonzero;fill:rgb(0%,0%,0%);fill-opacity:1;" d="M 194.226562 220.613281 L 194.226562 221.113281 C 193.097656 222.429688 192.464844 224.207031 192.472656 225.882812 L 191.828125 225.882812 C 191.8125 224.191406 192.503906 222.40625 193.710938 221.160156 L 193.695312 221.144531 L 190.9375 221.144531 L 190.9375 220.613281 L 194.226562 220.613281 L 194.226562 221.113281 Z M 194.226562 220.613281 Z M 194.226562 220.613281 "/>
<path style=" stroke:none;fill-rule:nonzero;fill:rgb(0%,0%,0%);fill-opacity:1;" d="M 221.375 220.445312 C 222.21875 220.476562 223.011719 221.382812 222.679688 222.222656 C 222.535156 222.613281 222.136719 222.851562 221.8125 223.015625 C 222.621094 223.253906 223.113281 224.199219 222.75 224.976562 C 222.367188 225.984375 220.925781 226.304688 220.128906 225.574219 C 219.40625 225 219.382812 223.761719 220.1875 223.253906 C 220.304688 223.128906 220.527344 223.089844 220.628906 222.992188 C 219.941406 222.796875 219.472656 221.992188 219.796875 221.320312 C 220.058594 220.714844 220.734375 220.382812 221.375 220.445312 Z M 221.375 220.445312 Z M 221.074219 220.898438 C 220.488281 220.914062 220.074219 221.582031 220.273438 222.105469 C 220.503906 223.007812 222.019531 222.976562 222.195312 222.050781 C 222.351562 221.53125 221.941406 220.914062 221.375 220.898438 L 221.359375 220.890625 L 221.089844 220.890625 Z M 221.074219 220.898438 Z M 221.089844 223.253906 C 220.398438 223.304688 220.058594 224.128906 220.242188 224.714844 C 220.359375 225.550781 221.550781 225.796875 222.019531 225.128906 C 222.472656 224.515625 222.25 223.421875 221.433594 223.253906 L 221.359375 223.253906 L 221.34375 223.238281 L 221.097656 223.238281 Z M 221.089844 223.253906 Z M 221.089844 223.253906 "/>
<path style=" stroke:none;fill-rule:nonzero;fill:rgb(0%,0%,0%);fill-opacity:1;" d="M 250.035156 220.445312 C 250.988281 220.550781 251.402344 221.628906 251.464844 222.453125 C 251.574219 223.523438 251.449219 224.78125 250.574219 225.550781 C 250.027344 226.097656 249.058594 226.113281 248.472656 225.621094 C 248.542969 225.484375 248.621094 225.328125 248.710938 225.214844 C 249.226562 225.714844 250.128906 225.574219 250.464844 224.929688 C 250.703125 224.542969 250.84375 224.042969 250.835938 223.613281 C 250.367188 224.214844 249.335938 224.566406 248.773438 223.929688 C 248.203125 223.269531 248.097656 222.3125 248.382812 221.515625 C 248.679688 220.890625 249.304688 220.351562 250.035156 220.445312 Z M 250.035156 220.445312 Z M 249.773438 220.898438 C 249.203125 220.945312 248.910156 221.582031 248.867188 222.082031 C 248.84375 222.644531 248.867188 223.304688 249.367188 223.667969 C 249.925781 224.007812 250.636719 223.597656 250.765625 222.992188 C 250.917969 222.40625 250.820312 221.777344 250.519531 221.230469 C 250.351562 221 250.050781 220.835938 249.773438 220.898438 Z M 249.773438 220.898438 Z M 249.773438 220.898438 "/>
<path style=" stroke:none;fill-rule:nonzero;fill:rgb(0%,0%,0%);fill-opacity:1;" d="M 276.910156 220.445312 L 276.910156 225.34375 L 276.917969 225.359375 L 277.894531 225.359375 L 277.894531 225.796875 L 275.3125 225.796875 L 275.3125 225.359375 L 276.289062 225.359375 L 276.304688 225.34375 L 276.304688 221.230469 C 275.972656 221.34375 275.621094 221.414062 275.273438 221.40625 L 275.273438 220.960938 C 275.796875 220.96875 276.367188 220.828125 276.765625 220.445312 Z M 276.910156 220.445312 Z M 276.910156 220.445312 "/>
<path style=" stroke:none;fill-rule:nonzero;fill:rgb(0%,0%,0%);fill-opacity:1;" d="M 280.632812 220.445312 C 281.386719 220.5 281.886719 221.191406 282.019531 221.890625 C 282.089844 222.207031 282.105469 222.507812 282.140625 222.828125 L 282.140625 223.636719 C 282.097656 224.460938 281.902344 225.550781 281.003906 225.882812 C 280.226562 226.191406 279.3125 225.707031 279.082031 224.914062 C 278.910156 224.492188 278.894531 224.066406 278.851562 223.636719 L 278.851562 222.828125 C 278.894531 222 279.066406 220.90625 279.957031 220.542969 L 279.996094 220.523438 L 280.027344 220.515625 L 280.066406 220.5 L 280.1875 220.46875 L 280.257812 220.453125 L 280.34375 220.453125 L 280.359375 220.445312 Z M 280.632812 220.445312 Z M 280.386719 220.929688 C 279.71875 221.007812 279.519531 221.8125 279.472656 222.351562 L 279.472656 222.566406 L 279.457031 222.582031 L 279.457031 223.683594 C 279.503906 224.253906 279.542969 224.992188 280.066406 225.375 C 280.550781 225.707031 281.195312 225.335938 281.328125 224.820312 C 281.472656 224.4375 281.503906 224.066406 281.535156 223.683594 L 281.535156 222.582031 C 281.488281 222 281.410156 221.191406 280.742188 220.960938 L 280.6875 220.945312 L 280.671875 220.929688 L 280.597656 220.929688 L 280.582031 220.914062 L 280.402344 220.914062 Z M 280.386719 220.929688 Z M 280.386719 220.929688 "/>
<path style="fill:none;stroke-width:0.02;stroke-linecap:butt;stroke-linejoin:miter;stroke:rgb(0%,0%,0%);stroke-opacity:1;stroke-miterlimit:10;" d="M 1.706287 7.838356 L 1.706287 7.73335 " transform="matrix(28.346457,0,0,-28.346457,1,227.771654)"/>
<path style="fill:none;stroke-width:0.02;stroke-linecap:butt;stroke-linejoin:miter;stroke:rgb(0%,0%,0%);stroke-opacity:1;stroke-miterlimit:10;" d="M 2.716664 7.838356 L 2.716664 7.73335 " transform="matrix(28.346457,0,0,-28.346457,1,227.771654)"/>
<path style="fill:none;stroke-width:0.02;stroke-linecap:butt;stroke-linejoin:miter;stroke:rgb(0%,0%,0%);stroke-opacity:1;stroke-miterlimit:10;" d="M 3.72718 7.838356 L 3.72718 7.73335 " transform="matrix(28.346457,0,0,-28.346457,1,227.771654)"/>
<path style="fill:none;stroke-width:0.02;stroke-linecap:butt;stroke-linejoin:miter;stroke:rgb(0%,0%,0%);stroke-opacity:1;stroke-miterlimit:10;" d="M 4.737695 7.838356 L 4.737695 7.73335 " transform="matrix(28.346457,0,0,-28.346457,1,227.771654)"/>
<path style="fill:none;stroke-width:0.02;stroke-linecap:butt;stroke-linejoin:miter;stroke:rgb(0%,0%,0%);stroke-opacity:1;stroke-miterlimit:10;" d="M 5.748073 7.838356 L 5.748073 7.73335 " transform="matrix(28.346457,0,0,-28.346457,1,227.771654)"/>
<path style="fill:none;stroke-width:0.02;stroke-linecap:butt;stroke-linejoin:miter;stroke:rgb(0%,0%,0%);stroke-opacity:1;stroke-miterlimit:10;" d="M 6.758588 7.838356 L 6.758588 7.73335 " transform="matrix(28.346457,0,0,-28.346457,1,227.771654)"/>
<path style="fill:none;stroke-width:0.02;stroke-linecap:butt;stroke-linejoin:miter;stroke:rgb(0%,0%,0%);stroke-opacity:1;stroke-miterlimit:10;" d="M 7.769104 7.838356 L 7.769104 7.73335 " transform="matrix(28.346457,0,0,-28.346457,1,227.771654)"/>
<path style="fill:none;stroke-width:0.02;stroke-linecap:butt;stroke-linejoin:miter;stroke:rgb(0%,0%,0%);stroke-opacity:1;stroke-miterlimit:10;" d="M 8.779481 7.838356 L 8.779481 7.73335 " transform="matrix(28.346457,0,0,-28.346457,1,227.771654)"/>
<path style="fill:none;stroke-width:0.02;stroke-linecap:round;stroke-linejoin:miter;stroke:rgb(0%,0%,0%);stroke-opacity:1;stroke-miterlimit:10;" d="M 0.695771 7.838356 L 9.789997 7.838356 " transform="matrix(28.346457,0,0,-28.346457,1,227.771654)"/>
<path style="fill:none;stroke-width:0.02;stroke-linecap:butt;stroke-linejoin:miter;stroke:rgb(32.941176%,47.058824%,63.921569%);stroke-opacity:1;stroke-miterlimit:10;" d="M 0.695771 3.683295 L 1.706287 4.161061 L 2.716664 5.230143 L 3.72718 5.981725 L 4.737695 6.204554 L 5.748073 4.872542 L 6.758588 3.791058 L 7.769104 4.881775 L 8.779481 1.57848 L 9.789997 3.680953 " transform="matrix(28.346457,0,0,-28.346457,1,227.771654)"/>
<path style="fill:none;stroke-width:0.02;stroke-linecap:butt;stroke-linejoin:miter;stroke:rgb(90.196078%,56.862745%,25.882353%);stroke-opacity:1;stroke-miterlimit:10;" d="M 0.695771 4.474565 L 1.706287 3.838462 L 2.716664 6.160457 L 3.72718 4.766158 L 4.737695 5.182739 L 5.748073 6.523432 L 6.758588 0.692677 L 7.769104 4.346821 L 8.779481 5.7888 L 9.789997 2.793083 " transform="matrix(28.346457,0,0,-28.346457,1,227.771654)"/>
<path style="fill:none;stroke-width:0.02;stroke-linecap:butt;stroke-linejoin:miter;stroke:rgb(81.960784%,36.862745%,36.078431%);stroke-opacity:1;stroke-miterlimit:10;" d="M 0.695771 4.060878 L 1.706287 5.966842 L 2.716664 4.67066 L 3.72718 5.239652 L 4.737695 3.647466 L 5.748073 5.801478 L 6.758588 6.430966 L 7.769104 4.31926 L 8.779481 7.1667 L 9.789997 5.387377 " transform="matrix(28.346457,0,0,-28.346457,1,227.771654)"/>
</g>
</svg>
