<?xml version="1.0" encoding="UTF-8"?>
<svg xmlns="http://www.w3.org/2000/svg" xmlns:xlink="http://www.w3.org/1999/xlink" width="285.464567pt" height="228.771654pt" viewBox="0 0 285.464567 228.771654" version="1.1">
<g id="surface1">
<path style="fill:none;stroke-width:0.02;stroke-linecap:butt;stroke-linejoin:miter;stroke:rgb(0%,0%,0%);stroke-opacity:1;stroke-miterlimit:10;" d="M 0.602616 1.354686 L 0.707623 1.354686 " transform="matrix(28.346457,0,0,-28.346457,1,227.771654)"/>
<path style="fill:none;stroke-width:0.02;stroke-linecap:butt;stroke-linejoin:miter;stroke:rgb(0%,0%,0%);stroke-opacity:1;stroke-miterlimit:10;" d="M 0.602616 2.280866 L 0.707623 2.280866 " transform="matrix(28.346457,0,0,-28.346457,1,227.771654)"/>
<path style="fill:none;stroke-width:0.02;stroke-linecap:butt;stroke-linejoin:miter;stroke:rgb(0%,0%,0%);stroke-opacity:1;stroke-miterlimit:10;" d="M 0.602616 3.207045 L 0.707623 3.207045 " transform="matrix(28.346457,0,0,-28.346457,1,227.771654)"/>
<path style="fill:none;stroke-width:0.02;stroke-linecap:butt;stroke-linejoin:miter;stroke:rgb(0%,0%,0%);stroke-opacity:1;stroke-miterlimit:10;" d="M 0.602616 4.133363 L 0.707623 4.133363 " transform="matrix(28.346457,0,0,-28.346457,1,227.771654)"/>
<path style="fill:none;stroke-width:0.02;stroke-linecap:butt;stroke-linejoin:miter;stroke:rgb(0%,0%,0%);stroke-opacity:1;stroke-miterlimit:10;" d="M 0.602616 5.059542 L 0.707623 5.059542 " transform="matrix(28.346457,0,0,-28.346457,1,227.771654)"/>
<path style="fill:none;stroke-width:0.02;stroke-linecap:butt;stroke-linejoin:miter;stroke:rgb(0%,0%,0%);stroke-opacity:1;stroke-miterlimit:10;" d="M 0.602616 5.985859 L 0.707623 5.985859 " transform="matrix(28.346457,0,0,-28.346457,1,227.771654)"/>
<path style="fill:none;stroke-width:0.02;stroke-linecap:butt;stroke-linejoin:miter;stroke:rgb(0%,0%,0%);stroke-opacity:1;stroke-miterlimit:10;" d="M 0.602616 6.912039 L 0.707623 6.912039 " transform="matrix(28.346457,0,0,-28.346457,1,227.771654)"/>
<path style="fill:none;stroke-width:0.02;stroke-linecap:round;stroke-linejoin:miter;stroke:rgb(0%,0%,0%);stroke-opacity:1;stroke-miterlimit:10;" d="M 0.602616 0.428369 L 0.602616 7.838356 " transform="matrix(28.346457,0,0,-28.346457,1,227.771654)"/>
<path style=" stroke:none;fill-rule:nonzero;fill:rgb(0%,0%,0%);fill-opacity:1;" d="M 5.101562 212.886719 C 5.859375 212.941406 6.359375 213.632812 6.492188 214.332031 C 6.5625 214.648438 6.578125 214.949219 6.613281 215.265625 L 6.613281 216.078125 C 6.570312 216.902344 6.375 217.988281 5.476562 218.324219 C 4.699219 218.632812 3.785156 218.148438 3.554688 217.355469 C 3.382812 216.933594 3.363281 216.503906 3.324219 216.078125 L 3.324219 215.265625 C 3.363281 214.441406 3.539062 213.347656 4.429688 212.980469 L 4.46875 212.964844 L 4.5 212.957031 L 4.539062 212.941406 L 4.660156 212.910156 L 4.730469 212.894531 L 4.816406 212.894531 L 4.832031 212.886719 Z M 5.101562 212.886719 Z M 4.855469 213.371094 C 4.191406 213.449219 3.992188 214.25 3.945312 214.789062 L 3.945312 215.003906 L 3.929688 215.019531 L 3.929688 216.125 C 3.976562 216.695312 4.015625 217.433594 4.539062 217.816406 C 5.023438 218.148438 5.667969 217.773438 5.800781 217.257812 C 5.945312 216.878906 5.976562 216.503906 6.007812 216.125 L 6.007812 215.019531 C 5.960938 214.441406 5.882812 213.632812 5.214844 213.402344 L 5.160156 213.386719 L 5.144531 213.371094 L 5.070312 213.371094 L 5.054688 213.355469 L 4.875 213.355469 Z M 4.855469 213.371094 Z M 4.855469 213.371094 "/>
<path style=" stroke:none;fill-rule:nonzero;fill:rgb(0%,0%,0%);fill-opacity:1;" d="M 8.382812 217.601562 L 8.382812 218.234375 L 7.738281 218.234375 L 7.738281 217.601562 Z M 8.382812 217.601562 Z M 8.382812 217.601562 "/>
<path style=" stroke:none;fill-rule:nonzero;fill:rgb(0%,0%,0%);fill-opacity:1;" d="M 11.269531 212.886719 C 12.023438 212.941406 12.523438 213.632812 12.660156 214.332031 C 12.730469 214.648438 12.746094 214.949219 12.777344 215.265625 L 12.777344 216.078125 C 12.738281 216.902344 12.539062 217.988281 11.644531 218.324219 C 10.867188 218.632812 9.953125 218.148438 9.722656 217.355469 C 9.546875 216.933594 9.53125 216.503906 9.492188 216.078125 L 9.492188 215.265625 C 9.53125 214.441406 9.707031 213.347656 10.597656 212.980469 L 10.636719 212.964844 L 10.667969 212.957031 L 10.707031 212.941406 L 10.824219 212.910156 L 10.898438 212.894531 L 10.984375 212.894531 L 11 212.886719 Z M 11.269531 212.886719 Z M 11.023438 213.371094 C 10.359375 213.449219 10.160156 214.25 10.113281 214.789062 L 10.113281 215.003906 L 10.097656 215.019531 L 10.097656 216.125 C 10.144531 216.695312 10.183594 217.433594 10.707031 217.816406 C 11.191406 218.148438 11.835938 217.773438 11.96875 217.257812 C 12.113281 216.878906 12.144531 216.503906 12.175781 216.125 L 12.175781 215.019531 C 12.128906 214.441406 12.046875 213.632812 11.382812 213.402344 L 11.324219 213.386719 L 11.308594 213.371094 L 11.238281 213.371094 L 11.222656 213.355469 L 11.039062 213.355469 Z M 11.023438 213.371094 Z M 11.023438 213.371094 "/>
<path style=" stroke:none;fill-rule:nonzero;fill:rgb(0%,0%,0%);fill-opacity:1;" d="M 5.101562 186.628906 C 5.859375 186.6875 6.359375 187.375 6.492188 188.074219 C 6.5625 188.390625 6.578125 188.695312 6.613281 189.011719 L 6.613281 189.820312 C 6.570312 190.644531 6.375 191.734375 5.476562 192.066406 C 4.699219 192.375 3.785156 191.890625 3.554688 191.097656 C 3.382812 190.679688 3.363281 190.25 3.324219 189.820312 L 3.324219 189.011719 C 3.363281 188.1875 3.539062 187.089844 4.429688 186.726562 L 4.46875 186.710938 L 4.5 186.703125 L 4.539062 186.6875 L 4.660156 186.652344 L 4.730469 186.636719 L 4.816406 186.636719 L 4.832031 186.628906 Z M 5.101562 186.628906 Z M 4.855469 187.113281 C 4.191406 187.195312 3.992188 187.996094 3.945312 188.535156 L 3.945312 188.75 L 3.929688 188.765625 L 3.929688 189.867188 C 3.976562 190.441406 4.015625 191.179688 4.539062 191.558594 C 5.023438 191.890625 5.667969 191.519531 5.800781 191.003906 C 5.945312 190.621094 5.976562 190.25 6.007812 189.867188 L 6.007812 188.765625 C 5.960938 188.1875 5.882812 187.375 5.214844 187.144531 L 5.160156 187.128906 L 5.144531 187.113281 L 5.070312 187.113281 L 5.054688 187.097656 L 4.875 187.097656 Z M 4.855469 187.113281 Z M 4.855469 187.113281 "/>
<path style=" stroke:none;fill-rule:nonzero;fill:rgb(0%,0%,0%);fill-opacity:1;" d="M 8.382812 191.34375 L 8.382812 191.980469 L 7.738281 191.980469 L 7.738281 191.34375 Z M 8.382812 191.34375 Z M 8.382812 191.34375 "/>
<path style=" stroke:none;fill-rule:nonzero;fill:rgb(0%,0%,0%);fill-opacity:1;" d="M 11.183594 186.628906 C 12.105469 186.652344 12.835938 187.597656 12.691406 188.488281 C 12.597656 189.375 11.761719 189.882812 11.167969 190.441406 L 10.914062 190.703125 L 10.882812 190.71875 L 10.5625 191.027344 L 10.539062 191.042969 L 10.222656 191.359375 L 10.191406 191.375 L 10.121094 191.449219 L 10.136719 191.457031 L 12.707031 191.457031 L 12.707031 191.980469 L 9.5625 191.980469 L 9.5625 191.503906 L 10.84375 190.226562 C 11.453125 189.695312 12.167969 189.003906 12.054688 188.128906 C 11.992188 187.621094 11.5625 187.152344 11.039062 187.113281 C 10.507812 187.035156 10.039062 187.457031 9.921875 187.964844 L 9.90625 187.988281 L 9.890625 188.042969 L 9.867188 188.128906 L 9.816406 188.304688 L 9.808594 188.34375 C 9.699219 188.210938 9.578125 188.066406 9.492188 187.917969 C 9.652344 187.265625 10.175781 186.652344 10.867188 186.628906 Z M 11.183594 186.628906 Z M 11.183594 186.628906 "/>
<path style=" stroke:none;fill-rule:nonzero;fill:rgb(0%,0%,0%);fill-opacity:1;" d="M 5.101562 160.375 C 5.859375 160.429688 6.359375 161.121094 6.492188 161.820312 C 6.5625 162.136719 6.578125 162.4375 6.613281 162.753906 L 6.613281 163.566406 C 6.570312 164.390625 6.375 165.476562 5.476562 165.8125 C 4.699219 166.121094 3.785156 165.636719 3.554688 164.84375 C 3.382812 164.421875 3.363281 163.992188 3.324219 163.566406 L 3.324219 162.753906 C 3.363281 161.929688 3.539062 160.835938 4.429688 160.46875 L 4.46875 160.453125 L 4.5 160.445312 L 4.539062 160.429688 L 4.660156 160.398438 L 4.730469 160.382812 L 4.816406 160.382812 L 4.832031 160.375 Z M 5.101562 160.375 Z M 4.855469 160.859375 C 4.191406 160.9375 3.992188 161.738281 3.945312 162.28125 L 3.945312 162.492188 L 3.929688 162.507812 L 3.929688 163.613281 C 3.976562 164.183594 4.015625 164.921875 4.539062 165.304688 C 5.023438 165.636719 5.667969 165.265625 5.800781 164.746094 C 5.945312 164.367188 5.976562 163.992188 6.007812 163.613281 L 6.007812 162.507812 C 5.960938 161.929688 5.882812 161.121094 5.214844 160.890625 L 5.160156 160.875 L 5.144531 160.859375 L 5.070312 160.859375 L 5.054688 160.84375 L 4.875 160.84375 Z M 4.855469 160.859375 Z M 4.855469 160.859375 "/>
<path style=" stroke:none;fill-rule:nonzero;fill:rgb(0%,0%,0%);fill-opacity:1;" d="M 8.382812 165.089844 L 8.382812 165.722656 L 7.738281 165.722656 L 7.738281 165.089844 Z M 8.382812 165.089844 Z M 8.382812 165.089844 "/>
<path style=" stroke:none;fill-rule:nonzero;fill:rgb(0%,0%,0%);fill-opacity:1;" d="M 12.089844 160.542969 L 12.089844 163.882812 L 12.105469 163.898438 L 12.890625 163.898438 L 12.890625 164.375 L 12.105469 164.375 L 12.089844 164.382812 L 12.089844 165.722656 L 11.484375 165.722656 L 11.484375 164.382812 L 11.46875 164.375 L 9.375 164.375 L 9.375 163.882812 C 10.039062 162.773438 10.707031 161.652344 11.375 160.542969 Z M 12.089844 160.542969 Z M 11.5 160.84375 C 11.34375 161.667969 10.832031 162.375 10.453125 163.097656 C 10.300781 163.359375 10.105469 163.644531 9.992188 163.898438 L 11.515625 163.898438 L 11.523438 163.882812 L 11.523438 160.84375 L 11.515625 160.828125 Z M 11.5 160.84375 Z M 11.5 160.84375 "/>
<path style=" stroke:none;fill-rule:nonzero;fill:rgb(0%,0%,0%);fill-opacity:1;" d="M 5.101562 134.121094 C 5.859375 134.175781 6.359375 134.863281 6.492188 135.5625 C 6.5625 135.882812 6.578125 136.183594 6.613281 136.5 L 6.613281 137.308594 C 6.570312 138.136719 6.375 139.222656 5.476562 139.554688 C 4.699219 139.867188 3.785156 139.382812 3.554688 138.585938 C 3.382812 138.167969 3.363281 137.738281 3.324219 137.308594 L 3.324219 136.5 C 3.363281 135.675781 3.539062 134.578125 4.429688 134.214844 L 4.46875 134.199219 L 4.5 134.191406 L 4.539062 134.175781 L 4.660156 134.144531 L 4.730469 134.128906 L 4.816406 134.128906 L 4.832031 134.121094 Z M 5.101562 134.121094 Z M 4.855469 134.601562 C 4.191406 134.683594 3.992188 135.484375 3.945312 136.023438 L 3.945312 136.238281 L 3.929688 136.253906 L 3.929688 137.359375 C 3.976562 137.929688 4.015625 138.667969 4.539062 139.046875 C 5.023438 139.382812 5.667969 139.007812 5.800781 138.492188 C 5.945312 138.113281 5.976562 137.738281 6.007812 137.359375 L 6.007812 136.253906 C 5.960938 135.675781 5.882812 134.863281 5.214844 134.636719 L 5.160156 134.621094 L 5.144531 134.601562 L 5.070312 134.601562 L 5.054688 134.585938 L 4.875 134.585938 Z M 4.855469 134.601562 Z M 4.855469 134.601562 "/>
<path style=" stroke:none;fill-rule:nonzero;fill:rgb(0%,0%,0%);fill-opacity:1;" d="M 8.382812 138.832031 L 8.382812 139.46875 L 7.738281 139.46875 L 7.738281 138.832031 Z M 8.382812 138.832031 Z M 8.382812 138.832031 "/>
<path style=" stroke:none;fill-rule:nonzero;fill:rgb(0%,0%,0%);fill-opacity:1;" d="M 11.785156 134.121094 C 11.992188 134.152344 12.230469 134.175781 12.429688 134.269531 L 12.429688 134.730469 C 11.882812 134.492188 11.167969 134.460938 10.738281 134.945312 C 10.359375 135.347656 10.183594 135.953125 10.167969 136.484375 C 10.628906 135.875 11.667969 135.53125 12.230469 136.167969 C 12.792969 136.816406 12.890625 137.753906 12.636719 138.546875 C 12.359375 139.183594 11.714844 139.761719 11 139.628906 C 10.03125 139.546875 9.597656 138.46875 9.546875 137.644531 C 9.367188 136.476562 9.644531 135.007812 10.753906 134.339844 L 10.769531 134.332031 L 10.9375 134.246094 L 10.984375 134.230469 L 11.007812 134.214844 L 11.253906 134.144531 L 11.324219 134.128906 L 11.414062 134.128906 L 11.429688 134.121094 Z M 11.785156 134.121094 Z M 11.007812 136.324219 C 10.316406 136.445312 10.097656 137.277344 10.183594 137.839844 C 10.222656 138.375 10.429688 139.078125 11.039062 139.191406 C 11.691406 139.277344 12.113281 138.578125 12.128906 138.015625 C 12.160156 137.445312 12.128906 136.792969 11.628906 136.421875 L 11.515625 136.367188 L 11.429688 136.339844 L 11.359375 136.324219 L 11.34375 136.308594 L 11.023438 136.308594 Z M 11.007812 136.324219 Z M 11.007812 136.324219 "/>
<path style=" stroke:none;fill-rule:nonzero;fill:rgb(0%,0%,0%);fill-opacity:1;" d="M 5.101562 107.863281 C 5.859375 107.917969 6.359375 108.609375 6.492188 109.308594 C 6.5625 109.625 6.578125 109.925781 6.613281 110.246094 L 6.613281 111.054688 C 6.570312 111.878906 6.375 112.96875 5.476562 113.300781 C 4.699219 113.609375 3.785156 113.125 3.554688 112.332031 C 3.382812 111.910156 3.363281 111.484375 3.324219 111.054688 L 3.324219 110.246094 C 3.363281 109.417969 3.539062 108.324219 4.429688 107.957031 L 4.46875 107.941406 L 4.5 107.933594 L 4.539062 107.917969 L 4.660156 107.886719 L 4.730469 107.871094 L 4.816406 107.871094 L 4.832031 107.863281 Z M 5.101562 107.863281 Z M 4.855469 108.347656 C 4.191406 108.425781 3.992188 109.230469 3.945312 109.769531 L 3.945312 109.984375 L 3.929688 110 L 3.929688 111.101562 C 3.976562 111.671875 4.015625 112.410156 4.539062 112.792969 C 5.023438 113.125 5.667969 112.753906 5.800781 112.238281 C 5.945312 111.855469 5.976562 111.484375 6.007812 111.101562 L 6.007812 110 C 5.960938 109.417969 5.882812 108.609375 5.214844 108.378906 L 5.160156 108.363281 L 5.144531 108.347656 L 5.070312 108.347656 L 5.054688 108.332031 L 4.875 108.332031 Z M 4.855469 108.347656 Z M 4.855469 108.347656 "/>
<path style=" stroke:none;fill-rule:nonzero;fill:rgb(0%,0%,0%);fill-opacity:1;" d="M 8.382812 112.578125 L 8.382812 113.214844 L 7.738281 113.214844 L 7.738281 112.578125 Z M 8.382812 112.578125 Z M 8.382812 112.578125 "/>
<path style=" stroke:none;fill-rule:nonzero;fill:rgb(0%,0%,0%);fill-opacity:1;" d="M 11.285156 107.863281 C 12.128906 107.894531 12.921875 108.800781 12.589844 109.640625 C 12.445312 110.03125 12.046875 110.269531 11.722656 110.433594 C 12.53125 110.671875 13.023438 111.617188 12.660156 112.394531 C 12.277344 113.402344 10.832031 113.722656 10.039062 112.992188 C 9.316406 112.417969 9.292969 111.179688 10.097656 110.671875 C 10.214844 110.546875 10.4375 110.507812 10.539062 110.410156 C 9.851562 110.214844 9.382812 109.410156 9.707031 108.738281 C 9.96875 108.132812 10.644531 107.800781 11.285156 107.863281 Z M 11.285156 107.863281 Z M 10.984375 108.316406 C 10.398438 108.332031 9.984375 109 10.183594 109.523438 C 10.414062 110.425781 11.929688 110.394531 12.105469 109.46875 C 12.261719 108.949219 11.851562 108.332031 11.285156 108.316406 L 11.269531 108.308594 L 11 108.308594 Z M 10.984375 108.316406 Z M 11 110.671875 C 10.308594 110.722656 9.96875 111.546875 10.152344 112.132812 C 10.269531 112.96875 11.460938 113.214844 11.929688 112.546875 C 12.382812 111.933594 12.160156 110.839844 11.34375 110.671875 L 11.269531 110.671875 L 11.253906 110.65625 L 11.007812 110.65625 Z M 11 110.671875 Z M 11 110.671875 "/>
<path style=" stroke:none;fill-rule:nonzero;fill:rgb(0%,0%,0%);fill-opacity:1;" d="M 5.347656 81.609375 L 5.347656 86.503906 L 5.355469 86.519531 L 6.332031 86.519531 L 6.332031 86.957031 L 3.753906 86.957031 L 3.753906 86.519531 L 4.730469 86.519531 L 4.746094 86.503906 L 4.746094 82.394531 C 4.414062 82.503906 4.0625 82.578125 3.714844 82.570312 L 3.714844 82.125 C 4.238281 82.132812 4.808594 81.988281 5.207031 81.609375 Z M 5.347656 81.609375 Z M 5.347656 81.609375 "/>
<path style=" stroke:none;fill-rule:nonzero;fill:rgb(0%,0%,0%);fill-opacity:1;" d="M 8.382812 86.324219 L 8.382812 86.957031 L 7.738281 86.957031 L 7.738281 86.324219 Z M 8.382812 86.324219 Z M 8.382812 86.324219 "/>
<path style=" stroke:none;fill-rule:nonzero;fill:rgb(0%,0%,0%);fill-opacity:1;" d="M 11.269531 81.609375 C 12.023438 81.664062 12.523438 82.355469 12.660156 83.050781 C 12.730469 83.371094 12.746094 83.671875 12.777344 83.988281 L 12.777344 84.796875 C 12.738281 85.625 12.539062 86.710938 11.644531 87.042969 C 10.867188 87.355469 9.953125 86.871094 9.722656 86.078125 C 9.546875 85.65625 9.53125 85.226562 9.492188 84.796875 L 9.492188 83.988281 C 9.53125 83.164062 9.707031 82.070312 10.597656 81.703125 L 10.636719 81.6875 L 10.667969 81.679688 L 10.707031 81.664062 L 10.824219 81.632812 L 10.898438 81.617188 L 10.984375 81.617188 L 11 81.609375 Z M 11.269531 81.609375 Z M 11.023438 82.09375 C 10.359375 82.171875 10.160156 82.972656 10.113281 83.511719 L 10.113281 83.726562 L 10.097656 83.742188 L 10.097656 84.847656 C 10.144531 85.417969 10.183594 86.15625 10.707031 86.535156 C 11.191406 86.871094 11.835938 86.496094 11.96875 85.980469 C 12.113281 85.601562 12.144531 85.226562 12.175781 84.847656 L 12.175781 83.742188 C 12.128906 83.164062 12.046875 82.355469 11.382812 82.125 L 11.324219 82.109375 L 11.308594 82.09375 L 11.238281 82.09375 L 11.222656 82.078125 L 11.039062 82.078125 Z M 11.023438 82.09375 Z M 11.023438 82.09375 "/>
<path style=" stroke:none;fill-rule:nonzero;fill:rgb(0%,0%,0%);fill-opacity:1;" d="M 5.347656 55.351562 L 5.347656 60.25 L 5.355469 60.265625 L 6.332031 60.265625 L 6.332031 60.703125 L 3.753906 60.703125 L 3.753906 60.265625 L 4.730469 60.265625 L 4.746094 60.25 L 4.746094 56.136719 C 4.414062 56.25 4.0625 56.320312 3.714844 56.3125 L 3.714844 55.867188 C 4.238281 55.875 4.808594 55.734375 5.207031 55.351562 Z M 5.347656 55.351562 Z M 5.347656 55.351562 "/>
<path style=" stroke:none;fill-rule:nonzero;fill:rgb(0%,0%,0%);fill-opacity:1;" d="M 8.382812 60.066406 L 8.382812 60.703125 L 7.738281 60.703125 L 7.738281 60.066406 Z M 8.382812 60.066406 Z M 8.382812 60.066406 "/>
<path style=" stroke:none;fill-rule:nonzero;fill:rgb(0%,0%,0%);fill-opacity:1;" d="M 11.183594 55.351562 C 12.105469 55.375 12.835938 56.320312 12.691406 57.210938 C 12.597656 58.097656 11.761719 58.605469 11.167969 59.164062 L 10.914062 59.425781 L 10.882812 59.441406 L 10.5625 59.75 L 10.539062 59.765625 L 10.222656 60.082031 L 10.191406 60.097656 L 10.121094 60.171875 L 10.136719 60.179688 L 12.707031 60.179688 L 12.707031 60.703125 L 9.5625 60.703125 L 9.5625 60.226562 L 10.84375 58.949219 C 11.453125 58.417969 12.167969 57.726562 12.054688 56.851562 C 11.992188 56.34375 11.5625 55.875 11.039062 55.835938 C 10.507812 55.757812 10.039062 56.179688 9.921875 56.6875 L 9.90625 56.710938 L 9.890625 56.765625 L 9.867188 56.851562 L 9.816406 57.027344 L 9.808594 57.066406 C 9.699219 56.933594 9.578125 56.789062 9.492188 56.636719 C 9.652344 55.988281 10.175781 55.375 10.867188 55.351562 Z M 11.183594 55.351562 Z M 11.183594 55.351562 "/>
<path style=" stroke:none;fill-rule:nonzero;fill:rgb(0%,0%,0%);fill-opacity:1;" d="M 5.347656 29.097656 L 5.347656 33.992188 L 5.355469 34.011719 L 6.332031 34.011719 L 6.332031 34.445312 L 3.753906 34.445312 L 3.753906 34.011719 L 4.730469 34.011719 L 4.746094 33.992188 L 4.746094 29.882812 C 4.414062 29.992188 4.0625 30.066406 3.714844 30.058594 L 3.714844 29.613281 C 4.238281 29.621094 4.808594 29.476562 5.207031 29.097656 Z M 5.347656 29.097656 Z M 5.347656 29.097656 "/>
<path style=" stroke:none;fill-rule:nonzero;fill:rgb(0%,0%,0%);fill-opacity:1;" d="M 8.382812 33.8125 L 8.382812 34.445312 L 7.738281 34.445312 L 7.738281 33.8125 Z M 8.382812 33.8125 Z M 8.382812 33.8125 "/>
<path style=" stroke:none;fill-rule:nonzero;fill:rgb(0%,0%,0%);fill-opacity:1;" d="M 12.089844 29.261719 L 12.089844 32.605469 L 12.105469 32.621094 L 12.890625 32.621094 L 12.890625 33.097656 L 12.105469 33.097656 L 12.089844 33.105469 L 12.089844 34.445312 L 11.484375 34.445312 L 11.484375 33.105469 L 11.46875 33.097656 L 9.375 33.097656 L 9.375 32.605469 C 10.039062 31.492188 10.707031 30.375 11.375 29.261719 Z M 12.089844 29.261719 Z M 11.5 29.566406 C 11.34375 30.390625 10.832031 31.097656 10.453125 31.820312 C 10.300781 32.082031 10.105469 32.367188 9.992188 32.621094 L 11.515625 32.621094 L 11.523438 32.605469 L 11.523438 29.566406 L 11.515625 29.550781 Z M 11.5 29.566406 Z M 11.5 29.566406 "/>
<path style=" stroke:none;fill-rule:nonzero;fill:rgb(0%,0%,0%);fill-opacity:1;" d="M 5.347656 2.839844 L 5.347656 7.738281 L 5.355469 7.753906 L 6.332031 7.753906 L 6.332031 8.191406 L 3.753906 8.191406 L 3.753906 7.753906 L 4.730469 7.753906 L 4.746094 7.738281 L 4.746094 3.628906 C 4.414062 3.738281 4.0625 3.808594 3.714844 3.800781 L 3.714844 3.355469 C 4.238281 3.363281 4.808594 3.222656 5.207031 2.839844 Z M 5.347656 2.839844 Z M 5.347656 2.839844 "/>
<path style=" stroke:none;fill-rule:nonzero;fill:rgb(0%,0%,0%);fill-opacity:1;" d="M 8.382812 7.554688 L 8.382812 8.191406 L 7.738281 8.191406 L 7.738281 7.554688 Z M 8.382812 7.554688 Z M 8.382812 7.554688 "/>
<path style=" stroke:none;fill-rule:nonzero;fill:rgb(0%,0%,0%);fill-opacity:1;" d="M 11.785156 2.839844 C 11.992188 2.875 12.230469 2.898438 12.429688 2.992188 L 12.429688 3.453125 C 11.882812 3.214844 11.167969 3.183594 10.738281 3.667969 C 10.359375 4.070312 10.183594 4.675781 10.167969 5.207031 C 10.628906 4.59375 11.667969 4.253906 12.230469 4.890625 C 12.792969 5.539062 12.890625 6.476562 12.636719 7.269531 C 12.359375 7.90625 11.714844 8.484375 11 8.351562 C 10.03125 8.269531 9.597656 7.191406 9.546875 6.367188 C 9.367188 5.199219 9.644531 3.730469 10.753906 3.0625 L 10.769531 3.054688 L 10.9375 2.96875 L 10.984375 2.953125 L 11.007812 2.9375 L 11.144531 2.898438 L 11.253906 2.863281 L 11.324219 2.847656 L 11.414062 2.847656 L 11.429688 2.839844 Z M 11.785156 2.839844 Z M 11.007812 5.046875 C 10.316406 5.167969 10.097656 6 10.183594 6.5625 C 10.222656 7.09375 10.429688 7.800781 11.039062 7.914062 C 11.691406 8 12.113281 7.300781 12.128906 6.738281 C 12.160156 6.167969 12.128906 5.515625 11.628906 5.144531 L 11.515625 5.085938 L 11.429688 5.0625 L 11.359375 5.046875 L 11.34375 5.03125 L 11.023438 5.03125 Z M 11.007812 5.046875 Z M 11.007812 5.046875 "/>
<path style="fill:none;stroke-width:0.02;stroke-linecap:butt;stroke-linejoin:miter;stroke:rgb(0%,0%,0%);stroke-opacity:1;stroke-miterlimit:10;" d="M 9.751274 1.354686 L 9.646267 1.354686 " transform="matrix(28.346457,0,0,-28.346457,1,227.771654)"/>
<path style="fill:none;stroke-width:0.02;stroke-linecap:butt;stroke-linejoin:miter;stroke:rgb(0%,0%,0%);stroke-opacity:1;stroke-miterlimit:10;" d="M 9.751274 2.280866 L 9.646267 2.280866 " transform="matrix(28.346457,0,0,-28.346457,1,227.771654)"/>
<path style="fill:none;stroke-width:0.02;stroke-linecap:butt;stroke-linejoin:miter;stroke:rgb(0%,0%,0%);stroke-opacity:1;stroke-miterlimit:10;" d="M 9.751274 3.207045 L 9.646267 3.207045 " transform="matrix(28.346457,0,0,-28.346457,1,227.771654)"/>
<path style="fill:none;stroke-width:0.02;stroke-linecap:butt;stroke-linejoin:miter;stroke:rgb(0%,0%,0%);stroke-opacity:1;stroke-miterlimit:10;" d="M 9.751274 4.133363 L 9.646267 4.133363 " transform="matrix(28.346457,0,0,-28.346457,1,227.771654)"/>
<path style="fill:none;stroke-width:0.02;stroke-linecap:butt;stroke-linejoin:miter;stroke:rgb(0%,0%,0%);stroke-opacity:1;stroke-miterlimit:10;" d="M 9.751274 5.059542 L 9.646267 5.059542 " transform="matrix(28.346457,0,0,-28.346457,1,227.771654)"/>
<path style="fill:none;stroke-width:0.02;stroke-linecap:butt;stroke-linejoin:miter;stroke:rgb(0%,0%,0%);stroke-opacity:1;stroke-miterlimit:10;" d="M 9.751274 5.985859 L 9.646267 5.985859 " transform="matrix(28.346457,0,0,-28.346457,1,227.771654)"/>
<path style="fill:none;stroke-width:0.02;stroke-linecap:butt;stroke-linejoin:miter;stroke:rgb(0%,0%,0%);stroke-opacity:1;stroke-miterlimit:10;" d="M 9.751274 6.912039 L 9.646267 6.912039 " transform="matrix(28.346457,0,0,-28.346457,1,227.771654)"/>
<path style="fill:none;stroke-width:0.02;stroke-linecap:round;stroke-linejoin:miter;stroke:rgb(0%,0%,0%);stroke-opacity:1;stroke-miterlimit:10;" d="M 9.751274 0.428369 L 9.751274 7.838356 " transform="matrix(28.346457,0,0,-28.346457,1,227.771654)"/>
<path style="fill:none;stroke-width:0.02;stroke-linecap:butt;stroke-linejoin:miter;stroke:rgb(0%,0%,0%);stroke-opacity:1;stroke-miterlimit:10;" d="M 1.517358 0.428369 L 1.517358 0.533376 " transform="matrix(28.346457,0,0,-28.346457,1,227.771654)"/>
<path style="fill:none;stroke-width:0.02;stroke-linecap:butt;stroke-linejoin:miter;stroke:rgb(0%,0%,0%);stroke-opacity:1;stroke-miterlimit:10;" d="M 2.432237 0.428369 L 2.432237 0.533376 " transform="matrix(28.346457,0,0,-28.346457,1,227.771654)"/>
<path style="fill:none;stroke-width:0.02;stroke-linecap:butt;stroke-linejoin:miter;stroke:rgb(0%,0%,0%);stroke-opacity:1;stroke-miterlimit:10;" d="M 3.347117 0.428369 L 3.347117 0.533376 " transform="matrix(28.346457,0,0,-28.346457,1,227.771654)"/>
<path style="fill:none;stroke-width:0.02;stroke-linecap:butt;stroke-linejoin:miter;stroke:rgb(0%,0%,0%);stroke-opacity:1;stroke-miterlimit:10;" d="M 4.261997 0.428369 L 4.261997 0.533376 " transform="matrix(28.346457,0,0,-28.346457,1,227.771654)"/>
<path style="fill:none;stroke-width:0.02;stroke-linecap:butt;stroke-linejoin:miter;stroke:rgb(0%,0%,0%);stroke-opacity:1;stroke-miterlimit:10;" d="M 5.176876 0.428369 L 5.176876 0.533376 " transform="matrix(28.346457,0,0,-28.346457,1,227.771654)"/>
<path style="fill:none;stroke-width:0.02;stroke-linecap:butt;stroke-linejoin:miter;stroke:rgb(0%,0%,0%);stroke-opacity:1;stroke-miterlimit:10;" d="M 6.091756 0.428369 L 6.091756 0.533376 " transform="matrix(28.346457,0,0,-28.346457,1,227.771654)"/>
<path style="fill:none;stroke-width:0.02;stroke-linecap:butt;stroke-linejoin:miter;stroke:rgb(0%,0%,0%);stroke-opacity:1;stroke-miterlimit:10;" d="M 7.006635 0.428369 L 7.006635 0.533376 " transform="matrix(28.346457,0,0,-28.346457,1,227.771654)"/>
<path style="fill:none;stroke-width:0.02;stroke-linecap:butt;stroke-linejoin:miter;stroke:rgb(0%,0%,0%);stroke-opacity:1;stroke-miterlimit:10;" d="M 7.921515 0.428369 L 7.921515 0.533376 " transform="matrix(28.346457,0,0,-28.346457,1,227.771654)"/>
<path style="fill:none;stroke-width:0.02;stroke-linecap:butt;stroke-linejoin:miter;stroke:rgb(0%,0%,0%);stroke-opacity:1;stroke-miterlimit:10;" d="M 8.836394 0.428369 L 8.836394 0.533376 " transform="matrix(28.346457,0,0,-28.346457,1,227.771654)"/>
<path style="fill:none;stroke-width:0.02;stroke-linecap:round;stroke-linejoin:miter;stroke:rgb(0%,0%,0%);stroke-opacity:1;stroke-miterlimit:10;" d="M 0.602616 0.428369 L 9.751274 0.428369 " transform="matrix(28.346457,0,0,-28.346457,1,227.771654)"/>
<path style=" stroke:none;fill-rule:nonzero;fill:rgb(0%,0%,0%);fill-opacity:1;" d="M 15.132812 220.445312 C 15.886719 220.5 16.386719 221.191406 16.519531 221.890625 C 16.59375 222.207031 16.609375 222.507812 16.640625 222.828125 L 16.640625 223.636719 C 16.601562 224.460938 16.402344 225.550781 15.503906 225.882812 C 14.726562 226.191406 13.8125 225.707031 13.585938 224.914062 C 13.410156 224.492188 13.394531 224.066406 13.355469 223.636719 L 13.355469 222.828125 C 13.394531 222 13.566406 220.90625 14.457031 220.542969 L 14.496094 220.523438 L 14.527344 220.515625 L 14.566406 220.5 L 14.6875 220.46875 L 14.757812 220.453125 L 14.847656 220.453125 L 14.863281 220.445312 Z M 15.132812 220.445312 Z M 14.886719 220.929688 C 14.21875 221.007812 14.019531 221.8125 13.972656 222.351562 L 13.972656 222.566406 L 13.957031 222.582031 L 13.957031 223.683594 C 14.003906 224.253906 14.042969 224.992188 14.566406 225.375 C 15.050781 225.707031 15.695312 225.335938 15.832031 224.820312 C 15.972656 224.4375 16.003906 224.066406 16.035156 223.683594 L 16.035156 222.582031 C 15.988281 222 15.910156 221.191406 15.242188 220.960938 L 15.1875 220.945312 L 15.171875 220.929688 L 15.101562 220.929688 L 15.085938 220.914062 L 14.902344 220.914062 Z M 14.886719 220.929688 Z M 14.886719 220.929688 "/>
<path style=" stroke:none;fill-rule:nonzero;fill:rgb(0%,0%,0%);fill-opacity:1;" d="M 18.410156 225.160156 L 18.410156 225.796875 L 17.765625 225.796875 L 17.765625 225.160156 Z M 18.410156 225.160156 Z M 18.410156 225.160156 "/>
<path style=" stroke:none;fill-rule:nonzero;fill:rgb(0%,0%,0%);fill-opacity:1;" d="M 21.300781 220.445312 C 22.054688 220.5 22.554688 221.191406 22.6875 221.890625 C 22.757812 222.207031 22.773438 222.507812 22.808594 222.828125 L 22.808594 223.636719 C 22.765625 224.460938 22.570312 225.550781 21.671875 225.882812 C 20.894531 226.191406 19.980469 225.707031 19.75 224.914062 C 19.578125 224.492188 19.5625 224.066406 19.519531 223.636719 L 19.519531 222.828125 C 19.5625 222 19.734375 220.90625 20.625 220.542969 L 20.664062 220.523438 L 20.695312 220.515625 L 20.734375 220.5 L 20.855469 220.46875 L 20.925781 220.453125 L 21.011719 220.453125 L 21.027344 220.445312 Z M 21.300781 220.445312 Z M 21.054688 220.929688 C 20.386719 221.007812 20.1875 221.8125 20.140625 222.351562 L 20.140625 222.566406 L 20.125 222.582031 L 20.125 223.683594 C 20.171875 224.253906 20.210938 224.992188 20.734375 225.375 C 21.21875 225.707031 21.863281 225.335938 21.996094 224.820312 C 22.140625 224.4375 22.171875 224.066406 22.203125 223.683594 L 22.203125 222.582031 C 22.15625 222 22.078125 221.191406 21.410156 220.960938 L 21.355469 220.945312 L 21.339844 220.929688 L 21.265625 220.929688 L 21.25 220.914062 L 21.070312 220.914062 Z M 21.054688 220.929688 Z M 21.054688 220.929688 "/>
<path style=" stroke:none;fill-rule:nonzero;fill:rgb(0%,0%,0%);fill-opacity:1;" d="M 41.066406 220.445312 C 41.820312 220.5 42.320312 221.191406 42.453125 221.890625 C 42.527344 222.207031 42.542969 222.507812 42.574219 222.828125 L 42.574219 223.636719 C 42.535156 224.460938 42.335938 225.550781 41.4375 225.882812 C 40.660156 226.191406 39.746094 225.707031 39.515625 224.914062 C 39.34375 224.492188 39.328125 224.066406 39.289062 223.636719 L 39.289062 222.828125 C 39.328125 222 39.5 220.90625 40.390625 220.542969 L 40.429688 220.523438 L 40.460938 220.515625 L 40.5 220.5 L 40.621094 220.46875 L 40.691406 220.453125 L 40.78125 220.453125 L 40.796875 220.445312 Z M 41.066406 220.445312 Z M 40.820312 220.929688 C 40.152344 221.007812 39.953125 221.8125 39.90625 222.351562 L 39.90625 222.566406 L 39.890625 222.582031 L 39.890625 223.683594 C 39.9375 224.253906 39.976562 224.992188 40.5 225.375 C 40.984375 225.707031 41.628906 225.335938 41.761719 224.820312 C 41.90625 224.4375 41.9375 224.066406 41.96875 223.683594 L 41.96875 222.582031 C 41.921875 222 41.84375 221.191406 41.175781 220.960938 L 41.121094 220.945312 L 41.105469 220.929688 L 41.035156 220.929688 L 41.015625 220.914062 L 40.835938 220.914062 Z M 40.820312 220.929688 Z M 40.820312 220.929688 "/>
<path style=" stroke:none;fill-rule:nonzero;fill:rgb(0%,0%,0%);fill-opacity:1;" d="M 44.34375 225.160156 L 44.34375 225.796875 L 43.699219 225.796875 L 43.699219 225.160156 Z M 44.34375 225.160156 Z M 44.34375 225.160156 "/>
<path style=" stroke:none;fill-rule:nonzero;fill:rgb(0%,0%,0%);fill-opacity:1;" d="M 47.476562 220.445312 L 47.476562 225.34375 L 47.484375 225.359375 L 48.460938 225.359375 L 48.460938 225.796875 L 45.882812 225.796875 L 45.882812 225.359375 L 46.859375 225.359375 L 46.875 225.34375 L 46.875 221.230469 C 46.542969 221.34375 46.191406 221.414062 45.84375 221.40625 L 45.84375 220.960938 C 46.367188 220.96875 46.9375 220.828125 47.335938 220.445312 Z M 47.476562 220.445312 Z M 47.476562 220.445312 "/>
<path style=" stroke:none;fill-rule:nonzero;fill:rgb(0%,0%,0%);fill-opacity:1;" d="M 67 220.445312 C 67.753906 220.5 68.253906 221.191406 68.386719 221.890625 C 68.457031 222.207031 68.472656 222.507812 68.507812 222.828125 L 68.507812 223.636719 C 68.464844 224.460938 68.269531 225.550781 67.371094 225.882812 C 66.59375 226.191406 65.679688 225.707031 65.449219 224.914062 C 65.277344 224.492188 65.261719 224.066406 65.21875 223.636719 L 65.21875 222.828125 C 65.261719 222 65.433594 220.90625 66.324219 220.542969 L 66.363281 220.523438 L 66.394531 220.515625 L 66.433594 220.5 L 66.554688 220.46875 L 66.625 220.453125 L 66.710938 220.453125 L 66.726562 220.445312 Z M 67 220.445312 Z M 66.753906 220.929688 C 66.085938 221.007812 65.886719 221.8125 65.839844 222.351562 L 65.839844 222.566406 L 65.824219 222.582031 L 65.824219 223.683594 C 65.871094 224.253906 65.910156 224.992188 66.433594 225.375 C 66.917969 225.707031 67.5625 225.335938 67.695312 224.820312 C 67.839844 224.4375 67.871094 224.066406 67.902344 223.683594 L 67.902344 222.582031 C 67.855469 222 67.777344 221.191406 67.109375 220.960938 L 67.054688 220.945312 L 67.039062 220.929688 L 66.964844 220.929688 L 66.949219 220.914062 L 66.769531 220.914062 Z M 66.753906 220.929688 Z M 66.753906 220.929688 "/>
<path style=" stroke:none;fill-rule:nonzero;fill:rgb(0%,0%,0%);fill-opacity:1;" d="M 70.277344 225.160156 L 70.277344 225.796875 L 69.632812 225.796875 L 69.632812 225.160156 Z M 70.277344 225.160156 Z M 70.277344 225.160156 "/>
<path style=" stroke:none;fill-rule:nonzero;fill:rgb(0%,0%,0%);fill-opacity:1;" d="M 73.078125 220.445312 C 74 220.46875 74.730469 221.414062 74.585938 222.304688 C 74.492188 223.191406 73.65625 223.699219 73.0625 224.253906 L 72.808594 224.515625 L 72.777344 224.535156 L 72.457031 224.84375 L 72.433594 224.859375 L 72.117188 225.175781 L 72.085938 225.191406 L 72.015625 225.261719 L 72.03125 225.273438 L 74.601562 225.273438 L 74.601562 225.796875 L 71.457031 225.796875 L 71.457031 225.320312 L 72.738281 224.042969 C 73.347656 223.507812 74.0625 222.820312 73.949219 221.945312 C 73.886719 221.4375 73.460938 220.96875 72.933594 220.929688 C 72.402344 220.851562 71.933594 221.269531 71.816406 221.777344 L 71.800781 221.804688 L 71.785156 221.859375 L 71.761719 221.945312 L 71.710938 222.121094 L 71.703125 222.160156 C 71.59375 222.023438 71.476562 221.882812 71.386719 221.730469 C 71.546875 221.082031 72.070312 220.46875 72.761719 220.445312 Z M 73.078125 220.445312 Z M 73.078125 220.445312 "/>
<path style=" stroke:none;fill-rule:nonzero;fill:rgb(0%,0%,0%);fill-opacity:1;" d="M 92.929688 220.445312 C 93.683594 220.5 94.183594 221.191406 94.320312 221.890625 C 94.390625 222.207031 94.40625 222.507812 94.441406 222.828125 L 94.441406 223.636719 C 94.398438 224.460938 94.203125 225.550781 93.304688 225.882812 C 92.527344 226.191406 91.613281 225.707031 91.382812 224.914062 C 91.210938 224.492188 91.191406 224.066406 91.152344 223.636719 L 91.152344 222.828125 C 91.191406 222 91.367188 220.90625 92.257812 220.542969 L 92.296875 220.523438 L 92.328125 220.515625 L 92.367188 220.5 L 92.488281 220.46875 L 92.558594 220.453125 L 92.644531 220.453125 L 92.660156 220.445312 Z M 92.929688 220.445312 Z M 92.683594 220.929688 C 92.019531 221.007812 91.820312 221.8125 91.773438 222.351562 L 91.773438 222.566406 L 91.757812 222.582031 L 91.757812 223.683594 C 91.804688 224.253906 91.84375 224.992188 92.367188 225.375 C 92.851562 225.707031 93.496094 225.335938 93.628906 224.820312 C 93.773438 224.4375 93.804688 224.066406 93.835938 223.683594 L 93.835938 222.582031 C 93.789062 222 93.710938 221.191406 93.042969 220.960938 L 92.988281 220.945312 L 92.972656 220.929688 L 92.898438 220.929688 L 92.882812 220.914062 L 92.703125 220.914062 Z M 92.683594 220.929688 Z M 92.683594 220.929688 "/>
<path style=" stroke:none;fill-rule:nonzero;fill:rgb(0%,0%,0%);fill-opacity:1;" d="M 96.210938 225.160156 L 96.210938 225.796875 L 95.566406 225.796875 L 95.566406 225.160156 Z M 96.210938 225.160156 Z M 96.210938 225.160156 "/>
<path style=" stroke:none;fill-rule:nonzero;fill:rgb(0%,0%,0%);fill-opacity:1;" d="M 99.113281 220.445312 C 99.8125 220.476562 100.542969 221.121094 100.375 221.859375 C 100.296875 222.359375 99.949219 222.769531 99.511719 222.992188 C 100.21875 223.214844 100.765625 223.960938 100.574219 224.699219 C 100.382812 225.660156 99.28125 226.191406 98.390625 225.898438 C 97.964844 225.773438 97.527344 225.5 97.320312 225.105469 C 97.367188 224.984375 97.351562 224.78125 97.40625 224.699219 C 97.828125 225.320312 98.71875 225.738281 99.414062 225.390625 C 100.179688 224.90625 100.058594 223.492188 99.136719 223.253906 L 99.066406 223.253906 L 99.050781 223.238281 L 98.3125 223.238281 L 98.3125 222.761719 C 98.765625 222.753906 99.328125 222.699219 99.582031 222.230469 C 99.851562 221.828125 99.828125 221.160156 99.3125 220.960938 C 98.703125 220.722656 97.949219 221.113281 97.71875 221.730469 C 97.621094 221.597656 97.527344 221.460938 97.433594 221.320312 C 97.757812 220.730469 98.449219 220.382812 99.113281 220.445312 Z M 99.113281 220.445312 Z M 99.113281 220.445312 "/>
<path style=" stroke:none;fill-rule:nonzero;fill:rgb(0%,0%,0%);fill-opacity:1;" d="M 118.863281 220.445312 C 119.617188 220.5 120.117188 221.191406 120.253906 221.890625 C 120.324219 222.207031 120.339844 222.507812 120.371094 222.828125 L 120.371094 223.636719 C 120.332031 224.460938 120.132812 225.550781 119.238281 225.882812 C 118.460938 226.191406 117.546875 225.707031 117.316406 224.914062 C 117.140625 224.492188 117.125 224.066406 117.085938 223.636719 L 117.085938 222.828125 C 117.125 222 117.300781 220.90625 118.191406 220.542969 L 118.230469 220.523438 L 118.261719 220.515625 L 118.300781 220.5 L 118.421875 220.46875 L 118.492188 220.453125 L 118.578125 220.453125 L 118.59375 220.445312 Z M 118.863281 220.445312 Z M 118.617188 220.929688 C 117.953125 221.007812 117.753906 221.8125 117.707031 222.351562 L 117.707031 222.566406 L 117.691406 222.582031 L 117.691406 223.683594 C 117.738281 224.253906 117.777344 224.992188 118.300781 225.375 C 118.785156 225.707031 119.429688 225.335938 119.5625 224.820312 C 119.707031 224.4375 119.738281 224.066406 119.769531 223.683594 L 119.769531 222.582031 C 119.722656 222 119.640625 221.191406 118.976562 220.960938 L 118.921875 220.945312 L 118.90625 220.929688 L 118.832031 220.929688 L 118.816406 220.914062 L 118.632812 220.914062 Z M 118.617188 220.929688 Z M 118.617188 220.929688 "/>
<path style=" stroke:none;fill-rule:nonzero;fill:rgb(0%,0%,0%);fill-opacity:1;" d="M 122.144531 225.160156 L 122.144531 225.796875 L 121.5 225.796875 L 121.5 225.160156 Z M 122.144531 225.160156 Z M 122.144531 225.160156 "/>
<path style=" stroke:none;fill-rule:nonzero;fill:rgb(0%,0%,0%);fill-opacity:1;" d="M 125.847656 220.613281 L 125.847656 223.953125 L 125.863281 223.96875 L 126.652344 223.96875 L 126.652344 224.445312 L 125.863281 224.445312 L 125.847656 224.453125 L 125.847656 225.796875 L 125.246094 225.796875 L 125.246094 224.453125 L 125.230469 224.445312 L 123.136719 224.445312 L 123.136719 223.953125 C 123.800781 222.84375 124.46875 221.722656 125.136719 220.613281 Z M 125.847656 220.613281 Z M 125.261719 220.914062 C 125.101562 221.738281 124.59375 222.445312 124.214844 223.167969 C 124.0625 223.429688 123.863281 223.714844 123.753906 223.96875 L 125.277344 223.96875 L 125.285156 223.953125 L 125.285156 220.914062 L 125.277344 220.898438 Z M 125.261719 220.914062 Z M 125.261719 220.914062 "/>
<path style=" stroke:none;fill-rule:nonzero;fill:rgb(0%,0%,0%);fill-opacity:1;" d="M 144.796875 220.445312 C 145.550781 220.5 146.050781 221.191406 146.1875 221.890625 C 146.257812 222.207031 146.273438 222.507812 146.304688 222.828125 L 146.304688 223.636719 C 146.265625 224.460938 146.066406 225.550781 145.171875 225.882812 C 144.394531 226.191406 143.480469 225.707031 143.25 224.914062 C 143.074219 224.492188 143.058594 224.066406 143.019531 223.636719 L 143.019531 222.828125 C 143.058594 222 143.234375 220.90625 144.125 220.542969 L 144.164062 220.523438 L 144.195312 220.515625 L 144.234375 220.5 L 144.351562 220.46875 L 144.425781 220.453125 L 144.511719 220.453125 L 144.527344 220.445312 Z M 144.796875 220.445312 Z M 144.550781 220.929688 C 143.886719 221.007812 143.6875 221.8125 143.640625 222.351562 L 143.640625 222.566406 L 143.625 222.582031 L 143.625 223.683594 C 143.671875 224.253906 143.710938 224.992188 144.234375 225.375 C 144.71875 225.707031 145.363281 225.335938 145.496094 224.820312 C 145.640625 224.4375 145.671875 224.066406 145.703125 223.683594 L 145.703125 222.582031 C 145.65625 222 145.574219 221.191406 144.910156 220.960938 L 144.851562 220.945312 L 144.835938 220.929688 L 144.765625 220.929688 L 144.75 220.914062 L 144.566406 220.914062 Z M 144.550781 220.929688 Z M 144.550781 220.929688 "/>
<path style=" stroke:none;fill-rule:nonzero;fill:rgb(0%,0%,0%);fill-opacity:1;" d="M 148.074219 225.160156 L 148.074219 225.796875 L 147.433594 225.796875 L 147.433594 225.160156 Z M 148.074219 225.160156 Z M 148.074219 225.160156 "/>
<path style=" stroke:none;fill-rule:nonzero;fill:rgb(0%,0%,0%);fill-opacity:1;" d="M 152.140625 220.613281 L 152.140625 221.105469 L 150.074219 221.105469 L 150.058594 221.113281 L 150.058594 222.738281 C 150.25 222.613281 150.519531 222.445312 150.773438 222.4375 C 151.671875 222.34375 152.363281 223.222656 152.402344 224.042969 C 152.527344 225.082031 151.550781 226.113281 150.503906 225.953125 C 149.980469 225.9375 149.472656 225.628906 149.171875 225.199219 C 149.257812 225.082031 149.328125 224.875 149.433594 224.804688 C 149.804688 225.535156 151.011719 225.828125 151.496094 225.058594 C 151.804688 224.476562 151.796875 223.738281 151.441406 223.183594 C 151.027344 222.652344 150.210938 222.976562 150.019531 223.542969 L 149.503906 223.542969 L 149.503906 220.613281 Z M 152.140625 220.613281 Z M 152.140625 220.613281 "/>
<path style=" stroke:none;fill-rule:nonzero;fill:rgb(0%,0%,0%);fill-opacity:1;" d="M 170.730469 220.445312 C 171.484375 220.5 171.984375 221.191406 172.121094 221.890625 C 172.191406 222.207031 172.207031 222.507812 172.238281 222.828125 L 172.238281 223.636719 C 172.199219 224.460938 172 225.550781 171.105469 225.882812 C 170.328125 226.191406 169.414062 225.707031 169.183594 224.914062 C 169.007812 224.492188 168.992188 224.066406 168.953125 223.636719 L 168.953125 222.828125 C 168.992188 222 169.167969 220.90625 170.054688 220.542969 L 170.097656 220.523438 L 170.128906 220.515625 L 170.167969 220.5 L 170.285156 220.46875 L 170.359375 220.453125 L 170.445312 220.453125 L 170.460938 220.445312 Z M 170.730469 220.445312 Z M 170.484375 220.929688 C 169.816406 221.007812 169.621094 221.8125 169.574219 222.351562 L 169.574219 222.566406 L 169.554688 222.582031 L 169.554688 223.683594 C 169.605469 224.253906 169.644531 224.992188 170.167969 225.375 C 170.652344 225.707031 171.292969 225.335938 171.429688 224.820312 C 171.574219 224.4375 171.605469 224.066406 171.636719 223.683594 L 171.636719 222.582031 C 171.589844 222 171.507812 221.191406 170.84375 220.960938 L 170.785156 220.945312 L 170.769531 220.929688 L 170.699219 220.929688 L 170.683594 220.914062 L 170.5 220.914062 Z M 170.484375 220.929688 Z M 170.484375 220.929688 "/>
<path style=" stroke:none;fill-rule:nonzero;fill:rgb(0%,0%,0%);fill-opacity:1;" d="M 174.007812 225.160156 L 174.007812 225.796875 L 173.367188 225.796875 L 173.367188 225.160156 Z M 174.007812 225.160156 Z M 174.007812 225.160156 "/>
<path style=" stroke:none;fill-rule:nonzero;fill:rgb(0%,0%,0%);fill-opacity:1;" d="M 177.414062 220.445312 C 177.621094 220.476562 177.859375 220.5 178.058594 220.597656 L 178.058594 221.058594 C 177.507812 220.820312 176.796875 220.785156 176.367188 221.269531 C 175.984375 221.675781 175.8125 222.277344 175.792969 222.8125 C 176.253906 222.199219 177.296875 221.859375 177.859375 222.492188 C 178.421875 223.144531 178.515625 224.082031 178.261719 224.875 C 177.984375 225.507812 177.34375 226.089844 176.628906 225.953125 C 175.660156 225.875 175.222656 224.796875 175.175781 223.96875 C 174.992188 222.804688 175.269531 221.335938 176.382812 220.667969 L 176.398438 220.660156 L 176.566406 220.574219 L 176.613281 220.558594 L 176.636719 220.542969 L 176.769531 220.5 L 176.882812 220.46875 L 176.953125 220.453125 L 177.042969 220.453125 L 177.058594 220.445312 Z M 177.414062 220.445312 Z M 176.636719 222.652344 C 175.945312 222.769531 175.722656 223.605469 175.8125 224.167969 C 175.851562 224.699219 176.058594 225.40625 176.667969 225.515625 C 177.320312 225.605469 177.738281 224.90625 177.753906 224.34375 C 177.785156 223.769531 177.753906 223.121094 177.253906 222.746094 L 177.144531 222.691406 L 177.058594 222.667969 L 176.984375 222.652344 L 176.96875 222.636719 L 176.652344 222.636719 Z M 176.636719 222.652344 Z M 176.636719 222.652344 "/>
<path style=" stroke:none;fill-rule:nonzero;fill:rgb(0%,0%,0%);fill-opacity:1;" d="M 196.664062 220.445312 C 197.417969 220.5 197.917969 221.191406 198.054688 221.890625 C 198.125 222.207031 198.140625 222.507812 198.171875 222.828125 L 198.171875 223.636719 C 198.132812 224.460938 197.933594 225.550781 197.039062 225.882812 C 196.257812 226.191406 195.347656 225.707031 195.117188 224.914062 C 194.941406 224.492188 194.925781 224.066406 194.886719 223.636719 L 194.886719 222.828125 C 194.925781 222 195.101562 220.90625 195.988281 220.542969 L 196.03125 220.523438 L 196.0625 220.515625 L 196.101562 220.5 L 196.21875 220.46875 L 196.292969 220.453125 L 196.378906 220.453125 L 196.394531 220.445312 Z M 196.664062 220.445312 Z M 196.417969 220.929688 C 195.75 221.007812 195.554688 221.8125 195.503906 222.351562 L 195.503906 222.566406 L 195.488281 222.582031 L 195.488281 223.683594 C 195.539062 224.253906 195.578125 224.992188 196.101562 225.375 C 196.585938 225.707031 197.226562 225.335938 197.363281 224.820312 C 197.503906 224.4375 197.539062 224.066406 197.570312 223.683594 L 197.570312 222.582031 C 197.523438 222 197.441406 221.191406 196.777344 220.960938 L 196.71875 220.945312 L 196.703125 220.929688 L 196.632812 220.929688 L 196.617188 220.914062 L 196.433594 220.914062 Z M 196.417969 220.929688 Z M 196.417969 220.929688 "/>
<path style=" stroke:none;fill-rule:nonzero;fill:rgb(0%,0%,0%);fill-opacity:1;" d="M 199.941406 225.160156 L 199.941406 225.796875 L 199.300781 225.796875 L 199.300781 225.160156 Z M 199.941406 225.160156 Z M 199.941406 225.160156 "/>
<path style=" stroke:none;fill-rule:nonzero;fill:rgb(0%,0%,0%);fill-opacity:1;" d="M 204.339844 220.613281 L 204.339844 221.113281 C 203.210938 222.429688 202.578125 224.207031 202.585938 225.882812 L 201.941406 225.882812 C 201.925781 224.191406 202.617188 222.40625 203.824219 221.160156 L 203.808594 221.144531 L 201.054688 221.144531 L 201.054688 220.613281 L 204.339844 220.613281 L 204.339844 221.113281 Z M 204.339844 220.613281 Z M 204.339844 220.613281 "/>
<path style=" stroke:none;fill-rule:nonzero;fill:rgb(0%,0%,0%);fill-opacity:1;" d="M 222.597656 220.445312 C 223.351562 220.5 223.851562 221.191406 223.988281 221.890625 C 224.058594 222.207031 224.074219 222.507812 224.105469 222.828125 L 224.105469 223.636719 C 224.066406 224.460938 223.867188 225.550781 222.96875 225.882812 C 222.191406 226.191406 221.28125 225.707031 221.050781 224.914062 C 220.875 224.492188 220.859375 224.066406 220.820312 223.636719 L 220.820312 222.828125 C 220.859375 222 221.035156 220.90625 221.921875 220.542969 L 221.960938 220.523438 L 221.996094 220.515625 L 222.035156 220.5 L 222.152344 220.46875 L 222.222656 220.453125 L 222.3125 220.453125 L 222.328125 220.445312 Z M 222.597656 220.445312 Z M 222.351562 220.929688 C 221.683594 221.007812 221.488281 221.8125 221.4375 222.351562 L 221.4375 222.566406 L 221.421875 222.582031 L 221.421875 223.683594 C 221.46875 224.253906 221.511719 224.992188 222.035156 225.375 C 222.519531 225.707031 223.160156 225.335938 223.296875 224.820312 C 223.4375 224.4375 223.46875 224.066406 223.503906 223.683594 L 223.503906 222.582031 C 223.453125 222 223.375 221.191406 222.707031 220.960938 L 222.652344 220.945312 L 222.636719 220.929688 L 222.566406 220.929688 L 222.550781 220.914062 L 222.367188 220.914062 Z M 222.351562 220.929688 Z M 222.351562 220.929688 "/>
<path style=" stroke:none;fill-rule:nonzero;fill:rgb(0%,0%,0%);fill-opacity:1;" d="M 225.875 225.160156 L 225.875 225.796875 L 225.234375 225.796875 L 225.234375 225.160156 Z M 225.875 225.160156 Z M 225.875 225.160156 "/>
<path style=" stroke:none;fill-rule:nonzero;fill:rgb(0%,0%,0%);fill-opacity:1;" d="M 228.78125 220.445312 C 229.621094 220.476562 230.414062 221.382812 230.082031 222.222656 C 229.9375 222.613281 229.542969 222.851562 229.21875 223.015625 C 230.027344 223.253906 230.519531 224.199219 230.152344 224.976562 C 229.773438 225.984375 228.328125 226.304688 227.535156 225.574219 C 226.8125 225 226.789062 223.761719 227.589844 223.253906 C 227.707031 223.128906 227.929688 223.089844 228.035156 222.992188 C 227.34375 222.796875 226.875 221.992188 227.199219 221.320312 C 227.464844 220.714844 228.136719 220.382812 228.78125 220.445312 Z M 228.78125 220.445312 Z M 228.480469 220.898438 C 227.890625 220.914062 227.480469 221.582031 227.675781 222.105469 C 227.90625 223.007812 229.421875 222.976562 229.597656 222.050781 C 229.757812 221.53125 229.34375 220.914062 228.78125 220.898438 L 228.765625 220.890625 L 228.496094 220.890625 Z M 228.480469 220.898438 Z M 228.496094 223.253906 C 227.804688 223.304688 227.464844 224.128906 227.644531 224.714844 C 227.765625 225.550781 228.953125 225.796875 229.421875 225.128906 C 229.875 224.515625 229.652344 223.421875 228.835938 223.253906 L 228.765625 223.253906 L 228.75 223.238281 L 228.503906 223.238281 Z M 228.496094 223.253906 Z M 228.496094 223.253906 "/>
<path style=" stroke:none;fill-rule:nonzero;fill:rgb(0%,0%,0%);fill-opacity:1;" d="M 248.53125 220.445312 C 249.285156 220.5 249.785156 221.191406 249.917969 221.890625 C 249.992188 222.207031 250.007812 222.507812 250.039062 222.828125 L 250.039062 223.636719 C 250 224.460938 249.800781 225.550781 248.902344 225.882812 C 248.125 226.191406 247.214844 225.707031 246.984375 224.914062 C 246.808594 224.492188 246.792969 224.066406 246.753906 223.636719 L 246.753906 222.828125 C 246.792969 222 246.96875 220.90625 247.855469 220.542969 L 247.894531 220.523438 L 247.925781 220.515625 L 247.96875 220.5 L 248.085938 220.46875 L 248.15625 220.453125 L 248.246094 220.453125 L 248.261719 220.445312 Z M 248.53125 220.445312 Z M 248.285156 220.929688 C 247.617188 221.007812 247.417969 221.8125 247.371094 222.351562 L 247.371094 222.566406 L 247.355469 222.582031 L 247.355469 223.683594 C 247.402344 224.253906 247.441406 224.992188 247.96875 225.375 C 248.453125 225.707031 249.09375 225.335938 249.230469 224.820312 C 249.371094 224.4375 249.402344 224.066406 249.433594 223.683594 L 249.433594 222.582031 C 249.386719 222 249.308594 221.191406 248.640625 220.960938 L 248.585938 220.945312 L 248.570312 220.929688 L 248.5 220.929688 L 248.484375 220.914062 L 248.300781 220.914062 Z M 248.285156 220.929688 Z M 248.285156 220.929688 "/>
<path style=" stroke:none;fill-rule:nonzero;fill:rgb(0%,0%,0%);fill-opacity:1;" d="M 251.808594 225.160156 L 251.808594 225.796875 L 251.164062 225.796875 L 251.164062 225.160156 Z M 251.808594 225.160156 Z M 251.808594 225.160156 "/>
<path style=" stroke:none;fill-rule:nonzero;fill:rgb(0%,0%,0%);fill-opacity:1;" d="M 254.730469 220.445312 C 255.683594 220.550781 256.09375 221.628906 256.15625 222.453125 C 256.269531 223.523438 256.140625 224.78125 255.269531 225.550781 C 254.722656 226.097656 253.753906 226.113281 253.164062 225.621094 C 253.238281 225.484375 253.316406 225.328125 253.402344 225.214844 C 253.921875 225.714844 254.824219 225.574219 255.15625 224.929688 C 255.394531 224.542969 255.539062 224.042969 255.53125 223.613281 C 255.0625 224.214844 254.03125 224.566406 253.46875 223.929688 C 252.894531 223.269531 252.792969 222.3125 253.078125 221.515625 C 253.371094 220.890625 254 220.351562 254.730469 220.445312 Z M 254.730469 220.445312 Z M 254.46875 220.898438 C 253.894531 220.945312 253.601562 221.582031 253.5625 222.082031 C 253.539062 222.644531 253.5625 223.304688 254.0625 223.667969 C 254.617188 224.007812 255.332031 223.597656 255.460938 222.992188 C 255.609375 222.40625 255.515625 221.777344 255.214844 221.230469 C 255.046875 221 254.746094 220.835938 254.46875 220.898438 Z M 254.46875 220.898438 Z M 254.46875 220.898438 "/>
<path style=" stroke:none;fill-rule:nonzero;fill:rgb(0%,0%,0%);fill-opacity:1;" d="M 274.710938 220.445312 L 274.710938 225.34375 L 274.71875 225.359375 L 275.695312 225.359375 L 275.695312 225.796875 L 273.113281 225.796875 L 273.113281 225.359375 L 274.089844 225.359375 L 274.105469 225.34375 L 274.105469 221.230469 C 273.773438 221.34375 273.425781 221.414062 273.074219 221.40625 L 273.074219 220.960938 C 273.597656 220.96875 274.171875 220.828125 274.566406 220.445312 Z M 274.710938 220.445312 Z M 274.710938 220.445312 "/>
<path style=" stroke:none;fill-rule:nonzero;fill:rgb(0%,0%,0%);fill-opacity:1;" d="M 277.742188 225.160156 L 277.742188 225.796875 L 277.097656 225.796875 L 277.097656 225.160156 Z M 277.742188 225.160156 Z M 277.742188 225.160156 "/>
<path style=" stroke:none;fill-rule:nonzero;fill:rgb(0%,0%,0%);fill-opacity:1;" d="M 280.632812 220.445312 C 281.386719 220.5 281.886719 221.191406 282.019531 221.890625 C 282.089844 222.207031 282.105469 222.507812 282.140625 222.828125 L 282.140625 223.636719 C 282.097656 224.460938 281.902344 225.550781 281.003906 225.882812 C 280.226562 226.191406 279.3125 225.707031 279.082031 224.914062 C 278.910156 224.492188 278.894531 224.066406 278.851562 223.636719 L 278.851562 222.828125 C 278.894531 222 279.066406 220.90625 279.957031 220.542969 L 279.996094 220.523438 L 280.027344 220.515625 L 280.066406 220.5 L 280.1875 220.46875 L 280.257812 220.453125 L 280.34375 220.453125 L 280.359375 220.445312 Z M 280.632812 220.445312 Z M 280.386719 220.929688 C 279.71875 221.007812 279.519531 221.8125 279.472656 222.351562 L 279.472656 222.566406 L 279.457031 222.582031 L 279.457031 223.683594 C 279.503906 224.253906 279.542969 224.992188 280.066406 225.375 C 280.550781 225.707031 281.195312 225.335938 281.328125 224.820312 C 281.472656 224.4375 281.503906 224.066406 281.535156 223.683594 L 281.535156 222.582031 C 281.488281 222 281.410156 221.191406 280.742188 220.960938 L 280.6875 220.945312 L 280.671875 220.929688 L 280.597656 220.929688 L 280.582031 220.914062 L 280.402344 220.914062 Z M 280.386719 220.929688 Z M 280.386719 220.929688 "/>
<path style="fill:none;stroke-width:0.02;stroke-linecap:butt;stroke-linejoin:miter;stroke:rgb(0%,0%,0%);stroke-opacity:1;stroke-miterlimit:10;" d="M 1.517358 7.838356 L 1.517358 7.73335 " transform="matrix(28.346457,0,0,-28.346457,1,227.771654)"/>
<path style="fill:none;stroke-width:0.02;stroke-linecap:butt;stroke-linejoin:miter;stroke:rgb(0%,0%,0%);stroke-opacity:1;stroke-miterlimit:10;" d="M 2.432237 7.838356 L 2.432237 7.73335 " transform="matrix(28.346457,0,0,-28.346457,1,227.771654)"/>
<path style="fill:none;stroke-width:0.02;stroke-linecap:butt;stroke-linejoin:miter;stroke:rgb(0%,0%,0%);stroke-opacity:1;stroke-miterlimit:10;" d="M 3.347117 7.838356 L 3.347117 7.73335 " transform="matrix(28.346457,0,0,-28.346457,1,227.771654)"/>
<path style="fill:none;stroke-width:0.02;stroke-linecap:butt;stroke-linejoin:miter;stroke:rgb(0%,0%,0%);stroke-opacity:1;stroke-miterlimit:10;" d="M 4.261997 7.838356 L 4.261997 7.73335 " transform="matrix(28.346457,0,0,-28.346457,1,227.771654)"/>
<path style="fill:none;stroke-width:0.02;stroke-linecap:butt;stroke-linejoin:miter;stroke:rgb(0%,0%,0%);stroke-opacity:1;stroke-miterlimit:10;" d="M 5.176876 7.838356 L 5.176876 7.73335 " transform="matrix(28.346457,0,0,-28.346457,1,227.771654)"/>
<path style="fill:none;stroke-width:0.02;stroke-linecap:butt;stroke-linejoin:miter;stroke:rgb(0%,0%,0%);stroke-opacity:1;stroke-miterlimit:10;" d="M 6.091756 7.838356 L 6.091756 7.73335 " transform="matrix(28.346457,0,0,-28.346457,1,227.771654)"/>
<path style="fill:none;stroke-width:0.02;stroke-linecap:butt;stroke-linejoin:miter;stroke:rgb(0%,0%,0%);stroke-opacity:1;stroke-miterlimit:10;" d="M 7.006635 7.838356 L 7.006635 7.73335 " transform="matrix(28.346457,0,0,-28.346457,1,227.771654)"/>
<path style="fill:none;stroke-width:0.02;stroke-linecap:butt;stroke-linejoin:miter;stroke:rgb(0%,0%,0%);stroke-opacity:1;stroke-miterlimit:10;" d="M 7.921515 7.838356 L 7.921515 7.73335 " transform="matrix(28.346457,0,0,-28.346457,1,227.771654)"/>
<path style="fill:none;stroke-width:0.02;stroke-linecap:butt;stroke-linejoin:miter;stroke:rgb(0%,0%,0%);stroke-opacity:1;stroke-miterlimit:10;" d="M 8.836394 7.838356 L 8.836394 7.73335 " transform="matrix(28.346457,0,0,-28.346457,1,227.771654)"/>
<path style="fill:none;stroke-width:0.02;stroke-linecap:round;stroke-linejoin:miter;stroke:rgb(0%,0%,0%);stroke-opacity:1;stroke-miterlimit:10;" d="M 0.602616 7.838356 L 9.751274 7.838356 " transform="matrix(28.346457,0,0,-28.346457,1,227.771654)"/>
<path style="fill-rule:nonzero;fill:rgb(32.941176%,47.058824%,63.921569%);fill-opacity:1;stroke-width:0.02;stroke-linecap:butt;stroke-linejoin:round;stroke:rgb(32.941176%,47.058824%,63.921569%);stroke-opacity:1;stroke-miterlimit:10;" d="M 0.725124 0.428369 C 0.725124 0.591667 0.480109 0.591667 0.480109 0.428369 C 0.480109 0.265072 0.725124 0.265072 0.725124 0.428369 Z M 0.725124 0.428369 " transform="matrix(28.346457,0,0,-28.346457,1,227.771654)"/>
<path style="fill-rule:nonzero;fill:rgb(32.941176%,47.058824%,63.921569%);fill-opacity:1;stroke-width:0.02;stroke-linecap:butt;stroke-linejoin:round;stroke:rgb(32.941176%,47.058824%,63.921569%);stroke-opacity:1;stroke-miterlimit:10;" d="M 1.106289 0.621294 C 1.106289 0.784592 0.861274 0.784592 0.861274 0.621294 C 0.861274 0.457997 1.106289 0.457997 1.106289 0.621294 Z M 1.106289 0.621294 " transform="matrix(28.346457,0,0,-28.346457,1,227.771654)"/>
<path style="fill-rule:nonzero;fill:rgb(32.941176%,47.058824%,63.921569%);fill-opacity:1;stroke-width:0.02;stroke-linecap:butt;stroke-linejoin:round;stroke:rgb(32.941176%,47.058824%,63.921569%);stroke-opacity:1;stroke-miterlimit:10;" d="M 1.487454 0.813944 C 1.487454 0.977242 1.242439 0.977242 1.242439 0.813944 C 1.242439 0.650509 1.487454 0.650509 1.487454 0.813944 Z M 1.487454 0.813944 " transform="matrix(28.346457,0,0,-28.346457,1,227.771654)"/>
<path style="fill-rule:nonzero;fill:rgb(32.941176%,47.058824%,63.921569%);fill-opacity:1;stroke-width:0.02;stroke-linecap:butt;stroke-linejoin:round;stroke:rgb(32.941176%,47.058824%,63.921569%);stroke-opacity:1;stroke-miterlimit:10;" d="M 1.86862 1.005767 C 1.86862 1.169065 1.623605 1.169065 1.623605 1.005767 C 1.623605 0.84247 1.86862 0.84247 1.86862 1.005767 Z M 1.86862 1.005767 " transform="matrix(28.346457,0,0,-28.346457,1,227.771654)"/>
<path style="fill-rule:nonzero;fill:rgb(32.941176%,47.058824%,63.921569%);fill-opacity:1;stroke-width:0.02;stroke-linecap:butt;stroke-linejoin:round;stroke:rgb(32.941176%,47.058824%,63.921569%);stroke-opacity:1;stroke-miterlimit:10;" d="M 2.249785 1.196763 C 2.249785 1.360061 2.00477 1.360061 2.00477 1.196763 C 2.00477 1.033328 2.249785 1.033328 2.249785 1.196763 Z M 2.249785 1.196763 " transform="matrix(28.346457,0,0,-28.346457,1,227.771654)"/>
<path style="fill-rule:nonzero;fill:rgb(32.941176%,47.058824%,63.921569%);fill-opacity:1;stroke-width:0.02;stroke-linecap:butt;stroke-linejoin:round;stroke:rgb(32.941176%,47.058824%,63.921569%);stroke-opacity:1;stroke-miterlimit:10;" d="M 2.631088 1.386243 C 2.631088 1.549541 2.386073 1.549541 2.386073 1.386243 C 2.386073 1.222946 2.631088 1.222946 2.631088 1.386243 Z M 2.631088 1.386243 " transform="matrix(28.346457,0,0,-28.346457,1,227.771654)"/>
<path style="fill-rule:nonzero;fill:rgb(32.941176%,47.058824%,63.921569%);fill-opacity:1;stroke-width:0.02;stroke-linecap:butt;stroke-linejoin:round;stroke:rgb(32.941176%,47.058824%,63.921569%);stroke-opacity:1;stroke-miterlimit:10;" d="M 3.012254 1.574208 C 3.012254 1.737505 2.767238 1.737505 2.767238 1.574208 C 2.767238 1.410773 3.012254 1.410773 3.012254 1.574208 Z M 3.012254 1.574208 " transform="matrix(28.346457,0,0,-28.346457,1,227.771654)"/>
<path style="fill-rule:nonzero;fill:rgb(32.941176%,47.058824%,63.921569%);fill-opacity:1;stroke-width:0.02;stroke-linecap:butt;stroke-linejoin:round;stroke:rgb(32.941176%,47.058824%,63.921569%);stroke-opacity:1;stroke-miterlimit:10;" d="M 3.393419 1.760105 C 3.393419 1.923403 3.148404 1.923403 3.148404 1.760105 C 3.148404 1.596808 3.393419 1.596808 3.393419 1.760105 Z M 3.393419 1.760105 " transform="matrix(28.346457,0,0,-28.346457,1,227.771654)"/>
<path style="fill-rule:nonzero;fill:rgb(32.941176%,47.058824%,63.921569%);fill-opacity:1;stroke-width:0.02;stroke-linecap:butt;stroke-linejoin:round;stroke:rgb(32.941176%,47.058824%,63.921569%);stroke-opacity:1;stroke-miterlimit:10;" d="M 3.774584 1.94366 C 3.774584 2.107095 3.529569 2.107095 3.529569 1.94366 C 3.529569 1.780362 3.774584 1.780362 3.774584 1.94366 Z M 3.774584 1.94366 " transform="matrix(28.346457,0,0,-28.346457,1,227.771654)"/>
<path style="fill-rule:nonzero;fill:rgb(32.941176%,47.058824%,63.921569%);fill-opacity:1;stroke-width:0.02;stroke-linecap:butt;stroke-linejoin:round;stroke:rgb(32.941176%,47.058824%,63.921569%);stroke-opacity:1;stroke-miterlimit:10;" d="M 4.15575 2.124734 C 4.15575 2.288032 3.910872 2.288032 3.910872 2.124734 C 3.910872 1.961299 4.15575 1.961299 4.15575 2.124734 Z M 4.15575 2.124734 " transform="matrix(28.346457,0,0,-28.346457,1,227.771654)"/>
<path style="fill-rule:nonzero;fill:rgb(32.941176%,47.058824%,63.921569%);fill-opacity:1;stroke-width:0.02;stroke-linecap:butt;stroke-linejoin:round;stroke:rgb(32.941176%,47.058824%,63.921569%);stroke-opacity:1;stroke-miterlimit:10;" d="M 4.537053 2.302777 C 4.537053 2.466074 4.292038 2.466074 4.292038 2.302777 C 4.292038 2.139341 4.537053 2.139341 4.537053 2.302777 Z M 4.537053 2.302777 " transform="matrix(28.346457,0,0,-28.346457,1,227.771654)"/>
<path style="fill-rule:nonzero;fill:rgb(32.941176%,47.058824%,63.921569%);fill-opacity:1;stroke-width:0.02;stroke-linecap:butt;stroke-linejoin:round;stroke:rgb(32.941176%,47.058824%,63.921569%);stroke-opacity:1;stroke-miterlimit:10;" d="M 4.918218 2.477512 C 4.918218 2.640809 4.673203 2.640809 4.673203 2.477512 C 4.673203 2.314214 4.918218 2.314214 4.918218 2.477512 Z M 4.918218 2.477512 " transform="matrix(28.346457,0,0,-28.346457,1,227.771654)"/>
<path style="fill-rule:nonzero;fill:rgb(32.941176%,47.058824%,63.921569%);fill-opacity:1;stroke-width:0.02;stroke-linecap:butt;stroke-linejoin:round;stroke:rgb(32.941176%,47.058824%,63.921569%);stroke-opacity:1;stroke-miterlimit:10;" d="M 5.299384 2.648664 C 5.299384 2.8121 5.054368 2.8121 5.054368 2.648664 C 5.054368 2.485367 5.299384 2.485367 5.299384 2.648664 Z M 5.299384 2.648664 " transform="matrix(28.346457,0,0,-28.346457,1,227.771654)"/>
<path style="fill-rule:nonzero;fill:rgb(32.941176%,47.058824%,63.921569%);fill-opacity:1;stroke-width:0.02;stroke-linecap:butt;stroke-linejoin:round;stroke:rgb(32.941176%,47.058824%,63.921569%);stroke-opacity:1;stroke-miterlimit:10;" d="M 5.680549 2.816096 C 5.680549 2.979393 5.435534 2.979393 5.435534 2.816096 C 5.435534 2.652798 5.680549 2.652798 5.680549 2.816096 Z M 5.680549 2.816096 " transform="matrix(28.346457,0,0,-28.346457,1,227.771654)"/>
<path style="fill-rule:nonzero;fill:rgb(32.941176%,47.058824%,63.921569%);fill-opacity:1;stroke-width:0.02;stroke-linecap:butt;stroke-linejoin:round;stroke:rgb(32.941176%,47.058824%,63.921569%);stroke-opacity:1;stroke-miterlimit:10;" d="M 6.061714 2.979256 C 6.061714 3.142691 5.816837 3.142691 5.816837 2.979256 C 5.816837 2.815958 6.061714 2.815958 6.061714 2.979256 Z M 6.061714 2.979256 " transform="matrix(28.346457,0,0,-28.346457,1,227.771654)"/>
<path style="fill-rule:nonzero;fill:rgb(32.941176%,47.058824%,63.921569%);fill-opacity:1;stroke-width:0.02;stroke-linecap:butt;stroke-linejoin:round;stroke:rgb(32.941176%,47.058824%,63.921569%);stroke-opacity:1;stroke-miterlimit:10;" d="M 6.443018 3.138143 C 6.443018 3.301441 6.198002 3.301441 6.198002 3.138143 C 6.198002 2.974708 6.443018 2.974708 6.443018 3.138143 Z M 6.443018 3.138143 " transform="matrix(28.346457,0,0,-28.346457,1,227.771654)"/>
<path style="fill-rule:nonzero;fill:rgb(32.941176%,47.058824%,63.921569%);fill-opacity:1;stroke-width:0.02;stroke-linecap:butt;stroke-linejoin:round;stroke:rgb(32.941176%,47.058824%,63.921569%);stroke-opacity:1;stroke-miterlimit:10;" d="M 6.824183 3.292208 C 6.824183 3.455506 6.579168 3.455506 6.579168 3.292208 C 6.579168 3.128911 6.824183 3.128911 6.824183 3.292208 Z M 6.824183 3.292208 " transform="matrix(28.346457,0,0,-28.346457,1,227.771654)"/>
<path style="fill-rule:nonzero;fill:rgb(32.941176%,47.058824%,63.921569%);fill-opacity:1;stroke-width:0.02;stroke-linecap:butt;stroke-linejoin:round;stroke:rgb(32.941176%,47.058824%,63.921569%);stroke-opacity:1;stroke-miterlimit:10;" d="M 7.205348 3.441312 C 7.205348 3.604609 6.960333 3.604609 6.960333 3.441312 C 6.960333 3.278014 7.205348 3.278014 7.205348 3.441312 Z M 7.205348 3.441312 " transform="matrix(28.346457,0,0,-28.346457,1,227.771654)"/>
<path style="fill-rule:nonzero;fill:rgb(32.941176%,47.058824%,63.921569%);fill-opacity:1;stroke-width:0.02;stroke-linecap:butt;stroke-linejoin:round;stroke:rgb(32.941176%,47.058824%,63.921569%);stroke-opacity:1;stroke-miterlimit:10;" d="M 7.586514 3.585179 C 7.586514 3.748477 7.341498 3.748477 7.341498 3.585179 C 7.341498 3.421882 7.586514 3.421882 7.586514 3.585179 Z M 7.586514 3.585179 " transform="matrix(28.346457,0,0,-28.346457,1,227.771654)"/>
<path style="fill-rule:nonzero;fill:rgb(32.941176%,47.058824%,63.921569%);fill-opacity:1;stroke-width:0.02;stroke-linecap:butt;stroke-linejoin:round;stroke:rgb(32.941176%,47.058824%,63.921569%);stroke-opacity:1;stroke-miterlimit:10;" d="M 7.967817 3.723672 C 7.967817 3.886969 7.722802 3.886969 7.722802 3.723672 C 7.722802 3.560237 7.967817 3.560237 7.967817 3.723672 Z M 7.967817 3.723672 " transform="matrix(28.346457,0,0,-28.346457,1,227.771654)"/>
<path style="fill-rule:nonzero;fill:rgb(32.941176%,47.058824%,63.921569%);fill-opacity:1;stroke-width:0.02;stroke-linecap:butt;stroke-linejoin:round;stroke:rgb(32.941176%,47.058824%,63.921569%);stroke-opacity:1;stroke-miterlimit:10;" d="M 8.348982 3.856239 C 8.348982 4.019674 8.103967 4.019674 8.103967 3.856239 C 8.103967 3.692942 8.348982 3.692942 8.348982 3.856239 Z M 8.348982 3.856239 " transform="matrix(28.346457,0,0,-28.346457,1,227.771654)"/>
<path style="fill-rule:nonzero;fill:rgb(32.941176%,47.058824%,63.921569%);fill-opacity:1;stroke-width:0.02;stroke-linecap:butt;stroke-linejoin:round;stroke:rgb(32.941176%,47.058824%,63.921569%);stroke-opacity:1;stroke-miterlimit:10;" d="M 8.730148 3.983019 C 8.730148 4.146316 8.485132 4.146316 8.485132 3.983019 C 8.485132 3.819721 8.730148 3.819721 8.730148 3.983019 Z M 8.730148 3.983019 " transform="matrix(28.346457,0,0,-28.346457,1,227.771654)"/>
<path style="fill-rule:nonzero;fill:rgb(32.941176%,47.058824%,63.921569%);fill-opacity:1;stroke-width:0.02;stroke-linecap:butt;stroke-linejoin:round;stroke:rgb(32.941176%,47.058824%,63.921569%);stroke-opacity:1;stroke-miterlimit:10;" d="M 9.111313 4.103597 C 9.111313 4.266895 8.866298 4.266895 8.866298 4.103597 C 8.866298 3.940299 9.111313 3.940299 9.111313 4.103597 Z M 9.111313 4.103597 " transform="matrix(28.346457,0,0,-28.346457,1,227.771654)"/>
<path style="fill-rule:nonzero;fill:rgb(32.941176%,47.058824%,63.921569%);fill-opacity:1;stroke-width:0.02;stroke-linecap:butt;stroke-linejoin:round;stroke:rgb(32.941176%,47.058824%,63.921569%);stroke-opacity:1;stroke-miterlimit:10;" d="M 9.492478 4.217836 C 9.492478 4.381134 9.247463 4.381134 9.247463 4.217836 C 9.247463 4.054401 9.492478 4.054401 9.492478 4.217836 Z M 9.492478 4.217836 " transform="matrix(28.346457,0,0,-28.346457,1,227.771654)"/>
<path style="fill-rule:nonzero;fill:rgb(32.941176%,47.058824%,63.921569%);fill-opacity:1;stroke-width:0.02;stroke-linecap:butt;stroke-linejoin:round;stroke:rgb(32.941176%,47.058824%,63.921569%);stroke-opacity:1;stroke-miterlimit:10;" d="M 9.873781 4.325461 C 9.873781 4.488759 9.628766 4.488759 9.628766 4.325461 C 9.628766 4.162026 9.873781 4.162026 9.873781 4.325461 Z M 9.873781 4.325461 " transform="matrix(28.346457,0,0,-28.346457,1,227.771654)"/>
<path style="fill-rule:nonzero;fill:rgb(90.196078%,56.862745%,25.882353%);fill-opacity:1;stroke-width:0.02;stroke-linecap:butt;stroke-linejoin:round;stroke:rgb(90.196078%,56.862745%,25.882353%);stroke-opacity:1;stroke-miterlimit:10;" d="M 0.725124 5.059542 C 0.725124 5.222977 0.480109 5.222977 0.480109 5.059542 C 0.480109 4.896245 0.725124 4.896245 0.725124 5.059542 Z M 0.725124 5.059542 " transform="matrix(28.346457,0,0,-28.346457,1,227.771654)"/>
<path style="fill-rule:nonzero;fill:rgb(90.196078%,56.862745%,25.882353%);fill-opacity:1;stroke-width:0.02;stroke-linecap:butt;stroke-linejoin:round;stroke:rgb(90.196078%,56.862745%,25.882353%);stroke-opacity:1;stroke-miterlimit:10;" d="M 1.106289 5.055546 C 1.106289 5.218843 0.861274 5.218843 0.861274 5.055546 C 0.861274 4.892248 1.106289 4.892248 1.106289 5.055546 Z M 1.106289 5.055546 " transform="matrix(28.346457,0,0,-28.346457,1,227.771654)"/>
<path style="fill-rule:nonzero;fill:rgb(90.196078%,56.862745%,25.882353%);fill-opacity:1;stroke-width:0.02;stroke-linecap:butt;stroke-linejoin:round;stroke:rgb(90.196078%,56.862745%,25.882353%);stroke-opacity:1;stroke-miterlimit:10;" d="M 1.487454 5.043557 C 1.487454 5.206854 1.242439 5.206854 1.242439 5.043557 C 1.242439 4.880122 1.487454 4.880122 1.487454 5.043557 Z M 1.487454 5.043557 " transform="matrix(28.346457,0,0,-28.346457,1,227.771654)"/>
<path style="fill-rule:nonzero;fill:rgb(90.196078%,56.862745%,25.882353%);fill-opacity:1;stroke-width:0.02;stroke-linecap:butt;stroke-linejoin:round;stroke:rgb(90.196078%,56.862745%,25.882353%);stroke-opacity:1;stroke-miterlimit:10;" d="M 1.86862 5.023438 C 1.86862 5.186735 1.623605 5.186735 1.623605 5.023438 C 1.623605 4.86014 1.86862 4.86014 1.86862 5.023438 Z M 1.86862 5.023438 " transform="matrix(28.346457,0,0,-28.346457,1,227.771654)"/>
<path style="fill-rule:nonzero;fill:rgb(90.196078%,56.862745%,25.882353%);fill-opacity:1;stroke-width:0.02;stroke-linecap:butt;stroke-linejoin:round;stroke:rgb(90.196078%,56.862745%,25.882353%);stroke-opacity:1;stroke-miterlimit:10;" d="M 2.249785 4.995463 C 2.249785 5.158761 2.00477 5.158761 2.00477 4.995463 C 2.00477 4.832028 2.249785 4.832028 2.249785 4.995463 Z M 2.249785 4.995463 " transform="matrix(28.346457,0,0,-28.346457,1,227.771654)"/>
<path style="fill-rule:nonzero;fill:rgb(90.196078%,56.862745%,25.882353%);fill-opacity:1;stroke-width:0.02;stroke-linecap:butt;stroke-linejoin:round;stroke:rgb(90.196078%,56.862745%,25.882353%);stroke-opacity:1;stroke-miterlimit:10;" d="M 2.631088 4.959497 C 2.631088 5.122794 2.386073 5.122794 2.386073 4.959497 C 2.386073 4.796061 2.631088 4.796061 2.631088 4.959497 Z M 2.631088 4.959497 " transform="matrix(28.346457,0,0,-28.346457,1,227.771654)"/>
<path style="fill-rule:nonzero;fill:rgb(90.196078%,56.862745%,25.882353%);fill-opacity:1;stroke-width:0.02;stroke-linecap:butt;stroke-linejoin:round;stroke:rgb(90.196078%,56.862745%,25.882353%);stroke-opacity:1;stroke-miterlimit:10;" d="M 3.012254 4.915675 C 3.012254 5.078972 2.767238 5.078972 2.767238 4.915675 C 2.767238 4.75224 3.012254 4.75224 3.012254 4.915675 Z M 3.012254 4.915675 " transform="matrix(28.346457,0,0,-28.346457,1,227.771654)"/>
<path style="fill-rule:nonzero;fill:rgb(90.196078%,56.862745%,25.882353%);fill-opacity:1;stroke-width:0.02;stroke-linecap:butt;stroke-linejoin:round;stroke:rgb(90.196078%,56.862745%,25.882353%);stroke-opacity:1;stroke-miterlimit:10;" d="M 3.393419 4.863998 C 3.393419 5.027296 3.148404 5.027296 3.148404 4.863998 C 3.148404 4.700701 3.393419 4.700701 3.393419 4.863998 Z M 3.393419 4.863998 " transform="matrix(28.346457,0,0,-28.346457,1,227.771654)"/>
<path style="fill-rule:nonzero;fill:rgb(90.196078%,56.862745%,25.882353%);fill-opacity:1;stroke-width:0.02;stroke-linecap:butt;stroke-linejoin:round;stroke:rgb(90.196078%,56.862745%,25.882353%);stroke-opacity:1;stroke-miterlimit:10;" d="M 3.774584 4.804605 C 3.774584 4.96804 3.529569 4.96804 3.529569 4.804605 C 3.529569 4.641308 3.774584 4.641308 3.774584 4.804605 Z M 3.774584 4.804605 " transform="matrix(28.346457,0,0,-28.346457,1,227.771654)"/>
<path style="fill-rule:nonzero;fill:rgb(90.196078%,56.862745%,25.882353%);fill-opacity:1;stroke-width:0.02;stroke-linecap:butt;stroke-linejoin:round;stroke:rgb(90.196078%,56.862745%,25.882353%);stroke-opacity:1;stroke-miterlimit:10;" d="M 4.15575 4.73777 C 4.15575 4.901068 3.910872 4.901068 3.910872 4.73777 C 3.910872 4.574473 4.15575 4.574473 4.15575 4.73777 Z M 4.15575 4.73777 " transform="matrix(28.346457,0,0,-28.346457,1,227.771654)"/>
<path style="fill-rule:nonzero;fill:rgb(90.196078%,56.862745%,25.882353%);fill-opacity:1;stroke-width:0.02;stroke-linecap:butt;stroke-linejoin:round;stroke:rgb(90.196078%,56.862745%,25.882353%);stroke-opacity:1;stroke-miterlimit:10;" d="M 4.537053 4.663356 C 4.537053 4.826654 4.292038 4.826654 4.292038 4.663356 C 4.292038 4.500059 4.537053 4.500059 4.537053 4.663356 Z M 4.537053 4.663356 " transform="matrix(28.346457,0,0,-28.346457,1,227.771654)"/>
<path style="fill-rule:nonzero;fill:rgb(90.196078%,56.862745%,25.882353%);fill-opacity:1;stroke-width:0.02;stroke-linecap:butt;stroke-linejoin:round;stroke:rgb(90.196078%,56.862745%,25.882353%);stroke-opacity:1;stroke-miterlimit:10;" d="M 4.918218 4.581638 C 4.918218 4.744936 4.673203 4.744936 4.673203 4.581638 C 4.673203 4.418341 4.918218 4.418341 4.918218 4.581638 Z M 4.918218 4.581638 " transform="matrix(28.346457,0,0,-28.346457,1,227.771654)"/>
<path style="fill-rule:nonzero;fill:rgb(90.196078%,56.862745%,25.882353%);fill-opacity:1;stroke-width:0.02;stroke-linecap:butt;stroke-linejoin:round;stroke:rgb(90.196078%,56.862745%,25.882353%);stroke-opacity:1;stroke-miterlimit:10;" d="M 5.299384 4.492617 C 5.299384 4.655915 5.054368 4.655915 5.054368 4.492617 C 5.054368 4.32932 5.299384 4.32932 5.299384 4.492617 Z M 5.299384 4.492617 " transform="matrix(28.346457,0,0,-28.346457,1,227.771654)"/>
<path style="fill-rule:nonzero;fill:rgb(90.196078%,56.862745%,25.882353%);fill-opacity:1;stroke-width:0.02;stroke-linecap:butt;stroke-linejoin:round;stroke:rgb(90.196078%,56.862745%,25.882353%);stroke-opacity:1;stroke-miterlimit:10;" d="M 5.680549 4.396568 C 5.680549 4.560003 5.435534 4.560003 5.435534 4.396568 C 5.435534 4.23327 5.680549 4.23327 5.680549 4.396568 Z M 5.680549 4.396568 " transform="matrix(28.346457,0,0,-28.346457,1,227.771654)"/>
<path style="fill-rule:nonzero;fill:rgb(90.196078%,56.862745%,25.882353%);fill-opacity:1;stroke-width:0.02;stroke-linecap:butt;stroke-linejoin:round;stroke:rgb(90.196078%,56.862745%,25.882353%);stroke-opacity:1;stroke-miterlimit:10;" d="M 6.061714 4.293766 C 6.061714 4.457064 5.816837 4.457064 5.816837 4.293766 C 5.816837 4.130469 6.061714 4.130469 6.061714 4.293766 Z M 6.061714 4.293766 " transform="matrix(28.346457,0,0,-28.346457,1,227.771654)"/>
<path style="fill-rule:nonzero;fill:rgb(90.196078%,56.862745%,25.882353%);fill-opacity:1;stroke-width:0.02;stroke-linecap:butt;stroke-linejoin:round;stroke:rgb(90.196078%,56.862745%,25.882353%);stroke-opacity:1;stroke-miterlimit:10;" d="M 6.443018 4.184074 C 6.443018 4.34751 6.198002 4.34751 6.198002 4.184074 C 6.198002 4.020777 6.443018 4.020777 6.443018 4.184074 Z M 6.443018 4.184074 " transform="matrix(28.346457,0,0,-28.346457,1,227.771654)"/>
<path style="fill-rule:nonzero;fill:rgb(90.196078%,56.862745%,25.882353%);fill-opacity:1;stroke-width:0.02;stroke-linecap:butt;stroke-linejoin:round;stroke:rgb(90.196078%,56.862745%,25.882353%);stroke-opacity:1;stroke-miterlimit:10;" d="M 6.824183 4.068044 C 6.824183 4.231341 6.579168 4.231341 6.579168 4.068044 C 6.579168 3.904608 6.824183 3.904608 6.824183 4.068044 Z M 6.824183 4.068044 " transform="matrix(28.346457,0,0,-28.346457,1,227.771654)"/>
<path style="fill-rule:nonzero;fill:rgb(90.196078%,56.862745%,25.882353%);fill-opacity:1;stroke-width:0.02;stroke-linecap:butt;stroke-linejoin:round;stroke:rgb(90.196078%,56.862745%,25.882353%);stroke-opacity:1;stroke-miterlimit:10;" d="M 7.205348 3.945536 C 7.205348 4.108834 6.960333 4.108834 6.960333 3.945536 C 6.960333 3.782238 7.205348 3.782238 7.205348 3.945536 Z M 7.205348 3.945536 " transform="matrix(28.346457,0,0,-28.346457,1,227.771654)"/>
<path style="fill-rule:nonzero;fill:rgb(90.196078%,56.862745%,25.882353%);fill-opacity:1;stroke-width:0.02;stroke-linecap:butt;stroke-linejoin:round;stroke:rgb(90.196078%,56.862745%,25.882353%);stroke-opacity:1;stroke-miterlimit:10;" d="M 7.586514 3.816965 C 7.586514 3.980263 7.341498 3.980263 7.341498 3.816965 C 7.341498 3.653668 7.586514 3.653668 7.586514 3.816965 Z M 7.586514 3.816965 " transform="matrix(28.346457,0,0,-28.346457,1,227.771654)"/>
<path style="fill-rule:nonzero;fill:rgb(90.196078%,56.862745%,25.882353%);fill-opacity:1;stroke-width:0.02;stroke-linecap:butt;stroke-linejoin:round;stroke:rgb(90.196078%,56.862745%,25.882353%);stroke-opacity:1;stroke-miterlimit:10;" d="M 7.967817 3.682606 C 7.967817 3.845904 7.722802 3.845904 7.722802 3.682606 C 7.722802 3.519171 7.967817 3.519171 7.967817 3.682606 Z M 7.967817 3.682606 " transform="matrix(28.346457,0,0,-28.346457,1,227.771654)"/>
<path style="fill-rule:nonzero;fill:rgb(90.196078%,56.862745%,25.882353%);fill-opacity:1;stroke-width:0.02;stroke-linecap:butt;stroke-linejoin:round;stroke:rgb(90.196078%,56.862745%,25.882353%);stroke-opacity:1;stroke-miterlimit:10;" d="M 8.348982 3.54246 C 8.348982 3.705757 8.103967 3.705757 8.103967 3.54246 C 8.103967 3.379162 8.348982 3.379162 8.348982 3.54246 Z M 8.348982 3.54246 " transform="matrix(28.346457,0,0,-28.346457,1,227.771654)"/>
<path style="fill-rule:nonzero;fill:rgb(90.196078%,56.862745%,25.882353%);fill-opacity:1;stroke-width:0.02;stroke-linecap:butt;stroke-linejoin:round;stroke:rgb(90.196078%,56.862745%,25.882353%);stroke-opacity:1;stroke-miterlimit:10;" d="M 8.730148 3.396939 C 8.730148 3.560374 8.485132 3.560374 8.485132 3.396939 C 8.485132 3.233641 8.730148 3.233641 8.730148 3.396939 Z M 8.730148 3.396939 " transform="matrix(28.346457,0,0,-28.346457,1,227.771654)"/>
<path style="fill-rule:nonzero;fill:rgb(90.196078%,56.862745%,25.882353%);fill-opacity:1;stroke-width:0.02;stroke-linecap:butt;stroke-linejoin:round;stroke:rgb(90.196078%,56.862745%,25.882353%);stroke-opacity:1;stroke-miterlimit:10;" d="M 9.111313 3.246319 C 9.111313 3.409617 8.866298 3.409617 8.866298 3.246319 C 8.866298 3.083022 9.111313 3.083022 9.111313 3.246319 Z M 9.111313 3.246319 " transform="matrix(28.346457,0,0,-28.346457,1,227.771654)"/>
<path style="fill-rule:nonzero;fill:rgb(90.196078%,56.862745%,25.882353%);fill-opacity:1;stroke-width:0.02;stroke-linecap:butt;stroke-linejoin:round;stroke:rgb(90.196078%,56.862745%,25.882353%);stroke-opacity:1;stroke-miterlimit:10;" d="M 9.492478 3.090739 C 9.492478 3.254174 9.247463 3.254174 9.247463 3.090739 C 9.247463 2.927441 9.492478 2.927441 9.492478 3.090739 Z M 9.492478 3.090739 " transform="matrix(28.346457,0,0,-28.346457,1,227.771654)"/>
<path style="fill-rule:nonzero;fill:rgb(90.196078%,56.862745%,25.882353%);fill-opacity:1;stroke-width:0.02;stroke-linecap:butt;stroke-linejoin:round;stroke:rgb(90.196078%,56.862745%,25.882353%);stroke-opacity:1;stroke-miterlimit:10;" d="M 9.873781 2.930611 C 9.873781 3.093908 9.628766 3.093908 9.628766 2.930611 C 9.628766 2.767313 9.873781 2.767313 9.873781 2.930611 Z M 9.873781 2.930611 " transform="matrix(28.346457,0,0,-28.346457,1,227.771654)"/>
<path style="fill-rule:nonzero;fill:rgb(81.960784%,36.862745%,36.078431%);fill-opacity:1;stroke-width:0.02;stroke-linecap:butt;stroke-linejoin:round;stroke:rgb(81.960784%,36.862745%,36.078431%);stroke-opacity:1;stroke-miterlimit:10;" d="M 0.725124 5.059542 C 0.725124 5.222977 0.480109 5.222977 0.480109 5.059542 C 0.480109 4.896245 0.725124 4.896245 0.725124 5.059542 Z M 0.725124 5.059542 " transform="matrix(28.346457,0,0,-28.346457,1,227.771654)"/>
<path style="fill-rule:nonzero;fill:rgb(81.960784%,36.862745%,36.078431%);fill-opacity:1;stroke-width:0.02;stroke-linecap:butt;stroke-linejoin:round;stroke:rgb(81.960784%,36.862745%,36.078431%);stroke-opacity:1;stroke-miterlimit:10;" d="M 1.106289 5.248471 C 1.106289 5.411769 0.861274 5.411769 0.861274 5.248471 C 0.861274 5.085174 1.106289 5.085174 1.106289 5.248471 Z M 1.106289 5.248471 " transform="matrix(28.346457,0,0,-28.346457,1,227.771654)"/>
<path style="fill-rule:nonzero;fill:rgb(81.960784%,36.862745%,36.078431%);fill-opacity:1;stroke-width:0.02;stroke-linecap:butt;stroke-linejoin:round;stroke:rgb(81.960784%,36.862745%,36.078431%);stroke-opacity:1;stroke-miterlimit:10;" d="M 1.487454 5.428994 C 1.487454 5.592292 1.242439 5.592292 1.242439 5.428994 C 1.242439 5.265697 1.487454 5.265697 1.487454 5.428994 Z M 1.487454 5.428994 " transform="matrix(28.346457,0,0,-28.346457,1,227.771654)"/>
<path style="fill-rule:nonzero;fill:rgb(81.960784%,36.862745%,36.078431%);fill-opacity:1;stroke-width:0.02;stroke-linecap:butt;stroke-linejoin:round;stroke:rgb(81.960784%,36.862745%,36.078431%);stroke-opacity:1;stroke-miterlimit:10;" d="M 1.86862 5.600836 C 1.86862 5.764133 1.623605 5.764133 1.623605 5.600836 C 1.623605 5.437538 1.86862 5.437538 1.86862 5.600836 Z M 1.86862 5.600836 " transform="matrix(28.346457,0,0,-28.346457,1,227.771654)"/>
<path style="fill-rule:nonzero;fill:rgb(81.960784%,36.862745%,36.078431%);fill-opacity:1;stroke-width:0.02;stroke-linecap:butt;stroke-linejoin:round;stroke:rgb(81.960784%,36.862745%,36.078431%);stroke-opacity:1;stroke-miterlimit:10;" d="M 2.249785 5.76372 C 2.249785 5.927017 2.00477 5.927017 2.00477 5.76372 C 2.00477 5.600422 2.249785 5.600422 2.249785 5.76372 Z M 2.249785 5.76372 " transform="matrix(28.346457,0,0,-28.346457,1,227.771654)"/>
<path style="fill-rule:nonzero;fill:rgb(81.960784%,36.862745%,36.078431%);fill-opacity:1;stroke-width:0.02;stroke-linecap:butt;stroke-linejoin:round;stroke:rgb(81.960784%,36.862745%,36.078431%);stroke-opacity:1;stroke-miterlimit:10;" d="M 2.631088 5.917371 C 2.631088 6.080668 2.386073 6.080668 2.386073 5.917371 C 2.386073 5.753936 2.631088 5.753936 2.631088 5.917371 Z M 2.631088 5.917371 " transform="matrix(28.346457,0,0,-28.346457,1,227.771654)"/>
<path style="fill-rule:nonzero;fill:rgb(81.960784%,36.862745%,36.078431%);fill-opacity:1;stroke-width:0.02;stroke-linecap:butt;stroke-linejoin:round;stroke:rgb(81.960784%,36.862745%,36.078431%);stroke-opacity:1;stroke-miterlimit:10;" d="M 3.012254 6.061376 C 3.012254 6.224673 2.767238 6.224673 2.767238 6.061376 C 2.767238 5.898078 3.012254 5.898078 3.012254 6.061376 Z M 3.012254 6.061376 " transform="matrix(28.346457,0,0,-28.346457,1,227.771654)"/>
<path style="fill-rule:nonzero;fill:rgb(81.960784%,36.862745%,36.078431%);fill-opacity:1;stroke-width:0.02;stroke-linecap:butt;stroke-linejoin:round;stroke:rgb(81.960784%,36.862745%,36.078431%);stroke-opacity:1;stroke-miterlimit:10;" d="M 3.393419 6.195735 C 3.393419 6.359032 3.148404 6.359032 3.148404 6.195735 C 3.148404 6.032299 3.393419 6.032299 3.393419 6.195735 Z M 3.393419 6.195735 " transform="matrix(28.346457,0,0,-28.346457,1,227.771654)"/>
<path style="fill-rule:nonzero;fill:rgb(81.960784%,36.862745%,36.078431%);fill-opacity:1;stroke-width:0.02;stroke-linecap:butt;stroke-linejoin:round;stroke:rgb(81.960784%,36.862745%,36.078431%);stroke-opacity:1;stroke-miterlimit:10;" d="M 3.774584 6.320034 C 3.774584 6.483331 3.529569 6.483331 3.529569 6.320034 C 3.529569 6.156598 3.774584 6.156598 3.774584 6.320034 Z M 3.774584 6.320034 " transform="matrix(28.346457,0,0,-28.346457,1,227.771654)"/>
<path style="fill-rule:nonzero;fill:rgb(81.960784%,36.862745%,36.078431%);fill-opacity:1;stroke-width:0.02;stroke-linecap:butt;stroke-linejoin:round;stroke:rgb(81.960784%,36.862745%,36.078431%);stroke-opacity:1;stroke-miterlimit:10;" d="M 4.15575 6.433997 C 4.15575 6.597433 3.910872 6.597433 3.910872 6.433997 C 3.910872 6.2707 4.15575 6.2707 4.15575 6.433997 Z M 4.15575 6.433997 " transform="matrix(28.346457,0,0,-28.346457,1,227.771654)"/>
<path style="fill-rule:nonzero;fill:rgb(81.960784%,36.862745%,36.078431%);fill-opacity:1;stroke-width:0.02;stroke-linecap:butt;stroke-linejoin:round;stroke:rgb(81.960784%,36.862745%,36.078431%);stroke-opacity:1;stroke-miterlimit:10;" d="M 4.537053 6.537626 C 4.537053 6.701061 4.292038 6.701061 4.292038 6.537626 C 4.292038 6.374328 4.537053 6.374328 4.537053 6.537626 Z M 4.537053 6.537626 " transform="matrix(28.346457,0,0,-28.346457,1,227.771654)"/>
<path style="fill-rule:nonzero;fill:rgb(81.960784%,36.862745%,36.078431%);fill-opacity:1;stroke-width:0.02;stroke-linecap:butt;stroke-linejoin:round;stroke:rgb(81.960784%,36.862745%,36.078431%);stroke-opacity:1;stroke-miterlimit:10;" d="M 4.918218 6.630643 C 4.918218 6.794079 4.673203 6.794079 4.673203 6.630643 C 4.673203 6.467346 4.918218 6.467346 4.918218 6.630643 Z M 4.918218 6.630643 " transform="matrix(28.346457,0,0,-28.346457,1,227.771654)"/>
<path style="fill-rule:nonzero;fill:rgb(81.960784%,36.862745%,36.078431%);fill-opacity:1;stroke-width:0.02;stroke-linecap:butt;stroke-linejoin:round;stroke:rgb(81.960784%,36.862745%,36.078431%);stroke-opacity:1;stroke-miterlimit:10;" d="M 5.299384 6.712912 C 5.299384 6.876348 5.054368 6.876348 5.054368 6.712912 C 5.054368 6.549615 5.299384 6.549615 5.299384 6.712912 Z M 5.299384 6.712912 " transform="matrix(28.346457,0,0,-28.346457,1,227.771654)"/>
<path style="fill-rule:nonzero;fill:rgb(81.960784%,36.862745%,36.078431%);fill-opacity:1;stroke-width:0.02;stroke-linecap:butt;stroke-linejoin:round;stroke:rgb(81.960784%,36.862745%,36.078431%);stroke-opacity:1;stroke-miterlimit:10;" d="M 5.680549 6.784295 C 5.680549 6.947592 5.435534 6.947592 5.435534 6.784295 C 5.435534 6.620997 5.680549 6.620997 5.680549 6.784295 Z M 5.680549 6.784295 " transform="matrix(28.346457,0,0,-28.346457,1,227.771654)"/>
<path style="fill-rule:nonzero;fill:rgb(81.960784%,36.862745%,36.078431%);fill-opacity:1;stroke-width:0.02;stroke-linecap:butt;stroke-linejoin:round;stroke:rgb(81.960784%,36.862745%,36.078431%);stroke-opacity:1;stroke-miterlimit:10;" d="M 6.061714 6.844653 C 6.061714 7.00795 5.816837 7.00795 5.816837 6.844653 C 5.816837 6.681355 6.061714 6.681355 6.061714 6.844653 Z M 6.061714 6.844653 " transform="matrix(28.346457,0,0,-28.346457,1,227.771654)"/>
<path style="fill-rule:nonzero;fill:rgb(81.960784%,36.862745%,36.078431%);fill-opacity:1;stroke-width:0.02;stroke-linecap:butt;stroke-linejoin:round;stroke:rgb(81.960784%,36.862745%,36.078431%);stroke-opacity:1;stroke-miterlimit:10;" d="M 6.443018 6.893849 C 6.443018 7.057146 6.198002 7.057146 6.198002 6.893849 C 6.198002 6.730551 6.443018 6.730551 6.443018 6.893849 Z M 6.443018 6.893849 " transform="matrix(28.346457,0,0,-28.346457,1,227.771654)"/>
<path style="fill-rule:nonzero;fill:rgb(81.960784%,36.862745%,36.078431%);fill-opacity:1;stroke-width:0.02;stroke-linecap:butt;stroke-linejoin:round;stroke:rgb(81.960784%,36.862745%,36.078431%);stroke-opacity:1;stroke-miterlimit:10;" d="M 6.824183 6.931745 C 6.824183 7.095042 6.579168 7.095042 6.579168 6.931745 C 6.579168 6.768447 6.824183 6.768447 6.824183 6.931745 Z M 6.824183 6.931745 " transform="matrix(28.346457,0,0,-28.346457,1,227.771654)"/>
<path style="fill-rule:nonzero;fill:rgb(81.960784%,36.862745%,36.078431%);fill-opacity:1;stroke-width:0.02;stroke-linecap:butt;stroke-linejoin:round;stroke:rgb(81.960784%,36.862745%,36.078431%);stroke-opacity:1;stroke-miterlimit:10;" d="M 7.205348 6.958479 C 7.205348 7.121776 6.960333 7.121776 6.960333 6.958479 C 6.960333 6.795181 7.205348 6.795181 7.205348 6.958479 Z M 7.205348 6.958479 " transform="matrix(28.346457,0,0,-28.346457,1,227.771654)"/>
<path style="fill-rule:nonzero;fill:rgb(81.960784%,36.862745%,36.078431%);fill-opacity:1;stroke-width:0.02;stroke-linecap:butt;stroke-linejoin:round;stroke:rgb(81.960784%,36.862745%,36.078431%);stroke-opacity:1;stroke-miterlimit:10;" d="M 7.586514 6.973775 C 7.586514 7.137072 7.341498 7.137072 7.341498 6.973775 C 7.341498 6.810477 7.586514 6.810477 7.586514 6.973775 Z M 7.586514 6.973775 " transform="matrix(28.346457,0,0,-28.346457,1,227.771654)"/>
<path style="fill-rule:nonzero;fill:rgb(81.960784%,36.862745%,36.078431%);fill-opacity:1;stroke-width:0.02;stroke-linecap:butt;stroke-linejoin:round;stroke:rgb(81.960784%,36.862745%,36.078431%);stroke-opacity:1;stroke-miterlimit:10;" d="M 7.967817 6.977771 C 7.967817 7.141069 7.722802 7.141069 7.722802 6.977771 C 7.722802 6.814474 7.967817 6.814474 7.967817 6.977771 Z M 7.967817 6.977771 " transform="matrix(28.346457,0,0,-28.346457,1,227.771654)"/>
<path style="fill-rule:nonzero;fill:rgb(81.960784%,36.862745%,36.078431%);fill-opacity:1;stroke-width:0.02;stroke-linecap:butt;stroke-linejoin:round;stroke:rgb(81.960784%,36.862745%,36.078431%);stroke-opacity:1;stroke-miterlimit:10;" d="M 8.348982 6.97033 C 8.348982 7.133765 8.103967 7.133765 8.103967 6.97033 C 8.103967 6.807032 8.348982 6.807032 8.348982 6.97033 Z M 8.348982 6.97033 " transform="matrix(28.346457,0,0,-28.346457,1,227.771654)"/>
<path style="fill-rule:nonzero;fill:rgb(81.960784%,36.862745%,36.078431%);fill-opacity:1;stroke-width:0.02;stroke-linecap:butt;stroke-linejoin:round;stroke:rgb(81.960784%,36.862745%,36.078431%);stroke-opacity:1;stroke-miterlimit:10;" d="M 8.730148 6.951589 C 8.730148 7.114886 8.485132 7.114886 8.485132 6.951589 C 8.485132 6.788291 8.730148 6.788291 8.730148 6.951589 Z M 8.730148 6.951589 " transform="matrix(28.346457,0,0,-28.346457,1,227.771654)"/>
<path style="fill-rule:nonzero;fill:rgb(81.960784%,36.862745%,36.078431%);fill-opacity:1;stroke-width:0.02;stroke-linecap:butt;stroke-linejoin:round;stroke:rgb(81.960784%,36.862745%,36.078431%);stroke-opacity:1;stroke-miterlimit:10;" d="M 9.111313 6.921547 C 9.111313 7.084845 8.866298 7.084845 8.866298 6.921547 C 8.866298 6.75825 9.111313 6.75825 9.111313 6.921547 Z M 9.111313 6.921547 " transform="matrix(28.346457,0,0,-28.346457,1,227.771654)"/>
<path style="fill-rule:nonzero;fill:rgb(81.960784%,36.862745%,36.078431%);fill-opacity:1;stroke-width:0.02;stroke-linecap:butt;stroke-linejoin:round;stroke:rgb(81.960784%,36.862745%,36.078431%);stroke-opacity:1;stroke-miterlimit:10;" d="M 9.492478 6.880206 C 9.492478 7.043504 9.247463 7.043504 9.247463 6.880206 C 9.247463 6.716909 9.492478 6.716909 9.492478 6.880206 Z M 9.492478 6.880206 " transform="matrix(28.346457,0,0,-28.346457,1,227.771654)"/>
<path style="fill-rule:nonzero;fill:rgb(81.960784%,36.862745%,36.078431%);fill-opacity:1;stroke-width:0.02;stroke-linecap:butt;stroke-linejoin:round;stroke:rgb(81.960784%,36.862745%,36.078431%);stroke-opacity:1;stroke-miterlimit:10;" d="M 9.873781 6.827703 C 9.873781 6.991 9.628766 6.991 9.628766 6.827703 C 9.628766 6.664268 9.873781 6.664268 9.873781 6.827703 Z M 9.873781 6.827703 " transform="matrix(28.346457,0,0,-28.346457,1,227.771654)"/>
</g>
</svg>
