<?xml version="1.0" encoding="UTF-8"?>
<svg xmlns="http://www.w3.org/2000/svg" xmlns:xlink="http://www.w3.org/1999/xlink" width="285.464567pt" height="228.771654pt" viewBox="0 0 285.464567 228.771654" version="1.1">
<g id="surface1">
<path style="fill:none;stroke-width:0.02;stroke-linecap:butt;stroke-linejoin:miter;stroke:rgb(0%,0%,0%);stroke-opacity:1;stroke-miterlimit:10;" d="M 0.695771 1.16934 L 0.800778 1.16934 " transform="matrix(28.346457,0,0,-28.346457,1,227.771654)"/>
<path style="fill:none;stroke-width:0.02;stroke-linecap:butt;stroke-linejoin:miter;stroke:rgb(0%,0%,0%);stroke-opacity:1;stroke-miterlimit:10;" d="M 0.695771 1.910311 L 0.800778 1.910311 " transform="matrix(28.346457,0,0,-28.346457,1,227.771654)"/>
<path style="fill:none;stroke-width:0.02;stroke-linecap:butt;stroke-linejoin:miter;stroke:rgb(0%,0%,0%);stroke-opacity:1;stroke-miterlimit:10;" d="M 0.695771 2.65142 L 0.800778 2.65142 " transform="matrix(28.346457,0,0,-28.346457,1,227.771654)"/>
<path style="fill:none;stroke-width:0.02;stroke-linecap:butt;stroke-linejoin:miter;stroke:rgb(0%,0%,0%);stroke-opacity:1;stroke-miterlimit:10;" d="M 0.695771 3.392391 L 0.800778 3.392391 " transform="matrix(28.346457,0,0,-28.346457,1,227.771654)"/>
<path style="fill:none;stroke-width:0.02;stroke-linecap:butt;stroke-linejoin:miter;stroke:rgb(0%,0%,0%);stroke-opacity:1;stroke-miterlimit:10;" d="M 0.695771 4.133363 L 0.800778 4.133363 " transform="matrix(28.346457,0,0,-28.346457,1,227.771654)"/>
<path style="fill:none;stroke-width:0.02;stroke-linecap:butt;stroke-linejoin:miter;stroke:rgb(0%,0%,0%);stroke-opacity:1;stroke-miterlimit:10;" d="M 0.695771 4.874334 L 0.800778 4.874334 " transform="matrix(28.346457,0,0,-28.346457,1,227.771654)"/>
<path style="fill:none;stroke-width:0.02;stroke-linecap:butt;stroke-linejoin:miter;stroke:rgb(0%,0%,0%);stroke-opacity:1;stroke-miterlimit:10;" d="M 0.695771 5.615305 L 0.800778 5.615305 " transform="matrix(28.346457,0,0,-28.346457,1,227.771654)"/>
<path style="fill:none;stroke-width:0.02;stroke-linecap:butt;stroke-linejoin:miter;stroke:rgb(0%,0%,0%);stroke-opacity:1;stroke-miterlimit:10;" d="M 0.695771 6.356276 L 0.800778 6.356276 " transform="matrix(28.346457,0,0,-28.346457,1,227.771654)"/>
<path style="fill:none;stroke-width:0.02;stroke-linecap:butt;stroke-linejoin:miter;stroke:rgb(0%,0%,0%);stroke-opacity:1;stroke-miterlimit:10;" d="M 0.695771 7.097247 L 0.800778 7.097247 " transform="matrix(28.346457,0,0,-28.346457,1,227.771654)"/>
<path style="fill:none;stroke-width:0.02;stroke-linecap:round;stroke-linejoin:miter;stroke:rgb(0%,0%,0%);stroke-opacity:1;stroke-miterlimit:10;" d="M 0.695771 0.428369 L 0.695771 7.838356 " transform="matrix(28.346457,0,0,-28.346457,1,227.771654)"/>
<path style=" stroke:none;fill-rule:nonzero;fill:rgb(0%,0%,0%);fill-opacity:1;" d="M 5.160156 216.265625 L 5.160156 216.710938 L 3.078125 216.710938 L 3.078125 216.265625 Z M 5.160156 216.265625 Z M 5.160156 216.265625 "/>
<path style=" stroke:none;fill-rule:nonzero;fill:rgb(0%,0%,0%);fill-opacity:1;" d="M 7.746094 212.886719 C 8.5 212.941406 9 213.632812 9.136719 214.332031 C 9.207031 214.648438 9.222656 214.949219 9.253906 215.265625 L 9.253906 216.078125 C 9.214844 216.902344 9.015625 217.988281 8.121094 218.324219 C 7.339844 218.632812 6.429688 218.148438 6.199219 217.355469 C 6.023438 216.933594 6.007812 216.503906 5.96875 216.078125 L 5.96875 215.265625 C 6.007812 214.441406 6.183594 213.347656 7.070312 212.980469 L 7.113281 212.964844 L 7.144531 212.957031 L 7.183594 212.941406 L 7.300781 212.910156 L 7.375 212.894531 L 7.460938 212.894531 L 7.476562 212.886719 Z M 7.746094 212.886719 Z M 7.5 213.371094 C 6.832031 213.449219 6.636719 214.25 6.585938 214.789062 L 6.585938 215.003906 L 6.570312 215.019531 L 6.570312 216.125 C 6.621094 216.695312 6.660156 217.433594 7.183594 217.816406 C 7.667969 218.148438 8.308594 217.773438 8.445312 217.257812 C 8.585938 216.878906 8.621094 216.503906 8.652344 216.125 L 8.652344 215.019531 C 8.605469 214.441406 8.523438 213.632812 7.859375 213.402344 L 7.800781 213.386719 L 7.785156 213.371094 L 7.714844 213.371094 L 7.699219 213.355469 L 7.515625 213.355469 Z M 7.5 213.371094 Z M 7.5 213.371094 "/>
<path style=" stroke:none;fill-rule:nonzero;fill:rgb(0%,0%,0%);fill-opacity:1;" d="M 11.023438 217.601562 L 11.023438 218.234375 L 10.382812 218.234375 L 10.382812 217.601562 Z M 11.023438 217.601562 Z M 11.023438 217.601562 "/>
<path style=" stroke:none;fill-rule:nonzero;fill:rgb(0%,0%,0%);fill-opacity:1;" d="M 13.828125 212.886719 C 14.746094 212.910156 15.476562 213.855469 15.335938 214.742188 C 15.238281 215.632812 14.40625 216.140625 13.808594 216.695312 L 13.554688 216.957031 L 13.523438 216.972656 L 13.207031 217.28125 L 13.183594 217.296875 L 12.867188 217.617188 L 12.835938 217.632812 L 12.761719 217.703125 L 12.777344 217.710938 L 15.351562 217.710938 L 15.351562 218.234375 L 12.207031 218.234375 L 12.207031 217.757812 L 13.484375 216.480469 C 14.097656 215.949219 14.808594 215.257812 14.699219 214.386719 C 14.636719 213.878906 14.207031 213.410156 13.683594 213.371094 C 13.152344 213.289062 12.683594 213.710938 12.5625 214.21875 L 12.546875 214.242188 L 12.53125 214.296875 L 12.507812 214.386719 L 12.460938 214.558594 L 12.453125 214.601562 C 12.34375 214.464844 12.222656 214.324219 12.136719 214.171875 C 12.292969 213.519531 12.816406 212.910156 13.507812 212.886719 Z M 13.828125 212.886719 Z M 13.828125 212.886719 "/>
<path style=" stroke:none;fill-rule:nonzero;fill:rgb(0%,0%,0%);fill-opacity:1;" d="M 7.746094 191.882812 C 8.5 191.9375 9 192.628906 9.136719 193.324219 C 9.207031 193.644531 9.222656 193.945312 9.253906 194.261719 L 9.253906 195.070312 C 9.214844 195.898438 9.015625 196.984375 8.121094 197.316406 C 7.339844 197.628906 6.429688 197.144531 6.199219 196.351562 C 6.023438 195.929688 6.007812 195.5 5.96875 195.070312 L 5.96875 194.261719 C 6.007812 193.4375 6.183594 192.339844 7.070312 191.976562 L 7.113281 191.960938 L 7.144531 191.953125 L 7.183594 191.9375 L 7.300781 191.90625 L 7.375 191.890625 L 7.460938 191.890625 L 7.476562 191.882812 Z M 7.746094 191.882812 Z M 7.5 192.367188 C 6.832031 192.445312 6.636719 193.246094 6.585938 193.785156 L 6.585938 194 L 6.570312 194.015625 L 6.570312 195.121094 C 6.621094 195.691406 6.660156 196.429688 7.183594 196.808594 C 7.667969 197.144531 8.308594 196.769531 8.445312 196.253906 C 8.585938 195.875 8.621094 195.5 8.652344 195.121094 L 8.652344 194.015625 C 8.605469 193.4375 8.523438 192.628906 7.859375 192.398438 L 7.800781 192.382812 L 7.785156 192.367188 L 7.714844 192.367188 L 7.699219 192.351562 L 7.515625 192.351562 Z M 7.5 192.367188 Z M 7.5 192.367188 "/>
<path style=" stroke:none;fill-rule:nonzero;fill:rgb(0%,0%,0%);fill-opacity:1;" d="M 11.023438 196.597656 L 11.023438 197.230469 L 10.382812 197.230469 L 10.382812 196.597656 Z M 11.023438 196.597656 Z M 11.023438 196.597656 "/>
<path style=" stroke:none;fill-rule:nonzero;fill:rgb(0%,0%,0%);fill-opacity:1;" d="M 13.914062 191.882812 C 14.667969 191.9375 15.167969 192.628906 15.300781 193.324219 C 15.375 193.644531 15.390625 193.945312 15.421875 194.261719 L 15.421875 195.070312 C 15.382812 195.898438 15.183594 196.984375 14.285156 197.316406 C 13.507812 197.628906 12.597656 197.144531 12.367188 196.351562 C 12.191406 195.929688 12.175781 195.5 12.136719 195.070312 L 12.136719 194.261719 C 12.175781 193.4375 12.351562 192.339844 13.238281 191.976562 L 13.277344 191.960938 L 13.308594 191.953125 L 13.351562 191.9375 L 13.46875 191.90625 L 13.539062 191.890625 L 13.628906 191.890625 L 13.644531 191.882812 Z M 13.914062 191.882812 Z M 13.667969 192.367188 C 13 192.445312 12.800781 193.246094 12.753906 193.785156 L 12.753906 194 L 12.738281 194.015625 L 12.738281 195.121094 C 12.785156 195.691406 12.824219 196.429688 13.351562 196.808594 C 13.835938 197.144531 14.476562 196.769531 14.613281 196.253906 C 14.753906 195.875 14.785156 195.5 14.816406 195.121094 L 14.816406 194.015625 C 14.769531 193.4375 14.691406 192.628906 14.023438 192.398438 L 13.96875 192.382812 L 13.953125 192.367188 L 13.882812 192.367188 L 13.867188 192.351562 L 13.683594 192.351562 Z M 13.667969 192.367188 Z M 13.667969 192.367188 "/>
<path style=" stroke:none;fill-rule:nonzero;fill:rgb(0%,0%,0%);fill-opacity:1;" d="M 7.746094 170.875 C 8.5 170.933594 9 171.621094 9.136719 172.320312 C 9.207031 172.640625 9.222656 172.941406 9.253906 173.257812 L 9.253906 174.066406 C 9.214844 174.894531 9.015625 175.980469 8.121094 176.3125 C 7.339844 176.625 6.429688 176.140625 6.199219 175.34375 C 6.023438 174.925781 6.007812 174.496094 5.96875 174.066406 L 5.96875 173.257812 C 6.007812 172.433594 6.183594 171.335938 7.070312 170.972656 L 7.113281 170.957031 L 7.144531 170.949219 L 7.183594 170.933594 L 7.300781 170.902344 L 7.375 170.886719 L 7.460938 170.886719 L 7.476562 170.875 Z M 7.746094 170.875 Z M 7.5 171.359375 C 6.832031 171.441406 6.636719 172.242188 6.585938 172.78125 L 6.585938 172.996094 L 6.570312 173.011719 L 6.570312 174.113281 C 6.621094 174.6875 6.660156 175.425781 7.183594 175.804688 C 7.667969 176.140625 8.308594 175.765625 8.445312 175.25 C 8.585938 174.871094 8.621094 174.496094 8.652344 174.113281 L 8.652344 173.011719 C 8.605469 172.433594 8.523438 171.621094 7.859375 171.394531 L 7.800781 171.375 L 7.785156 171.359375 L 7.714844 171.359375 L 7.699219 171.34375 L 7.515625 171.34375 Z M 7.5 171.359375 Z M 7.5 171.359375 "/>
<path style=" stroke:none;fill-rule:nonzero;fill:rgb(0%,0%,0%);fill-opacity:1;" d="M 11.023438 175.589844 L 11.023438 176.226562 L 10.382812 176.226562 L 10.382812 175.589844 Z M 11.023438 175.589844 Z M 11.023438 175.589844 "/>
<path style=" stroke:none;fill-rule:nonzero;fill:rgb(0%,0%,0%);fill-opacity:1;" d="M 13.828125 170.875 C 14.746094 170.902344 15.476562 171.84375 15.335938 172.734375 C 15.238281 173.625 14.40625 174.132812 13.808594 174.6875 L 13.554688 174.949219 L 13.523438 174.964844 L 13.207031 175.273438 L 13.183594 175.289062 L 12.867188 175.605469 L 12.835938 175.625 L 12.761719 175.695312 L 12.777344 175.703125 L 15.351562 175.703125 L 15.351562 176.226562 L 12.207031 176.226562 L 12.207031 175.75 L 13.484375 174.472656 C 14.097656 173.941406 14.808594 173.25 14.699219 172.378906 C 14.636719 171.867188 14.207031 171.402344 13.683594 171.359375 C 13.152344 171.28125 12.683594 171.703125 12.5625 172.210938 L 12.546875 172.234375 L 12.53125 172.289062 L 12.507812 172.378906 L 12.460938 172.550781 L 12.453125 172.589844 C 12.34375 172.457031 12.222656 172.3125 12.136719 172.164062 C 12.292969 171.511719 12.816406 170.902344 13.507812 170.875 Z M 13.828125 170.875 Z M 13.828125 170.875 "/>
<path style=" stroke:none;fill-rule:nonzero;fill:rgb(0%,0%,0%);fill-opacity:1;" d="M 7.746094 149.871094 C 8.5 149.929688 9 150.617188 9.136719 151.316406 C 9.207031 151.632812 9.222656 151.9375 9.253906 152.253906 L 9.253906 153.0625 C 9.214844 153.886719 9.015625 154.976562 8.121094 155.308594 C 7.339844 155.617188 6.429688 155.132812 6.199219 154.339844 C 6.023438 153.921875 6.007812 153.492188 5.96875 153.0625 L 5.96875 152.253906 C 6.007812 151.429688 6.183594 150.332031 7.070312 149.96875 L 7.113281 149.953125 L 7.144531 149.945312 L 7.183594 149.929688 L 7.300781 149.894531 L 7.375 149.878906 L 7.460938 149.878906 L 7.476562 149.871094 Z M 7.746094 149.871094 Z M 7.5 150.355469 C 6.832031 150.4375 6.636719 151.238281 6.585938 151.777344 L 6.585938 151.992188 L 6.570312 152.007812 L 6.570312 153.109375 C 6.621094 153.683594 6.660156 154.421875 7.183594 154.800781 C 7.667969 155.132812 8.308594 154.761719 8.445312 154.246094 C 8.585938 153.863281 8.621094 153.492188 8.652344 153.109375 L 8.652344 152.007812 C 8.605469 151.429688 8.523438 150.617188 7.859375 150.386719 L 7.800781 150.371094 L 7.785156 150.355469 L 7.714844 150.355469 L 7.699219 150.339844 L 7.515625 150.339844 Z M 7.5 150.355469 Z M 7.5 150.355469 "/>
<path style=" stroke:none;fill-rule:nonzero;fill:rgb(0%,0%,0%);fill-opacity:1;" d="M 11.023438 154.585938 L 11.023438 155.222656 L 10.382812 155.222656 L 10.382812 154.585938 Z M 11.023438 154.585938 Z M 11.023438 154.585938 "/>
<path style=" stroke:none;fill-rule:nonzero;fill:rgb(0%,0%,0%);fill-opacity:1;" d="M 14.730469 150.039062 L 14.730469 153.378906 L 14.746094 153.398438 L 15.53125 153.398438 L 15.53125 153.871094 L 14.746094 153.871094 L 14.730469 153.878906 L 14.730469 155.222656 L 14.128906 155.222656 L 14.128906 153.878906 L 14.113281 153.871094 L 12.015625 153.871094 L 12.015625 153.378906 C 12.683594 152.269531 13.351562 151.148438 14.015625 150.039062 Z M 14.730469 150.039062 Z M 14.144531 150.339844 C 13.984375 151.167969 13.476562 151.871094 13.097656 152.59375 C 12.945312 152.855469 12.746094 153.140625 12.636719 153.398438 L 14.160156 153.398438 L 14.167969 153.378906 L 14.167969 150.339844 L 14.160156 150.324219 Z M 14.144531 150.339844 Z M 14.144531 150.339844 "/>
<path style=" stroke:none;fill-rule:nonzero;fill:rgb(0%,0%,0%);fill-opacity:1;" d="M 7.746094 128.867188 C 8.5 128.921875 9 129.613281 9.136719 130.3125 C 9.207031 130.628906 9.222656 130.933594 9.253906 131.25 L 9.253906 132.058594 C 9.214844 132.882812 9.015625 133.972656 8.121094 134.304688 C 7.339844 134.613281 6.429688 134.128906 6.199219 133.335938 C 6.023438 132.914062 6.007812 132.488281 5.96875 132.058594 L 5.96875 131.25 C 6.007812 130.421875 6.183594 129.328125 7.070312 128.964844 L 7.113281 128.949219 L 7.144531 128.941406 L 7.183594 128.921875 L 7.300781 128.890625 L 7.375 128.875 L 7.460938 128.875 L 7.476562 128.867188 Z M 7.746094 128.867188 Z M 7.5 129.351562 C 6.832031 129.429688 6.636719 130.234375 6.585938 130.773438 L 6.585938 130.988281 L 6.570312 131.003906 L 6.570312 132.105469 C 6.621094 132.679688 6.660156 133.414062 7.183594 133.796875 C 7.667969 134.128906 8.308594 133.757812 8.445312 133.242188 C 8.585938 132.859375 8.621094 132.488281 8.652344 132.105469 L 8.652344 131.003906 C 8.605469 130.421875 8.523438 129.613281 7.859375 129.382812 L 7.800781 129.367188 L 7.785156 129.351562 L 7.714844 129.351562 L 7.699219 129.335938 L 7.515625 129.335938 Z M 7.5 129.351562 Z M 7.5 129.351562 "/>
<path style=" stroke:none;fill-rule:nonzero;fill:rgb(0%,0%,0%);fill-opacity:1;" d="M 11.023438 133.582031 L 11.023438 134.21875 L 10.382812 134.21875 L 10.382812 133.582031 Z M 11.023438 133.582031 Z M 11.023438 133.582031 "/>
<path style=" stroke:none;fill-rule:nonzero;fill:rgb(0%,0%,0%);fill-opacity:1;" d="M 14.429688 128.867188 C 14.636719 128.898438 14.875 128.921875 15.074219 129.019531 L 15.074219 129.480469 C 14.523438 129.242188 13.808594 129.210938 13.382812 129.695312 C 13 130.097656 12.824219 130.703125 12.808594 131.234375 C 13.269531 130.621094 14.308594 130.28125 14.875 130.914062 C 15.4375 131.566406 15.53125 132.503906 15.277344 133.296875 C 15 133.933594 14.359375 134.511719 13.644531 134.375 C 12.675781 134.296875 12.238281 133.21875 12.191406 132.390625 C 12.007812 131.226562 12.285156 129.757812 13.398438 129.089844 L 13.414062 129.082031 L 13.582031 128.996094 L 13.628906 128.980469 L 13.652344 128.964844 L 13.785156 128.921875 L 13.898438 128.890625 L 13.96875 128.875 L 14.054688 128.875 L 14.070312 128.867188 Z M 14.429688 128.867188 Z M 13.652344 131.074219 C 12.960938 131.195312 12.738281 132.027344 12.824219 132.589844 C 12.867188 133.121094 13.070312 133.828125 13.683594 133.941406 C 14.335938 134.027344 14.753906 133.328125 14.769531 132.765625 C 14.800781 132.195312 14.769531 131.542969 14.269531 131.167969 L 14.160156 131.113281 L 14.070312 131.089844 L 14 131.074219 L 13.984375 131.058594 L 13.667969 131.058594 Z M 13.652344 131.074219 Z M 13.652344 131.074219 "/>
<path style=" stroke:none;fill-rule:nonzero;fill:rgb(0%,0%,0%);fill-opacity:1;" d="M 7.746094 107.863281 C 8.5 107.917969 9 108.609375 9.136719 109.308594 C 9.207031 109.625 9.222656 109.925781 9.253906 110.246094 L 9.253906 111.054688 C 9.214844 111.878906 9.015625 112.96875 8.121094 113.300781 C 7.339844 113.609375 6.429688 113.125 6.199219 112.332031 C 6.023438 111.910156 6.007812 111.484375 5.96875 111.054688 L 5.96875 110.246094 C 6.007812 109.417969 6.183594 108.324219 7.070312 107.957031 L 7.113281 107.941406 L 7.144531 107.933594 L 7.183594 107.917969 L 7.300781 107.886719 L 7.375 107.871094 L 7.460938 107.871094 L 7.476562 107.863281 Z M 7.746094 107.863281 Z M 7.5 108.347656 C 6.832031 108.425781 6.636719 109.230469 6.585938 109.769531 L 6.585938 109.984375 L 6.570312 110 L 6.570312 111.101562 C 6.621094 111.671875 6.660156 112.410156 7.183594 112.792969 C 7.667969 113.125 8.308594 112.753906 8.445312 112.238281 C 8.585938 111.855469 8.621094 111.484375 8.652344 111.101562 L 8.652344 110 C 8.605469 109.417969 8.523438 108.609375 7.859375 108.378906 L 7.800781 108.363281 L 7.785156 108.347656 L 7.714844 108.347656 L 7.699219 108.332031 L 7.515625 108.332031 Z M 7.5 108.347656 Z M 7.5 108.347656 "/>
<path style=" stroke:none;fill-rule:nonzero;fill:rgb(0%,0%,0%);fill-opacity:1;" d="M 11.023438 112.578125 L 11.023438 113.214844 L 10.382812 113.214844 L 10.382812 112.578125 Z M 11.023438 112.578125 Z M 11.023438 112.578125 "/>
<path style=" stroke:none;fill-rule:nonzero;fill:rgb(0%,0%,0%);fill-opacity:1;" d="M 13.929688 107.863281 C 14.769531 107.894531 15.5625 108.800781 15.230469 109.640625 C 15.089844 110.03125 14.691406 110.269531 14.367188 110.433594 C 15.175781 110.671875 15.667969 111.617188 15.300781 112.394531 C 14.921875 113.402344 13.476562 113.722656 12.683594 112.992188 C 11.960938 112.417969 11.9375 111.179688 12.738281 110.671875 C 12.859375 110.546875 13.082031 110.507812 13.183594 110.410156 C 12.492188 110.214844 12.023438 109.410156 12.351562 108.738281 C 12.613281 108.132812 13.285156 107.800781 13.929688 107.863281 Z M 13.929688 107.863281 Z M 13.628906 108.316406 C 13.039062 108.332031 12.628906 109 12.824219 109.523438 C 13.054688 110.425781 14.574219 110.394531 14.746094 109.46875 C 14.90625 108.949219 14.492188 108.332031 13.929688 108.316406 L 13.914062 108.308594 L 13.644531 108.308594 Z M 13.628906 108.316406 Z M 13.644531 110.671875 C 12.953125 110.722656 12.613281 111.546875 12.792969 112.132812 C 12.914062 112.96875 14.105469 113.214844 14.574219 112.546875 C 15.023438 111.933594 14.800781 110.839844 13.984375 110.671875 L 13.914062 110.671875 L 13.898438 110.65625 L 13.652344 110.65625 Z M 13.644531 110.671875 Z M 13.644531 110.671875 "/>
<path style=" stroke:none;fill-rule:nonzero;fill:rgb(0%,0%,0%);fill-opacity:1;" d="M 7.992188 86.859375 L 7.992188 91.757812 L 8 91.773438 L 8.976562 91.773438 L 8.976562 92.207031 L 6.398438 92.207031 L 6.398438 91.773438 L 7.375 91.773438 L 7.390625 91.757812 L 7.390625 87.644531 C 7.054688 87.757812 6.707031 87.828125 6.359375 87.820312 L 6.359375 87.375 C 6.882812 87.382812 7.453125 87.238281 7.851562 86.859375 Z M 7.992188 86.859375 Z M 7.992188 86.859375 "/>
<path style=" stroke:none;fill-rule:nonzero;fill:rgb(0%,0%,0%);fill-opacity:1;" d="M 11.023438 91.574219 L 11.023438 92.207031 L 10.382812 92.207031 L 10.382812 91.574219 Z M 11.023438 91.574219 Z M 11.023438 91.574219 "/>
<path style=" stroke:none;fill-rule:nonzero;fill:rgb(0%,0%,0%);fill-opacity:1;" d="M 13.914062 86.859375 C 14.667969 86.914062 15.167969 87.605469 15.300781 88.304688 C 15.375 88.621094 15.390625 88.921875 15.421875 89.242188 L 15.421875 90.050781 C 15.382812 90.875 15.183594 91.960938 14.285156 92.296875 C 13.507812 92.605469 12.597656 92.121094 12.367188 91.328125 C 12.191406 90.90625 12.175781 90.476562 12.136719 90.050781 L 12.136719 89.242188 C 12.175781 88.414062 12.351562 87.320312 13.238281 86.953125 L 13.277344 86.9375 L 13.308594 86.929688 L 13.351562 86.914062 L 13.46875 86.882812 L 13.539062 86.867188 L 13.628906 86.867188 L 13.644531 86.859375 Z M 13.914062 86.859375 Z M 13.667969 87.34375 C 13 87.421875 12.800781 88.222656 12.753906 88.765625 L 12.753906 88.976562 L 12.738281 88.996094 L 12.738281 90.097656 C 12.785156 90.667969 12.824219 91.40625 13.351562 91.789062 C 13.835938 92.121094 14.476562 91.75 14.613281 91.234375 C 14.753906 90.851562 14.785156 90.476562 14.816406 90.097656 L 14.816406 88.996094 C 14.769531 88.414062 14.691406 87.605469 14.023438 87.375 L 13.96875 87.359375 L 13.953125 87.34375 L 13.882812 87.34375 L 13.867188 87.328125 L 13.683594 87.328125 Z M 13.667969 87.34375 Z M 13.667969 87.34375 "/>
<path style=" stroke:none;fill-rule:nonzero;fill:rgb(0%,0%,0%);fill-opacity:1;" d="M 7.992188 65.855469 L 7.992188 70.75 L 8 70.769531 L 8.976562 70.769531 L 8.976562 71.203125 L 6.398438 71.203125 L 6.398438 70.769531 L 7.375 70.769531 L 7.390625 70.75 L 7.390625 66.640625 C 7.054688 66.75 6.707031 66.824219 6.359375 66.816406 L 6.359375 66.371094 C 6.882812 66.378906 7.453125 66.234375 7.851562 65.855469 Z M 7.992188 65.855469 Z M 7.992188 65.855469 "/>
<path style=" stroke:none;fill-rule:nonzero;fill:rgb(0%,0%,0%);fill-opacity:1;" d="M 11.023438 70.570312 L 11.023438 71.203125 L 10.382812 71.203125 L 10.382812 70.570312 Z M 11.023438 70.570312 Z M 11.023438 70.570312 "/>
<path style=" stroke:none;fill-rule:nonzero;fill:rgb(0%,0%,0%);fill-opacity:1;" d="M 13.828125 65.855469 C 14.746094 65.878906 15.476562 66.824219 15.335938 67.710938 C 15.238281 68.601562 14.40625 69.109375 13.808594 69.664062 L 13.554688 69.925781 L 13.523438 69.941406 L 13.207031 70.25 L 13.183594 70.269531 L 12.867188 70.585938 L 12.835938 70.601562 L 12.761719 70.671875 L 12.777344 70.679688 L 15.351562 70.679688 L 15.351562 71.203125 L 12.207031 71.203125 L 12.207031 70.726562 L 13.484375 69.449219 C 14.097656 68.917969 14.808594 68.226562 14.699219 67.355469 C 14.636719 66.847656 14.207031 66.378906 13.683594 66.339844 C 13.152344 66.257812 12.683594 66.679688 12.5625 67.1875 L 12.546875 67.210938 L 12.53125 67.265625 L 12.507812 67.355469 L 12.460938 67.53125 L 12.453125 67.570312 C 12.34375 67.433594 12.222656 67.292969 12.136719 67.140625 C 12.292969 66.488281 12.816406 65.878906 13.507812 65.855469 Z M 13.828125 65.855469 Z M 13.828125 65.855469 "/>
<path style=" stroke:none;fill-rule:nonzero;fill:rgb(0%,0%,0%);fill-opacity:1;" d="M 7.992188 44.851562 L 7.992188 49.746094 L 8 49.761719 L 8.976562 49.761719 L 8.976562 50.199219 L 6.398438 50.199219 L 6.398438 49.761719 L 7.375 49.761719 L 7.390625 49.746094 L 7.390625 45.636719 C 7.054688 45.746094 6.707031 45.820312 6.359375 45.8125 L 6.359375 45.367188 C 6.882812 45.375 7.453125 45.230469 7.851562 44.851562 Z M 7.992188 44.851562 Z M 7.992188 44.851562 "/>
<path style=" stroke:none;fill-rule:nonzero;fill:rgb(0%,0%,0%);fill-opacity:1;" d="M 11.023438 49.566406 L 11.023438 50.199219 L 10.382812 50.199219 L 10.382812 49.566406 Z M 11.023438 49.566406 Z M 11.023438 49.566406 "/>
<path style=" stroke:none;fill-rule:nonzero;fill:rgb(0%,0%,0%);fill-opacity:1;" d="M 14.730469 45.015625 L 14.730469 48.359375 L 14.746094 48.375 L 15.53125 48.375 L 15.53125 48.851562 L 14.746094 48.851562 L 14.730469 48.859375 L 14.730469 50.199219 L 14.128906 50.199219 L 14.128906 48.859375 L 14.113281 48.851562 L 12.015625 48.851562 L 12.015625 48.359375 C 12.683594 47.246094 13.351562 46.128906 14.015625 45.015625 Z M 14.730469 45.015625 Z M 14.144531 45.320312 C 13.984375 46.144531 13.476562 46.851562 13.097656 47.574219 C 12.945312 47.835938 12.746094 48.121094 12.636719 48.375 L 14.160156 48.375 L 14.167969 48.359375 L 14.167969 45.320312 L 14.160156 45.300781 Z M 14.144531 45.320312 Z M 14.144531 45.320312 "/>
<path style=" stroke:none;fill-rule:nonzero;fill:rgb(0%,0%,0%);fill-opacity:1;" d="M 7.992188 23.847656 L 7.992188 28.742188 L 8 28.757812 L 8.976562 28.757812 L 8.976562 29.195312 L 6.398438 29.195312 L 6.398438 28.757812 L 7.375 28.757812 L 7.390625 28.742188 L 7.390625 24.632812 C 7.054688 24.742188 6.707031 24.8125 6.359375 24.804688 L 6.359375 24.363281 C 6.882812 24.371094 7.453125 24.226562 7.851562 23.847656 Z M 7.992188 23.847656 Z M 7.992188 23.847656 "/>
<path style=" stroke:none;fill-rule:nonzero;fill:rgb(0%,0%,0%);fill-opacity:1;" d="M 11.023438 28.558594 L 11.023438 29.195312 L 10.382812 29.195312 L 10.382812 28.558594 Z M 11.023438 28.558594 Z M 11.023438 28.558594 "/>
<path style=" stroke:none;fill-rule:nonzero;fill:rgb(0%,0%,0%);fill-opacity:1;" d="M 14.429688 23.847656 C 14.636719 23.878906 14.875 23.902344 15.074219 23.996094 L 15.074219 24.457031 C 14.523438 24.21875 13.808594 24.1875 13.382812 24.671875 C 13 25.074219 12.824219 25.679688 12.808594 26.210938 C 13.269531 25.601562 14.308594 25.257812 14.875 25.894531 C 15.4375 26.542969 15.53125 27.480469 15.277344 28.273438 C 15 28.910156 14.359375 29.488281 13.644531 29.355469 C 12.675781 29.273438 12.238281 28.195312 12.191406 27.371094 C 12.007812 26.203125 12.285156 24.734375 13.398438 24.066406 L 13.414062 24.058594 L 13.582031 23.972656 L 13.628906 23.957031 L 13.652344 23.941406 L 13.785156 23.902344 L 13.898438 23.871094 L 13.96875 23.855469 L 14.054688 23.855469 L 14.070312 23.847656 Z M 14.429688 23.847656 Z M 13.652344 26.050781 C 12.960938 26.171875 12.738281 27.003906 12.824219 27.566406 C 12.867188 28.101562 13.070312 28.804688 13.683594 28.917969 C 14.335938 29.003906 14.753906 28.304688 14.769531 27.742188 C 14.800781 27.171875 14.769531 26.519531 14.269531 26.148438 L 14.160156 26.09375 L 14.070312 26.066406 L 14 26.050781 L 13.984375 26.035156 L 13.667969 26.035156 Z M 13.652344 26.050781 Z M 13.652344 26.050781 "/>
<path style=" stroke:none;fill-rule:nonzero;fill:rgb(0%,0%,0%);fill-opacity:1;" d="M 7.992188 2.839844 L 7.992188 7.738281 L 8 7.753906 L 8.976562 7.753906 L 8.976562 8.191406 L 6.398438 8.191406 L 6.398438 7.753906 L 7.375 7.753906 L 7.390625 7.738281 L 7.390625 3.628906 C 7.054688 3.738281 6.707031 3.808594 6.359375 3.800781 L 6.359375 3.355469 C 6.882812 3.363281 7.453125 3.222656 7.851562 2.839844 Z M 7.992188 2.839844 Z M 7.992188 2.839844 "/>
<path style=" stroke:none;fill-rule:nonzero;fill:rgb(0%,0%,0%);fill-opacity:1;" d="M 11.023438 7.554688 L 11.023438 8.191406 L 10.382812 8.191406 L 10.382812 7.554688 Z M 11.023438 7.554688 Z M 11.023438 7.554688 "/>
<path style=" stroke:none;fill-rule:nonzero;fill:rgb(0%,0%,0%);fill-opacity:1;" d="M 13.929688 2.839844 C 14.769531 2.875 15.5625 3.777344 15.230469 4.621094 C 15.089844 5.007812 14.691406 5.246094 14.367188 5.414062 C 15.175781 5.652344 15.667969 6.59375 15.300781 7.375 C 14.921875 8.382812 13.476562 8.699219 12.683594 7.96875 C 11.960938 7.398438 11.9375 6.160156 12.738281 5.652344 C 12.859375 5.523438 13.082031 5.484375 13.183594 5.390625 C 12.492188 5.191406 12.023438 4.390625 12.351562 3.714844 C 12.613281 3.109375 13.285156 2.777344 13.929688 2.839844 Z M 13.929688 2.839844 Z M 13.628906 3.292969 C 13.039062 3.308594 12.628906 3.976562 12.824219 4.5 C 13.054688 5.40625 14.574219 5.375 14.746094 4.445312 C 14.90625 3.929688 14.492188 3.308594 13.929688 3.292969 L 13.914062 3.285156 L 13.644531 3.285156 Z M 13.628906 3.292969 Z M 13.644531 5.652344 C 12.953125 5.699219 12.613281 6.523438 12.792969 7.113281 C 12.914062 7.945312 14.105469 8.191406 14.574219 7.523438 C 15.023438 6.914062 14.800781 5.816406 13.984375 5.652344 L 13.914062 5.652344 L 13.898438 5.636719 L 13.652344 5.636719 Z M 13.644531 5.652344 Z M 13.644531 5.652344 "/>
<path style="fill:none;stroke-width:0.02;stroke-linecap:butt;stroke-linejoin:miter;stroke:rgb(0%,0%,0%);stroke-opacity:1;stroke-miterlimit:10;" d="M 9.751274 1.16934 L 9.646267 1.16934 " transform="matrix(28.346457,0,0,-28.346457,1,227.771654)"/>
<path style="fill:none;stroke-width:0.02;stroke-linecap:butt;stroke-linejoin:miter;stroke:rgb(0%,0%,0%);stroke-opacity:1;stroke-miterlimit:10;" d="M 9.751274 1.910311 L 9.646267 1.910311 " transform="matrix(28.346457,0,0,-28.346457,1,227.771654)"/>
<path style="fill:none;stroke-width:0.02;stroke-linecap:butt;stroke-linejoin:miter;stroke:rgb(0%,0%,0%);stroke-opacity:1;stroke-miterlimit:10;" d="M 9.751274 2.65142 L 9.646267 2.65142 " transform="matrix(28.346457,0,0,-28.346457,1,227.771654)"/>
<path style="fill:none;stroke-width:0.02;stroke-linecap:butt;stroke-linejoin:miter;stroke:rgb(0%,0%,0%);stroke-opacity:1;stroke-miterlimit:10;" d="M 9.751274 3.392391 L 9.646267 3.392391 " transform="matrix(28.346457,0,0,-28.346457,1,227.771654)"/>
<path style="fill:none;stroke-width:0.02;stroke-linecap:butt;stroke-linejoin:miter;stroke:rgb(0%,0%,0%);stroke-opacity:1;stroke-miterlimit:10;" d="M 9.751274 4.133363 L 9.646267 4.133363 " transform="matrix(28.346457,0,0,-28.346457,1,227.771654)"/>
<path style="fill:none;stroke-width:0.02;stroke-linecap:butt;stroke-linejoin:miter;stroke:rgb(0%,0%,0%);stroke-opacity:1;stroke-miterlimit:10;" d="M 9.751274 4.874334 L 9.646267 4.874334 " transform="matrix(28.346457,0,0,-28.346457,1,227.771654)"/>
<path style="fill:none;stroke-width:0.02;stroke-linecap:butt;stroke-linejoin:miter;stroke:rgb(0%,0%,0%);stroke-opacity:1;stroke-miterlimit:10;" d="M 9.751274 5.615305 L 9.646267 5.615305 " transform="matrix(28.346457,0,0,-28.346457,1,227.771654)"/>
<path style="fill:none;stroke-width:0.02;stroke-linecap:butt;stroke-linejoin:miter;stroke:rgb(0%,0%,0%);stroke-opacity:1;stroke-miterlimit:10;" d="M 9.751274 6.356276 L 9.646267 6.356276 " transform="matrix(28.346457,0,0,-28.346457,1,227.771654)"/>
<path style="fill:none;stroke-width:0.02;stroke-linecap:butt;stroke-linejoin:miter;stroke:rgb(0%,0%,0%);stroke-opacity:1;stroke-miterlimit:10;" d="M 9.751274 7.097247 L 9.646267 7.097247 " transform="matrix(28.346457,0,0,-28.346457,1,227.771654)"/>
<path style="fill:none;stroke-width:0.02;stroke-linecap:round;stroke-linejoin:miter;stroke:rgb(0%,0%,0%);stroke-opacity:1;stroke-miterlimit:10;" d="M 9.751274 0.428369 L 9.751274 7.838356 " transform="matrix(28.346457,0,0,-28.346457,1,227.771654)"/>
<path style="fill:none;stroke-width:0.02;stroke-linecap:butt;stroke-linejoin:miter;stroke:rgb(0%,0%,0%);stroke-opacity:1;stroke-miterlimit:10;" d="M 1.827692 0.428369 L 1.827692 0.533376 " transform="matrix(28.346457,0,0,-28.346457,1,227.771654)"/>
<path style="fill:none;stroke-width:0.02;stroke-linecap:butt;stroke-linejoin:miter;stroke:rgb(0%,0%,0%);stroke-opacity:1;stroke-miterlimit:10;" d="M 2.959613 0.428369 L 2.959613 0.533376 " transform="matrix(28.346457,0,0,-28.346457,1,227.771654)"/>
<path style="fill:none;stroke-width:0.02;stroke-linecap:butt;stroke-linejoin:miter;stroke:rgb(0%,0%,0%);stroke-opacity:1;stroke-miterlimit:10;" d="M 4.091533 0.428369 L 4.091533 0.533376 " transform="matrix(28.346457,0,0,-28.346457,1,227.771654)"/>
<path style="fill:none;stroke-width:0.02;stroke-linecap:butt;stroke-linejoin:miter;stroke:rgb(0%,0%,0%);stroke-opacity:1;stroke-miterlimit:10;" d="M 5.223454 0.428369 L 5.223454 0.533376 " transform="matrix(28.346457,0,0,-28.346457,1,227.771654)"/>
<path style="fill:none;stroke-width:0.02;stroke-linecap:butt;stroke-linejoin:miter;stroke:rgb(0%,0%,0%);stroke-opacity:1;stroke-miterlimit:10;" d="M 6.355374 0.428369 L 6.355374 0.533376 " transform="matrix(28.346457,0,0,-28.346457,1,227.771654)"/>
<path style="fill:none;stroke-width:0.02;stroke-linecap:butt;stroke-linejoin:miter;stroke:rgb(0%,0%,0%);stroke-opacity:1;stroke-miterlimit:10;" d="M 7.487433 0.428369 L 7.487433 0.533376 " transform="matrix(28.346457,0,0,-28.346457,1,227.771654)"/>
<path style="fill:none;stroke-width:0.02;stroke-linecap:butt;stroke-linejoin:miter;stroke:rgb(0%,0%,0%);stroke-opacity:1;stroke-miterlimit:10;" d="M 8.619353 0.428369 L 8.619353 0.533376 " transform="matrix(28.346457,0,0,-28.346457,1,227.771654)"/>
<path style="fill:none;stroke-width:0.02;stroke-linecap:round;stroke-linejoin:miter;stroke:rgb(0%,0%,0%);stroke-opacity:1;stroke-miterlimit:10;" d="M 0.695771 0.428369 L 9.751274 0.428369 " transform="matrix(28.346457,0,0,-28.346457,1,227.771654)"/>
<path style=" stroke:none;fill-rule:nonzero;fill:rgb(0%,0%,0%);fill-opacity:1;" d="M 18.019531 220.445312 L 18.019531 225.34375 L 18.027344 225.359375 L 19.003906 225.359375 L 19.003906 225.796875 L 16.425781 225.796875 L 16.425781 225.359375 L 17.402344 225.359375 L 17.417969 225.34375 L 17.417969 221.230469 C 17.085938 221.34375 16.734375 221.414062 16.386719 221.40625 L 16.386719 220.960938 C 16.910156 220.96875 17.480469 220.828125 17.878906 220.445312 Z M 18.019531 220.445312 Z M 18.019531 220.445312 "/>
<path style=" stroke:none;fill-rule:nonzero;fill:rgb(0%,0%,0%);fill-opacity:1;" d="M 21.054688 225.160156 L 21.054688 225.796875 L 20.410156 225.796875 L 20.410156 225.160156 Z M 21.054688 225.160156 Z M 21.054688 225.160156 "/>
<path style=" stroke:none;fill-rule:nonzero;fill:rgb(0%,0%,0%);fill-opacity:1;" d="M 23.941406 220.445312 C 24.695312 220.5 25.195312 221.191406 25.332031 221.890625 C 25.402344 222.207031 25.417969 222.507812 25.449219 222.828125 L 25.449219 223.636719 C 25.410156 224.460938 25.210938 225.550781 24.316406 225.882812 C 23.539062 226.191406 22.625 225.707031 22.394531 224.914062 C 22.21875 224.492188 22.203125 224.066406 22.164062 223.636719 L 22.164062 222.828125 C 22.203125 222 22.378906 220.90625 23.265625 220.542969 L 23.308594 220.523438 L 23.339844 220.515625 L 23.378906 220.5 L 23.496094 220.46875 L 23.570312 220.453125 L 23.65625 220.453125 L 23.671875 220.445312 Z M 23.941406 220.445312 Z M 23.695312 220.929688 C 23.027344 221.007812 22.832031 221.8125 22.78125 222.351562 L 22.78125 222.566406 L 22.765625 222.582031 L 22.765625 223.683594 C 22.816406 224.253906 22.855469 224.992188 23.378906 225.375 C 23.863281 225.707031 24.503906 225.335938 24.640625 224.820312 C 24.785156 224.4375 24.816406 224.066406 24.847656 223.683594 L 24.847656 222.582031 C 24.800781 222 24.71875 221.191406 24.054688 220.960938 L 23.996094 220.945312 L 23.980469 220.929688 L 23.910156 220.929688 L 23.894531 220.914062 L 23.710938 220.914062 Z M 23.695312 220.929688 Z M 23.695312 220.929688 "/>
<path style=" stroke:none;fill-rule:nonzero;fill:rgb(0%,0%,0%);fill-opacity:1;" d="M 50.105469 220.445312 L 50.105469 225.34375 L 50.113281 225.359375 L 51.089844 225.359375 L 51.089844 225.796875 L 48.511719 225.796875 L 48.511719 225.359375 L 49.488281 225.359375 L 49.503906 225.34375 L 49.503906 221.230469 C 49.171875 221.34375 48.820312 221.414062 48.472656 221.40625 L 48.472656 220.960938 C 48.996094 220.96875 49.566406 220.828125 49.964844 220.445312 Z M 50.105469 220.445312 Z M 50.105469 220.445312 "/>
<path style=" stroke:none;fill-rule:nonzero;fill:rgb(0%,0%,0%);fill-opacity:1;" d="M 53.140625 225.160156 L 53.140625 225.796875 L 52.496094 225.796875 L 52.496094 225.160156 Z M 53.140625 225.160156 Z M 53.140625 225.160156 "/>
<path style=" stroke:none;fill-rule:nonzero;fill:rgb(0%,0%,0%);fill-opacity:1;" d="M 57.203125 220.613281 L 57.203125 221.105469 L 55.140625 221.105469 L 55.125 221.113281 L 55.125 222.738281 C 55.3125 222.613281 55.582031 222.445312 55.835938 222.4375 C 56.734375 222.34375 57.425781 223.222656 57.464844 224.042969 C 57.589844 225.082031 56.617188 226.113281 55.566406 225.953125 C 55.042969 225.9375 54.535156 225.628906 54.234375 225.199219 C 54.320312 225.082031 54.394531 224.875 54.496094 224.804688 C 54.871094 225.535156 56.074219 225.828125 56.558594 225.058594 C 56.871094 224.476562 56.863281 223.738281 56.503906 223.183594 C 56.089844 222.652344 55.273438 222.976562 55.082031 223.542969 L 54.566406 223.542969 L 54.566406 220.613281 Z M 57.203125 220.613281 Z M 57.203125 220.613281 "/>
<path style=" stroke:none;fill-rule:nonzero;fill:rgb(0%,0%,0%);fill-opacity:1;" d="M 81.859375 220.445312 C 82.78125 220.46875 83.511719 221.414062 83.367188 222.304688 C 83.273438 223.191406 82.4375 223.699219 81.84375 224.253906 L 81.589844 224.515625 L 81.558594 224.535156 L 81.242188 224.84375 L 81.21875 224.859375 L 80.898438 225.175781 L 80.867188 225.191406 L 80.796875 225.261719 L 80.8125 225.273438 L 83.382812 225.273438 L 83.382812 225.796875 L 80.242188 225.796875 L 80.242188 225.320312 L 81.519531 224.042969 C 82.128906 223.507812 82.84375 222.820312 82.734375 221.945312 C 82.667969 221.4375 82.242188 220.96875 81.71875 220.929688 C 81.183594 220.851562 80.71875 221.269531 80.597656 221.777344 L 80.582031 221.804688 L 80.566406 221.859375 L 80.542969 221.945312 L 80.496094 222.121094 L 80.488281 222.160156 C 80.375 222.023438 80.257812 221.882812 80.167969 221.730469 C 80.328125 221.082031 80.851562 220.46875 81.542969 220.445312 Z M 81.859375 220.445312 Z M 81.859375 220.445312 "/>
<path style=" stroke:none;fill-rule:nonzero;fill:rgb(0%,0%,0%);fill-opacity:1;" d="M 85.226562 225.160156 L 85.226562 225.796875 L 84.582031 225.796875 L 84.582031 225.160156 Z M 85.226562 225.160156 Z M 85.226562 225.160156 "/>
<path style=" stroke:none;fill-rule:nonzero;fill:rgb(0%,0%,0%);fill-opacity:1;" d="M 88.113281 220.445312 C 88.867188 220.5 89.367188 221.191406 89.503906 221.890625 C 89.574219 222.207031 89.589844 222.507812 89.621094 222.828125 L 89.621094 223.636719 C 89.582031 224.460938 89.382812 225.550781 88.488281 225.882812 C 87.710938 226.191406 86.796875 225.707031 86.566406 224.914062 C 86.390625 224.492188 86.375 224.066406 86.335938 223.636719 L 86.335938 222.828125 C 86.375 222 86.550781 220.90625 87.441406 220.542969 L 87.480469 220.523438 L 87.511719 220.515625 L 87.550781 220.5 L 87.667969 220.46875 L 87.742188 220.453125 L 87.828125 220.453125 L 87.84375 220.445312 Z M 88.113281 220.445312 Z M 87.867188 220.929688 C 87.203125 221.007812 87.003906 221.8125 86.957031 222.351562 L 86.957031 222.566406 L 86.941406 222.582031 L 86.941406 223.683594 C 86.988281 224.253906 87.027344 224.992188 87.550781 225.375 C 88.035156 225.707031 88.675781 225.335938 88.8125 224.820312 C 88.957031 224.4375 88.988281 224.066406 89.019531 223.683594 L 89.019531 222.582031 C 88.972656 222 88.890625 221.191406 88.226562 220.960938 L 88.167969 220.945312 L 88.152344 220.929688 L 88.082031 220.929688 L 88.066406 220.914062 L 87.882812 220.914062 Z M 87.867188 220.929688 Z M 87.867188 220.929688 "/>
<path style=" stroke:none;fill-rule:nonzero;fill:rgb(0%,0%,0%);fill-opacity:1;" d="M 113.945312 220.445312 C 114.867188 220.46875 115.597656 221.414062 115.453125 222.304688 C 115.359375 223.191406 114.523438 223.699219 113.929688 224.253906 L 113.675781 224.515625 L 113.644531 224.535156 L 113.328125 224.84375 L 113.304688 224.859375 L 112.984375 225.175781 L 112.953125 225.191406 L 112.882812 225.261719 L 112.898438 225.273438 L 115.46875 225.273438 L 115.46875 225.796875 L 112.328125 225.796875 L 112.328125 225.320312 L 113.605469 224.042969 C 114.214844 223.507812 114.929688 222.820312 114.820312 221.945312 C 114.753906 221.4375 114.328125 220.96875 113.804688 220.929688 C 113.269531 220.851562 112.804688 221.269531 112.683594 221.777344 L 112.667969 221.804688 L 112.652344 221.859375 L 112.628906 221.945312 L 112.582031 222.121094 L 112.574219 222.160156 C 112.460938 222.023438 112.34375 221.882812 112.253906 221.730469 C 112.414062 221.082031 112.9375 220.46875 113.628906 220.445312 Z M 113.945312 220.445312 Z M 113.945312 220.445312 "/>
<path style=" stroke:none;fill-rule:nonzero;fill:rgb(0%,0%,0%);fill-opacity:1;" d="M 117.3125 225.160156 L 117.3125 225.796875 L 116.667969 225.796875 L 116.667969 225.160156 Z M 117.3125 225.160156 Z M 117.3125 225.160156 "/>
<path style=" stroke:none;fill-rule:nonzero;fill:rgb(0%,0%,0%);fill-opacity:1;" d="M 121.375 220.613281 L 121.375 221.105469 L 119.3125 221.105469 L 119.296875 221.113281 L 119.296875 222.738281 C 119.484375 222.613281 119.753906 222.445312 120.011719 222.4375 C 120.90625 222.34375 121.597656 223.222656 121.636719 224.042969 C 121.765625 225.082031 120.789062 226.113281 119.738281 225.953125 C 119.214844 225.9375 118.707031 225.628906 118.40625 225.199219 C 118.492188 225.082031 118.566406 224.875 118.667969 224.804688 C 119.042969 225.535156 120.246094 225.828125 120.730469 225.058594 C 121.042969 224.476562 121.035156 223.738281 120.675781 223.183594 C 120.265625 222.652344 119.445312 222.976562 119.253906 223.542969 L 118.738281 223.542969 L 118.738281 220.613281 Z M 121.375 220.613281 Z M 121.375 220.613281 "/>
<path style=" stroke:none;fill-rule:nonzero;fill:rgb(0%,0%,0%);fill-opacity:1;" d="M 146.136719 220.445312 C 146.832031 220.476562 147.5625 221.121094 147.398438 221.859375 C 147.316406 222.359375 146.96875 222.769531 146.53125 222.992188 C 147.238281 223.214844 147.785156 223.960938 147.59375 224.699219 C 147.40625 225.660156 146.300781 226.191406 145.414062 225.898438 C 144.984375 225.773438 144.546875 225.5 144.339844 225.105469 C 144.390625 224.984375 144.375 224.78125 144.429688 224.699219 C 144.847656 225.320312 145.738281 225.738281 146.4375 225.390625 C 147.199219 224.90625 147.078125 223.492188 146.160156 223.253906 L 146.085938 223.253906 L 146.070312 223.238281 L 145.332031 223.238281 L 145.332031 222.761719 C 145.785156 222.753906 146.347656 222.699219 146.605469 222.230469 C 146.875 221.828125 146.847656 221.160156 146.332031 220.960938 C 145.722656 220.722656 144.96875 221.113281 144.738281 221.730469 C 144.644531 221.597656 144.546875 221.460938 144.453125 221.320312 C 144.777344 220.730469 145.46875 220.382812 146.136719 220.445312 Z M 146.136719 220.445312 Z M 146.136719 220.445312 "/>
<path style=" stroke:none;fill-rule:nonzero;fill:rgb(0%,0%,0%);fill-opacity:1;" d="M 149.398438 225.160156 L 149.398438 225.796875 L 148.753906 225.796875 L 148.753906 225.160156 Z M 149.398438 225.160156 Z M 149.398438 225.160156 "/>
<path style=" stroke:none;fill-rule:nonzero;fill:rgb(0%,0%,0%);fill-opacity:1;" d="M 152.285156 220.445312 C 153.039062 220.5 153.539062 221.191406 153.675781 221.890625 C 153.746094 222.207031 153.761719 222.507812 153.792969 222.828125 L 153.792969 223.636719 C 153.753906 224.460938 153.554688 225.550781 152.660156 225.882812 C 151.882812 226.191406 150.96875 225.707031 150.738281 224.914062 C 150.5625 224.492188 150.546875 224.066406 150.507812 223.636719 L 150.507812 222.828125 C 150.546875 222 150.722656 220.90625 151.613281 220.542969 L 151.652344 220.523438 L 151.683594 220.515625 L 151.722656 220.5 L 151.84375 220.46875 L 151.914062 220.453125 L 152 220.453125 L 152.015625 220.445312 Z M 152.285156 220.445312 Z M 152.039062 220.929688 C 151.375 221.007812 151.175781 221.8125 151.128906 222.351562 L 151.128906 222.566406 L 151.113281 222.582031 L 151.113281 223.683594 C 151.160156 224.253906 151.199219 224.992188 151.722656 225.375 C 152.207031 225.707031 152.851562 225.335938 152.984375 224.820312 C 153.128906 224.4375 153.160156 224.066406 153.191406 223.683594 L 153.191406 222.582031 C 153.144531 222 153.0625 221.191406 152.398438 220.960938 L 152.34375 220.945312 L 152.324219 220.929688 L 152.253906 220.929688 L 152.238281 220.914062 L 152.054688 220.914062 Z M 152.039062 220.929688 Z M 152.039062 220.929688 "/>
<path style=" stroke:none;fill-rule:nonzero;fill:rgb(0%,0%,0%);fill-opacity:1;" d="M 178.222656 220.445312 C 178.917969 220.476562 179.648438 221.121094 179.484375 221.859375 C 179.402344 222.359375 179.054688 222.769531 178.617188 222.992188 C 179.324219 223.214844 179.871094 223.960938 179.683594 224.699219 C 179.492188 225.660156 178.386719 226.191406 177.5 225.898438 C 177.070312 225.773438 176.632812 225.5 176.425781 225.105469 C 176.476562 224.984375 176.460938 224.78125 176.515625 224.699219 C 176.9375 225.320312 177.824219 225.738281 178.523438 225.390625 C 179.285156 224.90625 179.164062 223.492188 178.246094 223.253906 L 178.171875 223.253906 L 178.15625 223.238281 L 177.417969 223.238281 L 177.417969 222.761719 C 177.871094 222.753906 178.4375 222.699219 178.691406 222.230469 C 178.960938 221.828125 178.9375 221.160156 178.417969 220.960938 C 177.808594 220.722656 177.054688 221.113281 176.824219 221.730469 C 176.730469 221.597656 176.632812 221.460938 176.539062 221.320312 C 176.863281 220.730469 177.554688 220.382812 178.222656 220.445312 Z M 178.222656 220.445312 Z M 178.222656 220.445312 "/>
<path style=" stroke:none;fill-rule:nonzero;fill:rgb(0%,0%,0%);fill-opacity:1;" d="M 181.484375 225.160156 L 181.484375 225.796875 L 180.839844 225.796875 L 180.839844 225.160156 Z M 181.484375 225.160156 Z M 181.484375 225.160156 "/>
<path style=" stroke:none;fill-rule:nonzero;fill:rgb(0%,0%,0%);fill-opacity:1;" d="M 185.546875 220.613281 L 185.546875 221.105469 L 183.484375 221.105469 L 183.46875 221.113281 L 183.46875 222.738281 C 183.660156 222.613281 183.929688 222.445312 184.183594 222.4375 C 185.078125 222.34375 185.769531 223.222656 185.808594 224.042969 C 185.9375 225.082031 184.960938 226.113281 183.914062 225.953125 C 183.386719 225.9375 182.878906 225.628906 182.578125 225.199219 C 182.667969 225.082031 182.738281 224.875 182.839844 224.804688 C 183.214844 225.535156 184.421875 225.828125 184.90625 225.058594 C 185.214844 224.476562 185.207031 223.738281 184.847656 223.183594 C 184.4375 222.652344 183.617188 222.976562 183.429688 223.542969 L 182.914062 223.542969 L 182.914062 220.613281 Z M 185.546875 220.613281 Z M 185.546875 220.613281 "/>
<path style=" stroke:none;fill-rule:nonzero;fill:rgb(0%,0%,0%);fill-opacity:1;" d="M 211.109375 220.613281 L 211.109375 223.953125 L 211.125 223.96875 L 211.910156 223.96875 L 211.910156 224.445312 L 211.125 224.445312 L 211.109375 224.453125 L 211.109375 225.796875 L 210.507812 225.796875 L 210.507812 224.453125 L 210.488281 224.445312 L 208.394531 224.445312 L 208.394531 223.953125 C 209.0625 222.84375 209.726562 221.722656 210.394531 220.613281 Z M 211.109375 220.613281 Z M 210.523438 220.914062 C 210.363281 221.738281 209.855469 222.445312 209.472656 223.167969 C 209.324219 223.429688 209.125 223.714844 209.015625 223.96875 L 210.539062 223.96875 L 210.546875 223.953125 L 210.546875 220.914062 L 210.539062 220.898438 Z M 210.523438 220.914062 Z M 210.523438 220.914062 "/>
<path style=" stroke:none;fill-rule:nonzero;fill:rgb(0%,0%,0%);fill-opacity:1;" d="M 213.570312 225.160156 L 213.570312 225.796875 L 212.925781 225.796875 L 212.925781 225.160156 Z M 213.570312 225.160156 Z M 213.570312 225.160156 "/>
<path style=" stroke:none;fill-rule:nonzero;fill:rgb(0%,0%,0%);fill-opacity:1;" d="M 216.457031 220.445312 C 217.210938 220.5 217.710938 221.191406 217.847656 221.890625 C 217.917969 222.207031 217.933594 222.507812 217.964844 222.828125 L 217.964844 223.636719 C 217.925781 224.460938 217.730469 225.550781 216.832031 225.882812 C 216.054688 226.191406 215.140625 225.707031 214.910156 224.914062 C 214.738281 224.492188 214.71875 224.066406 214.679688 223.636719 L 214.679688 222.828125 C 214.71875 222 214.894531 220.90625 215.785156 220.542969 L 215.824219 220.523438 L 215.855469 220.515625 L 215.894531 220.5 L 216.015625 220.46875 L 216.085938 220.453125 L 216.171875 220.453125 L 216.1875 220.445312 Z M 216.457031 220.445312 Z M 216.210938 220.929688 C 215.546875 221.007812 215.347656 221.8125 215.300781 222.351562 L 215.300781 222.566406 L 215.285156 222.582031 L 215.285156 223.683594 C 215.332031 224.253906 215.371094 224.992188 215.894531 225.375 C 216.378906 225.707031 217.023438 225.335938 217.15625 224.820312 C 217.300781 224.4375 217.332031 224.066406 217.363281 223.683594 L 217.363281 222.582031 C 217.316406 222 217.238281 221.191406 216.570312 220.960938 L 216.515625 220.945312 L 216.5 220.929688 L 216.425781 220.929688 L 216.410156 220.914062 L 216.230469 220.914062 Z M 216.210938 220.929688 Z M 216.210938 220.929688 "/>
<path style=" stroke:none;fill-rule:nonzero;fill:rgb(0%,0%,0%);fill-opacity:1;" d="M 243.195312 220.613281 L 243.195312 223.953125 L 243.210938 223.96875 L 243.996094 223.96875 L 243.996094 224.445312 L 243.210938 224.445312 L 243.195312 224.453125 L 243.195312 225.796875 L 242.59375 225.796875 L 242.59375 224.453125 L 242.578125 224.445312 L 240.480469 224.445312 L 240.480469 223.953125 C 241.148438 222.84375 241.8125 221.722656 242.480469 220.613281 Z M 243.195312 220.613281 Z M 242.609375 220.914062 C 242.449219 221.738281 241.941406 222.445312 241.558594 223.167969 C 241.410156 223.429688 241.210938 223.714844 241.101562 223.96875 L 242.625 223.96875 L 242.632812 223.953125 L 242.632812 220.914062 L 242.625 220.898438 Z M 242.609375 220.914062 Z M 242.609375 220.914062 "/>
<path style=" stroke:none;fill-rule:nonzero;fill:rgb(0%,0%,0%);fill-opacity:1;" d="M 245.65625 225.160156 L 245.65625 225.796875 L 245.011719 225.796875 L 245.011719 225.160156 Z M 245.65625 225.160156 Z M 245.65625 225.160156 "/>
<path style=" stroke:none;fill-rule:nonzero;fill:rgb(0%,0%,0%);fill-opacity:1;" d="M 249.71875 220.613281 L 249.71875 221.105469 L 247.65625 221.105469 L 247.640625 221.113281 L 247.640625 222.738281 C 247.832031 222.613281 248.101562 222.445312 248.355469 222.4375 C 249.25 222.34375 249.941406 223.222656 249.980469 224.042969 C 250.109375 225.082031 249.132812 226.113281 248.085938 225.953125 C 247.5625 225.9375 247.050781 225.628906 246.75 225.199219 C 246.839844 225.082031 246.910156 224.875 247.011719 224.804688 C 247.386719 225.535156 248.59375 225.828125 249.078125 225.058594 C 249.386719 224.476562 249.378906 223.738281 249.019531 223.183594 C 248.609375 222.652344 247.789062 222.976562 247.601562 223.542969 L 247.085938 223.542969 L 247.085938 220.613281 Z M 249.71875 220.613281 Z M 249.71875 220.613281 "/>
<path style=" stroke:none;fill-rule:nonzero;fill:rgb(0%,0%,0%);fill-opacity:1;" d="M 275.636719 220.613281 L 275.636719 221.105469 L 273.574219 221.105469 L 273.558594 221.113281 L 273.558594 222.738281 C 273.75 222.613281 274.019531 222.445312 274.273438 222.4375 C 275.171875 222.34375 275.859375 223.222656 275.902344 224.042969 C 276.027344 225.082031 275.050781 226.113281 274.003906 225.953125 C 273.480469 225.9375 272.972656 225.628906 272.671875 225.199219 C 272.757812 225.082031 272.828125 224.875 272.933594 224.804688 C 273.304688 225.535156 274.511719 225.828125 274.996094 225.058594 C 275.304688 224.476562 275.296875 223.738281 274.941406 223.183594 C 274.527344 222.652344 273.710938 222.976562 273.519531 223.542969 L 273.003906 223.542969 L 273.003906 220.613281 Z M 275.636719 220.613281 Z M 275.636719 220.613281 "/>
<path style=" stroke:none;fill-rule:nonzero;fill:rgb(0%,0%,0%);fill-opacity:1;" d="M 277.742188 225.160156 L 277.742188 225.796875 L 277.097656 225.796875 L 277.097656 225.160156 Z M 277.742188 225.160156 Z M 277.742188 225.160156 "/>
<path style=" stroke:none;fill-rule:nonzero;fill:rgb(0%,0%,0%);fill-opacity:1;" d="M 280.632812 220.445312 C 281.386719 220.5 281.886719 221.191406 282.019531 221.890625 C 282.089844 222.207031 282.105469 222.507812 282.140625 222.828125 L 282.140625 223.636719 C 282.097656 224.460938 281.902344 225.550781 281.003906 225.882812 C 280.226562 226.191406 279.3125 225.707031 279.082031 224.914062 C 278.910156 224.492188 278.894531 224.066406 278.851562 223.636719 L 278.851562 222.828125 C 278.894531 222 279.066406 220.90625 279.957031 220.542969 L 279.996094 220.523438 L 280.027344 220.515625 L 280.066406 220.5 L 280.1875 220.46875 L 280.257812 220.453125 L 280.34375 220.453125 L 280.359375 220.445312 Z M 280.632812 220.445312 Z M 280.386719 220.929688 C 279.71875 221.007812 279.519531 221.8125 279.472656 222.351562 L 279.472656 222.566406 L 279.457031 222.582031 L 279.457031 223.683594 C 279.503906 224.253906 279.542969 224.992188 280.066406 225.375 C 280.550781 225.707031 281.195312 225.335938 281.328125 224.820312 C 281.472656 224.4375 281.503906 224.066406 281.535156 223.683594 L 281.535156 222.582031 C 281.488281 222 281.410156 221.191406 280.742188 220.960938 L 280.6875 220.945312 L 280.671875 220.929688 L 280.597656 220.929688 L 280.582031 220.914062 L 280.402344 220.914062 Z M 280.386719 220.929688 Z M 280.386719 220.929688 "/>
<path style="fill:none;stroke-width:0.02;stroke-linecap:butt;stroke-linejoin:miter;stroke:rgb(0%,0%,0%);stroke-opacity:1;stroke-miterlimit:10;" d="M 1.827692 7.838356 L 1.827692 7.73335 " transform="matrix(28.346457,0,0,-28.346457,1,227.771654)"/>
<path style="fill:none;stroke-width:0.02;stroke-linecap:butt;stroke-linejoin:miter;stroke:rgb(0%,0%,0%);stroke-opacity:1;stroke-miterlimit:10;" d="M 2.959613 7.838356 L 2.959613 7.73335 " transform="matrix(28.346457,0,0,-28.346457,1,227.771654)"/>
<path style="fill:none;stroke-width:0.02;stroke-linecap:butt;stroke-linejoin:miter;stroke:rgb(0%,0%,0%);stroke-opacity:1;stroke-miterlimit:10;" d="M 4.091533 7.838356 L 4.091533 7.73335 " transform="matrix(28.346457,0,0,-28.346457,1,227.771654)"/>
<path style="fill:none;stroke-width:0.02;stroke-linecap:butt;stroke-linejoin:miter;stroke:rgb(0%,0%,0%);stroke-opacity:1;stroke-miterlimit:10;" d="M 5.223454 7.838356 L 5.223454 7.73335 " transform="matrix(28.346457,0,0,-28.346457,1,227.771654)"/>
<path style="fill:none;stroke-width:0.02;stroke-linecap:butt;stroke-linejoin:miter;stroke:rgb(0%,0%,0%);stroke-opacity:1;stroke-miterlimit:10;" d="M 6.355374 7.838356 L 6.355374 7.73335 " transform="matrix(28.346457,0,0,-28.346457,1,227.771654)"/>
<path style="fill:none;stroke-width:0.02;stroke-linecap:butt;stroke-linejoin:miter;stroke:rgb(0%,0%,0%);stroke-opacity:1;stroke-miterlimit:10;" d="M 7.487433 7.838356 L 7.487433 7.73335 " transform="matrix(28.346457,0,0,-28.346457,1,227.771654)"/>
<path style="fill:none;stroke-width:0.02;stroke-linecap:butt;stroke-linejoin:miter;stroke:rgb(0%,0%,0%);stroke-opacity:1;stroke-miterlimit:10;" d="M 8.619353 7.838356 L 8.619353 7.73335 " transform="matrix(28.346457,0,0,-28.346457,1,227.771654)"/>
<path style="fill:none;stroke-width:0.02;stroke-linecap:round;stroke-linejoin:miter;stroke:rgb(0%,0%,0%);stroke-opacity:1;stroke-miterlimit:10;" d="M 0.695771 7.838356 L 9.751274 7.838356 " transform="matrix(28.346457,0,0,-28.346457,1,227.771654)"/>
<path style="fill:none;stroke-width:0.02;stroke-linecap:butt;stroke-linejoin:miter;stroke:rgb(32.941176%,47.058824%,63.921569%);stroke-opacity:1;stroke-miterlimit:10;" d="M 0.695771 7.335234 L 2.959613 2.349768 L 5.223454 5.814707 L 7.487433 4.602171 L 9.751274 0.938381 " transform="matrix(28.346457,0,0,-28.346457,1,227.771654)"/>
</g>
</svg>
