<?xml version="1.0" encoding="UTF-8"?>
<svg xmlns="http://www.w3.org/2000/svg" xmlns:xlink="http://www.w3.org/1999/xlink" width="285.464567pt" height="228.771654pt" viewBox="0 0 285.464567 228.771654" version="1.1">
<g id="surface1">
<path style="fill:none;stroke-width:0.02;stroke-linecap:butt;stroke-linejoin:miter;stroke:rgb(0%,0%,0%);stroke-opacity:1;stroke-miterlimit:10;" d="M 0.478179 1.792351 L 0.583186 1.792351 " transform="matrix(28.346457,0,0,-28.346457,1,227.771654)"/>
<path style="fill:none;stroke-width:0.02;stroke-linecap:butt;stroke-linejoin:miter;stroke:rgb(0%,0%,0%);stroke-opacity:1;stroke-miterlimit:10;" d="M 0.478179 3.156196 L 0.583186 3.156196 " transform="matrix(28.346457,0,0,-28.346457,1,227.771654)"/>
<path style="fill:none;stroke-width:0.02;stroke-linecap:butt;stroke-linejoin:miter;stroke:rgb(0%,0%,0%);stroke-opacity:1;stroke-miterlimit:10;" d="M 0.478179 4.520178 L 0.583186 4.520178 " transform="matrix(28.346457,0,0,-28.346457,1,227.771654)"/>
<path style="fill:none;stroke-width:0.02;stroke-linecap:butt;stroke-linejoin:miter;stroke:rgb(0%,0%,0%);stroke-opacity:1;stroke-miterlimit:10;" d="M 0.478179 5.88416 L 0.583186 5.88416 " transform="matrix(28.346457,0,0,-28.346457,1,227.771654)"/>
<path style="fill:none;stroke-width:0.02;stroke-linecap:butt;stroke-linejoin:miter;stroke:rgb(0%,0%,0%);stroke-opacity:1;stroke-miterlimit:10;" d="M 0.478179 7.248005 L 0.583186 7.248005 " transform="matrix(28.346457,0,0,-28.346457,1,227.771654)"/>
<path style="fill:none;stroke-width:0.02;stroke-linecap:round;stroke-linejoin:miter;stroke:rgb(0%,0%,0%);stroke-opacity:1;stroke-miterlimit:10;" d="M 0.478179 0.428369 L 0.478179 7.929996 " transform="matrix(28.346457,0,0,-28.346457,1,227.771654)"/>
<path style=" stroke:none;fill-rule:nonzero;fill:rgb(0%,0%,0%);fill-opacity:1;" d="M 5.160156 216.265625 L 5.160156 216.710938 L 3.078125 216.710938 L 3.078125 216.265625 Z M 5.160156 216.265625 Z M 5.160156 216.265625 "/>
<path style=" stroke:none;fill-rule:nonzero;fill:rgb(0%,0%,0%);fill-opacity:1;" d="M 7.660156 212.886719 C 8.578125 212.910156 9.308594 213.855469 9.167969 214.742188 C 9.070312 215.632812 8.238281 216.140625 7.644531 216.695312 L 7.390625 216.957031 L 7.359375 216.972656 L 7.039062 217.28125 L 7.015625 217.296875 L 6.699219 217.617188 L 6.667969 217.632812 L 6.59375 217.703125 L 6.613281 217.710938 L 9.183594 217.710938 L 9.183594 218.234375 L 6.039062 218.234375 L 6.039062 217.757812 L 7.316406 216.480469 C 7.929688 215.949219 8.644531 215.257812 8.53125 214.386719 C 8.46875 213.878906 8.039062 213.410156 7.515625 213.371094 C 6.984375 213.289062 6.515625 213.710938 6.398438 214.21875 L 6.382812 214.242188 L 6.367188 214.296875 L 6.339844 214.386719 L 6.292969 214.558594 L 6.285156 214.601562 C 6.175781 214.464844 6.054688 214.324219 5.96875 214.171875 C 6.128906 213.519531 6.652344 212.910156 7.339844 212.886719 Z M 7.660156 212.886719 Z M 7.660156 212.886719 "/>
<path style=" stroke:none;fill-rule:nonzero;fill:rgb(0%,0%,0%);fill-opacity:1;" d="M 5.160156 177.605469 L 5.160156 178.050781 L 3.078125 178.050781 L 3.078125 177.605469 Z M 5.160156 177.605469 Z M 5.160156 177.605469 "/>
<path style=" stroke:none;fill-rule:nonzero;fill:rgb(0%,0%,0%);fill-opacity:1;" d="M 7.992188 174.222656 L 7.992188 179.121094 L 8 179.136719 L 8.976562 179.136719 L 8.976562 179.574219 L 6.398438 179.574219 L 6.398438 179.136719 L 7.375 179.136719 L 7.390625 179.121094 L 7.390625 175.007812 C 7.054688 175.121094 6.707031 175.191406 6.359375 175.183594 L 6.359375 174.738281 C 6.882812 174.746094 7.453125 174.605469 7.851562 174.222656 Z M 7.992188 174.222656 Z M 7.992188 174.222656 "/>
<path style=" stroke:none;fill-rule:nonzero;fill:rgb(0%,0%,0%);fill-opacity:1;" d="M 7.746094 135.5625 C 8.5 135.617188 9 136.308594 9.136719 137.003906 C 9.207031 137.324219 9.222656 137.625 9.253906 137.941406 L 9.253906 138.75 C 9.214844 139.578125 9.015625 140.664062 8.121094 140.996094 C 7.339844 141.308594 6.429688 140.824219 6.199219 140.03125 C 6.023438 139.609375 6.007812 139.179688 5.96875 138.75 L 5.96875 137.941406 C 6.007812 137.117188 6.183594 136.019531 7.070312 135.65625 L 7.113281 135.640625 L 7.144531 135.632812 L 7.183594 135.617188 L 7.300781 135.585938 L 7.375 135.570312 L 7.460938 135.570312 L 7.476562 135.5625 Z M 7.746094 135.5625 Z M 7.5 136.046875 C 6.832031 136.125 6.636719 136.925781 6.585938 137.464844 L 6.585938 137.679688 L 6.570312 137.695312 L 6.570312 138.800781 C 6.621094 139.371094 6.660156 140.109375 7.183594 140.488281 C 7.667969 140.824219 8.308594 140.449219 8.445312 139.933594 C 8.585938 139.554688 8.621094 139.179688 8.652344 138.800781 L 8.652344 137.695312 C 8.605469 137.117188 8.523438 136.308594 7.859375 136.078125 L 7.800781 136.0625 L 7.785156 136.046875 L 7.714844 136.046875 L 7.699219 136.027344 L 7.515625 136.027344 Z M 7.5 136.046875 Z M 7.5 136.046875 "/>
<path style=" stroke:none;fill-rule:nonzero;fill:rgb(0%,0%,0%);fill-opacity:1;" d="M 7.992188 96.898438 L 7.992188 101.796875 L 8 101.8125 L 8.976562 101.8125 L 8.976562 102.246094 L 6.398438 102.246094 L 6.398438 101.8125 L 7.375 101.8125 L 7.390625 101.796875 L 7.390625 97.683594 C 7.054688 97.796875 6.707031 97.867188 6.359375 97.859375 L 6.359375 97.414062 C 6.882812 97.421875 7.453125 97.277344 7.851562 96.898438 Z M 7.992188 96.898438 Z M 7.992188 96.898438 "/>
<path style=" stroke:none;fill-rule:nonzero;fill:rgb(0%,0%,0%);fill-opacity:1;" d="M 7.660156 58.234375 C 8.578125 58.257812 9.308594 59.203125 9.167969 60.09375 C 9.070312 60.980469 8.238281 61.488281 7.644531 62.046875 L 7.390625 62.308594 L 7.359375 62.324219 L 7.039062 62.632812 L 7.015625 62.648438 L 6.699219 62.964844 L 6.667969 62.980469 L 6.59375 63.054688 L 6.613281 63.0625 L 9.183594 63.0625 L 9.183594 63.585938 L 6.039062 63.585938 L 6.039062 63.109375 L 7.316406 61.832031 C 7.929688 61.300781 8.644531 60.609375 8.53125 59.734375 C 8.46875 59.226562 8.039062 58.757812 7.515625 58.71875 C 6.984375 58.640625 6.515625 59.0625 6.398438 59.570312 L 6.382812 59.59375 L 6.367188 59.648438 L 6.339844 59.734375 L 6.292969 59.910156 L 6.285156 59.949219 C 6.175781 59.816406 6.054688 59.671875 5.96875 59.523438 C 6.128906 58.871094 6.652344 58.257812 7.339844 58.234375 Z M 7.660156 58.234375 Z M 7.660156 58.234375 "/>
<path style=" stroke:none;fill-rule:nonzero;fill:rgb(0%,0%,0%);fill-opacity:1;" d="M 7.761719 19.574219 C 8.460938 19.605469 9.191406 20.246094 9.023438 20.984375 C 8.945312 21.484375 8.597656 21.898438 8.160156 22.121094 C 8.867188 22.34375 9.414062 23.089844 9.222656 23.828125 C 9.03125 24.789062 7.929688 25.320312 7.039062 25.027344 C 6.613281 24.898438 6.175781 24.628906 5.96875 24.230469 C 6.015625 24.113281 6 23.90625 6.054688 23.828125 C 6.476562 24.445312 7.367188 24.867188 8.0625 24.519531 C 8.824219 24.035156 8.707031 22.621094 7.785156 22.382812 L 7.714844 22.382812 L 7.699219 22.367188 L 6.960938 22.367188 L 6.960938 21.890625 C 7.414062 21.882812 7.976562 21.828125 8.230469 21.359375 C 8.5 20.953125 8.476562 20.289062 7.960938 20.089844 C 7.347656 19.851562 6.59375 20.238281 6.367188 20.859375 C 6.269531 20.722656 6.175781 20.589844 6.078125 20.445312 C 6.40625 19.859375 7.09375 19.511719 7.761719 19.574219 Z M 7.761719 19.574219 Z M 7.761719 19.574219 "/>
<path style="fill:none;stroke-width:0.02;stroke-linecap:butt;stroke-linejoin:miter;stroke:rgb(0%,0%,0%);stroke-opacity:1;stroke-miterlimit:10;" d="M 9.789997 1.792351 L 9.68499 1.792351 " transform="matrix(28.346457,0,0,-28.346457,1,227.771654)"/>
<path style="fill:none;stroke-width:0.02;stroke-linecap:butt;stroke-linejoin:miter;stroke:rgb(0%,0%,0%);stroke-opacity:1;stroke-miterlimit:10;" d="M 9.789997 3.156196 L 9.68499 3.156196 " transform="matrix(28.346457,0,0,-28.346457,1,227.771654)"/>
<path style="fill:none;stroke-width:0.02;stroke-linecap:butt;stroke-linejoin:miter;stroke:rgb(0%,0%,0%);stroke-opacity:1;stroke-miterlimit:10;" d="M 9.789997 4.520178 L 9.68499 4.520178 " transform="matrix(28.346457,0,0,-28.346457,1,227.771654)"/>
<path style="fill:none;stroke-width:0.02;stroke-linecap:butt;stroke-linejoin:miter;stroke:rgb(0%,0%,0%);stroke-opacity:1;stroke-miterlimit:10;" d="M 9.789997 5.88416 L 9.68499 5.88416 " transform="matrix(28.346457,0,0,-28.346457,1,227.771654)"/>
<path style="fill:none;stroke-width:0.02;stroke-linecap:butt;stroke-linejoin:miter;stroke:rgb(0%,0%,0%);stroke-opacity:1;stroke-miterlimit:10;" d="M 9.789997 7.248005 L 9.68499 7.248005 " transform="matrix(28.346457,0,0,-28.346457,1,227.771654)"/>
<path style="fill:none;stroke-width:0.02;stroke-linecap:round;stroke-linejoin:miter;stroke:rgb(0%,0%,0%);stroke-opacity:1;stroke-miterlimit:10;" d="M 9.789997 0.428369 L 9.789997 7.929996 " transform="matrix(28.346457,0,0,-28.346457,1,227.771654)"/>
<path style="fill:none;stroke-width:0.02;stroke-linecap:butt;stroke-linejoin:miter;stroke:rgb(0%,0%,0%);stroke-opacity:1;stroke-miterlimit:10;" d="M 1.512948 0.428369 L 1.512948 0.533376 " transform="matrix(28.346457,0,0,-28.346457,1,227.771654)"/>
<path style="fill:none;stroke-width:0.02;stroke-linecap:butt;stroke-linejoin:miter;stroke:rgb(0%,0%,0%);stroke-opacity:1;stroke-miterlimit:10;" d="M 2.547579 0.428369 L 2.547579 0.533376 " transform="matrix(28.346457,0,0,-28.346457,1,227.771654)"/>
<path style="fill:none;stroke-width:0.02;stroke-linecap:butt;stroke-linejoin:miter;stroke:rgb(0%,0%,0%);stroke-opacity:1;stroke-miterlimit:10;" d="M 3.58221 0.428369 L 3.58221 0.533376 " transform="matrix(28.346457,0,0,-28.346457,1,227.771654)"/>
<path style="fill:none;stroke-width:0.02;stroke-linecap:butt;stroke-linejoin:miter;stroke:rgb(0%,0%,0%);stroke-opacity:1;stroke-miterlimit:10;" d="M 4.616841 0.428369 L 4.616841 0.533376 " transform="matrix(28.346457,0,0,-28.346457,1,227.771654)"/>
<path style="fill:none;stroke-width:0.02;stroke-linecap:butt;stroke-linejoin:miter;stroke:rgb(0%,0%,0%);stroke-opacity:1;stroke-miterlimit:10;" d="M 5.651472 0.428369 L 5.651472 0.533376 " transform="matrix(28.346457,0,0,-28.346457,1,227.771654)"/>
<path style="fill:none;stroke-width:0.02;stroke-linecap:butt;stroke-linejoin:miter;stroke:rgb(0%,0%,0%);stroke-opacity:1;stroke-miterlimit:10;" d="M 6.686104 0.428369 L 6.686104 0.533376 " transform="matrix(28.346457,0,0,-28.346457,1,227.771654)"/>
<path style="fill:none;stroke-width:0.02;stroke-linecap:butt;stroke-linejoin:miter;stroke:rgb(0%,0%,0%);stroke-opacity:1;stroke-miterlimit:10;" d="M 7.720735 0.428369 L 7.720735 0.533376 " transform="matrix(28.346457,0,0,-28.346457,1,227.771654)"/>
<path style="fill:none;stroke-width:0.02;stroke-linecap:butt;stroke-linejoin:miter;stroke:rgb(0%,0%,0%);stroke-opacity:1;stroke-miterlimit:10;" d="M 8.755366 0.428369 L 8.755366 0.533376 " transform="matrix(28.346457,0,0,-28.346457,1,227.771654)"/>
<path style="fill:none;stroke-width:0.02;stroke-linecap:round;stroke-linejoin:miter;stroke:rgb(0%,0%,0%);stroke-opacity:1;stroke-miterlimit:10;" d="M 0.478179 0.428369 L 9.789997 0.428369 " transform="matrix(28.346457,0,0,-28.346457,1,227.771654)"/>
<path style=" stroke:none;fill-rule:nonzero;fill:rgb(0%,0%,0%);fill-opacity:1;" d="M 14.9375 220.445312 L 14.9375 225.34375 L 14.945312 225.359375 L 15.921875 225.359375 L 15.921875 225.796875 L 13.34375 225.796875 L 13.34375 225.359375 L 14.316406 225.359375 L 14.335938 225.34375 L 14.335938 221.230469 C 14 221.34375 13.652344 221.414062 13.300781 221.40625 L 13.300781 220.960938 C 13.828125 220.96875 14.398438 220.828125 14.792969 220.445312 Z M 14.9375 220.445312 Z M 14.9375 220.445312 "/>
<path style=" stroke:none;fill-rule:nonzero;fill:rgb(0%,0%,0%);fill-opacity:1;" d="M 43.933594 220.445312 C 44.851562 220.46875 45.582031 221.414062 45.441406 222.304688 C 45.34375 223.191406 44.511719 223.699219 43.917969 224.253906 L 43.664062 224.515625 L 43.628906 224.535156 L 43.3125 224.84375 L 43.289062 224.859375 L 42.972656 225.175781 L 42.941406 225.191406 L 42.867188 225.261719 L 42.882812 225.273438 L 45.457031 225.273438 L 45.457031 225.796875 L 42.3125 225.796875 L 42.3125 225.320312 L 43.589844 224.042969 C 44.203125 223.507812 44.917969 222.820312 44.804688 221.945312 C 44.742188 221.4375 44.3125 220.96875 43.789062 220.929688 C 43.257812 220.851562 42.789062 221.269531 42.671875 221.777344 L 42.65625 221.804688 L 42.640625 221.859375 L 42.613281 221.945312 L 42.566406 222.121094 L 42.558594 222.160156 C 42.449219 222.023438 42.328125 221.882812 42.242188 221.730469 C 42.402344 221.082031 42.925781 220.46875 43.613281 220.445312 Z M 43.933594 220.445312 Z M 43.933594 220.445312 "/>
<path style=" stroke:none;fill-rule:nonzero;fill:rgb(0%,0%,0%);fill-opacity:1;" d="M 73.363281 220.445312 C 74.0625 220.476562 74.792969 221.121094 74.625 221.859375 C 74.546875 222.359375 74.199219 222.769531 73.761719 222.992188 C 74.46875 223.214844 75.015625 223.960938 74.824219 224.699219 C 74.632812 225.660156 73.53125 226.191406 72.640625 225.898438 C 72.214844 225.773438 71.777344 225.5 71.570312 225.105469 C 71.617188 224.984375 71.601562 224.78125 71.65625 224.699219 C 72.078125 225.320312 72.96875 225.738281 73.664062 225.390625 C 74.425781 224.90625 74.308594 223.492188 73.386719 223.253906 L 73.316406 223.253906 L 73.300781 223.238281 L 72.5625 223.238281 L 72.5625 222.761719 C 73.015625 222.753906 73.578125 222.699219 73.832031 222.230469 C 74.101562 221.828125 74.078125 221.160156 73.5625 220.960938 C 72.953125 220.722656 72.195312 221.113281 71.96875 221.730469 C 71.871094 221.597656 71.777344 221.460938 71.679688 221.320312 C 72.007812 220.730469 72.695312 220.382812 73.363281 220.445312 Z M 73.363281 220.445312 Z M 73.363281 220.445312 "/>
<path style=" stroke:none;fill-rule:nonzero;fill:rgb(0%,0%,0%);fill-opacity:1;" d="M 103.492188 220.613281 L 103.492188 223.953125 L 103.511719 223.96875 L 104.296875 223.96875 L 104.296875 224.445312 L 103.511719 224.445312 L 103.492188 224.453125 L 103.492188 225.796875 L 102.890625 225.796875 L 102.890625 224.453125 L 102.875 224.445312 L 100.78125 224.445312 L 100.78125 223.953125 C 101.445312 222.84375 102.113281 221.722656 102.78125 220.613281 Z M 103.492188 220.613281 Z M 102.90625 220.914062 C 102.746094 221.738281 102.238281 222.445312 101.859375 223.167969 C 101.707031 223.429688 101.507812 223.714844 101.398438 223.96875 L 102.921875 223.96875 L 102.929688 223.953125 L 102.929688 220.914062 L 102.921875 220.898438 Z M 102.90625 220.914062 Z M 102.90625 220.914062 "/>
<path style=" stroke:none;fill-rule:nonzero;fill:rgb(0%,0%,0%);fill-opacity:1;" d="M 133.179688 220.613281 L 133.179688 221.105469 L 131.117188 221.105469 L 131.101562 221.113281 L 131.101562 222.738281 C 131.289062 222.613281 131.558594 222.445312 131.8125 222.4375 C 132.710938 222.34375 133.402344 223.222656 133.441406 224.042969 C 133.570312 225.082031 132.59375 226.113281 131.542969 225.953125 C 131.019531 225.9375 130.511719 225.628906 130.210938 225.199219 C 130.296875 225.082031 130.371094 224.875 130.472656 224.804688 C 130.847656 225.535156 132.050781 225.828125 132.535156 225.058594 C 132.847656 224.476562 132.839844 223.738281 132.480469 223.183594 C 132.066406 222.652344 131.25 222.976562 131.058594 223.542969 L 130.542969 223.542969 L 130.542969 220.613281 Z M 133.179688 220.613281 Z M 133.179688 220.613281 "/>
<path style=" stroke:none;fill-rule:nonzero;fill:rgb(0%,0%,0%);fill-opacity:1;" d="M 161.847656 220.445312 C 162.054688 220.476562 162.292969 220.5 162.492188 220.597656 L 162.492188 221.058594 C 161.945312 220.820312 161.230469 220.785156 160.800781 221.269531 C 160.421875 221.675781 160.246094 222.277344 160.230469 222.8125 C 160.691406 222.199219 161.730469 221.859375 162.292969 222.492188 C 162.855469 223.144531 162.953125 224.082031 162.699219 224.875 C 162.421875 225.507812 161.777344 226.089844 161.0625 225.953125 C 160.09375 225.875 159.660156 224.796875 159.609375 223.96875 C 159.429688 222.804688 159.707031 221.335938 160.816406 220.667969 L 160.832031 220.660156 L 161 220.574219 L 161.046875 220.558594 L 161.070312 220.542969 L 161.207031 220.5 L 161.316406 220.46875 L 161.390625 220.453125 L 161.476562 220.453125 L 161.492188 220.445312 Z M 161.847656 220.445312 Z M 161.070312 222.652344 C 160.378906 222.769531 160.160156 223.605469 160.246094 224.167969 C 160.285156 224.699219 160.492188 225.40625 161.101562 225.515625 C 161.753906 225.605469 162.175781 224.90625 162.191406 224.34375 C 162.222656 223.769531 162.191406 223.121094 161.691406 222.746094 L 161.578125 222.691406 L 161.492188 222.667969 L 161.421875 222.652344 L 161.40625 222.636719 L 161.085938 222.636719 Z M 161.070312 222.652344 Z M 161.070312 222.652344 "/>
<path style=" stroke:none;fill-rule:nonzero;fill:rgb(0%,0%,0%);fill-opacity:1;" d="M 192.167969 220.613281 L 192.167969 221.113281 C 191.042969 222.429688 190.40625 224.207031 190.414062 225.882812 L 189.773438 225.882812 C 189.757812 224.191406 190.449219 222.40625 191.652344 221.160156 L 191.636719 221.144531 L 188.882812 221.144531 L 188.882812 220.613281 L 192.167969 220.613281 L 192.167969 221.113281 Z M 192.167969 220.613281 Z M 192.167969 220.613281 "/>
<path style=" stroke:none;fill-rule:nonzero;fill:rgb(0%,0%,0%);fill-opacity:1;" d="M 220.003906 220.445312 C 220.847656 220.476562 221.640625 221.382812 221.308594 222.222656 C 221.164062 222.613281 220.769531 222.851562 220.441406 223.015625 C 221.253906 223.253906 221.742188 224.199219 221.378906 224.976562 C 220.996094 225.984375 219.554688 226.304688 218.757812 225.574219 C 218.039062 225 218.011719 223.761719 218.816406 223.253906 C 218.933594 223.128906 219.15625 223.089844 219.261719 222.992188 C 218.570312 222.796875 218.101562 221.992188 218.425781 221.320312 C 218.6875 220.714844 219.363281 220.382812 220.003906 220.445312 Z M 220.003906 220.445312 Z M 219.703125 220.898438 C 219.117188 220.914062 218.703125 221.582031 218.902344 222.105469 C 219.132812 223.007812 220.648438 222.976562 220.824219 222.050781 C 220.980469 221.53125 220.570312 220.914062 220.003906 220.898438 L 219.988281 220.890625 L 219.71875 220.890625 Z M 219.703125 220.898438 Z M 219.71875 223.253906 C 219.03125 223.304688 218.6875 224.128906 218.871094 224.714844 C 218.988281 225.550781 220.179688 225.796875 220.648438 225.128906 C 221.101562 224.515625 220.878906 223.421875 220.0625 223.253906 L 219.988281 223.253906 L 219.972656 223.238281 L 219.726562 223.238281 Z M 219.71875 223.253906 Z M 219.71875 223.253906 "/>
<path style=" stroke:none;fill-rule:nonzero;fill:rgb(0%,0%,0%);fill-opacity:1;" d="M 249.351562 220.445312 C 250.300781 220.550781 250.714844 221.628906 250.777344 222.453125 C 250.890625 223.523438 250.761719 224.78125 249.890625 225.550781 C 249.34375 226.097656 248.375 226.113281 247.785156 225.621094 C 247.859375 225.484375 247.9375 225.328125 248.023438 225.214844 C 248.539062 225.714844 249.445312 225.574219 249.777344 224.929688 C 250.015625 224.542969 250.160156 224.042969 250.152344 223.613281 C 249.683594 224.214844 248.652344 224.566406 248.089844 223.929688 C 247.515625 223.269531 247.414062 222.3125 247.699219 221.515625 C 247.992188 220.890625 248.621094 220.351562 249.351562 220.445312 Z M 249.351562 220.445312 Z M 249.089844 220.898438 C 248.515625 220.945312 248.222656 221.582031 248.183594 222.082031 C 248.160156 222.644531 248.183594 223.304688 248.683594 223.667969 C 249.238281 224.007812 249.953125 223.597656 250.082031 222.992188 C 250.230469 222.40625 250.136719 221.777344 249.835938 221.230469 C 249.667969 221 249.367188 220.835938 249.089844 220.898438 Z M 249.089844 220.898438 Z M 249.089844 220.898438 "/>
<path style=" stroke:none;fill-rule:nonzero;fill:rgb(0%,0%,0%);fill-opacity:1;" d="M 276.910156 220.445312 L 276.910156 225.34375 L 276.917969 225.359375 L 277.894531 225.359375 L 277.894531 225.796875 L 275.3125 225.796875 L 275.3125 225.359375 L 276.289062 225.359375 L 276.304688 225.34375 L 276.304688 221.230469 C 275.972656 221.34375 275.621094 221.414062 275.273438 221.40625 L 275.273438 220.960938 C 275.796875 220.96875 276.367188 220.828125 276.765625 220.445312 Z M 276.910156 220.445312 Z M 276.910156 220.445312 "/>
<path style=" stroke:none;fill-rule:nonzero;fill:rgb(0%,0%,0%);fill-opacity:1;" d="M 280.632812 220.445312 C 281.386719 220.5 281.886719 221.191406 282.019531 221.890625 C 282.089844 222.207031 282.105469 222.507812 282.140625 222.828125 L 282.140625 223.636719 C 282.097656 224.460938 281.902344 225.550781 281.003906 225.882812 C 280.226562 226.191406 279.3125 225.707031 279.082031 224.914062 C 278.910156 224.492188 278.894531 224.066406 278.851562 223.636719 L 278.851562 222.828125 C 278.894531 222 279.066406 220.90625 279.957031 220.542969 L 279.996094 220.523438 L 280.027344 220.515625 L 280.066406 220.5 L 280.1875 220.46875 L 280.257812 220.453125 L 280.34375 220.453125 L 280.359375 220.445312 Z M 280.632812 220.445312 Z M 280.386719 220.929688 C 279.71875 221.007812 279.519531 221.8125 279.472656 222.351562 L 279.472656 222.566406 L 279.457031 222.582031 L 279.457031 223.683594 C 279.503906 224.253906 279.542969 224.992188 280.066406 225.375 C 280.550781 225.707031 281.195312 225.335938 281.328125 224.820312 C 281.472656 224.4375 281.503906 224.066406 281.535156 223.683594 L 281.535156 222.582031 C 281.488281 222 281.410156 221.191406 280.742188 220.960938 L 280.6875 220.945312 L 280.671875 220.929688 L 280.597656 220.929688 L 280.582031 220.914062 L 280.402344 220.914062 Z M 280.386719 220.929688 Z M 280.386719 220.929688 "/>
<path style="fill:none;stroke-width:0.02;stroke-linecap:butt;stroke-linejoin:miter;stroke:rgb(0%,0%,0%);stroke-opacity:1;stroke-miterlimit:10;" d="M 1.512948 7.929996 L 1.512948 7.824989 " transform="matrix(28.346457,0,0,-28.346457,1,227.771654)"/>
<path style="fill:none;stroke-width:0.02;stroke-linecap:butt;stroke-linejoin:miter;stroke:rgb(0%,0%,0%);stroke-opacity:1;stroke-miterlimit:10;" d="M 2.547579 7.929996 L 2.547579 7.824989 " transform="matrix(28.346457,0,0,-28.346457,1,227.771654)"/>
<path style="fill:none;stroke-width:0.02;stroke-linecap:butt;stroke-linejoin:miter;stroke:rgb(0%,0%,0%);stroke-opacity:1;stroke-miterlimit:10;" d="M 3.58221 7.929996 L 3.58221 7.824989 " transform="matrix(28.346457,0,0,-28.346457,1,227.771654)"/>
<path style="fill:none;stroke-width:0.02;stroke-linecap:butt;stroke-linejoin:miter;stroke:rgb(0%,0%,0%);stroke-opacity:1;stroke-miterlimit:10;" d="M 4.616841 7.929996 L 4.616841 7.824989 " transform="matrix(28.346457,0,0,-28.346457,1,227.771654)"/>
<path style="fill:none;stroke-width:0.02;stroke-linecap:butt;stroke-linejoin:miter;stroke:rgb(0%,0%,0%);stroke-opacity:1;stroke-miterlimit:10;" d="M 5.651472 7.929996 L 5.651472 7.824989 " transform="matrix(28.346457,0,0,-28.346457,1,227.771654)"/>
<path style="fill:none;stroke-width:0.02;stroke-linecap:butt;stroke-linejoin:miter;stroke:rgb(0%,0%,0%);stroke-opacity:1;stroke-miterlimit:10;" d="M 6.686104 7.929996 L 6.686104 7.824989 " transform="matrix(28.346457,0,0,-28.346457,1,227.771654)"/>
<path style="fill:none;stroke-width:0.02;stroke-linecap:butt;stroke-linejoin:miter;stroke:rgb(0%,0%,0%);stroke-opacity:1;stroke-miterlimit:10;" d="M 7.720735 7.929996 L 7.720735 7.824989 " transform="matrix(28.346457,0,0,-28.346457,1,227.771654)"/>
<path style="fill:none;stroke-width:0.02;stroke-linecap:butt;stroke-linejoin:miter;stroke:rgb(0%,0%,0%);stroke-opacity:1;stroke-miterlimit:10;" d="M 8.755366 7.929996 L 8.755366 7.824989 " transform="matrix(28.346457,0,0,-28.346457,1,227.771654)"/>
<path style="fill:none;stroke-width:0.02;stroke-linecap:round;stroke-linejoin:miter;stroke:rgb(0%,0%,0%);stroke-opacity:1;stroke-miterlimit:10;" d="M 0.478179 7.929996 L 9.789997 7.929996 " transform="matrix(28.346457,0,0,-28.346457,1,227.771654)"/>
<path style="fill:none;stroke-width:0.1;stroke-linecap:butt;stroke-linejoin:miter;stroke:rgb(93.333333%,50.980392%,93.333333%);stroke-opacity:1;stroke-miterlimit:10;" d="M 0.478179 3.568229 L 1.512948 3.721467 L 2.547579 2.651145 L 3.58221 4.129091 L 4.616841 2.197495 L 5.651472 6.186364 L 6.686104 4.22638 L 7.720735 3.727944 L 8.755366 2.429281 L 9.789997 4.003689 " transform="matrix(28.346457,0,0,-28.346457,1,227.771654)"/>
<path style="fill:none;stroke-width:0.1;stroke-linecap:butt;stroke-linejoin:miter;stroke:rgb(0%,0%,50.196078%);stroke-opacity:1;stroke-miterlimit:10;" d="M 0.478179 3.301165 L 1.512948 2.951833 L 2.547579 2.622895 L 3.58221 0.720789 L 4.616841 6.466795 L 5.651472 3.260513 L 6.686104 5.992887 L 7.720735 2.736583 L 8.755366 3.561615 L 9.789997 4.253803 " transform="matrix(28.346457,0,0,-28.346457,1,227.771654)"/>
<path style="fill:none;stroke-width:0.1;stroke-linecap:butt;stroke-linejoin:miter;stroke:rgb(100%,64.705882%,0%);stroke-opacity:1;stroke-miterlimit:10;" d="M 0.478179 2.697585 L 1.512948 1.835897 L 2.547579 1.952066 L 3.58221 4.716411 L 4.616841 4.257386 L 5.651472 1.621061 L 6.686104 4.17622 L 7.720735 5.148701 L 8.755366 7.313461 L 9.789997 2.759734 " transform="matrix(28.346457,0,0,-28.346457,1,227.771654)"/>
</g>
</svg>
