<?xml version="1.0" encoding="UTF-8"?>
<svg xmlns="http://www.w3.org/2000/svg" xmlns:xlink="http://www.w3.org/1999/xlink" width="342.15748pt" height="257.11811pt" viewBox="0 0 342.15748 257.11811" version="1.1">
<g id="surface1">
<path style="fill:none;stroke-width:0.02;stroke-linecap:butt;stroke-linejoin:miter;stroke:rgb(0%,0%,0%);stroke-opacity:1;stroke-miterlimit:10;" d="M 0.602616 1.479632 L 0.707623 1.479632 " transform="matrix(28.346457,0,0,-28.346457,1,256.11811)"/>
<path style="fill:none;stroke-width:0.02;stroke-linecap:butt;stroke-linejoin:miter;stroke:rgb(0%,0%,0%);stroke-opacity:1;stroke-miterlimit:10;" d="M 0.602616 2.530938 L 0.707623 2.530938 " transform="matrix(28.346457,0,0,-28.346457,1,256.11811)"/>
<path style="fill:none;stroke-width:0.02;stroke-linecap:butt;stroke-linejoin:miter;stroke:rgb(0%,0%,0%);stroke-opacity:1;stroke-miterlimit:10;" d="M 0.602616 3.582105 L 0.707623 3.582105 " transform="matrix(28.346457,0,0,-28.346457,1,256.11811)"/>
<path style="fill:none;stroke-width:0.02;stroke-linecap:butt;stroke-linejoin:miter;stroke:rgb(0%,0%,0%);stroke-opacity:1;stroke-miterlimit:10;" d="M 0.602616 4.63341 L 0.707623 4.63341 " transform="matrix(28.346457,0,0,-28.346457,1,256.11811)"/>
<path style="fill:none;stroke-width:0.02;stroke-linecap:butt;stroke-linejoin:miter;stroke:rgb(0%,0%,0%);stroke-opacity:1;stroke-miterlimit:10;" d="M 0.602616 5.684578 L 0.707623 5.684578 " transform="matrix(28.346457,0,0,-28.346457,1,256.11811)"/>
<path style="fill:none;stroke-width:0.02;stroke-linecap:butt;stroke-linejoin:miter;stroke:rgb(0%,0%,0%);stroke-opacity:1;stroke-miterlimit:10;" d="M 0.602616 6.735883 L 0.707623 6.735883 " transform="matrix(28.346457,0,0,-28.346457,1,256.11811)"/>
<path style="fill:none;stroke-width:0.02;stroke-linecap:butt;stroke-linejoin:miter;stroke:rgb(0%,0%,0%);stroke-opacity:1;stroke-miterlimit:10;" d="M 0.602616 7.787051 L 0.707623 7.787051 " transform="matrix(28.346457,0,0,-28.346457,1,256.11811)"/>
<path style="fill:none;stroke-width:0.02;stroke-linecap:round;stroke-linejoin:miter;stroke:rgb(0%,0%,0%);stroke-opacity:1;stroke-miterlimit:10;" d="M 0.602616 0.428465 L 0.602616 8.838356 " transform="matrix(28.346457,0,0,-28.346457,1,256.11811)"/>
<path style=" stroke:none;fill-rule:nonzero;fill:rgb(0%,0%,0%);fill-opacity:1;" d="M 5.101562 241.230469 C 5.859375 241.289062 6.359375 241.976562 6.492188 242.675781 C 6.5625 242.996094 6.578125 243.296875 6.613281 243.613281 L 6.613281 244.421875 C 6.570312 245.25 6.375 246.335938 5.476562 246.667969 C 4.699219 246.980469 3.785156 246.496094 3.554688 245.699219 C 3.382812 245.28125 3.363281 244.851562 3.324219 244.421875 L 3.324219 243.613281 C 3.363281 242.789062 3.539062 241.691406 4.429688 241.328125 L 4.46875 241.3125 L 4.5 241.304688 L 4.539062 241.289062 L 4.660156 241.257812 L 4.730469 241.238281 L 4.816406 241.238281 L 4.832031 241.230469 Z M 5.101562 241.230469 Z M 4.855469 241.714844 C 4.191406 241.796875 3.992188 242.597656 3.945312 243.136719 L 3.945312 243.351562 L 3.929688 243.367188 L 3.929688 244.46875 C 3.976562 245.042969 4.015625 245.78125 4.539062 246.160156 C 5.023438 246.496094 5.667969 246.121094 5.800781 245.605469 C 5.945312 245.222656 5.976562 244.851562 6.007812 244.46875 L 6.007812 243.367188 C 5.960938 242.789062 5.882812 241.976562 5.214844 241.75 L 5.160156 241.730469 L 5.144531 241.714844 L 5.070312 241.714844 L 5.054688 241.699219 L 4.875 241.699219 Z M 4.855469 241.714844 Z M 4.855469 241.714844 "/>
<path style=" stroke:none;fill-rule:nonzero;fill:rgb(0%,0%,0%);fill-opacity:1;" d="M 8.382812 245.945312 L 8.382812 246.582031 L 7.738281 246.582031 L 7.738281 245.945312 Z M 8.382812 245.945312 Z M 8.382812 245.945312 "/>
<path style=" stroke:none;fill-rule:nonzero;fill:rgb(0%,0%,0%);fill-opacity:1;" d="M 11.269531 241.230469 C 12.023438 241.289062 12.523438 241.976562 12.660156 242.675781 C 12.730469 242.996094 12.746094 243.296875 12.777344 243.613281 L 12.777344 244.421875 C 12.738281 245.25 12.539062 246.335938 11.644531 246.667969 C 10.867188 246.980469 9.953125 246.496094 9.722656 245.699219 C 9.546875 245.28125 9.53125 244.851562 9.492188 244.421875 L 9.492188 243.613281 C 9.53125 242.789062 9.707031 241.691406 10.597656 241.328125 L 10.636719 241.3125 L 10.667969 241.304688 L 10.707031 241.289062 L 10.824219 241.257812 L 10.898438 241.238281 L 10.984375 241.238281 L 11 241.230469 Z M 11.269531 241.230469 Z M 11.023438 241.714844 C 10.359375 241.796875 10.160156 242.597656 10.113281 243.136719 L 10.113281 243.351562 L 10.097656 243.367188 L 10.097656 244.46875 C 10.144531 245.042969 10.183594 245.78125 10.707031 246.160156 C 11.191406 246.496094 11.835938 246.121094 11.96875 245.605469 C 12.113281 245.222656 12.144531 244.851562 12.175781 244.46875 L 12.175781 243.367188 C 12.128906 242.789062 12.046875 241.976562 11.382812 241.75 L 11.324219 241.730469 L 11.308594 241.714844 L 11.238281 241.714844 L 11.222656 241.699219 L 11.039062 241.699219 Z M 11.023438 241.714844 Z M 11.023438 241.714844 "/>
<path style=" stroke:none;fill-rule:nonzero;fill:rgb(0%,0%,0%);fill-opacity:1;" d="M 5.101562 211.433594 C 5.859375 211.488281 6.359375 212.179688 6.492188 212.878906 C 6.5625 213.195312 6.578125 213.496094 6.613281 213.816406 L 6.613281 214.625 C 6.570312 215.449219 6.375 216.535156 5.476562 216.871094 C 4.699219 217.179688 3.785156 216.695312 3.554688 215.902344 C 3.382812 215.480469 3.363281 215.050781 3.324219 214.625 L 3.324219 213.816406 C 3.363281 212.988281 3.539062 211.894531 4.429688 211.527344 L 4.46875 211.511719 L 4.5 211.503906 L 4.539062 211.488281 L 4.660156 211.457031 L 4.730469 211.441406 L 4.816406 211.441406 L 4.832031 211.433594 Z M 5.101562 211.433594 Z M 4.855469 211.917969 C 4.191406 211.996094 3.992188 212.796875 3.945312 213.339844 L 3.945312 213.550781 L 3.929688 213.570312 L 3.929688 214.671875 C 3.976562 215.242188 4.015625 215.980469 4.539062 216.363281 C 5.023438 216.695312 5.667969 216.324219 5.800781 215.808594 C 5.945312 215.425781 5.976562 215.050781 6.007812 214.671875 L 6.007812 213.570312 C 5.960938 212.988281 5.882812 212.179688 5.214844 211.949219 L 5.160156 211.933594 L 5.144531 211.917969 L 5.070312 211.917969 L 5.054688 211.902344 L 4.875 211.902344 Z M 4.855469 211.917969 Z M 4.855469 211.917969 "/>
<path style=" stroke:none;fill-rule:nonzero;fill:rgb(0%,0%,0%);fill-opacity:1;" d="M 8.382812 216.148438 L 8.382812 216.78125 L 7.738281 216.78125 L 7.738281 216.148438 Z M 8.382812 216.148438 Z M 8.382812 216.148438 "/>
<path style=" stroke:none;fill-rule:nonzero;fill:rgb(0%,0%,0%);fill-opacity:1;" d="M 11.183594 211.433594 C 12.105469 211.457031 12.835938 212.402344 12.691406 213.289062 C 12.597656 214.179688 11.761719 214.6875 11.167969 215.242188 L 10.914062 215.503906 L 10.882812 215.519531 L 10.5625 215.832031 L 10.539062 215.847656 L 10.222656 216.164062 L 10.191406 216.179688 L 10.121094 216.25 L 10.136719 216.257812 L 12.707031 216.257812 L 12.707031 216.78125 L 9.5625 216.78125 L 9.5625 216.308594 L 10.84375 215.027344 C 11.453125 214.496094 12.167969 213.804688 12.054688 212.933594 C 11.992188 212.425781 11.5625 211.957031 11.039062 211.917969 C 10.507812 211.839844 10.039062 212.257812 9.921875 212.765625 L 9.90625 212.789062 L 9.890625 212.847656 L 9.867188 212.933594 L 9.816406 213.109375 L 9.808594 213.148438 C 9.699219 213.011719 9.578125 212.871094 9.492188 212.71875 C 9.652344 212.066406 10.175781 211.457031 10.867188 211.433594 Z M 11.183594 211.433594 Z M 11.183594 211.433594 "/>
<path style=" stroke:none;fill-rule:nonzero;fill:rgb(0%,0%,0%);fill-opacity:1;" d="M 5.101562 181.632812 C 5.859375 181.691406 6.359375 182.378906 6.492188 183.078125 C 6.5625 183.398438 6.578125 183.699219 6.613281 184.015625 L 6.613281 184.824219 C 6.570312 185.652344 6.375 186.738281 5.476562 187.070312 C 4.699219 187.382812 3.785156 186.898438 3.554688 186.101562 C 3.382812 185.683594 3.363281 185.253906 3.324219 184.824219 L 3.324219 184.015625 C 3.363281 183.191406 3.539062 182.09375 4.429688 181.730469 L 4.46875 181.714844 L 4.5 181.707031 L 4.539062 181.691406 L 4.660156 181.660156 L 4.730469 181.640625 L 4.816406 181.640625 L 4.832031 181.632812 Z M 5.101562 181.632812 Z M 4.855469 182.117188 C 4.191406 182.199219 3.992188 183 3.945312 183.539062 L 3.945312 183.753906 L 3.929688 183.769531 L 3.929688 184.871094 C 3.976562 185.445312 4.015625 186.183594 4.539062 186.5625 C 5.023438 186.898438 5.667969 186.523438 5.800781 186.007812 C 5.945312 185.625 5.976562 185.253906 6.007812 184.871094 L 6.007812 183.769531 C 5.960938 183.191406 5.882812 182.378906 5.214844 182.152344 L 5.160156 182.132812 L 5.144531 182.117188 L 5.070312 182.117188 L 5.054688 182.101562 L 4.875 182.101562 Z M 4.855469 182.117188 Z M 4.855469 182.117188 "/>
<path style=" stroke:none;fill-rule:nonzero;fill:rgb(0%,0%,0%);fill-opacity:1;" d="M 8.382812 186.347656 L 8.382812 186.984375 L 7.738281 186.984375 L 7.738281 186.347656 Z M 8.382812 186.347656 Z M 8.382812 186.347656 "/>
<path style=" stroke:none;fill-rule:nonzero;fill:rgb(0%,0%,0%);fill-opacity:1;" d="M 12.089844 181.800781 L 12.089844 185.144531 L 12.105469 185.160156 L 12.890625 185.160156 L 12.890625 185.636719 L 12.105469 185.636719 L 12.089844 185.644531 L 12.089844 186.984375 L 11.484375 186.984375 L 11.484375 185.644531 L 11.46875 185.636719 L 9.375 185.636719 L 9.375 185.144531 C 10.039062 184.03125 10.707031 182.914062 11.375 181.800781 Z M 12.089844 181.800781 Z M 11.5 182.101562 C 11.34375 182.929688 10.832031 183.632812 10.453125 184.355469 C 10.300781 184.617188 10.105469 184.90625 9.992188 185.160156 L 11.515625 185.160156 L 11.523438 185.144531 L 11.523438 182.101562 L 11.515625 182.085938 Z M 11.5 182.101562 Z M 11.5 182.101562 "/>
<path style=" stroke:none;fill-rule:nonzero;fill:rgb(0%,0%,0%);fill-opacity:1;" d="M 5.101562 151.835938 C 5.859375 151.890625 6.359375 152.582031 6.492188 153.28125 C 6.5625 153.597656 6.578125 153.898438 6.613281 154.214844 L 6.613281 155.027344 C 6.570312 155.851562 6.375 156.9375 5.476562 157.273438 C 4.699219 157.582031 3.785156 157.097656 3.554688 156.304688 C 3.382812 155.882812 3.363281 155.453125 3.324219 155.027344 L 3.324219 154.214844 C 3.363281 153.390625 3.539062 152.296875 4.429688 151.929688 L 4.46875 151.914062 L 4.5 151.90625 L 4.539062 151.890625 L 4.660156 151.859375 L 4.730469 151.84375 L 4.816406 151.84375 L 4.832031 151.835938 Z M 5.101562 151.835938 Z M 4.855469 152.320312 C 4.191406 152.398438 3.992188 153.199219 3.945312 153.742188 L 3.945312 153.953125 L 3.929688 153.972656 L 3.929688 155.074219 C 3.976562 155.644531 4.015625 156.382812 4.539062 156.765625 C 5.023438 157.097656 5.667969 156.726562 5.800781 156.207031 C 5.945312 155.828125 5.976562 155.453125 6.007812 155.074219 L 6.007812 153.972656 C 5.960938 153.390625 5.882812 152.582031 5.214844 152.351562 L 5.160156 152.335938 L 5.144531 152.320312 L 5.070312 152.320312 L 5.054688 152.304688 L 4.875 152.304688 Z M 4.855469 152.320312 Z M 4.855469 152.320312 "/>
<path style=" stroke:none;fill-rule:nonzero;fill:rgb(0%,0%,0%);fill-opacity:1;" d="M 8.382812 156.550781 L 8.382812 157.183594 L 7.738281 157.183594 L 7.738281 156.550781 Z M 8.382812 156.550781 Z M 8.382812 156.550781 "/>
<path style=" stroke:none;fill-rule:nonzero;fill:rgb(0%,0%,0%);fill-opacity:1;" d="M 11.785156 151.835938 C 11.992188 151.867188 12.230469 151.890625 12.429688 151.988281 L 12.429688 152.445312 C 11.882812 152.207031 11.167969 152.175781 10.738281 152.660156 C 10.359375 153.066406 10.183594 153.667969 10.167969 154.199219 C 10.628906 153.589844 11.667969 153.25 12.230469 153.882812 C 12.792969 154.535156 12.890625 155.472656 12.636719 156.265625 C 12.359375 156.898438 11.714844 157.480469 11 157.34375 C 10.03125 157.265625 9.597656 156.183594 9.546875 155.359375 C 9.367188 154.191406 9.644531 152.726562 10.753906 152.058594 L 10.769531 152.050781 L 10.9375 151.960938 L 10.984375 151.945312 L 11.007812 151.929688 L 11.253906 151.859375 L 11.324219 151.84375 L 11.414062 151.84375 L 11.429688 151.835938 Z M 11.785156 151.835938 Z M 11.007812 154.042969 C 10.316406 154.160156 10.097656 154.996094 10.183594 155.558594 C 10.222656 156.089844 10.429688 156.796875 11.039062 156.90625 C 11.691406 156.996094 12.113281 156.296875 12.128906 155.734375 C 12.160156 155.160156 12.128906 154.511719 11.628906 154.136719 L 11.515625 154.082031 L 11.429688 154.058594 L 11.359375 154.042969 L 11.34375 154.027344 L 11.023438 154.027344 Z M 11.007812 154.042969 Z M 11.007812 154.042969 "/>
<path style=" stroke:none;fill-rule:nonzero;fill:rgb(0%,0%,0%);fill-opacity:1;" d="M 5.101562 122.035156 C 5.859375 122.09375 6.359375 122.78125 6.492188 123.480469 C 6.5625 123.800781 6.578125 124.101562 6.613281 124.417969 L 6.613281 125.226562 C 6.570312 126.054688 6.375 127.140625 5.476562 127.472656 C 4.699219 127.785156 3.785156 127.300781 3.554688 126.503906 C 3.382812 126.085938 3.363281 125.65625 3.324219 125.226562 L 3.324219 124.417969 C 3.363281 123.59375 3.539062 122.496094 4.429688 122.132812 L 4.46875 122.117188 L 4.5 122.109375 L 4.539062 122.09375 L 4.660156 122.0625 L 4.730469 122.042969 L 4.816406 122.042969 L 4.832031 122.035156 Z M 5.101562 122.035156 Z M 4.855469 122.519531 C 4.191406 122.601562 3.992188 123.402344 3.945312 123.941406 L 3.945312 124.15625 L 3.929688 124.171875 L 3.929688 125.273438 C 3.976562 125.847656 4.015625 126.585938 4.539062 126.964844 C 5.023438 127.300781 5.667969 126.925781 5.800781 126.410156 C 5.945312 126.027344 5.976562 125.65625 6.007812 125.273438 L 6.007812 124.171875 C 5.960938 123.59375 5.882812 122.78125 5.214844 122.550781 L 5.160156 122.535156 L 5.144531 122.519531 L 5.070312 122.519531 L 5.054688 122.503906 L 4.875 122.503906 Z M 4.855469 122.519531 Z M 4.855469 122.519531 "/>
<path style=" stroke:none;fill-rule:nonzero;fill:rgb(0%,0%,0%);fill-opacity:1;" d="M 8.382812 126.75 L 8.382812 127.386719 L 7.738281 127.386719 L 7.738281 126.75 Z M 8.382812 126.75 Z M 8.382812 126.75 "/>
<path style=" stroke:none;fill-rule:nonzero;fill:rgb(0%,0%,0%);fill-opacity:1;" d="M 11.285156 122.035156 C 12.128906 122.070312 12.921875 122.972656 12.589844 123.816406 C 12.445312 124.203125 12.046875 124.441406 11.722656 124.609375 C 12.53125 124.847656 13.023438 125.792969 12.660156 126.570312 C 12.277344 127.578125 10.832031 127.894531 10.039062 127.164062 C 9.316406 126.59375 9.292969 125.355469 10.097656 124.847656 C 10.214844 124.71875 10.4375 124.679688 10.539062 124.585938 C 9.851562 124.386719 9.382812 123.585938 9.707031 122.910156 C 9.96875 122.308594 10.644531 121.972656 11.285156 122.035156 Z M 11.285156 122.035156 Z M 10.984375 122.488281 C 10.398438 122.503906 9.984375 123.171875 10.183594 123.695312 C 10.414062 124.601562 11.929688 124.570312 12.105469 123.640625 C 12.261719 123.125 11.851562 122.503906 11.285156 122.488281 L 11.269531 122.480469 L 11 122.480469 Z M 10.984375 122.488281 Z M 11 124.847656 C 10.308594 124.894531 9.96875 125.71875 10.152344 126.308594 C 10.269531 127.140625 11.460938 127.386719 11.929688 126.71875 C 12.382812 126.109375 12.160156 125.011719 11.34375 124.847656 L 11.269531 124.847656 L 11.253906 124.832031 L 11.007812 124.832031 Z M 11 124.847656 Z M 11 124.847656 "/>
<path style=" stroke:none;fill-rule:nonzero;fill:rgb(0%,0%,0%);fill-opacity:1;" d="M 5.347656 92.238281 L 5.347656 97.136719 L 5.355469 97.152344 L 6.332031 97.152344 L 6.332031 97.585938 L 3.753906 97.585938 L 3.753906 97.152344 L 4.730469 97.152344 L 4.746094 97.136719 L 4.746094 93.023438 C 4.414062 93.136719 4.0625 93.207031 3.714844 93.199219 L 3.714844 92.753906 C 4.238281 92.761719 4.808594 92.617188 5.207031 92.238281 Z M 5.347656 92.238281 Z M 5.347656 92.238281 "/>
<path style=" stroke:none;fill-rule:nonzero;fill:rgb(0%,0%,0%);fill-opacity:1;" d="M 8.382812 96.953125 L 8.382812 97.585938 L 7.738281 97.585938 L 7.738281 96.953125 Z M 8.382812 96.953125 Z M 8.382812 96.953125 "/>
<path style=" stroke:none;fill-rule:nonzero;fill:rgb(0%,0%,0%);fill-opacity:1;" d="M 11.269531 92.238281 C 12.023438 92.292969 12.523438 92.984375 12.660156 93.683594 C 12.730469 94 12.746094 94.300781 12.777344 94.617188 L 12.777344 95.429688 C 12.738281 96.253906 12.539062 97.339844 11.644531 97.675781 C 10.867188 97.984375 9.953125 97.5 9.722656 96.707031 C 9.546875 96.285156 9.53125 95.855469 9.492188 95.429688 L 9.492188 94.617188 C 9.53125 93.792969 9.707031 92.699219 10.597656 92.332031 L 10.636719 92.316406 L 10.667969 92.308594 L 10.707031 92.292969 L 10.824219 92.261719 L 10.898438 92.246094 L 10.984375 92.246094 L 11 92.238281 Z M 11.269531 92.238281 Z M 11.023438 92.722656 C 10.359375 92.800781 10.160156 93.601562 10.113281 94.144531 L 10.113281 94.355469 L 10.097656 94.371094 L 10.097656 95.476562 C 10.144531 96.046875 10.183594 96.785156 10.707031 97.167969 C 11.191406 97.5 11.835938 97.128906 11.96875 96.609375 C 12.113281 96.230469 12.144531 95.855469 12.175781 95.476562 L 12.175781 94.371094 C 12.128906 93.792969 12.046875 92.984375 11.382812 92.753906 L 11.324219 92.738281 L 11.308594 92.722656 L 11.238281 92.722656 L 11.222656 92.707031 L 11.039062 92.707031 Z M 11.023438 92.722656 Z M 11.023438 92.722656 "/>
<path style=" stroke:none;fill-rule:nonzero;fill:rgb(0%,0%,0%);fill-opacity:1;" d="M 5.347656 62.4375 L 5.347656 67.335938 L 5.355469 67.351562 L 6.332031 67.351562 L 6.332031 67.789062 L 3.753906 67.789062 L 3.753906 67.351562 L 4.730469 67.351562 L 4.746094 67.335938 L 4.746094 63.226562 C 4.414062 63.335938 4.0625 63.40625 3.714844 63.398438 L 3.714844 62.953125 C 4.238281 62.964844 4.808594 62.820312 5.207031 62.4375 Z M 5.347656 62.4375 Z M 5.347656 62.4375 "/>
<path style=" stroke:none;fill-rule:nonzero;fill:rgb(0%,0%,0%);fill-opacity:1;" d="M 8.382812 67.152344 L 8.382812 67.789062 L 7.738281 67.789062 L 7.738281 67.152344 Z M 8.382812 67.152344 Z M 8.382812 67.152344 "/>
<path style=" stroke:none;fill-rule:nonzero;fill:rgb(0%,0%,0%);fill-opacity:1;" d="M 11.183594 62.4375 C 12.105469 62.464844 12.835938 63.40625 12.691406 64.296875 C 12.597656 65.183594 11.761719 65.691406 11.167969 66.25 L 10.914062 66.511719 L 10.882812 66.527344 L 10.5625 66.835938 L 10.539062 66.851562 L 10.222656 67.167969 L 10.191406 67.183594 L 10.121094 67.257812 L 10.136719 67.265625 L 12.707031 67.265625 L 12.707031 67.789062 L 9.5625 67.789062 L 9.5625 67.3125 L 10.84375 66.035156 C 11.453125 65.503906 12.167969 64.8125 12.054688 63.9375 C 11.992188 63.429688 11.5625 62.964844 11.039062 62.921875 C 10.507812 62.84375 10.039062 63.265625 9.921875 63.773438 L 9.90625 63.796875 L 9.890625 63.851562 L 9.867188 63.9375 L 9.816406 64.113281 L 9.808594 64.152344 C 9.699219 64.019531 9.578125 63.875 9.492188 63.726562 C 9.652344 63.074219 10.175781 62.464844 10.867188 62.4375 Z M 11.183594 62.4375 Z M 11.183594 62.4375 "/>
<path style=" stroke:none;fill-rule:nonzero;fill:rgb(0%,0%,0%);fill-opacity:1;" d="M 5.347656 32.640625 L 5.347656 37.539062 L 5.355469 37.554688 L 6.332031 37.554688 L 6.332031 37.988281 L 3.753906 37.988281 L 3.753906 37.554688 L 4.730469 37.554688 L 4.746094 37.539062 L 4.746094 33.425781 C 4.414062 33.539062 4.0625 33.609375 3.714844 33.601562 L 3.714844 33.15625 C 4.238281 33.164062 4.808594 33.019531 5.207031 32.640625 Z M 5.347656 32.640625 Z M 5.347656 32.640625 "/>
<path style=" stroke:none;fill-rule:nonzero;fill:rgb(0%,0%,0%);fill-opacity:1;" d="M 8.382812 37.355469 L 8.382812 37.988281 L 7.738281 37.988281 L 7.738281 37.355469 Z M 8.382812 37.355469 Z M 8.382812 37.355469 "/>
<path style=" stroke:none;fill-rule:nonzero;fill:rgb(0%,0%,0%);fill-opacity:1;" d="M 12.089844 32.808594 L 12.089844 36.148438 L 12.105469 36.164062 L 12.890625 36.164062 L 12.890625 36.640625 L 12.105469 36.640625 L 12.089844 36.648438 L 12.089844 37.988281 L 11.484375 37.988281 L 11.484375 36.648438 L 11.46875 36.640625 L 9.375 36.640625 L 9.375 36.148438 C 10.039062 35.039062 10.707031 33.917969 11.375 32.808594 Z M 12.089844 32.808594 Z M 11.5 33.109375 C 11.34375 33.933594 10.832031 34.640625 10.453125 35.363281 C 10.300781 35.625 10.105469 35.910156 9.992188 36.164062 L 11.515625 36.164062 L 11.523438 36.148438 L 11.523438 33.109375 L 11.515625 33.09375 Z M 11.5 33.109375 Z M 11.5 33.109375 "/>
<path style=" stroke:none;fill-rule:nonzero;fill:rgb(0%,0%,0%);fill-opacity:1;" d="M 5.347656 2.839844 L 5.347656 7.738281 L 5.355469 7.753906 L 6.332031 7.753906 L 6.332031 8.191406 L 3.753906 8.191406 L 3.753906 7.753906 L 4.730469 7.753906 L 4.746094 7.738281 L 4.746094 3.628906 C 4.414062 3.738281 4.0625 3.808594 3.714844 3.800781 L 3.714844 3.355469 C 4.238281 3.363281 4.808594 3.222656 5.207031 2.839844 Z M 5.347656 2.839844 Z M 5.347656 2.839844 "/>
<path style=" stroke:none;fill-rule:nonzero;fill:rgb(0%,0%,0%);fill-opacity:1;" d="M 8.382812 7.554688 L 8.382812 8.191406 L 7.738281 8.191406 L 7.738281 7.554688 Z M 8.382812 7.554688 Z M 8.382812 7.554688 "/>
<path style=" stroke:none;fill-rule:nonzero;fill:rgb(0%,0%,0%);fill-opacity:1;" d="M 11.785156 2.839844 C 11.992188 2.875 12.230469 2.898438 12.429688 2.992188 L 12.429688 3.453125 C 11.882812 3.214844 11.167969 3.183594 10.738281 3.667969 C 10.359375 4.070312 10.183594 4.675781 10.167969 5.207031 C 10.628906 4.59375 11.667969 4.253906 12.230469 4.890625 C 12.792969 5.539062 12.890625 6.476562 12.636719 7.269531 C 12.359375 7.90625 11.714844 8.484375 11 8.351562 C 10.03125 8.269531 9.597656 7.191406 9.546875 6.367188 C 9.367188 5.199219 9.644531 3.730469 10.753906 3.0625 L 10.769531 3.054688 L 10.9375 2.96875 L 10.984375 2.953125 L 11.007812 2.9375 L 11.144531 2.898438 L 11.253906 2.863281 L 11.324219 2.847656 L 11.414062 2.847656 L 11.429688 2.839844 Z M 11.785156 2.839844 Z M 11.007812 5.046875 C 10.316406 5.167969 10.097656 6 10.183594 6.5625 C 10.222656 7.09375 10.429688 7.800781 11.039062 7.914062 C 11.691406 8 12.113281 7.300781 12.128906 6.738281 C 12.160156 6.167969 12.128906 5.515625 11.628906 5.144531 L 11.515625 5.085938 L 11.429688 5.0625 L 11.359375 5.046875 L 11.34375 5.03125 L 11.023438 5.03125 Z M 11.007812 5.046875 Z M 11.007812 5.046875 "/>
<path style="fill:none;stroke-width:0.02;stroke-linecap:butt;stroke-linejoin:miter;stroke:rgb(0%,0%,0%);stroke-opacity:1;stroke-miterlimit:10;" d="M 11.751221 1.479632 L 11.646214 1.479632 " transform="matrix(28.346457,0,0,-28.346457,1,256.11811)"/>
<path style="fill:none;stroke-width:0.02;stroke-linecap:butt;stroke-linejoin:miter;stroke:rgb(0%,0%,0%);stroke-opacity:1;stroke-miterlimit:10;" d="M 11.751221 2.530938 L 11.646214 2.530938 " transform="matrix(28.346457,0,0,-28.346457,1,256.11811)"/>
<path style="fill:none;stroke-width:0.02;stroke-linecap:butt;stroke-linejoin:miter;stroke:rgb(0%,0%,0%);stroke-opacity:1;stroke-miterlimit:10;" d="M 11.751221 3.582105 L 11.646214 3.582105 " transform="matrix(28.346457,0,0,-28.346457,1,256.11811)"/>
<path style="fill:none;stroke-width:0.02;stroke-linecap:butt;stroke-linejoin:miter;stroke:rgb(0%,0%,0%);stroke-opacity:1;stroke-miterlimit:10;" d="M 11.751221 4.63341 L 11.646214 4.63341 " transform="matrix(28.346457,0,0,-28.346457,1,256.11811)"/>
<path style="fill:none;stroke-width:0.02;stroke-linecap:butt;stroke-linejoin:miter;stroke:rgb(0%,0%,0%);stroke-opacity:1;stroke-miterlimit:10;" d="M 11.751221 5.684578 L 11.646214 5.684578 " transform="matrix(28.346457,0,0,-28.346457,1,256.11811)"/>
<path style="fill:none;stroke-width:0.02;stroke-linecap:butt;stroke-linejoin:miter;stroke:rgb(0%,0%,0%);stroke-opacity:1;stroke-miterlimit:10;" d="M 11.751221 6.735883 L 11.646214 6.735883 " transform="matrix(28.346457,0,0,-28.346457,1,256.11811)"/>
<path style="fill:none;stroke-width:0.02;stroke-linecap:butt;stroke-linejoin:miter;stroke:rgb(0%,0%,0%);stroke-opacity:1;stroke-miterlimit:10;" d="M 11.751221 7.787051 L 11.646214 7.787051 " transform="matrix(28.346457,0,0,-28.346457,1,256.11811)"/>
<path style="fill:none;stroke-width:0.02;stroke-linecap:round;stroke-linejoin:miter;stroke:rgb(0%,0%,0%);stroke-opacity:1;stroke-miterlimit:10;" d="M 11.751221 0.428465 L 11.751221 8.838356 " transform="matrix(28.346457,0,0,-28.346457,1,256.11811)"/>
<path style="fill:none;stroke-width:0.02;stroke-linecap:butt;stroke-linejoin:miter;stroke:rgb(0%,0%,0%);stroke-opacity:1;stroke-miterlimit:10;" d="M 1.717449 0.428465 L 1.717449 0.533333 " transform="matrix(28.346457,0,0,-28.346457,1,256.11811)"/>
<path style="fill:none;stroke-width:0.02;stroke-linecap:butt;stroke-linejoin:miter;stroke:rgb(0%,0%,0%);stroke-opacity:1;stroke-miterlimit:10;" d="M 2.832282 0.428465 L 2.832282 0.533333 " transform="matrix(28.346457,0,0,-28.346457,1,256.11811)"/>
<path style="fill:none;stroke-width:0.02;stroke-linecap:butt;stroke-linejoin:miter;stroke:rgb(0%,0%,0%);stroke-opacity:1;stroke-miterlimit:10;" d="M 3.947115 0.428465 L 3.947115 0.533333 " transform="matrix(28.346457,0,0,-28.346457,1,256.11811)"/>
<path style="fill:none;stroke-width:0.02;stroke-linecap:butt;stroke-linejoin:miter;stroke:rgb(0%,0%,0%);stroke-opacity:1;stroke-miterlimit:10;" d="M 5.062086 0.428465 L 5.062086 0.533333 " transform="matrix(28.346457,0,0,-28.346457,1,256.11811)"/>
<path style="fill:none;stroke-width:0.02;stroke-linecap:butt;stroke-linejoin:miter;stroke:rgb(0%,0%,0%);stroke-opacity:1;stroke-miterlimit:10;" d="M 6.176918 0.428465 L 6.176918 0.533333 " transform="matrix(28.346457,0,0,-28.346457,1,256.11811)"/>
<path style="fill:none;stroke-width:0.02;stroke-linecap:butt;stroke-linejoin:miter;stroke:rgb(0%,0%,0%);stroke-opacity:1;stroke-miterlimit:10;" d="M 7.291751 0.428465 L 7.291751 0.533333 " transform="matrix(28.346457,0,0,-28.346457,1,256.11811)"/>
<path style="fill:none;stroke-width:0.02;stroke-linecap:butt;stroke-linejoin:miter;stroke:rgb(0%,0%,0%);stroke-opacity:1;stroke-miterlimit:10;" d="M 8.406584 0.428465 L 8.406584 0.533333 " transform="matrix(28.346457,0,0,-28.346457,1,256.11811)"/>
<path style="fill:none;stroke-width:0.02;stroke-linecap:butt;stroke-linejoin:miter;stroke:rgb(0%,0%,0%);stroke-opacity:1;stroke-miterlimit:10;" d="M 9.521555 0.428465 L 9.521555 0.533333 " transform="matrix(28.346457,0,0,-28.346457,1,256.11811)"/>
<path style="fill:none;stroke-width:0.02;stroke-linecap:butt;stroke-linejoin:miter;stroke:rgb(0%,0%,0%);stroke-opacity:1;stroke-miterlimit:10;" d="M 10.636388 0.428465 L 10.636388 0.533333 " transform="matrix(28.346457,0,0,-28.346457,1,256.11811)"/>
<path style="fill:none;stroke-width:0.02;stroke-linecap:round;stroke-linejoin:miter;stroke:rgb(0%,0%,0%);stroke-opacity:1;stroke-miterlimit:10;" d="M 0.602616 0.428465 L 11.751221 0.428465 " transform="matrix(28.346457,0,0,-28.346457,1,256.11811)"/>
<path style=" stroke:none;fill-rule:nonzero;fill:rgb(0%,0%,0%);fill-opacity:1;" d="M 15.132812 248.792969 C 15.886719 248.847656 16.386719 249.539062 16.519531 250.238281 C 16.59375 250.554688 16.609375 250.855469 16.640625 251.171875 L 16.640625 251.984375 C 16.601562 252.808594 16.402344 253.894531 15.503906 254.230469 C 14.726562 254.539062 13.8125 254.054688 13.585938 253.261719 C 13.410156 252.839844 13.394531 252.410156 13.355469 251.984375 L 13.355469 251.171875 C 13.394531 250.347656 13.566406 249.253906 14.457031 248.886719 L 14.496094 248.871094 L 14.527344 248.863281 L 14.566406 248.847656 L 14.6875 248.816406 L 14.757812 248.800781 L 14.847656 248.800781 L 14.863281 248.792969 Z M 15.132812 248.792969 Z M 14.886719 249.277344 C 14.21875 249.355469 14.019531 250.15625 13.972656 250.695312 L 13.972656 250.910156 L 13.957031 250.925781 L 13.957031 252.03125 C 14.003906 252.601562 14.042969 253.339844 14.566406 253.722656 C 15.050781 254.054688 15.695312 253.679688 15.832031 253.164062 C 15.972656 252.785156 16.003906 252.410156 16.035156 252.03125 L 16.035156 250.925781 C 15.988281 250.347656 15.910156 249.539062 15.242188 249.308594 L 15.1875 249.292969 L 15.171875 249.277344 L 15.101562 249.277344 L 15.085938 249.261719 L 14.902344 249.261719 Z M 14.886719 249.277344 Z M 14.886719 249.277344 "/>
<path style=" stroke:none;fill-rule:nonzero;fill:rgb(0%,0%,0%);fill-opacity:1;" d="M 18.410156 253.507812 L 18.410156 254.140625 L 17.765625 254.140625 L 17.765625 253.507812 Z M 18.410156 253.507812 Z M 18.410156 253.507812 "/>
<path style=" stroke:none;fill-rule:nonzero;fill:rgb(0%,0%,0%);fill-opacity:1;" d="M 21.300781 248.792969 C 22.054688 248.847656 22.554688 249.539062 22.6875 250.238281 C 22.757812 250.554688 22.773438 250.855469 22.808594 251.171875 L 22.808594 251.984375 C 22.765625 252.808594 22.570312 253.894531 21.671875 254.230469 C 20.894531 254.539062 19.980469 254.054688 19.75 253.261719 C 19.578125 252.839844 19.5625 252.410156 19.519531 251.984375 L 19.519531 251.171875 C 19.5625 250.347656 19.734375 249.253906 20.625 248.886719 L 20.664062 248.871094 L 20.695312 248.863281 L 20.734375 248.847656 L 20.855469 248.816406 L 20.925781 248.800781 L 21.011719 248.800781 L 21.027344 248.792969 Z M 21.300781 248.792969 Z M 21.054688 249.277344 C 20.386719 249.355469 20.1875 250.15625 20.140625 250.695312 L 20.140625 250.910156 L 20.125 250.925781 L 20.125 252.03125 C 20.171875 252.601562 20.210938 253.339844 20.734375 253.722656 C 21.21875 254.054688 21.863281 253.679688 21.996094 253.164062 C 22.140625 252.785156 22.171875 252.410156 22.203125 252.03125 L 22.203125 250.925781 C 22.15625 250.347656 22.078125 249.539062 21.410156 249.308594 L 21.355469 249.292969 L 21.339844 249.277344 L 21.265625 249.277344 L 21.25 249.261719 L 21.070312 249.261719 Z M 21.054688 249.277344 Z M 21.054688 249.277344 "/>
<path style=" stroke:none;fill-rule:nonzero;fill:rgb(0%,0%,0%);fill-opacity:1;" d="M 46.734375 248.792969 C 47.488281 248.847656 47.988281 249.539062 48.125 250.238281 C 48.195312 250.554688 48.210938 250.855469 48.242188 251.171875 L 48.242188 251.984375 C 48.203125 252.808594 48.003906 253.894531 47.105469 254.230469 C 46.328125 254.539062 45.417969 254.054688 45.1875 253.261719 C 45.011719 252.839844 44.996094 252.410156 44.957031 251.984375 L 44.957031 251.171875 C 44.996094 250.347656 45.171875 249.253906 46.058594 248.886719 L 46.097656 248.871094 L 46.132812 248.863281 L 46.171875 248.847656 L 46.289062 248.816406 L 46.359375 248.800781 L 46.449219 248.800781 L 46.464844 248.792969 Z M 46.734375 248.792969 Z M 46.488281 249.277344 C 45.820312 249.355469 45.625 250.15625 45.574219 250.695312 L 45.574219 250.910156 L 45.558594 250.925781 L 45.558594 252.03125 C 45.605469 252.601562 45.648438 253.339844 46.171875 253.722656 C 46.65625 254.054688 47.296875 253.679688 47.433594 253.164062 C 47.574219 252.785156 47.605469 252.410156 47.640625 252.03125 L 47.640625 250.925781 C 47.589844 250.347656 47.511719 249.539062 46.84375 249.308594 L 46.789062 249.292969 L 46.773438 249.277344 L 46.703125 249.277344 L 46.6875 249.261719 L 46.503906 249.261719 Z M 46.488281 249.277344 Z M 46.488281 249.277344 "/>
<path style=" stroke:none;fill-rule:nonzero;fill:rgb(0%,0%,0%);fill-opacity:1;" d="M 50.011719 253.507812 L 50.011719 254.140625 L 49.371094 254.140625 L 49.371094 253.507812 Z M 50.011719 253.507812 Z M 50.011719 253.507812 "/>
<path style=" stroke:none;fill-rule:nonzero;fill:rgb(0%,0%,0%);fill-opacity:1;" d="M 53.148438 248.792969 L 53.148438 253.6875 L 53.15625 253.707031 L 54.132812 253.707031 L 54.132812 254.140625 L 51.550781 254.140625 L 51.550781 253.707031 L 52.527344 253.707031 L 52.542969 253.6875 L 52.542969 249.578125 C 52.210938 249.6875 51.863281 249.761719 51.511719 249.753906 L 51.511719 249.308594 C 52.035156 249.316406 52.609375 249.171875 53.003906 248.792969 Z M 53.148438 248.792969 Z M 53.148438 248.792969 "/>
<path style=" stroke:none;fill-rule:nonzero;fill:rgb(0%,0%,0%);fill-opacity:1;" d="M 78.335938 248.792969 C 79.089844 248.847656 79.589844 249.539062 79.726562 250.238281 C 79.796875 250.554688 79.8125 250.855469 79.84375 251.171875 L 79.84375 251.984375 C 79.804688 252.808594 79.605469 253.894531 78.710938 254.230469 C 77.933594 254.539062 77.019531 254.054688 76.789062 253.261719 C 76.613281 252.839844 76.597656 252.410156 76.558594 251.984375 L 76.558594 251.171875 C 76.597656 250.347656 76.773438 249.253906 77.664062 248.886719 L 77.703125 248.871094 L 77.734375 248.863281 L 77.773438 248.847656 L 77.890625 248.816406 L 77.964844 248.800781 L 78.050781 248.800781 L 78.066406 248.792969 Z M 78.335938 248.792969 Z M 78.089844 249.277344 C 77.425781 249.355469 77.226562 250.15625 77.179688 250.695312 L 77.179688 250.910156 L 77.164062 250.925781 L 77.164062 252.03125 C 77.210938 252.601562 77.25 253.339844 77.773438 253.722656 C 78.257812 254.054688 78.898438 253.679688 79.035156 253.164062 C 79.179688 252.785156 79.210938 252.410156 79.242188 252.03125 L 79.242188 250.925781 C 79.195312 250.347656 79.113281 249.539062 78.449219 249.308594 L 78.390625 249.292969 L 78.375 249.277344 L 78.304688 249.277344 L 78.289062 249.261719 L 78.105469 249.261719 Z M 78.089844 249.277344 Z M 78.089844 249.277344 "/>
<path style=" stroke:none;fill-rule:nonzero;fill:rgb(0%,0%,0%);fill-opacity:1;" d="M 81.613281 253.507812 L 81.613281 254.140625 L 80.972656 254.140625 L 80.972656 253.507812 Z M 81.613281 253.507812 Z M 81.613281 253.507812 "/>
<path style=" stroke:none;fill-rule:nonzero;fill:rgb(0%,0%,0%);fill-opacity:1;" d="M 84.417969 248.792969 C 85.335938 248.816406 86.066406 249.761719 85.925781 250.648438 C 85.828125 251.539062 84.996094 252.046875 84.402344 252.601562 L 84.148438 252.863281 L 84.113281 252.878906 L 83.796875 253.1875 L 83.773438 253.207031 L 83.457031 253.523438 L 83.425781 253.539062 L 83.351562 253.609375 L 83.367188 253.617188 L 85.941406 253.617188 L 85.941406 254.140625 L 82.796875 254.140625 L 82.796875 253.664062 L 84.074219 252.386719 C 84.6875 251.855469 85.402344 251.164062 85.289062 250.292969 C 85.226562 249.785156 84.796875 249.316406 84.273438 249.277344 C 83.742188 249.195312 83.273438 249.617188 83.15625 250.125 L 83.140625 250.148438 L 83.121094 250.203125 L 83.097656 250.292969 L 83.050781 250.46875 L 83.042969 250.507812 C 82.933594 250.371094 82.8125 250.230469 82.726562 250.078125 C 82.882812 249.425781 83.410156 248.816406 84.097656 248.792969 Z M 84.417969 248.792969 Z M 84.417969 248.792969 "/>
<path style=" stroke:none;fill-rule:nonzero;fill:rgb(0%,0%,0%);fill-opacity:1;" d="M 109.9375 248.792969 C 110.695312 248.847656 111.195312 249.539062 111.328125 250.238281 C 111.398438 250.554688 111.414062 250.855469 111.449219 251.171875 L 111.449219 251.984375 C 111.40625 252.808594 111.210938 253.894531 110.3125 254.230469 C 109.535156 254.539062 108.621094 254.054688 108.390625 253.261719 C 108.21875 252.839844 108.199219 252.410156 108.160156 251.984375 L 108.160156 251.171875 C 108.199219 250.347656 108.375 249.253906 109.265625 248.886719 L 109.304688 248.871094 L 109.335938 248.863281 L 109.375 248.847656 L 109.496094 248.816406 L 109.566406 248.800781 L 109.652344 248.800781 L 109.667969 248.792969 Z M 109.9375 248.792969 Z M 109.691406 249.277344 C 109.027344 249.355469 108.828125 250.15625 108.78125 250.695312 L 108.78125 250.910156 L 108.765625 250.925781 L 108.765625 252.03125 C 108.8125 252.601562 108.851562 253.339844 109.375 253.722656 C 109.859375 254.054688 110.503906 253.679688 110.636719 253.164062 C 110.78125 252.785156 110.8125 252.410156 110.84375 252.03125 L 110.84375 250.925781 C 110.796875 250.347656 110.71875 249.539062 110.050781 249.308594 L 109.996094 249.292969 L 109.980469 249.277344 L 109.90625 249.277344 L 109.890625 249.261719 L 109.710938 249.261719 Z M 109.691406 249.277344 Z M 109.691406 249.277344 "/>
<path style=" stroke:none;fill-rule:nonzero;fill:rgb(0%,0%,0%);fill-opacity:1;" d="M 113.21875 253.507812 L 113.21875 254.140625 L 112.574219 254.140625 L 112.574219 253.507812 Z M 113.21875 253.507812 Z M 113.21875 253.507812 "/>
<path style=" stroke:none;fill-rule:nonzero;fill:rgb(0%,0%,0%);fill-opacity:1;" d="M 116.121094 248.792969 C 116.820312 248.824219 117.550781 249.46875 117.382812 250.203125 C 117.304688 250.703125 116.957031 251.117188 116.519531 251.339844 C 117.226562 251.5625 117.773438 252.308594 117.582031 253.046875 C 117.390625 254.007812 116.289062 254.539062 115.398438 254.246094 C 114.972656 254.117188 114.535156 253.847656 114.328125 253.453125 C 114.375 253.332031 114.359375 253.125 114.414062 253.046875 C 114.835938 253.664062 115.726562 254.085938 116.425781 253.738281 C 117.1875 253.253906 117.066406 251.839844 116.144531 251.601562 L 116.074219 251.601562 L 116.058594 251.585938 L 115.320312 251.585938 L 115.320312 251.109375 C 115.773438 251.101562 116.335938 251.046875 116.589844 250.578125 C 116.859375 250.171875 116.835938 249.507812 116.320312 249.308594 C 115.710938 249.070312 114.957031 249.457031 114.726562 250.078125 C 114.628906 249.941406 114.535156 249.808594 114.441406 249.664062 C 114.765625 249.078125 115.457031 248.730469 116.121094 248.792969 Z M 116.121094 248.792969 Z M 116.121094 248.792969 "/>
<path style=" stroke:none;fill-rule:nonzero;fill:rgb(0%,0%,0%);fill-opacity:1;" d="M 141.542969 248.792969 C 142.296875 248.847656 142.796875 249.539062 142.929688 250.238281 C 143.003906 250.554688 143.019531 250.855469 143.050781 251.171875 L 143.050781 251.984375 C 143.011719 252.808594 142.8125 253.894531 141.914062 254.230469 C 141.136719 254.539062 140.222656 254.054688 139.992188 253.261719 C 139.820312 252.839844 139.804688 252.410156 139.765625 251.984375 L 139.765625 251.171875 C 139.804688 250.347656 139.976562 249.253906 140.867188 248.886719 L 140.90625 248.871094 L 140.9375 248.863281 L 140.976562 248.847656 L 141.097656 248.816406 L 141.167969 248.800781 L 141.257812 248.800781 L 141.273438 248.792969 Z M 141.542969 248.792969 Z M 141.296875 249.277344 C 140.628906 249.355469 140.429688 250.15625 140.382812 250.695312 L 140.382812 250.910156 L 140.367188 250.925781 L 140.367188 252.03125 C 140.414062 252.601562 140.453125 253.339844 140.976562 253.722656 C 141.460938 254.054688 142.105469 253.679688 142.242188 253.164062 C 142.382812 252.785156 142.414062 252.410156 142.445312 252.03125 L 142.445312 250.925781 C 142.398438 250.347656 142.320312 249.539062 141.652344 249.308594 L 141.597656 249.292969 L 141.582031 249.277344 L 141.511719 249.277344 L 141.496094 249.261719 L 141.3125 249.261719 Z M 141.296875 249.277344 Z M 141.296875 249.277344 "/>
<path style=" stroke:none;fill-rule:nonzero;fill:rgb(0%,0%,0%);fill-opacity:1;" d="M 144.820312 253.507812 L 144.820312 254.140625 L 144.175781 254.140625 L 144.175781 253.507812 Z M 144.820312 253.507812 Z M 144.820312 253.507812 "/>
<path style=" stroke:none;fill-rule:nonzero;fill:rgb(0%,0%,0%);fill-opacity:1;" d="M 148.527344 248.957031 L 148.527344 252.300781 L 148.542969 252.316406 L 149.328125 252.316406 L 149.328125 252.792969 L 148.542969 252.792969 L 148.527344 252.800781 L 148.527344 254.140625 L 147.921875 254.140625 L 147.921875 252.800781 L 147.90625 252.792969 L 145.8125 252.792969 L 145.8125 252.300781 C 146.480469 251.1875 147.144531 250.070312 147.8125 248.957031 Z M 148.527344 248.957031 Z M 147.9375 249.261719 C 147.78125 250.085938 147.273438 250.792969 146.890625 251.515625 C 146.742188 251.777344 146.542969 252.0625 146.429688 252.316406 L 147.953125 252.316406 L 147.960938 252.300781 L 147.960938 249.261719 L 147.953125 249.246094 Z M 147.9375 249.261719 Z M 147.9375 249.261719 "/>
<path style=" stroke:none;fill-rule:nonzero;fill:rgb(0%,0%,0%);fill-opacity:1;" d="M 173.144531 248.792969 C 173.898438 248.847656 174.398438 249.539062 174.535156 250.238281 C 174.605469 250.554688 174.621094 250.855469 174.652344 251.171875 L 174.652344 251.984375 C 174.613281 252.808594 174.414062 253.894531 173.515625 254.230469 C 172.738281 254.539062 171.828125 254.054688 171.597656 253.261719 C 171.421875 252.839844 171.40625 252.410156 171.367188 251.984375 L 171.367188 251.171875 C 171.40625 250.347656 171.582031 249.253906 172.46875 248.886719 L 172.507812 248.871094 L 172.542969 248.863281 L 172.582031 248.847656 L 172.699219 248.816406 L 172.769531 248.800781 L 172.859375 248.800781 L 172.875 248.792969 Z M 173.144531 248.792969 Z M 172.898438 249.277344 C 172.230469 249.355469 172.03125 250.15625 171.984375 250.695312 L 171.984375 250.910156 L 171.96875 250.925781 L 171.96875 252.03125 C 172.015625 252.601562 172.058594 253.339844 172.582031 253.722656 C 173.066406 254.054688 173.707031 253.679688 173.84375 253.164062 C 173.984375 252.785156 174.015625 252.410156 174.050781 252.03125 L 174.050781 250.925781 C 174 250.347656 173.921875 249.539062 173.253906 249.308594 L 173.199219 249.292969 L 173.183594 249.277344 L 173.113281 249.277344 L 173.097656 249.261719 L 172.914062 249.261719 Z M 172.898438 249.277344 Z M 172.898438 249.277344 "/>
<path style=" stroke:none;fill-rule:nonzero;fill:rgb(0%,0%,0%);fill-opacity:1;" d="M 176.421875 253.507812 L 176.421875 254.140625 L 175.78125 254.140625 L 175.78125 253.507812 Z M 176.421875 253.507812 Z M 176.421875 253.507812 "/>
<path style=" stroke:none;fill-rule:nonzero;fill:rgb(0%,0%,0%);fill-opacity:1;" d="M 180.484375 248.957031 L 180.484375 249.449219 L 178.421875 249.449219 L 178.40625 249.457031 L 178.40625 251.085938 C 178.597656 250.960938 178.867188 250.792969 179.121094 250.785156 C 180.019531 250.6875 180.707031 251.570312 180.746094 252.386719 C 180.875 253.425781 179.898438 254.460938 178.851562 254.300781 C 178.328125 254.285156 177.820312 253.976562 177.519531 253.546875 C 177.605469 253.425781 177.675781 253.222656 177.78125 253.148438 C 178.152344 253.878906 179.359375 254.171875 179.84375 253.402344 C 180.152344 252.824219 180.144531 252.085938 179.789062 251.53125 C 179.375 251 178.558594 251.324219 178.367188 251.886719 L 177.851562 251.886719 L 177.851562 248.957031 Z M 180.484375 248.957031 Z M 180.484375 248.957031 "/>
<path style=" stroke:none;fill-rule:nonzero;fill:rgb(0%,0%,0%);fill-opacity:1;" d="M 204.746094 248.792969 C 205.5 248.847656 206 249.539062 206.136719 250.238281 C 206.207031 250.554688 206.222656 250.855469 206.253906 251.171875 L 206.253906 251.984375 C 206.214844 252.808594 206.015625 253.894531 205.121094 254.230469 C 204.34375 254.539062 203.429688 254.054688 203.199219 253.261719 C 203.023438 252.839844 203.007812 252.410156 202.96875 251.984375 L 202.96875 251.171875 C 203.007812 250.347656 203.183594 249.253906 204.070312 248.886719 L 204.113281 248.871094 L 204.144531 248.863281 L 204.183594 248.847656 L 204.300781 248.816406 L 204.375 248.800781 L 204.460938 248.800781 L 204.476562 248.792969 Z M 204.746094 248.792969 Z M 204.5 249.277344 C 203.835938 249.355469 203.636719 250.15625 203.589844 250.695312 L 203.589844 250.910156 L 203.570312 250.925781 L 203.570312 252.03125 C 203.621094 252.601562 203.660156 253.339844 204.183594 253.722656 C 204.667969 254.054688 205.308594 253.679688 205.445312 253.164062 C 205.589844 252.785156 205.621094 252.410156 205.652344 252.03125 L 205.652344 250.925781 C 205.605469 250.347656 205.523438 249.539062 204.859375 249.308594 L 204.800781 249.292969 L 204.785156 249.277344 L 204.714844 249.277344 L 204.699219 249.261719 L 204.515625 249.261719 Z M 204.5 249.277344 Z M 204.5 249.277344 "/>
<path style=" stroke:none;fill-rule:nonzero;fill:rgb(0%,0%,0%);fill-opacity:1;" d="M 208.023438 253.507812 L 208.023438 254.140625 L 207.382812 254.140625 L 207.382812 253.507812 Z M 208.023438 253.507812 Z M 208.023438 253.507812 "/>
<path style=" stroke:none;fill-rule:nonzero;fill:rgb(0%,0%,0%);fill-opacity:1;" d="M 211.429688 248.792969 C 211.636719 248.824219 211.875 248.847656 212.074219 248.941406 L 212.074219 249.402344 C 211.523438 249.164062 210.8125 249.132812 210.382812 249.617188 C 210 250.023438 209.828125 250.625 209.8125 251.15625 C 210.269531 250.546875 211.3125 250.203125 211.875 250.839844 C 212.4375 251.492188 212.53125 252.425781 212.277344 253.222656 C 212 253.855469 211.359375 254.433594 210.644531 254.300781 C 209.675781 254.222656 209.238281 253.140625 209.191406 252.316406 C 209.007812 251.148438 209.285156 249.679688 210.398438 249.015625 L 210.414062 249.007812 L 210.582031 248.917969 L 210.628906 248.902344 L 210.652344 248.886719 L 210.785156 248.847656 L 210.898438 248.816406 L 210.96875 248.800781 L 211.058594 248.800781 L 211.074219 248.792969 Z M 211.429688 248.792969 Z M 210.652344 251 C 209.960938 251.117188 209.738281 251.953125 209.828125 252.515625 C 209.867188 253.046875 210.074219 253.753906 210.683594 253.863281 C 211.335938 253.953125 211.753906 253.253906 211.769531 252.6875 C 211.804688 252.117188 211.769531 251.46875 211.269531 251.09375 L 211.160156 251.039062 L 211.074219 251.015625 L 211 251 L 210.984375 250.984375 L 210.667969 250.984375 Z M 210.652344 251 Z M 210.652344 251 "/>
<path style=" stroke:none;fill-rule:nonzero;fill:rgb(0%,0%,0%);fill-opacity:1;" d="M 236.347656 248.792969 C 237.101562 248.847656 237.601562 249.539062 237.738281 250.238281 C 237.808594 250.554688 237.824219 250.855469 237.855469 251.171875 L 237.855469 251.984375 C 237.816406 252.808594 237.621094 253.894531 236.722656 254.230469 C 235.945312 254.539062 235.03125 254.054688 234.800781 253.261719 C 234.628906 252.839844 234.609375 252.410156 234.570312 251.984375 L 234.570312 251.171875 C 234.609375 250.347656 234.785156 249.253906 235.675781 248.886719 L 235.714844 248.871094 L 235.746094 248.863281 L 235.785156 248.847656 L 235.90625 248.816406 L 235.976562 248.800781 L 236.0625 248.800781 L 236.078125 248.792969 Z M 236.347656 248.792969 Z M 236.101562 249.277344 C 235.4375 249.355469 235.238281 250.15625 235.191406 250.695312 L 235.191406 250.910156 L 235.175781 250.925781 L 235.175781 252.03125 C 235.222656 252.601562 235.261719 253.339844 235.785156 253.722656 C 236.269531 254.054688 236.914062 253.679688 237.046875 253.164062 C 237.191406 252.785156 237.222656 252.410156 237.253906 252.03125 L 237.253906 250.925781 C 237.207031 250.347656 237.128906 249.539062 236.460938 249.308594 L 236.40625 249.292969 L 236.390625 249.277344 L 236.316406 249.277344 L 236.300781 249.261719 L 236.121094 249.261719 Z M 236.101562 249.277344 Z M 236.101562 249.277344 "/>
<path style=" stroke:none;fill-rule:nonzero;fill:rgb(0%,0%,0%);fill-opacity:1;" d="M 239.628906 253.507812 L 239.628906 254.140625 L 238.984375 254.140625 L 238.984375 253.507812 Z M 239.628906 253.507812 Z M 239.628906 253.507812 "/>
<path style=" stroke:none;fill-rule:nonzero;fill:rgb(0%,0%,0%);fill-opacity:1;" d="M 244.023438 248.957031 L 244.023438 249.457031 C 242.898438 250.777344 242.261719 252.554688 242.269531 254.230469 L 241.628906 254.230469 C 241.613281 252.539062 242.300781 250.753906 243.507812 249.507812 L 243.492188 249.492188 L 240.738281 249.492188 L 240.738281 248.957031 L 244.023438 248.957031 L 244.023438 249.457031 Z M 244.023438 248.957031 Z M 244.023438 248.957031 "/>
<path style=" stroke:none;fill-rule:nonzero;fill:rgb(0%,0%,0%);fill-opacity:1;" d="M 267.953125 248.792969 C 268.707031 248.847656 269.207031 249.539062 269.339844 250.238281 C 269.414062 250.554688 269.429688 250.855469 269.460938 251.171875 L 269.460938 251.984375 C 269.421875 252.808594 269.222656 253.894531 268.324219 254.230469 C 267.546875 254.539062 266.632812 254.054688 266.402344 253.261719 C 266.230469 252.839844 266.214844 252.410156 266.175781 251.984375 L 266.175781 251.171875 C 266.214844 250.347656 266.386719 249.253906 267.277344 248.886719 L 267.316406 248.871094 L 267.347656 248.863281 L 267.386719 248.847656 L 267.507812 248.816406 L 267.578125 248.800781 L 267.667969 248.800781 L 267.683594 248.792969 Z M 267.953125 248.792969 Z M 267.707031 249.277344 C 267.039062 249.355469 266.839844 250.15625 266.792969 250.695312 L 266.792969 250.910156 L 266.777344 250.925781 L 266.777344 252.03125 C 266.824219 252.601562 266.863281 253.339844 267.386719 253.722656 C 267.871094 254.054688 268.515625 253.679688 268.648438 253.164062 C 268.792969 252.785156 268.824219 252.410156 268.855469 252.03125 L 268.855469 250.925781 C 268.808594 250.347656 268.730469 249.539062 268.0625 249.308594 L 268.007812 249.292969 L 267.992188 249.277344 L 267.921875 249.277344 L 267.902344 249.261719 L 267.722656 249.261719 Z M 267.707031 249.277344 Z M 267.707031 249.277344 "/>
<path style=" stroke:none;fill-rule:nonzero;fill:rgb(0%,0%,0%);fill-opacity:1;" d="M 271.230469 253.507812 L 271.230469 254.140625 L 270.585938 254.140625 L 270.585938 253.507812 Z M 271.230469 253.507812 Z M 271.230469 253.507812 "/>
<path style=" stroke:none;fill-rule:nonzero;fill:rgb(0%,0%,0%);fill-opacity:1;" d="M 274.136719 248.792969 C 274.976562 248.824219 275.769531 249.730469 275.4375 250.570312 C 275.292969 250.960938 274.898438 251.195312 274.570312 251.363281 C 275.382812 251.601562 275.871094 252.546875 275.507812 253.324219 C 275.125 254.332031 273.683594 254.648438 272.886719 253.917969 C 272.167969 253.347656 272.144531 252.109375 272.945312 251.601562 C 273.0625 251.476562 273.285156 251.433594 273.390625 251.339844 C 272.699219 251.140625 272.230469 250.339844 272.554688 249.664062 C 272.816406 249.0625 273.492188 248.730469 274.136719 248.792969 Z M 274.136719 248.792969 Z M 273.832031 249.246094 C 273.246094 249.261719 272.832031 249.925781 273.03125 250.449219 C 273.261719 251.355469 274.777344 251.324219 274.953125 250.394531 C 275.109375 249.878906 274.699219 249.261719 274.136719 249.246094 L 274.117188 249.238281 L 273.847656 249.238281 Z M 273.832031 249.246094 Z M 273.847656 251.601562 C 273.160156 251.648438 272.816406 252.476562 273 253.0625 C 273.117188 253.894531 274.308594 254.140625 274.777344 253.476562 C 275.230469 252.863281 275.007812 251.769531 274.191406 251.601562 L 274.117188 251.601562 L 274.101562 251.585938 L 273.855469 251.585938 Z M 273.847656 251.601562 Z M 273.847656 251.601562 "/>
<path style=" stroke:none;fill-rule:nonzero;fill:rgb(0%,0%,0%);fill-opacity:1;" d="M 299.554688 248.792969 C 300.308594 248.847656 300.808594 249.539062 300.941406 250.238281 C 301.015625 250.554688 301.03125 250.855469 301.0625 251.171875 L 301.0625 251.984375 C 301.023438 252.808594 300.824219 253.894531 299.925781 254.230469 C 299.148438 254.539062 298.238281 254.054688 298.007812 253.261719 C 297.832031 252.839844 297.816406 252.410156 297.777344 251.984375 L 297.777344 251.171875 C 297.816406 250.347656 297.992188 249.253906 298.878906 248.886719 L 298.917969 248.871094 L 298.949219 248.863281 L 298.992188 248.847656 L 299.109375 248.816406 L 299.179688 248.800781 L 299.269531 248.800781 L 299.285156 248.792969 Z M 299.554688 248.792969 Z M 299.308594 249.277344 C 298.640625 249.355469 298.441406 250.15625 298.394531 250.695312 L 298.394531 250.910156 L 298.378906 250.925781 L 298.378906 252.03125 C 298.425781 252.601562 298.46875 253.339844 298.992188 253.722656 C 299.476562 254.054688 300.117188 253.679688 300.253906 253.164062 C 300.394531 252.785156 300.425781 252.410156 300.460938 252.03125 L 300.460938 250.925781 C 300.410156 250.347656 300.332031 249.539062 299.664062 249.308594 L 299.609375 249.292969 L 299.59375 249.277344 L 299.523438 249.277344 L 299.507812 249.261719 L 299.324219 249.261719 Z M 299.308594 249.277344 Z M 299.308594 249.277344 "/>
<path style=" stroke:none;fill-rule:nonzero;fill:rgb(0%,0%,0%);fill-opacity:1;" d="M 302.832031 253.507812 L 302.832031 254.140625 L 302.1875 254.140625 L 302.1875 253.507812 Z M 302.832031 253.507812 Z M 302.832031 253.507812 "/>
<path style=" stroke:none;fill-rule:nonzero;fill:rgb(0%,0%,0%);fill-opacity:1;" d="M 305.753906 248.792969 C 306.707031 248.894531 307.117188 249.976562 307.183594 250.800781 C 307.292969 251.871094 307.164062 253.125 306.292969 253.894531 C 305.746094 254.445312 304.777344 254.460938 304.191406 253.96875 C 304.261719 253.832031 304.339844 253.671875 304.425781 253.5625 C 304.945312 254.0625 305.847656 253.917969 306.183594 253.277344 C 306.417969 252.886719 306.5625 252.386719 306.554688 251.960938 C 306.085938 252.5625 305.054688 252.910156 304.492188 252.277344 C 303.917969 251.617188 303.816406 250.65625 304.101562 249.863281 C 304.394531 249.238281 305.023438 248.695312 305.753906 248.792969 Z M 305.753906 248.792969 Z M 305.492188 249.246094 C 304.917969 249.292969 304.625 249.925781 304.585938 250.425781 C 304.5625 250.992188 304.585938 251.648438 305.085938 252.015625 C 305.640625 252.355469 306.355469 251.941406 306.484375 251.339844 C 306.632812 250.753906 306.539062 250.125 306.238281 249.578125 C 306.070312 249.347656 305.769531 249.179688 305.492188 249.246094 Z M 305.492188 249.246094 Z M 305.492188 249.246094 "/>
<path style=" stroke:none;fill-rule:nonzero;fill:rgb(0%,0%,0%);fill-opacity:1;" d="M 331.402344 248.792969 L 331.402344 253.6875 L 331.410156 253.707031 L 332.386719 253.707031 L 332.386719 254.140625 L 329.808594 254.140625 L 329.808594 253.707031 L 330.785156 253.707031 L 330.800781 253.6875 L 330.800781 249.578125 C 330.464844 249.6875 330.117188 249.761719 329.769531 249.753906 L 329.769531 249.308594 C 330.292969 249.316406 330.863281 249.171875 331.261719 248.792969 Z M 331.402344 248.792969 Z M 331.402344 248.792969 "/>
<path style=" stroke:none;fill-rule:nonzero;fill:rgb(0%,0%,0%);fill-opacity:1;" d="M 334.433594 253.507812 L 334.433594 254.140625 L 333.792969 254.140625 L 333.792969 253.507812 Z M 334.433594 253.507812 Z M 334.433594 253.507812 "/>
<path style=" stroke:none;fill-rule:nonzero;fill:rgb(0%,0%,0%);fill-opacity:1;" d="M 337.324219 248.792969 C 338.078125 248.847656 338.578125 249.539062 338.710938 250.238281 C 338.785156 250.554688 338.800781 250.855469 338.832031 251.171875 L 338.832031 251.984375 C 338.792969 252.808594 338.59375 253.894531 337.695312 254.230469 C 336.917969 254.539062 336.007812 254.054688 335.777344 253.261719 C 335.601562 252.839844 335.585938 252.410156 335.546875 251.984375 L 335.546875 251.171875 C 335.585938 250.347656 335.761719 249.253906 336.648438 248.886719 L 336.6875 248.871094 L 336.71875 248.863281 L 336.761719 248.847656 L 336.878906 248.816406 L 336.949219 248.800781 L 337.039062 248.800781 L 337.054688 248.792969 Z M 337.324219 248.792969 Z M 337.078125 249.277344 C 336.410156 249.355469 336.210938 250.15625 336.164062 250.695312 L 336.164062 250.910156 L 336.148438 250.925781 L 336.148438 252.03125 C 336.195312 252.601562 336.238281 253.339844 336.761719 253.722656 C 337.246094 254.054688 337.886719 253.679688 338.023438 253.164062 C 338.164062 252.785156 338.195312 252.410156 338.230469 252.03125 L 338.230469 250.925781 C 338.179688 250.347656 338.101562 249.539062 337.433594 249.308594 L 337.378906 249.292969 L 337.363281 249.277344 L 337.292969 249.277344 L 337.277344 249.261719 L 337.09375 249.261719 Z M 337.078125 249.277344 Z M 337.078125 249.277344 "/>
<path style="fill:none;stroke-width:0.02;stroke-linecap:butt;stroke-linejoin:miter;stroke:rgb(0%,0%,0%);stroke-opacity:1;stroke-miterlimit:10;" d="M 1.717449 8.838356 L 1.717449 8.73335 " transform="matrix(28.346457,0,0,-28.346457,1,256.11811)"/>
<path style="fill:none;stroke-width:0.02;stroke-linecap:butt;stroke-linejoin:miter;stroke:rgb(0%,0%,0%);stroke-opacity:1;stroke-miterlimit:10;" d="M 2.832282 8.838356 L 2.832282 8.73335 " transform="matrix(28.346457,0,0,-28.346457,1,256.11811)"/>
<path style="fill:none;stroke-width:0.02;stroke-linecap:butt;stroke-linejoin:miter;stroke:rgb(0%,0%,0%);stroke-opacity:1;stroke-miterlimit:10;" d="M 3.947115 8.838356 L 3.947115 8.73335 " transform="matrix(28.346457,0,0,-28.346457,1,256.11811)"/>
<path style="fill:none;stroke-width:0.02;stroke-linecap:butt;stroke-linejoin:miter;stroke:rgb(0%,0%,0%);stroke-opacity:1;stroke-miterlimit:10;" d="M 5.062086 8.838356 L 5.062086 8.73335 " transform="matrix(28.346457,0,0,-28.346457,1,256.11811)"/>
<path style="fill:none;stroke-width:0.02;stroke-linecap:butt;stroke-linejoin:miter;stroke:rgb(0%,0%,0%);stroke-opacity:1;stroke-miterlimit:10;" d="M 6.176918 8.838356 L 6.176918 8.73335 " transform="matrix(28.346457,0,0,-28.346457,1,256.11811)"/>
<path style="fill:none;stroke-width:0.02;stroke-linecap:butt;stroke-linejoin:miter;stroke:rgb(0%,0%,0%);stroke-opacity:1;stroke-miterlimit:10;" d="M 7.291751 8.838356 L 7.291751 8.73335 " transform="matrix(28.346457,0,0,-28.346457,1,256.11811)"/>
<path style="fill:none;stroke-width:0.02;stroke-linecap:butt;stroke-linejoin:miter;stroke:rgb(0%,0%,0%);stroke-opacity:1;stroke-miterlimit:10;" d="M 8.406584 8.838356 L 8.406584 8.73335 " transform="matrix(28.346457,0,0,-28.346457,1,256.11811)"/>
<path style="fill:none;stroke-width:0.02;stroke-linecap:butt;stroke-linejoin:miter;stroke:rgb(0%,0%,0%);stroke-opacity:1;stroke-miterlimit:10;" d="M 9.521555 8.838356 L 9.521555 8.73335 " transform="matrix(28.346457,0,0,-28.346457,1,256.11811)"/>
<path style="fill:none;stroke-width:0.02;stroke-linecap:butt;stroke-linejoin:miter;stroke:rgb(0%,0%,0%);stroke-opacity:1;stroke-miterlimit:10;" d="M 10.636388 8.838356 L 10.636388 8.73335 " transform="matrix(28.346457,0,0,-28.346457,1,256.11811)"/>
<path style="fill:none;stroke-width:0.02;stroke-linecap:round;stroke-linejoin:miter;stroke:rgb(0%,0%,0%);stroke-opacity:1;stroke-miterlimit:10;" d="M 0.602616 8.838356 L 11.751221 8.838356 " transform="matrix(28.346457,0,0,-28.346457,1,256.11811)"/>
<path style="fill:none;stroke-width:0.02;stroke-linecap:butt;stroke-linejoin:round;stroke:rgb(32.941176%,47.058824%,63.921569%);stroke-opacity:1;stroke-miterlimit:10;" d="M 0.725124 0.428465 C 0.725124 0.591762 0.480109 0.591762 0.480109 0.428465 C 0.480109 0.265029 0.725124 0.265029 0.725124 0.428465 Z M 0.725124 0.428465 " transform="matrix(28.346457,0,0,-28.346457,1,256.11811)"/>
<path style="fill:none;stroke-width:0.02;stroke-linecap:butt;stroke-linejoin:round;stroke:rgb(32.941176%,47.058824%,63.921569%);stroke-opacity:1;stroke-miterlimit:10;" d="M 1.189523 0.647297 C 1.189523 0.810732 0.944645 0.810732 0.944645 0.647297 C 0.944645 0.484 1.189523 0.484 1.189523 0.647297 Z M 1.189523 0.647297 " transform="matrix(28.346457,0,0,-28.346457,1,256.11811)"/>
<path style="fill:none;stroke-width:0.02;stroke-linecap:butt;stroke-linejoin:round;stroke:rgb(32.941176%,47.058824%,63.921569%);stroke-opacity:1;stroke-miterlimit:10;" d="M 1.654059 0.865854 C 1.654059 1.029289 1.409182 1.029289 1.409182 0.865854 C 1.409182 0.702556 1.654059 0.702556 1.654059 0.865854 Z M 1.654059 0.865854 " transform="matrix(28.346457,0,0,-28.346457,1,256.11811)"/>
<path style="fill:none;stroke-width:0.02;stroke-linecap:butt;stroke-linejoin:round;stroke:rgb(32.941176%,47.058824%,63.921569%);stroke-opacity:1;stroke-miterlimit:10;" d="M 2.118596 1.083722 C 2.118596 1.247019 1.873581 1.247019 1.873581 1.083722 C 1.873581 0.920424 2.118596 0.920424 2.118596 1.083722 Z M 2.118596 1.083722 " transform="matrix(28.346457,0,0,-28.346457,1,256.11811)"/>
<path style="fill:none;stroke-width:0.02;stroke-linecap:butt;stroke-linejoin:round;stroke:rgb(32.941176%,47.058824%,63.921569%);stroke-opacity:1;stroke-miterlimit:10;" d="M 2.583133 1.300349 C 2.583133 1.463647 2.338117 1.463647 2.338117 1.300349 C 2.338117 1.137052 2.583133 1.137052 2.583133 1.300349 Z M 2.583133 1.300349 " transform="matrix(28.346457,0,0,-28.346457,1,256.11811)"/>
<path style="fill:none;stroke-width:0.02;stroke-linecap:butt;stroke-linejoin:round;stroke:rgb(32.941176%,47.058824%,63.921569%);stroke-opacity:1;stroke-miterlimit:10;" d="M 3.047669 1.515599 C 3.047669 1.678896 2.802654 1.678896 2.802654 1.515599 C 2.802654 1.352164 3.047669 1.352164 3.047669 1.515599 Z M 3.047669 1.515599 " transform="matrix(28.346457,0,0,-28.346457,1,256.11811)"/>
<path style="fill:none;stroke-width:0.02;stroke-linecap:butt;stroke-linejoin:round;stroke:rgb(32.941176%,47.058824%,63.921569%);stroke-opacity:1;stroke-miterlimit:10;" d="M 3.512206 1.728781 C 3.512206 1.892079 3.267191 1.892079 3.267191 1.728781 C 3.267191 1.565484 3.512206 1.565484 3.512206 1.728781 Z M 3.512206 1.728781 " transform="matrix(28.346457,0,0,-28.346457,1,256.11811)"/>
<path style="fill:none;stroke-width:0.02;stroke-linecap:butt;stroke-linejoin:round;stroke:rgb(32.941176%,47.058824%,63.921569%);stroke-opacity:1;stroke-miterlimit:10;" d="M 3.976743 1.939759 C 3.976743 2.103194 3.731727 2.103194 3.731727 1.939759 C 3.731727 1.776462 3.976743 1.776462 3.976743 1.939759 Z M 3.976743 1.939759 " transform="matrix(28.346457,0,0,-28.346457,1,256.11811)"/>
<path style="fill:none;stroke-width:0.02;stroke-linecap:butt;stroke-linejoin:round;stroke:rgb(32.941176%,47.058824%,63.921569%);stroke-opacity:1;stroke-miterlimit:10;" d="M 4.441279 2.148256 C 4.441279 2.311554 4.196264 2.311554 4.196264 2.148256 C 4.196264 1.984821 4.441279 1.984821 4.441279 2.148256 Z M 4.441279 2.148256 " transform="matrix(28.346457,0,0,-28.346457,1,256.11811)"/>
<path style="fill:none;stroke-width:0.02;stroke-linecap:butt;stroke-linejoin:round;stroke:rgb(32.941176%,47.058824%,63.921569%);stroke-opacity:1;stroke-miterlimit:10;" d="M 4.905816 2.353584 C 4.905816 2.516882 4.660801 2.516882 4.660801 2.353584 C 4.660801 2.190286 4.905816 2.190286 4.905816 2.353584 Z M 4.905816 2.353584 " transform="matrix(28.346457,0,0,-28.346457,1,256.11811)"/>
<path style="fill:none;stroke-width:0.02;stroke-linecap:butt;stroke-linejoin:round;stroke:rgb(32.941176%,47.058824%,63.921569%);stroke-opacity:1;stroke-miterlimit:10;" d="M 5.370353 2.555604 C 5.370353 2.71904 5.125337 2.71904 5.125337 2.555604 C 5.125337 2.392307 5.370353 2.392307 5.370353 2.555604 Z M 5.370353 2.555604 " transform="matrix(28.346457,0,0,-28.346457,1,256.11811)"/>
<path style="fill:none;stroke-width:0.02;stroke-linecap:butt;stroke-linejoin:round;stroke:rgb(32.941176%,47.058824%,63.921569%);stroke-opacity:1;stroke-miterlimit:10;" d="M 5.834889 2.754042 C 5.834889 2.917339 5.589874 2.917339 5.589874 2.754042 C 5.589874 2.590744 5.834889 2.590744 5.834889 2.754042 Z M 5.834889 2.754042 " transform="matrix(28.346457,0,0,-28.346457,1,256.11811)"/>
<path style="fill:none;stroke-width:0.02;stroke-linecap:butt;stroke-linejoin:round;stroke:rgb(32.941176%,47.058824%,63.921569%);stroke-opacity:1;stroke-miterlimit:10;" d="M 6.299426 2.948345 C 6.299426 3.111643 6.054411 3.111643 6.054411 2.948345 C 6.054411 2.785048 6.299426 2.785048 6.299426 2.948345 Z M 6.299426 2.948345 " transform="matrix(28.346457,0,0,-28.346457,1,256.11811)"/>
<path style="fill:none;stroke-width:0.02;stroke-linecap:butt;stroke-linejoin:round;stroke:rgb(32.941176%,47.058824%,63.921569%);stroke-opacity:1;stroke-miterlimit:10;" d="M 6.763963 3.138239 C 6.763963 3.301674 6.518947 3.301674 6.518947 3.138239 C 6.518947 2.974941 6.763963 2.974941 6.763963 3.138239 Z M 6.763963 3.138239 " transform="matrix(28.346457,0,0,-28.346457,1,256.11811)"/>
<path style="fill:none;stroke-width:0.02;stroke-linecap:butt;stroke-linejoin:round;stroke:rgb(32.941176%,47.058824%,63.921569%);stroke-opacity:1;stroke-miterlimit:10;" d="M 7.228499 3.323585 C 7.228499 3.486883 6.983484 3.486883 6.983484 3.323585 C 6.983484 3.160288 7.228499 3.160288 7.228499 3.323585 Z M 7.228499 3.323585 " transform="matrix(28.346457,0,0,-28.346457,1,256.11811)"/>
<path style="fill:none;stroke-width:0.02;stroke-linecap:butt;stroke-linejoin:round;stroke:rgb(32.941176%,47.058824%,63.921569%);stroke-opacity:1;stroke-miterlimit:10;" d="M 7.693036 3.503832 C 7.693036 3.66713 7.448021 3.66713 7.448021 3.503832 C 7.448021 3.340397 7.693036 3.340397 7.693036 3.503832 Z M 7.693036 3.503832 " transform="matrix(28.346457,0,0,-28.346457,1,256.11811)"/>
<path style="fill:none;stroke-width:0.02;stroke-linecap:butt;stroke-linejoin:round;stroke:rgb(32.941176%,47.058824%,63.921569%);stroke-opacity:1;stroke-miterlimit:10;" d="M 8.157435 3.678706 C 8.157435 3.842003 7.912558 3.842003 7.912558 3.678706 C 7.912558 3.51527 8.157435 3.51527 8.157435 3.678706 Z M 8.157435 3.678706 " transform="matrix(28.346457,0,0,-28.346457,1,256.11811)"/>
<path style="fill:none;stroke-width:0.02;stroke-linecap:butt;stroke-linejoin:round;stroke:rgb(32.941176%,47.058824%,63.921569%);stroke-opacity:1;stroke-miterlimit:10;" d="M 8.621972 3.847929 C 8.621972 4.011226 8.377094 4.011226 8.377094 3.847929 C 8.377094 3.684631 8.621972 3.684631 8.621972 3.847929 Z M 8.621972 3.847929 " transform="matrix(28.346457,0,0,-28.346457,1,256.11811)"/>
<path style="fill:none;stroke-width:0.02;stroke-linecap:butt;stroke-linejoin:round;stroke:rgb(32.941176%,47.058824%,63.921569%);stroke-opacity:1;stroke-miterlimit:10;" d="M 9.086508 4.011226 C 9.086508 4.174524 8.841493 4.174524 8.841493 4.011226 C 8.841493 3.847929 9.086508 3.847929 9.086508 4.011226 Z M 9.086508 4.011226 " transform="matrix(28.346457,0,0,-28.346457,1,256.11811)"/>
<path style="fill:none;stroke-width:0.02;stroke-linecap:butt;stroke-linejoin:round;stroke:rgb(32.941176%,47.058824%,63.921569%);stroke-opacity:1;stroke-miterlimit:10;" d="M 9.551045 4.168322 C 9.551045 4.33162 9.30603 4.33162 9.30603 4.168322 C 9.30603 4.005025 9.551045 4.005025 9.551045 4.168322 Z M 9.551045 4.168322 " transform="matrix(28.346457,0,0,-28.346457,1,256.11811)"/>
<path style="fill:none;stroke-width:0.02;stroke-linecap:butt;stroke-linejoin:round;stroke:rgb(32.941176%,47.058824%,63.921569%);stroke-opacity:1;stroke-miterlimit:10;" d="M 10.015582 4.318942 C 10.015582 4.48224 9.770566 4.48224 9.770566 4.318942 C 9.770566 4.155507 10.015582 4.155507 10.015582 4.318942 Z M 10.015582 4.318942 " transform="matrix(28.346457,0,0,-28.346457,1,256.11811)"/>
<path style="fill:none;stroke-width:0.02;stroke-linecap:butt;stroke-linejoin:round;stroke:rgb(32.941176%,47.058824%,63.921569%);stroke-opacity:1;stroke-miterlimit:10;" d="M 10.480118 4.462809 C 10.480118 4.626107 10.235103 4.626107 10.235103 4.462809 C 10.235103 4.299374 10.480118 4.299374 10.480118 4.462809 Z M 10.480118 4.462809 " transform="matrix(28.346457,0,0,-28.346457,1,256.11811)"/>
<path style="fill:none;stroke-width:0.02;stroke-linecap:butt;stroke-linejoin:round;stroke:rgb(32.941176%,47.058824%,63.921569%);stroke-opacity:1;stroke-miterlimit:10;" d="M 10.944655 4.599648 C 10.944655 4.762946 10.69964 4.762946 10.69964 4.599648 C 10.69964 4.436213 10.944655 4.436213 10.944655 4.599648 Z M 10.944655 4.599648 " transform="matrix(28.346457,0,0,-28.346457,1,256.11811)"/>
<path style="fill:none;stroke-width:0.02;stroke-linecap:butt;stroke-linejoin:round;stroke:rgb(32.941176%,47.058824%,63.921569%);stroke-opacity:1;stroke-miterlimit:10;" d="M 11.409192 4.729184 C 11.409192 4.892482 11.164176 4.892482 11.164176 4.729184 C 11.164176 4.565887 11.409192 4.565887 11.409192 4.729184 Z M 11.409192 4.729184 " transform="matrix(28.346457,0,0,-28.346457,1,256.11811)"/>
<path style="fill:none;stroke-width:0.02;stroke-linecap:butt;stroke-linejoin:round;stroke:rgb(32.941176%,47.058824%,63.921569%);stroke-opacity:1;stroke-miterlimit:10;" d="M 11.873728 4.851278 C 11.873728 5.014714 11.628713 5.014714 11.628713 4.851278 C 11.628713 4.687981 11.873728 4.687981 11.873728 4.851278 Z M 11.873728 4.851278 " transform="matrix(28.346457,0,0,-28.346457,1,256.11811)"/>
<path style="fill:none;stroke-width:0.02;stroke-linecap:butt;stroke-linejoin:round;stroke:rgb(90.196078%,56.862745%,25.882353%);stroke-opacity:1;stroke-miterlimit:10;" d="M 0.725124 5.684578 C 0.725124 5.847875 0.480109 5.847875 0.480109 5.684578 C 0.480109 5.52128 0.725124 5.52128 0.725124 5.684578 Z M 0.725124 5.684578 " transform="matrix(28.346457,0,0,-28.346457,1,256.11811)"/>
<path style="fill:none;stroke-width:0.02;stroke-linecap:butt;stroke-linejoin:round;stroke:rgb(90.196078%,56.862745%,25.882353%);stroke-opacity:1;stroke-miterlimit:10;" d="M 1.189523 5.68003 C 1.189523 5.843328 0.944645 5.843328 0.944645 5.68003 C 0.944645 5.516733 1.189523 5.516733 1.189523 5.68003 Z M 1.189523 5.68003 " transform="matrix(28.346457,0,0,-28.346457,1,256.11811)"/>
<path style="fill:none;stroke-width:0.02;stroke-linecap:butt;stroke-linejoin:round;stroke:rgb(90.196078%,56.862745%,25.882353%);stroke-opacity:1;stroke-miterlimit:10;" d="M 1.654059 5.666388 C 1.654059 5.829685 1.409182 5.829685 1.409182 5.666388 C 1.409182 5.502952 1.654059 5.502952 1.654059 5.666388 Z M 1.654059 5.666388 " transform="matrix(28.346457,0,0,-28.346457,1,256.11811)"/>
<path style="fill:none;stroke-width:0.02;stroke-linecap:butt;stroke-linejoin:round;stroke:rgb(90.196078%,56.862745%,25.882353%);stroke-opacity:1;stroke-miterlimit:10;" d="M 2.118596 5.643512 C 2.118596 5.806948 1.873581 5.806948 1.873581 5.643512 C 1.873581 5.480215 2.118596 5.480215 2.118596 5.643512 Z M 2.118596 5.643512 " transform="matrix(28.346457,0,0,-28.346457,1,256.11811)"/>
<path style="fill:none;stroke-width:0.02;stroke-linecap:butt;stroke-linejoin:round;stroke:rgb(90.196078%,56.862745%,25.882353%);stroke-opacity:1;stroke-miterlimit:10;" d="M 2.583133 5.611817 C 2.583133 5.775115 2.338117 5.775115 2.338117 5.611817 C 2.338117 5.448382 2.583133 5.448382 2.583133 5.611817 Z M 2.583133 5.611817 " transform="matrix(28.346457,0,0,-28.346457,1,256.11811)"/>
<path style="fill:none;stroke-width:0.02;stroke-linecap:butt;stroke-linejoin:round;stroke:rgb(90.196078%,56.862745%,25.882353%);stroke-opacity:1;stroke-miterlimit:10;" d="M 3.047669 5.57089 C 3.047669 5.734325 2.802654 5.734325 2.802654 5.57089 C 2.802654 5.407592 3.047669 5.407592 3.047669 5.57089 Z M 3.047669 5.57089 " transform="matrix(28.346457,0,0,-28.346457,1,256.11811)"/>
<path style="fill:none;stroke-width:0.02;stroke-linecap:butt;stroke-linejoin:round;stroke:rgb(90.196078%,56.862745%,25.882353%);stroke-opacity:1;stroke-miterlimit:10;" d="M 3.512206 5.521143 C 3.512206 5.684578 3.267191 5.684578 3.267191 5.521143 C 3.267191 5.357845 3.512206 5.357845 3.512206 5.521143 Z M 3.512206 5.521143 " transform="matrix(28.346457,0,0,-28.346457,1,256.11811)"/>
<path style="fill:none;stroke-width:0.02;stroke-linecap:butt;stroke-linejoin:round;stroke:rgb(90.196078%,56.862745%,25.882353%);stroke-opacity:1;stroke-miterlimit:10;" d="M 3.976743 5.462576 C 3.976743 5.625873 3.731727 5.625873 3.731727 5.462576 C 3.731727 5.299278 3.976743 5.299278 3.976743 5.462576 Z M 3.976743 5.462576 " transform="matrix(28.346457,0,0,-28.346457,1,256.11811)"/>
<path style="fill:none;stroke-width:0.02;stroke-linecap:butt;stroke-linejoin:round;stroke:rgb(90.196078%,56.862745%,25.882353%);stroke-opacity:1;stroke-miterlimit:10;" d="M 4.441279 5.395328 C 4.441279 5.558625 4.196264 5.558625 4.196264 5.395328 C 4.196264 5.231892 4.441279 5.231892 4.441279 5.395328 Z M 4.441279 5.395328 " transform="matrix(28.346457,0,0,-28.346457,1,256.11811)"/>
<path style="fill:none;stroke-width:0.02;stroke-linecap:butt;stroke-linejoin:round;stroke:rgb(90.196078%,56.862745%,25.882353%);stroke-opacity:1;stroke-miterlimit:10;" d="M 4.905816 5.31926 C 4.905816 5.482695 4.660801 5.482695 4.660801 5.31926 C 4.660801 5.155962 4.905816 5.155962 4.905816 5.31926 Z M 4.905816 5.31926 " transform="matrix(28.346457,0,0,-28.346457,1,256.11811)"/>
<path style="fill:none;stroke-width:0.02;stroke-linecap:butt;stroke-linejoin:round;stroke:rgb(90.196078%,56.862745%,25.882353%);stroke-opacity:1;stroke-miterlimit:10;" d="M 5.370353 5.234924 C 5.370353 5.398222 5.125337 5.398222 5.125337 5.234924 C 5.125337 5.071489 5.370353 5.071489 5.370353 5.234924 Z M 5.370353 5.234924 " transform="matrix(28.346457,0,0,-28.346457,1,256.11811)"/>
<path style="fill:none;stroke-width:0.02;stroke-linecap:butt;stroke-linejoin:round;stroke:rgb(90.196078%,56.862745%,25.882353%);stroke-opacity:1;stroke-miterlimit:10;" d="M 5.834889 5.142044 C 5.834889 5.30548 5.589874 5.30548 5.589874 5.142044 C 5.589874 4.978747 5.834889 4.978747 5.834889 5.142044 Z M 5.834889 5.142044 " transform="matrix(28.346457,0,0,-28.346457,1,256.11811)"/>
<path style="fill:none;stroke-width:0.02;stroke-linecap:butt;stroke-linejoin:round;stroke:rgb(90.196078%,56.862745%,25.882353%);stroke-opacity:1;stroke-miterlimit:10;" d="M 6.299426 5.041172 C 6.299426 5.204469 6.054411 5.204469 6.054411 5.041172 C 6.054411 4.877737 6.299426 4.877737 6.299426 5.041172 Z M 6.299426 5.041172 " transform="matrix(28.346457,0,0,-28.346457,1,256.11811)"/>
<path style="fill:none;stroke-width:0.02;stroke-linecap:butt;stroke-linejoin:round;stroke:rgb(90.196078%,56.862745%,25.882353%);stroke-opacity:1;stroke-miterlimit:10;" d="M 6.763963 4.932169 C 6.763963 5.095467 6.518947 5.095467 6.518947 4.932169 C 6.518947 4.768872 6.763963 4.768872 6.763963 4.932169 Z M 6.763963 4.932169 " transform="matrix(28.346457,0,0,-28.346457,1,256.11811)"/>
<path style="fill:none;stroke-width:0.02;stroke-linecap:butt;stroke-linejoin:round;stroke:rgb(90.196078%,56.862745%,25.882353%);stroke-opacity:1;stroke-miterlimit:10;" d="M 7.228499 4.815311 C 7.228499 4.978747 6.983484 4.978747 6.983484 4.815311 C 6.983484 4.652014 7.228499 4.652014 7.228499 4.815311 Z M 7.228499 4.815311 " transform="matrix(28.346457,0,0,-28.346457,1,256.11811)"/>
<path style="fill:none;stroke-width:0.02;stroke-linecap:butt;stroke-linejoin:round;stroke:rgb(90.196078%,56.862745%,25.882353%);stroke-opacity:1;stroke-miterlimit:10;" d="M 7.693036 4.691012 C 7.693036 4.85431 7.448021 4.85431 7.448021 4.691012 C 7.448021 4.527577 7.693036 4.527577 7.693036 4.691012 Z M 7.693036 4.691012 " transform="matrix(28.346457,0,0,-28.346457,1,256.11811)"/>
<path style="fill:none;stroke-width:0.02;stroke-linecap:butt;stroke-linejoin:round;stroke:rgb(90.196078%,56.862745%,25.882353%);stroke-opacity:1;stroke-miterlimit:10;" d="M 8.157435 4.559134 C 8.157435 4.722569 7.912558 4.722569 7.912558 4.559134 C 7.912558 4.395837 8.157435 4.395837 8.157435 4.559134 Z M 8.157435 4.559134 " transform="matrix(28.346457,0,0,-28.346457,1,256.11811)"/>
<path style="fill:none;stroke-width:0.02;stroke-linecap:butt;stroke-linejoin:round;stroke:rgb(90.196078%,56.862745%,25.882353%);stroke-opacity:1;stroke-miterlimit:10;" d="M 8.621972 4.420228 C 8.621972 4.583525 8.377094 4.583525 8.377094 4.420228 C 8.377094 4.25693 8.621972 4.25693 8.621972 4.420228 Z M 8.621972 4.420228 " transform="matrix(28.346457,0,0,-28.346457,1,256.11811)"/>
<path style="fill:none;stroke-width:0.02;stroke-linecap:butt;stroke-linejoin:round;stroke:rgb(90.196078%,56.862745%,25.882353%);stroke-opacity:1;stroke-miterlimit:10;" d="M 9.086508 4.274294 C 9.086508 4.437591 8.841493 4.437591 8.841493 4.274294 C 8.841493 4.110996 9.086508 4.110996 9.086508 4.274294 Z M 9.086508 4.274294 " transform="matrix(28.346457,0,0,-28.346457,1,256.11811)"/>
<path style="fill:none;stroke-width:0.02;stroke-linecap:butt;stroke-linejoin:round;stroke:rgb(90.196078%,56.862745%,25.882353%);stroke-opacity:1;stroke-miterlimit:10;" d="M 9.551045 4.121745 C 9.551045 4.285042 9.30603 4.285042 9.30603 4.121745 C 9.30603 3.958447 9.551045 3.958447 9.551045 4.121745 Z M 9.551045 4.121745 " transform="matrix(28.346457,0,0,-28.346457,1,256.11811)"/>
<path style="fill:none;stroke-width:0.02;stroke-linecap:butt;stroke-linejoin:round;stroke:rgb(90.196078%,56.862745%,25.882353%);stroke-opacity:1;stroke-miterlimit:10;" d="M 10.015582 3.962719 C 10.015582 4.126017 9.770566 4.126017 9.770566 3.962719 C 9.770566 3.799422 10.015582 3.799422 10.015582 3.962719 Z M 10.015582 3.962719 " transform="matrix(28.346457,0,0,-28.346457,1,256.11811)"/>
<path style="fill:none;stroke-width:0.02;stroke-linecap:butt;stroke-linejoin:round;stroke:rgb(90.196078%,56.862745%,25.882353%);stroke-opacity:1;stroke-miterlimit:10;" d="M 10.480118 3.79763 C 10.480118 3.960928 10.235103 3.960928 10.235103 3.79763 C 10.235103 3.634333 10.480118 3.634333 10.480118 3.79763 Z M 10.480118 3.79763 " transform="matrix(28.346457,0,0,-28.346457,1,256.11811)"/>
<path style="fill:none;stroke-width:0.02;stroke-linecap:butt;stroke-linejoin:round;stroke:rgb(90.196078%,56.862745%,25.882353%);stroke-opacity:1;stroke-miterlimit:10;" d="M 10.944655 3.626616 C 10.944655 3.789913 10.69964 3.789913 10.69964 3.626616 C 10.69964 3.463318 10.944655 3.463318 10.944655 3.626616 Z M 10.944655 3.626616 " transform="matrix(28.346457,0,0,-28.346457,1,256.11811)"/>
<path style="fill:none;stroke-width:0.02;stroke-linecap:butt;stroke-linejoin:round;stroke:rgb(90.196078%,56.862745%,25.882353%);stroke-opacity:1;stroke-miterlimit:10;" d="M 11.409192 3.450089 C 11.409192 3.613387 11.164176 3.613387 11.164176 3.450089 C 11.164176 3.286791 11.409192 3.286791 11.409192 3.450089 Z M 11.409192 3.450089 " transform="matrix(28.346457,0,0,-28.346457,1,256.11811)"/>
<path style="fill:none;stroke-width:0.02;stroke-linecap:butt;stroke-linejoin:round;stroke:rgb(90.196078%,56.862745%,25.882353%);stroke-opacity:1;stroke-miterlimit:10;" d="M 11.873728 3.268326 C 11.873728 3.431623 11.628713 3.431623 11.628713 3.268326 C 11.628713 3.105028 11.873728 3.105028 11.873728 3.268326 Z M 11.873728 3.268326 " transform="matrix(28.346457,0,0,-28.346457,1,256.11811)"/>
<path style="fill:none;stroke-width:0.02;stroke-linecap:butt;stroke-linejoin:round;stroke:rgb(81.960784%,36.862745%,36.078431%);stroke-opacity:1;stroke-miterlimit:10;" d="M 0.725124 5.684578 C 0.725124 5.847875 0.480109 5.847875 0.480109 5.684578 C 0.480109 5.52128 0.725124 5.52128 0.725124 5.684578 Z M 0.725124 5.684578 " transform="matrix(28.346457,0,0,-28.346457,1,256.11811)"/>
<path style="fill:none;stroke-width:0.02;stroke-linecap:butt;stroke-linejoin:round;stroke:rgb(81.960784%,36.862745%,36.078431%);stroke-opacity:1;stroke-miterlimit:10;" d="M 1.189523 5.899001 C 1.189523 6.062298 0.944645 6.062298 0.944645 5.899001 C 0.944645 5.735703 1.189523 5.735703 1.189523 5.899001 Z M 1.189523 5.899001 " transform="matrix(28.346457,0,0,-28.346457,1,256.11811)"/>
<path style="fill:none;stroke-width:0.02;stroke-linecap:butt;stroke-linejoin:round;stroke:rgb(81.960784%,36.862745%,36.078431%);stroke-opacity:1;stroke-miterlimit:10;" d="M 1.654059 6.103915 C 1.654059 6.267212 1.409182 6.267212 1.409182 6.103915 C 1.409182 5.94048 1.654059 5.94048 1.654059 6.103915 Z M 1.654059 6.103915 " transform="matrix(28.346457,0,0,-28.346457,1,256.11811)"/>
<path style="fill:none;stroke-width:0.02;stroke-linecap:butt;stroke-linejoin:round;stroke:rgb(81.960784%,36.862745%,36.078431%);stroke-opacity:1;stroke-miterlimit:10;" d="M 2.118596 6.298907 C 2.118596 6.462205 1.873581 6.462205 1.873581 6.298907 C 1.873581 6.13561 2.118596 6.13561 2.118596 6.298907 Z M 2.118596 6.298907 " transform="matrix(28.346457,0,0,-28.346457,1,256.11811)"/>
<path style="fill:none;stroke-width:0.02;stroke-linecap:butt;stroke-linejoin:round;stroke:rgb(81.960784%,36.862745%,36.078431%);stroke-opacity:1;stroke-miterlimit:10;" d="M 2.583133 6.483702 C 2.583133 6.647 2.338117 6.647 2.338117 6.483702 C 2.338117 6.320405 2.583133 6.320405 2.583133 6.483702 Z M 2.583133 6.483702 " transform="matrix(28.346457,0,0,-28.346457,1,256.11811)"/>
<path style="fill:none;stroke-width:0.02;stroke-linecap:butt;stroke-linejoin:round;stroke:rgb(81.960784%,36.862745%,36.078431%);stroke-opacity:1;stroke-miterlimit:10;" d="M 3.047669 6.658024 C 3.047669 6.821459 2.802654 6.821459 2.802654 6.658024 C 2.802654 6.494727 3.047669 6.494727 3.047669 6.658024 Z M 3.047669 6.658024 " transform="matrix(28.346457,0,0,-28.346457,1,256.11811)"/>
<path style="fill:none;stroke-width:0.02;stroke-linecap:butt;stroke-linejoin:round;stroke:rgb(81.960784%,36.862745%,36.078431%);stroke-opacity:1;stroke-miterlimit:10;" d="M 3.512206 6.821597 C 3.512206 6.984895 3.267191 6.984895 3.267191 6.821597 C 3.267191 6.6583 3.512206 6.6583 3.512206 6.821597 Z M 3.512206 6.821597 " transform="matrix(28.346457,0,0,-28.346457,1,256.11811)"/>
<path style="fill:none;stroke-width:0.02;stroke-linecap:butt;stroke-linejoin:round;stroke:rgb(81.960784%,36.862745%,36.078431%);stroke-opacity:1;stroke-miterlimit:10;" d="M 3.976743 6.974008 C 3.976743 7.137306 3.731727 7.137306 3.731727 6.974008 C 3.731727 6.810711 3.976743 6.810711 3.976743 6.974008 Z M 3.976743 6.974008 " transform="matrix(28.346457,0,0,-28.346457,1,256.11811)"/>
<path style="fill:none;stroke-width:0.02;stroke-linecap:butt;stroke-linejoin:round;stroke:rgb(81.960784%,36.862745%,36.078431%);stroke-opacity:1;stroke-miterlimit:10;" d="M 4.441279 7.115119 C 4.441279 7.278417 4.196264 7.278417 4.196264 7.115119 C 4.196264 6.951684 4.441279 6.951684 4.441279 7.115119 Z M 4.441279 7.115119 " transform="matrix(28.346457,0,0,-28.346457,1,256.11811)"/>
<path style="fill:none;stroke-width:0.02;stroke-linecap:butt;stroke-linejoin:round;stroke:rgb(81.960784%,36.862745%,36.078431%);stroke-opacity:1;stroke-miterlimit:10;" d="M 4.905816 7.244517 C 4.905816 7.407815 4.660801 7.407815 4.660801 7.244517 C 4.660801 7.08122 4.905816 7.08122 4.905816 7.244517 Z M 4.905816 7.244517 " transform="matrix(28.346457,0,0,-28.346457,1,256.11811)"/>
<path style="fill:none;stroke-width:0.02;stroke-linecap:butt;stroke-linejoin:round;stroke:rgb(81.960784%,36.862745%,36.078431%);stroke-opacity:1;stroke-miterlimit:10;" d="M 5.370353 7.362202 C 5.370353 7.525499 5.125337 7.525499 5.125337 7.362202 C 5.125337 7.198766 5.370353 7.198766 5.370353 7.362202 Z M 5.370353 7.362202 " transform="matrix(28.346457,0,0,-28.346457,1,256.11811)"/>
<path style="fill:none;stroke-width:0.02;stroke-linecap:butt;stroke-linejoin:round;stroke:rgb(81.960784%,36.862745%,36.078431%);stroke-opacity:1;stroke-miterlimit:10;" d="M 5.834889 7.467759 C 5.834889 7.631057 5.589874 7.631057 5.589874 7.467759 C 5.589874 7.304324 5.834889 7.304324 5.834889 7.467759 Z M 5.834889 7.467759 " transform="matrix(28.346457,0,0,-28.346457,1,256.11811)"/>
<path style="fill:none;stroke-width:0.02;stroke-linecap:butt;stroke-linejoin:round;stroke:rgb(81.960784%,36.862745%,36.078431%);stroke-opacity:1;stroke-miterlimit:10;" d="M 6.299426 7.561053 C 6.299426 7.724488 6.054411 7.724488 6.054411 7.561053 C 6.054411 7.397755 6.299426 7.397755 6.299426 7.561053 Z M 6.299426 7.561053 " transform="matrix(28.346457,0,0,-28.346457,1,256.11811)"/>
<path style="fill:none;stroke-width:0.02;stroke-linecap:butt;stroke-linejoin:round;stroke:rgb(81.960784%,36.862745%,36.078431%);stroke-opacity:1;stroke-miterlimit:10;" d="M 6.763963 7.642081 C 6.763963 7.805379 6.518947 7.805379 6.518947 7.642081 C 6.518947 7.478784 6.763963 7.478784 6.763963 7.642081 Z M 6.763963 7.642081 " transform="matrix(28.346457,0,0,-28.346457,1,256.11811)"/>
<path style="fill:none;stroke-width:0.02;stroke-linecap:butt;stroke-linejoin:round;stroke:rgb(81.960784%,36.862745%,36.078431%);stroke-opacity:1;stroke-miterlimit:10;" d="M 7.228499 7.71057 C 7.228499 7.873867 6.983484 7.873867 6.983484 7.71057 C 6.983484 7.547134 7.228499 7.547134 7.228499 7.71057 Z M 7.228499 7.71057 " transform="matrix(28.346457,0,0,-28.346457,1,256.11811)"/>
<path style="fill:none;stroke-width:0.02;stroke-linecap:butt;stroke-linejoin:round;stroke:rgb(81.960784%,36.862745%,36.078431%);stroke-opacity:1;stroke-miterlimit:10;" d="M 7.693036 7.76638 C 7.693036 7.929678 7.448021 7.929678 7.448021 7.76638 C 7.448021 7.603083 7.693036 7.603083 7.693036 7.76638 Z M 7.693036 7.76638 " transform="matrix(28.346457,0,0,-28.346457,1,256.11811)"/>
<path style="fill:none;stroke-width:0.02;stroke-linecap:butt;stroke-linejoin:round;stroke:rgb(81.960784%,36.862745%,36.078431%);stroke-opacity:1;stroke-miterlimit:10;" d="M 8.157435 7.809375 C 8.157435 7.97281 7.912558 7.97281 7.912558 7.809375 C 7.912558 7.646077 8.157435 7.646077 8.157435 7.809375 Z M 8.157435 7.809375 " transform="matrix(28.346457,0,0,-28.346457,1,256.11811)"/>
<path style="fill:none;stroke-width:0.02;stroke-linecap:butt;stroke-linejoin:round;stroke:rgb(81.960784%,36.862745%,36.078431%);stroke-opacity:1;stroke-miterlimit:10;" d="M 8.621972 7.839692 C 8.621972 8.002989 8.377094 8.002989 8.377094 7.839692 C 8.377094 7.676394 8.621972 7.676394 8.621972 7.839692 Z M 8.621972 7.839692 " transform="matrix(28.346457,0,0,-28.346457,1,256.11811)"/>
<path style="fill:none;stroke-width:0.02;stroke-linecap:butt;stroke-linejoin:round;stroke:rgb(81.960784%,36.862745%,36.078431%);stroke-opacity:1;stroke-miterlimit:10;" d="M 9.086508 7.857055 C 9.086508 8.02049 8.841493 8.02049 8.841493 7.857055 C 8.841493 7.693758 9.086508 7.693758 9.086508 7.857055 Z M 9.086508 7.857055 " transform="matrix(28.346457,0,0,-28.346457,1,256.11811)"/>
<path style="fill:none;stroke-width:0.02;stroke-linecap:butt;stroke-linejoin:round;stroke:rgb(81.960784%,36.862745%,36.078431%);stroke-opacity:1;stroke-miterlimit:10;" d="M 9.551045 7.861603 C 9.551045 8.0249 9.30603 8.0249 9.30603 7.861603 C 9.30603 7.698305 9.551045 7.698305 9.551045 7.861603 Z M 9.551045 7.861603 " transform="matrix(28.346457,0,0,-28.346457,1,256.11811)"/>
<path style="fill:none;stroke-width:0.02;stroke-linecap:butt;stroke-linejoin:round;stroke:rgb(81.960784%,36.862745%,36.078431%);stroke-opacity:1;stroke-miterlimit:10;" d="M 10.015582 7.853197 C 10.015582 8.016632 9.770566 8.016632 9.770566 7.853197 C 9.770566 7.689899 10.015582 7.689899 10.015582 7.853197 Z M 10.015582 7.853197 " transform="matrix(28.346457,0,0,-28.346457,1,256.11811)"/>
<path style="fill:none;stroke-width:0.02;stroke-linecap:butt;stroke-linejoin:round;stroke:rgb(81.960784%,36.862745%,36.078431%);stroke-opacity:1;stroke-miterlimit:10;" d="M 10.480118 7.831975 C 10.480118 7.995272 10.235103 7.995272 10.235103 7.831975 C 10.235103 7.668677 10.480118 7.668677 10.480118 7.831975 Z M 10.480118 7.831975 " transform="matrix(28.346457,0,0,-28.346457,1,256.11811)"/>
<path style="fill:none;stroke-width:0.02;stroke-linecap:butt;stroke-linejoin:round;stroke:rgb(81.960784%,36.862745%,36.078431%);stroke-opacity:1;stroke-miterlimit:10;" d="M 10.944655 7.797799 C 10.944655 7.961097 10.69964 7.961097 10.69964 7.797799 C 10.69964 7.634502 10.944655 7.634502 10.944655 7.797799 Z M 10.944655 7.797799 " transform="matrix(28.346457,0,0,-28.346457,1,256.11811)"/>
<path style="fill:none;stroke-width:0.02;stroke-linecap:butt;stroke-linejoin:round;stroke:rgb(81.960784%,36.862745%,36.078431%);stroke-opacity:1;stroke-miterlimit:10;" d="M 11.409192 7.750946 C 11.409192 7.914244 11.164176 7.914244 11.164176 7.750946 C 11.164176 7.587511 11.409192 7.587511 11.409192 7.750946 Z M 11.409192 7.750946 " transform="matrix(28.346457,0,0,-28.346457,1,256.11811)"/>
<path style="fill:none;stroke-width:0.02;stroke-linecap:butt;stroke-linejoin:round;stroke:rgb(81.960784%,36.862745%,36.078431%);stroke-opacity:1;stroke-miterlimit:10;" d="M 11.873728 7.691277 C 11.873728 7.854575 11.628713 7.854575 11.628713 7.691277 C 11.628713 7.52798 11.873728 7.52798 11.873728 7.691277 Z M 11.873728 7.691277 " transform="matrix(28.346457,0,0,-28.346457,1,256.11811)"/>
</g>
</svg>
