<?xml version="1.0" encoding="UTF-8"?>
<svg xmlns="http://www.w3.org/2000/svg" xmlns:xlink="http://www.w3.org/1999/xlink" width="285.464567pt" height="228.771654pt" viewBox="0 0 285.464567 228.771654" version="1.1">
<g id="surface1">
<path style="fill:none;stroke-width:0.02;stroke-linecap:butt;stroke-linejoin:miter;stroke:rgb(0%,0%,0%);stroke-opacity:1;stroke-miterlimit:10;" d="M 0.695771 1.251747 L 0.800778 1.251747 " transform="matrix(28.346457,0,0,-28.346457,1,227.771654)"/>
<path style="fill:none;stroke-width:0.02;stroke-linecap:butt;stroke-linejoin:miter;stroke:rgb(0%,0%,0%);stroke-opacity:1;stroke-miterlimit:10;" d="M 0.695771 2.074987 L 0.800778 2.074987 " transform="matrix(28.346457,0,0,-28.346457,1,227.771654)"/>
<path style="fill:none;stroke-width:0.02;stroke-linecap:butt;stroke-linejoin:miter;stroke:rgb(0%,0%,0%);stroke-opacity:1;stroke-miterlimit:10;" d="M 0.695771 2.898365 L 0.800778 2.898365 " transform="matrix(28.346457,0,0,-28.346457,1,227.771654)"/>
<path style="fill:none;stroke-width:0.02;stroke-linecap:butt;stroke-linejoin:miter;stroke:rgb(0%,0%,0%);stroke-opacity:1;stroke-miterlimit:10;" d="M 0.695771 3.721743 L 0.800778 3.721743 " transform="matrix(28.346457,0,0,-28.346457,1,227.771654)"/>
<path style="fill:none;stroke-width:0.02;stroke-linecap:butt;stroke-linejoin:miter;stroke:rgb(0%,0%,0%);stroke-opacity:1;stroke-miterlimit:10;" d="M 0.695771 4.544983 L 0.800778 4.544983 " transform="matrix(28.346457,0,0,-28.346457,1,227.771654)"/>
<path style="fill:none;stroke-width:0.02;stroke-linecap:butt;stroke-linejoin:miter;stroke:rgb(0%,0%,0%);stroke-opacity:1;stroke-miterlimit:10;" d="M 0.695771 5.36836 L 0.800778 5.36836 " transform="matrix(28.346457,0,0,-28.346457,1,227.771654)"/>
<path style="fill:none;stroke-width:0.02;stroke-linecap:butt;stroke-linejoin:miter;stroke:rgb(0%,0%,0%);stroke-opacity:1;stroke-miterlimit:10;" d="M 0.695771 6.1916 L 0.800778 6.1916 " transform="matrix(28.346457,0,0,-28.346457,1,227.771654)"/>
<path style="fill:none;stroke-width:0.02;stroke-linecap:butt;stroke-linejoin:miter;stroke:rgb(0%,0%,0%);stroke-opacity:1;stroke-miterlimit:10;" d="M 0.695771 7.014978 L 0.800778 7.014978 " transform="matrix(28.346457,0,0,-28.346457,1,227.771654)"/>
<path style="fill:none;stroke-width:0.02;stroke-linecap:round;stroke-linejoin:miter;stroke:rgb(0%,0%,0%);stroke-opacity:1;stroke-miterlimit:10;" d="M 0.695771 0.428369 L 0.695771 7.838356 " transform="matrix(28.346457,0,0,-28.346457,1,227.771654)"/>
<path style=" stroke:none;fill-rule:nonzero;fill:rgb(0%,0%,0%);fill-opacity:1;" d="M 5.160156 216.265625 L 5.160156 216.710938 L 3.078125 216.710938 L 3.078125 216.265625 Z M 5.160156 216.265625 Z M 5.160156 216.265625 "/>
<path style=" stroke:none;fill-rule:nonzero;fill:rgb(0%,0%,0%);fill-opacity:1;" d="M 7.660156 212.886719 C 8.578125 212.910156 9.308594 213.855469 9.167969 214.742188 C 9.070312 215.632812 8.238281 216.140625 7.644531 216.695312 L 7.390625 216.957031 L 7.359375 216.972656 L 7.039062 217.28125 L 7.015625 217.296875 L 6.699219 217.617188 L 6.667969 217.632812 L 6.59375 217.703125 L 6.613281 217.710938 L 9.183594 217.710938 L 9.183594 218.234375 L 6.039062 218.234375 L 6.039062 217.757812 L 7.316406 216.480469 C 7.929688 215.949219 8.644531 215.257812 8.53125 214.386719 C 8.46875 213.878906 8.039062 213.410156 7.515625 213.371094 C 6.984375 213.289062 6.515625 213.710938 6.398438 214.21875 L 6.382812 214.242188 L 6.367188 214.296875 L 6.339844 214.386719 L 6.292969 214.558594 L 6.285156 214.601562 C 6.175781 214.464844 6.054688 214.324219 5.96875 214.171875 C 6.128906 213.519531 6.652344 212.910156 7.339844 212.886719 Z M 7.660156 212.886719 Z M 7.660156 212.886719 "/>
<path style=" stroke:none;fill-rule:nonzero;fill:rgb(0%,0%,0%);fill-opacity:1;" d="M 11.023438 217.601562 L 11.023438 218.234375 L 10.382812 218.234375 L 10.382812 217.601562 Z M 11.023438 217.601562 Z M 11.023438 217.601562 "/>
<path style=" stroke:none;fill-rule:nonzero;fill:rgb(0%,0%,0%);fill-opacity:1;" d="M 13.914062 212.886719 C 14.667969 212.941406 15.167969 213.632812 15.300781 214.332031 C 15.375 214.648438 15.390625 214.949219 15.421875 215.265625 L 15.421875 216.078125 C 15.382812 216.902344 15.183594 217.988281 14.285156 218.324219 C 13.507812 218.632812 12.597656 218.148438 12.367188 217.355469 C 12.191406 216.933594 12.175781 216.503906 12.136719 216.078125 L 12.136719 215.265625 C 12.175781 214.441406 12.351562 213.347656 13.238281 212.980469 L 13.277344 212.964844 L 13.308594 212.957031 L 13.351562 212.941406 L 13.46875 212.910156 L 13.539062 212.894531 L 13.628906 212.894531 L 13.644531 212.886719 Z M 13.914062 212.886719 Z M 13.667969 213.371094 C 13 213.449219 12.800781 214.25 12.753906 214.789062 L 12.753906 215.003906 L 12.738281 215.019531 L 12.738281 216.125 C 12.785156 216.695312 12.824219 217.433594 13.351562 217.816406 C 13.835938 218.148438 14.476562 217.773438 14.613281 217.257812 C 14.753906 216.878906 14.785156 216.503906 14.816406 216.125 L 14.816406 215.019531 C 14.769531 214.441406 14.691406 213.632812 14.023438 213.402344 L 13.96875 213.386719 L 13.953125 213.371094 L 13.882812 213.371094 L 13.867188 213.355469 L 13.683594 213.355469 Z M 13.667969 213.371094 Z M 13.667969 213.371094 "/>
<path style=" stroke:none;fill-rule:nonzero;fill:rgb(0%,0%,0%);fill-opacity:1;" d="M 5.160156 192.929688 L 5.160156 193.375 L 3.078125 193.375 L 3.078125 192.929688 Z M 5.160156 192.929688 Z M 5.160156 192.929688 "/>
<path style=" stroke:none;fill-rule:nonzero;fill:rgb(0%,0%,0%);fill-opacity:1;" d="M 7.992188 189.546875 L 7.992188 194.445312 L 8 194.460938 L 8.976562 194.460938 L 8.976562 194.898438 L 6.398438 194.898438 L 6.398438 194.460938 L 7.375 194.460938 L 7.390625 194.445312 L 7.390625 190.332031 C 7.054688 190.445312 6.707031 190.515625 6.359375 190.507812 L 6.359375 190.0625 C 6.882812 190.070312 7.453125 189.929688 7.851562 189.546875 Z M 7.992188 189.546875 Z M 7.992188 189.546875 "/>
<path style=" stroke:none;fill-rule:nonzero;fill:rgb(0%,0%,0%);fill-opacity:1;" d="M 11.023438 194.261719 L 11.023438 194.898438 L 10.382812 194.898438 L 10.382812 194.261719 Z M 11.023438 194.261719 Z M 11.023438 194.261719 "/>
<path style=" stroke:none;fill-rule:nonzero;fill:rgb(0%,0%,0%);fill-opacity:1;" d="M 15.089844 189.714844 L 15.089844 190.207031 L 13.023438 190.207031 L 13.007812 190.214844 L 13.007812 191.839844 C 13.199219 191.714844 13.46875 191.546875 13.722656 191.539062 C 14.621094 191.445312 15.308594 192.324219 15.351562 193.144531 C 15.476562 194.183594 14.5 195.214844 13.453125 195.054688 C 12.929688 195.039062 12.421875 194.730469 12.121094 194.300781 C 12.207031 194.183594 12.277344 193.976562 12.382812 193.90625 C 12.753906 194.636719 13.960938 194.929688 14.445312 194.160156 C 14.753906 193.578125 14.746094 192.839844 14.390625 192.285156 C 13.976562 191.753906 13.160156 192.078125 12.96875 192.644531 L 12.453125 192.644531 L 12.453125 189.714844 Z M 15.089844 189.714844 Z M 15.089844 189.714844 "/>
<path style=" stroke:none;fill-rule:nonzero;fill:rgb(0%,0%,0%);fill-opacity:1;" d="M 5.160156 169.589844 L 5.160156 170.035156 L 3.078125 170.035156 L 3.078125 169.589844 Z M 5.160156 169.589844 Z M 5.160156 169.589844 "/>
<path style=" stroke:none;fill-rule:nonzero;fill:rgb(0%,0%,0%);fill-opacity:1;" d="M 7.992188 166.210938 L 7.992188 171.105469 L 8 171.121094 L 8.976562 171.121094 L 8.976562 171.558594 L 6.398438 171.558594 L 6.398438 171.121094 L 7.375 171.121094 L 7.390625 171.105469 L 7.390625 166.996094 C 7.054688 167.105469 6.707031 167.175781 6.359375 167.167969 L 6.359375 166.726562 C 6.882812 166.734375 7.453125 166.589844 7.851562 166.210938 Z M 7.992188 166.210938 Z M 7.992188 166.210938 "/>
<path style=" stroke:none;fill-rule:nonzero;fill:rgb(0%,0%,0%);fill-opacity:1;" d="M 11.023438 170.925781 L 11.023438 171.558594 L 10.382812 171.558594 L 10.382812 170.925781 Z M 11.023438 170.925781 Z M 11.023438 170.925781 "/>
<path style=" stroke:none;fill-rule:nonzero;fill:rgb(0%,0%,0%);fill-opacity:1;" d="M 13.914062 166.210938 C 14.667969 166.265625 15.167969 166.957031 15.300781 167.652344 C 15.375 167.972656 15.390625 168.273438 15.421875 168.589844 L 15.421875 169.398438 C 15.382812 170.226562 15.183594 171.3125 14.285156 171.644531 C 13.507812 171.957031 12.597656 171.472656 12.367188 170.679688 C 12.191406 170.257812 12.175781 169.828125 12.136719 169.398438 L 12.136719 168.589844 C 12.175781 167.765625 12.351562 166.667969 13.238281 166.304688 L 13.277344 166.289062 L 13.308594 166.28125 L 13.351562 166.265625 L 13.46875 166.234375 L 13.539062 166.21875 L 13.628906 166.21875 L 13.644531 166.210938 Z M 13.914062 166.210938 Z M 13.667969 166.695312 C 13 166.773438 12.800781 167.574219 12.753906 168.113281 L 12.753906 168.328125 L 12.738281 168.34375 L 12.738281 169.449219 C 12.785156 170.019531 12.824219 170.757812 13.351562 171.136719 C 13.835938 171.472656 14.476562 171.097656 14.613281 170.582031 C 14.753906 170.203125 14.785156 169.828125 14.816406 169.449219 L 14.816406 168.34375 C 14.769531 167.765625 14.691406 166.957031 14.023438 166.726562 L 13.96875 166.710938 L 13.953125 166.695312 L 13.882812 166.695312 L 13.867188 166.675781 L 13.683594 166.675781 Z M 13.667969 166.695312 Z M 13.667969 166.695312 "/>
<path style=" stroke:none;fill-rule:nonzero;fill:rgb(0%,0%,0%);fill-opacity:1;" d="M 5.160156 146.253906 L 5.160156 146.695312 L 3.078125 146.695312 L 3.078125 146.253906 Z M 5.160156 146.253906 Z M 5.160156 146.253906 "/>
<path style=" stroke:none;fill-rule:nonzero;fill:rgb(0%,0%,0%);fill-opacity:1;" d="M 7.746094 142.871094 C 8.5 142.925781 9 143.617188 9.136719 144.316406 C 9.207031 144.632812 9.222656 144.933594 9.253906 145.253906 L 9.253906 146.0625 C 9.214844 146.886719 9.015625 147.972656 8.121094 148.308594 C 7.339844 148.617188 6.429688 148.132812 6.199219 147.339844 C 6.023438 146.917969 6.007812 146.492188 5.96875 146.0625 L 5.96875 145.253906 C 6.007812 144.425781 6.183594 143.332031 7.070312 142.964844 L 7.113281 142.949219 L 7.144531 142.941406 L 7.183594 142.925781 L 7.300781 142.894531 L 7.375 142.878906 L 7.460938 142.878906 L 7.476562 142.871094 Z M 7.746094 142.871094 Z M 7.5 143.355469 C 6.832031 143.433594 6.636719 144.234375 6.585938 144.777344 L 6.585938 144.988281 L 6.570312 145.007812 L 6.570312 146.109375 C 6.621094 146.679688 6.660156 147.417969 7.183594 147.800781 C 7.667969 148.132812 8.308594 147.761719 8.445312 147.246094 C 8.585938 146.863281 8.621094 146.492188 8.652344 146.109375 L 8.652344 145.007812 C 8.605469 144.425781 8.523438 143.617188 7.859375 143.386719 L 7.800781 143.371094 L 7.785156 143.355469 L 7.714844 143.355469 L 7.699219 143.339844 L 7.515625 143.339844 Z M 7.5 143.355469 Z M 7.5 143.355469 "/>
<path style=" stroke:none;fill-rule:nonzero;fill:rgb(0%,0%,0%);fill-opacity:1;" d="M 11.023438 147.585938 L 11.023438 148.21875 L 10.382812 148.21875 L 10.382812 147.585938 Z M 11.023438 147.585938 Z M 11.023438 147.585938 "/>
<path style=" stroke:none;fill-rule:nonzero;fill:rgb(0%,0%,0%);fill-opacity:1;" d="M 15.089844 143.039062 L 15.089844 143.53125 L 13.023438 143.53125 L 13.007812 143.539062 L 13.007812 145.164062 C 13.199219 145.039062 13.46875 144.871094 13.722656 144.863281 C 14.621094 144.769531 15.308594 145.648438 15.351562 146.464844 C 15.476562 147.507812 14.5 148.539062 13.453125 148.378906 C 12.929688 148.363281 12.421875 148.054688 12.121094 147.625 C 12.207031 147.507812 12.277344 147.300781 12.382812 147.226562 C 12.753906 147.957031 13.960938 148.253906 14.445312 147.480469 C 14.753906 146.902344 14.746094 146.164062 14.390625 145.609375 C 13.976562 145.078125 13.160156 145.402344 12.96875 145.964844 L 12.453125 145.964844 L 12.453125 143.039062 Z M 15.089844 143.039062 Z M 15.089844 143.039062 "/>
<path style=" stroke:none;fill-rule:nonzero;fill:rgb(0%,0%,0%);fill-opacity:1;" d="M 7.746094 119.53125 C 8.5 119.589844 9 120.277344 9.136719 120.976562 C 9.207031 121.292969 9.222656 121.597656 9.253906 121.914062 L 9.253906 122.722656 C 9.214844 123.550781 9.015625 124.636719 8.121094 124.96875 C 7.339844 125.277344 6.429688 124.796875 6.199219 124 C 6.023438 123.582031 6.007812 123.152344 5.96875 122.722656 L 5.96875 121.914062 C 6.007812 121.089844 6.183594 119.992188 7.070312 119.628906 L 7.113281 119.613281 L 7.144531 119.605469 L 7.183594 119.589844 L 7.300781 119.554688 L 7.375 119.539062 L 7.460938 119.539062 L 7.476562 119.53125 Z M 7.746094 119.53125 Z M 7.5 120.015625 C 6.832031 120.097656 6.636719 120.898438 6.585938 121.4375 L 6.585938 121.652344 L 6.570312 121.667969 L 6.570312 122.769531 C 6.621094 123.34375 6.660156 124.082031 7.183594 124.460938 C 7.667969 124.796875 8.308594 124.421875 8.445312 123.90625 C 8.585938 123.523438 8.621094 123.152344 8.652344 122.769531 L 8.652344 121.667969 C 8.605469 121.089844 8.523438 120.277344 7.859375 120.046875 L 7.800781 120.03125 L 7.785156 120.015625 L 7.714844 120.015625 L 7.699219 120 L 7.515625 120 Z M 7.5 120.015625 Z M 7.5 120.015625 "/>
<path style=" stroke:none;fill-rule:nonzero;fill:rgb(0%,0%,0%);fill-opacity:1;" d="M 11.023438 124.246094 L 11.023438 124.882812 L 10.382812 124.882812 L 10.382812 124.246094 Z M 11.023438 124.246094 Z M 11.023438 124.246094 "/>
<path style=" stroke:none;fill-rule:nonzero;fill:rgb(0%,0%,0%);fill-opacity:1;" d="M 13.914062 119.53125 C 14.667969 119.589844 15.167969 120.277344 15.300781 120.976562 C 15.375 121.292969 15.390625 121.597656 15.421875 121.914062 L 15.421875 122.722656 C 15.382812 123.550781 15.183594 124.636719 14.285156 124.96875 C 13.507812 125.277344 12.597656 124.796875 12.367188 124 C 12.191406 123.582031 12.175781 123.152344 12.136719 122.722656 L 12.136719 121.914062 C 12.175781 121.089844 12.351562 119.992188 13.238281 119.628906 L 13.277344 119.613281 L 13.308594 119.605469 L 13.351562 119.589844 L 13.46875 119.554688 L 13.539062 119.539062 L 13.628906 119.539062 L 13.644531 119.53125 Z M 13.914062 119.53125 Z M 13.667969 120.015625 C 13 120.097656 12.800781 120.898438 12.753906 121.4375 L 12.753906 121.652344 L 12.738281 121.667969 L 12.738281 122.769531 C 12.785156 123.34375 12.824219 124.082031 13.351562 124.460938 C 13.835938 124.796875 14.476562 124.421875 14.613281 123.90625 C 14.753906 123.523438 14.785156 123.152344 14.816406 122.769531 L 14.816406 121.667969 C 14.769531 121.089844 14.691406 120.277344 14.023438 120.046875 L 13.96875 120.03125 L 13.953125 120.015625 L 13.882812 120.015625 L 13.867188 120 L 13.683594 120 Z M 13.667969 120.015625 Z M 13.667969 120.015625 "/>
<path style=" stroke:none;fill-rule:nonzero;fill:rgb(0%,0%,0%);fill-opacity:1;" d="M 7.746094 96.195312 C 8.5 96.25 9 96.941406 9.136719 97.640625 C 9.207031 97.957031 9.222656 98.257812 9.253906 98.574219 L 9.253906 99.386719 C 9.214844 100.210938 9.015625 101.296875 8.121094 101.632812 C 7.339844 101.941406 6.429688 101.457031 6.199219 100.664062 C 6.023438 100.242188 6.007812 99.8125 5.96875 99.386719 L 5.96875 98.574219 C 6.007812 97.75 6.183594 96.65625 7.070312 96.289062 L 7.113281 96.273438 L 7.144531 96.265625 L 7.183594 96.25 L 7.300781 96.21875 L 7.375 96.203125 L 7.460938 96.203125 L 7.476562 96.195312 Z M 7.746094 96.195312 Z M 7.5 96.679688 C 6.832031 96.757812 6.636719 97.558594 6.585938 98.097656 L 6.585938 98.3125 L 6.570312 98.328125 L 6.570312 99.433594 C 6.621094 100.003906 6.660156 100.742188 7.183594 101.125 C 7.667969 101.457031 8.308594 101.082031 8.445312 100.566406 C 8.585938 100.1875 8.621094 99.8125 8.652344 99.433594 L 8.652344 98.328125 C 8.605469 97.75 8.523438 96.941406 7.859375 96.710938 L 7.800781 96.695312 L 7.785156 96.679688 L 7.714844 96.679688 L 7.699219 96.664062 L 7.515625 96.664062 Z M 7.5 96.679688 Z M 7.5 96.679688 "/>
<path style=" stroke:none;fill-rule:nonzero;fill:rgb(0%,0%,0%);fill-opacity:1;" d="M 11.023438 100.910156 L 11.023438 101.542969 L 10.382812 101.542969 L 10.382812 100.910156 Z M 11.023438 100.910156 Z M 11.023438 100.910156 "/>
<path style=" stroke:none;fill-rule:nonzero;fill:rgb(0%,0%,0%);fill-opacity:1;" d="M 15.089844 96.359375 L 15.089844 96.851562 L 13.023438 96.851562 L 13.007812 96.859375 L 13.007812 98.488281 C 13.199219 98.359375 13.46875 98.195312 13.722656 98.1875 C 14.621094 98.089844 15.308594 98.972656 15.351562 99.789062 C 15.476562 100.828125 14.5 101.863281 13.453125 101.703125 C 12.929688 101.6875 12.421875 101.378906 12.121094 100.949219 C 12.207031 100.828125 12.277344 100.625 12.382812 100.550781 C 12.753906 101.28125 13.960938 101.574219 14.445312 100.804688 C 14.753906 100.226562 14.746094 99.488281 14.390625 98.933594 C 13.976562 98.402344 13.160156 98.726562 12.96875 99.289062 L 12.453125 99.289062 L 12.453125 96.359375 Z M 15.089844 96.359375 Z M 15.089844 96.359375 "/>
<path style=" stroke:none;fill-rule:nonzero;fill:rgb(0%,0%,0%);fill-opacity:1;" d="M 7.992188 72.855469 L 7.992188 77.753906 L 8 77.769531 L 8.976562 77.769531 L 8.976562 78.207031 L 6.398438 78.207031 L 6.398438 77.769531 L 7.375 77.769531 L 7.390625 77.753906 L 7.390625 73.640625 C 7.054688 73.753906 6.707031 73.824219 6.359375 73.816406 L 6.359375 73.371094 C 6.882812 73.378906 7.453125 73.238281 7.851562 72.855469 Z M 7.992188 72.855469 Z M 7.992188 72.855469 "/>
<path style=" stroke:none;fill-rule:nonzero;fill:rgb(0%,0%,0%);fill-opacity:1;" d="M 11.023438 77.570312 L 11.023438 78.207031 L 10.382812 78.207031 L 10.382812 77.570312 Z M 11.023438 77.570312 Z M 11.023438 77.570312 "/>
<path style=" stroke:none;fill-rule:nonzero;fill:rgb(0%,0%,0%);fill-opacity:1;" d="M 13.914062 72.855469 C 14.667969 72.910156 15.167969 73.601562 15.300781 74.300781 C 15.375 74.617188 15.390625 74.917969 15.421875 75.238281 L 15.421875 76.046875 C 15.382812 76.871094 15.183594 77.960938 14.285156 78.292969 C 13.507812 78.601562 12.597656 78.117188 12.367188 77.324219 C 12.191406 76.902344 12.175781 76.476562 12.136719 76.046875 L 12.136719 75.238281 C 12.175781 74.410156 12.351562 73.316406 13.238281 72.953125 L 13.277344 72.9375 L 13.308594 72.925781 L 13.351562 72.910156 L 13.46875 72.878906 L 13.539062 72.863281 L 13.628906 72.863281 L 13.644531 72.855469 Z M 13.914062 72.855469 Z M 13.667969 73.339844 C 13 73.417969 12.800781 74.222656 12.753906 74.761719 L 12.753906 74.976562 L 12.738281 74.992188 L 12.738281 76.09375 C 12.785156 76.664062 12.824219 77.402344 13.351562 77.785156 C 13.835938 78.117188 14.476562 77.746094 14.613281 77.230469 C 14.753906 76.847656 14.785156 76.476562 14.816406 76.09375 L 14.816406 74.992188 C 14.769531 74.410156 14.691406 73.601562 14.023438 73.371094 L 13.96875 73.355469 L 13.953125 73.339844 L 13.882812 73.339844 L 13.867188 73.324219 L 13.683594 73.324219 Z M 13.667969 73.339844 Z M 13.667969 73.339844 "/>
<path style=" stroke:none;fill-rule:nonzero;fill:rgb(0%,0%,0%);fill-opacity:1;" d="M 7.992188 49.519531 L 7.992188 54.414062 L 8 54.429688 L 8.976562 54.429688 L 8.976562 54.867188 L 6.398438 54.867188 L 6.398438 54.429688 L 7.375 54.429688 L 7.390625 54.414062 L 7.390625 50.304688 C 7.054688 50.414062 6.707031 50.484375 6.359375 50.476562 L 6.359375 50.035156 C 6.882812 50.042969 7.453125 49.898438 7.851562 49.519531 Z M 7.992188 49.519531 Z M 7.992188 49.519531 "/>
<path style=" stroke:none;fill-rule:nonzero;fill:rgb(0%,0%,0%);fill-opacity:1;" d="M 11.023438 54.234375 L 11.023438 54.867188 L 10.382812 54.867188 L 10.382812 54.234375 Z M 11.023438 54.234375 Z M 11.023438 54.234375 "/>
<path style=" stroke:none;fill-rule:nonzero;fill:rgb(0%,0%,0%);fill-opacity:1;" d="M 15.089844 49.683594 L 15.089844 50.175781 L 13.023438 50.175781 L 13.007812 50.183594 L 13.007812 51.8125 C 13.199219 51.683594 13.46875 51.519531 13.722656 51.511719 C 14.621094 51.414062 15.308594 52.296875 15.351562 53.113281 C 15.476562 54.152344 14.5 55.183594 13.453125 55.027344 C 12.929688 55.011719 12.421875 54.699219 12.121094 54.273438 C 12.207031 54.152344 12.277344 53.945312 12.382812 53.875 C 12.753906 54.605469 13.960938 54.898438 14.445312 54.128906 C 14.753906 53.550781 14.746094 52.8125 14.390625 52.257812 C 13.976562 51.722656 13.160156 52.050781 12.96875 52.613281 L 12.453125 52.613281 L 12.453125 49.683594 Z M 15.089844 49.683594 Z M 15.089844 49.683594 "/>
<path style=" stroke:none;fill-rule:nonzero;fill:rgb(0%,0%,0%);fill-opacity:1;" d="M 7.660156 26.179688 C 8.578125 26.203125 9.308594 27.148438 9.167969 28.035156 C 9.070312 28.925781 8.238281 29.433594 7.644531 29.988281 L 7.390625 30.25 L 7.359375 30.265625 L 7.039062 30.578125 L 7.015625 30.59375 L 6.699219 30.910156 L 6.667969 30.925781 L 6.59375 30.996094 L 6.613281 31.003906 L 9.183594 31.003906 L 9.183594 31.527344 L 6.039062 31.527344 L 6.039062 31.054688 L 7.316406 29.773438 C 7.929688 29.242188 8.644531 28.554688 8.53125 27.679688 C 8.46875 27.171875 8.039062 26.703125 7.515625 26.664062 C 6.984375 26.585938 6.515625 27.003906 6.398438 27.511719 L 6.382812 27.535156 L 6.367188 27.59375 L 6.339844 27.679688 L 6.292969 27.855469 L 6.285156 27.894531 C 6.175781 27.757812 6.054688 27.617188 5.96875 27.464844 C 6.128906 26.816406 6.652344 26.203125 7.339844 26.179688 Z M 7.660156 26.179688 Z M 7.660156 26.179688 "/>
<path style=" stroke:none;fill-rule:nonzero;fill:rgb(0%,0%,0%);fill-opacity:1;" d="M 11.023438 30.894531 L 11.023438 31.527344 L 10.382812 31.527344 L 10.382812 30.894531 Z M 11.023438 30.894531 Z M 11.023438 30.894531 "/>
<path style=" stroke:none;fill-rule:nonzero;fill:rgb(0%,0%,0%);fill-opacity:1;" d="M 13.914062 26.179688 C 14.667969 26.234375 15.167969 26.925781 15.300781 27.625 C 15.375 27.941406 15.390625 28.242188 15.421875 28.5625 L 15.421875 29.371094 C 15.382812 30.195312 15.183594 31.28125 14.285156 31.617188 C 13.507812 31.925781 12.597656 31.441406 12.367188 30.648438 C 12.191406 30.226562 12.175781 29.800781 12.136719 29.371094 L 12.136719 28.5625 C 12.175781 27.734375 12.351562 26.640625 13.238281 26.273438 L 13.277344 26.257812 L 13.308594 26.25 L 13.351562 26.234375 L 13.46875 26.203125 L 13.539062 26.1875 L 13.628906 26.1875 L 13.644531 26.179688 Z M 13.914062 26.179688 Z M 13.667969 26.664062 C 13 26.742188 12.800781 27.542969 12.753906 28.085938 L 12.753906 28.300781 L 12.738281 28.316406 L 12.738281 29.417969 C 12.785156 29.988281 12.824219 30.726562 13.351562 31.109375 C 13.835938 31.441406 14.476562 31.070312 14.613281 30.554688 C 14.753906 30.171875 14.785156 29.800781 14.816406 29.417969 L 14.816406 28.316406 C 14.769531 27.734375 14.691406 26.925781 14.023438 26.695312 L 13.96875 26.679688 L 13.953125 26.664062 L 13.882812 26.664062 L 13.867188 26.648438 L 13.683594 26.648438 Z M 13.667969 26.664062 Z M 13.667969 26.664062 "/>
<path style=" stroke:none;fill-rule:nonzero;fill:rgb(0%,0%,0%);fill-opacity:1;" d="M 7.660156 2.839844 C 8.578125 2.863281 9.308594 3.808594 9.167969 4.699219 C 9.070312 5.585938 8.238281 6.09375 7.644531 6.652344 L 7.390625 6.914062 L 7.359375 6.929688 L 7.039062 7.238281 L 7.015625 7.253906 L 6.699219 7.570312 L 6.667969 7.585938 L 6.59375 7.660156 L 6.613281 7.667969 L 9.183594 7.667969 L 9.183594 8.191406 L 6.039062 8.191406 L 6.039062 7.714844 L 7.316406 6.4375 C 7.929688 5.90625 8.644531 5.214844 8.53125 4.339844 C 8.46875 3.832031 8.039062 3.363281 7.515625 3.324219 C 6.984375 3.246094 6.515625 3.667969 6.398438 4.175781 L 6.382812 4.199219 L 6.367188 4.253906 L 6.339844 4.339844 L 6.292969 4.515625 L 6.285156 4.554688 C 6.175781 4.421875 6.054688 4.277344 5.96875 4.128906 C 6.128906 3.476562 6.652344 2.863281 7.339844 2.839844 Z M 7.660156 2.839844 Z M 7.660156 2.839844 "/>
<path style=" stroke:none;fill-rule:nonzero;fill:rgb(0%,0%,0%);fill-opacity:1;" d="M 11.023438 7.554688 L 11.023438 8.191406 L 10.382812 8.191406 L 10.382812 7.554688 Z M 11.023438 7.554688 Z M 11.023438 7.554688 "/>
<path style=" stroke:none;fill-rule:nonzero;fill:rgb(0%,0%,0%);fill-opacity:1;" d="M 15.089844 3.007812 L 15.089844 3.5 L 13.023438 3.5 L 13.007812 3.507812 L 13.007812 5.136719 C 13.199219 5.007812 13.46875 4.839844 13.722656 4.832031 C 14.621094 4.738281 15.308594 5.621094 15.351562 6.4375 C 15.476562 7.476562 14.5 8.507812 13.453125 8.351562 C 12.929688 8.332031 12.421875 8.023438 12.121094 7.59375 C 12.207031 7.476562 12.277344 7.269531 12.382812 7.199219 C 12.753906 7.929688 13.960938 8.222656 14.445312 7.453125 C 14.753906 6.875 14.746094 6.136719 14.390625 5.578125 C 13.976562 5.046875 13.160156 5.375 12.96875 5.9375 L 12.453125 5.9375 L 12.453125 3.007812 Z M 15.089844 3.007812 Z M 15.089844 3.007812 "/>
<path style="fill:none;stroke-width:0.02;stroke-linecap:butt;stroke-linejoin:miter;stroke:rgb(0%,0%,0%);stroke-opacity:1;stroke-miterlimit:10;" d="M 9.789997 1.251747 L 9.68499 1.251747 " transform="matrix(28.346457,0,0,-28.346457,1,227.771654)"/>
<path style="fill:none;stroke-width:0.02;stroke-linecap:butt;stroke-linejoin:miter;stroke:rgb(0%,0%,0%);stroke-opacity:1;stroke-miterlimit:10;" d="M 9.789997 2.074987 L 9.68499 2.074987 " transform="matrix(28.346457,0,0,-28.346457,1,227.771654)"/>
<path style="fill:none;stroke-width:0.02;stroke-linecap:butt;stroke-linejoin:miter;stroke:rgb(0%,0%,0%);stroke-opacity:1;stroke-miterlimit:10;" d="M 9.789997 2.898365 L 9.68499 2.898365 " transform="matrix(28.346457,0,0,-28.346457,1,227.771654)"/>
<path style="fill:none;stroke-width:0.02;stroke-linecap:butt;stroke-linejoin:miter;stroke:rgb(0%,0%,0%);stroke-opacity:1;stroke-miterlimit:10;" d="M 9.789997 3.721743 L 9.68499 3.721743 " transform="matrix(28.346457,0,0,-28.346457,1,227.771654)"/>
<path style="fill:none;stroke-width:0.02;stroke-linecap:butt;stroke-linejoin:miter;stroke:rgb(0%,0%,0%);stroke-opacity:1;stroke-miterlimit:10;" d="M 9.789997 4.544983 L 9.68499 4.544983 " transform="matrix(28.346457,0,0,-28.346457,1,227.771654)"/>
<path style="fill:none;stroke-width:0.02;stroke-linecap:butt;stroke-linejoin:miter;stroke:rgb(0%,0%,0%);stroke-opacity:1;stroke-miterlimit:10;" d="M 9.789997 5.36836 L 9.68499 5.36836 " transform="matrix(28.346457,0,0,-28.346457,1,227.771654)"/>
<path style="fill:none;stroke-width:0.02;stroke-linecap:butt;stroke-linejoin:miter;stroke:rgb(0%,0%,0%);stroke-opacity:1;stroke-miterlimit:10;" d="M 9.789997 6.1916 L 9.68499 6.1916 " transform="matrix(28.346457,0,0,-28.346457,1,227.771654)"/>
<path style="fill:none;stroke-width:0.02;stroke-linecap:butt;stroke-linejoin:miter;stroke:rgb(0%,0%,0%);stroke-opacity:1;stroke-miterlimit:10;" d="M 9.789997 7.014978 L 9.68499 7.014978 " transform="matrix(28.346457,0,0,-28.346457,1,227.771654)"/>
<path style="fill:none;stroke-width:0.02;stroke-linecap:round;stroke-linejoin:miter;stroke:rgb(0%,0%,0%);stroke-opacity:1;stroke-miterlimit:10;" d="M 9.789997 0.428369 L 9.789997 7.838356 " transform="matrix(28.346457,0,0,-28.346457,1,227.771654)"/>
<path style="fill:none;stroke-width:0.02;stroke-linecap:butt;stroke-linejoin:miter;stroke:rgb(0%,0%,0%);stroke-opacity:1;stroke-miterlimit:10;" d="M 1.706287 0.428369 L 1.706287 0.533376 " transform="matrix(28.346457,0,0,-28.346457,1,227.771654)"/>
<path style="fill:none;stroke-width:0.02;stroke-linecap:butt;stroke-linejoin:miter;stroke:rgb(0%,0%,0%);stroke-opacity:1;stroke-miterlimit:10;" d="M 2.716664 0.428369 L 2.716664 0.533376 " transform="matrix(28.346457,0,0,-28.346457,1,227.771654)"/>
<path style="fill:none;stroke-width:0.02;stroke-linecap:butt;stroke-linejoin:miter;stroke:rgb(0%,0%,0%);stroke-opacity:1;stroke-miterlimit:10;" d="M 3.72718 0.428369 L 3.72718 0.533376 " transform="matrix(28.346457,0,0,-28.346457,1,227.771654)"/>
<path style="fill:none;stroke-width:0.02;stroke-linecap:butt;stroke-linejoin:miter;stroke:rgb(0%,0%,0%);stroke-opacity:1;stroke-miterlimit:10;" d="M 4.737695 0.428369 L 4.737695 0.533376 " transform="matrix(28.346457,0,0,-28.346457,1,227.771654)"/>
<path style="fill:none;stroke-width:0.02;stroke-linecap:butt;stroke-linejoin:miter;stroke:rgb(0%,0%,0%);stroke-opacity:1;stroke-miterlimit:10;" d="M 5.748073 0.428369 L 5.748073 0.533376 " transform="matrix(28.346457,0,0,-28.346457,1,227.771654)"/>
<path style="fill:none;stroke-width:0.02;stroke-linecap:butt;stroke-linejoin:miter;stroke:rgb(0%,0%,0%);stroke-opacity:1;stroke-miterlimit:10;" d="M 6.758588 0.428369 L 6.758588 0.533376 " transform="matrix(28.346457,0,0,-28.346457,1,227.771654)"/>
<path style="fill:none;stroke-width:0.02;stroke-linecap:butt;stroke-linejoin:miter;stroke:rgb(0%,0%,0%);stroke-opacity:1;stroke-miterlimit:10;" d="M 7.769104 0.428369 L 7.769104 0.533376 " transform="matrix(28.346457,0,0,-28.346457,1,227.771654)"/>
<path style="fill:none;stroke-width:0.02;stroke-linecap:butt;stroke-linejoin:miter;stroke:rgb(0%,0%,0%);stroke-opacity:1;stroke-miterlimit:10;" d="M 8.779481 0.428369 L 8.779481 0.533376 " transform="matrix(28.346457,0,0,-28.346457,1,227.771654)"/>
<path style="fill:none;stroke-width:0.02;stroke-linecap:round;stroke-linejoin:miter;stroke:rgb(0%,0%,0%);stroke-opacity:1;stroke-miterlimit:10;" d="M 0.695771 0.428369 L 9.789997 0.428369 " transform="matrix(28.346457,0,0,-28.346457,1,227.771654)"/>
<path style=" stroke:none;fill-rule:nonzero;fill:rgb(0%,0%,0%);fill-opacity:1;" d="M 21.105469 220.445312 L 21.105469 225.34375 L 21.113281 225.359375 L 22.089844 225.359375 L 22.089844 225.796875 L 19.507812 225.796875 L 19.507812 225.359375 L 20.484375 225.359375 L 20.5 225.34375 L 20.5 221.230469 C 20.167969 221.34375 19.820312 221.414062 19.46875 221.40625 L 19.46875 220.960938 C 19.992188 220.96875 20.566406 220.828125 20.960938 220.445312 Z M 21.105469 220.445312 Z M 21.105469 220.445312 "/>
<path style=" stroke:none;fill-rule:nonzero;fill:rgb(0%,0%,0%);fill-opacity:1;" d="M 49.414062 220.445312 C 50.335938 220.46875 51.066406 221.414062 50.921875 222.304688 C 50.828125 223.191406 49.992188 223.699219 49.398438 224.253906 L 49.144531 224.515625 L 49.113281 224.535156 L 48.796875 224.84375 L 48.769531 224.859375 L 48.453125 225.175781 L 48.421875 225.191406 L 48.351562 225.261719 L 48.367188 225.273438 L 50.9375 225.273438 L 50.9375 225.796875 L 47.796875 225.796875 L 47.796875 225.320312 L 49.074219 224.042969 C 49.683594 223.507812 50.398438 222.820312 50.289062 221.945312 C 50.222656 221.4375 49.796875 220.96875 49.269531 220.929688 C 48.738281 220.851562 48.269531 221.269531 48.152344 221.777344 L 48.136719 221.804688 L 48.121094 221.859375 L 48.097656 221.945312 L 48.050781 222.121094 L 48.042969 222.160156 C 47.929688 222.023438 47.8125 221.882812 47.722656 221.730469 C 47.882812 221.082031 48.40625 220.46875 49.097656 220.445312 Z M 49.414062 220.445312 Z M 49.414062 220.445312 "/>
<path style=" stroke:none;fill-rule:nonzero;fill:rgb(0%,0%,0%);fill-opacity:1;" d="M 78.160156 220.445312 C 78.859375 220.476562 79.589844 221.121094 79.421875 221.859375 C 79.34375 222.359375 78.992188 222.769531 78.558594 222.992188 C 79.265625 223.214844 79.8125 223.960938 79.621094 224.699219 C 79.429688 225.660156 78.328125 226.191406 77.4375 225.898438 C 77.007812 225.773438 76.574219 225.5 76.367188 225.105469 C 76.414062 224.984375 76.398438 224.78125 76.453125 224.699219 C 76.875 225.320312 77.765625 225.738281 78.460938 225.390625 C 79.222656 224.90625 79.105469 223.492188 78.183594 223.253906 L 78.113281 223.253906 L 78.097656 223.238281 L 77.359375 223.238281 L 77.359375 222.761719 C 77.8125 222.753906 78.375 222.699219 78.628906 222.230469 C 78.898438 221.828125 78.875 221.160156 78.359375 220.960938 C 77.746094 220.722656 76.992188 221.113281 76.761719 221.730469 C 76.667969 221.597656 76.574219 221.460938 76.476562 221.320312 C 76.804688 220.730469 77.492188 220.382812 78.160156 220.445312 Z M 78.160156 220.445312 Z M 78.160156 220.445312 "/>
<path style=" stroke:none;fill-rule:nonzero;fill:rgb(0%,0%,0%);fill-opacity:1;" d="M 107.605469 220.613281 L 107.605469 223.953125 L 107.621094 223.96875 L 108.40625 223.96875 L 108.40625 224.445312 L 107.621094 224.445312 L 107.605469 224.453125 L 107.605469 225.796875 L 107.003906 225.796875 L 107.003906 224.453125 L 106.984375 224.445312 L 104.890625 224.445312 L 104.890625 223.953125 C 105.558594 222.84375 106.222656 221.722656 106.890625 220.613281 Z M 107.605469 220.613281 Z M 107.019531 220.914062 C 106.859375 221.738281 106.351562 222.445312 105.96875 223.167969 C 105.820312 223.429688 105.621094 223.714844 105.511719 223.96875 L 107.035156 223.96875 L 107.042969 223.953125 L 107.042969 220.914062 L 107.035156 220.898438 Z M 107.019531 220.914062 Z M 107.019531 220.914062 "/>
<path style=" stroke:none;fill-rule:nonzero;fill:rgb(0%,0%,0%);fill-opacity:1;" d="M 136.605469 220.613281 L 136.605469 221.105469 L 134.542969 221.105469 L 134.527344 221.113281 L 134.527344 222.738281 C 134.714844 222.613281 134.988281 222.445312 135.242188 222.4375 C 136.136719 222.34375 136.828125 223.222656 136.867188 224.042969 C 136.996094 225.082031 136.019531 226.113281 134.96875 225.953125 C 134.445312 225.9375 133.9375 225.628906 133.636719 225.199219 C 133.722656 225.082031 133.796875 224.875 133.898438 224.804688 C 134.273438 225.535156 135.480469 225.828125 135.960938 225.058594 C 136.273438 224.476562 136.265625 223.738281 135.90625 223.183594 C 135.496094 222.652344 134.675781 222.976562 134.488281 223.542969 L 133.96875 223.542969 L 133.96875 220.613281 Z M 136.605469 220.613281 Z M 136.605469 220.613281 "/>
<path style=" stroke:none;fill-rule:nonzero;fill:rgb(0%,0%,0%);fill-opacity:1;" d="M 164.589844 220.445312 C 164.796875 220.476562 165.035156 220.5 165.234375 220.597656 L 165.234375 221.058594 C 164.683594 220.820312 163.972656 220.785156 163.542969 221.269531 C 163.160156 221.675781 162.988281 222.277344 162.972656 222.8125 C 163.429688 222.199219 164.472656 221.859375 165.035156 222.492188 C 165.597656 223.144531 165.691406 224.082031 165.4375 224.875 C 165.160156 225.507812 164.519531 226.089844 163.804688 225.953125 C 162.835938 225.875 162.398438 224.796875 162.351562 223.96875 C 162.167969 222.804688 162.445312 221.335938 163.558594 220.667969 L 163.574219 220.660156 L 163.742188 220.574219 L 163.789062 220.558594 L 163.8125 220.542969 L 163.945312 220.5 L 164.058594 220.46875 L 164.128906 220.453125 L 164.21875 220.453125 L 164.234375 220.445312 Z M 164.589844 220.445312 Z M 163.8125 222.652344 C 163.121094 222.769531 162.898438 223.605469 162.988281 224.167969 C 163.027344 224.699219 163.234375 225.40625 163.84375 225.515625 C 164.496094 225.605469 164.914062 224.90625 164.929688 224.34375 C 164.964844 223.769531 164.929688 223.121094 164.429688 222.746094 L 164.320312 222.691406 L 164.234375 222.667969 L 164.160156 222.652344 L 164.144531 222.636719 L 163.828125 222.636719 Z M 163.8125 222.652344 Z M 163.8125 222.652344 "/>
<path style=" stroke:none;fill-rule:nonzero;fill:rgb(0%,0%,0%);fill-opacity:1;" d="M 194.226562 220.613281 L 194.226562 221.113281 C 193.097656 222.429688 192.464844 224.207031 192.472656 225.882812 L 191.828125 225.882812 C 191.8125 224.191406 192.503906 222.40625 193.710938 221.160156 L 193.695312 221.144531 L 190.9375 221.144531 L 190.9375 220.613281 L 194.226562 220.613281 L 194.226562 221.113281 Z M 194.226562 220.613281 Z M 194.226562 220.613281 "/>
<path style=" stroke:none;fill-rule:nonzero;fill:rgb(0%,0%,0%);fill-opacity:1;" d="M 221.375 220.445312 C 222.21875 220.476562 223.011719 221.382812 222.679688 222.222656 C 222.535156 222.613281 222.136719 222.851562 221.8125 223.015625 C 222.621094 223.253906 223.113281 224.199219 222.75 224.976562 C 222.367188 225.984375 220.925781 226.304688 220.128906 225.574219 C 219.40625 225 219.382812 223.761719 220.1875 223.253906 C 220.304688 223.128906 220.527344 223.089844 220.628906 222.992188 C 219.941406 222.796875 219.472656 221.992188 219.796875 221.320312 C 220.058594 220.714844 220.734375 220.382812 221.375 220.445312 Z M 221.375 220.445312 Z M 221.074219 220.898438 C 220.488281 220.914062 220.074219 221.582031 220.273438 222.105469 C 220.503906 223.007812 222.019531 222.976562 222.195312 222.050781 C 222.351562 221.53125 221.941406 220.914062 221.375 220.898438 L 221.359375 220.890625 L 221.089844 220.890625 Z M 221.074219 220.898438 Z M 221.089844 223.253906 C 220.398438 223.304688 220.058594 224.128906 220.242188 224.714844 C 220.359375 225.550781 221.550781 225.796875 222.019531 225.128906 C 222.472656 224.515625 222.25 223.421875 221.433594 223.253906 L 221.359375 223.253906 L 221.34375 223.238281 L 221.097656 223.238281 Z M 221.089844 223.253906 Z M 221.089844 223.253906 "/>
<path style=" stroke:none;fill-rule:nonzero;fill:rgb(0%,0%,0%);fill-opacity:1;" d="M 250.035156 220.445312 C 250.988281 220.550781 251.402344 221.628906 251.464844 222.453125 C 251.574219 223.523438 251.449219 224.78125 250.574219 225.550781 C 250.027344 226.097656 249.058594 226.113281 248.472656 225.621094 C 248.542969 225.484375 248.621094 225.328125 248.710938 225.214844 C 249.226562 225.714844 250.128906 225.574219 250.464844 224.929688 C 250.703125 224.542969 250.84375 224.042969 250.835938 223.613281 C 250.367188 224.214844 249.335938 224.566406 248.773438 223.929688 C 248.203125 223.269531 248.097656 222.3125 248.382812 221.515625 C 248.679688 220.890625 249.304688 220.351562 250.035156 220.445312 Z M 250.035156 220.445312 Z M 249.773438 220.898438 C 249.203125 220.945312 248.910156 221.582031 248.867188 222.082031 C 248.84375 222.644531 248.867188 223.304688 249.367188 223.667969 C 249.925781 224.007812 250.636719 223.597656 250.765625 222.992188 C 250.917969 222.40625 250.820312 221.777344 250.519531 221.230469 C 250.351562 221 250.050781 220.835938 249.773438 220.898438 Z M 249.773438 220.898438 Z M 249.773438 220.898438 "/>
<path style=" stroke:none;fill-rule:nonzero;fill:rgb(0%,0%,0%);fill-opacity:1;" d="M 276.910156 220.445312 L 276.910156 225.34375 L 276.917969 225.359375 L 277.894531 225.359375 L 277.894531 225.796875 L 275.3125 225.796875 L 275.3125 225.359375 L 276.289062 225.359375 L 276.304688 225.34375 L 276.304688 221.230469 C 275.972656 221.34375 275.621094 221.414062 275.273438 221.40625 L 275.273438 220.960938 C 275.796875 220.96875 276.367188 220.828125 276.765625 220.445312 Z M 276.910156 220.445312 Z M 276.910156 220.445312 "/>
<path style=" stroke:none;fill-rule:nonzero;fill:rgb(0%,0%,0%);fill-opacity:1;" d="M 280.632812 220.445312 C 281.386719 220.5 281.886719 221.191406 282.019531 221.890625 C 282.089844 222.207031 282.105469 222.507812 282.140625 222.828125 L 282.140625 223.636719 C 282.097656 224.460938 281.902344 225.550781 281.003906 225.882812 C 280.226562 226.191406 279.3125 225.707031 279.082031 224.914062 C 278.910156 224.492188 278.894531 224.066406 278.851562 223.636719 L 278.851562 222.828125 C 278.894531 222 279.066406 220.90625 279.957031 220.542969 L 279.996094 220.523438 L 280.027344 220.515625 L 280.066406 220.5 L 280.1875 220.46875 L 280.257812 220.453125 L 280.34375 220.453125 L 280.359375 220.445312 Z M 280.632812 220.445312 Z M 280.386719 220.929688 C 279.71875 221.007812 279.519531 221.8125 279.472656 222.351562 L 279.472656 222.566406 L 279.457031 222.582031 L 279.457031 223.683594 C 279.503906 224.253906 279.542969 224.992188 280.066406 225.375 C 280.550781 225.707031 281.195312 225.335938 281.328125 224.820312 C 281.472656 224.4375 281.503906 224.066406 281.535156 223.683594 L 281.535156 222.582031 C 281.488281 222 281.410156 221.191406 280.742188 220.960938 L 280.6875 220.945312 L 280.671875 220.929688 L 280.597656 220.929688 L 280.582031 220.914062 L 280.402344 220.914062 Z M 280.386719 220.929688 Z M 280.386719 220.929688 "/>
<path style="fill:none;stroke-width:0.02;stroke-linecap:butt;stroke-linejoin:miter;stroke:rgb(0%,0%,0%);stroke-opacity:1;stroke-miterlimit:10;" d="M 1.706287 7.838356 L 1.706287 7.73335 " transform="matrix(28.346457,0,0,-28.346457,1,227.771654)"/>
<path style="fill:none;stroke-width:0.02;stroke-linecap:butt;stroke-linejoin:miter;stroke:rgb(0%,0%,0%);stroke-opacity:1;stroke-miterlimit:10;" d="M 2.716664 7.838356 L 2.716664 7.73335 " transform="matrix(28.346457,0,0,-28.346457,1,227.771654)"/>
<path style="fill:none;stroke-width:0.02;stroke-linecap:butt;stroke-linejoin:miter;stroke:rgb(0%,0%,0%);stroke-opacity:1;stroke-miterlimit:10;" d="M 3.72718 7.838356 L 3.72718 7.73335 " transform="matrix(28.346457,0,0,-28.346457,1,227.771654)"/>
<path style="fill:none;stroke-width:0.02;stroke-linecap:butt;stroke-linejoin:miter;stroke:rgb(0%,0%,0%);stroke-opacity:1;stroke-miterlimit:10;" d="M 4.737695 7.838356 L 4.737695 7.73335 " transform="matrix(28.346457,0,0,-28.346457,1,227.771654)"/>
<path style="fill:none;stroke-width:0.02;stroke-linecap:butt;stroke-linejoin:miter;stroke:rgb(0%,0%,0%);stroke-opacity:1;stroke-miterlimit:10;" d="M 5.748073 7.838356 L 5.748073 7.73335 " transform="matrix(28.346457,0,0,-28.346457,1,227.771654)"/>
<path style="fill:none;stroke-width:0.02;stroke-linecap:butt;stroke-linejoin:miter;stroke:rgb(0%,0%,0%);stroke-opacity:1;stroke-miterlimit:10;" d="M 6.758588 7.838356 L 6.758588 7.73335 " transform="matrix(28.346457,0,0,-28.346457,1,227.771654)"/>
<path style="fill:none;stroke-width:0.02;stroke-linecap:butt;stroke-linejoin:miter;stroke:rgb(0%,0%,0%);stroke-opacity:1;stroke-miterlimit:10;" d="M 7.769104 7.838356 L 7.769104 7.73335 " transform="matrix(28.346457,0,0,-28.346457,1,227.771654)"/>
<path style="fill:none;stroke-width:0.02;stroke-linecap:butt;stroke-linejoin:miter;stroke:rgb(0%,0%,0%);stroke-opacity:1;stroke-miterlimit:10;" d="M 8.779481 7.838356 L 8.779481 7.73335 " transform="matrix(28.346457,0,0,-28.346457,1,227.771654)"/>
<path style="fill:none;stroke-width:0.02;stroke-linecap:round;stroke-linejoin:miter;stroke:rgb(0%,0%,0%);stroke-opacity:1;stroke-miterlimit:10;" d="M 0.695771 7.838356 L 9.789997 7.838356 " transform="matrix(28.346457,0,0,-28.346457,1,227.771654)"/>
<path style="fill:none;stroke-width:0.02;stroke-linecap:butt;stroke-linejoin:miter;stroke:rgb(32.941176%,47.058824%,63.921569%);stroke-opacity:1;stroke-miterlimit:10;" d="M 0.695771 3.14462 L 1.706287 0.889736 L 2.716664 7.318836 L 3.72718 0.716379 L 4.737695 3.262718 L 5.748073 3.998039 L 6.758588 2.167178 L 7.769104 4.145076 L 8.779481 4.010579 L 9.789997 3.864783 " transform="matrix(28.346457,0,0,-28.346457,1,227.771654)"/>
<path style="fill:none;stroke-width:0.02;stroke-linecap:butt;stroke-linejoin:miter;stroke:rgb(90.196078%,56.862745%,25.882353%);stroke-opacity:1;stroke-miterlimit:10;" d="M 0.695771 6.372399 L 1.706287 4.809979 L 2.716664 2.677327 L 3.72718 5.398264 L 4.737695 2.024826 L 5.748073 2.204385 L 6.758588 3.710443 L 7.769104 3.146412 L 8.779481 7.035098 L 9.789997 1.572416 " transform="matrix(28.346457,0,0,-28.346457,1,227.771654)"/>
<path style="fill:none;stroke-width:0.02;stroke-linecap:butt;stroke-linejoin:miter;stroke:rgb(81.960784%,36.862745%,36.078431%);stroke-opacity:1;stroke-miterlimit:10;" d="M 0.695771 4.453757 L 1.706287 2.264605 L 2.716664 2.375124 L 3.72718 4.95674 L 4.737695 3.056839 L 5.748073 2.558954 L 6.758588 3.851829 L 7.769104 2.762766 L 8.779481 5.178191 L 9.789997 4.275438 " transform="matrix(28.346457,0,0,-28.346457,1,227.771654)"/>
</g>
</svg>
