<?xml version="1.0" encoding="UTF-8"?>
<svg xmlns="http://www.w3.org/2000/svg" xmlns:xlink="http://www.w3.org/1999/xlink" width="342.15748pt" height="257.11811pt" viewBox="0 0 342.15748 257.11811" version="1.1">
<g id="surface1">
<path style="fill:none;stroke-width:0.02;stroke-linecap:butt;stroke-linejoin:miter;stroke:rgb(0%,0%,0%);stroke-opacity:1;stroke-miterlimit:10;" d="M 0.602616 1.269344 L 0.707623 1.269344 " transform="matrix(28.346457,0,0,-28.346457,1,256.11811)"/>
<path style="fill:none;stroke-width:0.02;stroke-linecap:butt;stroke-linejoin:miter;stroke:rgb(0%,0%,0%);stroke-opacity:1;stroke-miterlimit:10;" d="M 0.602616 2.11036 L 0.707623 2.11036 " transform="matrix(28.346457,0,0,-28.346457,1,256.11811)"/>
<path style="fill:none;stroke-width:0.02;stroke-linecap:butt;stroke-linejoin:miter;stroke:rgb(0%,0%,0%);stroke-opacity:1;stroke-miterlimit:10;" d="M 0.602616 2.951377 L 0.707623 2.951377 " transform="matrix(28.346457,0,0,-28.346457,1,256.11811)"/>
<path style="fill:none;stroke-width:0.02;stroke-linecap:butt;stroke-linejoin:miter;stroke:rgb(0%,0%,0%);stroke-opacity:1;stroke-miterlimit:10;" d="M 0.602616 3.792394 L 0.707623 3.792394 " transform="matrix(28.346457,0,0,-28.346457,1,256.11811)"/>
<path style="fill:none;stroke-width:0.02;stroke-linecap:butt;stroke-linejoin:miter;stroke:rgb(0%,0%,0%);stroke-opacity:1;stroke-miterlimit:10;" d="M 0.602616 4.63341 L 0.707623 4.63341 " transform="matrix(28.346457,0,0,-28.346457,1,256.11811)"/>
<path style="fill:none;stroke-width:0.02;stroke-linecap:butt;stroke-linejoin:miter;stroke:rgb(0%,0%,0%);stroke-opacity:1;stroke-miterlimit:10;" d="M 0.602616 5.474289 L 0.707623 5.474289 " transform="matrix(28.346457,0,0,-28.346457,1,256.11811)"/>
<path style="fill:none;stroke-width:0.02;stroke-linecap:butt;stroke-linejoin:miter;stroke:rgb(0%,0%,0%);stroke-opacity:1;stroke-miterlimit:10;" d="M 0.602616 6.315306 L 0.707623 6.315306 " transform="matrix(28.346457,0,0,-28.346457,1,256.11811)"/>
<path style="fill:none;stroke-width:0.02;stroke-linecap:butt;stroke-linejoin:miter;stroke:rgb(0%,0%,0%);stroke-opacity:1;stroke-miterlimit:10;" d="M 0.602616 7.156323 L 0.707623 7.156323 " transform="matrix(28.346457,0,0,-28.346457,1,256.11811)"/>
<path style="fill:none;stroke-width:0.02;stroke-linecap:butt;stroke-linejoin:miter;stroke:rgb(0%,0%,0%);stroke-opacity:1;stroke-miterlimit:10;" d="M 0.602616 7.997339 L 0.707623 7.997339 " transform="matrix(28.346457,0,0,-28.346457,1,256.11811)"/>
<path style="fill:none;stroke-width:0.02;stroke-linecap:round;stroke-linejoin:miter;stroke:rgb(0%,0%,0%);stroke-opacity:1;stroke-miterlimit:10;" d="M 0.602616 0.428465 L 0.602616 8.838356 " transform="matrix(28.346457,0,0,-28.346457,1,256.11811)"/>
<path style=" stroke:none;fill-rule:nonzero;fill:rgb(0%,0%,0%);fill-opacity:1;" d="M 5.101562 241.230469 C 5.859375 241.289062 6.359375 241.976562 6.492188 242.675781 C 6.5625 242.996094 6.578125 243.296875 6.613281 243.613281 L 6.613281 244.421875 C 6.570312 245.25 6.375 246.335938 5.476562 246.667969 C 4.699219 246.980469 3.785156 246.496094 3.554688 245.699219 C 3.382812 245.28125 3.363281 244.851562 3.324219 244.421875 L 3.324219 243.613281 C 3.363281 242.789062 3.539062 241.691406 4.429688 241.328125 L 4.46875 241.3125 L 4.5 241.304688 L 4.539062 241.289062 L 4.660156 241.257812 L 4.730469 241.238281 L 4.816406 241.238281 L 4.832031 241.230469 Z M 5.101562 241.230469 Z M 4.855469 241.714844 C 4.191406 241.796875 3.992188 242.597656 3.945312 243.136719 L 3.945312 243.351562 L 3.929688 243.367188 L 3.929688 244.46875 C 3.976562 245.042969 4.015625 245.78125 4.539062 246.160156 C 5.023438 246.496094 5.667969 246.121094 5.800781 245.605469 C 5.945312 245.222656 5.976562 244.851562 6.007812 244.46875 L 6.007812 243.367188 C 5.960938 242.789062 5.882812 241.976562 5.214844 241.75 L 5.160156 241.730469 L 5.144531 241.714844 L 5.070312 241.714844 L 5.054688 241.699219 L 4.875 241.699219 Z M 4.855469 241.714844 Z M 4.855469 241.714844 "/>
<path style=" stroke:none;fill-rule:nonzero;fill:rgb(0%,0%,0%);fill-opacity:1;" d="M 8.382812 245.945312 L 8.382812 246.582031 L 7.738281 246.582031 L 7.738281 245.945312 Z M 8.382812 245.945312 Z M 8.382812 245.945312 "/>
<path style=" stroke:none;fill-rule:nonzero;fill:rgb(0%,0%,0%);fill-opacity:1;" d="M 11.269531 241.230469 C 12.023438 241.289062 12.523438 241.976562 12.660156 242.675781 C 12.730469 242.996094 12.746094 243.296875 12.777344 243.613281 L 12.777344 244.421875 C 12.738281 245.25 12.539062 246.335938 11.644531 246.667969 C 10.867188 246.980469 9.953125 246.496094 9.722656 245.699219 C 9.546875 245.28125 9.53125 244.851562 9.492188 244.421875 L 9.492188 243.613281 C 9.53125 242.789062 9.707031 241.691406 10.597656 241.328125 L 10.636719 241.3125 L 10.667969 241.304688 L 10.707031 241.289062 L 10.824219 241.257812 L 10.898438 241.238281 L 10.984375 241.238281 L 11 241.230469 Z M 11.269531 241.230469 Z M 11.023438 241.714844 C 10.359375 241.796875 10.160156 242.597656 10.113281 243.136719 L 10.113281 243.351562 L 10.097656 243.367188 L 10.097656 244.46875 C 10.144531 245.042969 10.183594 245.78125 10.707031 246.160156 C 11.191406 246.496094 11.835938 246.121094 11.96875 245.605469 C 12.113281 245.222656 12.144531 244.851562 12.175781 244.46875 L 12.175781 243.367188 C 12.128906 242.789062 12.046875 241.976562 11.382812 241.75 L 11.324219 241.730469 L 11.308594 241.714844 L 11.238281 241.714844 L 11.222656 241.699219 L 11.039062 241.699219 Z M 11.023438 241.714844 Z M 11.023438 241.714844 "/>
<path style=" stroke:none;fill-rule:nonzero;fill:rgb(0%,0%,0%);fill-opacity:1;" d="M 5.101562 217.394531 C 5.859375 217.449219 6.359375 218.140625 6.492188 218.835938 C 6.5625 219.15625 6.578125 219.457031 6.613281 219.773438 L 6.613281 220.582031 C 6.570312 221.410156 6.375 222.496094 5.476562 222.828125 C 4.699219 223.140625 3.785156 222.65625 3.554688 221.863281 C 3.382812 221.441406 3.363281 221.011719 3.324219 220.582031 L 3.324219 219.773438 C 3.363281 218.949219 3.539062 217.851562 4.429688 217.488281 L 4.46875 217.472656 L 4.5 217.464844 L 4.539062 217.449219 L 4.660156 217.417969 L 4.730469 217.402344 L 4.816406 217.402344 L 4.832031 217.394531 Z M 5.101562 217.394531 Z M 4.855469 217.878906 C 4.191406 217.957031 3.992188 218.757812 3.945312 219.296875 L 3.945312 219.511719 L 3.929688 219.527344 L 3.929688 220.632812 C 3.976562 221.203125 4.015625 221.941406 4.539062 222.320312 C 5.023438 222.65625 5.667969 222.28125 5.800781 221.765625 C 5.945312 221.386719 5.976562 221.011719 6.007812 220.632812 L 6.007812 219.527344 C 5.960938 218.949219 5.882812 218.140625 5.214844 217.910156 L 5.160156 217.894531 L 5.144531 217.878906 L 5.070312 217.878906 L 5.054688 217.863281 L 4.875 217.863281 Z M 4.855469 217.878906 Z M 4.855469 217.878906 "/>
<path style=" stroke:none;fill-rule:nonzero;fill:rgb(0%,0%,0%);fill-opacity:1;" d="M 8.382812 222.109375 L 8.382812 222.742188 L 7.738281 222.742188 L 7.738281 222.109375 Z M 8.382812 222.109375 Z M 8.382812 222.109375 "/>
<path style=" stroke:none;fill-rule:nonzero;fill:rgb(0%,0%,0%);fill-opacity:1;" d="M 11.515625 217.394531 L 11.515625 222.289062 L 11.523438 222.304688 L 12.5 222.304688 L 12.5 222.742188 L 9.921875 222.742188 L 9.921875 222.304688 L 10.898438 222.304688 L 10.914062 222.289062 L 10.914062 218.179688 C 10.578125 218.289062 10.230469 218.363281 9.882812 218.355469 L 9.882812 217.910156 C 10.40625 217.917969 10.976562 217.773438 11.375 217.394531 Z M 11.515625 217.394531 Z M 11.515625 217.394531 "/>
<path style=" stroke:none;fill-rule:nonzero;fill:rgb(0%,0%,0%);fill-opacity:1;" d="M 5.101562 193.554688 C 5.859375 193.609375 6.359375 194.300781 6.492188 195 C 6.5625 195.316406 6.578125 195.617188 6.613281 195.933594 L 6.613281 196.746094 C 6.570312 197.570312 6.375 198.65625 5.476562 198.992188 C 4.699219 199.300781 3.785156 198.816406 3.554688 198.023438 C 3.382812 197.601562 3.363281 197.171875 3.324219 196.746094 L 3.324219 195.933594 C 3.363281 195.109375 3.539062 194.015625 4.429688 193.648438 L 4.46875 193.632812 L 4.5 193.625 L 4.539062 193.609375 L 4.660156 193.578125 L 4.730469 193.5625 L 4.816406 193.5625 L 4.832031 193.554688 Z M 5.101562 193.554688 Z M 4.855469 194.039062 C 4.191406 194.117188 3.992188 194.917969 3.945312 195.457031 L 3.945312 195.671875 L 3.929688 195.6875 L 3.929688 196.792969 C 3.976562 197.363281 4.015625 198.101562 4.539062 198.484375 C 5.023438 198.816406 5.667969 198.441406 5.800781 197.925781 C 5.945312 197.546875 5.976562 197.171875 6.007812 196.792969 L 6.007812 195.6875 C 5.960938 195.109375 5.882812 194.300781 5.214844 194.070312 L 5.160156 194.054688 L 5.144531 194.039062 L 5.070312 194.039062 L 5.054688 194.023438 L 4.875 194.023438 Z M 4.855469 194.039062 Z M 4.855469 194.039062 "/>
<path style=" stroke:none;fill-rule:nonzero;fill:rgb(0%,0%,0%);fill-opacity:1;" d="M 8.382812 198.269531 L 8.382812 198.902344 L 7.738281 198.902344 L 7.738281 198.269531 Z M 8.382812 198.269531 Z M 8.382812 198.269531 "/>
<path style=" stroke:none;fill-rule:nonzero;fill:rgb(0%,0%,0%);fill-opacity:1;" d="M 11.183594 193.554688 C 12.105469 193.578125 12.835938 194.523438 12.691406 195.410156 C 12.597656 196.300781 11.761719 196.808594 11.167969 197.363281 L 10.914062 197.625 L 10.882812 197.640625 L 10.5625 197.953125 L 10.539062 197.96875 L 10.222656 198.285156 L 10.191406 198.300781 L 10.121094 198.371094 L 10.136719 198.378906 L 12.707031 198.378906 L 12.707031 198.902344 L 9.5625 198.902344 L 9.5625 198.425781 L 10.84375 197.148438 C 11.453125 196.617188 12.167969 195.925781 12.054688 195.054688 C 11.992188 194.546875 11.5625 194.078125 11.039062 194.039062 C 10.507812 193.957031 10.039062 194.378906 9.921875 194.886719 L 9.90625 194.910156 L 9.890625 194.96875 L 9.867188 195.054688 L 9.816406 195.230469 L 9.808594 195.269531 C 9.699219 195.132812 9.578125 194.992188 9.492188 194.839844 C 9.652344 194.1875 10.175781 193.578125 10.867188 193.554688 Z M 11.183594 193.554688 Z M 11.183594 193.554688 "/>
<path style=" stroke:none;fill-rule:nonzero;fill:rgb(0%,0%,0%);fill-opacity:1;" d="M 5.101562 169.714844 C 5.859375 169.769531 6.359375 170.460938 6.492188 171.160156 C 6.5625 171.476562 6.578125 171.777344 6.613281 172.097656 L 6.613281 172.90625 C 6.570312 173.730469 6.375 174.820312 5.476562 175.152344 C 4.699219 175.460938 3.785156 174.976562 3.554688 174.183594 C 3.382812 173.761719 3.363281 173.335938 3.324219 172.90625 L 3.324219 172.097656 C 3.363281 171.269531 3.539062 170.175781 4.429688 169.808594 L 4.46875 169.792969 L 4.5 169.785156 L 4.539062 169.769531 L 4.660156 169.738281 L 4.730469 169.722656 L 4.816406 169.722656 L 4.832031 169.714844 Z M 5.101562 169.714844 Z M 4.855469 170.199219 C 4.191406 170.277344 3.992188 171.082031 3.945312 171.621094 L 3.945312 171.835938 L 3.929688 171.851562 L 3.929688 172.953125 C 3.976562 173.523438 4.015625 174.261719 4.539062 174.644531 C 5.023438 174.976562 5.667969 174.605469 5.800781 174.089844 C 5.945312 173.707031 5.976562 173.335938 6.007812 172.953125 L 6.007812 171.851562 C 5.960938 171.269531 5.882812 170.460938 5.214844 170.230469 L 5.160156 170.214844 L 5.144531 170.199219 L 5.070312 170.199219 L 5.054688 170.183594 L 4.875 170.183594 Z M 4.855469 170.199219 Z M 4.855469 170.199219 "/>
<path style=" stroke:none;fill-rule:nonzero;fill:rgb(0%,0%,0%);fill-opacity:1;" d="M 8.382812 174.429688 L 8.382812 175.066406 L 7.738281 175.066406 L 7.738281 174.429688 Z M 8.382812 174.429688 Z M 8.382812 174.429688 "/>
<path style=" stroke:none;fill-rule:nonzero;fill:rgb(0%,0%,0%);fill-opacity:1;" d="M 11.285156 169.714844 C 11.984375 169.746094 12.714844 170.390625 12.546875 171.128906 C 12.46875 171.628906 12.121094 172.039062 11.683594 172.261719 C 12.390625 172.484375 12.9375 173.230469 12.746094 173.96875 C 12.554688 174.929688 11.453125 175.460938 10.5625 175.167969 C 10.136719 175.039062 9.699219 174.769531 9.492188 174.375 C 9.539062 174.253906 9.523438 174.046875 9.578125 173.96875 C 10 174.589844 10.890625 175.007812 11.589844 174.660156 C 12.351562 174.175781 12.230469 172.761719 11.308594 172.523438 L 11.238281 172.523438 L 11.222656 172.507812 L 10.484375 172.507812 L 10.484375 172.03125 C 10.9375 172.023438 11.5 171.96875 11.753906 171.5 C 12.023438 171.097656 12 170.429688 11.484375 170.230469 C 10.875 169.992188 10.121094 170.382812 9.890625 171 C 9.792969 170.867188 9.699219 170.730469 9.605469 170.589844 C 9.929688 170 10.621094 169.652344 11.285156 169.714844 Z M 11.285156 169.714844 Z M 11.285156 169.714844 "/>
<path style=" stroke:none;fill-rule:nonzero;fill:rgb(0%,0%,0%);fill-opacity:1;" d="M 5.101562 145.875 C 5.859375 145.929688 6.359375 146.621094 6.492188 147.320312 C 6.5625 147.636719 6.578125 147.941406 6.613281 148.257812 L 6.613281 149.066406 C 6.570312 149.890625 6.375 150.980469 5.476562 151.3125 C 4.699219 151.621094 3.785156 151.136719 3.554688 150.34375 C 3.382812 149.921875 3.363281 149.496094 3.324219 149.066406 L 3.324219 148.257812 C 3.363281 147.429688 3.539062 146.335938 4.429688 145.972656 L 4.46875 145.957031 L 4.5 145.949219 L 4.539062 145.929688 L 4.660156 145.898438 L 4.730469 145.882812 L 4.816406 145.882812 L 4.832031 145.875 Z M 5.101562 145.875 Z M 4.855469 146.359375 C 4.191406 146.4375 3.992188 147.242188 3.945312 147.78125 L 3.945312 147.996094 L 3.929688 148.011719 L 3.929688 149.113281 C 3.976562 149.6875 4.015625 150.421875 4.539062 150.804688 C 5.023438 151.136719 5.667969 150.765625 5.800781 150.25 C 5.945312 149.867188 5.976562 149.496094 6.007812 149.113281 L 6.007812 148.011719 C 5.960938 147.429688 5.882812 146.621094 5.214844 146.390625 L 5.160156 146.375 L 5.144531 146.359375 L 5.070312 146.359375 L 5.054688 146.34375 L 4.875 146.34375 Z M 4.855469 146.359375 Z M 4.855469 146.359375 "/>
<path style=" stroke:none;fill-rule:nonzero;fill:rgb(0%,0%,0%);fill-opacity:1;" d="M 8.382812 150.589844 L 8.382812 151.226562 L 7.738281 151.226562 L 7.738281 150.589844 Z M 8.382812 150.589844 Z M 8.382812 150.589844 "/>
<path style=" stroke:none;fill-rule:nonzero;fill:rgb(0%,0%,0%);fill-opacity:1;" d="M 12.089844 146.042969 L 12.089844 149.382812 L 12.105469 149.398438 L 12.890625 149.398438 L 12.890625 149.875 L 12.105469 149.875 L 12.089844 149.882812 L 12.089844 151.226562 L 11.484375 151.226562 L 11.484375 149.882812 L 11.46875 149.875 L 9.375 149.875 L 9.375 149.382812 C 10.039062 148.273438 10.707031 147.152344 11.375 146.042969 Z M 12.089844 146.042969 Z M 11.5 146.34375 C 11.34375 147.167969 10.832031 147.875 10.453125 148.597656 C 10.300781 148.859375 10.105469 149.144531 9.992188 149.398438 L 11.515625 149.398438 L 11.523438 149.382812 L 11.523438 146.34375 L 11.515625 146.328125 Z M 11.5 146.34375 Z M 11.5 146.34375 "/>
<path style=" stroke:none;fill-rule:nonzero;fill:rgb(0%,0%,0%);fill-opacity:1;" d="M 5.101562 122.035156 C 5.859375 122.09375 6.359375 122.78125 6.492188 123.480469 C 6.5625 123.800781 6.578125 124.101562 6.613281 124.417969 L 6.613281 125.226562 C 6.570312 126.054688 6.375 127.140625 5.476562 127.472656 C 4.699219 127.785156 3.785156 127.300781 3.554688 126.503906 C 3.382812 126.085938 3.363281 125.65625 3.324219 125.226562 L 3.324219 124.417969 C 3.363281 123.59375 3.539062 122.496094 4.429688 122.132812 L 4.46875 122.117188 L 4.5 122.109375 L 4.539062 122.09375 L 4.660156 122.0625 L 4.730469 122.042969 L 4.816406 122.042969 L 4.832031 122.035156 Z M 5.101562 122.035156 Z M 4.855469 122.519531 C 4.191406 122.601562 3.992188 123.402344 3.945312 123.941406 L 3.945312 124.15625 L 3.929688 124.171875 L 3.929688 125.273438 C 3.976562 125.847656 4.015625 126.585938 4.539062 126.964844 C 5.023438 127.300781 5.667969 126.925781 5.800781 126.410156 C 5.945312 126.027344 5.976562 125.65625 6.007812 125.273438 L 6.007812 124.171875 C 5.960938 123.59375 5.882812 122.78125 5.214844 122.550781 L 5.160156 122.535156 L 5.144531 122.519531 L 5.070312 122.519531 L 5.054688 122.503906 L 4.875 122.503906 Z M 4.855469 122.519531 Z M 4.855469 122.519531 "/>
<path style=" stroke:none;fill-rule:nonzero;fill:rgb(0%,0%,0%);fill-opacity:1;" d="M 8.382812 126.75 L 8.382812 127.386719 L 7.738281 127.386719 L 7.738281 126.75 Z M 8.382812 126.75 Z M 8.382812 126.75 "/>
<path style=" stroke:none;fill-rule:nonzero;fill:rgb(0%,0%,0%);fill-opacity:1;" d="M 12.445312 122.203125 L 12.445312 122.695312 L 10.382812 122.695312 L 10.367188 122.703125 L 10.367188 124.332031 C 10.554688 124.203125 10.824219 124.035156 11.078125 124.027344 C 11.976562 123.933594 12.667969 124.816406 12.707031 125.632812 C 12.835938 126.671875 11.859375 127.703125 10.808594 127.546875 C 10.285156 127.527344 9.777344 127.21875 9.476562 126.792969 C 9.5625 126.671875 9.636719 126.464844 9.738281 126.394531 C 10.113281 127.125 11.316406 127.417969 11.800781 126.648438 C 12.113281 126.070312 12.105469 125.332031 11.746094 124.773438 C 11.332031 124.242188 10.515625 124.570312 10.324219 125.132812 L 9.808594 125.132812 L 9.808594 122.203125 Z M 12.445312 122.203125 Z M 12.445312 122.203125 "/>
<path style=" stroke:none;fill-rule:nonzero;fill:rgb(0%,0%,0%);fill-opacity:1;" d="M 5.101562 98.199219 C 5.859375 98.253906 6.359375 98.945312 6.492188 99.640625 C 6.5625 99.960938 6.578125 100.261719 6.613281 100.578125 L 6.613281 101.386719 C 6.570312 102.214844 6.375 103.300781 5.476562 103.632812 C 4.699219 103.945312 3.785156 103.460938 3.554688 102.667969 C 3.382812 102.246094 3.363281 101.816406 3.324219 101.386719 L 3.324219 100.578125 C 3.363281 99.753906 3.539062 98.65625 4.429688 98.292969 L 4.46875 98.277344 L 4.5 98.269531 L 4.539062 98.253906 L 4.660156 98.222656 L 4.730469 98.207031 L 4.816406 98.207031 L 4.832031 98.199219 Z M 5.101562 98.199219 Z M 4.855469 98.683594 C 4.191406 98.761719 3.992188 99.5625 3.945312 100.101562 L 3.945312 100.316406 L 3.929688 100.332031 L 3.929688 101.4375 C 3.976562 102.007812 4.015625 102.746094 4.539062 103.125 C 5.023438 103.460938 5.667969 103.085938 5.800781 102.570312 C 5.945312 102.191406 5.976562 101.816406 6.007812 101.4375 L 6.007812 100.332031 C 5.960938 99.753906 5.882812 98.945312 5.214844 98.714844 L 5.160156 98.699219 L 5.144531 98.683594 L 5.070312 98.683594 L 5.054688 98.667969 L 4.875 98.667969 Z M 4.855469 98.683594 Z M 4.855469 98.683594 "/>
<path style=" stroke:none;fill-rule:nonzero;fill:rgb(0%,0%,0%);fill-opacity:1;" d="M 8.382812 102.914062 L 8.382812 103.546875 L 7.738281 103.546875 L 7.738281 102.914062 Z M 8.382812 102.914062 Z M 8.382812 102.914062 "/>
<path style=" stroke:none;fill-rule:nonzero;fill:rgb(0%,0%,0%);fill-opacity:1;" d="M 11.785156 98.199219 C 11.992188 98.230469 12.230469 98.253906 12.429688 98.347656 L 12.429688 98.808594 C 11.882812 98.570312 11.167969 98.539062 10.738281 99.023438 C 10.359375 99.429688 10.183594 100.03125 10.167969 100.5625 C 10.628906 99.953125 11.667969 99.609375 12.230469 100.246094 C 12.792969 100.894531 12.890625 101.832031 12.636719 102.625 C 12.359375 103.261719 11.714844 103.839844 11 103.707031 C 10.03125 103.625 9.597656 102.546875 9.546875 101.722656 C 9.367188 100.554688 9.644531 99.085938 10.753906 98.421875 L 10.769531 98.410156 L 10.9375 98.324219 L 10.984375 98.308594 L 11.007812 98.292969 L 11.253906 98.222656 L 11.324219 98.207031 L 11.414062 98.207031 L 11.429688 98.199219 Z M 11.785156 98.199219 Z M 11.007812 100.402344 C 10.316406 100.523438 10.097656 101.355469 10.183594 101.921875 C 10.222656 102.453125 10.429688 103.160156 11.039062 103.269531 C 11.691406 103.355469 12.113281 102.660156 12.128906 102.09375 C 12.160156 101.523438 12.128906 100.871094 11.628906 100.5 L 11.515625 100.445312 L 11.429688 100.421875 L 11.359375 100.402344 L 11.34375 100.386719 L 11.023438 100.386719 Z M 11.007812 100.402344 Z M 11.007812 100.402344 "/>
<path style=" stroke:none;fill-rule:nonzero;fill:rgb(0%,0%,0%);fill-opacity:1;" d="M 5.101562 74.359375 C 5.859375 74.414062 6.359375 75.105469 6.492188 75.804688 C 6.5625 76.121094 6.578125 76.421875 6.613281 76.738281 L 6.613281 77.550781 C 6.570312 78.375 6.375 79.460938 5.476562 79.796875 C 4.699219 80.105469 3.785156 79.621094 3.554688 78.828125 C 3.382812 78.40625 3.363281 77.976562 3.324219 77.550781 L 3.324219 76.738281 C 3.363281 75.914062 3.539062 74.820312 4.429688 74.453125 L 4.46875 74.4375 L 4.5 74.429688 L 4.539062 74.414062 L 4.660156 74.382812 L 4.730469 74.367188 L 4.816406 74.367188 L 4.832031 74.359375 Z M 5.101562 74.359375 Z M 4.855469 74.84375 C 4.191406 74.921875 3.992188 75.722656 3.945312 76.261719 L 3.945312 76.476562 L 3.929688 76.492188 L 3.929688 77.597656 C 3.976562 78.167969 4.015625 78.90625 4.539062 79.289062 C 5.023438 79.621094 5.667969 79.246094 5.800781 78.730469 C 5.945312 78.351562 5.976562 77.976562 6.007812 77.597656 L 6.007812 76.492188 C 5.960938 75.914062 5.882812 75.105469 5.214844 74.875 L 5.160156 74.859375 L 5.144531 74.84375 L 5.070312 74.84375 L 5.054688 74.828125 L 4.875 74.828125 Z M 4.855469 74.84375 Z M 4.855469 74.84375 "/>
<path style=" stroke:none;fill-rule:nonzero;fill:rgb(0%,0%,0%);fill-opacity:1;" d="M 8.382812 79.074219 L 8.382812 79.707031 L 7.738281 79.707031 L 7.738281 79.074219 Z M 8.382812 79.074219 Z M 8.382812 79.074219 "/>
<path style=" stroke:none;fill-rule:nonzero;fill:rgb(0%,0%,0%);fill-opacity:1;" d="M 12.777344 74.523438 L 12.777344 75.023438 C 11.652344 76.34375 11.015625 78.121094 11.023438 79.796875 L 10.382812 79.796875 C 10.367188 78.105469 11.054688 76.320312 12.261719 75.074219 L 12.246094 75.058594 L 9.492188 75.058594 L 9.492188 74.523438 L 12.777344 74.523438 L 12.777344 75.023438 Z M 12.777344 74.523438 Z M 12.777344 74.523438 "/>
<path style=" stroke:none;fill-rule:nonzero;fill:rgb(0%,0%,0%);fill-opacity:1;" d="M 5.101562 50.519531 C 5.859375 50.574219 6.359375 51.265625 6.492188 51.964844 C 6.5625 52.28125 6.578125 52.582031 6.613281 52.902344 L 6.613281 53.710938 C 6.570312 54.535156 6.375 55.625 5.476562 55.957031 C 4.699219 56.265625 3.785156 55.78125 3.554688 54.988281 C 3.382812 54.566406 3.363281 54.140625 3.324219 53.710938 L 3.324219 52.902344 C 3.363281 52.074219 3.539062 50.980469 4.429688 50.613281 L 4.46875 50.597656 L 4.5 50.589844 L 4.539062 50.574219 L 4.660156 50.542969 L 4.730469 50.527344 L 4.816406 50.527344 L 4.832031 50.519531 Z M 5.101562 50.519531 Z M 4.855469 51.003906 C 4.191406 51.082031 3.992188 51.882812 3.945312 52.425781 L 3.945312 52.640625 L 3.929688 52.65625 L 3.929688 53.757812 C 3.976562 54.328125 4.015625 55.066406 4.539062 55.449219 C 5.023438 55.78125 5.667969 55.410156 5.800781 54.894531 C 5.945312 54.511719 5.976562 54.140625 6.007812 53.757812 L 6.007812 52.65625 C 5.960938 52.074219 5.882812 51.265625 5.214844 51.035156 L 5.160156 51.019531 L 5.144531 51.003906 L 5.070312 51.003906 L 5.054688 50.988281 L 4.875 50.988281 Z M 4.855469 51.003906 Z M 4.855469 51.003906 "/>
<path style=" stroke:none;fill-rule:nonzero;fill:rgb(0%,0%,0%);fill-opacity:1;" d="M 8.382812 55.234375 L 8.382812 55.867188 L 7.738281 55.867188 L 7.738281 55.234375 Z M 8.382812 55.234375 Z M 8.382812 55.234375 "/>
<path style=" stroke:none;fill-rule:nonzero;fill:rgb(0%,0%,0%);fill-opacity:1;" d="M 11.285156 50.519531 C 12.128906 50.550781 12.921875 51.457031 12.589844 52.296875 C 12.445312 52.6875 12.046875 52.925781 11.722656 53.089844 C 12.53125 53.328125 13.023438 54.273438 12.660156 55.050781 C 12.277344 56.058594 10.832031 56.378906 10.039062 55.648438 C 9.316406 55.074219 9.292969 53.835938 10.097656 53.328125 C 10.214844 53.203125 10.4375 53.164062 10.539062 53.066406 C 9.851562 52.867188 9.382812 52.066406 9.707031 51.394531 C 9.96875 50.789062 10.644531 50.457031 11.285156 50.519531 Z M 11.285156 50.519531 Z M 10.984375 50.972656 C 10.398438 50.988281 9.984375 51.65625 10.183594 52.179688 C 10.414062 53.082031 11.929688 53.050781 12.105469 52.121094 C 12.261719 51.605469 11.851562 50.988281 11.285156 50.972656 L 11.269531 50.964844 L 11 50.964844 Z M 10.984375 50.972656 Z M 11 53.328125 C 10.308594 53.375 9.96875 54.203125 10.152344 54.789062 C 10.269531 55.625 11.460938 55.867188 11.929688 55.203125 C 12.382812 54.589844 12.160156 53.496094 11.34375 53.328125 L 11.269531 53.328125 L 11.253906 53.3125 L 11.007812 53.3125 Z M 11 53.328125 Z M 11 53.328125 "/>
<path style=" stroke:none;fill-rule:nonzero;fill:rgb(0%,0%,0%);fill-opacity:1;" d="M 5.101562 26.679688 C 5.859375 26.734375 6.359375 27.425781 6.492188 28.125 C 6.5625 28.441406 6.578125 28.742188 6.613281 29.0625 L 6.613281 29.871094 C 6.570312 30.695312 6.375 31.785156 5.476562 32.117188 C 4.699219 32.425781 3.785156 31.941406 3.554688 31.148438 C 3.382812 30.726562 3.363281 30.300781 3.324219 29.871094 L 3.324219 29.0625 C 3.363281 28.234375 3.539062 27.140625 4.429688 26.777344 L 4.46875 26.761719 L 4.5 26.75 L 4.539062 26.734375 L 4.660156 26.703125 L 4.730469 26.6875 L 4.816406 26.6875 L 4.832031 26.679688 Z M 5.101562 26.679688 Z M 4.855469 27.164062 C 4.191406 27.242188 3.992188 28.046875 3.945312 28.585938 L 3.945312 28.800781 L 3.929688 28.816406 L 3.929688 29.917969 C 3.976562 30.492188 4.015625 31.226562 4.539062 31.609375 C 5.023438 31.941406 5.667969 31.570312 5.800781 31.054688 C 5.945312 30.671875 5.976562 30.300781 6.007812 29.917969 L 6.007812 28.816406 C 5.960938 28.234375 5.882812 27.425781 5.214844 27.195312 L 5.160156 27.179688 L 5.144531 27.164062 L 5.070312 27.164062 L 5.054688 27.148438 L 4.875 27.148438 Z M 4.855469 27.164062 Z M 4.855469 27.164062 "/>
<path style=" stroke:none;fill-rule:nonzero;fill:rgb(0%,0%,0%);fill-opacity:1;" d="M 8.382812 31.394531 L 8.382812 32.03125 L 7.738281 32.03125 L 7.738281 31.394531 Z M 8.382812 31.394531 Z M 8.382812 31.394531 "/>
<path style=" stroke:none;fill-rule:nonzero;fill:rgb(0%,0%,0%);fill-opacity:1;" d="M 11.300781 26.679688 C 12.253906 26.785156 12.667969 27.863281 12.730469 28.6875 C 12.84375 29.761719 12.714844 31.015625 11.84375 31.785156 C 11.292969 32.332031 10.324219 32.347656 9.738281 31.855469 C 9.808594 31.71875 9.890625 31.5625 9.976562 31.449219 C 10.492188 31.949219 11.398438 31.808594 11.730469 31.164062 C 11.96875 30.777344 12.113281 30.277344 12.105469 29.847656 C 11.636719 30.449219 10.605469 30.800781 10.039062 30.164062 C 9.46875 29.507812 9.367188 28.546875 9.652344 27.753906 C 9.945312 27.125 10.570312 26.585938 11.300781 26.679688 Z M 11.300781 26.679688 Z M 11.039062 27.132812 C 10.46875 27.179688 10.175781 27.816406 10.136719 28.316406 C 10.113281 28.878906 10.136719 29.539062 10.636719 29.902344 C 11.191406 30.246094 11.90625 29.832031 12.03125 29.226562 C 12.183594 28.640625 12.089844 28.015625 11.785156 27.464844 C 11.621094 27.234375 11.316406 27.070312 11.039062 27.132812 Z M 11.039062 27.132812 Z M 11.039062 27.132812 "/>
<path style=" stroke:none;fill-rule:nonzero;fill:rgb(0%,0%,0%);fill-opacity:1;" d="M 5.347656 2.839844 L 5.347656 7.738281 L 5.355469 7.753906 L 6.332031 7.753906 L 6.332031 8.191406 L 3.753906 8.191406 L 3.753906 7.753906 L 4.730469 7.753906 L 4.746094 7.738281 L 4.746094 3.628906 C 4.414062 3.738281 4.0625 3.808594 3.714844 3.800781 L 3.714844 3.355469 C 4.238281 3.363281 4.808594 3.222656 5.207031 2.839844 Z M 5.347656 2.839844 Z M 5.347656 2.839844 "/>
<path style=" stroke:none;fill-rule:nonzero;fill:rgb(0%,0%,0%);fill-opacity:1;" d="M 8.382812 7.554688 L 8.382812 8.191406 L 7.738281 8.191406 L 7.738281 7.554688 Z M 8.382812 7.554688 Z M 8.382812 7.554688 "/>
<path style=" stroke:none;fill-rule:nonzero;fill:rgb(0%,0%,0%);fill-opacity:1;" d="M 11.269531 2.839844 C 12.023438 2.898438 12.523438 3.585938 12.660156 4.285156 C 12.730469 4.601562 12.746094 4.90625 12.777344 5.222656 L 12.777344 6.03125 C 12.738281 6.859375 12.539062 7.945312 11.644531 8.277344 C 10.867188 8.585938 9.953125 8.105469 9.722656 7.308594 C 9.546875 6.890625 9.53125 6.460938 9.492188 6.03125 L 9.492188 5.222656 C 9.53125 4.398438 9.707031 3.300781 10.597656 2.9375 L 10.636719 2.921875 L 10.667969 2.914062 L 10.707031 2.898438 L 10.824219 2.863281 L 10.898438 2.847656 L 10.984375 2.847656 L 11 2.839844 Z M 11.269531 2.839844 Z M 11.023438 3.324219 C 10.359375 3.40625 10.160156 4.207031 10.113281 4.746094 L 10.113281 4.960938 L 10.097656 4.976562 L 10.097656 6.078125 C 10.144531 6.652344 10.183594 7.390625 10.707031 7.769531 C 11.191406 8.105469 11.835938 7.730469 11.96875 7.214844 C 12.113281 6.832031 12.144531 6.460938 12.175781 6.078125 L 12.175781 4.976562 C 12.128906 4.398438 12.046875 3.585938 11.382812 3.355469 L 11.324219 3.339844 L 11.308594 3.324219 L 11.238281 3.324219 L 11.222656 3.308594 L 11.039062 3.308594 Z M 11.023438 3.324219 Z M 11.023438 3.324219 "/>
<path style="fill:none;stroke-width:0.02;stroke-linecap:butt;stroke-linejoin:miter;stroke:rgb(0%,0%,0%);stroke-opacity:1;stroke-miterlimit:10;" d="M 11.751221 1.269344 L 11.646214 1.269344 " transform="matrix(28.346457,0,0,-28.346457,1,256.11811)"/>
<path style="fill:none;stroke-width:0.02;stroke-linecap:butt;stroke-linejoin:miter;stroke:rgb(0%,0%,0%);stroke-opacity:1;stroke-miterlimit:10;" d="M 11.751221 2.11036 L 11.646214 2.11036 " transform="matrix(28.346457,0,0,-28.346457,1,256.11811)"/>
<path style="fill:none;stroke-width:0.02;stroke-linecap:butt;stroke-linejoin:miter;stroke:rgb(0%,0%,0%);stroke-opacity:1;stroke-miterlimit:10;" d="M 11.751221 2.951377 L 11.646214 2.951377 " transform="matrix(28.346457,0,0,-28.346457,1,256.11811)"/>
<path style="fill:none;stroke-width:0.02;stroke-linecap:butt;stroke-linejoin:miter;stroke:rgb(0%,0%,0%);stroke-opacity:1;stroke-miterlimit:10;" d="M 11.751221 3.792394 L 11.646214 3.792394 " transform="matrix(28.346457,0,0,-28.346457,1,256.11811)"/>
<path style="fill:none;stroke-width:0.02;stroke-linecap:butt;stroke-linejoin:miter;stroke:rgb(0%,0%,0%);stroke-opacity:1;stroke-miterlimit:10;" d="M 11.751221 4.63341 L 11.646214 4.63341 " transform="matrix(28.346457,0,0,-28.346457,1,256.11811)"/>
<path style="fill:none;stroke-width:0.02;stroke-linecap:butt;stroke-linejoin:miter;stroke:rgb(0%,0%,0%);stroke-opacity:1;stroke-miterlimit:10;" d="M 11.751221 5.474289 L 11.646214 5.474289 " transform="matrix(28.346457,0,0,-28.346457,1,256.11811)"/>
<path style="fill:none;stroke-width:0.02;stroke-linecap:butt;stroke-linejoin:miter;stroke:rgb(0%,0%,0%);stroke-opacity:1;stroke-miterlimit:10;" d="M 11.751221 6.315306 L 11.646214 6.315306 " transform="matrix(28.346457,0,0,-28.346457,1,256.11811)"/>
<path style="fill:none;stroke-width:0.02;stroke-linecap:butt;stroke-linejoin:miter;stroke:rgb(0%,0%,0%);stroke-opacity:1;stroke-miterlimit:10;" d="M 11.751221 7.156323 L 11.646214 7.156323 " transform="matrix(28.346457,0,0,-28.346457,1,256.11811)"/>
<path style="fill:none;stroke-width:0.02;stroke-linecap:butt;stroke-linejoin:miter;stroke:rgb(0%,0%,0%);stroke-opacity:1;stroke-miterlimit:10;" d="M 11.751221 7.997339 L 11.646214 7.997339 " transform="matrix(28.346457,0,0,-28.346457,1,256.11811)"/>
<path style="fill:none;stroke-width:0.02;stroke-linecap:round;stroke-linejoin:miter;stroke:rgb(0%,0%,0%);stroke-opacity:1;stroke-miterlimit:10;" d="M 11.751221 0.428465 L 11.751221 8.838356 " transform="matrix(28.346457,0,0,-28.346457,1,256.11811)"/>
<path style="fill:none;stroke-width:0.02;stroke-linecap:butt;stroke-linejoin:miter;stroke:rgb(0%,0%,0%);stroke-opacity:1;stroke-miterlimit:10;" d="M 1.717449 0.428465 L 1.717449 0.533333 " transform="matrix(28.346457,0,0,-28.346457,1,256.11811)"/>
<path style="fill:none;stroke-width:0.02;stroke-linecap:butt;stroke-linejoin:miter;stroke:rgb(0%,0%,0%);stroke-opacity:1;stroke-miterlimit:10;" d="M 2.832282 0.428465 L 2.832282 0.533333 " transform="matrix(28.346457,0,0,-28.346457,1,256.11811)"/>
<path style="fill:none;stroke-width:0.02;stroke-linecap:butt;stroke-linejoin:miter;stroke:rgb(0%,0%,0%);stroke-opacity:1;stroke-miterlimit:10;" d="M 3.947115 0.428465 L 3.947115 0.533333 " transform="matrix(28.346457,0,0,-28.346457,1,256.11811)"/>
<path style="fill:none;stroke-width:0.02;stroke-linecap:butt;stroke-linejoin:miter;stroke:rgb(0%,0%,0%);stroke-opacity:1;stroke-miterlimit:10;" d="M 5.062086 0.428465 L 5.062086 0.533333 " transform="matrix(28.346457,0,0,-28.346457,1,256.11811)"/>
<path style="fill:none;stroke-width:0.02;stroke-linecap:butt;stroke-linejoin:miter;stroke:rgb(0%,0%,0%);stroke-opacity:1;stroke-miterlimit:10;" d="M 6.176918 0.428465 L 6.176918 0.533333 " transform="matrix(28.346457,0,0,-28.346457,1,256.11811)"/>
<path style="fill:none;stroke-width:0.02;stroke-linecap:butt;stroke-linejoin:miter;stroke:rgb(0%,0%,0%);stroke-opacity:1;stroke-miterlimit:10;" d="M 7.291751 0.428465 L 7.291751 0.533333 " transform="matrix(28.346457,0,0,-28.346457,1,256.11811)"/>
<path style="fill:none;stroke-width:0.02;stroke-linecap:butt;stroke-linejoin:miter;stroke:rgb(0%,0%,0%);stroke-opacity:1;stroke-miterlimit:10;" d="M 8.406584 0.428465 L 8.406584 0.533333 " transform="matrix(28.346457,0,0,-28.346457,1,256.11811)"/>
<path style="fill:none;stroke-width:0.02;stroke-linecap:butt;stroke-linejoin:miter;stroke:rgb(0%,0%,0%);stroke-opacity:1;stroke-miterlimit:10;" d="M 9.521555 0.428465 L 9.521555 0.533333 " transform="matrix(28.346457,0,0,-28.346457,1,256.11811)"/>
<path style="fill:none;stroke-width:0.02;stroke-linecap:butt;stroke-linejoin:miter;stroke:rgb(0%,0%,0%);stroke-opacity:1;stroke-miterlimit:10;" d="M 10.636388 0.428465 L 10.636388 0.533333 " transform="matrix(28.346457,0,0,-28.346457,1,256.11811)"/>
<path style="fill:none;stroke-width:0.02;stroke-linecap:round;stroke-linejoin:miter;stroke:rgb(0%,0%,0%);stroke-opacity:1;stroke-miterlimit:10;" d="M 0.602616 0.428465 L 11.751221 0.428465 " transform="matrix(28.346457,0,0,-28.346457,1,256.11811)"/>
<path style=" stroke:none;fill-rule:nonzero;fill:rgb(0%,0%,0%);fill-opacity:1;" d="M 15.132812 248.792969 C 15.886719 248.847656 16.386719 249.539062 16.519531 250.238281 C 16.59375 250.554688 16.609375 250.855469 16.640625 251.171875 L 16.640625 251.984375 C 16.601562 252.808594 16.402344 253.894531 15.503906 254.230469 C 14.726562 254.539062 13.8125 254.054688 13.585938 253.261719 C 13.410156 252.839844 13.394531 252.410156 13.355469 251.984375 L 13.355469 251.171875 C 13.394531 250.347656 13.566406 249.253906 14.457031 248.886719 L 14.496094 248.871094 L 14.527344 248.863281 L 14.566406 248.847656 L 14.6875 248.816406 L 14.757812 248.800781 L 14.847656 248.800781 L 14.863281 248.792969 Z M 15.132812 248.792969 Z M 14.886719 249.277344 C 14.21875 249.355469 14.019531 250.15625 13.972656 250.695312 L 13.972656 250.910156 L 13.957031 250.925781 L 13.957031 252.03125 C 14.003906 252.601562 14.042969 253.339844 14.566406 253.722656 C 15.050781 254.054688 15.695312 253.679688 15.832031 253.164062 C 15.972656 252.785156 16.003906 252.410156 16.035156 252.03125 L 16.035156 250.925781 C 15.988281 250.347656 15.910156 249.539062 15.242188 249.308594 L 15.1875 249.292969 L 15.171875 249.277344 L 15.101562 249.277344 L 15.085938 249.261719 L 14.902344 249.261719 Z M 14.886719 249.277344 Z M 14.886719 249.277344 "/>
<path style=" stroke:none;fill-rule:nonzero;fill:rgb(0%,0%,0%);fill-opacity:1;" d="M 18.410156 253.507812 L 18.410156 254.140625 L 17.765625 254.140625 L 17.765625 253.507812 Z M 18.410156 253.507812 Z M 18.410156 253.507812 "/>
<path style=" stroke:none;fill-rule:nonzero;fill:rgb(0%,0%,0%);fill-opacity:1;" d="M 21.300781 248.792969 C 22.054688 248.847656 22.554688 249.539062 22.6875 250.238281 C 22.757812 250.554688 22.773438 250.855469 22.808594 251.171875 L 22.808594 251.984375 C 22.765625 252.808594 22.570312 253.894531 21.671875 254.230469 C 20.894531 254.539062 19.980469 254.054688 19.75 253.261719 C 19.578125 252.839844 19.5625 252.410156 19.519531 251.984375 L 19.519531 251.171875 C 19.5625 250.347656 19.734375 249.253906 20.625 248.886719 L 20.664062 248.871094 L 20.695312 248.863281 L 20.734375 248.847656 L 20.855469 248.816406 L 20.925781 248.800781 L 21.011719 248.800781 L 21.027344 248.792969 Z M 21.300781 248.792969 Z M 21.054688 249.277344 C 20.386719 249.355469 20.1875 250.15625 20.140625 250.695312 L 20.140625 250.910156 L 20.125 250.925781 L 20.125 252.03125 C 20.171875 252.601562 20.210938 253.339844 20.734375 253.722656 C 21.21875 254.054688 21.863281 253.679688 21.996094 253.164062 C 22.140625 252.785156 22.171875 252.410156 22.203125 252.03125 L 22.203125 250.925781 C 22.15625 250.347656 22.078125 249.539062 21.410156 249.308594 L 21.355469 249.292969 L 21.339844 249.277344 L 21.265625 249.277344 L 21.25 249.261719 L 21.070312 249.261719 Z M 21.054688 249.277344 Z M 21.054688 249.277344 "/>
<path style=" stroke:none;fill-rule:nonzero;fill:rgb(0%,0%,0%);fill-opacity:1;" d="M 46.734375 248.792969 C 47.488281 248.847656 47.988281 249.539062 48.125 250.238281 C 48.195312 250.554688 48.210938 250.855469 48.242188 251.171875 L 48.242188 251.984375 C 48.203125 252.808594 48.003906 253.894531 47.105469 254.230469 C 46.328125 254.539062 45.417969 254.054688 45.1875 253.261719 C 45.011719 252.839844 44.996094 252.410156 44.957031 251.984375 L 44.957031 251.171875 C 44.996094 250.347656 45.171875 249.253906 46.058594 248.886719 L 46.097656 248.871094 L 46.132812 248.863281 L 46.171875 248.847656 L 46.289062 248.816406 L 46.359375 248.800781 L 46.449219 248.800781 L 46.464844 248.792969 Z M 46.734375 248.792969 Z M 46.488281 249.277344 C 45.820312 249.355469 45.625 250.15625 45.574219 250.695312 L 45.574219 250.910156 L 45.558594 250.925781 L 45.558594 252.03125 C 45.605469 252.601562 45.648438 253.339844 46.171875 253.722656 C 46.65625 254.054688 47.296875 253.679688 47.433594 253.164062 C 47.574219 252.785156 47.605469 252.410156 47.640625 252.03125 L 47.640625 250.925781 C 47.589844 250.347656 47.511719 249.539062 46.84375 249.308594 L 46.789062 249.292969 L 46.773438 249.277344 L 46.703125 249.277344 L 46.6875 249.261719 L 46.503906 249.261719 Z M 46.488281 249.277344 Z M 46.488281 249.277344 "/>
<path style=" stroke:none;fill-rule:nonzero;fill:rgb(0%,0%,0%);fill-opacity:1;" d="M 50.011719 253.507812 L 50.011719 254.140625 L 49.371094 254.140625 L 49.371094 253.507812 Z M 50.011719 253.507812 Z M 50.011719 253.507812 "/>
<path style=" stroke:none;fill-rule:nonzero;fill:rgb(0%,0%,0%);fill-opacity:1;" d="M 53.148438 248.792969 L 53.148438 253.6875 L 53.15625 253.707031 L 54.132812 253.707031 L 54.132812 254.140625 L 51.550781 254.140625 L 51.550781 253.707031 L 52.527344 253.707031 L 52.542969 253.6875 L 52.542969 249.578125 C 52.210938 249.6875 51.863281 249.761719 51.511719 249.753906 L 51.511719 249.308594 C 52.035156 249.316406 52.609375 249.171875 53.003906 248.792969 Z M 53.148438 248.792969 Z M 53.148438 248.792969 "/>
<path style=" stroke:none;fill-rule:nonzero;fill:rgb(0%,0%,0%);fill-opacity:1;" d="M 78.335938 248.792969 C 79.089844 248.847656 79.589844 249.539062 79.726562 250.238281 C 79.796875 250.554688 79.8125 250.855469 79.84375 251.171875 L 79.84375 251.984375 C 79.804688 252.808594 79.605469 253.894531 78.710938 254.230469 C 77.933594 254.539062 77.019531 254.054688 76.789062 253.261719 C 76.613281 252.839844 76.597656 252.410156 76.558594 251.984375 L 76.558594 251.171875 C 76.597656 250.347656 76.773438 249.253906 77.664062 248.886719 L 77.703125 248.871094 L 77.734375 248.863281 L 77.773438 248.847656 L 77.890625 248.816406 L 77.964844 248.800781 L 78.050781 248.800781 L 78.066406 248.792969 Z M 78.335938 248.792969 Z M 78.089844 249.277344 C 77.425781 249.355469 77.226562 250.15625 77.179688 250.695312 L 77.179688 250.910156 L 77.164062 250.925781 L 77.164062 252.03125 C 77.210938 252.601562 77.25 253.339844 77.773438 253.722656 C 78.257812 254.054688 78.898438 253.679688 79.035156 253.164062 C 79.179688 252.785156 79.210938 252.410156 79.242188 252.03125 L 79.242188 250.925781 C 79.195312 250.347656 79.113281 249.539062 78.449219 249.308594 L 78.390625 249.292969 L 78.375 249.277344 L 78.304688 249.277344 L 78.289062 249.261719 L 78.105469 249.261719 Z M 78.089844 249.277344 Z M 78.089844 249.277344 "/>
<path style=" stroke:none;fill-rule:nonzero;fill:rgb(0%,0%,0%);fill-opacity:1;" d="M 81.613281 253.507812 L 81.613281 254.140625 L 80.972656 254.140625 L 80.972656 253.507812 Z M 81.613281 253.507812 Z M 81.613281 253.507812 "/>
<path style=" stroke:none;fill-rule:nonzero;fill:rgb(0%,0%,0%);fill-opacity:1;" d="M 84.417969 248.792969 C 85.335938 248.816406 86.066406 249.761719 85.925781 250.648438 C 85.828125 251.539062 84.996094 252.046875 84.402344 252.601562 L 84.148438 252.863281 L 84.113281 252.878906 L 83.796875 253.1875 L 83.773438 253.207031 L 83.457031 253.523438 L 83.425781 253.539062 L 83.351562 253.609375 L 83.367188 253.617188 L 85.941406 253.617188 L 85.941406 254.140625 L 82.796875 254.140625 L 82.796875 253.664062 L 84.074219 252.386719 C 84.6875 251.855469 85.402344 251.164062 85.289062 250.292969 C 85.226562 249.785156 84.796875 249.316406 84.273438 249.277344 C 83.742188 249.195312 83.273438 249.617188 83.15625 250.125 L 83.140625 250.148438 L 83.121094 250.203125 L 83.097656 250.292969 L 83.050781 250.46875 L 83.042969 250.507812 C 82.933594 250.371094 82.8125 250.230469 82.726562 250.078125 C 82.882812 249.425781 83.410156 248.816406 84.097656 248.792969 Z M 84.417969 248.792969 Z M 84.417969 248.792969 "/>
<path style=" stroke:none;fill-rule:nonzero;fill:rgb(0%,0%,0%);fill-opacity:1;" d="M 109.9375 248.792969 C 110.695312 248.847656 111.195312 249.539062 111.328125 250.238281 C 111.398438 250.554688 111.414062 250.855469 111.449219 251.171875 L 111.449219 251.984375 C 111.40625 252.808594 111.210938 253.894531 110.3125 254.230469 C 109.535156 254.539062 108.621094 254.054688 108.390625 253.261719 C 108.21875 252.839844 108.199219 252.410156 108.160156 251.984375 L 108.160156 251.171875 C 108.199219 250.347656 108.375 249.253906 109.265625 248.886719 L 109.304688 248.871094 L 109.335938 248.863281 L 109.375 248.847656 L 109.496094 248.816406 L 109.566406 248.800781 L 109.652344 248.800781 L 109.667969 248.792969 Z M 109.9375 248.792969 Z M 109.691406 249.277344 C 109.027344 249.355469 108.828125 250.15625 108.78125 250.695312 L 108.78125 250.910156 L 108.765625 250.925781 L 108.765625 252.03125 C 108.8125 252.601562 108.851562 253.339844 109.375 253.722656 C 109.859375 254.054688 110.503906 253.679688 110.636719 253.164062 C 110.78125 252.785156 110.8125 252.410156 110.84375 252.03125 L 110.84375 250.925781 C 110.796875 250.347656 110.71875 249.539062 110.050781 249.308594 L 109.996094 249.292969 L 109.980469 249.277344 L 109.90625 249.277344 L 109.890625 249.261719 L 109.710938 249.261719 Z M 109.691406 249.277344 Z M 109.691406 249.277344 "/>
<path style=" stroke:none;fill-rule:nonzero;fill:rgb(0%,0%,0%);fill-opacity:1;" d="M 113.21875 253.507812 L 113.21875 254.140625 L 112.574219 254.140625 L 112.574219 253.507812 Z M 113.21875 253.507812 Z M 113.21875 253.507812 "/>
<path style=" stroke:none;fill-rule:nonzero;fill:rgb(0%,0%,0%);fill-opacity:1;" d="M 116.121094 248.792969 C 116.820312 248.824219 117.550781 249.46875 117.382812 250.203125 C 117.304688 250.703125 116.957031 251.117188 116.519531 251.339844 C 117.226562 251.5625 117.773438 252.308594 117.582031 253.046875 C 117.390625 254.007812 116.289062 254.539062 115.398438 254.246094 C 114.972656 254.117188 114.535156 253.847656 114.328125 253.453125 C 114.375 253.332031 114.359375 253.125 114.414062 253.046875 C 114.835938 253.664062 115.726562 254.085938 116.425781 253.738281 C 117.1875 253.253906 117.066406 251.839844 116.144531 251.601562 L 116.074219 251.601562 L 116.058594 251.585938 L 115.320312 251.585938 L 115.320312 251.109375 C 115.773438 251.101562 116.335938 251.046875 116.589844 250.578125 C 116.859375 250.171875 116.835938 249.507812 116.320312 249.308594 C 115.710938 249.070312 114.957031 249.457031 114.726562 250.078125 C 114.628906 249.941406 114.535156 249.808594 114.441406 249.664062 C 114.765625 249.078125 115.457031 248.730469 116.121094 248.792969 Z M 116.121094 248.792969 Z M 116.121094 248.792969 "/>
<path style=" stroke:none;fill-rule:nonzero;fill:rgb(0%,0%,0%);fill-opacity:1;" d="M 141.542969 248.792969 C 142.296875 248.847656 142.796875 249.539062 142.929688 250.238281 C 143.003906 250.554688 143.019531 250.855469 143.050781 251.171875 L 143.050781 251.984375 C 143.011719 252.808594 142.8125 253.894531 141.914062 254.230469 C 141.136719 254.539062 140.222656 254.054688 139.992188 253.261719 C 139.820312 252.839844 139.804688 252.410156 139.765625 251.984375 L 139.765625 251.171875 C 139.804688 250.347656 139.976562 249.253906 140.867188 248.886719 L 140.90625 248.871094 L 140.9375 248.863281 L 140.976562 248.847656 L 141.097656 248.816406 L 141.167969 248.800781 L 141.257812 248.800781 L 141.273438 248.792969 Z M 141.542969 248.792969 Z M 141.296875 249.277344 C 140.628906 249.355469 140.429688 250.15625 140.382812 250.695312 L 140.382812 250.910156 L 140.367188 250.925781 L 140.367188 252.03125 C 140.414062 252.601562 140.453125 253.339844 140.976562 253.722656 C 141.460938 254.054688 142.105469 253.679688 142.242188 253.164062 C 142.382812 252.785156 142.414062 252.410156 142.445312 252.03125 L 142.445312 250.925781 C 142.398438 250.347656 142.320312 249.539062 141.652344 249.308594 L 141.597656 249.292969 L 141.582031 249.277344 L 141.511719 249.277344 L 141.496094 249.261719 L 141.3125 249.261719 Z M 141.296875 249.277344 Z M 141.296875 249.277344 "/>
<path style=" stroke:none;fill-rule:nonzero;fill:rgb(0%,0%,0%);fill-opacity:1;" d="M 144.820312 253.507812 L 144.820312 254.140625 L 144.175781 254.140625 L 144.175781 253.507812 Z M 144.820312 253.507812 Z M 144.820312 253.507812 "/>
<path style=" stroke:none;fill-rule:nonzero;fill:rgb(0%,0%,0%);fill-opacity:1;" d="M 148.527344 248.957031 L 148.527344 252.300781 L 148.542969 252.316406 L 149.328125 252.316406 L 149.328125 252.792969 L 148.542969 252.792969 L 148.527344 252.800781 L 148.527344 254.140625 L 147.921875 254.140625 L 147.921875 252.800781 L 147.90625 252.792969 L 145.8125 252.792969 L 145.8125 252.300781 C 146.480469 251.1875 147.144531 250.070312 147.8125 248.957031 Z M 148.527344 248.957031 Z M 147.9375 249.261719 C 147.78125 250.085938 147.273438 250.792969 146.890625 251.515625 C 146.742188 251.777344 146.542969 252.0625 146.429688 252.316406 L 147.953125 252.316406 L 147.960938 252.300781 L 147.960938 249.261719 L 147.953125 249.246094 Z M 147.9375 249.261719 Z M 147.9375 249.261719 "/>
<path style=" stroke:none;fill-rule:nonzero;fill:rgb(0%,0%,0%);fill-opacity:1;" d="M 173.144531 248.792969 C 173.898438 248.847656 174.398438 249.539062 174.535156 250.238281 C 174.605469 250.554688 174.621094 250.855469 174.652344 251.171875 L 174.652344 251.984375 C 174.613281 252.808594 174.414062 253.894531 173.515625 254.230469 C 172.738281 254.539062 171.828125 254.054688 171.597656 253.261719 C 171.421875 252.839844 171.40625 252.410156 171.367188 251.984375 L 171.367188 251.171875 C 171.40625 250.347656 171.582031 249.253906 172.46875 248.886719 L 172.507812 248.871094 L 172.542969 248.863281 L 172.582031 248.847656 L 172.699219 248.816406 L 172.769531 248.800781 L 172.859375 248.800781 L 172.875 248.792969 Z M 173.144531 248.792969 Z M 172.898438 249.277344 C 172.230469 249.355469 172.03125 250.15625 171.984375 250.695312 L 171.984375 250.910156 L 171.96875 250.925781 L 171.96875 252.03125 C 172.015625 252.601562 172.058594 253.339844 172.582031 253.722656 C 173.066406 254.054688 173.707031 253.679688 173.84375 253.164062 C 173.984375 252.785156 174.015625 252.410156 174.050781 252.03125 L 174.050781 250.925781 C 174 250.347656 173.921875 249.539062 173.253906 249.308594 L 173.199219 249.292969 L 173.183594 249.277344 L 173.113281 249.277344 L 173.097656 249.261719 L 172.914062 249.261719 Z M 172.898438 249.277344 Z M 172.898438 249.277344 "/>
<path style=" stroke:none;fill-rule:nonzero;fill:rgb(0%,0%,0%);fill-opacity:1;" d="M 176.421875 253.507812 L 176.421875 254.140625 L 175.78125 254.140625 L 175.78125 253.507812 Z M 176.421875 253.507812 Z M 176.421875 253.507812 "/>
<path style=" stroke:none;fill-rule:nonzero;fill:rgb(0%,0%,0%);fill-opacity:1;" d="M 180.484375 248.957031 L 180.484375 249.449219 L 178.421875 249.449219 L 178.40625 249.457031 L 178.40625 251.085938 C 178.597656 250.960938 178.867188 250.792969 179.121094 250.785156 C 180.019531 250.6875 180.707031 251.570312 180.746094 252.386719 C 180.875 253.425781 179.898438 254.460938 178.851562 254.300781 C 178.328125 254.285156 177.820312 253.976562 177.519531 253.546875 C 177.605469 253.425781 177.675781 253.222656 177.78125 253.148438 C 178.152344 253.878906 179.359375 254.171875 179.84375 253.402344 C 180.152344 252.824219 180.144531 252.085938 179.789062 251.53125 C 179.375 251 178.558594 251.324219 178.367188 251.886719 L 177.851562 251.886719 L 177.851562 248.957031 Z M 180.484375 248.957031 Z M 180.484375 248.957031 "/>
<path style=" stroke:none;fill-rule:nonzero;fill:rgb(0%,0%,0%);fill-opacity:1;" d="M 204.746094 248.792969 C 205.5 248.847656 206 249.539062 206.136719 250.238281 C 206.207031 250.554688 206.222656 250.855469 206.253906 251.171875 L 206.253906 251.984375 C 206.214844 252.808594 206.015625 253.894531 205.121094 254.230469 C 204.34375 254.539062 203.429688 254.054688 203.199219 253.261719 C 203.023438 252.839844 203.007812 252.410156 202.96875 251.984375 L 202.96875 251.171875 C 203.007812 250.347656 203.183594 249.253906 204.070312 248.886719 L 204.113281 248.871094 L 204.144531 248.863281 L 204.183594 248.847656 L 204.300781 248.816406 L 204.375 248.800781 L 204.460938 248.800781 L 204.476562 248.792969 Z M 204.746094 248.792969 Z M 204.5 249.277344 C 203.835938 249.355469 203.636719 250.15625 203.589844 250.695312 L 203.589844 250.910156 L 203.570312 250.925781 L 203.570312 252.03125 C 203.621094 252.601562 203.660156 253.339844 204.183594 253.722656 C 204.667969 254.054688 205.308594 253.679688 205.445312 253.164062 C 205.589844 252.785156 205.621094 252.410156 205.652344 252.03125 L 205.652344 250.925781 C 205.605469 250.347656 205.523438 249.539062 204.859375 249.308594 L 204.800781 249.292969 L 204.785156 249.277344 L 204.714844 249.277344 L 204.699219 249.261719 L 204.515625 249.261719 Z M 204.5 249.277344 Z M 204.5 249.277344 "/>
<path style=" stroke:none;fill-rule:nonzero;fill:rgb(0%,0%,0%);fill-opacity:1;" d="M 208.023438 253.507812 L 208.023438 254.140625 L 207.382812 254.140625 L 207.382812 253.507812 Z M 208.023438 253.507812 Z M 208.023438 253.507812 "/>
<path style=" stroke:none;fill-rule:nonzero;fill:rgb(0%,0%,0%);fill-opacity:1;" d="M 211.429688 248.792969 C 211.636719 248.824219 211.875 248.847656 212.074219 248.941406 L 212.074219 249.402344 C 211.523438 249.164062 210.8125 249.132812 210.382812 249.617188 C 210 250.023438 209.828125 250.625 209.8125 251.15625 C 210.269531 250.546875 211.3125 250.203125 211.875 250.839844 C 212.4375 251.492188 212.53125 252.425781 212.277344 253.222656 C 212 253.855469 211.359375 254.433594 210.644531 254.300781 C 209.675781 254.222656 209.238281 253.140625 209.191406 252.316406 C 209.007812 251.148438 209.285156 249.679688 210.398438 249.015625 L 210.414062 249.007812 L 210.582031 248.917969 L 210.628906 248.902344 L 210.652344 248.886719 L 210.785156 248.847656 L 210.898438 248.816406 L 210.96875 248.800781 L 211.058594 248.800781 L 211.074219 248.792969 Z M 211.429688 248.792969 Z M 210.652344 251 C 209.960938 251.117188 209.738281 251.953125 209.828125 252.515625 C 209.867188 253.046875 210.074219 253.753906 210.683594 253.863281 C 211.335938 253.953125 211.753906 253.253906 211.769531 252.6875 C 211.804688 252.117188 211.769531 251.46875 211.269531 251.09375 L 211.160156 251.039062 L 211.074219 251.015625 L 211 251 L 210.984375 250.984375 L 210.667969 250.984375 Z M 210.652344 251 Z M 210.652344 251 "/>
<path style=" stroke:none;fill-rule:nonzero;fill:rgb(0%,0%,0%);fill-opacity:1;" d="M 236.347656 248.792969 C 237.101562 248.847656 237.601562 249.539062 237.738281 250.238281 C 237.808594 250.554688 237.824219 250.855469 237.855469 251.171875 L 237.855469 251.984375 C 237.816406 252.808594 237.621094 253.894531 236.722656 254.230469 C 235.945312 254.539062 235.03125 254.054688 234.800781 253.261719 C 234.628906 252.839844 234.609375 252.410156 234.570312 251.984375 L 234.570312 251.171875 C 234.609375 250.347656 234.785156 249.253906 235.675781 248.886719 L 235.714844 248.871094 L 235.746094 248.863281 L 235.785156 248.847656 L 235.90625 248.816406 L 235.976562 248.800781 L 236.0625 248.800781 L 236.078125 248.792969 Z M 236.347656 248.792969 Z M 236.101562 249.277344 C 235.4375 249.355469 235.238281 250.15625 235.191406 250.695312 L 235.191406 250.910156 L 235.175781 250.925781 L 235.175781 252.03125 C 235.222656 252.601562 235.261719 253.339844 235.785156 253.722656 C 236.269531 254.054688 236.914062 253.679688 237.046875 253.164062 C 237.191406 252.785156 237.222656 252.410156 237.253906 252.03125 L 237.253906 250.925781 C 237.207031 250.347656 237.128906 249.539062 236.460938 249.308594 L 236.40625 249.292969 L 236.390625 249.277344 L 236.316406 249.277344 L 236.300781 249.261719 L 236.121094 249.261719 Z M 236.101562 249.277344 Z M 236.101562 249.277344 "/>
<path style=" stroke:none;fill-rule:nonzero;fill:rgb(0%,0%,0%);fill-opacity:1;" d="M 239.628906 253.507812 L 239.628906 254.140625 L 238.984375 254.140625 L 238.984375 253.507812 Z M 239.628906 253.507812 Z M 239.628906 253.507812 "/>
<path style=" stroke:none;fill-rule:nonzero;fill:rgb(0%,0%,0%);fill-opacity:1;" d="M 244.023438 248.957031 L 244.023438 249.457031 C 242.898438 250.777344 242.261719 252.554688 242.269531 254.230469 L 241.628906 254.230469 C 241.613281 252.539062 242.300781 250.753906 243.507812 249.507812 L 243.492188 249.492188 L 240.738281 249.492188 L 240.738281 248.957031 L 244.023438 248.957031 L 244.023438 249.457031 Z M 244.023438 248.957031 Z M 244.023438 248.957031 "/>
<path style=" stroke:none;fill-rule:nonzero;fill:rgb(0%,0%,0%);fill-opacity:1;" d="M 267.953125 248.792969 C 268.707031 248.847656 269.207031 249.539062 269.339844 250.238281 C 269.414062 250.554688 269.429688 250.855469 269.460938 251.171875 L 269.460938 251.984375 C 269.421875 252.808594 269.222656 253.894531 268.324219 254.230469 C 267.546875 254.539062 266.632812 254.054688 266.402344 253.261719 C 266.230469 252.839844 266.214844 252.410156 266.175781 251.984375 L 266.175781 251.171875 C 266.214844 250.347656 266.386719 249.253906 267.277344 248.886719 L 267.316406 248.871094 L 267.347656 248.863281 L 267.386719 248.847656 L 267.507812 248.816406 L 267.578125 248.800781 L 267.667969 248.800781 L 267.683594 248.792969 Z M 267.953125 248.792969 Z M 267.707031 249.277344 C 267.039062 249.355469 266.839844 250.15625 266.792969 250.695312 L 266.792969 250.910156 L 266.777344 250.925781 L 266.777344 252.03125 C 266.824219 252.601562 266.863281 253.339844 267.386719 253.722656 C 267.871094 254.054688 268.515625 253.679688 268.648438 253.164062 C 268.792969 252.785156 268.824219 252.410156 268.855469 252.03125 L 268.855469 250.925781 C 268.808594 250.347656 268.730469 249.539062 268.0625 249.308594 L 268.007812 249.292969 L 267.992188 249.277344 L 267.921875 249.277344 L 267.902344 249.261719 L 267.722656 249.261719 Z M 267.707031 249.277344 Z M 267.707031 249.277344 "/>
<path style=" stroke:none;fill-rule:nonzero;fill:rgb(0%,0%,0%);fill-opacity:1;" d="M 271.230469 253.507812 L 271.230469 254.140625 L 270.585938 254.140625 L 270.585938 253.507812 Z M 271.230469 253.507812 Z M 271.230469 253.507812 "/>
<path style=" stroke:none;fill-rule:nonzero;fill:rgb(0%,0%,0%);fill-opacity:1;" d="M 274.136719 248.792969 C 274.976562 248.824219 275.769531 249.730469 275.4375 250.570312 C 275.292969 250.960938 274.898438 251.195312 274.570312 251.363281 C 275.382812 251.601562 275.871094 252.546875 275.507812 253.324219 C 275.125 254.332031 273.683594 254.648438 272.886719 253.917969 C 272.167969 253.347656 272.144531 252.109375 272.945312 251.601562 C 273.0625 251.476562 273.285156 251.433594 273.390625 251.339844 C 272.699219 251.140625 272.230469 250.339844 272.554688 249.664062 C 272.816406 249.0625 273.492188 248.730469 274.136719 248.792969 Z M 274.136719 248.792969 Z M 273.832031 249.246094 C 273.246094 249.261719 272.832031 249.925781 273.03125 250.449219 C 273.261719 251.355469 274.777344 251.324219 274.953125 250.394531 C 275.109375 249.878906 274.699219 249.261719 274.136719 249.246094 L 274.117188 249.238281 L 273.847656 249.238281 Z M 273.832031 249.246094 Z M 273.847656 251.601562 C 273.160156 251.648438 272.816406 252.476562 273 253.0625 C 273.117188 253.894531 274.308594 254.140625 274.777344 253.476562 C 275.230469 252.863281 275.007812 251.769531 274.191406 251.601562 L 274.117188 251.601562 L 274.101562 251.585938 L 273.855469 251.585938 Z M 273.847656 251.601562 Z M 273.847656 251.601562 "/>
<path style=" stroke:none;fill-rule:nonzero;fill:rgb(0%,0%,0%);fill-opacity:1;" d="M 299.554688 248.792969 C 300.308594 248.847656 300.808594 249.539062 300.941406 250.238281 C 301.015625 250.554688 301.03125 250.855469 301.0625 251.171875 L 301.0625 251.984375 C 301.023438 252.808594 300.824219 253.894531 299.925781 254.230469 C 299.148438 254.539062 298.238281 254.054688 298.007812 253.261719 C 297.832031 252.839844 297.816406 252.410156 297.777344 251.984375 L 297.777344 251.171875 C 297.816406 250.347656 297.992188 249.253906 298.878906 248.886719 L 298.917969 248.871094 L 298.949219 248.863281 L 298.992188 248.847656 L 299.109375 248.816406 L 299.179688 248.800781 L 299.269531 248.800781 L 299.285156 248.792969 Z M 299.554688 248.792969 Z M 299.308594 249.277344 C 298.640625 249.355469 298.441406 250.15625 298.394531 250.695312 L 298.394531 250.910156 L 298.378906 250.925781 L 298.378906 252.03125 C 298.425781 252.601562 298.46875 253.339844 298.992188 253.722656 C 299.476562 254.054688 300.117188 253.679688 300.253906 253.164062 C 300.394531 252.785156 300.425781 252.410156 300.460938 252.03125 L 300.460938 250.925781 C 300.410156 250.347656 300.332031 249.539062 299.664062 249.308594 L 299.609375 249.292969 L 299.59375 249.277344 L 299.523438 249.277344 L 299.507812 249.261719 L 299.324219 249.261719 Z M 299.308594 249.277344 Z M 299.308594 249.277344 "/>
<path style=" stroke:none;fill-rule:nonzero;fill:rgb(0%,0%,0%);fill-opacity:1;" d="M 302.832031 253.507812 L 302.832031 254.140625 L 302.1875 254.140625 L 302.1875 253.507812 Z M 302.832031 253.507812 Z M 302.832031 253.507812 "/>
<path style=" stroke:none;fill-rule:nonzero;fill:rgb(0%,0%,0%);fill-opacity:1;" d="M 305.753906 248.792969 C 306.707031 248.894531 307.117188 249.976562 307.183594 250.800781 C 307.292969 251.871094 307.164062 253.125 306.292969 253.894531 C 305.746094 254.445312 304.777344 254.460938 304.191406 253.96875 C 304.261719 253.832031 304.339844 253.671875 304.425781 253.5625 C 304.945312 254.0625 305.847656 253.917969 306.183594 253.277344 C 306.417969 252.886719 306.5625 252.386719 306.554688 251.960938 C 306.085938 252.5625 305.054688 252.910156 304.492188 252.277344 C 303.917969 251.617188 303.816406 250.65625 304.101562 249.863281 C 304.394531 249.238281 305.023438 248.695312 305.753906 248.792969 Z M 305.753906 248.792969 Z M 305.492188 249.246094 C 304.917969 249.292969 304.625 249.925781 304.585938 250.425781 C 304.5625 250.992188 304.585938 251.648438 305.085938 252.015625 C 305.640625 252.355469 306.355469 251.941406 306.484375 251.339844 C 306.632812 250.753906 306.539062 250.125 306.238281 249.578125 C 306.070312 249.347656 305.769531 249.179688 305.492188 249.246094 Z M 305.492188 249.246094 Z M 305.492188 249.246094 "/>
<path style=" stroke:none;fill-rule:nonzero;fill:rgb(0%,0%,0%);fill-opacity:1;" d="M 331.402344 248.792969 L 331.402344 253.6875 L 331.410156 253.707031 L 332.386719 253.707031 L 332.386719 254.140625 L 329.808594 254.140625 L 329.808594 253.707031 L 330.785156 253.707031 L 330.800781 253.6875 L 330.800781 249.578125 C 330.464844 249.6875 330.117188 249.761719 329.769531 249.753906 L 329.769531 249.308594 C 330.292969 249.316406 330.863281 249.171875 331.261719 248.792969 Z M 331.402344 248.792969 Z M 331.402344 248.792969 "/>
<path style=" stroke:none;fill-rule:nonzero;fill:rgb(0%,0%,0%);fill-opacity:1;" d="M 334.433594 253.507812 L 334.433594 254.140625 L 333.792969 254.140625 L 333.792969 253.507812 Z M 334.433594 253.507812 Z M 334.433594 253.507812 "/>
<path style=" stroke:none;fill-rule:nonzero;fill:rgb(0%,0%,0%);fill-opacity:1;" d="M 337.324219 248.792969 C 338.078125 248.847656 338.578125 249.539062 338.710938 250.238281 C 338.785156 250.554688 338.800781 250.855469 338.832031 251.171875 L 338.832031 251.984375 C 338.792969 252.808594 338.59375 253.894531 337.695312 254.230469 C 336.917969 254.539062 336.007812 254.054688 335.777344 253.261719 C 335.601562 252.839844 335.585938 252.410156 335.546875 251.984375 L 335.546875 251.171875 C 335.585938 250.347656 335.761719 249.253906 336.648438 248.886719 L 336.6875 248.871094 L 336.71875 248.863281 L 336.761719 248.847656 L 336.878906 248.816406 L 336.949219 248.800781 L 337.039062 248.800781 L 337.054688 248.792969 Z M 337.324219 248.792969 Z M 337.078125 249.277344 C 336.410156 249.355469 336.210938 250.15625 336.164062 250.695312 L 336.164062 250.910156 L 336.148438 250.925781 L 336.148438 252.03125 C 336.195312 252.601562 336.238281 253.339844 336.761719 253.722656 C 337.246094 254.054688 337.886719 253.679688 338.023438 253.164062 C 338.164062 252.785156 338.195312 252.410156 338.230469 252.03125 L 338.230469 250.925781 C 338.179688 250.347656 338.101562 249.539062 337.433594 249.308594 L 337.378906 249.292969 L 337.363281 249.277344 L 337.292969 249.277344 L 337.277344 249.261719 L 337.09375 249.261719 Z M 337.078125 249.277344 Z M 337.078125 249.277344 "/>
<path style="fill:none;stroke-width:0.02;stroke-linecap:butt;stroke-linejoin:miter;stroke:rgb(0%,0%,0%);stroke-opacity:1;stroke-miterlimit:10;" d="M 1.717449 8.838356 L 1.717449 8.73335 " transform="matrix(28.346457,0,0,-28.346457,1,256.11811)"/>
<path style="fill:none;stroke-width:0.02;stroke-linecap:butt;stroke-linejoin:miter;stroke:rgb(0%,0%,0%);stroke-opacity:1;stroke-miterlimit:10;" d="M 2.832282 8.838356 L 2.832282 8.73335 " transform="matrix(28.346457,0,0,-28.346457,1,256.11811)"/>
<path style="fill:none;stroke-width:0.02;stroke-linecap:butt;stroke-linejoin:miter;stroke:rgb(0%,0%,0%);stroke-opacity:1;stroke-miterlimit:10;" d="M 3.947115 8.838356 L 3.947115 8.73335 " transform="matrix(28.346457,0,0,-28.346457,1,256.11811)"/>
<path style="fill:none;stroke-width:0.02;stroke-linecap:butt;stroke-linejoin:miter;stroke:rgb(0%,0%,0%);stroke-opacity:1;stroke-miterlimit:10;" d="M 5.062086 8.838356 L 5.062086 8.73335 " transform="matrix(28.346457,0,0,-28.346457,1,256.11811)"/>
<path style="fill:none;stroke-width:0.02;stroke-linecap:butt;stroke-linejoin:miter;stroke:rgb(0%,0%,0%);stroke-opacity:1;stroke-miterlimit:10;" d="M 6.176918 8.838356 L 6.176918 8.73335 " transform="matrix(28.346457,0,0,-28.346457,1,256.11811)"/>
<path style="fill:none;stroke-width:0.02;stroke-linecap:butt;stroke-linejoin:miter;stroke:rgb(0%,0%,0%);stroke-opacity:1;stroke-miterlimit:10;" d="M 7.291751 8.838356 L 7.291751 8.73335 " transform="matrix(28.346457,0,0,-28.346457,1,256.11811)"/>
<path style="fill:none;stroke-width:0.02;stroke-linecap:butt;stroke-linejoin:miter;stroke:rgb(0%,0%,0%);stroke-opacity:1;stroke-miterlimit:10;" d="M 8.406584 8.838356 L 8.406584 8.73335 " transform="matrix(28.346457,0,0,-28.346457,1,256.11811)"/>
<path style="fill:none;stroke-width:0.02;stroke-linecap:butt;stroke-linejoin:miter;stroke:rgb(0%,0%,0%);stroke-opacity:1;stroke-miterlimit:10;" d="M 9.521555 8.838356 L 9.521555 8.73335 " transform="matrix(28.346457,0,0,-28.346457,1,256.11811)"/>
<path style="fill:none;stroke-width:0.02;stroke-linecap:butt;stroke-linejoin:miter;stroke:rgb(0%,0%,0%);stroke-opacity:1;stroke-miterlimit:10;" d="M 10.636388 8.838356 L 10.636388 8.73335 " transform="matrix(28.346457,0,0,-28.346457,1,256.11811)"/>
<path style="fill:none;stroke-width:0.02;stroke-linecap:round;stroke-linejoin:miter;stroke:rgb(0%,0%,0%);stroke-opacity:1;stroke-miterlimit:10;" d="M 0.602616 8.838356 L 11.751221 8.838356 " transform="matrix(28.346457,0,0,-28.346457,1,256.11811)"/>
<path style="fill:none;stroke-width:0.02;stroke-linecap:butt;stroke-linejoin:miter;stroke:rgb(32.941176%,47.058824%,63.921569%);stroke-opacity:1;stroke-miterlimit:10;" d="M 0.602616 0.428465 L 0.715202 0.429291 L 0.827788 0.431772 L 0.940373 0.436182 L 1.052959 0.442107 L 1.165683 0.449824 L 1.278268 0.459333 L 1.390854 0.470495 L 1.50344 0.483311 L 1.616025 0.497918 L 1.728749 0.514179 L 1.841335 0.532231 L 1.95392 0.551937 L 2.066506 0.573434 L 2.179092 0.596585 L 2.291815 0.621528 L 2.404401 0.648124 L 2.516987 0.676374 L 2.629572 0.706415 L 2.742158 0.73811 L 2.854882 0.771596 L 2.967467 0.806874 L 3.080053 0.843668 L 3.192639 0.882253 L 3.305225 0.922629 L 3.41781 0.964659 L 3.530534 1.008481 L 3.64312 1.053956 L 3.755705 1.101085 L 3.868291 1.150005 L 3.980877 1.200717 L 4.0936 1.252945 L 4.206186 1.307102 L 4.318772 1.362775 L 4.431357 1.420377 L 4.543943 1.479494 L 4.656667 1.540404 L 4.769252 1.603104 L 4.881838 1.667459 L 4.994424 1.733467 L 5.10701 1.801266 L 5.219733 1.870857 L 5.332319 1.941964 L 5.444905 2.015 L 5.55749 2.089552 L 5.670076 2.166033 L 5.782799 2.24403 L 5.895385 2.323818 L 6.007971 2.405398 L 6.120557 2.488632 L 6.233142 2.573519 L 6.345866 2.660197 L 6.458452 2.748668 L 6.571037 2.838653 L 6.683623 2.930569 L 6.796209 3.024 L 6.908932 3.11936 L 7.021518 3.216236 L 7.134104 3.314903 L 7.246689 3.415362 L 7.359275 3.517475 L 7.471999 3.621241 L 7.584584 3.726799 L 7.69717 3.83401 L 7.809756 3.943013 L 7.922342 4.05367 L 8.035065 4.166118 L 8.147651 4.280219 L 8.260237 4.396112 L 8.372822 4.513659 L 8.485408 4.632859 L 8.598132 4.753851 L 8.710717 4.876634 L 8.823303 5.001071 L 8.935889 5.127161 L 9.048474 5.255043 L 9.16106 5.384579 L 9.273784 5.515906 L 9.386369 5.648887 L 9.498955 5.783521 L 9.611541 5.920085 L 9.724127 6.058164 L 9.83685 6.198035 L 9.949436 6.339559 L 10.062021 6.482875 L 10.174607 6.627983 L 10.287193 6.774606 L 10.399916 6.923159 L 10.512502 7.073227 L 10.625088 7.225087 L 10.737674 7.378738 L 10.850259 7.534043 L 10.962983 7.691002 L 11.075569 7.849752 L 11.188154 8.010293 L 11.30074 8.172488 L 11.413326 8.336337 L 11.526049 8.501977 L 11.638635 8.669271 L 11.751221 8.838356 " transform="matrix(28.346457,0,0,-28.346457,1,256.11811)"/>
<path style="fill:none;stroke-width:0.02;stroke-linecap:butt;stroke-linejoin:miter;stroke:rgb(90.196078%,56.862745%,25.882353%);stroke-opacity:1;stroke-miterlimit:10;" d="M 0.602616 0.428465 L 0.827788 0.428465 L 0.940373 0.428602 L 1.052959 0.429016 L 1.165683 0.429429 L 1.278268 0.430256 L 1.390854 0.431359 L 1.50344 0.432874 L 1.616025 0.434666 L 1.728749 0.437008 L 1.841335 0.439902 L 1.95392 0.443347 L 2.066506 0.447482 L 2.179092 0.452167 L 2.291815 0.457679 L 2.404401 0.46388 L 2.516987 0.471046 L 2.629572 0.478901 L 2.742158 0.487858 L 2.854882 0.49778 L 2.967467 0.508666 L 3.080053 0.520655 L 3.192639 0.533885 L 3.305225 0.548216 L 3.41781 0.563788 L 3.530534 0.580738 L 3.64312 0.599066 L 3.755705 0.618634 L 3.868291 0.639856 L 3.980877 0.662456 L 4.0936 0.686571 L 4.206186 0.712478 L 4.318772 0.739901 L 4.431357 0.769116 L 4.543943 0.799984 L 4.656667 0.832781 L 4.769252 0.86737 L 4.881838 0.904026 L 4.994424 0.942473 L 5.10701 0.983125 L 5.219733 1.025706 L 5.332319 1.070493 L 5.444905 1.117484 L 5.55749 1.16668 L 5.670076 1.218218 L 5.782799 1.2721 L 5.895385 1.328324 L 6.007971 1.38689 L 6.120557 1.448075 L 6.233142 1.511878 L 6.345866 1.578162 L 6.458452 1.647064 L 6.571037 1.718722 L 6.683623 1.793136 L 6.796209 1.870444 L 6.908932 1.950508 L 7.021518 2.033466 L 7.134104 2.119455 L 7.246689 2.208477 L 7.359275 2.30053 L 7.471999 2.395752 L 7.584584 2.494006 L 7.69717 2.595705 L 7.809756 2.700436 L 7.922342 2.808612 L 8.035065 2.920233 L 8.147651 3.035162 L 8.260237 3.153673 L 8.372822 3.275629 L 8.485408 3.401306 L 8.598132 3.530566 L 8.710717 3.663409 L 8.823303 3.800111 L 8.935889 3.940671 L 9.048474 4.084951 L 9.16106 4.23309 L 9.273784 4.385363 L 9.386369 4.541495 L 9.498955 4.701761 L 9.611541 4.866023 L 9.724127 5.034557 L 9.83685 5.207225 L 9.949436 5.384303 L 10.062021 5.565515 L 10.174607 5.751275 L 10.287193 5.941306 L 10.399916 6.135885 L 10.512502 6.334874 L 10.625088 6.538548 L 10.737674 6.746908 L 10.850259 6.959814 L 10.962983 7.177544 L 11.075569 7.39996 L 11.188154 7.627336 L 11.30074 7.859536 L 11.413326 8.096696 L 11.526049 8.338817 L 11.638635 8.586037 L 11.751221 8.838356 " transform="matrix(28.346457,0,0,-28.346457,1,256.11811)"/>
<path style="fill:none;stroke-width:0.02;stroke-linecap:butt;stroke-linejoin:miter;stroke:rgb(81.960784%,36.862745%,36.078431%);stroke-opacity:1;stroke-miterlimit:10;" d="M 0.602616 0.428465 L 1.278268 0.428465 L 1.50344 0.42874 L 1.616025 0.429016 L 1.728749 0.429291 L 1.841335 0.429705 L 1.95392 0.430256 L 2.066506 0.430945 L 2.179092 0.431772 L 2.291815 0.432874 L 2.404401 0.434115 L 2.516987 0.435768 L 2.629572 0.43756 L 2.742158 0.439765 L 2.854882 0.442383 L 2.967467 0.445414 L 3.080053 0.44886 L 3.192639 0.452856 L 3.305225 0.457403 L 3.41781 0.46264 L 3.530534 0.468428 L 3.64312 0.474905 L 3.755705 0.482208 L 3.868291 0.490339 L 3.980877 0.499296 L 4.0936 0.509218 L 4.206186 0.520242 L 4.318772 0.532231 L 4.431357 0.54546 L 4.543943 0.559792 L 4.656667 0.575501 L 4.769252 0.592451 L 4.881838 0.610917 L 4.994424 0.630898 L 5.10701 0.652534 L 5.219733 0.675822 L 5.332319 0.700765 L 5.444905 0.727775 L 5.55749 0.756576 L 5.670076 0.787444 L 5.782799 0.820379 L 5.895385 0.855656 L 6.007971 0.893139 L 6.120557 0.933102 L 6.233142 0.975546 L 6.345866 1.020745 L 6.458452 1.068563 L 6.571037 1.119137 L 6.683623 1.172881 L 6.796209 1.229518 L 6.908932 1.289463 L 7.021518 1.352577 L 7.134104 1.419136 L 7.246689 1.489278 L 7.359275 1.563003 L 7.471999 1.640587 L 7.584584 1.722029 L 7.69717 1.807605 L 7.809756 1.897178 L 7.922342 1.99116 L 8.035065 2.089552 L 8.147651 2.192629 L 8.260237 2.300254 L 8.372822 2.41284 L 8.485408 2.530386 L 8.598132 2.653169 L 8.710717 2.781189 L 8.823303 2.914583 L 8.935889 3.053627 L 9.048474 3.198459 L 9.16106 3.349217 L 9.273784 3.506037 L 9.386369 3.669059 L 9.498955 3.83842 L 9.611541 4.014396 L 9.724127 4.197123 L 9.83685 4.386604 L 9.949436 4.58325 L 10.062021 4.787199 L 10.174607 4.998453 L 10.287193 5.217423 L 10.399916 5.44411 L 10.512502 5.678652 L 10.625088 5.921463 L 10.737674 6.172541 L 10.850259 6.432026 L 10.962983 6.70033 L 11.075569 6.977453 L 11.188154 7.26381 L 11.30074 7.559261 L 11.413326 7.864359 L 11.526049 8.178965 L 11.638635 8.503631 L 11.751221 8.838356 " transform="matrix(28.346457,0,0,-28.346457,1,256.11811)"/>
</g>
</svg>
