<?xml version="1.0" encoding="UTF-8"?>
<svg xmlns="http://www.w3.org/2000/svg" xmlns:xlink="http://www.w3.org/1999/xlink" width="342.15748pt" height="257.11811pt" viewBox="0 0 342.15748 257.11811" version="1.1">
<g id="surface1">
<path style="fill:none;stroke-width:0.02;stroke-linecap:butt;stroke-linejoin:miter;stroke:rgb(0%,0%,0%);stroke-opacity:1;stroke-miterlimit:10;" d="M 0.695771 1.479632 L 0.800778 1.479632 " transform="matrix(28.346457,0,0,-28.346457,1,256.11811)"/>
<path style="fill:none;stroke-width:0.02;stroke-linecap:butt;stroke-linejoin:miter;stroke:rgb(0%,0%,0%);stroke-opacity:1;stroke-miterlimit:10;" d="M 0.695771 2.530938 L 0.800778 2.530938 " transform="matrix(28.346457,0,0,-28.346457,1,256.11811)"/>
<path style="fill:none;stroke-width:0.02;stroke-linecap:butt;stroke-linejoin:miter;stroke:rgb(0%,0%,0%);stroke-opacity:1;stroke-miterlimit:10;" d="M 0.695771 3.582105 L 0.800778 3.582105 " transform="matrix(28.346457,0,0,-28.346457,1,256.11811)"/>
<path style="fill:none;stroke-width:0.02;stroke-linecap:butt;stroke-linejoin:miter;stroke:rgb(0%,0%,0%);stroke-opacity:1;stroke-miterlimit:10;" d="M 0.695771 4.63341 L 0.800778 4.63341 " transform="matrix(28.346457,0,0,-28.346457,1,256.11811)"/>
<path style="fill:none;stroke-width:0.02;stroke-linecap:butt;stroke-linejoin:miter;stroke:rgb(0%,0%,0%);stroke-opacity:1;stroke-miterlimit:10;" d="M 0.695771 5.684578 L 0.800778 5.684578 " transform="matrix(28.346457,0,0,-28.346457,1,256.11811)"/>
<path style="fill:none;stroke-width:0.02;stroke-linecap:butt;stroke-linejoin:miter;stroke:rgb(0%,0%,0%);stroke-opacity:1;stroke-miterlimit:10;" d="M 0.695771 6.735883 L 0.800778 6.735883 " transform="matrix(28.346457,0,0,-28.346457,1,256.11811)"/>
<path style="fill:none;stroke-width:0.02;stroke-linecap:butt;stroke-linejoin:miter;stroke:rgb(0%,0%,0%);stroke-opacity:1;stroke-miterlimit:10;" d="M 0.695771 7.787051 L 0.800778 7.787051 " transform="matrix(28.346457,0,0,-28.346457,1,256.11811)"/>
<path style="fill:none;stroke-width:0.02;stroke-linecap:round;stroke-linejoin:miter;stroke:rgb(0%,0%,0%);stroke-opacity:1;stroke-miterlimit:10;" d="M 0.695771 0.428465 L 0.695771 8.838356 " transform="matrix(28.346457,0,0,-28.346457,1,256.11811)"/>
<path style=" stroke:none;fill-rule:nonzero;fill:rgb(0%,0%,0%);fill-opacity:1;" d="M 5.160156 244.613281 L 5.160156 245.058594 L 3.078125 245.058594 L 3.078125 244.613281 Z M 5.160156 244.613281 Z M 5.160156 244.613281 "/>
<path style=" stroke:none;fill-rule:nonzero;fill:rgb(0%,0%,0%);fill-opacity:1;" d="M 7.660156 241.230469 C 8.578125 241.257812 9.308594 242.199219 9.167969 243.089844 C 9.070312 243.976562 8.238281 244.488281 7.644531 245.042969 L 7.390625 245.304688 L 7.359375 245.320312 L 7.039062 245.628906 L 7.015625 245.644531 L 6.699219 245.960938 L 6.667969 245.980469 L 6.59375 246.050781 L 6.613281 246.058594 L 9.183594 246.058594 L 9.183594 246.582031 L 6.039062 246.582031 L 6.039062 246.105469 L 7.316406 244.828125 C 7.929688 244.296875 8.644531 243.605469 8.53125 242.730469 C 8.46875 242.222656 8.039062 241.757812 7.515625 241.714844 C 6.984375 241.636719 6.515625 242.058594 6.398438 242.566406 L 6.382812 242.589844 L 6.367188 242.644531 L 6.339844 242.730469 L 6.292969 242.90625 L 6.285156 242.945312 C 6.175781 242.8125 6.054688 242.667969 5.96875 242.519531 C 6.128906 241.867188 6.652344 241.257812 7.339844 241.230469 Z M 7.660156 241.230469 Z M 7.660156 241.230469 "/>
<path style=" stroke:none;fill-rule:nonzero;fill:rgb(0%,0%,0%);fill-opacity:1;" d="M 11.023438 245.945312 L 11.023438 246.582031 L 10.382812 246.582031 L 10.382812 245.945312 Z M 11.023438 245.945312 Z M 11.023438 245.945312 "/>
<path style=" stroke:none;fill-rule:nonzero;fill:rgb(0%,0%,0%);fill-opacity:1;" d="M 13.914062 241.230469 C 14.667969 241.289062 15.167969 241.976562 15.300781 242.675781 C 15.375 242.996094 15.390625 243.296875 15.421875 243.613281 L 15.421875 244.421875 C 15.382812 245.25 15.183594 246.335938 14.285156 246.667969 C 13.507812 246.980469 12.597656 246.496094 12.367188 245.699219 C 12.191406 245.28125 12.175781 244.851562 12.136719 244.421875 L 12.136719 243.613281 C 12.175781 242.789062 12.351562 241.691406 13.238281 241.328125 L 13.277344 241.3125 L 13.308594 241.304688 L 13.351562 241.289062 L 13.46875 241.257812 L 13.539062 241.238281 L 13.628906 241.238281 L 13.644531 241.230469 Z M 13.914062 241.230469 Z M 13.667969 241.714844 C 13 241.796875 12.800781 242.597656 12.753906 243.136719 L 12.753906 243.351562 L 12.738281 243.367188 L 12.738281 244.46875 C 12.785156 245.042969 12.824219 245.78125 13.351562 246.160156 C 13.835938 246.496094 14.476562 246.121094 14.613281 245.605469 C 14.753906 245.222656 14.785156 244.851562 14.816406 244.46875 L 14.816406 243.367188 C 14.769531 242.789062 14.691406 241.976562 14.023438 241.75 L 13.96875 241.730469 L 13.953125 241.714844 L 13.882812 241.714844 L 13.867188 241.699219 L 13.683594 241.699219 Z M 13.667969 241.714844 Z M 13.667969 241.714844 "/>
<path style=" stroke:none;fill-rule:nonzero;fill:rgb(0%,0%,0%);fill-opacity:1;" d="M 5.160156 214.816406 L 5.160156 215.257812 L 3.078125 215.257812 L 3.078125 214.816406 Z M 5.160156 214.816406 Z M 5.160156 214.816406 "/>
<path style=" stroke:none;fill-rule:nonzero;fill:rgb(0%,0%,0%);fill-opacity:1;" d="M 7.992188 211.433594 L 7.992188 216.332031 L 8 216.347656 L 8.976562 216.347656 L 8.976562 216.78125 L 6.398438 216.78125 L 6.398438 216.347656 L 7.375 216.347656 L 7.390625 216.332031 L 7.390625 212.21875 C 7.054688 212.332031 6.707031 212.402344 6.359375 212.394531 L 6.359375 211.949219 C 6.882812 211.957031 7.453125 211.8125 7.851562 211.433594 Z M 7.992188 211.433594 Z M 7.992188 211.433594 "/>
<path style=" stroke:none;fill-rule:nonzero;fill:rgb(0%,0%,0%);fill-opacity:1;" d="M 11.023438 216.148438 L 11.023438 216.78125 L 10.382812 216.78125 L 10.382812 216.148438 Z M 11.023438 216.148438 Z M 11.023438 216.148438 "/>
<path style=" stroke:none;fill-rule:nonzero;fill:rgb(0%,0%,0%);fill-opacity:1;" d="M 15.089844 211.601562 L 15.089844 212.09375 L 13.023438 212.09375 L 13.007812 212.101562 L 13.007812 213.726562 C 13.199219 213.601562 13.46875 213.433594 13.722656 213.425781 C 14.621094 213.332031 15.308594 214.210938 15.351562 215.027344 C 15.476562 216.070312 14.5 217.101562 13.453125 216.941406 C 12.929688 216.925781 12.421875 216.617188 12.121094 216.1875 C 12.207031 216.070312 12.277344 215.863281 12.382812 215.789062 C 12.753906 216.519531 13.960938 216.816406 14.445312 216.042969 C 14.753906 215.464844 14.746094 214.726562 14.390625 214.171875 C 13.976562 213.640625 13.160156 213.964844 12.96875 214.527344 L 12.453125 214.527344 L 12.453125 211.601562 Z M 15.089844 211.601562 Z M 15.089844 211.601562 "/>
<path style=" stroke:none;fill-rule:nonzero;fill:rgb(0%,0%,0%);fill-opacity:1;" d="M 5.160156 185.015625 L 5.160156 185.460938 L 3.078125 185.460938 L 3.078125 185.015625 Z M 5.160156 185.015625 Z M 5.160156 185.015625 "/>
<path style=" stroke:none;fill-rule:nonzero;fill:rgb(0%,0%,0%);fill-opacity:1;" d="M 7.992188 181.632812 L 7.992188 186.53125 L 8 186.546875 L 8.976562 186.546875 L 8.976562 186.984375 L 6.398438 186.984375 L 6.398438 186.546875 L 7.375 186.546875 L 7.390625 186.53125 L 7.390625 182.421875 C 7.054688 182.53125 6.707031 182.601562 6.359375 182.59375 L 6.359375 182.152344 C 6.882812 182.160156 7.453125 182.015625 7.851562 181.632812 Z M 7.992188 181.632812 Z M 7.992188 181.632812 "/>
<path style=" stroke:none;fill-rule:nonzero;fill:rgb(0%,0%,0%);fill-opacity:1;" d="M 11.023438 186.347656 L 11.023438 186.984375 L 10.382812 186.984375 L 10.382812 186.347656 Z M 11.023438 186.347656 Z M 11.023438 186.347656 "/>
<path style=" stroke:none;fill-rule:nonzero;fill:rgb(0%,0%,0%);fill-opacity:1;" d="M 13.914062 181.632812 C 14.667969 181.691406 15.167969 182.378906 15.300781 183.078125 C 15.375 183.398438 15.390625 183.699219 15.421875 184.015625 L 15.421875 184.824219 C 15.382812 185.652344 15.183594 186.738281 14.285156 187.070312 C 13.507812 187.382812 12.597656 186.898438 12.367188 186.101562 C 12.191406 185.683594 12.175781 185.253906 12.136719 184.824219 L 12.136719 184.015625 C 12.175781 183.191406 12.351562 182.09375 13.238281 181.730469 L 13.277344 181.714844 L 13.308594 181.707031 L 13.351562 181.691406 L 13.46875 181.660156 L 13.539062 181.640625 L 13.628906 181.640625 L 13.644531 181.632812 Z M 13.914062 181.632812 Z M 13.667969 182.117188 C 13 182.199219 12.800781 183 12.753906 183.539062 L 12.753906 183.753906 L 12.738281 183.769531 L 12.738281 184.871094 C 12.785156 185.445312 12.824219 186.183594 13.351562 186.5625 C 13.835938 186.898438 14.476562 186.523438 14.613281 186.007812 C 14.753906 185.625 14.785156 185.253906 14.816406 184.871094 L 14.816406 183.769531 C 14.769531 183.191406 14.691406 182.378906 14.023438 182.152344 L 13.96875 182.132812 L 13.953125 182.117188 L 13.882812 182.117188 L 13.867188 182.101562 L 13.683594 182.101562 Z M 13.667969 182.117188 Z M 13.667969 182.117188 "/>
<path style=" stroke:none;fill-rule:nonzero;fill:rgb(0%,0%,0%);fill-opacity:1;" d="M 5.160156 155.21875 L 5.160156 155.660156 L 3.078125 155.660156 L 3.078125 155.21875 Z M 5.160156 155.21875 Z M 5.160156 155.21875 "/>
<path style=" stroke:none;fill-rule:nonzero;fill:rgb(0%,0%,0%);fill-opacity:1;" d="M 7.746094 151.835938 C 8.5 151.890625 9 152.582031 9.136719 153.28125 C 9.207031 153.597656 9.222656 153.898438 9.253906 154.214844 L 9.253906 155.027344 C 9.214844 155.851562 9.015625 156.9375 8.121094 157.273438 C 7.339844 157.582031 6.429688 157.097656 6.199219 156.304688 C 6.023438 155.882812 6.007812 155.453125 5.96875 155.027344 L 5.96875 154.214844 C 6.007812 153.390625 6.183594 152.296875 7.070312 151.929688 L 7.113281 151.914062 L 7.144531 151.90625 L 7.183594 151.890625 L 7.300781 151.859375 L 7.375 151.84375 L 7.460938 151.84375 L 7.476562 151.835938 Z M 7.746094 151.835938 Z M 7.5 152.320312 C 6.832031 152.398438 6.636719 153.199219 6.585938 153.742188 L 6.585938 153.953125 L 6.570312 153.972656 L 6.570312 155.074219 C 6.621094 155.644531 6.660156 156.382812 7.183594 156.765625 C 7.667969 157.097656 8.308594 156.726562 8.445312 156.207031 C 8.585938 155.828125 8.621094 155.453125 8.652344 155.074219 L 8.652344 153.972656 C 8.605469 153.390625 8.523438 152.582031 7.859375 152.351562 L 7.800781 152.335938 L 7.785156 152.320312 L 7.714844 152.320312 L 7.699219 152.304688 L 7.515625 152.304688 Z M 7.5 152.320312 Z M 7.5 152.320312 "/>
<path style=" stroke:none;fill-rule:nonzero;fill:rgb(0%,0%,0%);fill-opacity:1;" d="M 11.023438 156.550781 L 11.023438 157.183594 L 10.382812 157.183594 L 10.382812 156.550781 Z M 11.023438 156.550781 Z M 11.023438 156.550781 "/>
<path style=" stroke:none;fill-rule:nonzero;fill:rgb(0%,0%,0%);fill-opacity:1;" d="M 15.089844 152.003906 L 15.089844 152.496094 L 13.023438 152.496094 L 13.007812 152.503906 L 13.007812 154.128906 C 13.199219 154.003906 13.46875 153.835938 13.722656 153.828125 C 14.621094 153.734375 15.308594 154.613281 15.351562 155.429688 C 15.476562 156.472656 14.5 157.503906 13.453125 157.34375 C 12.929688 157.328125 12.421875 157.019531 12.121094 156.589844 C 12.207031 156.472656 12.277344 156.265625 12.382812 156.191406 C 12.753906 156.921875 13.960938 157.21875 14.445312 156.445312 C 14.753906 155.867188 14.746094 155.128906 14.390625 154.574219 C 13.976562 154.042969 13.160156 154.367188 12.96875 154.929688 L 12.453125 154.929688 L 12.453125 152.003906 Z M 15.089844 152.003906 Z M 15.089844 152.003906 "/>
<path style=" stroke:none;fill-rule:nonzero;fill:rgb(0%,0%,0%);fill-opacity:1;" d="M 7.746094 122.035156 C 8.5 122.09375 9 122.78125 9.136719 123.480469 C 9.207031 123.800781 9.222656 124.101562 9.253906 124.417969 L 9.253906 125.226562 C 9.214844 126.054688 9.015625 127.140625 8.121094 127.472656 C 7.339844 127.785156 6.429688 127.300781 6.199219 126.503906 C 6.023438 126.085938 6.007812 125.65625 5.96875 125.226562 L 5.96875 124.417969 C 6.007812 123.59375 6.183594 122.496094 7.070312 122.132812 L 7.113281 122.117188 L 7.144531 122.109375 L 7.183594 122.09375 L 7.300781 122.0625 L 7.375 122.042969 L 7.460938 122.042969 L 7.476562 122.035156 Z M 7.746094 122.035156 Z M 7.5 122.519531 C 6.832031 122.601562 6.636719 123.402344 6.585938 123.941406 L 6.585938 124.15625 L 6.570312 124.171875 L 6.570312 125.273438 C 6.621094 125.847656 6.660156 126.585938 7.183594 126.964844 C 7.667969 127.300781 8.308594 126.925781 8.445312 126.410156 C 8.585938 126.027344 8.621094 125.65625 8.652344 125.273438 L 8.652344 124.171875 C 8.605469 123.59375 8.523438 122.78125 7.859375 122.550781 L 7.800781 122.535156 L 7.785156 122.519531 L 7.714844 122.519531 L 7.699219 122.503906 L 7.515625 122.503906 Z M 7.5 122.519531 Z M 7.5 122.519531 "/>
<path style=" stroke:none;fill-rule:nonzero;fill:rgb(0%,0%,0%);fill-opacity:1;" d="M 11.023438 126.75 L 11.023438 127.386719 L 10.382812 127.386719 L 10.382812 126.75 Z M 11.023438 126.75 Z M 11.023438 126.75 "/>
<path style=" stroke:none;fill-rule:nonzero;fill:rgb(0%,0%,0%);fill-opacity:1;" d="M 13.914062 122.035156 C 14.667969 122.09375 15.167969 122.78125 15.300781 123.480469 C 15.375 123.800781 15.390625 124.101562 15.421875 124.417969 L 15.421875 125.226562 C 15.382812 126.054688 15.183594 127.140625 14.285156 127.472656 C 13.507812 127.785156 12.597656 127.300781 12.367188 126.503906 C 12.191406 126.085938 12.175781 125.65625 12.136719 125.226562 L 12.136719 124.417969 C 12.175781 123.59375 12.351562 122.496094 13.238281 122.132812 L 13.277344 122.117188 L 13.308594 122.109375 L 13.351562 122.09375 L 13.46875 122.0625 L 13.539062 122.042969 L 13.628906 122.042969 L 13.644531 122.035156 Z M 13.914062 122.035156 Z M 13.667969 122.519531 C 13 122.601562 12.800781 123.402344 12.753906 123.941406 L 12.753906 124.15625 L 12.738281 124.171875 L 12.738281 125.273438 C 12.785156 125.847656 12.824219 126.585938 13.351562 126.964844 C 13.835938 127.300781 14.476562 126.925781 14.613281 126.410156 C 14.753906 126.027344 14.785156 125.65625 14.816406 125.273438 L 14.816406 124.171875 C 14.769531 123.59375 14.691406 122.78125 14.023438 122.550781 L 13.96875 122.535156 L 13.953125 122.519531 L 13.882812 122.519531 L 13.867188 122.503906 L 13.683594 122.503906 Z M 13.667969 122.519531 Z M 13.667969 122.519531 "/>
<path style=" stroke:none;fill-rule:nonzero;fill:rgb(0%,0%,0%);fill-opacity:1;" d="M 7.746094 92.238281 C 8.5 92.292969 9 92.984375 9.136719 93.683594 C 9.207031 94 9.222656 94.300781 9.253906 94.617188 L 9.253906 95.429688 C 9.214844 96.253906 9.015625 97.339844 8.121094 97.675781 C 7.339844 97.984375 6.429688 97.5 6.199219 96.707031 C 6.023438 96.285156 6.007812 95.855469 5.96875 95.429688 L 5.96875 94.617188 C 6.007812 93.792969 6.183594 92.699219 7.070312 92.332031 L 7.113281 92.316406 L 7.144531 92.308594 L 7.183594 92.292969 L 7.300781 92.261719 L 7.375 92.246094 L 7.460938 92.246094 L 7.476562 92.238281 Z M 7.746094 92.238281 Z M 7.5 92.722656 C 6.832031 92.800781 6.636719 93.601562 6.585938 94.144531 L 6.585938 94.355469 L 6.570312 94.371094 L 6.570312 95.476562 C 6.621094 96.046875 6.660156 96.785156 7.183594 97.167969 C 7.667969 97.5 8.308594 97.128906 8.445312 96.609375 C 8.585938 96.230469 8.621094 95.855469 8.652344 95.476562 L 8.652344 94.371094 C 8.605469 93.792969 8.523438 92.984375 7.859375 92.753906 L 7.800781 92.738281 L 7.785156 92.722656 L 7.714844 92.722656 L 7.699219 92.707031 L 7.515625 92.707031 Z M 7.5 92.722656 Z M 7.5 92.722656 "/>
<path style=" stroke:none;fill-rule:nonzero;fill:rgb(0%,0%,0%);fill-opacity:1;" d="M 11.023438 96.953125 L 11.023438 97.585938 L 10.382812 97.585938 L 10.382812 96.953125 Z M 11.023438 96.953125 Z M 11.023438 96.953125 "/>
<path style=" stroke:none;fill-rule:nonzero;fill:rgb(0%,0%,0%);fill-opacity:1;" d="M 15.089844 92.40625 L 15.089844 92.898438 L 13.023438 92.898438 L 13.007812 92.90625 L 13.007812 94.53125 C 13.199219 94.40625 13.46875 94.238281 13.722656 94.230469 C 14.621094 94.136719 15.308594 95.015625 15.351562 95.832031 C 15.476562 96.875 14.5 97.90625 13.453125 97.746094 C 12.929688 97.730469 12.421875 97.421875 12.121094 96.992188 C 12.207031 96.875 12.277344 96.667969 12.382812 96.59375 C 12.753906 97.324219 13.960938 97.621094 14.445312 96.847656 C 14.753906 96.269531 14.746094 95.53125 14.390625 94.976562 C 13.976562 94.445312 13.160156 94.769531 12.96875 95.332031 L 12.453125 95.332031 L 12.453125 92.40625 Z M 15.089844 92.40625 Z M 15.089844 92.40625 "/>
<path style=" stroke:none;fill-rule:nonzero;fill:rgb(0%,0%,0%);fill-opacity:1;" d="M 7.992188 62.4375 L 7.992188 67.335938 L 8 67.351562 L 8.976562 67.351562 L 8.976562 67.789062 L 6.398438 67.789062 L 6.398438 67.351562 L 7.375 67.351562 L 7.390625 67.335938 L 7.390625 63.226562 C 7.054688 63.335938 6.707031 63.40625 6.359375 63.398438 L 6.359375 62.953125 C 6.882812 62.964844 7.453125 62.820312 7.851562 62.4375 Z M 7.992188 62.4375 Z M 7.992188 62.4375 "/>
<path style=" stroke:none;fill-rule:nonzero;fill:rgb(0%,0%,0%);fill-opacity:1;" d="M 11.023438 67.152344 L 11.023438 67.789062 L 10.382812 67.789062 L 10.382812 67.152344 Z M 11.023438 67.152344 Z M 11.023438 67.152344 "/>
<path style=" stroke:none;fill-rule:nonzero;fill:rgb(0%,0%,0%);fill-opacity:1;" d="M 13.914062 62.4375 C 14.667969 62.496094 15.167969 63.183594 15.300781 63.882812 C 15.375 64.199219 15.390625 64.503906 15.421875 64.820312 L 15.421875 65.628906 C 15.382812 66.457031 15.183594 67.542969 14.285156 67.875 C 13.507812 68.183594 12.597656 67.703125 12.367188 66.90625 C 12.191406 66.488281 12.175781 66.058594 12.136719 65.628906 L 12.136719 64.820312 C 12.175781 63.996094 12.351562 62.898438 13.238281 62.535156 L 13.277344 62.519531 L 13.308594 62.511719 L 13.351562 62.496094 L 13.46875 62.464844 L 13.539062 62.445312 L 13.628906 62.445312 L 13.644531 62.4375 Z M 13.914062 62.4375 Z M 13.667969 62.921875 C 13 63.003906 12.800781 63.804688 12.753906 64.34375 L 12.753906 64.558594 L 12.738281 64.574219 L 12.738281 65.675781 C 12.785156 66.25 12.824219 66.988281 13.351562 67.367188 C 13.835938 67.703125 14.476562 67.328125 14.613281 66.8125 C 14.753906 66.429688 14.785156 66.058594 14.816406 65.675781 L 14.816406 64.574219 C 14.769531 63.996094 14.691406 63.183594 14.023438 62.953125 L 13.96875 62.9375 L 13.953125 62.921875 L 13.882812 62.921875 L 13.867188 62.90625 L 13.683594 62.90625 Z M 13.667969 62.921875 Z M 13.667969 62.921875 "/>
<path style=" stroke:none;fill-rule:nonzero;fill:rgb(0%,0%,0%);fill-opacity:1;" d="M 7.992188 32.640625 L 7.992188 37.539062 L 8 37.554688 L 8.976562 37.554688 L 8.976562 37.988281 L 6.398438 37.988281 L 6.398438 37.554688 L 7.375 37.554688 L 7.390625 37.539062 L 7.390625 33.425781 C 7.054688 33.539062 6.707031 33.609375 6.359375 33.601562 L 6.359375 33.15625 C 6.882812 33.164062 7.453125 33.019531 7.851562 32.640625 Z M 7.992188 32.640625 Z M 7.992188 32.640625 "/>
<path style=" stroke:none;fill-rule:nonzero;fill:rgb(0%,0%,0%);fill-opacity:1;" d="M 11.023438 37.355469 L 11.023438 37.988281 L 10.382812 37.988281 L 10.382812 37.355469 Z M 11.023438 37.355469 Z M 11.023438 37.355469 "/>
<path style=" stroke:none;fill-rule:nonzero;fill:rgb(0%,0%,0%);fill-opacity:1;" d="M 15.089844 32.808594 L 15.089844 33.300781 L 13.023438 33.300781 L 13.007812 33.308594 L 13.007812 34.933594 C 13.199219 34.808594 13.46875 34.640625 13.722656 34.632812 C 14.621094 34.539062 15.308594 35.417969 15.351562 36.234375 C 15.476562 37.277344 14.5 38.308594 13.453125 38.148438 C 12.929688 38.132812 12.421875 37.824219 12.121094 37.394531 C 12.207031 37.277344 12.277344 37.070312 12.382812 36.996094 C 12.753906 37.726562 13.960938 38.023438 14.445312 37.25 C 14.753906 36.671875 14.746094 35.933594 14.390625 35.378906 C 13.976562 34.847656 13.160156 35.171875 12.96875 35.734375 L 12.453125 35.734375 L 12.453125 32.808594 Z M 15.089844 32.808594 Z M 15.089844 32.808594 "/>
<path style=" stroke:none;fill-rule:nonzero;fill:rgb(0%,0%,0%);fill-opacity:1;" d="M 7.660156 2.839844 C 8.578125 2.863281 9.308594 3.808594 9.167969 4.699219 C 9.070312 5.585938 8.238281 6.09375 7.644531 6.652344 L 7.390625 6.914062 L 7.359375 6.929688 L 7.039062 7.238281 L 7.015625 7.253906 L 6.699219 7.570312 L 6.667969 7.585938 L 6.59375 7.660156 L 6.613281 7.667969 L 9.183594 7.667969 L 9.183594 8.191406 L 6.039062 8.191406 L 6.039062 7.714844 L 7.316406 6.4375 C 7.929688 5.90625 8.644531 5.214844 8.53125 4.339844 C 8.46875 3.832031 8.039062 3.363281 7.515625 3.324219 C 6.984375 3.246094 6.515625 3.667969 6.398438 4.175781 L 6.382812 4.199219 L 6.367188 4.253906 L 6.339844 4.339844 L 6.292969 4.515625 L 6.285156 4.554688 C 6.175781 4.421875 6.054688 4.277344 5.96875 4.128906 C 6.128906 3.476562 6.652344 2.863281 7.339844 2.839844 Z M 7.660156 2.839844 Z M 7.660156 2.839844 "/>
<path style=" stroke:none;fill-rule:nonzero;fill:rgb(0%,0%,0%);fill-opacity:1;" d="M 11.023438 7.554688 L 11.023438 8.191406 L 10.382812 8.191406 L 10.382812 7.554688 Z M 11.023438 7.554688 Z M 11.023438 7.554688 "/>
<path style=" stroke:none;fill-rule:nonzero;fill:rgb(0%,0%,0%);fill-opacity:1;" d="M 13.914062 2.839844 C 14.667969 2.898438 15.167969 3.585938 15.300781 4.285156 C 15.375 4.601562 15.390625 4.90625 15.421875 5.222656 L 15.421875 6.03125 C 15.382812 6.859375 15.183594 7.945312 14.285156 8.277344 C 13.507812 8.585938 12.597656 8.105469 12.367188 7.308594 C 12.191406 6.890625 12.175781 6.460938 12.136719 6.03125 L 12.136719 5.222656 C 12.175781 4.398438 12.351562 3.300781 13.238281 2.9375 L 13.277344 2.921875 L 13.308594 2.914062 L 13.351562 2.898438 L 13.46875 2.863281 L 13.539062 2.847656 L 13.628906 2.847656 L 13.644531 2.839844 Z M 13.914062 2.839844 Z M 13.667969 3.324219 C 13 3.40625 12.800781 4.207031 12.753906 4.746094 L 12.753906 4.960938 L 12.738281 4.976562 L 12.738281 6.078125 C 12.785156 6.652344 12.824219 7.390625 13.351562 7.769531 C 13.835938 8.105469 14.476562 7.730469 14.613281 7.214844 C 14.753906 6.832031 14.785156 6.460938 14.816406 6.078125 L 14.816406 4.976562 C 14.769531 4.398438 14.691406 3.585938 14.023438 3.355469 L 13.96875 3.339844 L 13.953125 3.324219 L 13.882812 3.324219 L 13.867188 3.308594 L 13.683594 3.308594 Z M 13.667969 3.324219 Z M 13.667969 3.324219 "/>
<path style="fill:none;stroke-width:0.02;stroke-linecap:butt;stroke-linejoin:miter;stroke:rgb(0%,0%,0%);stroke-opacity:1;stroke-miterlimit:10;" d="M 11.789944 1.479632 L 11.684937 1.479632 " transform="matrix(28.346457,0,0,-28.346457,1,256.11811)"/>
<path style="fill:none;stroke-width:0.02;stroke-linecap:butt;stroke-linejoin:miter;stroke:rgb(0%,0%,0%);stroke-opacity:1;stroke-miterlimit:10;" d="M 11.789944 2.530938 L 11.684937 2.530938 " transform="matrix(28.346457,0,0,-28.346457,1,256.11811)"/>
<path style="fill:none;stroke-width:0.02;stroke-linecap:butt;stroke-linejoin:miter;stroke:rgb(0%,0%,0%);stroke-opacity:1;stroke-miterlimit:10;" d="M 11.789944 3.582105 L 11.684937 3.582105 " transform="matrix(28.346457,0,0,-28.346457,1,256.11811)"/>
<path style="fill:none;stroke-width:0.02;stroke-linecap:butt;stroke-linejoin:miter;stroke:rgb(0%,0%,0%);stroke-opacity:1;stroke-miterlimit:10;" d="M 11.789944 4.63341 L 11.684937 4.63341 " transform="matrix(28.346457,0,0,-28.346457,1,256.11811)"/>
<path style="fill:none;stroke-width:0.02;stroke-linecap:butt;stroke-linejoin:miter;stroke:rgb(0%,0%,0%);stroke-opacity:1;stroke-miterlimit:10;" d="M 11.789944 5.684578 L 11.684937 5.684578 " transform="matrix(28.346457,0,0,-28.346457,1,256.11811)"/>
<path style="fill:none;stroke-width:0.02;stroke-linecap:butt;stroke-linejoin:miter;stroke:rgb(0%,0%,0%);stroke-opacity:1;stroke-miterlimit:10;" d="M 11.789944 6.735883 L 11.684937 6.735883 " transform="matrix(28.346457,0,0,-28.346457,1,256.11811)"/>
<path style="fill:none;stroke-width:0.02;stroke-linecap:butt;stroke-linejoin:miter;stroke:rgb(0%,0%,0%);stroke-opacity:1;stroke-miterlimit:10;" d="M 11.789944 7.787051 L 11.684937 7.787051 " transform="matrix(28.346457,0,0,-28.346457,1,256.11811)"/>
<path style="fill:none;stroke-width:0.02;stroke-linecap:round;stroke-linejoin:miter;stroke:rgb(0%,0%,0%);stroke-opacity:1;stroke-miterlimit:10;" d="M 11.789944 0.428465 L 11.789944 8.838356 " transform="matrix(28.346457,0,0,-28.346457,1,256.11811)"/>
<path style="fill:none;stroke-width:0.02;stroke-linecap:butt;stroke-linejoin:miter;stroke:rgb(0%,0%,0%);stroke-opacity:1;stroke-miterlimit:10;" d="M 1.928427 0.428465 L 1.928427 0.533333 " transform="matrix(28.346457,0,0,-28.346457,1,256.11811)"/>
<path style="fill:none;stroke-width:0.02;stroke-linecap:butt;stroke-linejoin:miter;stroke:rgb(0%,0%,0%);stroke-opacity:1;stroke-miterlimit:10;" d="M 3.16122 0.428465 L 3.16122 0.533333 " transform="matrix(28.346457,0,0,-28.346457,1,256.11811)"/>
<path style="fill:none;stroke-width:0.02;stroke-linecap:butt;stroke-linejoin:miter;stroke:rgb(0%,0%,0%);stroke-opacity:1;stroke-miterlimit:10;" d="M 4.393875 0.428465 L 4.393875 0.533333 " transform="matrix(28.346457,0,0,-28.346457,1,256.11811)"/>
<path style="fill:none;stroke-width:0.02;stroke-linecap:butt;stroke-linejoin:miter;stroke:rgb(0%,0%,0%);stroke-opacity:1;stroke-miterlimit:10;" d="M 5.62653 0.428465 L 5.62653 0.533333 " transform="matrix(28.346457,0,0,-28.346457,1,256.11811)"/>
<path style="fill:none;stroke-width:0.02;stroke-linecap:butt;stroke-linejoin:miter;stroke:rgb(0%,0%,0%);stroke-opacity:1;stroke-miterlimit:10;" d="M 6.859185 0.428465 L 6.859185 0.533333 " transform="matrix(28.346457,0,0,-28.346457,1,256.11811)"/>
<path style="fill:none;stroke-width:0.02;stroke-linecap:butt;stroke-linejoin:miter;stroke:rgb(0%,0%,0%);stroke-opacity:1;stroke-miterlimit:10;" d="M 8.091978 0.428465 L 8.091978 0.533333 " transform="matrix(28.346457,0,0,-28.346457,1,256.11811)"/>
<path style="fill:none;stroke-width:0.02;stroke-linecap:butt;stroke-linejoin:miter;stroke:rgb(0%,0%,0%);stroke-opacity:1;stroke-miterlimit:10;" d="M 9.324633 0.428465 L 9.324633 0.533333 " transform="matrix(28.346457,0,0,-28.346457,1,256.11811)"/>
<path style="fill:none;stroke-width:0.02;stroke-linecap:butt;stroke-linejoin:miter;stroke:rgb(0%,0%,0%);stroke-opacity:1;stroke-miterlimit:10;" d="M 10.557288 0.428465 L 10.557288 0.533333 " transform="matrix(28.346457,0,0,-28.346457,1,256.11811)"/>
<path style="fill:none;stroke-width:0.02;stroke-linecap:round;stroke-linejoin:miter;stroke:rgb(0%,0%,0%);stroke-opacity:1;stroke-miterlimit:10;" d="M 0.695771 0.428465 L 11.789944 0.428465 " transform="matrix(28.346457,0,0,-28.346457,1,256.11811)"/>
<path style=" stroke:none;fill-rule:nonzero;fill:rgb(0%,0%,0%);fill-opacity:1;" d="M 21.105469 248.792969 L 21.105469 253.6875 L 21.113281 253.707031 L 22.089844 253.707031 L 22.089844 254.140625 L 19.507812 254.140625 L 19.507812 253.707031 L 20.484375 253.707031 L 20.5 253.6875 L 20.5 249.578125 C 20.167969 249.6875 19.820312 249.761719 19.46875 249.753906 L 19.46875 249.308594 C 19.992188 249.316406 20.566406 249.171875 20.960938 248.792969 Z M 21.105469 248.792969 Z M 21.105469 248.792969 "/>
<path style=" stroke:none;fill-rule:nonzero;fill:rgb(0%,0%,0%);fill-opacity:1;" d="M 55.714844 248.792969 C 56.632812 248.816406 57.363281 249.761719 57.222656 250.648438 C 57.125 251.539062 56.292969 252.046875 55.699219 252.601562 L 55.445312 252.863281 L 55.410156 252.878906 L 55.09375 253.1875 L 55.070312 253.207031 L 54.753906 253.523438 L 54.722656 253.539062 L 54.648438 253.609375 L 54.664062 253.617188 L 57.238281 253.617188 L 57.238281 254.140625 L 54.09375 254.140625 L 54.09375 253.664062 L 55.371094 252.386719 C 55.984375 251.855469 56.699219 251.164062 56.585938 250.292969 C 56.523438 249.785156 56.09375 249.316406 55.570312 249.277344 C 55.039062 249.195312 54.570312 249.617188 54.453125 250.125 L 54.4375 250.148438 L 54.417969 250.203125 L 54.394531 250.292969 L 54.347656 250.46875 L 54.339844 250.507812 C 54.230469 250.371094 54.109375 250.230469 54.023438 250.078125 C 54.179688 249.425781 54.707031 248.816406 55.394531 248.792969 Z M 55.714844 248.792969 Z M 55.714844 248.792969 "/>
<path style=" stroke:none;fill-rule:nonzero;fill:rgb(0%,0%,0%);fill-opacity:1;" d="M 90.757812 248.792969 C 91.457031 248.824219 92.1875 249.46875 92.019531 250.203125 C 91.941406 250.703125 91.59375 251.117188 91.15625 251.339844 C 91.863281 251.5625 92.410156 252.308594 92.21875 253.046875 C 92.027344 254.007812 90.925781 254.539062 90.035156 254.246094 C 89.609375 254.117188 89.171875 253.847656 88.964844 253.453125 C 89.011719 253.332031 88.996094 253.125 89.050781 253.046875 C 89.472656 253.664062 90.363281 254.085938 91.0625 253.738281 C 91.824219 253.253906 91.703125 251.839844 90.78125 251.601562 L 90.710938 251.601562 L 90.695312 251.585938 L 89.957031 251.585938 L 89.957031 251.109375 C 90.410156 251.101562 90.972656 251.046875 91.226562 250.578125 C 91.496094 250.171875 91.472656 249.507812 90.957031 249.308594 C 90.347656 249.070312 89.59375 249.457031 89.363281 250.078125 C 89.265625 249.941406 89.171875 249.808594 89.078125 249.664062 C 89.402344 249.078125 90.09375 248.730469 90.757812 248.792969 Z M 90.757812 248.792969 Z M 90.757812 248.792969 "/>
<path style=" stroke:none;fill-rule:nonzero;fill:rgb(0%,0%,0%);fill-opacity:1;" d="M 126.503906 248.957031 L 126.503906 252.300781 L 126.519531 252.316406 L 127.304688 252.316406 L 127.304688 252.792969 L 126.519531 252.792969 L 126.503906 252.800781 L 126.503906 254.140625 L 125.898438 254.140625 L 125.898438 252.800781 L 125.882812 252.792969 L 123.789062 252.792969 L 123.789062 252.300781 C 124.457031 251.1875 125.121094 250.070312 125.789062 248.957031 Z M 126.503906 248.957031 Z M 125.914062 249.261719 C 125.757812 250.085938 125.25 250.792969 124.867188 251.515625 C 124.71875 251.777344 124.519531 252.0625 124.40625 252.316406 L 125.929688 252.316406 L 125.941406 252.300781 L 125.941406 249.261719 L 125.929688 249.246094 Z M 125.914062 249.261719 Z M 125.914062 249.261719 "/>
<path style=" stroke:none;fill-rule:nonzero;fill:rgb(0%,0%,0%);fill-opacity:1;" d="M 161.800781 248.957031 L 161.800781 249.449219 L 159.738281 249.449219 L 159.722656 249.457031 L 159.722656 251.085938 C 159.914062 250.960938 160.183594 250.792969 160.4375 250.785156 C 161.335938 250.6875 162.023438 251.570312 162.0625 252.386719 C 162.191406 253.425781 161.214844 254.460938 160.167969 254.300781 C 159.644531 254.285156 159.136719 253.976562 158.835938 253.546875 C 158.921875 253.425781 158.992188 253.222656 159.097656 253.148438 C 159.46875 253.878906 160.675781 254.171875 161.160156 253.402344 C 161.46875 252.824219 161.460938 252.085938 161.105469 251.53125 C 160.691406 251 159.875 251.324219 159.683594 251.886719 L 159.167969 251.886719 L 159.167969 248.957031 Z M 161.800781 248.957031 Z M 161.800781 248.957031 "/>
<path style=" stroke:none;fill-rule:nonzero;fill:rgb(0%,0%,0%);fill-opacity:1;" d="M 196.085938 248.792969 C 196.292969 248.824219 196.53125 248.847656 196.730469 248.941406 L 196.730469 249.402344 C 196.179688 249.164062 195.46875 249.132812 195.039062 249.617188 C 194.65625 250.023438 194.484375 250.625 194.46875 251.15625 C 194.925781 250.546875 195.96875 250.203125 196.53125 250.839844 C 197.09375 251.492188 197.1875 252.425781 196.933594 253.222656 C 196.65625 253.855469 196.015625 254.433594 195.300781 254.300781 C 194.332031 254.222656 193.894531 253.140625 193.847656 252.316406 C 193.664062 251.148438 193.941406 249.679688 195.054688 249.015625 L 195.070312 249.007812 L 195.238281 248.917969 L 195.285156 248.902344 L 195.308594 248.886719 L 195.441406 248.847656 L 195.554688 248.816406 L 195.625 248.800781 L 195.714844 248.800781 L 195.730469 248.792969 Z M 196.085938 248.792969 Z M 195.308594 251 C 194.617188 251.117188 194.394531 251.953125 194.484375 252.515625 C 194.523438 253.046875 194.730469 253.753906 195.339844 253.863281 C 195.992188 253.953125 196.410156 253.253906 196.425781 252.6875 C 196.460938 252.117188 196.425781 251.46875 195.925781 251.09375 L 195.816406 251.039062 L 195.730469 251.015625 L 195.65625 251 L 195.640625 250.984375 L 195.324219 250.984375 Z M 195.308594 251 Z M 195.308594 251 "/>
<path style=" stroke:none;fill-rule:nonzero;fill:rgb(0%,0%,0%);fill-opacity:1;" d="M 232.019531 248.957031 L 232.019531 249.457031 C 230.894531 250.777344 230.257812 252.554688 230.265625 254.230469 L 229.625 254.230469 C 229.609375 252.539062 230.296875 250.753906 231.503906 249.507812 L 231.488281 249.492188 L 228.734375 249.492188 L 228.734375 248.957031 L 232.019531 248.957031 L 232.019531 249.457031 Z M 232.019531 248.957031 Z M 232.019531 248.957031 "/>
<path style=" stroke:none;fill-rule:nonzero;fill:rgb(0%,0%,0%);fill-opacity:1;" d="M 265.472656 248.792969 C 266.3125 248.824219 267.105469 249.730469 266.773438 250.570312 C 266.628906 250.960938 266.234375 251.195312 265.90625 251.363281 C 266.71875 251.601562 267.210938 252.546875 266.84375 253.324219 C 266.464844 254.332031 265.019531 254.648438 264.226562 253.917969 C 263.503906 253.347656 263.480469 252.109375 264.28125 251.601562 C 264.398438 251.476562 264.621094 251.433594 264.726562 251.339844 C 264.035156 251.140625 263.566406 250.339844 263.890625 249.664062 C 264.152344 249.0625 264.828125 248.730469 265.472656 248.792969 Z M 265.472656 248.792969 Z M 265.167969 249.246094 C 264.582031 249.261719 264.167969 249.925781 264.367188 250.449219 C 264.597656 251.355469 266.113281 251.324219 266.289062 250.394531 C 266.445312 249.878906 266.035156 249.261719 265.472656 249.246094 L 265.453125 249.238281 L 265.183594 249.238281 Z M 265.167969 249.246094 Z M 265.183594 251.601562 C 264.496094 251.648438 264.152344 252.476562 264.335938 253.0625 C 264.453125 253.894531 265.644531 254.140625 266.113281 253.476562 C 266.566406 252.863281 266.34375 251.769531 265.527344 251.601562 L 265.453125 251.601562 L 265.4375 251.585938 L 265.191406 251.585938 Z M 265.183594 251.601562 Z M 265.183594 251.601562 "/>
<path style=" stroke:none;fill-rule:nonzero;fill:rgb(0%,0%,0%);fill-opacity:1;" d="M 300.429688 248.792969 C 301.382812 248.894531 301.792969 249.976562 301.859375 250.800781 C 301.96875 251.871094 301.84375 253.125 300.96875 253.894531 C 300.421875 254.445312 299.453125 254.460938 298.867188 253.96875 C 298.9375 253.832031 299.015625 253.671875 299.105469 253.5625 C 299.621094 254.0625 300.523438 253.917969 300.859375 253.277344 C 301.097656 252.886719 301.238281 252.386719 301.230469 251.960938 C 300.761719 252.5625 299.730469 252.910156 299.167969 252.277344 C 298.59375 251.617188 298.492188 250.65625 298.777344 249.863281 C 299.070312 249.238281 299.699219 248.695312 300.429688 248.792969 Z M 300.429688 248.792969 Z M 300.167969 249.246094 C 299.59375 249.292969 299.300781 249.925781 299.261719 250.425781 C 299.238281 250.992188 299.261719 251.648438 299.761719 252.015625 C 300.316406 252.355469 301.03125 251.941406 301.160156 251.339844 C 301.308594 250.753906 301.214844 250.125 300.914062 249.578125 C 300.746094 249.347656 300.445312 249.179688 300.167969 249.246094 Z M 300.167969 249.246094 Z M 300.167969 249.246094 "/>
<path style=" stroke:none;fill-rule:nonzero;fill:rgb(0%,0%,0%);fill-opacity:1;" d="M 333.601562 248.792969 L 333.601562 253.6875 L 333.609375 253.707031 L 334.585938 253.707031 L 334.585938 254.140625 L 332.007812 254.140625 L 332.007812 253.707031 L 332.980469 253.707031 L 333 253.6875 L 333 249.578125 C 332.664062 249.6875 332.316406 249.761719 331.964844 249.753906 L 331.964844 249.308594 C 332.492188 249.316406 333.0625 249.171875 333.457031 248.792969 Z M 333.601562 248.792969 Z M 333.601562 248.792969 "/>
<path style=" stroke:none;fill-rule:nonzero;fill:rgb(0%,0%,0%);fill-opacity:1;" d="M 337.324219 248.792969 C 338.078125 248.847656 338.578125 249.539062 338.710938 250.238281 C 338.785156 250.554688 338.800781 250.855469 338.832031 251.171875 L 338.832031 251.984375 C 338.792969 252.808594 338.59375 253.894531 337.695312 254.230469 C 336.917969 254.539062 336.007812 254.054688 335.777344 253.261719 C 335.601562 252.839844 335.585938 252.410156 335.546875 251.984375 L 335.546875 251.171875 C 335.585938 250.347656 335.761719 249.253906 336.648438 248.886719 L 336.6875 248.871094 L 336.71875 248.863281 L 336.761719 248.847656 L 336.878906 248.816406 L 336.949219 248.800781 L 337.039062 248.800781 L 337.054688 248.792969 Z M 337.324219 248.792969 Z M 337.078125 249.277344 C 336.410156 249.355469 336.210938 250.15625 336.164062 250.695312 L 336.164062 250.910156 L 336.148438 250.925781 L 336.148438 252.03125 C 336.195312 252.601562 336.238281 253.339844 336.761719 253.722656 C 337.246094 254.054688 337.886719 253.679688 338.023438 253.164062 C 338.164062 252.785156 338.195312 252.410156 338.230469 252.03125 L 338.230469 250.925781 C 338.179688 250.347656 338.101562 249.539062 337.433594 249.308594 L 337.378906 249.292969 L 337.363281 249.277344 L 337.292969 249.277344 L 337.277344 249.261719 L 337.09375 249.261719 Z M 337.078125 249.277344 Z M 337.078125 249.277344 "/>
<path style="fill:none;stroke-width:0.02;stroke-linecap:butt;stroke-linejoin:miter;stroke:rgb(0%,0%,0%);stroke-opacity:1;stroke-miterlimit:10;" d="M 1.928427 8.838356 L 1.928427 8.73335 " transform="matrix(28.346457,0,0,-28.346457,1,256.11811)"/>
<path style="fill:none;stroke-width:0.02;stroke-linecap:butt;stroke-linejoin:miter;stroke:rgb(0%,0%,0%);stroke-opacity:1;stroke-miterlimit:10;" d="M 3.16122 8.838356 L 3.16122 8.73335 " transform="matrix(28.346457,0,0,-28.346457,1,256.11811)"/>
<path style="fill:none;stroke-width:0.02;stroke-linecap:butt;stroke-linejoin:miter;stroke:rgb(0%,0%,0%);stroke-opacity:1;stroke-miterlimit:10;" d="M 4.393875 8.838356 L 4.393875 8.73335 " transform="matrix(28.346457,0,0,-28.346457,1,256.11811)"/>
<path style="fill:none;stroke-width:0.02;stroke-linecap:butt;stroke-linejoin:miter;stroke:rgb(0%,0%,0%);stroke-opacity:1;stroke-miterlimit:10;" d="M 5.62653 8.838356 L 5.62653 8.73335 " transform="matrix(28.346457,0,0,-28.346457,1,256.11811)"/>
<path style="fill:none;stroke-width:0.02;stroke-linecap:butt;stroke-linejoin:miter;stroke:rgb(0%,0%,0%);stroke-opacity:1;stroke-miterlimit:10;" d="M 6.859185 8.838356 L 6.859185 8.73335 " transform="matrix(28.346457,0,0,-28.346457,1,256.11811)"/>
<path style="fill:none;stroke-width:0.02;stroke-linecap:butt;stroke-linejoin:miter;stroke:rgb(0%,0%,0%);stroke-opacity:1;stroke-miterlimit:10;" d="M 8.091978 8.838356 L 8.091978 8.73335 " transform="matrix(28.346457,0,0,-28.346457,1,256.11811)"/>
<path style="fill:none;stroke-width:0.02;stroke-linecap:butt;stroke-linejoin:miter;stroke:rgb(0%,0%,0%);stroke-opacity:1;stroke-miterlimit:10;" d="M 9.324633 8.838356 L 9.324633 8.73335 " transform="matrix(28.346457,0,0,-28.346457,1,256.11811)"/>
<path style="fill:none;stroke-width:0.02;stroke-linecap:butt;stroke-linejoin:miter;stroke:rgb(0%,0%,0%);stroke-opacity:1;stroke-miterlimit:10;" d="M 10.557288 8.838356 L 10.557288 8.73335 " transform="matrix(28.346457,0,0,-28.346457,1,256.11811)"/>
<path style="fill:none;stroke-width:0.02;stroke-linecap:round;stroke-linejoin:miter;stroke:rgb(0%,0%,0%);stroke-opacity:1;stroke-miterlimit:10;" d="M 0.695771 8.838356 L 11.789944 8.838356 " transform="matrix(28.346457,0,0,-28.346457,1,256.11811)"/>
<path style="fill:none;stroke-width:0.2;stroke-linecap:butt;stroke-linejoin:miter;stroke:rgb(93.333333%,50.980392%,93.333333%);stroke-opacity:1;stroke-miterlimit:10;" d="M 0.695771 5.285222 L 1.928427 6.629774 L 3.16122 5.210119 L 4.393875 5.678101 L 5.62653 6.289123 L 6.859185 3.324274 L 8.091978 6.218981 L 9.324633 3.784814 L 10.557288 4.097905 L 11.789944 5.547325 " transform="matrix(28.346457,0,0,-28.346457,1,256.11811)"/>
<path style="fill:none;stroke-width:0.2;stroke-linecap:butt;stroke-linejoin:miter;stroke:rgb(0%,0%,50.196078%);stroke-opacity:1;stroke-miterlimit:10;" d="M 0.695771 4.113339 L 1.928427 3.575904 L 3.16122 0.968793 L 4.393875 7.153015 L 5.62653 3.366442 L 6.859185 6.101021 L 8.091978 6.890224 L 9.324633 7.242037 L 10.557288 3.86791 L 11.789944 5.345029 " transform="matrix(28.346457,0,0,-28.346457,1,256.11811)"/>
<path style="fill:none;stroke-width:0.2;stroke-linecap:butt;stroke-linejoin:miter;stroke:rgb(100%,64.705882%,0%);stroke-opacity:1;stroke-miterlimit:10;" d="M 0.695771 7.85237 L 1.928427 3.609941 L 3.16122 3.888443 L 4.393875 5.126886 L 5.62653 5.647509 L 6.859185 6.760137 L 8.091978 4.042645 L 9.324633 3.153811 L 10.557288 4.128497 L 11.789944 7.522192 " transform="matrix(28.346457,0,0,-28.346457,1,256.11811)"/>
</g>
</svg>
