<?xml version="1.0" encoding="UTF-8"?>
<svg xmlns="http://www.w3.org/2000/svg" xmlns:xlink="http://www.w3.org/1999/xlink" width="285.464567pt" height="228.771654pt" viewBox="0 0 285.464567 228.771654" version="1.1">
<g id="surface1">
<path style="fill:none;stroke-width:0.02;stroke-linecap:butt;stroke-linejoin:miter;stroke:rgb(0%,0%,0%);stroke-opacity:1;stroke-miterlimit:10;" d="M 0.695771 1.354686 L 0.800778 1.354686 " transform="matrix(28.346457,0,0,-28.346457,1,227.771654)"/>
<path style="fill:none;stroke-width:0.02;stroke-linecap:butt;stroke-linejoin:miter;stroke:rgb(0%,0%,0%);stroke-opacity:1;stroke-miterlimit:10;" d="M 0.695771 2.280866 L 0.800778 2.280866 " transform="matrix(28.346457,0,0,-28.346457,1,227.771654)"/>
<path style="fill:none;stroke-width:0.02;stroke-linecap:butt;stroke-linejoin:miter;stroke:rgb(0%,0%,0%);stroke-opacity:1;stroke-miterlimit:10;" d="M 0.695771 3.207045 L 0.800778 3.207045 " transform="matrix(28.346457,0,0,-28.346457,1,227.771654)"/>
<path style="fill:none;stroke-width:0.02;stroke-linecap:butt;stroke-linejoin:miter;stroke:rgb(0%,0%,0%);stroke-opacity:1;stroke-miterlimit:10;" d="M 0.695771 4.133363 L 0.800778 4.133363 " transform="matrix(28.346457,0,0,-28.346457,1,227.771654)"/>
<path style="fill:none;stroke-width:0.02;stroke-linecap:butt;stroke-linejoin:miter;stroke:rgb(0%,0%,0%);stroke-opacity:1;stroke-miterlimit:10;" d="M 0.695771 5.059542 L 0.800778 5.059542 " transform="matrix(28.346457,0,0,-28.346457,1,227.771654)"/>
<path style="fill:none;stroke-width:0.02;stroke-linecap:butt;stroke-linejoin:miter;stroke:rgb(0%,0%,0%);stroke-opacity:1;stroke-miterlimit:10;" d="M 0.695771 5.985859 L 0.800778 5.985859 " transform="matrix(28.346457,0,0,-28.346457,1,227.771654)"/>
<path style="fill:none;stroke-width:0.02;stroke-linecap:butt;stroke-linejoin:miter;stroke:rgb(0%,0%,0%);stroke-opacity:1;stroke-miterlimit:10;" d="M 0.695771 6.912039 L 0.800778 6.912039 " transform="matrix(28.346457,0,0,-28.346457,1,227.771654)"/>
<path style="fill:none;stroke-width:0.02;stroke-linecap:round;stroke-linejoin:miter;stroke:rgb(0%,0%,0%);stroke-opacity:1;stroke-miterlimit:10;" d="M 0.695771 0.428369 L 0.695771 7.838356 " transform="matrix(28.346457,0,0,-28.346457,1,227.771654)"/>
<path style=" stroke:none;fill-rule:nonzero;fill:rgb(0%,0%,0%);fill-opacity:1;" d="M 5.160156 216.265625 L 5.160156 216.710938 L 3.078125 216.710938 L 3.078125 216.265625 Z M 5.160156 216.265625 Z M 5.160156 216.265625 "/>
<path style=" stroke:none;fill-rule:nonzero;fill:rgb(0%,0%,0%);fill-opacity:1;" d="M 7.746094 212.886719 C 8.5 212.941406 9 213.632812 9.136719 214.332031 C 9.207031 214.648438 9.222656 214.949219 9.253906 215.265625 L 9.253906 216.078125 C 9.214844 216.902344 9.015625 217.988281 8.121094 218.324219 C 7.339844 218.632812 6.429688 218.148438 6.199219 217.355469 C 6.023438 216.933594 6.007812 216.503906 5.96875 216.078125 L 5.96875 215.265625 C 6.007812 214.441406 6.183594 213.347656 7.070312 212.980469 L 7.113281 212.964844 L 7.144531 212.957031 L 7.183594 212.941406 L 7.300781 212.910156 L 7.375 212.894531 L 7.460938 212.894531 L 7.476562 212.886719 Z M 7.746094 212.886719 Z M 7.5 213.371094 C 6.832031 213.449219 6.636719 214.25 6.585938 214.789062 L 6.585938 215.003906 L 6.570312 215.019531 L 6.570312 216.125 C 6.621094 216.695312 6.660156 217.433594 7.183594 217.816406 C 7.667969 218.148438 8.308594 217.773438 8.445312 217.257812 C 8.585938 216.878906 8.621094 216.503906 8.652344 216.125 L 8.652344 215.019531 C 8.605469 214.441406 8.523438 213.632812 7.859375 213.402344 L 7.800781 213.386719 L 7.785156 213.371094 L 7.714844 213.371094 L 7.699219 213.355469 L 7.515625 213.355469 Z M 7.5 213.371094 Z M 7.5 213.371094 "/>
<path style=" stroke:none;fill-rule:nonzero;fill:rgb(0%,0%,0%);fill-opacity:1;" d="M 11.023438 217.601562 L 11.023438 218.234375 L 10.382812 218.234375 L 10.382812 217.601562 Z M 11.023438 217.601562 Z M 11.023438 217.601562 "/>
<path style=" stroke:none;fill-rule:nonzero;fill:rgb(0%,0%,0%);fill-opacity:1;" d="M 14.730469 213.050781 L 14.730469 216.394531 L 14.746094 216.410156 L 15.53125 216.410156 L 15.53125 216.886719 L 14.746094 216.886719 L 14.730469 216.894531 L 14.730469 218.234375 L 14.128906 218.234375 L 14.128906 216.894531 L 14.113281 216.886719 L 12.015625 216.886719 L 12.015625 216.394531 C 12.683594 215.28125 13.351562 214.164062 14.015625 213.050781 Z M 14.730469 213.050781 Z M 14.144531 213.355469 C 13.984375 214.179688 13.476562 214.886719 13.097656 215.609375 C 12.945312 215.871094 12.746094 216.15625 12.636719 216.410156 L 14.160156 216.410156 L 14.167969 216.394531 L 14.167969 213.355469 L 14.160156 213.339844 Z M 14.144531 213.355469 Z M 14.144531 213.355469 "/>
<path style=" stroke:none;fill-rule:nonzero;fill:rgb(0%,0%,0%);fill-opacity:1;" d="M 5.160156 190.011719 L 5.160156 190.457031 L 3.078125 190.457031 L 3.078125 190.011719 Z M 5.160156 190.011719 Z M 5.160156 190.011719 "/>
<path style=" stroke:none;fill-rule:nonzero;fill:rgb(0%,0%,0%);fill-opacity:1;" d="M 7.746094 186.628906 C 8.5 186.6875 9 187.375 9.136719 188.074219 C 9.207031 188.390625 9.222656 188.695312 9.253906 189.011719 L 9.253906 189.820312 C 9.214844 190.644531 9.015625 191.734375 8.121094 192.066406 C 7.339844 192.375 6.429688 191.890625 6.199219 191.097656 C 6.023438 190.679688 6.007812 190.25 5.96875 189.820312 L 5.96875 189.011719 C 6.007812 188.1875 6.183594 187.089844 7.070312 186.726562 L 7.113281 186.710938 L 7.144531 186.703125 L 7.183594 186.6875 L 7.300781 186.652344 L 7.375 186.636719 L 7.460938 186.636719 L 7.476562 186.628906 Z M 7.746094 186.628906 Z M 7.5 187.113281 C 6.832031 187.195312 6.636719 187.996094 6.585938 188.535156 L 6.585938 188.75 L 6.570312 188.765625 L 6.570312 189.867188 C 6.621094 190.441406 6.660156 191.179688 7.183594 191.558594 C 7.667969 191.890625 8.308594 191.519531 8.445312 191.003906 C 8.585938 190.621094 8.621094 190.25 8.652344 189.867188 L 8.652344 188.765625 C 8.605469 188.1875 8.523438 187.375 7.859375 187.144531 L 7.800781 187.128906 L 7.785156 187.113281 L 7.714844 187.113281 L 7.699219 187.097656 L 7.515625 187.097656 Z M 7.5 187.113281 Z M 7.5 187.113281 "/>
<path style=" stroke:none;fill-rule:nonzero;fill:rgb(0%,0%,0%);fill-opacity:1;" d="M 11.023438 191.34375 L 11.023438 191.980469 L 10.382812 191.980469 L 10.382812 191.34375 Z M 11.023438 191.34375 Z M 11.023438 191.34375 "/>
<path style=" stroke:none;fill-rule:nonzero;fill:rgb(0%,0%,0%);fill-opacity:1;" d="M 13.929688 186.628906 C 14.628906 186.660156 15.359375 187.304688 15.191406 188.042969 C 15.113281 188.542969 14.761719 188.957031 14.328125 189.179688 C 15.03125 189.398438 15.582031 190.144531 15.390625 190.882812 C 15.199219 191.84375 14.097656 192.375 13.207031 192.082031 C 12.777344 191.957031 12.34375 191.6875 12.136719 191.289062 C 12.183594 191.171875 12.167969 190.964844 12.222656 190.882812 C 12.644531 191.503906 13.53125 191.925781 14.230469 191.574219 C 14.992188 191.089844 14.875 189.679688 13.953125 189.441406 L 13.882812 189.441406 L 13.867188 189.425781 L 13.128906 189.425781 L 13.128906 188.949219 C 13.582031 188.941406 14.144531 188.882812 14.398438 188.417969 C 14.667969 188.011719 14.644531 187.34375 14.128906 187.144531 C 13.515625 186.90625 12.761719 187.296875 12.53125 187.917969 C 12.4375 187.78125 12.34375 187.644531 12.246094 187.503906 C 12.570312 186.914062 13.261719 186.566406 13.929688 186.628906 Z M 13.929688 186.628906 Z M 13.929688 186.628906 "/>
<path style=" stroke:none;fill-rule:nonzero;fill:rgb(0%,0%,0%);fill-opacity:1;" d="M 5.160156 163.753906 L 5.160156 164.199219 L 3.078125 164.199219 L 3.078125 163.753906 Z M 5.160156 163.753906 Z M 5.160156 163.753906 "/>
<path style=" stroke:none;fill-rule:nonzero;fill:rgb(0%,0%,0%);fill-opacity:1;" d="M 7.746094 160.375 C 8.5 160.429688 9 161.121094 9.136719 161.820312 C 9.207031 162.136719 9.222656 162.4375 9.253906 162.753906 L 9.253906 163.566406 C 9.214844 164.390625 9.015625 165.476562 8.121094 165.8125 C 7.339844 166.121094 6.429688 165.636719 6.199219 164.84375 C 6.023438 164.421875 6.007812 163.992188 5.96875 163.566406 L 5.96875 162.753906 C 6.007812 161.929688 6.183594 160.835938 7.070312 160.46875 L 7.113281 160.453125 L 7.144531 160.445312 L 7.183594 160.429688 L 7.300781 160.398438 L 7.375 160.382812 L 7.460938 160.382812 L 7.476562 160.375 Z M 7.746094 160.375 Z M 7.5 160.859375 C 6.832031 160.9375 6.636719 161.738281 6.585938 162.28125 L 6.585938 162.492188 L 6.570312 162.507812 L 6.570312 163.613281 C 6.621094 164.183594 6.660156 164.921875 7.183594 165.304688 C 7.667969 165.636719 8.308594 165.265625 8.445312 164.746094 C 8.585938 164.367188 8.621094 163.992188 8.652344 163.613281 L 8.652344 162.507812 C 8.605469 161.929688 8.523438 161.121094 7.859375 160.890625 L 7.800781 160.875 L 7.785156 160.859375 L 7.714844 160.859375 L 7.699219 160.84375 L 7.515625 160.84375 Z M 7.5 160.859375 Z M 7.5 160.859375 "/>
<path style=" stroke:none;fill-rule:nonzero;fill:rgb(0%,0%,0%);fill-opacity:1;" d="M 11.023438 165.089844 L 11.023438 165.722656 L 10.382812 165.722656 L 10.382812 165.089844 Z M 11.023438 165.089844 Z M 11.023438 165.089844 "/>
<path style=" stroke:none;fill-rule:nonzero;fill:rgb(0%,0%,0%);fill-opacity:1;" d="M 13.828125 160.375 C 14.746094 160.398438 15.476562 161.34375 15.335938 162.230469 C 15.238281 163.121094 14.40625 163.628906 13.808594 164.183594 L 13.554688 164.445312 L 13.523438 164.460938 L 13.207031 164.773438 L 13.183594 164.789062 L 12.867188 165.105469 L 12.835938 165.121094 L 12.761719 165.191406 L 12.777344 165.199219 L 15.351562 165.199219 L 15.351562 165.722656 L 12.207031 165.722656 L 12.207031 165.246094 L 13.484375 163.96875 C 14.097656 163.4375 14.808594 162.746094 14.699219 161.875 C 14.636719 161.367188 14.207031 160.898438 13.683594 160.859375 C 13.152344 160.78125 12.683594 161.199219 12.5625 161.707031 L 12.546875 161.730469 L 12.53125 161.789062 L 12.507812 161.875 L 12.460938 162.050781 L 12.453125 162.089844 C 12.34375 161.953125 12.222656 161.8125 12.136719 161.660156 C 12.292969 161.007812 12.816406 160.398438 13.507812 160.375 Z M 13.828125 160.375 Z M 13.828125 160.375 "/>
<path style=" stroke:none;fill-rule:nonzero;fill:rgb(0%,0%,0%);fill-opacity:1;" d="M 5.160156 137.5 L 5.160156 137.945312 L 3.078125 137.945312 L 3.078125 137.5 Z M 5.160156 137.5 Z M 5.160156 137.5 "/>
<path style=" stroke:none;fill-rule:nonzero;fill:rgb(0%,0%,0%);fill-opacity:1;" d="M 7.746094 134.121094 C 8.5 134.175781 9 134.863281 9.136719 135.5625 C 9.207031 135.882812 9.222656 136.183594 9.253906 136.5 L 9.253906 137.308594 C 9.214844 138.136719 9.015625 139.222656 8.121094 139.554688 C 7.339844 139.867188 6.429688 139.382812 6.199219 138.585938 C 6.023438 138.167969 6.007812 137.738281 5.96875 137.308594 L 5.96875 136.5 C 6.007812 135.675781 6.183594 134.578125 7.070312 134.214844 L 7.113281 134.199219 L 7.144531 134.191406 L 7.183594 134.175781 L 7.300781 134.144531 L 7.375 134.128906 L 7.460938 134.128906 L 7.476562 134.121094 Z M 7.746094 134.121094 Z M 7.5 134.601562 C 6.832031 134.683594 6.636719 135.484375 6.585938 136.023438 L 6.585938 136.238281 L 6.570312 136.253906 L 6.570312 137.359375 C 6.621094 137.929688 6.660156 138.667969 7.183594 139.046875 C 7.667969 139.382812 8.308594 139.007812 8.445312 138.492188 C 8.585938 138.113281 8.621094 137.738281 8.652344 137.359375 L 8.652344 136.253906 C 8.605469 135.675781 8.523438 134.863281 7.859375 134.636719 L 7.800781 134.621094 L 7.785156 134.601562 L 7.714844 134.601562 L 7.699219 134.585938 L 7.515625 134.585938 Z M 7.5 134.601562 Z M 7.5 134.601562 "/>
<path style=" stroke:none;fill-rule:nonzero;fill:rgb(0%,0%,0%);fill-opacity:1;" d="M 11.023438 138.832031 L 11.023438 139.46875 L 10.382812 139.46875 L 10.382812 138.832031 Z M 11.023438 138.832031 Z M 11.023438 138.832031 "/>
<path style=" stroke:none;fill-rule:nonzero;fill:rgb(0%,0%,0%);fill-opacity:1;" d="M 14.160156 134.121094 L 14.160156 139.015625 L 14.167969 139.03125 L 15.144531 139.03125 L 15.144531 139.46875 L 12.5625 139.46875 L 12.5625 139.03125 L 13.539062 139.03125 L 13.554688 139.015625 L 13.554688 134.90625 C 13.222656 135.015625 12.875 135.085938 12.523438 135.078125 L 12.523438 134.636719 C 13.046875 134.644531 13.621094 134.5 14.015625 134.121094 Z M 14.160156 134.121094 Z M 14.160156 134.121094 "/>
<path style=" stroke:none;fill-rule:nonzero;fill:rgb(0%,0%,0%);fill-opacity:1;" d="M 7.746094 107.863281 C 8.5 107.917969 9 108.609375 9.136719 109.308594 C 9.207031 109.625 9.222656 109.925781 9.253906 110.246094 L 9.253906 111.054688 C 9.214844 111.878906 9.015625 112.96875 8.121094 113.300781 C 7.339844 113.609375 6.429688 113.125 6.199219 112.332031 C 6.023438 111.910156 6.007812 111.484375 5.96875 111.054688 L 5.96875 110.246094 C 6.007812 109.417969 6.183594 108.324219 7.070312 107.957031 L 7.113281 107.941406 L 7.144531 107.933594 L 7.183594 107.917969 L 7.300781 107.886719 L 7.375 107.871094 L 7.460938 107.871094 L 7.476562 107.863281 Z M 7.746094 107.863281 Z M 7.5 108.347656 C 6.832031 108.425781 6.636719 109.230469 6.585938 109.769531 L 6.585938 109.984375 L 6.570312 110 L 6.570312 111.101562 C 6.621094 111.671875 6.660156 112.410156 7.183594 112.792969 C 7.667969 113.125 8.308594 112.753906 8.445312 112.238281 C 8.585938 111.855469 8.621094 111.484375 8.652344 111.101562 L 8.652344 110 C 8.605469 109.417969 8.523438 108.609375 7.859375 108.378906 L 7.800781 108.363281 L 7.785156 108.347656 L 7.714844 108.347656 L 7.699219 108.332031 L 7.515625 108.332031 Z M 7.5 108.347656 Z M 7.5 108.347656 "/>
<path style=" stroke:none;fill-rule:nonzero;fill:rgb(0%,0%,0%);fill-opacity:1;" d="M 11.023438 112.578125 L 11.023438 113.214844 L 10.382812 113.214844 L 10.382812 112.578125 Z M 11.023438 112.578125 Z M 11.023438 112.578125 "/>
<path style=" stroke:none;fill-rule:nonzero;fill:rgb(0%,0%,0%);fill-opacity:1;" d="M 13.914062 107.863281 C 14.667969 107.917969 15.167969 108.609375 15.300781 109.308594 C 15.375 109.625 15.390625 109.925781 15.421875 110.246094 L 15.421875 111.054688 C 15.382812 111.878906 15.183594 112.96875 14.285156 113.300781 C 13.507812 113.609375 12.597656 113.125 12.367188 112.332031 C 12.191406 111.910156 12.175781 111.484375 12.136719 111.054688 L 12.136719 110.246094 C 12.175781 109.417969 12.351562 108.324219 13.238281 107.957031 L 13.277344 107.941406 L 13.308594 107.933594 L 13.351562 107.917969 L 13.46875 107.886719 L 13.539062 107.871094 L 13.628906 107.871094 L 13.644531 107.863281 Z M 13.914062 107.863281 Z M 13.667969 108.347656 C 13 108.425781 12.800781 109.230469 12.753906 109.769531 L 12.753906 109.984375 L 12.738281 110 L 12.738281 111.101562 C 12.785156 111.671875 12.824219 112.410156 13.351562 112.792969 C 13.835938 113.125 14.476562 112.753906 14.613281 112.238281 C 14.753906 111.855469 14.785156 111.484375 14.816406 111.101562 L 14.816406 110 C 14.769531 109.417969 14.691406 108.609375 14.023438 108.378906 L 13.96875 108.363281 L 13.953125 108.347656 L 13.882812 108.347656 L 13.867188 108.332031 L 13.683594 108.332031 Z M 13.667969 108.347656 Z M 13.667969 108.347656 "/>
<path style=" stroke:none;fill-rule:nonzero;fill:rgb(0%,0%,0%);fill-opacity:1;" d="M 7.746094 81.609375 C 8.5 81.664062 9 82.355469 9.136719 83.050781 C 9.207031 83.371094 9.222656 83.671875 9.253906 83.988281 L 9.253906 84.796875 C 9.214844 85.625 9.015625 86.710938 8.121094 87.042969 C 7.339844 87.355469 6.429688 86.871094 6.199219 86.078125 C 6.023438 85.65625 6.007812 85.226562 5.96875 84.796875 L 5.96875 83.988281 C 6.007812 83.164062 6.183594 82.070312 7.070312 81.703125 L 7.113281 81.6875 L 7.144531 81.679688 L 7.183594 81.664062 L 7.300781 81.632812 L 7.375 81.617188 L 7.460938 81.617188 L 7.476562 81.609375 Z M 7.746094 81.609375 Z M 7.5 82.09375 C 6.832031 82.171875 6.636719 82.972656 6.585938 83.511719 L 6.585938 83.726562 L 6.570312 83.742188 L 6.570312 84.847656 C 6.621094 85.417969 6.660156 86.15625 7.183594 86.535156 C 7.667969 86.871094 8.308594 86.496094 8.445312 85.980469 C 8.585938 85.601562 8.621094 85.226562 8.652344 84.847656 L 8.652344 83.742188 C 8.605469 83.164062 8.523438 82.355469 7.859375 82.125 L 7.800781 82.109375 L 7.785156 82.09375 L 7.714844 82.09375 L 7.699219 82.078125 L 7.515625 82.078125 Z M 7.5 82.09375 Z M 7.5 82.09375 "/>
<path style=" stroke:none;fill-rule:nonzero;fill:rgb(0%,0%,0%);fill-opacity:1;" d="M 11.023438 86.324219 L 11.023438 86.957031 L 10.382812 86.957031 L 10.382812 86.324219 Z M 11.023438 86.324219 Z M 11.023438 86.324219 "/>
<path style=" stroke:none;fill-rule:nonzero;fill:rgb(0%,0%,0%);fill-opacity:1;" d="M 14.160156 81.609375 L 14.160156 86.503906 L 14.167969 86.519531 L 15.144531 86.519531 L 15.144531 86.957031 L 12.5625 86.957031 L 12.5625 86.519531 L 13.539062 86.519531 L 13.554688 86.503906 L 13.554688 82.394531 C 13.222656 82.503906 12.875 82.578125 12.523438 82.570312 L 12.523438 82.125 C 13.046875 82.132812 13.621094 81.988281 14.015625 81.609375 Z M 14.160156 81.609375 Z M 14.160156 81.609375 "/>
<path style=" stroke:none;fill-rule:nonzero;fill:rgb(0%,0%,0%);fill-opacity:1;" d="M 7.746094 55.351562 C 8.5 55.40625 9 56.097656 9.136719 56.796875 C 9.207031 57.113281 9.222656 57.417969 9.253906 57.734375 L 9.253906 58.542969 C 9.214844 59.367188 9.015625 60.457031 8.121094 60.789062 C 7.339844 61.097656 6.429688 60.613281 6.199219 59.820312 C 6.023438 59.398438 6.007812 58.972656 5.96875 58.542969 L 5.96875 57.734375 C 6.007812 56.90625 6.183594 55.8125 7.070312 55.449219 L 7.113281 55.433594 L 7.144531 55.425781 L 7.183594 55.40625 L 7.300781 55.375 L 7.375 55.359375 L 7.460938 55.359375 L 7.476562 55.351562 Z M 7.746094 55.351562 Z M 7.5 55.835938 C 6.832031 55.917969 6.636719 56.71875 6.585938 57.257812 L 6.585938 57.472656 L 6.570312 57.488281 L 6.570312 58.589844 C 6.621094 59.164062 6.660156 59.902344 7.183594 60.28125 C 7.667969 60.613281 8.308594 60.242188 8.445312 59.726562 C 8.585938 59.34375 8.621094 58.972656 8.652344 58.589844 L 8.652344 57.488281 C 8.605469 56.90625 8.523438 56.097656 7.859375 55.867188 L 7.800781 55.851562 L 7.785156 55.835938 L 7.714844 55.835938 L 7.699219 55.820312 L 7.515625 55.820312 Z M 7.5 55.835938 Z M 7.5 55.835938 "/>
<path style=" stroke:none;fill-rule:nonzero;fill:rgb(0%,0%,0%);fill-opacity:1;" d="M 11.023438 60.066406 L 11.023438 60.703125 L 10.382812 60.703125 L 10.382812 60.066406 Z M 11.023438 60.066406 Z M 11.023438 60.066406 "/>
<path style=" stroke:none;fill-rule:nonzero;fill:rgb(0%,0%,0%);fill-opacity:1;" d="M 13.828125 55.351562 C 14.746094 55.375 15.476562 56.320312 15.335938 57.210938 C 15.238281 58.097656 14.40625 58.605469 13.808594 59.164062 L 13.554688 59.425781 L 13.523438 59.441406 L 13.207031 59.75 L 13.183594 59.765625 L 12.867188 60.082031 L 12.835938 60.097656 L 12.761719 60.171875 L 12.777344 60.179688 L 15.351562 60.179688 L 15.351562 60.703125 L 12.207031 60.703125 L 12.207031 60.226562 L 13.484375 58.949219 C 14.097656 58.417969 14.808594 57.726562 14.699219 56.851562 C 14.636719 56.34375 14.207031 55.875 13.683594 55.835938 C 13.152344 55.757812 12.683594 56.179688 12.5625 56.6875 L 12.546875 56.710938 L 12.53125 56.765625 L 12.507812 56.851562 L 12.460938 57.027344 L 12.453125 57.066406 C 12.34375 56.933594 12.222656 56.789062 12.136719 56.636719 C 12.292969 55.988281 12.816406 55.375 13.507812 55.351562 Z M 13.828125 55.351562 Z M 13.828125 55.351562 "/>
<path style=" stroke:none;fill-rule:nonzero;fill:rgb(0%,0%,0%);fill-opacity:1;" d="M 7.746094 29.097656 C 8.5 29.152344 9 29.84375 9.136719 30.542969 C 9.207031 30.859375 9.222656 31.160156 9.253906 31.476562 L 9.253906 32.289062 C 9.214844 33.113281 9.015625 34.199219 8.121094 34.535156 C 7.339844 34.84375 6.429688 34.359375 6.199219 33.566406 C 6.023438 33.144531 6.007812 32.714844 5.96875 32.289062 L 5.96875 31.476562 C 6.007812 30.652344 6.183594 29.558594 7.070312 29.191406 L 7.113281 29.175781 L 7.144531 29.167969 L 7.183594 29.152344 L 7.300781 29.121094 L 7.375 29.105469 L 7.460938 29.105469 L 7.476562 29.097656 Z M 7.746094 29.097656 Z M 7.5 29.582031 C 6.832031 29.660156 6.636719 30.460938 6.585938 31 L 6.585938 31.214844 L 6.570312 31.230469 L 6.570312 32.335938 C 6.621094 32.90625 6.660156 33.644531 7.183594 34.027344 C 7.667969 34.359375 8.308594 33.984375 8.445312 33.46875 C 8.585938 33.089844 8.621094 32.714844 8.652344 32.335938 L 8.652344 31.230469 C 8.605469 30.652344 8.523438 29.84375 7.859375 29.613281 L 7.800781 29.597656 L 7.785156 29.582031 L 7.714844 29.582031 L 7.699219 29.566406 L 7.515625 29.566406 Z M 7.5 29.582031 Z M 7.5 29.582031 "/>
<path style=" stroke:none;fill-rule:nonzero;fill:rgb(0%,0%,0%);fill-opacity:1;" d="M 11.023438 33.8125 L 11.023438 34.445312 L 10.382812 34.445312 L 10.382812 33.8125 Z M 11.023438 33.8125 Z M 11.023438 33.8125 "/>
<path style=" stroke:none;fill-rule:nonzero;fill:rgb(0%,0%,0%);fill-opacity:1;" d="M 13.929688 29.097656 C 14.628906 29.128906 15.359375 29.773438 15.191406 30.507812 C 15.113281 31.007812 14.761719 31.421875 14.328125 31.644531 C 15.03125 31.867188 15.582031 32.613281 15.390625 33.351562 C 15.199219 34.3125 14.097656 34.84375 13.207031 34.550781 C 12.777344 34.421875 12.34375 34.152344 12.136719 33.757812 C 12.183594 33.636719 12.167969 33.429688 12.222656 33.351562 C 12.644531 33.96875 13.53125 34.390625 14.230469 34.042969 C 14.992188 33.558594 14.875 32.144531 13.953125 31.90625 L 13.882812 31.90625 L 13.867188 31.890625 L 13.128906 31.890625 L 13.128906 31.414062 C 13.582031 31.40625 14.144531 31.351562 14.398438 30.882812 C 14.667969 30.476562 14.644531 29.8125 14.128906 29.613281 C 13.515625 29.375 12.761719 29.761719 12.53125 30.382812 C 12.4375 30.246094 12.34375 30.113281 12.246094 29.96875 C 12.570312 29.382812 13.261719 29.035156 13.929688 29.097656 Z M 13.929688 29.097656 Z M 13.929688 29.097656 "/>
<path style=" stroke:none;fill-rule:nonzero;fill:rgb(0%,0%,0%);fill-opacity:1;" d="M 7.746094 2.839844 C 8.5 2.898438 9 3.585938 9.136719 4.285156 C 9.207031 4.601562 9.222656 4.90625 9.253906 5.222656 L 9.253906 6.03125 C 9.214844 6.859375 9.015625 7.945312 8.121094 8.277344 C 7.339844 8.585938 6.429688 8.105469 6.199219 7.308594 C 6.023438 6.890625 6.007812 6.460938 5.96875 6.03125 L 5.96875 5.222656 C 6.007812 4.398438 6.183594 3.300781 7.070312 2.9375 L 7.113281 2.921875 L 7.144531 2.914062 L 7.183594 2.898438 L 7.300781 2.863281 L 7.375 2.847656 L 7.460938 2.847656 L 7.476562 2.839844 Z M 7.746094 2.839844 Z M 7.5 3.324219 C 6.832031 3.40625 6.636719 4.207031 6.585938 4.746094 L 6.585938 4.960938 L 6.570312 4.976562 L 6.570312 6.078125 C 6.621094 6.652344 6.660156 7.390625 7.183594 7.769531 C 7.667969 8.105469 8.308594 7.730469 8.445312 7.214844 C 8.585938 6.832031 8.621094 6.460938 8.652344 6.078125 L 8.652344 4.976562 C 8.605469 4.398438 8.523438 3.585938 7.859375 3.355469 L 7.800781 3.339844 L 7.785156 3.324219 L 7.714844 3.324219 L 7.699219 3.308594 L 7.515625 3.308594 Z M 7.5 3.324219 Z M 7.5 3.324219 "/>
<path style=" stroke:none;fill-rule:nonzero;fill:rgb(0%,0%,0%);fill-opacity:1;" d="M 11.023438 7.554688 L 11.023438 8.191406 L 10.382812 8.191406 L 10.382812 7.554688 Z M 11.023438 7.554688 Z M 11.023438 7.554688 "/>
<path style=" stroke:none;fill-rule:nonzero;fill:rgb(0%,0%,0%);fill-opacity:1;" d="M 14.730469 3.007812 L 14.730469 6.347656 L 14.746094 6.367188 L 15.53125 6.367188 L 15.53125 6.839844 L 14.746094 6.839844 L 14.730469 6.847656 L 14.730469 8.191406 L 14.128906 8.191406 L 14.128906 6.847656 L 14.113281 6.839844 L 12.015625 6.839844 L 12.015625 6.347656 C 12.683594 5.238281 13.351562 4.121094 14.015625 3.007812 Z M 14.730469 3.007812 Z M 14.144531 3.308594 C 13.984375 4.136719 13.476562 4.839844 13.097656 5.5625 C 12.945312 5.824219 12.746094 6.113281 12.636719 6.367188 L 14.160156 6.367188 L 14.167969 6.347656 L 14.167969 3.308594 L 14.160156 3.292969 Z M 14.144531 3.308594 Z M 14.144531 3.308594 "/>
<path style="fill:none;stroke-width:0.02;stroke-linecap:butt;stroke-linejoin:miter;stroke:rgb(0%,0%,0%);stroke-opacity:1;stroke-miterlimit:10;" d="M 9.751274 1.354686 L 9.646267 1.354686 " transform="matrix(28.346457,0,0,-28.346457,1,227.771654)"/>
<path style="fill:none;stroke-width:0.02;stroke-linecap:butt;stroke-linejoin:miter;stroke:rgb(0%,0%,0%);stroke-opacity:1;stroke-miterlimit:10;" d="M 9.751274 2.280866 L 9.646267 2.280866 " transform="matrix(28.346457,0,0,-28.346457,1,227.771654)"/>
<path style="fill:none;stroke-width:0.02;stroke-linecap:butt;stroke-linejoin:miter;stroke:rgb(0%,0%,0%);stroke-opacity:1;stroke-miterlimit:10;" d="M 9.751274 3.207045 L 9.646267 3.207045 " transform="matrix(28.346457,0,0,-28.346457,1,227.771654)"/>
<path style="fill:none;stroke-width:0.02;stroke-linecap:butt;stroke-linejoin:miter;stroke:rgb(0%,0%,0%);stroke-opacity:1;stroke-miterlimit:10;" d="M 9.751274 4.133363 L 9.646267 4.133363 " transform="matrix(28.346457,0,0,-28.346457,1,227.771654)"/>
<path style="fill:none;stroke-width:0.02;stroke-linecap:butt;stroke-linejoin:miter;stroke:rgb(0%,0%,0%);stroke-opacity:1;stroke-miterlimit:10;" d="M 9.751274 5.059542 L 9.646267 5.059542 " transform="matrix(28.346457,0,0,-28.346457,1,227.771654)"/>
<path style="fill:none;stroke-width:0.02;stroke-linecap:butt;stroke-linejoin:miter;stroke:rgb(0%,0%,0%);stroke-opacity:1;stroke-miterlimit:10;" d="M 9.751274 5.985859 L 9.646267 5.985859 " transform="matrix(28.346457,0,0,-28.346457,1,227.771654)"/>
<path style="fill:none;stroke-width:0.02;stroke-linecap:butt;stroke-linejoin:miter;stroke:rgb(0%,0%,0%);stroke-opacity:1;stroke-miterlimit:10;" d="M 9.751274 6.912039 L 9.646267 6.912039 " transform="matrix(28.346457,0,0,-28.346457,1,227.771654)"/>
<path style="fill:none;stroke-width:0.02;stroke-linecap:round;stroke-linejoin:miter;stroke:rgb(0%,0%,0%);stroke-opacity:1;stroke-miterlimit:10;" d="M 9.751274 0.428369 L 9.751274 7.838356 " transform="matrix(28.346457,0,0,-28.346457,1,227.771654)"/>
<path style="fill:none;stroke-width:0.02;stroke-linecap:butt;stroke-linejoin:miter;stroke:rgb(0%,0%,0%);stroke-opacity:1;stroke-miterlimit:10;" d="M 1.60128 0.428369 L 1.60128 0.533376 " transform="matrix(28.346457,0,0,-28.346457,1,227.771654)"/>
<path style="fill:none;stroke-width:0.02;stroke-linecap:butt;stroke-linejoin:miter;stroke:rgb(0%,0%,0%);stroke-opacity:1;stroke-miterlimit:10;" d="M 2.506927 0.428369 L 2.506927 0.533376 " transform="matrix(28.346457,0,0,-28.346457,1,227.771654)"/>
<path style="fill:none;stroke-width:0.02;stroke-linecap:butt;stroke-linejoin:miter;stroke:rgb(0%,0%,0%);stroke-opacity:1;stroke-miterlimit:10;" d="M 3.412436 0.428369 L 3.412436 0.533376 " transform="matrix(28.346457,0,0,-28.346457,1,227.771654)"/>
<path style="fill:none;stroke-width:0.02;stroke-linecap:butt;stroke-linejoin:miter;stroke:rgb(0%,0%,0%);stroke-opacity:1;stroke-miterlimit:10;" d="M 4.317945 0.428369 L 4.317945 0.533376 " transform="matrix(28.346457,0,0,-28.346457,1,227.771654)"/>
<path style="fill:none;stroke-width:0.02;stroke-linecap:butt;stroke-linejoin:miter;stroke:rgb(0%,0%,0%);stroke-opacity:1;stroke-miterlimit:10;" d="M 5.223454 0.428369 L 5.223454 0.533376 " transform="matrix(28.346457,0,0,-28.346457,1,227.771654)"/>
<path style="fill:none;stroke-width:0.02;stroke-linecap:butt;stroke-linejoin:miter;stroke:rgb(0%,0%,0%);stroke-opacity:1;stroke-miterlimit:10;" d="M 6.1291 0.428369 L 6.1291 0.533376 " transform="matrix(28.346457,0,0,-28.346457,1,227.771654)"/>
<path style="fill:none;stroke-width:0.02;stroke-linecap:butt;stroke-linejoin:miter;stroke:rgb(0%,0%,0%);stroke-opacity:1;stroke-miterlimit:10;" d="M 7.034609 0.428369 L 7.034609 0.533376 " transform="matrix(28.346457,0,0,-28.346457,1,227.771654)"/>
<path style="fill:none;stroke-width:0.02;stroke-linecap:butt;stroke-linejoin:miter;stroke:rgb(0%,0%,0%);stroke-opacity:1;stroke-miterlimit:10;" d="M 7.940118 0.428369 L 7.940118 0.533376 " transform="matrix(28.346457,0,0,-28.346457,1,227.771654)"/>
<path style="fill:none;stroke-width:0.02;stroke-linecap:butt;stroke-linejoin:miter;stroke:rgb(0%,0%,0%);stroke-opacity:1;stroke-miterlimit:10;" d="M 8.845627 0.428369 L 8.845627 0.533376 " transform="matrix(28.346457,0,0,-28.346457,1,227.771654)"/>
<path style="fill:none;stroke-width:0.02;stroke-linecap:round;stroke-linejoin:miter;stroke:rgb(0%,0%,0%);stroke-opacity:1;stroke-miterlimit:10;" d="M 0.695771 0.428369 L 9.751274 0.428369 " transform="matrix(28.346457,0,0,-28.346457,1,227.771654)"/>
<path style=" stroke:none;fill-rule:nonzero;fill:rgb(0%,0%,0%);fill-opacity:1;" d="M 16.507812 223.828125 L 16.507812 224.269531 L 14.429688 224.269531 L 14.429688 223.828125 Z M 16.507812 223.828125 Z M 16.507812 223.828125 "/>
<path style=" stroke:none;fill-rule:nonzero;fill:rgb(0%,0%,0%);fill-opacity:1;" d="M 19.007812 220.445312 C 19.929688 220.46875 20.660156 221.414062 20.515625 222.304688 C 20.421875 223.191406 19.589844 223.699219 18.992188 224.253906 L 18.738281 224.515625 L 18.707031 224.535156 L 18.390625 224.84375 L 18.367188 224.859375 L 18.046875 225.175781 L 18.015625 225.191406 L 17.945312 225.261719 L 17.960938 225.273438 L 20.53125 225.273438 L 20.53125 225.796875 L 17.390625 225.796875 L 17.390625 225.320312 L 18.667969 224.042969 C 19.277344 223.507812 19.992188 222.820312 19.882812 221.945312 C 19.820312 221.4375 19.390625 220.96875 18.867188 220.929688 C 18.335938 220.851562 17.867188 221.269531 17.746094 221.777344 L 17.730469 221.804688 L 17.714844 221.859375 L 17.691406 221.945312 L 17.644531 222.121094 L 17.636719 222.160156 C 17.523438 222.023438 17.40625 221.882812 17.320312 221.730469 C 17.476562 221.082031 18 220.46875 18.691406 220.445312 Z M 19.007812 220.445312 Z M 19.007812 220.445312 "/>
<path style=" stroke:none;fill-rule:nonzero;fill:rgb(0%,0%,0%);fill-opacity:1;" d="M 22.375 225.160156 L 22.375 225.796875 L 21.730469 225.796875 L 21.730469 225.160156 Z M 22.375 225.160156 Z M 22.375 225.160156 "/>
<path style=" stroke:none;fill-rule:nonzero;fill:rgb(0%,0%,0%);fill-opacity:1;" d="M 26.4375 220.613281 L 26.4375 221.105469 L 24.375 221.105469 L 24.359375 221.113281 L 24.359375 222.738281 C 24.550781 222.613281 24.820312 222.445312 25.074219 222.4375 C 25.96875 222.34375 26.660156 223.222656 26.699219 224.042969 C 26.828125 225.082031 25.851562 226.113281 24.804688 225.953125 C 24.277344 225.9375 23.769531 225.628906 23.46875 225.199219 C 23.558594 225.082031 23.628906 224.875 23.730469 224.804688 C 24.105469 225.535156 25.3125 225.828125 25.796875 225.058594 C 26.105469 224.476562 26.097656 223.738281 25.738281 223.183594 C 25.328125 222.652344 24.507812 222.976562 24.320312 223.542969 L 23.804688 223.542969 L 23.804688 220.613281 Z M 26.4375 220.613281 Z M 26.4375 220.613281 "/>
<path style=" stroke:none;fill-rule:nonzero;fill:rgb(0%,0%,0%);fill-opacity:1;" d="M 42.179688 223.828125 L 42.179688 224.269531 L 40.097656 224.269531 L 40.097656 223.828125 Z M 42.179688 223.828125 Z M 42.179688 223.828125 "/>
<path style=" stroke:none;fill-rule:nonzero;fill:rgb(0%,0%,0%);fill-opacity:1;" d="M 44.679688 220.445312 C 45.597656 220.46875 46.328125 221.414062 46.1875 222.304688 C 46.089844 223.191406 45.257812 223.699219 44.660156 224.253906 L 44.40625 224.515625 L 44.375 224.535156 L 44.058594 224.84375 L 44.035156 224.859375 L 43.71875 225.175781 L 43.6875 225.191406 L 43.613281 225.261719 L 43.628906 225.273438 L 46.203125 225.273438 L 46.203125 225.796875 L 43.058594 225.796875 L 43.058594 225.320312 L 44.335938 224.042969 C 44.949219 223.507812 45.664062 222.820312 45.550781 221.945312 C 45.488281 221.4375 45.058594 220.96875 44.535156 220.929688 C 44.003906 220.851562 43.535156 221.269531 43.414062 221.777344 L 43.398438 221.804688 L 43.382812 221.859375 L 43.359375 221.945312 L 43.3125 222.121094 L 43.304688 222.160156 C 43.195312 222.023438 43.074219 221.882812 42.988281 221.730469 C 43.144531 221.082031 43.671875 220.46875 44.359375 220.445312 Z M 44.679688 220.445312 Z M 44.679688 220.445312 "/>
<path style=" stroke:none;fill-rule:nonzero;fill:rgb(0%,0%,0%);fill-opacity:1;" d="M 48.042969 225.160156 L 48.042969 225.796875 L 47.398438 225.796875 L 47.398438 225.160156 Z M 48.042969 225.160156 Z M 48.042969 225.160156 "/>
<path style=" stroke:none;fill-rule:nonzero;fill:rgb(0%,0%,0%);fill-opacity:1;" d="M 50.933594 220.445312 C 51.6875 220.5 52.1875 221.191406 52.320312 221.890625 C 52.394531 222.207031 52.410156 222.507812 52.441406 222.828125 L 52.441406 223.636719 C 52.402344 224.460938 52.203125 225.550781 51.304688 225.882812 C 50.527344 226.191406 49.613281 225.707031 49.382812 224.914062 C 49.210938 224.492188 49.195312 224.066406 49.15625 223.636719 L 49.15625 222.828125 C 49.195312 222 49.367188 220.90625 50.257812 220.542969 L 50.296875 220.523438 L 50.328125 220.515625 L 50.367188 220.5 L 50.488281 220.46875 L 50.558594 220.453125 L 50.648438 220.453125 L 50.664062 220.445312 Z M 50.933594 220.445312 Z M 50.6875 220.929688 C 50.019531 221.007812 49.820312 221.8125 49.773438 222.351562 L 49.773438 222.566406 L 49.757812 222.582031 L 49.757812 223.683594 C 49.804688 224.253906 49.84375 224.992188 50.367188 225.375 C 50.851562 225.707031 51.496094 225.335938 51.628906 224.820312 C 51.773438 224.4375 51.804688 224.066406 51.835938 223.683594 L 51.835938 222.582031 C 51.789062 222 51.710938 221.191406 51.042969 220.960938 L 50.988281 220.945312 L 50.972656 220.929688 L 50.902344 220.929688 L 50.882812 220.914062 L 50.703125 220.914062 Z M 50.6875 220.929688 Z M 50.6875 220.929688 "/>
<path style=" stroke:none;fill-rule:nonzero;fill:rgb(0%,0%,0%);fill-opacity:1;" d="M 67.847656 223.828125 L 67.847656 224.269531 L 65.765625 224.269531 L 65.765625 223.828125 Z M 67.847656 223.828125 Z M 67.847656 223.828125 "/>
<path style=" stroke:none;fill-rule:nonzero;fill:rgb(0%,0%,0%);fill-opacity:1;" d="M 70.679688 220.445312 L 70.679688 225.34375 L 70.6875 225.359375 L 71.664062 225.359375 L 71.664062 225.796875 L 69.085938 225.796875 L 69.085938 225.359375 L 70.0625 225.359375 L 70.078125 225.34375 L 70.078125 221.230469 C 69.742188 221.34375 69.394531 221.414062 69.046875 221.40625 L 69.046875 220.960938 C 69.570312 220.96875 70.140625 220.828125 70.539062 220.445312 Z M 70.679688 220.445312 Z M 70.679688 220.445312 "/>
<path style=" stroke:none;fill-rule:nonzero;fill:rgb(0%,0%,0%);fill-opacity:1;" d="M 73.710938 225.160156 L 73.710938 225.796875 L 73.070312 225.796875 L 73.070312 225.160156 Z M 73.710938 225.160156 Z M 73.710938 225.160156 "/>
<path style=" stroke:none;fill-rule:nonzero;fill:rgb(0%,0%,0%);fill-opacity:1;" d="M 77.777344 220.613281 L 77.777344 221.105469 L 75.710938 221.105469 L 75.695312 221.113281 L 75.695312 222.738281 C 75.886719 222.613281 76.15625 222.445312 76.410156 222.4375 C 77.308594 222.34375 78 223.222656 78.039062 224.042969 C 78.164062 225.082031 77.1875 226.113281 76.140625 225.953125 C 75.617188 225.9375 75.109375 225.628906 74.808594 225.199219 C 74.894531 225.082031 74.964844 224.875 75.070312 224.804688 C 75.441406 225.535156 76.648438 225.828125 77.132812 225.058594 C 77.441406 224.476562 77.433594 223.738281 77.078125 223.183594 C 76.664062 222.652344 75.847656 222.976562 75.65625 223.542969 L 75.140625 223.542969 L 75.140625 220.613281 Z M 77.777344 220.613281 Z M 77.777344 220.613281 "/>
<path style=" stroke:none;fill-rule:nonzero;fill:rgb(0%,0%,0%);fill-opacity:1;" d="M 93.515625 223.828125 L 93.515625 224.269531 L 91.4375 224.269531 L 91.4375 223.828125 Z M 93.515625 223.828125 Z M 93.515625 223.828125 "/>
<path style=" stroke:none;fill-rule:nonzero;fill:rgb(0%,0%,0%);fill-opacity:1;" d="M 96.347656 220.445312 L 96.347656 225.34375 L 96.355469 225.359375 L 97.332031 225.359375 L 97.332031 225.796875 L 94.753906 225.796875 L 94.753906 225.359375 L 95.730469 225.359375 L 95.746094 225.34375 L 95.746094 221.230469 C 95.414062 221.34375 95.0625 221.414062 94.714844 221.40625 L 94.714844 220.960938 C 95.238281 220.96875 95.808594 220.828125 96.207031 220.445312 Z M 96.347656 220.445312 Z M 96.347656 220.445312 "/>
<path style=" stroke:none;fill-rule:nonzero;fill:rgb(0%,0%,0%);fill-opacity:1;" d="M 99.382812 225.160156 L 99.382812 225.796875 L 98.738281 225.796875 L 98.738281 225.160156 Z M 99.382812 225.160156 Z M 99.382812 225.160156 "/>
<path style=" stroke:none;fill-rule:nonzero;fill:rgb(0%,0%,0%);fill-opacity:1;" d="M 102.269531 220.445312 C 103.023438 220.5 103.523438 221.191406 103.660156 221.890625 C 103.730469 222.207031 103.746094 222.507812 103.777344 222.828125 L 103.777344 223.636719 C 103.738281 224.460938 103.539062 225.550781 102.644531 225.882812 C 101.867188 226.191406 100.953125 225.707031 100.722656 224.914062 C 100.546875 224.492188 100.53125 224.066406 100.492188 223.636719 L 100.492188 222.828125 C 100.53125 222 100.707031 220.90625 101.59375 220.542969 L 101.636719 220.523438 L 101.667969 220.515625 L 101.707031 220.5 L 101.824219 220.46875 L 101.898438 220.453125 L 101.984375 220.453125 L 102 220.445312 Z M 102.269531 220.445312 Z M 102.023438 220.929688 C 101.355469 221.007812 101.160156 221.8125 101.113281 222.351562 L 101.113281 222.566406 L 101.09375 222.582031 L 101.09375 223.683594 C 101.144531 224.253906 101.183594 224.992188 101.707031 225.375 C 102.191406 225.707031 102.832031 225.335938 102.96875 224.820312 C 103.113281 224.4375 103.144531 224.066406 103.175781 223.683594 L 103.175781 222.582031 C 103.128906 222 103.046875 221.191406 102.382812 220.960938 L 102.324219 220.945312 L 102.308594 220.929688 L 102.238281 220.929688 L 102.222656 220.914062 L 102.039062 220.914062 Z M 102.023438 220.929688 Z M 102.023438 220.929688 "/>
<path style=" stroke:none;fill-rule:nonzero;fill:rgb(0%,0%,0%);fill-opacity:1;" d="M 119.183594 223.828125 L 119.183594 224.269531 L 117.105469 224.269531 L 117.105469 223.828125 Z M 119.183594 223.828125 Z M 119.183594 223.828125 "/>
<path style=" stroke:none;fill-rule:nonzero;fill:rgb(0%,0%,0%);fill-opacity:1;" d="M 121.773438 220.445312 C 122.527344 220.5 123.027344 221.191406 123.160156 221.890625 C 123.230469 222.207031 123.25 222.507812 123.28125 222.828125 L 123.28125 223.636719 C 123.242188 224.460938 123.042969 225.550781 122.144531 225.882812 C 121.367188 226.191406 120.453125 225.707031 120.222656 224.914062 C 120.050781 224.492188 120.035156 224.066406 119.992188 223.636719 L 119.992188 222.828125 C 120.035156 222 120.207031 220.90625 121.097656 220.542969 L 121.136719 220.523438 L 121.167969 220.515625 L 121.207031 220.5 L 121.328125 220.46875 L 121.398438 220.453125 L 121.484375 220.453125 L 121.503906 220.445312 Z M 121.773438 220.445312 Z M 121.527344 220.929688 C 120.859375 221.007812 120.660156 221.8125 120.613281 222.351562 L 120.613281 222.566406 L 120.597656 222.582031 L 120.597656 223.683594 C 120.644531 224.253906 120.683594 224.992188 121.207031 225.375 C 121.691406 225.707031 122.335938 225.335938 122.46875 224.820312 C 122.613281 224.4375 122.644531 224.066406 122.675781 223.683594 L 122.675781 222.582031 C 122.628906 222 122.550781 221.191406 121.882812 220.960938 L 121.828125 220.945312 L 121.8125 220.929688 L 121.742188 220.929688 L 121.722656 220.914062 L 121.542969 220.914062 Z M 121.527344 220.929688 Z M 121.527344 220.929688 "/>
<path style=" stroke:none;fill-rule:nonzero;fill:rgb(0%,0%,0%);fill-opacity:1;" d="M 125.050781 225.160156 L 125.050781 225.796875 L 124.40625 225.796875 L 124.40625 225.160156 Z M 125.050781 225.160156 Z M 125.050781 225.160156 "/>
<path style=" stroke:none;fill-rule:nonzero;fill:rgb(0%,0%,0%);fill-opacity:1;" d="M 129.113281 220.613281 L 129.113281 221.105469 L 127.050781 221.105469 L 127.035156 221.113281 L 127.035156 222.738281 C 127.226562 222.613281 127.496094 222.445312 127.75 222.4375 C 128.644531 222.34375 129.335938 223.222656 129.375 224.042969 C 129.503906 225.082031 128.527344 226.113281 127.480469 225.953125 C 126.953125 225.9375 126.445312 225.628906 126.144531 225.199219 C 126.234375 225.082031 126.304688 224.875 126.40625 224.804688 C 126.78125 225.535156 127.988281 225.828125 128.472656 225.058594 C 128.78125 224.476562 128.773438 223.738281 128.414062 223.183594 C 128.003906 222.652344 127.183594 222.976562 126.996094 223.542969 L 126.480469 223.542969 L 126.480469 220.613281 Z M 129.113281 220.613281 Z M 129.113281 220.613281 "/>
<path style=" stroke:none;fill-rule:nonzero;fill:rgb(0%,0%,0%);fill-opacity:1;" d="M 146.121094 220.445312 C 146.875 220.5 147.375 221.191406 147.507812 221.890625 C 147.578125 222.207031 147.59375 222.507812 147.628906 222.828125 L 147.628906 223.636719 C 147.585938 224.460938 147.390625 225.550781 146.492188 225.882812 C 145.714844 226.191406 144.800781 225.707031 144.570312 224.914062 C 144.398438 224.492188 144.382812 224.066406 144.339844 223.636719 L 144.339844 222.828125 C 144.382812 222 144.554688 220.90625 145.445312 220.542969 L 145.484375 220.523438 L 145.515625 220.515625 L 145.554688 220.5 L 145.675781 220.46875 L 145.746094 220.453125 L 145.832031 220.453125 L 145.847656 220.445312 Z M 146.121094 220.445312 Z M 145.875 220.929688 C 145.207031 221.007812 145.007812 221.8125 144.960938 222.351562 L 144.960938 222.566406 L 144.945312 222.582031 L 144.945312 223.683594 C 144.992188 224.253906 145.03125 224.992188 145.554688 225.375 C 146.039062 225.707031 146.683594 225.335938 146.816406 224.820312 C 146.960938 224.4375 146.992188 224.066406 147.023438 223.683594 L 147.023438 222.582031 C 146.976562 222 146.898438 221.191406 146.230469 220.960938 L 146.175781 220.945312 L 146.160156 220.929688 L 146.085938 220.929688 L 146.070312 220.914062 L 145.890625 220.914062 Z M 145.875 220.929688 Z M 145.875 220.929688 "/>
<path style=" stroke:none;fill-rule:nonzero;fill:rgb(0%,0%,0%);fill-opacity:1;" d="M 149.398438 225.160156 L 149.398438 225.796875 L 148.753906 225.796875 L 148.753906 225.160156 Z M 149.398438 225.160156 Z M 149.398438 225.160156 "/>
<path style=" stroke:none;fill-rule:nonzero;fill:rgb(0%,0%,0%);fill-opacity:1;" d="M 152.285156 220.445312 C 153.039062 220.5 153.539062 221.191406 153.675781 221.890625 C 153.746094 222.207031 153.761719 222.507812 153.792969 222.828125 L 153.792969 223.636719 C 153.753906 224.460938 153.554688 225.550781 152.660156 225.882812 C 151.882812 226.191406 150.96875 225.707031 150.738281 224.914062 C 150.5625 224.492188 150.546875 224.066406 150.507812 223.636719 L 150.507812 222.828125 C 150.546875 222 150.722656 220.90625 151.613281 220.542969 L 151.652344 220.523438 L 151.683594 220.515625 L 151.722656 220.5 L 151.84375 220.46875 L 151.914062 220.453125 L 152 220.453125 L 152.015625 220.445312 Z M 152.285156 220.445312 Z M 152.039062 220.929688 C 151.375 221.007812 151.175781 221.8125 151.128906 222.351562 L 151.128906 222.566406 L 151.113281 222.582031 L 151.113281 223.683594 C 151.160156 224.253906 151.199219 224.992188 151.722656 225.375 C 152.207031 225.707031 152.851562 225.335938 152.984375 224.820312 C 153.128906 224.4375 153.160156 224.066406 153.191406 223.683594 L 153.191406 222.582031 C 153.144531 222 153.0625 221.191406 152.398438 220.960938 L 152.34375 220.945312 L 152.324219 220.929688 L 152.253906 220.929688 L 152.238281 220.914062 L 152.054688 220.914062 Z M 152.039062 220.929688 Z M 152.039062 220.929688 "/>
<path style=" stroke:none;fill-rule:nonzero;fill:rgb(0%,0%,0%);fill-opacity:1;" d="M 171.789062 220.445312 C 172.542969 220.5 173.042969 221.191406 173.175781 221.890625 C 173.25 222.207031 173.265625 222.507812 173.296875 222.828125 L 173.296875 223.636719 C 173.257812 224.460938 173.058594 225.550781 172.160156 225.882812 C 171.382812 226.191406 170.472656 225.707031 170.242188 224.914062 C 170.066406 224.492188 170.050781 224.066406 170.011719 223.636719 L 170.011719 222.828125 C 170.050781 222 170.226562 220.90625 171.113281 220.542969 L 171.152344 220.523438 L 171.183594 220.515625 L 171.226562 220.5 L 171.34375 220.46875 L 171.414062 220.453125 L 171.503906 220.453125 L 171.519531 220.445312 Z M 171.789062 220.445312 Z M 171.542969 220.929688 C 170.875 221.007812 170.675781 221.8125 170.628906 222.351562 L 170.628906 222.566406 L 170.613281 222.582031 L 170.613281 223.683594 C 170.660156 224.253906 170.699219 224.992188 171.226562 225.375 C 171.707031 225.707031 172.351562 225.335938 172.488281 224.820312 C 172.628906 224.4375 172.660156 224.066406 172.691406 223.683594 L 172.691406 222.582031 C 172.644531 222 172.566406 221.191406 171.898438 220.960938 L 171.84375 220.945312 L 171.828125 220.929688 L 171.757812 220.929688 L 171.742188 220.914062 L 171.558594 220.914062 Z M 171.542969 220.929688 Z M 171.542969 220.929688 "/>
<path style=" stroke:none;fill-rule:nonzero;fill:rgb(0%,0%,0%);fill-opacity:1;" d="M 175.066406 225.160156 L 175.066406 225.796875 L 174.421875 225.796875 L 174.421875 225.160156 Z M 175.066406 225.160156 Z M 175.066406 225.160156 "/>
<path style=" stroke:none;fill-rule:nonzero;fill:rgb(0%,0%,0%);fill-opacity:1;" d="M 179.128906 220.613281 L 179.128906 221.105469 L 177.066406 221.105469 L 177.050781 221.113281 L 177.050781 222.738281 C 177.242188 222.613281 177.511719 222.445312 177.765625 222.4375 C 178.660156 222.34375 179.351562 223.222656 179.390625 224.042969 C 179.519531 225.082031 178.542969 226.113281 177.496094 225.953125 C 176.972656 225.9375 176.464844 225.628906 176.160156 225.199219 C 176.25 225.082031 176.320312 224.875 176.421875 224.804688 C 176.796875 225.535156 178.003906 225.828125 178.488281 225.058594 C 178.796875 224.476562 178.789062 223.738281 178.429688 223.183594 C 178.019531 222.652344 177.203125 222.976562 177.011719 223.542969 L 176.496094 223.542969 L 176.496094 220.613281 Z M 179.128906 220.613281 Z M 179.128906 220.613281 "/>
<path style=" stroke:none;fill-rule:nonzero;fill:rgb(0%,0%,0%);fill-opacity:1;" d="M 197.703125 220.445312 L 197.703125 225.34375 L 197.710938 225.359375 L 198.6875 225.359375 L 198.6875 225.796875 L 196.109375 225.796875 L 196.109375 225.359375 L 197.085938 225.359375 L 197.101562 225.34375 L 197.101562 221.230469 C 196.765625 221.34375 196.417969 221.414062 196.066406 221.40625 L 196.066406 220.960938 C 196.59375 220.96875 197.164062 220.828125 197.558594 220.445312 Z M 197.703125 220.445312 Z M 197.703125 220.445312 "/>
<path style=" stroke:none;fill-rule:nonzero;fill:rgb(0%,0%,0%);fill-opacity:1;" d="M 200.734375 225.160156 L 200.734375 225.796875 L 200.09375 225.796875 L 200.09375 225.160156 Z M 200.734375 225.160156 Z M 200.734375 225.160156 "/>
<path style=" stroke:none;fill-rule:nonzero;fill:rgb(0%,0%,0%);fill-opacity:1;" d="M 203.625 220.445312 C 204.378906 220.5 204.878906 221.191406 205.011719 221.890625 C 205.085938 222.207031 205.101562 222.507812 205.132812 222.828125 L 205.132812 223.636719 C 205.09375 224.460938 204.894531 225.550781 203.996094 225.882812 C 203.21875 226.191406 202.308594 225.707031 202.078125 224.914062 C 201.902344 224.492188 201.886719 224.066406 201.847656 223.636719 L 201.847656 222.828125 C 201.886719 222 202.0625 220.90625 202.949219 220.542969 L 202.988281 220.523438 L 203.019531 220.515625 L 203.0625 220.5 L 203.179688 220.46875 L 203.25 220.453125 L 203.339844 220.453125 L 203.355469 220.445312 Z M 203.625 220.445312 Z M 203.378906 220.929688 C 202.710938 221.007812 202.511719 221.8125 202.464844 222.351562 L 202.464844 222.566406 L 202.449219 222.582031 L 202.449219 223.683594 C 202.496094 224.253906 202.535156 224.992188 203.0625 225.375 C 203.542969 225.707031 204.1875 225.335938 204.324219 224.820312 C 204.464844 224.4375 204.496094 224.066406 204.527344 223.683594 L 204.527344 222.582031 C 204.480469 222 204.402344 221.191406 203.734375 220.960938 L 203.679688 220.945312 L 203.664062 220.929688 L 203.59375 220.929688 L 203.578125 220.914062 L 203.394531 220.914062 Z M 203.378906 220.929688 Z M 203.378906 220.929688 "/>
<path style=" stroke:none;fill-rule:nonzero;fill:rgb(0%,0%,0%);fill-opacity:1;" d="M 223.371094 220.445312 L 223.371094 225.34375 L 223.378906 225.359375 L 224.355469 225.359375 L 224.355469 225.796875 L 221.777344 225.796875 L 221.777344 225.359375 L 222.753906 225.359375 L 222.769531 225.34375 L 222.769531 221.230469 C 222.4375 221.34375 222.085938 221.414062 221.738281 221.40625 L 221.738281 220.960938 C 222.261719 220.96875 222.832031 220.828125 223.230469 220.445312 Z M 223.371094 220.445312 Z M 223.371094 220.445312 "/>
<path style=" stroke:none;fill-rule:nonzero;fill:rgb(0%,0%,0%);fill-opacity:1;" d="M 226.402344 225.160156 L 226.402344 225.796875 L 225.761719 225.796875 L 225.761719 225.160156 Z M 226.402344 225.160156 Z M 226.402344 225.160156 "/>
<path style=" stroke:none;fill-rule:nonzero;fill:rgb(0%,0%,0%);fill-opacity:1;" d="M 230.46875 220.613281 L 230.46875 221.105469 L 228.402344 221.105469 L 228.386719 221.113281 L 228.386719 222.738281 C 228.578125 222.613281 228.847656 222.445312 229.101562 222.4375 C 230 222.34375 230.691406 223.222656 230.730469 224.042969 C 230.855469 225.082031 229.878906 226.113281 228.832031 225.953125 C 228.308594 225.9375 227.800781 225.628906 227.5 225.199219 C 227.585938 225.082031 227.65625 224.875 227.761719 224.804688 C 228.132812 225.535156 229.339844 225.828125 229.824219 225.058594 C 230.132812 224.476562 230.125 223.738281 229.769531 223.183594 C 229.355469 222.652344 228.539062 222.976562 228.347656 223.542969 L 227.832031 223.542969 L 227.832031 220.613281 Z M 230.46875 220.613281 Z M 230.46875 220.613281 "/>
<path style=" stroke:none;fill-rule:nonzero;fill:rgb(0%,0%,0%);fill-opacity:1;" d="M 248.707031 220.445312 C 249.628906 220.46875 250.359375 221.414062 250.214844 222.304688 C 250.121094 223.191406 249.289062 223.699219 248.691406 224.253906 L 248.4375 224.515625 L 248.40625 224.535156 L 248.089844 224.84375 L 248.066406 224.859375 L 247.746094 225.175781 L 247.714844 225.191406 L 247.644531 225.261719 L 247.660156 225.273438 L 250.230469 225.273438 L 250.230469 225.796875 L 247.089844 225.796875 L 247.089844 225.320312 L 248.367188 224.042969 C 248.976562 223.507812 249.691406 222.820312 249.582031 221.945312 C 249.515625 221.4375 249.089844 220.96875 248.566406 220.929688 C 248.03125 220.851562 247.566406 221.269531 247.445312 221.777344 L 247.429688 221.804688 L 247.414062 221.859375 L 247.390625 221.945312 L 247.34375 222.121094 L 247.335938 222.160156 C 247.222656 222.023438 247.105469 221.882812 247.015625 221.730469 C 247.175781 221.082031 247.699219 220.46875 248.390625 220.445312 Z M 248.707031 220.445312 Z M 248.707031 220.445312 "/>
<path style=" stroke:none;fill-rule:nonzero;fill:rgb(0%,0%,0%);fill-opacity:1;" d="M 252.074219 225.160156 L 252.074219 225.796875 L 251.429688 225.796875 L 251.429688 225.160156 Z M 252.074219 225.160156 Z M 252.074219 225.160156 "/>
<path style=" stroke:none;fill-rule:nonzero;fill:rgb(0%,0%,0%);fill-opacity:1;" d="M 254.960938 220.445312 C 255.714844 220.5 256.214844 221.191406 256.351562 221.890625 C 256.421875 222.207031 256.4375 222.507812 256.46875 222.828125 L 256.46875 223.636719 C 256.429688 224.460938 256.230469 225.550781 255.335938 225.882812 C 254.558594 226.191406 253.644531 225.707031 253.414062 224.914062 C 253.238281 224.492188 253.222656 224.066406 253.183594 223.636719 L 253.183594 222.828125 C 253.222656 222 253.398438 220.90625 254.289062 220.542969 L 254.328125 220.523438 L 254.359375 220.515625 L 254.398438 220.5 L 254.519531 220.46875 L 254.589844 220.453125 L 254.675781 220.453125 L 254.691406 220.445312 Z M 254.960938 220.445312 Z M 254.714844 220.929688 C 254.050781 221.007812 253.851562 221.8125 253.804688 222.351562 L 253.804688 222.566406 L 253.789062 222.582031 L 253.789062 223.683594 C 253.835938 224.253906 253.875 224.992188 254.398438 225.375 C 254.882812 225.707031 255.527344 225.335938 255.660156 224.820312 C 255.804688 224.4375 255.835938 224.066406 255.867188 223.683594 L 255.867188 222.582031 C 255.820312 222 255.738281 221.191406 255.074219 220.960938 L 255.019531 220.945312 L 255 220.929688 L 254.929688 220.929688 L 254.914062 220.914062 L 254.730469 220.914062 Z M 254.714844 220.929688 Z M 254.714844 220.929688 "/>
<path style=" stroke:none;fill-rule:nonzero;fill:rgb(0%,0%,0%);fill-opacity:1;" d="M 274.375 220.445312 C 275.296875 220.46875 276.027344 221.414062 275.882812 222.304688 C 275.789062 223.191406 274.957031 223.699219 274.359375 224.253906 L 274.105469 224.515625 L 274.074219 224.535156 L 273.757812 224.84375 L 273.734375 224.859375 L 273.417969 225.175781 L 273.382812 225.191406 L 273.3125 225.261719 L 273.328125 225.273438 L 275.902344 225.273438 L 275.902344 225.796875 L 272.757812 225.796875 L 272.757812 225.320312 L 274.035156 224.042969 C 274.648438 223.507812 275.359375 222.820312 275.25 221.945312 C 275.1875 221.4375 274.757812 220.96875 274.234375 220.929688 C 273.703125 220.851562 273.234375 221.269531 273.113281 221.777344 L 273.097656 221.804688 L 273.082031 221.859375 L 273.058594 221.945312 L 273.011719 222.121094 L 273.003906 222.160156 C 272.890625 222.023438 272.773438 221.882812 272.6875 221.730469 C 272.84375 221.082031 273.367188 220.46875 274.058594 220.445312 Z M 274.375 220.445312 Z M 274.375 220.445312 "/>
<path style=" stroke:none;fill-rule:nonzero;fill:rgb(0%,0%,0%);fill-opacity:1;" d="M 277.742188 225.160156 L 277.742188 225.796875 L 277.097656 225.796875 L 277.097656 225.160156 Z M 277.742188 225.160156 Z M 277.742188 225.160156 "/>
<path style=" stroke:none;fill-rule:nonzero;fill:rgb(0%,0%,0%);fill-opacity:1;" d="M 281.804688 220.613281 L 281.804688 221.105469 L 279.742188 221.105469 L 279.726562 221.113281 L 279.726562 222.738281 C 279.917969 222.613281 280.1875 222.445312 280.441406 222.4375 C 281.335938 222.34375 282.027344 223.222656 282.066406 224.042969 C 282.195312 225.082031 281.21875 226.113281 280.171875 225.953125 C 279.648438 225.9375 279.140625 225.628906 278.835938 225.199219 C 278.925781 225.082031 278.996094 224.875 279.097656 224.804688 C 279.472656 225.535156 280.679688 225.828125 281.164062 225.058594 C 281.472656 224.476562 281.464844 223.738281 281.105469 223.183594 C 280.695312 222.652344 279.878906 222.976562 279.6875 223.542969 L 279.171875 223.542969 L 279.171875 220.613281 Z M 281.804688 220.613281 Z M 281.804688 220.613281 "/>
<path style="fill:none;stroke-width:0.02;stroke-linecap:butt;stroke-linejoin:miter;stroke:rgb(0%,0%,0%);stroke-opacity:1;stroke-miterlimit:10;" d="M 1.60128 7.838356 L 1.60128 7.73335 " transform="matrix(28.346457,0,0,-28.346457,1,227.771654)"/>
<path style="fill:none;stroke-width:0.02;stroke-linecap:butt;stroke-linejoin:miter;stroke:rgb(0%,0%,0%);stroke-opacity:1;stroke-miterlimit:10;" d="M 2.506927 7.838356 L 2.506927 7.73335 " transform="matrix(28.346457,0,0,-28.346457,1,227.771654)"/>
<path style="fill:none;stroke-width:0.02;stroke-linecap:butt;stroke-linejoin:miter;stroke:rgb(0%,0%,0%);stroke-opacity:1;stroke-miterlimit:10;" d="M 3.412436 7.838356 L 3.412436 7.73335 " transform="matrix(28.346457,0,0,-28.346457,1,227.771654)"/>
<path style="fill:none;stroke-width:0.02;stroke-linecap:butt;stroke-linejoin:miter;stroke:rgb(0%,0%,0%);stroke-opacity:1;stroke-miterlimit:10;" d="M 4.317945 7.838356 L 4.317945 7.73335 " transform="matrix(28.346457,0,0,-28.346457,1,227.771654)"/>
<path style="fill:none;stroke-width:0.02;stroke-linecap:butt;stroke-linejoin:miter;stroke:rgb(0%,0%,0%);stroke-opacity:1;stroke-miterlimit:10;" d="M 5.223454 7.838356 L 5.223454 7.73335 " transform="matrix(28.346457,0,0,-28.346457,1,227.771654)"/>
<path style="fill:none;stroke-width:0.02;stroke-linecap:butt;stroke-linejoin:miter;stroke:rgb(0%,0%,0%);stroke-opacity:1;stroke-miterlimit:10;" d="M 6.1291 7.838356 L 6.1291 7.73335 " transform="matrix(28.346457,0,0,-28.346457,1,227.771654)"/>
<path style="fill:none;stroke-width:0.02;stroke-linecap:butt;stroke-linejoin:miter;stroke:rgb(0%,0%,0%);stroke-opacity:1;stroke-miterlimit:10;" d="M 7.034609 7.838356 L 7.034609 7.73335 " transform="matrix(28.346457,0,0,-28.346457,1,227.771654)"/>
<path style="fill:none;stroke-width:0.02;stroke-linecap:butt;stroke-linejoin:miter;stroke:rgb(0%,0%,0%);stroke-opacity:1;stroke-miterlimit:10;" d="M 7.940118 7.838356 L 7.940118 7.73335 " transform="matrix(28.346457,0,0,-28.346457,1,227.771654)"/>
<path style="fill:none;stroke-width:0.02;stroke-linecap:butt;stroke-linejoin:miter;stroke:rgb(0%,0%,0%);stroke-opacity:1;stroke-miterlimit:10;" d="M 8.845627 7.838356 L 8.845627 7.73335 " transform="matrix(28.346457,0,0,-28.346457,1,227.771654)"/>
<path style="fill:none;stroke-width:0.02;stroke-linecap:round;stroke-linejoin:miter;stroke:rgb(0%,0%,0%);stroke-opacity:1;stroke-miterlimit:10;" d="M 0.695771 7.838356 L 9.751274 7.838356 " transform="matrix(28.346457,0,0,-28.346457,1,227.771654)"/>
<path style="fill:none;stroke-width:0.02;stroke-linecap:butt;stroke-linejoin:miter;stroke:rgb(79.215686%,38.431373%,29.411765%);stroke-opacity:1;stroke-miterlimit:10;" d="M 0.695771 4.122614 L 0.787273 4.118755 L 0.878775 4.113519 L 0.970139 4.106766 L 1.061641 4.098085 L 1.153142 4.087061 L 1.244644 4.073142 L 1.336146 4.055779 L 1.42751 4.034282 L 1.519012 4.007823 L 1.610513 3.975577 L 1.702015 3.936717 L 1.793379 3.890277 L 1.884881 3.835155 L 1.976382 3.770387 L 2.067884 3.695009 L 2.159248 3.608192 L 2.25075 3.508836 L 2.342252 3.396388 L 2.433753 3.270297 L 2.525117 3.130426 L 2.616619 2.976775 L 2.708121 2.809757 L 2.799622 2.630336 L 2.890986 2.439891 L 2.982488 2.240214 L 3.07399 2.033784 L 3.165492 1.823633 L 3.256993 1.613069 L 3.348357 1.406225 L 3.439859 1.20765 L 3.531361 1.022028 L 3.622862 0.854321 L 3.714226 0.709902 L 3.805728 0.593872 L 3.89723 0.511051 L 3.988732 0.466403 L 4.080095 0.463647 L 4.171597 0.506366 L 4.263099 0.596903 L 4.354601 0.73705 L 4.445965 0.926943 L 4.537466 1.166033 L 4.628968 1.452114 L 4.72047 1.782016 L 4.811834 2.151468 L 4.903336 2.554682 L 4.994837 2.985457 L 5.086339 3.436351 L 5.177841 3.899647 L 5.269205 4.367078 L 5.360706 4.830374 L 5.452208 5.281268 L 5.54371 5.712043 L 5.635074 6.115257 L 5.726576 6.484709 L 5.818077 6.814612 L 5.909579 7.100692 L 6.000943 7.339782 L 6.092445 7.529676 L 6.183946 7.669822 L 6.275448 7.760359 L 6.366812 7.803078 L 6.458314 7.800322 L 6.549816 7.755536 L 6.641317 7.672854 L 6.732681 7.556823 L 6.824183 7.412405 L 6.915685 7.244697 L 7.007186 7.059076 L 7.098688 6.860362 L 7.190052 6.653657 L 7.281554 6.443092 L 7.373056 6.232942 L 7.464557 6.026512 L 7.555921 5.826834 L 7.647423 5.636251 L 7.738925 5.456831 L 7.830426 5.28995 L 7.92179 5.136299 L 8.013292 4.99629 L 8.104794 4.870337 L 8.196296 4.75789 L 8.28766 4.658533 L 8.379161 4.571579 L 8.470663 4.496338 L 8.562165 4.43157 L 8.653529 4.376449 L 8.74503 4.330009 L 8.836532 4.291148 L 8.928034 4.258902 L 9.019536 4.232444 L 9.1109 4.210946 L 9.202401 4.193445 L 9.293903 4.179527 L 9.385405 4.168503 L 9.476769 4.159959 L 9.56827 4.153206 L 9.659772 4.14797 L 9.751274 4.144111 " transform="matrix(28.346457,0,0,-28.346457,1,227.771654)"/>
<path style="fill-rule:nonzero;fill:rgb(96.862745%,85.882353%,65.490196%);fill-opacity:1;stroke-width:0.02;stroke-linecap:butt;stroke-linejoin:round;stroke:rgb(96.862745%,85.882353%,65.490196%);stroke-opacity:1;stroke-miterlimit:10;" d="M 0.818279 4.122614 C 0.818279 4.286049 0.573264 4.286049 0.573264 4.122614 C 0.573264 3.959316 0.818279 3.959316 0.818279 4.122614 Z M 0.818279 4.122614 " transform="matrix(28.346457,0,0,-28.346457,1,227.771654)"/>
<path style="fill-rule:nonzero;fill:rgb(96.862745%,85.882353%,65.490196%);fill-opacity:1;stroke-width:0.02;stroke-linecap:butt;stroke-linejoin:round;stroke:rgb(96.862745%,85.882353%,65.490196%);stroke-opacity:1;stroke-miterlimit:10;" d="M 1.27565 4.087061 C 1.27565 4.250496 1.030635 4.250496 1.030635 4.087061 C 1.030635 3.923763 1.27565 3.923763 1.27565 4.087061 Z M 1.27565 4.087061 " transform="matrix(28.346457,0,0,-28.346457,1,227.771654)"/>
<path style="fill-rule:nonzero;fill:rgb(96.862745%,85.882353%,65.490196%);fill-opacity:1;stroke-width:0.02;stroke-linecap:butt;stroke-linejoin:round;stroke:rgb(96.862745%,85.882353%,65.490196%);stroke-opacity:1;stroke-miterlimit:10;" d="M 1.733021 3.975577 C 1.733021 4.138875 1.488006 4.138875 1.488006 3.975577 C 1.488006 3.81228 1.733021 3.81228 1.733021 3.975577 Z M 1.733021 3.975577 " transform="matrix(28.346457,0,0,-28.346457,1,227.771654)"/>
<path style="fill-rule:nonzero;fill:rgb(96.862745%,85.882353%,65.490196%);fill-opacity:1;stroke-width:0.02;stroke-linecap:butt;stroke-linejoin:round;stroke:rgb(96.862745%,85.882353%,65.490196%);stroke-opacity:1;stroke-miterlimit:10;" d="M 2.190392 3.695009 C 2.190392 3.858444 1.945377 3.858444 1.945377 3.695009 C 1.945377 3.531711 2.190392 3.531711 2.190392 3.695009 Z M 2.190392 3.695009 " transform="matrix(28.346457,0,0,-28.346457,1,227.771654)"/>
<path style="fill-rule:nonzero;fill:rgb(96.862745%,85.882353%,65.490196%);fill-opacity:1;stroke-width:0.02;stroke-linecap:butt;stroke-linejoin:round;stroke:rgb(96.862745%,85.882353%,65.490196%);stroke-opacity:1;stroke-miterlimit:10;" d="M 2.647625 3.130426 C 2.647625 3.293862 2.40261 3.293862 2.40261 3.130426 C 2.40261 2.967129 2.647625 2.967129 2.647625 3.130426 Z M 2.647625 3.130426 " transform="matrix(28.346457,0,0,-28.346457,1,227.771654)"/>
<path style="fill-rule:nonzero;fill:rgb(96.862745%,85.882353%,65.490196%);fill-opacity:1;stroke-width:0.02;stroke-linecap:butt;stroke-linejoin:round;stroke:rgb(96.862745%,85.882353%,65.490196%);stroke-opacity:1;stroke-miterlimit:10;" d="M 3.104996 2.240214 C 3.104996 2.403511 2.85998 2.403511 2.85998 2.240214 C 2.85998 2.076916 3.104996 2.076916 3.104996 2.240214 Z M 3.104996 2.240214 " transform="matrix(28.346457,0,0,-28.346457,1,227.771654)"/>
<path style="fill-rule:nonzero;fill:rgb(96.862745%,85.882353%,65.490196%);fill-opacity:1;stroke-width:0.02;stroke-linecap:butt;stroke-linejoin:round;stroke:rgb(96.862745%,85.882353%,65.490196%);stroke-opacity:1;stroke-miterlimit:10;" d="M 3.562367 1.20765 C 3.562367 1.370947 3.317351 1.370947 3.317351 1.20765 C 3.317351 1.044352 3.562367 1.044352 3.562367 1.20765 Z M 3.562367 1.20765 " transform="matrix(28.346457,0,0,-28.346457,1,227.771654)"/>
<path style="fill-rule:nonzero;fill:rgb(96.862745%,85.882353%,65.490196%);fill-opacity:1;stroke-width:0.02;stroke-linecap:butt;stroke-linejoin:round;stroke:rgb(96.862745%,85.882353%,65.490196%);stroke-opacity:1;stroke-miterlimit:10;" d="M 4.019737 0.511051 C 4.019737 0.674487 3.774722 0.674487 3.774722 0.511051 C 3.774722 0.347754 4.019737 0.347754 4.019737 0.511051 Z M 4.019737 0.511051 " transform="matrix(28.346457,0,0,-28.346457,1,227.771654)"/>
<path style="fill-rule:nonzero;fill:rgb(96.862745%,85.882353%,65.490196%);fill-opacity:1;stroke-width:0.02;stroke-linecap:butt;stroke-linejoin:round;stroke:rgb(96.862745%,85.882353%,65.490196%);stroke-opacity:1;stroke-miterlimit:10;" d="M 4.477108 0.73705 C 4.477108 0.900347 4.232093 0.900347 4.232093 0.73705 C 4.232093 0.573614 4.477108 0.573614 4.477108 0.73705 Z M 4.477108 0.73705 " transform="matrix(28.346457,0,0,-28.346457,1,227.771654)"/>
<path style="fill-rule:nonzero;fill:rgb(96.862745%,85.882353%,65.490196%);fill-opacity:1;stroke-width:0.02;stroke-linecap:butt;stroke-linejoin:round;stroke:rgb(96.862745%,85.882353%,65.490196%);stroke-opacity:1;stroke-miterlimit:10;" d="M 4.934341 2.151468 C 4.934341 2.314766 4.689464 2.314766 4.689464 2.151468 C 4.689464 1.988033 4.934341 1.988033 4.934341 2.151468 Z M 4.934341 2.151468 " transform="matrix(28.346457,0,0,-28.346457,1,227.771654)"/>
<path style="fill-rule:nonzero;fill:rgb(96.862745%,85.882353%,65.490196%);fill-opacity:1;stroke-width:0.02;stroke-linecap:butt;stroke-linejoin:round;stroke:rgb(96.862745%,85.882353%,65.490196%);stroke-opacity:1;stroke-miterlimit:10;" d="M 5.391712 4.367078 C 5.391712 4.530375 5.146697 4.530375 5.146697 4.367078 C 5.146697 4.20378 5.391712 4.20378 5.391712 4.367078 Z M 5.391712 4.367078 " transform="matrix(28.346457,0,0,-28.346457,1,227.771654)"/>
<path style="fill-rule:nonzero;fill:rgb(96.862745%,85.882353%,65.490196%);fill-opacity:1;stroke-width:0.02;stroke-linecap:butt;stroke-linejoin:round;stroke:rgb(96.862745%,85.882353%,65.490196%);stroke-opacity:1;stroke-miterlimit:10;" d="M 5.849083 6.484709 C 5.849083 6.648007 5.604068 6.648007 5.604068 6.484709 C 5.604068 6.321274 5.849083 6.321274 5.849083 6.484709 Z M 5.849083 6.484709 " transform="matrix(28.346457,0,0,-28.346457,1,227.771654)"/>
<path style="fill-rule:nonzero;fill:rgb(96.862745%,85.882353%,65.490196%);fill-opacity:1;stroke-width:0.02;stroke-linecap:butt;stroke-linejoin:round;stroke:rgb(96.862745%,85.882353%,65.490196%);stroke-opacity:1;stroke-miterlimit:10;" d="M 6.306454 7.669822 C 6.306454 7.83312 6.061439 7.83312 6.061439 7.669822 C 6.061439 7.506387 6.306454 7.506387 6.306454 7.669822 Z M 6.306454 7.669822 " transform="matrix(28.346457,0,0,-28.346457,1,227.771654)"/>
<path style="fill-rule:nonzero;fill:rgb(96.862745%,85.882353%,65.490196%);fill-opacity:1;stroke-width:0.02;stroke-linecap:butt;stroke-linejoin:round;stroke:rgb(96.862745%,85.882353%,65.490196%);stroke-opacity:1;stroke-miterlimit:10;" d="M 6.763825 7.672854 C 6.763825 7.836151 6.51881 7.836151 6.51881 7.672854 C 6.51881 7.509556 6.763825 7.509556 6.763825 7.672854 Z M 6.763825 7.672854 " transform="matrix(28.346457,0,0,-28.346457,1,227.771654)"/>
<path style="fill-rule:nonzero;fill:rgb(96.862745%,85.882353%,65.490196%);fill-opacity:1;stroke-width:0.02;stroke-linecap:butt;stroke-linejoin:round;stroke:rgb(96.862745%,85.882353%,65.490196%);stroke-opacity:1;stroke-miterlimit:10;" d="M 7.221058 6.860362 C 7.221058 7.023798 6.976181 7.023798 6.976181 6.860362 C 6.976181 6.697065 7.221058 6.697065 7.221058 6.860362 Z M 7.221058 6.860362 " transform="matrix(28.346457,0,0,-28.346457,1,227.771654)"/>
<path style="fill-rule:nonzero;fill:rgb(96.862745%,85.882353%,65.490196%);fill-opacity:1;stroke-width:0.02;stroke-linecap:butt;stroke-linejoin:round;stroke:rgb(96.862745%,85.882353%,65.490196%);stroke-opacity:1;stroke-miterlimit:10;" d="M 7.678429 5.826834 C 7.678429 5.990131 7.433414 5.990131 7.433414 5.826834 C 7.433414 5.663398 7.678429 5.663398 7.678429 5.826834 Z M 7.678429 5.826834 " transform="matrix(28.346457,0,0,-28.346457,1,227.771654)"/>
<path style="fill-rule:nonzero;fill:rgb(96.862745%,85.882353%,65.490196%);fill-opacity:1;stroke-width:0.02;stroke-linecap:butt;stroke-linejoin:round;stroke:rgb(96.862745%,85.882353%,65.490196%);stroke-opacity:1;stroke-miterlimit:10;" d="M 8.1358 4.99629 C 8.1358 5.159725 7.890785 5.159725 7.890785 4.99629 C 7.890785 4.832993 8.1358 4.832993 8.1358 4.99629 Z M 8.1358 4.99629 " transform="matrix(28.346457,0,0,-28.346457,1,227.771654)"/>
<path style="fill-rule:nonzero;fill:rgb(96.862745%,85.882353%,65.490196%);fill-opacity:1;stroke-width:0.02;stroke-linecap:butt;stroke-linejoin:round;stroke:rgb(96.862745%,85.882353%,65.490196%);stroke-opacity:1;stroke-miterlimit:10;" d="M 8.593171 4.496338 C 8.593171 4.659635 8.348155 4.659635 8.348155 4.496338 C 8.348155 4.332903 8.593171 4.332903 8.593171 4.496338 Z M 8.593171 4.496338 " transform="matrix(28.346457,0,0,-28.346457,1,227.771654)"/>
<path style="fill-rule:nonzero;fill:rgb(96.862745%,85.882353%,65.490196%);fill-opacity:1;stroke-width:0.02;stroke-linecap:butt;stroke-linejoin:round;stroke:rgb(96.862745%,85.882353%,65.490196%);stroke-opacity:1;stroke-miterlimit:10;" d="M 9.050541 4.258902 C 9.050541 4.422199 8.805526 4.422199 8.805526 4.258902 C 8.805526 4.095604 9.050541 4.095604 9.050541 4.258902 Z M 9.050541 4.258902 " transform="matrix(28.346457,0,0,-28.346457,1,227.771654)"/>
<path style="fill-rule:nonzero;fill:rgb(96.862745%,85.882353%,65.490196%);fill-opacity:1;stroke-width:0.02;stroke-linecap:butt;stroke-linejoin:round;stroke:rgb(96.862745%,85.882353%,65.490196%);stroke-opacity:1;stroke-miterlimit:10;" d="M 9.507912 4.168503 C 9.507912 4.331938 9.262897 4.331938 9.262897 4.168503 C 9.262897 4.005205 9.507912 4.005205 9.507912 4.168503 Z M 9.507912 4.168503 " transform="matrix(28.346457,0,0,-28.346457,1,227.771654)"/>
</g>
</svg>
