<?xml version="1.0" encoding="UTF-8"?>
<svg xmlns="http://www.w3.org/2000/svg" xmlns:xlink="http://www.w3.org/1999/xlink" width="342.15748pt" height="257.11811pt" viewBox="0 0 342.15748 257.11811" version="1.1">
<g id="surface1">
<path style="fill:none;stroke-width:0.02;stroke-linecap:butt;stroke-linejoin:miter;stroke:rgb(0%,0%,0%);stroke-opacity:1;stroke-miterlimit:10;" d="M 1.316302 2.269661 L 1.421309 2.269661 " transform="matrix(28.346457,0,0,-28.346457,1,256.11811)"/>
<path style="fill:none;stroke-width:0.02;stroke-linecap:butt;stroke-linejoin:miter;stroke:rgb(0%,0%,0%);stroke-opacity:1;stroke-miterlimit:10;" d="M 1.316302 2.935805 L 1.421309 2.935805 " transform="matrix(28.346457,0,0,-28.346457,1,256.11811)"/>
<path style="fill:none;stroke-width:0.02;stroke-linecap:butt;stroke-linejoin:miter;stroke:rgb(0%,0%,0%);stroke-opacity:1;stroke-miterlimit:10;" d="M 1.316302 3.601811 L 1.421309 3.601811 " transform="matrix(28.346457,0,0,-28.346457,1,256.11811)"/>
<path style="fill:none;stroke-width:0.02;stroke-linecap:butt;stroke-linejoin:miter;stroke:rgb(0%,0%,0%);stroke-opacity:1;stroke-miterlimit:10;" d="M 1.316302 4.267817 L 1.421309 4.267817 " transform="matrix(28.346457,0,0,-28.346457,1,256.11811)"/>
<path style="fill:none;stroke-width:0.02;stroke-linecap:butt;stroke-linejoin:miter;stroke:rgb(0%,0%,0%);stroke-opacity:1;stroke-miterlimit:10;" d="M 1.316302 4.933823 L 1.421309 4.933823 " transform="matrix(28.346457,0,0,-28.346457,1,256.11811)"/>
<path style="fill:none;stroke-width:0.02;stroke-linecap:butt;stroke-linejoin:miter;stroke:rgb(0%,0%,0%);stroke-opacity:1;stroke-miterlimit:10;" d="M 1.316302 5.599829 L 1.421309 5.599829 " transform="matrix(28.346457,0,0,-28.346457,1,256.11811)"/>
<path style="fill:none;stroke-width:0.02;stroke-linecap:butt;stroke-linejoin:miter;stroke:rgb(0%,0%,0%);stroke-opacity:1;stroke-miterlimit:10;" d="M 1.316302 6.265834 L 1.421309 6.265834 " transform="matrix(28.346457,0,0,-28.346457,1,256.11811)"/>
<path style="fill:none;stroke-width:0.02;stroke-linecap:butt;stroke-linejoin:miter;stroke:rgb(0%,0%,0%);stroke-opacity:1;stroke-miterlimit:10;" d="M 1.316302 6.931978 L 1.421309 6.931978 " transform="matrix(28.346457,0,0,-28.346457,1,256.11811)"/>
<path style="fill:none;stroke-width:0.02;stroke-linecap:butt;stroke-linejoin:miter;stroke:rgb(0%,0%,0%);stroke-opacity:1;stroke-miterlimit:10;" d="M 1.316302 7.597984 L 1.421309 7.597984 " transform="matrix(28.346457,0,0,-28.346457,1,256.11811)"/>
<path style="fill:none;stroke-width:0.02;stroke-linecap:round;stroke-linejoin:miter;stroke:rgb(0%,0%,0%);stroke-opacity:1;stroke-miterlimit:10;" d="M 1.316302 0.93765 L 1.316302 8.929996 " transform="matrix(28.346457,0,0,-28.346457,1,256.11811)"/>
<path style=" stroke:none;fill-rule:nonzero;fill:rgb(0%,0%,0%);fill-opacity:1;" d="M 22.75 192.417969 L 22.75 192.863281 L 20.667969 192.863281 L 20.667969 192.417969 Z M 22.75 192.417969 Z M 22.75 192.417969 "/>
<path style=" stroke:none;fill-rule:nonzero;fill:rgb(0%,0%,0%);fill-opacity:1;" d="M 25.582031 189.039062 L 25.582031 193.933594 L 25.589844 193.949219 L 26.566406 193.949219 L 26.566406 194.386719 L 23.988281 194.386719 L 23.988281 193.949219 L 24.964844 193.949219 L 24.980469 193.933594 L 24.980469 189.824219 C 24.644531 189.933594 24.296875 190.007812 23.949219 190 L 23.949219 189.554688 C 24.472656 189.5625 25.042969 189.417969 25.441406 189.039062 Z M 25.582031 189.039062 Z M 25.582031 189.039062 "/>
<path style=" stroke:none;fill-rule:nonzero;fill:rgb(0%,0%,0%);fill-opacity:1;" d="M 28.613281 193.753906 L 28.613281 194.386719 L 27.972656 194.386719 L 27.972656 193.753906 Z M 28.613281 193.753906 Z M 28.613281 193.753906 "/>
<path style=" stroke:none;fill-rule:nonzero;fill:rgb(0%,0%,0%);fill-opacity:1;" d="M 31.503906 189.039062 C 32.257812 189.09375 32.757812 189.785156 32.894531 190.480469 C 32.964844 190.800781 32.980469 191.101562 33.011719 191.417969 L 33.011719 192.226562 C 32.972656 193.054688 32.773438 194.140625 31.875 194.472656 C 31.097656 194.785156 30.1875 194.300781 29.957031 193.507812 C 29.78125 193.085938 29.765625 192.65625 29.726562 192.226562 L 29.726562 191.417969 C 29.765625 190.59375 29.941406 189.496094 30.828125 189.132812 L 30.867188 189.117188 L 30.902344 189.109375 L 30.941406 189.09375 L 31.058594 189.0625 L 31.132812 189.046875 L 31.21875 189.046875 L 31.234375 189.039062 Z M 31.503906 189.039062 Z M 31.257812 189.523438 C 30.589844 189.601562 30.394531 190.402344 30.34375 190.941406 L 30.34375 191.15625 L 30.328125 191.171875 L 30.328125 192.277344 C 30.375 192.847656 30.417969 193.585938 30.941406 193.964844 C 31.425781 194.300781 32.066406 193.925781 32.203125 193.410156 C 32.34375 193.03125 32.378906 192.65625 32.410156 192.277344 L 32.410156 191.171875 C 32.359375 190.59375 32.28125 189.785156 31.613281 189.554688 L 31.558594 189.539062 L 31.542969 189.523438 L 31.472656 189.523438 L 31.457031 189.507812 L 31.273438 189.507812 Z M 31.257812 189.523438 Z M 31.257812 189.523438 "/>
<path style=" stroke:none;fill-rule:nonzero;fill:rgb(0%,0%,0%);fill-opacity:1;" d="M 18.78125 173.539062 L 18.78125 173.984375 L 16.703125 173.984375 L 16.703125 173.539062 Z M 18.78125 173.539062 Z M 18.78125 173.539062 "/>
<path style=" stroke:none;fill-rule:nonzero;fill:rgb(0%,0%,0%);fill-opacity:1;" d="M 21.367188 170.15625 C 22.121094 170.214844 22.621094 170.902344 22.757812 171.601562 C 22.828125 171.921875 22.84375 172.222656 22.875 172.539062 L 22.875 173.347656 C 22.835938 174.175781 22.636719 175.261719 21.742188 175.59375 C 20.964844 175.90625 20.050781 175.421875 19.820312 174.625 C 19.644531 174.207031 19.628906 173.777344 19.589844 173.347656 L 19.589844 172.539062 C 19.628906 171.714844 19.804688 170.617188 20.695312 170.253906 L 20.734375 170.238281 L 20.765625 170.230469 L 20.804688 170.214844 L 20.925781 170.183594 L 20.996094 170.167969 L 21.082031 170.167969 L 21.097656 170.15625 Z M 21.367188 170.15625 Z M 21.121094 170.640625 C 20.457031 170.722656 20.257812 171.523438 20.210938 172.0625 L 20.210938 172.277344 L 20.195312 172.292969 L 20.195312 173.394531 C 20.242188 173.96875 20.28125 174.707031 20.804688 175.085938 C 21.289062 175.421875 21.933594 175.046875 22.066406 174.53125 C 22.210938 174.152344 22.242188 173.777344 22.273438 173.394531 L 22.273438 172.292969 C 22.226562 171.714844 22.144531 170.902344 21.480469 170.675781 L 21.425781 170.65625 L 21.40625 170.640625 L 21.335938 170.640625 L 21.320312 170.625 L 21.136719 170.625 Z M 21.121094 170.640625 Z M 21.121094 170.640625 "/>
<path style=" stroke:none;fill-rule:nonzero;fill:rgb(0%,0%,0%);fill-opacity:1;" d="M 24.644531 174.871094 L 24.644531 175.507812 L 24.003906 175.507812 L 24.003906 174.871094 Z M 24.644531 174.871094 Z M 24.644531 174.871094 "/>
<path style=" stroke:none;fill-rule:nonzero;fill:rgb(0%,0%,0%);fill-opacity:1;" d="M 29.042969 170.324219 L 29.042969 170.824219 C 27.917969 172.140625 27.28125 173.921875 27.289062 175.59375 L 26.644531 175.59375 C 26.628906 173.90625 27.320312 172.117188 28.527344 170.871094 L 28.511719 170.855469 L 25.757812 170.855469 L 25.757812 170.324219 L 29.042969 170.324219 L 29.042969 170.824219 Z M 29.042969 170.324219 Z M 29.042969 170.324219 "/>
<path style=" stroke:none;fill-rule:nonzero;fill:rgb(0%,0%,0%);fill-opacity:1;" d="M 32.679688 170.324219 L 32.679688 170.816406 L 30.613281 170.816406 L 30.597656 170.824219 L 30.597656 172.453125 C 30.789062 172.324219 31.058594 172.160156 31.3125 172.148438 C 32.210938 172.054688 32.902344 172.9375 32.941406 173.753906 C 33.066406 174.792969 32.089844 175.824219 31.042969 175.667969 C 30.519531 175.652344 30.011719 175.339844 29.710938 174.914062 C 29.796875 174.792969 29.867188 174.585938 29.972656 174.515625 C 30.34375 175.246094 31.550781 175.539062 32.035156 174.769531 C 32.34375 174.191406 32.335938 173.453125 31.980469 172.894531 C 31.566406 172.363281 30.75 172.691406 30.558594 173.253906 L 30.042969 173.253906 L 30.042969 170.324219 Z M 32.679688 170.324219 Z M 32.679688 170.324219 "/>
<path style=" stroke:none;fill-rule:nonzero;fill:rgb(0%,0%,0%);fill-opacity:1;" d="M 22.75 154.660156 L 22.75 155.105469 L 20.667969 155.105469 L 20.667969 154.660156 Z M 22.75 154.660156 Z M 22.75 154.660156 "/>
<path style=" stroke:none;fill-rule:nonzero;fill:rgb(0%,0%,0%);fill-opacity:1;" d="M 25.335938 151.277344 C 26.089844 151.335938 26.589844 152.023438 26.726562 152.722656 C 26.796875 153.039062 26.8125 153.34375 26.84375 153.660156 L 26.84375 154.46875 C 26.804688 155.292969 26.605469 156.382812 25.710938 156.714844 C 24.933594 157.023438 24.019531 156.539062 23.789062 155.746094 C 23.613281 155.328125 23.597656 154.898438 23.558594 154.46875 L 23.558594 153.660156 C 23.597656 152.835938 23.773438 151.738281 24.664062 151.375 L 24.703125 151.359375 L 24.734375 151.351562 L 24.773438 151.335938 L 24.890625 151.300781 L 24.964844 151.285156 L 25.050781 151.285156 L 25.066406 151.277344 Z M 25.335938 151.277344 Z M 25.089844 151.761719 C 24.425781 151.84375 24.226562 152.644531 24.179688 153.183594 L 24.179688 153.398438 L 24.164062 153.414062 L 24.164062 154.515625 C 24.210938 155.089844 24.25 155.828125 24.773438 156.207031 C 25.257812 156.539062 25.898438 156.167969 26.035156 155.652344 C 26.179688 155.269531 26.210938 154.898438 26.242188 154.515625 L 26.242188 153.414062 C 26.195312 152.835938 26.113281 152.023438 25.449219 151.792969 L 25.390625 151.777344 L 25.375 151.761719 L 25.304688 151.761719 L 25.289062 151.746094 L 25.105469 151.746094 Z M 25.089844 151.761719 Z M 25.089844 151.761719 "/>
<path style=" stroke:none;fill-rule:nonzero;fill:rgb(0%,0%,0%);fill-opacity:1;" d="M 28.613281 155.992188 L 28.613281 156.628906 L 27.972656 156.628906 L 27.972656 155.992188 Z M 28.613281 155.992188 Z M 28.613281 155.992188 "/>
<path style=" stroke:none;fill-rule:nonzero;fill:rgb(0%,0%,0%);fill-opacity:1;" d="M 32.679688 151.445312 L 32.679688 151.9375 L 30.613281 151.9375 L 30.597656 151.945312 L 30.597656 153.574219 C 30.789062 153.445312 31.058594 153.277344 31.3125 153.269531 C 32.210938 153.175781 32.902344 154.054688 32.941406 154.875 C 33.066406 155.914062 32.089844 156.945312 31.042969 156.785156 C 30.519531 156.769531 30.011719 156.460938 29.710938 156.03125 C 29.796875 155.914062 29.867188 155.707031 29.972656 155.636719 C 30.34375 156.367188 31.550781 156.660156 32.035156 155.890625 C 32.34375 155.3125 32.335938 154.574219 31.980469 154.015625 C 31.566406 153.484375 30.75 153.808594 30.558594 154.375 L 30.042969 154.375 L 30.042969 151.445312 Z M 32.679688 151.445312 Z M 32.679688 151.445312 "/>
<path style=" stroke:none;fill-rule:nonzero;fill:rgb(0%,0%,0%);fill-opacity:1;" d="M 18.78125 135.78125 L 18.78125 136.226562 L 16.703125 136.226562 L 16.703125 135.78125 Z M 18.78125 135.78125 Z M 18.78125 135.78125 "/>
<path style=" stroke:none;fill-rule:nonzero;fill:rgb(0%,0%,0%);fill-opacity:1;" d="M 21.367188 132.398438 C 22.121094 132.453125 22.621094 133.144531 22.757812 133.84375 C 22.828125 134.160156 22.84375 134.460938 22.875 134.78125 L 22.875 135.589844 C 22.835938 136.414062 22.636719 137.503906 21.742188 137.835938 C 20.964844 138.144531 20.050781 137.660156 19.820312 136.867188 C 19.644531 136.445312 19.628906 136.019531 19.589844 135.589844 L 19.589844 134.78125 C 19.628906 133.953125 19.804688 132.859375 20.695312 132.496094 L 20.734375 132.476562 L 20.765625 132.46875 L 20.804688 132.453125 L 20.925781 132.421875 L 20.996094 132.40625 L 21.082031 132.40625 L 21.097656 132.398438 Z M 21.367188 132.398438 Z M 21.121094 132.882812 C 20.457031 132.960938 20.257812 133.765625 20.210938 134.304688 L 20.210938 134.519531 L 20.195312 134.535156 L 20.195312 135.636719 C 20.242188 136.207031 20.28125 136.945312 20.804688 137.328125 C 21.289062 137.660156 21.933594 137.289062 22.066406 136.773438 C 22.210938 136.390625 22.242188 136.019531 22.273438 135.636719 L 22.273438 134.535156 C 22.226562 133.953125 22.144531 133.144531 21.480469 132.914062 L 21.425781 132.898438 L 21.40625 132.882812 L 21.335938 132.882812 L 21.320312 132.867188 L 21.136719 132.867188 Z M 21.121094 132.882812 Z M 21.121094 132.882812 "/>
<path style=" stroke:none;fill-rule:nonzero;fill:rgb(0%,0%,0%);fill-opacity:1;" d="M 24.644531 137.113281 L 24.644531 137.75 L 24.003906 137.75 L 24.003906 137.113281 Z M 24.644531 137.113281 Z M 24.644531 137.113281 "/>
<path style=" stroke:none;fill-rule:nonzero;fill:rgb(0%,0%,0%);fill-opacity:1;" d="M 27.449219 132.398438 C 28.367188 132.421875 29.097656 133.367188 28.957031 134.257812 C 28.859375 135.144531 28.027344 135.652344 27.433594 136.207031 L 27.179688 136.46875 L 27.148438 136.488281 L 26.828125 136.796875 L 26.804688 136.8125 L 26.488281 137.128906 L 26.457031 137.144531 L 26.382812 137.214844 L 26.402344 137.226562 L 28.972656 137.226562 L 28.972656 137.75 L 25.828125 137.75 L 25.828125 137.273438 L 27.105469 135.996094 C 27.71875 135.460938 28.433594 134.773438 28.320312 133.898438 C 28.257812 133.390625 27.828125 132.921875 27.304688 132.882812 C 26.773438 132.804688 26.304688 133.222656 26.1875 133.730469 L 26.171875 133.757812 L 26.15625 133.8125 L 26.128906 133.898438 L 26.082031 134.074219 L 26.074219 134.113281 C 25.964844 133.976562 25.84375 133.835938 25.757812 133.683594 C 25.917969 133.035156 26.441406 132.421875 27.128906 132.398438 Z M 27.449219 132.398438 Z M 27.449219 132.398438 "/>
<path style=" stroke:none;fill-rule:nonzero;fill:rgb(0%,0%,0%);fill-opacity:1;" d="M 32.679688 132.566406 L 32.679688 133.058594 L 30.613281 133.058594 L 30.597656 133.066406 L 30.597656 134.691406 C 30.789062 134.566406 31.058594 134.398438 31.3125 134.390625 C 32.210938 134.296875 32.902344 135.175781 32.941406 135.996094 C 33.066406 137.035156 32.089844 138.066406 31.042969 137.90625 C 30.519531 137.890625 30.011719 137.582031 29.710938 137.152344 C 29.796875 137.035156 29.867188 136.828125 29.972656 136.757812 C 30.34375 137.488281 31.550781 137.78125 32.035156 137.011719 C 32.34375 136.429688 32.335938 135.691406 31.980469 135.136719 C 31.566406 134.605469 30.75 134.929688 30.558594 135.496094 L 30.042969 135.496094 L 30.042969 132.566406 Z M 32.679688 132.566406 Z M 32.679688 132.566406 "/>
<path style=" stroke:none;fill-rule:nonzero;fill:rgb(0%,0%,0%);fill-opacity:1;" d="M 25.335938 113.519531 C 26.089844 113.574219 26.589844 114.265625 26.726562 114.964844 C 26.796875 115.28125 26.8125 115.582031 26.84375 115.902344 L 26.84375 116.710938 C 26.804688 117.535156 26.605469 118.621094 25.710938 118.957031 C 24.933594 119.265625 24.019531 118.78125 23.789062 117.988281 C 23.613281 117.566406 23.597656 117.140625 23.558594 116.710938 L 23.558594 115.902344 C 23.597656 115.074219 23.773438 113.980469 24.664062 113.613281 L 24.703125 113.597656 L 24.734375 113.589844 L 24.773438 113.574219 L 24.890625 113.542969 L 24.964844 113.527344 L 25.050781 113.527344 L 25.066406 113.519531 Z M 25.335938 113.519531 Z M 25.089844 114.003906 C 24.425781 114.082031 24.226562 114.882812 24.179688 115.425781 L 24.179688 115.636719 L 24.164062 115.65625 L 24.164062 116.757812 C 24.210938 117.328125 24.25 118.066406 24.773438 118.449219 C 25.257812 118.78125 25.898438 118.410156 26.035156 117.894531 C 26.179688 117.511719 26.210938 117.140625 26.242188 116.757812 L 26.242188 115.65625 C 26.195312 115.074219 26.113281 114.265625 25.449219 114.035156 L 25.390625 114.019531 L 25.375 114.003906 L 25.304688 114.003906 L 25.289062 113.988281 L 25.105469 113.988281 Z M 25.089844 114.003906 Z M 25.089844 114.003906 "/>
<path style=" stroke:none;fill-rule:nonzero;fill:rgb(0%,0%,0%);fill-opacity:1;" d="M 28.613281 118.234375 L 28.613281 118.867188 L 27.972656 118.867188 L 27.972656 118.234375 Z M 28.613281 118.234375 Z M 28.613281 118.234375 "/>
<path style=" stroke:none;fill-rule:nonzero;fill:rgb(0%,0%,0%);fill-opacity:1;" d="M 31.503906 113.519531 C 32.257812 113.574219 32.757812 114.265625 32.894531 114.964844 C 32.964844 115.28125 32.980469 115.582031 33.011719 115.902344 L 33.011719 116.710938 C 32.972656 117.535156 32.773438 118.621094 31.875 118.957031 C 31.097656 119.265625 30.1875 118.78125 29.957031 117.988281 C 29.78125 117.566406 29.765625 117.140625 29.726562 116.710938 L 29.726562 115.902344 C 29.765625 115.074219 29.941406 113.980469 30.828125 113.613281 L 30.867188 113.597656 L 30.902344 113.589844 L 30.941406 113.574219 L 31.058594 113.542969 L 31.132812 113.527344 L 31.21875 113.527344 L 31.234375 113.519531 Z M 31.503906 113.519531 Z M 31.257812 114.003906 C 30.589844 114.082031 30.394531 114.882812 30.34375 115.425781 L 30.34375 115.636719 L 30.328125 115.65625 L 30.328125 116.757812 C 30.375 117.328125 30.417969 118.066406 30.941406 118.449219 C 31.425781 118.78125 32.066406 118.410156 32.203125 117.894531 C 32.34375 117.511719 32.378906 117.140625 32.410156 116.757812 L 32.410156 115.65625 C 32.359375 115.074219 32.28125 114.265625 31.613281 114.035156 L 31.558594 114.019531 L 31.542969 114.003906 L 31.472656 114.003906 L 31.457031 113.988281 L 31.273438 113.988281 Z M 31.257812 114.003906 Z M 31.257812 114.003906 "/>
<path style=" stroke:none;fill-rule:nonzero;fill:rgb(0%,0%,0%);fill-opacity:1;" d="M 21.367188 94.640625 C 22.121094 94.695312 22.621094 95.386719 22.757812 96.085938 C 22.828125 96.402344 22.84375 96.703125 22.875 97.019531 L 22.875 97.832031 C 22.835938 98.65625 22.636719 99.742188 21.742188 100.078125 C 20.964844 100.386719 20.050781 99.902344 19.820312 99.109375 C 19.644531 98.6875 19.628906 98.257812 19.589844 97.832031 L 19.589844 97.019531 C 19.628906 96.195312 19.804688 95.101562 20.695312 94.734375 L 20.734375 94.71875 L 20.765625 94.710938 L 20.804688 94.695312 L 20.925781 94.664062 L 20.996094 94.648438 L 21.082031 94.648438 L 21.097656 94.640625 Z M 21.367188 94.640625 Z M 21.121094 95.125 C 20.457031 95.203125 20.257812 96.003906 20.210938 96.542969 L 20.210938 96.757812 L 20.195312 96.773438 L 20.195312 97.878906 C 20.242188 98.449219 20.28125 99.1875 20.804688 99.570312 C 21.289062 99.902344 21.933594 99.527344 22.066406 99.011719 C 22.210938 98.632812 22.242188 98.257812 22.273438 97.878906 L 22.273438 96.773438 C 22.226562 96.195312 22.144531 95.386719 21.480469 95.15625 L 21.425781 95.140625 L 21.40625 95.125 L 21.335938 95.125 L 21.320312 95.109375 L 21.136719 95.109375 Z M 21.121094 95.125 Z M 21.121094 95.125 "/>
<path style=" stroke:none;fill-rule:nonzero;fill:rgb(0%,0%,0%);fill-opacity:1;" d="M 24.644531 99.355469 L 24.644531 99.988281 L 24.003906 99.988281 L 24.003906 99.355469 Z M 24.644531 99.355469 Z M 24.644531 99.355469 "/>
<path style=" stroke:none;fill-rule:nonzero;fill:rgb(0%,0%,0%);fill-opacity:1;" d="M 27.449219 94.640625 C 28.367188 94.664062 29.097656 95.609375 28.957031 96.496094 C 28.859375 97.386719 28.027344 97.894531 27.433594 98.449219 L 27.179688 98.710938 L 27.148438 98.726562 L 26.828125 99.035156 L 26.804688 99.054688 L 26.488281 99.371094 L 26.457031 99.386719 L 26.382812 99.457031 L 26.402344 99.464844 L 28.972656 99.464844 L 28.972656 99.988281 L 25.828125 99.988281 L 25.828125 99.511719 L 27.105469 98.234375 C 27.71875 97.703125 28.433594 97.011719 28.320312 96.140625 C 28.257812 95.632812 27.828125 95.164062 27.304688 95.125 C 26.773438 95.042969 26.304688 95.464844 26.1875 95.972656 L 26.171875 95.996094 L 26.15625 96.050781 L 26.128906 96.140625 L 26.082031 96.316406 L 26.074219 96.355469 C 25.964844 96.21875 25.84375 96.078125 25.757812 95.925781 C 25.917969 95.273438 26.441406 94.664062 27.128906 94.640625 Z M 27.449219 94.640625 Z M 27.449219 94.640625 "/>
<path style=" stroke:none;fill-rule:nonzero;fill:rgb(0%,0%,0%);fill-opacity:1;" d="M 32.679688 94.804688 L 32.679688 95.296875 L 30.613281 95.296875 L 30.597656 95.304688 L 30.597656 96.933594 C 30.789062 96.808594 31.058594 96.640625 31.3125 96.632812 C 32.210938 96.535156 32.902344 97.417969 32.941406 98.234375 C 33.066406 99.273438 32.089844 100.308594 31.042969 100.148438 C 30.519531 100.132812 30.011719 99.824219 29.710938 99.394531 C 29.796875 99.273438 29.867188 99.070312 29.972656 98.996094 C 30.34375 99.726562 31.550781 100.019531 32.035156 99.25 C 32.34375 98.671875 32.335938 97.933594 31.980469 97.378906 C 31.566406 96.847656 30.75 97.171875 30.558594 97.734375 L 30.042969 97.734375 L 30.042969 94.804688 Z M 32.679688 94.804688 Z M 32.679688 94.804688 "/>
<path style=" stroke:none;fill-rule:nonzero;fill:rgb(0%,0%,0%);fill-opacity:1;" d="M 25.335938 75.761719 C 26.089844 75.816406 26.589844 76.507812 26.726562 77.203125 C 26.796875 77.523438 26.8125 77.824219 26.84375 78.140625 L 26.84375 78.949219 C 26.804688 79.777344 26.605469 80.863281 25.710938 81.195312 C 24.933594 81.507812 24.019531 81.023438 23.789062 80.230469 C 23.613281 79.808594 23.597656 79.378906 23.558594 78.949219 L 23.558594 78.140625 C 23.597656 77.316406 23.773438 76.21875 24.664062 75.855469 L 24.703125 75.839844 L 24.734375 75.832031 L 24.773438 75.816406 L 24.890625 75.785156 L 24.964844 75.769531 L 25.050781 75.769531 L 25.066406 75.761719 Z M 25.335938 75.761719 Z M 25.089844 76.246094 C 24.425781 76.324219 24.226562 77.125 24.179688 77.664062 L 24.179688 77.878906 L 24.164062 77.894531 L 24.164062 79 C 24.210938 79.570312 24.25 80.308594 24.773438 80.6875 C 25.257812 81.023438 25.898438 80.648438 26.035156 80.132812 C 26.179688 79.753906 26.210938 79.378906 26.242188 79 L 26.242188 77.894531 C 26.195312 77.316406 26.113281 76.507812 25.449219 76.277344 L 25.390625 76.261719 L 25.375 76.246094 L 25.304688 76.246094 L 25.289062 76.230469 L 25.105469 76.230469 Z M 25.089844 76.246094 Z M 25.089844 76.246094 "/>
<path style=" stroke:none;fill-rule:nonzero;fill:rgb(0%,0%,0%);fill-opacity:1;" d="M 28.613281 80.476562 L 28.613281 81.109375 L 27.972656 81.109375 L 27.972656 80.476562 Z M 28.613281 80.476562 Z M 28.613281 80.476562 "/>
<path style=" stroke:none;fill-rule:nonzero;fill:rgb(0%,0%,0%);fill-opacity:1;" d="M 32.679688 75.925781 L 32.679688 76.417969 L 30.613281 76.417969 L 30.597656 76.425781 L 30.597656 78.054688 C 30.789062 77.925781 31.058594 77.761719 31.3125 77.753906 C 32.210938 77.65625 32.902344 78.539062 32.941406 79.355469 C 33.066406 80.394531 32.089844 81.425781 31.042969 81.269531 C 30.519531 81.253906 30.011719 80.941406 29.710938 80.515625 C 29.796875 80.394531 29.867188 80.1875 29.972656 80.117188 C 30.34375 80.847656 31.550781 81.140625 32.035156 80.371094 C 32.34375 79.792969 32.335938 79.054688 31.980469 78.5 C 31.566406 77.964844 30.75 78.292969 30.558594 78.855469 L 30.042969 78.855469 L 30.042969 75.925781 Z M 32.679688 75.925781 Z M 32.679688 75.925781 "/>
<path style=" stroke:none;fill-rule:nonzero;fill:rgb(0%,0%,0%);fill-opacity:1;" d="M 21.367188 56.878906 C 22.121094 56.9375 22.621094 57.625 22.757812 58.324219 C 22.828125 58.644531 22.84375 58.945312 22.875 59.261719 L 22.875 60.070312 C 22.835938 60.898438 22.636719 61.984375 21.742188 62.316406 C 20.964844 62.628906 20.050781 62.144531 19.820312 61.347656 C 19.644531 60.929688 19.628906 60.5 19.589844 60.070312 L 19.589844 59.261719 C 19.628906 58.4375 19.804688 57.339844 20.695312 56.976562 L 20.734375 56.960938 L 20.765625 56.953125 L 20.804688 56.9375 L 20.925781 56.90625 L 20.996094 56.886719 L 21.082031 56.886719 L 21.097656 56.878906 Z M 21.367188 56.878906 Z M 21.121094 57.363281 C 20.457031 57.445312 20.257812 58.246094 20.210938 58.785156 L 20.210938 59 L 20.195312 59.015625 L 20.195312 60.117188 C 20.242188 60.691406 20.28125 61.429688 20.804688 61.808594 C 21.289062 62.144531 21.933594 61.769531 22.066406 61.253906 C 22.210938 60.871094 22.242188 60.5 22.273438 60.117188 L 22.273438 59.015625 C 22.226562 58.4375 22.144531 57.625 21.480469 57.398438 L 21.425781 57.378906 L 21.40625 57.363281 L 21.335938 57.363281 L 21.320312 57.347656 L 21.136719 57.347656 Z M 21.121094 57.363281 Z M 21.121094 57.363281 "/>
<path style=" stroke:none;fill-rule:nonzero;fill:rgb(0%,0%,0%);fill-opacity:1;" d="M 24.644531 61.59375 L 24.644531 62.230469 L 24.003906 62.230469 L 24.003906 61.59375 Z M 24.644531 61.59375 Z M 24.644531 61.59375 "/>
<path style=" stroke:none;fill-rule:nonzero;fill:rgb(0%,0%,0%);fill-opacity:1;" d="M 29.042969 57.046875 L 29.042969 57.546875 C 27.917969 58.863281 27.28125 60.644531 27.289062 62.316406 L 26.644531 62.316406 C 26.628906 60.628906 27.320312 58.839844 28.527344 57.59375 L 28.511719 57.578125 L 25.757812 57.578125 L 25.757812 57.046875 L 29.042969 57.046875 L 29.042969 57.546875 Z M 29.042969 57.046875 Z M 29.042969 57.046875 "/>
<path style=" stroke:none;fill-rule:nonzero;fill:rgb(0%,0%,0%);fill-opacity:1;" d="M 32.679688 57.046875 L 32.679688 57.539062 L 30.613281 57.539062 L 30.597656 57.546875 L 30.597656 59.175781 C 30.789062 59.046875 31.058594 58.878906 31.3125 58.871094 C 32.210938 58.777344 32.902344 59.660156 32.941406 60.476562 C 33.066406 61.515625 32.089844 62.546875 31.042969 62.390625 C 30.519531 62.375 30.011719 62.0625 29.710938 61.636719 C 29.796875 61.515625 29.867188 61.308594 29.972656 61.238281 C 30.34375 61.96875 31.550781 62.261719 32.035156 61.492188 C 32.34375 60.914062 32.335938 60.175781 31.980469 59.617188 C 31.566406 59.085938 30.75 59.414062 30.558594 59.976562 L 30.042969 59.976562 L 30.042969 57.046875 Z M 32.679688 57.046875 Z M 32.679688 57.046875 "/>
<path style=" stroke:none;fill-rule:nonzero;fill:rgb(0%,0%,0%);fill-opacity:1;" d="M 25.582031 38 L 25.582031 42.898438 L 25.589844 42.914062 L 26.566406 42.914062 L 26.566406 43.351562 L 23.988281 43.351562 L 23.988281 42.914062 L 24.964844 42.914062 L 24.980469 42.898438 L 24.980469 38.785156 C 24.644531 38.898438 24.296875 38.96875 23.949219 38.960938 L 23.949219 38.515625 C 24.472656 38.523438 25.042969 38.382812 25.441406 38 Z M 25.582031 38 Z M 25.582031 38 "/>
<path style=" stroke:none;fill-rule:nonzero;fill:rgb(0%,0%,0%);fill-opacity:1;" d="M 28.613281 42.714844 L 28.613281 43.351562 L 27.972656 43.351562 L 27.972656 42.714844 Z M 28.613281 42.714844 Z M 28.613281 42.714844 "/>
<path style=" stroke:none;fill-rule:nonzero;fill:rgb(0%,0%,0%);fill-opacity:1;" d="M 31.503906 38 C 32.257812 38.058594 32.757812 38.746094 32.894531 39.445312 C 32.964844 39.761719 32.980469 40.066406 33.011719 40.382812 L 33.011719 41.191406 C 32.972656 42.015625 32.773438 43.105469 31.875 43.4375 C 31.097656 43.746094 30.1875 43.261719 29.957031 42.46875 C 29.78125 42.050781 29.765625 41.621094 29.726562 41.191406 L 29.726562 40.382812 C 29.765625 39.558594 29.941406 38.460938 30.828125 38.097656 L 30.867188 38.082031 L 30.902344 38.074219 L 30.941406 38.058594 L 31.058594 38.023438 L 31.132812 38.007812 L 31.21875 38.007812 L 31.234375 38 Z M 31.503906 38 Z M 31.257812 38.484375 C 30.589844 38.566406 30.394531 39.367188 30.34375 39.90625 L 30.34375 40.121094 L 30.328125 40.136719 L 30.328125 41.238281 C 30.375 41.8125 30.417969 42.550781 30.941406 42.929688 C 31.425781 43.261719 32.066406 42.890625 32.203125 42.375 C 32.34375 41.992188 32.378906 41.621094 32.410156 41.238281 L 32.410156 40.136719 C 32.359375 39.558594 32.28125 38.746094 31.613281 38.515625 L 31.558594 38.5 L 31.542969 38.484375 L 31.472656 38.484375 L 31.457031 38.46875 L 31.273438 38.46875 Z M 31.257812 38.484375 Z M 31.257812 38.484375 "/>
<path style=" stroke:none;fill-rule:nonzero;fill:rgb(0%,0%,0%);fill-opacity:1;" d="M 5.355469 127.035156 C 6.566406 126.519531 7.785156 125.925781 9.074219 125.628906 L 9.246094 125.628906 L 9.265625 125.609375 C 7.925781 125.359375 6.625 124.765625 5.355469 124.257812 L 5.355469 123.542969 C 7.300781 124.347656 9.292969 125.082031 11.199219 125.964844 C 11.457031 126.125 11.734375 126.339844 11.773438 126.660156 L 11.773438 127.027344 L 11.753906 127.035156 L 11.753906 127.214844 L 11.746094 127.234375 L 11.746094 127.363281 L 11.726562 127.382812 L 11.726562 127.472656 L 11.703125 127.523438 L 11.597656 127.523438 L 11.574219 127.542969 L 11.398438 127.542969 L 11.386719 127.5625 L 11.1875 127.5625 L 11.167969 127.582031 L 11.078125 127.582031 C 11.1875 127.195312 11.425781 126.648438 10.972656 126.410156 C 10.574219 126.203125 10.128906 125.996094 9.710938 125.894531 C 8.253906 126.519531 6.804688 127.175781 5.355469 127.789062 Z M 5.355469 127.035156 Z M 5.355469 127.035156 "/>
<path style=" stroke:none;fill-rule:nonzero;fill:rgb(0%,0%,0%);fill-opacity:1;" d="M 7.269531 120.65625 L 7.824219 120.65625 L 7.824219 123.257812 L 7.269531 123.257812 Z M 7.269531 120.65625 Z M 7.269531 120.65625 "/>
<path style=" stroke:none;fill-rule:nonzero;fill:rgb(0%,0%,0%);fill-opacity:1;" d="M 5.1875 117.550781 C 5.257812 116.808594 5.929688 116.183594 6.664062 116.113281 L 9.730469 116.113281 L 9.730469 116.828125 L 9.402344 116.828125 C 9.640625 117.234375 9.828125 117.78125 9.820312 118.265625 C 10.007812 118.941406 9.414062 119.574219 8.757812 119.613281 C 7.945312 119.695312 7.585938 118.800781 7.449219 118.136719 C 7.359375 117.710938 7.359375 117.292969 7.308594 116.867188 C 6.765625 116.828125 6.121094 116.867188 5.832031 117.402344 C 5.632812 118.027344 5.890625 118.710938 6.269531 119.238281 L 6.160156 119.238281 L 6.140625 119.246094 L 5.941406 119.246094 L 5.921875 119.269531 L 5.734375 119.269531 L 5.710938 119.289062 L 5.625 119.289062 C 5.277344 118.773438 5.15625 118.15625 5.1875 117.550781 Z M 5.1875 117.550781 Z M 7.824219 116.90625 C 7.824219 117.523438 7.90625 118.136719 8.222656 118.691406 C 8.480469 119.097656 9.066406 118.871094 9.164062 118.464844 C 9.355469 117.949219 9.273438 117.242188 8.777344 116.925781 L 8.71875 116.90625 L 8.648438 116.886719 L 8.628906 116.867188 L 7.824219 116.867188 L 7.804688 116.886719 Z M 7.824219 116.90625 Z M 7.824219 116.90625 "/>
<path style=" stroke:none;fill-rule:nonzero;fill:rgb(0%,0%,0%);fill-opacity:1;" d="M 5.355469 114.4375 C 5.902344 113.980469 6.445312 113.511719 7.003906 113.058594 C 6.445312 112.621094 5.910156 112.164062 5.355469 111.726562 L 5.355469 110.945312 C 6.070312 111.519531 6.753906 112.152344 7.488281 112.730469 C 8.242188 112.085938 8.996094 111.421875 9.730469 110.765625 L 9.730469 111.570312 C 9.117188 112.054688 8.5 112.570312 7.867188 113.058594 C 8.492188 113.535156 9.125 114.019531 9.730469 114.503906 L 9.730469 115.300781 C 8.988281 114.65625 8.242188 114 7.480469 113.382812 C 6.765625 113.980469 6.058594 114.625 5.355469 115.21875 Z M 5.355469 114.4375 Z M 5.355469 114.4375 "/>
<path style=" stroke:none;fill-rule:nonzero;fill:rgb(0%,0%,0%);fill-opacity:1;" d="M 3.003906 109.128906 L 3.867188 109.128906 L 3.867188 109.992188 L 3.003906 109.992188 Z M 3.003906 109.128906 Z M 5.355469 109.199219 L 9.730469 109.199219 L 9.730469 109.910156 L 5.355469 109.910156 Z M 5.355469 109.199219 Z M 5.355469 109.199219 "/>
<path style=" stroke:none;fill-rule:nonzero;fill:rgb(0%,0%,0%);fill-opacity:1;" d="M 5.1875 106.140625 C 5.246094 105.773438 5.285156 105.289062 5.535156 104.992188 C 5.710938 105.039062 5.949219 105.039062 6.121094 105.121094 C 5.792969 105.726562 5.601562 106.46875 5.910156 107.125 C 6.21875 107.550781 6.882812 107.332031 6.960938 106.835938 C 7.101562 106.152344 7.191406 105.347656 7.867188 104.972656 C 8.601562 104.535156 9.660156 104.992188 9.789062 105.855469 C 9.929688 106.609375 9.800781 107.410156 9.402344 108.097656 C 9.195312 108.046875 8.945312 108.027344 8.757812 107.96875 C 9.175781 107.304688 9.472656 106.398438 9.027344 105.6875 C 8.679688 105.320312 8.042969 105.527344 7.933594 106.011719 C 7.777344 106.675781 7.714844 107.480469 7.070312 107.878906 C 6.308594 108.363281 5.214844 107.738281 5.226562 106.835938 L 5.207031 106.816406 L 5.207031 106.675781 L 5.1875 106.65625 Z M 5.1875 106.140625 Z M 5.1875 106.140625 "/>
<path style="fill:none;stroke-width:0.02;stroke-linecap:butt;stroke-linejoin:miter;stroke:rgb(0%,0%,0%);stroke-opacity:1;stroke-miterlimit:10;" d="M 11.929952 2.269661 L 11.824946 2.269661 " transform="matrix(28.346457,0,0,-28.346457,1,256.11811)"/>
<path style="fill:none;stroke-width:0.02;stroke-linecap:butt;stroke-linejoin:miter;stroke:rgb(0%,0%,0%);stroke-opacity:1;stroke-miterlimit:10;" d="M 11.929952 2.935805 L 11.824946 2.935805 " transform="matrix(28.346457,0,0,-28.346457,1,256.11811)"/>
<path style="fill:none;stroke-width:0.02;stroke-linecap:butt;stroke-linejoin:miter;stroke:rgb(0%,0%,0%);stroke-opacity:1;stroke-miterlimit:10;" d="M 11.929952 3.601811 L 11.824946 3.601811 " transform="matrix(28.346457,0,0,-28.346457,1,256.11811)"/>
<path style="fill:none;stroke-width:0.02;stroke-linecap:butt;stroke-linejoin:miter;stroke:rgb(0%,0%,0%);stroke-opacity:1;stroke-miterlimit:10;" d="M 11.929952 4.267817 L 11.824946 4.267817 " transform="matrix(28.346457,0,0,-28.346457,1,256.11811)"/>
<path style="fill:none;stroke-width:0.02;stroke-linecap:butt;stroke-linejoin:miter;stroke:rgb(0%,0%,0%);stroke-opacity:1;stroke-miterlimit:10;" d="M 11.929952 4.933823 L 11.824946 4.933823 " transform="matrix(28.346457,0,0,-28.346457,1,256.11811)"/>
<path style="fill:none;stroke-width:0.02;stroke-linecap:butt;stroke-linejoin:miter;stroke:rgb(0%,0%,0%);stroke-opacity:1;stroke-miterlimit:10;" d="M 11.929952 5.599829 L 11.824946 5.599829 " transform="matrix(28.346457,0,0,-28.346457,1,256.11811)"/>
<path style="fill:none;stroke-width:0.02;stroke-linecap:butt;stroke-linejoin:miter;stroke:rgb(0%,0%,0%);stroke-opacity:1;stroke-miterlimit:10;" d="M 11.929952 6.265834 L 11.824946 6.265834 " transform="matrix(28.346457,0,0,-28.346457,1,256.11811)"/>
<path style="fill:none;stroke-width:0.02;stroke-linecap:butt;stroke-linejoin:miter;stroke:rgb(0%,0%,0%);stroke-opacity:1;stroke-miterlimit:10;" d="M 11.929952 6.931978 L 11.824946 6.931978 " transform="matrix(28.346457,0,0,-28.346457,1,256.11811)"/>
<path style="fill:none;stroke-width:0.02;stroke-linecap:butt;stroke-linejoin:miter;stroke:rgb(0%,0%,0%);stroke-opacity:1;stroke-miterlimit:10;" d="M 11.929952 7.597984 L 11.824946 7.597984 " transform="matrix(28.346457,0,0,-28.346457,1,256.11811)"/>
<path style="fill:none;stroke-width:0.02;stroke-linecap:round;stroke-linejoin:miter;stroke:rgb(0%,0%,0%);stroke-opacity:1;stroke-miterlimit:10;" d="M 11.929952 0.93765 L 11.929952 8.929996 " transform="matrix(28.346457,0,0,-28.346457,1,256.11811)"/>
<path style="fill:none;stroke-width:0.02;stroke-linecap:butt;stroke-linejoin:miter;stroke:rgb(0%,0%,0%);stroke-opacity:1;stroke-miterlimit:10;" d="M 3.288826 0.93765 L 3.288826 1.042656 " transform="matrix(28.346457,0,0,-28.346457,1,256.11811)"/>
<path style="fill:none;stroke-width:0.02;stroke-linecap:butt;stroke-linejoin:miter;stroke:rgb(0%,0%,0%);stroke-opacity:1;stroke-miterlimit:10;" d="M 6.623127 0.93765 L 6.623127 1.042656 " transform="matrix(28.346457,0,0,-28.346457,1,256.11811)"/>
<path style="fill:none;stroke-width:0.02;stroke-linecap:butt;stroke-linejoin:miter;stroke:rgb(0%,0%,0%);stroke-opacity:1;stroke-miterlimit:10;" d="M 9.957566 0.93765 L 9.957566 1.042656 " transform="matrix(28.346457,0,0,-28.346457,1,256.11811)"/>
<path style="fill:none;stroke-width:0.02;stroke-linecap:round;stroke-linejoin:miter;stroke:rgb(0%,0%,0%);stroke-opacity:1;stroke-miterlimit:10;" d="M 1.316302 0.93765 L 11.929952 0.93765 " transform="matrix(28.346457,0,0,-28.346457,1,256.11811)"/>
<path style=" stroke:none;fill-rule:nonzero;fill:rgb(0%,0%,0%);fill-opacity:1;" d="M 92.335938 237.070312 C 92.582031 237.125 92.480469 237.492188 92.265625 237.515625 L 91.203125 237.515625 C 90.980469 238.382812 90.941406 239.324219 91.320312 240.183594 C 91.417969 240.484375 90.898438 240.722656 90.789062 240.398438 C 90.480469 239.4375 90.796875 238.484375 90.972656 237.515625 L 90.113281 237.515625 L 90.097656 237.5625 L 89.8125 238.707031 C 89.636719 239.285156 89.542969 239.898438 89.296875 240.445312 C 89.152344 240.660156 88.71875 240.539062 88.835938 240.253906 C 89.242188 239.371094 89.671875 238.46875 89.882812 237.515625 C 89.488281 237.507812 89.066406 237.484375 88.75 237.761719 C 88.597656 237.898438 88.488281 238.0625 88.359375 238.222656 L 88.25 238.222656 C 88.152344 238.054688 88.375 237.90625 88.441406 237.761719 C 88.660156 237.460938 88.941406 237.136719 89.335938 237.070312 Z M 92.335938 237.070312 Z M 92.335938 237.070312 "/>
<path style=" stroke:none;fill-rule:nonzero;fill:rgb(0%,0%,0%);fill-opacity:1;" d="M 95.917969 234.53125 L 95.941406 234.546875 L 95.972656 234.5625 L 96.003906 234.59375 L 96.027344 234.652344 C 95.488281 236.355469 94.8125 238.046875 94.226562 239.753906 C 93.882812 240.628906 93.605469 241.546875 93.234375 242.414062 L 93.179688 242.445312 L 93.089844 242.445312 L 93.035156 242.414062 L 93.003906 242.382812 L 92.972656 242.324219 C 93.519531 240.609375 94.195312 238.9375 94.78125 237.230469 C 95.121094 236.347656 95.390625 235.429688 95.773438 234.5625 L 95.796875 234.546875 L 95.828125 234.53125 Z M 95.917969 234.53125 Z M 95.917969 234.53125 "/>
<path style=" stroke:none;fill-rule:nonzero;fill:rgb(0%,0%,0%);fill-opacity:1;" d="M 98.519531 235.109375 C 99.441406 235.132812 100.171875 236.078125 100.027344 236.96875 C 99.933594 237.855469 99.097656 238.363281 98.503906 238.921875 L 98.25 239.183594 L 98.21875 239.199219 L 97.902344 239.507812 L 97.875 239.523438 L 97.558594 239.839844 L 97.527344 239.855469 L 97.457031 239.929688 L 97.472656 239.9375 L 100.042969 239.9375 L 100.042969 240.460938 L 96.902344 240.460938 L 96.902344 239.984375 L 98.179688 238.707031 C 98.789062 238.175781 99.503906 237.484375 99.394531 236.609375 C 99.328125 236.101562 98.902344 235.632812 98.375 235.59375 C 97.84375 235.515625 97.375 235.9375 97.257812 236.445312 L 97.242188 236.46875 L 97.226562 236.523438 L 97.203125 236.609375 L 97.15625 236.785156 L 97.148438 236.824219 C 97.035156 236.691406 96.917969 236.546875 96.828125 236.398438 C 96.988281 235.746094 97.511719 235.132812 98.203125 235.109375 Z M 98.519531 235.109375 Z M 98.519531 235.109375 "/>
<path style=" stroke:none;fill-rule:nonzero;fill:rgb(0%,0%,0%);fill-opacity:1;" d="M 188.878906 235.109375 C 189.632812 235.167969 190.132812 235.855469 190.265625 236.554688 C 190.339844 236.871094 190.355469 237.175781 190.386719 237.492188 L 190.386719 238.300781 C 190.347656 239.128906 190.148438 240.214844 189.25 240.546875 C 188.472656 240.855469 187.5625 240.375 187.332031 239.578125 C 187.15625 239.160156 187.140625 238.730469 187.101562 238.300781 L 187.101562 237.492188 C 187.140625 236.667969 187.316406 235.570312 188.203125 235.207031 L 188.242188 235.191406 L 188.273438 235.183594 L 188.316406 235.167969 L 188.433594 235.132812 L 188.503906 235.117188 L 188.59375 235.117188 L 188.609375 235.109375 Z M 188.878906 235.109375 Z M 188.632812 235.59375 C 187.964844 235.675781 187.765625 236.476562 187.71875 237.015625 L 187.71875 237.230469 L 187.703125 237.246094 L 187.703125 238.347656 C 187.75 238.921875 187.792969 239.660156 188.316406 240.039062 C 188.800781 240.375 189.441406 240 189.578125 239.484375 C 189.71875 239.101562 189.75 238.730469 189.785156 238.347656 L 189.785156 237.246094 C 189.734375 236.667969 189.65625 235.855469 188.988281 235.625 L 188.933594 235.609375 L 188.917969 235.59375 L 188.847656 235.59375 L 188.832031 235.578125 L 188.648438 235.578125 Z M 188.632812 235.59375 Z M 188.632812 235.59375 "/>
<path style=" stroke:none;fill-rule:nonzero;fill:rgb(0%,0%,0%);fill-opacity:1;" d="M 281.371094 237.070312 C 281.617188 237.125 281.515625 237.492188 281.300781 237.515625 L 280.238281 237.515625 C 280.015625 238.382812 279.976562 239.324219 280.355469 240.183594 C 280.453125 240.484375 279.9375 240.722656 279.824219 240.398438 C 279.515625 239.4375 279.832031 238.484375 280.007812 237.515625 L 279.148438 237.515625 L 279.132812 237.5625 L 278.847656 238.707031 C 278.671875 239.285156 278.578125 239.898438 278.332031 240.445312 C 278.191406 240.660156 277.753906 240.539062 277.871094 240.253906 C 278.277344 239.371094 278.707031 238.46875 278.917969 237.515625 C 278.523438 237.507812 278.101562 237.484375 277.785156 237.761719 C 277.632812 237.898438 277.523438 238.0625 277.394531 238.222656 L 277.285156 238.222656 C 277.191406 238.054688 277.410156 237.90625 277.476562 237.761719 C 277.699219 237.460938 277.976562 237.136719 278.371094 237.070312 Z M 281.371094 237.070312 Z M 281.371094 237.070312 "/>
<path style=" stroke:none;fill-rule:nonzero;fill:rgb(0%,0%,0%);fill-opacity:1;" d="M 284.953125 234.53125 L 284.976562 234.546875 L 285.007812 234.5625 L 285.039062 234.59375 L 285.0625 234.652344 C 284.523438 236.355469 283.847656 238.046875 283.261719 239.753906 C 282.921875 240.628906 282.640625 241.546875 282.269531 242.414062 L 282.214844 242.445312 L 282.125 242.445312 L 282.070312 242.414062 L 282.039062 242.382812 L 282.007812 242.324219 C 282.554688 240.609375 283.230469 238.9375 283.816406 237.230469 C 284.15625 236.347656 284.429688 235.429688 284.808594 234.5625 L 284.832031 234.546875 L 284.863281 234.53125 Z M 284.953125 234.53125 Z M 284.953125 234.53125 "/>
<path style=" stroke:none;fill-rule:nonzero;fill:rgb(0%,0%,0%);fill-opacity:1;" d="M 287.554688 235.109375 C 288.476562 235.132812 289.207031 236.078125 289.0625 236.96875 C 288.96875 237.855469 288.132812 238.363281 287.539062 238.921875 L 287.285156 239.183594 L 287.253906 239.199219 L 286.9375 239.507812 L 286.914062 239.523438 L 286.59375 239.839844 L 286.5625 239.855469 L 286.492188 239.929688 L 286.507812 239.9375 L 289.078125 239.9375 L 289.078125 240.460938 L 285.9375 240.460938 L 285.9375 239.984375 L 287.214844 238.707031 C 287.824219 238.175781 288.539062 237.484375 288.429688 236.609375 C 288.363281 236.101562 287.9375 235.632812 287.414062 235.59375 C 286.878906 235.515625 286.414062 235.9375 286.292969 236.445312 L 286.277344 236.46875 L 286.261719 236.523438 L 286.238281 236.609375 L 286.191406 236.785156 L 286.183594 236.824219 C 286.070312 236.691406 285.953125 236.546875 285.863281 236.398438 C 286.023438 235.746094 286.546875 235.132812 287.238281 235.109375 Z M 287.554688 235.109375 Z M 287.554688 235.109375 "/>
<path style=" stroke:none;fill-rule:nonzero;fill:rgb(0%,0%,0%);fill-opacity:1;" d="M 177.929688 249.777344 C 178.386719 250.320312 178.851562 250.867188 179.308594 251.421875 C 179.746094 250.867188 180.203125 250.332031 180.636719 249.777344 L 181.421875 249.777344 C 180.847656 250.492188 180.210938 251.175781 179.636719 251.910156 C 180.28125 252.664062 180.945312 253.417969 181.601562 254.152344 L 180.796875 254.152344 C 180.308594 253.535156 179.792969 252.921875 179.308594 252.285156 C 178.832031 252.910156 178.347656 253.546875 177.859375 254.152344 L 177.066406 254.152344 C 177.710938 253.40625 178.367188 252.664062 178.980469 251.898438 C 178.386719 251.183594 177.742188 250.480469 177.144531 249.777344 Z M 177.929688 249.777344 Z M 177.929688 249.777344 "/>
<path style=" stroke:none;fill-rule:nonzero;fill:rgb(0%,0%,0%);fill-opacity:1;" d="M 184.347656 251.691406 L 184.347656 252.246094 L 181.75 252.246094 L 181.75 251.691406 Z M 184.347656 251.691406 Z M 184.347656 251.691406 "/>
<path style=" stroke:none;fill-rule:nonzero;fill:rgb(0%,0%,0%);fill-opacity:1;" d="M 187.453125 249.609375 C 188.199219 249.675781 188.824219 250.351562 188.890625 251.085938 L 188.890625 254.152344 L 188.179688 254.152344 L 188.179688 253.824219 C 187.769531 254.0625 187.226562 254.25 186.738281 254.242188 C 186.066406 254.429688 185.429688 253.835938 185.390625 253.179688 C 185.3125 252.367188 186.203125 252.007812 186.867188 251.871094 C 187.296875 251.78125 187.710938 251.78125 188.136719 251.730469 C 188.179688 251.183594 188.136719 250.539062 187.601562 250.253906 C 186.976562 250.054688 186.292969 250.3125 185.765625 250.6875 L 185.765625 250.578125 L 185.757812 250.558594 L 185.757812 250.363281 L 185.738281 250.34375 L 185.738281 250.152344 L 185.71875 250.132812 L 185.71875 250.042969 C 186.234375 249.695312 186.847656 249.578125 187.453125 249.609375 Z M 187.453125 249.609375 Z M 188.097656 252.246094 C 187.484375 252.246094 186.867188 252.328125 186.3125 252.644531 C 185.90625 252.902344 186.132812 253.488281 186.542969 253.585938 C 187.058594 253.773438 187.761719 253.695312 188.078125 253.199219 L 188.097656 253.140625 L 188.117188 253.070312 L 188.136719 253.050781 L 188.136719 252.246094 L 188.117188 252.226562 Z M 188.097656 252.246094 Z M 188.097656 252.246094 "/>
<path style=" stroke:none;fill-rule:nonzero;fill:rgb(0%,0%,0%);fill-opacity:1;" d="M 190.570312 249.777344 C 191.027344 250.320312 191.492188 250.867188 191.949219 251.421875 C 192.382812 250.867188 192.839844 250.332031 193.277344 249.777344 L 194.0625 249.777344 C 193.484375 250.492188 192.851562 251.175781 192.277344 251.910156 C 192.921875 252.664062 193.585938 253.417969 194.238281 254.152344 L 193.4375 254.152344 C 192.949219 253.535156 192.433594 252.921875 191.949219 252.285156 C 191.472656 252.910156 190.984375 253.546875 190.5 254.152344 L 189.707031 254.152344 C 190.351562 253.40625 191.003906 252.664062 191.621094 251.898438 C 191.027344 251.183594 190.378906 250.480469 189.785156 249.777344 Z M 190.570312 249.777344 Z M 190.570312 249.777344 "/>
<path style=" stroke:none;fill-rule:nonzero;fill:rgb(0%,0%,0%);fill-opacity:1;" d="M 195.875 247.425781 L 195.875 248.289062 L 195.015625 248.289062 L 195.015625 247.425781 Z M 195.875 247.425781 Z M 195.808594 249.777344 L 195.808594 254.152344 L 195.09375 254.152344 L 195.09375 249.777344 Z M 195.808594 249.777344 Z M 195.808594 249.777344 "/>
<path style=" stroke:none;fill-rule:nonzero;fill:rgb(0%,0%,0%);fill-opacity:1;" d="M 198.863281 249.609375 C 199.230469 249.667969 199.714844 249.707031 200.015625 249.953125 C 199.964844 250.132812 199.964844 250.371094 199.886719 250.539062 C 199.28125 250.214844 198.535156 250.023438 197.882812 250.332031 C 197.453125 250.640625 197.671875 251.304688 198.167969 251.382812 C 198.851562 251.523438 199.65625 251.613281 200.035156 252.285156 C 200.46875 253.019531 200.015625 254.082031 199.152344 254.210938 C 198.398438 254.351562 197.59375 254.222656 196.910156 253.824219 C 196.957031 253.617188 196.976562 253.367188 197.039062 253.179688 C 197.703125 253.597656 198.605469 253.894531 199.320312 253.449219 C 199.6875 253.101562 199.476562 252.464844 198.992188 252.355469 C 198.328125 252.195312 197.523438 252.136719 197.128906 251.492188 C 196.640625 250.730469 197.265625 249.636719 198.167969 249.648438 L 198.1875 249.628906 L 198.328125 249.628906 L 198.347656 249.609375 Z M 198.863281 249.609375 Z M 198.863281 249.609375 "/>
<path style="fill:none;stroke-width:0.02;stroke-linecap:butt;stroke-linejoin:miter;stroke:rgb(0%,0%,0%);stroke-opacity:1;stroke-miterlimit:10;" d="M 3.288826 8.929996 L 3.288826 8.824989 " transform="matrix(28.346457,0,0,-28.346457,1,256.11811)"/>
<path style="fill:none;stroke-width:0.02;stroke-linecap:butt;stroke-linejoin:miter;stroke:rgb(0%,0%,0%);stroke-opacity:1;stroke-miterlimit:10;" d="M 6.623127 8.929996 L 6.623127 8.824989 " transform="matrix(28.346457,0,0,-28.346457,1,256.11811)"/>
<path style="fill:none;stroke-width:0.02;stroke-linecap:butt;stroke-linejoin:miter;stroke:rgb(0%,0%,0%);stroke-opacity:1;stroke-miterlimit:10;" d="M 9.957566 8.929996 L 9.957566 8.824989 " transform="matrix(28.346457,0,0,-28.346457,1,256.11811)"/>
<path style="fill:none;stroke-width:0.02;stroke-linecap:round;stroke-linejoin:miter;stroke:rgb(0%,0%,0%);stroke-opacity:1;stroke-miterlimit:10;" d="M 1.316302 8.929996 L 11.929952 8.929996 " transform="matrix(28.346457,0,0,-28.346457,1,256.11811)"/>
<path style="fill:none;stroke-width:0.02;stroke-linecap:butt;stroke-linejoin:miter;stroke:rgb(32.941176%,47.058824%,63.921569%);stroke-opacity:1;stroke-miterlimit:10;" d="M 1.316302 4.930791 L 1.423513 4.929551 L 1.530725 4.928173 L 1.637936 4.926243 L 1.745148 4.923763 L 1.852359 4.920594 L 1.95957 4.916459 L 2.066782 4.911498 L 2.173993 4.905297 L 2.281204 4.897718 L 2.388416 4.888485 L 2.495627 4.877323 L 2.602839 4.863956 L 2.71005 4.848109 L 2.817261 4.829367 L 2.924473 4.807732 L 3.031684 4.78279 L 3.138895 4.754264 L 3.246107 4.72188 L 3.353318 4.685638 L 3.46053 4.645399 L 3.567741 4.601164 L 3.674952 4.553071 L 3.782164 4.501532 L 3.889375 4.446686 L 3.996586 4.38936 L 4.103798 4.329966 L 4.31822 4.208975 L 4.425432 4.149443 L 4.532643 4.092255 L 4.639855 4.038925 L 4.747066 3.990693 L 4.854277 3.949077 L 4.961489 3.915728 L 5.0687 3.892026 L 5.175911 3.879072 L 5.283123 3.878245 L 5.390334 3.890648 L 5.497546 3.916693 L 5.604757 3.956931 L 5.711968 4.01164 L 5.819042 4.080266 L 5.926253 4.162673 L 6.033465 4.257482 L 6.140676 4.363728 L 6.247887 4.479759 L 6.355099 4.603645 L 6.46231 4.733318 L 6.569521 4.866574 L 6.676733 5.001071 L 6.783944 5.134327 L 6.891156 5.264001 L 6.998367 5.387886 L 7.105578 5.503917 L 7.21279 5.610164 L 7.320001 5.704973 L 7.427212 5.78738 L 7.534424 5.856006 L 7.641635 5.910714 L 7.748847 5.950953 L 7.856058 5.976998 L 7.963269 5.9894 L 8.070481 5.988573 L 8.177692 5.97562 L 8.284903 5.951917 L 8.392115 5.918569 L 8.499326 5.876952 L 8.606538 5.828721 L 8.713749 5.775391 L 8.82096 5.718202 L 8.928172 5.658671 L 9.142594 5.537679 L 9.249806 5.478286 L 9.357017 5.420959 L 9.464229 5.366113 L 9.57144 5.314575 L 9.678651 5.266481 L 9.785863 5.222246 L 9.893074 5.182007 L 10.000285 5.145765 L 10.107497 5.113519 L 10.214708 5.084856 L 10.321919 5.059913 L 10.429131 5.038278 L 10.536342 5.019537 L 10.643554 5.003689 L 10.750765 4.990322 L 10.857976 4.97916 L 10.965188 4.969927 L 11.072399 4.962348 L 11.179473 4.956147 L 11.286684 4.951186 L 11.393895 4.94719 L 11.501107 4.94402 L 11.608318 4.941402 L 11.71553 4.939473 L 11.822741 4.938095 L 11.929952 4.936854 " transform="matrix(28.346457,0,0,-28.346457,1,256.11811)"/>
<path style="fill:none;stroke-width:0.05;stroke-linecap:butt;stroke-linejoin:miter;stroke:rgb(0%,0%,100%);stroke-opacity:1;stroke-miterlimit:10;" d="M 1.316302 4.820272 L 1.423513 3.982839 L 1.530725 3.227674 L 1.637936 2.593638 L 1.745148 2.108431 L 1.852359 1.787899 L 1.95957 1.636729 L 2.066782 1.650095 L 2.173993 1.814633 L 2.281204 2.111049 L 2.388416 2.515917 L 2.495627 3.003191 L 2.602839 3.546689 L 2.71005 4.120642 L 2.817261 4.701348 L 2.924473 5.267859 L 3.031684 5.802814 L 3.138895 6.291879 L 3.246107 6.724721 L 3.353318 7.094449 L 3.46053 7.397342 L 3.567741 7.632159 L 3.674952 7.800556 L 3.782164 7.9057 L 3.889375 7.952415 L 3.996586 7.94649 L 4.103798 7.894262 L 4.211009 7.80276 L 4.31822 7.678599 L 4.425432 7.528531 L 4.532643 7.358757 L 4.639855 7.175202 L 4.747066 6.982965 L 4.854277 6.786871 L 4.961489 6.590914 L 5.0687 6.398539 L 5.175911 6.212504 L 5.283123 6.035151 L 5.390334 5.86827 L 5.497546 5.713517 L 5.604757 5.571579 L 5.711968 5.443421 L 5.819042 5.329457 L 5.926253 5.229963 L 6.033465 5.144938 L 6.140676 5.07452 L 6.247887 5.018572 L 6.355099 4.976817 L 6.46231 4.949257 L 6.569521 4.935476 L 6.676733 4.935476 L 6.783944 4.948981 L 6.891156 4.975715 L 6.998367 5.01554 L 7.105578 5.068319 L 7.21279 5.1335 L 7.320001 5.211084 L 7.427212 5.300656 L 7.534424 5.401529 L 7.641635 5.513288 L 7.748847 5.634969 L 7.856058 5.765882 L 7.963269 5.904513 L 8.070481 6.049482 L 8.177692 6.199 L 8.392115 6.502444 L 8.499326 6.650996 L 8.606538 6.793072 L 8.713749 6.925226 L 8.82096 7.043186 L 8.928172 7.142818 L 9.035383 7.219575 L 9.142594 7.268771 L 9.249806 7.285996 L 9.357017 7.266979 L 9.464229 7.207861 L 9.57144 7.105335 L 9.678651 6.957196 L 9.785863 6.762479 L 9.893074 6.521598 L 10.000285 6.23662 L 10.107497 5.911816 L 10.214708 5.553251 L 10.321919 5.169605 L 10.429131 4.771352 L 10.536342 4.371445 L 10.643554 3.984079 L 10.750765 3.625238 L 10.857976 3.311321 L 10.965188 3.058726 L 11.072399 2.882751 L 11.179473 2.79621 L 11.286684 2.809163 L 11.393895 2.926848 L 11.501107 3.149539 L 11.608318 3.47076 L 11.71553 3.877832 L 11.822741 4.351188 L 11.929952 4.864921 " transform="matrix(28.346457,0,0,-28.346457,1,256.11811)"/>
<path style=" stroke:none;fill-rule:nonzero;fill:rgb(100%,100%,100%);fill-opacity:1;" d="M 282.742188 32.488281 L 339.171875 32.488281 L 339.171875 2.984375 L 282.742188 2.984375 Z M 282.742188 32.488281 "/>
<path style="fill:none;stroke-width:0.02;stroke-linecap:butt;stroke-linejoin:miter;stroke:rgb(32.941176%,47.058824%,63.921569%);stroke-opacity:1;stroke-miterlimit:10;" d="M 10.128167 8.619524 L 10.758206 8.619524 " transform="matrix(28.346457,0,0,-28.346457,1,256.11811)"/>
<path style=" stroke:none;fill-rule:nonzero;fill:rgb(0%,0%,0%);fill-opacity:1;" d="M 313.855469 10.753906 C 314.785156 10.929688 315.203125 11.984375 315.253906 12.816406 C 315.351562 13.847656 314.804688 15.097656 313.695312 15.328125 C 313.128906 15.425781 312.496094 15.21875 312.097656 14.78125 L 312.078125 14.800781 L 312.078125 17.171875 L 311.335938 17.171875 L 311.335938 10.863281 L 312.046875 10.863281 L 312.046875 11.339844 C 312.425781 11.039062 313 10.78125 313.515625 10.753906 Z M 313.855469 10.753906 Z M 313 11.398438 C 312.632812 11.425781 312.285156 11.65625 312.078125 11.972656 L 312.078125 14.117188 C 312.328125 14.640625 312.972656 14.929688 313.496094 14.671875 C 314.835938 14.144531 314.847656 11.902344 313.46875 11.425781 L 313.386719 11.417969 L 313.296875 11.398438 L 313.289062 11.378906 L 313.011719 11.378906 Z M 313 11.398438 Z M 313 11.398438 "/>
<path style=" stroke:none;fill-rule:nonzero;fill:rgb(0%,0%,0%);fill-opacity:1;" d="M 317.167969 8.382812 L 317.167969 15.238281 L 316.453125 15.238281 L 316.453125 8.382812 Z M 317.167969 8.382812 Z M 317.167969 8.382812 "/>
<path style=" stroke:none;fill-rule:nonzero;fill:rgb(0%,0%,0%);fill-opacity:1;" d="M 320.640625 10.691406 C 322.070312 10.8125 322.953125 12.460938 322.535156 13.757812 C 322.207031 15.066406 320.570312 15.800781 319.421875 15.066406 C 317.910156 14.246094 317.980469 11.773438 319.46875 10.960938 L 319.488281 10.949219 L 319.667969 10.863281 L 319.726562 10.84375 L 319.757812 10.820312 L 319.925781 10.773438 L 320.066406 10.734375 L 320.152344 10.714844 L 320.28125 10.714844 L 320.304688 10.691406 Z M 320.640625 10.691406 Z M 320.304688 11.308594 C 319.398438 11.386719 318.945312 12.417969 319.082031 13.203125 C 319.074219 14.007812 319.796875 14.871094 320.640625 14.710938 C 321.664062 14.59375 322.039062 13.34375 321.820312 12.488281 C 321.722656 11.773438 321.007812 11.179688 320.304688 11.308594 Z M 320.304688 11.308594 Z M 320.304688 11.308594 "/>
<path style=" stroke:none;fill-rule:nonzero;fill:rgb(0%,0%,0%);fill-opacity:1;" d="M 324.6875 9.601562 L 324.6875 10.84375 L 324.707031 10.863281 L 326.066406 10.863281 L 326.066406 11.417969 L 324.707031 11.417969 L 324.6875 11.425781 L 324.6875 14.117188 C 324.726562 14.355469 324.808594 14.660156 325.085938 14.730469 C 325.433594 14.75 325.789062 14.621094 326.066406 14.402344 L 326.085938 14.441406 L 326.097656 14.511719 L 326.117188 14.574219 L 326.136719 14.640625 L 326.15625 14.691406 L 326.195312 14.839844 C 326.316406 15.066406 325.957031 15.089844 325.820312 15.175781 C 325.363281 15.296875 324.875 15.457031 324.421875 15.257812 C 324.09375 15.058594 324.023438 14.640625 323.984375 14.304688 L 323.984375 11.425781 L 323.964844 11.417969 L 323.140625 11.417969 L 323.140625 10.863281 L 324.003906 10.863281 L 324.023438 10.84375 L 324.023438 9.601562 Z M 324.6875 9.601562 Z M 324.6875 9.601562 "/>
<path style=" stroke:none;fill-rule:nonzero;fill:rgb(0%,0%,0%);fill-opacity:1;" d="M 331.8125 8.550781 L 331.8125 14.671875 L 331.820312 14.691406 L 333.042969 14.691406 L 333.042969 15.238281 L 329.816406 15.238281 L 329.816406 14.691406 L 331.039062 14.691406 L 331.058594 14.671875 L 331.058594 9.53125 C 330.640625 9.671875 330.203125 9.761719 329.769531 9.75 L 329.769531 9.195312 C 330.421875 9.203125 331.136719 9.027344 331.632812 8.550781 Z M 331.8125 8.550781 Z M 331.8125 8.550781 "/>
<path style="fill:none;stroke-width:0.05;stroke-linecap:butt;stroke-linejoin:miter;stroke:rgb(0%,0%,100%);stroke-opacity:1;stroke-miterlimit:10;" d="M 10.128167 8.199498 L 10.758206 8.199498 " transform="matrix(28.346457,0,0,-28.346457,1,256.11811)"/>
<path style=" stroke:none;fill-rule:nonzero;fill:rgb(0%,0%,0%);fill-opacity:1;" d="M 313.855469 22.65625 C 314.785156 22.835938 315.203125 23.886719 315.253906 24.722656 C 315.351562 25.753906 314.804688 27.003906 313.695312 27.230469 C 313.128906 27.332031 312.496094 27.121094 312.097656 26.6875 L 312.078125 26.707031 L 312.078125 29.078125 L 311.335938 29.078125 L 311.335938 22.765625 L 312.046875 22.765625 L 312.046875 23.242188 C 312.425781 22.945312 313 22.6875 313.515625 22.65625 Z M 313.855469 22.65625 Z M 313 23.304688 C 312.632812 23.332031 312.285156 23.5625 312.078125 23.878906 L 312.078125 26.019531 C 312.328125 26.546875 312.972656 26.835938 313.496094 26.578125 C 314.835938 26.050781 314.847656 23.808594 313.46875 23.332031 L 313.386719 23.324219 L 313.296875 23.304688 L 313.289062 23.28125 L 313.011719 23.28125 Z M 313 23.304688 Z M 313 23.304688 "/>
<path style=" stroke:none;fill-rule:nonzero;fill:rgb(0%,0%,0%);fill-opacity:1;" d="M 317.167969 20.285156 L 317.167969 27.140625 L 316.453125 27.140625 L 316.453125 20.285156 Z M 317.167969 20.285156 Z M 317.167969 20.285156 "/>
<path style=" stroke:none;fill-rule:nonzero;fill:rgb(0%,0%,0%);fill-opacity:1;" d="M 320.640625 22.597656 C 322.070312 22.71875 322.953125 24.363281 322.535156 25.664062 C 322.207031 26.972656 320.570312 27.707031 319.421875 26.972656 C 317.910156 26.152344 317.980469 23.679688 319.46875 22.867188 L 319.488281 22.855469 L 319.667969 22.765625 L 319.726562 22.746094 L 319.757812 22.726562 L 319.925781 22.679688 L 320.066406 22.636719 L 320.152344 22.617188 L 320.28125 22.617188 L 320.304688 22.597656 Z M 320.640625 22.597656 Z M 320.304688 23.214844 C 319.398438 23.292969 318.945312 24.324219 319.082031 25.109375 C 319.074219 25.914062 319.796875 26.777344 320.640625 26.617188 C 321.664062 26.496094 322.039062 25.246094 321.820312 24.394531 C 321.722656 23.679688 321.007812 23.085938 320.304688 23.214844 Z M 320.304688 23.214844 Z M 320.304688 23.214844 "/>
<path style=" stroke:none;fill-rule:nonzero;fill:rgb(0%,0%,0%);fill-opacity:1;" d="M 324.6875 21.507812 L 324.6875 22.746094 L 324.707031 22.765625 L 326.066406 22.765625 L 326.066406 23.324219 L 324.707031 23.324219 L 324.6875 23.332031 L 324.6875 26.019531 C 324.726562 26.257812 324.808594 26.566406 325.085938 26.636719 C 325.433594 26.65625 325.789062 26.527344 326.066406 26.308594 L 326.085938 26.347656 L 326.097656 26.417969 L 326.117188 26.476562 L 326.136719 26.546875 L 326.15625 26.597656 L 326.195312 26.746094 C 326.316406 26.972656 325.957031 26.992188 325.820312 27.082031 C 325.363281 27.203125 324.875 27.359375 324.421875 27.164062 C 324.09375 26.964844 324.023438 26.546875 323.984375 26.210938 L 323.984375 23.332031 L 323.964844 23.324219 L 323.140625 23.324219 L 323.140625 22.765625 L 324.003906 22.765625 L 324.023438 22.746094 L 324.023438 21.507812 Z M 324.6875 21.507812 Z M 324.6875 21.507812 "/>
<path style=" stroke:none;fill-rule:nonzero;fill:rgb(0%,0%,0%);fill-opacity:1;" d="M 331.394531 20.457031 C 332.546875 20.484375 333.457031 21.664062 333.28125 22.777344 C 333.160156 23.886719 332.121094 24.523438 331.375 25.21875 L 331.058594 25.546875 L 331.019531 25.566406 L 330.621094 25.953125 L 330.589844 25.972656 L 330.195312 26.367188 L 330.15625 26.386719 L 330.066406 26.476562 L 330.085938 26.488281 L 333.300781 26.488281 L 333.300781 27.140625 L 329.371094 27.140625 L 329.371094 26.546875 L 330.96875 24.949219 C 331.730469 24.285156 332.625 23.421875 332.484375 22.332031 C 332.40625 21.695312 331.871094 21.109375 331.214844 21.0625 C 330.550781 20.960938 329.964844 21.488281 329.816406 22.121094 L 329.796875 22.152344 L 329.777344 22.222656 L 329.746094 22.332031 L 329.6875 22.550781 L 329.679688 22.597656 C 329.539062 22.429688 329.390625 22.25 329.28125 22.0625 C 329.480469 21.25 330.136719 20.484375 331 20.457031 Z M 331.394531 20.457031 Z M 331.394531 20.457031 "/>
<path style="fill:none;stroke-width:0.02;stroke-linecap:butt;stroke-linejoin:miter;stroke:rgb(0%,0%,0%);stroke-opacity:1;stroke-miterlimit:10;" d="M 9.939238 7.889163 L 11.929952 7.889163 L 11.929952 8.929996 L 9.939238 8.929996 Z M 9.939238 7.889163 " transform="matrix(28.346457,0,0,-28.346457,1,256.11811)"/>
</g>
</svg>
