<?xml version="1.0" encoding="UTF-8"?>
<svg xmlns="http://www.w3.org/2000/svg" xmlns:xlink="http://www.w3.org/1999/xlink" width="285.464567pt" height="228.771654pt" viewBox="0 0 285.464567 228.771654" version="1.1">
<g id="surface1">
<path style="fill:none;stroke-width:0.02;stroke-linecap:butt;stroke-linejoin:miter;stroke:rgb(0%,0%,0%);stroke-opacity:1;stroke-miterlimit:10;" d="M 1.316302 2.103099 L 1.421309 2.103099 " transform="matrix(28.346457,0,0,-28.346457,1,227.771654)"/>
<path style="fill:none;stroke-width:0.02;stroke-linecap:butt;stroke-linejoin:miter;stroke:rgb(0%,0%,0%);stroke-opacity:1;stroke-miterlimit:10;" d="M 1.316302 2.685734 L 1.421309 2.685734 " transform="matrix(28.346457,0,0,-28.346457,1,227.771654)"/>
<path style="fill:none;stroke-width:0.02;stroke-linecap:butt;stroke-linejoin:miter;stroke:rgb(0%,0%,0%);stroke-opacity:1;stroke-miterlimit:10;" d="M 1.316302 3.268368 L 1.421309 3.268368 " transform="matrix(28.346457,0,0,-28.346457,1,227.771654)"/>
<path style="fill:none;stroke-width:0.02;stroke-linecap:butt;stroke-linejoin:miter;stroke:rgb(0%,0%,0%);stroke-opacity:1;stroke-miterlimit:10;" d="M 1.316302 3.85114 L 1.421309 3.85114 " transform="matrix(28.346457,0,0,-28.346457,1,227.771654)"/>
<path style="fill:none;stroke-width:0.02;stroke-linecap:butt;stroke-linejoin:miter;stroke:rgb(0%,0%,0%);stroke-opacity:1;stroke-miterlimit:10;" d="M 1.316302 4.433775 L 1.421309 4.433775 " transform="matrix(28.346457,0,0,-28.346457,1,227.771654)"/>
<path style="fill:none;stroke-width:0.02;stroke-linecap:butt;stroke-linejoin:miter;stroke:rgb(0%,0%,0%);stroke-opacity:1;stroke-miterlimit:10;" d="M 1.316302 5.016547 L 1.421309 5.016547 " transform="matrix(28.346457,0,0,-28.346457,1,227.771654)"/>
<path style="fill:none;stroke-width:0.02;stroke-linecap:butt;stroke-linejoin:miter;stroke:rgb(0%,0%,0%);stroke-opacity:1;stroke-miterlimit:10;" d="M 1.316302 5.599182 L 1.421309 5.599182 " transform="matrix(28.346457,0,0,-28.346457,1,227.771654)"/>
<path style="fill:none;stroke-width:0.02;stroke-linecap:butt;stroke-linejoin:miter;stroke:rgb(0%,0%,0%);stroke-opacity:1;stroke-miterlimit:10;" d="M 1.316302 6.181954 L 1.421309 6.181954 " transform="matrix(28.346457,0,0,-28.346457,1,227.771654)"/>
<path style="fill:none;stroke-width:0.02;stroke-linecap:butt;stroke-linejoin:miter;stroke:rgb(0%,0%,0%);stroke-opacity:1;stroke-miterlimit:10;" d="M 1.316302 6.764589 L 1.421309 6.764589 " transform="matrix(28.346457,0,0,-28.346457,1,227.771654)"/>
<path style="fill:none;stroke-width:0.02;stroke-linecap:round;stroke-linejoin:miter;stroke:rgb(0%,0%,0%);stroke-opacity:1;stroke-miterlimit:10;" d="M 1.316302 0.937692 L 1.316302 7.929996 " transform="matrix(28.346457,0,0,-28.346457,1,227.771654)"/>
<path style=" stroke:none;fill-rule:nonzero;fill:rgb(0%,0%,0%);fill-opacity:1;" d="M 22.75 168.796875 L 22.75 169.242188 L 20.667969 169.242188 L 20.667969 168.796875 Z M 22.75 168.796875 Z M 22.75 168.796875 "/>
<path style=" stroke:none;fill-rule:nonzero;fill:rgb(0%,0%,0%);fill-opacity:1;" d="M 25.582031 165.414062 L 25.582031 170.3125 L 25.589844 170.328125 L 26.566406 170.328125 L 26.566406 170.765625 L 23.988281 170.765625 L 23.988281 170.328125 L 24.964844 170.328125 L 24.980469 170.3125 L 24.980469 166.203125 C 24.644531 166.3125 24.296875 166.382812 23.949219 166.375 L 23.949219 165.929688 C 24.472656 165.941406 25.042969 165.796875 25.441406 165.414062 Z M 25.582031 165.414062 Z M 25.582031 165.414062 "/>
<path style=" stroke:none;fill-rule:nonzero;fill:rgb(0%,0%,0%);fill-opacity:1;" d="M 28.613281 170.128906 L 28.613281 170.765625 L 27.972656 170.765625 L 27.972656 170.128906 Z M 28.613281 170.128906 Z M 28.613281 170.128906 "/>
<path style=" stroke:none;fill-rule:nonzero;fill:rgb(0%,0%,0%);fill-opacity:1;" d="M 31.503906 165.414062 C 32.257812 165.472656 32.757812 166.160156 32.894531 166.859375 C 32.964844 167.175781 32.980469 167.480469 33.011719 167.796875 L 33.011719 168.605469 C 32.972656 169.433594 32.773438 170.519531 31.875 170.851562 C 31.097656 171.160156 30.1875 170.679688 29.957031 169.882812 C 29.78125 169.464844 29.765625 169.035156 29.726562 168.605469 L 29.726562 167.796875 C 29.765625 166.972656 29.941406 165.875 30.828125 165.511719 L 30.867188 165.496094 L 30.902344 165.488281 L 30.941406 165.472656 L 31.058594 165.4375 L 31.132812 165.421875 L 31.21875 165.421875 L 31.234375 165.414062 Z M 31.503906 165.414062 Z M 31.257812 165.898438 C 30.589844 165.980469 30.394531 166.78125 30.34375 167.320312 L 30.34375 167.535156 L 30.328125 167.550781 L 30.328125 168.652344 C 30.375 169.226562 30.417969 169.964844 30.941406 170.34375 C 31.425781 170.679688 32.066406 170.304688 32.203125 169.789062 C 32.34375 169.40625 32.378906 169.035156 32.410156 168.652344 L 32.410156 167.550781 C 32.359375 166.972656 32.28125 166.160156 31.613281 165.929688 L 31.558594 165.914062 L 31.542969 165.898438 L 31.472656 165.898438 L 31.457031 165.882812 L 31.273438 165.882812 Z M 31.257812 165.898438 Z M 31.257812 165.898438 "/>
<path style=" stroke:none;fill-rule:nonzero;fill:rgb(0%,0%,0%);fill-opacity:1;" d="M 18.78125 152.28125 L 18.78125 152.722656 L 16.703125 152.722656 L 16.703125 152.28125 Z M 18.78125 152.28125 Z M 18.78125 152.28125 "/>
<path style=" stroke:none;fill-rule:nonzero;fill:rgb(0%,0%,0%);fill-opacity:1;" d="M 21.367188 148.898438 C 22.121094 148.953125 22.621094 149.644531 22.757812 150.34375 C 22.828125 150.660156 22.84375 150.960938 22.875 151.28125 L 22.875 152.089844 C 22.835938 152.914062 22.636719 154 21.742188 154.335938 C 20.964844 154.644531 20.050781 154.160156 19.820312 153.367188 C 19.644531 152.945312 19.628906 152.515625 19.589844 152.089844 L 19.589844 151.28125 C 19.628906 150.453125 19.804688 149.359375 20.695312 148.992188 L 20.734375 148.976562 L 20.765625 148.96875 L 20.804688 148.953125 L 20.925781 148.921875 L 20.996094 148.90625 L 21.082031 148.90625 L 21.097656 148.898438 Z M 21.367188 148.898438 Z M 21.121094 149.382812 C 20.457031 149.460938 20.257812 150.261719 20.210938 150.804688 L 20.210938 151.015625 L 20.195312 151.035156 L 20.195312 152.136719 C 20.242188 152.707031 20.28125 153.445312 20.804688 153.828125 C 21.289062 154.160156 21.933594 153.789062 22.066406 153.273438 C 22.210938 152.890625 22.242188 152.515625 22.273438 152.136719 L 22.273438 151.035156 C 22.226562 150.453125 22.144531 149.644531 21.480469 149.414062 L 21.425781 149.398438 L 21.40625 149.382812 L 21.335938 149.382812 L 21.320312 149.367188 L 21.136719 149.367188 Z M 21.121094 149.382812 Z M 21.121094 149.382812 "/>
<path style=" stroke:none;fill-rule:nonzero;fill:rgb(0%,0%,0%);fill-opacity:1;" d="M 24.644531 153.613281 L 24.644531 154.246094 L 24.003906 154.246094 L 24.003906 153.613281 Z M 24.644531 153.613281 Z M 24.644531 153.613281 "/>
<path style=" stroke:none;fill-rule:nonzero;fill:rgb(0%,0%,0%);fill-opacity:1;" d="M 29.042969 149.066406 L 29.042969 149.566406 C 27.917969 150.882812 27.28125 152.660156 27.289062 154.335938 L 26.644531 154.335938 C 26.628906 152.644531 27.320312 150.859375 28.527344 149.613281 L 28.511719 149.597656 L 25.757812 149.597656 L 25.757812 149.066406 L 29.042969 149.066406 L 29.042969 149.566406 Z M 29.042969 149.066406 Z M 29.042969 149.066406 "/>
<path style=" stroke:none;fill-rule:nonzero;fill:rgb(0%,0%,0%);fill-opacity:1;" d="M 32.679688 149.066406 L 32.679688 149.558594 L 30.613281 149.558594 L 30.597656 149.566406 L 30.597656 151.191406 C 30.789062 151.066406 31.058594 150.898438 31.3125 150.890625 C 32.210938 150.796875 32.902344 151.675781 32.941406 152.492188 C 33.066406 153.535156 32.089844 154.566406 31.042969 154.40625 C 30.519531 154.390625 30.011719 154.082031 29.710938 153.652344 C 29.796875 153.535156 29.867188 153.328125 29.972656 153.253906 C 30.34375 153.984375 31.550781 154.28125 32.035156 153.507812 C 32.34375 152.929688 32.335938 152.191406 31.980469 151.636719 C 31.566406 151.105469 30.75 151.429688 30.558594 151.992188 L 30.042969 151.992188 L 30.042969 149.066406 Z M 32.679688 149.066406 Z M 32.679688 149.066406 "/>
<path style=" stroke:none;fill-rule:nonzero;fill:rgb(0%,0%,0%);fill-opacity:1;" d="M 22.75 135.761719 L 22.75 136.207031 L 20.667969 136.207031 L 20.667969 135.761719 Z M 22.75 135.761719 Z M 22.75 135.761719 "/>
<path style=" stroke:none;fill-rule:nonzero;fill:rgb(0%,0%,0%);fill-opacity:1;" d="M 25.335938 132.382812 C 26.089844 132.4375 26.589844 133.128906 26.726562 133.824219 C 26.796875 134.144531 26.8125 134.445312 26.84375 134.761719 L 26.84375 135.570312 C 26.804688 136.398438 26.605469 137.484375 25.710938 137.816406 C 24.933594 138.128906 24.019531 137.644531 23.789062 136.847656 C 23.613281 136.429688 23.597656 136 23.558594 135.570312 L 23.558594 134.761719 C 23.597656 133.9375 23.773438 132.839844 24.664062 132.476562 L 24.703125 132.460938 L 24.734375 132.453125 L 24.773438 132.4375 L 24.890625 132.40625 L 24.964844 132.390625 L 25.050781 132.390625 L 25.066406 132.382812 Z M 25.335938 132.382812 Z M 25.089844 132.863281 C 24.425781 132.945312 24.226562 133.746094 24.179688 134.285156 L 24.179688 134.5 L 24.164062 134.515625 L 24.164062 135.621094 C 24.210938 136.191406 24.25 136.929688 24.773438 137.308594 C 25.257812 137.644531 25.898438 137.269531 26.035156 136.753906 C 26.179688 136.375 26.210938 136 26.242188 135.621094 L 26.242188 134.515625 C 26.195312 133.9375 26.113281 133.128906 25.449219 132.898438 L 25.390625 132.882812 L 25.375 132.863281 L 25.304688 132.863281 L 25.289062 132.847656 L 25.105469 132.847656 Z M 25.089844 132.863281 Z M 25.089844 132.863281 "/>
<path style=" stroke:none;fill-rule:nonzero;fill:rgb(0%,0%,0%);fill-opacity:1;" d="M 28.613281 137.09375 L 28.613281 137.730469 L 27.972656 137.730469 L 27.972656 137.09375 Z M 28.613281 137.09375 Z M 28.613281 137.09375 "/>
<path style=" stroke:none;fill-rule:nonzero;fill:rgb(0%,0%,0%);fill-opacity:1;" d="M 32.679688 132.546875 L 32.679688 133.039062 L 30.613281 133.039062 L 30.597656 133.046875 L 30.597656 134.675781 C 30.789062 134.546875 31.058594 134.382812 31.3125 134.375 C 32.210938 134.277344 32.902344 135.160156 32.941406 135.976562 C 33.066406 137.015625 32.089844 138.046875 31.042969 137.890625 C 30.519531 137.875 30.011719 137.5625 29.710938 137.136719 C 29.796875 137.015625 29.867188 136.808594 29.972656 136.738281 C 30.34375 137.46875 31.550781 137.761719 32.035156 136.992188 C 32.34375 136.414062 32.335938 135.675781 31.980469 135.121094 C 31.566406 134.585938 30.75 134.914062 30.558594 135.476562 L 30.042969 135.476562 L 30.042969 132.546875 Z M 32.679688 132.546875 Z M 32.679688 132.546875 "/>
<path style=" stroke:none;fill-rule:nonzero;fill:rgb(0%,0%,0%);fill-opacity:1;" d="M 18.78125 119.246094 L 18.78125 119.6875 L 16.703125 119.6875 L 16.703125 119.246094 Z M 18.78125 119.246094 Z M 18.78125 119.246094 "/>
<path style=" stroke:none;fill-rule:nonzero;fill:rgb(0%,0%,0%);fill-opacity:1;" d="M 21.367188 115.863281 C 22.121094 115.917969 22.621094 116.609375 22.757812 117.308594 C 22.828125 117.625 22.84375 117.925781 22.875 118.246094 L 22.875 119.054688 C 22.835938 119.878906 22.636719 120.96875 21.742188 121.300781 C 20.964844 121.609375 20.050781 121.125 19.820312 120.332031 C 19.644531 119.910156 19.628906 119.484375 19.589844 119.054688 L 19.589844 118.246094 C 19.628906 117.417969 19.804688 116.324219 20.695312 115.957031 L 20.734375 115.941406 L 20.765625 115.933594 L 20.804688 115.917969 L 20.925781 115.886719 L 20.996094 115.871094 L 21.082031 115.871094 L 21.097656 115.863281 Z M 21.367188 115.863281 Z M 21.121094 116.347656 C 20.457031 116.425781 20.257812 117.230469 20.210938 117.769531 L 20.210938 117.984375 L 20.195312 118 L 20.195312 119.101562 C 20.242188 119.671875 20.28125 120.410156 20.804688 120.792969 C 21.289062 121.125 21.933594 120.753906 22.066406 120.238281 C 22.210938 119.855469 22.242188 119.484375 22.273438 119.101562 L 22.273438 118 C 22.226562 117.417969 22.144531 116.609375 21.480469 116.378906 L 21.425781 116.363281 L 21.40625 116.347656 L 21.335938 116.347656 L 21.320312 116.332031 L 21.136719 116.332031 Z M 21.121094 116.347656 Z M 21.121094 116.347656 "/>
<path style=" stroke:none;fill-rule:nonzero;fill:rgb(0%,0%,0%);fill-opacity:1;" d="M 24.644531 120.578125 L 24.644531 121.214844 L 24.003906 121.214844 L 24.003906 120.578125 Z M 24.644531 120.578125 Z M 24.644531 120.578125 "/>
<path style=" stroke:none;fill-rule:nonzero;fill:rgb(0%,0%,0%);fill-opacity:1;" d="M 27.449219 115.863281 C 28.367188 115.886719 29.097656 116.832031 28.957031 117.722656 C 28.859375 118.609375 28.027344 119.117188 27.433594 119.671875 L 27.179688 119.933594 L 27.148438 119.949219 L 26.828125 120.261719 L 26.804688 120.277344 L 26.488281 120.59375 L 26.457031 120.609375 L 26.382812 120.679688 L 26.402344 120.6875 L 28.972656 120.6875 L 28.972656 121.214844 L 25.828125 121.214844 L 25.828125 120.738281 L 27.105469 119.460938 C 27.71875 118.925781 28.433594 118.238281 28.320312 117.363281 C 28.257812 116.855469 27.828125 116.386719 27.304688 116.347656 C 26.773438 116.269531 26.304688 116.6875 26.1875 117.195312 L 26.171875 117.222656 L 26.15625 117.277344 L 26.128906 117.363281 L 26.082031 117.539062 L 26.074219 117.578125 C 25.964844 117.441406 25.84375 117.300781 25.757812 117.148438 C 25.917969 116.5 26.441406 115.886719 27.128906 115.863281 Z M 27.449219 115.863281 Z M 27.449219 115.863281 "/>
<path style=" stroke:none;fill-rule:nonzero;fill:rgb(0%,0%,0%);fill-opacity:1;" d="M 32.679688 116.03125 L 32.679688 116.523438 L 30.613281 116.523438 L 30.597656 116.53125 L 30.597656 118.15625 C 30.789062 118.03125 31.058594 117.863281 31.3125 117.855469 C 32.210938 117.761719 32.902344 118.640625 32.941406 119.460938 C 33.066406 120.5 32.089844 121.53125 31.042969 121.371094 C 30.519531 121.355469 30.011719 121.046875 29.710938 120.617188 C 29.796875 120.5 29.867188 120.292969 29.972656 120.222656 C 30.34375 120.953125 31.550781 121.246094 32.035156 120.476562 C 32.34375 119.894531 32.335938 119.15625 31.980469 118.601562 C 31.566406 118.070312 30.75 118.394531 30.558594 118.957031 L 30.042969 118.957031 L 30.042969 116.03125 Z M 32.679688 116.03125 Z M 32.679688 116.03125 "/>
<path style=" stroke:none;fill-rule:nonzero;fill:rgb(0%,0%,0%);fill-opacity:1;" d="M 25.335938 99.347656 C 26.089844 99.402344 26.589844 100.09375 26.726562 100.789062 C 26.796875 101.109375 26.8125 101.410156 26.84375 101.726562 L 26.84375 102.535156 C 26.804688 103.363281 26.605469 104.449219 25.710938 104.78125 C 24.933594 105.09375 24.019531 104.609375 23.789062 103.816406 C 23.613281 103.394531 23.597656 102.964844 23.558594 102.535156 L 23.558594 101.726562 C 23.597656 100.902344 23.773438 99.804688 24.664062 99.441406 L 24.703125 99.425781 L 24.734375 99.417969 L 24.773438 99.402344 L 24.890625 99.371094 L 24.964844 99.355469 L 25.050781 99.355469 L 25.066406 99.347656 Z M 25.335938 99.347656 Z M 25.089844 99.832031 C 24.425781 99.910156 24.226562 100.710938 24.179688 101.25 L 24.179688 101.464844 L 24.164062 101.480469 L 24.164062 102.585938 C 24.210938 103.15625 24.25 103.894531 24.773438 104.273438 C 25.257812 104.609375 25.898438 104.234375 26.035156 103.71875 C 26.179688 103.339844 26.210938 102.964844 26.242188 102.585938 L 26.242188 101.480469 C 26.195312 100.902344 26.113281 100.09375 25.449219 99.863281 L 25.390625 99.847656 L 25.375 99.832031 L 25.304688 99.832031 L 25.289062 99.816406 L 25.105469 99.816406 Z M 25.089844 99.832031 Z M 25.089844 99.832031 "/>
<path style=" stroke:none;fill-rule:nonzero;fill:rgb(0%,0%,0%);fill-opacity:1;" d="M 28.613281 104.0625 L 28.613281 104.695312 L 27.972656 104.695312 L 27.972656 104.0625 Z M 28.613281 104.0625 Z M 28.613281 104.0625 "/>
<path style=" stroke:none;fill-rule:nonzero;fill:rgb(0%,0%,0%);fill-opacity:1;" d="M 31.503906 99.347656 C 32.257812 99.402344 32.757812 100.09375 32.894531 100.789062 C 32.964844 101.109375 32.980469 101.410156 33.011719 101.726562 L 33.011719 102.535156 C 32.972656 103.363281 32.773438 104.449219 31.875 104.78125 C 31.097656 105.09375 30.1875 104.609375 29.957031 103.816406 C 29.78125 103.394531 29.765625 102.964844 29.726562 102.535156 L 29.726562 101.726562 C 29.765625 100.902344 29.941406 99.804688 30.828125 99.441406 L 30.867188 99.425781 L 30.902344 99.417969 L 30.941406 99.402344 L 31.058594 99.371094 L 31.132812 99.355469 L 31.21875 99.355469 L 31.234375 99.347656 Z M 31.503906 99.347656 Z M 31.257812 99.832031 C 30.589844 99.910156 30.394531 100.710938 30.34375 101.25 L 30.34375 101.464844 L 30.328125 101.480469 L 30.328125 102.585938 C 30.375 103.15625 30.417969 103.894531 30.941406 104.273438 C 31.425781 104.609375 32.066406 104.234375 32.203125 103.71875 C 32.34375 103.339844 32.378906 102.964844 32.410156 102.585938 L 32.410156 101.480469 C 32.359375 100.902344 32.28125 100.09375 31.613281 99.863281 L 31.558594 99.847656 L 31.542969 99.832031 L 31.472656 99.832031 L 31.457031 99.816406 L 31.273438 99.816406 Z M 31.257812 99.832031 Z M 31.257812 99.832031 "/>
<path style=" stroke:none;fill-rule:nonzero;fill:rgb(0%,0%,0%);fill-opacity:1;" d="M 21.367188 82.828125 C 22.121094 82.882812 22.621094 83.574219 22.757812 84.273438 C 22.828125 84.589844 22.84375 84.890625 22.875 85.210938 L 22.875 86.019531 C 22.835938 86.84375 22.636719 87.933594 21.742188 88.265625 C 20.964844 88.574219 20.050781 88.089844 19.820312 87.296875 C 19.644531 86.875 19.628906 86.449219 19.589844 86.019531 L 19.589844 85.210938 C 19.628906 84.382812 19.804688 83.289062 20.695312 82.925781 L 20.734375 82.90625 L 20.765625 82.898438 L 20.804688 82.882812 L 20.925781 82.851562 L 20.996094 82.835938 L 21.082031 82.835938 L 21.097656 82.828125 Z M 21.367188 82.828125 Z M 21.121094 83.3125 C 20.457031 83.390625 20.257812 84.195312 20.210938 84.734375 L 20.210938 84.949219 L 20.195312 84.964844 L 20.195312 86.066406 C 20.242188 86.636719 20.28125 87.375 20.804688 87.757812 C 21.289062 88.089844 21.933594 87.71875 22.066406 87.203125 C 22.210938 86.820312 22.242188 86.449219 22.273438 86.066406 L 22.273438 84.964844 C 22.226562 84.382812 22.144531 83.574219 21.480469 83.34375 L 21.425781 83.328125 L 21.40625 83.3125 L 21.335938 83.3125 L 21.320312 83.296875 L 21.136719 83.296875 Z M 21.121094 83.3125 Z M 21.121094 83.3125 "/>
<path style=" stroke:none;fill-rule:nonzero;fill:rgb(0%,0%,0%);fill-opacity:1;" d="M 24.644531 87.542969 L 24.644531 88.179688 L 24.003906 88.179688 L 24.003906 87.542969 Z M 24.644531 87.542969 Z M 24.644531 87.542969 "/>
<path style=" stroke:none;fill-rule:nonzero;fill:rgb(0%,0%,0%);fill-opacity:1;" d="M 27.449219 82.828125 C 28.367188 82.851562 29.097656 83.796875 28.957031 84.6875 C 28.859375 85.574219 28.027344 86.082031 27.433594 86.636719 L 27.179688 86.902344 L 27.148438 86.917969 L 26.828125 87.226562 L 26.804688 87.242188 L 26.488281 87.558594 L 26.457031 87.574219 L 26.382812 87.648438 L 26.402344 87.65625 L 28.972656 87.65625 L 28.972656 88.179688 L 25.828125 88.179688 L 25.828125 87.703125 L 27.105469 86.425781 C 27.71875 85.890625 28.433594 85.203125 28.320312 84.328125 C 28.257812 83.820312 27.828125 83.351562 27.304688 83.3125 C 26.773438 83.234375 26.304688 83.652344 26.1875 84.164062 L 26.171875 84.1875 L 26.15625 84.242188 L 26.128906 84.328125 L 26.082031 84.503906 L 26.074219 84.542969 C 25.964844 84.410156 25.84375 84.265625 25.757812 84.113281 C 25.917969 83.464844 26.441406 82.851562 27.128906 82.828125 Z M 27.449219 82.828125 Z M 27.449219 82.828125 "/>
<path style=" stroke:none;fill-rule:nonzero;fill:rgb(0%,0%,0%);fill-opacity:1;" d="M 32.679688 82.996094 L 32.679688 83.488281 L 30.613281 83.488281 L 30.597656 83.496094 L 30.597656 85.121094 C 30.789062 84.996094 31.058594 84.828125 31.3125 84.820312 C 32.210938 84.726562 32.902344 85.605469 32.941406 86.425781 C 33.066406 87.464844 32.089844 88.496094 31.042969 88.335938 C 30.519531 88.320312 30.011719 88.011719 29.710938 87.582031 C 29.796875 87.464844 29.867188 87.257812 29.972656 87.1875 C 30.34375 87.917969 31.550781 88.210938 32.035156 87.441406 C 32.34375 86.859375 32.335938 86.121094 31.980469 85.566406 C 31.566406 85.035156 30.75 85.359375 30.558594 85.925781 L 30.042969 85.925781 L 30.042969 82.996094 Z M 32.679688 82.996094 Z M 32.679688 82.996094 "/>
<path style=" stroke:none;fill-rule:nonzero;fill:rgb(0%,0%,0%);fill-opacity:1;" d="M 25.335938 66.3125 C 26.089844 66.367188 26.589844 67.058594 26.726562 67.757812 C 26.796875 68.074219 26.8125 68.375 26.84375 68.691406 L 26.84375 69.503906 C 26.804688 70.328125 26.605469 71.414062 25.710938 71.75 C 24.933594 72.058594 24.019531 71.574219 23.789062 70.78125 C 23.613281 70.359375 23.597656 69.929688 23.558594 69.503906 L 23.558594 68.691406 C 23.597656 67.867188 23.773438 66.773438 24.664062 66.40625 L 24.703125 66.390625 L 24.734375 66.382812 L 24.773438 66.367188 L 24.890625 66.335938 L 24.964844 66.320312 L 25.050781 66.320312 L 25.066406 66.3125 Z M 25.335938 66.3125 Z M 25.089844 66.796875 C 24.425781 66.875 24.226562 67.675781 24.179688 68.214844 L 24.179688 68.429688 L 24.164062 68.445312 L 24.164062 69.550781 C 24.210938 70.121094 24.25 70.859375 24.773438 71.242188 C 25.257812 71.574219 25.898438 71.199219 26.035156 70.683594 C 26.179688 70.304688 26.210938 69.929688 26.242188 69.550781 L 26.242188 68.445312 C 26.195312 67.867188 26.113281 67.058594 25.449219 66.828125 L 25.390625 66.8125 L 25.375 66.796875 L 25.304688 66.796875 L 25.289062 66.78125 L 25.105469 66.78125 Z M 25.089844 66.796875 Z M 25.089844 66.796875 "/>
<path style=" stroke:none;fill-rule:nonzero;fill:rgb(0%,0%,0%);fill-opacity:1;" d="M 28.613281 71.027344 L 28.613281 71.660156 L 27.972656 71.660156 L 27.972656 71.027344 Z M 28.613281 71.027344 Z M 28.613281 71.027344 "/>
<path style=" stroke:none;fill-rule:nonzero;fill:rgb(0%,0%,0%);fill-opacity:1;" d="M 32.679688 66.476562 L 32.679688 66.96875 L 30.613281 66.96875 L 30.597656 66.976562 L 30.597656 68.605469 C 30.789062 68.476562 31.058594 68.3125 31.3125 68.304688 C 32.210938 68.207031 32.902344 69.089844 32.941406 69.90625 C 33.066406 70.945312 32.089844 71.976562 31.042969 71.820312 C 30.519531 71.804688 30.011719 71.496094 29.710938 71.066406 C 29.796875 70.945312 29.867188 70.742188 29.972656 70.667969 C 30.34375 71.398438 31.550781 71.691406 32.035156 70.921875 C 32.34375 70.34375 32.335938 69.605469 31.980469 69.050781 C 31.566406 68.519531 30.75 68.84375 30.558594 69.40625 L 30.042969 69.40625 L 30.042969 66.476562 Z M 32.679688 66.476562 Z M 32.679688 66.476562 "/>
<path style=" stroke:none;fill-rule:nonzero;fill:rgb(0%,0%,0%);fill-opacity:1;" d="M 21.367188 49.792969 C 22.121094 49.851562 22.621094 50.539062 22.757812 51.238281 C 22.828125 51.554688 22.84375 51.859375 22.875 52.175781 L 22.875 52.984375 C 22.835938 53.808594 22.636719 54.898438 21.742188 55.230469 C 20.964844 55.539062 20.050781 55.054688 19.820312 54.261719 C 19.644531 53.84375 19.628906 53.414062 19.589844 52.984375 L 19.589844 52.175781 C 19.628906 51.351562 19.804688 50.253906 20.695312 49.890625 L 20.734375 49.875 L 20.765625 49.867188 L 20.804688 49.851562 L 20.925781 49.816406 L 20.996094 49.800781 L 21.082031 49.800781 L 21.097656 49.792969 Z M 21.367188 49.792969 Z M 21.121094 50.277344 C 20.457031 50.359375 20.257812 51.160156 20.210938 51.699219 L 20.210938 51.914062 L 20.195312 51.929688 L 20.195312 53.03125 C 20.242188 53.605469 20.28125 54.34375 20.804688 54.722656 C 21.289062 55.054688 21.933594 54.683594 22.066406 54.167969 C 22.210938 53.785156 22.242188 53.414062 22.273438 53.03125 L 22.273438 51.929688 C 22.226562 51.351562 22.144531 50.539062 21.480469 50.308594 L 21.425781 50.292969 L 21.40625 50.277344 L 21.335938 50.277344 L 21.320312 50.261719 L 21.136719 50.261719 Z M 21.121094 50.277344 Z M 21.121094 50.277344 "/>
<path style=" stroke:none;fill-rule:nonzero;fill:rgb(0%,0%,0%);fill-opacity:1;" d="M 24.644531 54.507812 L 24.644531 55.144531 L 24.003906 55.144531 L 24.003906 54.507812 Z M 24.644531 54.507812 Z M 24.644531 54.507812 "/>
<path style=" stroke:none;fill-rule:nonzero;fill:rgb(0%,0%,0%);fill-opacity:1;" d="M 29.042969 49.960938 L 29.042969 50.460938 C 27.917969 51.777344 27.28125 53.554688 27.289062 55.230469 L 26.644531 55.230469 C 26.628906 53.539062 27.320312 51.753906 28.527344 50.507812 L 28.511719 50.492188 L 25.757812 50.492188 L 25.757812 49.960938 L 29.042969 49.960938 L 29.042969 50.460938 Z M 29.042969 49.960938 Z M 29.042969 49.960938 "/>
<path style=" stroke:none;fill-rule:nonzero;fill:rgb(0%,0%,0%);fill-opacity:1;" d="M 32.679688 49.960938 L 32.679688 50.453125 L 30.613281 50.453125 L 30.597656 50.460938 L 30.597656 52.089844 C 30.789062 51.960938 31.058594 51.792969 31.3125 51.785156 C 32.210938 51.691406 32.902344 52.570312 32.941406 53.390625 C 33.066406 54.429688 32.089844 55.460938 31.042969 55.300781 C 30.519531 55.285156 30.011719 54.976562 29.710938 54.546875 C 29.796875 54.429688 29.867188 54.222656 29.972656 54.152344 C 30.34375 54.882812 31.550781 55.175781 32.035156 54.40625 C 32.34375 53.824219 32.335938 53.089844 31.980469 52.53125 C 31.566406 52 30.75 52.324219 30.558594 52.890625 L 30.042969 52.890625 L 30.042969 49.960938 Z M 32.679688 49.960938 Z M 32.679688 49.960938 "/>
<path style=" stroke:none;fill-rule:nonzero;fill:rgb(0%,0%,0%);fill-opacity:1;" d="M 25.582031 33.277344 L 25.582031 38.175781 L 25.589844 38.191406 L 26.566406 38.191406 L 26.566406 38.625 L 23.988281 38.625 L 23.988281 38.191406 L 24.964844 38.191406 L 24.980469 38.175781 L 24.980469 34.0625 C 24.644531 34.171875 24.296875 34.246094 23.949219 34.238281 L 23.949219 33.792969 C 24.472656 33.800781 25.042969 33.65625 25.441406 33.277344 Z M 25.582031 33.277344 Z M 25.582031 33.277344 "/>
<path style=" stroke:none;fill-rule:nonzero;fill:rgb(0%,0%,0%);fill-opacity:1;" d="M 28.613281 37.992188 L 28.613281 38.625 L 27.972656 38.625 L 27.972656 37.992188 Z M 28.613281 37.992188 Z M 28.613281 37.992188 "/>
<path style=" stroke:none;fill-rule:nonzero;fill:rgb(0%,0%,0%);fill-opacity:1;" d="M 31.503906 33.277344 C 32.257812 33.332031 32.757812 34.023438 32.894531 34.722656 C 32.964844 35.039062 32.980469 35.339844 33.011719 35.65625 L 33.011719 36.46875 C 32.972656 37.292969 32.773438 38.378906 31.875 38.714844 C 31.097656 39.023438 30.1875 38.539062 29.957031 37.746094 C 29.78125 37.324219 29.765625 36.894531 29.726562 36.46875 L 29.726562 35.65625 C 29.765625 34.832031 29.941406 33.738281 30.828125 33.371094 L 30.867188 33.355469 L 30.902344 33.347656 L 30.941406 33.332031 L 31.058594 33.300781 L 31.132812 33.285156 L 31.21875 33.285156 L 31.234375 33.277344 Z M 31.503906 33.277344 Z M 31.257812 33.761719 C 30.589844 33.839844 30.394531 34.640625 30.34375 35.179688 L 30.34375 35.394531 L 30.328125 35.410156 L 30.328125 36.515625 C 30.375 37.085938 30.417969 37.824219 30.941406 38.207031 C 31.425781 38.539062 32.066406 38.164062 32.203125 37.648438 C 32.34375 37.269531 32.378906 36.894531 32.410156 36.515625 L 32.410156 35.410156 C 32.359375 34.832031 32.28125 34.023438 31.613281 33.792969 L 31.558594 33.777344 L 31.542969 33.761719 L 31.472656 33.761719 L 31.457031 33.746094 L 31.273438 33.746094 Z M 31.257812 33.761719 Z M 31.257812 33.761719 "/>
<path style=" stroke:none;fill-rule:nonzero;fill:rgb(0%,0%,0%);fill-opacity:1;" d="M 5.355469 112.863281 C 6.566406 112.347656 7.785156 111.75 9.074219 111.453125 L 9.246094 111.453125 L 9.265625 111.433594 C 7.925781 111.1875 6.625 110.589844 5.355469 110.085938 L 5.355469 109.371094 C 7.300781 110.175781 9.292969 110.910156 11.199219 111.792969 C 11.457031 111.949219 11.734375 112.167969 11.773438 112.484375 L 11.773438 112.851562 L 11.753906 112.863281 L 11.753906 113.042969 L 11.746094 113.0625 L 11.746094 113.191406 L 11.726562 113.210938 L 11.726562 113.300781 L 11.703125 113.347656 L 11.597656 113.347656 L 11.574219 113.367188 L 11.398438 113.367188 L 11.386719 113.390625 L 11.1875 113.390625 L 11.167969 113.410156 L 11.078125 113.410156 C 11.1875 113.023438 11.425781 112.476562 10.972656 112.238281 C 10.574219 112.03125 10.128906 111.820312 9.710938 111.722656 C 8.253906 112.347656 6.804688 113 5.355469 113.617188 Z M 5.355469 112.863281 Z M 5.355469 112.863281 "/>
<path style=" stroke:none;fill-rule:nonzero;fill:rgb(0%,0%,0%);fill-opacity:1;" d="M 7.269531 106.484375 L 7.824219 106.484375 L 7.824219 109.082031 L 7.269531 109.082031 Z M 7.269531 106.484375 Z M 7.269531 106.484375 "/>
<path style=" stroke:none;fill-rule:nonzero;fill:rgb(0%,0%,0%);fill-opacity:1;" d="M 5.1875 103.378906 C 5.257812 102.632812 5.929688 102.007812 6.664062 101.941406 L 9.730469 101.941406 L 9.730469 102.652344 L 9.402344 102.652344 C 9.640625 103.0625 9.828125 103.605469 9.820312 104.09375 C 10.007812 104.765625 9.414062 105.402344 8.757812 105.441406 C 7.945312 105.519531 7.585938 104.628906 7.449219 103.964844 C 7.359375 103.535156 7.359375 103.121094 7.308594 102.695312 C 6.765625 102.652344 6.121094 102.695312 5.832031 103.230469 C 5.632812 103.855469 5.890625 104.539062 6.269531 105.066406 L 6.160156 105.066406 L 6.140625 105.074219 L 5.941406 105.074219 L 5.921875 105.09375 L 5.734375 105.09375 L 5.710938 105.113281 L 5.625 105.113281 C 5.277344 104.597656 5.15625 103.984375 5.1875 103.378906 Z M 5.1875 103.378906 Z M 7.824219 102.734375 C 7.824219 103.347656 7.90625 103.964844 8.222656 104.519531 C 8.480469 104.925781 9.066406 104.699219 9.164062 104.289062 C 9.355469 103.773438 9.273438 103.070312 8.777344 102.753906 L 8.71875 102.734375 L 8.648438 102.714844 L 8.628906 102.695312 L 7.824219 102.695312 L 7.804688 102.714844 Z M 7.824219 102.734375 Z M 7.824219 102.734375 "/>
<path style=" stroke:none;fill-rule:nonzero;fill:rgb(0%,0%,0%);fill-opacity:1;" d="M 5.355469 100.261719 C 5.902344 99.804688 6.445312 99.339844 7.003906 98.882812 C 6.445312 98.449219 5.910156 97.992188 5.355469 97.554688 L 5.355469 96.769531 C 6.070312 97.347656 6.753906 97.980469 7.488281 98.554688 C 8.242188 97.910156 8.996094 97.246094 9.730469 96.59375 L 9.730469 97.394531 C 9.117188 97.882812 8.5 98.398438 7.867188 98.882812 C 8.492188 99.359375 9.125 99.847656 9.730469 100.332031 L 9.730469 101.125 C 8.988281 100.480469 8.242188 99.828125 7.480469 99.210938 C 6.765625 99.804688 6.058594 100.453125 5.355469 101.046875 Z M 5.355469 100.261719 Z M 5.355469 100.261719 "/>
<path style=" stroke:none;fill-rule:nonzero;fill:rgb(0%,0%,0%);fill-opacity:1;" d="M 3.003906 94.953125 L 3.867188 94.953125 L 3.867188 95.816406 L 3.003906 95.816406 Z M 3.003906 94.953125 Z M 5.355469 95.023438 L 9.730469 95.023438 L 9.730469 95.738281 L 5.355469 95.738281 Z M 5.355469 95.023438 Z M 5.355469 95.023438 "/>
<path style=" stroke:none;fill-rule:nonzero;fill:rgb(0%,0%,0%);fill-opacity:1;" d="M 5.1875 91.96875 C 5.246094 91.601562 5.285156 91.117188 5.535156 90.816406 C 5.710938 90.867188 5.949219 90.867188 6.121094 90.945312 C 5.792969 91.550781 5.601562 92.296875 5.910156 92.949219 C 6.21875 93.378906 6.882812 93.160156 6.960938 92.664062 C 7.101562 91.980469 7.191406 91.175781 7.867188 90.796875 C 8.601562 90.363281 9.660156 90.816406 9.789062 91.679688 C 9.929688 92.433594 9.800781 93.238281 9.402344 93.921875 C 9.195312 93.875 8.945312 93.855469 8.757812 93.792969 C 9.175781 93.128906 9.472656 92.226562 9.027344 91.511719 C 8.679688 91.144531 8.042969 91.355469 7.933594 91.839844 C 7.777344 92.503906 7.714844 93.308594 7.070312 93.703125 C 6.308594 94.191406 5.214844 93.566406 5.226562 92.664062 L 5.207031 92.644531 L 5.207031 92.503906 L 5.1875 92.484375 Z M 5.1875 91.96875 Z M 5.1875 91.96875 "/>
<path style="fill:none;stroke-width:0.02;stroke-linecap:butt;stroke-linejoin:miter;stroke:rgb(0%,0%,0%);stroke-opacity:1;stroke-miterlimit:10;" d="M 9.930005 2.103099 L 9.824999 2.103099 " transform="matrix(28.346457,0,0,-28.346457,1,227.771654)"/>
<path style="fill:none;stroke-width:0.02;stroke-linecap:butt;stroke-linejoin:miter;stroke:rgb(0%,0%,0%);stroke-opacity:1;stroke-miterlimit:10;" d="M 9.930005 2.685734 L 9.824999 2.685734 " transform="matrix(28.346457,0,0,-28.346457,1,227.771654)"/>
<path style="fill:none;stroke-width:0.02;stroke-linecap:butt;stroke-linejoin:miter;stroke:rgb(0%,0%,0%);stroke-opacity:1;stroke-miterlimit:10;" d="M 9.930005 3.268368 L 9.824999 3.268368 " transform="matrix(28.346457,0,0,-28.346457,1,227.771654)"/>
<path style="fill:none;stroke-width:0.02;stroke-linecap:butt;stroke-linejoin:miter;stroke:rgb(0%,0%,0%);stroke-opacity:1;stroke-miterlimit:10;" d="M 9.930005 3.85114 L 9.824999 3.85114 " transform="matrix(28.346457,0,0,-28.346457,1,227.771654)"/>
<path style="fill:none;stroke-width:0.02;stroke-linecap:butt;stroke-linejoin:miter;stroke:rgb(0%,0%,0%);stroke-opacity:1;stroke-miterlimit:10;" d="M 9.930005 4.433775 L 9.824999 4.433775 " transform="matrix(28.346457,0,0,-28.346457,1,227.771654)"/>
<path style="fill:none;stroke-width:0.02;stroke-linecap:butt;stroke-linejoin:miter;stroke:rgb(0%,0%,0%);stroke-opacity:1;stroke-miterlimit:10;" d="M 9.930005 5.016547 L 9.824999 5.016547 " transform="matrix(28.346457,0,0,-28.346457,1,227.771654)"/>
<path style="fill:none;stroke-width:0.02;stroke-linecap:butt;stroke-linejoin:miter;stroke:rgb(0%,0%,0%);stroke-opacity:1;stroke-miterlimit:10;" d="M 9.930005 5.599182 L 9.824999 5.599182 " transform="matrix(28.346457,0,0,-28.346457,1,227.771654)"/>
<path style="fill:none;stroke-width:0.02;stroke-linecap:butt;stroke-linejoin:miter;stroke:rgb(0%,0%,0%);stroke-opacity:1;stroke-miterlimit:10;" d="M 9.930005 6.181954 L 9.824999 6.181954 " transform="matrix(28.346457,0,0,-28.346457,1,227.771654)"/>
<path style="fill:none;stroke-width:0.02;stroke-linecap:butt;stroke-linejoin:miter;stroke:rgb(0%,0%,0%);stroke-opacity:1;stroke-miterlimit:10;" d="M 9.930005 6.764589 L 9.824999 6.764589 " transform="matrix(28.346457,0,0,-28.346457,1,227.771654)"/>
<path style="fill:none;stroke-width:0.02;stroke-linecap:round;stroke-linejoin:miter;stroke:rgb(0%,0%,0%);stroke-opacity:1;stroke-miterlimit:10;" d="M 9.930005 0.937692 L 9.930005 7.929996 " transform="matrix(28.346457,0,0,-28.346457,1,227.771654)"/>
<path style="fill:none;stroke-width:0.02;stroke-linecap:butt;stroke-linejoin:miter;stroke:rgb(0%,0%,0%);stroke-opacity:1;stroke-miterlimit:10;" d="M 2.917169 0.937692 L 2.917169 1.042699 " transform="matrix(28.346457,0,0,-28.346457,1,227.771654)"/>
<path style="fill:none;stroke-width:0.02;stroke-linecap:butt;stroke-linejoin:miter;stroke:rgb(0%,0%,0%);stroke-opacity:1;stroke-miterlimit:10;" d="M 5.623223 0.937692 L 5.623223 1.042699 " transform="matrix(28.346457,0,0,-28.346457,1,227.771654)"/>
<path style="fill:none;stroke-width:0.02;stroke-linecap:butt;stroke-linejoin:miter;stroke:rgb(0%,0%,0%);stroke-opacity:1;stroke-miterlimit:10;" d="M 8.329276 0.937692 L 8.329276 1.042699 " transform="matrix(28.346457,0,0,-28.346457,1,227.771654)"/>
<path style="fill:none;stroke-width:0.02;stroke-linecap:round;stroke-linejoin:miter;stroke:rgb(0%,0%,0%);stroke-opacity:1;stroke-miterlimit:10;" d="M 1.316302 0.937692 L 9.930005 0.937692 " transform="matrix(28.346457,0,0,-28.346457,1,227.771654)"/>
<path style=" stroke:none;fill-rule:nonzero;fill:rgb(0%,0%,0%);fill-opacity:1;" d="M 81.800781 208.726562 C 82.046875 208.78125 81.945312 209.144531 81.730469 209.167969 L 80.664062 209.167969 C 80.445312 210.035156 80.402344 210.980469 80.785156 211.835938 C 80.878906 212.136719 80.363281 212.375 80.253906 212.050781 C 79.945312 211.089844 80.261719 210.136719 80.4375 209.167969 L 79.578125 209.167969 L 79.5625 209.21875 L 79.277344 210.359375 C 79.101562 210.9375 79.007812 211.550781 78.761719 212.097656 C 78.617188 212.3125 78.183594 212.191406 78.300781 211.90625 C 78.707031 211.027344 79.132812 210.121094 79.347656 209.167969 C 78.953125 209.160156 78.53125 209.136719 78.214844 209.414062 C 78.0625 209.550781 77.953125 209.71875 77.824219 209.875 L 77.714844 209.875 C 77.617188 209.710938 77.839844 209.558594 77.902344 209.414062 C 78.125 209.113281 78.402344 208.789062 78.800781 208.726562 Z M 81.800781 208.726562 Z M 81.800781 208.726562 "/>
<path style=" stroke:none;fill-rule:nonzero;fill:rgb(0%,0%,0%);fill-opacity:1;" d="M 85.378906 206.183594 L 85.40625 206.199219 L 85.4375 206.214844 L 85.46875 206.25 L 85.492188 206.304688 C 84.953125 208.011719 84.277344 209.699219 83.691406 211.40625 C 83.347656 212.28125 83.070312 213.203125 82.699219 214.066406 L 82.640625 214.097656 L 82.554688 214.097656 L 82.5 214.066406 L 82.46875 214.035156 L 82.4375 213.980469 C 82.984375 212.265625 83.65625 210.589844 84.246094 208.882812 C 84.585938 208.003906 84.855469 207.082031 85.238281 206.214844 L 85.261719 206.199219 L 85.292969 206.183594 Z M 85.378906 206.183594 Z M 85.378906 206.183594 "/>
<path style=" stroke:none;fill-rule:nonzero;fill:rgb(0%,0%,0%);fill-opacity:1;" d="M 87.984375 206.765625 C 88.90625 206.789062 89.632812 207.734375 89.492188 208.621094 C 89.398438 209.511719 88.5625 210.019531 87.96875 210.574219 L 87.714844 210.835938 L 87.683594 210.851562 L 87.363281 211.160156 L 87.339844 211.175781 L 87.023438 211.496094 L 86.992188 211.511719 L 86.921875 211.582031 L 86.9375 211.589844 L 89.507812 211.589844 L 89.507812 212.113281 L 86.363281 212.113281 L 86.363281 211.636719 L 87.640625 210.359375 C 88.253906 209.828125 88.96875 209.136719 88.855469 208.265625 C 88.792969 207.757812 88.363281 207.289062 87.839844 207.25 C 87.308594 207.167969 86.839844 207.589844 86.722656 208.097656 L 86.707031 208.121094 L 86.691406 208.175781 L 86.667969 208.265625 L 86.617188 208.4375 L 86.609375 208.480469 C 86.5 208.34375 86.378906 208.199219 86.292969 208.050781 C 86.453125 207.398438 86.976562 206.789062 87.667969 206.765625 Z M 87.984375 206.765625 Z M 87.984375 206.765625 "/>
<path style=" stroke:none;fill-rule:nonzero;fill:rgb(0%,0%,0%);fill-opacity:1;" d="M 160.53125 206.765625 C 161.285156 206.820312 161.785156 207.511719 161.921875 208.207031 C 161.992188 208.527344 162.007812 208.828125 162.039062 209.144531 L 162.039062 209.953125 C 162 210.78125 161.800781 211.867188 160.90625 212.203125 C 160.128906 212.511719 159.214844 212.027344 158.984375 211.234375 C 158.808594 210.8125 158.792969 210.382812 158.753906 209.953125 L 158.753906 209.144531 C 158.792969 208.320312 158.96875 207.226562 159.855469 206.859375 L 159.898438 206.84375 L 159.929688 206.835938 L 159.96875 206.820312 L 160.085938 206.789062 L 160.160156 206.773438 L 160.246094 206.773438 L 160.261719 206.765625 Z M 160.53125 206.765625 Z M 160.285156 207.25 C 159.621094 207.328125 159.421875 208.128906 159.375 208.667969 L 159.375 208.882812 L 159.355469 208.898438 L 159.355469 210.003906 C 159.40625 210.574219 159.445312 211.3125 159.96875 211.691406 C 160.453125 212.027344 161.09375 211.652344 161.230469 211.136719 C 161.375 210.757812 161.40625 210.382812 161.4375 210.003906 L 161.4375 208.898438 C 161.390625 208.320312 161.308594 207.511719 160.644531 207.28125 L 160.585938 207.265625 L 160.570312 207.25 L 160.5 207.25 L 160.484375 207.234375 L 160.300781 207.234375 Z M 160.285156 207.25 Z M 160.285156 207.25 "/>
<path style=" stroke:none;fill-rule:nonzero;fill:rgb(0%,0%,0%);fill-opacity:1;" d="M 235.214844 208.726562 C 235.460938 208.78125 235.359375 209.144531 235.144531 209.167969 L 234.082031 209.167969 C 233.859375 210.035156 233.816406 210.980469 234.199219 211.835938 C 234.292969 212.136719 233.777344 212.375 233.667969 212.050781 C 233.359375 211.089844 233.675781 210.136719 233.851562 209.167969 L 232.992188 209.167969 L 232.976562 209.21875 L 232.691406 210.359375 C 232.515625 210.9375 232.421875 211.550781 232.175781 212.097656 C 232.03125 212.3125 231.597656 212.191406 231.714844 211.90625 C 232.121094 211.027344 232.546875 210.121094 232.761719 209.167969 C 232.367188 209.160156 231.945312 209.136719 231.628906 209.414062 C 231.476562 209.550781 231.367188 209.71875 231.238281 209.875 L 231.128906 209.875 C 231.03125 209.710938 231.253906 209.558594 231.316406 209.414062 C 231.539062 209.113281 231.816406 208.789062 232.214844 208.726562 Z M 235.214844 208.726562 Z M 235.214844 208.726562 "/>
<path style=" stroke:none;fill-rule:nonzero;fill:rgb(0%,0%,0%);fill-opacity:1;" d="M 238.792969 206.183594 L 238.820312 206.199219 L 238.851562 206.214844 L 238.882812 206.25 L 238.90625 206.304688 C 238.367188 208.011719 237.691406 209.699219 237.105469 211.40625 C 236.761719 212.28125 236.484375 213.203125 236.113281 214.066406 L 236.054688 214.097656 L 235.96875 214.097656 L 235.914062 214.066406 L 235.882812 214.035156 L 235.851562 213.980469 C 236.398438 212.265625 237.074219 210.589844 237.660156 208.882812 C 238 208.003906 238.269531 207.082031 238.652344 206.214844 L 238.675781 206.199219 L 238.707031 206.183594 Z M 238.792969 206.183594 Z M 238.792969 206.183594 "/>
<path style=" stroke:none;fill-rule:nonzero;fill:rgb(0%,0%,0%);fill-opacity:1;" d="M 241.398438 206.765625 C 242.320312 206.789062 243.050781 207.734375 242.90625 208.621094 C 242.8125 209.511719 241.976562 210.019531 241.382812 210.574219 L 241.128906 210.835938 L 241.097656 210.851562 L 240.777344 211.160156 L 240.753906 211.175781 L 240.4375 211.496094 L 240.40625 211.511719 L 240.335938 211.582031 L 240.351562 211.589844 L 242.921875 211.589844 L 242.921875 212.113281 L 239.777344 212.113281 L 239.777344 211.636719 L 241.058594 210.359375 C 241.667969 209.828125 242.382812 209.136719 242.269531 208.265625 C 242.207031 207.757812 241.777344 207.289062 241.253906 207.25 C 240.722656 207.167969 240.253906 207.589844 240.136719 208.097656 L 240.121094 208.121094 L 240.105469 208.175781 L 240.082031 208.265625 L 240.03125 208.4375 L 240.023438 208.480469 C 239.914062 208.34375 239.792969 208.199219 239.707031 208.050781 C 239.867188 207.398438 240.390625 206.789062 241.082031 206.765625 Z M 241.398438 206.765625 Z M 241.398438 206.765625 "/>
<path style=" stroke:none;fill-rule:nonzero;fill:rgb(0%,0%,0%);fill-opacity:1;" d="M 149.582031 221.429688 C 150.039062 221.976562 150.503906 222.519531 150.960938 223.078125 C 151.398438 222.519531 151.855469 221.984375 152.292969 221.429688 L 153.074219 221.429688 C 152.5 222.144531 151.863281 222.828125 151.289062 223.5625 C 151.933594 224.316406 152.597656 225.070312 153.253906 225.804688 L 152.449219 225.804688 C 151.964844 225.191406 151.449219 224.574219 150.960938 223.941406 C 150.484375 224.566406 150 225.199219 149.511719 225.804688 L 148.71875 225.804688 C 149.363281 225.0625 150.019531 224.316406 150.632812 223.554688 C 150.039062 222.839844 149.394531 222.132812 148.800781 221.429688 Z M 149.582031 221.429688 Z M 149.582031 221.429688 "/>
<path style=" stroke:none;fill-rule:nonzero;fill:rgb(0%,0%,0%);fill-opacity:1;" d="M 156.003906 223.34375 L 156.003906 223.898438 L 153.402344 223.898438 L 153.402344 223.34375 Z M 156.003906 223.34375 Z M 156.003906 223.34375 "/>
<path style=" stroke:none;fill-rule:nonzero;fill:rgb(0%,0%,0%);fill-opacity:1;" d="M 159.105469 221.261719 C 159.851562 221.332031 160.476562 222.003906 160.546875 222.738281 L 160.546875 225.804688 L 159.832031 225.804688 L 159.832031 225.476562 C 159.425781 225.714844 158.878906 225.90625 158.394531 225.894531 C 157.71875 226.082031 157.082031 225.488281 157.042969 224.832031 C 156.964844 224.019531 157.855469 223.664062 158.523438 223.523438 C 158.949219 223.433594 159.367188 223.433594 159.792969 223.382812 C 159.832031 222.839844 159.792969 222.195312 159.257812 221.90625 C 158.632812 221.707031 157.945312 221.964844 157.421875 222.34375 L 157.421875 222.234375 L 157.410156 222.214844 L 157.410156 222.015625 L 157.390625 221.996094 L 157.390625 221.808594 L 157.371094 221.789062 L 157.371094 221.699219 C 157.886719 221.351562 158.503906 221.230469 159.105469 221.261719 Z M 159.105469 221.261719 Z M 159.753906 223.898438 C 159.136719 223.898438 158.523438 223.980469 157.964844 224.296875 C 157.558594 224.554688 157.789062 225.140625 158.195312 225.238281 C 158.710938 225.429688 159.414062 225.347656 159.730469 224.851562 L 159.753906 224.792969 L 159.773438 224.722656 L 159.792969 224.703125 L 159.792969 223.898438 L 159.773438 223.878906 Z M 159.753906 223.898438 Z M 159.753906 223.898438 "/>
<path style=" stroke:none;fill-rule:nonzero;fill:rgb(0%,0%,0%);fill-opacity:1;" d="M 162.222656 221.429688 C 162.679688 221.976562 163.144531 222.519531 163.601562 223.078125 C 164.039062 222.519531 164.496094 221.984375 164.929688 221.429688 L 165.714844 221.429688 C 165.140625 222.144531 164.503906 222.828125 163.929688 223.5625 C 164.574219 224.316406 165.238281 225.070312 165.894531 225.804688 L 165.089844 225.804688 C 164.605469 225.191406 164.085938 224.574219 163.601562 223.941406 C 163.125 224.566406 162.640625 225.199219 162.152344 225.804688 L 161.359375 225.804688 C 162.003906 225.0625 162.660156 224.316406 163.273438 223.554688 C 162.679688 222.839844 162.035156 222.132812 161.4375 221.429688 Z M 162.222656 221.429688 Z M 162.222656 221.429688 "/>
<path style=" stroke:none;fill-rule:nonzero;fill:rgb(0%,0%,0%);fill-opacity:1;" d="M 167.53125 219.078125 L 167.53125 219.941406 L 166.667969 219.941406 L 166.667969 219.078125 Z M 167.53125 219.078125 Z M 167.460938 221.429688 L 167.460938 225.804688 L 166.746094 225.804688 L 166.746094 221.429688 Z M 167.460938 221.429688 Z M 167.460938 221.429688 "/>
<path style=" stroke:none;fill-rule:nonzero;fill:rgb(0%,0%,0%);fill-opacity:1;" d="M 170.515625 221.261719 C 170.882812 221.320312 171.371094 221.359375 171.667969 221.609375 C 171.617188 221.789062 171.617188 222.023438 171.539062 222.195312 C 170.933594 221.867188 170.1875 221.679688 169.535156 221.984375 C 169.109375 222.292969 169.328125 222.957031 169.824219 223.039062 C 170.507812 223.175781 171.308594 223.265625 171.6875 223.941406 C 172.125 224.675781 171.667969 225.734375 170.804688 225.863281 C 170.050781 226.003906 169.246094 225.875 168.5625 225.476562 C 168.613281 225.269531 168.632812 225.019531 168.691406 224.832031 C 169.355469 225.25 170.257812 225.546875 170.972656 225.101562 C 171.339844 224.753906 171.132812 224.117188 170.644531 224.007812 C 169.980469 223.851562 169.175781 223.792969 168.78125 223.144531 C 168.292969 222.382812 168.917969 221.292969 169.824219 221.300781 L 169.84375 221.28125 L 169.980469 221.28125 L 170 221.261719 Z M 170.515625 221.261719 Z M 170.515625 221.261719 "/>
<path style="fill:none;stroke-width:0.02;stroke-linecap:butt;stroke-linejoin:miter;stroke:rgb(0%,0%,0%);stroke-opacity:1;stroke-miterlimit:10;" d="M 2.917169 7.929996 L 2.917169 7.824989 " transform="matrix(28.346457,0,0,-28.346457,1,227.771654)"/>
<path style="fill:none;stroke-width:0.02;stroke-linecap:butt;stroke-linejoin:miter;stroke:rgb(0%,0%,0%);stroke-opacity:1;stroke-miterlimit:10;" d="M 5.623223 7.929996 L 5.623223 7.824989 " transform="matrix(28.346457,0,0,-28.346457,1,227.771654)"/>
<path style="fill:none;stroke-width:0.02;stroke-linecap:butt;stroke-linejoin:miter;stroke:rgb(0%,0%,0%);stroke-opacity:1;stroke-miterlimit:10;" d="M 8.329276 7.929996 L 8.329276 7.824989 " transform="matrix(28.346457,0,0,-28.346457,1,227.771654)"/>
<path style="fill:none;stroke-width:0.02;stroke-linecap:round;stroke-linejoin:miter;stroke:rgb(0%,0%,0%);stroke-opacity:1;stroke-miterlimit:10;" d="M 1.316302 7.929996 L 9.930005 7.929996 " transform="matrix(28.346457,0,0,-28.346457,1,227.771654)"/>
<path style="fill:none;stroke-width:0.02;stroke-linecap:butt;stroke-linejoin:miter;stroke:rgb(79.215686%,38.431373%,29.411765%);stroke-opacity:1;stroke-miterlimit:10;" d="M 1.316302 4.431157 L 1.403394 4.430192 L 1.490348 4.428814 L 1.577303 4.42716 L 1.664395 4.424956 L 1.751349 4.422199 L 1.838441 4.418754 L 1.925395 4.414345 L 2.012349 4.408832 L 2.099441 4.402218 L 2.186395 4.394087 L 2.273487 4.384303 L 2.360442 4.37259 L 2.447396 4.35881 L 2.534488 4.342549 L 2.621442 4.323532 L 2.708396 4.301621 L 2.795488 4.276679 L 2.882442 4.248429 L 2.969535 4.216596 L 3.056489 4.181456 L 3.143443 4.142733 L 3.230535 4.100703 L 3.317489 4.055641 L 3.404443 4.007686 L 3.491535 3.957387 L 3.57849 3.905435 L 3.665582 3.852656 L 3.752536 3.799602 L 3.83949 3.74765 L 3.926582 3.697627 L 4.013536 3.650911 L 4.100628 3.608743 L 4.187582 3.572363 L 4.274537 3.543149 L 4.361629 3.52234 L 4.448583 3.511041 L 4.535537 3.510352 L 4.622629 3.5211 L 4.709583 3.543976 L 4.796675 3.579116 L 4.88363 3.626934 L 4.970584 3.687154 L 5.057676 3.759087 L 5.14463 3.842183 L 5.231584 3.935063 L 5.318676 4.036624 L 5.40563 4.144938 L 5.492722 4.258488 L 5.579677 4.375071 L 5.666631 4.492617 L 5.753723 4.609199 L 5.840677 4.72275 L 5.927631 4.831063 L 6.014723 4.932625 L 6.101678 5.025505 L 6.18877 5.1086 L 6.275724 5.180534 L 6.362678 5.240616 L 6.44977 5.288434 L 6.536724 5.323712 L 6.623816 5.346587 L 6.71077 5.357336 L 6.797725 5.356647 L 6.884817 5.345347 L 6.971771 5.324539 L 7.058725 5.295324 L 7.145817 5.258944 L 7.232771 5.216776 L 7.319863 5.170061 L 7.406817 5.120038 L 7.493772 5.068086 L 7.580864 5.015031 L 7.667818 4.962115 L 7.754772 4.910163 L 7.841864 4.860002 L 7.928818 4.812046 L 8.01591 4.766847 L 8.102865 4.724817 L 8.189819 4.686232 L 8.276911 4.650954 L 8.363865 4.619259 L 8.450957 4.591009 L 8.537911 4.565929 L 8.624865 4.544156 L 8.711957 4.525139 L 8.798912 4.508878 L 8.885866 4.49496 L 8.972958 4.483247 L 9.059912 4.473462 L 9.147004 4.46547 L 9.233958 4.458717 L 9.320913 4.453343 L 9.408005 4.448933 L 9.494959 4.445488 L 9.581913 4.442732 L 9.669005 4.440527 L 9.755959 4.438874 L 9.843051 4.437496 L 9.930005 4.436531 " transform="matrix(28.346457,0,0,-28.346457,1,227.771654)"/>
<path style="fill:none;stroke-width:0.05;stroke-linecap:butt;stroke-linejoin:miter;stroke:rgb(0%,0%,100%);stroke-opacity:1;stroke-miterlimit:10;" d="M 1.316302 4.334556 L 1.403394 3.601853 L 1.490348 2.941084 L 1.577303 2.386424 L 1.664395 1.961988 L 1.751349 1.681557 L 1.838441 1.549265 L 1.925395 1.560979 L 2.012349 1.704846 L 2.099441 1.964193 L 2.186395 2.318349 L 2.273487 2.744851 L 2.360442 3.220275 L 2.447396 3.722432 L 2.534488 4.230377 L 2.621442 4.726057 L 2.708396 5.194039 L 2.795488 5.621919 L 2.882442 6.000604 L 2.969535 6.324168 L 3.056489 6.589027 L 3.143443 6.79463 L 3.230535 6.941942 L 3.317489 7.033857 L 3.404443 7.074785 L 3.491535 7.069549 L 3.57849 7.023936 L 3.665582 6.943734 L 3.752536 6.835144 L 3.83949 6.703817 L 3.926582 6.555403 L 4.013536 6.394723 L 4.100628 6.226603 L 4.187582 6.055037 L 4.274537 5.883609 L 4.361629 5.715213 L 4.448583 5.552466 L 4.535537 5.397299 L 4.622629 5.251365 L 4.709583 5.115904 L 4.796675 4.991743 L 4.88363 4.879708 L 4.970584 4.779938 L 5.057676 4.692846 L 5.14463 4.61857 L 5.231584 4.556972 L 5.318676 4.507913 L 5.40563 4.471395 L 5.492722 4.44728 L 5.579677 4.435291 L 5.666631 4.435291 L 5.753723 4.447142 L 5.840677 4.470569 L 5.927631 4.505433 L 6.014723 4.551459 L 6.101678 4.60851 L 6.18877 4.676447 L 6.275724 4.75472 L 6.362678 4.843052 L 6.44977 4.940755 L 6.536724 5.047278 L 6.623816 5.161793 L 6.71077 5.28306 L 6.797725 5.409839 L 6.884817 5.540615 L 6.971771 5.673458 L 7.058725 5.806163 L 7.145817 5.936112 L 7.232771 6.060549 L 7.319863 6.176029 L 7.406817 6.279244 L 7.493772 6.366336 L 7.580864 6.433584 L 7.667818 6.476579 L 7.754772 6.491737 L 7.841864 6.475063 L 7.928818 6.423249 L 8.01591 6.333538 L 8.102865 6.204003 L 8.189819 6.033677 L 8.276911 5.822975 L 8.363865 5.573688 L 8.450957 5.289399 L 8.537911 4.975757 L 8.624865 4.640067 L 8.711957 4.291699 L 8.798912 3.941815 L 8.885866 3.602956 L 8.972958 3.289039 L 9.059912 3.014396 L 9.147004 2.793358 L 9.233958 2.639294 L 9.320913 2.563639 L 9.408005 2.574939 L 9.494959 2.678016 L 9.581913 2.872733 L 9.669005 3.153853 L 9.755959 3.509938 L 9.843051 3.924039 L 9.930005 4.373555 " transform="matrix(28.346457,0,0,-28.346457,1,227.771654)"/>
<path style=" stroke:none;fill-rule:nonzero;fill:rgb(100%,100%,100%);fill-opacity:1;" d="M 226.046875 32.488281 L 282.480469 32.488281 L 282.480469 2.984375 L 226.046875 2.984375 Z M 226.046875 32.488281 "/>
<path style="fill:none;stroke-width:0.02;stroke-linecap:butt;stroke-linejoin:miter;stroke:rgb(79.215686%,38.431373%,29.411765%);stroke-opacity:1;stroke-miterlimit:10;" d="M 8.12822 7.619524 L 8.75826 7.619524 " transform="matrix(28.346457,0,0,-28.346457,1,227.771654)"/>
<path style=" stroke:none;fill-rule:nonzero;fill:rgb(0%,0%,0%);fill-opacity:1;" d="M 257.160156 10.753906 C 258.09375 10.929688 258.511719 11.984375 258.558594 12.816406 C 258.660156 13.847656 258.113281 15.097656 257.003906 15.328125 C 256.4375 15.425781 255.800781 15.21875 255.40625 14.78125 L 255.386719 14.800781 L 255.386719 17.171875 L 254.640625 17.171875 L 254.640625 10.863281 L 255.355469 10.863281 L 255.355469 11.339844 C 255.734375 11.039062 256.308594 10.78125 256.824219 10.753906 Z M 257.160156 10.753906 Z M 256.308594 11.398438 C 255.941406 11.425781 255.59375 11.65625 255.386719 11.972656 L 255.386719 14.117188 C 255.632812 14.640625 256.277344 14.929688 256.804688 14.671875 C 258.144531 14.144531 258.152344 11.902344 256.773438 11.425781 L 256.695312 11.417969 L 256.605469 11.398438 L 256.597656 11.378906 L 256.316406 11.378906 Z M 256.308594 11.398438 Z M 256.308594 11.398438 "/>
<path style=" stroke:none;fill-rule:nonzero;fill:rgb(0%,0%,0%);fill-opacity:1;" d="M 260.476562 8.382812 L 260.476562 15.238281 L 259.761719 15.238281 L 259.761719 8.382812 Z M 260.476562 8.382812 Z M 260.476562 8.382812 "/>
<path style=" stroke:none;fill-rule:nonzero;fill:rgb(0%,0%,0%);fill-opacity:1;" d="M 263.949219 10.691406 C 265.375 10.8125 266.257812 12.460938 265.84375 13.757812 C 265.515625 15.066406 263.878906 15.800781 262.726562 15.066406 C 261.21875 14.246094 261.289062 11.773438 262.777344 10.960938 L 262.796875 10.949219 L 262.976562 10.863281 L 263.035156 10.84375 L 263.0625 10.820312 L 263.234375 10.773438 L 263.371094 10.734375 L 263.460938 10.714844 L 263.589844 10.714844 L 263.609375 10.691406 Z M 263.949219 10.691406 Z M 263.609375 11.308594 C 262.707031 11.386719 262.25 12.417969 262.390625 13.203125 C 262.378906 14.007812 263.105469 14.871094 263.949219 14.710938 C 264.96875 14.59375 265.347656 13.34375 265.128906 12.488281 C 265.027344 11.773438 264.316406 11.179688 263.609375 11.308594 Z M 263.609375 11.308594 Z M 263.609375 11.308594 "/>
<path style=" stroke:none;fill-rule:nonzero;fill:rgb(0%,0%,0%);fill-opacity:1;" d="M 267.996094 9.601562 L 267.996094 10.84375 L 268.015625 10.863281 L 269.375 10.863281 L 269.375 11.417969 L 268.015625 11.417969 L 267.996094 11.425781 L 267.996094 14.117188 C 268.035156 14.355469 268.113281 14.660156 268.390625 14.730469 C 268.738281 14.75 269.097656 14.621094 269.375 14.402344 L 269.394531 14.441406 L 269.402344 14.511719 L 269.425781 14.574219 L 269.445312 14.640625 L 269.464844 14.691406 L 269.503906 14.839844 C 269.621094 15.066406 269.265625 15.089844 269.125 15.175781 C 268.667969 15.296875 268.183594 15.457031 267.726562 15.257812 C 267.398438 15.058594 267.332031 14.640625 267.289062 14.304688 L 267.289062 11.425781 L 267.269531 11.417969 L 266.449219 11.417969 L 266.449219 10.863281 L 267.3125 10.863281 L 267.332031 10.84375 L 267.332031 9.601562 Z M 267.996094 9.601562 Z M 267.996094 9.601562 "/>
<path style=" stroke:none;fill-rule:nonzero;fill:rgb(0%,0%,0%);fill-opacity:1;" d="M 275.117188 8.550781 L 275.117188 14.671875 L 275.128906 14.691406 L 276.347656 14.691406 L 276.347656 15.238281 L 273.125 15.238281 L 273.125 14.691406 L 274.34375 14.691406 L 274.363281 14.671875 L 274.363281 9.53125 C 273.949219 9.671875 273.511719 9.761719 273.074219 9.75 L 273.074219 9.195312 C 273.730469 9.203125 274.445312 9.027344 274.941406 8.550781 Z M 275.117188 8.550781 Z M 275.117188 8.550781 "/>
<path style="fill:none;stroke-width:0.05;stroke-linecap:butt;stroke-linejoin:miter;stroke:rgb(0%,0%,100%);stroke-opacity:1;stroke-miterlimit:10;" d="M 8.12822 7.199498 L 8.75826 7.199498 " transform="matrix(28.346457,0,0,-28.346457,1,227.771654)"/>
<path style=" stroke:none;fill-rule:nonzero;fill:rgb(0%,0%,0%);fill-opacity:1;" d="M 257.160156 22.65625 C 258.09375 22.835938 258.511719 23.886719 258.558594 24.722656 C 258.660156 25.753906 258.113281 27.003906 257.003906 27.230469 C 256.4375 27.332031 255.800781 27.121094 255.40625 26.6875 L 255.386719 26.707031 L 255.386719 29.078125 L 254.640625 29.078125 L 254.640625 22.765625 L 255.355469 22.765625 L 255.355469 23.242188 C 255.734375 22.945312 256.308594 22.6875 256.824219 22.65625 Z M 257.160156 22.65625 Z M 256.308594 23.304688 C 255.941406 23.332031 255.59375 23.5625 255.386719 23.878906 L 255.386719 26.019531 C 255.632812 26.546875 256.277344 26.835938 256.804688 26.578125 C 258.144531 26.050781 258.152344 23.808594 256.773438 23.332031 L 256.695312 23.324219 L 256.605469 23.304688 L 256.597656 23.28125 L 256.316406 23.28125 Z M 256.308594 23.304688 Z M 256.308594 23.304688 "/>
<path style=" stroke:none;fill-rule:nonzero;fill:rgb(0%,0%,0%);fill-opacity:1;" d="M 260.476562 20.285156 L 260.476562 27.140625 L 259.761719 27.140625 L 259.761719 20.285156 Z M 260.476562 20.285156 Z M 260.476562 20.285156 "/>
<path style=" stroke:none;fill-rule:nonzero;fill:rgb(0%,0%,0%);fill-opacity:1;" d="M 263.949219 22.597656 C 265.375 22.71875 266.257812 24.363281 265.84375 25.664062 C 265.515625 26.972656 263.878906 27.707031 262.726562 26.972656 C 261.21875 26.152344 261.289062 23.679688 262.777344 22.867188 L 262.796875 22.855469 L 262.976562 22.765625 L 263.035156 22.746094 L 263.0625 22.726562 L 263.234375 22.679688 L 263.371094 22.636719 L 263.460938 22.617188 L 263.589844 22.617188 L 263.609375 22.597656 Z M 263.949219 22.597656 Z M 263.609375 23.214844 C 262.707031 23.292969 262.25 24.324219 262.390625 25.109375 C 262.378906 25.914062 263.105469 26.777344 263.949219 26.617188 C 264.96875 26.496094 265.347656 25.246094 265.128906 24.394531 C 265.027344 23.679688 264.316406 23.085938 263.609375 23.214844 Z M 263.609375 23.214844 Z M 263.609375 23.214844 "/>
<path style=" stroke:none;fill-rule:nonzero;fill:rgb(0%,0%,0%);fill-opacity:1;" d="M 267.996094 21.507812 L 267.996094 22.746094 L 268.015625 22.765625 L 269.375 22.765625 L 269.375 23.324219 L 268.015625 23.324219 L 267.996094 23.332031 L 267.996094 26.019531 C 268.035156 26.257812 268.113281 26.566406 268.390625 26.636719 C 268.738281 26.65625 269.097656 26.527344 269.375 26.308594 L 269.394531 26.347656 L 269.402344 26.417969 L 269.425781 26.476562 L 269.445312 26.546875 L 269.464844 26.597656 L 269.503906 26.746094 C 269.621094 26.972656 269.265625 26.992188 269.125 27.082031 C 268.667969 27.203125 268.183594 27.359375 267.726562 27.164062 C 267.398438 26.964844 267.332031 26.546875 267.289062 26.210938 L 267.289062 23.332031 L 267.269531 23.324219 L 266.449219 23.324219 L 266.449219 22.765625 L 267.3125 22.765625 L 267.332031 22.746094 L 267.332031 21.507812 Z M 267.996094 21.507812 Z M 267.996094 21.507812 "/>
<path style=" stroke:none;fill-rule:nonzero;fill:rgb(0%,0%,0%);fill-opacity:1;" d="M 274.703125 20.457031 C 275.851562 20.484375 276.765625 21.664062 276.585938 22.777344 C 276.46875 23.886719 275.425781 24.523438 274.683594 25.21875 L 274.363281 25.546875 L 274.324219 25.566406 L 273.929688 25.953125 L 273.898438 25.972656 L 273.5 26.367188 L 273.460938 26.386719 L 273.371094 26.476562 L 273.390625 26.488281 L 276.605469 26.488281 L 276.605469 27.140625 L 272.679688 27.140625 L 272.679688 26.546875 L 274.277344 24.949219 C 275.039062 24.285156 275.933594 23.421875 275.792969 22.332031 C 275.714844 21.695312 275.179688 21.109375 274.523438 21.0625 C 273.859375 20.960938 273.273438 21.488281 273.125 22.121094 L 273.105469 22.152344 L 273.085938 22.222656 L 273.054688 22.332031 L 272.996094 22.550781 L 272.984375 22.597656 C 272.847656 22.429688 272.699219 22.25 272.589844 22.0625 C 272.789062 21.25 273.441406 20.484375 274.304688 20.457031 Z M 274.703125 20.457031 Z M 274.703125 20.457031 "/>
<path style="fill:none;stroke-width:0.02;stroke-linecap:butt;stroke-linejoin:miter;stroke:rgb(0%,0%,0%);stroke-opacity:1;stroke-miterlimit:10;" d="M 7.939154 6.889163 L 9.930005 6.889163 L 9.930005 7.929996 L 7.939154 7.929996 Z M 7.939154 6.889163 " transform="matrix(28.346457,0,0,-28.346457,1,227.771654)"/>
</g>
</svg>
